# 3D Model: tree/sp_baobab/ov_28d06a2b-2d38-4cf3-a719-4cdaccc8700c (v6 Gemini)
# Style: hand-drawn ink illustration tree | Symmetry: asymmetric
# Dimensions: 4.7 x 5.6 x 2.307 m
# Triangles: 1008 | Vertices: 620
v 0.4 0 0
v 0.3464 0 0.2
v 0.2 0 0.3464
v 0 0 0.4
v -0.2 0 0.3464
v -0.3464 0 0.2
v -0.4 0 0
v -0.3464 0 -0.2
v -0.2 0 -0.3464
v 0 0 -0.4
v 0.2 0 -0.3464
v 0.3464 0 -0.2
v 0.25 3 0
v 0.2165 3 0.125
v 0.125 3 0.2165
v 0 3 0.25
v -0.125 3 0.2165
v -0.2165 3 0.125
v -0.25 3 0
v -0.2165 3 -0.125
v -0.125 3 -0.2165
v 0 3 -0.25
v 0.125 3 -0.2165
v 0.2165 3 -0.125
v 0 0 0
v 0 3 0
v 0 5.5 0
v 0 5.5 0
v 0 5.5 0
v 0 5.5 0
v 0 5.5 0
v 0 5.5 0
v 0 5.5 0
v 0 5.5 0
v 0 5.5 0
v 0 5.5 0
v 0 5.5 0
v 0.4592 5.4239 0
v 0.3715 5.4239 0.2699
v 0.1419 5.4239 0.4367
v -0.1419 5.4239 0.4367
v -0.3715 5.4239 0.2699
v -0.4592 5.4239 0
v -0.3715 5.4239 -0.2699
v -0.1419 5.4239 -0.4367
v 0.1419 5.4239 -0.4367
v 0.3715 5.4239 -0.2699
v 0.4592 5.4239 0
v 0.8485 5.2071 0
v 0.6865 5.2071 0.4988
v 0.2622 5.2071 0.807
v -0.2622 5.2071 0.807
v -0.6865 5.2071 0.4988
v -0.8485 5.2071 0
v -0.6865 5.2071 -0.4988
v -0.2622 5.2071 -0.807
v 0.2622 5.2071 -0.807
v 0.6865 5.2071 -0.4988
v 0.8485 5.2071 0
v 1.1087 4.8827 0
v 0.8969 4.8827 0.6517
v 0.3426 4.8827 1.0544
v -0.3426 4.8827 1.0544
v -0.8969 4.8827 0.6517
v -1.1087 4.8827 0
v -0.8969 4.8827 -0.6517
v -0.3426 4.8827 -1.0544
v 0.3426 4.8827 -1.0544
v 0.8969 4.8827 -0.6517
v 1.1087 4.8827 0
v 1.2 4.5 0
v 0.9708 4.5 0.7053
v 0.3708 4.5 1.1413
v -0.3708 4.5 1.1413
v -0.9708 4.5 0.7053
v -1.2 4.5 0
v -0.9708 4.5 -0.7053
v -0.3708 4.5 -1.1413
v 0.3708 4.5 -1.1413
v 0.9708 4.5 -0.7053
v 1.2 4.5 0
v 1.1087 4.1173 0
v 0.8969 4.1173 0.6517
v 0.3426 4.1173 1.0544
v -0.3426 4.1173 1.0544
v -0.8969 4.1173 0.6517
v -1.1087 4.1173 0
v -0.8969 4.1173 -0.6517
v -0.3426 4.1173 -1.0544
v 0.3426 4.1173 -1.0544
v 0.8969 4.1173 -0.6517
v 1.1087 4.1173 0
v 0.8485 3.7929 0
v 0.6865 3.7929 0.4988
v 0.2622 3.7929 0.807
v -0.2622 3.7929 0.807
v -0.6865 3.7929 0.4988
v -0.8485 3.7929 0
v -0.6865 3.7929 -0.4988
v -0.2622 3.7929 -0.807
v 0.2622 3.7929 -0.807
v 0.6865 3.7929 -0.4988
v 0.8485 3.7929 0
v 0.4592 3.5761 0
v 0.3715 3.5761 0.2699
v 0.1419 3.5761 0.4367
v -0.1419 3.5761 0.4367
v -0.3715 3.5761 0.2699
v -0.4592 3.5761 0
v -0.3715 3.5761 -0.2699
v -0.1419 3.5761 -0.4367
v 0.1419 3.5761 -0.4367
v 0.3715 3.5761 -0.2699
v 0.4592 3.5761 0
v 0 3.5 0
v 0 3.5 0
v 0 3.5 0
v 0 3.5 0
v 0 3.5 0
v 0 3.5 0
v 0 3.5 0
v 0 3.5 0
v 0 3.5 0
v 0 3.5 0
v 0 3.5 0
v -1.5 4.2 0
v -1.5 4.2 0
v -1.5 4.2 0
v -1.5 4.2 0
v -1.5 4.2 0
v -1.5 4.2 0
v -1.5 4.2 0
v -1.5 4.2 0
v -1.5 4.2 0
v -1.5 4.2 0
v -1.5 4.2 0
v -1.1939 4.1467 0
v -1.2523 4.1467 0.1799
v -1.4054 4.1467 0.2912
v -1.5946 4.1467 0.2912
v -1.7477 4.1467 0.1799
v -1.8061 4.1467 0
v -1.7477 4.1467 -0.1799
v -1.5946 4.1467 -0.2912
v -1.4054 4.1467 -0.2912
v -1.2523 4.1467 -0.1799
v -1.1939 4.1467 0
v -0.9343 3.995 0
v -1.0424 3.995 0.3325
v -1.3252 3.995 0.538
v -1.6748 3.995 0.538
v -1.9576 3.995 0.3325
v -2.0657 3.995 0
v -1.9576 3.995 -0.3325
v -1.6748 3.995 -0.538
v -1.3252 3.995 -0.538
v -1.0424 3.995 -0.3325
v -0.9343 3.995 0
v -0.7609 3.7679 0
v -0.9021 3.7679 0.4344
v -1.2716 3.7679 0.7029
v -1.7284 3.7679 0.7029
v -2.0979 3.7679 0.4344
v -2.2391 3.7679 0
v -2.0979 3.7679 -0.4344
v -1.7284 3.7679 -0.7029
v -1.2716 3.7679 -0.7029
v -0.9021 3.7679 -0.4344
v -0.7609 3.7679 0
v -0.7 3.5 0
v -0.8528 3.5 0.4702
v -1.2528 3.5 0.7608
v -1.7472 3.5 0.7608
v -2.1472 3.5 0.4702
v -2.3 3.5 0
v -2.1472 3.5 -0.4702
v -1.7472 3.5 -0.7608
v -1.2528 3.5 -0.7608
v -0.8528 3.5 -0.4702
v -0.7 3.5 0
v -0.7609 3.2321 0
v -0.9021 3.2321 0.4344
v -1.2716 3.2321 0.7029
v -1.7284 3.2321 0.7029
v -2.0979 3.2321 0.4344
v -2.2391 3.2321 0
v -2.0979 3.2321 -0.4344
v -1.7284 3.2321 -0.7029
v -1.2716 3.2321 -0.7029
v -0.9021 3.2321 -0.4344
v -0.7609 3.2321 0
v -0.9343 3.005 0
v -1.0424 3.005 0.3325
v -1.3252 3.005 0.538
v -1.6748 3.005 0.538
v -1.9576 3.005 0.3325
v -2.0657 3.005 0
v -1.9576 3.005 -0.3325
v -1.6748 3.005 -0.538
v -1.3252 3.005 -0.538
v -1.0424 3.005 -0.3325
v -0.9343 3.005 0
v -1.1939 2.8533 0
v -1.2523 2.8533 0.1799
v -1.4054 2.8533 0.2912
v -1.5946 2.8533 0.2912
v -1.7477 2.8533 0.1799
v -1.8061 2.8533 0
v -1.7477 2.8533 -0.1799
v -1.5946 2.8533 -0.2912
v -1.4054 2.8533 -0.2912
v -1.2523 2.8533 -0.1799
v -1.1939 2.8533 0
v -1.5 2.8 0
v -1.5 2.8 0
v -1.5 2.8 0
v -1.5 2.8 0
v -1.5 2.8 0
v -1.5 2.8 0
v -1.5 2.8 0
v -1.5 2.8 0
v -1.5 2.8 0
v -1.5 2.8 0
v -1.5 2.8 0
v 1.5 4.6 0
v 1.5 4.6 0
v 1.5 4.6 0
v 1.5 4.6 0
v 1.5 4.6 0
v 1.5 4.6 0
v 1.5 4.6 0
v 1.5 4.6 0
v 1.5 4.6 0
v 1.5 4.6 0
v 1.5 4.6 0
v 1.8444 4.5391 0
v 1.7786 4.5391 0.2024
v 1.6064 4.5391 0.3276
v 1.3936 4.5391 0.3276
v 1.2214 4.5391 0.2024
v 1.1556 4.5391 0
v 1.2214 4.5391 -0.2024
v 1.3936 4.5391 -0.3276
v 1.6064 4.5391 -0.3276
v 1.7786 4.5391 -0.2024
v 1.8444 4.5391 0
v 2.1364 4.3657 0
v 2.0149 4.3657 0.3741
v 1.6967 4.3657 0.6052
v 1.3033 4.3657 0.6052
v 0.9851 4.3657 0.3741
v 0.8636 4.3657 0
v 0.9851 4.3657 -0.3741
v 1.3033 4.3657 -0.6052
v 1.6967 4.3657 -0.6052
v 2.0149 4.3657 -0.3741
v 2.1364 4.3657 0
v 2.3315 4.1061 0
v 2.1727 4.1061 0.4887
v 1.7569 4.1061 0.7908
v 1.2431 4.1061 0.7908
v 0.8273 4.1061 0.4887
v 0.6685 4.1061 0
v 0.8273 4.1061 -0.4887
v 1.2431 4.1061 -0.7908
v 1.7569 4.1061 -0.7908
v 2.1727 4.1061 -0.4887
v 2.3315 4.1061 0
v 2.4 3.8 0
v 2.2281 3.8 0.529
v 1.7781 3.8 0.856
v 1.2219 3.8 0.856
v 0.7719 3.8 0.529
v 0.6 3.8 0
v 0.7719 3.8 -0.529
v 1.2219 3.8 -0.856
v 1.7781 3.8 -0.856
v 2.2281 3.8 -0.529
v 2.4 3.8 0
v 2.3315 3.4939 0
v 2.1727 3.4939 0.4887
v 1.7569 3.4939 0.7908
v 1.2431 3.4939 0.7908
v 0.8273 3.4939 0.4887
v 0.6685 3.4939 0
v 0.8273 3.4939 -0.4887
v 1.2431 3.4939 -0.7908
v 1.7569 3.4939 -0.7908
v 2.1727 3.4939 -0.4887
v 2.3315 3.4939 0
v 2.1364 3.2343 0
v 2.0149 3.2343 0.3741
v 1.6967 3.2343 0.6052
v 1.3033 3.2343 0.6052
v 0.9851 3.2343 0.3741
v 0.8636 3.2343 0
v 0.9851 3.2343 -0.3741
v 1.3033 3.2343 -0.6052
v 1.6967 3.2343 -0.6052
v 2.0149 3.2343 -0.3741
v 2.1364 3.2343 0
v 1.8444 3.0609 0
v 1.7786 3.0609 0.2024
v 1.6064 3.0609 0.3276
v 1.3936 3.0609 0.3276
v 1.2214 3.0609 0.2024
v 1.1556 3.0609 0
v 1.2214 3.0609 -0.2024
v 1.3936 3.0609 -0.3276
v 1.6064 3.0609 -0.3276
v 1.7786 3.0609 -0.2024
v 1.8444 3.0609 0
v 1.5 3 0
v 1.5 3 0
v 1.5 3 0
v 1.5 3 0
v 1.5 3 0
v 1.5 3 0
v 1.5 3 0
v 1.5 3 0
v 1.5 3 0
v 1.5 3 0
v 1.5 3 0
v -1 3 0.5
v -1 3 0.5
v -1 3 0.5
v -1 3 0.5
v -1 3 0.5
v -1 3 0.5
v -1 3 0.5
v -1 3 0.5
v -1 3 0.5
v -1 3 0.5
v -1 3 0.5
v -0.7704 2.9619 0.5
v -0.8142 2.9619 0.635
v -0.929 2.9619 0.7184
v -1.071 2.9619 0.7184
v -1.1858 2.9619 0.635
v -1.2296 2.9619 0.5
v -1.1858 2.9619 0.365
v -1.071 2.9619 0.2816
v -0.929 2.9619 0.2816
v -0.8142 2.9619 0.365
v -0.7704 2.9619 0.5
v -0.5757 2.8536 0.5
v -0.6568 2.8536 0.7494
v -0.8689 2.8536 0.9035
v -1.1311 2.8536 0.9035
v -1.3432 2.8536 0.7494
v -1.4243 2.8536 0.5
v -1.3432 2.8536 0.2506
v -1.1311 2.8536 0.0965
v -0.8689 2.8536 0.0965
v -0.6568 2.8536 0.2506
v -0.5757 2.8536 0.5
v -0.4457 2.6913 0.5
v -0.5515 2.6913 0.8258
v -0.8287 2.6913 1.0272
v -1.1713 2.6913 1.0272
v -1.4485 2.6913 0.8258
v -1.5543 2.6913 0.5
v -1.4485 2.6913 0.1742
v -1.1713 2.6913 -0.0272
v -0.8287 2.6913 -0.0272
v -0.5515 2.6913 0.1742
v -0.4457 2.6913 0.5
v -0.4 2.5 0.5
v -0.5146 2.5 0.8527
v -0.8146 2.5 1.0706
v -1.1854 2.5 1.0706
v -1.4854 2.5 0.8527
v -1.6 2.5 0.5
v -1.4854 2.5 0.1473
v -1.1854 2.5 -0.0706
v -0.8146 2.5 -0.0706
v -0.5146 2.5 0.1473
v -0.4 2.5 0.5
v -0.4457 2.3087 0.5
v -0.5515 2.3087 0.8258
v -0.8287 2.3087 1.0272
v -1.1713 2.3087 1.0272
v -1.4485 2.3087 0.8258
v -1.5543 2.3087 0.5
v -1.4485 2.3087 0.1742
v -1.1713 2.3087 -0.0272
v -0.8287 2.3087 -0.0272
v -0.5515 2.3087 0.1742
v -0.4457 2.3087 0.5
v -0.5757 2.1464 0.5
v -0.6568 2.1464 0.7494
v -0.8689 2.1464 0.9035
v -1.1311 2.1464 0.9035
v -1.3432 2.1464 0.7494
v -1.4243 2.1464 0.5
v -1.3432 2.1464 0.2506
v -1.1311 2.1464 0.0965
v -0.8689 2.1464 0.0965
v -0.6568 2.1464 0.2506
v -0.5757 2.1464 0.5
v -0.7704 2.0381 0.5
v -0.8142 2.0381 0.635
v -0.929 2.0381 0.7184
v -1.071 2.0381 0.7184
v -1.1858 2.0381 0.635
v -1.2296 2.0381 0.5
v -1.1858 2.0381 0.365
v -1.071 2.0381 0.2816
v -0.929 2.0381 0.2816
v -0.8142 2.0381 0.365
v -0.7704 2.0381 0.5
v -1 2 0.5
v -1 2 0.5
v -1 2 0.5
v -1 2 0.5
v -1 2 0.5
v -1 2 0.5
v -1 2 0.5
v -1 2 0.5
v -1 2 0.5
v -1 2 0.5
v -1 2 0.5
v 1.2 3.4 -0.5
v 1.2 3.4 -0.5
v 1.2 3.4 -0.5
v 1.2 3.4 -0.5
v 1.2 3.4 -0.5
v 1.2 3.4 -0.5
v 1.2 3.4 -0.5
v 1.2 3.4 -0.5
v 1.2 3.4 -0.5
v 1.2 3.4 -0.5
v 1.2 3.4 -0.5
v 1.4679 3.3543 -0.5
v 1.4167 3.3543 -0.3425
v 1.2828 3.3543 -0.2452
v 1.1172 3.3543 -0.2452
v 0.9833 3.3543 -0.3425
v 0.9321 3.3543 -0.5
v 0.9833 3.3543 -0.6575
v 1.1172 3.3543 -0.7548
v 1.2828 3.3543 -0.7548
v 1.4167 3.3543 -0.6575
v 1.4679 3.3543 -0.5
v 1.695 3.2243 -0.5
v 1.6004 3.2243 -0.2091
v 1.353 3.2243 -0.0293
v 1.047 3.2243 -0.0293
v 0.7996 3.2243 -0.2091
v 0.705 3.2243 -0.5
v 0.7996 3.2243 -0.7909
v 1.047 3.2243 -0.9707
v 1.353 3.2243 -0.9707
v 1.6004 3.2243 -0.7909
v 1.695 3.2243 -0.5
v 1.8467 3.0296 -0.5
v 1.7232 3.0296 -0.1199
v 1.3998 3.0296 0.1151
v 1.0002 3.0296 0.1151
v 0.6768 3.0296 -0.1199
v 0.5533 3.0296 -0.5
v 0.6768 3.0296 -0.8801
v 1.0002 3.0296 -1.1151
v 1.3998 3.0296 -1.1151
v 1.7232 3.0296 -0.8801
v 1.8467 3.0296 -0.5
v 1.9 2.8 -0.5
v 1.7663 2.8 -0.0886
v 1.4163 2.8 0.1657
v 0.9837 2.8 0.1657
v 0.6337 2.8 -0.0886
v 0.5 2.8 -0.5
v 0.6337 2.8 -0.9114
v 0.9837 2.8 -1.1657
v 1.4163 2.8 -1.1657
v 1.7663 2.8 -0.9114
v 1.9 2.8 -0.5
v 1.8467 2.5704 -0.5
v 1.7232 2.5704 -0.1199
v 1.3998 2.5704 0.1151
v 1.0002 2.5704 0.1151
v 0.6768 2.5704 -0.1199
v 0.5533 2.5704 -0.5
v 0.6768 2.5704 -0.8801
v 1.0002 2.5704 -1.1151
v 1.3998 2.5704 -1.1151
v 1.7232 2.5704 -0.8801
v 1.8467 2.5704 -0.5
v 1.695 2.3757 -0.5
v 1.6004 2.3757 -0.2091
v 1.353 2.3757 -0.0293
v 1.047 2.3757 -0.0293
v 0.7996 2.3757 -0.2091
v 0.705 2.3757 -0.5
v 0.7996 2.3757 -0.7909
v 1.047 2.3757 -0.9707
v 1.353 2.3757 -0.9707
v 1.6004 2.3757 -0.7909
v 1.695 2.3757 -0.5
v 1.4679 2.2457 -0.5
v 1.4167 2.2457 -0.3425
v 1.2828 2.2457 -0.2452
v 1.1172 2.2457 -0.2452
v 0.9833 2.2457 -0.3425
v 0.9321 2.2457 -0.5
v 0.9833 2.2457 -0.6575
v 1.1172 2.2457 -0.7548
v 1.2828 2.2457 -0.7548
v 1.4167 2.2457 -0.6575
v 1.4679 2.2457 -0.5
v 1.2 2.2 -0.5
v 1.2 2.2 -0.5
v 1.2 2.2 -0.5
v 1.2 2.2 -0.5
v 1.2 2.2 -0.5
v 1.2 2.2 -0.5
v 1.2 2.2 -0.5
v 1.2 2.2 -0.5
v 1.2 2.2 -0.5
v 1.2 2.2 -0.5
v 1.2 2.2 -0.5
v 0 0.3 0
v 0 0.3 0
v 0 0.3 0
v 0 0.3 0
v 0 0.3 0
v 0 0.3 0
v 0 0.3 0
v 0 0.3 0
v 0 0.3 0
v 0 0.3 0
v 0 0.3 0
v 0.2296 0.2848 0
v 0.1858 0.2848 0.135
v 0.071 0.2848 0.2184
v -0.071 0.2848 0.2184
v -0.1858 0.2848 0.135
v -0.2296 0.2848 0
v -0.1858 0.2848 -0.135
v -0.071 0.2848 -0.2184
v 0.071 0.2848 -0.2184
v 0.1858 0.2848 -0.135
v 0.2296 0.2848 0
v 0.4243 0.2414 0
v 0.3432 0.2414 0.2494
v 0.1311 0.2414 0.4035
v -0.1311 0.2414 0.4035
v -0.3432 0.2414 0.2494
v -0.4243 0.2414 0
v -0.3432 0.2414 -0.2494
v -0.1311 0.2414 -0.4035
v 0.1311 0.2414 -0.4035
v 0.3432 0.2414 -0.2494
v 0.4243 0.2414 0
v 0.5543 0.1765 0
v 0.4485 0.1765 0.3258
v 0.1713 0.1765 0.5272
v -0.1713 0.1765 0.5272
v -0.4485 0.1765 0.3258
v -0.5543 0.1765 0
v -0.4485 0.1765 -0.3258
v -0.1713 0.1765 -0.5272
v 0.1713 0.1765 -0.5272
v 0.4485 0.1765 -0.3258
v 0.5543 0.1765 0
v 0.6 0.1 0
v 0.4854 0.1 0.3527
v 0.1854 0.1 0.5706
v -0.1854 0.1 0.5706
v -0.4854 0.1 0.3527
v -0.6 0.1 0
v -0.4854 0.1 -0.3527
v -0.1854 0.1 -0.5706
v 0.1854 0.1 -0.5706
v 0.4854 0.1 -0.3527
v 0.6 0.1 0
v 0.5543 0.0235 0
v 0.4485 0.0235 0.3258
v 0.1713 0.0235 0.5272
v -0.1713 0.0235 0.5272
v -0.4485 0.0235 0.3258
v -0.5543 0.0235 0
v -0.4485 0.0235 -0.3258
v -0.1713 0.0235 -0.5272
v 0.1713 0.0235 -0.5272
v 0.4485 0.0235 -0.3258
v 0.5543 0.0235 0
v 0.4243 -0.0414 0
v 0.3432 -0.0414 0.2494
v 0.1311 -0.0414 0.4035
v -0.1311 -0.0414 0.4035
v -0.3432 -0.0414 0.2494
v -0.4243 -0.0414 0
v -0.3432 -0.0414 -0.2494
v -0.1311 -0.0414 -0.4035
v 0.1311 -0.0414 -0.4035
v 0.3432 -0.0414 -0.2494
v 0.4243 -0.0414 0
v 0.2296 -0.0848 0
v 0.1858 -0.0848 0.135
v 0.071 -0.0848 0.2184
v -0.071 -0.0848 0.2184
v -0.1858 -0.0848 0.135
v -0.2296 -0.0848 0
v -0.1858 -0.0848 -0.135
v -0.071 -0.0848 -0.2184
v 0.071 -0.0848 -0.2184
v 0.1858 -0.0848 -0.135
v 0.2296 -0.0848 0
v 0 -0.1 0
v 0 -0.1 0
v 0 -0.1 0
v 0 -0.1 0
v 0 -0.1 0
v 0 -0.1 0
v 0 -0.1 0
v 0 -0.1 0
v 0 -0.1 0
v 0 -0.1 0
v 0 -0.1 0
vt 0 0
vt 0.08333333333333333 0
vt 0.16666666666666666 0
vt 0.25 0
vt 0.3333333333333333 0
vt 0.4166666666666667 0
vt 0.5 0
vt 0.5833333333333334 0
vt 0.6666666666666666 0
vt 0.75 0
vt 0.8333333333333334 0
vt 0.9166666666666666 0
vt 0 1
vt 0.08333333333333333 1
vt 0.16666666666666666 1
vt 0.25 1
vt 0.3333333333333333 1
vt 0.4166666666666667 1
vt 0.5 1
vt 0.5833333333333334 1
vt 0.6666666666666666 1
vt 0.75 1
vt 0.8333333333333334 1
vt 0.9166666666666666 1
vt 0.5 0.5
vt 0.5 0.5
vt 0 0
vt 0.1 0
vt 0.2 0
vt 0.3 0
vt 0.4 0
vt 0.5 0
vt 0.6 0
vt 0.7 0
vt 0.8 0
vt 0.9 0
vt 1 0
vt 0 0.125
vt 0.1 0.125
vt 0.2 0.125
vt 0.3 0.125
vt 0.4 0.125
vt 0.5 0.125
vt 0.6 0.125
vt 0.7 0.125
vt 0.8 0.125
vt 0.9 0.125
vt 1 0.125
vt 0 0.25
vt 0.1 0.25
vt 0.2 0.25
vt 0.3 0.25
vt 0.4 0.25
vt 0.5 0.25
vt 0.6 0.25
vt 0.7 0.25
vt 0.8 0.25
vt 0.9 0.25
vt 1 0.25
vt 0 0.375
vt 0.1 0.375
vt 0.2 0.375
vt 0.3 0.375
vt 0.4 0.375
vt 0.5 0.375
vt 0.6 0.375
vt 0.7 0.375
vt 0.8 0.375
vt 0.9 0.375
vt 1 0.375
vt 0 0.5
vt 0.1 0.5
vt 0.2 0.5
vt 0.3 0.5
vt 0.4 0.5
vt 0.5 0.5
vt 0.6 0.5
vt 0.7 0.5
vt 0.8 0.5
vt 0.9 0.5
vt 1 0.5
vt 0 0.625
vt 0.1 0.625
vt 0.2 0.625
vt 0.3 0.625
vt 0.4 0.625
vt 0.5 0.625
vt 0.6 0.625
vt 0.7 0.625
vt 0.8 0.625
vt 0.9 0.625
vt 1 0.625
vt 0 0.75
vt 0.1 0.75
vt 0.2 0.75
vt 0.3 0.75
vt 0.4 0.75
vt 0.5 0.75
vt 0.6 0.75
vt 0.7 0.75
vt 0.8 0.75
vt 0.9 0.75
vt 1 0.75
vt 0 0.875
vt 0.1 0.875
vt 0.2 0.875
vt 0.3 0.875
vt 0.4 0.875
vt 0.5 0.875
vt 0.6 0.875
vt 0.7 0.875
vt 0.8 0.875
vt 0.9 0.875
vt 1 0.875
vt 0 1
vt 0.1 1
vt 0.2 1
vt 0.3 1
vt 0.4 1
vt 0.5 1
vt 0.6 1
vt 0.7 1
vt 0.8 1
vt 0.9 1
vt 1 1
vt 0 0
vt 0.1 0
vt 0.2 0
vt 0.3 0
vt 0.4 0
vt 0.5 0
vt 0.6 0
vt 0.7 0
vt 0.8 0
vt 0.9 0
vt 1 0
vt 0 0.125
vt 0.1 0.125
vt 0.2 0.125
vt 0.3 0.125
vt 0.4 0.125
vt 0.5 0.125
vt 0.6 0.125
vt 0.7 0.125
vt 0.8 0.125
vt 0.9 0.125
vt 1 0.125
vt 0 0.25
vt 0.1 0.25
vt 0.2 0.25
vt 0.3 0.25
vt 0.4 0.25
vt 0.5 0.25
vt 0.6 0.25
vt 0.7 0.25
vt 0.8 0.25
vt 0.9 0.25
vt 1 0.25
vt 0 0.375
vt 0.1 0.375
vt 0.2 0.375
vt 0.3 0.375
vt 0.4 0.375
vt 0.5 0.375
vt 0.6 0.375
vt 0.7 0.375
vt 0.8 0.375
vt 0.9 0.375
vt 1 0.375
vt 0 0.5
vt 0.1 0.5
vt 0.2 0.5
vt 0.3 0.5
vt 0.4 0.5
vt 0.5 0.5
vt 0.6 0.5
vt 0.7 0.5
vt 0.8 0.5
vt 0.9 0.5
vt 1 0.5
vt 0 0.625
vt 0.1 0.625
vt 0.2 0.625
vt 0.3 0.625
vt 0.4 0.625
vt 0.5 0.625
vt 0.6 0.625
vt 0.7 0.625
vt 0.8 0.625
vt 0.9 0.625
vt 1 0.625
vt 0 0.75
vt 0.1 0.75
vt 0.2 0.75
vt 0.3 0.75
vt 0.4 0.75
vt 0.5 0.75
vt 0.6 0.75
vt 0.7 0.75
vt 0.8 0.75
vt 0.9 0.75
vt 1 0.75
vt 0 0.875
vt 0.1 0.875
vt 0.2 0.875
vt 0.3 0.875
vt 0.4 0.875
vt 0.5 0.875
vt 0.6 0.875
vt 0.7 0.875
vt 0.8 0.875
vt 0.9 0.875
vt 1 0.875
vt 0 1
vt 0.1 1
vt 0.2 1
vt 0.3 1
vt 0.4 1
vt 0.5 1
vt 0.6 1
vt 0.7 1
vt 0.8 1
vt 0.9 1
vt 1 1
vt 0 0
vt 0.1 0
vt 0.2 0
vt 0.3 0
vt 0.4 0
vt 0.5 0
vt 0.6 0
vt 0.7 0
vt 0.8 0
vt 0.9 0
vt 1 0
vt 0 0.125
vt 0.1 0.125
vt 0.2 0.125
vt 0.3 0.125
vt 0.4 0.125
vt 0.5 0.125
vt 0.6 0.125
vt 0.7 0.125
vt 0.8 0.125
vt 0.9 0.125
vt 1 0.125
vt 0 0.25
vt 0.1 0.25
vt 0.2 0.25
vt 0.3 0.25
vt 0.4 0.25
vt 0.5 0.25
vt 0.6 0.25
vt 0.7 0.25
vt 0.8 0.25
vt 0.9 0.25
vt 1 0.25
vt 0 0.375
vt 0.1 0.375
vt 0.2 0.375
vt 0.3 0.375
vt 0.4 0.375
vt 0.5 0.375
vt 0.6 0.375
vt 0.7 0.375
vt 0.8 0.375
vt 0.9 0.375
vt 1 0.375
vt 0 0.5
vt 0.1 0.5
vt 0.2 0.5
vt 0.3 0.5
vt 0.4 0.5
vt 0.5 0.5
vt 0.6 0.5
vt 0.7 0.5
vt 0.8 0.5
vt 0.9 0.5
vt 1 0.5
vt 0 0.625
vt 0.1 0.625
vt 0.2 0.625
vt 0.3 0.625
vt 0.4 0.625
vt 0.5 0.625
vt 0.6 0.625
vt 0.7 0.625
vt 0.8 0.625
vt 0.9 0.625
vt 1 0.625
vt 0 0.75
vt 0.1 0.75
vt 0.2 0.75
vt 0.3 0.75
vt 0.4 0.75
vt 0.5 0.75
vt 0.6 0.75
vt 0.7 0.75
vt 0.8 0.75
vt 0.9 0.75
vt 1 0.75
vt 0 0.875
vt 0.1 0.875
vt 0.2 0.875
vt 0.3 0.875
vt 0.4 0.875
vt 0.5 0.875
vt 0.6 0.875
vt 0.7 0.875
vt 0.8 0.875
vt 0.9 0.875
vt 1 0.875
vt 0 1
vt 0.1 1
vt 0.2 1
vt 0.3 1
vt 0.4 1
vt 0.5 1
vt 0.6 1
vt 0.7 1
vt 0.8 1
vt 0.9 1
vt 1 1
vt 0 0
vt 0.1 0
vt 0.2 0
vt 0.3 0
vt 0.4 0
vt 0.5 0
vt 0.6 0
vt 0.7 0
vt 0.8 0
vt 0.9 0
vt 1 0
vt 0 0.125
vt 0.1 0.125
vt 0.2 0.125
vt 0.3 0.125
vt 0.4 0.125
vt 0.5 0.125
vt 0.6 0.125
vt 0.7 0.125
vt 0.8 0.125
vt 0.9 0.125
vt 1 0.125
vt 0 0.25
vt 0.1 0.25
vt 0.2 0.25
vt 0.3 0.25
vt 0.4 0.25
vt 0.5 0.25
vt 0.6 0.25
vt 0.7 0.25
vt 0.8 0.25
vt 0.9 0.25
vt 1 0.25
vt 0 0.375
vt 0.1 0.375
vt 0.2 0.375
vt 0.3 0.375
vt 0.4 0.375
vt 0.5 0.375
vt 0.6 0.375
vt 0.7 0.375
vt 0.8 0.375
vt 0.9 0.375
vt 1 0.375
vt 0 0.5
vt 0.1 0.5
vt 0.2 0.5
vt 0.3 0.5
vt 0.4 0.5
vt 0.5 0.5
vt 0.6 0.5
vt 0.7 0.5
vt 0.8 0.5
vt 0.9 0.5
vt 1 0.5
vt 0 0.625
vt 0.1 0.625
vt 0.2 0.625
vt 0.3 0.625
vt 0.4 0.625
vt 0.5 0.625
vt 0.6 0.625
vt 0.7 0.625
vt 0.8 0.625
vt 0.9 0.625
vt 1 0.625
vt 0 0.75
vt 0.1 0.75
vt 0.2 0.75
vt 0.3 0.75
vt 0.4 0.75
vt 0.5 0.75
vt 0.6 0.75
vt 0.7 0.75
vt 0.8 0.75
vt 0.9 0.75
vt 1 0.75
vt 0 0.875
vt 0.1 0.875
vt 0.2 0.875
vt 0.3 0.875
vt 0.4 0.875
vt 0.5 0.875
vt 0.6 0.875
vt 0.7 0.875
vt 0.8 0.875
vt 0.9 0.875
vt 1 0.875
vt 0 1
vt 0.1 1
vt 0.2 1
vt 0.3 1
vt 0.4 1
vt 0.5 1
vt 0.6 1
vt 0.7 1
vt 0.8 1
vt 0.9 1
vt 1 1
vt 0 0
vt 0.1 0
vt 0.2 0
vt 0.3 0
vt 0.4 0
vt 0.5 0
vt 0.6 0
vt 0.7 0
vt 0.8 0
vt 0.9 0
vt 1 0
vt 0 0.125
vt 0.1 0.125
vt 0.2 0.125
vt 0.3 0.125
vt 0.4 0.125
vt 0.5 0.125
vt 0.6 0.125
vt 0.7 0.125
vt 0.8 0.125
vt 0.9 0.125
vt 1 0.125
vt 0 0.25
vt 0.1 0.25
vt 0.2 0.25
vt 0.3 0.25
vt 0.4 0.25
vt 0.5 0.25
vt 0.6 0.25
vt 0.7 0.25
vt 0.8 0.25
vt 0.9 0.25
vt 1 0.25
vt 0 0.375
vt 0.1 0.375
vt 0.2 0.375
vt 0.3 0.375
vt 0.4 0.375
vt 0.5 0.375
vt 0.6 0.375
vt 0.7 0.375
vt 0.8 0.375
vt 0.9 0.375
vt 1 0.375
vt 0 0.5
vt 0.1 0.5
vt 0.2 0.5
vt 0.3 0.5
vt 0.4 0.5
vt 0.5 0.5
vt 0.6 0.5
vt 0.7 0.5
vt 0.8 0.5
vt 0.9 0.5
vt 1 0.5
vt 0 0.625
vt 0.1 0.625
vt 0.2 0.625
vt 0.3 0.625
vt 0.4 0.625
vt 0.5 0.625
vt 0.6 0.625
vt 0.7 0.625
vt 0.8 0.625
vt 0.9 0.625
vt 1 0.625
vt 0 0.75
vt 0.1 0.75
vt 0.2 0.75
vt 0.3 0.75
vt 0.4 0.75
vt 0.5 0.75
vt 0.6 0.75
vt 0.7 0.75
vt 0.8 0.75
vt 0.9 0.75
vt 1 0.75
vt 0 0.875
vt 0.1 0.875
vt 0.2 0.875
vt 0.3 0.875
vt 0.4 0.875
vt 0.5 0.875
vt 0.6 0.875
vt 0.7 0.875
vt 0.8 0.875
vt 0.9 0.875
vt 1 0.875
vt 0 1
vt 0.1 1
vt 0.2 1
vt 0.3 1
vt 0.4 1
vt 0.5 1
vt 0.6 1
vt 0.7 1
vt 0.8 1
vt 0.9 1
vt 1 1
vt 0 0
vt 0.1 0
vt 0.2 0
vt 0.3 0
vt 0.4 0
vt 0.5 0
vt 0.6 0
vt 0.7 0
vt 0.8 0
vt 0.9 0
vt 1 0
vt 0 0.125
vt 0.1 0.125
vt 0.2 0.125
vt 0.3 0.125
vt 0.4 0.125
vt 0.5 0.125
vt 0.6 0.125
vt 0.7 0.125
vt 0.8 0.125
vt 0.9 0.125
vt 1 0.125
vt 0 0.25
vt 0.1 0.25
vt 0.2 0.25
vt 0.3 0.25
vt 0.4 0.25
vt 0.5 0.25
vt 0.6 0.25
vt 0.7 0.25
vt 0.8 0.25
vt 0.9 0.25
vt 1 0.25
vt 0 0.375
vt 0.1 0.375
vt 0.2 0.375
vt 0.3 0.375
vt 0.4 0.375
vt 0.5 0.375
vt 0.6 0.375
vt 0.7 0.375
vt 0.8 0.375
vt 0.9 0.375
vt 1 0.375
vt 0 0.5
vt 0.1 0.5
vt 0.2 0.5
vt 0.3 0.5
vt 0.4 0.5
vt 0.5 0.5
vt 0.6 0.5
vt 0.7 0.5
vt 0.8 0.5
vt 0.9 0.5
vt 1 0.5
vt 0 0.625
vt 0.1 0.625
vt 0.2 0.625
vt 0.3 0.625
vt 0.4 0.625
vt 0.5 0.625
vt 0.6 0.625
vt 0.7 0.625
vt 0.8 0.625
vt 0.9 0.625
vt 1 0.625
vt 0 0.75
vt 0.1 0.75
vt 0.2 0.75
vt 0.3 0.75
vt 0.4 0.75
vt 0.5 0.75
vt 0.6 0.75
vt 0.7 0.75
vt 0.8 0.75
vt 0.9 0.75
vt 1 0.75
vt 0 0.875
vt 0.1 0.875
vt 0.2 0.875
vt 0.3 0.875
vt 0.4 0.875
vt 0.5 0.875
vt 0.6 0.875
vt 0.7 0.875
vt 0.8 0.875
vt 0.9 0.875
vt 1 0.875
vt 0 1
vt 0.1 1
vt 0.2 1
vt 0.3 1
vt 0.4 1
vt 0.5 1
vt 0.6 1
vt 0.7 1
vt 0.8 1
vt 0.9 1
vt 1 1
vn 0 -1 0
vn 0 -1 0
vn 0 -1 0
vn 0 -1 0
vn 0 -1 0
vn 0 -1 0
vn 0 -1 0
vn 0 -1 0
vn 0 -1 0
vn 0 -1 0
vn 0 -1 0
vn 0 -1 0
vn 0 1 0
vn 0 1 0
vn 0 1 0
vn 0 1 0
vn 0 1 0
vn 0 1 0
vn 0 1 0
vn 0 1 0
vn 0 1 0
vn 0 1 0
vn 0 1 0
vn 0 1 0
vn 0 -1 0
vn 0 1 0
vn 0 1 0
vn 0 1 0
vn 0 1 0
vn 0 1 0
vn 0 1 0
vn 0 1 0
vn 0 1 0
vn 0 1 0
vn 0 1 0
vn 0 1 0
vn 0 1 0
vn 0.3826834323650898 0.9238795325112867 0
vn 0.30959740024909344 0.9238795325112867 0.22493567784086385
vn 0.11825568406654853 0.9238795325112867 0.3639535720290143
vn -0.11825568406654849 0.9238795325112867 0.36395357202901435
vn -0.3095974002490934 0.9238795325112867 0.2249356778408639
vn -0.3826834323650898 0.9238795325112867 4.686520405326298e-17
vn -0.30959740024909344 0.9238795325112867 -0.22493567784086382
vn -0.11825568406654857 0.9238795325112867 -0.3639535720290143
vn 0.11825568406654843 0.9238795325112867 -0.36395357202901435
vn 0.3095974002490934 0.9238795325112867 -0.22493567784086396
vn 0.3826834323650898 0.9238795325112867 -9.373040810652596e-17
vn 0.7071067811865475 0.7071067811865476 0
vn 0.5720614028176843 0.7071067811865476 0.4156269377774534
vn 0.21850801222441055 0.7071067811865476 0.6724985119639573
vn -0.21850801222441046 0.7071067811865476 0.6724985119639573
vn -0.5720614028176841 0.7071067811865476 0.41562693777745346
vn -0.7071067811865475 0.7071067811865476 8.659560562354932e-17
vn -0.5720614028176843 0.7071067811865476 -0.4156269377774533
vn -0.2185080122244106 0.7071067811865476 -0.6724985119639573
vn 0.21850801222441038 0.7071067811865476 -0.6724985119639573
vn 0.5720614028176841 0.7071067811865476 -0.4156269377774536
vn 0.7071067811865475 0.7071067811865476 -1.7319121124709863e-16
vn 0.9238795325112868 0.38268343236508984 0
vn 0.7474342425568128 0.38268343236508984 0.5430427641049989
vn 0.28549447630116936 0.38268343236508984 0.8786616496665794
vn -0.28549447630116925 0.38268343236508984 0.8786616496665794
vn -0.7474342425568127 0.38268343236508984 0.543042764104999
vn -0.9238795325112868 0.38268343236508984 1.1314261122877003e-16
vn -0.7474342425568128 0.38268343236508984 -0.5430427641049987
vn -0.2854944763011695 0.38268343236508984 -0.8786616496665794
vn 0.28549447630116914 0.38268343236508984 -0.8786616496665794
vn 0.7474342425568127 0.38268343236508984 -0.543042764104999
vn 0.9238795325112868 0.38268343236508984 -2.2628522245754005e-16
vn 1 6.123233995736766e-17 0
vn 0.8090169943749475 6.123233995736766e-17 0.5877852522924731
vn 0.30901699437494745 6.123233995736766e-17 0.9510565162951534
vn -0.30901699437494734 6.123233995736766e-17 0.9510565162951536
vn -0.8090169943749473 6.123233995736766e-17 0.5877852522924732
vn -1 6.123233995736766e-17 1.2246467991473532e-16
vn -0.8090169943749475 6.123233995736766e-17 -0.587785252292473
vn -0.30901699437494756 6.123233995736766e-17 -0.9510565162951534
vn 0.30901699437494723 6.123233995736766e-17 -0.9510565162951536
vn 0.8090169943749473 6.123233995736766e-17 -0.5877852522924734
vn 1 6.123233995736766e-17 -2.4492935982947064e-16
vn 0.9238795325112868 -0.3826834323650897 0
vn 0.7474342425568128 -0.3826834323650897 0.5430427641049989
vn 0.28549447630116936 -0.3826834323650897 0.8786616496665794
vn -0.28549447630116925 -0.3826834323650897 0.8786616496665794
vn -0.7474342425568127 -0.3826834323650897 0.543042764104999
vn -0.9238795325112868 -0.3826834323650897 1.1314261122877003e-16
vn -0.7474342425568128 -0.3826834323650897 -0.5430427641049987
vn -0.2854944763011695 -0.3826834323650897 -0.8786616496665794
vn 0.28549447630116914 -0.3826834323650897 -0.8786616496665794
vn 0.7474342425568127 -0.3826834323650897 -0.543042764104999
vn 0.9238795325112868 -0.3826834323650897 -2.2628522245754005e-16
vn 0.7071067811865476 -0.7071067811865475 0
vn 0.5720614028176844 -0.7071067811865475 0.41562693777745346
vn 0.21850801222441055 -0.7071067811865475 0.6724985119639574
vn -0.21850801222441052 -0.7071067811865475 0.6724985119639574
vn -0.5720614028176843 -0.7071067811865475 0.4156269377774535
vn -0.7071067811865476 -0.7071067811865475 8.659560562354934e-17
vn -0.5720614028176844 -0.7071067811865475 -0.4156269377774534
vn -0.21850801222441066 -0.7071067811865475 -0.6724985119639574
vn 0.2185080122244104 -0.7071067811865475 -0.6724985119639574
vn 0.5720614028176843 -0.7071067811865475 -0.41562693777745363
vn 0.7071067811865476 -0.7071067811865475 -1.7319121124709868e-16
vn 0.3826834323650899 -0.9238795325112867 0
vn 0.3095974002490935 -0.9238795325112867 0.22493567784086396
vn 0.11825568406654857 -0.9238795325112867 0.3639535720290144
vn -0.11825568406654853 -0.9238795325112867 0.36395357202901446
vn -0.3095974002490935 -0.9238795325112867 0.224935677840864
vn -0.3826834323650899 -0.9238795325112867 4.6865204053263004e-17
vn -0.3095974002490935 -0.9238795325112867 -0.2249356778408639
vn -0.11825568406654863 -0.9238795325112867 -0.3639535720290144
vn 0.11825568406654849 -0.9238795325112867 -0.36395357202901446
vn 0.3095974002490935 -0.9238795325112867 -0.224935677840864
vn 0.3826834323650899 -0.9238795325112867 -9.373040810652601e-17
vn 1.2246467991473532e-16 -1 0
vn 9.907600726170916e-17 -1 7.198293278059966e-17
vn 3.7843667304341506e-17 -1 1.1647083184890923e-16
vn -3.7843667304341493e-17 -1 1.1647083184890926e-16
vn -9.907600726170915e-17 -1 7.198293278059968e-17
vn -1.2246467991473532e-16 -1 1.4997597826618576e-32
vn -9.907600726170916e-17 -1 -7.198293278059965e-17
vn -3.784366730434152e-17 -1 -1.1647083184890923e-16
vn 3.7843667304341475e-17 -1 -1.1647083184890926e-16
vn 9.907600726170915e-17 -1 -7.19829327805997e-17
vn 1.2246467991473532e-16 -1 -2.999519565323715e-32
vn 0 1 0
vn 0 1 0
vn 0 1 0
vn 0 1 0
vn 0 1 0
vn 0 1 0
vn 0 1 0
vn 0 1 0
vn 0 1 0
vn 0 1 0
vn 0 1 0
vn 0.3826834323650898 0.9238795325112867 0
vn 0.30959740024909344 0.9238795325112867 0.22493567784086388
vn 0.11825568406654853 0.9238795325112867 0.36395357202901424
vn -0.1182556840665485 0.9238795325112867 0.36395357202901435
vn -0.3095974002490934 0.9238795325112867 0.2249356778408639
vn -0.3826834323650898 0.9238795325112867 4.6865204053262986e-17
vn -0.30959740024909344 0.9238795325112867 -0.22493567784086385
vn -0.11825568406654857 0.9238795325112867 -0.36395357202901424
vn 0.11825568406654845 0.9238795325112867 -0.36395357202901435
vn 0.3095974002490934 0.9238795325112867 -0.224935677840864
vn 0.3826834323650898 0.9238795325112867 -9.373040810652597e-17
vn 0.7071067811865475 0.7071067811865476 0
vn 0.5720614028176843 0.7071067811865476 0.4156269377774534
vn 0.21850801222441055 0.7071067811865476 0.6724985119639573
vn -0.21850801222441046 0.7071067811865476 0.6724985119639573
vn -0.5720614028176841 0.7071067811865476 0.4156269377774535
vn -0.7071067811865475 0.7071067811865476 8.659560562354932e-17
vn -0.5720614028176843 0.7071067811865476 -0.4156269377774533
vn -0.2185080122244106 0.7071067811865476 -0.6724985119639573
vn 0.2185080122244104 0.7071067811865476 -0.6724985119639573
vn 0.5720614028176841 0.7071067811865476 -0.4156269377774536
vn 0.7071067811865475 0.7071067811865476 -1.7319121124709863e-16
vn 0.9238795325112867 0.3826834323650898 0
vn 0.7474342425568128 0.3826834323650898 0.5430427641049989
vn 0.28549447630116936 0.3826834323650898 0.8786616496665794
vn -0.28549447630116925 0.3826834323650898 0.8786616496665796
vn -0.7474342425568127 0.3826834323650898 0.543042764104999
vn -0.9238795325112867 0.3826834323650898 1.1314261122877003e-16
vn -0.7474342425568128 0.3826834323650898 -0.5430427641049987
vn -0.2854944763011695 0.3826834323650898 -0.8786616496665794
vn 0.28549447630116914 0.3826834323650898 -0.8786616496665796
vn 0.7474342425568127 0.3826834323650898 -0.543042764104999
vn 0.9238795325112867 0.3826834323650898 -2.2628522245754005e-16
vn 1 6.123233995736766e-17 0
vn 0.8090169943749476 6.123233995736766e-17 0.5877852522924731
vn 0.30901699437494745 6.123233995736766e-17 0.9510565162951535
vn -0.30901699437494734 6.123233995736766e-17 0.9510565162951536
vn -0.8090169943749473 6.123233995736766e-17 0.5877852522924732
vn -1 6.123233995736766e-17 1.2246467991473532e-16
vn -0.8090169943749476 6.123233995736766e-17 -0.587785252292473
vn -0.30901699437494756 6.123233995736766e-17 -0.9510565162951535
vn 0.30901699437494723 6.123233995736766e-17 -0.9510565162951536
vn 0.8090169943749473 6.123233995736766e-17 -0.5877852522924734
vn 1 6.123233995736766e-17 -2.4492935982947064e-16
vn 0.9238795325112867 -0.3826834323650897 0
vn 0.7474342425568128 -0.3826834323650897 0.5430427641049989
vn 0.28549447630116936 -0.3826834323650897 0.8786616496665794
vn -0.28549447630116925 -0.3826834323650897 0.8786616496665796
vn -0.7474342425568127 -0.3826834323650897 0.543042764104999
vn -0.9238795325112867 -0.3826834323650897 1.1314261122877003e-16
vn -0.7474342425568128 -0.3826834323650897 -0.5430427641049987
vn -0.2854944763011695 -0.3826834323650897 -0.8786616496665794
vn 0.28549447630116914 -0.3826834323650897 -0.8786616496665796
vn 0.7474342425568127 -0.3826834323650897 -0.543042764104999
vn 0.9238795325112867 -0.3826834323650897 -2.2628522245754005e-16
vn 0.7071067811865476 -0.7071067811865475 0
vn 0.5720614028176844 -0.7071067811865475 0.4156269377774535
vn 0.21850801222441057 -0.7071067811865475 0.6724985119639574
vn -0.2185080122244105 -0.7071067811865475 0.6724985119639574
vn -0.5720614028176843 -0.7071067811865475 0.4156269377774535
vn -0.7071067811865476 -0.7071067811865475 8.659560562354935e-17
vn -0.5720614028176844 -0.7071067811865475 -0.4156269377774534
vn -0.21850801222441069 -0.7071067811865475 -0.6724985119639574
vn 0.2185080122244104 -0.7071067811865475 -0.6724985119639574
vn 0.5720614028176843 -0.7071067811865475 -0.41562693777745363
vn 0.7071067811865476 -0.7071067811865475 -1.731912112470987e-16
vn 0.3826834323650899 -0.9238795325112867 0
vn 0.3095974002490935 -0.9238795325112867 0.22493567784086393
vn 0.11825568406654857 -0.9238795325112867 0.3639535720290144
vn -0.11825568406654853 -0.9238795325112867 0.36395357202901446
vn -0.3095974002490935 -0.9238795325112867 0.224935677840864
vn -0.3826834323650899 -0.9238795325112867 4.6865204053263e-17
vn -0.3095974002490935 -0.9238795325112867 -0.2249356778408639
vn -0.11825568406654861 -0.9238795325112867 -0.3639535720290144
vn 0.1182556840665485 -0.9238795325112867 -0.36395357202901446
vn 0.3095974002490935 -0.9238795325112867 -0.22493567784086402
vn 0.3826834323650899 -0.9238795325112867 -9.3730408106526e-17
vn 1.2246467991473532e-16 -1 0
vn 9.907600726170916e-17 -1 7.198293278059965e-17
vn 3.78436673043415e-17 -1 1.1647083184890923e-16
vn -3.7843667304341493e-17 -1 1.1647083184890926e-16
vn -9.907600726170916e-17 -1 7.198293278059968e-17
vn -1.2246467991473532e-16 -1 1.4997597826618576e-32
vn -9.907600726170916e-17 -1 -7.198293278059965e-17
vn -3.784366730434152e-17 -1 -1.1647083184890923e-16
vn 3.784366730434147e-17 -1 -1.1647083184890926e-16
vn 9.907600726170916e-17 -1 -7.19829327805997e-17
vn 1.2246467991473532e-16 -1 -2.999519565323715e-32
vn 0 1 0
vn 0 1 0
vn 0 1 0
vn 0 1 0
vn 0 1 0
vn 0 1 0
vn 0 1 0
vn 0 1 0
vn 0 1 0
vn 0 1 0
vn 0 1 0
vn 0.3826834323650898 0.9238795325112867 0
vn 0.3095974002490935 0.9238795325112867 0.22493567784086388
vn 0.11825568406654852 0.9238795325112867 0.3639535720290143
vn -0.11825568406654849 0.9238795325112867 0.36395357202901435
vn -0.3095974002490934 0.9238795325112867 0.22493567784086388
vn -0.3826834323650898 0.9238795325112867 4.6865204053262986e-17
vn -0.3095974002490935 0.9238795325112867 -0.22493567784086382
vn -0.11825568406654857 0.9238795325112867 -0.3639535720290143
vn 0.11825568406654845 0.9238795325112867 -0.36395357202901435
vn 0.3095974002490934 0.9238795325112867 -0.22493567784086396
vn 0.3826834323650898 0.9238795325112867 -9.373040810652597e-17
vn 0.7071067811865475 0.7071067811865476 0
vn 0.5720614028176843 0.7071067811865476 0.4156269377774534
vn 0.21850801222441055 0.7071067811865476 0.6724985119639573
vn -0.21850801222441046 0.7071067811865476 0.6724985119639573
vn -0.5720614028176841 0.7071067811865476 0.41562693777745346
vn -0.7071067811865475 0.7071067811865476 8.65956056235493e-17
vn -0.5720614028176843 0.7071067811865476 -0.4156269377774533
vn -0.21850801222441057 0.7071067811865476 -0.6724985119639573
vn 0.21850801222441038 0.7071067811865476 -0.6724985119639573
vn 0.5720614028176841 0.7071067811865476 -0.4156269377774536
vn 0.7071067811865475 0.7071067811865476 -1.731912112470986e-16
vn 0.9238795325112867 0.3826834323650899 0
vn 0.7474342425568128 0.3826834323650899 0.5430427641049989
vn 0.28549447630116936 0.3826834323650899 0.8786616496665794
vn -0.28549447630116925 0.3826834323650899 0.8786616496665796
vn -0.7474342425568127 0.3826834323650899 0.543042764104999
vn -0.9238795325112867 0.3826834323650899 1.1314261122877003e-16
vn -0.7474342425568128 0.3826834323650899 -0.5430427641049987
vn -0.2854944763011695 0.3826834323650899 -0.8786616496665794
vn 0.28549447630116914 0.3826834323650899 -0.8786616496665796
vn 0.7474342425568127 0.3826834323650899 -0.543042764104999
vn 0.9238795325112867 0.3826834323650899 -2.2628522245754005e-16
vn 1 6.123233995736766e-17 0
vn 0.8090169943749475 6.123233995736766e-17 0.5877852522924731
vn 0.3090169943749475 6.123233995736766e-17 0.9510565162951535
vn -0.30901699437494734 6.123233995736766e-17 0.9510565162951536
vn -0.8090169943749473 6.123233995736766e-17 0.5877852522924732
vn -1 6.123233995736766e-17 1.2246467991473532e-16
vn -0.8090169943749475 6.123233995736766e-17 -0.587785252292473
vn -0.30901699437494756 6.123233995736766e-17 -0.9510565162951535
vn 0.30901699437494723 6.123233995736766e-17 -0.9510565162951536
vn 0.8090169943749473 6.123233995736766e-17 -0.5877852522924734
vn 1 6.123233995736766e-17 -2.4492935982947064e-16
vn 0.9238795325112867 -0.3826834323650897 0
vn 0.7474342425568128 -0.3826834323650897 0.5430427641049989
vn 0.28549447630116936 -0.3826834323650897 0.8786616496665794
vn -0.28549447630116925 -0.3826834323650897 0.8786616496665796
vn -0.7474342425568127 -0.3826834323650897 0.543042764104999
vn -0.9238795325112867 -0.3826834323650897 1.1314261122877003e-16
vn -0.7474342425568128 -0.3826834323650897 -0.5430427641049987
vn -0.2854944763011695 -0.3826834323650897 -0.8786616496665794
vn 0.28549447630116914 -0.3826834323650897 -0.8786616496665796
vn 0.7474342425568127 -0.3826834323650897 -0.543042764104999
vn 0.9238795325112867 -0.3826834323650897 -2.2628522245754005e-16
vn 0.7071067811865476 -0.7071067811865475 0
vn 0.5720614028176844 -0.7071067811865475 0.41562693777745346
vn 0.21850801222441057 -0.7071067811865475 0.6724985119639574
vn -0.2185080122244105 -0.7071067811865475 0.6724985119639574
vn -0.5720614028176843 -0.7071067811865475 0.4156269377774535
vn -0.7071067811865476 -0.7071067811865475 8.659560562354934e-17
vn -0.5720614028176844 -0.7071067811865475 -0.4156269377774534
vn -0.21850801222441066 -0.7071067811865475 -0.6724985119639574
vn 0.2185080122244104 -0.7071067811865475 -0.6724985119639574
vn 0.5720614028176843 -0.7071067811865475 -0.41562693777745363
vn 0.7071067811865476 -0.7071067811865475 -1.7319121124709868e-16
vn 0.3826834323650899 -0.9238795325112867 0
vn 0.3095974002490935 -0.9238795325112867 0.22493567784086393
vn 0.11825568406654857 -0.9238795325112867 0.3639535720290144
vn -0.11825568406654852 -0.9238795325112867 0.36395357202901446
vn -0.3095974002490935 -0.9238795325112867 0.224935677840864
vn -0.3826834323650899 -0.9238795325112867 4.6865204053263e-17
vn -0.3095974002490935 -0.9238795325112867 -0.22493567784086388
vn -0.11825568406654861 -0.9238795325112867 -0.3639535720290144
vn 0.11825568406654849 -0.9238795325112867 -0.36395357202901446
vn 0.3095974002490935 -0.9238795325112867 -0.22493567784086402
vn 0.3826834323650899 -0.9238795325112867 -9.3730408106526e-17
vn 1.2246467991473532e-16 -1 0
vn 9.907600726170916e-17 -1 7.198293278059966e-17
vn 3.7843667304341506e-17 -1 1.1647083184890923e-16
vn -3.7843667304341493e-17 -1 1.1647083184890926e-16
vn -9.907600726170915e-17 -1 7.198293278059968e-17
vn -1.2246467991473532e-16 -1 1.4997597826618576e-32
vn -9.907600726170916e-17 -1 -7.198293278059965e-17
vn -3.784366730434152e-17 -1 -1.1647083184890923e-16
vn 3.7843667304341475e-17 -1 -1.1647083184890926e-16
vn 9.907600726170915e-17 -1 -7.19829327805997e-17
vn 1.2246467991473532e-16 -1 -2.999519565323715e-32
vn 0 1 0
vn 0 1 0
vn 0 1 0
vn 0 1 0
vn 0 1 0
vn 0 1 0
vn 0 1 0
vn 0 1 0
vn 0 1 0
vn 0 1 0
vn 0 1 0
vn 0.3826834323650898 0.9238795325112867 0
vn 0.30959740024909344 0.9238795325112867 0.22493567784086385
vn 0.11825568406654853 0.9238795325112867 0.3639535720290143
vn -0.11825568406654849 0.9238795325112867 0.36395357202901435
vn -0.3095974002490934 0.9238795325112867 0.2249356778408639
vn -0.3826834323650898 0.9238795325112867 4.686520405326298e-17
vn -0.30959740024909344 0.9238795325112867 -0.22493567784086382
vn -0.11825568406654857 0.9238795325112867 -0.3639535720290143
vn 0.11825568406654843 0.9238795325112867 -0.36395357202901435
vn 0.3095974002490934 0.9238795325112867 -0.22493567784086396
vn 0.3826834323650898 0.9238795325112867 -9.373040810652596e-17
vn 0.7071067811865475 0.7071067811865476 0
vn 0.5720614028176843 0.7071067811865476 0.4156269377774534
vn 0.21850801222441055 0.7071067811865476 0.6724985119639573
vn -0.21850801222441046 0.7071067811865476 0.6724985119639573
vn -0.5720614028176841 0.7071067811865476 0.41562693777745346
vn -0.7071067811865475 0.7071067811865476 8.659560562354932e-17
vn -0.5720614028176843 0.7071067811865476 -0.4156269377774533
vn -0.2185080122244106 0.7071067811865476 -0.6724985119639573
vn 0.21850801222441038 0.7071067811865476 -0.6724985119639573
vn 0.5720614028176841 0.7071067811865476 -0.4156269377774536
vn 0.7071067811865475 0.7071067811865476 -1.7319121124709863e-16
vn 0.9238795325112868 0.38268343236508984 0
vn 0.7474342425568128 0.38268343236508984 0.5430427641049989
vn 0.28549447630116936 0.38268343236508984 0.8786616496665794
vn -0.28549447630116925 0.38268343236508984 0.8786616496665794
vn -0.7474342425568127 0.38268343236508984 0.543042764104999
vn -0.9238795325112868 0.38268343236508984 1.1314261122877003e-16
vn -0.7474342425568128 0.38268343236508984 -0.5430427641049987
vn -0.2854944763011695 0.38268343236508984 -0.8786616496665794
vn 0.28549447630116914 0.38268343236508984 -0.8786616496665794
vn 0.7474342425568127 0.38268343236508984 -0.543042764104999
vn 0.9238795325112868 0.38268343236508984 -2.2628522245754005e-16
vn 1 6.123233995736766e-17 0
vn 0.8090169943749475 6.123233995736766e-17 0.5877852522924731
vn 0.30901699437494745 6.123233995736766e-17 0.9510565162951534
vn -0.30901699437494734 6.123233995736766e-17 0.9510565162951536
vn -0.8090169943749473 6.123233995736766e-17 0.5877852522924732
vn -1 6.123233995736766e-17 1.2246467991473532e-16
vn -0.8090169943749475 6.123233995736766e-17 -0.587785252292473
vn -0.30901699437494756 6.123233995736766e-17 -0.9510565162951534
vn 0.30901699437494723 6.123233995736766e-17 -0.9510565162951536
vn 0.8090169943749473 6.123233995736766e-17 -0.5877852522924734
vn 1 6.123233995736766e-17 -2.4492935982947064e-16
vn 0.9238795325112868 -0.3826834323650897 0
vn 0.7474342425568128 -0.3826834323650897 0.5430427641049989
vn 0.28549447630116936 -0.3826834323650897 0.8786616496665794
vn -0.28549447630116925 -0.3826834323650897 0.8786616496665794
vn -0.7474342425568127 -0.3826834323650897 0.543042764104999
vn -0.9238795325112868 -0.3826834323650897 1.1314261122877003e-16
vn -0.7474342425568128 -0.3826834323650897 -0.5430427641049987
vn -0.2854944763011695 -0.3826834323650897 -0.8786616496665794
vn 0.28549447630116914 -0.3826834323650897 -0.8786616496665794
vn 0.7474342425568127 -0.3826834323650897 -0.543042764104999
vn 0.9238795325112868 -0.3826834323650897 -2.2628522245754005e-16
vn 0.7071067811865476 -0.7071067811865475 0
vn 0.5720614028176844 -0.7071067811865475 0.41562693777745346
vn 0.21850801222441055 -0.7071067811865475 0.6724985119639574
vn -0.21850801222441052 -0.7071067811865475 0.6724985119639574
vn -0.5720614028176843 -0.7071067811865475 0.4156269377774535
vn -0.7071067811865476 -0.7071067811865475 8.659560562354934e-17
vn -0.5720614028176844 -0.7071067811865475 -0.4156269377774534
vn -0.21850801222441066 -0.7071067811865475 -0.6724985119639574
vn 0.2185080122244104 -0.7071067811865475 -0.6724985119639574
vn 0.5720614028176843 -0.7071067811865475 -0.41562693777745363
vn 0.7071067811865476 -0.7071067811865475 -1.7319121124709868e-16
vn 0.3826834323650899 -0.9238795325112867 0
vn 0.3095974002490935 -0.9238795325112867 0.22493567784086396
vn 0.11825568406654857 -0.9238795325112867 0.3639535720290144
vn -0.11825568406654853 -0.9238795325112867 0.36395357202901446
vn -0.3095974002490935 -0.9238795325112867 0.224935677840864
vn -0.3826834323650899 -0.9238795325112867 4.6865204053263004e-17
vn -0.3095974002490935 -0.9238795325112867 -0.2249356778408639
vn -0.11825568406654863 -0.9238795325112867 -0.3639535720290144
vn 0.11825568406654849 -0.9238795325112867 -0.36395357202901446
vn 0.3095974002490935 -0.9238795325112867 -0.224935677840864
vn 0.3826834323650899 -0.9238795325112867 -9.373040810652601e-17
vn 1.2246467991473532e-16 -1 0
vn 9.907600726170916e-17 -1 7.198293278059966e-17
vn 3.7843667304341506e-17 -1 1.1647083184890923e-16
vn -3.7843667304341493e-17 -1 1.1647083184890926e-16
vn -9.907600726170915e-17 -1 7.198293278059968e-17
vn -1.2246467991473532e-16 -1 1.4997597826618576e-32
vn -9.907600726170916e-17 -1 -7.198293278059965e-17
vn -3.784366730434152e-17 -1 -1.1647083184890923e-16
vn 3.7843667304341475e-17 -1 -1.1647083184890926e-16
vn 9.907600726170915e-17 -1 -7.19829327805997e-17
vn 1.2246467991473532e-16 -1 -2.999519565323715e-32
vn 0 1 0
vn 0 1 0
vn 0 1 0
vn 0 1 0
vn 0 1 0
vn 0 1 0
vn 0 1 0
vn 0 1 0
vn 0 1 0
vn 0 1 0
vn 0 1 0
vn 0.3826834323650898 0.9238795325112868 0
vn 0.30959740024909344 0.9238795325112868 0.22493567784086388
vn 0.11825568406654854 0.9238795325112868 0.3639535720290143
vn -0.11825568406654847 0.9238795325112868 0.36395357202901435
vn -0.3095974002490934 0.9238795325112868 0.22493567784086393
vn -0.3826834323650898 0.9238795325112868 4.686520405326298e-17
vn -0.30959740024909344 0.9238795325112868 -0.2249356778408638
vn -0.11825568406654859 0.9238795325112868 -0.3639535720290143
vn 0.11825568406654845 0.9238795325112868 -0.36395357202901435
vn 0.3095974002490934 0.9238795325112868 -0.22493567784086396
vn 0.3826834323650898 0.9238795325112868 -9.373040810652596e-17
vn 0.7071067811865475 0.7071067811865476 0
vn 0.5720614028176843 0.7071067811865476 0.4156269377774534
vn 0.21850801222441055 0.7071067811865476 0.6724985119639573
vn -0.21850801222441046 0.7071067811865476 0.6724985119639573
vn -0.5720614028176841 0.7071067811865476 0.41562693777745346
vn -0.7071067811865475 0.7071067811865476 8.659560562354933e-17
vn -0.5720614028176843 0.7071067811865476 -0.4156269377774533
vn -0.21850801222441063 0.7071067811865476 -0.6724985119639573
vn 0.21850801222441038 0.7071067811865476 -0.6724985119639573
vn 0.5720614028176841 0.7071067811865476 -0.4156269377774535
vn 0.7071067811865475 0.7071067811865476 -1.7319121124709866e-16
vn 0.9238795325112867 0.38268343236508984 0
vn 0.7474342425568128 0.38268343236508984 0.5430427641049989
vn 0.28549447630116936 0.38268343236508984 0.8786616496665794
vn -0.28549447630116925 0.38268343236508984 0.8786616496665796
vn -0.7474342425568126 0.38268343236508984 0.543042764104999
vn -0.9238795325112867 0.38268343236508984 1.1314261122877003e-16
vn -0.7474342425568128 0.38268343236508984 -0.5430427641049987
vn -0.2854944763011695 0.38268343236508984 -0.8786616496665794
vn 0.28549447630116914 0.38268343236508984 -0.8786616496665796
vn 0.7474342425568126 0.38268343236508984 -0.543042764104999
vn 0.9238795325112867 0.38268343236508984 -2.2628522245754005e-16
vn 1 6.123233995736766e-17 0
vn 0.8090169943749473 6.123233995736766e-17 0.5877852522924731
vn 0.30901699437494745 6.123233995736766e-17 0.9510565162951535
vn -0.30901699437494734 6.123233995736766e-17 0.9510565162951536
vn -0.8090169943749473 6.123233995736766e-17 0.5877852522924732
vn -1 6.123233995736766e-17 1.2246467991473532e-16
vn -0.8090169943749473 6.123233995736766e-17 -0.587785252292473
vn -0.30901699437494756 6.123233995736766e-17 -0.9510565162951535
vn 0.30901699437494723 6.123233995736766e-17 -0.9510565162951536
vn 0.8090169943749473 6.123233995736766e-17 -0.5877852522924734
vn 1 6.123233995736766e-17 -2.4492935982947064e-16
vn 0.9238795325112867 -0.3826834323650897 0
vn 0.7474342425568128 -0.3826834323650897 0.5430427641049989
vn 0.28549447630116936 -0.3826834323650897 0.8786616496665794
vn -0.28549447630116925 -0.3826834323650897 0.8786616496665796
vn -0.7474342425568126 -0.3826834323650897 0.543042764104999
vn -0.9238795325112867 -0.3826834323650897 1.1314261122877003e-16
vn -0.7474342425568128 -0.3826834323650897 -0.5430427641049987
vn -0.2854944763011695 -0.3826834323650897 -0.8786616496665794
vn 0.28549447630116914 -0.3826834323650897 -0.8786616496665796
vn 0.7474342425568126 -0.3826834323650897 -0.543042764104999
vn 0.9238795325112867 -0.3826834323650897 -2.2628522245754005e-16
vn 0.7071067811865476 -0.7071067811865475 0
vn 0.5720614028176844 -0.7071067811865475 0.41562693777745346
vn 0.21850801222441057 -0.7071067811865475 0.6724985119639574
vn -0.2185080122244105 -0.7071067811865475 0.6724985119639574
vn -0.5720614028176843 -0.7071067811865475 0.4156269377774535
vn -0.7071067811865476 -0.7071067811865475 8.659560562354934e-17
vn -0.5720614028176844 -0.7071067811865475 -0.4156269377774534
vn -0.21850801222441066 -0.7071067811865475 -0.6724985119639574
vn 0.2185080122244104 -0.7071067811865475 -0.6724985119639574
vn 0.5720614028176843 -0.7071067811865475 -0.41562693777745363
vn 0.7071067811865476 -0.7071067811865475 -1.7319121124709868e-16
vn 0.3826834323650899 -0.9238795325112868 0
vn 0.3095974002490935 -0.9238795325112868 0.22493567784086393
vn 0.11825568406654859 -0.9238795325112868 0.36395357202901435
vn -0.11825568406654854 -0.9238795325112868 0.36395357202901446
vn -0.3095974002490935 -0.9238795325112868 0.22493567784086402
vn -0.3826834323650899 -0.9238795325112868 4.6865204053263e-17
vn -0.3095974002490935 -0.9238795325112868 -0.22493567784086393
vn -0.11825568406654861 -0.9238795325112868 -0.36395357202901435
vn 0.11825568406654847 -0.9238795325112868 -0.36395357202901446
vn 0.3095974002490935 -0.9238795325112868 -0.22493567784086402
vn 0.3826834323650899 -0.9238795325112868 -9.3730408106526e-17
vn 1.2246467991473532e-16 -1 0
vn 9.907600726170917e-17 -1 7.198293278059966e-17
vn 3.7843667304341506e-17 -1 1.1647083184890923e-16
vn -3.7843667304341493e-17 -1 1.1647083184890926e-16
vn -9.907600726170915e-17 -1 7.198293278059968e-17
vn -1.2246467991473532e-16 -1 1.4997597826618576e-32
vn -9.907600726170917e-17 -1 -7.198293278059965e-17
vn -3.784366730434152e-17 -1 -1.1647083184890923e-16
vn 3.7843667304341475e-17 -1 -1.1647083184890926e-16
vn 9.907600726170915e-17 -1 -7.19829327805997e-17
vn 1.2246467991473532e-16 -1 -2.999519565323715e-32
vn 0 1 0
vn 0 1 0
vn 0 1 0
vn 0 1 0
vn 0 1 0
vn 0 1 0
vn 0 1 0
vn 0 1 0
vn 0 1 0
vn 0 1 0
vn 0 1 0
vn 0.3826834323650898 0.9238795325112867 0
vn 0.30959740024909344 0.9238795325112867 0.22493567784086385
vn 0.11825568406654853 0.9238795325112867 0.3639535720290143
vn -0.11825568406654849 0.9238795325112867 0.36395357202901435
vn -0.3095974002490934 0.9238795325112867 0.2249356778408639
vn -0.3826834323650898 0.9238795325112867 4.686520405326298e-17
vn -0.30959740024909344 0.9238795325112867 -0.22493567784086382
vn -0.11825568406654857 0.9238795325112867 -0.3639535720290143
vn 0.11825568406654843 0.9238795325112867 -0.36395357202901435
vn 0.3095974002490934 0.9238795325112867 -0.22493567784086396
vn 0.3826834323650898 0.9238795325112867 -9.373040810652596e-17
vn 0.7071067811865475 0.7071067811865476 0
vn 0.5720614028176843 0.7071067811865476 0.4156269377774534
vn 0.21850801222441055 0.7071067811865476 0.6724985119639573
vn -0.21850801222441046 0.7071067811865476 0.6724985119639573
vn -0.5720614028176841 0.7071067811865476 0.41562693777745346
vn -0.7071067811865475 0.7071067811865476 8.659560562354932e-17
vn -0.5720614028176843 0.7071067811865476 -0.4156269377774533
vn -0.2185080122244106 0.7071067811865476 -0.6724985119639573
vn 0.21850801222441038 0.7071067811865476 -0.6724985119639573
vn 0.5720614028176841 0.7071067811865476 -0.4156269377774536
vn 0.7071067811865475 0.7071067811865476 -1.7319121124709863e-16
vn 0.9238795325112868 0.3826834323650899 0
vn 0.7474342425568128 0.3826834323650899 0.5430427641049989
vn 0.28549447630116936 0.3826834323650899 0.8786616496665794
vn -0.28549447630116925 0.3826834323650899 0.8786616496665794
vn -0.7474342425568127 0.3826834323650899 0.543042764104999
vn -0.9238795325112868 0.3826834323650899 1.1314261122877003e-16
vn -0.7474342425568128 0.3826834323650899 -0.5430427641049987
vn -0.2854944763011695 0.3826834323650899 -0.8786616496665794
vn 0.28549447630116914 0.3826834323650899 -0.8786616496665794
vn 0.7474342425568127 0.3826834323650899 -0.543042764104999
vn 0.9238795325112868 0.3826834323650899 -2.2628522245754005e-16
vn 1 6.123233995736766e-17 0
vn 0.8090169943749475 6.123233995736766e-17 0.5877852522924731
vn 0.30901699437494745 6.123233995736766e-17 0.9510565162951534
vn -0.30901699437494734 6.123233995736766e-17 0.9510565162951536
vn -0.8090169943749473 6.123233995736766e-17 0.5877852522924732
vn -1 6.123233995736766e-17 1.2246467991473532e-16
vn -0.8090169943749475 6.123233995736766e-17 -0.587785252292473
vn -0.30901699437494756 6.123233995736766e-17 -0.9510565162951534
vn 0.30901699437494723 6.123233995736766e-17 -0.9510565162951536
vn 0.8090169943749473 6.123233995736766e-17 -0.5877852522924734
vn 1 6.123233995736766e-17 -2.4492935982947064e-16
vn 0.9238795325112868 -0.3826834323650897 0
vn 0.7474342425568128 -0.3826834323650897 0.5430427641049989
vn 0.28549447630116936 -0.3826834323650897 0.8786616496665794
vn -0.28549447630116925 -0.3826834323650897 0.8786616496665794
vn -0.7474342425568127 -0.3826834323650897 0.543042764104999
vn -0.9238795325112868 -0.3826834323650897 1.1314261122877003e-16
vn -0.7474342425568128 -0.3826834323650897 -0.5430427641049987
vn -0.2854944763011695 -0.3826834323650897 -0.8786616496665794
vn 0.28549447630116914 -0.3826834323650897 -0.8786616496665794
vn 0.7474342425568127 -0.3826834323650897 -0.543042764104999
vn 0.9238795325112868 -0.3826834323650897 -2.2628522245754005e-16
vn 0.7071067811865476 -0.7071067811865475 0
vn 0.5720614028176844 -0.7071067811865475 0.41562693777745346
vn 0.21850801222441055 -0.7071067811865475 0.6724985119639574
vn -0.21850801222441052 -0.7071067811865475 0.6724985119639574
vn -0.5720614028176843 -0.7071067811865475 0.4156269377774535
vn -0.7071067811865476 -0.7071067811865475 8.659560562354934e-17
vn -0.5720614028176844 -0.7071067811865475 -0.4156269377774534
vn -0.21850801222441066 -0.7071067811865475 -0.6724985119639574
vn 0.2185080122244104 -0.7071067811865475 -0.6724985119639574
vn 0.5720614028176843 -0.7071067811865475 -0.41562693777745363
vn 0.7071067811865476 -0.7071067811865475 -1.7319121124709868e-16
vn 0.3826834323650899 -0.9238795325112867 0
vn 0.3095974002490935 -0.9238795325112867 0.22493567784086396
vn 0.11825568406654857 -0.9238795325112867 0.3639535720290144
vn -0.11825568406654853 -0.9238795325112867 0.36395357202901446
vn -0.3095974002490935 -0.9238795325112867 0.224935677840864
vn -0.3826834323650899 -0.9238795325112867 4.6865204053263004e-17
vn -0.3095974002490935 -0.9238795325112867 -0.2249356778408639
vn -0.11825568406654863 -0.9238795325112867 -0.3639535720290144
vn 0.11825568406654849 -0.9238795325112867 -0.36395357202901446
vn 0.3095974002490935 -0.9238795325112867 -0.224935677840864
vn 0.3826834323650899 -0.9238795325112867 -9.373040810652601e-17
vn 1.2246467991473532e-16 -1 0
vn 9.907600726170916e-17 -1 7.198293278059966e-17
vn 3.7843667304341506e-17 -1 1.1647083184890923e-16
vn -3.7843667304341493e-17 -1 1.1647083184890926e-16
vn -9.907600726170915e-17 -1 7.198293278059968e-17
vn -1.2246467991473532e-16 -1 1.4997597826618576e-32
vn -9.907600726170916e-17 -1 -7.198293278059965e-17
vn -3.784366730434152e-17 -1 -1.1647083184890923e-16
vn 3.7843667304341475e-17 -1 -1.1647083184890926e-16
vn 9.907600726170915e-17 -1 -7.19829327805997e-17
vn 1.2246467991473532e-16 -1 -2.999519565323715e-32
f 1/1/1 2/2/2 14/14/14
f 1/1/1 14/14/14 13/13/13
f 25/25/25 2/2/2 1/1/1
f 26/26/26 13/13/13 14/14/14
f 2/2/2 3/3/3 15/15/15
f 2/2/2 15/15/15 14/14/14
f 25/25/25 3/3/3 2/2/2
f 26/26/26 14/14/14 15/15/15
f 3/3/3 4/4/4 16/16/16
f 3/3/3 16/16/16 15/15/15
f 25/25/25 4/4/4 3/3/3
f 26/26/26 15/15/15 16/16/16
f 4/4/4 5/5/5 17/17/17
f 4/4/4 17/17/17 16/16/16
f 25/25/25 5/5/5 4/4/4
f 26/26/26 16/16/16 17/17/17
f 5/5/5 6/6/6 18/18/18
f 5/5/5 18/18/18 17/17/17
f 25/25/25 6/6/6 5/5/5
f 26/26/26 17/17/17 18/18/18
f 6/6/6 7/7/7 19/19/19
f 6/6/6 19/19/19 18/18/18
f 25/25/25 7/7/7 6/6/6
f 26/26/26 18/18/18 19/19/19
f 7/7/7 8/8/8 20/20/20
f 7/7/7 20/20/20 19/19/19
f 25/25/25 8/8/8 7/7/7
f 26/26/26 19/19/19 20/20/20
f 8/8/8 9/9/9 21/21/21
f 8/8/8 21/21/21 20/20/20
f 25/25/25 9/9/9 8/8/8
f 26/26/26 20/20/20 21/21/21
f 9/9/9 10/10/10 22/22/22
f 9/9/9 22/22/22 21/21/21
f 25/25/25 10/10/10 9/9/9
f 26/26/26 21/21/21 22/22/22
f 10/10/10 11/11/11 23/23/23
f 10/10/10 23/23/23 22/22/22
f 25/25/25 11/11/11 10/10/10
f 26/26/26 22/22/22 23/23/23
f 11/11/11 12/12/12 24/24/24
f 11/11/11 24/24/24 23/23/23
f 25/25/25 12/12/12 11/11/11
f 26/26/26 23/23/23 24/24/24
f 12/12/12 1/1/1 13/13/13
f 12/12/12 13/13/13 24/24/24
f 25/25/25 1/1/1 12/12/12
f 26/26/26 24/24/24 13/13/13
f 27/27/27 38/38/38 39/39/39
f 27/27/27 39/39/39 28/28/28
f 28/28/28 39/39/39 40/40/40
f 28/28/28 40/40/40 29/29/29
f 29/29/29 40/40/40 41/41/41
f 29/29/29 41/41/41 30/30/30
f 30/30/30 41/41/41 42/42/42
f 30/30/30 42/42/42 31/31/31
f 31/31/31 42/42/42 43/43/43
f 31/31/31 43/43/43 32/32/32
f 32/32/32 43/43/43 44/44/44
f 32/32/32 44/44/44 33/33/33
f 33/33/33 44/44/44 45/45/45
f 33/33/33 45/45/45 34/34/34
f 34/34/34 45/45/45 46/46/46
f 34/34/34 46/46/46 35/35/35
f 35/35/35 46/46/46 47/47/47
f 35/35/35 47/47/47 36/36/36
f 36/36/36 47/47/47 48/48/48
f 36/36/36 48/48/48 37/37/37
f 38/38/38 49/49/49 50/50/50
f 38/38/38 50/50/50 39/39/39
f 39/39/39 50/50/50 51/51/51
f 39/39/39 51/51/51 40/40/40
f 40/40/40 51/51/51 52/52/52
f 40/40/40 52/52/52 41/41/41
f 41/41/41 52/52/52 53/53/53
f 41/41/41 53/53/53 42/42/42
f 42/42/42 53/53/53 54/54/54
f 42/42/42 54/54/54 43/43/43
f 43/43/43 54/54/54 55/55/55
f 43/43/43 55/55/55 44/44/44
f 44/44/44 55/55/55 56/56/56
f 44/44/44 56/56/56 45/45/45
f 45/45/45 56/56/56 57/57/57
f 45/45/45 57/57/57 46/46/46
f 46/46/46 57/57/57 58/58/58
f 46/46/46 58/58/58 47/47/47
f 47/47/47 58/58/58 59/59/59
f 47/47/47 59/59/59 48/48/48
f 49/49/49 60/60/60 61/61/61
f 49/49/49 61/61/61 50/50/50
f 50/50/50 61/61/61 62/62/62
f 50/50/50 62/62/62 51/51/51
f 51/51/51 62/62/62 63/63/63
f 51/51/51 63/63/63 52/52/52
f 52/52/52 63/63/63 64/64/64
f 52/52/52 64/64/64 53/53/53
f 53/53/53 64/64/64 65/65/65
f 53/53/53 65/65/65 54/54/54
f 54/54/54 65/65/65 66/66/66
f 54/54/54 66/66/66 55/55/55
f 55/55/55 66/66/66 67/67/67
f 55/55/55 67/67/67 56/56/56
f 56/56/56 67/67/67 68/68/68
f 56/56/56 68/68/68 57/57/57
f 57/57/57 68/68/68 69/69/69
f 57/57/57 69/69/69 58/58/58
f 58/58/58 69/69/69 70/70/70
f 58/58/58 70/70/70 59/59/59
f 60/60/60 71/71/71 72/72/72
f 60/60/60 72/72/72 61/61/61
f 61/61/61 72/72/72 73/73/73
f 61/61/61 73/73/73 62/62/62
f 62/62/62 73/73/73 74/74/74
f 62/62/62 74/74/74 63/63/63
f 63/63/63 74/74/74 75/75/75
f 63/63/63 75/75/75 64/64/64
f 64/64/64 75/75/75 76/76/76
f 64/64/64 76/76/76 65/65/65
f 65/65/65 76/76/76 77/77/77
f 65/65/65 77/77/77 66/66/66
f 66/66/66 77/77/77 78/78/78
f 66/66/66 78/78/78 67/67/67
f 67/67/67 78/78/78 79/79/79
f 67/67/67 79/79/79 68/68/68
f 68/68/68 79/79/79 80/80/80
f 68/68/68 80/80/80 69/69/69
f 69/69/69 80/80/80 81/81/81
f 69/69/69 81/81/81 70/70/70
f 71/71/71 82/82/82 83/83/83
f 71/71/71 83/83/83 72/72/72
f 72/72/72 83/83/83 84/84/84
f 72/72/72 84/84/84 73/73/73
f 73/73/73 84/84/84 85/85/85
f 73/73/73 85/85/85 74/74/74
f 74/74/74 85/85/85 86/86/86
f 74/74/74 86/86/86 75/75/75
f 75/75/75 86/86/86 87/87/87
f 75/75/75 87/87/87 76/76/76
f 76/76/76 87/87/87 88/88/88
f 76/76/76 88/88/88 77/77/77
f 77/77/77 88/88/88 89/89/89
f 77/77/77 89/89/89 78/78/78
f 78/78/78 89/89/89 90/90/90
f 78/78/78 90/90/90 79/79/79
f 79/79/79 90/90/90 91/91/91
f 79/79/79 91/91/91 80/80/80
f 80/80/80 91/91/91 92/92/92
f 80/80/80 92/92/92 81/81/81
f 82/82/82 93/93/93 94/94/94
f 82/82/82 94/94/94 83/83/83
f 83/83/83 94/94/94 95/95/95
f 83/83/83 95/95/95 84/84/84
f 84/84/84 95/95/95 96/96/96
f 84/84/84 96/96/96 85/85/85
f 85/85/85 96/96/96 97/97/97
f 85/85/85 97/97/97 86/86/86
f 86/86/86 97/97/97 98/98/98
f 86/86/86 98/98/98 87/87/87
f 87/87/87 98/98/98 99/99/99
f 87/87/87 99/99/99 88/88/88
f 88/88/88 99/99/99 100/100/100
f 88/88/88 100/100/100 89/89/89
f 89/89/89 100/100/100 101/101/101
f 89/89/89 101/101/101 90/90/90
f 90/90/90 101/101/101 102/102/102
f 90/90/90 102/102/102 91/91/91
f 91/91/91 102/102/102 103/103/103
f 91/91/91 103/103/103 92/92/92
f 93/93/93 104/104/104 105/105/105
f 93/93/93 105/105/105 94/94/94
f 94/94/94 105/105/105 106/106/106
f 94/94/94 106/106/106 95/95/95
f 95/95/95 106/106/106 107/107/107
f 95/95/95 107/107/107 96/96/96
f 96/96/96 107/107/107 108/108/108
f 96/96/96 108/108/108 97/97/97
f 97/97/97 108/108/108 109/109/109
f 97/97/97 109/109/109 98/98/98
f 98/98/98 109/109/109 110/110/110
f 98/98/98 110/110/110 99/99/99
f 99/99/99 110/110/110 111/111/111
f 99/99/99 111/111/111 100/100/100
f 100/100/100 111/111/111 112/112/112
f 100/100/100 112/112/112 101/101/101
f 101/101/101 112/112/112 113/113/113
f 101/101/101 113/113/113 102/102/102
f 102/102/102 113/113/113 114/114/114
f 102/102/102 114/114/114 103/103/103
f 104/104/104 115/115/115 116/116/116
f 104/104/104 116/116/116 105/105/105
f 105/105/105 116/116/116 117/117/117
f 105/105/105 117/117/117 106/106/106
f 106/106/106 117/117/117 118/118/118
f 106/106/106 118/118/118 107/107/107
f 107/107/107 118/118/118 119/119/119
f 107/107/107 119/119/119 108/108/108
f 108/108/108 119/119/119 120/120/120
f 108/108/108 120/120/120 109/109/109
f 109/109/109 120/120/120 121/121/121
f 109/109/109 121/121/121 110/110/110
f 110/110/110 121/121/121 122/122/122
f 110/110/110 122/122/122 111/111/111
f 111/111/111 122/122/122 123/123/123
f 111/111/111 123/123/123 112/112/112
f 112/112/112 123/123/123 124/124/124
f 112/112/112 124/124/124 113/113/113
f 113/113/113 124/124/124 125/125/125
f 113/113/113 125/125/125 114/114/114
f 126/126/126 137/137/137 138/138/138
f 126/126/126 138/138/138 127/127/127
f 127/127/127 138/138/138 139/139/139
f 127/127/127 139/139/139 128/128/128
f 128/128/128 139/139/139 140/140/140
f 128/128/128 140/140/140 129/129/129
f 129/129/129 140/140/140 141/141/141
f 129/129/129 141/141/141 130/130/130
f 130/130/130 141/141/141 142/142/142
f 130/130/130 142/142/142 131/131/131
f 131/131/131 142/142/142 143/143/143
f 131/131/131 143/143/143 132/132/132
f 132/132/132 143/143/143 144/144/144
f 132/132/132 144/144/144 133/133/133
f 133/133/133 144/144/144 145/145/145
f 133/133/133 145/145/145 134/134/134
f 134/134/134 145/145/145 146/146/146
f 134/134/134 146/146/146 135/135/135
f 135/135/135 146/146/146 147/147/147
f 135/135/135 147/147/147 136/136/136
f 137/137/137 148/148/148 149/149/149
f 137/137/137 149/149/149 138/138/138
f 138/138/138 149/149/149 150/150/150
f 138/138/138 150/150/150 139/139/139
f 139/139/139 150/150/150 151/151/151
f 139/139/139 151/151/151 140/140/140
f 140/140/140 151/151/151 152/152/152
f 140/140/140 152/152/152 141/141/141
f 141/141/141 152/152/152 153/153/153
f 141/141/141 153/153/153 142/142/142
f 142/142/142 153/153/153 154/154/154
f 142/142/142 154/154/154 143/143/143
f 143/143/143 154/154/154 155/155/155
f 143/143/143 155/155/155 144/144/144
f 144/144/144 155/155/155 156/156/156
f 144/144/144 156/156/156 145/145/145
f 145/145/145 156/156/156 157/157/157
f 145/145/145 157/157/157 146/146/146
f 146/146/146 157/157/157 158/158/158
f 146/146/146 158/158/158 147/147/147
f 148/148/148 159/159/159 160/160/160
f 148/148/148 160/160/160 149/149/149
f 149/149/149 160/160/160 161/161/161
f 149/149/149 161/161/161 150/150/150
f 150/150/150 161/161/161 162/162/162
f 150/150/150 162/162/162 151/151/151
f 151/151/151 162/162/162 163/163/163
f 151/151/151 163/163/163 152/152/152
f 152/152/152 163/163/163 164/164/164
f 152/152/152 164/164/164 153/153/153
f 153/153/153 164/164/164 165/165/165
f 153/153/153 165/165/165 154/154/154
f 154/154/154 165/165/165 166/166/166
f 154/154/154 166/166/166 155/155/155
f 155/155/155 166/166/166 167/167/167
f 155/155/155 167/167/167 156/156/156
f 156/156/156 167/167/167 168/168/168
f 156/156/156 168/168/168 157/157/157
f 157/157/157 168/168/168 169/169/169
f 157/157/157 169/169/169 158/158/158
f 159/159/159 170/170/170 171/171/171
f 159/159/159 171/171/171 160/160/160
f 160/160/160 171/171/171 172/172/172
f 160/160/160 172/172/172 161/161/161
f 161/161/161 172/172/172 173/173/173
f 161/161/161 173/173/173 162/162/162
f 162/162/162 173/173/173 174/174/174
f 162/162/162 174/174/174 163/163/163
f 163/163/163 174/174/174 175/175/175
f 163/163/163 175/175/175 164/164/164
f 164/164/164 175/175/175 176/176/176
f 164/164/164 176/176/176 165/165/165
f 165/165/165 176/176/176 177/177/177
f 165/165/165 177/177/177 166/166/166
f 166/166/166 177/177/177 178/178/178
f 166/166/166 178/178/178 167/167/167
f 167/167/167 178/178/178 179/179/179
f 167/167/167 179/179/179 168/168/168
f 168/168/168 179/179/179 180/180/180
f 168/168/168 180/180/180 169/169/169
f 170/170/170 181/181/181 182/182/182
f 170/170/170 182/182/182 171/171/171
f 171/171/171 182/182/182 183/183/183
f 171/171/171 183/183/183 172/172/172
f 172/172/172 183/183/183 184/184/184
f 172/172/172 184/184/184 173/173/173
f 173/173/173 184/184/184 185/185/185
f 173/173/173 185/185/185 174/174/174
f 174/174/174 185/185/185 186/186/186
f 174/174/174 186/186/186 175/175/175
f 175/175/175 186/186/186 187/187/187
f 175/175/175 187/187/187 176/176/176
f 176/176/176 187/187/187 188/188/188
f 176/176/176 188/188/188 177/177/177
f 177/177/177 188/188/188 189/189/189
f 177/177/177 189/189/189 178/178/178
f 178/178/178 189/189/189 190/190/190
f 178/178/178 190/190/190 179/179/179
f 179/179/179 190/190/190 191/191/191
f 179/179/179 191/191/191 180/180/180
f 181/181/181 192/192/192 193/193/193
f 181/181/181 193/193/193 182/182/182
f 182/182/182 193/193/193 194/194/194
f 182/182/182 194/194/194 183/183/183
f 183/183/183 194/194/194 195/195/195
f 183/183/183 195/195/195 184/184/184
f 184/184/184 195/195/195 196/196/196
f 184/184/184 196/196/196 185/185/185
f 185/185/185 196/196/196 197/197/197
f 185/185/185 197/197/197 186/186/186
f 186/186/186 197/197/197 198/198/198
f 186/186/186 198/198/198 187/187/187
f 187/187/187 198/198/198 199/199/199
f 187/187/187 199/199/199 188/188/188
f 188/188/188 199/199/199 200/200/200
f 188/188/188 200/200/200 189/189/189
f 189/189/189 200/200/200 201/201/201
f 189/189/189 201/201/201 190/190/190
f 190/190/190 201/201/201 202/202/202
f 190/190/190 202/202/202 191/191/191
f 192/192/192 203/203/203 204/204/204
f 192/192/192 204/204/204 193/193/193
f 193/193/193 204/204/204 205/205/205
f 193/193/193 205/205/205 194/194/194
f 194/194/194 205/205/205 206/206/206
f 194/194/194 206/206/206 195/195/195
f 195/195/195 206/206/206 207/207/207
f 195/195/195 207/207/207 196/196/196
f 196/196/196 207/207/207 208/208/208
f 196/196/196 208/208/208 197/197/197
f 197/197/197 208/208/208 209/209/209
f 197/197/197 209/209/209 198/198/198
f 198/198/198 209/209/209 210/210/210
f 198/198/198 210/210/210 199/199/199
f 199/199/199 210/210/210 211/211/211
f 199/199/199 211/211/211 200/200/200
f 200/200/200 211/211/211 212/212/212
f 200/200/200 212/212/212 201/201/201
f 201/201/201 212/212/212 213/213/213
f 201/201/201 213/213/213 202/202/202
f 203/203/203 214/214/214 215/215/215
f 203/203/203 215/215/215 204/204/204
f 204/204/204 215/215/215 216/216/216
f 204/204/204 216/216/216 205/205/205
f 205/205/205 216/216/216 217/217/217
f 205/205/205 217/217/217 206/206/206
f 206/206/206 217/217/217 218/218/218
f 206/206/206 218/218/218 207/207/207
f 207/207/207 218/218/218 219/219/219
f 207/207/207 219/219/219 208/208/208
f 208/208/208 219/219/219 220/220/220
f 208/208/208 220/220/220 209/209/209
f 209/209/209 220/220/220 221/221/221
f 209/209/209 221/221/221 210/210/210
f 210/210/210 221/221/221 222/222/222
f 210/210/210 222/222/222 211/211/211
f 211/211/211 222/222/222 223/223/223
f 211/211/211 223/223/223 212/212/212
f 212/212/212 223/223/223 224/224/224
f 212/212/212 224/224/224 213/213/213
f 225/225/225 236/236/236 237/237/237
f 225/225/225 237/237/237 226/226/226
f 226/226/226 237/237/237 238/238/238
f 226/226/226 238/238/238 227/227/227
f 227/227/227 238/238/238 239/239/239
f 227/227/227 239/239/239 228/228/228
f 228/228/228 239/239/239 240/240/240
f 228/228/228 240/240/240 229/229/229
f 229/229/229 240/240/240 241/241/241
f 229/229/229 241/241/241 230/230/230
f 230/230/230 241/241/241 242/242/242
f 230/230/230 242/242/242 231/231/231
f 231/231/231 242/242/242 243/243/243
f 231/231/231 243/243/243 232/232/232
f 232/232/232 243/243/243 244/244/244
f 232/232/232 244/244/244 233/233/233
f 233/233/233 244/244/244 245/245/245
f 233/233/233 245/245/245 234/234/234
f 234/234/234 245/245/245 246/246/246
f 234/234/234 246/246/246 235/235/235
f 236/236/236 247/247/247 248/248/248
f 236/236/236 248/248/248 237/237/237
f 237/237/237 248/248/248 249/249/249
f 237/237/237 249/249/249 238/238/238
f 238/238/238 249/249/249 250/250/250
f 238/238/238 250/250/250 239/239/239
f 239/239/239 250/250/250 251/251/251
f 239/239/239 251/251/251 240/240/240
f 240/240/240 251/251/251 252/252/252
f 240/240/240 252/252/252 241/241/241
f 241/241/241 252/252/252 253/253/253
f 241/241/241 253/253/253 242/242/242
f 242/242/242 253/253/253 254/254/254
f 242/242/242 254/254/254 243/243/243
f 243/243/243 254/254/254 255/255/255
f 243/243/243 255/255/255 244/244/244
f 244/244/244 255/255/255 256/256/256
f 244/244/244 256/256/256 245/245/245
f 245/245/245 256/256/256 257/257/257
f 245/245/245 257/257/257 246/246/246
f 247/247/247 258/258/258 259/259/259
f 247/247/247 259/259/259 248/248/248
f 248/248/248 259/259/259 260/260/260
f 248/248/248 260/260/260 249/249/249
f 249/249/249 260/260/260 261/261/261
f 249/249/249 261/261/261 250/250/250
f 250/250/250 261/261/261 262/262/262
f 250/250/250 262/262/262 251/251/251
f 251/251/251 262/262/262 263/263/263
f 251/251/251 263/263/263 252/252/252
f 252/252/252 263/263/263 264/264/264
f 252/252/252 264/264/264 253/253/253
f 253/253/253 264/264/264 265/265/265
f 253/253/253 265/265/265 254/254/254
f 254/254/254 265/265/265 266/266/266
f 254/254/254 266/266/266 255/255/255
f 255/255/255 266/266/266 267/267/267
f 255/255/255 267/267/267 256/256/256
f 256/256/256 267/267/267 268/268/268
f 256/256/256 268/268/268 257/257/257
f 258/258/258 269/269/269 270/270/270
f 258/258/258 270/270/270 259/259/259
f 259/259/259 270/270/270 271/271/271
f 259/259/259 271/271/271 260/260/260
f 260/260/260 271/271/271 272/272/272
f 260/260/260 272/272/272 261/261/261
f 261/261/261 272/272/272 273/273/273
f 261/261/261 273/273/273 262/262/262
f 262/262/262 273/273/273 274/274/274
f 262/262/262 274/274/274 263/263/263
f 263/263/263 274/274/274 275/275/275
f 263/263/263 275/275/275 264/264/264
f 264/264/264 275/275/275 276/276/276
f 264/264/264 276/276/276 265/265/265
f 265/265/265 276/276/276 277/277/277
f 265/265/265 277/277/277 266/266/266
f 266/266/266 277/277/277 278/278/278
f 266/266/266 278/278/278 267/267/267
f 267/267/267 278/278/278 279/279/279
f 267/267/267 279/279/279 268/268/268
f 269/269/269 280/280/280 281/281/281
f 269/269/269 281/281/281 270/270/270
f 270/270/270 281/281/281 282/282/282
f 270/270/270 282/282/282 271/271/271
f 271/271/271 282/282/282 283/283/283
f 271/271/271 283/283/283 272/272/272
f 272/272/272 283/283/283 284/284/284
f 272/272/272 284/284/284 273/273/273
f 273/273/273 284/284/284 285/285/285
f 273/273/273 285/285/285 274/274/274
f 274/274/274 285/285/285 286/286/286
f 274/274/274 286/286/286 275/275/275
f 275/275/275 286/286/286 287/287/287
f 275/275/275 287/287/287 276/276/276
f 276/276/276 287/287/287 288/288/288
f 276/276/276 288/288/288 277/277/277
f 277/277/277 288/288/288 289/289/289
f 277/277/277 289/289/289 278/278/278
f 278/278/278 289/289/289 290/290/290
f 278/278/278 290/290/290 279/279/279
f 280/280/280 291/291/291 292/292/292
f 280/280/280 292/292/292 281/281/281
f 281/281/281 292/292/292 293/293/293
f 281/281/281 293/293/293 282/282/282
f 282/282/282 293/293/293 294/294/294
f 282/282/282 294/294/294 283/283/283
f 283/283/283 294/294/294 295/295/295
f 283/283/283 295/295/295 284/284/284
f 284/284/284 295/295/295 296/296/296
f 284/284/284 296/296/296 285/285/285
f 285/285/285 296/296/296 297/297/297
f 285/285/285 297/297/297 286/286/286
f 286/286/286 297/297/297 298/298/298
f 286/286/286 298/298/298 287/287/287
f 287/287/287 298/298/298 299/299/299
f 287/287/287 299/299/299 288/288/288
f 288/288/288 299/299/299 300/300/300
f 288/288/288 300/300/300 289/289/289
f 289/289/289 300/300/300 301/301/301
f 289/289/289 301/301/301 290/290/290
f 291/291/291 302/302/302 303/303/303
f 291/291/291 303/303/303 292/292/292
f 292/292/292 303/303/303 304/304/304
f 292/292/292 304/304/304 293/293/293
f 293/293/293 304/304/304 305/305/305
f 293/293/293 305/305/305 294/294/294
f 294/294/294 305/305/305 306/306/306
f 294/294/294 306/306/306 295/295/295
f 295/295/295 306/306/306 307/307/307
f 295/295/295 307/307/307 296/296/296
f 296/296/296 307/307/307 308/308/308
f 296/296/296 308/308/308 297/297/297
f 297/297/297 308/308/308 309/309/309
f 297/297/297 309/309/309 298/298/298
f 298/298/298 309/309/309 310/310/310
f 298/298/298 310/310/310 299/299/299
f 299/299/299 310/310/310 311/311/311
f 299/299/299 311/311/311 300/300/300
f 300/300/300 311/311/311 312/312/312
f 300/300/300 312/312/312 301/301/301
f 302/302/302 313/313/313 314/314/314
f 302/302/302 314/314/314 303/303/303
f 303/303/303 314/314/314 315/315/315
f 303/303/303 315/315/315 304/304/304
f 304/304/304 315/315/315 316/316/316
f 304/304/304 316/316/316 305/305/305
f 305/305/305 316/316/316 317/317/317
f 305/305/305 317/317/317 306/306/306
f 306/306/306 317/317/317 318/318/318
f 306/306/306 318/318/318 307/307/307
f 307/307/307 318/318/318 319/319/319
f 307/307/307 319/319/319 308/308/308
f 308/308/308 319/319/319 320/320/320
f 308/308/308 320/320/320 309/309/309
f 309/309/309 320/320/320 321/321/321
f 309/309/309 321/321/321 310/310/310
f 310/310/310 321/321/321 322/322/322
f 310/310/310 322/322/322 311/311/311
f 311/311/311 322/322/322 323/323/323
f 311/311/311 323/323/323 312/312/312
f 324/324/324 335/335/335 336/336/336
f 324/324/324 336/336/336 325/325/325
f 325/325/325 336/336/336 337/337/337
f 325/325/325 337/337/337 326/326/326
f 326/326/326 337/337/337 338/338/338
f 326/326/326 338/338/338 327/327/327
f 327/327/327 338/338/338 339/339/339
f 327/327/327 339/339/339 328/328/328
f 328/328/328 339/339/339 340/340/340
f 328/328/328 340/340/340 329/329/329
f 329/329/329 340/340/340 341/341/341
f 329/329/329 341/341/341 330/330/330
f 330/330/330 341/341/341 342/342/342
f 330/330/330 342/342/342 331/331/331
f 331/331/331 342/342/342 343/343/343
f 331/331/331 343/343/343 332/332/332
f 332/332/332 343/343/343 344/344/344
f 332/332/332 344/344/344 333/333/333
f 333/333/333 344/344/344 345/345/345
f 333/333/333 345/345/345 334/334/334
f 335/335/335 346/346/346 347/347/347
f 335/335/335 347/347/347 336/336/336
f 336/336/336 347/347/347 348/348/348
f 336/336/336 348/348/348 337/337/337
f 337/337/337 348/348/348 349/349/349
f 337/337/337 349/349/349 338/338/338
f 338/338/338 349/349/349 350/350/350
f 338/338/338 350/350/350 339/339/339
f 339/339/339 350/350/350 351/351/351
f 339/339/339 351/351/351 340/340/340
f 340/340/340 351/351/351 352/352/352
f 340/340/340 352/352/352 341/341/341
f 341/341/341 352/352/352 353/353/353
f 341/341/341 353/353/353 342/342/342
f 342/342/342 353/353/353 354/354/354
f 342/342/342 354/354/354 343/343/343
f 343/343/343 354/354/354 355/355/355
f 343/343/343 355/355/355 344/344/344
f 344/344/344 355/355/355 356/356/356
f 344/344/344 356/356/356 345/345/345
f 346/346/346 357/357/357 358/358/358
f 346/346/346 358/358/358 347/347/347
f 347/347/347 358/358/358 359/359/359
f 347/347/347 359/359/359 348/348/348
f 348/348/348 359/359/359 360/360/360
f 348/348/348 360/360/360 349/349/349
f 349/349/349 360/360/360 361/361/361
f 349/349/349 361/361/361 350/350/350
f 350/350/350 361/361/361 362/362/362
f 350/350/350 362/362/362 351/351/351
f 351/351/351 362/362/362 363/363/363
f 351/351/351 363/363/363 352/352/352
f 352/352/352 363/363/363 364/364/364
f 352/352/352 364/364/364 353/353/353
f 353/353/353 364/364/364 365/365/365
f 353/353/353 365/365/365 354/354/354
f 354/354/354 365/365/365 366/366/366
f 354/354/354 366/366/366 355/355/355
f 355/355/355 366/366/366 367/367/367
f 355/355/355 367/367/367 356/356/356
f 357/357/357 368/368/368 369/369/369
f 357/357/357 369/369/369 358/358/358
f 358/358/358 369/369/369 370/370/370
f 358/358/358 370/370/370 359/359/359
f 359/359/359 370/370/370 371/371/371
f 359/359/359 371/371/371 360/360/360
f 360/360/360 371/371/371 372/372/372
f 360/360/360 372/372/372 361/361/361
f 361/361/361 372/372/372 373/373/373
f 361/361/361 373/373/373 362/362/362
f 362/362/362 373/373/373 374/374/374
f 362/362/362 374/374/374 363/363/363
f 363/363/363 374/374/374 375/375/375
f 363/363/363 375/375/375 364/364/364
f 364/364/364 375/375/375 376/376/376
f 364/364/364 376/376/376 365/365/365
f 365/365/365 376/376/376 377/377/377
f 365/365/365 377/377/377 366/366/366
f 366/366/366 377/377/377 378/378/378
f 366/366/366 378/378/378 367/367/367
f 368/368/368 379/379/379 380/380/380
f 368/368/368 380/380/380 369/369/369
f 369/369/369 380/380/380 381/381/381
f 369/369/369 381/381/381 370/370/370
f 370/370/370 381/381/381 382/382/382
f 370/370/370 382/382/382 371/371/371
f 371/371/371 382/382/382 383/383/383
f 371/371/371 383/383/383 372/372/372
f 372/372/372 383/383/383 384/384/384
f 372/372/372 384/384/384 373/373/373
f 373/373/373 384/384/384 385/385/385
f 373/373/373 385/385/385 374/374/374
f 374/374/374 385/385/385 386/386/386
f 374/374/374 386/386/386 375/375/375
f 375/375/375 386/386/386 387/387/387
f 375/375/375 387/387/387 376/376/376
f 376/376/376 387/387/387 388/388/388
f 376/376/376 388/388/388 377/377/377
f 377/377/377 388/388/388 389/389/389
f 377/377/377 389/389/389 378/378/378
f 379/379/379 390/390/390 391/391/391
f 379/379/379 391/391/391 380/380/380
f 380/380/380 391/391/391 392/392/392
f 380/380/380 392/392/392 381/381/381
f 381/381/381 392/392/392 393/393/393
f 381/381/381 393/393/393 382/382/382
f 382/382/382 393/393/393 394/394/394
f 382/382/382 394/394/394 383/383/383
f 383/383/383 394/394/394 395/395/395
f 383/383/383 395/395/395 384/384/384
f 384/384/384 395/395/395 396/396/396
f 384/384/384 396/396/396 385/385/385
f 385/385/385 396/396/396 397/397/397
f 385/385/385 397/397/397 386/386/386
f 386/386/386 397/397/397 398/398/398
f 386/386/386 398/398/398 387/387/387
f 387/387/387 398/398/398 399/399/399
f 387/387/387 399/399/399 388/388/388
f 388/388/388 399/399/399 400/400/400
f 388/388/388 400/400/400 389/389/389
f 390/390/390 401/401/401 402/402/402
f 390/390/390 402/402/402 391/391/391
f 391/391/391 402/402/402 403/403/403
f 391/391/391 403/403/403 392/392/392
f 392/392/392 403/403/403 404/404/404
f 392/392/392 404/404/404 393/393/393
f 393/393/393 404/404/404 405/405/405
f 393/393/393 405/405/405 394/394/394
f 394/394/394 405/405/405 406/406/406
f 394/394/394 406/406/406 395/395/395
f 395/395/395 406/406/406 407/407/407
f 395/395/395 407/407/407 396/396/396
f 396/396/396 407/407/407 408/408/408
f 396/396/396 408/408/408 397/397/397
f 397/397/397 408/408/408 409/409/409
f 397/397/397 409/409/409 398/398/398
f 398/398/398 409/409/409 410/410/410
f 398/398/398 410/410/410 399/399/399
f 399/399/399 410/410/410 411/411/411
f 399/399/399 411/411/411 400/400/400
f 401/401/401 412/412/412 413/413/413
f 401/401/401 413/413/413 402/402/402
f 402/402/402 413/413/413 414/414/414
f 402/402/402 414/414/414 403/403/403
f 403/403/403 414/414/414 415/415/415
f 403/403/403 415/415/415 404/404/404
f 404/404/404 415/415/415 416/416/416
f 404/404/404 416/416/416 405/405/405
f 405/405/405 416/416/416 417/417/417
f 405/405/405 417/417/417 406/406/406
f 406/406/406 417/417/417 418/418/418
f 406/406/406 418/418/418 407/407/407
f 407/407/407 418/418/418 419/419/419
f 407/407/407 419/419/419 408/408/408
f 408/408/408 419/419/419 420/420/420
f 408/408/408 420/420/420 409/409/409
f 409/409/409 420/420/420 421/421/421
f 409/409/409 421/421/421 410/410/410
f 410/410/410 421/421/421 422/422/422
f 410/410/410 422/422/422 411/411/411
f 423/423/423 434/434/434 435/435/435
f 423/423/423 435/435/435 424/424/424
f 424/424/424 435/435/435 436/436/436
f 424/424/424 436/436/436 425/425/425
f 425/425/425 436/436/436 437/437/437
f 425/425/425 437/437/437 426/426/426
f 426/426/426 437/437/437 438/438/438
f 426/426/426 438/438/438 427/427/427
f 427/427/427 438/438/438 439/439/439
f 427/427/427 439/439/439 428/428/428
f 428/428/428 439/439/439 440/440/440
f 428/428/428 440/440/440 429/429/429
f 429/429/429 440/440/440 441/441/441
f 429/429/429 441/441/441 430/430/430
f 430/430/430 441/441/441 442/442/442
f 430/430/430 442/442/442 431/431/431
f 431/431/431 442/442/442 443/443/443
f 431/431/431 443/443/443 432/432/432
f 432/432/432 443/443/443 444/444/444
f 432/432/432 444/444/444 433/433/433
f 434/434/434 445/445/445 446/446/446
f 434/434/434 446/446/446 435/435/435
f 435/435/435 446/446/446 447/447/447
f 435/435/435 447/447/447 436/436/436
f 436/436/436 447/447/447 448/448/448
f 436/436/436 448/448/448 437/437/437
f 437/437/437 448/448/448 449/449/449
f 437/437/437 449/449/449 438/438/438
f 438/438/438 449/449/449 450/450/450
f 438/438/438 450/450/450 439/439/439
f 439/439/439 450/450/450 451/451/451
f 439/439/439 451/451/451 440/440/440
f 440/440/440 451/451/451 452/452/452
f 440/440/440 452/452/452 441/441/441
f 441/441/441 452/452/452 453/453/453
f 441/441/441 453/453/453 442/442/442
f 442/442/442 453/453/453 454/454/454
f 442/442/442 454/454/454 443/443/443
f 443/443/443 454/454/454 455/455/455
f 443/443/443 455/455/455 444/444/444
f 445/445/445 456/456/456 457/457/457
f 445/445/445 457/457/457 446/446/446
f 446/446/446 457/457/457 458/458/458
f 446/446/446 458/458/458 447/447/447
f 447/447/447 458/458/458 459/459/459
f 447/447/447 459/459/459 448/448/448
f 448/448/448 459/459/459 460/460/460
f 448/448/448 460/460/460 449/449/449
f 449/449/449 460/460/460 461/461/461
f 449/449/449 461/461/461 450/450/450
f 450/450/450 461/461/461 462/462/462
f 450/450/450 462/462/462 451/451/451
f 451/451/451 462/462/462 463/463/463
f 451/451/451 463/463/463 452/452/452
f 452/452/452 463/463/463 464/464/464
f 452/452/452 464/464/464 453/453/453
f 453/453/453 464/464/464 465/465/465
f 453/453/453 465/465/465 454/454/454
f 454/454/454 465/465/465 466/466/466
f 454/454/454 466/466/466 455/455/455
f 456/456/456 467/467/467 468/468/468
f 456/456/456 468/468/468 457/457/457
f 457/457/457 468/468/468 469/469/469
f 457/457/457 469/469/469 458/458/458
f 458/458/458 469/469/469 470/470/470
f 458/458/458 470/470/470 459/459/459
f 459/459/459 470/470/470 471/471/471
f 459/459/459 471/471/471 460/460/460
f 460/460/460 471/471/471 472/472/472
f 460/460/460 472/472/472 461/461/461
f 461/461/461 472/472/472 473/473/473
f 461/461/461 473/473/473 462/462/462
f 462/462/462 473/473/473 474/474/474
f 462/462/462 474/474/474 463/463/463
f 463/463/463 474/474/474 475/475/475
f 463/463/463 475/475/475 464/464/464
f 464/464/464 475/475/475 476/476/476
f 464/464/464 476/476/476 465/465/465
f 465/465/465 476/476/476 477/477/477
f 465/465/465 477/477/477 466/466/466
f 467/467/467 478/478/478 479/479/479
f 467/467/467 479/479/479 468/468/468
f 468/468/468 479/479/479 480/480/480
f 468/468/468 480/480/480 469/469/469
f 469/469/469 480/480/480 481/481/481
f 469/469/469 481/481/481 470/470/470
f 470/470/470 481/481/481 482/482/482
f 470/470/470 482/482/482 471/471/471
f 471/471/471 482/482/482 483/483/483
f 471/471/471 483/483/483 472/472/472
f 472/472/472 483/483/483 484/484/484
f 472/472/472 484/484/484 473/473/473
f 473/473/473 484/484/484 485/485/485
f 473/473/473 485/485/485 474/474/474
f 474/474/474 485/485/485 486/486/486
f 474/474/474 486/486/486 475/475/475
f 475/475/475 486/486/486 487/487/487
f 475/475/475 487/487/487 476/476/476
f 476/476/476 487/487/487 488/488/488
f 476/476/476 488/488/488 477/477/477
f 478/478/478 489/489/489 490/490/490
f 478/478/478 490/490/490 479/479/479
f 479/479/479 490/490/490 491/491/491
f 479/479/479 491/491/491 480/480/480
f 480/480/480 491/491/491 492/492/492
f 480/480/480 492/492/492 481/481/481
f 481/481/481 492/492/492 493/493/493
f 481/481/481 493/493/493 482/482/482
f 482/482/482 493/493/493 494/494/494
f 482/482/482 494/494/494 483/483/483
f 483/483/483 494/494/494 495/495/495
f 483/483/483 495/495/495 484/484/484
f 484/484/484 495/495/495 496/496/496
f 484/484/484 496/496/496 485/485/485
f 485/485/485 496/496/496 497/497/497
f 485/485/485 497/497/497 486/486/486
f 486/486/486 497/497/497 498/498/498
f 486/486/486 498/498/498 487/487/487
f 487/487/487 498/498/498 499/499/499
f 487/487/487 499/499/499 488/488/488
f 489/489/489 500/500/500 501/501/501
f 489/489/489 501/501/501 490/490/490
f 490/490/490 501/501/501 502/502/502
f 490/490/490 502/502/502 491/491/491
f 491/491/491 502/502/502 503/503/503
f 491/491/491 503/503/503 492/492/492
f 492/492/492 503/503/503 504/504/504
f 492/492/492 504/504/504 493/493/493
f 493/493/493 504/504/504 505/505/505
f 493/493/493 505/505/505 494/494/494
f 494/494/494 505/505/505 506/506/506
f 494/494/494 506/506/506 495/495/495
f 495/495/495 506/506/506 507/507/507
f 495/495/495 507/507/507 496/496/496
f 496/496/496 507/507/507 508/508/508
f 496/496/496 508/508/508 497/497/497
f 497/497/497 508/508/508 509/509/509
f 497/497/497 509/509/509 498/498/498
f 498/498/498 509/509/509 510/510/510
f 498/498/498 510/510/510 499/499/499
f 500/500/500 511/511/511 512/512/512
f 500/500/500 512/512/512 501/501/501
f 501/501/501 512/512/512 513/513/513
f 501/501/501 513/513/513 502/502/502
f 502/502/502 513/513/513 514/514/514
f 502/502/502 514/514/514 503/503/503
f 503/503/503 514/514/514 515/515/515
f 503/503/503 515/515/515 504/504/504
f 504/504/504 515/515/515 516/516/516
f 504/504/504 516/516/516 505/505/505
f 505/505/505 516/516/516 517/517/517
f 505/505/505 517/517/517 506/506/506
f 506/506/506 517/517/517 518/518/518
f 506/506/506 518/518/518 507/507/507
f 507/507/507 518/518/518 519/519/519
f 507/507/507 519/519/519 508/508/508
f 508/508/508 519/519/519 520/520/520
f 508/508/508 520/520/520 509/509/509
f 509/509/509 520/520/520 521/521/521
f 509/509/509 521/521/521 510/510/510
f 522/522/522 533/533/533 534/534/534
f 522/522/522 534/534/534 523/523/523
f 523/523/523 534/534/534 535/535/535
f 523/523/523 535/535/535 524/524/524
f 524/524/524 535/535/535 536/536/536
f 524/524/524 536/536/536 525/525/525
f 525/525/525 536/536/536 537/537/537
f 525/525/525 537/537/537 526/526/526
f 526/526/526 537/537/537 538/538/538
f 526/526/526 538/538/538 527/527/527
f 527/527/527 538/538/538 539/539/539
f 527/527/527 539/539/539 528/528/528
f 528/528/528 539/539/539 540/540/540
f 528/528/528 540/540/540 529/529/529
f 529/529/529 540/540/540 541/541/541
f 529/529/529 541/541/541 530/530/530
f 530/530/530 541/541/541 542/542/542
f 530/530/530 542/542/542 531/531/531
f 531/531/531 542/542/542 543/543/543
f 531/531/531 543/543/543 532/532/532
f 533/533/533 544/544/544 545/545/545
f 533/533/533 545/545/545 534/534/534
f 534/534/534 545/545/545 546/546/546
f 534/534/534 546/546/546 535/535/535
f 535/535/535 546/546/546 547/547/547
f 535/535/535 547/547/547 536/536/536
f 536/536/536 547/547/547 548/548/548
f 536/536/536 548/548/548 537/537/537
f 537/537/537 548/548/548 549/549/549
f 537/537/537 549/549/549 538/538/538
f 538/538/538 549/549/549 550/550/550
f 538/538/538 550/550/550 539/539/539
f 539/539/539 550/550/550 551/551/551
f 539/539/539 551/551/551 540/540/540
f 540/540/540 551/551/551 552/552/552
f 540/540/540 552/552/552 541/541/541
f 541/541/541 552/552/552 553/553/553
f 541/541/541 553/553/553 542/542/542
f 542/542/542 553/553/553 554/554/554
f 542/542/542 554/554/554 543/543/543
f 544/544/544 555/555/555 556/556/556
f 544/544/544 556/556/556 545/545/545
f 545/545/545 556/556/556 557/557/557
f 545/545/545 557/557/557 546/546/546
f 546/546/546 557/557/557 558/558/558
f 546/546/546 558/558/558 547/547/547
f 547/547/547 558/558/558 559/559/559
f 547/547/547 559/559/559 548/548/548
f 548/548/548 559/559/559 560/560/560
f 548/548/548 560/560/560 549/549/549
f 549/549/549 560/560/560 561/561/561
f 549/549/549 561/561/561 550/550/550
f 550/550/550 561/561/561 562/562/562
f 550/550/550 562/562/562 551/551/551
f 551/551/551 562/562/562 563/563/563
f 551/551/551 563/563/563 552/552/552
f 552/552/552 563/563/563 564/564/564
f 552/552/552 564/564/564 553/553/553
f 553/553/553 564/564/564 565/565/565
f 553/553/553 565/565/565 554/554/554
f 555/555/555 566/566/566 567/567/567
f 555/555/555 567/567/567 556/556/556
f 556/556/556 567/567/567 568/568/568
f 556/556/556 568/568/568 557/557/557
f 557/557/557 568/568/568 569/569/569
f 557/557/557 569/569/569 558/558/558
f 558/558/558 569/569/569 570/570/570
f 558/558/558 570/570/570 559/559/559
f 559/559/559 570/570/570 571/571/571
f 559/559/559 571/571/571 560/560/560
f 560/560/560 571/571/571 572/572/572
f 560/560/560 572/572/572 561/561/561
f 561/561/561 572/572/572 573/573/573
f 561/561/561 573/573/573 562/562/562
f 562/562/562 573/573/573 574/574/574
f 562/562/562 574/574/574 563/563/563
f 563/563/563 574/574/574 575/575/575
f 563/563/563 575/575/575 564/564/564
f 564/564/564 575/575/575 576/576/576
f 564/564/564 576/576/576 565/565/565
f 566/566/566 577/577/577 578/578/578
f 566/566/566 578/578/578 567/567/567
f 567/567/567 578/578/578 579/579/579
f 567/567/567 579/579/579 568/568/568
f 568/568/568 579/579/579 580/580/580
f 568/568/568 580/580/580 569/569/569
f 569/569/569 580/580/580 581/581/581
f 569/569/569 581/581/581 570/570/570
f 570/570/570 581/581/581 582/582/582
f 570/570/570 582/582/582 571/571/571
f 571/571/571 582/582/582 583/583/583
f 571/571/571 583/583/583 572/572/572
f 572/572/572 583/583/583 584/584/584
f 572/572/572 584/584/584 573/573/573
f 573/573/573 584/584/584 585/585/585
f 573/573/573 585/585/585 574/574/574
f 574/574/574 585/585/585 586/586/586
f 574/574/574 586/586/586 575/575/575
f 575/575/575 586/586/586 587/587/587
f 575/575/575 587/587/587 576/576/576
f 577/577/577 588/588/588 589/589/589
f 577/577/577 589/589/589 578/578/578
f 578/578/578 589/589/589 590/590/590
f 578/578/578 590/590/590 579/579/579
f 579/579/579 590/590/590 591/591/591
f 579/579/579 591/591/591 580/580/580
f 580/580/580 591/591/591 592/592/592
f 580/580/580 592/592/592 581/581/581
f 581/581/581 592/592/592 593/593/593
f 581/581/581 593/593/593 582/582/582
f 582/582/582 593/593/593 594/594/594
f 582/582/582 594/594/594 583/583/583
f 583/583/583 594/594/594 595/595/595
f 583/583/583 595/595/595 584/584/584
f 584/584/584 595/595/595 596/596/596
f 584/584/584 596/596/596 585/585/585
f 585/585/585 596/596/596 597/597/597
f 585/585/585 597/597/597 586/586/586
f 586/586/586 597/597/597 598/598/598
f 586/586/586 598/598/598 587/587/587
f 588/588/588 599/599/599 600/600/600
f 588/588/588 600/600/600 589/589/589
f 589/589/589 600/600/600 601/601/601
f 589/589/589 601/601/601 590/590/590
f 590/590/590 601/601/601 602/602/602
f 590/590/590 602/602/602 591/591/591
f 591/591/591 602/602/602 603/603/603
f 591/591/591 603/603/603 592/592/592
f 592/592/592 603/603/603 604/604/604
f 592/592/592 604/604/604 593/593/593
f 593/593/593 604/604/604 605/605/605
f 593/593/593 605/605/605 594/594/594
f 594/594/594 605/605/605 606/606/606
f 594/594/594 606/606/606 595/595/595
f 595/595/595 606/606/606 607/607/607
f 595/595/595 607/607/607 596/596/596
f 596/596/596 607/607/607 608/608/608
f 596/596/596 608/608/608 597/597/597
f 597/597/597 608/608/608 609/609/609
f 597/597/597 609/609/609 598/598/598
f 599/599/599 610/610/610 611/611/611
f 599/599/599 611/611/611 600/600/600
f 600/600/600 611/611/611 612/612/612
f 600/600/600 612/612/612 601/601/601
f 601/601/601 612/612/612 613/613/613
f 601/601/601 613/613/613 602/602/602
f 602/602/602 613/613/613 614/614/614
f 602/602/602 614/614/614 603/603/603
f 603/603/603 614/614/614 615/615/615
f 603/603/603 615/615/615 604/604/604
f 604/604/604 615/615/615 616/616/616
f 604/604/604 616/616/616 605/605/605
f 605/605/605 616/616/616 617/617/617
f 605/605/605 617/617/617 606/606/606
f 606/606/606 617/617/617 618/618/618
f 606/606/606 618/618/618 607/607/607
f 607/607/607 618/618/618 619/619/619
f 607/607/607 619/619/619 608/608/608
f 608/608/608 619/619/619 620/620/620
f 608/608/608 620/620/620 609/609/609