# 3D Model: building/bld_temple/ov_59cb11dd-0b5f-47c0-b6d0-e159c4f1aff7 (v6 Gemini)
# Style: Japanese Temple Hanging Lantern | Symmetry: symmetric
# Dimensions: 0.72 x 1.62 x 0.624 m
# Triangles: 706 | Vertices: 429
v 0.015 0.2 0
v 0.0106 0.2 0.0106
v 0 0.2 0.015
v -0.0106 0.2 0.0106
v -0.015 0.2 0
v -0.0106 0.2 -0.0106
v 0 0.2 -0.015
v 0.0106 0.2 -0.0106
v 0.015 1.2 0
v 0.0106 1.2 0.0106
v 0 1.2 0.015
v -0.0106 1.2 0.0106
v -0.015 1.2 0
v -0.0106 1.2 -0.0106
v 0 1.2 -0.015
v 0.0106 1.2 -0.0106
v 0 0.2 0
v 0 1.2 0
v 0.095 0.5 0
v 0.0875 0.513 0
v 0.0725 0.513 0
v 0.065 0.5 0
v 0.0725 0.487 0
v 0.0875 0.487 0
v 0.095 0.5 0
v 0.0769 0.5 0.0558
v 0.0708 0.513 0.0514
v 0.0587 0.513 0.0426
v 0.0526 0.5 0.0382
v 0.0587 0.487 0.0426
v 0.0708 0.487 0.0514
v 0.0769 0.5 0.0558
v 0.0294 0.5 0.0904
v 0.027 0.513 0.0832
v 0.0224 0.513 0.069
v 0.0201 0.5 0.0618
v 0.0224 0.487 0.069
v 0.027 0.487 0.0832
v 0.0294 0.5 0.0904
v -0.0294 0.5 0.0904
v -0.027 0.513 0.0832
v -0.0224 0.513 0.069
v -0.0201 0.5 0.0618
v -0.0224 0.487 0.069
v -0.027 0.487 0.0832
v -0.0294 0.5 0.0904
v -0.0769 0.5 0.0558
v -0.0708 0.513 0.0514
v -0.0587 0.513 0.0426
v -0.0526 0.5 0.0382
v -0.0587 0.487 0.0426
v -0.0708 0.487 0.0514
v -0.0769 0.5 0.0558
v -0.095 0.5 0
v -0.0875 0.513 0
v -0.0725 0.513 0
v -0.065 0.5 0
v -0.0725 0.487 0
v -0.0875 0.487 0
v -0.095 0.5 0
v -0.0769 0.5 -0.0558
v -0.0708 0.513 -0.0514
v -0.0587 0.513 -0.0426
v -0.0526 0.5 -0.0382
v -0.0587 0.487 -0.0426
v -0.0708 0.487 -0.0514
v -0.0769 0.5 -0.0558
v -0.0294 0.5 -0.0904
v -0.027 0.513 -0.0832
v -0.0224 0.513 -0.069
v -0.0201 0.5 -0.0618
v -0.0224 0.487 -0.069
v -0.027 0.487 -0.0832
v -0.0294 0.5 -0.0904
v 0.0294 0.5 -0.0904
v 0.027 0.513 -0.0832
v 0.0224 0.513 -0.069
v 0.0201 0.5 -0.0618
v 0.0224 0.487 -0.069
v 0.027 0.487 -0.0832
v 0.0294 0.5 -0.0904
v 0.0769 0.5 -0.0558
v 0.0708 0.513 -0.0514
v 0.0587 0.513 -0.0426
v 0.0526 0.5 -0.0382
v 0.0587 0.487 -0.0426
v 0.0708 0.487 -0.0514
v 0.0769 0.5 -0.0558
v 0.095 0.5 0
v 0.0875 0.513 0
v 0.0725 0.513 0
v 0.065 0.5 0
v 0.0725 0.487 0
v 0.0875 0.487 0
v 0.095 0.5 0
v 0.08 0.4 0
v 0.0693 0.4 0.04
v 0.04 0.4 0.0693
v 0 0.4 0.08
v -0.04 0.4 0.0693
v -0.0693 0.4 0.04
v -0.08 0.4 0
v -0.0693 0.4 -0.04
v -0.04 0.4 -0.0693
v 0 0.4 -0.08
v 0.04 0.4 -0.0693
v 0.0693 0.4 -0.04
v 0.06 0.44 0
v 0.052 0.44 0.03
v 0.03 0.44 0.052
v 0 0.44 0.06
v -0.03 0.44 0.052
v -0.052 0.44 0.03
v -0.06 0.44 0
v -0.052 0.44 -0.03
v -0.03 0.44 -0.052
v 0 0.44 -0.06
v 0.03 0.44 -0.052
v 0.052 0.44 -0.03
v 0 0.4 0
v 0 0.44 0
v 0 0.44 0
v 0 0.44 0
v 0 0.44 0
v 0 0.44 0
v 0 0.44 0
v 0 0.44 0
v 0 0.44 0
v 0 0.44 0
v 0 0.44 0
v 0 0.44 0
v 0 0.44 0
v 0.0429 0.4377 0
v 0.0347 0.4377 0.0252
v 0.0133 0.4377 0.0408
v -0.0133 0.4377 0.0408
v -0.0347 0.4377 0.0252
v -0.0429 0.4377 0
v -0.0347 0.4377 -0.0252
v -0.0133 0.4377 -0.0408
v 0.0133 0.4377 -0.0408
v 0.0347 0.4377 -0.0252
v 0.0429 0.4377 0
v 0.0842 0.4309 0
v 0.0681 0.4309 0.0495
v 0.026 0.4309 0.0801
v -0.026 0.4309 0.0801
v -0.0681 0.4309 0.0495
v -0.0842 0.4309 0
v -0.0681 0.4309 -0.0495
v -0.026 0.4309 -0.0801
v 0.026 0.4309 -0.0801
v 0.0681 0.4309 -0.0495
v 0.0842 0.4309 0
v 0.1222 0.4198 0
v 0.0989 0.4198 0.0718
v 0.0378 0.4198 0.1162
v -0.0378 0.4198 0.1162
v -0.0989 0.4198 0.0718
v -0.1222 0.4198 0
v -0.0989 0.4198 -0.0718
v -0.0378 0.4198 -0.1162
v 0.0378 0.4198 -0.1162
v 0.0989 0.4198 -0.0718
v 0.1222 0.4198 0
v 0.1556 0.4049 0
v 0.1259 0.4049 0.0914
v 0.0481 0.4049 0.1479
v -0.0481 0.4049 0.1479
v -0.1259 0.4049 0.0914
v -0.1556 0.4049 0
v -0.1259 0.4049 -0.0914
v -0.0481 0.4049 -0.1479
v 0.0481 0.4049 -0.1479
v 0.1259 0.4049 -0.0914
v 0.1556 0.4049 0
v 0.1829 0.3867 0
v 0.148 0.3867 0.1075
v 0.0565 0.3867 0.174
v -0.0565 0.3867 0.174
v -0.148 0.3867 0.1075
v -0.1829 0.3867 0
v -0.148 0.3867 -0.1075
v -0.0565 0.3867 -0.174
v 0.0565 0.3867 -0.174
v 0.148 0.3867 -0.1075
v 0.1829 0.3867 0
v 0.2033 0.3659 0
v 0.1644 0.3659 0.1195
v 0.0628 0.3659 0.1933
v -0.0628 0.3659 0.1933
v -0.1644 0.3659 0.1195
v -0.2033 0.3659 0
v -0.1644 0.3659 -0.1195
v -0.0628 0.3659 -0.1933
v 0.0628 0.3659 -0.1933
v 0.1644 0.3659 -0.1195
v 0.2033 0.3659 0
v 0.2158 0.3434 0
v 0.1746 0.3434 0.1268
v 0.0667 0.3434 0.2052
v -0.0667 0.3434 0.2052
v -0.1746 0.3434 0.1268
v -0.2158 0.3434 0
v -0.1746 0.3434 -0.1268
v -0.0667 0.3434 -0.2052
v 0.0667 0.3434 -0.2052
v 0.1746 0.3434 -0.1268
v 0.2158 0.3434 0
v 0.22 0.32 0
v 0.178 0.32 0.1293
v 0.068 0.32 0.2092
v -0.068 0.32 0.2092
v -0.178 0.32 0.1293
v -0.22 0.32 0
v -0.178 0.32 -0.1293
v -0.068 0.32 -0.2092
v 0.068 0.32 -0.2092
v 0.178 0.32 -0.1293
v 0.22 0.32 0
v 0 0.32 0
v 0.32 0.2 0
v 0.16 0.2 0.2771
v -0.16 0.2 0.2771
v -0.32 0.2 0
v -0.16 0.2 -0.2771
v 0.16 0.2 -0.2771
v 0.22 0.28 0
v 0.11 0.28 0.1905
v -0.11 0.28 0.1905
v -0.22 0.28 0
v -0.11 0.28 -0.1905
v 0.11 0.28 -0.1905
v 0 0.2 0
v 0 0.28 0
v 0.2509 0.246 -0.015
v 0.3246 0.2772 -0.015
v 0.3091 0.314 -0.015
v 0.2354 0.2828 -0.015
v 0.2509 0.246 0.015
v 0.3246 0.2772 0.015
v 0.3091 0.314 0.015
v 0.2354 0.2828 0.015
v -0.3246 0.2772 -0.015
v -0.2509 0.246 -0.015
v -0.2354 0.2828 -0.015
v -0.3091 0.314 -0.015
v -0.3246 0.2772 0.015
v -0.2509 0.246 0.015
v -0.2354 0.2828 0.015
v -0.3091 0.314 0.015
v 0.1039 0.2496 0.2416
v 0.1788 0.2648 0.2179
v 0.1687 0.3028 0.2103
v 0.0938 0.2876 0.234
v 0.1113 0.2572 0.2697
v 0.1862 0.2724 0.246
v 0.1761 0.3104 0.2384
v 0.1012 0.2952 0.2621
v -0.1788 0.2648 0.2179
v -0.1039 0.2496 0.2416
v -0.0938 0.2876 0.234
v -0.1687 0.3028 0.2103
v -0.1862 0.2724 0.246
v -0.1113 0.2572 0.2697
v -0.1012 0.2952 0.2621
v -0.1761 0.3104 0.2384
v 0.1113 0.2572 -0.2697
v 0.1862 0.2724 -0.246
v 0.1761 0.3104 -0.2384
v 0.1012 0.2952 -0.2621
v 0.1039 0.2496 -0.2416
v 0.1788 0.2648 -0.2179
v 0.1687 0.3028 -0.2103
v 0.0938 0.2876 -0.234
v -0.1862 0.2724 -0.246
v -0.1113 0.2572 -0.2697
v -0.1012 0.2952 -0.2621
v -0.1761 0.3104 -0.2384
v -0.1788 0.2648 -0.2179
v -0.1039 0.2496 -0.2416
v -0.0938 0.2876 -0.234
v -0.1687 0.3028 -0.2103
v 0.26 0.16 0
v 0.13 0.16 0.2252
v -0.13 0.16 0.2252
v -0.26 0.16 0
v -0.13 0.16 -0.2252
v 0.13 0.16 -0.2252
v 0.26 0.2 0
v 0.13 0.2 0.2252
v -0.13 0.2 0.2252
v -0.26 0.2 0
v -0.13 0.2 -0.2252
v 0.13 0.2 -0.2252
v 0 0.16 0
v 0 0.2 0
v 0.23 -0.2 0
v 0.115 -0.2 0.1992
v -0.115 -0.2 0.1992
v -0.23 -0.2 0
v -0.115 -0.2 -0.1992
v 0.115 -0.2 -0.1992
v 0.23 0.16 0
v 0.115 0.16 0.1992
v -0.115 0.16 0.1992
v -0.23 0.16 0
v -0.115 0.16 -0.1992
v 0.115 0.16 -0.1992
v 0 -0.2 0
v 0 0.16 0
v 0.24 -0.2 0
v 0.12 -0.2 0.2078
v -0.12 -0.2 0.2078
v -0.24 -0.2 0
v -0.12 -0.2 -0.2078
v 0.12 -0.2 -0.2078
v 0.24 0.16 0
v 0.12 0.16 0.2078
v -0.12 0.16 0.2078
v -0.24 0.16 0
v -0.12 0.16 -0.2078
v 0.12 0.16 -0.2078
v 0 -0.2 0
v 0 0.16 0
v -0.08 -0.17 0.235
v 0.08 -0.17 0.235
v 0.08 0.13 0.235
v -0.08 0.13 0.235
v -0.08 -0.17 0.245
v 0.08 -0.17 0.245
v 0.08 0.13 0.245
v -0.08 0.13 0.245
v -0.08 -0.17 -0.245
v 0.08 -0.17 -0.245
v 0.08 0.13 -0.245
v -0.08 0.13 -0.245
v -0.08 -0.17 -0.235
v 0.08 -0.17 -0.235
v 0.08 0.13 -0.235
v -0.08 0.13 -0.235
v -0.2543 -0.17 0.1868
v -0.1743 -0.17 0.0482
v -0.1743 0.13 0.0482
v -0.2543 0.13 0.1868
v -0.2457 -0.17 0.1918
v -0.1657 -0.17 0.0532
v -0.1657 0.13 0.0532
v -0.2457 0.13 0.1918
v 0.1743 -0.17 0.0482
v 0.2543 -0.17 0.1868
v 0.2543 0.13 0.1868
v 0.1743 0.13 0.0482
v 0.1657 -0.17 0.0532
v 0.2457 -0.17 0.1918
v 0.2457 0.13 0.1918
v 0.1657 0.13 0.0532
v -0.2457 -0.17 -0.1918
v -0.1657 -0.17 -0.0532
v -0.1657 0.13 -0.0532
v -0.2457 0.13 -0.1918
v -0.2543 -0.17 -0.1868
v -0.1743 -0.17 -0.0482
v -0.1743 0.13 -0.0482
v -0.2543 0.13 -0.1868
v 0.1657 -0.17 -0.0532
v 0.2457 -0.17 -0.1918
v 0.2457 0.13 -0.1918
v 0.1657 0.13 -0.0532
v 0.1743 -0.17 -0.0482
v 0.2543 -0.17 -0.1868
v 0.2543 0.13 -0.1868
v 0.1743 0.13 -0.0482
v 0.26 -0.245 0
v 0.13 -0.245 0.2252
v -0.13 -0.245 0.2252
v -0.26 -0.245 0
v -0.13 -0.245 -0.2252
v 0.13 -0.245 -0.2252
v 0.26 -0.195 0
v 0.13 -0.195 0.2252
v -0.13 -0.195 0.2252
v -0.26 -0.195 0
v -0.13 -0.195 -0.2252
v 0.13 -0.195 -0.2252
v 0 -0.245 0
v 0 -0.195 0
v 0.34 -0.335 0
v 0.17 -0.335 0.2944
v -0.17 -0.335 0.2944
v -0.34 -0.335 0
v -0.17 -0.335 -0.2944
v 0.17 -0.335 -0.2944
v 0.26 -0.245 0
v 0.13 -0.245 0.2252
v -0.13 -0.245 0.2252
v -0.26 -0.245 0
v -0.13 -0.245 -0.2252
v 0.13 -0.245 -0.2252
v 0 -0.335 0
v 0 -0.245 0
v 0.36 -0.405 0
v 0.18 -0.405 0.3118
v -0.18 -0.405 0.3118
v -0.36 -0.405 0
v -0.18 -0.405 -0.3118
v 0.18 -0.405 -0.3118
v 0.34 -0.335 0
v 0.17 -0.335 0.2944
v -0.17 -0.335 0.2944
v -0.34 -0.335 0
v -0.17 -0.335 -0.2944
v 0.17 -0.335 -0.2944
v 0 -0.405 0
v 0 -0.335 0
v 0.28 -0.42 0
v 0.14 -0.42 0.2425
v -0.14 -0.42 0.2425
v -0.28 -0.42 0
v -0.14 -0.42 -0.2425
v 0.14 -0.42 -0.2425
v 0.28 -0.4 0
v 0.14 -0.4 0.2425
v -0.14 -0.4 0.2425
v -0.28 -0.4 0
v -0.14 -0.4 -0.2425
v 0.14 -0.4 -0.2425
v 0 -0.42 0
v 0 -0.4 0
vt 0 0
vt 0.125 0
vt 0.25 0
vt 0.375 0
vt 0.5 0
vt 0.625 0
vt 0.75 0
vt 0.875 0
vt 0 1
vt 0.125 1
vt 0.25 1
vt 0.375 1
vt 0.5 1
vt 0.625 1
vt 0.75 1
vt 0.875 1
vt 0.5 0.5
vt 0.5 0.5
vt 0 0
vt 0 0.16666666666666666
vt 0 0.3333333333333333
vt 0 0.5
vt 0 0.6666666666666666
vt 0 0.8333333333333334
vt 0 1
vt 0.1 0
vt 0.1 0.16666666666666666
vt 0.1 0.3333333333333333
vt 0.1 0.5
vt 0.1 0.6666666666666666
vt 0.1 0.8333333333333334
vt 0.1 1
vt 0.2 0
vt 0.2 0.16666666666666666
vt 0.2 0.3333333333333333
vt 0.2 0.5
vt 0.2 0.6666666666666666
vt 0.2 0.8333333333333334
vt 0.2 1
vt 0.3 0
vt 0.3 0.16666666666666666
vt 0.3 0.3333333333333333
vt 0.3 0.5
vt 0.3 0.6666666666666666
vt 0.3 0.8333333333333334
vt 0.3 1
vt 0.4 0
vt 0.4 0.16666666666666666
vt 0.4 0.3333333333333333
vt 0.4 0.5
vt 0.4 0.6666666666666666
vt 0.4 0.8333333333333334
vt 0.4 1
vt 0.5 0
vt 0.5 0.16666666666666666
vt 0.5 0.3333333333333333
vt 0.5 0.5
vt 0.5 0.6666666666666666
vt 0.5 0.8333333333333334
vt 0.5 1
vt 0.6 0
vt 0.6 0.16666666666666666
vt 0.6 0.3333333333333333
vt 0.6 0.5
vt 0.6 0.6666666666666666
vt 0.6 0.8333333333333334
vt 0.6 1
vt 0.7 0
vt 0.7 0.16666666666666666
vt 0.7 0.3333333333333333
vt 0.7 0.5
vt 0.7 0.6666666666666666
vt 0.7 0.8333333333333334
vt 0.7 1
vt 0.8 0
vt 0.8 0.16666666666666666
vt 0.8 0.3333333333333333
vt 0.8 0.5
vt 0.8 0.6666666666666666
vt 0.8 0.8333333333333334
vt 0.8 1
vt 0.9 0
vt 0.9 0.16666666666666666
vt 0.9 0.3333333333333333
vt 0.9 0.5
vt 0.9 0.6666666666666666
vt 0.9 0.8333333333333334
vt 0.9 1
vt 1 0
vt 1 0.16666666666666666
vt 1 0.3333333333333333
vt 1 0.5
vt 1 0.6666666666666666
vt 1 0.8333333333333334
vt 1 1
vt 0 0
vt 0.08333333333333333 0
vt 0.16666666666666666 0
vt 0.25 0
vt 0.3333333333333333 0
vt 0.4166666666666667 0
vt 0.5 0
vt 0.5833333333333334 0
vt 0.6666666666666666 0
vt 0.75 0
vt 0.8333333333333334 0
vt 0.9166666666666666 0
vt 0 1
vt 0.08333333333333333 1
vt 0.16666666666666666 1
vt 0.25 1
vt 0.3333333333333333 1
vt 0.4166666666666667 1
vt 0.5 1
vt 0.5833333333333334 1
vt 0.6666666666666666 1
vt 0.75 1
vt 0.8333333333333334 1
vt 0.9166666666666666 1
vt 0.5 0.5
vt 0.5 0.5
vt 0 0
vt 0.1 0
vt 0.2 0
vt 0.3 0
vt 0.4 0
vt 0.5 0
vt 0.6 0
vt 0.7 0
vt 0.8 0
vt 0.9 0
vt 1 0
vt 0 0.125
vt 0.1 0.125
vt 0.2 0.125
vt 0.3 0.125
vt 0.4 0.125
vt 0.5 0.125
vt 0.6 0.125
vt 0.7 0.125
vt 0.8 0.125
vt 0.9 0.125
vt 1 0.125
vt 0 0.25
vt 0.1 0.25
vt 0.2 0.25
vt 0.3 0.25
vt 0.4 0.25
vt 0.5 0.25
vt 0.6 0.25
vt 0.7 0.25
vt 0.8 0.25
vt 0.9 0.25
vt 1 0.25
vt 0 0.375
vt 0.1 0.375
vt 0.2 0.375
vt 0.3 0.375
vt 0.4 0.375
vt 0.5 0.375
vt 0.6 0.375
vt 0.7 0.375
vt 0.8 0.375
vt 0.9 0.375
vt 1 0.375
vt 0 0.5
vt 0.1 0.5
vt 0.2 0.5
vt 0.3 0.5
vt 0.4 0.5
vt 0.5 0.5
vt 0.6 0.5
vt 0.7 0.5
vt 0.8 0.5
vt 0.9 0.5
vt 1 0.5
vt 0 0.625
vt 0.1 0.625
vt 0.2 0.625
vt 0.3 0.625
vt 0.4 0.625
vt 0.5 0.625
vt 0.6 0.625
vt 0.7 0.625
vt 0.8 0.625
vt 0.9 0.625
vt 1 0.625
vt 0 0.75
vt 0.1 0.75
vt 0.2 0.75
vt 0.3 0.75
vt 0.4 0.75
vt 0.5 0.75
vt 0.6 0.75
vt 0.7 0.75
vt 0.8 0.75
vt 0.9 0.75
vt 1 0.75
vt 0 0.875
vt 0.1 0.875
vt 0.2 0.875
vt 0.3 0.875
vt 0.4 0.875
vt 0.5 0.875
vt 0.6 0.875
vt 0.7 0.875
vt 0.8 0.875
vt 0.9 0.875
vt 1 0.875
vt 0 1
vt 0.1 1
vt 0.2 1
vt 0.3 1
vt 0.4 1
vt 0.5 1
vt 0.6 1
vt 0.7 1
vt 0.8 1
vt 0.9 1
vt 1 1
vt 0.5 0.5
vt 0 0
vt 0.16666666666666666 0
vt 0.3333333333333333 0
vt 0.5 0
vt 0.6666666666666666 0
vt 0.8333333333333334 0
vt 0 1
vt 0.16666666666666666 1
vt 0.3333333333333333 1
vt 0.5 1
vt 0.6666666666666666 1
vt 0.8333333333333334 1
vt 0.5 0.5
vt 0.5 0.5
vt 0.5 0.5
vt 0.5 0.5
vt 0.5 0.5
vt 0.5 0.5
vt 0.5 0.5
vt 0.5 0.5
vt 0.5 0.5
vt 0.5 0.5
vt 0.5 0.5
vt 0.5 0.5
vt 0.5 0.5
vt 0.5 0.5
vt 0.5 0.5
vt 0.5 0.5
vt 0.5 0.5
vt 0.5 0.5
vt 0.5 0.5
vt 0.5 0.5
vt 0.5 0.5
vt 0.5 0.5
vt 0.5 0.5
vt 0.5 0.5
vt 0.5 0.5
vt 0.5 0.5
vt 0.5 0.5
vt 0.5 0.5
vt 0.5 0.5
vt 0.5 0.5
vt 0.5 0.5
vt 0.5 0.5
vt 0.5 0.5
vt 0.5 0.5
vt 0.5 0.5
vt 0.5 0.5
vt 0.5 0.5
vt 0.5 0.5
vt 0.5 0.5
vt 0.5 0.5
vt 0.5 0.5
vt 0.5 0.5
vt 0.5 0.5
vt 0.5 0.5
vt 0.5 0.5
vt 0.5 0.5
vt 0.5 0.5
vt 0.5 0.5
vt 0.5 0.5
vt 0.5 0.5
vt 0 0
vt 0.16666666666666666 0
vt 0.3333333333333333 0
vt 0.5 0
vt 0.6666666666666666 0
vt 0.8333333333333334 0
vt 0 1
vt 0.16666666666666666 1
vt 0.3333333333333333 1
vt 0.5 1
vt 0.6666666666666666 1
vt 0.8333333333333334 1
vt 0.5 0.5
vt 0.5 0.5
vt 0 0
vt 0.16666666666666666 0
vt 0.3333333333333333 0
vt 0.5 0
vt 0.6666666666666666 0
vt 0.8333333333333334 0
vt 0 1
vt 0.16666666666666666 1
vt 0.3333333333333333 1
vt 0.5 1
vt 0.6666666666666666 1
vt 0.8333333333333334 1
vt 0.5 0.5
vt 0.5 0.5
vt 0 0
vt 0.16666666666666666 0
vt 0.3333333333333333 0
vt 0.5 0
vt 0.6666666666666666 0
vt 0.8333333333333334 0
vt 0 1
vt 0.16666666666666666 1
vt 0.3333333333333333 1
vt 0.5 1
vt 0.6666666666666666 1
vt 0.8333333333333334 1
vt 0.5 0.5
vt 0.5 0.5
vt 0.5 0.5
vt 0.5 0.5
vt 0.5 0.5
vt 0.5 0.5
vt 0.5 0.5
vt 0.5 0.5
vt 0.5 0.5
vt 0.5 0.5
vt 0.5 0.5
vt 0.5 0.5
vt 0.5 0.5
vt 0.5 0.5
vt 0.5 0.5
vt 0.5 0.5
vt 0.5 0.5
vt 0.5 0.5
vt 0.5 0.5
vt 0.5 0.5
vt 0.5 0.5
vt 0.5 0.5
vt 0.5 0.5
vt 0.5 0.5
vt 0.5 0.5
vt 0.5 0.5
vt 0.5 0.5
vt 0.5 0.5
vt 0.5 0.5
vt 0.5 0.5
vt 0.5 0.5
vt 0.5 0.5
vt 0.5 0.5
vt 0.5 0.5
vt 0.5 0.5
vt 0.5 0.5
vt 0.5 0.5
vt 0.5 0.5
vt 0.5 0.5
vt 0.5 0.5
vt 0.5 0.5
vt 0.5 0.5
vt 0.5 0.5
vt 0.5 0.5
vt 0.5 0.5
vt 0.5 0.5
vt 0.5 0.5
vt 0.5 0.5
vt 0.5 0.5
vt 0.5 0.5
vt 0 0
vt 0.16666666666666666 0
vt 0.3333333333333333 0
vt 0.5 0
vt 0.6666666666666666 0
vt 0.8333333333333334 0
vt 0 1
vt 0.16666666666666666 1
vt 0.3333333333333333 1
vt 0.5 1
vt 0.6666666666666666 1
vt 0.8333333333333334 1
vt 0.5 0.5
vt 0.5 0.5
vt 0 0
vt 0.16666666666666666 0
vt 0.3333333333333333 0
vt 0.5 0
vt 0.6666666666666666 0
vt 0.8333333333333334 0
vt 0 1
vt 0.16666666666666666 1
vt 0.3333333333333333 1
vt 0.5 1
vt 0.6666666666666666 1
vt 0.8333333333333334 1
vt 0.5 0.5
vt 0.5 0.5
vt 0 0
vt 0.16666666666666666 0
vt 0.3333333333333333 0
vt 0.5 0
vt 0.6666666666666666 0
vt 0.8333333333333334 0
vt 0 1
vt 0.16666666666666666 1
vt 0.3333333333333333 1
vt 0.5 1
vt 0.6666666666666666 1
vt 0.8333333333333334 1
vt 0.5 0.5
vt 0.5 0.5
vt 0 0
vt 0.16666666666666666 0
vt 0.3333333333333333 0
vt 0.5 0
vt 0.6666666666666666 0
vt 0.8333333333333334 0
vt 0 1
vt 0.16666666666666666 1
vt 0.3333333333333333 1
vt 0.5 1
vt 0.6666666666666666 1
vt 0.8333333333333334 1
vt 0.5 0.5
vt 0.5 0.5
vn 0 -1 0
vn 0 -1 0
vn 0 -1 0
vn 0 -1 0
vn 0 -1 0
vn 0 -1 0
vn 0 -1 0
vn 0 -1 0
vn 0 1 0
vn 0 1 0
vn 0 1 0
vn 0 1 0
vn 0 1 0
vn 0 1 0
vn 0 1 0
vn 0 1 0
vn 0 -1 0
vn 0 1 0
vn 1 0 0
vn 0.5000000000000001 0.8660254037844386 0
vn -0.4999999999999998 0.8660254037844387 0
vn -1 1.2246467991473532e-16 0
vn -0.5000000000000004 -0.8660254037844385 0
vn 0.5000000000000001 -0.8660254037844386 0
vn 1 -2.4492935982947064e-16 0
vn 0.8090169943749475 0 0.5877852522924731
vn 0.40450849718747384 0.8660254037844386 0.2938926261462366
vn -0.40450849718747356 0.8660254037844387 -0.29389262614623646
vn -0.8090169943749475 1.2246467991473532e-16 -0.5877852522924731
vn -0.40450849718747406 -0.8660254037844385 -0.29389262614623685
vn 0.40450849718747384 -0.8660254037844386 0.2938926261462366
vn 0.8090169943749475 -2.4492935982947064e-16 0.5877852522924731
vn 0.30901699437494745 0 0.9510565162951535
vn 0.15450849718747375 0.8660254037844386 0.4755282581475769
vn -0.15450849718747367 0.8660254037844387 -0.47552825814757654
vn -0.30901699437494745 1.2246467991473532e-16 -0.9510565162951535
vn -0.15450849718747386 -0.8660254037844385 -0.4755282581475772
vn 0.15450849718747375 -0.8660254037844386 0.4755282581475769
vn 0.30901699437494745 -2.4492935982947064e-16 0.9510565162951535
vn -0.30901699437494734 0 0.9510565162951536
vn -0.1545084971874737 0.8660254037844386 0.47552825814757693
vn 0.15450849718747361 0.8660254037844387 -0.4755282581475766
vn 0.30901699437494734 1.2246467991473532e-16 -0.9510565162951536
vn 0.1545084971874738 -0.8660254037844385 -0.47552825814757727
vn -0.1545084971874737 -0.8660254037844386 0.47552825814757693
vn -0.30901699437494734 -2.4492935982947064e-16 0.9510565162951536
vn -0.8090169943749473 0 0.5877852522924732
vn -0.4045084971874738 0.8660254037844386 0.2938926261462367
vn 0.4045084971874735 0.8660254037844387 -0.2938926261462365
vn 0.8090169943749473 1.2246467991473532e-16 -0.5877852522924732
vn 0.404508497187474 -0.8660254037844385 -0.2938926261462369
vn -0.4045084971874738 -0.8660254037844386 0.2938926261462367
vn -0.8090169943749473 -2.4492935982947064e-16 0.5877852522924732
vn -1 0 1.2246467991473532e-16
vn -0.5000000000000001 0.8660254037844386 6.123233995736767e-17
vn 0.4999999999999998 0.8660254037844387 -6.123233995736764e-17
vn 1 1.2246467991473532e-16 -1.2246467991473532e-16
vn 0.5000000000000004 -0.8660254037844385 -6.123233995736771e-17
vn -0.5000000000000001 -0.8660254037844386 6.123233995736767e-17
vn -1 -2.4492935982947064e-16 1.2246467991473532e-16
vn -0.8090169943749475 0 -0.587785252292473
vn -0.40450849718747384 0.8660254037844386 -0.29389262614623657
vn 0.40450849718747356 0.8660254037844387 0.2938926261462364
vn 0.8090169943749475 1.2246467991473532e-16 0.587785252292473
vn 0.40450849718747406 -0.8660254037844385 0.2938926261462368
vn -0.40450849718747384 -0.8660254037844386 -0.29389262614623657
vn -0.8090169943749475 -2.4492935982947064e-16 -0.587785252292473
vn -0.30901699437494756 0 -0.9510565162951535
vn -0.1545084971874738 0.8660254037844386 -0.4755282581475769
vn 0.15450849718747373 0.8660254037844387 0.47552825814757654
vn 0.30901699437494756 1.2246467991473532e-16 0.9510565162951535
vn 0.15450849718747392 -0.8660254037844385 0.4755282581475772
vn -0.1545084971874738 -0.8660254037844386 -0.4755282581475769
vn -0.30901699437494756 -2.4492935982947064e-16 -0.9510565162951535
vn 0.30901699437494723 0 -0.9510565162951536
vn 0.15450849718747364 0.8660254037844386 -0.47552825814757693
vn -0.15450849718747356 0.8660254037844387 0.4755282581475766
vn -0.30901699437494723 1.2246467991473532e-16 0.9510565162951536
vn -0.15450849718747375 -0.8660254037844385 0.47552825814757727
vn 0.15450849718747364 -0.8660254037844386 -0.47552825814757693
vn 0.30901699437494723 -2.4492935982947064e-16 -0.9510565162951536
vn 0.8090169943749473 0 -0.5877852522924734
vn 0.4045084971874738 0.8660254037844386 -0.29389262614623674
vn -0.4045084971874735 0.8660254037844387 0.29389262614623657
vn -0.8090169943749473 1.2246467991473532e-16 0.5877852522924734
vn -0.404508497187474 -0.8660254037844385 0.29389262614623696
vn 0.4045084971874738 -0.8660254037844386 -0.29389262614623674
vn 0.8090169943749473 -2.4492935982947064e-16 -0.5877852522924734
vn 1 0 -2.4492935982947064e-16
vn 0.5000000000000001 0.8660254037844386 -1.2246467991473535e-16
vn -0.4999999999999998 0.8660254037844387 1.2246467991473527e-16
vn -1 1.2246467991473532e-16 2.4492935982947064e-16
vn -0.5000000000000004 -0.8660254037844385 1.2246467991473542e-16
vn 0.5000000000000001 -0.8660254037844386 -1.2246467991473535e-16
vn 1 -2.4492935982947064e-16 -2.4492935982947064e-16
vn 0 -1 0
vn 0 -1 0
vn 0 -1 0
vn 0 -1 0
vn 0 -1 0
vn 0 -1 0
vn 0 -1 0
vn 0 -1 0
vn 0 -1 0
vn 0 -1 0
vn 0 -1 0
vn 0 -1 0
vn 0 1 0
vn 0 1 0
vn 0 1 0
vn 0 1 0
vn 0 1 0
vn 0 1 0
vn 0 1 0
vn 0 1 0
vn 0 1 0
vn 0 1 0
vn 0 1 0
vn 0 1 0
vn 0 -1 0
vn 0 1 0
vn 0 1 0
vn 0 1 0
vn 0 1 0
vn 0 1 0
vn 0 1 0
vn 0 1 0
vn 0 1 0
vn 0 1 0
vn 0 1 0
vn 0 1 0
vn 0 1 0
vn 0.19509032201612825 0.9807852804032304 0
vn 0.1578313859491287 0.9807852804032304 0.11467121414606977
vn 0.06028622494106459 0.9807852804032304 0.18554192201955863
vn -0.060286224941064566 0.9807852804032304 0.18554192201955866
vn -0.15783138594912868 0.9807852804032304 0.1146712141460698
vn -0.19509032201612825 0.9807852804032304 2.3891673840167787e-17
vn -0.1578313859491287 0.9807852804032304 -0.11467121414606975
vn -0.060286224941064614 0.9807852804032304 -0.18554192201955863
vn 0.060286224941064545 0.9807852804032304 -0.18554192201955866
vn 0.15783138594912868 0.9807852804032304 -0.11467121414606982
vn 0.19509032201612825 0.9807852804032304 -4.7783347680335573e-17
vn 0.3826834323650898 0.9238795325112867 0
vn 0.30959740024909344 0.9238795325112867 0.22493567784086388
vn 0.11825568406654853 0.9238795325112867 0.3639535720290143
vn -0.11825568406654849 0.9238795325112867 0.36395357202901435
vn -0.3095974002490934 0.9238795325112867 0.2249356778408639
vn -0.3826834323650898 0.9238795325112867 4.686520405326299e-17
vn -0.30959740024909344 0.9238795325112867 -0.22493567784086385
vn -0.11825568406654857 0.9238795325112867 -0.3639535720290143
vn 0.11825568406654845 0.9238795325112867 -0.36395357202901435
vn 0.3095974002490934 0.9238795325112867 -0.22493567784086396
vn 0.3826834323650898 0.9238795325112867 -9.373040810652598e-17
vn 0.5555702330196022 0.8314696123025452 0
vn 0.44946576008170774 0.8314696123025452 0.32655598958161497
vn 0.17168064357190665 0.8314696123025452 0.5283786903729095
vn -0.1716806435719066 0.8314696123025452 0.5283786903729096
vn -0.4494657600817077 0.8314696123025452 0.326555989581615
vn -0.5555702330196022 0.8314696123025452 6.80377307569005e-17
vn -0.44946576008170774 0.8314696123025452 -0.3265559895816149
vn -0.1716806435719067 0.8314696123025452 -0.5283786903729095
vn 0.17168064357190654 0.8314696123025452 -0.5283786903729096
vn 0.4494657600817077 0.8314696123025452 -0.3265559895816151
vn 0.5555702330196022 0.8314696123025452 -1.36075461513801e-16
vn 0.7071067811865475 0.7071067811865476 0
vn 0.5720614028176843 0.7071067811865476 0.4156269377774534
vn 0.21850801222441055 0.7071067811865476 0.6724985119639573
vn -0.21850801222441046 0.7071067811865476 0.6724985119639573
vn -0.5720614028176841 0.7071067811865476 0.41562693777745346
vn -0.7071067811865475 0.7071067811865476 8.659560562354932e-17
vn -0.5720614028176843 0.7071067811865476 -0.4156269377774533
vn -0.2185080122244106 0.7071067811865476 -0.6724985119639573
vn 0.2185080122244104 0.7071067811865476 -0.6724985119639573
vn 0.5720614028176841 0.7071067811865476 -0.41562693777745363
vn 0.7071067811865475 0.7071067811865476 -1.7319121124709863e-16
vn 0.8314696123025452 0.5555702330196023 0
vn 0.672673046659108 0.5555702330196023 0.48872557584077636
vn 0.25693824050783537 0.5555702330196023 0.7907745928817406
vn -0.25693824050783526 0.5555702330196023 0.7907745928817407
vn -0.6726730466591079 0.5555702330196023 0.48872557584077647
vn -0.8314696123025452 0.5555702330196023 1.0182565992946028e-16
vn -0.672673046659108 0.5555702330196023 -0.4887255758407763
vn -0.2569382405078354 0.5555702330196023 -0.7907745928817406
vn 0.25693824050783515 0.5555702330196023 -0.7907745928817407
vn 0.6726730466591079 0.5555702330196023 -0.4887255758407766
vn 0.8314696123025452 0.5555702330196023 -2.0365131985892056e-16
vn 0.9238795325112867 0.38268343236508984 0
vn 0.7474342425568128 0.38268343236508984 0.5430427641049989
vn 0.28549447630116936 0.38268343236508984 0.8786616496665794
vn -0.28549447630116925 0.38268343236508984 0.8786616496665796
vn -0.7474342425568128 0.38268343236508984 0.543042764104999
vn -0.9238795325112867 0.38268343236508984 1.1314261122877003e-16
vn -0.7474342425568128 0.38268343236508984 -0.5430427641049987
vn -0.2854944763011695 0.38268343236508984 -0.8786616496665794
vn 0.2854944763011692 0.38268343236508984 -0.8786616496665796
vn 0.7474342425568128 0.38268343236508984 -0.543042764104999
vn 0.9238795325112867 0.38268343236508984 -2.2628522245754005e-16
vn 0.9807852804032304 0.19509032201612833 0
vn 0.7934719596790115 0.19509032201612833 0.5764911234865568
vn 0.3030793194773963 0.19509032201612833 0.9327822320138617
vn -0.3030793194773962 0.19509032201612833 0.9327822320138618
vn -0.7934719596790114 0.19509032201612833 0.5764911234865568
vn -0.9807852804032304 0.19509032201612833 1.2011155542966555e-16
vn -0.7934719596790115 0.19509032201612833 -0.5764911234865567
vn -0.3030793194773964 0.19509032201612833 -0.9327822320138617
vn 0.3030793194773961 0.19509032201612833 -0.9327822320138618
vn 0.7934719596790114 0.19509032201612833 -0.5764911234865571
vn 0.9807852804032304 0.19509032201612833 -2.402231108593311e-16
vn 1 6.123233995736766e-17 0
vn 0.8090169943749475 6.123233995736766e-17 0.5877852522924731
vn 0.30901699437494745 6.123233995736766e-17 0.9510565162951536
vn -0.3090169943749474 6.123233995736766e-17 0.9510565162951536
vn -0.8090169943749473 6.123233995736766e-17 0.5877852522924732
vn -1 6.123233995736766e-17 1.2246467991473532e-16
vn -0.8090169943749475 6.123233995736766e-17 -0.587785252292473
vn -0.30901699437494756 6.123233995736766e-17 -0.9510565162951536
vn 0.30901699437494723 6.123233995736766e-17 -0.9510565162951536
vn 0.8090169943749473 6.123233995736766e-17 -0.5877852522924734
vn 1 6.123233995736766e-17 -2.4492935982947064e-16
vn 0 -1 0
vn 0 -1 0
vn 0 -1 0
vn 0 -1 0
vn 0 -1 0
vn 0 -1 0
vn 0 -1 0
vn 0 1 0
vn 0 1 0
vn 0 1 0
vn 0 1 0
vn 0 1 0
vn 0 1 0
vn 0 -1 0
vn 0 1 0
vn 0 1 0
vn 0 1 0
vn 0 1 0
vn 0 1 0
vn 0 1 0
vn 0 1 0
vn 0 1 0
vn 0 1 0
vn 0 1 0
vn 0 1 0
vn 0 1 0
vn 0 1 0
vn 0 1 0
vn 0 1 0
vn 0 1 0
vn 0 1 0
vn 0 1 0
vn 0 1 0
vn 0 1 0
vn 0 1 0
vn 0 1 0
vn 0 1 0
vn 0 1 0
vn 0 1 0
vn 0 1 0
vn 0 1 0
vn 0 1 0
vn 0 1 0
vn 0 1 0
vn 0 1 0
vn 0 1 0
vn 0 1 0
vn 0 1 0
vn 0 1 0
vn 0 1 0
vn 0 1 0
vn 0 1 0
vn 0 1 0
vn 0 1 0
vn 0 1 0
vn 0 1 0
vn 0 1 0
vn 0 1 0
vn 0 1 0
vn 0 1 0
vn 0 1 0
vn 0 1 0
vn 0 1 0
vn 0 -1 0
vn 0 -1 0
vn 0 -1 0
vn 0 -1 0
vn 0 -1 0
vn 0 -1 0
vn 0 1 0
vn 0 1 0
vn 0 1 0
vn 0 1 0
vn 0 1 0
vn 0 1 0
vn 0 -1 0
vn 0 1 0
vn 0 -1 0
vn 0 -1 0
vn 0 -1 0
vn 0 -1 0
vn 0 -1 0
vn 0 -1 0
vn 0 1 0
vn 0 1 0
vn 0 1 0
vn 0 1 0
vn 0 1 0
vn 0 1 0
vn 0 -1 0
vn 0 1 0
vn 0 -1 0
vn 0 -1 0
vn 0 -1 0
vn 0 -1 0
vn 0 -1 0
vn 0 -1 0
vn 0 1 0
vn 0 1 0
vn 0 1 0
vn 0 1 0
vn 0 1 0
vn 0 1 0
vn 0 -1 0
vn 0 1 0
vn 0 1 0
vn 0 1 0
vn 0 1 0
vn 0 1 0
vn 0 1 0
vn 0 1 0
vn 0 1 0
vn 0 1 0
vn 0 1 0
vn 0 1 0
vn 0 1 0
vn 0 1 0
vn 0 1 0
vn 0 1 0
vn 0 1 0
vn 0 1 0
vn 0 1 0
vn 0 1 0
vn 0 1 0
vn 0 1 0
vn 0 1 0
vn 0 1 0
vn 0 1 0
vn 0 1 0
vn 0 1 0
vn 0 1 0
vn 0 1 0
vn 0 1 0
vn 0 1 0
vn 0 1 0
vn 0 1 0
vn 0 1 0
vn 0 1 0
vn 0 1 0
vn 0 1 0
vn 0 1 0
vn 0 1 0
vn 0 1 0
vn 0 1 0
vn 0 1 0
vn 0 1 0
vn 0 1 0
vn 0 1 0
vn 0 1 0
vn 0 1 0
vn 0 1 0
vn 0 1 0
vn 0 1 0
vn 0 -1 0
vn 0 -1 0
vn 0 -1 0
vn 0 -1 0
vn 0 -1 0
vn 0 -1 0
vn 0 1 0
vn 0 1 0
vn 0 1 0
vn 0 1 0
vn 0 1 0
vn 0 1 0
vn 0 -1 0
vn 0 1 0
vn 0 -1 0
vn 0 -1 0
vn 0 -1 0
vn 0 -1 0
vn 0 -1 0
vn 0 -1 0
vn 0 1 0
vn 0 1 0
vn 0 1 0
vn 0 1 0
vn 0 1 0
vn 0 1 0
vn 0 -1 0
vn 0 1 0
vn 0 -1 0
vn 0 -1 0
vn 0 -1 0
vn 0 -1 0
vn 0 -1 0
vn 0 -1 0
vn 0 1 0
vn 0 1 0
vn 0 1 0
vn 0 1 0
vn 0 1 0
vn 0 1 0
vn 0 -1 0
vn 0 1 0
vn 0 -1 0
vn 0 -1 0
vn 0 -1 0
vn 0 -1 0
vn 0 -1 0
vn 0 -1 0
vn 0 1 0
vn 0 1 0
vn 0 1 0
vn 0 1 0
vn 0 1 0
vn 0 1 0
vn 0 -1 0
vn 0 1 0
f 1/1/1 2/2/2 10/10/10
f 1/1/1 10/10/10 9/9/9
f 17/17/17 2/2/2 1/1/1
f 18/18/18 9/9/9 10/10/10
f 2/2/2 3/3/3 11/11/11
f 2/2/2 11/11/11 10/10/10
f 17/17/17 3/3/3 2/2/2
f 18/18/18 10/10/10 11/11/11
f 3/3/3 4/4/4 12/12/12
f 3/3/3 12/12/12 11/11/11
f 17/17/17 4/4/4 3/3/3
f 18/18/18 11/11/11 12/12/12
f 4/4/4 5/5/5 13/13/13
f 4/4/4 13/13/13 12/12/12
f 17/17/17 5/5/5 4/4/4
f 18/18/18 12/12/12 13/13/13
f 5/5/5 6/6/6 14/14/14
f 5/5/5 14/14/14 13/13/13
f 17/17/17 6/6/6 5/5/5
f 18/18/18 13/13/13 14/14/14
f 6/6/6 7/7/7 15/15/15
f 6/6/6 15/15/15 14/14/14
f 17/17/17 7/7/7 6/6/6
f 18/18/18 14/14/14 15/15/15
f 7/7/7 8/8/8 16/16/16
f 7/7/7 16/16/16 15/15/15
f 17/17/17 8/8/8 7/7/7
f 18/18/18 15/15/15 16/16/16
f 8/8/8 1/1/1 9/9/9
f 8/8/8 9/9/9 16/16/16
f 17/17/17 1/1/1 8/8/8
f 18/18/18 16/16/16 9/9/9
f 19/19/19 26/26/26 27/27/27
f 19/19/19 27/27/27 20/20/20
f 20/20/20 27/27/27 28/28/28
f 20/20/20 28/28/28 21/21/21
f 21/21/21 28/28/28 29/29/29
f 21/21/21 29/29/29 22/22/22
f 22/22/22 29/29/29 30/30/30
f 22/22/22 30/30/30 23/23/23
f 23/23/23 30/30/30 31/31/31
f 23/23/23 31/31/31 24/24/24
f 24/24/24 31/31/31 32/32/32
f 24/24/24 32/32/32 25/25/25
f 26/26/26 33/33/33 34/34/34
f 26/26/26 34/34/34 27/27/27
f 27/27/27 34/34/34 35/35/35
f 27/27/27 35/35/35 28/28/28
f 28/28/28 35/35/35 36/36/36
f 28/28/28 36/36/36 29/29/29
f 29/29/29 36/36/36 37/37/37
f 29/29/29 37/37/37 30/30/30
f 30/30/30 37/37/37 38/38/38
f 30/30/30 38/38/38 31/31/31
f 31/31/31 38/38/38 39/39/39
f 31/31/31 39/39/39 32/32/32
f 33/33/33 40/40/40 41/41/41
f 33/33/33 41/41/41 34/34/34
f 34/34/34 41/41/41 42/42/42
f 34/34/34 42/42/42 35/35/35
f 35/35/35 42/42/42 43/43/43
f 35/35/35 43/43/43 36/36/36
f 36/36/36 43/43/43 44/44/44
f 36/36/36 44/44/44 37/37/37
f 37/37/37 44/44/44 45/45/45
f 37/37/37 45/45/45 38/38/38
f 38/38/38 45/45/45 46/46/46
f 38/38/38 46/46/46 39/39/39
f 40/40/40 47/47/47 48/48/48
f 40/40/40 48/48/48 41/41/41
f 41/41/41 48/48/48 49/49/49
f 41/41/41 49/49/49 42/42/42
f 42/42/42 49/49/49 50/50/50
f 42/42/42 50/50/50 43/43/43
f 43/43/43 50/50/50 51/51/51
f 43/43/43 51/51/51 44/44/44
f 44/44/44 51/51/51 52/52/52
f 44/44/44 52/52/52 45/45/45
f 45/45/45 52/52/52 53/53/53
f 45/45/45 53/53/53 46/46/46
f 47/47/47 54/54/54 55/55/55
f 47/47/47 55/55/55 48/48/48
f 48/48/48 55/55/55 56/56/56
f 48/48/48 56/56/56 49/49/49
f 49/49/49 56/56/56 57/57/57
f 49/49/49 57/57/57 50/50/50
f 50/50/50 57/57/57 58/58/58
f 50/50/50 58/58/58 51/51/51
f 51/51/51 58/58/58 59/59/59
f 51/51/51 59/59/59 52/52/52
f 52/52/52 59/59/59 60/60/60
f 52/52/52 60/60/60 53/53/53
f 54/54/54 61/61/61 62/62/62
f 54/54/54 62/62/62 55/55/55
f 55/55/55 62/62/62 63/63/63
f 55/55/55 63/63/63 56/56/56
f 56/56/56 63/63/63 64/64/64
f 56/56/56 64/64/64 57/57/57
f 57/57/57 64/64/64 65/65/65
f 57/57/57 65/65/65 58/58/58
f 58/58/58 65/65/65 66/66/66
f 58/58/58 66/66/66 59/59/59
f 59/59/59 66/66/66 67/67/67
f 59/59/59 67/67/67 60/60/60
f 61/61/61 68/68/68 69/69/69
f 61/61/61 69/69/69 62/62/62
f 62/62/62 69/69/69 70/70/70
f 62/62/62 70/70/70 63/63/63
f 63/63/63 70/70/70 71/71/71
f 63/63/63 71/71/71 64/64/64
f 64/64/64 71/71/71 72/72/72
f 64/64/64 72/72/72 65/65/65
f 65/65/65 72/72/72 73/73/73
f 65/65/65 73/73/73 66/66/66
f 66/66/66 73/73/73 74/74/74
f 66/66/66 74/74/74 67/67/67
f 68/68/68 75/75/75 76/76/76
f 68/68/68 76/76/76 69/69/69
f 69/69/69 76/76/76 77/77/77
f 69/69/69 77/77/77 70/70/70
f 70/70/70 77/77/77 78/78/78
f 70/70/70 78/78/78 71/71/71
f 71/71/71 78/78/78 79/79/79
f 71/71/71 79/79/79 72/72/72
f 72/72/72 79/79/79 80/80/80
f 72/72/72 80/80/80 73/73/73
f 73/73/73 80/80/80 81/81/81
f 73/73/73 81/81/81 74/74/74
f 75/75/75 82/82/82 83/83/83
f 75/75/75 83/83/83 76/76/76
f 76/76/76 83/83/83 84/84/84
f 76/76/76 84/84/84 77/77/77
f 77/77/77 84/84/84 85/85/85
f 77/77/77 85/85/85 78/78/78
f 78/78/78 85/85/85 86/86/86
f 78/78/78 86/86/86 79/79/79
f 79/79/79 86/86/86 87/87/87
f 79/79/79 87/87/87 80/80/80
f 80/80/80 87/87/87 88/88/88
f 80/80/80 88/88/88 81/81/81
f 82/82/82 89/89/89 90/90/90
f 82/82/82 90/90/90 83/83/83
f 83/83/83 90/90/90 91/91/91
f 83/83/83 91/91/91 84/84/84
f 84/84/84 91/91/91 92/92/92
f 84/84/84 92/92/92 85/85/85
f 85/85/85 92/92/92 93/93/93
f 85/85/85 93/93/93 86/86/86
f 86/86/86 93/93/93 94/94/94
f 86/86/86 94/94/94 87/87/87
f 87/87/87 94/94/94 95/95/95
f 87/87/87 95/95/95 88/88/88
f 96/96/96 97/97/97 109/109/109
f 96/96/96 109/109/109 108/108/108
f 120/120/120 97/97/97 96/96/96
f 121/121/121 108/108/108 109/109/109
f 97/97/97 98/98/98 110/110/110
f 97/97/97 110/110/110 109/109/109
f 120/120/120 98/98/98 97/97/97
f 121/121/121 109/109/109 110/110/110
f 98/98/98 99/99/99 111/111/111
f 98/98/98 111/111/111 110/110/110
f 120/120/120 99/99/99 98/98/98
f 121/121/121 110/110/110 111/111/111
f 99/99/99 100/100/100 112/112/112
f 99/99/99 112/112/112 111/111/111
f 120/120/120 100/100/100 99/99/99
f 121/121/121 111/111/111 112/112/112
f 100/100/100 101/101/101 113/113/113
f 100/100/100 113/113/113 112/112/112
f 120/120/120 101/101/101 100/100/100
f 121/121/121 112/112/112 113/113/113
f 101/101/101 102/102/102 114/114/114
f 101/101/101 114/114/114 113/113/113
f 120/120/120 102/102/102 101/101/101
f 121/121/121 113/113/113 114/114/114
f 102/102/102 103/103/103 115/115/115
f 102/102/102 115/115/115 114/114/114
f 120/120/120 103/103/103 102/102/102
f 121/121/121 114/114/114 115/115/115
f 103/103/103 104/104/104 116/116/116
f 103/103/103 116/116/116 115/115/115
f 120/120/120 104/104/104 103/103/103
f 121/121/121 115/115/115 116/116/116
f 104/104/104 105/105/105 117/117/117
f 104/104/104 117/117/117 116/116/116
f 120/120/120 105/105/105 104/104/104
f 121/121/121 116/116/116 117/117/117
f 105/105/105 106/106/106 118/118/118
f 105/105/105 118/118/118 117/117/117
f 120/120/120 106/106/106 105/105/105
f 121/121/121 117/117/117 118/118/118
f 106/106/106 107/107/107 119/119/119
f 106/106/106 119/119/119 118/118/118
f 120/120/120 107/107/107 106/106/106
f 121/121/121 118/118/118 119/119/119
f 107/107/107 96/96/96 108/108/108
f 107/107/107 108/108/108 119/119/119
f 120/120/120 96/96/96 107/107/107
f 121/121/121 119/119/119 108/108/108
f 122/122/122 133/133/133 134/134/134
f 122/122/122 134/134/134 123/123/123
f 123/123/123 134/134/134 135/135/135
f 123/123/123 135/135/135 124/124/124
f 124/124/124 135/135/135 136/136/136
f 124/124/124 136/136/136 125/125/125
f 125/125/125 136/136/136 137/137/137
f 125/125/125 137/137/137 126/126/126
f 126/126/126 137/137/137 138/138/138
f 126/126/126 138/138/138 127/127/127
f 127/127/127 138/138/138 139/139/139
f 127/127/127 139/139/139 128/128/128
f 128/128/128 139/139/139 140/140/140
f 128/128/128 140/140/140 129/129/129
f 129/129/129 140/140/140 141/141/141
f 129/129/129 141/141/141 130/130/130
f 130/130/130 141/141/141 142/142/142
f 130/130/130 142/142/142 131/131/131
f 131/131/131 142/142/142 143/143/143
f 131/131/131 143/143/143 132/132/132
f 133/133/133 144/144/144 145/145/145
f 133/133/133 145/145/145 134/134/134
f 134/134/134 145/145/145 146/146/146
f 134/134/134 146/146/146 135/135/135
f 135/135/135 146/146/146 147/147/147
f 135/135/135 147/147/147 136/136/136
f 136/136/136 147/147/147 148/148/148
f 136/136/136 148/148/148 137/137/137
f 137/137/137 148/148/148 149/149/149
f 137/137/137 149/149/149 138/138/138
f 138/138/138 149/149/149 150/150/150
f 138/138/138 150/150/150 139/139/139
f 139/139/139 150/150/150 151/151/151
f 139/139/139 151/151/151 140/140/140
f 140/140/140 151/151/151 152/152/152
f 140/140/140 152/152/152 141/141/141
f 141/141/141 152/152/152 153/153/153
f 141/141/141 153/153/153 142/142/142
f 142/142/142 153/153/153 154/154/154
f 142/142/142 154/154/154 143/143/143
f 144/144/144 155/155/155 156/156/156
f 144/144/144 156/156/156 145/145/145
f 145/145/145 156/156/156 157/157/157
f 145/145/145 157/157/157 146/146/146
f 146/146/146 157/157/157 158/158/158
f 146/146/146 158/158/158 147/147/147
f 147/147/147 158/158/158 159/159/159
f 147/147/147 159/159/159 148/148/148
f 148/148/148 159/159/159 160/160/160
f 148/148/148 160/160/160 149/149/149
f 149/149/149 160/160/160 161/161/161
f 149/149/149 161/161/161 150/150/150
f 150/150/150 161/161/161 162/162/162
f 150/150/150 162/162/162 151/151/151
f 151/151/151 162/162/162 163/163/163
f 151/151/151 163/163/163 152/152/152
f 152/152/152 163/163/163 164/164/164
f 152/152/152 164/164/164 153/153/153
f 153/153/153 164/164/164 165/165/165
f 153/153/153 165/165/165 154/154/154
f 155/155/155 166/166/166 167/167/167
f 155/155/155 167/167/167 156/156/156
f 156/156/156 167/167/167 168/168/168
f 156/156/156 168/168/168 157/157/157
f 157/157/157 168/168/168 169/169/169
f 157/157/157 169/169/169 158/158/158
f 158/158/158 169/169/169 170/170/170
f 158/158/158 170/170/170 159/159/159
f 159/159/159 170/170/170 171/171/171
f 159/159/159 171/171/171 160/160/160
f 160/160/160 171/171/171 172/172/172
f 160/160/160 172/172/172 161/161/161
f 161/161/161 172/172/172 173/173/173
f 161/161/161 173/173/173 162/162/162
f 162/162/162 173/173/173 174/174/174
f 162/162/162 174/174/174 163/163/163
f 163/163/163 174/174/174 175/175/175
f 163/163/163 175/175/175 164/164/164
f 164/164/164 175/175/175 176/176/176
f 164/164/164 176/176/176 165/165/165
f 166/166/166 177/177/177 178/178/178
f 166/166/166 178/178/178 167/167/167
f 167/167/167 178/178/178 179/179/179
f 167/167/167 179/179/179 168/168/168
f 168/168/168 179/179/179 180/180/180
f 168/168/168 180/180/180 169/169/169
f 169/169/169 180/180/180 181/181/181
f 169/169/169 181/181/181 170/170/170
f 170/170/170 181/181/181 182/182/182
f 170/170/170 182/182/182 171/171/171
f 171/171/171 182/182/182 183/183/183
f 171/171/171 183/183/183 172/172/172
f 172/172/172 183/183/183 184/184/184
f 172/172/172 184/184/184 173/173/173
f 173/173/173 184/184/184 185/185/185
f 173/173/173 185/185/185 174/174/174
f 174/174/174 185/185/185 186/186/186
f 174/174/174 186/186/186 175/175/175
f 175/175/175 186/186/186 187/187/187
f 175/175/175 187/187/187 176/176/176
f 177/177/177 188/188/188 189/189/189
f 177/177/177 189/189/189 178/178/178
f 178/178/178 189/189/189 190/190/190
f 178/178/178 190/190/190 179/179/179
f 179/179/179 190/190/190 191/191/191
f 179/179/179 191/191/191 180/180/180
f 180/180/180 191/191/191 192/192/192
f 180/180/180 192/192/192 181/181/181
f 181/181/181 192/192/192 193/193/193
f 181/181/181 193/193/193 182/182/182
f 182/182/182 193/193/193 194/194/194
f 182/182/182 194/194/194 183/183/183
f 183/183/183 194/194/194 195/195/195
f 183/183/183 195/195/195 184/184/184
f 184/184/184 195/195/195 196/196/196
f 184/184/184 196/196/196 185/185/185
f 185/185/185 196/196/196 197/197/197
f 185/185/185 197/197/197 186/186/186
f 186/186/186 197/197/197 198/198/198
f 186/186/186 198/198/198 187/187/187
f 188/188/188 199/199/199 200/200/200
f 188/188/188 200/200/200 189/189/189
f 189/189/189 200/200/200 201/201/201
f 189/189/189 201/201/201 190/190/190
f 190/190/190 201/201/201 202/202/202
f 190/190/190 202/202/202 191/191/191
f 191/191/191 202/202/202 203/203/203
f 191/191/191 203/203/203 192/192/192
f 192/192/192 203/203/203 204/204/204
f 192/192/192 204/204/204 193/193/193
f 193/193/193 204/204/204 205/205/205
f 193/193/193 205/205/205 194/194/194
f 194/194/194 205/205/205 206/206/206
f 194/194/194 206/206/206 195/195/195
f 195/195/195 206/206/206 207/207/207
f 195/195/195 207/207/207 196/196/196
f 196/196/196 207/207/207 208/208/208
f 196/196/196 208/208/208 197/197/197
f 197/197/197 208/208/208 209/209/209
f 197/197/197 209/209/209 198/198/198
f 199/199/199 210/210/210 211/211/211
f 199/199/199 211/211/211 200/200/200
f 200/200/200 211/211/211 212/212/212
f 200/200/200 212/212/212 201/201/201
f 201/201/201 212/212/212 213/213/213
f 201/201/201 213/213/213 202/202/202
f 202/202/202 213/213/213 214/214/214
f 202/202/202 214/214/214 203/203/203
f 203/203/203 214/214/214 215/215/215
f 203/203/203 215/215/215 204/204/204
f 204/204/204 215/215/215 216/216/216
f 204/204/204 216/216/216 205/205/205
f 205/205/205 216/216/216 217/217/217
f 205/205/205 217/217/217 206/206/206
f 206/206/206 217/217/217 218/218/218
f 206/206/206 218/218/218 207/207/207
f 207/207/207 218/218/218 219/219/219
f 207/207/207 219/219/219 208/208/208
f 208/208/208 219/219/219 220/220/220
f 208/208/208 220/220/220 209/209/209
f 221/221/221 210/210/210 211/211/211
f 221/221/221 211/211/211 212/212/212
f 221/221/221 212/212/212 213/213/213
f 221/221/221 213/213/213 214/214/214
f 221/221/221 214/214/214 215/215/215
f 221/221/221 215/215/215 216/216/216
f 221/221/221 216/216/216 217/217/217
f 221/221/221 217/217/217 218/218/218
f 221/221/221 218/218/218 219/219/219
f 221/221/221 219/219/219 220/220/220
f 222/222/222 223/223/223 229/229/229
f 222/222/222 229/229/229 228/228/228
f 234/234/234 223/223/223 222/222/222
f 235/235/235 228/228/228 229/229/229
f 223/223/223 224/224/224 230/230/230
f 223/223/223 230/230/230 229/229/229
f 234/234/234 224/224/224 223/223/223
f 235/235/235 229/229/229 230/230/230
f 224/224/224 225/225/225 231/231/231
f 224/224/224 231/231/231 230/230/230
f 234/234/234 225/225/225 224/224/224
f 235/235/235 230/230/230 231/231/231
f 225/225/225 226/226/226 232/232/232
f 225/225/225 232/232/232 231/231/231
f 234/234/234 226/226/226 225/225/225
f 235/235/235 231/231/231 232/232/232
f 226/226/226 227/227/227 233/233/233
f 226/226/226 233/233/233 232/232/232
f 234/234/234 227/227/227 226/226/226
f 235/235/235 232/232/232 233/233/233
f 227/227/227 222/222/222 228/228/228
f 227/227/227 228/228/228 233/233/233
f 234/234/234 222/222/222 227/227/227
f 235/235/235 233/233/233 228/228/228
f 236/236/236 238/238/238 237/237/237
f 236/236/236 239/239/239 238/238/238
f 240/240/240 241/241/241 242/242/242
f 240/240/240 242/242/242 243/243/243
f 236/236/236 237/237/237 241/241/241
f 236/236/236 241/241/241 240/240/240
f 238/238/238 239/239/239 243/243/243
f 238/238/238 243/243/243 242/242/242
f 236/236/236 240/240/240 243/243/243
f 236/236/236 243/243/243 239/239/239
f 237/237/237 238/238/238 242/242/242
f 237/237/237 242/242/242 241/241/241
f 244/244/244 246/246/246 245/245/245
f 244/244/244 247/247/247 246/246/246
f 248/248/248 249/249/249 250/250/250
f 248/248/248 250/250/250 251/251/251
f 244/244/244 245/245/245 249/249/249
f 244/244/244 249/249/249 248/248/248
f 246/246/246 247/247/247 251/251/251
f 246/246/246 251/251/251 250/250/250
f 244/244/244 248/248/248 251/251/251
f 244/244/244 251/251/251 247/247/247
f 245/245/245 246/246/246 250/250/250
f 245/245/245 250/250/250 249/249/249
f 252/252/252 254/254/254 253/253/253
f 252/252/252 255/255/255 254/254/254
f 256/256/256 257/257/257 258/258/258
f 256/256/256 258/258/258 259/259/259
f 252/252/252 253/253/253 257/257/257
f 252/252/252 257/257/257 256/256/256
f 254/254/254 255/255/255 259/259/259
f 254/254/254 259/259/259 258/258/258
f 252/252/252 256/256/256 259/259/259
f 252/252/252 259/259/259 255/255/255
f 253/253/253 254/254/254 258/258/258
f 253/253/253 258/258/258 257/257/257
f 260/260/260 262/262/262 261/261/261
f 260/260/260 263/263/263 262/262/262
f 264/264/264 265/265/265 266/266/266
f 264/264/264 266/266/266 267/267/267
f 260/260/260 261/261/261 265/265/265
f 260/260/260 265/265/265 264/264/264
f 262/262/262 263/263/263 267/267/267
f 262/262/262 267/267/267 266/266/266
f 260/260/260 264/264/264 267/267/267
f 260/260/260 267/267/267 263/263/263
f 261/261/261 262/262/262 266/266/266
f 261/261/261 266/266/266 265/265/265
f 268/268/268 270/270/270 269/269/269
f 268/268/268 271/271/271 270/270/270
f 272/272/272 273/273/273 274/274/274
f 272/272/272 274/274/274 275/275/275
f 268/268/268 269/269/269 273/273/273
f 268/268/268 273/273/273 272/272/272
f 270/270/270 271/271/271 275/275/275
f 270/270/270 275/275/275 274/274/274
f 268/268/268 272/272/272 275/275/275
f 268/268/268 275/275/275 271/271/271
f 269/269/269 270/270/270 274/274/274
f 269/269/269 274/274/274 273/273/273
f 276/276/276 278/278/278 277/277/277
f 276/276/276 279/279/279 278/278/278
f 280/280/280 281/281/281 282/282/282
f 280/280/280 282/282/282 283/283/283
f 276/276/276 277/277/277 281/281/281
f 276/276/276 281/281/281 280/280/280
f 278/278/278 279/279/279 283/283/283
f 278/278/278 283/283/283 282/282/282
f 276/276/276 280/280/280 283/283/283
f 276/276/276 283/283/283 279/279/279
f 277/277/277 278/278/278 282/282/282
f 277/277/277 282/282/282 281/281/281
f 284/284/284 285/285/285 291/291/291
f 284/284/284 291/291/291 290/290/290
f 296/296/296 285/285/285 284/284/284
f 297/297/297 290/290/290 291/291/291
f 285/285/285 286/286/286 292/292/292
f 285/285/285 292/292/292 291/291/291
f 296/296/296 286/286/286 285/285/285
f 297/297/297 291/291/291 292/292/292
f 286/286/286 287/287/287 293/293/293
f 286/286/286 293/293/293 292/292/292
f 296/296/296 287/287/287 286/286/286
f 297/297/297 292/292/292 293/293/293
f 287/287/287 288/288/288 294/294/294
f 287/287/287 294/294/294 293/293/293
f 296/296/296 288/288/288 287/287/287
f 297/297/297 293/293/293 294/294/294
f 288/288/288 289/289/289 295/295/295
f 288/288/288 295/295/295 294/294/294
f 296/296/296 289/289/289 288/288/288
f 297/297/297 294/294/294 295/295/295
f 289/289/289 284/284/284 290/290/290
f 289/289/289 290/290/290 295/295/295
f 296/296/296 284/284/284 289/289/289
f 297/297/297 295/295/295 290/290/290
f 298/298/298 299/299/299 305/305/305
f 298/298/298 305/305/305 304/304/304
f 310/310/310 299/299/299 298/298/298
f 311/311/311 304/304/304 305/305/305
f 299/299/299 300/300/300 306/306/306
f 299/299/299 306/306/306 305/305/305
f 310/310/310 300/300/300 299/299/299
f 311/311/311 305/305/305 306/306/306
f 300/300/300 301/301/301 307/307/307
f 300/300/300 307/307/307 306/306/306
f 310/310/310 301/301/301 300/300/300
f 311/311/311 306/306/306 307/307/307
f 301/301/301 302/302/302 308/308/308
f 301/301/301 308/308/308 307/307/307
f 310/310/310 302/302/302 301/301/301
f 311/311/311 307/307/307 308/308/308
f 302/302/302 303/303/303 309/309/309
f 302/302/302 309/309/309 308/308/308
f 310/310/310 303/303/303 302/302/302
f 311/311/311 308/308/308 309/309/309
f 303/303/303 298/298/298 304/304/304
f 303/303/303 304/304/304 309/309/309
f 310/310/310 298/298/298 303/303/303
f 311/311/311 309/309/309 304/304/304
f 312/312/312 313/313/313 319/319/319
f 312/312/312 319/319/319 318/318/318
f 324/324/324 313/313/313 312/312/312
f 325/325/325 318/318/318 319/319/319
f 313/313/313 314/314/314 320/320/320
f 313/313/313 320/320/320 319/319/319
f 324/324/324 314/314/314 313/313/313
f 325/325/325 319/319/319 320/320/320
f 314/314/314 315/315/315 321/321/321
f 314/314/314 321/321/321 320/320/320
f 324/324/324 315/315/315 314/314/314
f 325/325/325 320/320/320 321/321/321
f 315/315/315 316/316/316 322/322/322
f 315/315/315 322/322/322 321/321/321
f 324/324/324 316/316/316 315/315/315
f 325/325/325 321/321/321 322/322/322
f 316/316/316 317/317/317 323/323/323
f 316/316/316 323/323/323 322/322/322
f 324/324/324 317/317/317 316/316/316
f 325/325/325 322/322/322 323/323/323
f 317/317/317 312/312/312 318/318/318
f 317/317/317 318/318/318 323/323/323
f 324/324/324 312/312/312 317/317/317
f 325/325/325 323/323/323 318/318/318
f 326/326/326 328/328/328 327/327/327
f 326/326/326 329/329/329 328/328/328
f 330/330/330 331/331/331 332/332/332
f 330/330/330 332/332/332 333/333/333
f 326/326/326 327/327/327 331/331/331
f 326/326/326 331/331/331 330/330/330
f 328/328/328 329/329/329 333/333/333
f 328/328/328 333/333/333 332/332/332
f 326/326/326 330/330/330 333/333/333
f 326/326/326 333/333/333 329/329/329
f 327/327/327 328/328/328 332/332/332
f 327/327/327 332/332/332 331/331/331
f 334/334/334 336/336/336 335/335/335
f 334/334/334 337/337/337 336/336/336
f 338/338/338 339/339/339 340/340/340
f 338/338/338 340/340/340 341/341/341
f 334/334/334 335/335/335 339/339/339
f 334/334/334 339/339/339 338/338/338
f 336/336/336 337/337/337 341/341/341
f 336/336/336 341/341/341 340/340/340
f 334/334/334 338/338/338 341/341/341
f 334/334/334 341/341/341 337/337/337
f 335/335/335 336/336/336 340/340/340
f 335/335/335 340/340/340 339/339/339
f 342/342/342 344/344/344 343/343/343
f 342/342/342 345/345/345 344/344/344
f 346/346/346 347/347/347 348/348/348
f 346/346/346 348/348/348 349/349/349
f 342/342/342 343/343/343 347/347/347
f 342/342/342 347/347/347 346/346/346
f 344/344/344 345/345/345 349/349/349
f 344/344/344 349/349/349 348/348/348
f 342/342/342 346/346/346 349/349/349
f 342/342/342 349/349/349 345/345/345
f 343/343/343 344/344/344 348/348/348
f 343/343/343 348/348/348 347/347/347
f 350/350/350 352/352/352 351/351/351
f 350/350/350 353/353/353 352/352/352
f 354/354/354 355/355/355 356/356/356
f 354/354/354 356/356/356 357/357/357
f 350/350/350 351/351/351 355/355/355
f 350/350/350 355/355/355 354/354/354
f 352/352/352 353/353/353 357/357/357
f 352/352/352 357/357/357 356/356/356
f 350/350/350 354/354/354 357/357/357
f 350/350/350 357/357/357 353/353/353
f 351/351/351 352/352/352 356/356/356
f 351/351/351 356/356/356 355/355/355
f 358/358/358 360/360/360 359/359/359
f 358/358/358 361/361/361 360/360/360
f 362/362/362 363/363/363 364/364/364
f 362/362/362 364/364/364 365/365/365
f 358/358/358 359/359/359 363/363/363
f 358/358/358 363/363/363 362/362/362
f 360/360/360 361/361/361 365/365/365
f 360/360/360 365/365/365 364/364/364
f 358/358/358 362/362/362 365/365/365
f 358/358/358 365/365/365 361/361/361
f 359/359/359 360/360/360 364/364/364
f 359/359/359 364/364/364 363/363/363
f 366/366/366 368/368/368 367/367/367
f 366/366/366 369/369/369 368/368/368
f 370/370/370 371/371/371 372/372/372
f 370/370/370 372/372/372 373/373/373
f 366/366/366 367/367/367 371/371/371
f 366/366/366 371/371/371 370/370/370
f 368/368/368 369/369/369 373/373/373
f 368/368/368 373/373/373 372/372/372
f 366/366/366 370/370/370 373/373/373
f 366/366/366 373/373/373 369/369/369
f 367/367/367 368/368/368 372/372/372
f 367/367/367 372/372/372 371/371/371
f 374/374/374 375/375/375 381/381/381
f 374/374/374 381/381/381 380/380/380
f 386/386/386 375/375/375 374/374/374
f 387/387/387 380/380/380 381/381/381
f 375/375/375 376/376/376 382/382/382
f 375/375/375 382/382/382 381/381/381
f 386/386/386 376/376/376 375/375/375
f 387/387/387 381/381/381 382/382/382
f 376/376/376 377/377/377 383/383/383
f 376/376/376 383/383/383 382/382/382
f 386/386/386 377/377/377 376/376/376
f 387/387/387 382/382/382 383/383/383
f 377/377/377 378/378/378 384/384/384
f 377/377/377 384/384/384 383/383/383
f 386/386/386 378/378/378 377/377/377
f 387/387/387 383/383/383 384/384/384
f 378/378/378 379/379/379 385/385/385
f 378/378/378 385/385/385 384/384/384
f 386/386/386 379/379/379 378/378/378
f 387/387/387 384/384/384 385/385/385
f 379/379/379 374/374/374 380/380/380
f 379/379/379 380/380/380 385/385/385
f 386/386/386 374/374/374 379/379/379
f 387/387/387 385/385/385 380/380/380
f 388/388/388 389/389/389 395/395/395
f 388/388/388 395/395/395 394/394/394
f 400/400/400 389/389/389 388/388/388
f 401/401/401 394/394/394 395/395/395
f 389/389/389 390/390/390 396/396/396
f 389/389/389 396/396/396 395/395/395
f 400/400/400 390/390/390 389/389/389
f 401/401/401 395/395/395 396/396/396
f 390/390/390 391/391/391 397/397/397
f 390/390/390 397/397/397 396/396/396
f 400/400/400 391/391/391 390/390/390
f 401/401/401 396/396/396 397/397/397
f 391/391/391 392/392/392 398/398/398
f 391/391/391 398/398/398 397/397/397
f 400/400/400 392/392/392 391/391/391
f 401/401/401 397/397/397 398/398/398
f 392/392/392 393/393/393 399/399/399
f 392/392/392 399/399/399 398/398/398
f 400/400/400 393/393/393 392/392/392
f 401/401/401 398/398/398 399/399/399
f 393/393/393 388/388/388 394/394/394
f 393/393/393 394/394/394 399/399/399
f 400/400/400 388/388/388 393/393/393
f 401/401/401 399/399/399 394/394/394
f 402/402/402 403/403/403 409/409/409
f 402/402/402 409/409/409 408/408/408
f 414/414/414 403/403/403 402/402/402
f 415/415/415 408/408/408 409/409/409
f 403/403/403 404/404/404 410/410/410
f 403/403/403 410/410/410 409/409/409
f 414/414/414 404/404/404 403/403/403
f 415/415/415 409/409/409 410/410/410
f 404/404/404 405/405/405 411/411/411
f 404/404/404 411/411/411 410/410/410
f 414/414/414 405/405/405 404/404/404
f 415/415/415 410/410/410 411/411/411
f 405/405/405 406/406/406 412/412/412
f 405/405/405 412/412/412 411/411/411
f 414/414/414 406/406/406 405/405/405
f 415/415/415 411/411/411 412/412/412
f 406/406/406 407/407/407 413/413/413
f 406/406/406 413/413/413 412/412/412
f 414/414/414 407/407/407 406/406/406
f 415/415/415 412/412/412 413/413/413
f 407/407/407 402/402/402 408/408/408
f 407/407/407 408/408/408 413/413/413
f 414/414/414 402/402/402 407/407/407
f 415/415/415 413/413/413 408/408/408
f 416/416/416 417/417/417 423/423/423
f 416/416/416 423/423/423 422/422/422
f 428/428/428 417/417/417 416/416/416
f 429/429/429 422/422/422 423/423/423
f 417/417/417 418/418/418 424/424/424
f 417/417/417 424/424/424 423/423/423
f 428/428/428 418/418/418 417/417/417
f 429/429/429 423/423/423 424/424/424
f 418/418/418 419/419/419 425/425/425
f 418/418/418 425/425/425 424/424/424
f 428/428/428 419/419/419 418/418/418
f 429/429/429 424/424/424 425/425/425
f 419/419/419 420/420/420 426/426/426
f 419/419/419 426/426/426 425/425/425
f 428/428/428 420/420/420 419/419/419
f 429/429/429 425/425/425 426/426/426
f 420/420/420 421/421/421 427/427/427
f 420/420/420 427/427/427 426/426/426
f 428/428/428 421/421/421 420/420/420
f 429/429/429 426/426/426 427/427/427
f 421/421/421 416/416/416 422/422/422
f 421/421/421 422/422/422 427/427/427
f 428/428/428 416/416/416 421/421/421
f 429/429/429 427/427/427 422/422/422