# 3D Model: tree/canopy/ADEY1909 (1)
# Style: broadleaf_camphor_oak | Symmetry: asymmetric
# Dimensions: 18.036 x 22.057 x 15.884 m
# Triangles: 960 | Vertices: 611
v 1.7135 0 0
v 1.3862 0 1.0072
v 0.5295 0 1.6296
v -0.5295 0 1.6296
v -1.3862 0 1.0072
v -1.7135 0 0
v -1.3862 0 -1.0072
v -0.5295 0 -1.6296
v 0.5295 0 -1.6296
v 1.3862 0 -1.0072
v 0.9519 8.5668 0
v 0.7701 8.5668 0.5595
v 0.2942 8.5668 0.9054
v -0.2942 8.5668 0.9054
v -0.7701 8.5668 0.5595
v -0.9519 8.5668 0
v -0.7701 8.5668 -0.5595
v -0.2942 8.5668 -0.9054
v 0.2942 8.5668 -0.9054
v 0.7701 8.5668 -0.5595
v 0 0 0
v 0 8.5668 0
v 2.85 0.0428 1.1083
v 0.842 0.0428 1.4118
v 0.5385 0.0428 -0.5962
v 2.5465 0.0428 -0.8997
v 1.8365 4.7546 0.361
v 1.5893 4.7546 0.3983
v 1.552 4.7546 0.1511
v 1.7992 4.7546 0.1138
v 1.6943 0.0428 0.2561
v 1.6943 4.7546 0.2561
v 1.4477 0.0428 0.8546
v 1.1158 0.0428 2.8582
v -0.8877 0.0428 2.5263
v -0.5558 0.0428 0.5228
v 0.4238 4.7546 1.5876
v 0.3829 4.7546 1.8342
v 0.1363 4.7546 1.7934
v 0.1771 4.7546 1.5467
v 0.28 0.0428 1.6905
v 0.28 4.7546 1.6905
v -1.9553 0.0428 -0.5801
v -0.1524 0.0428 0.3546
v -1.0871 0.0428 2.1575
v -2.89 0.0428 1.2228
v -1.5746 4.7546 0.6202
v -1.3527 4.7546 0.7353
v -1.4678 4.7546 0.9572
v -1.6897 4.7546 0.8421
v -1.5212 0.0428 0.7887
v -1.5212 4.7546 0.7887
v -2.6561 0.0428 -1.2132
v -1.21 0.0428 -2.639
v 0.2158 0.0428 -1.1928
v -1.2303 0.0428 0.2329
v -1.3969 4.7546 -1.2043
v -1.2189 4.7546 -1.3798
v -1.0434 4.7546 -1.2018
v -1.2214 4.7546 -1.0262
v -1.2202 0.0428 -1.203
v -1.2202 4.7546 -1.203
v 0.3137 0.0428 -0.1697
v -0.5955 0.0428 -1.9856
v 1.2205 0.0428 -2.8947
v 2.1296 0.0428 -1.0788
v 0.7113 4.7546 -1.3645
v 0.5993 4.7546 -1.588
v 0.8229 4.7546 -1.6999
v 0.9348 4.7546 -1.4764
v 0.7671 0.0428 -1.5322
v 0.7671 4.7546 -1.5322
v 3.048 11.5572 -0.009
v 3.048 11.5572 -0.009
v 3.048 11.5572 -0.009
v 3.048 11.5572 -0.009
v 3.048 11.5572 -0.009
v 3.048 11.5572 -0.009
v 3.048 11.5572 -0.009
v 3.048 11.5572 -0.009
v 3.048 11.5572 -0.009
v 3.048 11.5572 -0.009
v 3.048 11.5572 -0.009
v 5.7192 11.2448 0.066
v 5.1794 11.1687 1.2517
v 3.8422 11.0397 1.9505
v 2.2181 10.9072 1.8955
v 0.9277 10.8218 1.1076
v 0.4637 10.816 -0.1121
v 1.0034 10.8922 -1.2978
v 2.3407 11.0211 -1.9966
v 3.9647 11.1536 -1.9416
v 5.2552 11.2391 -1.1538
v 5.7192 11.2448 0.066
v 7.7615 9.9625 0.0928
v 6.8267 9.8306 2.1465
v 4.5104 9.6073 3.3569
v 1.6975 9.3778 3.2616
v -0.5376 9.2298 1.897
v -1.3412 9.2198 -0.2157
v -0.4064 9.3517 -2.2694
v 1.9098 9.5751 -3.4798
v 4.7228 9.8045 -3.3845
v 6.9579 9.9525 -2.0199
v 7.7615 9.9625 0.0928
v 8.6278 8.0539 0.0642
v 7.5483 7.9016 2.4356
v 4.8738 7.6437 3.8333
v 1.6257 7.3787 3.7232
v -0.9552 7.2078 2.1475
v -1.8831 7.1963 -0.2919
v -0.8037 7.3486 -2.6634
v 1.8709 7.6065 -4.061
v 5.1189 7.8715 -3.951
v 7.6998 8.0424 -2.3753
v 8.6278 8.0539 0.0642
v 8.0859 6.0304 -0.0121
v 7.151 5.8985 2.0416
v 4.8348 5.6752 3.252
v 2.0219 5.4457 3.1567
v -0.2132 5.2977 1.7921
v -1.0169 5.2877 -0.3205
v -0.082 5.4196 -2.3742
v 2.2342 5.6429 -3.5846
v 5.0471 5.8724 -3.4893
v 7.2822 6.0204 -2.1247
v 8.0859 6.0304 -0.0121
v 6.281 4.4342 -0.1157
v 5.7412 4.358 1.0701
v 4.404 4.2291 1.7689
v 2.7799 4.0966 1.7139
v 1.4895 4.0112 0.926
v 1.0255 4.0054 -0.2937
v 1.5652 4.0816 -1.4794
v 2.9025 4.2105 -2.1783
v 4.5265 4.343 -2.1232
v 5.817 4.4284 -1.3354
v 6.281 4.4342 -0.1157
v 3.6967 3.693 -0.2187
v 3.6967 3.693 -0.2187
v 3.6967 3.693 -0.2187
v 3.6967 3.693 -0.2187
v 3.6967 3.693 -0.2187
v 3.6967 3.693 -0.2187
v 3.6967 3.693 -0.2187
v 3.6967 3.693 -0.2187
v 3.6967 3.693 -0.2187
v 3.6967 3.693 -0.2187
v 3.6967 3.693 -0.2187
v 2.4425 14.047 2.8297
v 2.4425 14.047 2.8297
v 2.4425 14.047 2.8297
v 2.4425 14.047 2.8297
v 2.4425 14.047 2.8297
v 2.4425 14.047 2.8297
v 2.4425 14.047 2.8297
v 2.4425 14.047 2.8297
v 2.4425 14.047 2.8297
v 2.4425 14.047 2.8297
v 2.4425 14.047 2.8297
v 4.183 13.4881 0.9536
v 4.8626 13.4719 2.2466
v 4.6223 13.4335 3.7568
v 3.554 13.3877 4.9076
v 2.0656 13.3519 5.2592
v 0.7257 13.3398 4.6775
v 0.0461 13.3561 3.3845
v 0.2864 13.3944 1.8742
v 1.3548 13.4403 0.7235
v 2.8431 13.4761 0.3718
v 4.183 13.4881 0.9536
v 5.4809 11.8128 -0.4482
v 6.658 11.7847 1.7912
v 6.2418 11.7182 4.4071
v 4.3914 11.6388 6.4003
v 1.8134 11.5768 7.0094
v -0.5073 11.5559 6.0017
v -1.6844 11.5841 3.7622
v -1.2682 11.6505 1.1463
v 0.5822 11.7299 -0.8468
v 3.1602 11.7919 -1.4559
v 5.4809 11.8128 -0.4482
v 5.9884 9.47 -1.0001
v 7.3476 9.4375 1.5858
v 6.867 9.3608 4.6064
v 4.7303 9.2691 6.9079
v 1.7535 9.1975 7.6112
v -0.9262 9.1734 6.4476
v -2.2854 9.2059 3.8617
v -1.8048 9.2826 0.8411
v 0.3319 9.3743 -1.4603
v 3.3086 9.4459 -2.1636
v 5.9884 9.47 -1.0001
v 5.5695 7.0875 -0.5542
v 6.7466 7.0593 1.6853
v 6.3304 6.9929 4.3012
v 4.4799 6.9135 6.2943
v 1.902 6.8515 6.9034
v -0.4187 6.8306 5.8957
v -1.5958 6.8587 3.6563
v -1.1796 6.9252 1.0404
v 0.6708 7.0046 -0.9528
v 3.2488 7.0666 -1.5618
v 5.5695 7.0875 -0.5542
v 4.3365 5.3036 0.77
v 5.016 5.2874 2.063
v 4.7758 5.249 3.5733
v 3.7074 5.2031 4.724
v 2.219 5.1674 5.0757
v 0.8792 5.1553 4.4939
v 0.1996 5.1715 3.201
v 0.4399 5.2099 1.6907
v 1.5082 5.2558 0.5399
v 2.9966 5.2915 0.1883
v 4.3365 5.3036 0.77
v 2.6197 4.5964 2.6178
v 2.6197 4.5964 2.6178
v 2.6197 4.5964 2.6178
v 2.6197 4.5964 2.6178
v 2.6197 4.5964 2.6178
v 2.6197 4.5964 2.6178
v 2.6197 4.5964 2.6178
v 2.6197 4.5964 2.6178
v 2.6197 4.5964 2.6178
v 2.6197 4.5964 2.6178
v 2.6197 4.5964 2.6178
v -0.8926 16.3517 3.4202
v -0.8926 16.3517 3.4202
v -0.8926 16.3517 3.4202
v -0.8926 16.3517 3.4202
v -0.8926 16.3517 3.4202
v -0.8926 16.3517 3.4202
v -0.8926 16.3517 3.4202
v -0.8926 16.3517 3.4202
v -0.8926 16.3517 3.4202
v -0.8926 16.3517 3.4202
v -0.8926 16.3517 3.4202
v -1.3926 15.6458 0.9984
v -0.2367 15.6791 1.2313
v 0.6771 15.6964 2.2974
v 0.9998 15.691 3.7895
v 0.6081 15.665 5.1378
v -0.3484 15.6284 5.8272
v -1.5043 15.5951 5.5944
v -2.4181 15.5779 4.5283
v -2.7408 15.5832 3.0361
v -2.3491 15.6092 1.6878
v -1.3926 15.6458 0.9984
v -1.7146 13.7001 -0.7891
v 0.2875 13.7578 -0.3858
v 1.8703 13.7877 1.4607
v 2.4293 13.7783 4.0452
v 1.7508 13.7333 6.3805
v 0.0941 13.6699 7.5746
v -1.908 13.6122 7.1713
v -3.4908 13.5823 5.3248
v -4.0497 13.5917 2.7403
v -3.3713 13.6366 0.405
v -1.7146 13.7001 -0.7891
v -1.7721 11.0358 -1.4635
v 0.5397 11.1024 -0.9978
v 2.3674 11.1369 1.1344
v 3.0128 11.1261 4.1187
v 2.2294 11.0741 6.8153
v 0.3164 11.0009 8.1941
v -1.9955 10.9343 7.7284
v -3.8231 10.8998 5.5962
v -4.4685 10.9106 2.6119
v -3.6851 10.9625 -0.0847
v -1.7721 11.0358 -1.4635
v -1.5499 8.3667 -0.844
v 0.4522 8.4244 -0.4407
v 2.035 8.4543 1.4058
v 2.594 8.445 3.9904
v 1.9155 8.4 6.3257
v 0.2588 8.3366 7.5197
v -1.7433 8.2789 7.1165
v -3.3261 8.249 5.2699
v -3.885 8.2583 2.6854
v -3.2065 8.3033 0.3501
v -1.5499 8.3667 -0.844
v -1.1074 6.4082 0.9034
v 0.0486 6.4415 1.1362
v 0.9624 6.4588 2.2023
v 1.2851 6.4534 3.6945
v 0.8934 6.4274 5.0428
v -0.0631 6.3908 5.7322
v -1.219 6.3575 5.4993
v -2.1329 6.3402 4.4332
v -2.4555 6.3456 2.9411
v -2.0638 6.3716 1.5928
v -1.1074 6.4082 0.9034
v -0.5632 5.685 3.3104
v -0.5632 5.685 3.3104
v -0.5632 5.685 3.3104
v -0.5632 5.685 3.3104
v -0.5632 5.685 3.3104
v -0.5632 5.685 3.3104
v -0.5632 5.685 3.3104
v -0.5632 5.685 3.3104
v -0.5632 5.685 3.3104
v -0.5632 5.685 3.3104
v -0.5632 5.685 3.3104
v -4.238 16.8728 1.1204
v -4.238 16.8728 1.1204
v -4.238 16.8728 1.1204
v -4.238 16.8728 1.1204
v -4.238 16.8728 1.1204
v -4.238 16.8728 1.1204
v -4.238 16.8728 1.1204
v -4.238 16.8728 1.1204
v -4.238 16.8728 1.1204
v -4.238 16.8728 1.1204
v -4.238 16.8728 1.1204
v -6.8498 16.2218 0.2992
v -5.9589 16.1798 -0.7316
v -4.4069 16.1897 -1.043
v -2.7867 16.2478 -0.5163
v -1.717 16.3319 0.6476
v -1.6065 16.4097 2.0039
v -2.4974 16.4517 3.0347
v -4.0494 16.4418 3.3461
v -5.6696 16.3837 2.8193
v -6.7393 16.2997 1.6555
v -6.8498 16.2218 0.2992
v -8.7421 14.6311 -0.2396
v -7.1991 14.5584 -2.0249
v -4.511 14.5756 -2.5644
v -1.7046 14.6762 -1.652
v 0.1481 14.8217 0.3638
v 0.3395 14.9566 2.7131
v -1.2035 15.0294 4.4984
v -3.8916 15.0121 5.0379
v -6.698 14.9116 4.1255
v -8.5508 14.766 2.1096
v -8.7421 14.6311 -0.2396
v -9.4079 12.527 -0.3516
v -7.6262 12.443 -2.4131
v -4.5222 12.4629 -3.036
v -1.2817 12.579 -1.9824
v 0.8577 12.7471 0.3452
v 1.0787 12.9029 3.0579
v -0.7031 12.9869 5.1194
v -3.807 12.967 5.7423
v -7.0476 12.8508 4.6887
v -9.1869 12.6828 2.3611
v -9.4079 12.527 -0.3516
v -8.6688 10.4732 -0.0068
v -7.1257 10.4005 -1.7921
v -4.4376 10.4177 -2.3316
v -1.6312 10.5183 -1.4192
v 0.2215 10.6638 0.5966
v 0.4129 10.7987 2.9459
v -1.1302 10.8715 4.7312
v -3.8183 10.8543 5.2707
v -6.6247 10.7537 4.3582
v -8.4774 10.6081 2.3424
v -8.6688 10.4732 -0.0068
v -6.7228 9.0201 0.7024
v -5.8319 8.9781 -0.3284
v -4.2799 8.9881 -0.6398
v -2.6596 9.0461 -0.1131
v -1.5899 9.1302 1.0508
v -1.4794 9.2081 2.4071
v -2.3703 9.2501 3.4379
v -3.9223 9.2401 3.7493
v -5.5426 9.182 3.2225
v -6.6123 9.098 2.0587
v -6.7228 9.0201 0.7024
v -4.0913 8.557 1.5859
v -4.0913 8.557 1.5859
v -4.0913 8.557 1.5859
v -4.0913 8.557 1.5859
v -4.0913 8.557 1.5859
v -4.0913 8.557 1.5859
v -4.0913 8.557 1.5859
v -4.0913 8.557 1.5859
v -4.0913 8.557 1.5859
v -4.0913 8.557 1.5859
v -4.0913 8.557 1.5859
v -2.6954 20.076 -1.7839
v -2.6954 20.076 -1.7839
v -2.6954 20.076 -1.7839
v -2.6954 20.076 -1.7839
v -2.6954 20.076 -1.7839
v -2.6954 20.076 -1.7839
v -2.6954 20.076 -1.7839
v -2.6954 20.076 -1.7839
v -2.6954 20.076 -1.7839
v -2.6954 20.076 -1.7839
v -2.6954 20.076 -1.7839
v -4.5584 19.395 -0.6643
v -4.8301 19.4146 -1.8911
v -4.2999 19.397 -3.0786
v -3.1702 19.3488 -3.7732
v -1.8725 19.2886 -3.7097
v -0.9025 19.2392 -2.9122
v -0.6307 19.2196 -1.6854
v -1.161 19.2373 -0.4979
v -2.2907 19.2854 0.1968
v -3.5884 19.3457 0.1332
v -4.5584 19.395 -0.6643
v -5.9922 17.3787 0.1466
v -6.4629 17.4127 -1.9783
v -5.5445 17.3821 -4.0351
v -3.5878 17.2987 -5.2383
v -1.3401 17.1943 -5.1282
v 0.34 17.1089 -3.7469
v 0.8107 17.0749 -1.6221
v -0.1077 17.1054 0.4348
v -2.0645 17.1888 1.638
v -4.3121 17.2932 1.5279
v -5.9922 17.3787 0.1466
v -6.6127 14.5673 0.4315
v -7.1563 14.6065 -2.0221
v -6.0958 14.5713 -4.3972
v -3.8363 14.475 -5.7865
v -1.241 14.3545 -5.6594
v 0.699 14.2557 -4.0644
v 1.2426 14.2165 -1.6108
v 0.1821 14.2518 0.7643
v -2.0773 14.3481 2.1536
v -4.6727 14.4686 2.0264
v -6.6127 14.5673 0.4315
v -6.2536 11.7142 0.114
v -6.7244 11.7482 -2.0109
v -5.806 11.7176 -4.0677
v -3.8492 11.6342 -5.2709
v -1.6016 11.5299 -5.1608
v 0.0785 11.4444 -3.7796
v 0.5492 11.4104 -1.6547
v -0.3692 11.441 0.4022
v -2.3259 11.5243 1.6054
v -4.5736 11.6287 1.4953
v -6.2536 11.7142 0.114
v -5.0112 9.5838 -0.7207
v -5.283 9.6034 -1.9475
v -4.7527 9.5858 -3.1351
v -3.623 9.5377 -3.8297
v -2.3253 9.4774 -3.7662
v -1.3553 9.428 -2.9687
v -1.0835 9.4084 -1.7419
v -1.6138 9.4261 -0.5544
v -2.7435 9.4742 0.1403
v -4.0412 9.5345 0.0767
v -5.0112 9.5838 -0.7207
v -3.2183 8.747 -1.8491
v -3.2183 8.747 -1.8491
v -3.2183 8.747 -1.8491
v -3.2183 8.747 -1.8491
v -3.2183 8.747 -1.8491
v -3.2183 8.747 -1.8491
v -3.2183 8.747 -1.8491
v -3.2183 8.747 -1.8491
v -3.2183 8.747 -1.8491
v -3.2183 8.747 -1.8491
v -3.2183 8.747 -1.8491
v -0.4222 20.5626 -2.2217
v -0.4222 20.5626 -2.2217
v -0.4222 20.5626 -2.2217
v -0.4222 20.5626 -2.2217
v -0.4222 20.5626 -2.2217
v -0.4222 20.5626 -2.2217
v -0.4222 20.5626 -2.2217
v -0.4222 20.5626 -2.2217
v -0.4222 20.5626 -2.2217
v -0.4222 20.5626 -2.2217
v -0.4222 20.5626 -2.2217
v -1.2108 20.0206 0.5359
v -2.0212 20.0477 -0.2559
v -2.2303 20.0436 -1.7966
v -1.7582 20.0098 -3.4979
v -0.7854 19.9591 -4.7097
v 0.3167 19.9111 -4.9694
v 1.1271 19.8839 -4.1776
v 1.3362 19.888 -2.6368
v 0.8642 19.9219 -0.9356
v -0.1087 19.9725 0.2763
v -1.2108 20.0206 0.5359
v -1.8378 18.4302 2.5645
v -3.2414 18.4772 1.1931
v -3.6036 18.4701 -1.4755
v -2.786 18.4115 -4.4221
v -1.101 18.3238 -6.5211
v 0.8079 18.2405 -6.9708
v 2.2115 18.1935 -5.5994
v 2.5737 18.2007 -2.9308
v 1.7561 18.2593 0.0158
v 0.0711 18.3469 2.1148
v -1.8378 18.4302 2.5645
v -2.1352 16.2176 3.3207
v -3.756 16.272 1.7371
v -4.1742 16.2637 -1.3444
v -3.2301 16.196 -4.7468
v -1.2844 16.0948 -7.1706
v 0.9198 15.9986 -7.6898
v 2.5406 15.9443 -6.1063
v 2.9588 15.9526 -3.0248
v 2.0147 16.0203 0.3777
v 0.069 16.1215 2.8014
v -2.1352 16.2176 3.3207
v -2.0234 13.9757 2.6017
v -3.427 14.0228 1.2303
v -3.7891 14.0156 -1.4384
v -2.9715 13.957 -4.385
v -1.2865 13.8693 -6.484
v 0.6224 13.7861 -6.9337
v 2.026 13.739 -5.5623
v 2.3882 13.7462 -2.8936
v 1.5706 13.8048 0.0529
v -0.1145 13.8925 2.152
v -2.0234 13.9757 2.6017
v -1.5321 12.3052 0.6002
v -2.3425 12.3324 -0.1916
v -2.5516 12.3282 -1.7323
v -2.0796 12.2944 -3.4336
v -1.1067 12.2438 -4.6454
v -0.0046 12.1957 -4.9051
v 0.8057 12.1686 -4.1133
v 1.0149 12.1727 -2.5725
v 0.5428 12.2065 -0.8713
v -0.43 12.2571 0.3406
v -1.5321 12.3052 0.6002
v -0.7932 11.6537 -2.1475
v -0.7932 11.6537 -2.1475
v -0.7932 11.6537 -2.1475
v -0.7932 11.6537 -2.1475
v -0.7932 11.6537 -2.1475
v -0.7932 11.6537 -2.1475
v -0.7932 11.6537 -2.1475
v -0.7932 11.6537 -2.1475
v -0.7932 11.6537 -2.1475
v -0.7932 11.6537 -2.1475
v -0.7932 11.6537 -2.1475
v 1.1043 22.0569 -2.0598
v 1.1043 22.0569 -2.0598
v 1.1043 22.0569 -2.0598
v 1.1043 22.0569 -2.0598
v 1.1043 22.0569 -2.0598
v 1.1043 22.0569 -2.0598
v 1.1043 22.0569 -2.0598
v 1.1043 22.0569 -2.0598
v 1.1043 22.0569 -2.0598
v 1.1043 22.0569 -2.0598
v 1.1043 22.0569 -2.0598
v 2.3044 21.4722 -0.1948
v 1.081 21.3767 0.0572
v -0.1187 21.3233 -0.5102
v -0.8365 21.3326 -1.6803
v -0.7982 21.4009 -3.0061
v -0.0184 21.5023 -3.9813
v 1.205 21.5978 -4.2334
v 2.4047 21.6512 -3.666
v 3.1225 21.6419 -2.4959
v 3.0841 21.5735 -1.1701
v 2.3044 21.4722 -0.1948
v 3.2603 19.9048 1.1139
v 1.1413 19.7393 1.5505
v -0.9367 19.6469 0.5678
v -2.1799 19.663 -1.4589
v -2.1135 19.7814 -3.7554
v -0.7629 19.9568 -5.4445
v 1.356 20.1224 -5.881
v 3.434 20.2148 -4.8983
v 4.6772 20.1987 -2.8716
v 4.6109 20.0803 -0.5752
v 3.2603 19.9048 1.1139
v 3.7158 17.7747 1.5158
v 1.2691 17.5836 2.0199
v -1.1304 17.4769 0.8851
v -2.5659 17.4955 -1.455
v -2.4893 17.6321 -4.1068
v -0.9297 17.8348 -6.0572
v 1.517 18.0259 -6.5613
v 3.9165 18.1326 -5.4265
v 5.352 18.114 -3.0863
v 5.2754 17.9773 -0.4346
v 3.7158 17.7747 1.5158
v 3.549 15.6527 0.9031
v 1.4301 15.4871 1.3396
v -0.6479 15.3947 0.3569
v -1.8911 15.4108 -1.6697
v -1.8248 15.5292 -3.9662
v -0.4742 15.7047 -5.6553
v 1.6448 15.8702 -6.0919
v 3.7228 15.9626 -5.1091
v 4.966 15.9465 -3.0825
v 4.8996 15.8281 -0.786
v 3.549 15.6527 0.9031
v 2.8045 14.1072 -0.56
v 1.5811 14.0117 -0.308
v 0.3814 13.9583 -0.8754
v -0.3364 13.9676 -2.0455
v -0.298 14.0359 -3.3713
v 0.4817 14.1373 -4.3465
v 1.7051 14.2328 -4.5986
v 2.9048 14.2862 -4.0312
v 3.6226 14.2769 -2.8611
v 3.5843 14.2086 -1.5353
v 2.8045 14.1072 -0.56
v 1.6818 13.5526 -2.4815
v 1.6818 13.5526 -2.4815
v 1.6818 13.5526 -2.4815
v 1.6818 13.5526 -2.4815
v 1.6818 13.5526 -2.4815
v 1.6818 13.5526 -2.4815
v 1.6818 13.5526 -2.4815
v 1.6818 13.5526 -2.4815
v 1.6818 13.5526 -2.4815
v 1.6818 13.5526 -2.4815
v 1.6818 13.5526 -2.4815
vt 0 0
vt 0.1 0
vt 0.2 0
vt 0.3 0
vt 0.4 0
vt 0.5 0
vt 0.6 0
vt 0.7 0
vt 0.8 0
vt 0.9 0
vt 0 1
vt 0.1 1
vt 0.2 1
vt 0.3 1
vt 0.4 1
vt 0.5 1
vt 0.6 1
vt 0.7 1
vt 0.8 1
vt 0.9 1
vt 0.5 0.5
vt 0.5 0.5
vt 0 0
vt 0.25 0
vt 0.5 0
vt 0.75 0
vt 0 1
vt 0.25 1
vt 0.5 1
vt 0.75 1
vt 0.5 0.5
vt 0.5 0.5
vt 0 0
vt 0.25 0
vt 0.5 0
vt 0.75 0
vt 0 1
vt 0.25 1
vt 0.5 1
vt 0.75 1
vt 0.5 0.5
vt 0.5 0.5
vt 0 0
vt 0.25 0
vt 0.5 0
vt 0.75 0
vt 0 1
vt 0.25 1
vt 0.5 1
vt 0.75 1
vt 0.5 0.5
vt 0.5 0.5
vt 0 0
vt 0.25 0
vt 0.5 0
vt 0.75 0
vt 0 1
vt 0.25 1
vt 0.5 1
vt 0.75 1
vt 0.5 0.5
vt 0.5 0.5
vt 0 0
vt 0.25 0
vt 0.5 0
vt 0.75 0
vt 0 1
vt 0.25 1
vt 0.5 1
vt 0.75 1
vt 0.5 0.5
vt 0.5 0.5
vt 0 0
vt 0.1 0
vt 0.2 0
vt 0.3 0
vt 0.4 0
vt 0.5 0
vt 0.6 0
vt 0.7 0
vt 0.8 0
vt 0.9 0
vt 1 0
vt 0 0.16666666666666666
vt 0.1 0.16666666666666666
vt 0.2 0.16666666666666666
vt 0.3 0.16666666666666666
vt 0.4 0.16666666666666666
vt 0.5 0.16666666666666666
vt 0.6 0.16666666666666666
vt 0.7 0.16666666666666666
vt 0.8 0.16666666666666666
vt 0.9 0.16666666666666666
vt 1 0.16666666666666666
vt 0 0.3333333333333333
vt 0.1 0.3333333333333333
vt 0.2 0.3333333333333333
vt 0.3 0.3333333333333333
vt 0.4 0.3333333333333333
vt 0.5 0.3333333333333333
vt 0.6 0.3333333333333333
vt 0.7 0.3333333333333333
vt 0.8 0.3333333333333333
vt 0.9 0.3333333333333333
vt 1 0.3333333333333333
vt 0 0.5
vt 0.1 0.5
vt 0.2 0.5
vt 0.3 0.5
vt 0.4 0.5
vt 0.5 0.5
vt 0.6 0.5
vt 0.7 0.5
vt 0.8 0.5
vt 0.9 0.5
vt 1 0.5
vt 0 0.6666666666666666
vt 0.1 0.6666666666666666
vt 0.2 0.6666666666666666
vt 0.3 0.6666666666666666
vt 0.4 0.6666666666666666
vt 0.5 0.6666666666666666
vt 0.6 0.6666666666666666
vt 0.7 0.6666666666666666
vt 0.8 0.6666666666666666
vt 0.9 0.6666666666666666
vt 1 0.6666666666666666
vt 0 0.8333333333333334
vt 0.1 0.8333333333333334
vt 0.2 0.8333333333333334
vt 0.3 0.8333333333333334
vt 0.4 0.8333333333333334
vt 0.5 0.8333333333333334
vt 0.6 0.8333333333333334
vt 0.7 0.8333333333333334
vt 0.8 0.8333333333333334
vt 0.9 0.8333333333333334
vt 1 0.8333333333333334
vt 0 1
vt 0.1 1
vt 0.2 1
vt 0.3 1
vt 0.4 1
vt 0.5 1
vt 0.6 1
vt 0.7 1
vt 0.8 1
vt 0.9 1
vt 1 1
vt 0 0
vt 0.1 0
vt 0.2 0
vt 0.3 0
vt 0.4 0
vt 0.5 0
vt 0.6 0
vt 0.7 0
vt 0.8 0
vt 0.9 0
vt 1 0
vt 0 0.16666666666666666
vt 0.1 0.16666666666666666
vt 0.2 0.16666666666666666
vt 0.3 0.16666666666666666
vt 0.4 0.16666666666666666
vt 0.5 0.16666666666666666
vt 0.6 0.16666666666666666
vt 0.7 0.16666666666666666
vt 0.8 0.16666666666666666
vt 0.9 0.16666666666666666
vt 1 0.16666666666666666
vt 0 0.3333333333333333
vt 0.1 0.3333333333333333
vt 0.2 0.3333333333333333
vt 0.3 0.3333333333333333
vt 0.4 0.3333333333333333
vt 0.5 0.3333333333333333
vt 0.6 0.3333333333333333
vt 0.7 0.3333333333333333
vt 0.8 0.3333333333333333
vt 0.9 0.3333333333333333
vt 1 0.3333333333333333
vt 0 0.5
vt 0.1 0.5
vt 0.2 0.5
vt 0.3 0.5
vt 0.4 0.5
vt 0.5 0.5
vt 0.6 0.5
vt 0.7 0.5
vt 0.8 0.5
vt 0.9 0.5
vt 1 0.5
vt 0 0.6666666666666666
vt 0.1 0.6666666666666666
vt 0.2 0.6666666666666666
vt 0.3 0.6666666666666666
vt 0.4 0.6666666666666666
vt 0.5 0.6666666666666666
vt 0.6 0.6666666666666666
vt 0.7 0.6666666666666666
vt 0.8 0.6666666666666666
vt 0.9 0.6666666666666666
vt 1 0.6666666666666666
vt 0 0.8333333333333334
vt 0.1 0.8333333333333334
vt 0.2 0.8333333333333334
vt 0.3 0.8333333333333334
vt 0.4 0.8333333333333334
vt 0.5 0.8333333333333334
vt 0.6 0.8333333333333334
vt 0.7 0.8333333333333334
vt 0.8 0.8333333333333334
vt 0.9 0.8333333333333334
vt 1 0.8333333333333334
vt 0 1
vt 0.1 1
vt 0.2 1
vt 0.3 1
vt 0.4 1
vt 0.5 1
vt 0.6 1
vt 0.7 1
vt 0.8 1
vt 0.9 1
vt 1 1
vt 0 0
vt 0.1 0
vt 0.2 0
vt 0.3 0
vt 0.4 0
vt 0.5 0
vt 0.6 0
vt 0.7 0
vt 0.8 0
vt 0.9 0
vt 1 0
vt 0 0.16666666666666666
vt 0.1 0.16666666666666666
vt 0.2 0.16666666666666666
vt 0.3 0.16666666666666666
vt 0.4 0.16666666666666666
vt 0.5 0.16666666666666666
vt 0.6 0.16666666666666666
vt 0.7 0.16666666666666666
vt 0.8 0.16666666666666666
vt 0.9 0.16666666666666666
vt 1 0.16666666666666666
vt 0 0.3333333333333333
vt 0.1 0.3333333333333333
vt 0.2 0.3333333333333333
vt 0.3 0.3333333333333333
vt 0.4 0.3333333333333333
vt 0.5 0.3333333333333333
vt 0.6 0.3333333333333333
vt 0.7 0.3333333333333333
vt 0.8 0.3333333333333333
vt 0.9 0.3333333333333333
vt 1 0.3333333333333333
vt 0 0.5
vt 0.1 0.5
vt 0.2 0.5
vt 0.3 0.5
vt 0.4 0.5
vt 0.5 0.5
vt 0.6 0.5
vt 0.7 0.5
vt 0.8 0.5
vt 0.9 0.5
vt 1 0.5
vt 0 0.6666666666666666
vt 0.1 0.6666666666666666
vt 0.2 0.6666666666666666
vt 0.3 0.6666666666666666
vt 0.4 0.6666666666666666
vt 0.5 0.6666666666666666
vt 0.6 0.6666666666666666
vt 0.7 0.6666666666666666
vt 0.8 0.6666666666666666
vt 0.9 0.6666666666666666
vt 1 0.6666666666666666
vt 0 0.8333333333333334
vt 0.1 0.8333333333333334
vt 0.2 0.8333333333333334
vt 0.3 0.8333333333333334
vt 0.4 0.8333333333333334
vt 0.5 0.8333333333333334
vt 0.6 0.8333333333333334
vt 0.7 0.8333333333333334
vt 0.8 0.8333333333333334
vt 0.9 0.8333333333333334
vt 1 0.8333333333333334
vt 0 1
vt 0.1 1
vt 0.2 1
vt 0.3 1
vt 0.4 1
vt 0.5 1
vt 0.6 1
vt 0.7 1
vt 0.8 1
vt 0.9 1
vt 1 1
vt 0 0
vt 0.1 0
vt 0.2 0
vt 0.3 0
vt 0.4 0
vt 0.5 0
vt 0.6 0
vt 0.7 0
vt 0.8 0
vt 0.9 0
vt 1 0
vt 0 0.16666666666666666
vt 0.1 0.16666666666666666
vt 0.2 0.16666666666666666
vt 0.3 0.16666666666666666
vt 0.4 0.16666666666666666
vt 0.5 0.16666666666666666
vt 0.6 0.16666666666666666
vt 0.7 0.16666666666666666
vt 0.8 0.16666666666666666
vt 0.9 0.16666666666666666
vt 1 0.16666666666666666
vt 0 0.3333333333333333
vt 0.1 0.3333333333333333
vt 0.2 0.3333333333333333
vt 0.3 0.3333333333333333
vt 0.4 0.3333333333333333
vt 0.5 0.3333333333333333
vt 0.6 0.3333333333333333
vt 0.7 0.3333333333333333
vt 0.8 0.3333333333333333
vt 0.9 0.3333333333333333
vt 1 0.3333333333333333
vt 0 0.5
vt 0.1 0.5
vt 0.2 0.5
vt 0.3 0.5
vt 0.4 0.5
vt 0.5 0.5
vt 0.6 0.5
vt 0.7 0.5
vt 0.8 0.5
vt 0.9 0.5
vt 1 0.5
vt 0 0.6666666666666666
vt 0.1 0.6666666666666666
vt 0.2 0.6666666666666666
vt 0.3 0.6666666666666666
vt 0.4 0.6666666666666666
vt 0.5 0.6666666666666666
vt 0.6 0.6666666666666666
vt 0.7 0.6666666666666666
vt 0.8 0.6666666666666666
vt 0.9 0.6666666666666666
vt 1 0.6666666666666666
vt 0 0.8333333333333334
vt 0.1 0.8333333333333334
vt 0.2 0.8333333333333334
vt 0.3 0.8333333333333334
vt 0.4 0.8333333333333334
vt 0.5 0.8333333333333334
vt 0.6 0.8333333333333334
vt 0.7 0.8333333333333334
vt 0.8 0.8333333333333334
vt 0.9 0.8333333333333334
vt 1 0.8333333333333334
vt 0 1
vt 0.1 1
vt 0.2 1
vt 0.3 1
vt 0.4 1
vt 0.5 1
vt 0.6 1
vt 0.7 1
vt 0.8 1
vt 0.9 1
vt 1 1
vt 0 0
vt 0.1 0
vt 0.2 0
vt 0.3 0
vt 0.4 0
vt 0.5 0
vt 0.6 0
vt 0.7 0
vt 0.8 0
vt 0.9 0
vt 1 0
vt 0 0.16666666666666666
vt 0.1 0.16666666666666666
vt 0.2 0.16666666666666666
vt 0.3 0.16666666666666666
vt 0.4 0.16666666666666666
vt 0.5 0.16666666666666666
vt 0.6 0.16666666666666666
vt 0.7 0.16666666666666666
vt 0.8 0.16666666666666666
vt 0.9 0.16666666666666666
vt 1 0.16666666666666666
vt 0 0.3333333333333333
vt 0.1 0.3333333333333333
vt 0.2 0.3333333333333333
vt 0.3 0.3333333333333333
vt 0.4 0.3333333333333333
vt 0.5 0.3333333333333333
vt 0.6 0.3333333333333333
vt 0.7 0.3333333333333333
vt 0.8 0.3333333333333333
vt 0.9 0.3333333333333333
vt 1 0.3333333333333333
vt 0 0.5
vt 0.1 0.5
vt 0.2 0.5
vt 0.3 0.5
vt 0.4 0.5
vt 0.5 0.5
vt 0.6 0.5
vt 0.7 0.5
vt 0.8 0.5
vt 0.9 0.5
vt 1 0.5
vt 0 0.6666666666666666
vt 0.1 0.6666666666666666
vt 0.2 0.6666666666666666
vt 0.3 0.6666666666666666
vt 0.4 0.6666666666666666
vt 0.5 0.6666666666666666
vt 0.6 0.6666666666666666
vt 0.7 0.6666666666666666
vt 0.8 0.6666666666666666
vt 0.9 0.6666666666666666
vt 1 0.6666666666666666
vt 0 0.8333333333333334
vt 0.1 0.8333333333333334
vt 0.2 0.8333333333333334
vt 0.3 0.8333333333333334
vt 0.4 0.8333333333333334
vt 0.5 0.8333333333333334
vt 0.6 0.8333333333333334
vt 0.7 0.8333333333333334
vt 0.8 0.8333333333333334
vt 0.9 0.8333333333333334
vt 1 0.8333333333333334
vt 0 1
vt 0.1 1
vt 0.2 1
vt 0.3 1
vt 0.4 1
vt 0.5 1
vt 0.6 1
vt 0.7 1
vt 0.8 1
vt 0.9 1
vt 1 1
vt 0 0
vt 0.1 0
vt 0.2 0
vt 0.3 0
vt 0.4 0
vt 0.5 0
vt 0.6 0
vt 0.7 0
vt 0.8 0
vt 0.9 0
vt 1 0
vt 0 0.16666666666666666
vt 0.1 0.16666666666666666
vt 0.2 0.16666666666666666
vt 0.3 0.16666666666666666
vt 0.4 0.16666666666666666
vt 0.5 0.16666666666666666
vt 0.6 0.16666666666666666
vt 0.7 0.16666666666666666
vt 0.8 0.16666666666666666
vt 0.9 0.16666666666666666
vt 1 0.16666666666666666
vt 0 0.3333333333333333
vt 0.1 0.3333333333333333
vt 0.2 0.3333333333333333
vt 0.3 0.3333333333333333
vt 0.4 0.3333333333333333
vt 0.5 0.3333333333333333
vt 0.6 0.3333333333333333
vt 0.7 0.3333333333333333
vt 0.8 0.3333333333333333
vt 0.9 0.3333333333333333
vt 1 0.3333333333333333
vt 0 0.5
vt 0.1 0.5
vt 0.2 0.5
vt 0.3 0.5
vt 0.4 0.5
vt 0.5 0.5
vt 0.6 0.5
vt 0.7 0.5
vt 0.8 0.5
vt 0.9 0.5
vt 1 0.5
vt 0 0.6666666666666666
vt 0.1 0.6666666666666666
vt 0.2 0.6666666666666666
vt 0.3 0.6666666666666666
vt 0.4 0.6666666666666666
vt 0.5 0.6666666666666666
vt 0.6 0.6666666666666666
vt 0.7 0.6666666666666666
vt 0.8 0.6666666666666666
vt 0.9 0.6666666666666666
vt 1 0.6666666666666666
vt 0 0.8333333333333334
vt 0.1 0.8333333333333334
vt 0.2 0.8333333333333334
vt 0.3 0.8333333333333334
vt 0.4 0.8333333333333334
vt 0.5 0.8333333333333334
vt 0.6 0.8333333333333334
vt 0.7 0.8333333333333334
vt 0.8 0.8333333333333334
vt 0.9 0.8333333333333334
vt 1 0.8333333333333334
vt 0 1
vt 0.1 1
vt 0.2 1
vt 0.3 1
vt 0.4 1
vt 0.5 1
vt 0.6 1
vt 0.7 1
vt 0.8 1
vt 0.9 1
vt 1 1
vt 0 0
vt 0.1 0
vt 0.2 0
vt 0.3 0
vt 0.4 0
vt 0.5 0
vt 0.6 0
vt 0.7 0
vt 0.8 0
vt 0.9 0
vt 1 0
vt 0 0.16666666666666666
vt 0.1 0.16666666666666666
vt 0.2 0.16666666666666666
vt 0.3 0.16666666666666666
vt 0.4 0.16666666666666666
vt 0.5 0.16666666666666666
vt 0.6 0.16666666666666666
vt 0.7 0.16666666666666666
vt 0.8 0.16666666666666666
vt 0.9 0.16666666666666666
vt 1 0.16666666666666666
vt 0 0.3333333333333333
vt 0.1 0.3333333333333333
vt 0.2 0.3333333333333333
vt 0.3 0.3333333333333333
vt 0.4 0.3333333333333333
vt 0.5 0.3333333333333333
vt 0.6 0.3333333333333333
vt 0.7 0.3333333333333333
vt 0.8 0.3333333333333333
vt 0.9 0.3333333333333333
vt 1 0.3333333333333333
vt 0 0.5
vt 0.1 0.5
vt 0.2 0.5
vt 0.3 0.5
vt 0.4 0.5
vt 0.5 0.5
vt 0.6 0.5
vt 0.7 0.5
vt 0.8 0.5
vt 0.9 0.5
vt 1 0.5
vt 0 0.6666666666666666
vt 0.1 0.6666666666666666
vt 0.2 0.6666666666666666
vt 0.3 0.6666666666666666
vt 0.4 0.6666666666666666
vt 0.5 0.6666666666666666
vt 0.6 0.6666666666666666
vt 0.7 0.6666666666666666
vt 0.8 0.6666666666666666
vt 0.9 0.6666666666666666
vt 1 0.6666666666666666
vt 0 0.8333333333333334
vt 0.1 0.8333333333333334
vt 0.2 0.8333333333333334
vt 0.3 0.8333333333333334
vt 0.4 0.8333333333333334
vt 0.5 0.8333333333333334
vt 0.6 0.8333333333333334
vt 0.7 0.8333333333333334
vt 0.8 0.8333333333333334
vt 0.9 0.8333333333333334
vt 1 0.8333333333333334
vt 0 1
vt 0.1 1
vt 0.2 1
vt 0.3 1
vt 0.4 1
vt 0.5 1
vt 0.6 1
vt 0.7 1
vt 0.8 1
vt 0.9 1
vt 1 1
vn 0 -1 0
vn 0 -1 0
vn 0 -1 0
vn 0 -1 0
vn 0 -1 0
vn 0 -1 0
vn 0 -1 0
vn 0 -1 0
vn 0 -1 0
vn 0 -1 0
vn 0 1 0
vn 0 1 0
vn 0 1 0
vn 0 1 0
vn 0 1 0
vn 0 1 0
vn 0 1 0
vn 0 1 0
vn 0 1 0
vn 0 1 0
vn 0 -1 0
vn 0 1 0
vn 0 -1 0
vn 0 -1 0
vn 0 -1 0
vn 0 -1 0
vn 0 1 0
vn 0 1 0
vn 0 1 0
vn 0 1 0
vn 0 -1 0
vn 0 1 0
vn 0 -1 0
vn 0 -1 0
vn 0 -1 0
vn 0 -1 0
vn 0 1 0
vn 0 1 0
vn 0 1 0
vn 0 1 0
vn 0 -1 0
vn 0 1 0
vn 0 -1 0
vn 0 -1 0
vn 0 -1 0
vn 0 -1 0
vn 0 1 0
vn 0 1 0
vn 0 1 0
vn 0 1 0
vn 0 -1 0
vn 0 1 0
vn 0 -1 0
vn 0 -1 0
vn 0 -1 0
vn 0 -1 0
vn 0 1 0
vn 0 1 0
vn 0 1 0
vn 0 1 0
vn 0 -1 0
vn 0 1 0
vn 0 -1 0
vn 0 -1 0
vn 0 -1 0
vn 0 -1 0
vn 0 1 0
vn 0 1 0
vn 0 1 0
vn 0 1 0
vn 0 -1 0
vn 0 1 0
vn 0 1 0
vn 0 1 0
vn 0 1 0
vn 0 1 0
vn 0 1 0
vn 0 1 0
vn 0 1 0
vn 0 1 0
vn 0 1 0
vn 0 1 0
vn 0 1 0
vn 0.4999999999999999 0.8660254037844387 0
vn 0.40450849718747367 0.8660254037844387 0.2938926261462365
vn 0.1545084971874737 0.8660254037844387 0.4755282581475767
vn -0.15450849718747364 0.8660254037844387 0.47552825814757677
vn -0.4045084971874736 0.8660254037844387 0.29389262614623657
vn -0.4999999999999999 0.8660254037844387 6.123233995736765e-17
vn -0.40450849718747367 0.8660254037844387 -0.29389262614623646
vn -0.15450849718747375 0.8660254037844387 -0.4755282581475767
vn 0.1545084971874736 0.8660254037844387 -0.47552825814757677
vn 0.4045084971874736 0.8660254037844387 -0.2938926261462366
vn 0.4999999999999999 0.8660254037844387 -1.224646799147353e-16
vn 0.8660254037844386 0.5000000000000001 0
vn 0.7006292692220367 0.5000000000000001 0.5090369604551271
vn 0.2676165673298175 0.5000000000000001 0.8236391035463319
vn -0.26761656732981737 0.5000000000000001 0.823639103546332
vn -0.7006292692220366 0.5000000000000001 0.5090369604551273
vn -0.8660254037844386 0.5000000000000001 1.0605752387249068e-16
vn -0.7006292692220367 0.5000000000000001 -0.509036960455127
vn -0.26761656732981753 0.5000000000000001 -0.8236391035463319
vn 0.26761656732981726 0.5000000000000001 -0.823639103546332
vn 0.7006292692220366 0.5000000000000001 -0.5090369604551274
vn 0.8660254037844386 0.5000000000000001 -2.1211504774498136e-16
vn 1 6.123233995736766e-17 0
vn 0.8090169943749476 6.123233995736766e-17 0.5877852522924731
vn 0.30901699437494745 6.123233995736766e-17 0.9510565162951535
vn -0.30901699437494734 6.123233995736766e-17 0.9510565162951536
vn -0.8090169943749473 6.123233995736766e-17 0.5877852522924732
vn -1 6.123233995736766e-17 1.2246467991473532e-16
vn -0.8090169943749476 6.123233995736766e-17 -0.587785252292473
vn -0.30901699437494756 6.123233995736766e-17 -0.9510565162951535
vn 0.30901699437494723 6.123233995736766e-17 -0.9510565162951536
vn 0.8090169943749473 6.123233995736766e-17 -0.5877852522924734
vn 1 6.123233995736766e-17 -2.4492935982947064e-16
vn 0.8660254037844387 -0.4999999999999998 0
vn 0.7006292692220368 -0.4999999999999998 0.5090369604551273
vn 0.2676165673298175 -0.4999999999999998 0.823639103546332
vn -0.26761656732981737 -0.4999999999999998 0.8236391035463321
vn -0.7006292692220367 -0.4999999999999998 0.5090369604551274
vn -0.8660254037844387 -0.4999999999999998 1.0605752387249069e-16
vn -0.7006292692220368 -0.4999999999999998 -0.5090369604551271
vn -0.2676165673298176 -0.4999999999999998 -0.823639103546332
vn 0.2676165673298173 -0.4999999999999998 -0.8236391035463321
vn 0.7006292692220367 -0.4999999999999998 -0.5090369604551274
vn 0.8660254037844387 -0.4999999999999998 -2.1211504774498138e-16
vn 0.4999999999999999 -0.8660254037844387 0
vn 0.40450849718747367 -0.8660254037844387 0.2938926261462365
vn 0.1545084971874737 -0.8660254037844387 0.4755282581475767
vn -0.15450849718747364 -0.8660254037844387 0.47552825814757677
vn -0.4045084971874736 -0.8660254037844387 0.29389262614623657
vn -0.4999999999999999 -0.8660254037844387 6.123233995736765e-17
vn -0.40450849718747367 -0.8660254037844387 -0.29389262614623646
vn -0.15450849718747375 -0.8660254037844387 -0.4755282581475767
vn 0.1545084971874736 -0.8660254037844387 -0.47552825814757677
vn 0.4045084971874736 -0.8660254037844387 -0.2938926261462366
vn 0.4999999999999999 -0.8660254037844387 -1.224646799147353e-16
vn 1.2246467991473532e-16 -1 0
vn 9.907600726170915e-17 -1 7.198293278059966e-17
vn 3.7843667304341506e-17 -1 1.1647083184890923e-16
vn -3.7843667304341493e-17 -1 1.1647083184890926e-16
vn -9.907600726170915e-17 -1 7.198293278059968e-17
vn -1.2246467991473532e-16 -1 1.4997597826618576e-32
vn -9.907600726170915e-17 -1 -7.198293278059965e-17
vn -3.784366730434152e-17 -1 -1.1647083184890923e-16
vn 3.7843667304341475e-17 -1 -1.1647083184890926e-16
vn 9.907600726170915e-17 -1 -7.19829327805997e-17
vn 1.2246467991473532e-16 -1 -2.999519565323715e-32
vn 0 1 0
vn 0 1 0
vn 0 1 0
vn 0 1 0
vn 0 1 0
vn 0 1 0
vn 0 1 0
vn 0 1 0
vn 0 1 0
vn 0 1 0
vn 0 1 0
vn 0.4999999999999999 0.8660254037844387 0
vn 0.40450849718747367 0.8660254037844387 0.2938926261462365
vn 0.1545084971874737 0.8660254037844387 0.47552825814757665
vn -0.15450849718747364 0.8660254037844387 0.47552825814757677
vn -0.40450849718747367 0.8660254037844387 0.29389262614623657
vn -0.4999999999999999 0.8660254037844387 6.123233995736765e-17
vn -0.40450849718747367 0.8660254037844387 -0.29389262614623646
vn -0.15450849718747375 0.8660254037844387 -0.47552825814757665
vn 0.1545084971874736 0.8660254037844387 -0.47552825814757677
vn 0.40450849718747367 0.8660254037844387 -0.2938926261462366
vn 0.4999999999999999 0.8660254037844387 -1.224646799147353e-16
vn 0.8660254037844385 0.5000000000000001 0
vn 0.7006292692220367 0.5000000000000001 0.5090369604551271
vn 0.2676165673298175 0.5000000000000001 0.8236391035463319
vn -0.26761656732981737 0.5000000000000001 0.823639103546332
vn -0.7006292692220366 0.5000000000000001 0.5090369604551273
vn -0.8660254037844385 0.5000000000000001 1.0605752387249068e-16
vn -0.7006292692220367 0.5000000000000001 -0.509036960455127
vn -0.26761656732981753 0.5000000000000001 -0.8236391035463319
vn 0.26761656732981726 0.5000000000000001 -0.823639103546332
vn 0.7006292692220366 0.5000000000000001 -0.5090369604551274
vn 0.8660254037844385 0.5000000000000001 -2.1211504774498136e-16
vn 1 6.123233995736766e-17 0
vn 0.8090169943749475 6.123233995736766e-17 0.5877852522924731
vn 0.30901699437494745 6.123233995736766e-17 0.9510565162951535
vn -0.30901699437494734 6.123233995736766e-17 0.9510565162951535
vn -0.8090169943749473 6.123233995736766e-17 0.5877852522924732
vn -1 6.123233995736766e-17 1.2246467991473532e-16
vn -0.8090169943749475 6.123233995736766e-17 -0.587785252292473
vn -0.30901699437494756 6.123233995736766e-17 -0.9510565162951535
vn 0.30901699437494723 6.123233995736766e-17 -0.9510565162951535
vn 0.8090169943749473 6.123233995736766e-17 -0.5877852522924734
vn 1 6.123233995736766e-17 -2.4492935982947064e-16
vn 0.8660254037844387 -0.49999999999999983 0
vn 0.7006292692220368 -0.49999999999999983 0.5090369604551273
vn 0.2676165673298175 -0.49999999999999983 0.823639103546332
vn -0.26761656732981737 -0.49999999999999983 0.8236391035463321
vn -0.7006292692220367 -0.49999999999999983 0.5090369604551274
vn -0.8660254037844387 -0.49999999999999983 1.060575238724907e-16
vn -0.7006292692220368 -0.49999999999999983 -0.5090369604551271
vn -0.2676165673298176 -0.49999999999999983 -0.823639103546332
vn 0.2676165673298173 -0.49999999999999983 -0.8236391035463321
vn 0.7006292692220367 -0.49999999999999983 -0.5090369604551274
vn 0.8660254037844387 -0.49999999999999983 -2.121150477449814e-16
vn 0.4999999999999999 -0.8660254037844387 0
vn 0.40450849718747367 -0.8660254037844387 0.2938926261462365
vn 0.1545084971874737 -0.8660254037844387 0.47552825814757665
vn -0.15450849718747364 -0.8660254037844387 0.47552825814757677
vn -0.40450849718747367 -0.8660254037844387 0.29389262614623657
vn -0.4999999999999999 -0.8660254037844387 6.123233995736765e-17
vn -0.40450849718747367 -0.8660254037844387 -0.29389262614623646
vn -0.15450849718747375 -0.8660254037844387 -0.47552825814757665
vn 0.1545084971874736 -0.8660254037844387 -0.47552825814757677
vn 0.40450849718747367 -0.8660254037844387 -0.2938926261462366
vn 0.4999999999999999 -0.8660254037844387 -1.224646799147353e-16
vn 1.2246467991473532e-16 -1 0
vn 9.907600726170916e-17 -1 7.198293278059966e-17
vn 3.7843667304341506e-17 -1 1.1647083184890923e-16
vn -3.7843667304341493e-17 -1 1.1647083184890926e-16
vn -9.907600726170914e-17 -1 7.198293278059968e-17
vn -1.2246467991473532e-16 -1 1.4997597826618576e-32
vn -9.907600726170916e-17 -1 -7.198293278059965e-17
vn -3.784366730434152e-17 -1 -1.1647083184890923e-16
vn 3.7843667304341475e-17 -1 -1.1647083184890926e-16
vn 9.907600726170914e-17 -1 -7.19829327805997e-17
vn 1.2246467991473532e-16 -1 -2.999519565323715e-32
vn 0 1 0
vn 0 1 0
vn 0 1 0
vn 0 1 0
vn 0 1 0
vn 0 1 0
vn 0 1 0
vn 0 1 0
vn 0 1 0
vn 0 1 0
vn 0 1 0
vn 0.4999999999999999 0.8660254037844387 0
vn 0.40450849718747367 0.8660254037844387 0.2938926261462365
vn 0.1545084971874737 0.8660254037844387 0.4755282581475767
vn -0.15450849718747364 0.8660254037844387 0.47552825814757677
vn -0.4045084971874736 0.8660254037844387 0.29389262614623657
vn -0.4999999999999999 0.8660254037844387 6.123233995736765e-17
vn -0.40450849718747367 0.8660254037844387 -0.2938926261462365
vn -0.15450849718747375 0.8660254037844387 -0.4755282581475767
vn 0.1545084971874736 0.8660254037844387 -0.47552825814757677
vn 0.4045084971874736 0.8660254037844387 -0.2938926261462366
vn 0.4999999999999999 0.8660254037844387 -1.224646799147353e-16
vn 0.8660254037844386 0.5000000000000001 0
vn 0.7006292692220367 0.5000000000000001 0.5090369604551271
vn 0.2676165673298175 0.5000000000000001 0.8236391035463319
vn -0.26761656732981737 0.5000000000000001 0.823639103546332
vn -0.7006292692220366 0.5000000000000001 0.5090369604551273
vn -0.8660254037844386 0.5000000000000001 1.0605752387249068e-16
vn -0.7006292692220367 0.5000000000000001 -0.509036960455127
vn -0.26761656732981753 0.5000000000000001 -0.8236391035463319
vn 0.26761656732981726 0.5000000000000001 -0.823639103546332
vn 0.7006292692220366 0.5000000000000001 -0.5090369604551274
vn 0.8660254037844386 0.5000000000000001 -2.1211504774498136e-16
vn 1 6.123233995736766e-17 0
vn 0.8090169943749475 6.123233995736766e-17 0.5877852522924731
vn 0.30901699437494745 6.123233995736766e-17 0.9510565162951535
vn -0.30901699437494734 6.123233995736766e-17 0.9510565162951536
vn -0.8090169943749473 6.123233995736766e-17 0.5877852522924732
vn -1 6.123233995736766e-17 1.2246467991473532e-16
vn -0.8090169943749475 6.123233995736766e-17 -0.587785252292473
vn -0.30901699437494756 6.123233995736766e-17 -0.9510565162951535
vn 0.30901699437494723 6.123233995736766e-17 -0.9510565162951536
vn 0.8090169943749473 6.123233995736766e-17 -0.5877852522924734
vn 1 6.123233995736766e-17 -2.4492935982947064e-16
vn 0.8660254037844386 -0.4999999999999998 0
vn 0.7006292692220368 -0.4999999999999998 0.5090369604551273
vn 0.2676165673298175 -0.4999999999999998 0.823639103546332
vn -0.26761656732981737 -0.4999999999999998 0.8236391035463322
vn -0.7006292692220367 -0.4999999999999998 0.5090369604551274
vn -0.8660254037844386 -0.4999999999999998 1.0605752387249069e-16
vn -0.7006292692220368 -0.4999999999999998 -0.5090369604551271
vn -0.2676165673298176 -0.4999999999999998 -0.823639103546332
vn 0.2676165673298173 -0.4999999999999998 -0.8236391035463322
vn 0.7006292692220367 -0.4999999999999998 -0.5090369604551274
vn 0.8660254037844386 -0.4999999999999998 -2.1211504774498138e-16
vn 0.4999999999999999 -0.8660254037844387 0
vn 0.40450849718747367 -0.8660254037844387 0.2938926261462365
vn 0.1545084971874737 -0.8660254037844387 0.4755282581475767
vn -0.15450849718747364 -0.8660254037844387 0.47552825814757677
vn -0.4045084971874736 -0.8660254037844387 0.29389262614623657
vn -0.4999999999999999 -0.8660254037844387 6.123233995736765e-17
vn -0.40450849718747367 -0.8660254037844387 -0.2938926261462365
vn -0.15450849718747375 -0.8660254037844387 -0.4755282581475767
vn 0.1545084971874736 -0.8660254037844387 -0.47552825814757677
vn 0.4045084971874736 -0.8660254037844387 -0.2938926261462366
vn 0.4999999999999999 -0.8660254037844387 -1.224646799147353e-16
vn 1.2246467991473532e-16 -1 0
vn 9.907600726170916e-17 -1 7.198293278059966e-17
vn 3.7843667304341506e-17 -1 1.1647083184890923e-16
vn -3.7843667304341493e-17 -1 1.1647083184890926e-16
vn -9.907600726170915e-17 -1 7.198293278059968e-17
vn -1.2246467991473532e-16 -1 1.4997597826618576e-32
vn -9.907600726170916e-17 -1 -7.198293278059965e-17
vn -3.784366730434152e-17 -1 -1.1647083184890923e-16
vn 3.7843667304341475e-17 -1 -1.1647083184890926e-16
vn 9.907600726170915e-17 -1 -7.19829327805997e-17
vn 1.2246467991473532e-16 -1 -2.999519565323715e-32
vn 0 1 0
vn 0 1 0
vn 0 1 0
vn 0 1 0
vn 0 1 0
vn 0 1 0
vn 0 1 0
vn 0 1 0
vn 0 1 0
vn 0 1 0
vn 0 1 0
vn 0.49999999999999994 0.8660254037844387 0
vn 0.4045084971874737 0.8660254037844387 0.2938926261462365
vn 0.1545084971874737 0.8660254037844387 0.47552825814757677
vn -0.15450849718747364 0.8660254037844387 0.47552825814757677
vn -0.4045084971874736 0.8660254037844387 0.29389262614623657
vn -0.49999999999999994 0.8660254037844387 6.123233995736765e-17
vn -0.4045084971874737 0.8660254037844387 -0.29389262614623646
vn -0.15450849718747375 0.8660254037844387 -0.47552825814757677
vn 0.1545084971874736 0.8660254037844387 -0.47552825814757677
vn 0.4045084971874736 0.8660254037844387 -0.2938926261462366
vn 0.49999999999999994 0.8660254037844387 -1.224646799147353e-16
vn 0.8660254037844387 0.5000000000000001 0
vn 0.7006292692220367 0.5000000000000001 0.5090369604551271
vn 0.2676165673298175 0.5000000000000001 0.8236391035463319
vn -0.26761656732981737 0.5000000000000001 0.823639103546332
vn -0.7006292692220366 0.5000000000000001 0.5090369604551273
vn -0.8660254037844387 0.5000000000000001 1.0605752387249068e-16
vn -0.7006292692220367 0.5000000000000001 -0.509036960455127
vn -0.26761656732981753 0.5000000000000001 -0.8236391035463319
vn 0.26761656732981726 0.5000000000000001 -0.823639103546332
vn 0.7006292692220366 0.5000000000000001 -0.5090369604551274
vn 0.8660254037844387 0.5000000000000001 -2.1211504774498136e-16
vn 1 6.123233995736766e-17 0
vn 0.8090169943749475 6.123233995736766e-17 0.5877852522924731
vn 0.30901699437494745 6.123233995736766e-17 0.9510565162951535
vn -0.30901699437494734 6.123233995736766e-17 0.9510565162951538
vn -0.8090169943749475 6.123233995736766e-17 0.5877852522924732
vn -1 6.123233995736766e-17 1.2246467991473532e-16
vn -0.8090169943749475 6.123233995736766e-17 -0.587785252292473
vn -0.30901699437494756 6.123233995736766e-17 -0.9510565162951535
vn 0.30901699437494723 6.123233995736766e-17 -0.9510565162951538
vn 0.8090169943749475 6.123233995736766e-17 -0.5877852522924734
vn 1 6.123233995736766e-17 -2.4492935982947064e-16
vn 0.8660254037844387 -0.4999999999999998 0
vn 0.7006292692220368 -0.4999999999999998 0.5090369604551273
vn 0.2676165673298175 -0.4999999999999998 0.823639103546332
vn -0.26761656732981737 -0.4999999999999998 0.8236391035463321
vn -0.7006292692220367 -0.4999999999999998 0.5090369604551274
vn -0.8660254037844387 -0.4999999999999998 1.060575238724907e-16
vn -0.7006292692220368 -0.4999999999999998 -0.5090369604551271
vn -0.2676165673298176 -0.4999999999999998 -0.823639103546332
vn 0.2676165673298173 -0.4999999999999998 -0.8236391035463321
vn 0.7006292692220367 -0.4999999999999998 -0.5090369604551274
vn 0.8660254037844387 -0.4999999999999998 -2.121150477449814e-16
vn 0.49999999999999994 -0.8660254037844387 0
vn 0.4045084971874737 -0.8660254037844387 0.2938926261462365
vn 0.1545084971874737 -0.8660254037844387 0.47552825814757677
vn -0.15450849718747364 -0.8660254037844387 0.47552825814757677
vn -0.4045084971874736 -0.8660254037844387 0.29389262614623657
vn -0.49999999999999994 -0.8660254037844387 6.123233995736765e-17
vn -0.4045084971874737 -0.8660254037844387 -0.29389262614623646
vn -0.15450849718747375 -0.8660254037844387 -0.47552825814757677
vn 0.1545084971874736 -0.8660254037844387 -0.47552825814757677
vn 0.4045084971874736 -0.8660254037844387 -0.2938926261462366
vn 0.49999999999999994 -0.8660254037844387 -1.224646799147353e-16
vn 1.2246467991473532e-16 -1 0
vn 9.907600726170915e-17 -1 7.198293278059966e-17
vn 3.7843667304341506e-17 -1 1.1647083184890923e-16
vn -3.7843667304341493e-17 -1 1.1647083184890926e-16
vn -9.907600726170915e-17 -1 7.198293278059968e-17
vn -1.2246467991473532e-16 -1 1.4997597826618576e-32
vn -9.907600726170915e-17 -1 -7.198293278059965e-17
vn -3.784366730434152e-17 -1 -1.1647083184890923e-16
vn 3.7843667304341475e-17 -1 -1.1647083184890926e-16
vn 9.907600726170915e-17 -1 -7.19829327805997e-17
vn 1.2246467991473532e-16 -1 -2.999519565323715e-32
vn 0 1 0
vn 0 1 0
vn 0 1 0
vn 0 1 0
vn 0 1 0
vn 0 1 0
vn 0 1 0
vn 0 1 0
vn 0 1 0
vn 0 1 0
vn 0 1 0
vn 0.4999999999999999 0.8660254037844387 0
vn 0.40450849718747367 0.8660254037844387 0.2938926261462365
vn 0.1545084971874737 0.8660254037844387 0.4755282581475767
vn -0.15450849718747364 0.8660254037844387 0.47552825814757677
vn -0.4045084971874736 0.8660254037844387 0.29389262614623657
vn -0.4999999999999999 0.8660254037844387 6.123233995736765e-17
vn -0.40450849718747367 0.8660254037844387 -0.29389262614623646
vn -0.15450849718747375 0.8660254037844387 -0.4755282581475767
vn 0.1545084971874736 0.8660254037844387 -0.47552825814757677
vn 0.4045084971874736 0.8660254037844387 -0.2938926261462366
vn 0.4999999999999999 0.8660254037844387 -1.224646799147353e-16
vn 0.8660254037844386 0.5000000000000001 0
vn 0.7006292692220367 0.5000000000000001 0.5090369604551271
vn 0.2676165673298175 0.5000000000000001 0.8236391035463319
vn -0.26761656732981737 0.5000000000000001 0.823639103546332
vn -0.7006292692220366 0.5000000000000001 0.5090369604551273
vn -0.8660254037844386 0.5000000000000001 1.0605752387249068e-16
vn -0.7006292692220367 0.5000000000000001 -0.509036960455127
vn -0.26761656732981753 0.5000000000000001 -0.8236391035463319
vn 0.26761656732981726 0.5000000000000001 -0.823639103546332
vn 0.7006292692220366 0.5000000000000001 -0.5090369604551274
vn 0.8660254037844386 0.5000000000000001 -2.1211504774498136e-16
vn 1 6.123233995736766e-17 0
vn 0.8090169943749475 6.123233995736766e-17 0.5877852522924731
vn 0.30901699437494745 6.123233995736766e-17 0.9510565162951535
vn -0.30901699437494734 6.123233995736766e-17 0.9510565162951536
vn -0.8090169943749473 6.123233995736766e-17 0.5877852522924732
vn -1 6.123233995736766e-17 1.2246467991473532e-16
vn -0.8090169943749475 6.123233995736766e-17 -0.587785252292473
vn -0.30901699437494756 6.123233995736766e-17 -0.9510565162951535
vn 0.30901699437494723 6.123233995736766e-17 -0.9510565162951536
vn 0.8090169943749473 6.123233995736766e-17 -0.5877852522924734
vn 1 6.123233995736766e-17 -2.4492935982947064e-16
vn 0.8660254037844387 -0.4999999999999998 0
vn 0.7006292692220368 -0.4999999999999998 0.5090369604551273
vn 0.2676165673298175 -0.4999999999999998 0.823639103546332
vn -0.26761656732981737 -0.4999999999999998 0.8236391035463321
vn -0.7006292692220367 -0.4999999999999998 0.5090369604551274
vn -0.8660254037844387 -0.4999999999999998 1.0605752387249069e-16
vn -0.7006292692220368 -0.4999999999999998 -0.5090369604551271
vn -0.2676165673298176 -0.4999999999999998 -0.823639103546332
vn 0.2676165673298173 -0.4999999999999998 -0.8236391035463321
vn 0.7006292692220367 -0.4999999999999998 -0.5090369604551274
vn 0.8660254037844387 -0.4999999999999998 -2.1211504774498138e-16
vn 0.4999999999999999 -0.8660254037844387 0
vn 0.40450849718747367 -0.8660254037844387 0.2938926261462365
vn 0.1545084971874737 -0.8660254037844387 0.4755282581475767
vn -0.15450849718747364 -0.8660254037844387 0.47552825814757677
vn -0.4045084971874736 -0.8660254037844387 0.29389262614623657
vn -0.4999999999999999 -0.8660254037844387 6.123233995736765e-17
vn -0.40450849718747367 -0.8660254037844387 -0.29389262614623646
vn -0.15450849718747375 -0.8660254037844387 -0.4755282581475767
vn 0.1545084971874736 -0.8660254037844387 -0.47552825814757677
vn 0.4045084971874736 -0.8660254037844387 -0.2938926261462366
vn 0.4999999999999999 -0.8660254037844387 -1.224646799147353e-16
vn 1.2246467991473532e-16 -1 0
vn 9.907600726170916e-17 -1 7.198293278059966e-17
vn 3.7843667304341506e-17 -1 1.1647083184890923e-16
vn -3.7843667304341493e-17 -1 1.1647083184890926e-16
vn -9.907600726170915e-17 -1 7.198293278059968e-17
vn -1.2246467991473532e-16 -1 1.4997597826618576e-32
vn -9.907600726170916e-17 -1 -7.198293278059965e-17
vn -3.784366730434152e-17 -1 -1.1647083184890923e-16
vn 3.7843667304341475e-17 -1 -1.1647083184890926e-16
vn 9.907600726170915e-17 -1 -7.19829327805997e-17
vn 1.2246467991473532e-16 -1 -2.999519565323715e-32
vn 0 1 0
vn 0 1 0
vn 0 1 0
vn 0 1 0
vn 0 1 0
vn 0 1 0
vn 0 1 0
vn 0 1 0
vn 0 1 0
vn 0 1 0
vn 0 1 0
vn 0.49999999999999994 0.8660254037844387 0
vn 0.40450849718747367 0.8660254037844387 0.2938926261462365
vn 0.1545084971874737 0.8660254037844387 0.4755282581475767
vn -0.15450849718747364 0.8660254037844387 0.47552825814757677
vn -0.4045084971874736 0.8660254037844387 0.29389262614623657
vn -0.49999999999999994 0.8660254037844387 6.123233995736765e-17
vn -0.40450849718747367 0.8660254037844387 -0.29389262614623646
vn -0.15450849718747375 0.8660254037844387 -0.4755282581475767
vn 0.1545084971874736 0.8660254037844387 -0.47552825814757677
vn 0.4045084971874736 0.8660254037844387 -0.2938926261462366
vn 0.49999999999999994 0.8660254037844387 -1.224646799147353e-16
vn 0.8660254037844387 0.5000000000000001 0
vn 0.7006292692220367 0.5000000000000001 0.5090369604551271
vn 0.2676165673298175 0.5000000000000001 0.8236391035463317
vn -0.26761656732981737 0.5000000000000001 0.823639103546332
vn -0.7006292692220366 0.5000000000000001 0.5090369604551273
vn -0.8660254037844387 0.5000000000000001 1.0605752387249068e-16
vn -0.7006292692220367 0.5000000000000001 -0.509036960455127
vn -0.26761656732981753 0.5000000000000001 -0.8236391035463317
vn 0.26761656732981726 0.5000000000000001 -0.823639103546332
vn 0.7006292692220366 0.5000000000000001 -0.5090369604551274
vn 0.8660254037844387 0.5000000000000001 -2.1211504774498136e-16
vn 1 6.123233995736766e-17 0
vn 0.8090169943749476 6.123233995736766e-17 0.5877852522924731
vn 0.30901699437494745 6.123233995736766e-17 0.9510565162951535
vn -0.30901699437494734 6.123233995736766e-17 0.9510565162951538
vn -0.8090169943749473 6.123233995736766e-17 0.5877852522924732
vn -1 6.123233995736766e-17 1.2246467991473532e-16
vn -0.8090169943749476 6.123233995736766e-17 -0.587785252292473
vn -0.30901699437494756 6.123233995736766e-17 -0.9510565162951535
vn 0.30901699437494723 6.123233995736766e-17 -0.9510565162951538
vn 0.8090169943749473 6.123233995736766e-17 -0.5877852522924734
vn 1 6.123233995736766e-17 -2.4492935982947064e-16
vn 0.8660254037844387 -0.4999999999999998 0
vn 0.7006292692220367 -0.4999999999999998 0.5090369604551273
vn 0.2676165673298175 -0.4999999999999998 0.823639103546332
vn -0.26761656732981737 -0.4999999999999998 0.8236391035463321
vn -0.7006292692220367 -0.4999999999999998 0.5090369604551274
vn -0.8660254037844387 -0.4999999999999998 1.0605752387249069e-16
vn -0.7006292692220367 -0.4999999999999998 -0.5090369604551271
vn -0.2676165673298176 -0.4999999999999998 -0.823639103546332
vn 0.2676165673298173 -0.4999999999999998 -0.8236391035463321
vn 0.7006292692220367 -0.4999999999999998 -0.5090369604551274
vn 0.8660254037844387 -0.4999999999999998 -2.1211504774498138e-16
vn 0.49999999999999994 -0.8660254037844387 0
vn 0.40450849718747367 -0.8660254037844387 0.2938926261462365
vn 0.1545084971874737 -0.8660254037844387 0.4755282581475767
vn -0.15450849718747364 -0.8660254037844387 0.47552825814757677
vn -0.4045084971874736 -0.8660254037844387 0.29389262614623657
vn -0.49999999999999994 -0.8660254037844387 6.123233995736765e-17
vn -0.40450849718747367 -0.8660254037844387 -0.29389262614623646
vn -0.15450849718747375 -0.8660254037844387 -0.4755282581475767
vn 0.1545084971874736 -0.8660254037844387 -0.47552825814757677
vn 0.4045084971874736 -0.8660254037844387 -0.2938926261462366
vn 0.49999999999999994 -0.8660254037844387 -1.224646799147353e-16
vn 1.2246467991473532e-16 -1 0
vn 9.907600726170916e-17 -1 7.198293278059966e-17
vn 3.7843667304341506e-17 -1 1.1647083184890923e-16
vn -3.7843667304341493e-17 -1 1.1647083184890926e-16
vn -9.907600726170914e-17 -1 7.198293278059968e-17
vn -1.2246467991473532e-16 -1 1.4997597826618573e-32
vn -9.907600726170916e-17 -1 -7.198293278059965e-17
vn -3.784366730434152e-17 -1 -1.1647083184890923e-16
vn 3.7843667304341475e-17 -1 -1.1647083184890926e-16
vn 9.907600726170914e-17 -1 -7.198293278059971e-17
vn 1.2246467991473532e-16 -1 -2.9995195653237147e-32
vn 0 1 0
vn 0 1 0
vn 0 1 0
vn 0 1 0
vn 0 1 0
vn 0 1 0
vn 0 1 0
vn 0 1 0
vn 0 1 0
vn 0 1 0
vn 0 1 0
vn 0.4999999999999999 0.8660254037844387 0
vn 0.40450849718747367 0.8660254037844387 0.2938926261462365
vn 0.1545084971874737 0.8660254037844387 0.4755282581475767
vn -0.15450849718747364 0.8660254037844387 0.47552825814757677
vn -0.4045084971874736 0.8660254037844387 0.29389262614623657
vn -0.4999999999999999 0.8660254037844387 6.123233995736765e-17
vn -0.40450849718747367 0.8660254037844387 -0.29389262614623646
vn -0.15450849718747375 0.8660254037844387 -0.4755282581475767
vn 0.1545084971874736 0.8660254037844387 -0.47552825814757677
vn 0.4045084971874736 0.8660254037844387 -0.2938926261462366
vn 0.4999999999999999 0.8660254037844387 -1.224646799147353e-16
vn 0.8660254037844386 0.5000000000000001 0
vn 0.7006292692220367 0.5000000000000001 0.5090369604551271
vn 0.2676165673298175 0.5000000000000001 0.8236391035463319
vn -0.26761656732981737 0.5000000000000001 0.823639103546332
vn -0.7006292692220366 0.5000000000000001 0.5090369604551273
vn -0.8660254037844386 0.5000000000000001 1.0605752387249068e-16
vn -0.7006292692220367 0.5000000000000001 -0.509036960455127
vn -0.26761656732981753 0.5000000000000001 -0.8236391035463319
vn 0.26761656732981726 0.5000000000000001 -0.823639103546332
vn 0.7006292692220366 0.5000000000000001 -0.5090369604551274
vn 0.8660254037844386 0.5000000000000001 -2.1211504774498136e-16
vn 1 6.123233995736766e-17 0
vn 0.8090169943749475 6.123233995736766e-17 0.5877852522924731
vn 0.30901699437494745 6.123233995736766e-17 0.9510565162951535
vn -0.30901699437494734 6.123233995736766e-17 0.9510565162951536
vn -0.8090169943749473 6.123233995736766e-17 0.5877852522924732
vn -1 6.123233995736766e-17 1.2246467991473532e-16
vn -0.8090169943749475 6.123233995736766e-17 -0.587785252292473
vn -0.30901699437494756 6.123233995736766e-17 -0.9510565162951535
vn 0.30901699437494723 6.123233995736766e-17 -0.9510565162951536
vn 0.8090169943749473 6.123233995736766e-17 -0.5877852522924734
vn 1 6.123233995736766e-17 -2.4492935982947064e-16
vn 0.8660254037844387 -0.4999999999999998 0
vn 0.7006292692220368 -0.4999999999999998 0.5090369604551273
vn 0.2676165673298175 -0.4999999999999998 0.823639103546332
vn -0.26761656732981737 -0.4999999999999998 0.8236391035463321
vn -0.7006292692220367 -0.4999999999999998 0.5090369604551274
vn -0.8660254037844387 -0.4999999999999998 1.0605752387249069e-16
vn -0.7006292692220368 -0.4999999999999998 -0.5090369604551271
vn -0.2676165673298176 -0.4999999999999998 -0.823639103546332
vn 0.2676165673298173 -0.4999999999999998 -0.8236391035463321
vn 0.7006292692220367 -0.4999999999999998 -0.5090369604551274
vn 0.8660254037844387 -0.4999999999999998 -2.1211504774498138e-16
vn 0.4999999999999999 -0.8660254037844387 0
vn 0.40450849718747367 -0.8660254037844387 0.2938926261462365
vn 0.1545084971874737 -0.8660254037844387 0.4755282581475767
vn -0.15450849718747364 -0.8660254037844387 0.47552825814757677
vn -0.4045084971874736 -0.8660254037844387 0.29389262614623657
vn -0.4999999999999999 -0.8660254037844387 6.123233995736765e-17
vn -0.40450849718747367 -0.8660254037844387 -0.29389262614623646
vn -0.15450849718747375 -0.8660254037844387 -0.4755282581475767
vn 0.1545084971874736 -0.8660254037844387 -0.47552825814757677
vn 0.4045084971874736 -0.8660254037844387 -0.2938926261462366
vn 0.4999999999999999 -0.8660254037844387 -1.224646799147353e-16
vn 1.2246467991473532e-16 -1 0
vn 9.907600726170916e-17 -1 7.198293278059966e-17
vn 3.7843667304341506e-17 -1 1.1647083184890923e-16
vn -3.7843667304341493e-17 -1 1.1647083184890926e-16
vn -9.907600726170915e-17 -1 7.198293278059968e-17
vn -1.2246467991473532e-16 -1 1.4997597826618576e-32
vn -9.907600726170916e-17 -1 -7.198293278059965e-17
vn -3.784366730434152e-17 -1 -1.1647083184890923e-16
vn 3.7843667304341475e-17 -1 -1.1647083184890926e-16
vn 9.907600726170915e-17 -1 -7.19829327805997e-17
vn 1.2246467991473532e-16 -1 -2.999519565323715e-32
f 1/1/1 2/2/2 12/12/12
f 1/1/1 12/12/12 11/11/11
f 21/21/21 2/2/2 1/1/1
f 22/22/22 11/11/11 12/12/12
f 2/2/2 3/3/3 13/13/13
f 2/2/2 13/13/13 12/12/12
f 21/21/21 3/3/3 2/2/2
f 22/22/22 12/12/12 13/13/13
f 3/3/3 4/4/4 14/14/14
f 3/3/3 14/14/14 13/13/13
f 21/21/21 4/4/4 3/3/3
f 22/22/22 13/13/13 14/14/14
f 4/4/4 5/5/5 15/15/15
f 4/4/4 15/15/15 14/14/14
f 21/21/21 5/5/5 4/4/4
f 22/22/22 14/14/14 15/15/15
f 5/5/5 6/6/6 16/16/16
f 5/5/5 16/16/16 15/15/15
f 21/21/21 6/6/6 5/5/5
f 22/22/22 15/15/15 16/16/16
f 6/6/6 7/7/7 17/17/17
f 6/6/6 17/17/17 16/16/16
f 21/21/21 7/7/7 6/6/6
f 22/22/22 16/16/16 17/17/17
f 7/7/7 8/8/8 18/18/18
f 7/7/7 18/18/18 17/17/17
f 21/21/21 8/8/8 7/7/7
f 22/22/22 17/17/17 18/18/18
f 8/8/8 9/9/9 19/19/19
f 8/8/8 19/19/19 18/18/18
f 21/21/21 9/9/9 8/8/8
f 22/22/22 18/18/18 19/19/19
f 9/9/9 10/10/10 20/20/20
f 9/9/9 20/20/20 19/19/19
f 21/21/21 10/10/10 9/9/9
f 22/22/22 19/19/19 20/20/20
f 10/10/10 1/1/1 11/11/11
f 10/10/10 11/11/11 20/20/20
f 21/21/21 1/1/1 10/10/10
f 22/22/22 20/20/20 11/11/11
f 23/23/23 24/24/24 28/28/28
f 23/23/23 28/28/28 27/27/27
f 31/31/31 24/24/24 23/23/23
f 32/32/32 27/27/27 28/28/28
f 24/24/24 25/25/25 29/29/29
f 24/24/24 29/29/29 28/28/28
f 31/31/31 25/25/25 24/24/24
f 32/32/32 28/28/28 29/29/29
f 25/25/25 26/26/26 30/30/30
f 25/25/25 30/30/30 29/29/29
f 31/31/31 26/26/26 25/25/25
f 32/32/32 29/29/29 30/30/30
f 26/26/26 23/23/23 27/27/27
f 26/26/26 27/27/27 30/30/30
f 31/31/31 23/23/23 26/26/26
f 32/32/32 30/30/30 27/27/27
f 33/33/33 34/34/34 38/38/38
f 33/33/33 38/38/38 37/37/37
f 41/41/41 34/34/34 33/33/33
f 42/42/42 37/37/37 38/38/38
f 34/34/34 35/35/35 39/39/39
f 34/34/34 39/39/39 38/38/38
f 41/41/41 35/35/35 34/34/34
f 42/42/42 38/38/38 39/39/39
f 35/35/35 36/36/36 40/40/40
f 35/35/35 40/40/40 39/39/39
f 41/41/41 36/36/36 35/35/35
f 42/42/42 39/39/39 40/40/40
f 36/36/36 33/33/33 37/37/37
f 36/36/36 37/37/37 40/40/40
f 41/41/41 33/33/33 36/36/36
f 42/42/42 40/40/40 37/37/37
f 43/43/43 44/44/44 48/48/48
f 43/43/43 48/48/48 47/47/47
f 51/51/51 44/44/44 43/43/43
f 52/52/52 47/47/47 48/48/48
f 44/44/44 45/45/45 49/49/49
f 44/44/44 49/49/49 48/48/48
f 51/51/51 45/45/45 44/44/44
f 52/52/52 48/48/48 49/49/49
f 45/45/45 46/46/46 50/50/50
f 45/45/45 50/50/50 49/49/49
f 51/51/51 46/46/46 45/45/45
f 52/52/52 49/49/49 50/50/50
f 46/46/46 43/43/43 47/47/47
f 46/46/46 47/47/47 50/50/50
f 51/51/51 43/43/43 46/46/46
f 52/52/52 50/50/50 47/47/47
f 53/53/53 54/54/54 58/58/58
f 53/53/53 58/58/58 57/57/57
f 61/61/61 54/54/54 53/53/53
f 62/62/62 57/57/57 58/58/58
f 54/54/54 55/55/55 59/59/59
f 54/54/54 59/59/59 58/58/58
f 61/61/61 55/55/55 54/54/54
f 62/62/62 58/58/58 59/59/59
f 55/55/55 56/56/56 60/60/60
f 55/55/55 60/60/60 59/59/59
f 61/61/61 56/56/56 55/55/55
f 62/62/62 59/59/59 60/60/60
f 56/56/56 53/53/53 57/57/57
f 56/56/56 57/57/57 60/60/60
f 61/61/61 53/53/53 56/56/56
f 62/62/62 60/60/60 57/57/57
f 63/63/63 64/64/64 68/68/68
f 63/63/63 68/68/68 67/67/67
f 71/71/71 64/64/64 63/63/63
f 72/72/72 67/67/67 68/68/68
f 64/64/64 65/65/65 69/69/69
f 64/64/64 69/69/69 68/68/68
f 71/71/71 65/65/65 64/64/64
f 72/72/72 68/68/68 69/69/69
f 65/65/65 66/66/66 70/70/70
f 65/65/65 70/70/70 69/69/69
f 71/71/71 66/66/66 65/65/65
f 72/72/72 69/69/69 70/70/70
f 66/66/66 63/63/63 67/67/67
f 66/66/66 67/67/67 70/70/70
f 71/71/71 63/63/63 66/66/66
f 72/72/72 70/70/70 67/67/67
f 73/73/73 84/84/84 85/85/85
f 73/73/73 85/85/85 74/74/74
f 74/74/74 85/85/85 86/86/86
f 74/74/74 86/86/86 75/75/75
f 75/75/75 86/86/86 87/87/87
f 75/75/75 87/87/87 76/76/76
f 76/76/76 87/87/87 88/88/88
f 76/76/76 88/88/88 77/77/77
f 77/77/77 88/88/88 89/89/89
f 77/77/77 89/89/89 78/78/78
f 78/78/78 89/89/89 90/90/90
f 78/78/78 90/90/90 79/79/79
f 79/79/79 90/90/90 91/91/91
f 79/79/79 91/91/91 80/80/80
f 80/80/80 91/91/91 92/92/92
f 80/80/80 92/92/92 81/81/81
f 81/81/81 92/92/92 93/93/93
f 81/81/81 93/93/93 82/82/82
f 82/82/82 93/93/93 94/94/94
f 82/82/82 94/94/94 83/83/83
f 84/84/84 95/95/95 96/96/96
f 84/84/84 96/96/96 85/85/85
f 85/85/85 96/96/96 97/97/97
f 85/85/85 97/97/97 86/86/86
f 86/86/86 97/97/97 98/98/98
f 86/86/86 98/98/98 87/87/87
f 87/87/87 98/98/98 99/99/99
f 87/87/87 99/99/99 88/88/88
f 88/88/88 99/99/99 100/100/100
f 88/88/88 100/100/100 89/89/89
f 89/89/89 100/100/100 101/101/101
f 89/89/89 101/101/101 90/90/90
f 90/90/90 101/101/101 102/102/102
f 90/90/90 102/102/102 91/91/91
f 91/91/91 102/102/102 103/103/103
f 91/91/91 103/103/103 92/92/92
f 92/92/92 103/103/103 104/104/104
f 92/92/92 104/104/104 93/93/93
f 93/93/93 104/104/104 105/105/105
f 93/93/93 105/105/105 94/94/94
f 95/95/95 106/106/106 107/107/107
f 95/95/95 107/107/107 96/96/96
f 96/96/96 107/107/107 108/108/108
f 96/96/96 108/108/108 97/97/97
f 97/97/97 108/108/108 109/109/109
f 97/97/97 109/109/109 98/98/98
f 98/98/98 109/109/109 110/110/110
f 98/98/98 110/110/110 99/99/99
f 99/99/99 110/110/110 111/111/111
f 99/99/99 111/111/111 100/100/100
f 100/100/100 111/111/111 112/112/112
f 100/100/100 112/112/112 101/101/101
f 101/101/101 112/112/112 113/113/113
f 101/101/101 113/113/113 102/102/102
f 102/102/102 113/113/113 114/114/114
f 102/102/102 114/114/114 103/103/103
f 103/103/103 114/114/114 115/115/115
f 103/103/103 115/115/115 104/104/104
f 104/104/104 115/115/115 116/116/116
f 104/104/104 116/116/116 105/105/105
f 106/106/106 117/117/117 118/118/118
f 106/106/106 118/118/118 107/107/107
f 107/107/107 118/118/118 119/119/119
f 107/107/107 119/119/119 108/108/108
f 108/108/108 119/119/119 120/120/120
f 108/108/108 120/120/120 109/109/109
f 109/109/109 120/120/120 121/121/121
f 109/109/109 121/121/121 110/110/110
f 110/110/110 121/121/121 122/122/122
f 110/110/110 122/122/122 111/111/111
f 111/111/111 122/122/122 123/123/123
f 111/111/111 123/123/123 112/112/112
f 112/112/112 123/123/123 124/124/124
f 112/112/112 124/124/124 113/113/113
f 113/113/113 124/124/124 125/125/125
f 113/113/113 125/125/125 114/114/114
f 114/114/114 125/125/125 126/126/126
f 114/114/114 126/126/126 115/115/115
f 115/115/115 126/126/126 127/127/127
f 115/115/115 127/127/127 116/116/116
f 117/117/117 128/128/128 129/129/129
f 117/117/117 129/129/129 118/118/118
f 118/118/118 129/129/129 130/130/130
f 118/118/118 130/130/130 119/119/119
f 119/119/119 130/130/130 131/131/131
f 119/119/119 131/131/131 120/120/120
f 120/120/120 131/131/131 132/132/132
f 120/120/120 132/132/132 121/121/121
f 121/121/121 132/132/132 133/133/133
f 121/121/121 133/133/133 122/122/122
f 122/122/122 133/133/133 134/134/134
f 122/122/122 134/134/134 123/123/123
f 123/123/123 134/134/134 135/135/135
f 123/123/123 135/135/135 124/124/124
f 124/124/124 135/135/135 136/136/136
f 124/124/124 136/136/136 125/125/125
f 125/125/125 136/136/136 137/137/137
f 125/125/125 137/137/137 126/126/126
f 126/126/126 137/137/137 138/138/138
f 126/126/126 138/138/138 127/127/127
f 128/128/128 139/139/139 140/140/140
f 128/128/128 140/140/140 129/129/129
f 129/129/129 140/140/140 141/141/141
f 129/129/129 141/141/141 130/130/130
f 130/130/130 141/141/141 142/142/142
f 130/130/130 142/142/142 131/131/131
f 131/131/131 142/142/142 143/143/143
f 131/131/131 143/143/143 132/132/132
f 132/132/132 143/143/143 144/144/144
f 132/132/132 144/144/144 133/133/133
f 133/133/133 144/144/144 145/145/145
f 133/133/133 145/145/145 134/134/134
f 134/134/134 145/145/145 146/146/146
f 134/134/134 146/146/146 135/135/135
f 135/135/135 146/146/146 147/147/147
f 135/135/135 147/147/147 136/136/136
f 136/136/136 147/147/147 148/148/148
f 136/136/136 148/148/148 137/137/137
f 137/137/137 148/148/148 149/149/149
f 137/137/137 149/149/149 138/138/138
f 150/150/150 161/161/161 162/162/162
f 150/150/150 162/162/162 151/151/151
f 151/151/151 162/162/162 163/163/163
f 151/151/151 163/163/163 152/152/152
f 152/152/152 163/163/163 164/164/164
f 152/152/152 164/164/164 153/153/153
f 153/153/153 164/164/164 165/165/165
f 153/153/153 165/165/165 154/154/154
f 154/154/154 165/165/165 166/166/166
f 154/154/154 166/166/166 155/155/155
f 155/155/155 166/166/166 167/167/167
f 155/155/155 167/167/167 156/156/156
f 156/156/156 167/167/167 168/168/168
f 156/156/156 168/168/168 157/157/157
f 157/157/157 168/168/168 169/169/169
f 157/157/157 169/169/169 158/158/158
f 158/158/158 169/169/169 170/170/170
f 158/158/158 170/170/170 159/159/159
f 159/159/159 170/170/170 171/171/171
f 159/159/159 171/171/171 160/160/160
f 161/161/161 172/172/172 173/173/173
f 161/161/161 173/173/173 162/162/162
f 162/162/162 173/173/173 174/174/174
f 162/162/162 174/174/174 163/163/163
f 163/163/163 174/174/174 175/175/175
f 163/163/163 175/175/175 164/164/164
f 164/164/164 175/175/175 176/176/176
f 164/164/164 176/176/176 165/165/165
f 165/165/165 176/176/176 177/177/177
f 165/165/165 177/177/177 166/166/166
f 166/166/166 177/177/177 178/178/178
f 166/166/166 178/178/178 167/167/167
f 167/167/167 178/178/178 179/179/179
f 167/167/167 179/179/179 168/168/168
f 168/168/168 179/179/179 180/180/180
f 168/168/168 180/180/180 169/169/169
f 169/169/169 180/180/180 181/181/181
f 169/169/169 181/181/181 170/170/170
f 170/170/170 181/181/181 182/182/182
f 170/170/170 182/182/182 171/171/171
f 172/172/172 183/183/183 184/184/184
f 172/172/172 184/184/184 173/173/173
f 173/173/173 184/184/184 185/185/185
f 173/173/173 185/185/185 174/174/174
f 174/174/174 185/185/185 186/186/186
f 174/174/174 186/186/186 175/175/175
f 175/175/175 186/186/186 187/187/187
f 175/175/175 187/187/187 176/176/176
f 176/176/176 187/187/187 188/188/188
f 176/176/176 188/188/188 177/177/177
f 177/177/177 188/188/188 189/189/189
f 177/177/177 189/189/189 178/178/178
f 178/178/178 189/189/189 190/190/190
f 178/178/178 190/190/190 179/179/179
f 179/179/179 190/190/190 191/191/191
f 179/179/179 191/191/191 180/180/180
f 180/180/180 191/191/191 192/192/192
f 180/180/180 192/192/192 181/181/181
f 181/181/181 192/192/192 193/193/193
f 181/181/181 193/193/193 182/182/182
f 183/183/183 194/194/194 195/195/195
f 183/183/183 195/195/195 184/184/184
f 184/184/184 195/195/195 196/196/196
f 184/184/184 196/196/196 185/185/185
f 185/185/185 196/196/196 197/197/197
f 185/185/185 197/197/197 186/186/186
f 186/186/186 197/197/197 198/198/198
f 186/186/186 198/198/198 187/187/187
f 187/187/187 198/198/198 199/199/199
f 187/187/187 199/199/199 188/188/188
f 188/188/188 199/199/199 200/200/200
f 188/188/188 200/200/200 189/189/189
f 189/189/189 200/200/200 201/201/201
f 189/189/189 201/201/201 190/190/190
f 190/190/190 201/201/201 202/202/202
f 190/190/190 202/202/202 191/191/191
f 191/191/191 202/202/202 203/203/203
f 191/191/191 203/203/203 192/192/192
f 192/192/192 203/203/203 204/204/204
f 192/192/192 204/204/204 193/193/193
f 194/194/194 205/205/205 206/206/206
f 194/194/194 206/206/206 195/195/195
f 195/195/195 206/206/206 207/207/207
f 195/195/195 207/207/207 196/196/196
f 196/196/196 207/207/207 208/208/208
f 196/196/196 208/208/208 197/197/197
f 197/197/197 208/208/208 209/209/209
f 197/197/197 209/209/209 198/198/198
f 198/198/198 209/209/209 210/210/210
f 198/198/198 210/210/210 199/199/199
f 199/199/199 210/210/210 211/211/211
f 199/199/199 211/211/211 200/200/200
f 200/200/200 211/211/211 212/212/212
f 200/200/200 212/212/212 201/201/201
f 201/201/201 212/212/212 213/213/213
f 201/201/201 213/213/213 202/202/202
f 202/202/202 213/213/213 214/214/214
f 202/202/202 214/214/214 203/203/203
f 203/203/203 214/214/214 215/215/215
f 203/203/203 215/215/215 204/204/204
f 205/205/205 216/216/216 217/217/217
f 205/205/205 217/217/217 206/206/206
f 206/206/206 217/217/217 218/218/218
f 206/206/206 218/218/218 207/207/207
f 207/207/207 218/218/218 219/219/219
f 207/207/207 219/219/219 208/208/208
f 208/208/208 219/219/219 220/220/220
f 208/208/208 220/220/220 209/209/209
f 209/209/209 220/220/220 221/221/221
f 209/209/209 221/221/221 210/210/210
f 210/210/210 221/221/221 222/222/222
f 210/210/210 222/222/222 211/211/211
f 211/211/211 222/222/222 223/223/223
f 211/211/211 223/223/223 212/212/212
f 212/212/212 223/223/223 224/224/224
f 212/212/212 224/224/224 213/213/213
f 213/213/213 224/224/224 225/225/225
f 213/213/213 225/225/225 214/214/214
f 214/214/214 225/225/225 226/226/226
f 214/214/214 226/226/226 215/215/215
f 227/227/227 238/238/238 239/239/239
f 227/227/227 239/239/239 228/228/228
f 228/228/228 239/239/239 240/240/240
f 228/228/228 240/240/240 229/229/229
f 229/229/229 240/240/240 241/241/241
f 229/229/229 241/241/241 230/230/230
f 230/230/230 241/241/241 242/242/242
f 230/230/230 242/242/242 231/231/231
f 231/231/231 242/242/242 243/243/243
f 231/231/231 243/243/243 232/232/232
f 232/232/232 243/243/243 244/244/244
f 232/232/232 244/244/244 233/233/233
f 233/233/233 244/244/244 245/245/245
f 233/233/233 245/245/245 234/234/234
f 234/234/234 245/245/245 246/246/246
f 234/234/234 246/246/246 235/235/235
f 235/235/235 246/246/246 247/247/247
f 235/235/235 247/247/247 236/236/236
f 236/236/236 247/247/247 248/248/248
f 236/236/236 248/248/248 237/237/237
f 238/238/238 249/249/249 250/250/250
f 238/238/238 250/250/250 239/239/239
f 239/239/239 250/250/250 251/251/251
f 239/239/239 251/251/251 240/240/240
f 240/240/240 251/251/251 252/252/252
f 240/240/240 252/252/252 241/241/241
f 241/241/241 252/252/252 253/253/253
f 241/241/241 253/253/253 242/242/242
f 242/242/242 253/253/253 254/254/254
f 242/242/242 254/254/254 243/243/243
f 243/243/243 254/254/254 255/255/255
f 243/243/243 255/255/255 244/244/244
f 244/244/244 255/255/255 256/256/256
f 244/244/244 256/256/256 245/245/245
f 245/245/245 256/256/256 257/257/257
f 245/245/245 257/257/257 246/246/246
f 246/246/246 257/257/257 258/258/258
f 246/246/246 258/258/258 247/247/247
f 247/247/247 258/258/258 259/259/259
f 247/247/247 259/259/259 248/248/248
f 249/249/249 260/260/260 261/261/261
f 249/249/249 261/261/261 250/250/250
f 250/250/250 261/261/261 262/262/262
f 250/250/250 262/262/262 251/251/251
f 251/251/251 262/262/262 263/263/263
f 251/251/251 263/263/263 252/252/252
f 252/252/252 263/263/263 264/264/264
f 252/252/252 264/264/264 253/253/253
f 253/253/253 264/264/264 265/265/265
f 253/253/253 265/265/265 254/254/254
f 254/254/254 265/265/265 266/266/266
f 254/254/254 266/266/266 255/255/255
f 255/255/255 266/266/266 267/267/267
f 255/255/255 267/267/267 256/256/256
f 256/256/256 267/267/267 268/268/268
f 256/256/256 268/268/268 257/257/257
f 257/257/257 268/268/268 269/269/269
f 257/257/257 269/269/269 258/258/258
f 258/258/258 269/269/269 270/270/270
f 258/258/258 270/270/270 259/259/259
f 260/260/260 271/271/271 272/272/272
f 260/260/260 272/272/272 261/261/261
f 261/261/261 272/272/272 273/273/273
f 261/261/261 273/273/273 262/262/262
f 262/262/262 273/273/273 274/274/274
f 262/262/262 274/274/274 263/263/263
f 263/263/263 274/274/274 275/275/275
f 263/263/263 275/275/275 264/264/264
f 264/264/264 275/275/275 276/276/276
f 264/264/264 276/276/276 265/265/265
f 265/265/265 276/276/276 277/277/277
f 265/265/265 277/277/277 266/266/266
f 266/266/266 277/277/277 278/278/278
f 266/266/266 278/278/278 267/267/267
f 267/267/267 278/278/278 279/279/279
f 267/267/267 279/279/279 268/268/268
f 268/268/268 279/279/279 280/280/280
f 268/268/268 280/280/280 269/269/269
f 269/269/269 280/280/280 281/281/281
f 269/269/269 281/281/281 270/270/270
f 271/271/271 282/282/282 283/283/283
f 271/271/271 283/283/283 272/272/272
f 272/272/272 283/283/283 284/284/284
f 272/272/272 284/284/284 273/273/273
f 273/273/273 284/284/284 285/285/285
f 273/273/273 285/285/285 274/274/274
f 274/274/274 285/285/285 286/286/286
f 274/274/274 286/286/286 275/275/275
f 275/275/275 286/286/286 287/287/287
f 275/275/275 287/287/287 276/276/276
f 276/276/276 287/287/287 288/288/288
f 276/276/276 288/288/288 277/277/277
f 277/277/277 288/288/288 289/289/289
f 277/277/277 289/289/289 278/278/278
f 278/278/278 289/289/289 290/290/290
f 278/278/278 290/290/290 279/279/279
f 279/279/279 290/290/290 291/291/291
f 279/279/279 291/291/291 280/280/280
f 280/280/280 291/291/291 292/292/292
f 280/280/280 292/292/292 281/281/281
f 282/282/282 293/293/293 294/294/294
f 282/282/282 294/294/294 283/283/283
f 283/283/283 294/294/294 295/295/295
f 283/283/283 295/295/295 284/284/284
f 284/284/284 295/295/295 296/296/296
f 284/284/284 296/296/296 285/285/285
f 285/285/285 296/296/296 297/297/297
f 285/285/285 297/297/297 286/286/286
f 286/286/286 297/297/297 298/298/298
f 286/286/286 298/298/298 287/287/287
f 287/287/287 298/298/298 299/299/299
f 287/287/287 299/299/299 288/288/288
f 288/288/288 299/299/299 300/300/300
f 288/288/288 300/300/300 289/289/289
f 289/289/289 300/300/300 301/301/301
f 289/289/289 301/301/301 290/290/290
f 290/290/290 301/301/301 302/302/302
f 290/290/290 302/302/302 291/291/291
f 291/291/291 302/302/302 303/303/303
f 291/291/291 303/303/303 292/292/292
f 304/304/304 315/315/315 316/316/316
f 304/304/304 316/316/316 305/305/305
f 305/305/305 316/316/316 317/317/317
f 305/305/305 317/317/317 306/306/306
f 306/306/306 317/317/317 318/318/318
f 306/306/306 318/318/318 307/307/307
f 307/307/307 318/318/318 319/319/319
f 307/307/307 319/319/319 308/308/308
f 308/308/308 319/319/319 320/320/320
f 308/308/308 320/320/320 309/309/309
f 309/309/309 320/320/320 321/321/321
f 309/309/309 321/321/321 310/310/310
f 310/310/310 321/321/321 322/322/322
f 310/310/310 322/322/322 311/311/311
f 311/311/311 322/322/322 323/323/323
f 311/311/311 323/323/323 312/312/312
f 312/312/312 323/323/323 324/324/324
f 312/312/312 324/324/324 313/313/313
f 313/313/313 324/324/324 325/325/325
f 313/313/313 325/325/325 314/314/314
f 315/315/315 326/326/326 327/327/327
f 315/315/315 327/327/327 316/316/316
f 316/316/316 327/327/327 328/328/328
f 316/316/316 328/328/328 317/317/317
f 317/317/317 328/328/328 329/329/329
f 317/317/317 329/329/329 318/318/318
f 318/318/318 329/329/329 330/330/330
f 318/318/318 330/330/330 319/319/319
f 319/319/319 330/330/330 331/331/331
f 319/319/319 331/331/331 320/320/320
f 320/320/320 331/331/331 332/332/332
f 320/320/320 332/332/332 321/321/321
f 321/321/321 332/332/332 333/333/333
f 321/321/321 333/333/333 322/322/322
f 322/322/322 333/333/333 334/334/334
f 322/322/322 334/334/334 323/323/323
f 323/323/323 334/334/334 335/335/335
f 323/323/323 335/335/335 324/324/324
f 324/324/324 335/335/335 336/336/336
f 324/324/324 336/336/336 325/325/325
f 326/326/326 337/337/337 338/338/338
f 326/326/326 338/338/338 327/327/327
f 327/327/327 338/338/338 339/339/339
f 327/327/327 339/339/339 328/328/328
f 328/328/328 339/339/339 340/340/340
f 328/328/328 340/340/340 329/329/329
f 329/329/329 340/340/340 341/341/341
f 329/329/329 341/341/341 330/330/330
f 330/330/330 341/341/341 342/342/342
f 330/330/330 342/342/342 331/331/331
f 331/331/331 342/342/342 343/343/343
f 331/331/331 343/343/343 332/332/332
f 332/332/332 343/343/343 344/344/344
f 332/332/332 344/344/344 333/333/333
f 333/333/333 344/344/344 345/345/345
f 333/333/333 345/345/345 334/334/334
f 334/334/334 345/345/345 346/346/346
f 334/334/334 346/346/346 335/335/335
f 335/335/335 346/346/346 347/347/347
f 335/335/335 347/347/347 336/336/336
f 337/337/337 348/348/348 349/349/349
f 337/337/337 349/349/349 338/338/338
f 338/338/338 349/349/349 350/350/350
f 338/338/338 350/350/350 339/339/339
f 339/339/339 350/350/350 351/351/351
f 339/339/339 351/351/351 340/340/340
f 340/340/340 351/351/351 352/352/352
f 340/340/340 352/352/352 341/341/341
f 341/341/341 352/352/352 353/353/353
f 341/341/341 353/353/353 342/342/342
f 342/342/342 353/353/353 354/354/354
f 342/342/342 354/354/354 343/343/343
f 343/343/343 354/354/354 355/355/355
f 343/343/343 355/355/355 344/344/344
f 344/344/344 355/355/355 356/356/356
f 344/344/344 356/356/356 345/345/345
f 345/345/345 356/356/356 357/357/357
f 345/345/345 357/357/357 346/346/346
f 346/346/346 357/357/357 358/358/358
f 346/346/346 358/358/358 347/347/347
f 348/348/348 359/359/359 360/360/360
f 348/348/348 360/360/360 349/349/349
f 349/349/349 360/360/360 361/361/361
f 349/349/349 361/361/361 350/350/350
f 350/350/350 361/361/361 362/362/362
f 350/350/350 362/362/362 351/351/351
f 351/351/351 362/362/362 363/363/363
f 351/351/351 363/363/363 352/352/352
f 352/352/352 363/363/363 364/364/364
f 352/352/352 364/364/364 353/353/353
f 353/353/353 364/364/364 365/365/365
f 353/353/353 365/365/365 354/354/354
f 354/354/354 365/365/365 366/366/366
f 354/354/354 366/366/366 355/355/355
f 355/355/355 366/366/366 367/367/367
f 355/355/355 367/367/367 356/356/356
f 356/356/356 367/367/367 368/368/368
f 356/356/356 368/368/368 357/357/357
f 357/357/357 368/368/368 369/369/369
f 357/357/357 369/369/369 358/358/358
f 359/359/359 370/370/370 371/371/371
f 359/359/359 371/371/371 360/360/360
f 360/360/360 371/371/371 372/372/372
f 360/360/360 372/372/372 361/361/361
f 361/361/361 372/372/372 373/373/373
f 361/361/361 373/373/373 362/362/362
f 362/362/362 373/373/373 374/374/374
f 362/362/362 374/374/374 363/363/363
f 363/363/363 374/374/374 375/375/375
f 363/363/363 375/375/375 364/364/364
f 364/364/364 375/375/375 376/376/376
f 364/364/364 376/376/376 365/365/365
f 365/365/365 376/376/376 377/377/377
f 365/365/365 377/377/377 366/366/366
f 366/366/366 377/377/377 378/378/378
f 366/366/366 378/378/378 367/367/367
f 367/367/367 378/378/378 379/379/379
f 367/367/367 379/379/379 368/368/368
f 368/368/368 379/379/379 380/380/380
f 368/368/368 380/380/380 369/369/369
f 381/381/381 392/392/392 393/393/393
f 381/381/381 393/393/393 382/382/382
f 382/382/382 393/393/393 394/394/394
f 382/382/382 394/394/394 383/383/383
f 383/383/383 394/394/394 395/395/395
f 383/383/383 395/395/395 384/384/384
f 384/384/384 395/395/395 396/396/396
f 384/384/384 396/396/396 385/385/385
f 385/385/385 396/396/396 397/397/397
f 385/385/385 397/397/397 386/386/386
f 386/386/386 397/397/397 398/398/398
f 386/386/386 398/398/398 387/387/387
f 387/387/387 398/398/398 399/399/399
f 387/387/387 399/399/399 388/388/388
f 388/388/388 399/399/399 400/400/400
f 388/388/388 400/400/400 389/389/389
f 389/389/389 400/400/400 401/401/401
f 389/389/389 401/401/401 390/390/390
f 390/390/390 401/401/401 402/402/402
f 390/390/390 402/402/402 391/391/391
f 392/392/392 403/403/403 404/404/404
f 392/392/392 404/404/404 393/393/393
f 393/393/393 404/404/404 405/405/405
f 393/393/393 405/405/405 394/394/394
f 394/394/394 405/405/405 406/406/406
f 394/394/394 406/406/406 395/395/395
f 395/395/395 406/406/406 407/407/407
f 395/395/395 407/407/407 396/396/396
f 396/396/396 407/407/407 408/408/408
f 396/396/396 408/408/408 397/397/397
f 397/397/397 408/408/408 409/409/409
f 397/397/397 409/409/409 398/398/398
f 398/398/398 409/409/409 410/410/410
f 398/398/398 410/410/410 399/399/399
f 399/399/399 410/410/410 411/411/411
f 399/399/399 411/411/411 400/400/400
f 400/400/400 411/411/411 412/412/412
f 400/400/400 412/412/412 401/401/401
f 401/401/401 412/412/412 413/413/413
f 401/401/401 413/413/413 402/402/402
f 403/403/403 414/414/414 415/415/415
f 403/403/403 415/415/415 404/404/404
f 404/404/404 415/415/415 416/416/416
f 404/404/404 416/416/416 405/405/405
f 405/405/405 416/416/416 417/417/417
f 405/405/405 417/417/417 406/406/406
f 406/406/406 417/417/417 418/418/418
f 406/406/406 418/418/418 407/407/407
f 407/407/407 418/418/418 419/419/419
f 407/407/407 419/419/419 408/408/408
f 408/408/408 419/419/419 420/420/420
f 408/408/408 420/420/420 409/409/409
f 409/409/409 420/420/420 421/421/421
f 409/409/409 421/421/421 410/410/410
f 410/410/410 421/421/421 422/422/422
f 410/410/410 422/422/422 411/411/411
f 411/411/411 422/422/422 423/423/423
f 411/411/411 423/423/423 412/412/412
f 412/412/412 423/423/423 424/424/424
f 412/412/412 424/424/424 413/413/413
f 414/414/414 425/425/425 426/426/426
f 414/414/414 426/426/426 415/415/415
f 415/415/415 426/426/426 427/427/427
f 415/415/415 427/427/427 416/416/416
f 416/416/416 427/427/427 428/428/428
f 416/416/416 428/428/428 417/417/417
f 417/417/417 428/428/428 429/429/429
f 417/417/417 429/429/429 418/418/418
f 418/418/418 429/429/429 430/430/430
f 418/418/418 430/430/430 419/419/419
f 419/419/419 430/430/430 431/431/431
f 419/419/419 431/431/431 420/420/420
f 420/420/420 431/431/431 432/432/432
f 420/420/420 432/432/432 421/421/421
f 421/421/421 432/432/432 433/433/433
f 421/421/421 433/433/433 422/422/422
f 422/422/422 433/433/433 434/434/434
f 422/422/422 434/434/434 423/423/423
f 423/423/423 434/434/434 435/435/435
f 423/423/423 435/435/435 424/424/424
f 425/425/425 436/436/436 437/437/437
f 425/425/425 437/437/437 426/426/426
f 426/426/426 437/437/437 438/438/438
f 426/426/426 438/438/438 427/427/427
f 427/427/427 438/438/438 439/439/439
f 427/427/427 439/439/439 428/428/428
f 428/428/428 439/439/439 440/440/440
f 428/428/428 440/440/440 429/429/429
f 429/429/429 440/440/440 441/441/441
f 429/429/429 441/441/441 430/430/430
f 430/430/430 441/441/441 442/442/442
f 430/430/430 442/442/442 431/431/431
f 431/431/431 442/442/442 443/443/443
f 431/431/431 443/443/443 432/432/432
f 432/432/432 443/443/443 444/444/444
f 432/432/432 444/444/444 433/433/433
f 433/433/433 444/444/444 445/445/445
f 433/433/433 445/445/445 434/434/434
f 434/434/434 445/445/445 446/446/446
f 434/434/434 446/446/446 435/435/435
f 436/436/436 447/447/447 448/448/448
f 436/436/436 448/448/448 437/437/437
f 437/437/437 448/448/448 449/449/449
f 437/437/437 449/449/449 438/438/438
f 438/438/438 449/449/449 450/450/450
f 438/438/438 450/450/450 439/439/439
f 439/439/439 450/450/450 451/451/451
f 439/439/439 451/451/451 440/440/440
f 440/440/440 451/451/451 452/452/452
f 440/440/440 452/452/452 441/441/441
f 441/441/441 452/452/452 453/453/453
f 441/441/441 453/453/453 442/442/442
f 442/442/442 453/453/453 454/454/454
f 442/442/442 454/454/454 443/443/443
f 443/443/443 454/454/454 455/455/455
f 443/443/443 455/455/455 444/444/444
f 444/444/444 455/455/455 456/456/456
f 444/444/444 456/456/456 445/445/445
f 445/445/445 456/456/456 457/457/457
f 445/445/445 457/457/457 446/446/446
f 458/458/458 469/469/469 470/470/470
f 458/458/458 470/470/470 459/459/459
f 459/459/459 470/470/470 471/471/471
f 459/459/459 471/471/471 460/460/460
f 460/460/460 471/471/471 472/472/472
f 460/460/460 472/472/472 461/461/461
f 461/461/461 472/472/472 473/473/473
f 461/461/461 473/473/473 462/462/462
f 462/462/462 473/473/473 474/474/474
f 462/462/462 474/474/474 463/463/463
f 463/463/463 474/474/474 475/475/475
f 463/463/463 475/475/475 464/464/464
f 464/464/464 475/475/475 476/476/476
f 464/464/464 476/476/476 465/465/465
f 465/465/465 476/476/476 477/477/477
f 465/465/465 477/477/477 466/466/466
f 466/466/466 477/477/477 478/478/478
f 466/466/466 478/478/478 467/467/467
f 467/467/467 478/478/478 479/479/479
f 467/467/467 479/479/479 468/468/468
f 469/469/469 480/480/480 481/481/481
f 469/469/469 481/481/481 470/470/470
f 470/470/470 481/481/481 482/482/482
f 470/470/470 482/482/482 471/471/471
f 471/471/471 482/482/482 483/483/483
f 471/471/471 483/483/483 472/472/472
f 472/472/472 483/483/483 484/484/484
f 472/472/472 484/484/484 473/473/473
f 473/473/473 484/484/484 485/485/485
f 473/473/473 485/485/485 474/474/474
f 474/474/474 485/485/485 486/486/486
f 474/474/474 486/486/486 475/475/475
f 475/475/475 486/486/486 487/487/487
f 475/475/475 487/487/487 476/476/476
f 476/476/476 487/487/487 488/488/488
f 476/476/476 488/488/488 477/477/477
f 477/477/477 488/488/488 489/489/489
f 477/477/477 489/489/489 478/478/478
f 478/478/478 489/489/489 490/490/490
f 478/478/478 490/490/490 479/479/479
f 480/480/480 491/491/491 492/492/492
f 480/480/480 492/492/492 481/481/481
f 481/481/481 492/492/492 493/493/493
f 481/481/481 493/493/493 482/482/482
f 482/482/482 493/493/493 494/494/494
f 482/482/482 494/494/494 483/483/483
f 483/483/483 494/494/494 495/495/495
f 483/483/483 495/495/495 484/484/484
f 484/484/484 495/495/495 496/496/496
f 484/484/484 496/496/496 485/485/485
f 485/485/485 496/496/496 497/497/497
f 485/485/485 497/497/497 486/486/486
f 486/486/486 497/497/497 498/498/498
f 486/486/486 498/498/498 487/487/487
f 487/487/487 498/498/498 499/499/499
f 487/487/487 499/499/499 488/488/488
f 488/488/488 499/499/499 500/500/500
f 488/488/488 500/500/500 489/489/489
f 489/489/489 500/500/500 501/501/501
f 489/489/489 501/501/501 490/490/490
f 491/491/491 502/502/502 503/503/503
f 491/491/491 503/503/503 492/492/492
f 492/492/492 503/503/503 504/504/504
f 492/492/492 504/504/504 493/493/493
f 493/493/493 504/504/504 505/505/505
f 493/493/493 505/505/505 494/494/494
f 494/494/494 505/505/505 506/506/506
f 494/494/494 506/506/506 495/495/495
f 495/495/495 506/506/506 507/507/507
f 495/495/495 507/507/507 496/496/496
f 496/496/496 507/507/507 508/508/508
f 496/496/496 508/508/508 497/497/497
f 497/497/497 508/508/508 509/509/509
f 497/497/497 509/509/509 498/498/498
f 498/498/498 509/509/509 510/510/510
f 498/498/498 510/510/510 499/499/499
f 499/499/499 510/510/510 511/511/511
f 499/499/499 511/511/511 500/500/500
f 500/500/500 511/511/511 512/512/512
f 500/500/500 512/512/512 501/501/501
f 502/502/502 513/513/513 514/514/514
f 502/502/502 514/514/514 503/503/503
f 503/503/503 514/514/514 515/515/515
f 503/503/503 515/515/515 504/504/504
f 504/504/504 515/515/515 516/516/516
f 504/504/504 516/516/516 505/505/505
f 505/505/505 516/516/516 517/517/517
f 505/505/505 517/517/517 506/506/506
f 506/506/506 517/517/517 518/518/518
f 506/506/506 518/518/518 507/507/507
f 507/507/507 518/518/518 519/519/519
f 507/507/507 519/519/519 508/508/508
f 508/508/508 519/519/519 520/520/520
f 508/508/508 520/520/520 509/509/509
f 509/509/509 520/520/520 521/521/521
f 509/509/509 521/521/521 510/510/510
f 510/510/510 521/521/521 522/522/522
f 510/510/510 522/522/522 511/511/511
f 511/511/511 522/522/522 523/523/523
f 511/511/511 523/523/523 512/512/512
f 513/513/513 524/524/524 525/525/525
f 513/513/513 525/525/525 514/514/514
f 514/514/514 525/525/525 526/526/526
f 514/514/514 526/526/526 515/515/515
f 515/515/515 526/526/526 527/527/527
f 515/515/515 527/527/527 516/516/516
f 516/516/516 527/527/527 528/528/528
f 516/516/516 528/528/528 517/517/517
f 517/517/517 528/528/528 529/529/529
f 517/517/517 529/529/529 518/518/518
f 518/518/518 529/529/529 530/530/530
f 518/518/518 530/530/530 519/519/519
f 519/519/519 530/530/530 531/531/531
f 519/519/519 531/531/531 520/520/520
f 520/520/520 531/531/531 532/532/532
f 520/520/520 532/532/532 521/521/521
f 521/521/521 532/532/532 533/533/533
f 521/521/521 533/533/533 522/522/522
f 522/522/522 533/533/533 534/534/534
f 522/522/522 534/534/534 523/523/523
f 535/535/535 546/546/546 547/547/547
f 535/535/535 547/547/547 536/536/536
f 536/536/536 547/547/547 548/548/548
f 536/536/536 548/548/548 537/537/537
f 537/537/537 548/548/548 549/549/549
f 537/537/537 549/549/549 538/538/538
f 538/538/538 549/549/549 550/550/550
f 538/538/538 550/550/550 539/539/539
f 539/539/539 550/550/550 551/551/551
f 539/539/539 551/551/551 540/540/540
f 540/540/540 551/551/551 552/552/552
f 540/540/540 552/552/552 541/541/541
f 541/541/541 552/552/552 553/553/553
f 541/541/541 553/553/553 542/542/542
f 542/542/542 553/553/553 554/554/554
f 542/542/542 554/554/554 543/543/543
f 543/543/543 554/554/554 555/555/555
f 543/543/543 555/555/555 544/544/544
f 544/544/544 555/555/555 556/556/556
f 544/544/544 556/556/556 545/545/545
f 546/546/546 557/557/557 558/558/558
f 546/546/546 558/558/558 547/547/547
f 547/547/547 558/558/558 559/559/559
f 547/547/547 559/559/559 548/548/548
f 548/548/548 559/559/559 560/560/560
f 548/548/548 560/560/560 549/549/549
f 549/549/549 560/560/560 561/561/561
f 549/549/549 561/561/561 550/550/550
f 550/550/550 561/561/561 562/562/562
f 550/550/550 562/562/562 551/551/551
f 551/551/551 562/562/562 563/563/563
f 551/551/551 563/563/563 552/552/552
f 552/552/552 563/563/563 564/564/564
f 552/552/552 564/564/564 553/553/553
f 553/553/553 564/564/564 565/565/565
f 553/553/553 565/565/565 554/554/554
f 554/554/554 565/565/565 566/566/566
f 554/554/554 566/566/566 555/555/555
f 555/555/555 566/566/566 567/567/567
f 555/555/555 567/567/567 556/556/556
f 557/557/557 568/568/568 569/569/569
f 557/557/557 569/569/569 558/558/558
f 558/558/558 569/569/569 570/570/570
f 558/558/558 570/570/570 559/559/559
f 559/559/559 570/570/570 571/571/571
f 559/559/559 571/571/571 560/560/560
f 560/560/560 571/571/571 572/572/572
f 560/560/560 572/572/572 561/561/561
f 561/561/561 572/572/572 573/573/573
f 561/561/561 573/573/573 562/562/562
f 562/562/562 573/573/573 574/574/574
f 562/562/562 574/574/574 563/563/563
f 563/563/563 574/574/574 575/575/575
f 563/563/563 575/575/575 564/564/564
f 564/564/564 575/575/575 576/576/576
f 564/564/564 576/576/576 565/565/565
f 565/565/565 576/576/576 577/577/577
f 565/565/565 577/577/577 566/566/566
f 566/566/566 577/577/577 578/578/578
f 566/566/566 578/578/578 567/567/567
f 568/568/568 579/579/579 580/580/580
f 568/568/568 580/580/580 569/569/569
f 569/569/569 580/580/580 581/581/581
f 569/569/569 581/581/581 570/570/570
f 570/570/570 581/581/581 582/582/582
f 570/570/570 582/582/582 571/571/571
f 571/571/571 582/582/582 583/583/583
f 571/571/571 583/583/583 572/572/572
f 572/572/572 583/583/583 584/584/584
f 572/572/572 584/584/584 573/573/573
f 573/573/573 584/584/584 585/585/585
f 573/573/573 585/585/585 574/574/574
f 574/574/574 585/585/585 586/586/586
f 574/574/574 586/586/586 575/575/575
f 575/575/575 586/586/586 587/587/587
f 575/575/575 587/587/587 576/576/576
f 576/576/576 587/587/587 588/588/588
f 576/576/576 588/588/588 577/577/577
f 577/577/577 588/588/588 589/589/589
f 577/577/577 589/589/589 578/578/578
f 579/579/579 590/590/590 591/591/591
f 579/579/579 591/591/591 580/580/580
f 580/580/580 591/591/591 592/592/592
f 580/580/580 592/592/592 581/581/581
f 581/581/581 592/592/592 593/593/593
f 581/581/581 593/593/593 582/582/582
f 582/582/582 593/593/593 594/594/594
f 582/582/582 594/594/594 583/583/583
f 583/583/583 594/594/594 595/595/595
f 583/583/583 595/595/595 584/584/584
f 584/584/584 595/595/595 596/596/596
f 584/584/584 596/596/596 585/585/585
f 585/585/585 596/596/596 597/597/597
f 585/585/585 597/597/597 586/586/586
f 586/586/586 597/597/597 598/598/598
f 586/586/586 598/598/598 587/587/587
f 587/587/587 598/598/598 599/599/599
f 587/587/587 599/599/599 588/588/588
f 588/588/588 599/599/599 600/600/600
f 588/588/588 600/600/600 589/589/589
f 590/590/590 601/601/601 602/602/602
f 590/590/590 602/602/602 591/591/591
f 591/591/591 602/602/602 603/603/603
f 591/591/591 603/603/603 592/592/592
f 592/592/592 603/603/603 604/604/604
f 592/592/592 604/604/604 593/593/593
f 593/593/593 604/604/604 605/605/605
f 593/593/593 605/605/605 594/594/594
f 594/594/594 605/605/605 606/606/606
f 594/594/594 606/606/606 595/595/595
f 595/595/595 606/606/606 607/607/607
f 595/595/595 607/607/607 596/596/596
f 596/596/596 607/607/607 608/608/608
f 596/596/596 608/608/608 597/597/597
f 597/597/597 608/608/608 609/609/609
f 597/597/597 609/609/609 598/598/598
f 598/598/598 609/609/609 610/610/610
f 598/598/598 610/610/610 599/599/599
f 599/599/599 610/610/610 611/611/611
f 599/599/599 611/611/611 600/600/600