# 3D Model: vehicle/bike/W1siZiIsIjIwMjI3L3Byb2R1Y3RzLzUxMDUzOTE3LzE3MzEyMjk4ODZfMWYwY2U5MjhkNjlmMDAzY2Y4YzEucG5nIl0sWyJwIiwidGh1bWIiLCI2MDB4NjAwIl1d (v6 Gemini)
# Style: realistic | Symmetry: symmetric
# Dimensions: 2.3 x 0.89 x 1.029 m
# Triangles: 1064 | Vertices: 615
v 0.975 0.28 0
v 0.9525 0.319 0
v 0.9075 0.319 0
v 0.885 0.28 0
v 0.9075 0.241 0
v 0.9525 0.241 0
v 0.975 0.28 0
v 0.9129 0.28 0.191
v 0.8947 0.319 0.1778
v 0.8583 0.319 0.1514
v 0.8401 0.28 0.1381
v 0.8583 0.241 0.1514
v 0.8947 0.241 0.1778
v 0.9129 0.28 0.191
v 0.7504 0.28 0.3091
v 0.7435 0.319 0.2877
v 0.7296 0.319 0.2449
v 0.7226 0.28 0.2235
v 0.7296 0.241 0.2449
v 0.7435 0.241 0.2877
v 0.7504 0.28 0.3091
v 0.5496 0.28 0.3091
v 0.5565 0.319 0.2877
v 0.5704 0.319 0.2449
v 0.5774 0.28 0.2235
v 0.5704 0.241 0.2449
v 0.5565 0.241 0.2877
v 0.5496 0.28 0.3091
v 0.3871 0.28 0.191
v 0.4053 0.319 0.1778
v 0.4417 0.319 0.1514
v 0.4599 0.28 0.1381
v 0.4417 0.241 0.1514
v 0.4053 0.241 0.1778
v 0.3871 0.28 0.191
v 0.325 0.28 0
v 0.3475 0.319 0
v 0.3925 0.319 0
v 0.415 0.28 0
v 0.3925 0.241 0
v 0.3475 0.241 0
v 0.325 0.28 0
v 0.3871 0.28 -0.191
v 0.4053 0.319 -0.1778
v 0.4417 0.319 -0.1514
v 0.4599 0.28 -0.1381
v 0.4417 0.241 -0.1514
v 0.4053 0.241 -0.1778
v 0.3871 0.28 -0.191
v 0.5496 0.28 -0.3091
v 0.5565 0.319 -0.2877
v 0.5704 0.319 -0.2449
v 0.5774 0.28 -0.2235
v 0.5704 0.241 -0.2449
v 0.5565 0.241 -0.2877
v 0.5496 0.28 -0.3091
v 0.7504 0.28 -0.3091
v 0.7435 0.319 -0.2877
v 0.7296 0.319 -0.2449
v 0.7226 0.28 -0.2235
v 0.7296 0.241 -0.2449
v 0.7435 0.241 -0.2877
v 0.7504 0.28 -0.3091
v 0.9129 0.28 -0.191
v 0.8947 0.319 -0.1778
v 0.8583 0.319 -0.1514
v 0.8401 0.28 -0.1381
v 0.8583 0.241 -0.1514
v 0.8947 0.241 -0.1778
v 0.9129 0.28 -0.191
v 0.975 0.28 0
v 0.9525 0.319 0
v 0.9075 0.319 0
v 0.885 0.28 0
v 0.9075 0.241 0
v 0.9525 0.241 0
v 0.975 0.28 0
v 1.15 0.51 0
v 1.15 0.4925 0.088
v 1.15 0.4426 0.1626
v 1.15 0.368 0.2125
v 1.15 0.28 0.23
v 1.15 0.192 0.2125
v 1.15 0.1174 0.1626
v 1.15 0.0675 0.088
v 1.15 0.05 0
v 1.15 0.0675 -0.088
v 1.15 0.1174 -0.1626
v 1.15 0.192 -0.2125
v 1.15 0.28 -0.23
v 1.15 0.368 -0.2125
v 1.15 0.4426 -0.1626
v 1.15 0.4925 -0.088
v 0.15 0.51 0
v 0.15 0.4925 0.088
v 0.15 0.4426 0.1626
v 0.15 0.368 0.2125
v 0.15 0.28 0.23
v 0.15 0.192 0.2125
v 0.15 0.1174 0.1626
v 0.15 0.0675 0.088
v 0.15 0.05 0
v 0.15 0.0675 -0.088
v 0.15 0.1174 -0.1626
v 0.15 0.192 -0.2125
v 0.15 0.28 -0.23
v 0.15 0.368 -0.2125
v 0.15 0.4426 -0.1626
v 0.15 0.4925 -0.088
v 1.15 0.28 0
v 0.15 0.28 0
v -0.325 0.28 0
v -0.3475 0.319 0
v -0.3925 0.319 0
v -0.415 0.28 0
v -0.3925 0.241 0
v -0.3475 0.241 0
v -0.325 0.28 0
v -0.3871 0.28 0.191
v -0.4053 0.319 0.1778
v -0.4417 0.319 0.1514
v -0.4599 0.28 0.1381
v -0.4417 0.241 0.1514
v -0.4053 0.241 0.1778
v -0.3871 0.28 0.191
v -0.5496 0.28 0.3091
v -0.5565 0.319 0.2877
v -0.5704 0.319 0.2449
v -0.5774 0.28 0.2235
v -0.5704 0.241 0.2449
v -0.5565 0.241 0.2877
v -0.5496 0.28 0.3091
v -0.7504 0.28 0.3091
v -0.7435 0.319 0.2877
v -0.7296 0.319 0.2449
v -0.7226 0.28 0.2235
v -0.7296 0.241 0.2449
v -0.7435 0.241 0.2877
v -0.7504 0.28 0.3091
v -0.9129 0.28 0.191
v -0.8947 0.319 0.1778
v -0.8583 0.319 0.1514
v -0.8401 0.28 0.1381
v -0.8583 0.241 0.1514
v -0.8947 0.241 0.1778
v -0.9129 0.28 0.191
v -0.975 0.28 0
v -0.9525 0.319 0
v -0.9075 0.319 0
v -0.885 0.28 0
v -0.9075 0.241 0
v -0.9525 0.241 0
v -0.975 0.28 0
v -0.9129 0.28 -0.191
v -0.8947 0.319 -0.1778
v -0.8583 0.319 -0.1514
v -0.8401 0.28 -0.1381
v -0.8583 0.241 -0.1514
v -0.8947 0.241 -0.1778
v -0.9129 0.28 -0.191
v -0.7504 0.28 -0.3091
v -0.7435 0.319 -0.2877
v -0.7296 0.319 -0.2449
v -0.7226 0.28 -0.2235
v -0.7296 0.241 -0.2449
v -0.7435 0.241 -0.2877
v -0.7504 0.28 -0.3091
v -0.5496 0.28 -0.3091
v -0.5565 0.319 -0.2877
v -0.5704 0.319 -0.2449
v -0.5774 0.28 -0.2235
v -0.5704 0.241 -0.2449
v -0.5565 0.241 -0.2877
v -0.5496 0.28 -0.3091
v -0.3871 0.28 -0.191
v -0.4053 0.319 -0.1778
v -0.4417 0.319 -0.1514
v -0.4599 0.28 -0.1381
v -0.4417 0.241 -0.1514
v -0.4053 0.241 -0.1778
v -0.3871 0.28 -0.191
v -0.325 0.28 0
v -0.3475 0.319 0
v -0.3925 0.319 0
v -0.415 0.28 0
v -0.3925 0.241 0
v -0.3475 0.241 0
v -0.325 0.28 0
v -0.15 0.51 0
v -0.15 0.4925 0.088
v -0.15 0.4426 0.1626
v -0.15 0.368 0.2125
v -0.15 0.28 0.23
v -0.15 0.192 0.2125
v -0.15 0.1174 0.1626
v -0.15 0.0675 0.088
v -0.15 0.05 0
v -0.15 0.0675 -0.088
v -0.15 0.1174 -0.1626
v -0.15 0.192 -0.2125
v -0.15 0.28 -0.23
v -0.15 0.368 -0.2125
v -0.15 0.4426 -0.1626
v -0.15 0.4925 -0.088
v -1.15 0.51 0
v -1.15 0.4925 0.088
v -1.15 0.4426 0.1626
v -1.15 0.368 0.2125
v -1.15 0.28 0.23
v -1.15 0.192 0.2125
v -1.15 0.1174 0.1626
v -1.15 0.0675 0.088
v -1.15 0.05 0
v -1.15 0.0675 -0.088
v -1.15 0.1174 -0.1626
v -1.15 0.192 -0.2125
v -1.15 0.28 -0.23
v -1.15 0.368 -0.2125
v -1.15 0.4426 -0.1626
v -1.15 0.4925 -0.088
v -0.15 0.28 0
v -1.15 0.28 0
v -0.52 0.12 -0.28
v -0.5261 0.0894 -0.28
v -0.5434 0.0634 -0.28
v -0.5694 0.0461 -0.28
v -0.6 0.04 -0.28
v -0.6306 0.0461 -0.28
v -0.6566 0.0634 -0.28
v -0.6739 0.0894 -0.28
v -0.68 0.12 -0.28
v -0.6739 0.1506 -0.28
v -0.6566 0.1766 -0.28
v -0.6306 0.1939 -0.28
v -0.6 0.2 -0.28
v -0.5694 0.1939 -0.28
v -0.5434 0.1766 -0.28
v -0.5261 0.1506 -0.28
v -0.52 0.12 0.72
v -0.5261 0.0894 0.72
v -0.5434 0.0634 0.72
v -0.5694 0.0461 0.72
v -0.6 0.04 0.72
v -0.6306 0.0461 0.72
v -0.6566 0.0634 0.72
v -0.6739 0.0894 0.72
v -0.68 0.12 0.72
v -0.6739 0.1506 0.72
v -0.6566 0.1766 0.72
v -0.6306 0.1939 0.72
v -0.6 0.2 0.72
v -0.5694 0.1939 0.72
v -0.5434 0.1766 0.72
v -0.5261 0.1506 0.72
v -0.6 0.12 -0.28
v -0.6 0.12 0.72
v -0.5 0.12 0.22
v -0.51 0.1373 0.22
v -0.53 0.1373 0.22
v -0.54 0.12 0.22
v -0.53 0.1027 0.22
v -0.51 0.1027 0.22
v -0.5 0.12 0.22
v -0.5191 0.12 0.2788
v -0.5272 0.1373 0.2729
v -0.5434 0.1373 0.2611
v -0.5515 0.12 0.2553
v -0.5434 0.1027 0.2611
v -0.5272 0.1027 0.2729
v -0.5191 0.12 0.2788
v -0.5691 0.12 0.3151
v -0.5722 0.1373 0.3056
v -0.5784 0.1373 0.2866
v -0.5815 0.12 0.2771
v -0.5784 0.1027 0.2866
v -0.5722 0.1027 0.3056
v -0.5691 0.12 0.3151
v -0.6309 0.12 0.3151
v -0.6278 0.1373 0.3056
v -0.6216 0.1373 0.2866
v -0.6185 0.12 0.2771
v -0.6216 0.1027 0.2866
v -0.6278 0.1027 0.3056
v -0.6309 0.12 0.3151
v -0.6809 0.12 0.2788
v -0.6728 0.1373 0.2729
v -0.6566 0.1373 0.2611
v -0.6485 0.12 0.2553
v -0.6566 0.1027 0.2611
v -0.6728 0.1027 0.2729
v -0.6809 0.12 0.2788
v -0.7 0.12 0.22
v -0.69 0.1373 0.22
v -0.67 0.1373 0.22
v -0.66 0.12 0.22
v -0.67 0.1027 0.22
v -0.69 0.1027 0.22
v -0.7 0.12 0.22
v -0.6809 0.12 0.1612
v -0.6728 0.1373 0.1671
v -0.6566 0.1373 0.1789
v -0.6485 0.12 0.1847
v -0.6566 0.1027 0.1789
v -0.6728 0.1027 0.1671
v -0.6809 0.12 0.1612
v -0.6309 0.12 0.1249
v -0.6278 0.1373 0.1344
v -0.6216 0.1373 0.1534
v -0.6185 0.12 0.1629
v -0.6216 0.1027 0.1534
v -0.6278 0.1027 0.1344
v -0.6309 0.12 0.1249
v -0.5691 0.12 0.1249
v -0.5722 0.1373 0.1344
v -0.5784 0.1373 0.1534
v -0.5815 0.12 0.1629
v -0.5784 0.1027 0.1534
v -0.5722 0.1027 0.1344
v -0.5691 0.12 0.1249
v -0.5191 0.12 0.1612
v -0.5272 0.1373 0.1671
v -0.5434 0.1373 0.1789
v -0.5515 0.12 0.1847
v -0.5434 0.1027 0.1789
v -0.5272 0.1027 0.1671
v -0.5191 0.12 0.1612
v -0.5 0.12 0.22
v -0.51 0.1373 0.22
v -0.53 0.1373 0.22
v -0.54 0.12 0.22
v -0.53 0.1027 0.22
v -0.51 0.1027 0.22
v -0.5 0.12 0.22
v -0.0051 0.3254 0
v -0.0084 0.3288 0.0175
v -0.0174 0.3378 0.0303
v -0.0298 0.3502 0.035
v -0.0422 0.3626 0.0303
v -0.0512 0.3716 0.0175
v -0.0546 0.3749 0
v -0.0512 0.3716 -0.0175
v -0.0422 0.3626 -0.0303
v -0.0298 0.3502 -0.035
v -0.0174 0.3378 -0.0303
v -0.0084 0.3288 -0.0175
v 0.4546 0.7851 0
v 0.4512 0.7884 0.0175
v 0.4422 0.7974 0.0303
v 0.4298 0.8098 0.035
v 0.4174 0.8222 0.0303
v 0.4084 0.8312 0.0175
v 0.4051 0.8346 0
v 0.4084 0.8312 -0.0175
v 0.4174 0.8222 -0.0303
v 0.4298 0.8098 -0.035
v 0.4422 0.7974 -0.0303
v 0.4512 0.7884 -0.0175
v -0.0298 0.3502 0
v 0.4298 0.8098 0
v 0.4333 0.2291 0
v 0.4305 0.2262 0.015
v 0.4227 0.2185 0.026
v 0.4121 0.2079 0.03
v 0.4015 0.1973 0.026
v 0.3938 0.1895 0.015
v 0.3909 0.1867 0
v 0.3938 0.1895 -0.015
v 0.4015 0.1973 -0.026
v 0.4121 0.2079 -0.03
v 0.4227 0.2185 -0.026
v 0.4305 0.2262 -0.015
v 0.0091 0.6533 0
v 0.0062 0.6505 0.015
v -0.0015 0.6427 0.026
v -0.0121 0.6321 0.03
v -0.0227 0.6215 0.026
v -0.0305 0.6138 0.015
v -0.0333 0.6109 0
v -0.0305 0.6138 -0.015
v -0.0227 0.6215 -0.026
v -0.0121 0.6321 -0.03
v -0.0015 0.6427 -0.026
v 0.0062 0.6505 -0.015
v 0.4121 0.2079 0
v -0.0121 0.6321 0
v -0.2965 0.3025 0
v -0.3005 0.3031 0.015
v -0.3113 0.3047 0.026
v -0.3262 0.307 0.03
v -0.341 0.3092 0.026
v -0.3518 0.3108 0.015
v -0.3558 0.3114 0
v -0.3518 0.3108 -0.015
v -0.341 0.3092 -0.026
v -0.3262 0.307 -0.03
v -0.3113 0.3047 -0.026
v -0.3005 0.3031 -0.015
v -0.2442 0.6486 0
v -0.2482 0.6492 0.015
v -0.259 0.6508 0.026
v -0.2738 0.653 0.03
v -0.2887 0.6553 0.026
v -0.2995 0.6569 0.015
v -0.3035 0.6575 0
v -0.2995 0.6569 -0.015
v -0.2887 0.6553 -0.026
v -0.2738 0.653 -0.03
v -0.259 0.6508 -0.026
v -0.2482 0.6492 -0.015
v -0.3262 0.307 0
v -0.2738 0.653 0
v -0.6766 0.4622 0
v -0.6747 0.4649 0.0125
v -0.6693 0.4723 0.0217
v -0.6619 0.4824 0.025
v -0.6546 0.4925 0.0217
v -0.6492 0.4999 0.0125
v -0.6472 0.5026 0
v -0.6492 0.4999 -0.0125
v -0.6546 0.4925 -0.0217
v -0.6619 0.4824 -0.025
v -0.6693 0.4723 -0.0217
v -0.6747 0.4649 -0.0125
v -0.3128 0.1974 0
v -0.3108 0.2001 0.0125
v -0.3054 0.2075 0.0217
v -0.2981 0.2176 0.025
v -0.2907 0.2277 0.0217
v -0.2853 0.2351 0.0125
v -0.2834 0.2378 0
v -0.2853 0.2351 -0.0125
v -0.2907 0.2277 -0.0217
v -0.2981 0.2176 -0.025
v -0.3054 0.2075 -0.0217
v -0.3108 0.2001 -0.0125
v -0.6619 0.4824 0
v -0.2981 0.2176 0
v 0.6506 0.1772 0
v 0.6475 0.1761 0.0125
v 0.6389 0.1729 0.0217
v 0.6272 0.1686 0.025
v 0.6154 0.1644 0.0217
v 0.6068 0.1612 0.0125
v 0.6037 0.1601 0
v 0.6068 0.1612 -0.0125
v 0.6154 0.1644 -0.0217
v 0.6272 0.1686 -0.025
v 0.6389 0.1729 -0.0217
v 0.6475 0.1761 -0.0125
v 0.501 0.6016 0
v 0.4973 0.6003 0.015
v 0.4869 0.5965 0.026
v 0.4728 0.5914 0.03
v 0.4588 0.5862 0.026
v 0.4484 0.5825 0.015
v 0.4447 0.5811 0
v 0.4484 0.5825 -0.015
v 0.4588 0.5862 -0.026
v 0.4728 0.5914 -0.03
v 0.4869 0.5965 -0.026
v 0.4973 0.6003 -0.015
v 0.6272 0.1686 0
v 0.4728 0.5914 0
v 0.5653 0.6432 0
v 0.5625 0.6423 0.011
v 0.5548 0.64 0.0191
v 0.5443 0.6367 0.022
v 0.5338 0.6334 0.0191
v 0.5261 0.6311 0.011
v 0.5233 0.6302 0
v 0.5261 0.6311 -0.011
v 0.5338 0.6334 -0.0191
v 0.5443 0.6367 -0.022
v 0.5548 0.64 -0.0191
v 0.5625 0.6423 -0.011
v 0.4767 0.9298 0
v 0.4739 0.9289 0.011
v 0.4662 0.9266 0.0191
v 0.4557 0.9233 0.022
v 0.4452 0.92 0.0191
v 0.4375 0.9177 0.011
v 0.4347 0.9168 0
v 0.4375 0.9177 -0.011
v 0.4452 0.92 -0.0191
v 0.4557 0.9233 -0.022
v 0.4662 0.9266 -0.0191
v 0.4739 0.9289 -0.011
v 0.5443 0.6367 0
v 0.4557 0.9233 0
v 0.47 0.9 -0.275
v 0.4673 0.89 -0.275
v 0.46 0.8827 -0.275
v 0.45 0.88 -0.275
v 0.44 0.8827 -0.275
v 0.4327 0.89 -0.275
v 0.43 0.9 -0.275
v 0.4327 0.91 -0.275
v 0.44 0.9173 -0.275
v 0.45 0.92 -0.275
v 0.46 0.9173 -0.275
v 0.4673 0.91 -0.275
v 0.47 0.9 0.275
v 0.4673 0.89 0.275
v 0.46 0.8827 0.275
v 0.45 0.88 0.275
v 0.44 0.8827 0.275
v 0.4327 0.89 0.275
v 0.43 0.9 0.275
v 0.4327 0.91 0.275
v 0.44 0.9173 0.275
v 0.45 0.92 0.275
v 0.46 0.9173 0.275
v 0.4673 0.91 0.275
v 0.45 0.9 -0.275
v 0.45 0.9 0.275
v -0.4411 0.6111 -0.075
v -0.184 0.65 -0.075
v -0.1989 0.7489 -0.075
v -0.456 0.71 -0.075
v -0.4411 0.6111 0.075
v -0.184 0.65 0.075
v -0.1989 0.7489 0.075
v -0.456 0.71 0.075
v -0.36 0.21 0
v 0.06 0.21 0
v 0.06 0.43 0
v -0.36 0.43 0
v -0.36 0.21 0.06
v 0.06 0.21 0.06
v 0.06 0.43 0.06
v -0.36 0.43 0.06
v -0.09 0.155 0.06
v -0.01 0.155 0.06
v -0.01 0.205 0.06
v -0.09 0.205 0.06
v -0.09 0.155 0.18
v -0.01 0.155 0.18
v -0.01 0.205 0.18
v -0.09 0.205 0.18
v 0.38 0.635 -0.11
v 0.66 0.635 -0.11
v 0.66 0.885 -0.11
v 0.38 0.885 -0.11
v 0.38 0.635 0.11
v 0.66 0.635 0.11
v 0.66 0.885 0.11
v 0.38 0.885 0.11
v 0.8682 0.7269 0
v 0.8602 0.7063 0.111
v 0.8374 0.6477 0.2051
v 0.8033 0.56 0.2679
v 0.7631 0.4566 0.29
v 0.7229 0.3532 0.2679
v 0.6888 0.2655 0.2051
v 0.666 0.2069 0.111
v 0.658 0.1863 0
v 0.666 0.2069 -0.111
v 0.6888 0.2655 -0.2051
v 0.7229 0.3532 -0.2679
v 0.7631 0.4566 -0.29
v 0.8033 0.56 -0.2679
v 0.8374 0.6477 -0.2051
v 0.8602 0.7063 -0.111
v 0.542 0.8537 0
v 0.534 0.8331 0.111
v 0.5112 0.7745 0.2051
v 0.4771 0.6868 0.2679
v 0.4369 0.5834 0.29
v 0.3967 0.48 0.2679
v 0.3626 0.3923 0.2051
v 0.3398 0.3337 0.111
v 0.3318 0.3131 0
v 0.3398 0.3337 -0.111
v 0.3626 0.3923 -0.2051
v 0.3967 0.48 -0.2679
v 0.4369 0.5834 -0.29
v 0.4771 0.6868 -0.2679
v 0.5112 0.7745 -0.2051
v 0.534 0.8331 -0.111
v 0.7631 0.4566 0
v 0.4369 0.5834 0
v -0.608 0.1663 0
v -0.616 0.1869 0.111
v -0.6388 0.2455 0.2051
v -0.6729 0.3332 0.2679
v -0.7131 0.4366 0.29
v -0.7533 0.54 0.2679
v -0.7874 0.6277 0.2051
v -0.8102 0.6863 0.111
v -0.8182 0.7069 0
v -0.8102 0.6863 -0.111
v -0.7874 0.6277 -0.2051
v -0.7533 0.54 -0.2679
v -0.7131 0.4366 -0.29
v -0.6729 0.3332 -0.2679
v -0.6388 0.2455 -0.2051
v -0.616 0.1869 -0.111
v -0.2818 0.2931 0
v -0.2898 0.3137 0.111
v -0.3126 0.3723 0.2051
v -0.3467 0.46 0.2679
v -0.3869 0.5634 0.29
v -0.4271 0.6668 0.2679
v -0.4612 0.7545 0.2051
v -0.484 0.8131 0.111
v -0.492 0.8337 0
v -0.484 0.8131 -0.111
v -0.4612 0.7545 -0.2051
v -0.4271 0.6668 -0.2679
v -0.3869 0.5634 -0.29
v -0.3467 0.46 -0.2679
v -0.3126 0.3723 -0.2051
v -0.2898 0.3137 -0.111
v -0.7131 0.4366 0
v -0.3869 0.5634 0
vt 0 0
vt 0 0.16666666666666666
vt 0 0.3333333333333333
vt 0 0.5
vt 0 0.6666666666666666
vt 0 0.8333333333333334
vt 0 1
vt 0.1 0
vt 0.1 0.16666666666666666
vt 0.1 0.3333333333333333
vt 0.1 0.5
vt 0.1 0.6666666666666666
vt 0.1 0.8333333333333334
vt 0.1 1
vt 0.2 0
vt 0.2 0.16666666666666666
vt 0.2 0.3333333333333333
vt 0.2 0.5
vt 0.2 0.6666666666666666
vt 0.2 0.8333333333333334
vt 0.2 1
vt 0.3 0
vt 0.3 0.16666666666666666
vt 0.3 0.3333333333333333
vt 0.3 0.5
vt 0.3 0.6666666666666666
vt 0.3 0.8333333333333334
vt 0.3 1
vt 0.4 0
vt 0.4 0.16666666666666666
vt 0.4 0.3333333333333333
vt 0.4 0.5
vt 0.4 0.6666666666666666
vt 0.4 0.8333333333333334
vt 0.4 1
vt 0.5 0
vt 0.5 0.16666666666666666
vt 0.5 0.3333333333333333
vt 0.5 0.5
vt 0.5 0.6666666666666666
vt 0.5 0.8333333333333334
vt 0.5 1
vt 0.6 0
vt 0.6 0.16666666666666666
vt 0.6 0.3333333333333333
vt 0.6 0.5
vt 0.6 0.6666666666666666
vt 0.6 0.8333333333333334
vt 0.6 1
vt 0.7 0
vt 0.7 0.16666666666666666
vt 0.7 0.3333333333333333
vt 0.7 0.5
vt 0.7 0.6666666666666666
vt 0.7 0.8333333333333334
vt 0.7 1
vt 0.8 0
vt 0.8 0.16666666666666666
vt 0.8 0.3333333333333333
vt 0.8 0.5
vt 0.8 0.6666666666666666
vt 0.8 0.8333333333333334
vt 0.8 1
vt 0.9 0
vt 0.9 0.16666666666666666
vt 0.9 0.3333333333333333
vt 0.9 0.5
vt 0.9 0.6666666666666666
vt 0.9 0.8333333333333334
vt 0.9 1
vt 1 0
vt 1 0.16666666666666666
vt 1 0.3333333333333333
vt 1 0.5
vt 1 0.6666666666666666
vt 1 0.8333333333333334
vt 1 1
vt 0 0
vt 0.0625 0
vt 0.125 0
vt 0.1875 0
vt 0.25 0
vt 0.3125 0
vt 0.375 0
vt 0.4375 0
vt 0.5 0
vt 0.5625 0
vt 0.625 0
vt 0.6875 0
vt 0.75 0
vt 0.8125 0
vt 0.875 0
vt 0.9375 0
vt 0 1
vt 0.0625 1
vt 0.125 1
vt 0.1875 1
vt 0.25 1
vt 0.3125 1
vt 0.375 1
vt 0.4375 1
vt 0.5 1
vt 0.5625 1
vt 0.625 1
vt 0.6875 1
vt 0.75 1
vt 0.8125 1
vt 0.875 1
vt 0.9375 1
vt 0.5 0.5
vt 0.5 0.5
vt 0 0
vt 0 0.16666666666666666
vt 0 0.3333333333333333
vt 0 0.5
vt 0 0.6666666666666666
vt 0 0.8333333333333334
vt 0 1
vt 0.1 0
vt 0.1 0.16666666666666666
vt 0.1 0.3333333333333333
vt 0.1 0.5
vt 0.1 0.6666666666666666
vt 0.1 0.8333333333333334
vt 0.1 1
vt 0.2 0
vt 0.2 0.16666666666666666
vt 0.2 0.3333333333333333
vt 0.2 0.5
vt 0.2 0.6666666666666666
vt 0.2 0.8333333333333334
vt 0.2 1
vt 0.3 0
vt 0.3 0.16666666666666666
vt 0.3 0.3333333333333333
vt 0.3 0.5
vt 0.3 0.6666666666666666
vt 0.3 0.8333333333333334
vt 0.3 1
vt 0.4 0
vt 0.4 0.16666666666666666
vt 0.4 0.3333333333333333
vt 0.4 0.5
vt 0.4 0.6666666666666666
vt 0.4 0.8333333333333334
vt 0.4 1
vt 0.5 0
vt 0.5 0.16666666666666666
vt 0.5 0.3333333333333333
vt 0.5 0.5
vt 0.5 0.6666666666666666
vt 0.5 0.8333333333333334
vt 0.5 1
vt 0.6 0
vt 0.6 0.16666666666666666
vt 0.6 0.3333333333333333
vt 0.6 0.5
vt 0.6 0.6666666666666666
vt 0.6 0.8333333333333334
vt 0.6 1
vt 0.7 0
vt 0.7 0.16666666666666666
vt 0.7 0.3333333333333333
vt 0.7 0.5
vt 0.7 0.6666666666666666
vt 0.7 0.8333333333333334
vt 0.7 1
vt 0.8 0
vt 0.8 0.16666666666666666
vt 0.8 0.3333333333333333
vt 0.8 0.5
vt 0.8 0.6666666666666666
vt 0.8 0.8333333333333334
vt 0.8 1
vt 0.9 0
vt 0.9 0.16666666666666666
vt 0.9 0.3333333333333333
vt 0.9 0.5
vt 0.9 0.6666666666666666
vt 0.9 0.8333333333333334
vt 0.9 1
vt 1 0
vt 1 0.16666666666666666
vt 1 0.3333333333333333
vt 1 0.5
vt 1 0.6666666666666666
vt 1 0.8333333333333334
vt 1 1
vt 0 0
vt 0.0625 0
vt 0.125 0
vt 0.1875 0
vt 0.25 0
vt 0.3125 0
vt 0.375 0
vt 0.4375 0
vt 0.5 0
vt 0.5625 0
vt 0.625 0
vt 0.6875 0
vt 0.75 0
vt 0.8125 0
vt 0.875 0
vt 0.9375 0
vt 0 1
vt 0.0625 1
vt 0.125 1
vt 0.1875 1
vt 0.25 1
vt 0.3125 1
vt 0.375 1
vt 0.4375 1
vt 0.5 1
vt 0.5625 1
vt 0.625 1
vt 0.6875 1
vt 0.75 1
vt 0.8125 1
vt 0.875 1
vt 0.9375 1
vt 0.5 0.5
vt 0.5 0.5
vt 0 0
vt 0.0625 0
vt 0.125 0
vt 0.1875 0
vt 0.25 0
vt 0.3125 0
vt 0.375 0
vt 0.4375 0
vt 0.5 0
vt 0.5625 0
vt 0.625 0
vt 0.6875 0
vt 0.75 0
vt 0.8125 0
vt 0.875 0
vt 0.9375 0
vt 0 1
vt 0.0625 1
vt 0.125 1
vt 0.1875 1
vt 0.25 1
vt 0.3125 1
vt 0.375 1
vt 0.4375 1
vt 0.5 1
vt 0.5625 1
vt 0.625 1
vt 0.6875 1
vt 0.75 1
vt 0.8125 1
vt 0.875 1
vt 0.9375 1
vt 0.5 0.5
vt 0.5 0.5
vt 0 0
vt 0 0.16666666666666666
vt 0 0.3333333333333333
vt 0 0.5
vt 0 0.6666666666666666
vt 0 0.8333333333333334
vt 0 1
vt 0.1 0
vt 0.1 0.16666666666666666
vt 0.1 0.3333333333333333
vt 0.1 0.5
vt 0.1 0.6666666666666666
vt 0.1 0.8333333333333334
vt 0.1 1
vt 0.2 0
vt 0.2 0.16666666666666666
vt 0.2 0.3333333333333333
vt 0.2 0.5
vt 0.2 0.6666666666666666
vt 0.2 0.8333333333333334
vt 0.2 1
vt 0.3 0
vt 0.3 0.16666666666666666
vt 0.3 0.3333333333333333
vt 0.3 0.5
vt 0.3 0.6666666666666666
vt 0.3 0.8333333333333334
vt 0.3 1
vt 0.4 0
vt 0.4 0.16666666666666666
vt 0.4 0.3333333333333333
vt 0.4 0.5
vt 0.4 0.6666666666666666
vt 0.4 0.8333333333333334
vt 0.4 1
vt 0.5 0
vt 0.5 0.16666666666666666
vt 0.5 0.3333333333333333
vt 0.5 0.5
vt 0.5 0.6666666666666666
vt 0.5 0.8333333333333334
vt 0.5 1
vt 0.6 0
vt 0.6 0.16666666666666666
vt 0.6 0.3333333333333333
vt 0.6 0.5
vt 0.6 0.6666666666666666
vt 0.6 0.8333333333333334
vt 0.6 1
vt 0.7 0
vt 0.7 0.16666666666666666
vt 0.7 0.3333333333333333
vt 0.7 0.5
vt 0.7 0.6666666666666666
vt 0.7 0.8333333333333334
vt 0.7 1
vt 0.8 0
vt 0.8 0.16666666666666666
vt 0.8 0.3333333333333333
vt 0.8 0.5
vt 0.8 0.6666666666666666
vt 0.8 0.8333333333333334
vt 0.8 1
vt 0.9 0
vt 0.9 0.16666666666666666
vt 0.9 0.3333333333333333
vt 0.9 0.5
vt 0.9 0.6666666666666666
vt 0.9 0.8333333333333334
vt 0.9 1
vt 1 0
vt 1 0.16666666666666666
vt 1 0.3333333333333333
vt 1 0.5
vt 1 0.6666666666666666
vt 1 0.8333333333333334
vt 1 1
vt 0 0
vt 0.08333333333333333 0
vt 0.16666666666666666 0
vt 0.25 0
vt 0.3333333333333333 0
vt 0.4166666666666667 0
vt 0.5 0
vt 0.5833333333333334 0
vt 0.6666666666666666 0
vt 0.75 0
vt 0.8333333333333334 0
vt 0.9166666666666666 0
vt 0 1
vt 0.08333333333333333 1
vt 0.16666666666666666 1
vt 0.25 1
vt 0.3333333333333333 1
vt 0.4166666666666667 1
vt 0.5 1
vt 0.5833333333333334 1
vt 0.6666666666666666 1
vt 0.75 1
vt 0.8333333333333334 1
vt 0.9166666666666666 1
vt 0.5 0.5
vt 0.5 0.5
vt 0 0
vt 0.08333333333333333 0
vt 0.16666666666666666 0
vt 0.25 0
vt 0.3333333333333333 0
vt 0.4166666666666667 0
vt 0.5 0
vt 0.5833333333333334 0
vt 0.6666666666666666 0
vt 0.75 0
vt 0.8333333333333334 0
vt 0.9166666666666666 0
vt 0 1
vt 0.08333333333333333 1
vt 0.16666666666666666 1
vt 0.25 1
vt 0.3333333333333333 1
vt 0.4166666666666667 1
vt 0.5 1
vt 0.5833333333333334 1
vt 0.6666666666666666 1
vt 0.75 1
vt 0.8333333333333334 1
vt 0.9166666666666666 1
vt 0.5 0.5
vt 0.5 0.5
vt 0 0
vt 0.08333333333333333 0
vt 0.16666666666666666 0
vt 0.25 0
vt 0.3333333333333333 0
vt 0.4166666666666667 0
vt 0.5 0
vt 0.5833333333333334 0
vt 0.6666666666666666 0
vt 0.75 0
vt 0.8333333333333334 0
vt 0.9166666666666666 0
vt 0 1
vt 0.08333333333333333 1
vt 0.16666666666666666 1
vt 0.25 1
vt 0.3333333333333333 1
vt 0.4166666666666667 1
vt 0.5 1
vt 0.5833333333333334 1
vt 0.6666666666666666 1
vt 0.75 1
vt 0.8333333333333334 1
vt 0.9166666666666666 1
vt 0.5 0.5
vt 0.5 0.5
vt 0 0
vt 0.08333333333333333 0
vt 0.16666666666666666 0
vt 0.25 0
vt 0.3333333333333333 0
vt 0.4166666666666667 0
vt 0.5 0
vt 0.5833333333333334 0
vt 0.6666666666666666 0
vt 0.75 0
vt 0.8333333333333334 0
vt 0.9166666666666666 0
vt 0 1
vt 0.08333333333333333 1
vt 0.16666666666666666 1
vt 0.25 1
vt 0.3333333333333333 1
vt 0.4166666666666667 1
vt 0.5 1
vt 0.5833333333333334 1
vt 0.6666666666666666 1
vt 0.75 1
vt 0.8333333333333334 1
vt 0.9166666666666666 1
vt 0.5 0.5
vt 0.5 0.5
vt 0 0
vt 0.08333333333333333 0
vt 0.16666666666666666 0
vt 0.25 0
vt 0.3333333333333333 0
vt 0.4166666666666667 0
vt 0.5 0
vt 0.5833333333333334 0
vt 0.6666666666666666 0
vt 0.75 0
vt 0.8333333333333334 0
vt 0.9166666666666666 0
vt 0 1
vt 0.08333333333333333 1
vt 0.16666666666666666 1
vt 0.25 1
vt 0.3333333333333333 1
vt 0.4166666666666667 1
vt 0.5 1
vt 0.5833333333333334 1
vt 0.6666666666666666 1
vt 0.75 1
vt 0.8333333333333334 1
vt 0.9166666666666666 1
vt 0.5 0.5
vt 0.5 0.5
vt 0 0
vt 0.08333333333333333 0
vt 0.16666666666666666 0
vt 0.25 0
vt 0.3333333333333333 0
vt 0.4166666666666667 0
vt 0.5 0
vt 0.5833333333333334 0
vt 0.6666666666666666 0
vt 0.75 0
vt 0.8333333333333334 0
vt 0.9166666666666666 0
vt 0 1
vt 0.08333333333333333 1
vt 0.16666666666666666 1
vt 0.25 1
vt 0.3333333333333333 1
vt 0.4166666666666667 1
vt 0.5 1
vt 0.5833333333333334 1
vt 0.6666666666666666 1
vt 0.75 1
vt 0.8333333333333334 1
vt 0.9166666666666666 1
vt 0.5 0.5
vt 0.5 0.5
vt 0 0
vt 0.08333333333333333 0
vt 0.16666666666666666 0
vt 0.25 0
vt 0.3333333333333333 0
vt 0.4166666666666667 0
vt 0.5 0
vt 0.5833333333333334 0
vt 0.6666666666666666 0
vt 0.75 0
vt 0.8333333333333334 0
vt 0.9166666666666666 0
vt 0 1
vt 0.08333333333333333 1
vt 0.16666666666666666 1
vt 0.25 1
vt 0.3333333333333333 1
vt 0.4166666666666667 1
vt 0.5 1
vt 0.5833333333333334 1
vt 0.6666666666666666 1
vt 0.75 1
vt 0.8333333333333334 1
vt 0.9166666666666666 1
vt 0.5 0.5
vt 0.5 0.5
vt 0.5 0.5
vt 0.5 0.5
vt 0.5 0.5
vt 0.5 0.5
vt 0.5 0.5
vt 0.5 0.5
vt 0.5 0.5
vt 0.5 0.5
vt 0.5 0.5
vt 0.5 0.5
vt 0.5 0.5
vt 0.5 0.5
vt 0.5 0.5
vt 0.5 0.5
vt 0.5 0.5
vt 0.5 0.5
vt 0.5 0.5
vt 0.5 0.5
vt 0.5 0.5
vt 0.5 0.5
vt 0.5 0.5
vt 0.5 0.5
vt 0.5 0.5
vt 0.5 0.5
vt 0.5 0.5
vt 0.5 0.5
vt 0.5 0.5
vt 0.5 0.5
vt 0.5 0.5
vt 0.5 0.5
vt 0.5 0.5
vt 0.5 0.5
vt 0 0
vt 0.0625 0
vt 0.125 0
vt 0.1875 0
vt 0.25 0
vt 0.3125 0
vt 0.375 0
vt 0.4375 0
vt 0.5 0
vt 0.5625 0
vt 0.625 0
vt 0.6875 0
vt 0.75 0
vt 0.8125 0
vt 0.875 0
vt 0.9375 0
vt 0 1
vt 0.0625 1
vt 0.125 1
vt 0.1875 1
vt 0.25 1
vt 0.3125 1
vt 0.375 1
vt 0.4375 1
vt 0.5 1
vt 0.5625 1
vt 0.625 1
vt 0.6875 1
vt 0.75 1
vt 0.8125 1
vt 0.875 1
vt 0.9375 1
vt 0.5 0.5
vt 0.5 0.5
vt 0 0
vt 0.0625 0
vt 0.125 0
vt 0.1875 0
vt 0.25 0
vt 0.3125 0
vt 0.375 0
vt 0.4375 0
vt 0.5 0
vt 0.5625 0
vt 0.625 0
vt 0.6875 0
vt 0.75 0
vt 0.8125 0
vt 0.875 0
vt 0.9375 0
vt 0 1
vt 0.0625 1
vt 0.125 1
vt 0.1875 1
vt 0.25 1
vt 0.3125 1
vt 0.375 1
vt 0.4375 1
vt 0.5 1
vt 0.5625 1
vt 0.625 1
vt 0.6875 1
vt 0.75 1
vt 0.8125 1
vt 0.875 1
vt 0.9375 1
vt 0.5 0.5
vt 0.5 0.5
vn 1 0 0
vn 0.5000000000000001 0.8660254037844386 0
vn -0.4999999999999998 0.8660254037844387 0
vn -1 1.2246467991473532e-16 0
vn -0.5000000000000004 -0.8660254037844385 0
vn 0.5000000000000001 -0.8660254037844386 0
vn 1 -2.4492935982947064e-16 0
vn 0.8090169943749475 0 0.5877852522924731
vn 0.40450849718747384 0.8660254037844386 0.2938926261462366
vn -0.40450849718747356 0.8660254037844387 -0.29389262614623646
vn -0.8090169943749475 1.2246467991473532e-16 -0.5877852522924731
vn -0.40450849718747406 -0.8660254037844385 -0.29389262614623685
vn 0.40450849718747384 -0.8660254037844386 0.2938926261462366
vn 0.8090169943749475 -2.4492935982947064e-16 0.5877852522924731
vn 0.30901699437494745 0 0.9510565162951535
vn 0.15450849718747375 0.8660254037844386 0.4755282581475769
vn -0.15450849718747367 0.8660254037844387 -0.47552825814757654
vn -0.30901699437494745 1.2246467991473532e-16 -0.9510565162951535
vn -0.15450849718747386 -0.8660254037844385 -0.4755282581475772
vn 0.15450849718747375 -0.8660254037844386 0.4755282581475769
vn 0.30901699437494745 -2.4492935982947064e-16 0.9510565162951535
vn -0.30901699437494734 0 0.9510565162951536
vn -0.1545084971874737 0.8660254037844386 0.47552825814757693
vn 0.15450849718747361 0.8660254037844387 -0.4755282581475766
vn 0.30901699437494734 1.2246467991473532e-16 -0.9510565162951536
vn 0.1545084971874738 -0.8660254037844385 -0.47552825814757727
vn -0.1545084971874737 -0.8660254037844386 0.47552825814757693
vn -0.30901699437494734 -2.4492935982947064e-16 0.9510565162951536
vn -0.8090169943749473 0 0.5877852522924732
vn -0.4045084971874738 0.8660254037844386 0.2938926261462367
vn 0.4045084971874735 0.8660254037844387 -0.2938926261462365
vn 0.8090169943749473 1.2246467991473532e-16 -0.5877852522924732
vn 0.404508497187474 -0.8660254037844385 -0.2938926261462369
vn -0.4045084971874738 -0.8660254037844386 0.2938926261462367
vn -0.8090169943749473 -2.4492935982947064e-16 0.5877852522924732
vn -1 0 1.2246467991473532e-16
vn -0.5000000000000001 0.8660254037844386 6.123233995736767e-17
vn 0.4999999999999998 0.8660254037844387 -6.123233995736764e-17
vn 1 1.2246467991473532e-16 -1.2246467991473532e-16
vn 0.5000000000000004 -0.8660254037844385 -6.123233995736771e-17
vn -0.5000000000000001 -0.8660254037844386 6.123233995736767e-17
vn -1 -2.4492935982947064e-16 1.2246467991473532e-16
vn -0.8090169943749475 0 -0.587785252292473
vn -0.40450849718747384 0.8660254037844386 -0.29389262614623657
vn 0.40450849718747356 0.8660254037844387 0.2938926261462364
vn 0.8090169943749475 1.2246467991473532e-16 0.587785252292473
vn 0.40450849718747406 -0.8660254037844385 0.2938926261462368
vn -0.40450849718747384 -0.8660254037844386 -0.29389262614623657
vn -0.8090169943749475 -2.4492935982947064e-16 -0.587785252292473
vn -0.30901699437494756 0 -0.9510565162951535
vn -0.1545084971874738 0.8660254037844386 -0.4755282581475769
vn 0.15450849718747373 0.8660254037844387 0.47552825814757654
vn 0.30901699437494756 1.2246467991473532e-16 0.9510565162951535
vn 0.15450849718747392 -0.8660254037844385 0.4755282581475772
vn -0.1545084971874738 -0.8660254037844386 -0.4755282581475769
vn -0.30901699437494756 -2.4492935982947064e-16 -0.9510565162951535
vn 0.30901699437494723 0 -0.9510565162951536
vn 0.15450849718747364 0.8660254037844386 -0.47552825814757693
vn -0.15450849718747356 0.8660254037844387 0.4755282581475766
vn -0.30901699437494723 1.2246467991473532e-16 0.9510565162951536
vn -0.15450849718747375 -0.8660254037844385 0.47552825814757727
vn 0.15450849718747364 -0.8660254037844386 -0.47552825814757693
vn 0.30901699437494723 -2.4492935982947064e-16 -0.9510565162951536
vn 0.8090169943749473 0 -0.5877852522924734
vn 0.4045084971874738 0.8660254037844386 -0.29389262614623674
vn -0.4045084971874735 0.8660254037844387 0.29389262614623657
vn -0.8090169943749473 1.2246467991473532e-16 0.5877852522924734
vn -0.404508497187474 -0.8660254037844385 0.29389262614623696
vn 0.4045084971874738 -0.8660254037844386 -0.29389262614623674
vn 0.8090169943749473 -2.4492935982947064e-16 -0.5877852522924734
vn 1 0 -2.4492935982947064e-16
vn 0.5000000000000001 0.8660254037844386 -1.2246467991473535e-16
vn -0.4999999999999998 0.8660254037844387 1.2246467991473527e-16
vn -1 1.2246467991473532e-16 2.4492935982947064e-16
vn -0.5000000000000004 -0.8660254037844385 1.2246467991473542e-16
vn 0.5000000000000001 -0.8660254037844386 -1.2246467991473535e-16
vn 1 -2.4492935982947064e-16 -2.4492935982947064e-16
vn 0 -1 0
vn 0 -1 0
vn 0 -1 0
vn 0 -1 0
vn 0 -1 0
vn 0 -1 0
vn 0 -1 0
vn 0 -1 0
vn 0 -1 0
vn 0 -1 0
vn 0 -1 0
vn 0 -1 0
vn 0 -1 0
vn 0 -1 0
vn 0 -1 0
vn 0 -1 0
vn 0 1 0
vn 0 1 0
vn 0 1 0
vn 0 1 0
vn 0 1 0
vn 0 1 0
vn 0 1 0
vn 0 1 0
vn 0 1 0
vn 0 1 0
vn 0 1 0
vn 0 1 0
vn 0 1 0
vn 0 1 0
vn 0 1 0
vn 0 1 0
vn 0 -1 0
vn 0 1 0
vn 1 0 0
vn 0.5000000000000001 0.8660254037844386 0
vn -0.4999999999999998 0.8660254037844387 0
vn -1 1.2246467991473532e-16 0
vn -0.5000000000000004 -0.8660254037844385 0
vn 0.5000000000000001 -0.8660254037844386 0
vn 1 -2.4492935982947064e-16 0
vn 0.8090169943749475 0 0.5877852522924731
vn 0.40450849718747384 0.8660254037844386 0.2938926261462366
vn -0.40450849718747356 0.8660254037844387 -0.29389262614623646
vn -0.8090169943749475 1.2246467991473532e-16 -0.5877852522924731
vn -0.40450849718747406 -0.8660254037844385 -0.29389262614623685
vn 0.40450849718747384 -0.8660254037844386 0.2938926261462366
vn 0.8090169943749475 -2.4492935982947064e-16 0.5877852522924731
vn 0.30901699437494745 0 0.9510565162951535
vn 0.15450849718747375 0.8660254037844386 0.4755282581475769
vn -0.15450849718747367 0.8660254037844387 -0.47552825814757654
vn -0.30901699437494745 1.2246467991473532e-16 -0.9510565162951535
vn -0.15450849718747386 -0.8660254037844385 -0.4755282581475772
vn 0.15450849718747375 -0.8660254037844386 0.4755282581475769
vn 0.30901699437494745 -2.4492935982947064e-16 0.9510565162951535
vn -0.30901699437494734 0 0.9510565162951536
vn -0.1545084971874737 0.8660254037844386 0.47552825814757693
vn 0.15450849718747361 0.8660254037844387 -0.4755282581475766
vn 0.30901699437494734 1.2246467991473532e-16 -0.9510565162951536
vn 0.1545084971874738 -0.8660254037844385 -0.47552825814757727
vn -0.1545084971874737 -0.8660254037844386 0.47552825814757693
vn -0.30901699437494734 -2.4492935982947064e-16 0.9510565162951536
vn -0.8090169943749473 0 0.5877852522924732
vn -0.4045084971874738 0.8660254037844386 0.2938926261462367
vn 0.4045084971874735 0.8660254037844387 -0.2938926261462365
vn 0.8090169943749473 1.2246467991473532e-16 -0.5877852522924732
vn 0.404508497187474 -0.8660254037844385 -0.2938926261462369
vn -0.4045084971874738 -0.8660254037844386 0.2938926261462367
vn -0.8090169943749473 -2.4492935982947064e-16 0.5877852522924732
vn -1 0 1.2246467991473532e-16
vn -0.5000000000000001 0.8660254037844386 6.123233995736767e-17
vn 0.4999999999999998 0.8660254037844387 -6.123233995736764e-17
vn 1 1.2246467991473532e-16 -1.2246467991473532e-16
vn 0.5000000000000004 -0.8660254037844385 -6.123233995736771e-17
vn -0.5000000000000001 -0.8660254037844386 6.123233995736767e-17
vn -1 -2.4492935982947064e-16 1.2246467991473532e-16
vn -0.8090169943749475 0 -0.587785252292473
vn -0.40450849718747384 0.8660254037844386 -0.29389262614623657
vn 0.40450849718747356 0.8660254037844387 0.2938926261462364
vn 0.8090169943749475 1.2246467991473532e-16 0.587785252292473
vn 0.40450849718747406 -0.8660254037844385 0.2938926261462368
vn -0.40450849718747384 -0.8660254037844386 -0.29389262614623657
vn -0.8090169943749475 -2.4492935982947064e-16 -0.587785252292473
vn -0.30901699437494756 0 -0.9510565162951535
vn -0.1545084971874738 0.8660254037844386 -0.4755282581475769
vn 0.15450849718747373 0.8660254037844387 0.47552825814757654
vn 0.30901699437494756 1.2246467991473532e-16 0.9510565162951535
vn 0.15450849718747392 -0.8660254037844385 0.4755282581475772
vn -0.1545084971874738 -0.8660254037844386 -0.4755282581475769
vn -0.30901699437494756 -2.4492935982947064e-16 -0.9510565162951535
vn 0.30901699437494723 0 -0.9510565162951536
vn 0.15450849718747364 0.8660254037844386 -0.47552825814757693
vn -0.15450849718747356 0.8660254037844387 0.4755282581475766
vn -0.30901699437494723 1.2246467991473532e-16 0.9510565162951536
vn -0.15450849718747375 -0.8660254037844385 0.47552825814757727
vn 0.15450849718747364 -0.8660254037844386 -0.47552825814757693
vn 0.30901699437494723 -2.4492935982947064e-16 -0.9510565162951536
vn 0.8090169943749473 0 -0.5877852522924734
vn 0.4045084971874738 0.8660254037844386 -0.29389262614623674
vn -0.4045084971874735 0.8660254037844387 0.29389262614623657
vn -0.8090169943749473 1.2246467991473532e-16 0.5877852522924734
vn -0.404508497187474 -0.8660254037844385 0.29389262614623696
vn 0.4045084971874738 -0.8660254037844386 -0.29389262614623674
vn 0.8090169943749473 -2.4492935982947064e-16 -0.5877852522924734
vn 1 0 -2.4492935982947064e-16
vn 0.5000000000000001 0.8660254037844386 -1.2246467991473535e-16
vn -0.4999999999999998 0.8660254037844387 1.2246467991473527e-16
vn -1 1.2246467991473532e-16 2.4492935982947064e-16
vn -0.5000000000000004 -0.8660254037844385 1.2246467991473542e-16
vn 0.5000000000000001 -0.8660254037844386 -1.2246467991473535e-16
vn 1 -2.4492935982947064e-16 -2.4492935982947064e-16
vn 0 -1 0
vn 0 -1 0
vn 0 -1 0
vn 0 -1 0
vn 0 -1 0
vn 0 -1 0
vn 0 -1 0
vn 0 -1 0
vn 0 -1 0
vn 0 -1 0
vn 0 -1 0
vn 0 -1 0
vn 0 -1 0
vn 0 -1 0
vn 0 -1 0
vn 0 -1 0
vn 0 1 0
vn 0 1 0
vn 0 1 0
vn 0 1 0
vn 0 1 0
vn 0 1 0
vn 0 1 0
vn 0 1 0
vn 0 1 0
vn 0 1 0
vn 0 1 0
vn 0 1 0
vn 0 1 0
vn 0 1 0
vn 0 1 0
vn 0 1 0
vn 0 -1 0
vn 0 1 0
vn 0 -1 0
vn 0 -1 0
vn 0 -1 0
vn 0 -1 0
vn 0 -1 0
vn 0 -1 0
vn 0 -1 0
vn 0 -1 0
vn 0 -1 0
vn 0 -1 0
vn 0 -1 0
vn 0 -1 0
vn 0 -1 0
vn 0 -1 0
vn 0 -1 0
vn 0 -1 0
vn 0 1 0
vn 0 1 0
vn 0 1 0
vn 0 1 0
vn 0 1 0
vn 0 1 0
vn 0 1 0
vn 0 1 0
vn 0 1 0
vn 0 1 0
vn 0 1 0
vn 0 1 0
vn 0 1 0
vn 0 1 0
vn 0 1 0
vn 0 1 0
vn 0 -1 0
vn 0 1 0
vn 1 0 0
vn 0.5000000000000001 0.8660254037844386 0
vn -0.4999999999999998 0.8660254037844387 0
vn -1 1.2246467991473532e-16 0
vn -0.5000000000000004 -0.8660254037844385 0
vn 0.5000000000000001 -0.8660254037844386 0
vn 1 -2.4492935982947064e-16 0
vn 0.8090169943749475 0 0.5877852522924731
vn 0.40450849718747384 0.8660254037844386 0.2938926261462366
vn -0.40450849718747356 0.8660254037844387 -0.29389262614623646
vn -0.8090169943749475 1.2246467991473532e-16 -0.5877852522924731
vn -0.40450849718747406 -0.8660254037844385 -0.29389262614623685
vn 0.40450849718747384 -0.8660254037844386 0.2938926261462366
vn 0.8090169943749475 -2.4492935982947064e-16 0.5877852522924731
vn 0.30901699437494745 0 0.9510565162951535
vn 0.15450849718747375 0.8660254037844386 0.4755282581475769
vn -0.15450849718747367 0.8660254037844387 -0.47552825814757654
vn -0.30901699437494745 1.2246467991473532e-16 -0.9510565162951535
vn -0.15450849718747386 -0.8660254037844385 -0.4755282581475772
vn 0.15450849718747375 -0.8660254037844386 0.4755282581475769
vn 0.30901699437494745 -2.4492935982947064e-16 0.9510565162951535
vn -0.30901699437494734 0 0.9510565162951536
vn -0.1545084971874737 0.8660254037844386 0.47552825814757693
vn 0.15450849718747361 0.8660254037844387 -0.4755282581475766
vn 0.30901699437494734 1.2246467991473532e-16 -0.9510565162951536
vn 0.1545084971874738 -0.8660254037844385 -0.47552825814757727
vn -0.1545084971874737 -0.8660254037844386 0.47552825814757693
vn -0.30901699437494734 -2.4492935982947064e-16 0.9510565162951536
vn -0.8090169943749473 0 0.5877852522924732
vn -0.4045084971874738 0.8660254037844386 0.2938926261462367
vn 0.4045084971874735 0.8660254037844387 -0.2938926261462365
vn 0.8090169943749473 1.2246467991473532e-16 -0.5877852522924732
vn 0.404508497187474 -0.8660254037844385 -0.2938926261462369
vn -0.4045084971874738 -0.8660254037844386 0.2938926261462367
vn -0.8090169943749473 -2.4492935982947064e-16 0.5877852522924732
vn -1 0 1.2246467991473532e-16
vn -0.5000000000000001 0.8660254037844386 6.123233995736767e-17
vn 0.4999999999999998 0.8660254037844387 -6.123233995736764e-17
vn 1 1.2246467991473532e-16 -1.2246467991473532e-16
vn 0.5000000000000004 -0.8660254037844385 -6.123233995736771e-17
vn -0.5000000000000001 -0.8660254037844386 6.123233995736767e-17
vn -1 -2.4492935982947064e-16 1.2246467991473532e-16
vn -0.8090169943749475 0 -0.587785252292473
vn -0.40450849718747384 0.8660254037844386 -0.29389262614623657
vn 0.40450849718747356 0.8660254037844387 0.2938926261462364
vn 0.8090169943749475 1.2246467991473532e-16 0.587785252292473
vn 0.40450849718747406 -0.8660254037844385 0.2938926261462368
vn -0.40450849718747384 -0.8660254037844386 -0.29389262614623657
vn -0.8090169943749475 -2.4492935982947064e-16 -0.587785252292473
vn -0.30901699437494756 0 -0.9510565162951535
vn -0.1545084971874738 0.8660254037844386 -0.4755282581475769
vn 0.15450849718747373 0.8660254037844387 0.47552825814757654
vn 0.30901699437494756 1.2246467991473532e-16 0.9510565162951535
vn 0.15450849718747392 -0.8660254037844385 0.4755282581475772
vn -0.1545084971874738 -0.8660254037844386 -0.4755282581475769
vn -0.30901699437494756 -2.4492935982947064e-16 -0.9510565162951535
vn 0.30901699437494723 0 -0.9510565162951536
vn 0.15450849718747364 0.8660254037844386 -0.47552825814757693
vn -0.15450849718747356 0.8660254037844387 0.4755282581475766
vn -0.30901699437494723 1.2246467991473532e-16 0.9510565162951536
vn -0.15450849718747375 -0.8660254037844385 0.47552825814757727
vn 0.15450849718747364 -0.8660254037844386 -0.47552825814757693
vn 0.30901699437494723 -2.4492935982947064e-16 -0.9510565162951536
vn 0.8090169943749473 0 -0.5877852522924734
vn 0.4045084971874738 0.8660254037844386 -0.29389262614623674
vn -0.4045084971874735 0.8660254037844387 0.29389262614623657
vn -0.8090169943749473 1.2246467991473532e-16 0.5877852522924734
vn -0.404508497187474 -0.8660254037844385 0.29389262614623696
vn 0.4045084971874738 -0.8660254037844386 -0.29389262614623674
vn 0.8090169943749473 -2.4492935982947064e-16 -0.5877852522924734
vn 1 0 -2.4492935982947064e-16
vn 0.5000000000000001 0.8660254037844386 -1.2246467991473535e-16
vn -0.4999999999999998 0.8660254037844387 1.2246467991473527e-16
vn -1 1.2246467991473532e-16 2.4492935982947064e-16
vn -0.5000000000000004 -0.8660254037844385 1.2246467991473542e-16
vn 0.5000000000000001 -0.8660254037844386 -1.2246467991473535e-16
vn 1 -2.4492935982947064e-16 -2.4492935982947064e-16
vn 0 -1 0
vn 0 -1 0
vn 0 -1 0
vn 0 -1 0
vn 0 -1 0
vn 0 -1 0
vn 0 -1 0
vn 0 -1 0
vn 0 -1 0
vn 0 -1 0
vn 0 -1 0
vn 0 -1 0
vn 0 1 0
vn 0 1 0
vn 0 1 0
vn 0 1 0
vn 0 1 0
vn 0 1 0
vn 0 1 0
vn 0 1 0
vn 0 1 0
vn 0 1 0
vn 0 1 0
vn 0 1 0
vn 0 -1 0
vn 0 1 0
vn 0 -1 0
vn 0 -1 0
vn 0 -1 0
vn 0 -1 0
vn 0 -1 0
vn 0 -1 0
vn 0 -1 0
vn 0 -1 0
vn 0 -1 0
vn 0 -1 0
vn 0 -1 0
vn 0 -1 0
vn 0 1 0
vn 0 1 0
vn 0 1 0
vn 0 1 0
vn 0 1 0
vn 0 1 0
vn 0 1 0
vn 0 1 0
vn 0 1 0
vn 0 1 0
vn 0 1 0
vn 0 1 0
vn 0 -1 0
vn 0 1 0
vn 0 -1 0
vn 0 -1 0
vn 0 -1 0
vn 0 -1 0
vn 0 -1 0
vn 0 -1 0
vn 0 -1 0
vn 0 -1 0
vn 0 -1 0
vn 0 -1 0
vn 0 -1 0
vn 0 -1 0
vn 0 1 0
vn 0 1 0
vn 0 1 0
vn 0 1 0
vn 0 1 0
vn 0 1 0
vn 0 1 0
vn 0 1 0
vn 0 1 0
vn 0 1 0
vn 0 1 0
vn 0 1 0
vn 0 -1 0
vn 0 1 0
vn 0 -1 0
vn 0 -1 0
vn 0 -1 0
vn 0 -1 0
vn 0 -1 0
vn 0 -1 0
vn 0 -1 0
vn 0 -1 0
vn 0 -1 0
vn 0 -1 0
vn 0 -1 0
vn 0 -1 0
vn 0 1 0
vn 0 1 0
vn 0 1 0
vn 0 1 0
vn 0 1 0
vn 0 1 0
vn 0 1 0
vn 0 1 0
vn 0 1 0
vn 0 1 0
vn 0 1 0
vn 0 1 0
vn 0 -1 0
vn 0 1 0
vn 0 -1 0
vn 0 -1 0
vn 0 -1 0
vn 0 -1 0
vn 0 -1 0
vn 0 -1 0
vn 0 -1 0
vn 0 -1 0
vn 0 -1 0
vn 0 -1 0
vn 0 -1 0
vn 0 -1 0
vn 0 1 0
vn 0 1 0
vn 0 1 0
vn 0 1 0
vn 0 1 0
vn 0 1 0
vn 0 1 0
vn 0 1 0
vn 0 1 0
vn 0 1 0
vn 0 1 0
vn 0 1 0
vn 0 -1 0
vn 0 1 0
vn 0 -1 0
vn 0 -1 0
vn 0 -1 0
vn 0 -1 0
vn 0 -1 0
vn 0 -1 0
vn 0 -1 0
vn 0 -1 0
vn 0 -1 0
vn 0 -1 0
vn 0 -1 0
vn 0 -1 0
vn 0 1 0
vn 0 1 0
vn 0 1 0
vn 0 1 0
vn 0 1 0
vn 0 1 0
vn 0 1 0
vn 0 1 0
vn 0 1 0
vn 0 1 0
vn 0 1 0
vn 0 1 0
vn 0 -1 0
vn 0 1 0
vn 0 -1 0
vn 0 -1 0
vn 0 -1 0
vn 0 -1 0
vn 0 -1 0
vn 0 -1 0
vn 0 -1 0
vn 0 -1 0
vn 0 -1 0
vn 0 -1 0
vn 0 -1 0
vn 0 -1 0
vn 0 1 0
vn 0 1 0
vn 0 1 0
vn 0 1 0
vn 0 1 0
vn 0 1 0
vn 0 1 0
vn 0 1 0
vn 0 1 0
vn 0 1 0
vn 0 1 0
vn 0 1 0
vn 0 -1 0
vn 0 1 0
vn 0 1 0
vn 0 1 0
vn 0 1 0
vn 0 1 0
vn 0 1 0
vn 0 1 0
vn 0 1 0
vn 0 1 0
vn 0 1 0
vn 0 1 0
vn 0 1 0
vn 0 1 0
vn 0 1 0
vn 0 1 0
vn 0 1 0
vn 0 1 0
vn 0 1 0
vn 0 1 0
vn 0 1 0
vn 0 1 0
vn 0 1 0
vn 0 1 0
vn 0 1 0
vn 0 1 0
vn 0 1 0
vn 0 1 0
vn 0 1 0
vn 0 1 0
vn 0 1 0
vn 0 1 0
vn 0 1 0
vn 0 1 0
vn 0 -1 0
vn 0 -1 0
vn 0 -1 0
vn 0 -1 0
vn 0 -1 0
vn 0 -1 0
vn 0 -1 0
vn 0 -1 0
vn 0 -1 0
vn 0 -1 0
vn 0 -1 0
vn 0 -1 0
vn 0 -1 0
vn 0 -1 0
vn 0 -1 0
vn 0 -1 0
vn 0 1 0
vn 0 1 0
vn 0 1 0
vn 0 1 0
vn 0 1 0
vn 0 1 0
vn 0 1 0
vn 0 1 0
vn 0 1 0
vn 0 1 0
vn 0 1 0
vn 0 1 0
vn 0 1 0
vn 0 1 0
vn 0 1 0
vn 0 1 0
vn 0 -1 0
vn 0 1 0
vn 0 -1 0
vn 0 -1 0
vn 0 -1 0
vn 0 -1 0
vn 0 -1 0
vn 0 -1 0
vn 0 -1 0
vn 0 -1 0
vn 0 -1 0
vn 0 -1 0
vn 0 -1 0
vn 0 -1 0
vn 0 -1 0
vn 0 -1 0
vn 0 -1 0
vn 0 -1 0
vn 0 1 0
vn 0 1 0
vn 0 1 0
vn 0 1 0
vn 0 1 0
vn 0 1 0
vn 0 1 0
vn 0 1 0
vn 0 1 0
vn 0 1 0
vn 0 1 0
vn 0 1 0
vn 0 1 0
vn 0 1 0
vn 0 1 0
vn 0 1 0
vn 0 -1 0
vn 0 1 0
f 1/1/1 8/8/8 9/9/9
f 1/1/1 9/9/9 2/2/2
f 2/2/2 9/9/9 10/10/10
f 2/2/2 10/10/10 3/3/3
f 3/3/3 10/10/10 11/11/11
f 3/3/3 11/11/11 4/4/4
f 4/4/4 11/11/11 12/12/12
f 4/4/4 12/12/12 5/5/5
f 5/5/5 12/12/12 13/13/13
f 5/5/5 13/13/13 6/6/6
f 6/6/6 13/13/13 14/14/14
f 6/6/6 14/14/14 7/7/7
f 8/8/8 15/15/15 16/16/16
f 8/8/8 16/16/16 9/9/9
f 9/9/9 16/16/16 17/17/17
f 9/9/9 17/17/17 10/10/10
f 10/10/10 17/17/17 18/18/18
f 10/10/10 18/18/18 11/11/11
f 11/11/11 18/18/18 19/19/19
f 11/11/11 19/19/19 12/12/12
f 12/12/12 19/19/19 20/20/20
f 12/12/12 20/20/20 13/13/13
f 13/13/13 20/20/20 21/21/21
f 13/13/13 21/21/21 14/14/14
f 15/15/15 22/22/22 23/23/23
f 15/15/15 23/23/23 16/16/16
f 16/16/16 23/23/23 24/24/24
f 16/16/16 24/24/24 17/17/17
f 17/17/17 24/24/24 25/25/25
f 17/17/17 25/25/25 18/18/18
f 18/18/18 25/25/25 26/26/26
f 18/18/18 26/26/26 19/19/19
f 19/19/19 26/26/26 27/27/27
f 19/19/19 27/27/27 20/20/20
f 20/20/20 27/27/27 28/28/28
f 20/20/20 28/28/28 21/21/21
f 22/22/22 29/29/29 30/30/30
f 22/22/22 30/30/30 23/23/23
f 23/23/23 30/30/30 31/31/31
f 23/23/23 31/31/31 24/24/24
f 24/24/24 31/31/31 32/32/32
f 24/24/24 32/32/32 25/25/25
f 25/25/25 32/32/32 33/33/33
f 25/25/25 33/33/33 26/26/26
f 26/26/26 33/33/33 34/34/34
f 26/26/26 34/34/34 27/27/27
f 27/27/27 34/34/34 35/35/35
f 27/27/27 35/35/35 28/28/28
f 29/29/29 36/36/36 37/37/37
f 29/29/29 37/37/37 30/30/30
f 30/30/30 37/37/37 38/38/38
f 30/30/30 38/38/38 31/31/31
f 31/31/31 38/38/38 39/39/39
f 31/31/31 39/39/39 32/32/32
f 32/32/32 39/39/39 40/40/40
f 32/32/32 40/40/40 33/33/33
f 33/33/33 40/40/40 41/41/41
f 33/33/33 41/41/41 34/34/34
f 34/34/34 41/41/41 42/42/42
f 34/34/34 42/42/42 35/35/35
f 36/36/36 43/43/43 44/44/44
f 36/36/36 44/44/44 37/37/37
f 37/37/37 44/44/44 45/45/45
f 37/37/37 45/45/45 38/38/38
f 38/38/38 45/45/45 46/46/46
f 38/38/38 46/46/46 39/39/39
f 39/39/39 46/46/46 47/47/47
f 39/39/39 47/47/47 40/40/40
f 40/40/40 47/47/47 48/48/48
f 40/40/40 48/48/48 41/41/41
f 41/41/41 48/48/48 49/49/49
f 41/41/41 49/49/49 42/42/42
f 43/43/43 50/50/50 51/51/51
f 43/43/43 51/51/51 44/44/44
f 44/44/44 51/51/51 52/52/52
f 44/44/44 52/52/52 45/45/45
f 45/45/45 52/52/52 53/53/53
f 45/45/45 53/53/53 46/46/46
f 46/46/46 53/53/53 54/54/54
f 46/46/46 54/54/54 47/47/47
f 47/47/47 54/54/54 55/55/55
f 47/47/47 55/55/55 48/48/48
f 48/48/48 55/55/55 56/56/56
f 48/48/48 56/56/56 49/49/49
f 50/50/50 57/57/57 58/58/58
f 50/50/50 58/58/58 51/51/51
f 51/51/51 58/58/58 59/59/59
f 51/51/51 59/59/59 52/52/52
f 52/52/52 59/59/59 60/60/60
f 52/52/52 60/60/60 53/53/53
f 53/53/53 60/60/60 61/61/61
f 53/53/53 61/61/61 54/54/54
f 54/54/54 61/61/61 62/62/62
f 54/54/54 62/62/62 55/55/55
f 55/55/55 62/62/62 63/63/63
f 55/55/55 63/63/63 56/56/56
f 57/57/57 64/64/64 65/65/65
f 57/57/57 65/65/65 58/58/58
f 58/58/58 65/65/65 66/66/66
f 58/58/58 66/66/66 59/59/59
f 59/59/59 66/66/66 67/67/67
f 59/59/59 67/67/67 60/60/60
f 60/60/60 67/67/67 68/68/68
f 60/60/60 68/68/68 61/61/61
f 61/61/61 68/68/68 69/69/69
f 61/61/61 69/69/69 62/62/62
f 62/62/62 69/69/69 70/70/70
f 62/62/62 70/70/70 63/63/63
f 64/64/64 71/71/71 72/72/72
f 64/64/64 72/72/72 65/65/65
f 65/65/65 72/72/72 73/73/73
f 65/65/65 73/73/73 66/66/66
f 66/66/66 73/73/73 74/74/74
f 66/66/66 74/74/74 67/67/67
f 67/67/67 74/74/74 75/75/75
f 67/67/67 75/75/75 68/68/68
f 68/68/68 75/75/75 76/76/76
f 68/68/68 76/76/76 69/69/69
f 69/69/69 76/76/76 77/77/77
f 69/69/69 77/77/77 70/70/70
f 78/78/78 79/79/79 95/95/95
f 78/78/78 95/95/95 94/94/94
f 110/110/110 79/79/79 78/78/78
f 111/111/111 94/94/94 95/95/95
f 79/79/79 80/80/80 96/96/96
f 79/79/79 96/96/96 95/95/95
f 110/110/110 80/80/80 79/79/79
f 111/111/111 95/95/95 96/96/96
f 80/80/80 81/81/81 97/97/97
f 80/80/80 97/97/97 96/96/96
f 110/110/110 81/81/81 80/80/80
f 111/111/111 96/96/96 97/97/97
f 81/81/81 82/82/82 98/98/98
f 81/81/81 98/98/98 97/97/97
f 110/110/110 82/82/82 81/81/81
f 111/111/111 97/97/97 98/98/98
f 82/82/82 83/83/83 99/99/99
f 82/82/82 99/99/99 98/98/98
f 110/110/110 83/83/83 82/82/82
f 111/111/111 98/98/98 99/99/99
f 83/83/83 84/84/84 100/100/100
f 83/83/83 100/100/100 99/99/99
f 110/110/110 84/84/84 83/83/83
f 111/111/111 99/99/99 100/100/100
f 84/84/84 85/85/85 101/101/101
f 84/84/84 101/101/101 100/100/100
f 110/110/110 85/85/85 84/84/84
f 111/111/111 100/100/100 101/101/101
f 85/85/85 86/86/86 102/102/102
f 85/85/85 102/102/102 101/101/101
f 110/110/110 86/86/86 85/85/85
f 111/111/111 101/101/101 102/102/102
f 86/86/86 87/87/87 103/103/103
f 86/86/86 103/103/103 102/102/102
f 110/110/110 87/87/87 86/86/86
f 111/111/111 102/102/102 103/103/103
f 87/87/87 88/88/88 104/104/104
f 87/87/87 104/104/104 103/103/103
f 110/110/110 88/88/88 87/87/87
f 111/111/111 103/103/103 104/104/104
f 88/88/88 89/89/89 105/105/105
f 88/88/88 105/105/105 104/104/104
f 110/110/110 89/89/89 88/88/88
f 111/111/111 104/104/104 105/105/105
f 89/89/89 90/90/90 106/106/106
f 89/89/89 106/106/106 105/105/105
f 110/110/110 90/90/90 89/89/89
f 111/111/111 105/105/105 106/106/106
f 90/90/90 91/91/91 107/107/107
f 90/90/90 107/107/107 106/106/106
f 110/110/110 91/91/91 90/90/90
f 111/111/111 106/106/106 107/107/107
f 91/91/91 92/92/92 108/108/108
f 91/91/91 108/108/108 107/107/107
f 110/110/110 92/92/92 91/91/91
f 111/111/111 107/107/107 108/108/108
f 92/92/92 93/93/93 109/109/109
f 92/92/92 109/109/109 108/108/108
f 110/110/110 93/93/93 92/92/92
f 111/111/111 108/108/108 109/109/109
f 93/93/93 78/78/78 94/94/94
f 93/93/93 94/94/94 109/109/109
f 110/110/110 78/78/78 93/93/93
f 111/111/111 109/109/109 94/94/94
f 112/112/112 119/119/119 120/120/120
f 112/112/112 120/120/120 113/113/113
f 113/113/113 120/120/120 121/121/121
f 113/113/113 121/121/121 114/114/114
f 114/114/114 121/121/121 122/122/122
f 114/114/114 122/122/122 115/115/115
f 115/115/115 122/122/122 123/123/123
f 115/115/115 123/123/123 116/116/116
f 116/116/116 123/123/123 124/124/124
f 116/116/116 124/124/124 117/117/117
f 117/117/117 124/124/124 125/125/125
f 117/117/117 125/125/125 118/118/118
f 119/119/119 126/126/126 127/127/127
f 119/119/119 127/127/127 120/120/120
f 120/120/120 127/127/127 128/128/128
f 120/120/120 128/128/128 121/121/121
f 121/121/121 128/128/128 129/129/129
f 121/121/121 129/129/129 122/122/122
f 122/122/122 129/129/129 130/130/130
f 122/122/122 130/130/130 123/123/123
f 123/123/123 130/130/130 131/131/131
f 123/123/123 131/131/131 124/124/124
f 124/124/124 131/131/131 132/132/132
f 124/124/124 132/132/132 125/125/125
f 126/126/126 133/133/133 134/134/134
f 126/126/126 134/134/134 127/127/127
f 127/127/127 134/134/134 135/135/135
f 127/127/127 135/135/135 128/128/128
f 128/128/128 135/135/135 136/136/136
f 128/128/128 136/136/136 129/129/129
f 129/129/129 136/136/136 137/137/137
f 129/129/129 137/137/137 130/130/130
f 130/130/130 137/137/137 138/138/138
f 130/130/130 138/138/138 131/131/131
f 131/131/131 138/138/138 139/139/139
f 131/131/131 139/139/139 132/132/132
f 133/133/133 140/140/140 141/141/141
f 133/133/133 141/141/141 134/134/134
f 134/134/134 141/141/141 142/142/142
f 134/134/134 142/142/142 135/135/135
f 135/135/135 142/142/142 143/143/143
f 135/135/135 143/143/143 136/136/136
f 136/136/136 143/143/143 144/144/144
f 136/136/136 144/144/144 137/137/137
f 137/137/137 144/144/144 145/145/145
f 137/137/137 145/145/145 138/138/138
f 138/138/138 145/145/145 146/146/146
f 138/138/138 146/146/146 139/139/139
f 140/140/140 147/147/147 148/148/148
f 140/140/140 148/148/148 141/141/141
f 141/141/141 148/148/148 149/149/149
f 141/141/141 149/149/149 142/142/142
f 142/142/142 149/149/149 150/150/150
f 142/142/142 150/150/150 143/143/143
f 143/143/143 150/150/150 151/151/151
f 143/143/143 151/151/151 144/144/144
f 144/144/144 151/151/151 152/152/152
f 144/144/144 152/152/152 145/145/145
f 145/145/145 152/152/152 153/153/153
f 145/145/145 153/153/153 146/146/146
f 147/147/147 154/154/154 155/155/155
f 147/147/147 155/155/155 148/148/148
f 148/148/148 155/155/155 156/156/156
f 148/148/148 156/156/156 149/149/149
f 149/149/149 156/156/156 157/157/157
f 149/149/149 157/157/157 150/150/150
f 150/150/150 157/157/157 158/158/158
f 150/150/150 158/158/158 151/151/151
f 151/151/151 158/158/158 159/159/159
f 151/151/151 159/159/159 152/152/152
f 152/152/152 159/159/159 160/160/160
f 152/152/152 160/160/160 153/153/153
f 154/154/154 161/161/161 162/162/162
f 154/154/154 162/162/162 155/155/155
f 155/155/155 162/162/162 163/163/163
f 155/155/155 163/163/163 156/156/156
f 156/156/156 163/163/163 164/164/164
f 156/156/156 164/164/164 157/157/157
f 157/157/157 164/164/164 165/165/165
f 157/157/157 165/165/165 158/158/158
f 158/158/158 165/165/165 166/166/166
f 158/158/158 166/166/166 159/159/159
f 159/159/159 166/166/166 167/167/167
f 159/159/159 167/167/167 160/160/160
f 161/161/161 168/168/168 169/169/169
f 161/161/161 169/169/169 162/162/162
f 162/162/162 169/169/169 170/170/170
f 162/162/162 170/170/170 163/163/163
f 163/163/163 170/170/170 171/171/171
f 163/163/163 171/171/171 164/164/164
f 164/164/164 171/171/171 172/172/172
f 164/164/164 172/172/172 165/165/165
f 165/165/165 172/172/172 173/173/173
f 165/165/165 173/173/173 166/166/166
f 166/166/166 173/173/173 174/174/174
f 166/166/166 174/174/174 167/167/167
f 168/168/168 175/175/175 176/176/176
f 168/168/168 176/176/176 169/169/169
f 169/169/169 176/176/176 177/177/177
f 169/169/169 177/177/177 170/170/170
f 170/170/170 177/177/177 178/178/178
f 170/170/170 178/178/178 171/171/171
f 171/171/171 178/178/178 179/179/179
f 171/171/171 179/179/179 172/172/172
f 172/172/172 179/179/179 180/180/180
f 172/172/172 180/180/180 173/173/173
f 173/173/173 180/180/180 181/181/181
f 173/173/173 181/181/181 174/174/174
f 175/175/175 182/182/182 183/183/183
f 175/175/175 183/183/183 176/176/176
f 176/176/176 183/183/183 184/184/184
f 176/176/176 184/184/184 177/177/177
f 177/177/177 184/184/184 185/185/185
f 177/177/177 185/185/185 178/178/178
f 178/178/178 185/185/185 186/186/186
f 178/178/178 186/186/186 179/179/179
f 179/179/179 186/186/186 187/187/187
f 179/179/179 187/187/187 180/180/180
f 180/180/180 187/187/187 188/188/188
f 180/180/180 188/188/188 181/181/181
f 189/189/189 190/190/190 206/206/206
f 189/189/189 206/206/206 205/205/205
f 221/221/221 190/190/190 189/189/189
f 222/222/222 205/205/205 206/206/206
f 190/190/190 191/191/191 207/207/207
f 190/190/190 207/207/207 206/206/206
f 221/221/221 191/191/191 190/190/190
f 222/222/222 206/206/206 207/207/207
f 191/191/191 192/192/192 208/208/208
f 191/191/191 208/208/208 207/207/207
f 221/221/221 192/192/192 191/191/191
f 222/222/222 207/207/207 208/208/208
f 192/192/192 193/193/193 209/209/209
f 192/192/192 209/209/209 208/208/208
f 221/221/221 193/193/193 192/192/192
f 222/222/222 208/208/208 209/209/209
f 193/193/193 194/194/194 210/210/210
f 193/193/193 210/210/210 209/209/209
f 221/221/221 194/194/194 193/193/193
f 222/222/222 209/209/209 210/210/210
f 194/194/194 195/195/195 211/211/211
f 194/194/194 211/211/211 210/210/210
f 221/221/221 195/195/195 194/194/194
f 222/222/222 210/210/210 211/211/211
f 195/195/195 196/196/196 212/212/212
f 195/195/195 212/212/212 211/211/211
f 221/221/221 196/196/196 195/195/195
f 222/222/222 211/211/211 212/212/212
f 196/196/196 197/197/197 213/213/213
f 196/196/196 213/213/213 212/212/212
f 221/221/221 197/197/197 196/196/196
f 222/222/222 212/212/212 213/213/213
f 197/197/197 198/198/198 214/214/214
f 197/197/197 214/214/214 213/213/213
f 221/221/221 198/198/198 197/197/197
f 222/222/222 213/213/213 214/214/214
f 198/198/198 199/199/199 215/215/215
f 198/198/198 215/215/215 214/214/214
f 221/221/221 199/199/199 198/198/198
f 222/222/222 214/214/214 215/215/215
f 199/199/199 200/200/200 216/216/216
f 199/199/199 216/216/216 215/215/215
f 221/221/221 200/200/200 199/199/199
f 222/222/222 215/215/215 216/216/216
f 200/200/200 201/201/201 217/217/217
f 200/200/200 217/217/217 216/216/216
f 221/221/221 201/201/201 200/200/200
f 222/222/222 216/216/216 217/217/217
f 201/201/201 202/202/202 218/218/218
f 201/201/201 218/218/218 217/217/217
f 221/221/221 202/202/202 201/201/201
f 222/222/222 217/217/217 218/218/218
f 202/202/202 203/203/203 219/219/219
f 202/202/202 219/219/219 218/218/218
f 221/221/221 203/203/203 202/202/202
f 222/222/222 218/218/218 219/219/219
f 203/203/203 204/204/204 220/220/220
f 203/203/203 220/220/220 219/219/219
f 221/221/221 204/204/204 203/203/203
f 222/222/222 219/219/219 220/220/220
f 204/204/204 189/189/189 205/205/205
f 204/204/204 205/205/205 220/220/220
f 221/221/221 189/189/189 204/204/204
f 222/222/222 220/220/220 205/205/205
f 223/223/223 224/224/224 240/240/240
f 223/223/223 240/240/240 239/239/239
f 255/255/255 224/224/224 223/223/223
f 256/256/256 239/239/239 240/240/240
f 224/224/224 225/225/225 241/241/241
f 224/224/224 241/241/241 240/240/240
f 255/255/255 225/225/225 224/224/224
f 256/256/256 240/240/240 241/241/241
f 225/225/225 226/226/226 242/242/242
f 225/225/225 242/242/242 241/241/241
f 255/255/255 226/226/226 225/225/225
f 256/256/256 241/241/241 242/242/242
f 226/226/226 227/227/227 243/243/243
f 226/226/226 243/243/243 242/242/242
f 255/255/255 227/227/227 226/226/226
f 256/256/256 242/242/242 243/243/243
f 227/227/227 228/228/228 244/244/244
f 227/227/227 244/244/244 243/243/243
f 255/255/255 228/228/228 227/227/227
f 256/256/256 243/243/243 244/244/244
f 228/228/228 229/229/229 245/245/245
f 228/228/228 245/245/245 244/244/244
f 255/255/255 229/229/229 228/228/228
f 256/256/256 244/244/244 245/245/245
f 229/229/229 230/230/230 246/246/246
f 229/229/229 246/246/246 245/245/245
f 255/255/255 230/230/230 229/229/229
f 256/256/256 245/245/245 246/246/246
f 230/230/230 231/231/231 247/247/247
f 230/230/230 247/247/247 246/246/246
f 255/255/255 231/231/231 230/230/230
f 256/256/256 246/246/246 247/247/247
f 231/231/231 232/232/232 248/248/248
f 231/231/231 248/248/248 247/247/247
f 255/255/255 232/232/232 231/231/231
f 256/256/256 247/247/247 248/248/248
f 232/232/232 233/233/233 249/249/249
f 232/232/232 249/249/249 248/248/248
f 255/255/255 233/233/233 232/232/232
f 256/256/256 248/248/248 249/249/249
f 233/233/233 234/234/234 250/250/250
f 233/233/233 250/250/250 249/249/249
f 255/255/255 234/234/234 233/233/233
f 256/256/256 249/249/249 250/250/250
f 234/234/234 235/235/235 251/251/251
f 234/234/234 251/251/251 250/250/250
f 255/255/255 235/235/235 234/234/234
f 256/256/256 250/250/250 251/251/251
f 235/235/235 236/236/236 252/252/252
f 235/235/235 252/252/252 251/251/251
f 255/255/255 236/236/236 235/235/235
f 256/256/256 251/251/251 252/252/252
f 236/236/236 237/237/237 253/253/253
f 236/236/236 253/253/253 252/252/252
f 255/255/255 237/237/237 236/236/236
f 256/256/256 252/252/252 253/253/253
f 237/237/237 238/238/238 254/254/254
f 237/237/237 254/254/254 253/253/253
f 255/255/255 238/238/238 237/237/237
f 256/256/256 253/253/253 254/254/254
f 238/238/238 223/223/223 239/239/239
f 238/238/238 239/239/239 254/254/254
f 255/255/255 223/223/223 238/238/238
f 256/256/256 254/254/254 239/239/239
f 257/257/257 264/264/264 265/265/265
f 257/257/257 265/265/265 258/258/258
f 258/258/258 265/265/265 266/266/266
f 258/258/258 266/266/266 259/259/259
f 259/259/259 266/266/266 267/267/267
f 259/259/259 267/267/267 260/260/260
f 260/260/260 267/267/267 268/268/268
f 260/260/260 268/268/268 261/261/261
f 261/261/261 268/268/268 269/269/269
f 261/261/261 269/269/269 262/262/262
f 262/262/262 269/269/269 270/270/270
f 262/262/262 270/270/270 263/263/263
f 264/264/264 271/271/271 272/272/272
f 264/264/264 272/272/272 265/265/265
f 265/265/265 272/272/272 273/273/273
f 265/265/265 273/273/273 266/266/266
f 266/266/266 273/273/273 274/274/274
f 266/266/266 274/274/274 267/267/267
f 267/267/267 274/274/274 275/275/275
f 267/267/267 275/275/275 268/268/268
f 268/268/268 275/275/275 276/276/276
f 268/268/268 276/276/276 269/269/269
f 269/269/269 276/276/276 277/277/277
f 269/269/269 277/277/277 270/270/270
f 271/271/271 278/278/278 279/279/279
f 271/271/271 279/279/279 272/272/272
f 272/272/272 279/279/279 280/280/280
f 272/272/272 280/280/280 273/273/273
f 273/273/273 280/280/280 281/281/281
f 273/273/273 281/281/281 274/274/274
f 274/274/274 281/281/281 282/282/282
f 274/274/274 282/282/282 275/275/275
f 275/275/275 282/282/282 283/283/283
f 275/275/275 283/283/283 276/276/276
f 276/276/276 283/283/283 284/284/284
f 276/276/276 284/284/284 277/277/277
f 278/278/278 285/285/285 286/286/286
f 278/278/278 286/286/286 279/279/279
f 279/279/279 286/286/286 287/287/287
f 279/279/279 287/287/287 280/280/280
f 280/280/280 287/287/287 288/288/288
f 280/280/280 288/288/288 281/281/281
f 281/281/281 288/288/288 289/289/289
f 281/281/281 289/289/289 282/282/282
f 282/282/282 289/289/289 290/290/290
f 282/282/282 290/290/290 283/283/283
f 283/283/283 290/290/290 291/291/291
f 283/283/283 291/291/291 284/284/284
f 285/285/285 292/292/292 293/293/293
f 285/285/285 293/293/293 286/286/286
f 286/286/286 293/293/293 294/294/294
f 286/286/286 294/294/294 287/287/287
f 287/287/287 294/294/294 295/295/295
f 287/287/287 295/295/295 288/288/288
f 288/288/288 295/295/295 296/296/296
f 288/288/288 296/296/296 289/289/289
f 289/289/289 296/296/296 297/297/297
f 289/289/289 297/297/297 290/290/290
f 290/290/290 297/297/297 298/298/298
f 290/290/290 298/298/298 291/291/291
f 292/292/292 299/299/299 300/300/300
f 292/292/292 300/300/300 293/293/293
f 293/293/293 300/300/300 301/301/301
f 293/293/293 301/301/301 294/294/294
f 294/294/294 301/301/301 302/302/302
f 294/294/294 302/302/302 295/295/295
f 295/295/295 302/302/302 303/303/303
f 295/295/295 303/303/303 296/296/296
f 296/296/296 303/303/303 304/304/304
f 296/296/296 304/304/304 297/297/297
f 297/297/297 304/304/304 305/305/305
f 297/297/297 305/305/305 298/298/298
f 299/299/299 306/306/306 307/307/307
f 299/299/299 307/307/307 300/300/300
f 300/300/300 307/307/307 308/308/308
f 300/300/300 308/308/308 301/301/301
f 301/301/301 308/308/308 309/309/309
f 301/301/301 309/309/309 302/302/302
f 302/302/302 309/309/309 310/310/310
f 302/302/302 310/310/310 303/303/303
f 303/303/303 310/310/310 311/311/311
f 303/303/303 311/311/311 304/304/304
f 304/304/304 311/311/311 312/312/312
f 304/304/304 312/312/312 305/305/305
f 306/306/306 313/313/313 314/314/314
f 306/306/306 314/314/314 307/307/307
f 307/307/307 314/314/314 315/315/315
f 307/307/307 315/315/315 308/308/308
f 308/308/308 315/315/315 316/316/316
f 308/308/308 316/316/316 309/309/309
f 309/309/309 316/316/316 317/317/317
f 309/309/309 317/317/317 310/310/310
f 310/310/310 317/317/317 318/318/318
f 310/310/310 318/318/318 311/311/311
f 311/311/311 318/318/318 319/319/319
f 311/311/311 319/319/319 312/312/312
f 313/313/313 320/320/320 321/321/321
f 313/313/313 321/321/321 314/314/314
f 314/314/314 321/321/321 322/322/322
f 314/314/314 322/322/322 315/315/315
f 315/315/315 322/322/322 323/323/323
f 315/315/315 323/323/323 316/316/316
f 316/316/316 323/323/323 324/324/324
f 316/316/316 324/324/324 317/317/317
f 317/317/317 324/324/324 325/325/325
f 317/317/317 325/325/325 318/318/318
f 318/318/318 325/325/325 326/326/326
f 318/318/318 326/326/326 319/319/319
f 320/320/320 327/327/327 328/328/328
f 320/320/320 328/328/328 321/321/321
f 321/321/321 328/328/328 329/329/329
f 321/321/321 329/329/329 322/322/322
f 322/322/322 329/329/329 330/330/330
f 322/322/322 330/330/330 323/323/323
f 323/323/323 330/330/330 331/331/331
f 323/323/323 331/331/331 324/324/324
f 324/324/324 331/331/331 332/332/332
f 324/324/324 332/332/332 325/325/325
f 325/325/325 332/332/332 333/333/333
f 325/325/325 333/333/333 326/326/326
f 334/334/334 335/335/335 347/347/347
f 334/334/334 347/347/347 346/346/346
f 358/358/358 335/335/335 334/334/334
f 359/359/359 346/346/346 347/347/347
f 335/335/335 336/336/336 348/348/348
f 335/335/335 348/348/348 347/347/347
f 358/358/358 336/336/336 335/335/335
f 359/359/359 347/347/347 348/348/348
f 336/336/336 337/337/337 349/349/349
f 336/336/336 349/349/349 348/348/348
f 358/358/358 337/337/337 336/336/336
f 359/359/359 348/348/348 349/349/349
f 337/337/337 338/338/338 350/350/350
f 337/337/337 350/350/350 349/349/349
f 358/358/358 338/338/338 337/337/337
f 359/359/359 349/349/349 350/350/350
f 338/338/338 339/339/339 351/351/351
f 338/338/338 351/351/351 350/350/350
f 358/358/358 339/339/339 338/338/338
f 359/359/359 350/350/350 351/351/351
f 339/339/339 340/340/340 352/352/352
f 339/339/339 352/352/352 351/351/351
f 358/358/358 340/340/340 339/339/339
f 359/359/359 351/351/351 352/352/352
f 340/340/340 341/341/341 353/353/353
f 340/340/340 353/353/353 352/352/352
f 358/358/358 341/341/341 340/340/340
f 359/359/359 352/352/352 353/353/353
f 341/341/341 342/342/342 354/354/354
f 341/341/341 354/354/354 353/353/353
f 358/358/358 342/342/342 341/341/341
f 359/359/359 353/353/353 354/354/354
f 342/342/342 343/343/343 355/355/355
f 342/342/342 355/355/355 354/354/354
f 358/358/358 343/343/343 342/342/342
f 359/359/359 354/354/354 355/355/355
f 343/343/343 344/344/344 356/356/356
f 343/343/343 356/356/356 355/355/355
f 358/358/358 344/344/344 343/343/343
f 359/359/359 355/355/355 356/356/356
f 344/344/344 345/345/345 357/357/357
f 344/344/344 357/357/357 356/356/356
f 358/358/358 345/345/345 344/344/344
f 359/359/359 356/356/356 357/357/357
f 345/345/345 334/334/334 346/346/346
f 345/345/345 346/346/346 357/357/357
f 358/358/358 334/334/334 345/345/345
f 359/359/359 357/357/357 346/346/346
f 360/360/360 361/361/361 373/373/373
f 360/360/360 373/373/373 372/372/372
f 384/384/384 361/361/361 360/360/360
f 385/385/385 372/372/372 373/373/373
f 361/361/361 362/362/362 374/374/374
f 361/361/361 374/374/374 373/373/373
f 384/384/384 362/362/362 361/361/361
f 385/385/385 373/373/373 374/374/374
f 362/362/362 363/363/363 375/375/375
f 362/362/362 375/375/375 374/374/374
f 384/384/384 363/363/363 362/362/362
f 385/385/385 374/374/374 375/375/375
f 363/363/363 364/364/364 376/376/376
f 363/363/363 376/376/376 375/375/375
f 384/384/384 364/364/364 363/363/363
f 385/385/385 375/375/375 376/376/376
f 364/364/364 365/365/365 377/377/377
f 364/364/364 377/377/377 376/376/376
f 384/384/384 365/365/365 364/364/364
f 385/385/385 376/376/376 377/377/377
f 365/365/365 366/366/366 378/378/378
f 365/365/365 378/378/378 377/377/377
f 384/384/384 366/366/366 365/365/365
f 385/385/385 377/377/377 378/378/378
f 366/366/366 367/367/367 379/379/379
f 366/366/366 379/379/379 378/378/378
f 384/384/384 367/367/367 366/366/366
f 385/385/385 378/378/378 379/379/379
f 367/367/367 368/368/368 380/380/380
f 367/367/367 380/380/380 379/379/379
f 384/384/384 368/368/368 367/367/367
f 385/385/385 379/379/379 380/380/380
f 368/368/368 369/369/369 381/381/381
f 368/368/368 381/381/381 380/380/380
f 384/384/384 369/369/369 368/368/368
f 385/385/385 380/380/380 381/381/381
f 369/369/369 370/370/370 382/382/382
f 369/369/369 382/382/382 381/381/381
f 384/384/384 370/370/370 369/369/369
f 385/385/385 381/381/381 382/382/382
f 370/370/370 371/371/371 383/383/383
f 370/370/370 383/383/383 382/382/382
f 384/384/384 371/371/371 370/370/370
f 385/385/385 382/382/382 383/383/383
f 371/371/371 360/360/360 372/372/372
f 371/371/371 372/372/372 383/383/383
f 384/384/384 360/360/360 371/371/371
f 385/385/385 383/383/383 372/372/372
f 386/386/386 387/387/387 399/399/399
f 386/386/386 399/399/399 398/398/398
f 410/410/410 387/387/387 386/386/386
f 411/411/411 398/398/398 399/399/399
f 387/387/387 388/388/388 400/400/400
f 387/387/387 400/400/400 399/399/399
f 410/410/410 388/388/388 387/387/387
f 411/411/411 399/399/399 400/400/400
f 388/388/388 389/389/389 401/401/401
f 388/388/388 401/401/401 400/400/400
f 410/410/410 389/389/389 388/388/388
f 411/411/411 400/400/400 401/401/401
f 389/389/389 390/390/390 402/402/402
f 389/389/389 402/402/402 401/401/401
f 410/410/410 390/390/390 389/389/389
f 411/411/411 401/401/401 402/402/402
f 390/390/390 391/391/391 403/403/403
f 390/390/390 403/403/403 402/402/402
f 410/410/410 391/391/391 390/390/390
f 411/411/411 402/402/402 403/403/403
f 391/391/391 392/392/392 404/404/404
f 391/391/391 404/404/404 403/403/403
f 410/410/410 392/392/392 391/391/391
f 411/411/411 403/403/403 404/404/404
f 392/392/392 393/393/393 405/405/405
f 392/392/392 405/405/405 404/404/404
f 410/410/410 393/393/393 392/392/392
f 411/411/411 404/404/404 405/405/405
f 393/393/393 394/394/394 406/406/406
f 393/393/393 406/406/406 405/405/405
f 410/410/410 394/394/394 393/393/393
f 411/411/411 405/405/405 406/406/406
f 394/394/394 395/395/395 407/407/407
f 394/394/394 407/407/407 406/406/406
f 410/410/410 395/395/395 394/394/394
f 411/411/411 406/406/406 407/407/407
f 395/395/395 396/396/396 408/408/408
f 395/395/395 408/408/408 407/407/407
f 410/410/410 396/396/396 395/395/395
f 411/411/411 407/407/407 408/408/408
f 396/396/396 397/397/397 409/409/409
f 396/396/396 409/409/409 408/408/408
f 410/410/410 397/397/397 396/396/396
f 411/411/411 408/408/408 409/409/409
f 397/397/397 386/386/386 398/398/398
f 397/397/397 398/398/398 409/409/409
f 410/410/410 386/386/386 397/397/397
f 411/411/411 409/409/409 398/398/398
f 412/412/412 413/413/413 425/425/425
f 412/412/412 425/425/425 424/424/424
f 436/436/436 413/413/413 412/412/412
f 437/437/437 424/424/424 425/425/425
f 413/413/413 414/414/414 426/426/426
f 413/413/413 426/426/426 425/425/425
f 436/436/436 414/414/414 413/413/413
f 437/437/437 425/425/425 426/426/426
f 414/414/414 415/415/415 427/427/427
f 414/414/414 427/427/427 426/426/426
f 436/436/436 415/415/415 414/414/414
f 437/437/437 426/426/426 427/427/427
f 415/415/415 416/416/416 428/428/428
f 415/415/415 428/428/428 427/427/427
f 436/436/436 416/416/416 415/415/415
f 437/437/437 427/427/427 428/428/428
f 416/416/416 417/417/417 429/429/429
f 416/416/416 429/429/429 428/428/428
f 436/436/436 417/417/417 416/416/416
f 437/437/437 428/428/428 429/429/429
f 417/417/417 418/418/418 430/430/430
f 417/417/417 430/430/430 429/429/429
f 436/436/436 418/418/418 417/417/417
f 437/437/437 429/429/429 430/430/430
f 418/418/418 419/419/419 431/431/431
f 418/418/418 431/431/431 430/430/430
f 436/436/436 419/419/419 418/418/418
f 437/437/437 430/430/430 431/431/431
f 419/419/419 420/420/420 432/432/432
f 419/419/419 432/432/432 431/431/431
f 436/436/436 420/420/420 419/419/419
f 437/437/437 431/431/431 432/432/432
f 420/420/420 421/421/421 433/433/433
f 420/420/420 433/433/433 432/432/432
f 436/436/436 421/421/421 420/420/420
f 437/437/437 432/432/432 433/433/433
f 421/421/421 422/422/422 434/434/434
f 421/421/421 434/434/434 433/433/433
f 436/436/436 422/422/422 421/421/421
f 437/437/437 433/433/433 434/434/434
f 422/422/422 423/423/423 435/435/435
f 422/422/422 435/435/435 434/434/434
f 436/436/436 423/423/423 422/422/422
f 437/437/437 434/434/434 435/435/435
f 423/423/423 412/412/412 424/424/424
f 423/423/423 424/424/424 435/435/435
f 436/436/436 412/412/412 423/423/423
f 437/437/437 435/435/435 424/424/424
f 438/438/438 439/439/439 451/451/451
f 438/438/438 451/451/451 450/450/450
f 462/462/462 439/439/439 438/438/438
f 463/463/463 450/450/450 451/451/451
f 439/439/439 440/440/440 452/452/452
f 439/439/439 452/452/452 451/451/451
f 462/462/462 440/440/440 439/439/439
f 463/463/463 451/451/451 452/452/452
f 440/440/440 441/441/441 453/453/453
f 440/440/440 453/453/453 452/452/452
f 462/462/462 441/441/441 440/440/440
f 463/463/463 452/452/452 453/453/453
f 441/441/441 442/442/442 454/454/454
f 441/441/441 454/454/454 453/453/453
f 462/462/462 442/442/442 441/441/441
f 463/463/463 453/453/453 454/454/454
f 442/442/442 443/443/443 455/455/455
f 442/442/442 455/455/455 454/454/454
f 462/462/462 443/443/443 442/442/442
f 463/463/463 454/454/454 455/455/455
f 443/443/443 444/444/444 456/456/456
f 443/443/443 456/456/456 455/455/455
f 462/462/462 444/444/444 443/443/443
f 463/463/463 455/455/455 456/456/456
f 444/444/444 445/445/445 457/457/457
f 444/444/444 457/457/457 456/456/456
f 462/462/462 445/445/445 444/444/444
f 463/463/463 456/456/456 457/457/457
f 445/445/445 446/446/446 458/458/458
f 445/445/445 458/458/458 457/457/457
f 462/462/462 446/446/446 445/445/445
f 463/463/463 457/457/457 458/458/458
f 446/446/446 447/447/447 459/459/459
f 446/446/446 459/459/459 458/458/458
f 462/462/462 447/447/447 446/446/446
f 463/463/463 458/458/458 459/459/459
f 447/447/447 448/448/448 460/460/460
f 447/447/447 460/460/460 459/459/459
f 462/462/462 448/448/448 447/447/447
f 463/463/463 459/459/459 460/460/460
f 448/448/448 449/449/449 461/461/461
f 448/448/448 461/461/461 460/460/460
f 462/462/462 449/449/449 448/448/448
f 463/463/463 460/460/460 461/461/461
f 449/449/449 438/438/438 450/450/450
f 449/449/449 450/450/450 461/461/461
f 462/462/462 438/438/438 449/449/449
f 463/463/463 461/461/461 450/450/450
f 464/464/464 465/465/465 477/477/477
f 464/464/464 477/477/477 476/476/476
f 488/488/488 465/465/465 464/464/464
f 489/489/489 476/476/476 477/477/477
f 465/465/465 466/466/466 478/478/478
f 465/465/465 478/478/478 477/477/477
f 488/488/488 466/466/466 465/465/465
f 489/489/489 477/477/477 478/478/478
f 466/466/466 467/467/467 479/479/479
f 466/466/466 479/479/479 478/478/478
f 488/488/488 467/467/467 466/466/466
f 489/489/489 478/478/478 479/479/479
f 467/467/467 468/468/468 480/480/480
f 467/467/467 480/480/480 479/479/479
f 488/488/488 468/468/468 467/467/467
f 489/489/489 479/479/479 480/480/480
f 468/468/468 469/469/469 481/481/481
f 468/468/468 481/481/481 480/480/480
f 488/488/488 469/469/469 468/468/468
f 489/489/489 480/480/480 481/481/481
f 469/469/469 470/470/470 482/482/482
f 469/469/469 482/482/482 481/481/481
f 488/488/488 470/470/470 469/469/469
f 489/489/489 481/481/481 482/482/482
f 470/470/470 471/471/471 483/483/483
f 470/470/470 483/483/483 482/482/482
f 488/488/488 471/471/471 470/470/470
f 489/489/489 482/482/482 483/483/483
f 471/471/471 472/472/472 484/484/484
f 471/471/471 484/484/484 483/483/483
f 488/488/488 472/472/472 471/471/471
f 489/489/489 483/483/483 484/484/484
f 472/472/472 473/473/473 485/485/485
f 472/472/472 485/485/485 484/484/484
f 488/488/488 473/473/473 472/472/472
f 489/489/489 484/484/484 485/485/485
f 473/473/473 474/474/474 486/486/486
f 473/473/473 486/486/486 485/485/485
f 488/488/488 474/474/474 473/473/473
f 489/489/489 485/485/485 486/486/486
f 474/474/474 475/475/475 487/487/487
f 474/474/474 487/487/487 486/486/486
f 488/488/488 475/475/475 474/474/474
f 489/489/489 486/486/486 487/487/487
f 475/475/475 464/464/464 476/476/476
f 475/475/475 476/476/476 487/487/487
f 488/488/488 464/464/464 475/475/475
f 489/489/489 487/487/487 476/476/476
f 490/490/490 491/491/491 503/503/503
f 490/490/490 503/503/503 502/502/502
f 514/514/514 491/491/491 490/490/490
f 515/515/515 502/502/502 503/503/503
f 491/491/491 492/492/492 504/504/504
f 491/491/491 504/504/504 503/503/503
f 514/514/514 492/492/492 491/491/491
f 515/515/515 503/503/503 504/504/504
f 492/492/492 493/493/493 505/505/505
f 492/492/492 505/505/505 504/504/504
f 514/514/514 493/493/493 492/492/492
f 515/515/515 504/504/504 505/505/505
f 493/493/493 494/494/494 506/506/506
f 493/493/493 506/506/506 505/505/505
f 514/514/514 494/494/494 493/493/493
f 515/515/515 505/505/505 506/506/506
f 494/494/494 495/495/495 507/507/507
f 494/494/494 507/507/507 506/506/506
f 514/514/514 495/495/495 494/494/494
f 515/515/515 506/506/506 507/507/507
f 495/495/495 496/496/496 508/508/508
f 495/495/495 508/508/508 507/507/507
f 514/514/514 496/496/496 495/495/495
f 515/515/515 507/507/507 508/508/508
f 496/496/496 497/497/497 509/509/509
f 496/496/496 509/509/509 508/508/508
f 514/514/514 497/497/497 496/496/496
f 515/515/515 508/508/508 509/509/509
f 497/497/497 498/498/498 510/510/510
f 497/497/497 510/510/510 509/509/509
f 514/514/514 498/498/498 497/497/497
f 515/515/515 509/509/509 510/510/510
f 498/498/498 499/499/499 511/511/511
f 498/498/498 511/511/511 510/510/510
f 514/514/514 499/499/499 498/498/498
f 515/515/515 510/510/510 511/511/511
f 499/499/499 500/500/500 512/512/512
f 499/499/499 512/512/512 511/511/511
f 514/514/514 500/500/500 499/499/499
f 515/515/515 511/511/511 512/512/512
f 500/500/500 501/501/501 513/513/513
f 500/500/500 513/513/513 512/512/512
f 514/514/514 501/501/501 500/500/500
f 515/515/515 512/512/512 513/513/513
f 501/501/501 490/490/490 502/502/502
f 501/501/501 502/502/502 513/513/513
f 514/514/514 490/490/490 501/501/501
f 515/515/515 513/513/513 502/502/502
f 516/516/516 518/518/518 517/517/517
f 516/516/516 519/519/519 518/518/518
f 520/520/520 521/521/521 522/522/522
f 520/520/520 522/522/522 523/523/523
f 516/516/516 517/517/517 521/521/521
f 516/516/516 521/521/521 520/520/520
f 518/518/518 519/519/519 523/523/523
f 518/518/518 523/523/523 522/522/522
f 516/516/516 520/520/520 523/523/523
f 516/516/516 523/523/523 519/519/519
f 517/517/517 518/518/518 522/522/522
f 517/517/517 522/522/522 521/521/521
f 524/524/524 526/526/526 525/525/525
f 524/524/524 527/527/527 526/526/526
f 528/528/528 529/529/529 530/530/530
f 528/528/528 530/530/530 531/531/531
f 524/524/524 525/525/525 529/529/529
f 524/524/524 529/529/529 528/528/528
f 526/526/526 527/527/527 531/531/531
f 526/526/526 531/531/531 530/530/530
f 524/524/524 528/528/528 531/531/531
f 524/524/524 531/531/531 527/527/527
f 525/525/525 526/526/526 530/530/530
f 525/525/525 530/530/530 529/529/529
f 532/532/532 534/534/534 533/533/533
f 532/532/532 535/535/535 534/534/534
f 536/536/536 537/537/537 538/538/538
f 536/536/536 538/538/538 539/539/539
f 532/532/532 533/533/533 537/537/537
f 532/532/532 537/537/537 536/536/536
f 534/534/534 535/535/535 539/539/539
f 534/534/534 539/539/539 538/538/538
f 532/532/532 536/536/536 539/539/539
f 532/532/532 539/539/539 535/535/535
f 533/533/533 534/534/534 538/538/538
f 533/533/533 538/538/538 537/537/537
f 540/540/540 542/542/542 541/541/541
f 540/540/540 543/543/543 542/542/542
f 544/544/544 545/545/545 546/546/546
f 544/544/544 546/546/546 547/547/547
f 540/540/540 541/541/541 545/545/545
f 540/540/540 545/545/545 544/544/544
f 542/542/542 543/543/543 547/547/547
f 542/542/542 547/547/547 546/546/546
f 540/540/540 544/544/544 547/547/547
f 540/540/540 547/547/547 543/543/543
f 541/541/541 542/542/542 546/546/546
f 541/541/541 546/546/546 545/545/545
f 548/548/548 549/549/549 565/565/565
f 548/548/548 565/565/565 564/564/564
f 580/580/580 549/549/549 548/548/548
f 581/581/581 564/564/564 565/565/565
f 549/549/549 550/550/550 566/566/566
f 549/549/549 566/566/566 565/565/565
f 580/580/580 550/550/550 549/549/549
f 581/581/581 565/565/565 566/566/566
f 550/550/550 551/551/551 567/567/567
f 550/550/550 567/567/567 566/566/566
f 580/580/580 551/551/551 550/550/550
f 581/581/581 566/566/566 567/567/567
f 551/551/551 552/552/552 568/568/568
f 551/551/551 568/568/568 567/567/567
f 580/580/580 552/552/552 551/551/551
f 581/581/581 567/567/567 568/568/568
f 552/552/552 553/553/553 569/569/569
f 552/552/552 569/569/569 568/568/568
f 580/580/580 553/553/553 552/552/552
f 581/581/581 568/568/568 569/569/569
f 553/553/553 554/554/554 570/570/570
f 553/553/553 570/570/570 569/569/569
f 580/580/580 554/554/554 553/553/553
f 581/581/581 569/569/569 570/570/570
f 554/554/554 555/555/555 571/571/571
f 554/554/554 571/571/571 570/570/570
f 580/580/580 555/555/555 554/554/554
f 581/581/581 570/570/570 571/571/571
f 555/555/555 556/556/556 572/572/572
f 555/555/555 572/572/572 571/571/571
f 580/580/580 556/556/556 555/555/555
f 581/581/581 571/571/571 572/572/572
f 556/556/556 557/557/557 573/573/573
f 556/556/556 573/573/573 572/572/572
f 580/580/580 557/557/557 556/556/556
f 581/581/581 572/572/572 573/573/573
f 557/557/557 558/558/558 574/574/574
f 557/557/557 574/574/574 573/573/573
f 580/580/580 558/558/558 557/557/557
f 581/581/581 573/573/573 574/574/574
f 558/558/558 559/559/559 575/575/575
f 558/558/558 575/575/575 574/574/574
f 580/580/580 559/559/559 558/558/558
f 581/581/581 574/574/574 575/575/575
f 559/559/559 560/560/560 576/576/576
f 559/559/559 576/576/576 575/575/575
f 580/580/580 560/560/560 559/559/559
f 581/581/581 575/575/575 576/576/576
f 560/560/560 561/561/561 577/577/577
f 560/560/560 577/577/577 576/576/576
f 580/580/580 561/561/561 560/560/560
f 581/581/581 576/576/576 577/577/577
f 561/561/561 562/562/562 578/578/578
f 561/561/561 578/578/578 577/577/577
f 580/580/580 562/562/562 561/561/561
f 581/581/581 577/577/577 578/578/578
f 562/562/562 563/563/563 579/579/579
f 562/562/562 579/579/579 578/578/578
f 580/580/580 563/563/563 562/562/562
f 581/581/581 578/578/578 579/579/579
f 563/563/563 548/548/548 564/564/564
f 563/563/563 564/564/564 579/579/579
f 580/580/580 548/548/548 563/563/563
f 581/581/581 579/579/579 564/564/564
f 582/582/582 583/583/583 599/599/599
f 582/582/582 599/599/599 598/598/598
f 614/614/614 583/583/583 582/582/582
f 615/615/615 598/598/598 599/599/599
f 583/583/583 584/584/584 600/600/600
f 583/583/583 600/600/600 599/599/599
f 614/614/614 584/584/584 583/583/583
f 615/615/615 599/599/599 600/600/600
f 584/584/584 585/585/585 601/601/601
f 584/584/584 601/601/601 600/600/600
f 614/614/614 585/585/585 584/584/584
f 615/615/615 600/600/600 601/601/601
f 585/585/585 586/586/586 602/602/602
f 585/585/585 602/602/602 601/601/601
f 614/614/614 586/586/586 585/585/585
f 615/615/615 601/601/601 602/602/602
f 586/586/586 587/587/587 603/603/603
f 586/586/586 603/603/603 602/602/602
f 614/614/614 587/587/587 586/586/586
f 615/615/615 602/602/602 603/603/603
f 587/587/587 588/588/588 604/604/604
f 587/587/587 604/604/604 603/603/603
f 614/614/614 588/588/588 587/587/587
f 615/615/615 603/603/603 604/604/604
f 588/588/588 589/589/589 605/605/605
f 588/588/588 605/605/605 604/604/604
f 614/614/614 589/589/589 588/588/588
f 615/615/615 604/604/604 605/605/605
f 589/589/589 590/590/590 606/606/606
f 589/589/589 606/606/606 605/605/605
f 614/614/614 590/590/590 589/589/589
f 615/615/615 605/605/605 606/606/606
f 590/590/590 591/591/591 607/607/607
f 590/590/590 607/607/607 606/606/606
f 614/614/614 591/591/591 590/590/590
f 615/615/615 606/606/606 607/607/607
f 591/591/591 592/592/592 608/608/608
f 591/591/591 608/608/608 607/607/607
f 614/614/614 592/592/592 591/591/591
f 615/615/615 607/607/607 608/608/608
f 592/592/592 593/593/593 609/609/609
f 592/592/592 609/609/609 608/608/608
f 614/614/614 593/593/593 592/592/592
f 615/615/615 608/608/608 609/609/609
f 593/593/593 594/594/594 610/610/610
f 593/593/593 610/610/610 609/609/609
f 614/614/614 594/594/594 593/593/593
f 615/615/615 609/609/609 610/610/610
f 594/594/594 595/595/595 611/611/611
f 594/594/594 611/611/611 610/610/610
f 614/614/614 595/595/595 594/594/594
f 615/615/615 610/610/610 611/611/611
f 595/595/595 596/596/596 612/612/612
f 595/595/595 612/612/612 611/611/611
f 614/614/614 596/596/596 595/595/595
f 615/615/615 611/611/611 612/612/612
f 596/596/596 597/597/597 613/613/613
f 596/596/596 613/613/613 612/612/612
f 614/614/614 597/597/597 596/596/596
f 615/615/615 612/612/612 613/613/613
f 597/597/597 582/582/582 598/598/598
f 597/597/597 598/598/598 613/613/613
f 614/614/614 582/582/582 597/597/597
f 615/615/615 613/613/613 598/598/598