# 3D Model: building/mass/柑竹時尚華廈3D建築外觀浮-02-scaled
# Style: classical_temple_peristyle | Symmetry: symmetric
# Dimensions: 36.522 x 19.687 x 36.522 m
# Triangles: 1064 | Vertices: 613
v 18.2612 0 18.2612
v -18.2612 0 18.2612
v -18.2612 0 -18.2612
v 18.2612 0 -18.2612
v 18.0612 0.45 18.0612
v -18.0612 0.45 18.0612
v -18.0612 0.45 -18.0612
v 18.0612 0.45 -18.0612
v 0 0 0
v 0 0.45 0
v 17.8612 0.45 17.8612
v -17.8612 0.45 17.8612
v -17.8612 0.45 -17.8612
v 17.8612 0.45 -17.8612
v 17.6612 0.9 17.6612
v -17.6612 0.9 17.6612
v -17.6612 0.9 -17.6612
v 17.6612 0.9 -17.6612
v 0 0.45 0
v 0 0.9 0
v 17.4612 0.9 17.4612
v -17.4612 0.9 17.4612
v -17.4612 0.9 -17.4612
v 17.4612 0.9 -17.4612
v 17.2612 1.35 17.2612
v -17.2612 1.35 17.2612
v -17.2612 1.35 -17.2612
v 17.2612 1.35 -17.2612
v 0 0.9 0
v 0 1.35 0
v -11.8028 1.35 -5.8814
v 11.8028 1.35 -5.8814
v 11.8028 8.3261 -5.8814
v -11.8028 8.3261 -5.8814
v -11.8028 1.35 5.8814
v 11.8028 1.35 5.8814
v 11.8028 8.3261 5.8814
v -11.8028 8.3261 5.8814
v -14.0506 1.35 -9.1964
v -14.1824 1.35 -8.8782
v -14.5006 1.35 -8.7464
v -14.8188 1.35 -8.8782
v -14.9506 1.35 -9.1964
v -14.8188 1.35 -9.5146
v -14.5006 1.35 -9.6464
v -14.1824 1.35 -9.5146
v -14.0506 8.3261 -9.1964
v -14.1824 8.3261 -8.8782
v -14.5006 8.3261 -8.7464
v -14.8188 8.3261 -8.8782
v -14.9506 8.3261 -9.1964
v -14.8188 8.3261 -9.5146
v -14.5006 8.3261 -9.6464
v -14.1824 8.3261 -9.5146
v -14.5006 1.35 -9.1964
v -14.5006 8.3261 -9.1964
v -14.0506 1.35 9.1964
v -14.1824 1.35 9.5146
v -14.5006 1.35 9.6464
v -14.8188 1.35 9.5146
v -14.9506 1.35 9.1964
v -14.8188 1.35 8.8782
v -14.5006 1.35 8.7464
v -14.1824 1.35 8.8782
v -14.0506 8.3261 9.1964
v -14.1824 8.3261 9.5146
v -14.5006 8.3261 9.6464
v -14.8188 8.3261 9.5146
v -14.9506 8.3261 9.1964
v -14.8188 8.3261 8.8782
v -14.5006 8.3261 8.7464
v -14.1824 8.3261 8.8782
v -14.5006 1.35 9.1964
v -14.5006 8.3261 9.1964
v -9.9076 1.35 -9.1964
v -10.0394 1.35 -8.8782
v -10.3576 1.35 -8.7464
v -10.6758 1.35 -8.8782
v -10.8076 1.35 -9.1964
v -10.6758 1.35 -9.5146
v -10.3576 1.35 -9.6464
v -10.0394 1.35 -9.5146
v -9.9076 8.3261 -9.1964
v -10.0394 8.3261 -8.8782
v -10.3576 8.3261 -8.7464
v -10.6758 8.3261 -8.8782
v -10.8076 8.3261 -9.1964
v -10.6758 8.3261 -9.5146
v -10.3576 8.3261 -9.6464
v -10.0394 8.3261 -9.5146
v -10.3576 1.35 -9.1964
v -10.3576 8.3261 -9.1964
v -9.9076 1.35 9.1964
v -10.0394 1.35 9.5146
v -10.3576 1.35 9.6464
v -10.6758 1.35 9.5146
v -10.8076 1.35 9.1964
v -10.6758 1.35 8.8782
v -10.3576 1.35 8.7464
v -10.0394 1.35 8.8782
v -9.9076 8.3261 9.1964
v -10.0394 8.3261 9.5146
v -10.3576 8.3261 9.6464
v -10.6758 8.3261 9.5146
v -10.8076 8.3261 9.1964
v -10.6758 8.3261 8.8782
v -10.3576 8.3261 8.7464
v -10.0394 8.3261 8.8782
v -10.3576 1.35 9.1964
v -10.3576 8.3261 9.1964
v -5.7645 1.35 -9.1964
v -5.8963 1.35 -8.8782
v -6.2145 1.35 -8.7464
v -6.5327 1.35 -8.8782
v -6.6645 1.35 -9.1964
v -6.5327 1.35 -9.5146
v -6.2145 1.35 -9.6464
v -5.8963 1.35 -9.5146
v -5.7645 8.3261 -9.1964
v -5.8963 8.3261 -8.8782
v -6.2145 8.3261 -8.7464
v -6.5327 8.3261 -8.8782
v -6.6645 8.3261 -9.1964
v -6.5327 8.3261 -9.5146
v -6.2145 8.3261 -9.6464
v -5.8963 8.3261 -9.5146
v -6.2145 1.35 -9.1964
v -6.2145 8.3261 -9.1964
v -5.7645 1.35 9.1964
v -5.8963 1.35 9.5146
v -6.2145 1.35 9.6464
v -6.5327 1.35 9.5146
v -6.6645 1.35 9.1964
v -6.5327 1.35 8.8782
v -6.2145 1.35 8.7464
v -5.8963 1.35 8.8782
v -5.7645 8.3261 9.1964
v -5.8963 8.3261 9.5146
v -6.2145 8.3261 9.6464
v -6.5327 8.3261 9.5146
v -6.6645 8.3261 9.1964
v -6.5327 8.3261 8.8782
v -6.2145 8.3261 8.7464
v -5.8963 8.3261 8.8782
v -6.2145 1.35 9.1964
v -6.2145 8.3261 9.1964
v -1.6215 1.35 -9.1964
v -1.7533 1.35 -8.8782
v -2.0715 1.35 -8.7464
v -2.3897 1.35 -8.8782
v -2.5215 1.35 -9.1964
v -2.3897 1.35 -9.5146
v -2.0715 1.35 -9.6464
v -1.7533 1.35 -9.5146
v -1.6215 8.3261 -9.1964
v -1.7533 8.3261 -8.8782
v -2.0715 8.3261 -8.7464
v -2.3897 8.3261 -8.8782
v -2.5215 8.3261 -9.1964
v -2.3897 8.3261 -9.5146
v -2.0715 8.3261 -9.6464
v -1.7533 8.3261 -9.5146
v -2.0715 1.35 -9.1964
v -2.0715 8.3261 -9.1964
v -1.6215 1.35 9.1964
v -1.7533 1.35 9.5146
v -2.0715 1.35 9.6464
v -2.3897 1.35 9.5146
v -2.5215 1.35 9.1964
v -2.3897 1.35 8.8782
v -2.0715 1.35 8.7464
v -1.7533 1.35 8.8782
v -1.6215 8.3261 9.1964
v -1.7533 8.3261 9.5146
v -2.0715 8.3261 9.6464
v -2.3897 8.3261 9.5146
v -2.5215 8.3261 9.1964
v -2.3897 8.3261 8.8782
v -2.0715 8.3261 8.7464
v -1.7533 8.3261 8.8782
v -2.0715 1.35 9.1964
v -2.0715 8.3261 9.1964
v 2.5215 1.35 -9.1964
v 2.3897 1.35 -8.8782
v 2.0715 1.35 -8.7464
v 1.7533 1.35 -8.8782
v 1.6215 1.35 -9.1964
v 1.7533 1.35 -9.5146
v 2.0715 1.35 -9.6464
v 2.3897 1.35 -9.5146
v 2.5215 8.3261 -9.1964
v 2.3897 8.3261 -8.8782
v 2.0715 8.3261 -8.7464
v 1.7533 8.3261 -8.8782
v 1.6215 8.3261 -9.1964
v 1.7533 8.3261 -9.5146
v 2.0715 8.3261 -9.6464
v 2.3897 8.3261 -9.5146
v 2.0715 1.35 -9.1964
v 2.0715 8.3261 -9.1964
v 2.5215 1.35 9.1964
v 2.3897 1.35 9.5146
v 2.0715 1.35 9.6464
v 1.7533 1.35 9.5146
v 1.6215 1.35 9.1964
v 1.7533 1.35 8.8782
v 2.0715 1.35 8.7464
v 2.3897 1.35 8.8782
v 2.5215 8.3261 9.1964
v 2.3897 8.3261 9.5146
v 2.0715 8.3261 9.6464
v 1.7533 8.3261 9.5146
v 1.6215 8.3261 9.1964
v 1.7533 8.3261 8.8782
v 2.0715 8.3261 8.7464
v 2.3897 8.3261 8.8782
v 2.0715 1.35 9.1964
v 2.0715 8.3261 9.1964
v 6.6645 1.35 -9.1964
v 6.5327 1.35 -8.8782
v 6.2145 1.35 -8.7464
v 5.8963 1.35 -8.8782
v 5.7645 1.35 -9.1964
v 5.8963 1.35 -9.5146
v 6.2145 1.35 -9.6464
v 6.5327 1.35 -9.5146
v 6.6645 8.3261 -9.1964
v 6.5327 8.3261 -8.8782
v 6.2145 8.3261 -8.7464
v 5.8963 8.3261 -8.8782
v 5.7645 8.3261 -9.1964
v 5.8963 8.3261 -9.5146
v 6.2145 8.3261 -9.6464
v 6.5327 8.3261 -9.5146
v 6.2145 1.35 -9.1964
v 6.2145 8.3261 -9.1964
v 6.6645 1.35 9.1964
v 6.5327 1.35 9.5146
v 6.2145 1.35 9.6464
v 5.8963 1.35 9.5146
v 5.7645 1.35 9.1964
v 5.8963 1.35 8.8782
v 6.2145 1.35 8.7464
v 6.5327 1.35 8.8782
v 6.6645 8.3261 9.1964
v 6.5327 8.3261 9.5146
v 6.2145 8.3261 9.6464
v 5.8963 8.3261 9.5146
v 5.7645 8.3261 9.1964
v 5.8963 8.3261 8.8782
v 6.2145 8.3261 8.7464
v 6.5327 8.3261 8.8782
v 6.2145 1.35 9.1964
v 6.2145 8.3261 9.1964
v 10.8076 1.35 -9.1964
v 10.6758 1.35 -8.8782
v 10.3576 1.35 -8.7464
v 10.0394 1.35 -8.8782
v 9.9076 1.35 -9.1964
v 10.0394 1.35 -9.5146
v 10.3576 1.35 -9.6464
v 10.6758 1.35 -9.5146
v 10.8076 8.3261 -9.1964
v 10.6758 8.3261 -8.8782
v 10.3576 8.3261 -8.7464
v 10.0394 8.3261 -8.8782
v 9.9076 8.3261 -9.1964
v 10.0394 8.3261 -9.5146
v 10.3576 8.3261 -9.6464
v 10.6758 8.3261 -9.5146
v 10.3576 1.35 -9.1964
v 10.3576 8.3261 -9.1964
v 10.8076 1.35 9.1964
v 10.6758 1.35 9.5146
v 10.3576 1.35 9.6464
v 10.0394 1.35 9.5146
v 9.9076 1.35 9.1964
v 10.0394 1.35 8.8782
v 10.3576 1.35 8.7464
v 10.6758 1.35 8.8782
v 10.8076 8.3261 9.1964
v 10.6758 8.3261 9.5146
v 10.3576 8.3261 9.6464
v 10.0394 8.3261 9.5146
v 9.9076 8.3261 9.1964
v 10.0394 8.3261 8.8782
v 10.3576 8.3261 8.7464
v 10.6758 8.3261 8.8782
v 10.3576 1.35 9.1964
v 10.3576 8.3261 9.1964
v 14.9506 1.35 -9.1964
v 14.8188 1.35 -8.8782
v 14.5006 1.35 -8.7464
v 14.1824 1.35 -8.8782
v 14.0506 1.35 -9.1964
v 14.1824 1.35 -9.5146
v 14.5006 1.35 -9.6464
v 14.8188 1.35 -9.5146
v 14.9506 8.3261 -9.1964
v 14.8188 8.3261 -8.8782
v 14.5006 8.3261 -8.7464
v 14.1824 8.3261 -8.8782
v 14.0506 8.3261 -9.1964
v 14.1824 8.3261 -9.5146
v 14.5006 8.3261 -9.6464
v 14.8188 8.3261 -9.5146
v 14.5006 1.35 -9.1964
v 14.5006 8.3261 -9.1964
v 14.9506 1.35 9.1964
v 14.8188 1.35 9.5146
v 14.5006 1.35 9.6464
v 14.1824 1.35 9.5146
v 14.0506 1.35 9.1964
v 14.1824 1.35 8.8782
v 14.5006 1.35 8.7464
v 14.8188 1.35 8.8782
v 14.9506 8.3261 9.1964
v 14.8188 8.3261 9.5146
v 14.5006 8.3261 9.6464
v 14.1824 8.3261 9.5146
v 14.0506 8.3261 9.1964
v 14.1824 8.3261 8.8782
v 14.5006 8.3261 8.7464
v 14.8188 8.3261 8.8782
v 14.5006 1.35 9.1964
v 14.5006 8.3261 9.1964
v -16.1867 8.3261 -10.2658
v 16.1867 8.3261 -10.2658
v 16.1867 9.6261 -10.2658
v -16.1867 9.6261 -10.2658
v -16.1867 8.3261 10.2658
v 16.1867 8.3261 10.2658
v 16.1867 9.6261 10.2658
v -16.1867 9.6261 10.2658
v 0 17.5308 0
v 0 17.5308 0
v 0 17.5308 0
v 0 17.5308 0
v 0 17.5308 0
v 0 17.5308 0
v 0 17.5308 0
v 0 17.5308 0
v 0 17.5308 0
v 0 17.5308 0
v 0 17.5308 0
v 0 17.5308 0
v 0 17.5308 0
v 0 17.5308 0
v 0 17.5308 0
v 0 17.5308 0
v 0 17.5308 0
v 1.4052 17.4334 0
v 1.2982 17.4334 0.5377
v 0.9936 17.4334 0.9936
v 0.5377 17.4334 1.2982
v 0 17.4334 1.4052
v -0.5377 17.4334 1.2982
v -0.9936 17.4334 0.9936
v -1.2982 17.4334 0.5377
v -1.4052 17.4334 0
v -1.2982 17.4334 -0.5377
v -0.9936 17.4334 -0.9936
v -0.5377 17.4334 -1.2982
v 0 17.4334 -1.4052
v 0.5377 17.4334 -1.2982
v 0.9936 17.4334 -0.9936
v 1.2982 17.4334 -0.5377
v 1.4052 17.4334 0
v 2.7758 17.1439 0
v 2.5645 17.1439 1.0622
v 1.9628 17.1439 1.9628
v 1.0622 17.1439 2.5645
v 0 17.1439 2.7758
v -1.0622 17.1439 2.5645
v -1.9628 17.1439 1.9628
v -2.5645 17.1439 1.0622
v -2.7758 17.1439 0
v -2.5645 17.1439 -1.0622
v -1.9628 17.1439 -1.9628
v -1.0622 17.1439 -2.5645
v 0 17.1439 -2.7758
v 1.0622 17.1439 -2.5645
v 1.9628 17.1439 -1.9628
v 2.5645 17.1439 -1.0622
v 2.7758 17.1439 0
v 4.078 16.6692 0
v 3.7676 16.6692 1.5606
v 2.8836 16.6692 2.8836
v 1.5606 16.6692 3.7676
v 0 16.6692 4.078
v -1.5606 16.6692 3.7676
v -2.8836 16.6692 2.8836
v -3.7676 16.6692 1.5606
v -4.078 16.6692 0
v -3.7676 16.6692 -1.5606
v -2.8836 16.6692 -2.8836
v -1.5606 16.6692 -3.7676
v 0 16.6692 -4.078
v 1.5606 16.6692 -3.7676
v 2.8836 16.6692 -2.8836
v 3.7676 16.6692 -1.5606
v 4.078 16.6692 0
v 5.2798 16.0211 0
v 4.8779 16.0211 2.0205
v 3.7334 16.0211 3.7334
v 2.0205 16.0211 4.8779
v 0 16.0211 5.2798
v -2.0205 16.0211 4.8779
v -3.7334 16.0211 3.7334
v -4.8779 16.0211 2.0205
v -5.2798 16.0211 0
v -4.8779 16.0211 -2.0205
v -3.7334 16.0211 -3.7334
v -2.0205 16.0211 -4.8779
v 0 16.0211 -5.2798
v 2.0205 16.0211 -4.8779
v 3.7334 16.0211 -3.7334
v 4.8779 16.0211 -2.0205
v 5.2798 16.0211 0
v 6.3516 15.2155 0
v 5.8681 15.2155 2.4307
v 4.4913 15.2155 4.4913
v 2.4307 15.2155 5.8681
v 0 15.2155 6.3516
v -2.4307 15.2155 5.8681
v -4.4913 15.2155 4.4913
v -5.8681 15.2155 2.4307
v -6.3516 15.2155 0
v -5.8681 15.2155 -2.4307
v -4.4913 15.2155 -4.4913
v -2.4307 15.2155 -5.8681
v 0 15.2155 -6.3516
v 2.4307 15.2155 -5.8681
v 4.4913 15.2155 -4.4913
v 5.8681 15.2155 -2.4307
v 6.3516 15.2155 0
v 7.2671 14.2723 0
v 6.7139 14.2723 2.781
v 5.1386 14.2723 5.1386
v 2.781 14.2723 6.7139
v 0 14.2723 7.2671
v -2.781 14.2723 6.7139
v -5.1386 14.2723 5.1386
v -6.7139 14.2723 2.781
v -7.2671 14.2723 0
v -6.7139 14.2723 -2.781
v -5.1386 14.2723 -5.1386
v -2.781 14.2723 -6.7139
v 0 14.2723 -7.2671
v 2.781 14.2723 -6.7139
v 5.1386 14.2723 -5.1386
v 6.7139 14.2723 -2.781
v 7.2671 14.2723 0
v 8.0035 13.2147 0
v 7.3943 13.2147 3.0628
v 5.6594 13.2147 5.6594
v 3.0628 13.2147 7.3943
v 0 13.2147 8.0035
v -3.0628 13.2147 7.3943
v -5.6594 13.2147 5.6594
v -7.3943 13.2147 3.0628
v -8.0035 13.2147 0
v -7.3943 13.2147 -3.0628
v -5.6594 13.2147 -5.6594
v -3.0628 13.2147 -7.3943
v 0 13.2147 -8.0035
v 3.0628 13.2147 -7.3943
v 5.6594 13.2147 -5.6594
v 7.3943 13.2147 -3.0628
v 8.0035 13.2147 0
v 8.5429 12.0688 0
v 7.8926 12.0688 3.2692
v 6.0408 12.0688 6.0408
v 3.2692 12.0688 7.8926
v 0 12.0688 8.5429
v -3.2692 12.0688 7.8926
v -6.0408 12.0688 6.0408
v -7.8926 12.0688 3.2692
v -8.5429 12.0688 0
v -7.8926 12.0688 -3.2692
v -6.0408 12.0688 -6.0408
v -3.2692 12.0688 -7.8926
v 0 12.0688 -8.5429
v 3.2692 12.0688 -7.8926
v 6.0408 12.0688 -6.0408
v 7.8926 12.0688 -3.2692
v 8.5429 12.0688 0
v 8.872 10.8627 0
v 8.1966 10.8627 3.3952
v 6.2734 10.8627 6.2734
v 3.3952 10.8627 8.1966
v 0 10.8627 8.872
v -3.3952 10.8627 8.1966
v -6.2734 10.8627 6.2734
v -8.1966 10.8627 3.3952
v -8.872 10.8627 0
v -8.1966 10.8627 -3.3952
v -6.2734 10.8627 -6.2734
v -3.3952 10.8627 -8.1966
v 0 10.8627 -8.872
v 3.3952 10.8627 -8.1966
v 6.2734 10.8627 -6.2734
v 8.1966 10.8627 -3.3952
v 8.872 10.8627 0
v 8.9826 9.6261 0
v 8.2988 9.6261 3.4375
v 6.3516 9.6261 6.3516
v 3.4375 9.6261 8.2988
v 0 9.6261 8.9826
v -3.4375 9.6261 8.2988
v -6.3516 9.6261 6.3516
v -8.2988 9.6261 3.4375
v -8.9826 9.6261 0
v -8.2988 9.6261 -3.4375
v -6.3516 9.6261 -6.3516
v -3.4375 9.6261 -8.2988
v 0 9.6261 -8.9826
v 3.4375 9.6261 -8.2988
v 6.3516 9.6261 -6.3516
v 8.2988 9.6261 -3.4375
v 8.9826 9.6261 0
v 0 9.6261 0
v 2.1562 17.5308 0
v 2.0662 17.5308 0.1559
v 1.8862 17.5308 0.1559
v 1.7962 17.5308 0
v 1.8862 17.5308 -0.1559
v 2.0662 17.5308 -0.1559
v 2.1562 17.5308 0
v 1.8673 16.4527 0
v 1.7894 16.4977 0.1559
v 1.6335 16.5877 0.1559
v 1.5555 16.6327 0
v 1.6335 16.5877 -0.1559
v 1.7894 16.4977 -0.1559
v 1.8673 16.4527 0
v 1.0781 15.6635 0
v 1.0331 15.7414 0.1559
v 0.9431 15.8973 0.1559
v 0.8981 15.9752 0
v 0.9431 15.8973 -0.1559
v 1.0331 15.7414 -0.1559
v 1.0781 15.6635 0
v 0 15.3746 0
v 0 15.4646 0.1559
v 0 15.6446 0.1559
v 0 15.7346 0
v 0 15.6446 -0.1559
v 0 15.4646 -0.1559
v 0 15.3746 0
v -1.0781 15.6635 0
v -1.0331 15.7414 0.1559
v -0.9431 15.8973 0.1559
v -0.8981 15.9752 0
v -0.9431 15.8973 -0.1559
v -1.0331 15.7414 -0.1559
v -1.0781 15.6635 0
v -1.8673 16.4527 0
v -1.7894 16.4977 0.1559
v -1.6335 16.5877 0.1559
v -1.5555 16.6327 0
v -1.6335 16.5877 -0.1559
v -1.7894 16.4977 -0.1559
v -1.8673 16.4527 0
v -2.1562 17.5308 0
v -2.0662 17.5308 0.1559
v -1.8862 17.5308 0.1559
v -1.7962 17.5308 0
v -1.8862 17.5308 -0.1559
v -2.0662 17.5308 -0.1559
v -2.1562 17.5308 0
v -1.8673 18.6088 0
v -1.7894 18.5638 0.1559
v -1.6335 18.4738 0.1559
v -1.5555 18.4288 0
v -1.6335 18.4738 -0.1559
v -1.7894 18.5638 -0.1559
v -1.8673 18.6088 0
v -1.0781 19.3981 0
v -1.0331 19.3201 0.1559
v -0.9431 19.1642 0.1559
v -0.8981 19.0863 0
v -0.9431 19.1642 -0.1559
v -1.0331 19.3201 -0.1559
v -1.0781 19.3981 0
v 0 19.6869 0
v 0 19.5969 0.1559
v 0 19.4169 0.1559
v 0 19.3269 0
v 0 19.4169 -0.1559
v 0 19.5969 -0.1559
v 0 19.6869 0
v 1.0781 19.3981 0
v 1.0331 19.3201 0.1559
v 0.9431 19.1642 0.1559
v 0.8981 19.0863 0
v 0.9431 19.1642 -0.1559
v 1.0331 19.3201 -0.1559
v 1.0781 19.3981 0
v 1.8673 18.6088 0
v 1.7894 18.5638 0.1559
v 1.6335 18.4738 0.1559
v 1.5555 18.4288 0
v 1.6335 18.4738 -0.1559
v 1.7894 18.5638 -0.1559
v 1.8673 18.6088 0
v 2.1562 17.5308 0
v 2.0662 17.5308 0.1559
v 1.8862 17.5308 0.1559
v 1.7962 17.5308 0
v 1.8862 17.5308 -0.1559
v 2.0662 17.5308 -0.1559
v 2.1562 17.5308 0
vt 0 0
vt 0.25 0
vt 0.5 0
vt 0.75 0
vt 0 1
vt 0.25 1
vt 0.5 1
vt 0.75 1
vt 0.5 0.5
vt 0.5 0.5
vt 0 0
vt 0.25 0
vt 0.5 0
vt 0.75 0
vt 0 1
vt 0.25 1
vt 0.5 1
vt 0.75 1
vt 0.5 0.5
vt 0.5 0.5
vt 0 0
vt 0.25 0
vt 0.5 0
vt 0.75 0
vt 0 1
vt 0.25 1
vt 0.5 1
vt 0.75 1
vt 0.5 0.5
vt 0.5 0.5
vt 0.5 0.5
vt 0.5 0.5
vt 0.5 0.5
vt 0.5 0.5
vt 0.5 0.5
vt 0.5 0.5
vt 0.5 0.5
vt 0.5 0.5
vt 0 0
vt 0.125 0
vt 0.25 0
vt 0.375 0
vt 0.5 0
vt 0.625 0
vt 0.75 0
vt 0.875 0
vt 0 1
vt 0.125 1
vt 0.25 1
vt 0.375 1
vt 0.5 1
vt 0.625 1
vt 0.75 1
vt 0.875 1
vt 0.5 0.5
vt 0.5 0.5
vt 0 0
vt 0.125 0
vt 0.25 0
vt 0.375 0
vt 0.5 0
vt 0.625 0
vt 0.75 0
vt 0.875 0
vt 0 1
vt 0.125 1
vt 0.25 1
vt 0.375 1
vt 0.5 1
vt 0.625 1
vt 0.75 1
vt 0.875 1
vt 0.5 0.5
vt 0.5 0.5
vt 0 0
vt 0.125 0
vt 0.25 0
vt 0.375 0
vt 0.5 0
vt 0.625 0
vt 0.75 0
vt 0.875 0
vt 0 1
vt 0.125 1
vt 0.25 1
vt 0.375 1
vt 0.5 1
vt 0.625 1
vt 0.75 1
vt 0.875 1
vt 0.5 0.5
vt 0.5 0.5
vt 0 0
vt 0.125 0
vt 0.25 0
vt 0.375 0
vt 0.5 0
vt 0.625 0
vt 0.75 0
vt 0.875 0
vt 0 1
vt 0.125 1
vt 0.25 1
vt 0.375 1
vt 0.5 1
vt 0.625 1
vt 0.75 1
vt 0.875 1
vt 0.5 0.5
vt 0.5 0.5
vt 0 0
vt 0.125 0
vt 0.25 0
vt 0.375 0
vt 0.5 0
vt 0.625 0
vt 0.75 0
vt 0.875 0
vt 0 1
vt 0.125 1
vt 0.25 1
vt 0.375 1
vt 0.5 1
vt 0.625 1
vt 0.75 1
vt 0.875 1
vt 0.5 0.5
vt 0.5 0.5
vt 0 0
vt 0.125 0
vt 0.25 0
vt 0.375 0
vt 0.5 0
vt 0.625 0
vt 0.75 0
vt 0.875 0
vt 0 1
vt 0.125 1
vt 0.25 1
vt 0.375 1
vt 0.5 1
vt 0.625 1
vt 0.75 1
vt 0.875 1
vt 0.5 0.5
vt 0.5 0.5
vt 0 0
vt 0.125 0
vt 0.25 0
vt 0.375 0
vt 0.5 0
vt 0.625 0
vt 0.75 0
vt 0.875 0
vt 0 1
vt 0.125 1
vt 0.25 1
vt 0.375 1
vt 0.5 1
vt 0.625 1
vt 0.75 1
vt 0.875 1
vt 0.5 0.5
vt 0.5 0.5
vt 0 0
vt 0.125 0
vt 0.25 0
vt 0.375 0
vt 0.5 0
vt 0.625 0
vt 0.75 0
vt 0.875 0
vt 0 1
vt 0.125 1
vt 0.25 1
vt 0.375 1
vt 0.5 1
vt 0.625 1
vt 0.75 1
vt 0.875 1
vt 0.5 0.5
vt 0.5 0.5
vt 0 0
vt 0.125 0
vt 0.25 0
vt 0.375 0
vt 0.5 0
vt 0.625 0
vt 0.75 0
vt 0.875 0
vt 0 1
vt 0.125 1
vt 0.25 1
vt 0.375 1
vt 0.5 1
vt 0.625 1
vt 0.75 1
vt 0.875 1
vt 0.5 0.5
vt 0.5 0.5
vt 0 0
vt 0.125 0
vt 0.25 0
vt 0.375 0
vt 0.5 0
vt 0.625 0
vt 0.75 0
vt 0.875 0
vt 0 1
vt 0.125 1
vt 0.25 1
vt 0.375 1
vt 0.5 1
vt 0.625 1
vt 0.75 1
vt 0.875 1
vt 0.5 0.5
vt 0.5 0.5
vt 0 0
vt 0.125 0
vt 0.25 0
vt 0.375 0
vt 0.5 0
vt 0.625 0
vt 0.75 0
vt 0.875 0
vt 0 1
vt 0.125 1
vt 0.25 1
vt 0.375 1
vt 0.5 1
vt 0.625 1
vt 0.75 1
vt 0.875 1
vt 0.5 0.5
vt 0.5 0.5
vt 0 0
vt 0.125 0
vt 0.25 0
vt 0.375 0
vt 0.5 0
vt 0.625 0
vt 0.75 0
vt 0.875 0
vt 0 1
vt 0.125 1
vt 0.25 1
vt 0.375 1
vt 0.5 1
vt 0.625 1
vt 0.75 1
vt 0.875 1
vt 0.5 0.5
vt 0.5 0.5
vt 0 0
vt 0.125 0
vt 0.25 0
vt 0.375 0
vt 0.5 0
vt 0.625 0
vt 0.75 0
vt 0.875 0
vt 0 1
vt 0.125 1
vt 0.25 1
vt 0.375 1
vt 0.5 1
vt 0.625 1
vt 0.75 1
vt 0.875 1
vt 0.5 0.5
vt 0.5 0.5
vt 0 0
vt 0.125 0
vt 0.25 0
vt 0.375 0
vt 0.5 0
vt 0.625 0
vt 0.75 0
vt 0.875 0
vt 0 1
vt 0.125 1
vt 0.25 1
vt 0.375 1
vt 0.5 1
vt 0.625 1
vt 0.75 1
vt 0.875 1
vt 0.5 0.5
vt 0.5 0.5
vt 0 0
vt 0.125 0
vt 0.25 0
vt 0.375 0
vt 0.5 0
vt 0.625 0
vt 0.75 0
vt 0.875 0
vt 0 1
vt 0.125 1
vt 0.25 1
vt 0.375 1
vt 0.5 1
vt 0.625 1
vt 0.75 1
vt 0.875 1
vt 0.5 0.5
vt 0.5 0.5
vt 0 0
vt 0.125 0
vt 0.25 0
vt 0.375 0
vt 0.5 0
vt 0.625 0
vt 0.75 0
vt 0.875 0
vt 0 1
vt 0.125 1
vt 0.25 1
vt 0.375 1
vt 0.5 1
vt 0.625 1
vt 0.75 1
vt 0.875 1
vt 0.5 0.5
vt 0.5 0.5
vt 0.5 0.5
vt 0.5 0.5
vt 0.5 0.5
vt 0.5 0.5
vt 0.5 0.5
vt 0.5 0.5
vt 0.5 0.5
vt 0.5 0.5
vt 0 0
vt 0.0625 0
vt 0.125 0
vt 0.1875 0
vt 0.25 0
vt 0.3125 0
vt 0.375 0
vt 0.4375 0
vt 0.5 0
vt 0.5625 0
vt 0.625 0
vt 0.6875 0
vt 0.75 0
vt 0.8125 0
vt 0.875 0
vt 0.9375 0
vt 1 0
vt 0 0.1
vt 0.0625 0.1
vt 0.125 0.1
vt 0.1875 0.1
vt 0.25 0.1
vt 0.3125 0.1
vt 0.375 0.1
vt 0.4375 0.1
vt 0.5 0.1
vt 0.5625 0.1
vt 0.625 0.1
vt 0.6875 0.1
vt 0.75 0.1
vt 0.8125 0.1
vt 0.875 0.1
vt 0.9375 0.1
vt 1 0.1
vt 0 0.2
vt 0.0625 0.2
vt 0.125 0.2
vt 0.1875 0.2
vt 0.25 0.2
vt 0.3125 0.2
vt 0.375 0.2
vt 0.4375 0.2
vt 0.5 0.2
vt 0.5625 0.2
vt 0.625 0.2
vt 0.6875 0.2
vt 0.75 0.2
vt 0.8125 0.2
vt 0.875 0.2
vt 0.9375 0.2
vt 1 0.2
vt 0 0.3
vt 0.0625 0.3
vt 0.125 0.3
vt 0.1875 0.3
vt 0.25 0.3
vt 0.3125 0.3
vt 0.375 0.3
vt 0.4375 0.3
vt 0.5 0.3
vt 0.5625 0.3
vt 0.625 0.3
vt 0.6875 0.3
vt 0.75 0.3
vt 0.8125 0.3
vt 0.875 0.3
vt 0.9375 0.3
vt 1 0.3
vt 0 0.4
vt 0.0625 0.4
vt 0.125 0.4
vt 0.1875 0.4
vt 0.25 0.4
vt 0.3125 0.4
vt 0.375 0.4
vt 0.4375 0.4
vt 0.5 0.4
vt 0.5625 0.4
vt 0.625 0.4
vt 0.6875 0.4
vt 0.75 0.4
vt 0.8125 0.4
vt 0.875 0.4
vt 0.9375 0.4
vt 1 0.4
vt 0 0.5
vt 0.0625 0.5
vt 0.125 0.5
vt 0.1875 0.5
vt 0.25 0.5
vt 0.3125 0.5
vt 0.375 0.5
vt 0.4375 0.5
vt 0.5 0.5
vt 0.5625 0.5
vt 0.625 0.5
vt 0.6875 0.5
vt 0.75 0.5
vt 0.8125 0.5
vt 0.875 0.5
vt 0.9375 0.5
vt 1 0.5
vt 0 0.6
vt 0.0625 0.6
vt 0.125 0.6
vt 0.1875 0.6
vt 0.25 0.6
vt 0.3125 0.6
vt 0.375 0.6
vt 0.4375 0.6
vt 0.5 0.6
vt 0.5625 0.6
vt 0.625 0.6
vt 0.6875 0.6
vt 0.75 0.6
vt 0.8125 0.6
vt 0.875 0.6
vt 0.9375 0.6
vt 1 0.6
vt 0 0.7
vt 0.0625 0.7
vt 0.125 0.7
vt 0.1875 0.7
vt 0.25 0.7
vt 0.3125 0.7
vt 0.375 0.7
vt 0.4375 0.7
vt 0.5 0.7
vt 0.5625 0.7
vt 0.625 0.7
vt 0.6875 0.7
vt 0.75 0.7
vt 0.8125 0.7
vt 0.875 0.7
vt 0.9375 0.7
vt 1 0.7
vt 0 0.8
vt 0.0625 0.8
vt 0.125 0.8
vt 0.1875 0.8
vt 0.25 0.8
vt 0.3125 0.8
vt 0.375 0.8
vt 0.4375 0.8
vt 0.5 0.8
vt 0.5625 0.8
vt 0.625 0.8
vt 0.6875 0.8
vt 0.75 0.8
vt 0.8125 0.8
vt 0.875 0.8
vt 0.9375 0.8
vt 1 0.8
vt 0 0.9
vt 0.0625 0.9
vt 0.125 0.9
vt 0.1875 0.9
vt 0.25 0.9
vt 0.3125 0.9
vt 0.375 0.9
vt 0.4375 0.9
vt 0.5 0.9
vt 0.5625 0.9
vt 0.625 0.9
vt 0.6875 0.9
vt 0.75 0.9
vt 0.8125 0.9
vt 0.875 0.9
vt 0.9375 0.9
vt 1 0.9
vt 0 1
vt 0.0625 1
vt 0.125 1
vt 0.1875 1
vt 0.25 1
vt 0.3125 1
vt 0.375 1
vt 0.4375 1
vt 0.5 1
vt 0.5625 1
vt 0.625 1
vt 0.6875 1
vt 0.75 1
vt 0.8125 1
vt 0.875 1
vt 0.9375 1
vt 1 1
vt 0.5 0.5
vt 0 0
vt 0 0.16666666666666666
vt 0 0.3333333333333333
vt 0 0.5
vt 0 0.6666666666666666
vt 0 0.8333333333333334
vt 0 1
vt 0.08333333333333333 0
vt 0.08333333333333333 0.16666666666666666
vt 0.08333333333333333 0.3333333333333333
vt 0.08333333333333333 0.5
vt 0.08333333333333333 0.6666666666666666
vt 0.08333333333333333 0.8333333333333334
vt 0.08333333333333333 1
vt 0.16666666666666666 0
vt 0.16666666666666666 0.16666666666666666
vt 0.16666666666666666 0.3333333333333333
vt 0.16666666666666666 0.5
vt 0.16666666666666666 0.6666666666666666
vt 0.16666666666666666 0.8333333333333334
vt 0.16666666666666666 1
vt 0.25 0
vt 0.25 0.16666666666666666
vt 0.25 0.3333333333333333
vt 0.25 0.5
vt 0.25 0.6666666666666666
vt 0.25 0.8333333333333334
vt 0.25 1
vt 0.3333333333333333 0
vt 0.3333333333333333 0.16666666666666666
vt 0.3333333333333333 0.3333333333333333
vt 0.3333333333333333 0.5
vt 0.3333333333333333 0.6666666666666666
vt 0.3333333333333333 0.8333333333333334
vt 0.3333333333333333 1
vt 0.4166666666666667 0
vt 0.4166666666666667 0.16666666666666666
vt 0.4166666666666667 0.3333333333333333
vt 0.4166666666666667 0.5
vt 0.4166666666666667 0.6666666666666666
vt 0.4166666666666667 0.8333333333333334
vt 0.4166666666666667 1
vt 0.5 0
vt 0.5 0.16666666666666666
vt 0.5 0.3333333333333333
vt 0.5 0.5
vt 0.5 0.6666666666666666
vt 0.5 0.8333333333333334
vt 0.5 1
vt 0.5833333333333334 0
vt 0.5833333333333334 0.16666666666666666
vt 0.5833333333333334 0.3333333333333333
vt 0.5833333333333334 0.5
vt 0.5833333333333334 0.6666666666666666
vt 0.5833333333333334 0.8333333333333334
vt 0.5833333333333334 1
vt 0.6666666666666666 0
vt 0.6666666666666666 0.16666666666666666
vt 0.6666666666666666 0.3333333333333333
vt 0.6666666666666666 0.5
vt 0.6666666666666666 0.6666666666666666
vt 0.6666666666666666 0.8333333333333334
vt 0.6666666666666666 1
vt 0.75 0
vt 0.75 0.16666666666666666
vt 0.75 0.3333333333333333
vt 0.75 0.5
vt 0.75 0.6666666666666666
vt 0.75 0.8333333333333334
vt 0.75 1
vt 0.8333333333333334 0
vt 0.8333333333333334 0.16666666666666666
vt 0.8333333333333334 0.3333333333333333
vt 0.8333333333333334 0.5
vt 0.8333333333333334 0.6666666666666666
vt 0.8333333333333334 0.8333333333333334
vt 0.8333333333333334 1
vt 0.9166666666666666 0
vt 0.9166666666666666 0.16666666666666666
vt 0.9166666666666666 0.3333333333333333
vt 0.9166666666666666 0.5
vt 0.9166666666666666 0.6666666666666666
vt 0.9166666666666666 0.8333333333333334
vt 0.9166666666666666 1
vt 1 0
vt 1 0.16666666666666666
vt 1 0.3333333333333333
vt 1 0.5
vt 1 0.6666666666666666
vt 1 0.8333333333333334
vt 1 1
vn 0 -1 0
vn 0 -1 0
vn 0 -1 0
vn 0 -1 0
vn 0 1 0
vn 0 1 0
vn 0 1 0
vn 0 1 0
vn 0 -1 0
vn 0 1 0
vn 0 -1 0
vn 0 -1 0
vn 0 -1 0
vn 0 -1 0
vn 0 1 0
vn 0 1 0
vn 0 1 0
vn 0 1 0
vn 0 -1 0
vn 0 1 0
vn 0 -1 0
vn 0 -1 0
vn 0 -1 0
vn 0 -1 0
vn 0 1 0
vn 0 1 0
vn 0 1 0
vn 0 1 0
vn 0 -1 0
vn 0 1 0
vn 0 1 0
vn 0 1 0
vn 0 1 0
vn 0 1 0
vn 0 1 0
vn 0 1 0
vn 0 1 0
vn 0 1 0
vn 0 -1 0
vn 0 -1 0
vn 0 -1 0
vn 0 -1 0
vn 0 -1 0
vn 0 -1 0
vn 0 -1 0
vn 0 -1 0
vn 0 1 0
vn 0 1 0
vn 0 1 0
vn 0 1 0
vn 0 1 0
vn 0 1 0
vn 0 1 0
vn 0 1 0
vn 0 -1 0
vn 0 1 0
vn 0 -1 0
vn 0 -1 0
vn 0 -1 0
vn 0 -1 0
vn 0 -1 0
vn 0 -1 0
vn 0 -1 0
vn 0 -1 0
vn 0 1 0
vn 0 1 0
vn 0 1 0
vn 0 1 0
vn 0 1 0
vn 0 1 0
vn 0 1 0
vn 0 1 0
vn 0 -1 0
vn 0 1 0
vn 0 -1 0
vn 0 -1 0
vn 0 -1 0
vn 0 -1 0
vn 0 -1 0
vn 0 -1 0
vn 0 -1 0
vn 0 -1 0
vn 0 1 0
vn 0 1 0
vn 0 1 0
vn 0 1 0
vn 0 1 0
vn 0 1 0
vn 0 1 0
vn 0 1 0
vn 0 -1 0
vn 0 1 0
vn 0 -1 0
vn 0 -1 0
vn 0 -1 0
vn 0 -1 0
vn 0 -1 0
vn 0 -1 0
vn 0 -1 0
vn 0 -1 0
vn 0 1 0
vn 0 1 0
vn 0 1 0
vn 0 1 0
vn 0 1 0
vn 0 1 0
vn 0 1 0
vn 0 1 0
vn 0 -1 0
vn 0 1 0
vn 0 -1 0
vn 0 -1 0
vn 0 -1 0
vn 0 -1 0
vn 0 -1 0
vn 0 -1 0
vn 0 -1 0
vn 0 -1 0
vn 0 1 0
vn 0 1 0
vn 0 1 0
vn 0 1 0
vn 0 1 0
vn 0 1 0
vn 0 1 0
vn 0 1 0
vn 0 -1 0
vn 0 1 0
vn 0 -1 0
vn 0 -1 0
vn 0 -1 0
vn 0 -1 0
vn 0 -1 0
vn 0 -1 0
vn 0 -1 0
vn 0 -1 0
vn 0 1 0
vn 0 1 0
vn 0 1 0
vn 0 1 0
vn 0 1 0
vn 0 1 0
vn 0 1 0
vn 0 1 0
vn 0 -1 0
vn 0 1 0
vn 0 -1 0
vn 0 -1 0
vn 0 -1 0
vn 0 -1 0
vn 0 -1 0
vn 0 -1 0
vn 0 -1 0
vn 0 -1 0
vn 0 1 0
vn 0 1 0
vn 0 1 0
vn 0 1 0
vn 0 1 0
vn 0 1 0
vn 0 1 0
vn 0 1 0
vn 0 -1 0
vn 0 1 0
vn 0 -1 0
vn 0 -1 0
vn 0 -1 0
vn 0 -1 0
vn 0 -1 0
vn 0 -1 0
vn 0 -1 0
vn 0 -1 0
vn 0 1 0
vn 0 1 0
vn 0 1 0
vn 0 1 0
vn 0 1 0
vn 0 1 0
vn 0 1 0
vn 0 1 0
vn 0 -1 0
vn 0 1 0
vn 0 -1 0
vn 0 -1 0
vn 0 -1 0
vn 0 -1 0
vn 0 -1 0
vn 0 -1 0
vn 0 -1 0
vn 0 -1 0
vn 0 1 0
vn 0 1 0
vn 0 1 0
vn 0 1 0
vn 0 1 0
vn 0 1 0
vn 0 1 0
vn 0 1 0
vn 0 -1 0
vn 0 1 0
vn 0 -1 0
vn 0 -1 0
vn 0 -1 0
vn 0 -1 0
vn 0 -1 0
vn 0 -1 0
vn 0 -1 0
vn 0 -1 0
vn 0 1 0
vn 0 1 0
vn 0 1 0
vn 0 1 0
vn 0 1 0
vn 0 1 0
vn 0 1 0
vn 0 1 0
vn 0 -1 0
vn 0 1 0
vn 0 -1 0
vn 0 -1 0
vn 0 -1 0
vn 0 -1 0
vn 0 -1 0
vn 0 -1 0
vn 0 -1 0
vn 0 -1 0
vn 0 1 0
vn 0 1 0
vn 0 1 0
vn 0 1 0
vn 0 1 0
vn 0 1 0
vn 0 1 0
vn 0 1 0
vn 0 -1 0
vn 0 1 0
vn 0 -1 0
vn 0 -1 0
vn 0 -1 0
vn 0 -1 0
vn 0 -1 0
vn 0 -1 0
vn 0 -1 0
vn 0 -1 0
vn 0 1 0
vn 0 1 0
vn 0 1 0
vn 0 1 0
vn 0 1 0
vn 0 1 0
vn 0 1 0
vn 0 1 0
vn 0 -1 0
vn 0 1 0
vn 0 -1 0
vn 0 -1 0
vn 0 -1 0
vn 0 -1 0
vn 0 -1 0
vn 0 -1 0
vn 0 -1 0
vn 0 -1 0
vn 0 1 0
vn 0 1 0
vn 0 1 0
vn 0 1 0
vn 0 1 0
vn 0 1 0
vn 0 1 0
vn 0 1 0
vn 0 -1 0
vn 0 1 0
vn 0 -1 0
vn 0 -1 0
vn 0 -1 0
vn 0 -1 0
vn 0 -1 0
vn 0 -1 0
vn 0 -1 0
vn 0 -1 0
vn 0 1 0
vn 0 1 0
vn 0 1 0
vn 0 1 0
vn 0 1 0
vn 0 1 0
vn 0 1 0
vn 0 1 0
vn 0 -1 0
vn 0 1 0
vn 0 -1 0
vn 0 -1 0
vn 0 -1 0
vn 0 -1 0
vn 0 -1 0
vn 0 -1 0
vn 0 -1 0
vn 0 -1 0
vn 0 1 0
vn 0 1 0
vn 0 1 0
vn 0 1 0
vn 0 1 0
vn 0 1 0
vn 0 1 0
vn 0 1 0
vn 0 -1 0
vn 0 1 0
vn 0 -1 0
vn 0 -1 0
vn 0 -1 0
vn 0 -1 0
vn 0 -1 0
vn 0 -1 0
vn 0 -1 0
vn 0 -1 0
vn 0 1 0
vn 0 1 0
vn 0 1 0
vn 0 1 0
vn 0 1 0
vn 0 1 0
vn 0 1 0
vn 0 1 0
vn 0 -1 0
vn 0 1 0
vn 0 1 0
vn 0 1 0
vn 0 1 0
vn 0 1 0
vn 0 1 0
vn 0 1 0
vn 0 1 0
vn 0 1 0
vn 0 1 0
vn 0 1 0
vn 0 1 0
vn 0 1 0
vn 0 1 0
vn 0 1 0
vn 0 1 0
vn 0 1 0
vn 0 1 0
vn 0 1 0
vn 0 1 0
vn 0 1 0
vn 0 1 0
vn 0 1 0
vn 0 1 0
vn 0 1 0
vn 0 1 0
vn 0.15643446504023087 0.9876883405951378 0
vn 0.14452660043002172 0.9876883405951378 0.05986487802179218
vn 0.11061587104123716 0.9876883405951378 0.11061587104123714
vn 0.059864878021792196 0.9876883405951378 0.14452660043002172
vn 9.578848344392363e-18 0.9876883405951378 0.15643446504023087
vn -0.05986487802179218 0.9876883405951378 0.14452660043002172
vn -0.11061587104123714 0.9876883405951378 0.11061587104123716
vn -0.14452660043002172 0.9876883405951378 0.05986487802179221
vn -0.15643446504023087 0.9876883405951378 1.9157696688784726e-17
vn -0.14452660043002175 0.9876883405951378 -0.059864878021792176
vn -0.11061587104123717 0.9876883405951378 -0.11061587104123714
vn -0.05986487802179229 0.9876883405951378 -0.1445266004300217
vn -2.8736545033177085e-17 0.9876883405951378 -0.15643446504023087
vn 0.059864878021792224 0.9876883405951378 -0.14452660043002172
vn 0.11061587104123712 0.9876883405951378 -0.11061587104123717
vn 0.1445266004300217 0.9876883405951378 -0.05986487802179229
vn 0.15643446504023087 0.9876883405951378 -3.831539337756945e-17
vn 0.3090169943749474 0.9510565162951535 0
vn 0.2854944763011693 0.9510565162951535 0.11825568406654853
vn 0.21850801222441052 0.9510565162951535 0.2185080122244105
vn 0.11825568406654853 0.9510565162951535 0.2854944763011693
vn 1.892183365217075e-17 0.9510565162951535 0.3090169943749474
vn -0.11825568406654847 0.9510565162951535 0.2854944763011693
vn -0.2185080122244105 0.9510565162951535 0.21850801222441052
vn -0.2854944763011693 0.9510565162951535 0.11825568406654856
vn -0.3090169943749474 0.9510565162951535 3.78436673043415e-17
vn -0.28549447630116936 0.9510565162951535 -0.11825568406654847
vn -0.21850801222441057 0.9510565162951535 -0.2185080122244105
vn -0.11825568406654867 0.9510565162951535 -0.28549447630116925
vn -5.676550095651224e-17 0.9510565162951535 -0.3090169943749474
vn 0.11825568406654857 0.9510565162951535 -0.2854944763011693
vn 0.21850801222441046 0.9510565162951535 -0.21850801222441057
vn 0.28549447630116925 0.9510565162951535 -0.1182556840665487
vn 0.3090169943749474 0.9510565162951535 -7.5687334608683e-17
vn 0.4539904997395468 0.8910065241883679 0
vn 0.4194325306639379 0.8910065241883679 0.17373464270147215
vn 0.32101976096010304 0.8910065241883679 0.32101976096010304
vn 0.17373464270147218 0.8910065241883679 0.4194325306639379
vn 2.779890061746716e-17 0.8910065241883679 0.4539904997395468
vn -0.17373464270147213 0.8910065241883679 0.4194325306639379
vn -0.32101976096010304 0.8910065241883679 0.32101976096010304
vn -0.4194325306639379 0.8910065241883679 0.1737346427014722
vn -0.4539904997395468 0.8910065241883679 5.559780123493432e-17
vn -0.41943253066393793 0.8910065241883679 -0.1737346427014721
vn -0.3210197609601031 0.8910065241883679 -0.32101976096010304
vn -0.1737346427014724 0.8910065241883679 -0.4194325306639378
vn -8.339670185240148e-17 0.8910065241883679 -0.4539904997395468
vn 0.17373464270147224 0.8910065241883679 -0.4194325306639378
vn 0.321019760960103 0.8910065241883679 -0.3210197609601031
vn 0.4194325306639378 0.8910065241883679 -0.17373464270147243
vn 0.4539904997395468 0.8910065241883679 -1.1119560246986863e-16
vn 0.5877852522924731 0.8090169943749475 0
vn 0.5430427641049989 0.8090169943749475 0.2249356778408639
vn 0.41562693777745346 0.8090169943749475 0.4156269377774534
vn 0.2249356778408639 0.8090169943749475 0.5430427641049989
vn 3.599146639029983e-17 0.8090169943749475 0.5877852522924731
vn -0.22493567784086385 0.8090169943749475 0.5430427641049989
vn -0.4156269377774534 0.8090169943749475 0.41562693777745346
vn -0.5430427641049989 0.8090169943749475 0.22493567784086396
vn -0.5877852522924731 0.8090169943749475 7.198293278059966e-17
vn -0.5430427641049989 0.8090169943749475 -0.2249356778408638
vn -0.4156269377774535 0.8090169943749475 -0.4156269377774534
vn -0.22493567784086418 0.8090169943749475 -0.5430427641049986
vn -1.0797439917089949e-16 0.8090169943749475 -0.5877852522924731
vn 0.224935677840864 0.8090169943749475 -0.5430427641049987
vn 0.41562693777745335 0.8090169943749475 -0.4156269377774535
vn 0.5430427641049986 0.8090169943749475 -0.22493567784086424
vn 0.5877852522924731 0.8090169943749475 -1.4396586556119933e-16
vn 0.7071067811865475 0.7071067811865476 0
vn 0.6532814824381882 0.7071067811865476 0.27059805007309845
vn 0.5 0.7071067811865476 0.4999999999999999
vn 0.2705980500730985 0.7071067811865476 0.6532814824381882
vn 4.329780281177466e-17 0.7071067811865476 0.7071067811865475
vn -0.27059805007309845 0.7071067811865476 0.6532814824381882
vn -0.4999999999999999 0.7071067811865476 0.5
vn -0.6532814824381882 0.7071067811865476 0.27059805007309856
vn -0.7071067811865475 0.7071067811865476 8.659560562354932e-17
vn -0.6532814824381883 0.7071067811865476 -0.2705980500730984
vn -0.5000000000000001 0.7071067811865476 -0.4999999999999999
vn -0.2705980500730989 0.7071067811865476 -0.6532814824381881
vn -1.2989340843532398e-16 0.7071067811865476 -0.7071067811865475
vn 0.2705980500730986 0.7071067811865476 -0.6532814824381881
vn 0.4999999999999998 0.7071067811865476 -0.5000000000000001
vn 0.6532814824381881 0.7071067811865476 -0.2705980500730989
vn 0.7071067811865475 0.7071067811865476 -1.7319121124709863e-16
vn 0.8090169943749475 0.5877852522924731 0
vn 0.7474342425568128 0.5877852522924731 0.30959740024909344
vn 0.5720614028176844 0.5877852522924731 0.5720614028176843
vn 0.3095974002490935 0.5877852522924731 0.7474342425568128
vn 4.9538003630854586e-17 0.5877852522924731 0.8090169943749475
vn -0.3095974002490934 0.5877852522924731 0.7474342425568128
vn -0.5720614028176843 0.5877852522924731 0.5720614028176844
vn -0.7474342425568128 0.5877852522924731 0.3095974002490935
vn -0.8090169943749475 0.5877852522924731 9.907600726170917e-17
vn -0.7474342425568128 0.5877852522924731 -0.3095974002490933
vn -0.5720614028176845 0.5877852522924731 -0.5720614028176843
vn -0.3095974002490939 0.5877852522924731 -0.7474342425568126
vn -1.4861401089256373e-16 0.5877852522924731 -0.8090169943749475
vn 0.3095974002490936 0.5877852522924731 -0.7474342425568127
vn 0.5720614028176841 0.5877852522924731 -0.5720614028176845
vn 0.7474342425568126 0.5877852522924731 -0.30959740024909393
vn 0.8090169943749475 0.5877852522924731 -1.9815201452341834e-16
vn 0.8910065241883679 0.45399049973954686 0
vn 0.8231826910316558 0.45399049973954686 0.340973434936093
vn 0.6300367553350504 0.45399049973954686 0.6300367553350504
vn 0.340973434936093 0.45399049973954686 0.8231826910316558
vn 5.4558414393334676e-17 0.45399049973954686 0.8910065241883679
vn -0.34097343493609295 0.45399049973954686 0.8231826910316558
vn -0.6300367553350504 0.45399049973954686 0.6300367553350504
vn -0.8231826910316558 0.45399049973954686 0.34097343493609306
vn -0.8910065241883679 0.45399049973954686 1.0911682878666935e-16
vn -0.8231826910316559 0.45399049973954686 -0.3409734349360929
vn -0.6300367553350505 0.45399049973954686 -0.6300367553350504
vn -0.34097343493609344 0.45399049973954686 -0.8231826910316555
vn -1.63675243180004e-16 0.45399049973954686 -0.8910065241883679
vn 0.34097343493609317 0.45399049973954686 -0.8231826910316556
vn 0.6300367553350503 0.45399049973954686 -0.6300367553350505
vn 0.8231826910316555 0.45399049973954686 -0.3409734349360935
vn 0.8910065241883679 0.45399049973954686 -2.182336575733387e-16
vn 0.9510565162951536 0.30901699437494745 0
vn 0.8786616496665794 0.30901699437494745 0.3639535720290143
vn 0.6724985119639574 0.30901699437494745 0.6724985119639573
vn 0.36395357202901435 0.30901699437494745 0.8786616496665794
vn 5.823541592445462e-17 0.30901699437494745 0.9510565162951536
vn -0.36395357202901424 0.30901699437494745 0.8786616496665794
vn -0.6724985119639573 0.30901699437494745 0.6724985119639574
vn -0.8786616496665794 0.30901699437494745 0.3639535720290144
vn -0.9510565162951536 0.30901699437494745 1.1647083184890923e-16
vn -0.8786616496665796 0.30901699437494745 -0.3639535720290142
vn -0.6724985119639575 0.30901699437494745 -0.6724985119639573
vn -0.36395357202901485 0.30901699437494745 -0.8786616496665792
vn -1.7470624777336384e-16 0.30901699437494745 -0.9510565162951536
vn 0.3639535720290145 0.30901699437494745 -0.8786616496665793
vn 0.6724985119639572 0.30901699437494745 -0.6724985119639575
vn 0.8786616496665792 0.30901699437494745 -0.36395357202901485
vn 0.9510565162951536 0.30901699437494745 -2.3294166369781847e-16
vn 0.9876883405951378 0.15643446504023092 0
vn 0.9125050423758844 0.15643446504023092 0.37797196428592716
vn 0.6984011233337104 0.15643446504023092 0.6984011233337103
vn 0.3779719642859272 0.15643446504023092 0.9125050423758844
vn 6.047846824324981e-17 0.15643446504023092 0.9876883405951378
vn -0.3779719642859271 0.15643446504023092 0.9125050423758844
vn -0.6984011233337103 0.15643446504023092 0.6984011233337104
vn -0.9125050423758844 0.15643446504023092 0.3779719642859273
vn -0.9876883405951378 0.15643446504023092 1.2095693648649962e-16
vn -0.9125050423758846 0.15643446504023092 -0.37797196428592705
vn -0.6984011233337105 0.15643446504023092 -0.6984011233337103
vn -0.3779719642859277 0.15643446504023092 -0.9125050423758843
vn -1.8143540472974943e-16 0.15643446504023092 -0.9876883405951378
vn 0.3779719642859274 0.15643446504023092 -0.9125050423758844
vn 0.6984011233337102 0.15643446504023092 -0.6984011233337105
vn 0.9125050423758843 0.15643446504023092 -0.3779719642859278
vn 0.9876883405951378 0.15643446504023092 -2.4191387297299924e-16
vn 1 6.123233995736766e-17 0
vn 0.9238795325112868 6.123233995736766e-17 0.3826834323650898
vn 0.7071067811865476 6.123233995736766e-17 0.7071067811865475
vn 0.38268343236508984 6.123233995736766e-17 0.9238795325112868
vn 6.123233995736766e-17 6.123233995736766e-17 1
vn -0.3826834323650897 6.123233995736766e-17 0.9238795325112868
vn -0.7071067811865475 6.123233995736766e-17 0.7071067811865476
vn -0.9238795325112868 6.123233995736766e-17 0.3826834323650899
vn -1 6.123233995736766e-17 1.2246467991473532e-16
vn -0.9238795325112868 6.123233995736766e-17 -0.38268343236508967
vn -0.7071067811865477 6.123233995736766e-17 -0.7071067811865475
vn -0.38268343236509034 6.123233995736766e-17 -0.9238795325112864
vn -1.8369701987210297e-16 6.123233995736766e-17 -1
vn 0.38268343236509 6.123233995736766e-17 -0.9238795325112866
vn 0.7071067811865474 6.123233995736766e-17 -0.7071067811865477
vn 0.9238795325112864 6.123233995736766e-17 -0.3826834323650904
vn 1 6.123233995736766e-17 -2.4492935982947064e-16
vn 0 -1 0
vn 1 0 0
vn 0.5000000000000001 0.8660254037844386 0
vn -0.4999999999999998 0.8660254037844387 0
vn -1 1.2246467991473532e-16 0
vn -0.5000000000000004 -0.8660254037844385 0
vn 0.5000000000000001 -0.8660254037844386 0
vn 1 -2.4492935982947064e-16 0
vn 0.8660254037844387 0 0.49999999999999994
vn 0.43301270189221946 0.8660254037844386 0.25
vn -0.4330127018922192 0.8660254037844387 -0.24999999999999986
vn -0.8660254037844387 1.2246467991473532e-16 -0.49999999999999994
vn -0.43301270189221974 -0.8660254037844385 -0.25000000000000017
vn 0.43301270189221946 -0.8660254037844386 0.25
vn 0.8660254037844387 -2.4492935982947064e-16 0.49999999999999994
vn 0.5000000000000001 0 0.8660254037844386
vn 0.2500000000000001 0.8660254037844386 0.4330127018922194
vn -0.24999999999999994 0.8660254037844387 -0.43301270189221913
vn -0.5000000000000001 1.2246467991473532e-16 -0.8660254037844386
vn -0.2500000000000003 -0.8660254037844385 -0.4330127018922197
vn 0.2500000000000001 -0.8660254037844386 0.4330127018922194
vn 0.5000000000000001 -2.4492935982947064e-16 0.8660254037844386
vn 6.123233995736766e-17 0 1
vn 3.0616169978683836e-17 0.8660254037844386 0.5000000000000001
vn -3.061616997868382e-17 0.8660254037844387 -0.4999999999999998
vn -6.123233995736766e-17 1.2246467991473532e-16 -1
vn -3.0616169978683855e-17 -0.8660254037844385 -0.5000000000000004
vn 3.0616169978683836e-17 -0.8660254037844386 0.5000000000000001
vn 6.123233995736766e-17 -2.4492935982947064e-16 1
vn -0.4999999999999998 0 0.8660254037844387
vn -0.24999999999999994 0.8660254037844386 0.43301270189221946
vn 0.24999999999999978 0.8660254037844387 -0.4330127018922192
vn 0.4999999999999998 1.2246467991473532e-16 -0.8660254037844387
vn 0.2500000000000001 -0.8660254037844385 -0.43301270189221974
vn -0.24999999999999994 -0.8660254037844386 0.43301270189221946
vn -0.4999999999999998 -2.4492935982947064e-16 0.8660254037844387
vn -0.8660254037844387 0 0.49999999999999994
vn -0.43301270189221946 0.8660254037844386 0.25
vn 0.4330127018922192 0.8660254037844387 -0.24999999999999986
vn 0.8660254037844387 1.2246467991473532e-16 -0.49999999999999994
vn 0.43301270189221974 -0.8660254037844385 -0.25000000000000017
vn -0.43301270189221946 -0.8660254037844386 0.25
vn -0.8660254037844387 -2.4492935982947064e-16 0.49999999999999994
vn -1 0 1.2246467991473532e-16
vn -0.5000000000000001 0.8660254037844386 6.123233995736767e-17
vn 0.4999999999999998 0.8660254037844387 -6.123233995736764e-17
vn 1 1.2246467991473532e-16 -1.2246467991473532e-16
vn 0.5000000000000004 -0.8660254037844385 -6.123233995736771e-17
vn -0.5000000000000001 -0.8660254037844386 6.123233995736767e-17
vn -1 -2.4492935982947064e-16 1.2246467991473532e-16
vn -0.8660254037844386 0 -0.5000000000000001
vn -0.4330127018922194 0.8660254037844386 -0.2500000000000001
vn 0.43301270189221913 0.8660254037844387 0.24999999999999994
vn 0.8660254037844386 1.2246467991473532e-16 0.5000000000000001
vn 0.4330127018922197 -0.8660254037844385 0.2500000000000003
vn -0.4330127018922194 -0.8660254037844386 -0.2500000000000001
vn -0.8660254037844386 -2.4492935982947064e-16 -0.5000000000000001
vn -0.5000000000000004 0 -0.8660254037844385
vn -0.2500000000000003 0.8660254037844386 -0.43301270189221935
vn 0.2500000000000001 0.8660254037844387 0.4330127018922191
vn 0.5000000000000004 1.2246467991473532e-16 0.8660254037844385
vn 0.25000000000000044 -0.8660254037844385 0.43301270189221963
vn -0.2500000000000003 -0.8660254037844386 -0.43301270189221935
vn -0.5000000000000004 -2.4492935982947064e-16 -0.8660254037844385
vn -1.8369701987210297e-16 0 -1
vn -9.184850993605151e-17 0.8660254037844386 -0.5000000000000001
vn 9.184850993605145e-17 0.8660254037844387 0.4999999999999998
vn 1.8369701987210297e-16 1.2246467991473532e-16 1
vn 9.184850993605157e-17 -0.8660254037844385 0.5000000000000004
vn -9.184850993605151e-17 -0.8660254037844386 -0.5000000000000001
vn -1.8369701987210297e-16 -2.4492935982947064e-16 -1
vn 0.5000000000000001 0 -0.8660254037844386
vn 0.2500000000000001 0.8660254037844386 -0.4330127018922194
vn -0.24999999999999994 0.8660254037844387 0.43301270189221913
vn -0.5000000000000001 1.2246467991473532e-16 0.8660254037844386
vn -0.2500000000000003 -0.8660254037844385 0.4330127018922197
vn 0.2500000000000001 -0.8660254037844386 -0.4330127018922194
vn 0.5000000000000001 -2.4492935982947064e-16 -0.8660254037844386
vn 0.8660254037844384 0 -0.5000000000000004
vn 0.4330127018922193 0.8660254037844386 -0.2500000000000003
vn -0.433012701892219 0.8660254037844387 0.2500000000000001
vn -0.8660254037844384 1.2246467991473532e-16 0.5000000000000004
vn -0.4330127018922196 -0.8660254037844385 0.25000000000000044
vn 0.4330127018922193 -0.8660254037844386 -0.2500000000000003
vn 0.8660254037844384 -2.4492935982947064e-16 -0.5000000000000004
vn 1 0 -2.4492935982947064e-16
vn 0.5000000000000001 0.8660254037844386 -1.2246467991473535e-16
vn -0.4999999999999998 0.8660254037844387 1.2246467991473527e-16
vn -1 1.2246467991473532e-16 2.4492935982947064e-16
vn -0.5000000000000004 -0.8660254037844385 1.2246467991473542e-16
vn 0.5000000000000001 -0.8660254037844386 -1.2246467991473535e-16
vn 1 -2.4492935982947064e-16 -2.4492935982947064e-16
f 1/1/1 2/2/2 6/6/6
f 1/1/1 6/6/6 5/5/5
f 9/9/9 2/2/2 1/1/1
f 10/10/10 5/5/5 6/6/6
f 2/2/2 3/3/3 7/7/7
f 2/2/2 7/7/7 6/6/6
f 9/9/9 3/3/3 2/2/2
f 10/10/10 6/6/6 7/7/7
f 3/3/3 4/4/4 8/8/8
f 3/3/3 8/8/8 7/7/7
f 9/9/9 4/4/4 3/3/3
f 10/10/10 7/7/7 8/8/8
f 4/4/4 1/1/1 5/5/5
f 4/4/4 5/5/5 8/8/8
f 9/9/9 1/1/1 4/4/4
f 10/10/10 8/8/8 5/5/5
f 11/11/11 12/12/12 16/16/16
f 11/11/11 16/16/16 15/15/15
f 19/19/19 12/12/12 11/11/11
f 20/20/20 15/15/15 16/16/16
f 12/12/12 13/13/13 17/17/17
f 12/12/12 17/17/17 16/16/16
f 19/19/19 13/13/13 12/12/12
f 20/20/20 16/16/16 17/17/17
f 13/13/13 14/14/14 18/18/18
f 13/13/13 18/18/18 17/17/17
f 19/19/19 14/14/14 13/13/13
f 20/20/20 17/17/17 18/18/18
f 14/14/14 11/11/11 15/15/15
f 14/14/14 15/15/15 18/18/18
f 19/19/19 11/11/11 14/14/14
f 20/20/20 18/18/18 15/15/15
f 21/21/21 22/22/22 26/26/26
f 21/21/21 26/26/26 25/25/25
f 29/29/29 22/22/22 21/21/21
f 30/30/30 25/25/25 26/26/26
f 22/22/22 23/23/23 27/27/27
f 22/22/22 27/27/27 26/26/26
f 29/29/29 23/23/23 22/22/22
f 30/30/30 26/26/26 27/27/27
f 23/23/23 24/24/24 28/28/28
f 23/23/23 28/28/28 27/27/27
f 29/29/29 24/24/24 23/23/23
f 30/30/30 27/27/27 28/28/28
f 24/24/24 21/21/21 25/25/25
f 24/24/24 25/25/25 28/28/28
f 29/29/29 21/21/21 24/24/24
f 30/30/30 28/28/28 25/25/25
f 31/31/31 33/33/33 32/32/32
f 31/31/31 34/34/34 33/33/33
f 35/35/35 36/36/36 37/37/37
f 35/35/35 37/37/37 38/38/38
f 31/31/31 32/32/32 36/36/36
f 31/31/31 36/36/36 35/35/35
f 33/33/33 34/34/34 38/38/38
f 33/33/33 38/38/38 37/37/37
f 31/31/31 35/35/35 38/38/38
f 31/31/31 38/38/38 34/34/34
f 32/32/32 33/33/33 37/37/37
f 32/32/32 37/37/37 36/36/36
f 39/39/39 40/40/40 48/48/48
f 39/39/39 48/48/48 47/47/47
f 55/55/55 40/40/40 39/39/39
f 56/56/56 47/47/47 48/48/48
f 40/40/40 41/41/41 49/49/49
f 40/40/40 49/49/49 48/48/48
f 55/55/55 41/41/41 40/40/40
f 56/56/56 48/48/48 49/49/49
f 41/41/41 42/42/42 50/50/50
f 41/41/41 50/50/50 49/49/49
f 55/55/55 42/42/42 41/41/41
f 56/56/56 49/49/49 50/50/50
f 42/42/42 43/43/43 51/51/51
f 42/42/42 51/51/51 50/50/50
f 55/55/55 43/43/43 42/42/42
f 56/56/56 50/50/50 51/51/51
f 43/43/43 44/44/44 52/52/52
f 43/43/43 52/52/52 51/51/51
f 55/55/55 44/44/44 43/43/43
f 56/56/56 51/51/51 52/52/52
f 44/44/44 45/45/45 53/53/53
f 44/44/44 53/53/53 52/52/52
f 55/55/55 45/45/45 44/44/44
f 56/56/56 52/52/52 53/53/53
f 45/45/45 46/46/46 54/54/54
f 45/45/45 54/54/54 53/53/53
f 55/55/55 46/46/46 45/45/45
f 56/56/56 53/53/53 54/54/54
f 46/46/46 39/39/39 47/47/47
f 46/46/46 47/47/47 54/54/54
f 55/55/55 39/39/39 46/46/46
f 56/56/56 54/54/54 47/47/47
f 57/57/57 58/58/58 66/66/66
f 57/57/57 66/66/66 65/65/65
f 73/73/73 58/58/58 57/57/57
f 74/74/74 65/65/65 66/66/66
f 58/58/58 59/59/59 67/67/67
f 58/58/58 67/67/67 66/66/66
f 73/73/73 59/59/59 58/58/58
f 74/74/74 66/66/66 67/67/67
f 59/59/59 60/60/60 68/68/68
f 59/59/59 68/68/68 67/67/67
f 73/73/73 60/60/60 59/59/59
f 74/74/74 67/67/67 68/68/68
f 60/60/60 61/61/61 69/69/69
f 60/60/60 69/69/69 68/68/68
f 73/73/73 61/61/61 60/60/60
f 74/74/74 68/68/68 69/69/69
f 61/61/61 62/62/62 70/70/70
f 61/61/61 70/70/70 69/69/69
f 73/73/73 62/62/62 61/61/61
f 74/74/74 69/69/69 70/70/70
f 62/62/62 63/63/63 71/71/71
f 62/62/62 71/71/71 70/70/70
f 73/73/73 63/63/63 62/62/62
f 74/74/74 70/70/70 71/71/71
f 63/63/63 64/64/64 72/72/72
f 63/63/63 72/72/72 71/71/71
f 73/73/73 64/64/64 63/63/63
f 74/74/74 71/71/71 72/72/72
f 64/64/64 57/57/57 65/65/65
f 64/64/64 65/65/65 72/72/72
f 73/73/73 57/57/57 64/64/64
f 74/74/74 72/72/72 65/65/65
f 75/75/75 76/76/76 84/84/84
f 75/75/75 84/84/84 83/83/83
f 91/91/91 76/76/76 75/75/75
f 92/92/92 83/83/83 84/84/84
f 76/76/76 77/77/77 85/85/85
f 76/76/76 85/85/85 84/84/84
f 91/91/91 77/77/77 76/76/76
f 92/92/92 84/84/84 85/85/85
f 77/77/77 78/78/78 86/86/86
f 77/77/77 86/86/86 85/85/85
f 91/91/91 78/78/78 77/77/77
f 92/92/92 85/85/85 86/86/86
f 78/78/78 79/79/79 87/87/87
f 78/78/78 87/87/87 86/86/86
f 91/91/91 79/79/79 78/78/78
f 92/92/92 86/86/86 87/87/87
f 79/79/79 80/80/80 88/88/88
f 79/79/79 88/88/88 87/87/87
f 91/91/91 80/80/80 79/79/79
f 92/92/92 87/87/87 88/88/88
f 80/80/80 81/81/81 89/89/89
f 80/80/80 89/89/89 88/88/88
f 91/91/91 81/81/81 80/80/80
f 92/92/92 88/88/88 89/89/89
f 81/81/81 82/82/82 90/90/90
f 81/81/81 90/90/90 89/89/89
f 91/91/91 82/82/82 81/81/81
f 92/92/92 89/89/89 90/90/90
f 82/82/82 75/75/75 83/83/83
f 82/82/82 83/83/83 90/90/90
f 91/91/91 75/75/75 82/82/82
f 92/92/92 90/90/90 83/83/83
f 93/93/93 94/94/94 102/102/102
f 93/93/93 102/102/102 101/101/101
f 109/109/109 94/94/94 93/93/93
f 110/110/110 101/101/101 102/102/102
f 94/94/94 95/95/95 103/103/103
f 94/94/94 103/103/103 102/102/102
f 109/109/109 95/95/95 94/94/94
f 110/110/110 102/102/102 103/103/103
f 95/95/95 96/96/96 104/104/104
f 95/95/95 104/104/104 103/103/103
f 109/109/109 96/96/96 95/95/95
f 110/110/110 103/103/103 104/104/104
f 96/96/96 97/97/97 105/105/105
f 96/96/96 105/105/105 104/104/104
f 109/109/109 97/97/97 96/96/96
f 110/110/110 104/104/104 105/105/105
f 97/97/97 98/98/98 106/106/106
f 97/97/97 106/106/106 105/105/105
f 109/109/109 98/98/98 97/97/97
f 110/110/110 105/105/105 106/106/106
f 98/98/98 99/99/99 107/107/107
f 98/98/98 107/107/107 106/106/106
f 109/109/109 99/99/99 98/98/98
f 110/110/110 106/106/106 107/107/107
f 99/99/99 100/100/100 108/108/108
f 99/99/99 108/108/108 107/107/107
f 109/109/109 100/100/100 99/99/99
f 110/110/110 107/107/107 108/108/108
f 100/100/100 93/93/93 101/101/101
f 100/100/100 101/101/101 108/108/108
f 109/109/109 93/93/93 100/100/100
f 110/110/110 108/108/108 101/101/101
f 111/111/111 112/112/112 120/120/120
f 111/111/111 120/120/120 119/119/119
f 127/127/127 112/112/112 111/111/111
f 128/128/128 119/119/119 120/120/120
f 112/112/112 113/113/113 121/121/121
f 112/112/112 121/121/121 120/120/120
f 127/127/127 113/113/113 112/112/112
f 128/128/128 120/120/120 121/121/121
f 113/113/113 114/114/114 122/122/122
f 113/113/113 122/122/122 121/121/121
f 127/127/127 114/114/114 113/113/113
f 128/128/128 121/121/121 122/122/122
f 114/114/114 115/115/115 123/123/123
f 114/114/114 123/123/123 122/122/122
f 127/127/127 115/115/115 114/114/114
f 128/128/128 122/122/122 123/123/123
f 115/115/115 116/116/116 124/124/124
f 115/115/115 124/124/124 123/123/123
f 127/127/127 116/116/116 115/115/115
f 128/128/128 123/123/123 124/124/124
f 116/116/116 117/117/117 125/125/125
f 116/116/116 125/125/125 124/124/124
f 127/127/127 117/117/117 116/116/116
f 128/128/128 124/124/124 125/125/125
f 117/117/117 118/118/118 126/126/126
f 117/117/117 126/126/126 125/125/125
f 127/127/127 118/118/118 117/117/117
f 128/128/128 125/125/125 126/126/126
f 118/118/118 111/111/111 119/119/119
f 118/118/118 119/119/119 126/126/126
f 127/127/127 111/111/111 118/118/118
f 128/128/128 126/126/126 119/119/119
f 129/129/129 130/130/130 138/138/138
f 129/129/129 138/138/138 137/137/137
f 145/145/145 130/130/130 129/129/129
f 146/146/146 137/137/137 138/138/138
f 130/130/130 131/131/131 139/139/139
f 130/130/130 139/139/139 138/138/138
f 145/145/145 131/131/131 130/130/130
f 146/146/146 138/138/138 139/139/139
f 131/131/131 132/132/132 140/140/140
f 131/131/131 140/140/140 139/139/139
f 145/145/145 132/132/132 131/131/131
f 146/146/146 139/139/139 140/140/140
f 132/132/132 133/133/133 141/141/141
f 132/132/132 141/141/141 140/140/140
f 145/145/145 133/133/133 132/132/132
f 146/146/146 140/140/140 141/141/141
f 133/133/133 134/134/134 142/142/142
f 133/133/133 142/142/142 141/141/141
f 145/145/145 134/134/134 133/133/133
f 146/146/146 141/141/141 142/142/142
f 134/134/134 135/135/135 143/143/143
f 134/134/134 143/143/143 142/142/142
f 145/145/145 135/135/135 134/134/134
f 146/146/146 142/142/142 143/143/143
f 135/135/135 136/136/136 144/144/144
f 135/135/135 144/144/144 143/143/143
f 145/145/145 136/136/136 135/135/135
f 146/146/146 143/143/143 144/144/144
f 136/136/136 129/129/129 137/137/137
f 136/136/136 137/137/137 144/144/144
f 145/145/145 129/129/129 136/136/136
f 146/146/146 144/144/144 137/137/137
f 147/147/147 148/148/148 156/156/156
f 147/147/147 156/156/156 155/155/155
f 163/163/163 148/148/148 147/147/147
f 164/164/164 155/155/155 156/156/156
f 148/148/148 149/149/149 157/157/157
f 148/148/148 157/157/157 156/156/156
f 163/163/163 149/149/149 148/148/148
f 164/164/164 156/156/156 157/157/157
f 149/149/149 150/150/150 158/158/158
f 149/149/149 158/158/158 157/157/157
f 163/163/163 150/150/150 149/149/149
f 164/164/164 157/157/157 158/158/158
f 150/150/150 151/151/151 159/159/159
f 150/150/150 159/159/159 158/158/158
f 163/163/163 151/151/151 150/150/150
f 164/164/164 158/158/158 159/159/159
f 151/151/151 152/152/152 160/160/160
f 151/151/151 160/160/160 159/159/159
f 163/163/163 152/152/152 151/151/151
f 164/164/164 159/159/159 160/160/160
f 152/152/152 153/153/153 161/161/161
f 152/152/152 161/161/161 160/160/160
f 163/163/163 153/153/153 152/152/152
f 164/164/164 160/160/160 161/161/161
f 153/153/153 154/154/154 162/162/162
f 153/153/153 162/162/162 161/161/161
f 163/163/163 154/154/154 153/153/153
f 164/164/164 161/161/161 162/162/162
f 154/154/154 147/147/147 155/155/155
f 154/154/154 155/155/155 162/162/162
f 163/163/163 147/147/147 154/154/154
f 164/164/164 162/162/162 155/155/155
f 165/165/165 166/166/166 174/174/174
f 165/165/165 174/174/174 173/173/173
f 181/181/181 166/166/166 165/165/165
f 182/182/182 173/173/173 174/174/174
f 166/166/166 167/167/167 175/175/175
f 166/166/166 175/175/175 174/174/174
f 181/181/181 167/167/167 166/166/166
f 182/182/182 174/174/174 175/175/175
f 167/167/167 168/168/168 176/176/176
f 167/167/167 176/176/176 175/175/175
f 181/181/181 168/168/168 167/167/167
f 182/182/182 175/175/175 176/176/176
f 168/168/168 169/169/169 177/177/177
f 168/168/168 177/177/177 176/176/176
f 181/181/181 169/169/169 168/168/168
f 182/182/182 176/176/176 177/177/177
f 169/169/169 170/170/170 178/178/178
f 169/169/169 178/178/178 177/177/177
f 181/181/181 170/170/170 169/169/169
f 182/182/182 177/177/177 178/178/178
f 170/170/170 171/171/171 179/179/179
f 170/170/170 179/179/179 178/178/178
f 181/181/181 171/171/171 170/170/170
f 182/182/182 178/178/178 179/179/179
f 171/171/171 172/172/172 180/180/180
f 171/171/171 180/180/180 179/179/179
f 181/181/181 172/172/172 171/171/171
f 182/182/182 179/179/179 180/180/180
f 172/172/172 165/165/165 173/173/173
f 172/172/172 173/173/173 180/180/180
f 181/181/181 165/165/165 172/172/172
f 182/182/182 180/180/180 173/173/173
f 183/183/183 184/184/184 192/192/192
f 183/183/183 192/192/192 191/191/191
f 199/199/199 184/184/184 183/183/183
f 200/200/200 191/191/191 192/192/192
f 184/184/184 185/185/185 193/193/193
f 184/184/184 193/193/193 192/192/192
f 199/199/199 185/185/185 184/184/184
f 200/200/200 192/192/192 193/193/193
f 185/185/185 186/186/186 194/194/194
f 185/185/185 194/194/194 193/193/193
f 199/199/199 186/186/186 185/185/185
f 200/200/200 193/193/193 194/194/194
f 186/186/186 187/187/187 195/195/195
f 186/186/186 195/195/195 194/194/194
f 199/199/199 187/187/187 186/186/186
f 200/200/200 194/194/194 195/195/195
f 187/187/187 188/188/188 196/196/196
f 187/187/187 196/196/196 195/195/195
f 199/199/199 188/188/188 187/187/187
f 200/200/200 195/195/195 196/196/196
f 188/188/188 189/189/189 197/197/197
f 188/188/188 197/197/197 196/196/196
f 199/199/199 189/189/189 188/188/188
f 200/200/200 196/196/196 197/197/197
f 189/189/189 190/190/190 198/198/198
f 189/189/189 198/198/198 197/197/197
f 199/199/199 190/190/190 189/189/189
f 200/200/200 197/197/197 198/198/198
f 190/190/190 183/183/183 191/191/191
f 190/190/190 191/191/191 198/198/198
f 199/199/199 183/183/183 190/190/190
f 200/200/200 198/198/198 191/191/191
f 201/201/201 202/202/202 210/210/210
f 201/201/201 210/210/210 209/209/209
f 217/217/217 202/202/202 201/201/201
f 218/218/218 209/209/209 210/210/210
f 202/202/202 203/203/203 211/211/211
f 202/202/202 211/211/211 210/210/210
f 217/217/217 203/203/203 202/202/202
f 218/218/218 210/210/210 211/211/211
f 203/203/203 204/204/204 212/212/212
f 203/203/203 212/212/212 211/211/211
f 217/217/217 204/204/204 203/203/203
f 218/218/218 211/211/211 212/212/212
f 204/204/204 205/205/205 213/213/213
f 204/204/204 213/213/213 212/212/212
f 217/217/217 205/205/205 204/204/204
f 218/218/218 212/212/212 213/213/213
f 205/205/205 206/206/206 214/214/214
f 205/205/205 214/214/214 213/213/213
f 217/217/217 206/206/206 205/205/205
f 218/218/218 213/213/213 214/214/214
f 206/206/206 207/207/207 215/215/215
f 206/206/206 215/215/215 214/214/214
f 217/217/217 207/207/207 206/206/206
f 218/218/218 214/214/214 215/215/215
f 207/207/207 208/208/208 216/216/216
f 207/207/207 216/216/216 215/215/215
f 217/217/217 208/208/208 207/207/207
f 218/218/218 215/215/215 216/216/216
f 208/208/208 201/201/201 209/209/209
f 208/208/208 209/209/209 216/216/216
f 217/217/217 201/201/201 208/208/208
f 218/218/218 216/216/216 209/209/209
f 219/219/219 220/220/220 228/228/228
f 219/219/219 228/228/228 227/227/227
f 235/235/235 220/220/220 219/219/219
f 236/236/236 227/227/227 228/228/228
f 220/220/220 221/221/221 229/229/229
f 220/220/220 229/229/229 228/228/228
f 235/235/235 221/221/221 220/220/220
f 236/236/236 228/228/228 229/229/229
f 221/221/221 222/222/222 230/230/230
f 221/221/221 230/230/230 229/229/229
f 235/235/235 222/222/222 221/221/221
f 236/236/236 229/229/229 230/230/230
f 222/222/222 223/223/223 231/231/231
f 222/222/222 231/231/231 230/230/230
f 235/235/235 223/223/223 222/222/222
f 236/236/236 230/230/230 231/231/231
f 223/223/223 224/224/224 232/232/232
f 223/223/223 232/232/232 231/231/231
f 235/235/235 224/224/224 223/223/223
f 236/236/236 231/231/231 232/232/232
f 224/224/224 225/225/225 233/233/233
f 224/224/224 233/233/233 232/232/232
f 235/235/235 225/225/225 224/224/224
f 236/236/236 232/232/232 233/233/233
f 225/225/225 226/226/226 234/234/234
f 225/225/225 234/234/234 233/233/233
f 235/235/235 226/226/226 225/225/225
f 236/236/236 233/233/233 234/234/234
f 226/226/226 219/219/219 227/227/227
f 226/226/226 227/227/227 234/234/234
f 235/235/235 219/219/219 226/226/226
f 236/236/236 234/234/234 227/227/227
f 237/237/237 238/238/238 246/246/246
f 237/237/237 246/246/246 245/245/245
f 253/253/253 238/238/238 237/237/237
f 254/254/254 245/245/245 246/246/246
f 238/238/238 239/239/239 247/247/247
f 238/238/238 247/247/247 246/246/246
f 253/253/253 239/239/239 238/238/238
f 254/254/254 246/246/246 247/247/247
f 239/239/239 240/240/240 248/248/248
f 239/239/239 248/248/248 247/247/247
f 253/253/253 240/240/240 239/239/239
f 254/254/254 247/247/247 248/248/248
f 240/240/240 241/241/241 249/249/249
f 240/240/240 249/249/249 248/248/248
f 253/253/253 241/241/241 240/240/240
f 254/254/254 248/248/248 249/249/249
f 241/241/241 242/242/242 250/250/250
f 241/241/241 250/250/250 249/249/249
f 253/253/253 242/242/242 241/241/241
f 254/254/254 249/249/249 250/250/250
f 242/242/242 243/243/243 251/251/251
f 242/242/242 251/251/251 250/250/250
f 253/253/253 243/243/243 242/242/242
f 254/254/254 250/250/250 251/251/251
f 243/243/243 244/244/244 252/252/252
f 243/243/243 252/252/252 251/251/251
f 253/253/253 244/244/244 243/243/243
f 254/254/254 251/251/251 252/252/252
f 244/244/244 237/237/237 245/245/245
f 244/244/244 245/245/245 252/252/252
f 253/253/253 237/237/237 244/244/244
f 254/254/254 252/252/252 245/245/245
f 255/255/255 256/256/256 264/264/264
f 255/255/255 264/264/264 263/263/263
f 271/271/271 256/256/256 255/255/255
f 272/272/272 263/263/263 264/264/264
f 256/256/256 257/257/257 265/265/265
f 256/256/256 265/265/265 264/264/264
f 271/271/271 257/257/257 256/256/256
f 272/272/272 264/264/264 265/265/265
f 257/257/257 258/258/258 266/266/266
f 257/257/257 266/266/266 265/265/265
f 271/271/271 258/258/258 257/257/257
f 272/272/272 265/265/265 266/266/266
f 258/258/258 259/259/259 267/267/267
f 258/258/258 267/267/267 266/266/266
f 271/271/271 259/259/259 258/258/258
f 272/272/272 266/266/266 267/267/267
f 259/259/259 260/260/260 268/268/268
f 259/259/259 268/268/268 267/267/267
f 271/271/271 260/260/260 259/259/259
f 272/272/272 267/267/267 268/268/268
f 260/260/260 261/261/261 269/269/269
f 260/260/260 269/269/269 268/268/268
f 271/271/271 261/261/261 260/260/260
f 272/272/272 268/268/268 269/269/269
f 261/261/261 262/262/262 270/270/270
f 261/261/261 270/270/270 269/269/269
f 271/271/271 262/262/262 261/261/261
f 272/272/272 269/269/269 270/270/270
f 262/262/262 255/255/255 263/263/263
f 262/262/262 263/263/263 270/270/270
f 271/271/271 255/255/255 262/262/262
f 272/272/272 270/270/270 263/263/263
f 273/273/273 274/274/274 282/282/282
f 273/273/273 282/282/282 281/281/281
f 289/289/289 274/274/274 273/273/273
f 290/290/290 281/281/281 282/282/282
f 274/274/274 275/275/275 283/283/283
f 274/274/274 283/283/283 282/282/282
f 289/289/289 275/275/275 274/274/274
f 290/290/290 282/282/282 283/283/283
f 275/275/275 276/276/276 284/284/284
f 275/275/275 284/284/284 283/283/283
f 289/289/289 276/276/276 275/275/275
f 290/290/290 283/283/283 284/284/284
f 276/276/276 277/277/277 285/285/285
f 276/276/276 285/285/285 284/284/284
f 289/289/289 277/277/277 276/276/276
f 290/290/290 284/284/284 285/285/285
f 277/277/277 278/278/278 286/286/286
f 277/277/277 286/286/286 285/285/285
f 289/289/289 278/278/278 277/277/277
f 290/290/290 285/285/285 286/286/286
f 278/278/278 279/279/279 287/287/287
f 278/278/278 287/287/287 286/286/286
f 289/289/289 279/279/279 278/278/278
f 290/290/290 286/286/286 287/287/287
f 279/279/279 280/280/280 288/288/288
f 279/279/279 288/288/288 287/287/287
f 289/289/289 280/280/280 279/279/279
f 290/290/290 287/287/287 288/288/288
f 280/280/280 273/273/273 281/281/281
f 280/280/280 281/281/281 288/288/288
f 289/289/289 273/273/273 280/280/280
f 290/290/290 288/288/288 281/281/281
f 291/291/291 292/292/292 300/300/300
f 291/291/291 300/300/300 299/299/299
f 307/307/307 292/292/292 291/291/291
f 308/308/308 299/299/299 300/300/300
f 292/292/292 293/293/293 301/301/301
f 292/292/292 301/301/301 300/300/300
f 307/307/307 293/293/293 292/292/292
f 308/308/308 300/300/300 301/301/301
f 293/293/293 294/294/294 302/302/302
f 293/293/293 302/302/302 301/301/301
f 307/307/307 294/294/294 293/293/293
f 308/308/308 301/301/301 302/302/302
f 294/294/294 295/295/295 303/303/303
f 294/294/294 303/303/303 302/302/302
f 307/307/307 295/295/295 294/294/294
f 308/308/308 302/302/302 303/303/303
f 295/295/295 296/296/296 304/304/304
f 295/295/295 304/304/304 303/303/303
f 307/307/307 296/296/296 295/295/295
f 308/308/308 303/303/303 304/304/304
f 296/296/296 297/297/297 305/305/305
f 296/296/296 305/305/305 304/304/304
f 307/307/307 297/297/297 296/296/296
f 308/308/308 304/304/304 305/305/305
f 297/297/297 298/298/298 306/306/306
f 297/297/297 306/306/306 305/305/305
f 307/307/307 298/298/298 297/297/297
f 308/308/308 305/305/305 306/306/306
f 298/298/298 291/291/291 299/299/299
f 298/298/298 299/299/299 306/306/306
f 307/307/307 291/291/291 298/298/298
f 308/308/308 306/306/306 299/299/299
f 309/309/309 310/310/310 318/318/318
f 309/309/309 318/318/318 317/317/317
f 325/325/325 310/310/310 309/309/309
f 326/326/326 317/317/317 318/318/318
f 310/310/310 311/311/311 319/319/319
f 310/310/310 319/319/319 318/318/318
f 325/325/325 311/311/311 310/310/310
f 326/326/326 318/318/318 319/319/319
f 311/311/311 312/312/312 320/320/320
f 311/311/311 320/320/320 319/319/319
f 325/325/325 312/312/312 311/311/311
f 326/326/326 319/319/319 320/320/320
f 312/312/312 313/313/313 321/321/321
f 312/312/312 321/321/321 320/320/320
f 325/325/325 313/313/313 312/312/312
f 326/326/326 320/320/320 321/321/321
f 313/313/313 314/314/314 322/322/322
f 313/313/313 322/322/322 321/321/321
f 325/325/325 314/314/314 313/313/313
f 326/326/326 321/321/321 322/322/322
f 314/314/314 315/315/315 323/323/323
f 314/314/314 323/323/323 322/322/322
f 325/325/325 315/315/315 314/314/314
f 326/326/326 322/322/322 323/323/323
f 315/315/315 316/316/316 324/324/324
f 315/315/315 324/324/324 323/323/323
f 325/325/325 316/316/316 315/315/315
f 326/326/326 323/323/323 324/324/324
f 316/316/316 309/309/309 317/317/317
f 316/316/316 317/317/317 324/324/324
f 325/325/325 309/309/309 316/316/316
f 326/326/326 324/324/324 317/317/317
f 327/327/327 329/329/329 328/328/328
f 327/327/327 330/330/330 329/329/329
f 331/331/331 332/332/332 333/333/333
f 331/331/331 333/333/333 334/334/334
f 327/327/327 328/328/328 332/332/332
f 327/327/327 332/332/332 331/331/331
f 329/329/329 330/330/330 334/334/334
f 329/329/329 334/334/334 333/333/333
f 327/327/327 331/331/331 334/334/334
f 327/327/327 334/334/334 330/330/330
f 328/328/328 329/329/329 333/333/333
f 328/328/328 333/333/333 332/332/332
f 335/335/335 352/352/352 353/353/353
f 335/335/335 353/353/353 336/336/336
f 336/336/336 353/353/353 354/354/354
f 336/336/336 354/354/354 337/337/337
f 337/337/337 354/354/354 355/355/355
f 337/337/337 355/355/355 338/338/338
f 338/338/338 355/355/355 356/356/356
f 338/338/338 356/356/356 339/339/339
f 339/339/339 356/356/356 357/357/357
f 339/339/339 357/357/357 340/340/340
f 340/340/340 357/357/357 358/358/358
f 340/340/340 358/358/358 341/341/341
f 341/341/341 358/358/358 359/359/359
f 341/341/341 359/359/359 342/342/342
f 342/342/342 359/359/359 360/360/360
f 342/342/342 360/360/360 343/343/343
f 343/343/343 360/360/360 361/361/361
f 343/343/343 361/361/361 344/344/344
f 344/344/344 361/361/361 362/362/362
f 344/344/344 362/362/362 345/345/345
f 345/345/345 362/362/362 363/363/363
f 345/345/345 363/363/363 346/346/346
f 346/346/346 363/363/363 364/364/364
f 346/346/346 364/364/364 347/347/347
f 347/347/347 364/364/364 365/365/365
f 347/347/347 365/365/365 348/348/348
f 348/348/348 365/365/365 366/366/366
f 348/348/348 366/366/366 349/349/349
f 349/349/349 366/366/366 367/367/367
f 349/349/349 367/367/367 350/350/350
f 350/350/350 367/367/367 368/368/368
f 350/350/350 368/368/368 351/351/351
f 352/352/352 369/369/369 370/370/370
f 352/352/352 370/370/370 353/353/353
f 353/353/353 370/370/370 371/371/371
f 353/353/353 371/371/371 354/354/354
f 354/354/354 371/371/371 372/372/372
f 354/354/354 372/372/372 355/355/355
f 355/355/355 372/372/372 373/373/373
f 355/355/355 373/373/373 356/356/356
f 356/356/356 373/373/373 374/374/374
f 356/356/356 374/374/374 357/357/357
f 357/357/357 374/374/374 375/375/375
f 357/357/357 375/375/375 358/358/358
f 358/358/358 375/375/375 376/376/376
f 358/358/358 376/376/376 359/359/359
f 359/359/359 376/376/376 377/377/377
f 359/359/359 377/377/377 360/360/360
f 360/360/360 377/377/377 378/378/378
f 360/360/360 378/378/378 361/361/361
f 361/361/361 378/378/378 379/379/379
f 361/361/361 379/379/379 362/362/362
f 362/362/362 379/379/379 380/380/380
f 362/362/362 380/380/380 363/363/363
f 363/363/363 380/380/380 381/381/381
f 363/363/363 381/381/381 364/364/364
f 364/364/364 381/381/381 382/382/382
f 364/364/364 382/382/382 365/365/365
f 365/365/365 382/382/382 383/383/383
f 365/365/365 383/383/383 366/366/366
f 366/366/366 383/383/383 384/384/384
f 366/366/366 384/384/384 367/367/367
f 367/367/367 384/384/384 385/385/385
f 367/367/367 385/385/385 368/368/368
f 369/369/369 386/386/386 387/387/387
f 369/369/369 387/387/387 370/370/370
f 370/370/370 387/387/387 388/388/388
f 370/370/370 388/388/388 371/371/371
f 371/371/371 388/388/388 389/389/389
f 371/371/371 389/389/389 372/372/372
f 372/372/372 389/389/389 390/390/390
f 372/372/372 390/390/390 373/373/373
f 373/373/373 390/390/390 391/391/391
f 373/373/373 391/391/391 374/374/374
f 374/374/374 391/391/391 392/392/392
f 374/374/374 392/392/392 375/375/375
f 375/375/375 392/392/392 393/393/393
f 375/375/375 393/393/393 376/376/376
f 376/376/376 393/393/393 394/394/394
f 376/376/376 394/394/394 377/377/377
f 377/377/377 394/394/394 395/395/395
f 377/377/377 395/395/395 378/378/378
f 378/378/378 395/395/395 396/396/396
f 378/378/378 396/396/396 379/379/379
f 379/379/379 396/396/396 397/397/397
f 379/379/379 397/397/397 380/380/380
f 380/380/380 397/397/397 398/398/398
f 380/380/380 398/398/398 381/381/381
f 381/381/381 398/398/398 399/399/399
f 381/381/381 399/399/399 382/382/382
f 382/382/382 399/399/399 400/400/400
f 382/382/382 400/400/400 383/383/383
f 383/383/383 400/400/400 401/401/401
f 383/383/383 401/401/401 384/384/384
f 384/384/384 401/401/401 402/402/402
f 384/384/384 402/402/402 385/385/385
f 386/386/386 403/403/403 404/404/404
f 386/386/386 404/404/404 387/387/387
f 387/387/387 404/404/404 405/405/405
f 387/387/387 405/405/405 388/388/388
f 388/388/388 405/405/405 406/406/406
f 388/388/388 406/406/406 389/389/389
f 389/389/389 406/406/406 407/407/407
f 389/389/389 407/407/407 390/390/390
f 390/390/390 407/407/407 408/408/408
f 390/390/390 408/408/408 391/391/391
f 391/391/391 408/408/408 409/409/409
f 391/391/391 409/409/409 392/392/392
f 392/392/392 409/409/409 410/410/410
f 392/392/392 410/410/410 393/393/393
f 393/393/393 410/410/410 411/411/411
f 393/393/393 411/411/411 394/394/394
f 394/394/394 411/411/411 412/412/412
f 394/394/394 412/412/412 395/395/395
f 395/395/395 412/412/412 413/413/413
f 395/395/395 413/413/413 396/396/396
f 396/396/396 413/413/413 414/414/414
f 396/396/396 414/414/414 397/397/397
f 397/397/397 414/414/414 415/415/415
f 397/397/397 415/415/415 398/398/398
f 398/398/398 415/415/415 416/416/416
f 398/398/398 416/416/416 399/399/399
f 399/399/399 416/416/416 417/417/417
f 399/399/399 417/417/417 400/400/400
f 400/400/400 417/417/417 418/418/418
f 400/400/400 418/418/418 401/401/401
f 401/401/401 418/418/418 419/419/419
f 401/401/401 419/419/419 402/402/402
f 403/403/403 420/420/420 421/421/421
f 403/403/403 421/421/421 404/404/404
f 404/404/404 421/421/421 422/422/422
f 404/404/404 422/422/422 405/405/405
f 405/405/405 422/422/422 423/423/423
f 405/405/405 423/423/423 406/406/406
f 406/406/406 423/423/423 424/424/424
f 406/406/406 424/424/424 407/407/407
f 407/407/407 424/424/424 425/425/425
f 407/407/407 425/425/425 408/408/408
f 408/408/408 425/425/425 426/426/426
f 408/408/408 426/426/426 409/409/409
f 409/409/409 426/426/426 427/427/427
f 409/409/409 427/427/427 410/410/410
f 410/410/410 427/427/427 428/428/428
f 410/410/410 428/428/428 411/411/411
f 411/411/411 428/428/428 429/429/429
f 411/411/411 429/429/429 412/412/412
f 412/412/412 429/429/429 430/430/430
f 412/412/412 430/430/430 413/413/413
f 413/413/413 430/430/430 431/431/431
f 413/413/413 431/431/431 414/414/414
f 414/414/414 431/431/431 432/432/432
f 414/414/414 432/432/432 415/415/415
f 415/415/415 432/432/432 433/433/433
f 415/415/415 433/433/433 416/416/416
f 416/416/416 433/433/433 434/434/434
f 416/416/416 434/434/434 417/417/417
f 417/417/417 434/434/434 435/435/435
f 417/417/417 435/435/435 418/418/418
f 418/418/418 435/435/435 436/436/436
f 418/418/418 436/436/436 419/419/419
f 420/420/420 437/437/437 438/438/438
f 420/420/420 438/438/438 421/421/421
f 421/421/421 438/438/438 439/439/439
f 421/421/421 439/439/439 422/422/422
f 422/422/422 439/439/439 440/440/440
f 422/422/422 440/440/440 423/423/423
f 423/423/423 440/440/440 441/441/441
f 423/423/423 441/441/441 424/424/424
f 424/424/424 441/441/441 442/442/442
f 424/424/424 442/442/442 425/425/425
f 425/425/425 442/442/442 443/443/443
f 425/425/425 443/443/443 426/426/426
f 426/426/426 443/443/443 444/444/444
f 426/426/426 444/444/444 427/427/427
f 427/427/427 444/444/444 445/445/445
f 427/427/427 445/445/445 428/428/428
f 428/428/428 445/445/445 446/446/446
f 428/428/428 446/446/446 429/429/429
f 429/429/429 446/446/446 447/447/447
f 429/429/429 447/447/447 430/430/430
f 430/430/430 447/447/447 448/448/448
f 430/430/430 448/448/448 431/431/431
f 431/431/431 448/448/448 449/449/449
f 431/431/431 449/449/449 432/432/432
f 432/432/432 449/449/449 450/450/450
f 432/432/432 450/450/450 433/433/433
f 433/433/433 450/450/450 451/451/451
f 433/433/433 451/451/451 434/434/434
f 434/434/434 451/451/451 452/452/452
f 434/434/434 452/452/452 435/435/435
f 435/435/435 452/452/452 453/453/453
f 435/435/435 453/453/453 436/436/436
f 437/437/437 454/454/454 455/455/455
f 437/437/437 455/455/455 438/438/438
f 438/438/438 455/455/455 456/456/456
f 438/438/438 456/456/456 439/439/439
f 439/439/439 456/456/456 457/457/457
f 439/439/439 457/457/457 440/440/440
f 440/440/440 457/457/457 458/458/458
f 440/440/440 458/458/458 441/441/441
f 441/441/441 458/458/458 459/459/459
f 441/441/441 459/459/459 442/442/442
f 442/442/442 459/459/459 460/460/460
f 442/442/442 460/460/460 443/443/443
f 443/443/443 460/460/460 461/461/461
f 443/443/443 461/461/461 444/444/444
f 444/444/444 461/461/461 462/462/462
f 444/444/444 462/462/462 445/445/445
f 445/445/445 462/462/462 463/463/463
f 445/445/445 463/463/463 446/446/446
f 446/446/446 463/463/463 464/464/464
f 446/446/446 464/464/464 447/447/447
f 447/447/447 464/464/464 465/465/465
f 447/447/447 465/465/465 448/448/448
f 448/448/448 465/465/465 466/466/466
f 448/448/448 466/466/466 449/449/449
f 449/449/449 466/466/466 467/467/467
f 449/449/449 467/467/467 450/450/450
f 450/450/450 467/467/467 468/468/468
f 450/450/450 468/468/468 451/451/451
f 451/451/451 468/468/468 469/469/469
f 451/451/451 469/469/469 452/452/452
f 452/452/452 469/469/469 470/470/470
f 452/452/452 470/470/470 453/453/453
f 454/454/454 471/471/471 472/472/472
f 454/454/454 472/472/472 455/455/455
f 455/455/455 472/472/472 473/473/473
f 455/455/455 473/473/473 456/456/456
f 456/456/456 473/473/473 474/474/474
f 456/456/456 474/474/474 457/457/457
f 457/457/457 474/474/474 475/475/475
f 457/457/457 475/475/475 458/458/458
f 458/458/458 475/475/475 476/476/476
f 458/458/458 476/476/476 459/459/459
f 459/459/459 476/476/476 477/477/477
f 459/459/459 477/477/477 460/460/460
f 460/460/460 477/477/477 478/478/478
f 460/460/460 478/478/478 461/461/461
f 461/461/461 478/478/478 479/479/479
f 461/461/461 479/479/479 462/462/462
f 462/462/462 479/479/479 480/480/480
f 462/462/462 480/480/480 463/463/463
f 463/463/463 480/480/480 481/481/481
f 463/463/463 481/481/481 464/464/464
f 464/464/464 481/481/481 482/482/482
f 464/464/464 482/482/482 465/465/465
f 465/465/465 482/482/482 483/483/483
f 465/465/465 483/483/483 466/466/466
f 466/466/466 483/483/483 484/484/484
f 466/466/466 484/484/484 467/467/467
f 467/467/467 484/484/484 485/485/485
f 467/467/467 485/485/485 468/468/468
f 468/468/468 485/485/485 486/486/486
f 468/468/468 486/486/486 469/469/469
f 469/469/469 486/486/486 487/487/487
f 469/469/469 487/487/487 470/470/470
f 471/471/471 488/488/488 489/489/489
f 471/471/471 489/489/489 472/472/472
f 472/472/472 489/489/489 490/490/490
f 472/472/472 490/490/490 473/473/473
f 473/473/473 490/490/490 491/491/491
f 473/473/473 491/491/491 474/474/474
f 474/474/474 491/491/491 492/492/492
f 474/474/474 492/492/492 475/475/475
f 475/475/475 492/492/492 493/493/493
f 475/475/475 493/493/493 476/476/476
f 476/476/476 493/493/493 494/494/494
f 476/476/476 494/494/494 477/477/477
f 477/477/477 494/494/494 495/495/495
f 477/477/477 495/495/495 478/478/478
f 478/478/478 495/495/495 496/496/496
f 478/478/478 496/496/496 479/479/479
f 479/479/479 496/496/496 497/497/497
f 479/479/479 497/497/497 480/480/480
f 480/480/480 497/497/497 498/498/498
f 480/480/480 498/498/498 481/481/481
f 481/481/481 498/498/498 499/499/499
f 481/481/481 499/499/499 482/482/482
f 482/482/482 499/499/499 500/500/500
f 482/482/482 500/500/500 483/483/483
f 483/483/483 500/500/500 501/501/501
f 483/483/483 501/501/501 484/484/484
f 484/484/484 501/501/501 502/502/502
f 484/484/484 502/502/502 485/485/485
f 485/485/485 502/502/502 503/503/503
f 485/485/485 503/503/503 486/486/486
f 486/486/486 503/503/503 504/504/504
f 486/486/486 504/504/504 487/487/487
f 488/488/488 505/505/505 506/506/506
f 488/488/488 506/506/506 489/489/489
f 489/489/489 506/506/506 507/507/507
f 489/489/489 507/507/507 490/490/490
f 490/490/490 507/507/507 508/508/508
f 490/490/490 508/508/508 491/491/491
f 491/491/491 508/508/508 509/509/509
f 491/491/491 509/509/509 492/492/492
f 492/492/492 509/509/509 510/510/510
f 492/492/492 510/510/510 493/493/493
f 493/493/493 510/510/510 511/511/511
f 493/493/493 511/511/511 494/494/494
f 494/494/494 511/511/511 512/512/512
f 494/494/494 512/512/512 495/495/495
f 495/495/495 512/512/512 513/513/513
f 495/495/495 513/513/513 496/496/496
f 496/496/496 513/513/513 514/514/514
f 496/496/496 514/514/514 497/497/497
f 497/497/497 514/514/514 515/515/515
f 497/497/497 515/515/515 498/498/498
f 498/498/498 515/515/515 516/516/516
f 498/498/498 516/516/516 499/499/499
f 499/499/499 516/516/516 517/517/517
f 499/499/499 517/517/517 500/500/500
f 500/500/500 517/517/517 518/518/518
f 500/500/500 518/518/518 501/501/501
f 501/501/501 518/518/518 519/519/519
f 501/501/501 519/519/519 502/502/502
f 502/502/502 519/519/519 520/520/520
f 502/502/502 520/520/520 503/503/503
f 503/503/503 520/520/520 521/521/521
f 503/503/503 521/521/521 504/504/504
f 522/522/522 505/505/505 506/506/506
f 522/522/522 506/506/506 507/507/507
f 522/522/522 507/507/507 508/508/508
f 522/522/522 508/508/508 509/509/509
f 522/522/522 509/509/509 510/510/510
f 522/522/522 510/510/510 511/511/511
f 522/522/522 511/511/511 512/512/512
f 522/522/522 512/512/512 513/513/513
f 522/522/522 513/513/513 514/514/514
f 522/522/522 514/514/514 515/515/515
f 522/522/522 515/515/515 516/516/516
f 522/522/522 516/516/516 517/517/517
f 522/522/522 517/517/517 518/518/518
f 522/522/522 518/518/518 519/519/519
f 522/522/522 519/519/519 520/520/520
f 522/522/522 520/520/520 521/521/521
f 523/523/523 530/530/530 531/531/531
f 523/523/523 531/531/531 524/524/524
f 524/524/524 531/531/531 532/532/532
f 524/524/524 532/532/532 525/525/525
f 525/525/525 532/532/532 533/533/533
f 525/525/525 533/533/533 526/526/526
f 526/526/526 533/533/533 534/534/534
f 526/526/526 534/534/534 527/527/527
f 527/527/527 534/534/534 535/535/535
f 527/527/527 535/535/535 528/528/528
f 528/528/528 535/535/535 536/536/536
f 528/528/528 536/536/536 529/529/529
f 530/530/530 537/537/537 538/538/538
f 530/530/530 538/538/538 531/531/531
f 531/531/531 538/538/538 539/539/539
f 531/531/531 539/539/539 532/532/532
f 532/532/532 539/539/539 540/540/540
f 532/532/532 540/540/540 533/533/533
f 533/533/533 540/540/540 541/541/541
f 533/533/533 541/541/541 534/534/534
f 534/534/534 541/541/541 542/542/542
f 534/534/534 542/542/542 535/535/535
f 535/535/535 542/542/542 543/543/543
f 535/535/535 543/543/543 536/536/536
f 537/537/537 544/544/544 545/545/545
f 537/537/537 545/545/545 538/538/538
f 538/538/538 545/545/545 546/546/546
f 538/538/538 546/546/546 539/539/539
f 539/539/539 546/546/546 547/547/547
f 539/539/539 547/547/547 540/540/540
f 540/540/540 547/547/547 548/548/548
f 540/540/540 548/548/548 541/541/541
f 541/541/541 548/548/548 549/549/549
f 541/541/541 549/549/549 542/542/542
f 542/542/542 549/549/549 550/550/550
f 542/542/542 550/550/550 543/543/543
f 544/544/544 551/551/551 552/552/552
f 544/544/544 552/552/552 545/545/545
f 545/545/545 552/552/552 553/553/553
f 545/545/545 553/553/553 546/546/546
f 546/546/546 553/553/553 554/554/554
f 546/546/546 554/554/554 547/547/547
f 547/547/547 554/554/554 555/555/555
f 547/547/547 555/555/555 548/548/548
f 548/548/548 555/555/555 556/556/556
f 548/548/548 556/556/556 549/549/549
f 549/549/549 556/556/556 557/557/557
f 549/549/549 557/557/557 550/550/550
f 551/551/551 558/558/558 559/559/559
f 551/551/551 559/559/559 552/552/552
f 552/552/552 559/559/559 560/560/560
f 552/552/552 560/560/560 553/553/553
f 553/553/553 560/560/560 561/561/561
f 553/553/553 561/561/561 554/554/554
f 554/554/554 561/561/561 562/562/562
f 554/554/554 562/562/562 555/555/555
f 555/555/555 562/562/562 563/563/563
f 555/555/555 563/563/563 556/556/556
f 556/556/556 563/563/563 564/564/564
f 556/556/556 564/564/564 557/557/557
f 558/558/558 565/565/565 566/566/566
f 558/558/558 566/566/566 559/559/559
f 559/559/559 566/566/566 567/567/567
f 559/559/559 567/567/567 560/560/560
f 560/560/560 567/567/567 568/568/568
f 560/560/560 568/568/568 561/561/561
f 561/561/561 568/568/568 569/569/569
f 561/561/561 569/569/569 562/562/562
f 562/562/562 569/569/569 570/570/570
f 562/562/562 570/570/570 563/563/563
f 563/563/563 570/570/570 571/571/571
f 563/563/563 571/571/571 564/564/564
f 565/565/565 572/572/572 573/573/573
f 565/565/565 573/573/573 566/566/566
f 566/566/566 573/573/573 574/574/574
f 566/566/566 574/574/574 567/567/567
f 567/567/567 574/574/574 575/575/575
f 567/567/567 575/575/575 568/568/568
f 568/568/568 575/575/575 576/576/576
f 568/568/568 576/576/576 569/569/569
f 569/569/569 576/576/576 577/577/577
f 569/569/569 577/577/577 570/570/570
f 570/570/570 577/577/577 578/578/578
f 570/570/570 578/578/578 571/571/571
f 572/572/572 579/579/579 580/580/580
f 572/572/572 580/580/580 573/573/573
f 573/573/573 580/580/580 581/581/581
f 573/573/573 581/581/581 574/574/574
f 574/574/574 581/581/581 582/582/582
f 574/574/574 582/582/582 575/575/575
f 575/575/575 582/582/582 583/583/583
f 575/575/575 583/583/583 576/576/576
f 576/576/576 583/583/583 584/584/584
f 576/576/576 584/584/584 577/577/577
f 577/577/577 584/584/584 585/585/585
f 577/577/577 585/585/585 578/578/578
f 579/579/579 586/586/586 587/587/587
f 579/579/579 587/587/587 580/580/580
f 580/580/580 587/587/587 588/588/588
f 580/580/580 588/588/588 581/581/581
f 581/581/581 588/588/588 589/589/589
f 581/581/581 589/589/589 582/582/582
f 582/582/582 589/589/589 590/590/590
f 582/582/582 590/590/590 583/583/583
f 583/583/583 590/590/590 591/591/591
f 583/583/583 591/591/591 584/584/584
f 584/584/584 591/591/591 592/592/592
f 584/584/584 592/592/592 585/585/585
f 586/586/586 593/593/593 594/594/594
f 586/586/586 594/594/594 587/587/587
f 587/587/587 594/594/594 595/595/595
f 587/587/587 595/595/595 588/588/588
f 588/588/588 595/595/595 596/596/596
f 588/588/588 596/596/596 589/589/589
f 589/589/589 596/596/596 597/597/597
f 589/589/589 597/597/597 590/590/590
f 590/590/590 597/597/597 598/598/598
f 590/590/590 598/598/598 591/591/591
f 591/591/591 598/598/598 599/599/599
f 591/591/591 599/599/599 592/592/592
f 593/593/593 600/600/600 601/601/601
f 593/593/593 601/601/601 594/594/594
f 594/594/594 601/601/601 602/602/602
f 594/594/594 602/602/602 595/595/595
f 595/595/595 602/602/602 603/603/603
f 595/595/595 603/603/603 596/596/596
f 596/596/596 603/603/603 604/604/604
f 596/596/596 604/604/604 597/597/597
f 597/597/597 604/604/604 605/605/605
f 597/597/597 605/605/605 598/598/598
f 598/598/598 605/605/605 606/606/606
f 598/598/598 606/606/606 599/599/599
f 600/600/600 607/607/607 608/608/608
f 600/600/600 608/608/608 601/601/601
f 601/601/601 608/608/608 609/609/609
f 601/601/601 609/609/609 602/602/602
f 602/602/602 609/609/609 610/610/610
f 602/602/602 610/610/610 603/603/603
f 603/603/603 610/610/610 611/611/611
f 603/603/603 611/611/611 604/604/604
f 604/604/604 611/611/611 612/612/612
f 604/604/604 612/612/612 605/605/605
f 605/605/605 612/612/612 613/613/613
f 605/605/605 613/613/613 606/606/606