# 3D Model: tree/canopy/depositphotos_105012648-stock-photo-general-sherman-giant-sequoia-tree (v6 Gemini)
# Style: nature | Symmetry: asymmetric
# Dimensions: 26.5 x 52.5 x 25 m
# Triangles: 912 | Vertices: 556
v -12.5 -0.5 -12.5
v 12.5 -0.5 -12.5
v 12.5 0 -12.5
v -12.5 0 -12.5
v -12.5 -0.5 12.5
v 12.5 -0.5 12.5
v 12.5 0 12.5
v -12.5 0 12.5
v 5 3.5 0
v 4.6194 3.5 1.9134
v 3.5355 3.5 3.5355
v 1.9134 3.5 4.6194
v 0 3.5 5
v -1.9134 3.5 4.6194
v -3.5355 3.5 3.5355
v -4.6194 3.5 1.9134
v -5 3.5 0
v -4.6194 3.5 -1.9134
v -3.5355 3.5 -3.5355
v -1.9134 3.5 -4.6194
v 0 3.5 -5
v 1.9134 3.5 -4.6194
v 3.5355 3.5 -3.5355
v 4.6194 3.5 -1.9134
v 2.8 4.5 0
v 2.5869 4.5 1.0715
v 1.9799 4.5 1.9799
v 1.0715 4.5 2.5869
v 0 4.5 2.8
v -1.0715 4.5 2.5869
v -1.9799 4.5 1.9799
v -2.5869 4.5 1.0715
v -2.8 4.5 0
v -2.5869 4.5 -1.0715
v -1.9799 4.5 -1.9799
v -1.0715 4.5 -2.5869
v 0 4.5 -2.8
v 1.0715 4.5 -2.5869
v 1.9799 4.5 -1.9799
v 2.5869 4.5 -1.0715
v 0 3.5 0
v 0 4.5 0
v 2.8 15.5 0
v 2.5869 15.5 1.0715
v 1.9799 15.5 1.9799
v 1.0715 15.5 2.5869
v 0 15.5 2.8
v -1.0715 15.5 2.5869
v -1.9799 15.5 1.9799
v -2.5869 15.5 1.0715
v -2.8 15.5 0
v -2.5869 15.5 -1.0715
v -1.9799 15.5 -1.9799
v -1.0715 15.5 -2.5869
v 0 15.5 -2.8
v 1.0715 15.5 -2.5869
v 1.9799 15.5 -1.9799
v 2.5869 15.5 -1.0715
v 2.6 16.5 0
v 2.4021 16.5 0.995
v 1.8385 16.5 1.8385
v 0.995 16.5 2.4021
v 0 16.5 2.6
v -0.995 16.5 2.4021
v -1.8385 16.5 1.8385
v -2.4021 16.5 0.995
v -2.6 16.5 0
v -2.4021 16.5 -0.995
v -1.8385 16.5 -1.8385
v -0.995 16.5 -2.4021
v 0 16.5 -2.6
v 0.995 16.5 -2.4021
v 1.8385 16.5 -1.8385
v 2.4021 16.5 -0.995
v 0 15.5 0
v 0 16.5 0
v 2.6 31.5 0
v 2.2517 31.5 1.3
v 1.3 31.5 2.2517
v 0 31.5 2.6
v -1.3 31.5 2.2517
v -2.2517 31.5 1.3
v -2.6 31.5 0
v -2.2517 31.5 -1.3
v -1.3 31.5 -2.2517
v 0 31.5 -2.6
v 1.3 31.5 -2.2517
v 2.2517 31.5 -1.3
v 1.8 32.5 0
v 1.5588 32.5 0.9
v 0.9 32.5 1.5588
v 0 32.5 1.8
v -0.9 32.5 1.5588
v -1.5588 32.5 0.9
v -1.8 32.5 0
v -1.5588 32.5 -0.9
v -0.9 32.5 -1.5588
v 0 32.5 -1.8
v 0.9 32.5 -1.5588
v 1.5588 32.5 -0.9
v 0 31.5 0
v 0 32.5 0
v 0.7253 -0.25 2.1455
v 2.8474 -0.25 0.025
v 5.6747 -0.25 2.8545
v 3.5526 -0.25 4.975
v 0.7253 2.25 2.1455
v 2.8474 2.25 0.025
v -2.8474 -0.25 -0.475
v -0.7253 -0.25 1.6455
v -3.5526 -0.25 4.475
v -5.6747 -0.25 2.3545
v -2.8474 2.25 -0.475
v -0.7253 2.25 1.6455
v 2.2468 -0.25 -1.4972
v -1.2532 -0.25 -1.5028
v -1.2468 -0.25 -5.5028
v 2.2532 -0.25 -5.4972
v 2.2468 2.25 -1.4972
v -1.2532 2.25 -1.5028
v 0 48 0
v 0 48 0
v 0 48 0
v 0 48 0
v 0 48 0
v 0 48 0
v 0 48 0
v 0 48 0
v 0 48 0
v 0 48 0
v 0 48 0
v 3.0615 47.5433 0
v 2.4768 47.5433 1.7995
v 0.946 47.5433 2.9116
v -0.946 47.5433 2.9116
v -2.4768 47.5433 1.7995
v -3.0615 47.5433 0
v -2.4768 47.5433 -1.7995
v -0.946 47.5433 -2.9116
v 0.946 47.5433 -2.9116
v 2.4768 47.5433 -1.7995
v 3.0615 47.5433 0
v 5.6569 46.2426 0
v 4.5765 46.2426 3.325
v 1.7481 46.2426 5.38
v -1.7481 46.2426 5.38
v -4.5765 46.2426 3.325
v -5.6569 46.2426 0
v -4.5765 46.2426 -3.325
v -1.7481 46.2426 -5.38
v 1.7481 46.2426 -5.38
v 4.5765 46.2426 -3.325
v 5.6569 46.2426 0
v 7.391 44.2961 0
v 5.9795 44.2961 4.3443
v 2.284 44.2961 7.0293
v -2.284 44.2961 7.0293
v -5.9795 44.2961 4.3443
v -7.391 44.2961 0
v -5.9795 44.2961 -4.3443
v -2.284 44.2961 -7.0293
v 2.284 44.2961 -7.0293
v 5.9795 44.2961 -4.3443
v 7.391 44.2961 0
v 8 42 0
v 6.4721 42 4.7023
v 2.4721 42 7.6085
v -2.4721 42 7.6085
v -6.4721 42 4.7023
v -8 42 0
v -6.4721 42 -4.7023
v -2.4721 42 -7.6085
v 2.4721 42 -7.6085
v 6.4721 42 -4.7023
v 8 42 0
v 7.391 39.7039 0
v 5.9795 39.7039 4.3443
v 2.284 39.7039 7.0293
v -2.284 39.7039 7.0293
v -5.9795 39.7039 4.3443
v -7.391 39.7039 0
v -5.9795 39.7039 -4.3443
v -2.284 39.7039 -7.0293
v 2.284 39.7039 -7.0293
v 5.9795 39.7039 -4.3443
v 7.391 39.7039 0
v 5.6569 37.7574 0
v 4.5765 37.7574 3.325
v 1.7481 37.7574 5.38
v -1.7481 37.7574 5.38
v -4.5765 37.7574 3.325
v -5.6569 37.7574 0
v -4.5765 37.7574 -3.325
v -1.7481 37.7574 -5.38
v 1.7481 37.7574 -5.38
v 4.5765 37.7574 -3.325
v 5.6569 37.7574 0
v 3.0615 36.4567 0
v 2.4768 36.4567 1.7995
v 0.946 36.4567 2.9116
v -0.946 36.4567 2.9116
v -2.4768 36.4567 1.7995
v -3.0615 36.4567 0
v -2.4768 36.4567 -1.7995
v -0.946 36.4567 -2.9116
v 0.946 36.4567 -2.9116
v 2.4768 36.4567 -1.7995
v 3.0615 36.4567 0
v 0 36 0
v 0 36 0
v 0 36 0
v 0 36 0
v 0 36 0
v 0 36 0
v 0 36 0
v 0 36 0
v 0 36 0
v 0 36 0
v 0 36 0
v -6.5 44 2
v -6.5 44 2
v -6.5 44 2
v -6.5 44 2
v -6.5 44 2
v -6.5 44 2
v -6.5 44 2
v -6.5 44 2
v -6.5 44 2
v -6.5 44 2
v -6.5 44 2
v -4.2039 43.6194 2
v -4.6424 43.6194 3.3496
v -5.7905 43.6194 4.1837
v -7.2095 43.6194 4.1837
v -8.3576 43.6194 3.3496
v -8.7961 43.6194 2
v -8.3576 43.6194 0.6504
v -7.2095 43.6194 -0.1837
v -5.7905 43.6194 -0.1837
v -4.6424 43.6194 0.6504
v -4.2039 43.6194 2
v -2.2574 42.5355 2
v -3.0676 42.5355 4.4938
v -5.189 42.5355 6.035
v -7.811 42.5355 6.035
v -9.9324 42.5355 4.4938
v -10.7426 42.5355 2
v -9.9324 42.5355 -0.4938
v -7.811 42.5355 -2.035
v -5.189 42.5355 -2.035
v -3.0676 42.5355 -0.4938
v -2.2574 42.5355 2
v -0.9567 40.9134 2
v -2.0154 40.9134 5.2583
v -4.787 40.9134 7.272
v -8.213 40.9134 7.272
v -10.9846 40.9134 5.2583
v -12.0433 40.9134 2
v -10.9846 40.9134 -1.2583
v -8.213 40.9134 -3.272
v -4.787 40.9134 -3.272
v -2.0154 40.9134 -1.2583
v -0.9567 40.9134 2
v -0.5 39 2
v -1.6459 39 5.5267
v -4.6459 39 7.7063
v -8.3541 39 7.7063
v -11.3541 39 5.5267
v -12.5 39 2
v -11.3541 39 -1.5267
v -8.3541 39 -3.7063
v -4.6459 39 -3.7063
v -1.6459 39 -1.5267
v -0.5 39 2
v -0.9567 37.0866 2
v -2.0154 37.0866 5.2583
v -4.787 37.0866 7.272
v -8.213 37.0866 7.272
v -10.9846 37.0866 5.2583
v -12.0433 37.0866 2
v -10.9846 37.0866 -1.2583
v -8.213 37.0866 -3.272
v -4.787 37.0866 -3.272
v -2.0154 37.0866 -1.2583
v -0.9567 37.0866 2
v -2.2574 35.4645 2
v -3.0676 35.4645 4.4938
v -5.189 35.4645 6.035
v -7.811 35.4645 6.035
v -9.9324 35.4645 4.4938
v -10.7426 35.4645 2
v -9.9324 35.4645 -0.4938
v -7.811 35.4645 -2.035
v -5.189 35.4645 -2.035
v -3.0676 35.4645 -0.4938
v -2.2574 35.4645 2
v -4.2039 34.3806 2
v -4.6424 34.3806 3.3496
v -5.7905 34.3806 4.1837
v -7.2095 34.3806 4.1837
v -8.3576 34.3806 3.3496
v -8.7961 34.3806 2
v -8.3576 34.3806 0.6504
v -7.2095 34.3806 -0.1837
v -5.7905 34.3806 -0.1837
v -4.6424 34.3806 0.6504
v -4.2039 34.3806 2
v -6.5 34 2
v -6.5 34 2
v -6.5 34 2
v -6.5 34 2
v -6.5 34 2
v -6.5 34 2
v -6.5 34 2
v -6.5 34 2
v -6.5 34 2
v -6.5 34 2
v -6.5 34 2
v 7 45.5 -1
v 7 45.5 -1
v 7 45.5 -1
v 7 45.5 -1
v 7 45.5 -1
v 7 45.5 -1
v 7 45.5 -1
v 7 45.5 -1
v 7 45.5 -1
v 7 45.5 -1
v 7 45.5 -1
v 9.6788 45.0813 -1
v 9.1672 45.0813 0.4621
v 7.8278 45.0813 1.3657
v 6.1722 45.0813 1.3657
v 4.8328 45.0813 0.4621
v 4.3212 45.0813 -1
v 4.8328 45.0813 -2.4621
v 6.1722 45.0813 -3.3657
v 7.8278 45.0813 -3.3657
v 9.1672 45.0813 -2.4621
v 9.6788 45.0813 -1
v 11.9497 43.8891 -1
v 11.0044 43.8891 1.7016
v 8.5296 43.8891 3.3712
v 5.4704 43.8891 3.3712
v 2.9956 43.8891 1.7016
v 2.0503 43.8891 -1
v 2.9956 43.8891 -3.7016
v 5.4704 43.8891 -5.3712
v 8.5296 43.8891 -5.3712
v 11.0044 43.8891 -3.7016
v 11.9497 43.8891 -1
v 13.4672 42.1048 -1
v 12.232 42.1048 2.5298
v 8.9985 42.1048 4.7113
v 5.0015 42.1048 4.7113
v 1.768 42.1048 2.5298
v 0.5328 42.1048 -1
v 1.768 42.1048 -4.5298
v 5.0015 42.1048 -6.7113
v 8.9985 42.1048 -6.7113
v 12.232 42.1048 -4.5298
v 13.4672 42.1048 -1
v 14 40 -1
v 12.6631 40 2.8206
v 9.1631 40 5.1819
v 4.8369 40 5.1819
v 1.3369 40 2.8206
v 0 40 -1
v 1.3369 40 -4.8206
v 4.8369 40 -7.1819
v 9.1631 40 -7.1819
v 12.6631 40 -4.8206
v 14 40 -1
v 13.4672 37.8952 -1
v 12.232 37.8952 2.5298
v 8.9985 37.8952 4.7113
v 5.0015 37.8952 4.7113
v 1.768 37.8952 2.5298
v 0.5328 37.8952 -1
v 1.768 37.8952 -4.5298
v 5.0015 37.8952 -6.7113
v 8.9985 37.8952 -6.7113
v 12.232 37.8952 -4.5298
v 13.4672 37.8952 -1
v 11.9497 36.1109 -1
v 11.0044 36.1109 1.7016
v 8.5296 36.1109 3.3712
v 5.4704 36.1109 3.3712
v 2.9956 36.1109 1.7016
v 2.0503 36.1109 -1
v 2.9956 36.1109 -3.7016
v 5.4704 36.1109 -5.3712
v 8.5296 36.1109 -5.3712
v 11.0044 36.1109 -3.7016
v 11.9497 36.1109 -1
v 9.6788 34.9187 -1
v 9.1672 34.9187 0.4621
v 7.8278 34.9187 1.3657
v 6.1722 34.9187 1.3657
v 4.8328 34.9187 0.4621
v 4.3212 34.9187 -1
v 4.8328 34.9187 -2.4621
v 6.1722 34.9187 -3.3657
v 7.8278 34.9187 -3.3657
v 9.1672 34.9187 -2.4621
v 9.6788 34.9187 -1
v 7 34.5 -1
v 7 34.5 -1
v 7 34.5 -1
v 7 34.5 -1
v 7 34.5 -1
v 7 34.5 -1
v 7 34.5 -1
v 7 34.5 -1
v 7 34.5 -1
v 7 34.5 -1
v 7 34.5 -1
v 1 52 1
v 1 52 1
v 1 52 1
v 1 52 1
v 1 52 1
v 1 52 1
v 1 52 1
v 1 52 1
v 1 52 1
v 1 52 1
v 1 52 1
v 2.9134 51.6955 1
v 2.548 51.6955 2.1247
v 1.5913 51.6955 2.8198
v 0.4087 51.6955 2.8198
v -0.548 51.6955 2.1247
v -0.9134 51.6955 1
v -0.548 51.6955 -0.1247
v 0.4087 51.6955 -0.8198
v 1.5913 51.6955 -0.8198
v 2.548 51.6955 -0.1247
v 2.9134 51.6955 1
v 4.5355 50.8284 1
v 3.8603 50.8284 3.0781
v 2.0925 50.8284 4.3625
v -0.0925 50.8284 4.3625
v -1.8603 50.8284 3.0781
v -2.5355 50.8284 1
v -1.8603 50.8284 -1.0781
v -0.0925 50.8284 -2.3625
v 2.0925 50.8284 -2.3625
v 3.8603 50.8284 -1.0781
v 4.5355 50.8284 1
v 5.6194 49.5307 1
v 4.7372 49.5307 3.7152
v 2.4275 49.5307 5.3933
v -0.4275 49.5307 5.3933
v -2.7372 49.5307 3.7152
v -3.6194 49.5307 1
v -2.7372 49.5307 -1.7152
v -0.4275 49.5307 -3.3933
v 2.4275 49.5307 -3.3933
v 4.7372 49.5307 -1.7152
v 5.6194 49.5307 1
v 6 48 1
v 5.0451 48 3.9389
v 2.5451 48 5.7553
v -0.5451 48 5.7553
v -3.0451 48 3.9389
v -4 48 1
v -3.0451 48 -1.9389
v -0.5451 48 -3.7553
v 2.5451 48 -3.7553
v 5.0451 48 -1.9389
v 6 48 1
v 5.6194 46.4693 1
v 4.7372 46.4693 3.7152
v 2.4275 46.4693 5.3933
v -0.4275 46.4693 5.3933
v -2.7372 46.4693 3.7152
v -3.6194 46.4693 1
v -2.7372 46.4693 -1.7152
v -0.4275 46.4693 -3.3933
v 2.4275 46.4693 -3.3933
v 4.7372 46.4693 -1.7152
v 5.6194 46.4693 1
v 4.5355 45.1716 1
v 3.8603 45.1716 3.0781
v 2.0925 45.1716 4.3625
v -0.0925 45.1716 4.3625
v -1.8603 45.1716 3.0781
v -2.5355 45.1716 1
v -1.8603 45.1716 -1.0781
v -0.0925 45.1716 -2.3625
v 2.0925 45.1716 -2.3625
v 3.8603 45.1716 -1.0781
v 4.5355 45.1716 1
v 2.9134 44.3045 1
v 2.548 44.3045 2.1247
v 1.5913 44.3045 2.8198
v 0.4087 44.3045 2.8198
v -0.548 44.3045 2.1247
v -0.9134 44.3045 1
v -0.548 44.3045 -0.1247
v 0.4087 44.3045 -0.8198
v 1.5913 44.3045 -0.8198
v 2.548 44.3045 -0.1247
v 2.9134 44.3045 1
v 1 44 1
v 1 44 1
v 1 44 1
v 1 44 1
v 1 44 1
v 1 44 1
v 1 44 1
v 1 44 1
v 1 44 1
v 1 44 1
v 1 44 1
v -1.1 0 5.9
v -0.9 0 5.9
v -0.9 0.8 5.9
v -1.1 0.8 5.9
v -1.1 0 6.1
v -0.9 0 6.1
v -0.9 0.8 6.1
v -1.1 0.8 6.1
v 0.9 0 5.9
v 1.1 0 5.9
v 1.1 0.8 5.9
v 0.9 0.8 5.9
v 0.9 0 6.1
v 1.1 0 6.1
v 1.1 0.8 6.1
v 0.9 0.8 6.1
v -1.2 0.4691 5.9454
v 1.2 0.4691 5.9454
v 1.2 1.0423 5.768
v -1.2 1.0423 5.768
v -1.2 0.5577 6.232
v 1.2 0.5577 6.232
v 1.2 1.1309 6.0546
v -1.2 1.1309 6.0546
v -5.2642 0.1 4.037
v -1.58 0.1 5.5946
v -1.58 1.1 5.5946
v -5.2642 1.1 4.037
v -5.42 0.1 4.4054
v -1.7358 0.1 5.963
v -1.7358 1.1 5.963
v -5.42 1.1 4.4054
v 1.58 0.1 5.5946
v 5.2642 0.1 4.037
v 5.2642 1.1 4.037
v 1.58 1.1 5.5946
v 1.7358 0.1 5.963
v 5.42 0.1 4.4054
v 5.42 1.1 4.4054
v 1.7358 1.1 5.963
vt 0.5 0.5
vt 0.5 0.5
vt 0.5 0.5
vt 0.5 0.5
vt 0.5 0.5
vt 0.5 0.5
vt 0.5 0.5
vt 0.5 0.5
vt 0 0
vt 0.0625 0
vt 0.125 0
vt 0.1875 0
vt 0.25 0
vt 0.3125 0
vt 0.375 0
vt 0.4375 0
vt 0.5 0
vt 0.5625 0
vt 0.625 0
vt 0.6875 0
vt 0.75 0
vt 0.8125 0
vt 0.875 0
vt 0.9375 0
vt 0 1
vt 0.0625 1
vt 0.125 1
vt 0.1875 1
vt 0.25 1
vt 0.3125 1
vt 0.375 1
vt 0.4375 1
vt 0.5 1
vt 0.5625 1
vt 0.625 1
vt 0.6875 1
vt 0.75 1
vt 0.8125 1
vt 0.875 1
vt 0.9375 1
vt 0.5 0.5
vt 0.5 0.5
vt 0 0
vt 0.0625 0
vt 0.125 0
vt 0.1875 0
vt 0.25 0
vt 0.3125 0
vt 0.375 0
vt 0.4375 0
vt 0.5 0
vt 0.5625 0
vt 0.625 0
vt 0.6875 0
vt 0.75 0
vt 0.8125 0
vt 0.875 0
vt 0.9375 0
vt 0 1
vt 0.0625 1
vt 0.125 1
vt 0.1875 1
vt 0.25 1
vt 0.3125 1
vt 0.375 1
vt 0.4375 1
vt 0.5 1
vt 0.5625 1
vt 0.625 1
vt 0.6875 1
vt 0.75 1
vt 0.8125 1
vt 0.875 1
vt 0.9375 1
vt 0.5 0.5
vt 0.5 0.5
vt 0 0
vt 0.08333333333333333 0
vt 0.16666666666666666 0
vt 0.25 0
vt 0.3333333333333333 0
vt 0.4166666666666667 0
vt 0.5 0
vt 0.5833333333333334 0
vt 0.6666666666666666 0
vt 0.75 0
vt 0.8333333333333334 0
vt 0.9166666666666666 0
vt 0 1
vt 0.08333333333333333 1
vt 0.16666666666666666 1
vt 0.25 1
vt 0.3333333333333333 1
vt 0.4166666666666667 1
vt 0.5 1
vt 0.5833333333333334 1
vt 0.6666666666666666 1
vt 0.75 1
vt 0.8333333333333334 1
vt 0.9166666666666666 1
vt 0.5 0.5
vt 0.5 0.5
vt 0.5 0.5
vt 0.5 0.5
vt 0.5 0.5
vt 0.5 0.5
vt 0.5 0.5
vt 0.5 0.5
vt 0.5 0.5
vt 0.5 0.5
vt 0.5 0.5
vt 0.5 0.5
vt 0.5 0.5
vt 0.5 0.5
vt 0.5 0.5
vt 0.5 0.5
vt 0.5 0.5
vt 0.5 0.5
vt 0.5 0.5
vt 0.5 0.5
vt 0 0
vt 0.1 0
vt 0.2 0
vt 0.3 0
vt 0.4 0
vt 0.5 0
vt 0.6 0
vt 0.7 0
vt 0.8 0
vt 0.9 0
vt 1 0
vt 0 0.125
vt 0.1 0.125
vt 0.2 0.125
vt 0.3 0.125
vt 0.4 0.125
vt 0.5 0.125
vt 0.6 0.125
vt 0.7 0.125
vt 0.8 0.125
vt 0.9 0.125
vt 1 0.125
vt 0 0.25
vt 0.1 0.25
vt 0.2 0.25
vt 0.3 0.25
vt 0.4 0.25
vt 0.5 0.25
vt 0.6 0.25
vt 0.7 0.25
vt 0.8 0.25
vt 0.9 0.25
vt 1 0.25
vt 0 0.375
vt 0.1 0.375
vt 0.2 0.375
vt 0.3 0.375
vt 0.4 0.375
vt 0.5 0.375
vt 0.6 0.375
vt 0.7 0.375
vt 0.8 0.375
vt 0.9 0.375
vt 1 0.375
vt 0 0.5
vt 0.1 0.5
vt 0.2 0.5
vt 0.3 0.5
vt 0.4 0.5
vt 0.5 0.5
vt 0.6 0.5
vt 0.7 0.5
vt 0.8 0.5
vt 0.9 0.5
vt 1 0.5
vt 0 0.625
vt 0.1 0.625
vt 0.2 0.625
vt 0.3 0.625
vt 0.4 0.625
vt 0.5 0.625
vt 0.6 0.625
vt 0.7 0.625
vt 0.8 0.625
vt 0.9 0.625
vt 1 0.625
vt 0 0.75
vt 0.1 0.75
vt 0.2 0.75
vt 0.3 0.75
vt 0.4 0.75
vt 0.5 0.75
vt 0.6 0.75
vt 0.7 0.75
vt 0.8 0.75
vt 0.9 0.75
vt 1 0.75
vt 0 0.875
vt 0.1 0.875
vt 0.2 0.875
vt 0.3 0.875
vt 0.4 0.875
vt 0.5 0.875
vt 0.6 0.875
vt 0.7 0.875
vt 0.8 0.875
vt 0.9 0.875
vt 1 0.875
vt 0 1
vt 0.1 1
vt 0.2 1
vt 0.3 1
vt 0.4 1
vt 0.5 1
vt 0.6 1
vt 0.7 1
vt 0.8 1
vt 0.9 1
vt 1 1
vt 0 0
vt 0.1 0
vt 0.2 0
vt 0.3 0
vt 0.4 0
vt 0.5 0
vt 0.6 0
vt 0.7 0
vt 0.8 0
vt 0.9 0
vt 1 0
vt 0 0.125
vt 0.1 0.125
vt 0.2 0.125
vt 0.3 0.125
vt 0.4 0.125
vt 0.5 0.125
vt 0.6 0.125
vt 0.7 0.125
vt 0.8 0.125
vt 0.9 0.125
vt 1 0.125
vt 0 0.25
vt 0.1 0.25
vt 0.2 0.25
vt 0.3 0.25
vt 0.4 0.25
vt 0.5 0.25
vt 0.6 0.25
vt 0.7 0.25
vt 0.8 0.25
vt 0.9 0.25
vt 1 0.25
vt 0 0.375
vt 0.1 0.375
vt 0.2 0.375
vt 0.3 0.375
vt 0.4 0.375
vt 0.5 0.375
vt 0.6 0.375
vt 0.7 0.375
vt 0.8 0.375
vt 0.9 0.375
vt 1 0.375
vt 0 0.5
vt 0.1 0.5
vt 0.2 0.5
vt 0.3 0.5
vt 0.4 0.5
vt 0.5 0.5
vt 0.6 0.5
vt 0.7 0.5
vt 0.8 0.5
vt 0.9 0.5
vt 1 0.5
vt 0 0.625
vt 0.1 0.625
vt 0.2 0.625
vt 0.3 0.625
vt 0.4 0.625
vt 0.5 0.625
vt 0.6 0.625
vt 0.7 0.625
vt 0.8 0.625
vt 0.9 0.625
vt 1 0.625
vt 0 0.75
vt 0.1 0.75
vt 0.2 0.75
vt 0.3 0.75
vt 0.4 0.75
vt 0.5 0.75
vt 0.6 0.75
vt 0.7 0.75
vt 0.8 0.75
vt 0.9 0.75
vt 1 0.75
vt 0 0.875
vt 0.1 0.875
vt 0.2 0.875
vt 0.3 0.875
vt 0.4 0.875
vt 0.5 0.875
vt 0.6 0.875
vt 0.7 0.875
vt 0.8 0.875
vt 0.9 0.875
vt 1 0.875
vt 0 1
vt 0.1 1
vt 0.2 1
vt 0.3 1
vt 0.4 1
vt 0.5 1
vt 0.6 1
vt 0.7 1
vt 0.8 1
vt 0.9 1
vt 1 1
vt 0 0
vt 0.1 0
vt 0.2 0
vt 0.3 0
vt 0.4 0
vt 0.5 0
vt 0.6 0
vt 0.7 0
vt 0.8 0
vt 0.9 0
vt 1 0
vt 0 0.125
vt 0.1 0.125
vt 0.2 0.125
vt 0.3 0.125
vt 0.4 0.125
vt 0.5 0.125
vt 0.6 0.125
vt 0.7 0.125
vt 0.8 0.125
vt 0.9 0.125
vt 1 0.125
vt 0 0.25
vt 0.1 0.25
vt 0.2 0.25
vt 0.3 0.25
vt 0.4 0.25
vt 0.5 0.25
vt 0.6 0.25
vt 0.7 0.25
vt 0.8 0.25
vt 0.9 0.25
vt 1 0.25
vt 0 0.375
vt 0.1 0.375
vt 0.2 0.375
vt 0.3 0.375
vt 0.4 0.375
vt 0.5 0.375
vt 0.6 0.375
vt 0.7 0.375
vt 0.8 0.375
vt 0.9 0.375
vt 1 0.375
vt 0 0.5
vt 0.1 0.5
vt 0.2 0.5
vt 0.3 0.5
vt 0.4 0.5
vt 0.5 0.5
vt 0.6 0.5
vt 0.7 0.5
vt 0.8 0.5
vt 0.9 0.5
vt 1 0.5
vt 0 0.625
vt 0.1 0.625
vt 0.2 0.625
vt 0.3 0.625
vt 0.4 0.625
vt 0.5 0.625
vt 0.6 0.625
vt 0.7 0.625
vt 0.8 0.625
vt 0.9 0.625
vt 1 0.625
vt 0 0.75
vt 0.1 0.75
vt 0.2 0.75
vt 0.3 0.75
vt 0.4 0.75
vt 0.5 0.75
vt 0.6 0.75
vt 0.7 0.75
vt 0.8 0.75
vt 0.9 0.75
vt 1 0.75
vt 0 0.875
vt 0.1 0.875
vt 0.2 0.875
vt 0.3 0.875
vt 0.4 0.875
vt 0.5 0.875
vt 0.6 0.875
vt 0.7 0.875
vt 0.8 0.875
vt 0.9 0.875
vt 1 0.875
vt 0 1
vt 0.1 1
vt 0.2 1
vt 0.3 1
vt 0.4 1
vt 0.5 1
vt 0.6 1
vt 0.7 1
vt 0.8 1
vt 0.9 1
vt 1 1
vt 0 0
vt 0.1 0
vt 0.2 0
vt 0.3 0
vt 0.4 0
vt 0.5 0
vt 0.6 0
vt 0.7 0
vt 0.8 0
vt 0.9 0
vt 1 0
vt 0 0.125
vt 0.1 0.125
vt 0.2 0.125
vt 0.3 0.125
vt 0.4 0.125
vt 0.5 0.125
vt 0.6 0.125
vt 0.7 0.125
vt 0.8 0.125
vt 0.9 0.125
vt 1 0.125
vt 0 0.25
vt 0.1 0.25
vt 0.2 0.25
vt 0.3 0.25
vt 0.4 0.25
vt 0.5 0.25
vt 0.6 0.25
vt 0.7 0.25
vt 0.8 0.25
vt 0.9 0.25
vt 1 0.25
vt 0 0.375
vt 0.1 0.375
vt 0.2 0.375
vt 0.3 0.375
vt 0.4 0.375
vt 0.5 0.375
vt 0.6 0.375
vt 0.7 0.375
vt 0.8 0.375
vt 0.9 0.375
vt 1 0.375
vt 0 0.5
vt 0.1 0.5
vt 0.2 0.5
vt 0.3 0.5
vt 0.4 0.5
vt 0.5 0.5
vt 0.6 0.5
vt 0.7 0.5
vt 0.8 0.5
vt 0.9 0.5
vt 1 0.5
vt 0 0.625
vt 0.1 0.625
vt 0.2 0.625
vt 0.3 0.625
vt 0.4 0.625
vt 0.5 0.625
vt 0.6 0.625
vt 0.7 0.625
vt 0.8 0.625
vt 0.9 0.625
vt 1 0.625
vt 0 0.75
vt 0.1 0.75
vt 0.2 0.75
vt 0.3 0.75
vt 0.4 0.75
vt 0.5 0.75
vt 0.6 0.75
vt 0.7 0.75
vt 0.8 0.75
vt 0.9 0.75
vt 1 0.75
vt 0 0.875
vt 0.1 0.875
vt 0.2 0.875
vt 0.3 0.875
vt 0.4 0.875
vt 0.5 0.875
vt 0.6 0.875
vt 0.7 0.875
vt 0.8 0.875
vt 0.9 0.875
vt 1 0.875
vt 0 1
vt 0.1 1
vt 0.2 1
vt 0.3 1
vt 0.4 1
vt 0.5 1
vt 0.6 1
vt 0.7 1
vt 0.8 1
vt 0.9 1
vt 1 1
vt 0.5 0.5
vt 0.5 0.5
vt 0.5 0.5
vt 0.5 0.5
vt 0.5 0.5
vt 0.5 0.5
vt 0.5 0.5
vt 0.5 0.5
vt 0.5 0.5
vt 0.5 0.5
vt 0.5 0.5
vt 0.5 0.5
vt 0.5 0.5
vt 0.5 0.5
vt 0.5 0.5
vt 0.5 0.5
vt 0.5 0.5
vt 0.5 0.5
vt 0.5 0.5
vt 0.5 0.5
vt 0.5 0.5
vt 0.5 0.5
vt 0.5 0.5
vt 0.5 0.5
vt 0.5 0.5
vt 0.5 0.5
vt 0.5 0.5
vt 0.5 0.5
vt 0.5 0.5
vt 0.5 0.5
vt 0.5 0.5
vt 0.5 0.5
vt 0.5 0.5
vt 0.5 0.5
vt 0.5 0.5
vt 0.5 0.5
vt 0.5 0.5
vt 0.5 0.5
vt 0.5 0.5
vt 0.5 0.5
vn 0 1 0
vn 0 1 0
vn 0 1 0
vn 0 1 0
vn 0 1 0
vn 0 1 0
vn 0 1 0
vn 0 1 0
vn 0 -1 0
vn 0 -1 0
vn 0 -1 0
vn 0 -1 0
vn 0 -1 0
vn 0 -1 0
vn 0 -1 0
vn 0 -1 0
vn 0 -1 0
vn 0 -1 0
vn 0 -1 0
vn 0 -1 0
vn 0 -1 0
vn 0 -1 0
vn 0 -1 0
vn 0 -1 0
vn 0 1 0
vn 0 1 0
vn 0 1 0
vn 0 1 0
vn 0 1 0
vn 0 1 0
vn 0 1 0
vn 0 1 0
vn 0 1 0
vn 0 1 0
vn 0 1 0
vn 0 1 0
vn 0 1 0
vn 0 1 0
vn 0 1 0
vn 0 1 0
vn 0 -1 0
vn 0 1 0
vn 0 -1 0
vn 0 -1 0
vn 0 -1 0
vn 0 -1 0
vn 0 -1 0
vn 0 -1 0
vn 0 -1 0
vn 0 -1 0
vn 0 -1 0
vn 0 -1 0
vn 0 -1 0
vn 0 -1 0
vn 0 -1 0
vn 0 -1 0
vn 0 -1 0
vn 0 -1 0
vn 0 1 0
vn 0 1 0
vn 0 1 0
vn 0 1 0
vn 0 1 0
vn 0 1 0
vn 0 1 0
vn 0 1 0
vn 0 1 0
vn 0 1 0
vn 0 1 0
vn 0 1 0
vn 0 1 0
vn 0 1 0
vn 0 1 0
vn 0 1 0
vn 0 -1 0
vn 0 1 0
vn 0 -1 0
vn 0 -1 0
vn 0 -1 0
vn 0 -1 0
vn 0 -1 0
vn 0 -1 0
vn 0 -1 0
vn 0 -1 0
vn 0 -1 0
vn 0 -1 0
vn 0 -1 0
vn 0 -1 0
vn 0 1 0
vn 0 1 0
vn 0 1 0
vn 0 1 0
vn 0 1 0
vn 0 1 0
vn 0 1 0
vn 0 1 0
vn 0 1 0
vn 0 1 0
vn 0 1 0
vn 0 1 0
vn 0 -1 0
vn 0 1 0
vn 0 1 0
vn 0 1 0
vn 0 1 0
vn 0 1 0
vn 0 1 0
vn 0 1 0
vn 0 1 0
vn 0 1 0
vn 0 1 0
vn 0 1 0
vn 0 1 0
vn 0 1 0
vn 0 1 0
vn 0 1 0
vn 0 1 0
vn 0 1 0
vn 0 1 0
vn 0 1 0
vn 0 1 0
vn 0 1 0
vn 0 1 0
vn 0 1 0
vn 0 1 0
vn 0 1 0
vn 0 1 0
vn 0 1 0
vn 0 1 0
vn 0 1 0
vn 0 1 0
vn 0.3826834323650898 0.9238795325112866 0
vn 0.30959740024909344 0.9238795325112866 0.22493567784086388
vn 0.11825568406654853 0.9238795325112866 0.3639535720290143
vn -0.11825568406654849 0.9238795325112866 0.36395357202901435
vn -0.3095974002490934 0.9238795325112866 0.2249356778408639
vn -0.3826834323650898 0.9238795325112866 4.6865204053262986e-17
vn -0.30959740024909344 0.9238795325112866 -0.22493567784086382
vn -0.11825568406654857 0.9238795325112866 -0.3639535720290143
vn 0.11825568406654845 0.9238795325112866 -0.36395357202901435
vn 0.3095974002490934 0.9238795325112866 -0.22493567784086396
vn 0.3826834323650898 0.9238795325112866 -9.373040810652597e-17
vn 0.7071067811865475 0.7071067811865476 0
vn 0.5720614028176843 0.7071067811865476 0.4156269377774534
vn 0.21850801222441055 0.7071067811865476 0.6724985119639573
vn -0.21850801222441046 0.7071067811865476 0.6724985119639573
vn -0.5720614028176841 0.7071067811865476 0.41562693777745346
vn -0.7071067811865475 0.7071067811865476 8.659560562354932e-17
vn -0.5720614028176843 0.7071067811865476 -0.4156269377774533
vn -0.2185080122244106 0.7071067811865476 -0.6724985119639573
vn 0.21850801222441038 0.7071067811865476 -0.6724985119639573
vn 0.5720614028176841 0.7071067811865476 -0.4156269377774536
vn 0.7071067811865475 0.7071067811865476 -1.7319121124709863e-16
vn 0.9238795325112867 0.38268343236508984 0
vn 0.7474342425568128 0.38268343236508984 0.5430427641049989
vn 0.28549447630116936 0.38268343236508984 0.8786616496665794
vn -0.28549447630116925 0.38268343236508984 0.8786616496665796
vn -0.7474342425568127 0.38268343236508984 0.543042764104999
vn -0.9238795325112867 0.38268343236508984 1.1314261122877003e-16
vn -0.7474342425568128 0.38268343236508984 -0.5430427641049987
vn -0.2854944763011695 0.38268343236508984 -0.8786616496665794
vn 0.28549447630116914 0.38268343236508984 -0.8786616496665796
vn 0.7474342425568127 0.38268343236508984 -0.543042764104999
vn 0.9238795325112867 0.38268343236508984 -2.2628522245754005e-16
vn 1 6.123233995736766e-17 0
vn 0.8090169943749475 6.123233995736766e-17 0.5877852522924731
vn 0.30901699437494745 6.123233995736766e-17 0.9510565162951535
vn -0.30901699437494734 6.123233995736766e-17 0.9510565162951536
vn -0.8090169943749473 6.123233995736766e-17 0.5877852522924732
vn -1 6.123233995736766e-17 1.2246467991473532e-16
vn -0.8090169943749475 6.123233995736766e-17 -0.587785252292473
vn -0.30901699437494756 6.123233995736766e-17 -0.9510565162951535
vn 0.30901699437494723 6.123233995736766e-17 -0.9510565162951536
vn 0.8090169943749473 6.123233995736766e-17 -0.5877852522924734
vn 1 6.123233995736766e-17 -2.4492935982947064e-16
vn 0.9238795325112867 -0.3826834323650898 0
vn 0.7474342425568128 -0.3826834323650898 0.5430427641049989
vn 0.28549447630116936 -0.3826834323650898 0.8786616496665794
vn -0.28549447630116925 -0.3826834323650898 0.8786616496665796
vn -0.7474342425568127 -0.3826834323650898 0.543042764104999
vn -0.9238795325112867 -0.3826834323650898 1.1314261122877003e-16
vn -0.7474342425568128 -0.3826834323650898 -0.5430427641049987
vn -0.2854944763011695 -0.3826834323650898 -0.8786616496665794
vn 0.28549447630116914 -0.3826834323650898 -0.8786616496665796
vn 0.7474342425568127 -0.3826834323650898 -0.543042764104999
vn 0.9238795325112867 -0.3826834323650898 -2.2628522245754005e-16
vn 0.7071067811865476 -0.7071067811865475 0
vn 0.5720614028176844 -0.7071067811865475 0.41562693777745346
vn 0.21850801222441057 -0.7071067811865475 0.6724985119639574
vn -0.2185080122244105 -0.7071067811865475 0.6724985119639574
vn -0.5720614028176843 -0.7071067811865475 0.4156269377774535
vn -0.7071067811865476 -0.7071067811865475 8.659560562354934e-17
vn -0.5720614028176844 -0.7071067811865475 -0.4156269377774534
vn -0.21850801222441066 -0.7071067811865475 -0.6724985119639574
vn 0.2185080122244104 -0.7071067811865475 -0.6724985119639574
vn 0.5720614028176843 -0.7071067811865475 -0.41562693777745363
vn 0.7071067811865476 -0.7071067811865475 -1.7319121124709868e-16
vn 0.3826834323650899 -0.9238795325112866 0
vn 0.3095974002490935 -0.9238795325112866 0.22493567784086393
vn 0.11825568406654857 -0.9238795325112866 0.3639535720290144
vn -0.11825568406654853 -0.9238795325112866 0.36395357202901446
vn -0.3095974002490935 -0.9238795325112866 0.224935677840864
vn -0.3826834323650899 -0.9238795325112866 4.6865204053263e-17
vn -0.3095974002490935 -0.9238795325112866 -0.2249356778408639
vn -0.11825568406654861 -0.9238795325112866 -0.3639535720290144
vn 0.11825568406654849 -0.9238795325112866 -0.36395357202901446
vn 0.3095974002490935 -0.9238795325112866 -0.22493567784086402
vn 0.3826834323650899 -0.9238795325112866 -9.3730408106526e-17
vn 1.2246467991473532e-16 -1 0
vn 9.907600726170916e-17 -1 7.198293278059966e-17
vn 3.7843667304341506e-17 -1 1.1647083184890923e-16
vn -3.7843667304341493e-17 -1 1.1647083184890926e-16
vn -9.907600726170915e-17 -1 7.198293278059968e-17
vn -1.2246467991473532e-16 -1 1.4997597826618576e-32
vn -9.907600726170916e-17 -1 -7.198293278059965e-17
vn -3.784366730434152e-17 -1 -1.1647083184890923e-16
vn 3.7843667304341475e-17 -1 -1.1647083184890926e-16
vn 9.907600726170915e-17 -1 -7.19829327805997e-17
vn 1.2246467991473532e-16 -1 -2.999519565323715e-32
vn 0 1 0
vn 0 1 0
vn 0 1 0
vn 0 1 0
vn 0 1 0
vn 0 1 0
vn 0 1 0
vn 0 1 0
vn 0 1 0
vn 0 1 0
vn 0 1 0
vn 0.3826834323650898 0.9238795325112867 0
vn 0.30959740024909344 0.9238795325112867 0.22493567784086388
vn 0.11825568406654853 0.9238795325112867 0.3639535720290143
vn -0.11825568406654847 0.9238795325112867 0.36395357202901435
vn -0.3095974002490934 0.9238795325112867 0.2249356778408639
vn -0.3826834323650898 0.9238795325112867 4.6865204053262986e-17
vn -0.30959740024909344 0.9238795325112867 -0.22493567784086385
vn -0.11825568406654857 0.9238795325112867 -0.3639535720290143
vn 0.11825568406654845 0.9238795325112867 -0.36395357202901435
vn 0.3095974002490934 0.9238795325112867 -0.22493567784086396
vn 0.3826834323650898 0.9238795325112867 -9.373040810652597e-17
vn 0.7071067811865475 0.7071067811865476 0
vn 0.5720614028176843 0.7071067811865476 0.41562693777745335
vn 0.21850801222441055 0.7071067811865476 0.6724985119639572
vn -0.21850801222441044 0.7071067811865476 0.6724985119639572
vn -0.5720614028176841 0.7071067811865476 0.41562693777745346
vn -0.7071067811865475 0.7071067811865476 8.659560562354932e-17
vn -0.5720614028176843 0.7071067811865476 -0.4156269377774533
vn -0.2185080122244106 0.7071067811865476 -0.6724985119639572
vn 0.21850801222441038 0.7071067811865476 -0.6724985119639572
vn 0.5720614028176841 0.7071067811865476 -0.4156269377774536
vn 0.7071067811865475 0.7071067811865476 -1.7319121124709863e-16
vn 0.9238795325112866 0.38268343236508984 0
vn 0.7474342425568127 0.38268343236508984 0.5430427641049989
vn 0.28549447630116936 0.38268343236508984 0.8786616496665794
vn -0.28549447630116925 0.38268343236508984 0.8786616496665797
vn -0.7474342425568127 0.38268343236508984 0.543042764104999
vn -0.9238795325112866 0.38268343236508984 1.1314261122877003e-16
vn -0.7474342425568127 0.38268343236508984 -0.5430427641049987
vn -0.2854944763011695 0.38268343236508984 -0.8786616496665794
vn 0.28549447630116914 0.38268343236508984 -0.8786616496665797
vn 0.7474342425568127 0.38268343236508984 -0.543042764104999
vn 0.9238795325112866 0.38268343236508984 -2.2628522245754005e-16
vn 1 6.123233995736766e-17 0
vn 0.8090169943749475 6.123233995736766e-17 0.5877852522924731
vn 0.30901699437494745 6.123233995736766e-17 0.9510565162951535
vn -0.30901699437494734 6.123233995736766e-17 0.9510565162951536
vn -0.8090169943749473 6.123233995736766e-17 0.5877852522924732
vn -1 6.123233995736766e-17 1.2246467991473532e-16
vn -0.8090169943749475 6.123233995736766e-17 -0.587785252292473
vn -0.30901699437494756 6.123233995736766e-17 -0.9510565162951535
vn 0.30901699437494723 6.123233995736766e-17 -0.9510565162951536
vn 0.8090169943749473 6.123233995736766e-17 -0.5877852522924734
vn 1 6.123233995736766e-17 -2.4492935982947064e-16
vn 0.9238795325112866 -0.3826834323650897 0
vn 0.7474342425568127 -0.3826834323650897 0.5430427641049989
vn 0.28549447630116936 -0.3826834323650897 0.8786616496665794
vn -0.28549447630116925 -0.3826834323650897 0.8786616496665797
vn -0.7474342425568127 -0.3826834323650897 0.543042764104999
vn -0.9238795325112866 -0.3826834323650897 1.1314261122877003e-16
vn -0.7474342425568127 -0.3826834323650897 -0.5430427641049987
vn -0.2854944763011695 -0.3826834323650897 -0.8786616496665794
vn 0.28549447630116914 -0.3826834323650897 -0.8786616496665797
vn 0.7474342425568127 -0.3826834323650897 -0.543042764104999
vn 0.9238795325112866 -0.3826834323650897 -2.2628522245754005e-16
vn 0.7071067811865476 -0.7071067811865475 0
vn 0.5720614028176844 -0.7071067811865475 0.41562693777745346
vn 0.2185080122244106 -0.7071067811865475 0.6724985119639574
vn -0.2185080122244105 -0.7071067811865475 0.6724985119639574
vn -0.5720614028176843 -0.7071067811865475 0.4156269377774535
vn -0.7071067811865476 -0.7071067811865475 8.659560562354934e-17
vn -0.5720614028176844 -0.7071067811865475 -0.41562693777745335
vn -0.21850801222441066 -0.7071067811865475 -0.6724985119639574
vn 0.2185080122244104 -0.7071067811865475 -0.6724985119639574
vn 0.5720614028176843 -0.7071067811865475 -0.4156269377774537
vn 0.7071067811865476 -0.7071067811865475 -1.7319121124709868e-16
vn 0.3826834323650899 -0.9238795325112867 0
vn 0.3095974002490935 -0.9238795325112867 0.2249356778408639
vn 0.11825568406654857 -0.9238795325112867 0.3639535720290144
vn -0.11825568406654853 -0.9238795325112867 0.3639535720290145
vn -0.3095974002490935 -0.9238795325112867 0.224935677840864
vn -0.3826834323650899 -0.9238795325112867 4.6865204053263e-17
vn -0.3095974002490935 -0.9238795325112867 -0.2249356778408639
vn -0.11825568406654861 -0.9238795325112867 -0.3639535720290144
vn 0.11825568406654847 -0.9238795325112867 -0.3639535720290145
vn 0.3095974002490935 -0.9238795325112867 -0.22493567784086402
vn 0.3826834323650899 -0.9238795325112867 -9.3730408106526e-17
vn 1.2246467991473532e-16 -1 0
vn 9.907600726170917e-17 -1 7.198293278059966e-17
vn 3.7843667304341506e-17 -1 1.1647083184890923e-16
vn -3.7843667304341493e-17 -1 1.1647083184890926e-16
vn -9.907600726170915e-17 -1 7.198293278059968e-17
vn -1.2246467991473532e-16 -1 1.4997597826618576e-32
vn -9.907600726170917e-17 -1 -7.198293278059965e-17
vn -3.784366730434152e-17 -1 -1.1647083184890923e-16
vn 3.784366730434148e-17 -1 -1.1647083184890926e-16
vn 9.907600726170915e-17 -1 -7.19829327805997e-17
vn 1.2246467991473532e-16 -1 -2.999519565323715e-32
vn 0 1 0
vn 0 1 0
vn 0 1 0
vn 0 1 0
vn 0 1 0
vn 0 1 0
vn 0 1 0
vn 0 1 0
vn 0 1 0
vn 0 1 0
vn 0 1 0
vn 0.3826834323650898 0.9238795325112867 0
vn 0.30959740024909344 0.9238795325112867 0.22493567784086388
vn 0.11825568406654853 0.9238795325112867 0.3639535720290143
vn -0.11825568406654849 0.9238795325112867 0.3639535720290144
vn -0.3095974002490934 0.9238795325112867 0.2249356778408639
vn -0.3826834323650898 0.9238795325112867 4.686520405326298e-17
vn -0.30959740024909344 0.9238795325112867 -0.22493567784086382
vn -0.11825568406654859 0.9238795325112867 -0.3639535720290143
vn 0.11825568406654845 0.9238795325112867 -0.3639535720290144
vn 0.3095974002490934 0.9238795325112867 -0.22493567784086396
vn 0.3826834323650898 0.9238795325112867 -9.373040810652596e-17
vn 0.7071067811865474 0.7071067811865476 0
vn 0.5720614028176841 0.7071067811865476 0.4156269377774534
vn 0.21850801222441055 0.7071067811865476 0.6724985119639573
vn -0.21850801222441046 0.7071067811865476 0.6724985119639573
vn -0.5720614028176841 0.7071067811865476 0.41562693777745346
vn -0.7071067811865474 0.7071067811865476 8.659560562354932e-17
vn -0.5720614028176841 0.7071067811865476 -0.4156269377774533
vn -0.2185080122244106 0.7071067811865476 -0.6724985119639573
vn 0.21850801222441038 0.7071067811865476 -0.6724985119639573
vn 0.5720614028176841 0.7071067811865476 -0.4156269377774536
vn 0.7071067811865474 0.7071067811865476 -1.7319121124709863e-16
vn 0.9238795325112867 0.38268343236508984 0
vn 0.7474342425568128 0.38268343236508984 0.5430427641049989
vn 0.28549447630116936 0.38268343236508984 0.8786616496665794
vn -0.28549447630116925 0.38268343236508984 0.8786616496665796
vn -0.7474342425568127 0.38268343236508984 0.543042764104999
vn -0.9238795325112867 0.38268343236508984 1.1314261122877003e-16
vn -0.7474342425568128 0.38268343236508984 -0.5430427641049987
vn -0.2854944763011695 0.38268343236508984 -0.8786616496665794
vn 0.28549447630116914 0.38268343236508984 -0.8786616496665796
vn 0.7474342425568127 0.38268343236508984 -0.543042764104999
vn 0.9238795325112867 0.38268343236508984 -2.2628522245754005e-16
vn 1 6.123233995736766e-17 0
vn 0.8090169943749475 6.123233995736766e-17 0.5877852522924731
vn 0.30901699437494745 6.123233995736766e-17 0.9510565162951535
vn -0.30901699437494734 6.123233995736766e-17 0.9510565162951536
vn -0.8090169943749473 6.123233995736766e-17 0.5877852522924732
vn -1 6.123233995736766e-17 1.2246467991473532e-16
vn -0.8090169943749475 6.123233995736766e-17 -0.587785252292473
vn -0.30901699437494756 6.123233995736766e-17 -0.9510565162951535
vn 0.3090169943749472 6.123233995736766e-17 -0.9510565162951536
vn 0.8090169943749473 6.123233995736766e-17 -0.5877852522924734
vn 1 6.123233995736766e-17 -2.4492935982947064e-16
vn 0.9238795325112867 -0.38268343236508967 0
vn 0.7474342425568128 -0.38268343236508967 0.5430427641049989
vn 0.28549447630116936 -0.38268343236508967 0.8786616496665794
vn -0.28549447630116925 -0.38268343236508967 0.8786616496665796
vn -0.7474342425568127 -0.38268343236508967 0.543042764104999
vn -0.9238795325112867 -0.38268343236508967 1.1314261122877003e-16
vn -0.7474342425568128 -0.38268343236508967 -0.5430427641049987
vn -0.2854944763011695 -0.38268343236508967 -0.8786616496665794
vn 0.28549447630116914 -0.38268343236508967 -0.8786616496665796
vn 0.7474342425568127 -0.38268343236508967 -0.543042764104999
vn 0.9238795325112867 -0.38268343236508967 -2.2628522245754005e-16
vn 0.7071067811865476 -0.7071067811865475 0
vn 0.5720614028176844 -0.7071067811865475 0.41562693777745346
vn 0.21850801222441057 -0.7071067811865475 0.6724985119639574
vn -0.2185080122244105 -0.7071067811865475 0.6724985119639574
vn -0.5720614028176841 -0.7071067811865475 0.4156269377774535
vn -0.7071067811865476 -0.7071067811865475 8.659560562354934e-17
vn -0.5720614028176844 -0.7071067811865475 -0.4156269377774534
vn -0.21850801222441066 -0.7071067811865475 -0.6724985119639574
vn 0.21850801222441044 -0.7071067811865475 -0.6724985119639574
vn 0.5720614028176841 -0.7071067811865475 -0.41562693777745363
vn 0.7071067811865476 -0.7071067811865475 -1.7319121124709868e-16
vn 0.3826834323650899 -0.9238795325112867 0
vn 0.3095974002490935 -0.9238795325112867 0.22493567784086393
vn 0.11825568406654859 -0.9238795325112867 0.3639535720290144
vn -0.11825568406654853 -0.9238795325112867 0.36395357202901446
vn -0.3095974002490935 -0.9238795325112867 0.22493567784086396
vn -0.3826834323650899 -0.9238795325112867 4.6865204053263e-17
vn -0.3095974002490935 -0.9238795325112867 -0.2249356778408639
vn -0.11825568406654861 -0.9238795325112867 -0.3639535720290144
vn 0.11825568406654849 -0.9238795325112867 -0.36395357202901446
vn 0.3095974002490935 -0.9238795325112867 -0.22493567784086402
vn 0.3826834323650899 -0.9238795325112867 -9.3730408106526e-17
vn 1.2246467991473532e-16 -1 0
vn 9.907600726170916e-17 -1 7.198293278059968e-17
vn 3.7843667304341506e-17 -1 1.1647083184890923e-16
vn -3.7843667304341493e-17 -1 1.1647083184890926e-16
vn -9.907600726170915e-17 -1 7.198293278059968e-17
vn -1.2246467991473532e-16 -1 1.4997597826618576e-32
vn -9.907600726170916e-17 -1 -7.198293278059965e-17
vn -3.784366730434152e-17 -1 -1.1647083184890923e-16
vn 3.7843667304341475e-17 -1 -1.1647083184890926e-16
vn 9.907600726170915e-17 -1 -7.19829327805997e-17
vn 1.2246467991473532e-16 -1 -2.999519565323715e-32
vn 0 1 0
vn 0 1 0
vn 0 1 0
vn 0 1 0
vn 0 1 0
vn 0 1 0
vn 0 1 0
vn 0 1 0
vn 0 1 0
vn 0 1 0
vn 0 1 0
vn 0.3826834323650898 0.9238795325112867 0
vn 0.30959740024909344 0.9238795325112867 0.22493567784086385
vn 0.11825568406654854 0.9238795325112867 0.3639535720290143
vn -0.11825568406654849 0.9238795325112867 0.36395357202901435
vn -0.3095974002490934 0.9238795325112867 0.2249356778408639
vn -0.3826834323650898 0.9238795325112867 4.6865204053262986e-17
vn -0.30959740024909344 0.9238795325112867 -0.22493567784086382
vn -0.11825568406654856 0.9238795325112867 -0.3639535720290143
vn 0.11825568406654845 0.9238795325112867 -0.36395357202901435
vn 0.3095974002490934 0.9238795325112867 -0.22493567784086393
vn 0.3826834323650898 0.9238795325112867 -9.373040810652597e-17
vn 0.7071067811865475 0.7071067811865476 0
vn 0.5720614028176843 0.7071067811865476 0.4156269377774534
vn 0.21850801222441057 0.7071067811865476 0.6724985119639573
vn -0.21850801222441046 0.7071067811865476 0.6724985119639573
vn -0.5720614028176841 0.7071067811865476 0.4156269377774534
vn -0.7071067811865475 0.7071067811865476 8.659560562354932e-17
vn -0.5720614028176843 0.7071067811865476 -0.41562693777745335
vn -0.2185080122244106 0.7071067811865476 -0.6724985119639573
vn 0.21850801222441038 0.7071067811865476 -0.6724985119639573
vn 0.5720614028176841 0.7071067811865476 -0.41562693777745363
vn 0.7071067811865475 0.7071067811865476 -1.7319121124709863e-16
vn 0.9238795325112867 0.38268343236508984 0
vn 0.7474342425568128 0.38268343236508984 0.5430427641049989
vn 0.28549447630116936 0.38268343236508984 0.8786616496665796
vn -0.28549447630116925 0.38268343236508984 0.8786616496665796
vn -0.7474342425568127 0.38268343236508984 0.543042764104999
vn -0.9238795325112867 0.38268343236508984 1.1314261122877003e-16
vn -0.7474342425568128 0.38268343236508984 -0.5430427641049987
vn -0.2854944763011695 0.38268343236508984 -0.8786616496665796
vn 0.28549447630116914 0.38268343236508984 -0.8786616496665796
vn 0.7474342425568127 0.38268343236508984 -0.543042764104999
vn 0.9238795325112867 0.38268343236508984 -2.2628522245754005e-16
vn 1 6.123233995736766e-17 0
vn 0.8090169943749475 6.123233995736766e-17 0.5877852522924731
vn 0.30901699437494745 6.123233995736766e-17 0.9510565162951534
vn -0.30901699437494734 6.123233995736766e-17 0.9510565162951536
vn -0.8090169943749472 6.123233995736766e-17 0.5877852522924732
vn -1 6.123233995736766e-17 1.2246467991473532e-16
vn -0.8090169943749475 6.123233995736766e-17 -0.587785252292473
vn -0.30901699437494756 6.123233995736766e-17 -0.9510565162951534
vn 0.30901699437494723 6.123233995736766e-17 -0.9510565162951536
vn 0.8090169943749472 6.123233995736766e-17 -0.5877852522924734
vn 1 6.123233995736766e-17 -2.4492935982947064e-16
vn 0.9238795325112867 -0.3826834323650897 0
vn 0.7474342425568128 -0.3826834323650897 0.5430427641049989
vn 0.28549447630116936 -0.3826834323650897 0.8786616496665796
vn -0.28549447630116925 -0.3826834323650897 0.8786616496665796
vn -0.7474342425568127 -0.3826834323650897 0.543042764104999
vn -0.9238795325112867 -0.3826834323650897 1.1314261122877003e-16
vn -0.7474342425568128 -0.3826834323650897 -0.5430427641049987
vn -0.2854944763011695 -0.3826834323650897 -0.8786616496665796
vn 0.28549447630116914 -0.3826834323650897 -0.8786616496665796
vn 0.7474342425568127 -0.3826834323650897 -0.543042764104999
vn 0.9238795325112867 -0.3826834323650897 -2.2628522245754005e-16
vn 0.7071067811865476 -0.7071067811865475 0
vn 0.5720614028176844 -0.7071067811865475 0.4156269377774534
vn 0.21850801222441057 -0.7071067811865475 0.6724985119639574
vn -0.21850801222441046 -0.7071067811865475 0.6724985119639574
vn -0.5720614028176843 -0.7071067811865475 0.4156269377774535
vn -0.7071067811865476 -0.7071067811865475 8.659560562354934e-17
vn -0.5720614028176844 -0.7071067811865475 -0.4156269377774534
vn -0.21850801222441066 -0.7071067811865475 -0.6724985119639574
vn 0.21850801222441038 -0.7071067811865475 -0.6724985119639574
vn 0.5720614028176843 -0.7071067811865475 -0.41562693777745363
vn 0.7071067811865476 -0.7071067811865475 -1.7319121124709868e-16
vn 0.3826834323650899 -0.9238795325112867 0
vn 0.3095974002490935 -0.9238795325112867 0.22493567784086393
vn 0.11825568406654856 -0.9238795325112867 0.3639535720290144
vn -0.11825568406654854 -0.9238795325112867 0.36395357202901446
vn -0.3095974002490935 -0.9238795325112867 0.224935677840864
vn -0.3826834323650899 -0.9238795325112867 4.6865204053263e-17
vn -0.3095974002490935 -0.9238795325112867 -0.2249356778408639
vn -0.1182556840665486 -0.9238795325112867 -0.3639535720290144
vn 0.11825568406654849 -0.9238795325112867 -0.36395357202901446
vn 0.3095974002490935 -0.9238795325112867 -0.22493567784086405
vn 0.3826834323650899 -0.9238795325112867 -9.3730408106526e-17
vn 1.2246467991473532e-16 -1 0
vn 9.907600726170916e-17 -1 7.198293278059966e-17
vn 3.7843667304341506e-17 -1 1.1647083184890923e-16
vn -3.7843667304341493e-17 -1 1.1647083184890926e-16
vn -9.907600726170916e-17 -1 7.198293278059968e-17
vn -1.2246467991473532e-16 -1 1.4997597826618576e-32
vn -9.907600726170916e-17 -1 -7.198293278059965e-17
vn -3.784366730434152e-17 -1 -1.1647083184890923e-16
vn 3.7843667304341475e-17 -1 -1.1647083184890926e-16
vn 9.907600726170916e-17 -1 -7.19829327805997e-17
vn 1.2246467991473532e-16 -1 -2.999519565323715e-32
vn 0 1 0
vn 0 1 0
vn 0 1 0
vn 0 1 0
vn 0 1 0
vn 0 1 0
vn 0 1 0
vn 0 1 0
vn 0 1 0
vn 0 1 0
vn 0 1 0
vn 0 1 0
vn 0 1 0
vn 0 1 0
vn 0 1 0
vn 0 1 0
vn 0 1 0
vn 0 1 0
vn 0 1 0
vn 0 1 0
vn 0 1 0
vn 0 1 0
vn 0 1 0
vn 0 1 0
vn 0 1 0
vn 0 1 0
vn 0 1 0
vn 0 1 0
vn 0 1 0
vn 0 1 0
vn 0 1 0
vn 0 1 0
vn 0 1 0
vn 0 1 0
vn 0 1 0
vn 0 1 0
vn 0 1 0
vn 0 1 0
vn 0 1 0
vn 0 1 0
f 1/1/1 3/3/3 2/2/2
f 1/1/1 4/4/4 3/3/3
f 5/5/5 6/6/6 7/7/7
f 5/5/5 7/7/7 8/8/8
f 1/1/1 2/2/2 6/6/6
f 1/1/1 6/6/6 5/5/5
f 3/3/3 4/4/4 8/8/8
f 3/3/3 8/8/8 7/7/7
f 1/1/1 5/5/5 8/8/8
f 1/1/1 8/8/8 4/4/4
f 2/2/2 3/3/3 7/7/7
f 2/2/2 7/7/7 6/6/6
f 9/9/9 10/10/10 26/26/26
f 9/9/9 26/26/26 25/25/25
f 41/41/41 10/10/10 9/9/9
f 42/42/42 25/25/25 26/26/26
f 10/10/10 11/11/11 27/27/27
f 10/10/10 27/27/27 26/26/26
f 41/41/41 11/11/11 10/10/10
f 42/42/42 26/26/26 27/27/27
f 11/11/11 12/12/12 28/28/28
f 11/11/11 28/28/28 27/27/27
f 41/41/41 12/12/12 11/11/11
f 42/42/42 27/27/27 28/28/28
f 12/12/12 13/13/13 29/29/29
f 12/12/12 29/29/29 28/28/28
f 41/41/41 13/13/13 12/12/12
f 42/42/42 28/28/28 29/29/29
f 13/13/13 14/14/14 30/30/30
f 13/13/13 30/30/30 29/29/29
f 41/41/41 14/14/14 13/13/13
f 42/42/42 29/29/29 30/30/30
f 14/14/14 15/15/15 31/31/31
f 14/14/14 31/31/31 30/30/30
f 41/41/41 15/15/15 14/14/14
f 42/42/42 30/30/30 31/31/31
f 15/15/15 16/16/16 32/32/32
f 15/15/15 32/32/32 31/31/31
f 41/41/41 16/16/16 15/15/15
f 42/42/42 31/31/31 32/32/32
f 16/16/16 17/17/17 33/33/33
f 16/16/16 33/33/33 32/32/32
f 41/41/41 17/17/17 16/16/16
f 42/42/42 32/32/32 33/33/33
f 17/17/17 18/18/18 34/34/34
f 17/17/17 34/34/34 33/33/33
f 41/41/41 18/18/18 17/17/17
f 42/42/42 33/33/33 34/34/34
f 18/18/18 19/19/19 35/35/35
f 18/18/18 35/35/35 34/34/34
f 41/41/41 19/19/19 18/18/18
f 42/42/42 34/34/34 35/35/35
f 19/19/19 20/20/20 36/36/36
f 19/19/19 36/36/36 35/35/35
f 41/41/41 20/20/20 19/19/19
f 42/42/42 35/35/35 36/36/36
f 20/20/20 21/21/21 37/37/37
f 20/20/20 37/37/37 36/36/36
f 41/41/41 21/21/21 20/20/20
f 42/42/42 36/36/36 37/37/37
f 21/21/21 22/22/22 38/38/38
f 21/21/21 38/38/38 37/37/37
f 41/41/41 22/22/22 21/21/21
f 42/42/42 37/37/37 38/38/38
f 22/22/22 23/23/23 39/39/39
f 22/22/22 39/39/39 38/38/38
f 41/41/41 23/23/23 22/22/22
f 42/42/42 38/38/38 39/39/39
f 23/23/23 24/24/24 40/40/40
f 23/23/23 40/40/40 39/39/39
f 41/41/41 24/24/24 23/23/23
f 42/42/42 39/39/39 40/40/40
f 24/24/24 9/9/9 25/25/25
f 24/24/24 25/25/25 40/40/40
f 41/41/41 9/9/9 24/24/24
f 42/42/42 40/40/40 25/25/25
f 43/43/43 44/44/44 60/60/60
f 43/43/43 60/60/60 59/59/59
f 75/75/75 44/44/44 43/43/43
f 76/76/76 59/59/59 60/60/60
f 44/44/44 45/45/45 61/61/61
f 44/44/44 61/61/61 60/60/60
f 75/75/75 45/45/45 44/44/44
f 76/76/76 60/60/60 61/61/61
f 45/45/45 46/46/46 62/62/62
f 45/45/45 62/62/62 61/61/61
f 75/75/75 46/46/46 45/45/45
f 76/76/76 61/61/61 62/62/62
f 46/46/46 47/47/47 63/63/63
f 46/46/46 63/63/63 62/62/62
f 75/75/75 47/47/47 46/46/46
f 76/76/76 62/62/62 63/63/63
f 47/47/47 48/48/48 64/64/64
f 47/47/47 64/64/64 63/63/63
f 75/75/75 48/48/48 47/47/47
f 76/76/76 63/63/63 64/64/64
f 48/48/48 49/49/49 65/65/65
f 48/48/48 65/65/65 64/64/64
f 75/75/75 49/49/49 48/48/48
f 76/76/76 64/64/64 65/65/65
f 49/49/49 50/50/50 66/66/66
f 49/49/49 66/66/66 65/65/65
f 75/75/75 50/50/50 49/49/49
f 76/76/76 65/65/65 66/66/66
f 50/50/50 51/51/51 67/67/67
f 50/50/50 67/67/67 66/66/66
f 75/75/75 51/51/51 50/50/50
f 76/76/76 66/66/66 67/67/67
f 51/51/51 52/52/52 68/68/68
f 51/51/51 68/68/68 67/67/67
f 75/75/75 52/52/52 51/51/51
f 76/76/76 67/67/67 68/68/68
f 52/52/52 53/53/53 69/69/69
f 52/52/52 69/69/69 68/68/68
f 75/75/75 53/53/53 52/52/52
f 76/76/76 68/68/68 69/69/69
f 53/53/53 54/54/54 70/70/70
f 53/53/53 70/70/70 69/69/69
f 75/75/75 54/54/54 53/53/53
f 76/76/76 69/69/69 70/70/70
f 54/54/54 55/55/55 71/71/71
f 54/54/54 71/71/71 70/70/70
f 75/75/75 55/55/55 54/54/54
f 76/76/76 70/70/70 71/71/71
f 55/55/55 56/56/56 72/72/72
f 55/55/55 72/72/72 71/71/71
f 75/75/75 56/56/56 55/55/55
f 76/76/76 71/71/71 72/72/72
f 56/56/56 57/57/57 73/73/73
f 56/56/56 73/73/73 72/72/72
f 75/75/75 57/57/57 56/56/56
f 76/76/76 72/72/72 73/73/73
f 57/57/57 58/58/58 74/74/74
f 57/57/57 74/74/74 73/73/73
f 75/75/75 58/58/58 57/57/57
f 76/76/76 73/73/73 74/74/74
f 58/58/58 43/43/43 59/59/59
f 58/58/58 59/59/59 74/74/74
f 75/75/75 43/43/43 58/58/58
f 76/76/76 74/74/74 59/59/59
f 77/77/77 78/78/78 90/90/90
f 77/77/77 90/90/90 89/89/89
f 101/101/101 78/78/78 77/77/77
f 102/102/102 89/89/89 90/90/90
f 78/78/78 79/79/79 91/91/91
f 78/78/78 91/91/91 90/90/90
f 101/101/101 79/79/79 78/78/78
f 102/102/102 90/90/90 91/91/91
f 79/79/79 80/80/80 92/92/92
f 79/79/79 92/92/92 91/91/91
f 101/101/101 80/80/80 79/79/79
f 102/102/102 91/91/91 92/92/92
f 80/80/80 81/81/81 93/93/93
f 80/80/80 93/93/93 92/92/92
f 101/101/101 81/81/81 80/80/80
f 102/102/102 92/92/92 93/93/93
f 81/81/81 82/82/82 94/94/94
f 81/81/81 94/94/94 93/93/93
f 101/101/101 82/82/82 81/81/81
f 102/102/102 93/93/93 94/94/94
f 82/82/82 83/83/83 95/95/95
f 82/82/82 95/95/95 94/94/94
f 101/101/101 83/83/83 82/82/82
f 102/102/102 94/94/94 95/95/95
f 83/83/83 84/84/84 96/96/96
f 83/83/83 96/96/96 95/95/95
f 101/101/101 84/84/84 83/83/83
f 102/102/102 95/95/95 96/96/96
f 84/84/84 85/85/85 97/97/97
f 84/84/84 97/97/97 96/96/96
f 101/101/101 85/85/85 84/84/84
f 102/102/102 96/96/96 97/97/97
f 85/85/85 86/86/86 98/98/98
f 85/85/85 98/98/98 97/97/97
f 101/101/101 86/86/86 85/85/85
f 102/102/102 97/97/97 98/98/98
f 86/86/86 87/87/87 99/99/99
f 86/86/86 99/99/99 98/98/98
f 101/101/101 87/87/87 86/86/86
f 102/102/102 98/98/98 99/99/99
f 87/87/87 88/88/88 100/100/100
f 87/87/87 100/100/100 99/99/99
f 101/101/101 88/88/88 87/87/87
f 102/102/102 99/99/99 100/100/100
f 88/88/88 77/77/77 89/89/89
f 88/88/88 89/89/89 100/100/100
f 101/101/101 77/77/77 88/88/88
f 102/102/102 100/100/100 89/89/89
f 103/103/103 105/105/105 104/104/104
f 103/103/103 106/106/106 105/105/105
f 103/103/103 104/104/104 108/108/108
f 103/103/103 108/108/108 107/107/107
f 105/105/105 106/106/106 107/107/107
f 105/105/105 107/107/107 108/108/108
f 103/103/103 107/107/107 106/106/106
f 104/104/104 105/105/105 108/108/108
f 109/109/109 111/111/111 110/110/110
f 109/109/109 112/112/112 111/111/111
f 109/109/109 110/110/110 114/114/114
f 109/109/109 114/114/114 113/113/113
f 111/111/111 112/112/112 113/113/113
f 111/111/111 113/113/113 114/114/114
f 109/109/109 113/113/113 112/112/112
f 110/110/110 111/111/111 114/114/114
f 115/115/115 117/117/117 116/116/116
f 115/115/115 118/118/118 117/117/117
f 115/115/115 116/116/116 120/120/120
f 115/115/115 120/120/120 119/119/119
f 117/117/117 118/118/118 119/119/119
f 117/117/117 119/119/119 120/120/120
f 115/115/115 119/119/119 118/118/118
f 116/116/116 117/117/117 120/120/120
f 121/121/121 132/132/132 133/133/133
f 121/121/121 133/133/133 122/122/122
f 122/122/122 133/133/133 134/134/134
f 122/122/122 134/134/134 123/123/123
f 123/123/123 134/134/134 135/135/135
f 123/123/123 135/135/135 124/124/124
f 124/124/124 135/135/135 136/136/136
f 124/124/124 136/136/136 125/125/125
f 125/125/125 136/136/136 137/137/137
f 125/125/125 137/137/137 126/126/126
f 126/126/126 137/137/137 138/138/138
f 126/126/126 138/138/138 127/127/127
f 127/127/127 138/138/138 139/139/139
f 127/127/127 139/139/139 128/128/128
f 128/128/128 139/139/139 140/140/140
f 128/128/128 140/140/140 129/129/129
f 129/129/129 140/140/140 141/141/141
f 129/129/129 141/141/141 130/130/130
f 130/130/130 141/141/141 142/142/142
f 130/130/130 142/142/142 131/131/131
f 132/132/132 143/143/143 144/144/144
f 132/132/132 144/144/144 133/133/133
f 133/133/133 144/144/144 145/145/145
f 133/133/133 145/145/145 134/134/134
f 134/134/134 145/145/145 146/146/146
f 134/134/134 146/146/146 135/135/135
f 135/135/135 146/146/146 147/147/147
f 135/135/135 147/147/147 136/136/136
f 136/136/136 147/147/147 148/148/148
f 136/136/136 148/148/148 137/137/137
f 137/137/137 148/148/148 149/149/149
f 137/137/137 149/149/149 138/138/138
f 138/138/138 149/149/149 150/150/150
f 138/138/138 150/150/150 139/139/139
f 139/139/139 150/150/150 151/151/151
f 139/139/139 151/151/151 140/140/140
f 140/140/140 151/151/151 152/152/152
f 140/140/140 152/152/152 141/141/141
f 141/141/141 152/152/152 153/153/153
f 141/141/141 153/153/153 142/142/142
f 143/143/143 154/154/154 155/155/155
f 143/143/143 155/155/155 144/144/144
f 144/144/144 155/155/155 156/156/156
f 144/144/144 156/156/156 145/145/145
f 145/145/145 156/156/156 157/157/157
f 145/145/145 157/157/157 146/146/146
f 146/146/146 157/157/157 158/158/158
f 146/146/146 158/158/158 147/147/147
f 147/147/147 158/158/158 159/159/159
f 147/147/147 159/159/159 148/148/148
f 148/148/148 159/159/159 160/160/160
f 148/148/148 160/160/160 149/149/149
f 149/149/149 160/160/160 161/161/161
f 149/149/149 161/161/161 150/150/150
f 150/150/150 161/161/161 162/162/162
f 150/150/150 162/162/162 151/151/151
f 151/151/151 162/162/162 163/163/163
f 151/151/151 163/163/163 152/152/152
f 152/152/152 163/163/163 164/164/164
f 152/152/152 164/164/164 153/153/153
f 154/154/154 165/165/165 166/166/166
f 154/154/154 166/166/166 155/155/155
f 155/155/155 166/166/166 167/167/167
f 155/155/155 167/167/167 156/156/156
f 156/156/156 167/167/167 168/168/168
f 156/156/156 168/168/168 157/157/157
f 157/157/157 168/168/168 169/169/169
f 157/157/157 169/169/169 158/158/158
f 158/158/158 169/169/169 170/170/170
f 158/158/158 170/170/170 159/159/159
f 159/159/159 170/170/170 171/171/171
f 159/159/159 171/171/171 160/160/160
f 160/160/160 171/171/171 172/172/172
f 160/160/160 172/172/172 161/161/161
f 161/161/161 172/172/172 173/173/173
f 161/161/161 173/173/173 162/162/162
f 162/162/162 173/173/173 174/174/174
f 162/162/162 174/174/174 163/163/163
f 163/163/163 174/174/174 175/175/175
f 163/163/163 175/175/175 164/164/164
f 165/165/165 176/176/176 177/177/177
f 165/165/165 177/177/177 166/166/166
f 166/166/166 177/177/177 178/178/178
f 166/166/166 178/178/178 167/167/167
f 167/167/167 178/178/178 179/179/179
f 167/167/167 179/179/179 168/168/168
f 168/168/168 179/179/179 180/180/180
f 168/168/168 180/180/180 169/169/169
f 169/169/169 180/180/180 181/181/181
f 169/169/169 181/181/181 170/170/170
f 170/170/170 181/181/181 182/182/182
f 170/170/170 182/182/182 171/171/171
f 171/171/171 182/182/182 183/183/183
f 171/171/171 183/183/183 172/172/172
f 172/172/172 183/183/183 184/184/184
f 172/172/172 184/184/184 173/173/173
f 173/173/173 184/184/184 185/185/185
f 173/173/173 185/185/185 174/174/174
f 174/174/174 185/185/185 186/186/186
f 174/174/174 186/186/186 175/175/175
f 176/176/176 187/187/187 188/188/188
f 176/176/176 188/188/188 177/177/177
f 177/177/177 188/188/188 189/189/189
f 177/177/177 189/189/189 178/178/178
f 178/178/178 189/189/189 190/190/190
f 178/178/178 190/190/190 179/179/179
f 179/179/179 190/190/190 191/191/191
f 179/179/179 191/191/191 180/180/180
f 180/180/180 191/191/191 192/192/192
f 180/180/180 192/192/192 181/181/181
f 181/181/181 192/192/192 193/193/193
f 181/181/181 193/193/193 182/182/182
f 182/182/182 193/193/193 194/194/194
f 182/182/182 194/194/194 183/183/183
f 183/183/183 194/194/194 195/195/195
f 183/183/183 195/195/195 184/184/184
f 184/184/184 195/195/195 196/196/196
f 184/184/184 196/196/196 185/185/185
f 185/185/185 196/196/196 197/197/197
f 185/185/185 197/197/197 186/186/186
f 187/187/187 198/198/198 199/199/199
f 187/187/187 199/199/199 188/188/188
f 188/188/188 199/199/199 200/200/200
f 188/188/188 200/200/200 189/189/189
f 189/189/189 200/200/200 201/201/201
f 189/189/189 201/201/201 190/190/190
f 190/190/190 201/201/201 202/202/202
f 190/190/190 202/202/202 191/191/191
f 191/191/191 202/202/202 203/203/203
f 191/191/191 203/203/203 192/192/192
f 192/192/192 203/203/203 204/204/204
f 192/192/192 204/204/204 193/193/193
f 193/193/193 204/204/204 205/205/205
f 193/193/193 205/205/205 194/194/194
f 194/194/194 205/205/205 206/206/206
f 194/194/194 206/206/206 195/195/195
f 195/195/195 206/206/206 207/207/207
f 195/195/195 207/207/207 196/196/196
f 196/196/196 207/207/207 208/208/208
f 196/196/196 208/208/208 197/197/197
f 198/198/198 209/209/209 210/210/210
f 198/198/198 210/210/210 199/199/199
f 199/199/199 210/210/210 211/211/211
f 199/199/199 211/211/211 200/200/200
f 200/200/200 211/211/211 212/212/212
f 200/200/200 212/212/212 201/201/201
f 201/201/201 212/212/212 213/213/213
f 201/201/201 213/213/213 202/202/202
f 202/202/202 213/213/213 214/214/214
f 202/202/202 214/214/214 203/203/203
f 203/203/203 214/214/214 215/215/215
f 203/203/203 215/215/215 204/204/204
f 204/204/204 215/215/215 216/216/216
f 204/204/204 216/216/216 205/205/205
f 205/205/205 216/216/216 217/217/217
f 205/205/205 217/217/217 206/206/206
f 206/206/206 217/217/217 218/218/218
f 206/206/206 218/218/218 207/207/207
f 207/207/207 218/218/218 219/219/219
f 207/207/207 219/219/219 208/208/208
f 220/220/220 231/231/231 232/232/232
f 220/220/220 232/232/232 221/221/221
f 221/221/221 232/232/232 233/233/233
f 221/221/221 233/233/233 222/222/222
f 222/222/222 233/233/233 234/234/234
f 222/222/222 234/234/234 223/223/223
f 223/223/223 234/234/234 235/235/235
f 223/223/223 235/235/235 224/224/224
f 224/224/224 235/235/235 236/236/236
f 224/224/224 236/236/236 225/225/225
f 225/225/225 236/236/236 237/237/237
f 225/225/225 237/237/237 226/226/226
f 226/226/226 237/237/237 238/238/238
f 226/226/226 238/238/238 227/227/227
f 227/227/227 238/238/238 239/239/239
f 227/227/227 239/239/239 228/228/228
f 228/228/228 239/239/239 240/240/240
f 228/228/228 240/240/240 229/229/229
f 229/229/229 240/240/240 241/241/241
f 229/229/229 241/241/241 230/230/230
f 231/231/231 242/242/242 243/243/243
f 231/231/231 243/243/243 232/232/232
f 232/232/232 243/243/243 244/244/244
f 232/232/232 244/244/244 233/233/233
f 233/233/233 244/244/244 245/245/245
f 233/233/233 245/245/245 234/234/234
f 234/234/234 245/245/245 246/246/246
f 234/234/234 246/246/246 235/235/235
f 235/235/235 246/246/246 247/247/247
f 235/235/235 247/247/247 236/236/236
f 236/236/236 247/247/247 248/248/248
f 236/236/236 248/248/248 237/237/237
f 237/237/237 248/248/248 249/249/249
f 237/237/237 249/249/249 238/238/238
f 238/238/238 249/249/249 250/250/250
f 238/238/238 250/250/250 239/239/239
f 239/239/239 250/250/250 251/251/251
f 239/239/239 251/251/251 240/240/240
f 240/240/240 251/251/251 252/252/252
f 240/240/240 252/252/252 241/241/241
f 242/242/242 253/253/253 254/254/254
f 242/242/242 254/254/254 243/243/243
f 243/243/243 254/254/254 255/255/255
f 243/243/243 255/255/255 244/244/244
f 244/244/244 255/255/255 256/256/256
f 244/244/244 256/256/256 245/245/245
f 245/245/245 256/256/256 257/257/257
f 245/245/245 257/257/257 246/246/246
f 246/246/246 257/257/257 258/258/258
f 246/246/246 258/258/258 247/247/247
f 247/247/247 258/258/258 259/259/259
f 247/247/247 259/259/259 248/248/248
f 248/248/248 259/259/259 260/260/260
f 248/248/248 260/260/260 249/249/249
f 249/249/249 260/260/260 261/261/261
f 249/249/249 261/261/261 250/250/250
f 250/250/250 261/261/261 262/262/262
f 250/250/250 262/262/262 251/251/251
f 251/251/251 262/262/262 263/263/263
f 251/251/251 263/263/263 252/252/252
f 253/253/253 264/264/264 265/265/265
f 253/253/253 265/265/265 254/254/254
f 254/254/254 265/265/265 266/266/266
f 254/254/254 266/266/266 255/255/255
f 255/255/255 266/266/266 267/267/267
f 255/255/255 267/267/267 256/256/256
f 256/256/256 267/267/267 268/268/268
f 256/256/256 268/268/268 257/257/257
f 257/257/257 268/268/268 269/269/269
f 257/257/257 269/269/269 258/258/258
f 258/258/258 269/269/269 270/270/270
f 258/258/258 270/270/270 259/259/259
f 259/259/259 270/270/270 271/271/271
f 259/259/259 271/271/271 260/260/260
f 260/260/260 271/271/271 272/272/272
f 260/260/260 272/272/272 261/261/261
f 261/261/261 272/272/272 273/273/273
f 261/261/261 273/273/273 262/262/262
f 262/262/262 273/273/273 274/274/274
f 262/262/262 274/274/274 263/263/263
f 264/264/264 275/275/275 276/276/276
f 264/264/264 276/276/276 265/265/265
f 265/265/265 276/276/276 277/277/277
f 265/265/265 277/277/277 266/266/266
f 266/266/266 277/277/277 278/278/278
f 266/266/266 278/278/278 267/267/267
f 267/267/267 278/278/278 279/279/279
f 267/267/267 279/279/279 268/268/268
f 268/268/268 279/279/279 280/280/280
f 268/268/268 280/280/280 269/269/269
f 269/269/269 280/280/280 281/281/281
f 269/269/269 281/281/281 270/270/270
f 270/270/270 281/281/281 282/282/282
f 270/270/270 282/282/282 271/271/271
f 271/271/271 282/282/282 283/283/283
f 271/271/271 283/283/283 272/272/272
f 272/272/272 283/283/283 284/284/284
f 272/272/272 284/284/284 273/273/273
f 273/273/273 284/284/284 285/285/285
f 273/273/273 285/285/285 274/274/274
f 275/275/275 286/286/286 287/287/287
f 275/275/275 287/287/287 276/276/276
f 276/276/276 287/287/287 288/288/288
f 276/276/276 288/288/288 277/277/277
f 277/277/277 288/288/288 289/289/289
f 277/277/277 289/289/289 278/278/278
f 278/278/278 289/289/289 290/290/290
f 278/278/278 290/290/290 279/279/279
f 279/279/279 290/290/290 291/291/291
f 279/279/279 291/291/291 280/280/280
f 280/280/280 291/291/291 292/292/292
f 280/280/280 292/292/292 281/281/281
f 281/281/281 292/292/292 293/293/293
f 281/281/281 293/293/293 282/282/282
f 282/282/282 293/293/293 294/294/294
f 282/282/282 294/294/294 283/283/283
f 283/283/283 294/294/294 295/295/295
f 283/283/283 295/295/295 284/284/284
f 284/284/284 295/295/295 296/296/296
f 284/284/284 296/296/296 285/285/285
f 286/286/286 297/297/297 298/298/298
f 286/286/286 298/298/298 287/287/287
f 287/287/287 298/298/298 299/299/299
f 287/287/287 299/299/299 288/288/288
f 288/288/288 299/299/299 300/300/300
f 288/288/288 300/300/300 289/289/289
f 289/289/289 300/300/300 301/301/301
f 289/289/289 301/301/301 290/290/290
f 290/290/290 301/301/301 302/302/302
f 290/290/290 302/302/302 291/291/291
f 291/291/291 302/302/302 303/303/303
f 291/291/291 303/303/303 292/292/292
f 292/292/292 303/303/303 304/304/304
f 292/292/292 304/304/304 293/293/293
f 293/293/293 304/304/304 305/305/305
f 293/293/293 305/305/305 294/294/294
f 294/294/294 305/305/305 306/306/306
f 294/294/294 306/306/306 295/295/295
f 295/295/295 306/306/306 307/307/307
f 295/295/295 307/307/307 296/296/296
f 297/297/297 308/308/308 309/309/309
f 297/297/297 309/309/309 298/298/298
f 298/298/298 309/309/309 310/310/310
f 298/298/298 310/310/310 299/299/299
f 299/299/299 310/310/310 311/311/311
f 299/299/299 311/311/311 300/300/300
f 300/300/300 311/311/311 312/312/312
f 300/300/300 312/312/312 301/301/301
f 301/301/301 312/312/312 313/313/313
f 301/301/301 313/313/313 302/302/302
f 302/302/302 313/313/313 314/314/314
f 302/302/302 314/314/314 303/303/303
f 303/303/303 314/314/314 315/315/315
f 303/303/303 315/315/315 304/304/304
f 304/304/304 315/315/315 316/316/316
f 304/304/304 316/316/316 305/305/305
f 305/305/305 316/316/316 317/317/317
f 305/305/305 317/317/317 306/306/306
f 306/306/306 317/317/317 318/318/318
f 306/306/306 318/318/318 307/307/307
f 319/319/319 330/330/330 331/331/331
f 319/319/319 331/331/331 320/320/320
f 320/320/320 331/331/331 332/332/332
f 320/320/320 332/332/332 321/321/321
f 321/321/321 332/332/332 333/333/333
f 321/321/321 333/333/333 322/322/322
f 322/322/322 333/333/333 334/334/334
f 322/322/322 334/334/334 323/323/323
f 323/323/323 334/334/334 335/335/335
f 323/323/323 335/335/335 324/324/324
f 324/324/324 335/335/335 336/336/336
f 324/324/324 336/336/336 325/325/325
f 325/325/325 336/336/336 337/337/337
f 325/325/325 337/337/337 326/326/326
f 326/326/326 337/337/337 338/338/338
f 326/326/326 338/338/338 327/327/327
f 327/327/327 338/338/338 339/339/339
f 327/327/327 339/339/339 328/328/328
f 328/328/328 339/339/339 340/340/340
f 328/328/328 340/340/340 329/329/329
f 330/330/330 341/341/341 342/342/342
f 330/330/330 342/342/342 331/331/331
f 331/331/331 342/342/342 343/343/343
f 331/331/331 343/343/343 332/332/332
f 332/332/332 343/343/343 344/344/344
f 332/332/332 344/344/344 333/333/333
f 333/333/333 344/344/344 345/345/345
f 333/333/333 345/345/345 334/334/334
f 334/334/334 345/345/345 346/346/346
f 334/334/334 346/346/346 335/335/335
f 335/335/335 346/346/346 347/347/347
f 335/335/335 347/347/347 336/336/336
f 336/336/336 347/347/347 348/348/348
f 336/336/336 348/348/348 337/337/337
f 337/337/337 348/348/348 349/349/349
f 337/337/337 349/349/349 338/338/338
f 338/338/338 349/349/349 350/350/350
f 338/338/338 350/350/350 339/339/339
f 339/339/339 350/350/350 351/351/351
f 339/339/339 351/351/351 340/340/340
f 341/341/341 352/352/352 353/353/353
f 341/341/341 353/353/353 342/342/342
f 342/342/342 353/353/353 354/354/354
f 342/342/342 354/354/354 343/343/343
f 343/343/343 354/354/354 355/355/355
f 343/343/343 355/355/355 344/344/344
f 344/344/344 355/355/355 356/356/356
f 344/344/344 356/356/356 345/345/345
f 345/345/345 356/356/356 357/357/357
f 345/345/345 357/357/357 346/346/346
f 346/346/346 357/357/357 358/358/358
f 346/346/346 358/358/358 347/347/347
f 347/347/347 358/358/358 359/359/359
f 347/347/347 359/359/359 348/348/348
f 348/348/348 359/359/359 360/360/360
f 348/348/348 360/360/360 349/349/349
f 349/349/349 360/360/360 361/361/361
f 349/349/349 361/361/361 350/350/350
f 350/350/350 361/361/361 362/362/362
f 350/350/350 362/362/362 351/351/351
f 352/352/352 363/363/363 364/364/364
f 352/352/352 364/364/364 353/353/353
f 353/353/353 364/364/364 365/365/365
f 353/353/353 365/365/365 354/354/354
f 354/354/354 365/365/365 366/366/366
f 354/354/354 366/366/366 355/355/355
f 355/355/355 366/366/366 367/367/367
f 355/355/355 367/367/367 356/356/356
f 356/356/356 367/367/367 368/368/368
f 356/356/356 368/368/368 357/357/357
f 357/357/357 368/368/368 369/369/369
f 357/357/357 369/369/369 358/358/358
f 358/358/358 369/369/369 370/370/370
f 358/358/358 370/370/370 359/359/359
f 359/359/359 370/370/370 371/371/371
f 359/359/359 371/371/371 360/360/360
f 360/360/360 371/371/371 372/372/372
f 360/360/360 372/372/372 361/361/361
f 361/361/361 372/372/372 373/373/373
f 361/361/361 373/373/373 362/362/362
f 363/363/363 374/374/374 375/375/375
f 363/363/363 375/375/375 364/364/364
f 364/364/364 375/375/375 376/376/376
f 364/364/364 376/376/376 365/365/365
f 365/365/365 376/376/376 377/377/377
f 365/365/365 377/377/377 366/366/366
f 366/366/366 377/377/377 378/378/378
f 366/366/366 378/378/378 367/367/367
f 367/367/367 378/378/378 379/379/379
f 367/367/367 379/379/379 368/368/368
f 368/368/368 379/379/379 380/380/380
f 368/368/368 380/380/380 369/369/369
f 369/369/369 380/380/380 381/381/381
f 369/369/369 381/381/381 370/370/370
f 370/370/370 381/381/381 382/382/382
f 370/370/370 382/382/382 371/371/371
f 371/371/371 382/382/382 383/383/383
f 371/371/371 383/383/383 372/372/372
f 372/372/372 383/383/383 384/384/384
f 372/372/372 384/384/384 373/373/373
f 374/374/374 385/385/385 386/386/386
f 374/374/374 386/386/386 375/375/375
f 375/375/375 386/386/386 387/387/387
f 375/375/375 387/387/387 376/376/376
f 376/376/376 387/387/387 388/388/388
f 376/376/376 388/388/388 377/377/377
f 377/377/377 388/388/388 389/389/389
f 377/377/377 389/389/389 378/378/378
f 378/378/378 389/389/389 390/390/390
f 378/378/378 390/390/390 379/379/379
f 379/379/379 390/390/390 391/391/391
f 379/379/379 391/391/391 380/380/380
f 380/380/380 391/391/391 392/392/392
f 380/380/380 392/392/392 381/381/381
f 381/381/381 392/392/392 393/393/393
f 381/381/381 393/393/393 382/382/382
f 382/382/382 393/393/393 394/394/394
f 382/382/382 394/394/394 383/383/383
f 383/383/383 394/394/394 395/395/395
f 383/383/383 395/395/395 384/384/384
f 385/385/385 396/396/396 397/397/397
f 385/385/385 397/397/397 386/386/386
f 386/386/386 397/397/397 398/398/398
f 386/386/386 398/398/398 387/387/387
f 387/387/387 398/398/398 399/399/399
f 387/387/387 399/399/399 388/388/388
f 388/388/388 399/399/399 400/400/400
f 388/388/388 400/400/400 389/389/389
f 389/389/389 400/400/400 401/401/401
f 389/389/389 401/401/401 390/390/390
f 390/390/390 401/401/401 402/402/402
f 390/390/390 402/402/402 391/391/391
f 391/391/391 402/402/402 403/403/403
f 391/391/391 403/403/403 392/392/392
f 392/392/392 403/403/403 404/404/404
f 392/392/392 404/404/404 393/393/393
f 393/393/393 404/404/404 405/405/405
f 393/393/393 405/405/405 394/394/394
f 394/394/394 405/405/405 406/406/406
f 394/394/394 406/406/406 395/395/395
f 396/396/396 407/407/407 408/408/408
f 396/396/396 408/408/408 397/397/397
f 397/397/397 408/408/408 409/409/409
f 397/397/397 409/409/409 398/398/398
f 398/398/398 409/409/409 410/410/410
f 398/398/398 410/410/410 399/399/399
f 399/399/399 410/410/410 411/411/411
f 399/399/399 411/411/411 400/400/400
f 400/400/400 411/411/411 412/412/412
f 400/400/400 412/412/412 401/401/401
f 401/401/401 412/412/412 413/413/413
f 401/401/401 413/413/413 402/402/402
f 402/402/402 413/413/413 414/414/414
f 402/402/402 414/414/414 403/403/403
f 403/403/403 414/414/414 415/415/415
f 403/403/403 415/415/415 404/404/404
f 404/404/404 415/415/415 416/416/416
f 404/404/404 416/416/416 405/405/405
f 405/405/405 416/416/416 417/417/417
f 405/405/405 417/417/417 406/406/406
f 418/418/418 429/429/429 430/430/430
f 418/418/418 430/430/430 419/419/419
f 419/419/419 430/430/430 431/431/431
f 419/419/419 431/431/431 420/420/420
f 420/420/420 431/431/431 432/432/432
f 420/420/420 432/432/432 421/421/421
f 421/421/421 432/432/432 433/433/433
f 421/421/421 433/433/433 422/422/422
f 422/422/422 433/433/433 434/434/434
f 422/422/422 434/434/434 423/423/423
f 423/423/423 434/434/434 435/435/435
f 423/423/423 435/435/435 424/424/424
f 424/424/424 435/435/435 436/436/436
f 424/424/424 436/436/436 425/425/425
f 425/425/425 436/436/436 437/437/437
f 425/425/425 437/437/437 426/426/426
f 426/426/426 437/437/437 438/438/438
f 426/426/426 438/438/438 427/427/427
f 427/427/427 438/438/438 439/439/439
f 427/427/427 439/439/439 428/428/428
f 429/429/429 440/440/440 441/441/441
f 429/429/429 441/441/441 430/430/430
f 430/430/430 441/441/441 442/442/442
f 430/430/430 442/442/442 431/431/431
f 431/431/431 442/442/442 443/443/443
f 431/431/431 443/443/443 432/432/432
f 432/432/432 443/443/443 444/444/444
f 432/432/432 444/444/444 433/433/433
f 433/433/433 444/444/444 445/445/445
f 433/433/433 445/445/445 434/434/434
f 434/434/434 445/445/445 446/446/446
f 434/434/434 446/446/446 435/435/435
f 435/435/435 446/446/446 447/447/447
f 435/435/435 447/447/447 436/436/436
f 436/436/436 447/447/447 448/448/448
f 436/436/436 448/448/448 437/437/437
f 437/437/437 448/448/448 449/449/449
f 437/437/437 449/449/449 438/438/438
f 438/438/438 449/449/449 450/450/450
f 438/438/438 450/450/450 439/439/439
f 440/440/440 451/451/451 452/452/452
f 440/440/440 452/452/452 441/441/441
f 441/441/441 452/452/452 453/453/453
f 441/441/441 453/453/453 442/442/442
f 442/442/442 453/453/453 454/454/454
f 442/442/442 454/454/454 443/443/443
f 443/443/443 454/454/454 455/455/455
f 443/443/443 455/455/455 444/444/444
f 444/444/444 455/455/455 456/456/456
f 444/444/444 456/456/456 445/445/445
f 445/445/445 456/456/456 457/457/457
f 445/445/445 457/457/457 446/446/446
f 446/446/446 457/457/457 458/458/458
f 446/446/446 458/458/458 447/447/447
f 447/447/447 458/458/458 459/459/459
f 447/447/447 459/459/459 448/448/448
f 448/448/448 459/459/459 460/460/460
f 448/448/448 460/460/460 449/449/449
f 449/449/449 460/460/460 461/461/461
f 449/449/449 461/461/461 450/450/450
f 451/451/451 462/462/462 463/463/463
f 451/451/451 463/463/463 452/452/452
f 452/452/452 463/463/463 464/464/464
f 452/452/452 464/464/464 453/453/453
f 453/453/453 464/464/464 465/465/465
f 453/453/453 465/465/465 454/454/454
f 454/454/454 465/465/465 466/466/466
f 454/454/454 466/466/466 455/455/455
f 455/455/455 466/466/466 467/467/467
f 455/455/455 467/467/467 456/456/456
f 456/456/456 467/467/467 468/468/468
f 456/456/456 468/468/468 457/457/457
f 457/457/457 468/468/468 469/469/469
f 457/457/457 469/469/469 458/458/458
f 458/458/458 469/469/469 470/470/470
f 458/458/458 470/470/470 459/459/459
f 459/459/459 470/470/470 471/471/471
f 459/459/459 471/471/471 460/460/460
f 460/460/460 471/471/471 472/472/472
f 460/460/460 472/472/472 461/461/461
f 462/462/462 473/473/473 474/474/474
f 462/462/462 474/474/474 463/463/463
f 463/463/463 474/474/474 475/475/475
f 463/463/463 475/475/475 464/464/464
f 464/464/464 475/475/475 476/476/476
f 464/464/464 476/476/476 465/465/465
f 465/465/465 476/476/476 477/477/477
f 465/465/465 477/477/477 466/466/466
f 466/466/466 477/477/477 478/478/478
f 466/466/466 478/478/478 467/467/467
f 467/467/467 478/478/478 479/479/479
f 467/467/467 479/479/479 468/468/468
f 468/468/468 479/479/479 480/480/480
f 468/468/468 480/480/480 469/469/469
f 469/469/469 480/480/480 481/481/481
f 469/469/469 481/481/481 470/470/470
f 470/470/470 481/481/481 482/482/482
f 470/470/470 482/482/482 471/471/471
f 471/471/471 482/482/482 483/483/483
f 471/471/471 483/483/483 472/472/472
f 473/473/473 484/484/484 485/485/485
f 473/473/473 485/485/485 474/474/474
f 474/474/474 485/485/485 486/486/486
f 474/474/474 486/486/486 475/475/475
f 475/475/475 486/486/486 487/487/487
f 475/475/475 487/487/487 476/476/476
f 476/476/476 487/487/487 488/488/488
f 476/476/476 488/488/488 477/477/477
f 477/477/477 488/488/488 489/489/489
f 477/477/477 489/489/489 478/478/478
f 478/478/478 489/489/489 490/490/490
f 478/478/478 490/490/490 479/479/479
f 479/479/479 490/490/490 491/491/491
f 479/479/479 491/491/491 480/480/480
f 480/480/480 491/491/491 492/492/492
f 480/480/480 492/492/492 481/481/481
f 481/481/481 492/492/492 493/493/493
f 481/481/481 493/493/493 482/482/482
f 482/482/482 493/493/493 494/494/494
f 482/482/482 494/494/494 483/483/483
f 484/484/484 495/495/495 496/496/496
f 484/484/484 496/496/496 485/485/485
f 485/485/485 496/496/496 497/497/497
f 485/485/485 497/497/497 486/486/486
f 486/486/486 497/497/497 498/498/498
f 486/486/486 498/498/498 487/487/487
f 487/487/487 498/498/498 499/499/499
f 487/487/487 499/499/499 488/488/488
f 488/488/488 499/499/499 500/500/500
f 488/488/488 500/500/500 489/489/489
f 489/489/489 500/500/500 501/501/501
f 489/489/489 501/501/501 490/490/490
f 490/490/490 501/501/501 502/502/502
f 490/490/490 502/502/502 491/491/491
f 491/491/491 502/502/502 503/503/503
f 491/491/491 503/503/503 492/492/492
f 492/492/492 503/503/503 504/504/504
f 492/492/492 504/504/504 493/493/493
f 493/493/493 504/504/504 505/505/505
f 493/493/493 505/505/505 494/494/494
f 495/495/495 506/506/506 507/507/507
f 495/495/495 507/507/507 496/496/496
f 496/496/496 507/507/507 508/508/508
f 496/496/496 508/508/508 497/497/497
f 497/497/497 508/508/508 509/509/509
f 497/497/497 509/509/509 498/498/498
f 498/498/498 509/509/509 510/510/510
f 498/498/498 510/510/510 499/499/499
f 499/499/499 510/510/510 511/511/511
f 499/499/499 511/511/511 500/500/500
f 500/500/500 511/511/511 512/512/512
f 500/500/500 512/512/512 501/501/501
f 501/501/501 512/512/512 513/513/513
f 501/501/501 513/513/513 502/502/502
f 502/502/502 513/513/513 514/514/514
f 502/502/502 514/514/514 503/503/503
f 503/503/503 514/514/514 515/515/515
f 503/503/503 515/515/515 504/504/504
f 504/504/504 515/515/515 516/516/516
f 504/504/504 516/516/516 505/505/505
f 517/517/517 519/519/519 518/518/518
f 517/517/517 520/520/520 519/519/519
f 521/521/521 522/522/522 523/523/523
f 521/521/521 523/523/523 524/524/524
f 517/517/517 518/518/518 522/522/522
f 517/517/517 522/522/522 521/521/521
f 519/519/519 520/520/520 524/524/524
f 519/519/519 524/524/524 523/523/523
f 517/517/517 521/521/521 524/524/524
f 517/517/517 524/524/524 520/520/520
f 518/518/518 519/519/519 523/523/523
f 518/518/518 523/523/523 522/522/522
f 525/525/525 527/527/527 526/526/526
f 525/525/525 528/528/528 527/527/527
f 529/529/529 530/530/530 531/531/531
f 529/529/529 531/531/531 532/532/532
f 525/525/525 526/526/526 530/530/530
f 525/525/525 530/530/530 529/529/529
f 527/527/527 528/528/528 532/532/532
f 527/527/527 532/532/532 531/531/531
f 525/525/525 529/529/529 532/532/532
f 525/525/525 532/532/532 528/528/528
f 526/526/526 527/527/527 531/531/531
f 526/526/526 531/531/531 530/530/530
f 533/533/533 535/535/535 534/534/534
f 533/533/533 536/536/536 535/535/535
f 537/537/537 538/538/538 539/539/539
f 537/537/537 539/539/539 540/540/540
f 533/533/533 534/534/534 538/538/538
f 533/533/533 538/538/538 537/537/537
f 535/535/535 536/536/536 540/540/540
f 535/535/535 540/540/540 539/539/539
f 533/533/533 537/537/537 540/540/540
f 533/533/533 540/540/540 536/536/536
f 534/534/534 535/535/535 539/539/539
f 534/534/534 539/539/539 538/538/538
f 541/541/541 543/543/543 542/542/542
f 541/541/541 544/544/544 543/543/543
f 545/545/545 546/546/546 547/547/547
f 545/545/545 547/547/547 548/548/548
f 541/541/541 542/542/542 546/546/546
f 541/541/541 546/546/546 545/545/545
f 543/543/543 544/544/544 548/548/548
f 543/543/543 548/548/548 547/547/547
f 541/541/541 545/545/545 548/548/548
f 541/541/541 548/548/548 544/544/544
f 542/542/542 543/543/543 547/547/547
f 542/542/542 547/547/547 546/546/546
f 549/549/549 551/551/551 550/550/550
f 549/549/549 552/552/552 551/551/551
f 553/553/553 554/554/554 555/555/555
f 553/553/553 555/555/555 556/556/556
f 549/549/549 550/550/550 554/554/554
f 549/549/549 554/554/554 553/553/553
f 551/551/551 552/552/552 556/556/556
f 551/551/551 556/556/556 555/555/555
f 549/549/549 553/553/553 556/556/556
f 549/549/549 556/556/556 552/552/552
f 550/550/550 551/551/551 555/555/555
f 550/550/550 555/555/555 554/554/554