# 3D Model: vehicle/car/1716951305013100_1400_0~0 (v6 Gemini)
# Style: vehicle | Symmetry: symmetric
# Dimensions: 2.9 x 1.35 x 4.21 m
# Triangles: 684 | Vertices: 444
v -0.9 0.15 -2.1
v 0.9 0.15 -2.1
v 0.9 0.35 -2.1
v -0.9 0.35 -2.1
v -0.9 0.15 2.1
v 0.9 0.15 2.1
v 0.9 0.35 2.1
v -0.9 0.35 2.1
v -0.9 0.35 -2
v 0.9 0.35 -2
v 0.9 1.05 -2
v -0.9 1.05 -2
v -0.9 0.35 2
v 0.9 0.35 2
v 0.9 1.05 2
v -0.9 1.05 2
v -0.8 1 -1.3
v 0.8 1 -1.3
v 0.8 1.5 -1.3
v -0.8 1.5 -1.3
v -0.8 1 0.9
v 0.8 1 0.9
v 0.8 1.5 0.9
v -0.8 1.5 0.9
v -0.75 1.0583 0.7596
v 0.75 1.0583 0.7596
v 0.75 1.4635 0.9554
v -0.75 1.4635 0.9554
v -0.75 1.0365 0.8046
v 0.75 1.0365 0.8046
v 0.75 1.4417 1.0004
v -0.75 1.4417 1.0004
v -0.75 1.0365 -1.2046
v 0.75 1.0365 -1.2046
v 0.75 1.4417 -1.4004
v -0.75 1.4417 -1.4004
v -0.75 1.0583 -1.1596
v 0.75 1.0583 -1.1596
v 0.75 1.4635 -1.3554
v -0.75 1.4635 -1.3554
v -0.845 1.05 -0.3
v -0.795 1.05 -0.3
v -0.795 1.45 -0.3
v -0.845 1.45 -0.3
v -0.845 1.05 0.7
v -0.795 1.05 0.7
v -0.795 1.45 0.7
v -0.845 1.45 0.7
v 0.795 1.05 -0.3
v 0.845 1.05 -0.3
v 0.845 1.45 -0.3
v 0.795 1.45 -0.3
v 0.795 1.05 0.7
v 0.845 1.05 0.7
v 0.845 1.45 0.7
v 0.795 1.45 0.7
v -0.845 1.05 -1.2
v -0.795 1.05 -1.2
v -0.795 1.45 -1.2
v -0.845 1.45 -1.2
v -0.845 1.05 -0.4
v -0.795 1.05 -0.4
v -0.795 1.45 -0.4
v -0.845 1.45 -0.4
v 0.795 1.05 -1.2
v 0.845 1.05 -1.2
v 0.845 1.45 -1.2
v 0.795 1.45 -1.2
v 0.795 1.05 -0.4
v 0.845 1.05 -0.4
v 0.845 1.45 -0.4
v 0.795 1.45 -0.4
v -0.9 0.2 2
v 0.9 0.2 2
v 0.9 0.6 2
v -0.9 0.6 2
v -0.9 0.2 2.1
v 0.9 0.2 2.1
v 0.9 0.6 2.1
v -0.9 0.6 2.1
v -0.9 0.2 -2.1
v 0.9 0.2 -2.1
v 0.9 0.6 -2.1
v -0.9 0.6 -2.1
v -0.9 0.2 -2
v 0.9 0.2 -2
v 0.9 0.6 -2
v -0.9 0.6 -2
v -0.8 0.475 2.055
v -0.5 0.475 2.055
v -0.5 0.625 2.055
v -0.8 0.625 2.055
v -0.8 0.475 2.105
v -0.5 0.475 2.105
v -0.5 0.625 2.105
v -0.8 0.625 2.105
v 0.5 0.475 2.055
v 0.8 0.475 2.055
v 0.8 0.625 2.055
v 0.5 0.625 2.055
v 0.5 0.475 2.105
v 0.8 0.475 2.105
v 0.8 0.625 2.105
v 0.5 0.625 2.105
v -0.8 0.475 -2.105
v -0.5 0.475 -2.105
v -0.5 0.625 -2.105
v -0.8 0.625 -2.105
v -0.8 0.475 -2.055
v -0.5 0.475 -2.055
v -0.5 0.625 -2.055
v -0.8 0.625 -2.055
v 0.5 0.475 -2.105
v 0.8 0.475 -2.105
v 0.8 0.625 -2.105
v 0.5 0.625 -2.105
v 0.5 0.475 -2.055
v 0.8 0.475 -2.055
v 0.8 0.625 -2.055
v 0.5 0.625 -2.055
v -0.45 0.35 1.2
v -0.525 0.4799 1.2
v -0.675 0.4799 1.2
v -0.75 0.35 1.2
v -0.675 0.2201 1.2
v -0.525 0.2201 1.2
v -0.45 0.35 1.2
v -0.5455 0.35 1.4939
v -0.6062 0.4799 1.4498
v -0.7275 0.4799 1.3616
v -0.7882 0.35 1.3176
v -0.7275 0.2201 1.3616
v -0.6062 0.2201 1.4498
v -0.5455 0.35 1.4939
v -0.7955 0.35 1.6755
v -0.8187 0.4799 1.6042
v -0.865 0.4799 1.4615
v -0.8882 0.35 1.3902
v -0.865 0.2201 1.4615
v -0.8187 0.2201 1.6042
v -0.7955 0.35 1.6755
v -1.1045 0.35 1.6755
v -1.0813 0.4799 1.6042
v -1.035 0.4799 1.4615
v -1.0118 0.35 1.3902
v -1.035 0.2201 1.4615
v -1.0813 0.2201 1.6042
v -1.1045 0.35 1.6755
v -1.3545 0.35 1.4939
v -1.2938 0.4799 1.4498
v -1.1725 0.4799 1.3616
v -1.1118 0.35 1.3176
v -1.1725 0.2201 1.3616
v -1.2938 0.2201 1.4498
v -1.3545 0.35 1.4939
v -1.45 0.35 1.2
v -1.375 0.4799 1.2
v -1.225 0.4799 1.2
v -1.15 0.35 1.2
v -1.225 0.2201 1.2
v -1.375 0.2201 1.2
v -1.45 0.35 1.2
v -1.3545 0.35 0.9061
v -1.2938 0.4799 0.9502
v -1.1725 0.4799 1.0384
v -1.1118 0.35 1.0824
v -1.1725 0.2201 1.0384
v -1.2938 0.2201 0.9502
v -1.3545 0.35 0.9061
v -1.1045 0.35 0.7245
v -1.0813 0.4799 0.7958
v -1.035 0.4799 0.9385
v -1.0118 0.35 1.0098
v -1.035 0.2201 0.9385
v -1.0813 0.2201 0.7958
v -1.1045 0.35 0.7245
v -0.7955 0.35 0.7245
v -0.8187 0.4799 0.7958
v -0.865 0.4799 0.9385
v -0.8882 0.35 1.0098
v -0.865 0.2201 0.9385
v -0.8187 0.2201 0.7958
v -0.7955 0.35 0.7245
v -0.5455 0.35 0.9061
v -0.6062 0.4799 0.9502
v -0.7275 0.4799 1.0384
v -0.7882 0.35 1.0824
v -0.7275 0.2201 1.0384
v -0.6062 0.2201 0.9502
v -0.5455 0.35 0.9061
v -0.45 0.35 1.2
v -0.525 0.4799 1.2
v -0.675 0.4799 1.2
v -0.75 0.35 1.2
v -0.675 0.2201 1.2
v -0.525 0.2201 1.2
v -0.45 0.35 1.2
v 1.45 0.35 1.2
v 1.375 0.4799 1.2
v 1.225 0.4799 1.2
v 1.15 0.35 1.2
v 1.225 0.2201 1.2
v 1.375 0.2201 1.2
v 1.45 0.35 1.2
v 1.3545 0.35 1.4939
v 1.2938 0.4799 1.4498
v 1.1725 0.4799 1.3616
v 1.1118 0.35 1.3176
v 1.1725 0.2201 1.3616
v 1.2938 0.2201 1.4498
v 1.3545 0.35 1.4939
v 1.1045 0.35 1.6755
v 1.0813 0.4799 1.6042
v 1.035 0.4799 1.4615
v 1.0118 0.35 1.3902
v 1.035 0.2201 1.4615
v 1.0813 0.2201 1.6042
v 1.1045 0.35 1.6755
v 0.7955 0.35 1.6755
v 0.8187 0.4799 1.6042
v 0.865 0.4799 1.4615
v 0.8882 0.35 1.3902
v 0.865 0.2201 1.4615
v 0.8187 0.2201 1.6042
v 0.7955 0.35 1.6755
v 0.5455 0.35 1.4939
v 0.6062 0.4799 1.4498
v 0.7275 0.4799 1.3616
v 0.7882 0.35 1.3176
v 0.7275 0.2201 1.3616
v 0.6062 0.2201 1.4498
v 0.5455 0.35 1.4939
v 0.45 0.35 1.2
v 0.525 0.4799 1.2
v 0.675 0.4799 1.2
v 0.75 0.35 1.2
v 0.675 0.2201 1.2
v 0.525 0.2201 1.2
v 0.45 0.35 1.2
v 0.5455 0.35 0.9061
v 0.6062 0.4799 0.9502
v 0.7275 0.4799 1.0384
v 0.7882 0.35 1.0824
v 0.7275 0.2201 1.0384
v 0.6062 0.2201 0.9502
v 0.5455 0.35 0.9061
v 0.7955 0.35 0.7245
v 0.8187 0.4799 0.7958
v 0.865 0.4799 0.9385
v 0.8882 0.35 1.0098
v 0.865 0.2201 0.9385
v 0.8187 0.2201 0.7958
v 0.7955 0.35 0.7245
v 1.1045 0.35 0.7245
v 1.0813 0.4799 0.7958
v 1.035 0.4799 0.9385
v 1.0118 0.35 1.0098
v 1.035 0.2201 0.9385
v 1.0813 0.2201 0.7958
v 1.1045 0.35 0.7245
v 1.3545 0.35 0.9061
v 1.2938 0.4799 0.9502
v 1.1725 0.4799 1.0384
v 1.1118 0.35 1.0824
v 1.1725 0.2201 1.0384
v 1.2938 0.2201 0.9502
v 1.3545 0.35 0.9061
v 1.45 0.35 1.2
v 1.375 0.4799 1.2
v 1.225 0.4799 1.2
v 1.15 0.35 1.2
v 1.225 0.2201 1.2
v 1.375 0.2201 1.2
v 1.45 0.35 1.2
v -0.45 0.35 -1.2
v -0.525 0.4799 -1.2
v -0.675 0.4799 -1.2
v -0.75 0.35 -1.2
v -0.675 0.2201 -1.2
v -0.525 0.2201 -1.2
v -0.45 0.35 -1.2
v -0.5455 0.35 -0.9061
v -0.6062 0.4799 -0.9502
v -0.7275 0.4799 -1.0384
v -0.7882 0.35 -1.0824
v -0.7275 0.2201 -1.0384
v -0.6062 0.2201 -0.9502
v -0.5455 0.35 -0.9061
v -0.7955 0.35 -0.7245
v -0.8187 0.4799 -0.7958
v -0.865 0.4799 -0.9385
v -0.8882 0.35 -1.0098
v -0.865 0.2201 -0.9385
v -0.8187 0.2201 -0.7958
v -0.7955 0.35 -0.7245
v -1.1045 0.35 -0.7245
v -1.0813 0.4799 -0.7958
v -1.035 0.4799 -0.9385
v -1.0118 0.35 -1.0098
v -1.035 0.2201 -0.9385
v -1.0813 0.2201 -0.7958
v -1.1045 0.35 -0.7245
v -1.3545 0.35 -0.9061
v -1.2938 0.4799 -0.9502
v -1.1725 0.4799 -1.0384
v -1.1118 0.35 -1.0824
v -1.1725 0.2201 -1.0384
v -1.2938 0.2201 -0.9502
v -1.3545 0.35 -0.9061
v -1.45 0.35 -1.2
v -1.375 0.4799 -1.2
v -1.225 0.4799 -1.2
v -1.15 0.35 -1.2
v -1.225 0.2201 -1.2
v -1.375 0.2201 -1.2
v -1.45 0.35 -1.2
v -1.3545 0.35 -1.4939
v -1.2938 0.4799 -1.4498
v -1.1725 0.4799 -1.3616
v -1.1118 0.35 -1.3176
v -1.1725 0.2201 -1.3616
v -1.2938 0.2201 -1.4498
v -1.3545 0.35 -1.4939
v -1.1045 0.35 -1.6755
v -1.0813 0.4799 -1.6042
v -1.035 0.4799 -1.4615
v -1.0118 0.35 -1.3902
v -1.035 0.2201 -1.4615
v -1.0813 0.2201 -1.6042
v -1.1045 0.35 -1.6755
v -0.7955 0.35 -1.6755
v -0.8187 0.4799 -1.6042
v -0.865 0.4799 -1.4615
v -0.8882 0.35 -1.3902
v -0.865 0.2201 -1.4615
v -0.8187 0.2201 -1.6042
v -0.7955 0.35 -1.6755
v -0.5455 0.35 -1.4939
v -0.6062 0.4799 -1.4498
v -0.7275 0.4799 -1.3616
v -0.7882 0.35 -1.3176
v -0.7275 0.2201 -1.3616
v -0.6062 0.2201 -1.4498
v -0.5455 0.35 -1.4939
v -0.45 0.35 -1.2
v -0.525 0.4799 -1.2
v -0.675 0.4799 -1.2
v -0.75 0.35 -1.2
v -0.675 0.2201 -1.2
v -0.525 0.2201 -1.2
v -0.45 0.35 -1.2
v 1.45 0.35 -1.2
v 1.375 0.4799 -1.2
v 1.225 0.4799 -1.2
v 1.15 0.35 -1.2
v 1.225 0.2201 -1.2
v 1.375 0.2201 -1.2
v 1.45 0.35 -1.2
v 1.3545 0.35 -0.9061
v 1.2938 0.4799 -0.9502
v 1.1725 0.4799 -1.0384
v 1.1118 0.35 -1.0824
v 1.1725 0.2201 -1.0384
v 1.2938 0.2201 -0.9502
v 1.3545 0.35 -0.9061
v 1.1045 0.35 -0.7245
v 1.0813 0.4799 -0.7958
v 1.035 0.4799 -0.9385
v 1.0118 0.35 -1.0098
v 1.035 0.2201 -0.9385
v 1.0813 0.2201 -0.7958
v 1.1045 0.35 -0.7245
v 0.7955 0.35 -0.7245
v 0.8187 0.4799 -0.7958
v 0.865 0.4799 -0.9385
v 0.8882 0.35 -1.0098
v 0.865 0.2201 -0.9385
v 0.8187 0.2201 -0.7958
v 0.7955 0.35 -0.7245
v 0.5455 0.35 -0.9061
v 0.6062 0.4799 -0.9502
v 0.7275 0.4799 -1.0384
v 0.7882 0.35 -1.0824
v 0.7275 0.2201 -1.0384
v 0.6062 0.2201 -0.9502
v 0.5455 0.35 -0.9061
v 0.45 0.35 -1.2
v 0.525 0.4799 -1.2
v 0.675 0.4799 -1.2
v 0.75 0.35 -1.2
v 0.675 0.2201 -1.2
v 0.525 0.2201 -1.2
v 0.45 0.35 -1.2
v 0.5455 0.35 -1.4939
v 0.6062 0.4799 -1.4498
v 0.7275 0.4799 -1.3616
v 0.7882 0.35 -1.3176
v 0.7275 0.2201 -1.3616
v 0.6062 0.2201 -1.4498
v 0.5455 0.35 -1.4939
v 0.7955 0.35 -1.6755
v 0.8187 0.4799 -1.6042
v 0.865 0.4799 -1.4615
v 0.8882 0.35 -1.3902
v 0.865 0.2201 -1.4615
v 0.8187 0.2201 -1.6042
v 0.7955 0.35 -1.6755
v 1.1045 0.35 -1.6755
v 1.0813 0.4799 -1.6042
v 1.035 0.4799 -1.4615
v 1.0118 0.35 -1.3902
v 1.035 0.2201 -1.4615
v 1.0813 0.2201 -1.6042
v 1.1045 0.35 -1.6755
v 1.3545 0.35 -1.4939
v 1.2938 0.4799 -1.4498
v 1.1725 0.4799 -1.3616
v 1.1118 0.35 -1.3176
v 1.1725 0.2201 -1.3616
v 1.2938 0.2201 -1.4498
v 1.3545 0.35 -1.4939
v 1.45 0.35 -1.2
v 1.375 0.4799 -1.2
v 1.225 0.4799 -1.2
v 1.15 0.35 -1.2
v 1.225 0.2201 -1.2
v 1.375 0.2201 -1.2
v 1.45 0.35 -1.2
v -1 1.05 0.625
v -0.9 1.05 0.625
v -0.9 1.15 0.625
v -1 1.15 0.625
v -1 1.05 0.775
v -0.9 1.05 0.775
v -0.9 1.15 0.775
v -1 1.15 0.775
v 0.9 1.05 0.625
v 1 1.05 0.625
v 1 1.15 0.625
v 0.9 1.15 0.625
v 0.9 1.05 0.775
v 1 1.05 0.775
v 1 1.15 0.775
v 0.9 1.15 0.775
vt 0.5 0.5
vt 0.5 0.5
vt 0.5 0.5
vt 0.5 0.5
vt 0.5 0.5
vt 0.5 0.5
vt 0.5 0.5
vt 0.5 0.5
vt 0.5 0.5
vt 0.5 0.5
vt 0.5 0.5
vt 0.5 0.5
vt 0.5 0.5
vt 0.5 0.5
vt 0.5 0.5
vt 0.5 0.5
vt 0.5 0.5
vt 0.5 0.5
vt 0.5 0.5
vt 0.5 0.5
vt 0.5 0.5
vt 0.5 0.5
vt 0.5 0.5
vt 0.5 0.5
vt 0.5 0.5
vt 0.5 0.5
vt 0.5 0.5
vt 0.5 0.5
vt 0.5 0.5
vt 0.5 0.5
vt 0.5 0.5
vt 0.5 0.5
vt 0.5 0.5
vt 0.5 0.5
vt 0.5 0.5
vt 0.5 0.5
vt 0.5 0.5
vt 0.5 0.5
vt 0.5 0.5
vt 0.5 0.5
vt 0.5 0.5
vt 0.5 0.5
vt 0.5 0.5
vt 0.5 0.5
vt 0.5 0.5
vt 0.5 0.5
vt 0.5 0.5
vt 0.5 0.5
vt 0.5 0.5
vt 0.5 0.5
vt 0.5 0.5
vt 0.5 0.5
vt 0.5 0.5
vt 0.5 0.5
vt 0.5 0.5
vt 0.5 0.5
vt 0.5 0.5
vt 0.5 0.5
vt 0.5 0.5
vt 0.5 0.5
vt 0.5 0.5
vt 0.5 0.5
vt 0.5 0.5
vt 0.5 0.5
vt 0.5 0.5
vt 0.5 0.5
vt 0.5 0.5
vt 0.5 0.5
vt 0.5 0.5
vt 0.5 0.5
vt 0.5 0.5
vt 0.5 0.5
vt 0.5 0.5
vt 0.5 0.5
vt 0.5 0.5
vt 0.5 0.5
vt 0.5 0.5
vt 0.5 0.5
vt 0.5 0.5
vt 0.5 0.5
vt 0.5 0.5
vt 0.5 0.5
vt 0.5 0.5
vt 0.5 0.5
vt 0.5 0.5
vt 0.5 0.5
vt 0.5 0.5
vt 0.5 0.5
vt 0.5 0.5
vt 0.5 0.5
vt 0.5 0.5
vt 0.5 0.5
vt 0.5 0.5
vt 0.5 0.5
vt 0.5 0.5
vt 0.5 0.5
vt 0.5 0.5
vt 0.5 0.5
vt 0.5 0.5
vt 0.5 0.5
vt 0.5 0.5
vt 0.5 0.5
vt 0.5 0.5
vt 0.5 0.5
vt 0.5 0.5
vt 0.5 0.5
vt 0.5 0.5
vt 0.5 0.5
vt 0.5 0.5
vt 0.5 0.5
vt 0.5 0.5
vt 0.5 0.5
vt 0.5 0.5
vt 0.5 0.5
vt 0.5 0.5
vt 0.5 0.5
vt 0.5 0.5
vt 0.5 0.5
vt 0.5 0.5
vt 0.5 0.5
vt 0 0
vt 0 0.16666666666666666
vt 0 0.3333333333333333
vt 0 0.5
vt 0 0.6666666666666666
vt 0 0.8333333333333334
vt 0 1
vt 0.1 0
vt 0.1 0.16666666666666666
vt 0.1 0.3333333333333333
vt 0.1 0.5
vt 0.1 0.6666666666666666
vt 0.1 0.8333333333333334
vt 0.1 1
vt 0.2 0
vt 0.2 0.16666666666666666
vt 0.2 0.3333333333333333
vt 0.2 0.5
vt 0.2 0.6666666666666666
vt 0.2 0.8333333333333334
vt 0.2 1
vt 0.3 0
vt 0.3 0.16666666666666666
vt 0.3 0.3333333333333333
vt 0.3 0.5
vt 0.3 0.6666666666666666
vt 0.3 0.8333333333333334
vt 0.3 1
vt 0.4 0
vt 0.4 0.16666666666666666
vt 0.4 0.3333333333333333
vt 0.4 0.5
vt 0.4 0.6666666666666666
vt 0.4 0.8333333333333334
vt 0.4 1
vt 0.5 0
vt 0.5 0.16666666666666666
vt 0.5 0.3333333333333333
vt 0.5 0.5
vt 0.5 0.6666666666666666
vt 0.5 0.8333333333333334
vt 0.5 1
vt 0.6 0
vt 0.6 0.16666666666666666
vt 0.6 0.3333333333333333
vt 0.6 0.5
vt 0.6 0.6666666666666666
vt 0.6 0.8333333333333334
vt 0.6 1
vt 0.7 0
vt 0.7 0.16666666666666666
vt 0.7 0.3333333333333333
vt 0.7 0.5
vt 0.7 0.6666666666666666
vt 0.7 0.8333333333333334
vt 0.7 1
vt 0.8 0
vt 0.8 0.16666666666666666
vt 0.8 0.3333333333333333
vt 0.8 0.5
vt 0.8 0.6666666666666666
vt 0.8 0.8333333333333334
vt 0.8 1
vt 0.9 0
vt 0.9 0.16666666666666666
vt 0.9 0.3333333333333333
vt 0.9 0.5
vt 0.9 0.6666666666666666
vt 0.9 0.8333333333333334
vt 0.9 1
vt 1 0
vt 1 0.16666666666666666
vt 1 0.3333333333333333
vt 1 0.5
vt 1 0.6666666666666666
vt 1 0.8333333333333334
vt 1 1
vt 0 0
vt 0 0.16666666666666666
vt 0 0.3333333333333333
vt 0 0.5
vt 0 0.6666666666666666
vt 0 0.8333333333333334
vt 0 1
vt 0.1 0
vt 0.1 0.16666666666666666
vt 0.1 0.3333333333333333
vt 0.1 0.5
vt 0.1 0.6666666666666666
vt 0.1 0.8333333333333334
vt 0.1 1
vt 0.2 0
vt 0.2 0.16666666666666666
vt 0.2 0.3333333333333333
vt 0.2 0.5
vt 0.2 0.6666666666666666
vt 0.2 0.8333333333333334
vt 0.2 1
vt 0.3 0
vt 0.3 0.16666666666666666
vt 0.3 0.3333333333333333
vt 0.3 0.5
vt 0.3 0.6666666666666666
vt 0.3 0.8333333333333334
vt 0.3 1
vt 0.4 0
vt 0.4 0.16666666666666666
vt 0.4 0.3333333333333333
vt 0.4 0.5
vt 0.4 0.6666666666666666
vt 0.4 0.8333333333333334
vt 0.4 1
vt 0.5 0
vt 0.5 0.16666666666666666
vt 0.5 0.3333333333333333
vt 0.5 0.5
vt 0.5 0.6666666666666666
vt 0.5 0.8333333333333334
vt 0.5 1
vt 0.6 0
vt 0.6 0.16666666666666666
vt 0.6 0.3333333333333333
vt 0.6 0.5
vt 0.6 0.6666666666666666
vt 0.6 0.8333333333333334
vt 0.6 1
vt 0.7 0
vt 0.7 0.16666666666666666
vt 0.7 0.3333333333333333
vt 0.7 0.5
vt 0.7 0.6666666666666666
vt 0.7 0.8333333333333334
vt 0.7 1
vt 0.8 0
vt 0.8 0.16666666666666666
vt 0.8 0.3333333333333333
vt 0.8 0.5
vt 0.8 0.6666666666666666
vt 0.8 0.8333333333333334
vt 0.8 1
vt 0.9 0
vt 0.9 0.16666666666666666
vt 0.9 0.3333333333333333
vt 0.9 0.5
vt 0.9 0.6666666666666666
vt 0.9 0.8333333333333334
vt 0.9 1
vt 1 0
vt 1 0.16666666666666666
vt 1 0.3333333333333333
vt 1 0.5
vt 1 0.6666666666666666
vt 1 0.8333333333333334
vt 1 1
vt 0 0
vt 0 0.16666666666666666
vt 0 0.3333333333333333
vt 0 0.5
vt 0 0.6666666666666666
vt 0 0.8333333333333334
vt 0 1
vt 0.1 0
vt 0.1 0.16666666666666666
vt 0.1 0.3333333333333333
vt 0.1 0.5
vt 0.1 0.6666666666666666
vt 0.1 0.8333333333333334
vt 0.1 1
vt 0.2 0
vt 0.2 0.16666666666666666
vt 0.2 0.3333333333333333
vt 0.2 0.5
vt 0.2 0.6666666666666666
vt 0.2 0.8333333333333334
vt 0.2 1
vt 0.3 0
vt 0.3 0.16666666666666666
vt 0.3 0.3333333333333333
vt 0.3 0.5
vt 0.3 0.6666666666666666
vt 0.3 0.8333333333333334
vt 0.3 1
vt 0.4 0
vt 0.4 0.16666666666666666
vt 0.4 0.3333333333333333
vt 0.4 0.5
vt 0.4 0.6666666666666666
vt 0.4 0.8333333333333334
vt 0.4 1
vt 0.5 0
vt 0.5 0.16666666666666666
vt 0.5 0.3333333333333333
vt 0.5 0.5
vt 0.5 0.6666666666666666
vt 0.5 0.8333333333333334
vt 0.5 1
vt 0.6 0
vt 0.6 0.16666666666666666
vt 0.6 0.3333333333333333
vt 0.6 0.5
vt 0.6 0.6666666666666666
vt 0.6 0.8333333333333334
vt 0.6 1
vt 0.7 0
vt 0.7 0.16666666666666666
vt 0.7 0.3333333333333333
vt 0.7 0.5
vt 0.7 0.6666666666666666
vt 0.7 0.8333333333333334
vt 0.7 1
vt 0.8 0
vt 0.8 0.16666666666666666
vt 0.8 0.3333333333333333
vt 0.8 0.5
vt 0.8 0.6666666666666666
vt 0.8 0.8333333333333334
vt 0.8 1
vt 0.9 0
vt 0.9 0.16666666666666666
vt 0.9 0.3333333333333333
vt 0.9 0.5
vt 0.9 0.6666666666666666
vt 0.9 0.8333333333333334
vt 0.9 1
vt 1 0
vt 1 0.16666666666666666
vt 1 0.3333333333333333
vt 1 0.5
vt 1 0.6666666666666666
vt 1 0.8333333333333334
vt 1 1
vt 0 0
vt 0 0.16666666666666666
vt 0 0.3333333333333333
vt 0 0.5
vt 0 0.6666666666666666
vt 0 0.8333333333333334
vt 0 1
vt 0.1 0
vt 0.1 0.16666666666666666
vt 0.1 0.3333333333333333
vt 0.1 0.5
vt 0.1 0.6666666666666666
vt 0.1 0.8333333333333334
vt 0.1 1
vt 0.2 0
vt 0.2 0.16666666666666666
vt 0.2 0.3333333333333333
vt 0.2 0.5
vt 0.2 0.6666666666666666
vt 0.2 0.8333333333333334
vt 0.2 1
vt 0.3 0
vt 0.3 0.16666666666666666
vt 0.3 0.3333333333333333
vt 0.3 0.5
vt 0.3 0.6666666666666666
vt 0.3 0.8333333333333334
vt 0.3 1
vt 0.4 0
vt 0.4 0.16666666666666666
vt 0.4 0.3333333333333333
vt 0.4 0.5
vt 0.4 0.6666666666666666
vt 0.4 0.8333333333333334
vt 0.4 1
vt 0.5 0
vt 0.5 0.16666666666666666
vt 0.5 0.3333333333333333
vt 0.5 0.5
vt 0.5 0.6666666666666666
vt 0.5 0.8333333333333334
vt 0.5 1
vt 0.6 0
vt 0.6 0.16666666666666666
vt 0.6 0.3333333333333333
vt 0.6 0.5
vt 0.6 0.6666666666666666
vt 0.6 0.8333333333333334
vt 0.6 1
vt 0.7 0
vt 0.7 0.16666666666666666
vt 0.7 0.3333333333333333
vt 0.7 0.5
vt 0.7 0.6666666666666666
vt 0.7 0.8333333333333334
vt 0.7 1
vt 0.8 0
vt 0.8 0.16666666666666666
vt 0.8 0.3333333333333333
vt 0.8 0.5
vt 0.8 0.6666666666666666
vt 0.8 0.8333333333333334
vt 0.8 1
vt 0.9 0
vt 0.9 0.16666666666666666
vt 0.9 0.3333333333333333
vt 0.9 0.5
vt 0.9 0.6666666666666666
vt 0.9 0.8333333333333334
vt 0.9 1
vt 1 0
vt 1 0.16666666666666666
vt 1 0.3333333333333333
vt 1 0.5
vt 1 0.6666666666666666
vt 1 0.8333333333333334
vt 1 1
vt 0.5 0.5
vt 0.5 0.5
vt 0.5 0.5
vt 0.5 0.5
vt 0.5 0.5
vt 0.5 0.5
vt 0.5 0.5
vt 0.5 0.5
vt 0.5 0.5
vt 0.5 0.5
vt 0.5 0.5
vt 0.5 0.5
vt 0.5 0.5
vt 0.5 0.5
vt 0.5 0.5
vt 0.5 0.5
vn 0 1 0
vn 0 1 0
vn 0 1 0
vn 0 1 0
vn 0 1 0
vn 0 1 0
vn 0 1 0
vn 0 1 0
vn 0 1 0
vn 0 1 0
vn 0 1 0
vn 0 1 0
vn 0 1 0
vn 0 1 0
vn 0 1 0
vn 0 1 0
vn 0 1 0
vn 0 1 0
vn 0 1 0
vn 0 1 0
vn 0 1 0
vn 0 1 0
vn 0 1 0
vn 0 1 0
vn 0 1 0
vn 0 1 0
vn 0 1 0
vn 0 1 0
vn 0 1 0
vn 0 1 0
vn 0 1 0
vn 0 1 0
vn 0 1 0
vn 0 1 0
vn 0 1 0
vn 0 1 0
vn 0 1 0
vn 0 1 0
vn 0 1 0
vn 0 1 0
vn 0 1 0
vn 0 1 0
vn 0 1 0
vn 0 1 0
vn 0 1 0
vn 0 1 0
vn 0 1 0
vn 0 1 0
vn 0 1 0
vn 0 1 0
vn 0 1 0
vn 0 1 0
vn 0 1 0
vn 0 1 0
vn 0 1 0
vn 0 1 0
vn 0 1 0
vn 0 1 0
vn 0 1 0
vn 0 1 0
vn 0 1 0
vn 0 1 0
vn 0 1 0
vn 0 1 0
vn 0 1 0
vn 0 1 0
vn 0 1 0
vn 0 1 0
vn 0 1 0
vn 0 1 0
vn 0 1 0
vn 0 1 0
vn 0 1 0
vn 0 1 0
vn 0 1 0
vn 0 1 0
vn 0 1 0
vn 0 1 0
vn 0 1 0
vn 0 1 0
vn 0 1 0
vn 0 1 0
vn 0 1 0
vn 0 1 0
vn 0 1 0
vn 0 1 0
vn 0 1 0
vn 0 1 0
vn 0 1 0
vn 0 1 0
vn 0 1 0
vn 0 1 0
vn 0 1 0
vn 0 1 0
vn 0 1 0
vn 0 1 0
vn 0 1 0
vn 0 1 0
vn 0 1 0
vn 0 1 0
vn 0 1 0
vn 0 1 0
vn 0 1 0
vn 0 1 0
vn 0 1 0
vn 0 1 0
vn 0 1 0
vn 0 1 0
vn 0 1 0
vn 0 1 0
vn 0 1 0
vn 0 1 0
vn 0 1 0
vn 0 1 0
vn 0 1 0
vn 0 1 0
vn 0 1 0
vn 0 1 0
vn 0 1 0
vn 0 1 0
vn 1 0 0
vn 0.5000000000000001 0.8660254037844386 0
vn -0.4999999999999998 0.8660254037844387 0
vn -1 1.2246467991473532e-16 0
vn -0.5000000000000004 -0.8660254037844385 0
vn 0.5000000000000001 -0.8660254037844386 0
vn 1 -2.4492935982947064e-16 0
vn 0.8090169943749475 0 0.5877852522924731
vn 0.40450849718747384 0.8660254037844386 0.2938926261462366
vn -0.40450849718747356 0.8660254037844387 -0.29389262614623646
vn -0.8090169943749475 1.2246467991473532e-16 -0.5877852522924731
vn -0.40450849718747406 -0.8660254037844385 -0.29389262614623685
vn 0.40450849718747384 -0.8660254037844386 0.2938926261462366
vn 0.8090169943749475 -2.4492935982947064e-16 0.5877852522924731
vn 0.30901699437494745 0 0.9510565162951535
vn 0.15450849718747375 0.8660254037844386 0.4755282581475769
vn -0.15450849718747367 0.8660254037844387 -0.47552825814757654
vn -0.30901699437494745 1.2246467991473532e-16 -0.9510565162951535
vn -0.15450849718747386 -0.8660254037844385 -0.4755282581475772
vn 0.15450849718747375 -0.8660254037844386 0.4755282581475769
vn 0.30901699437494745 -2.4492935982947064e-16 0.9510565162951535
vn -0.30901699437494734 0 0.9510565162951536
vn -0.1545084971874737 0.8660254037844386 0.47552825814757693
vn 0.15450849718747361 0.8660254037844387 -0.4755282581475766
vn 0.30901699437494734 1.2246467991473532e-16 -0.9510565162951536
vn 0.1545084971874738 -0.8660254037844385 -0.47552825814757727
vn -0.1545084971874737 -0.8660254037844386 0.47552825814757693
vn -0.30901699437494734 -2.4492935982947064e-16 0.9510565162951536
vn -0.8090169943749473 0 0.5877852522924732
vn -0.4045084971874738 0.8660254037844386 0.2938926261462367
vn 0.4045084971874735 0.8660254037844387 -0.2938926261462365
vn 0.8090169943749473 1.2246467991473532e-16 -0.5877852522924732
vn 0.404508497187474 -0.8660254037844385 -0.2938926261462369
vn -0.4045084971874738 -0.8660254037844386 0.2938926261462367
vn -0.8090169943749473 -2.4492935982947064e-16 0.5877852522924732
vn -1 0 1.2246467991473532e-16
vn -0.5000000000000001 0.8660254037844386 6.123233995736767e-17
vn 0.4999999999999998 0.8660254037844387 -6.123233995736764e-17
vn 1 1.2246467991473532e-16 -1.2246467991473532e-16
vn 0.5000000000000004 -0.8660254037844385 -6.123233995736771e-17
vn -0.5000000000000001 -0.8660254037844386 6.123233995736767e-17
vn -1 -2.4492935982947064e-16 1.2246467991473532e-16
vn -0.8090169943749475 0 -0.587785252292473
vn -0.40450849718747384 0.8660254037844386 -0.29389262614623657
vn 0.40450849718747356 0.8660254037844387 0.2938926261462364
vn 0.8090169943749475 1.2246467991473532e-16 0.587785252292473
vn 0.40450849718747406 -0.8660254037844385 0.2938926261462368
vn -0.40450849718747384 -0.8660254037844386 -0.29389262614623657
vn -0.8090169943749475 -2.4492935982947064e-16 -0.587785252292473
vn -0.30901699437494756 0 -0.9510565162951535
vn -0.1545084971874738 0.8660254037844386 -0.4755282581475769
vn 0.15450849718747373 0.8660254037844387 0.47552825814757654
vn 0.30901699437494756 1.2246467991473532e-16 0.9510565162951535
vn 0.15450849718747392 -0.8660254037844385 0.4755282581475772
vn -0.1545084971874738 -0.8660254037844386 -0.4755282581475769
vn -0.30901699437494756 -2.4492935982947064e-16 -0.9510565162951535
vn 0.30901699437494723 0 -0.9510565162951536
vn 0.15450849718747364 0.8660254037844386 -0.47552825814757693
vn -0.15450849718747356 0.8660254037844387 0.4755282581475766
vn -0.30901699437494723 1.2246467991473532e-16 0.9510565162951536
vn -0.15450849718747375 -0.8660254037844385 0.47552825814757727
vn 0.15450849718747364 -0.8660254037844386 -0.47552825814757693
vn 0.30901699437494723 -2.4492935982947064e-16 -0.9510565162951536
vn 0.8090169943749473 0 -0.5877852522924734
vn 0.4045084971874738 0.8660254037844386 -0.29389262614623674
vn -0.4045084971874735 0.8660254037844387 0.29389262614623657
vn -0.8090169943749473 1.2246467991473532e-16 0.5877852522924734
vn -0.404508497187474 -0.8660254037844385 0.29389262614623696
vn 0.4045084971874738 -0.8660254037844386 -0.29389262614623674
vn 0.8090169943749473 -2.4492935982947064e-16 -0.5877852522924734
vn 1 0 -2.4492935982947064e-16
vn 0.5000000000000001 0.8660254037844386 -1.2246467991473535e-16
vn -0.4999999999999998 0.8660254037844387 1.2246467991473527e-16
vn -1 1.2246467991473532e-16 2.4492935982947064e-16
vn -0.5000000000000004 -0.8660254037844385 1.2246467991473542e-16
vn 0.5000000000000001 -0.8660254037844386 -1.2246467991473535e-16
vn 1 -2.4492935982947064e-16 -2.4492935982947064e-16
vn 1 0 0
vn 0.5000000000000001 0.8660254037844386 0
vn -0.4999999999999998 0.8660254037844387 0
vn -1 1.2246467991473532e-16 0
vn -0.5000000000000004 -0.8660254037844385 0
vn 0.5000000000000001 -0.8660254037844386 0
vn 1 -2.4492935982947064e-16 0
vn 0.8090169943749475 0 0.5877852522924731
vn 0.40450849718747384 0.8660254037844386 0.2938926261462366
vn -0.40450849718747356 0.8660254037844387 -0.29389262614623646
vn -0.8090169943749475 1.2246467991473532e-16 -0.5877852522924731
vn -0.40450849718747406 -0.8660254037844385 -0.29389262614623685
vn 0.40450849718747384 -0.8660254037844386 0.2938926261462366
vn 0.8090169943749475 -2.4492935982947064e-16 0.5877852522924731
vn 0.30901699437494745 0 0.9510565162951535
vn 0.15450849718747375 0.8660254037844386 0.4755282581475769
vn -0.15450849718747367 0.8660254037844387 -0.47552825814757654
vn -0.30901699437494745 1.2246467991473532e-16 -0.9510565162951535
vn -0.15450849718747386 -0.8660254037844385 -0.4755282581475772
vn 0.15450849718747375 -0.8660254037844386 0.4755282581475769
vn 0.30901699437494745 -2.4492935982947064e-16 0.9510565162951535
vn -0.30901699437494734 0 0.9510565162951536
vn -0.1545084971874737 0.8660254037844386 0.47552825814757693
vn 0.15450849718747361 0.8660254037844387 -0.4755282581475766
vn 0.30901699437494734 1.2246467991473532e-16 -0.9510565162951536
vn 0.1545084971874738 -0.8660254037844385 -0.47552825814757727
vn -0.1545084971874737 -0.8660254037844386 0.47552825814757693
vn -0.30901699437494734 -2.4492935982947064e-16 0.9510565162951536
vn -0.8090169943749473 0 0.5877852522924732
vn -0.4045084971874738 0.8660254037844386 0.2938926261462367
vn 0.4045084971874735 0.8660254037844387 -0.2938926261462365
vn 0.8090169943749473 1.2246467991473532e-16 -0.5877852522924732
vn 0.404508497187474 -0.8660254037844385 -0.2938926261462369
vn -0.4045084971874738 -0.8660254037844386 0.2938926261462367
vn -0.8090169943749473 -2.4492935982947064e-16 0.5877852522924732
vn -1 0 1.2246467991473532e-16
vn -0.5000000000000001 0.8660254037844386 6.123233995736767e-17
vn 0.4999999999999998 0.8660254037844387 -6.123233995736764e-17
vn 1 1.2246467991473532e-16 -1.2246467991473532e-16
vn 0.5000000000000004 -0.8660254037844385 -6.123233995736771e-17
vn -0.5000000000000001 -0.8660254037844386 6.123233995736767e-17
vn -1 -2.4492935982947064e-16 1.2246467991473532e-16
vn -0.8090169943749475 0 -0.587785252292473
vn -0.40450849718747384 0.8660254037844386 -0.29389262614623657
vn 0.40450849718747356 0.8660254037844387 0.2938926261462364
vn 0.8090169943749475 1.2246467991473532e-16 0.587785252292473
vn 0.40450849718747406 -0.8660254037844385 0.2938926261462368
vn -0.40450849718747384 -0.8660254037844386 -0.29389262614623657
vn -0.8090169943749475 -2.4492935982947064e-16 -0.587785252292473
vn -0.30901699437494756 0 -0.9510565162951535
vn -0.1545084971874738 0.8660254037844386 -0.4755282581475769
vn 0.15450849718747373 0.8660254037844387 0.47552825814757654
vn 0.30901699437494756 1.2246467991473532e-16 0.9510565162951535
vn 0.15450849718747392 -0.8660254037844385 0.4755282581475772
vn -0.1545084971874738 -0.8660254037844386 -0.4755282581475769
vn -0.30901699437494756 -2.4492935982947064e-16 -0.9510565162951535
vn 0.30901699437494723 0 -0.9510565162951536
vn 0.15450849718747364 0.8660254037844386 -0.47552825814757693
vn -0.15450849718747356 0.8660254037844387 0.4755282581475766
vn -0.30901699437494723 1.2246467991473532e-16 0.9510565162951536
vn -0.15450849718747375 -0.8660254037844385 0.47552825814757727
vn 0.15450849718747364 -0.8660254037844386 -0.47552825814757693
vn 0.30901699437494723 -2.4492935982947064e-16 -0.9510565162951536
vn 0.8090169943749473 0 -0.5877852522924734
vn 0.4045084971874738 0.8660254037844386 -0.29389262614623674
vn -0.4045084971874735 0.8660254037844387 0.29389262614623657
vn -0.8090169943749473 1.2246467991473532e-16 0.5877852522924734
vn -0.404508497187474 -0.8660254037844385 0.29389262614623696
vn 0.4045084971874738 -0.8660254037844386 -0.29389262614623674
vn 0.8090169943749473 -2.4492935982947064e-16 -0.5877852522924734
vn 1 0 -2.4492935982947064e-16
vn 0.5000000000000001 0.8660254037844386 -1.2246467991473535e-16
vn -0.4999999999999998 0.8660254037844387 1.2246467991473527e-16
vn -1 1.2246467991473532e-16 2.4492935982947064e-16
vn -0.5000000000000004 -0.8660254037844385 1.2246467991473542e-16
vn 0.5000000000000001 -0.8660254037844386 -1.2246467991473535e-16
vn 1 -2.4492935982947064e-16 -2.4492935982947064e-16
vn 1 0 0
vn 0.5000000000000001 0.8660254037844386 0
vn -0.4999999999999998 0.8660254037844387 0
vn -1 1.2246467991473532e-16 0
vn -0.5000000000000004 -0.8660254037844385 0
vn 0.5000000000000001 -0.8660254037844386 0
vn 1 -2.4492935982947064e-16 0
vn 0.8090169943749475 0 0.5877852522924731
vn 0.40450849718747384 0.8660254037844386 0.2938926261462366
vn -0.40450849718747356 0.8660254037844387 -0.29389262614623646
vn -0.8090169943749475 1.2246467991473532e-16 -0.5877852522924731
vn -0.40450849718747406 -0.8660254037844385 -0.29389262614623685
vn 0.40450849718747384 -0.8660254037844386 0.2938926261462366
vn 0.8090169943749475 -2.4492935982947064e-16 0.5877852522924731
vn 0.30901699437494745 0 0.9510565162951535
vn 0.15450849718747375 0.8660254037844386 0.4755282581475769
vn -0.15450849718747367 0.8660254037844387 -0.47552825814757654
vn -0.30901699437494745 1.2246467991473532e-16 -0.9510565162951535
vn -0.15450849718747386 -0.8660254037844385 -0.4755282581475772
vn 0.15450849718747375 -0.8660254037844386 0.4755282581475769
vn 0.30901699437494745 -2.4492935982947064e-16 0.9510565162951535
vn -0.30901699437494734 0 0.9510565162951536
vn -0.1545084971874737 0.8660254037844386 0.47552825814757693
vn 0.15450849718747361 0.8660254037844387 -0.4755282581475766
vn 0.30901699437494734 1.2246467991473532e-16 -0.9510565162951536
vn 0.1545084971874738 -0.8660254037844385 -0.47552825814757727
vn -0.1545084971874737 -0.8660254037844386 0.47552825814757693
vn -0.30901699437494734 -2.4492935982947064e-16 0.9510565162951536
vn -0.8090169943749473 0 0.5877852522924732
vn -0.4045084971874738 0.8660254037844386 0.2938926261462367
vn 0.4045084971874735 0.8660254037844387 -0.2938926261462365
vn 0.8090169943749473 1.2246467991473532e-16 -0.5877852522924732
vn 0.404508497187474 -0.8660254037844385 -0.2938926261462369
vn -0.4045084971874738 -0.8660254037844386 0.2938926261462367
vn -0.8090169943749473 -2.4492935982947064e-16 0.5877852522924732
vn -1 0 1.2246467991473532e-16
vn -0.5000000000000001 0.8660254037844386 6.123233995736767e-17
vn 0.4999999999999998 0.8660254037844387 -6.123233995736764e-17
vn 1 1.2246467991473532e-16 -1.2246467991473532e-16
vn 0.5000000000000004 -0.8660254037844385 -6.123233995736771e-17
vn -0.5000000000000001 -0.8660254037844386 6.123233995736767e-17
vn -1 -2.4492935982947064e-16 1.2246467991473532e-16
vn -0.8090169943749475 0 -0.587785252292473
vn -0.40450849718747384 0.8660254037844386 -0.29389262614623657
vn 0.40450849718747356 0.8660254037844387 0.2938926261462364
vn 0.8090169943749475 1.2246467991473532e-16 0.587785252292473
vn 0.40450849718747406 -0.8660254037844385 0.2938926261462368
vn -0.40450849718747384 -0.8660254037844386 -0.29389262614623657
vn -0.8090169943749475 -2.4492935982947064e-16 -0.587785252292473
vn -0.30901699437494756 0 -0.9510565162951535
vn -0.1545084971874738 0.8660254037844386 -0.4755282581475769
vn 0.15450849718747373 0.8660254037844387 0.47552825814757654
vn 0.30901699437494756 1.2246467991473532e-16 0.9510565162951535
vn 0.15450849718747392 -0.8660254037844385 0.4755282581475772
vn -0.1545084971874738 -0.8660254037844386 -0.4755282581475769
vn -0.30901699437494756 -2.4492935982947064e-16 -0.9510565162951535
vn 0.30901699437494723 0 -0.9510565162951536
vn 0.15450849718747364 0.8660254037844386 -0.47552825814757693
vn -0.15450849718747356 0.8660254037844387 0.4755282581475766
vn -0.30901699437494723 1.2246467991473532e-16 0.9510565162951536
vn -0.15450849718747375 -0.8660254037844385 0.47552825814757727
vn 0.15450849718747364 -0.8660254037844386 -0.47552825814757693
vn 0.30901699437494723 -2.4492935982947064e-16 -0.9510565162951536
vn 0.8090169943749473 0 -0.5877852522924734
vn 0.4045084971874738 0.8660254037844386 -0.29389262614623674
vn -0.4045084971874735 0.8660254037844387 0.29389262614623657
vn -0.8090169943749473 1.2246467991473532e-16 0.5877852522924734
vn -0.404508497187474 -0.8660254037844385 0.29389262614623696
vn 0.4045084971874738 -0.8660254037844386 -0.29389262614623674
vn 0.8090169943749473 -2.4492935982947064e-16 -0.5877852522924734
vn 1 0 -2.4492935982947064e-16
vn 0.5000000000000001 0.8660254037844386 -1.2246467991473535e-16
vn -0.4999999999999998 0.8660254037844387 1.2246467991473527e-16
vn -1 1.2246467991473532e-16 2.4492935982947064e-16
vn -0.5000000000000004 -0.8660254037844385 1.2246467991473542e-16
vn 0.5000000000000001 -0.8660254037844386 -1.2246467991473535e-16
vn 1 -2.4492935982947064e-16 -2.4492935982947064e-16
vn 1 0 0
vn 0.5000000000000001 0.8660254037844386 0
vn -0.4999999999999998 0.8660254037844387 0
vn -1 1.2246467991473532e-16 0
vn -0.5000000000000004 -0.8660254037844385 0
vn 0.5000000000000001 -0.8660254037844386 0
vn 1 -2.4492935982947064e-16 0
vn 0.8090169943749475 0 0.5877852522924731
vn 0.40450849718747384 0.8660254037844386 0.2938926261462366
vn -0.40450849718747356 0.8660254037844387 -0.29389262614623646
vn -0.8090169943749475 1.2246467991473532e-16 -0.5877852522924731
vn -0.40450849718747406 -0.8660254037844385 -0.29389262614623685
vn 0.40450849718747384 -0.8660254037844386 0.2938926261462366
vn 0.8090169943749475 -2.4492935982947064e-16 0.5877852522924731
vn 0.30901699437494745 0 0.9510565162951535
vn 0.15450849718747375 0.8660254037844386 0.4755282581475769
vn -0.15450849718747367 0.8660254037844387 -0.47552825814757654
vn -0.30901699437494745 1.2246467991473532e-16 -0.9510565162951535
vn -0.15450849718747386 -0.8660254037844385 -0.4755282581475772
vn 0.15450849718747375 -0.8660254037844386 0.4755282581475769
vn 0.30901699437494745 -2.4492935982947064e-16 0.9510565162951535
vn -0.30901699437494734 0 0.9510565162951536
vn -0.1545084971874737 0.8660254037844386 0.47552825814757693
vn 0.15450849718747361 0.8660254037844387 -0.4755282581475766
vn 0.30901699437494734 1.2246467991473532e-16 -0.9510565162951536
vn 0.1545084971874738 -0.8660254037844385 -0.47552825814757727
vn -0.1545084971874737 -0.8660254037844386 0.47552825814757693
vn -0.30901699437494734 -2.4492935982947064e-16 0.9510565162951536
vn -0.8090169943749473 0 0.5877852522924732
vn -0.4045084971874738 0.8660254037844386 0.2938926261462367
vn 0.4045084971874735 0.8660254037844387 -0.2938926261462365
vn 0.8090169943749473 1.2246467991473532e-16 -0.5877852522924732
vn 0.404508497187474 -0.8660254037844385 -0.2938926261462369
vn -0.4045084971874738 -0.8660254037844386 0.2938926261462367
vn -0.8090169943749473 -2.4492935982947064e-16 0.5877852522924732
vn -1 0 1.2246467991473532e-16
vn -0.5000000000000001 0.8660254037844386 6.123233995736767e-17
vn 0.4999999999999998 0.8660254037844387 -6.123233995736764e-17
vn 1 1.2246467991473532e-16 -1.2246467991473532e-16
vn 0.5000000000000004 -0.8660254037844385 -6.123233995736771e-17
vn -0.5000000000000001 -0.8660254037844386 6.123233995736767e-17
vn -1 -2.4492935982947064e-16 1.2246467991473532e-16
vn -0.8090169943749475 0 -0.587785252292473
vn -0.40450849718747384 0.8660254037844386 -0.29389262614623657
vn 0.40450849718747356 0.8660254037844387 0.2938926261462364
vn 0.8090169943749475 1.2246467991473532e-16 0.587785252292473
vn 0.40450849718747406 -0.8660254037844385 0.2938926261462368
vn -0.40450849718747384 -0.8660254037844386 -0.29389262614623657
vn -0.8090169943749475 -2.4492935982947064e-16 -0.587785252292473
vn -0.30901699437494756 0 -0.9510565162951535
vn -0.1545084971874738 0.8660254037844386 -0.4755282581475769
vn 0.15450849718747373 0.8660254037844387 0.47552825814757654
vn 0.30901699437494756 1.2246467991473532e-16 0.9510565162951535
vn 0.15450849718747392 -0.8660254037844385 0.4755282581475772
vn -0.1545084971874738 -0.8660254037844386 -0.4755282581475769
vn -0.30901699437494756 -2.4492935982947064e-16 -0.9510565162951535
vn 0.30901699437494723 0 -0.9510565162951536
vn 0.15450849718747364 0.8660254037844386 -0.47552825814757693
vn -0.15450849718747356 0.8660254037844387 0.4755282581475766
vn -0.30901699437494723 1.2246467991473532e-16 0.9510565162951536
vn -0.15450849718747375 -0.8660254037844385 0.47552825814757727
vn 0.15450849718747364 -0.8660254037844386 -0.47552825814757693
vn 0.30901699437494723 -2.4492935982947064e-16 -0.9510565162951536
vn 0.8090169943749473 0 -0.5877852522924734
vn 0.4045084971874738 0.8660254037844386 -0.29389262614623674
vn -0.4045084971874735 0.8660254037844387 0.29389262614623657
vn -0.8090169943749473 1.2246467991473532e-16 0.5877852522924734
vn -0.404508497187474 -0.8660254037844385 0.29389262614623696
vn 0.4045084971874738 -0.8660254037844386 -0.29389262614623674
vn 0.8090169943749473 -2.4492935982947064e-16 -0.5877852522924734
vn 1 0 -2.4492935982947064e-16
vn 0.5000000000000001 0.8660254037844386 -1.2246467991473535e-16
vn -0.4999999999999998 0.8660254037844387 1.2246467991473527e-16
vn -1 1.2246467991473532e-16 2.4492935982947064e-16
vn -0.5000000000000004 -0.8660254037844385 1.2246467991473542e-16
vn 0.5000000000000001 -0.8660254037844386 -1.2246467991473535e-16
vn 1 -2.4492935982947064e-16 -2.4492935982947064e-16
vn 0 1 0
vn 0 1 0
vn 0 1 0
vn 0 1 0
vn 0 1 0
vn 0 1 0
vn 0 1 0
vn 0 1 0
vn 0 1 0
vn 0 1 0
vn 0 1 0
vn 0 1 0
vn 0 1 0
vn 0 1 0
vn 0 1 0
vn 0 1 0
f 1/1/1 3/3/3 2/2/2
f 1/1/1 4/4/4 3/3/3
f 5/5/5 6/6/6 7/7/7
f 5/5/5 7/7/7 8/8/8
f 1/1/1 2/2/2 6/6/6
f 1/1/1 6/6/6 5/5/5
f 3/3/3 4/4/4 8/8/8
f 3/3/3 8/8/8 7/7/7
f 1/1/1 5/5/5 8/8/8
f 1/1/1 8/8/8 4/4/4
f 2/2/2 3/3/3 7/7/7
f 2/2/2 7/7/7 6/6/6
f 9/9/9 11/11/11 10/10/10
f 9/9/9 12/12/12 11/11/11
f 13/13/13 14/14/14 15/15/15
f 13/13/13 15/15/15 16/16/16
f 9/9/9 10/10/10 14/14/14
f 9/9/9 14/14/14 13/13/13
f 11/11/11 12/12/12 16/16/16
f 11/11/11 16/16/16 15/15/15
f 9/9/9 13/13/13 16/16/16
f 9/9/9 16/16/16 12/12/12
f 10/10/10 11/11/11 15/15/15
f 10/10/10 15/15/15 14/14/14
f 17/17/17 19/19/19 18/18/18
f 17/17/17 20/20/20 19/19/19
f 21/21/21 22/22/22 23/23/23
f 21/21/21 23/23/23 24/24/24
f 17/17/17 18/18/18 22/22/22
f 17/17/17 22/22/22 21/21/21
f 19/19/19 20/20/20 24/24/24
f 19/19/19 24/24/24 23/23/23
f 17/17/17 21/21/21 24/24/24
f 17/17/17 24/24/24 20/20/20
f 18/18/18 19/19/19 23/23/23
f 18/18/18 23/23/23 22/22/22
f 25/25/25 27/27/27 26/26/26
f 25/25/25 28/28/28 27/27/27
f 29/29/29 30/30/30 31/31/31
f 29/29/29 31/31/31 32/32/32
f 25/25/25 26/26/26 30/30/30
f 25/25/25 30/30/30 29/29/29
f 27/27/27 28/28/28 32/32/32
f 27/27/27 32/32/32 31/31/31
f 25/25/25 29/29/29 32/32/32
f 25/25/25 32/32/32 28/28/28
f 26/26/26 27/27/27 31/31/31
f 26/26/26 31/31/31 30/30/30
f 33/33/33 35/35/35 34/34/34
f 33/33/33 36/36/36 35/35/35
f 37/37/37 38/38/38 39/39/39
f 37/37/37 39/39/39 40/40/40
f 33/33/33 34/34/34 38/38/38
f 33/33/33 38/38/38 37/37/37
f 35/35/35 36/36/36 40/40/40
f 35/35/35 40/40/40 39/39/39
f 33/33/33 37/37/37 40/40/40
f 33/33/33 40/40/40 36/36/36
f 34/34/34 35/35/35 39/39/39
f 34/34/34 39/39/39 38/38/38
f 41/41/41 43/43/43 42/42/42
f 41/41/41 44/44/44 43/43/43
f 45/45/45 46/46/46 47/47/47
f 45/45/45 47/47/47 48/48/48
f 41/41/41 42/42/42 46/46/46
f 41/41/41 46/46/46 45/45/45
f 43/43/43 44/44/44 48/48/48
f 43/43/43 48/48/48 47/47/47
f 41/41/41 45/45/45 48/48/48
f 41/41/41 48/48/48 44/44/44
f 42/42/42 43/43/43 47/47/47
f 42/42/42 47/47/47 46/46/46
f 49/49/49 51/51/51 50/50/50
f 49/49/49 52/52/52 51/51/51
f 53/53/53 54/54/54 55/55/55
f 53/53/53 55/55/55 56/56/56
f 49/49/49 50/50/50 54/54/54
f 49/49/49 54/54/54 53/53/53
f 51/51/51 52/52/52 56/56/56
f 51/51/51 56/56/56 55/55/55
f 49/49/49 53/53/53 56/56/56
f 49/49/49 56/56/56 52/52/52
f 50/50/50 51/51/51 55/55/55
f 50/50/50 55/55/55 54/54/54
f 57/57/57 59/59/59 58/58/58
f 57/57/57 60/60/60 59/59/59
f 61/61/61 62/62/62 63/63/63
f 61/61/61 63/63/63 64/64/64
f 57/57/57 58/58/58 62/62/62
f 57/57/57 62/62/62 61/61/61
f 59/59/59 60/60/60 64/64/64
f 59/59/59 64/64/64 63/63/63
f 57/57/57 61/61/61 64/64/64
f 57/57/57 64/64/64 60/60/60
f 58/58/58 59/59/59 63/63/63
f 58/58/58 63/63/63 62/62/62
f 65/65/65 67/67/67 66/66/66
f 65/65/65 68/68/68 67/67/67
f 69/69/69 70/70/70 71/71/71
f 69/69/69 71/71/71 72/72/72
f 65/65/65 66/66/66 70/70/70
f 65/65/65 70/70/70 69/69/69
f 67/67/67 68/68/68 72/72/72
f 67/67/67 72/72/72 71/71/71
f 65/65/65 69/69/69 72/72/72
f 65/65/65 72/72/72 68/68/68
f 66/66/66 67/67/67 71/71/71
f 66/66/66 71/71/71 70/70/70
f 73/73/73 75/75/75 74/74/74
f 73/73/73 76/76/76 75/75/75
f 77/77/77 78/78/78 79/79/79
f 77/77/77 79/79/79 80/80/80
f 73/73/73 74/74/74 78/78/78
f 73/73/73 78/78/78 77/77/77
f 75/75/75 76/76/76 80/80/80
f 75/75/75 80/80/80 79/79/79
f 73/73/73 77/77/77 80/80/80
f 73/73/73 80/80/80 76/76/76
f 74/74/74 75/75/75 79/79/79
f 74/74/74 79/79/79 78/78/78
f 81/81/81 83/83/83 82/82/82
f 81/81/81 84/84/84 83/83/83
f 85/85/85 86/86/86 87/87/87
f 85/85/85 87/87/87 88/88/88
f 81/81/81 82/82/82 86/86/86
f 81/81/81 86/86/86 85/85/85
f 83/83/83 84/84/84 88/88/88
f 83/83/83 88/88/88 87/87/87
f 81/81/81 85/85/85 88/88/88
f 81/81/81 88/88/88 84/84/84
f 82/82/82 83/83/83 87/87/87
f 82/82/82 87/87/87 86/86/86
f 89/89/89 91/91/91 90/90/90
f 89/89/89 92/92/92 91/91/91
f 93/93/93 94/94/94 95/95/95
f 93/93/93 95/95/95 96/96/96
f 89/89/89 90/90/90 94/94/94
f 89/89/89 94/94/94 93/93/93
f 91/91/91 92/92/92 96/96/96
f 91/91/91 96/96/96 95/95/95
f 89/89/89 93/93/93 96/96/96
f 89/89/89 96/96/96 92/92/92
f 90/90/90 91/91/91 95/95/95
f 90/90/90 95/95/95 94/94/94
f 97/97/97 99/99/99 98/98/98
f 97/97/97 100/100/100 99/99/99
f 101/101/101 102/102/102 103/103/103
f 101/101/101 103/103/103 104/104/104
f 97/97/97 98/98/98 102/102/102
f 97/97/97 102/102/102 101/101/101
f 99/99/99 100/100/100 104/104/104
f 99/99/99 104/104/104 103/103/103
f 97/97/97 101/101/101 104/104/104
f 97/97/97 104/104/104 100/100/100
f 98/98/98 99/99/99 103/103/103
f 98/98/98 103/103/103 102/102/102
f 105/105/105 107/107/107 106/106/106
f 105/105/105 108/108/108 107/107/107
f 109/109/109 110/110/110 111/111/111
f 109/109/109 111/111/111 112/112/112
f 105/105/105 106/106/106 110/110/110
f 105/105/105 110/110/110 109/109/109
f 107/107/107 108/108/108 112/112/112
f 107/107/107 112/112/112 111/111/111
f 105/105/105 109/109/109 112/112/112
f 105/105/105 112/112/112 108/108/108
f 106/106/106 107/107/107 111/111/111
f 106/106/106 111/111/111 110/110/110
f 113/113/113 115/115/115 114/114/114
f 113/113/113 116/116/116 115/115/115
f 117/117/117 118/118/118 119/119/119
f 117/117/117 119/119/119 120/120/120
f 113/113/113 114/114/114 118/118/118
f 113/113/113 118/118/118 117/117/117
f 115/115/115 116/116/116 120/120/120
f 115/115/115 120/120/120 119/119/119
f 113/113/113 117/117/117 120/120/120
f 113/113/113 120/120/120 116/116/116
f 114/114/114 115/115/115 119/119/119
f 114/114/114 119/119/119 118/118/118
f 121/121/121 128/128/128 129/129/129
f 121/121/121 129/129/129 122/122/122
f 122/122/122 129/129/129 130/130/130
f 122/122/122 130/130/130 123/123/123
f 123/123/123 130/130/130 131/131/131
f 123/123/123 131/131/131 124/124/124
f 124/124/124 131/131/131 132/132/132
f 124/124/124 132/132/132 125/125/125
f 125/125/125 132/132/132 133/133/133
f 125/125/125 133/133/133 126/126/126
f 126/126/126 133/133/133 134/134/134
f 126/126/126 134/134/134 127/127/127
f 128/128/128 135/135/135 136/136/136
f 128/128/128 136/136/136 129/129/129
f 129/129/129 136/136/136 137/137/137
f 129/129/129 137/137/137 130/130/130
f 130/130/130 137/137/137 138/138/138
f 130/130/130 138/138/138 131/131/131
f 131/131/131 138/138/138 139/139/139
f 131/131/131 139/139/139 132/132/132
f 132/132/132 139/139/139 140/140/140
f 132/132/132 140/140/140 133/133/133
f 133/133/133 140/140/140 141/141/141
f 133/133/133 141/141/141 134/134/134
f 135/135/135 142/142/142 143/143/143
f 135/135/135 143/143/143 136/136/136
f 136/136/136 143/143/143 144/144/144
f 136/136/136 144/144/144 137/137/137
f 137/137/137 144/144/144 145/145/145
f 137/137/137 145/145/145 138/138/138
f 138/138/138 145/145/145 146/146/146
f 138/138/138 146/146/146 139/139/139
f 139/139/139 146/146/146 147/147/147
f 139/139/139 147/147/147 140/140/140
f 140/140/140 147/147/147 148/148/148
f 140/140/140 148/148/148 141/141/141
f 142/142/142 149/149/149 150/150/150
f 142/142/142 150/150/150 143/143/143
f 143/143/143 150/150/150 151/151/151
f 143/143/143 151/151/151 144/144/144
f 144/144/144 151/151/151 152/152/152
f 144/144/144 152/152/152 145/145/145
f 145/145/145 152/152/152 153/153/153
f 145/145/145 153/153/153 146/146/146
f 146/146/146 153/153/153 154/154/154
f 146/146/146 154/154/154 147/147/147
f 147/147/147 154/154/154 155/155/155
f 147/147/147 155/155/155 148/148/148
f 149/149/149 156/156/156 157/157/157
f 149/149/149 157/157/157 150/150/150
f 150/150/150 157/157/157 158/158/158
f 150/150/150 158/158/158 151/151/151
f 151/151/151 158/158/158 159/159/159
f 151/151/151 159/159/159 152/152/152
f 152/152/152 159/159/159 160/160/160
f 152/152/152 160/160/160 153/153/153
f 153/153/153 160/160/160 161/161/161
f 153/153/153 161/161/161 154/154/154
f 154/154/154 161/161/161 162/162/162
f 154/154/154 162/162/162 155/155/155
f 156/156/156 163/163/163 164/164/164
f 156/156/156 164/164/164 157/157/157
f 157/157/157 164/164/164 165/165/165
f 157/157/157 165/165/165 158/158/158
f 158/158/158 165/165/165 166/166/166
f 158/158/158 166/166/166 159/159/159
f 159/159/159 166/166/166 167/167/167
f 159/159/159 167/167/167 160/160/160
f 160/160/160 167/167/167 168/168/168
f 160/160/160 168/168/168 161/161/161
f 161/161/161 168/168/168 169/169/169
f 161/161/161 169/169/169 162/162/162
f 163/163/163 170/170/170 171/171/171
f 163/163/163 171/171/171 164/164/164
f 164/164/164 171/171/171 172/172/172
f 164/164/164 172/172/172 165/165/165
f 165/165/165 172/172/172 173/173/173
f 165/165/165 173/173/173 166/166/166
f 166/166/166 173/173/173 174/174/174
f 166/166/166 174/174/174 167/167/167
f 167/167/167 174/174/174 175/175/175
f 167/167/167 175/175/175 168/168/168
f 168/168/168 175/175/175 176/176/176
f 168/168/168 176/176/176 169/169/169
f 170/170/170 177/177/177 178/178/178
f 170/170/170 178/178/178 171/171/171
f 171/171/171 178/178/178 179/179/179
f 171/171/171 179/179/179 172/172/172
f 172/172/172 179/179/179 180/180/180
f 172/172/172 180/180/180 173/173/173
f 173/173/173 180/180/180 181/181/181
f 173/173/173 181/181/181 174/174/174
f 174/174/174 181/181/181 182/182/182
f 174/174/174 182/182/182 175/175/175
f 175/175/175 182/182/182 183/183/183
f 175/175/175 183/183/183 176/176/176
f 177/177/177 184/184/184 185/185/185
f 177/177/177 185/185/185 178/178/178
f 178/178/178 185/185/185 186/186/186
f 178/178/178 186/186/186 179/179/179
f 179/179/179 186/186/186 187/187/187
f 179/179/179 187/187/187 180/180/180
f 180/180/180 187/187/187 188/188/188
f 180/180/180 188/188/188 181/181/181
f 181/181/181 188/188/188 189/189/189
f 181/181/181 189/189/189 182/182/182
f 182/182/182 189/189/189 190/190/190
f 182/182/182 190/190/190 183/183/183
f 184/184/184 191/191/191 192/192/192
f 184/184/184 192/192/192 185/185/185
f 185/185/185 192/192/192 193/193/193
f 185/185/185 193/193/193 186/186/186
f 186/186/186 193/193/193 194/194/194
f 186/186/186 194/194/194 187/187/187
f 187/187/187 194/194/194 195/195/195
f 187/187/187 195/195/195 188/188/188
f 188/188/188 195/195/195 196/196/196
f 188/188/188 196/196/196 189/189/189
f 189/189/189 196/196/196 197/197/197
f 189/189/189 197/197/197 190/190/190
f 198/198/198 205/205/205 206/206/206
f 198/198/198 206/206/206 199/199/199
f 199/199/199 206/206/206 207/207/207
f 199/199/199 207/207/207 200/200/200
f 200/200/200 207/207/207 208/208/208
f 200/200/200 208/208/208 201/201/201
f 201/201/201 208/208/208 209/209/209
f 201/201/201 209/209/209 202/202/202
f 202/202/202 209/209/209 210/210/210
f 202/202/202 210/210/210 203/203/203
f 203/203/203 210/210/210 211/211/211
f 203/203/203 211/211/211 204/204/204
f 205/205/205 212/212/212 213/213/213
f 205/205/205 213/213/213 206/206/206
f 206/206/206 213/213/213 214/214/214
f 206/206/206 214/214/214 207/207/207
f 207/207/207 214/214/214 215/215/215
f 207/207/207 215/215/215 208/208/208
f 208/208/208 215/215/215 216/216/216
f 208/208/208 216/216/216 209/209/209
f 209/209/209 216/216/216 217/217/217
f 209/209/209 217/217/217 210/210/210
f 210/210/210 217/217/217 218/218/218
f 210/210/210 218/218/218 211/211/211
f 212/212/212 219/219/219 220/220/220
f 212/212/212 220/220/220 213/213/213
f 213/213/213 220/220/220 221/221/221
f 213/213/213 221/221/221 214/214/214
f 214/214/214 221/221/221 222/222/222
f 214/214/214 222/222/222 215/215/215
f 215/215/215 222/222/222 223/223/223
f 215/215/215 223/223/223 216/216/216
f 216/216/216 223/223/223 224/224/224
f 216/216/216 224/224/224 217/217/217
f 217/217/217 224/224/224 225/225/225
f 217/217/217 225/225/225 218/218/218
f 219/219/219 226/226/226 227/227/227
f 219/219/219 227/227/227 220/220/220
f 220/220/220 227/227/227 228/228/228
f 220/220/220 228/228/228 221/221/221
f 221/221/221 228/228/228 229/229/229
f 221/221/221 229/229/229 222/222/222
f 222/222/222 229/229/229 230/230/230
f 222/222/222 230/230/230 223/223/223
f 223/223/223 230/230/230 231/231/231
f 223/223/223 231/231/231 224/224/224
f 224/224/224 231/231/231 232/232/232
f 224/224/224 232/232/232 225/225/225
f 226/226/226 233/233/233 234/234/234
f 226/226/226 234/234/234 227/227/227
f 227/227/227 234/234/234 235/235/235
f 227/227/227 235/235/235 228/228/228
f 228/228/228 235/235/235 236/236/236
f 228/228/228 236/236/236 229/229/229
f 229/229/229 236/236/236 237/237/237
f 229/229/229 237/237/237 230/230/230
f 230/230/230 237/237/237 238/238/238
f 230/230/230 238/238/238 231/231/231
f 231/231/231 238/238/238 239/239/239
f 231/231/231 239/239/239 232/232/232
f 233/233/233 240/240/240 241/241/241
f 233/233/233 241/241/241 234/234/234
f 234/234/234 241/241/241 242/242/242
f 234/234/234 242/242/242 235/235/235
f 235/235/235 242/242/242 243/243/243
f 235/235/235 243/243/243 236/236/236
f 236/236/236 243/243/243 244/244/244
f 236/236/236 244/244/244 237/237/237
f 237/237/237 244/244/244 245/245/245
f 237/237/237 245/245/245 238/238/238
f 238/238/238 245/245/245 246/246/246
f 238/238/238 246/246/246 239/239/239
f 240/240/240 247/247/247 248/248/248
f 240/240/240 248/248/248 241/241/241
f 241/241/241 248/248/248 249/249/249
f 241/241/241 249/249/249 242/242/242
f 242/242/242 249/249/249 250/250/250
f 242/242/242 250/250/250 243/243/243
f 243/243/243 250/250/250 251/251/251
f 243/243/243 251/251/251 244/244/244
f 244/244/244 251/251/251 252/252/252
f 244/244/244 252/252/252 245/245/245
f 245/245/245 252/252/252 253/253/253
f 245/245/245 253/253/253 246/246/246
f 247/247/247 254/254/254 255/255/255
f 247/247/247 255/255/255 248/248/248
f 248/248/248 255/255/255 256/256/256
f 248/248/248 256/256/256 249/249/249
f 249/249/249 256/256/256 257/257/257
f 249/249/249 257/257/257 250/250/250
f 250/250/250 257/257/257 258/258/258
f 250/250/250 258/258/258 251/251/251
f 251/251/251 258/258/258 259/259/259
f 251/251/251 259/259/259 252/252/252
f 252/252/252 259/259/259 260/260/260
f 252/252/252 260/260/260 253/253/253
f 254/254/254 261/261/261 262/262/262
f 254/254/254 262/262/262 255/255/255
f 255/255/255 262/262/262 263/263/263
f 255/255/255 263/263/263 256/256/256
f 256/256/256 263/263/263 264/264/264
f 256/256/256 264/264/264 257/257/257
f 257/257/257 264/264/264 265/265/265
f 257/257/257 265/265/265 258/258/258
f 258/258/258 265/265/265 266/266/266
f 258/258/258 266/266/266 259/259/259
f 259/259/259 266/266/266 267/267/267
f 259/259/259 267/267/267 260/260/260
f 261/261/261 268/268/268 269/269/269
f 261/261/261 269/269/269 262/262/262
f 262/262/262 269/269/269 270/270/270
f 262/262/262 270/270/270 263/263/263
f 263/263/263 270/270/270 271/271/271
f 263/263/263 271/271/271 264/264/264
f 264/264/264 271/271/271 272/272/272
f 264/264/264 272/272/272 265/265/265
f 265/265/265 272/272/272 273/273/273
f 265/265/265 273/273/273 266/266/266
f 266/266/266 273/273/273 274/274/274
f 266/266/266 274/274/274 267/267/267
f 275/275/275 282/282/282 283/283/283
f 275/275/275 283/283/283 276/276/276
f 276/276/276 283/283/283 284/284/284
f 276/276/276 284/284/284 277/277/277
f 277/277/277 284/284/284 285/285/285
f 277/277/277 285/285/285 278/278/278
f 278/278/278 285/285/285 286/286/286
f 278/278/278 286/286/286 279/279/279
f 279/279/279 286/286/286 287/287/287
f 279/279/279 287/287/287 280/280/280
f 280/280/280 287/287/287 288/288/288
f 280/280/280 288/288/288 281/281/281
f 282/282/282 289/289/289 290/290/290
f 282/282/282 290/290/290 283/283/283
f 283/283/283 290/290/290 291/291/291
f 283/283/283 291/291/291 284/284/284
f 284/284/284 291/291/291 292/292/292
f 284/284/284 292/292/292 285/285/285
f 285/285/285 292/292/292 293/293/293
f 285/285/285 293/293/293 286/286/286
f 286/286/286 293/293/293 294/294/294
f 286/286/286 294/294/294 287/287/287
f 287/287/287 294/294/294 295/295/295
f 287/287/287 295/295/295 288/288/288
f 289/289/289 296/296/296 297/297/297
f 289/289/289 297/297/297 290/290/290
f 290/290/290 297/297/297 298/298/298
f 290/290/290 298/298/298 291/291/291
f 291/291/291 298/298/298 299/299/299
f 291/291/291 299/299/299 292/292/292
f 292/292/292 299/299/299 300/300/300
f 292/292/292 300/300/300 293/293/293
f 293/293/293 300/300/300 301/301/301
f 293/293/293 301/301/301 294/294/294
f 294/294/294 301/301/301 302/302/302
f 294/294/294 302/302/302 295/295/295
f 296/296/296 303/303/303 304/304/304
f 296/296/296 304/304/304 297/297/297
f 297/297/297 304/304/304 305/305/305
f 297/297/297 305/305/305 298/298/298
f 298/298/298 305/305/305 306/306/306
f 298/298/298 306/306/306 299/299/299
f 299/299/299 306/306/306 307/307/307
f 299/299/299 307/307/307 300/300/300
f 300/300/300 307/307/307 308/308/308
f 300/300/300 308/308/308 301/301/301
f 301/301/301 308/308/308 309/309/309
f 301/301/301 309/309/309 302/302/302
f 303/303/303 310/310/310 311/311/311
f 303/303/303 311/311/311 304/304/304
f 304/304/304 311/311/311 312/312/312
f 304/304/304 312/312/312 305/305/305
f 305/305/305 312/312/312 313/313/313
f 305/305/305 313/313/313 306/306/306
f 306/306/306 313/313/313 314/314/314
f 306/306/306 314/314/314 307/307/307
f 307/307/307 314/314/314 315/315/315
f 307/307/307 315/315/315 308/308/308
f 308/308/308 315/315/315 316/316/316
f 308/308/308 316/316/316 309/309/309
f 310/310/310 317/317/317 318/318/318
f 310/310/310 318/318/318 311/311/311
f 311/311/311 318/318/318 319/319/319
f 311/311/311 319/319/319 312/312/312
f 312/312/312 319/319/319 320/320/320
f 312/312/312 320/320/320 313/313/313
f 313/313/313 320/320/320 321/321/321
f 313/313/313 321/321/321 314/314/314
f 314/314/314 321/321/321 322/322/322
f 314/314/314 322/322/322 315/315/315
f 315/315/315 322/322/322 323/323/323
f 315/315/315 323/323/323 316/316/316
f 317/317/317 324/324/324 325/325/325
f 317/317/317 325/325/325 318/318/318
f 318/318/318 325/325/325 326/326/326
f 318/318/318 326/326/326 319/319/319
f 319/319/319 326/326/326 327/327/327
f 319/319/319 327/327/327 320/320/320
f 320/320/320 327/327/327 328/328/328
f 320/320/320 328/328/328 321/321/321
f 321/321/321 328/328/328 329/329/329
f 321/321/321 329/329/329 322/322/322
f 322/322/322 329/329/329 330/330/330
f 322/322/322 330/330/330 323/323/323
f 324/324/324 331/331/331 332/332/332
f 324/324/324 332/332/332 325/325/325
f 325/325/325 332/332/332 333/333/333
f 325/325/325 333/333/333 326/326/326
f 326/326/326 333/333/333 334/334/334
f 326/326/326 334/334/334 327/327/327
f 327/327/327 334/334/334 335/335/335
f 327/327/327 335/335/335 328/328/328
f 328/328/328 335/335/335 336/336/336
f 328/328/328 336/336/336 329/329/329
f 329/329/329 336/336/336 337/337/337
f 329/329/329 337/337/337 330/330/330
f 331/331/331 338/338/338 339/339/339
f 331/331/331 339/339/339 332/332/332
f 332/332/332 339/339/339 340/340/340
f 332/332/332 340/340/340 333/333/333
f 333/333/333 340/340/340 341/341/341
f 333/333/333 341/341/341 334/334/334
f 334/334/334 341/341/341 342/342/342
f 334/334/334 342/342/342 335/335/335
f 335/335/335 342/342/342 343/343/343
f 335/335/335 343/343/343 336/336/336
f 336/336/336 343/343/343 344/344/344
f 336/336/336 344/344/344 337/337/337
f 338/338/338 345/345/345 346/346/346
f 338/338/338 346/346/346 339/339/339
f 339/339/339 346/346/346 347/347/347
f 339/339/339 347/347/347 340/340/340
f 340/340/340 347/347/347 348/348/348
f 340/340/340 348/348/348 341/341/341
f 341/341/341 348/348/348 349/349/349
f 341/341/341 349/349/349 342/342/342
f 342/342/342 349/349/349 350/350/350
f 342/342/342 350/350/350 343/343/343
f 343/343/343 350/350/350 351/351/351
f 343/343/343 351/351/351 344/344/344
f 352/352/352 359/359/359 360/360/360
f 352/352/352 360/360/360 353/353/353
f 353/353/353 360/360/360 361/361/361
f 353/353/353 361/361/361 354/354/354
f 354/354/354 361/361/361 362/362/362
f 354/354/354 362/362/362 355/355/355
f 355/355/355 362/362/362 363/363/363
f 355/355/355 363/363/363 356/356/356
f 356/356/356 363/363/363 364/364/364
f 356/356/356 364/364/364 357/357/357
f 357/357/357 364/364/364 365/365/365
f 357/357/357 365/365/365 358/358/358
f 359/359/359 366/366/366 367/367/367
f 359/359/359 367/367/367 360/360/360
f 360/360/360 367/367/367 368/368/368
f 360/360/360 368/368/368 361/361/361
f 361/361/361 368/368/368 369/369/369
f 361/361/361 369/369/369 362/362/362
f 362/362/362 369/369/369 370/370/370
f 362/362/362 370/370/370 363/363/363
f 363/363/363 370/370/370 371/371/371
f 363/363/363 371/371/371 364/364/364
f 364/364/364 371/371/371 372/372/372
f 364/364/364 372/372/372 365/365/365
f 366/366/366 373/373/373 374/374/374
f 366/366/366 374/374/374 367/367/367
f 367/367/367 374/374/374 375/375/375
f 367/367/367 375/375/375 368/368/368
f 368/368/368 375/375/375 376/376/376
f 368/368/368 376/376/376 369/369/369
f 369/369/369 376/376/376 377/377/377
f 369/369/369 377/377/377 370/370/370
f 370/370/370 377/377/377 378/378/378
f 370/370/370 378/378/378 371/371/371
f 371/371/371 378/378/378 379/379/379
f 371/371/371 379/379/379 372/372/372
f 373/373/373 380/380/380 381/381/381
f 373/373/373 381/381/381 374/374/374
f 374/374/374 381/381/381 382/382/382
f 374/374/374 382/382/382 375/375/375
f 375/375/375 382/382/382 383/383/383
f 375/375/375 383/383/383 376/376/376
f 376/376/376 383/383/383 384/384/384
f 376/376/376 384/384/384 377/377/377
f 377/377/377 384/384/384 385/385/385
f 377/377/377 385/385/385 378/378/378
f 378/378/378 385/385/385 386/386/386
f 378/378/378 386/386/386 379/379/379
f 380/380/380 387/387/387 388/388/388
f 380/380/380 388/388/388 381/381/381
f 381/381/381 388/388/388 389/389/389
f 381/381/381 389/389/389 382/382/382
f 382/382/382 389/389/389 390/390/390
f 382/382/382 390/390/390 383/383/383
f 383/383/383 390/390/390 391/391/391
f 383/383/383 391/391/391 384/384/384
f 384/384/384 391/391/391 392/392/392
f 384/384/384 392/392/392 385/385/385
f 385/385/385 392/392/392 393/393/393
f 385/385/385 393/393/393 386/386/386
f 387/387/387 394/394/394 395/395/395
f 387/387/387 395/395/395 388/388/388
f 388/388/388 395/395/395 396/396/396
f 388/388/388 396/396/396 389/389/389
f 389/389/389 396/396/396 397/397/397
f 389/389/389 397/397/397 390/390/390
f 390/390/390 397/397/397 398/398/398
f 390/390/390 398/398/398 391/391/391
f 391/391/391 398/398/398 399/399/399
f 391/391/391 399/399/399 392/392/392
f 392/392/392 399/399/399 400/400/400
f 392/392/392 400/400/400 393/393/393
f 394/394/394 401/401/401 402/402/402
f 394/394/394 402/402/402 395/395/395
f 395/395/395 402/402/402 403/403/403
f 395/395/395 403/403/403 396/396/396
f 396/396/396 403/403/403 404/404/404
f 396/396/396 404/404/404 397/397/397
f 397/397/397 404/404/404 405/405/405
f 397/397/397 405/405/405 398/398/398
f 398/398/398 405/405/405 406/406/406
f 398/398/398 406/406/406 399/399/399
f 399/399/399 406/406/406 407/407/407
f 399/399/399 407/407/407 400/400/400
f 401/401/401 408/408/408 409/409/409
f 401/401/401 409/409/409 402/402/402
f 402/402/402 409/409/409 410/410/410
f 402/402/402 410/410/410 403/403/403
f 403/403/403 410/410/410 411/411/411
f 403/403/403 411/411/411 404/404/404
f 404/404/404 411/411/411 412/412/412
f 404/404/404 412/412/412 405/405/405
f 405/405/405 412/412/412 413/413/413
f 405/405/405 413/413/413 406/406/406
f 406/406/406 413/413/413 414/414/414
f 406/406/406 414/414/414 407/407/407
f 408/408/408 415/415/415 416/416/416
f 408/408/408 416/416/416 409/409/409
f 409/409/409 416/416/416 417/417/417
f 409/409/409 417/417/417 410/410/410
f 410/410/410 417/417/417 418/418/418
f 410/410/410 418/418/418 411/411/411
f 411/411/411 418/418/418 419/419/419
f 411/411/411 419/419/419 412/412/412
f 412/412/412 419/419/419 420/420/420
f 412/412/412 420/420/420 413/413/413
f 413/413/413 420/420/420 421/421/421
f 413/413/413 421/421/421 414/414/414
f 415/415/415 422/422/422 423/423/423
f 415/415/415 423/423/423 416/416/416
f 416/416/416 423/423/423 424/424/424
f 416/416/416 424/424/424 417/417/417
f 417/417/417 424/424/424 425/425/425
f 417/417/417 425/425/425 418/418/418
f 418/418/418 425/425/425 426/426/426
f 418/418/418 426/426/426 419/419/419
f 419/419/419 426/426/426 427/427/427
f 419/419/419 427/427/427 420/420/420
f 420/420/420 427/427/427 428/428/428
f 420/420/420 428/428/428 421/421/421
f 429/429/429 431/431/431 430/430/430
f 429/429/429 432/432/432 431/431/431
f 433/433/433 434/434/434 435/435/435
f 433/433/433 435/435/435 436/436/436
f 429/429/429 430/430/430 434/434/434
f 429/429/429 434/434/434 433/433/433
f 431/431/431 432/432/432 436/436/436
f 431/431/431 436/436/436 435/435/435
f 429/429/429 433/433/433 436/436/436
f 429/429/429 436/436/436 432/432/432
f 430/430/430 431/431/431 435/435/435
f 430/430/430 435/435/435 434/434/434
f 437/437/437 439/439/439 438/438/438
f 437/437/437 440/440/440 439/439/439
f 441/441/441 442/442/442 443/443/443
f 441/441/441 443/443/443 444/444/444
f 437/437/437 438/438/438 442/442/442
f 437/437/437 442/442/442 441/441/441
f 439/439/439 440/440/440 444/444/444
f 439/439/439 444/444/444 443/443/443
f 437/437/437 441/441/441 444/444/444
f 437/437/437 444/444/444 440/440/440
f 438/438/438 439/439/439 443/443/443
f 438/438/438 443/443/443 442/442/442