# 3D Model: vehicle/bike/13226803_R_m (v6 Gemini)
# Style: vehicle/bike | Symmetry: symmetric
# Dimensions: 1.86 x 0.737 x 0.732 m
# Triangles: 1088 | Vertices: 623
v -0.165 0.35 0
v -0.1825 0.3803 0
v -0.2175 0.3803 0
v -0.235 0.35 0
v -0.2175 0.3197 0
v -0.1825 0.3197 0
v -0.165 0.35 0
v -0.2385 0.35 0.2263
v -0.2527 0.3803 0.216
v -0.281 0.3803 0.1954
v -0.2952 0.35 0.1852
v -0.281 0.3197 0.1954
v -0.2527 0.3197 0.216
v -0.2385 0.35 0.2263
v -0.431 0.35 0.3662
v -0.4364 0.3803 0.3495
v -0.4473 0.3803 0.3162
v -0.4527 0.35 0.2996
v -0.4473 0.3197 0.3162
v -0.4364 0.3197 0.3495
v -0.431 0.35 0.3662
v -0.669 0.35 0.3662
v -0.6636 0.3803 0.3495
v -0.6527 0.3803 0.3162
v -0.6473 0.35 0.2996
v -0.6527 0.3197 0.3162
v -0.6636 0.3197 0.3495
v -0.669 0.35 0.3662
v -0.8615 0.35 0.2263
v -0.8473 0.3803 0.216
v -0.819 0.3803 0.1954
v -0.8048 0.35 0.1852
v -0.819 0.3197 0.1954
v -0.8473 0.3197 0.216
v -0.8615 0.35 0.2263
v -0.935 0.35 0
v -0.9175 0.3803 0
v -0.8825 0.3803 0
v -0.865 0.35 0
v -0.8825 0.3197 0
v -0.9175 0.3197 0
v -0.935 0.35 0
v -0.8615 0.35 -0.2263
v -0.8473 0.3803 -0.216
v -0.819 0.3803 -0.1954
v -0.8048 0.35 -0.1852
v -0.819 0.3197 -0.1954
v -0.8473 0.3197 -0.216
v -0.8615 0.35 -0.2263
v -0.669 0.35 -0.3662
v -0.6636 0.3803 -0.3495
v -0.6527 0.3803 -0.3162
v -0.6473 0.35 -0.2996
v -0.6527 0.3197 -0.3162
v -0.6636 0.3197 -0.3495
v -0.669 0.35 -0.3662
v -0.431 0.35 -0.3662
v -0.4364 0.3803 -0.3495
v -0.4473 0.3803 -0.3162
v -0.4527 0.35 -0.2996
v -0.4473 0.3197 -0.3162
v -0.4364 0.3197 -0.3495
v -0.431 0.35 -0.3662
v -0.2385 0.35 -0.2263
v -0.2527 0.3803 -0.216
v -0.281 0.3803 -0.1954
v -0.2952 0.35 -0.1852
v -0.281 0.3197 -0.1954
v -0.2527 0.3197 -0.216
v -0.2385 0.35 -0.2263
v -0.165 0.35 0
v -0.1825 0.3803 0
v -0.2175 0.3803 0
v -0.235 0.35 0
v -0.2175 0.3197 0
v -0.1825 0.3197 0
v -0.165 0.35 0
v 0.925 0.35 0
v 0.9075 0.3803 0
v 0.8725 0.3803 0
v 0.855 0.35 0
v 0.8725 0.3197 0
v 0.9075 0.3197 0
v 0.925 0.35 0
v 0.8534 0.35 0.2204
v 0.8392 0.3803 0.2101
v 0.8109 0.3803 0.1896
v 0.7968 0.35 0.1793
v 0.8109 0.3197 0.1896
v 0.8392 0.3197 0.2101
v 0.8534 0.35 0.2204
v 0.6659 0.35 0.3566
v 0.6605 0.3803 0.34
v 0.6497 0.3803 0.3067
v 0.6443 0.35 0.2901
v 0.6497 0.3197 0.3067
v 0.6605 0.3197 0.34
v 0.6659 0.35 0.3566
v 0.4341 0.35 0.3566
v 0.4395 0.3803 0.34
v 0.4503 0.3803 0.3067
v 0.4557 0.35 0.2901
v 0.4503 0.3197 0.3067
v 0.4395 0.3197 0.34
v 0.4341 0.35 0.3566
v 0.2466 0.35 0.2204
v 0.2608 0.3803 0.2101
v 0.2891 0.3803 0.1896
v 0.3032 0.35 0.1793
v 0.2891 0.3197 0.1896
v 0.2608 0.3197 0.2101
v 0.2466 0.35 0.2204
v 0.175 0.35 0
v 0.1925 0.3803 0
v 0.2275 0.3803 0
v 0.245 0.35 0
v 0.2275 0.3197 0
v 0.1925 0.3197 0
v 0.175 0.35 0
v 0.2466 0.35 -0.2204
v 0.2608 0.3803 -0.2101
v 0.2891 0.3803 -0.1896
v 0.3032 0.35 -0.1793
v 0.2891 0.3197 -0.1896
v 0.2608 0.3197 -0.2101
v 0.2466 0.35 -0.2204
v 0.4341 0.35 -0.3566
v 0.4395 0.3803 -0.34
v 0.4503 0.3803 -0.3067
v 0.4557 0.35 -0.2901
v 0.4503 0.3197 -0.3067
v 0.4395 0.3197 -0.34
v 0.4341 0.35 -0.3566
v 0.6659 0.35 -0.3566
v 0.6605 0.3803 -0.34
v 0.6497 0.3803 -0.3067
v 0.6443 0.35 -0.2901
v 0.6497 0.3197 -0.3067
v 0.6605 0.3197 -0.34
v 0.6659 0.35 -0.3566
v 0.8534 0.35 -0.2204
v 0.8392 0.3803 -0.2101
v 0.8109 0.3803 -0.1896
v 0.7968 0.35 -0.1793
v 0.8109 0.3197 -0.1896
v 0.8392 0.3197 -0.2101
v 0.8534 0.35 -0.2204
v 0.925 0.35 0
v 0.9075 0.3803 0
v 0.8725 0.3803 0
v 0.855 0.35 0
v 0.8725 0.3197 0
v 0.9075 0.3197 0
v 0.925 0.35 0
v -0.0269 0.4173 0
v -0.0282 0.4159 0.0096
v -0.0317 0.4118 0.0177
v -0.0371 0.4057 0.0231
v -0.0434 0.3985 0.025
v -0.0497 0.3913 0.0231
v -0.0551 0.3852 0.0177
v -0.0586 0.3812 0.0096
v -0.0599 0.3797 0
v -0.0586 0.3812 -0.0096
v -0.0551 0.3852 -0.0177
v -0.0497 0.3913 -0.0231
v -0.0434 0.3985 -0.025
v -0.0371 0.4057 -0.0231
v -0.0317 0.4118 -0.0177
v -0.0282 0.4159 -0.0096
v -0.4434 0.7765 0
v -0.4444 0.7754 0.0077
v -0.4473 0.7721 0.0141
v -0.4516 0.7672 0.0185
v -0.4566 0.7615 0.02
v -0.4617 0.7557 0.0185
v -0.4659 0.7509 0.0141
v -0.4688 0.7476 0.0077
v -0.4698 0.7465 0
v -0.4688 0.7476 -0.0077
v -0.4659 0.7509 -0.0141
v -0.4617 0.7557 -0.0185
v -0.4566 0.7615 -0.02
v -0.4516 0.7672 -0.0185
v -0.4473 0.7721 -0.0141
v -0.4444 0.7754 -0.0077
v -0.0434 0.3985 0
v -0.4566 0.7615 0
v 0.21 0.7478 0
v 0.21 0.7464 0.0069
v 0.21 0.7425 0.0127
v 0.21 0.7367 0.0166
v 0.21 0.7298 0.018
v 0.21 0.7229 0.0166
v 0.21 0.7171 0.0127
v 0.21 0.7132 0.0069
v 0.21 0.7118 0
v 0.21 0.7132 -0.0069
v 0.21 0.7171 -0.0127
v 0.21 0.7229 -0.0166
v 0.21 0.7298 -0.018
v 0.21 0.7367 -0.0166
v 0.21 0.7425 -0.0127
v 0.21 0.7464 -0.0069
v -0.31 0.7482 0
v -0.31 0.7468 0.0069
v -0.31 0.7429 0.0127
v -0.31 0.7371 0.0166
v -0.31 0.7302 0.018
v -0.31 0.7233 0.0166
v -0.31 0.7175 0.0127
v -0.31 0.7136 0.0069
v -0.31 0.7122 0
v -0.31 0.7136 -0.0069
v -0.31 0.7175 -0.0127
v -0.31 0.7233 -0.0166
v -0.31 0.7302 -0.018
v -0.31 0.7371 -0.0166
v -0.31 0.7429 -0.0127
v -0.31 0.7468 -0.0069
v 0.21 0.7298 0
v -0.31 0.7302 0
v 0.1102 0.3597 0
v 0.1088 0.3607 0.0084
v 0.105 0.3636 0.0156
v 0.0994 0.3679 0.0203
v 0.0927 0.373 0.022
v 0.0859 0.3781 0.0203
v 0.0803 0.3824 0.0156
v 0.0765 0.3853 0.0084
v 0.0751 0.3863 0
v 0.0765 0.3853 -0.0084
v 0.0803 0.3824 -0.0156
v 0.0859 0.3781 -0.0203
v 0.0927 0.373 -0.022
v 0.0994 0.3679 -0.0203
v 0.105 0.3636 -0.0156
v 0.1088 0.3607 -0.0084
v 0.4233 0.7749 0
v 0.4221 0.7758 0.0077
v 0.4186 0.7784 0.0141
v 0.4134 0.7823 0.0185
v 0.4073 0.787 0.02
v 0.4013 0.7916 0.0185
v 0.3961 0.7955 0.0141
v 0.3926 0.7982 0.0077
v 0.3914 0.7991 0
v 0.3926 0.7982 -0.0077
v 0.3961 0.7955 -0.0141
v 0.4013 0.7916 -0.0185
v 0.4073 0.787 -0.02
v 0.4134 0.7823 -0.0185
v 0.4186 0.7784 -0.0141
v 0.4221 0.7758 -0.0077
v 0.0927 0.373 0
v 0.4073 0.787 0
v 0.2751 0.6911 0
v 0.2744 0.6916 0.0046
v 0.2723 0.6932 0.0085
v 0.2692 0.6956 0.0111
v 0.2655 0.6984 0.012
v 0.2619 0.7011 0.0111
v 0.2588 0.7035 0.0085
v 0.2567 0.7051 0.0046
v 0.256 0.7056 0
v 0.2567 0.7051 -0.0046
v 0.2588 0.7035 -0.0085
v 0.2619 0.7011 -0.0111
v 0.2655 0.6984 -0.012
v 0.2692 0.6956 -0.0111
v 0.2723 0.6932 -0.0085
v 0.2744 0.6916 -0.0046
v 0.384 0.8344 0
v 0.3833 0.8349 0.0046
v 0.3812 0.8365 0.0085
v 0.3781 0.8389 0.0111
v 0.3745 0.8416 0.012
v 0.3708 0.8444 0.0111
v 0.3677 0.8468 0.0085
v 0.3656 0.8484 0.0046
v 0.3649 0.8489 0
v 0.3656 0.8484 -0.0046
v 0.3677 0.8468 -0.0085
v 0.3708 0.8444 -0.0111
v 0.3745 0.8416 -0.012
v 0.3781 0.8389 -0.0111
v 0.3812 0.8365 -0.0085
v 0.3833 0.8349 -0.0046
v 0.2655 0.6984 0
v 0.3745 0.8416 0
v 0.1716 0.8327 -0.06
v 0.4204 0.8077 -0.06
v 0.4284 0.8873 -0.06
v 0.1796 0.9123 -0.06
v 0.1716 0.8327 0.06
v 0.4204 0.8077 0.06
v 0.4284 0.8873 0.06
v 0.1796 0.9123 0.06
v 0.4 0.175 0.068
v 0.406 0.175 0.0696
v 0.4104 0.175 0.074
v 0.412 0.175 0.08
v 0.4104 0.175 0.086
v 0.406 0.175 0.0904
v 0.4 0.175 0.092
v 0.394 0.175 0.0904
v 0.3896 0.175 0.086
v 0.388 0.175 0.08
v 0.3896 0.175 0.074
v 0.394 0.175 0.0696
v 0.4 0.525 0.068
v 0.406 0.525 0.0696
v 0.4104 0.525 0.074
v 0.412 0.525 0.08
v 0.4104 0.525 0.086
v 0.406 0.525 0.0904
v 0.4 0.525 0.092
v 0.394 0.525 0.0904
v 0.3896 0.525 0.086
v 0.388 0.525 0.08
v 0.3896 0.525 0.074
v 0.394 0.525 0.0696
v 0.4 0.175 0.08
v 0.4 0.525 0.08
v 0.4 0.175 -0.092
v 0.406 0.175 -0.0904
v 0.4104 0.175 -0.086
v 0.412 0.175 -0.08
v 0.4104 0.175 -0.074
v 0.406 0.175 -0.0696
v 0.4 0.175 -0.068
v 0.394 0.175 -0.0696
v 0.3896 0.175 -0.074
v 0.388 0.175 -0.08
v 0.3896 0.175 -0.086
v 0.394 0.175 -0.0904
v 0.4 0.525 -0.092
v 0.406 0.525 -0.0904
v 0.4104 0.525 -0.086
v 0.412 0.525 -0.08
v 0.4104 0.525 -0.074
v 0.406 0.525 -0.0696
v 0.4 0.525 -0.068
v 0.394 0.525 -0.0696
v 0.3896 0.525 -0.074
v 0.388 0.525 -0.08
v 0.3896 0.525 -0.086
v 0.394 0.525 -0.0904
v 0.4 0.175 -0.08
v 0.4 0.525 -0.08
v 0.285 0.4197 0.07
v 0.2842 0.4208 0.075
v 0.2821 0.4238 0.0787
v 0.2792 0.4278 0.08
v 0.2763 0.4319 0.0787
v 0.2741 0.4349 0.075
v 0.2734 0.436 0.07
v 0.2741 0.4349 0.065
v 0.2763 0.4319 0.0613
v 0.2792 0.4278 0.06
v 0.2821 0.4238 0.0613
v 0.2842 0.4208 0.065
v 0.6266 0.664 0.07
v 0.6259 0.6651 0.075
v 0.6237 0.6681 0.0787
v 0.6208 0.6722 0.08
v 0.6179 0.6762 0.0787
v 0.6158 0.6792 0.075
v 0.615 0.6803 0.07
v 0.6158 0.6792 0.065
v 0.6179 0.6762 0.0613
v 0.6208 0.6722 0.06
v 0.6237 0.6681 0.0613
v 0.6259 0.6651 0.065
v 0.2792 0.4278 0.07
v 0.6208 0.6722 0.07
v 0.285 0.4197 -0.07
v 0.2842 0.4208 -0.065
v 0.2821 0.4238 -0.0613
v 0.2792 0.4278 -0.06
v 0.2763 0.4319 -0.0613
v 0.2741 0.4349 -0.065
v 0.2734 0.436 -0.07
v 0.2741 0.4349 -0.075
v 0.2763 0.4319 -0.0787
v 0.2792 0.4278 -0.08
v 0.2821 0.4238 -0.0787
v 0.2842 0.4208 -0.075
v 0.6266 0.664 -0.07
v 0.6259 0.6651 -0.065
v 0.6237 0.6681 -0.0613
v 0.6208 0.6722 -0.06
v 0.6179 0.6762 -0.0613
v 0.6158 0.6792 -0.065
v 0.615 0.6803 -0.07
v 0.6158 0.6792 -0.075
v 0.6179 0.6762 -0.0787
v 0.6208 0.6722 -0.08
v 0.6237 0.6681 -0.0787
v 0.6259 0.6651 -0.075
v 0.2792 0.4278 -0.07
v 0.6208 0.6722 -0.07
v -0.5685 0.2682 0
v -0.5701 0.2688 0.0084
v -0.5745 0.2704 0.0156
v -0.5812 0.2729 0.0203
v -0.5892 0.2758 0.022
v -0.5971 0.2786 0.0203
v -0.6038 0.2811 0.0156
v -0.6082 0.2827 0.0084
v -0.6098 0.2833 0
v -0.6082 0.2827 -0.0084
v -0.6038 0.2811 -0.0156
v -0.5971 0.2786 -0.0203
v -0.5892 0.2758 -0.022
v -0.5812 0.2729 -0.0203
v -0.5745 0.2704 -0.0156
v -0.5701 0.2688 -0.0084
v -0.3939 0.7581 0
v -0.3952 0.7585 0.0069
v -0.3989 0.7599 0.0127
v -0.4044 0.7619 0.0166
v -0.4108 0.7642 0.018
v -0.4173 0.7666 0.0166
v -0.4228 0.7686 0.0127
v -0.4265 0.7699 0.0069
v -0.4278 0.7704 0
v -0.4265 0.7699 -0.0069
v -0.4228 0.7686 -0.0127
v -0.4173 0.7666 -0.0166
v -0.4108 0.7642 -0.018
v -0.4044 0.7619 -0.0166
v -0.3989 0.7599 -0.0127
v -0.3952 0.7585 -0.0069
v -0.5892 0.2758 0
v -0.4108 0.7642 0
v -0.4371 0.6091 0
v -0.4386 0.6097 0.0084
v -0.4431 0.6113 0.0156
v -0.4498 0.6138 0.0203
v -0.4577 0.6167 0.022
v -0.4656 0.6196 0.0203
v -0.4723 0.622 0.0156
v -0.4768 0.6236 0.0084
v -0.4784 0.6242 0
v -0.4768 0.6236 -0.0084
v -0.4723 0.622 -0.0156
v -0.4656 0.6196 -0.0203
v -0.4577 0.6167 -0.022
v -0.4498 0.6138 -0.0203
v -0.4431 0.6113 -0.0156
v -0.4386 0.6097 -0.0084
v -0.3616 0.8158 0
v -0.3632 0.8164 0.0084
v -0.3677 0.818 0.0156
v -0.3744 0.8204 0.0203
v -0.3823 0.8233 0.022
v -0.3902 0.8262 0.0203
v -0.3969 0.8287 0.0156
v -0.4014 0.8303 0.0084
v -0.4029 0.8309 0
v -0.4014 0.8303 -0.0084
v -0.3969 0.8287 -0.0156
v -0.3902 0.8262 -0.0203
v -0.3823 0.8233 -0.022
v -0.3744 0.8204 -0.0203
v -0.3677 0.818 -0.0156
v -0.3632 0.8164 -0.0084
v -0.4577 0.6167 0
v -0.3823 0.8233 0
v -0.4 0.79 -0.015
v -0.3942 0.79 -0.0139
v -0.3894 0.79 -0.0106
v -0.3861 0.79 -0.0057
v -0.385 0.79 0
v -0.3861 0.79 0.0058
v -0.3894 0.79 0.0106
v -0.3943 0.79 0.0139
v -0.4 0.79 0.015
v -0.4058 0.79 0.0139
v -0.4106 0.79 0.0106
v -0.4139 0.79 0.0057
v -0.415 0.79 0
v -0.4139 0.79 -0.0058
v -0.4106 0.79 -0.0106
v -0.4057 0.79 -0.0139
v -0.4 0.91 -0.015
v -0.3942 0.91 -0.0139
v -0.3894 0.91 -0.0106
v -0.3861 0.91 -0.0057
v -0.385 0.91 0
v -0.3861 0.91 0.0058
v -0.3894 0.91 0.0106
v -0.3943 0.91 0.0139
v -0.4 0.91 0.015
v -0.4058 0.91 0.0139
v -0.4106 0.91 0.0106
v -0.4139 0.91 0.0057
v -0.415 0.91 0
v -0.4139 0.91 -0.0058
v -0.4106 0.91 -0.0106
v -0.4057 0.91 -0.0139
v -0.4 0.79 0
v -0.4 0.91 0
v -0.292 0.85 0
v -0.301 0.8656 0
v -0.319 0.8656 0
v -0.328 0.85 0
v -0.319 0.8344 0
v -0.301 0.8344 0
v -0.292 0.85 0
v -0.3184 0.85 0.0811
v -0.3256 0.8656 0.0758
v -0.3402 0.8656 0.0652
v -0.3475 0.85 0.06
v -0.3402 0.8344 0.0652
v -0.3256 0.8344 0.0758
v -0.3184 0.85 0.0811
v -0.3874 0.85 0.1312
v -0.3901 0.8656 0.1227
v -0.3957 0.8656 0.1056
v -0.3985 0.85 0.097
v -0.3957 0.8344 0.1056
v -0.3901 0.8344 0.1227
v -0.3874 0.85 0.1312
v -0.4726 0.85 0.1312
v -0.4699 0.8656 0.1227
v -0.4643 0.8656 0.1056
v -0.4615 0.85 0.097
v -0.4643 0.8344 0.1056
v -0.4699 0.8344 0.1227
v -0.4726 0.85 0.1312
v -0.5416 0.85 0.0811
v -0.5344 0.8656 0.0758
v -0.5198 0.8656 0.0652
v -0.5125 0.85 0.06
v -0.5198 0.8344 0.0652
v -0.5344 0.8344 0.0758
v -0.5416 0.85 0.0811
v -0.568 0.85 0
v -0.559 0.8656 0
v -0.541 0.8656 0
v -0.532 0.85 0
v -0.541 0.8344 0
v -0.559 0.8344 0
v -0.568 0.85 0
v -0.5416 0.85 -0.0811
v -0.5344 0.8656 -0.0758
v -0.5198 0.8656 -0.0652
v -0.5125 0.85 -0.06
v -0.5198 0.8344 -0.0652
v -0.5344 0.8344 -0.0758
v -0.5416 0.85 -0.0811
v -0.4726 0.85 -0.1312
v -0.4699 0.8656 -0.1227
v -0.4643 0.8656 -0.1056
v -0.4615 0.85 -0.097
v -0.4643 0.8344 -0.1056
v -0.4699 0.8344 -0.1227
v -0.4726 0.85 -0.1312
v -0.3874 0.85 -0.1312
v -0.3901 0.8656 -0.1227
v -0.3957 0.8656 -0.1056
v -0.3985 0.85 -0.097
v -0.3957 0.8344 -0.1056
v -0.3901 0.8344 -0.1227
v -0.3874 0.85 -0.1312
v -0.3184 0.85 -0.0811
v -0.3256 0.8656 -0.0758
v -0.3402 0.8656 -0.0652
v -0.3475 0.85 -0.06
v -0.3402 0.8344 -0.0652
v -0.3256 0.8344 -0.0758
v -0.3184 0.85 -0.0811
v -0.292 0.85 0
v -0.301 0.8656 0
v -0.319 0.8656 0
v -0.328 0.85 0
v -0.319 0.8344 0
v -0.301 0.8344 0
v -0.292 0.85 0
v 0.2201 0.33 -0.04
v 0.2545 0.33 -0.0331
v 0.2837 0.33 -0.0136
v 0.3032 0.33 0.0156
v 0.31 0.33 0.0501
v 0.3031 0.33 0.0845
v 0.2836 0.33 0.1137
v 0.2544 0.33 0.1332
v 0.2199 0.33 0.14
v 0.1855 0.33 0.1331
v 0.1563 0.33 0.1136
v 0.1368 0.33 0.0844
v 0.13 0.33 0.0499
v 0.1369 0.33 0.0155
v 0.1564 0.33 -0.0137
v 0.1856 0.33 -0.0332
v 0.2201 0.37 -0.04
v 0.2545 0.37 -0.0331
v 0.2837 0.37 -0.0136
v 0.3032 0.37 0.0156
v 0.31 0.37 0.0501
v 0.3031 0.37 0.0845
v 0.2836 0.37 0.1137
v 0.2544 0.37 0.1332
v 0.2199 0.37 0.14
v 0.1855 0.37 0.1331
v 0.1563 0.37 0.1136
v 0.1368 0.37 0.0844
v 0.13 0.37 0.0499
v 0.1369 0.37 0.0155
v 0.1564 0.37 -0.0137
v 0.1856 0.37 -0.0332
v 0.22 0.33 0.05
v 0.22 0.37 0.05
v 0.18 0.2 0.07
v 0.26 0.2 0.07
v 0.26 0.24 0.07
v 0.18 0.24 0.07
v 0.18 0.2 0.17
v 0.26 0.2 0.17
v 0.26 0.24 0.17
v 0.18 0.24 0.17
vt 0 0
vt 0 0.16666666666666666
vt 0 0.3333333333333333
vt 0 0.5
vt 0 0.6666666666666666
vt 0 0.8333333333333334
vt 0 1
vt 0.1 0
vt 0.1 0.16666666666666666
vt 0.1 0.3333333333333333
vt 0.1 0.5
vt 0.1 0.6666666666666666
vt 0.1 0.8333333333333334
vt 0.1 1
vt 0.2 0
vt 0.2 0.16666666666666666
vt 0.2 0.3333333333333333
vt 0.2 0.5
vt 0.2 0.6666666666666666
vt 0.2 0.8333333333333334
vt 0.2 1
vt 0.3 0
vt 0.3 0.16666666666666666
vt 0.3 0.3333333333333333
vt 0.3 0.5
vt 0.3 0.6666666666666666
vt 0.3 0.8333333333333334
vt 0.3 1
vt 0.4 0
vt 0.4 0.16666666666666666
vt 0.4 0.3333333333333333
vt 0.4 0.5
vt 0.4 0.6666666666666666
vt 0.4 0.8333333333333334
vt 0.4 1
vt 0.5 0
vt 0.5 0.16666666666666666
vt 0.5 0.3333333333333333
vt 0.5 0.5
vt 0.5 0.6666666666666666
vt 0.5 0.8333333333333334
vt 0.5 1
vt 0.6 0
vt 0.6 0.16666666666666666
vt 0.6 0.3333333333333333
vt 0.6 0.5
vt 0.6 0.6666666666666666
vt 0.6 0.8333333333333334
vt 0.6 1
vt 0.7 0
vt 0.7 0.16666666666666666
vt 0.7 0.3333333333333333
vt 0.7 0.5
vt 0.7 0.6666666666666666
vt 0.7 0.8333333333333334
vt 0.7 1
vt 0.8 0
vt 0.8 0.16666666666666666
vt 0.8 0.3333333333333333
vt 0.8 0.5
vt 0.8 0.6666666666666666
vt 0.8 0.8333333333333334
vt 0.8 1
vt 0.9 0
vt 0.9 0.16666666666666666
vt 0.9 0.3333333333333333
vt 0.9 0.5
vt 0.9 0.6666666666666666
vt 0.9 0.8333333333333334
vt 0.9 1
vt 1 0
vt 1 0.16666666666666666
vt 1 0.3333333333333333
vt 1 0.5
vt 1 0.6666666666666666
vt 1 0.8333333333333334
vt 1 1
vt 0 0
vt 0 0.16666666666666666
vt 0 0.3333333333333333
vt 0 0.5
vt 0 0.6666666666666666
vt 0 0.8333333333333334
vt 0 1
vt 0.1 0
vt 0.1 0.16666666666666666
vt 0.1 0.3333333333333333
vt 0.1 0.5
vt 0.1 0.6666666666666666
vt 0.1 0.8333333333333334
vt 0.1 1
vt 0.2 0
vt 0.2 0.16666666666666666
vt 0.2 0.3333333333333333
vt 0.2 0.5
vt 0.2 0.6666666666666666
vt 0.2 0.8333333333333334
vt 0.2 1
vt 0.3 0
vt 0.3 0.16666666666666666
vt 0.3 0.3333333333333333
vt 0.3 0.5
vt 0.3 0.6666666666666666
vt 0.3 0.8333333333333334
vt 0.3 1
vt 0.4 0
vt 0.4 0.16666666666666666
vt 0.4 0.3333333333333333
vt 0.4 0.5
vt 0.4 0.6666666666666666
vt 0.4 0.8333333333333334
vt 0.4 1
vt 0.5 0
vt 0.5 0.16666666666666666
vt 0.5 0.3333333333333333
vt 0.5 0.5
vt 0.5 0.6666666666666666
vt 0.5 0.8333333333333334
vt 0.5 1
vt 0.6 0
vt 0.6 0.16666666666666666
vt 0.6 0.3333333333333333
vt 0.6 0.5
vt 0.6 0.6666666666666666
vt 0.6 0.8333333333333334
vt 0.6 1
vt 0.7 0
vt 0.7 0.16666666666666666
vt 0.7 0.3333333333333333
vt 0.7 0.5
vt 0.7 0.6666666666666666
vt 0.7 0.8333333333333334
vt 0.7 1
vt 0.8 0
vt 0.8 0.16666666666666666
vt 0.8 0.3333333333333333
vt 0.8 0.5
vt 0.8 0.6666666666666666
vt 0.8 0.8333333333333334
vt 0.8 1
vt 0.9 0
vt 0.9 0.16666666666666666
vt 0.9 0.3333333333333333
vt 0.9 0.5
vt 0.9 0.6666666666666666
vt 0.9 0.8333333333333334
vt 0.9 1
vt 1 0
vt 1 0.16666666666666666
vt 1 0.3333333333333333
vt 1 0.5
vt 1 0.6666666666666666
vt 1 0.8333333333333334
vt 1 1
vt 0 0
vt 0.0625 0
vt 0.125 0
vt 0.1875 0
vt 0.25 0
vt 0.3125 0
vt 0.375 0
vt 0.4375 0
vt 0.5 0
vt 0.5625 0
vt 0.625 0
vt 0.6875 0
vt 0.75 0
vt 0.8125 0
vt 0.875 0
vt 0.9375 0
vt 0 1
vt 0.0625 1
vt 0.125 1
vt 0.1875 1
vt 0.25 1
vt 0.3125 1
vt 0.375 1
vt 0.4375 1
vt 0.5 1
vt 0.5625 1
vt 0.625 1
vt 0.6875 1
vt 0.75 1
vt 0.8125 1
vt 0.875 1
vt 0.9375 1
vt 0.5 0.5
vt 0.5 0.5
vt 0 0
vt 0.0625 0
vt 0.125 0
vt 0.1875 0
vt 0.25 0
vt 0.3125 0
vt 0.375 0
vt 0.4375 0
vt 0.5 0
vt 0.5625 0
vt 0.625 0
vt 0.6875 0
vt 0.75 0
vt 0.8125 0
vt 0.875 0
vt 0.9375 0
vt 0 1
vt 0.0625 1
vt 0.125 1
vt 0.1875 1
vt 0.25 1
vt 0.3125 1
vt 0.375 1
vt 0.4375 1
vt 0.5 1
vt 0.5625 1
vt 0.625 1
vt 0.6875 1
vt 0.75 1
vt 0.8125 1
vt 0.875 1
vt 0.9375 1
vt 0.5 0.5
vt 0.5 0.5
vt 0 0
vt 0.0625 0
vt 0.125 0
vt 0.1875 0
vt 0.25 0
vt 0.3125 0
vt 0.375 0
vt 0.4375 0
vt 0.5 0
vt 0.5625 0
vt 0.625 0
vt 0.6875 0
vt 0.75 0
vt 0.8125 0
vt 0.875 0
vt 0.9375 0
vt 0 1
vt 0.0625 1
vt 0.125 1
vt 0.1875 1
vt 0.25 1
vt 0.3125 1
vt 0.375 1
vt 0.4375 1
vt 0.5 1
vt 0.5625 1
vt 0.625 1
vt 0.6875 1
vt 0.75 1
vt 0.8125 1
vt 0.875 1
vt 0.9375 1
vt 0.5 0.5
vt 0.5 0.5
vt 0 0
vt 0.0625 0
vt 0.125 0
vt 0.1875 0
vt 0.25 0
vt 0.3125 0
vt 0.375 0
vt 0.4375 0
vt 0.5 0
vt 0.5625 0
vt 0.625 0
vt 0.6875 0
vt 0.75 0
vt 0.8125 0
vt 0.875 0
vt 0.9375 0
vt 0 1
vt 0.0625 1
vt 0.125 1
vt 0.1875 1
vt 0.25 1
vt 0.3125 1
vt 0.375 1
vt 0.4375 1
vt 0.5 1
vt 0.5625 1
vt 0.625 1
vt 0.6875 1
vt 0.75 1
vt 0.8125 1
vt 0.875 1
vt 0.9375 1
vt 0.5 0.5
vt 0.5 0.5
vt 0.5 0.5
vt 0.5 0.5
vt 0.5 0.5
vt 0.5 0.5
vt 0.5 0.5
vt 0.5 0.5
vt 0.5 0.5
vt 0.5 0.5
vt 0 0
vt 0.08333333333333333 0
vt 0.16666666666666666 0
vt 0.25 0
vt 0.3333333333333333 0
vt 0.4166666666666667 0
vt 0.5 0
vt 0.5833333333333334 0
vt 0.6666666666666666 0
vt 0.75 0
vt 0.8333333333333334 0
vt 0.9166666666666666 0
vt 0 1
vt 0.08333333333333333 1
vt 0.16666666666666666 1
vt 0.25 1
vt 0.3333333333333333 1
vt 0.4166666666666667 1
vt 0.5 1
vt 0.5833333333333334 1
vt 0.6666666666666666 1
vt 0.75 1
vt 0.8333333333333334 1
vt 0.9166666666666666 1
vt 0.5 0.5
vt 0.5 0.5
vt 0 0
vt 0.08333333333333333 0
vt 0.16666666666666666 0
vt 0.25 0
vt 0.3333333333333333 0
vt 0.4166666666666667 0
vt 0.5 0
vt 0.5833333333333334 0
vt 0.6666666666666666 0
vt 0.75 0
vt 0.8333333333333334 0
vt 0.9166666666666666 0
vt 0 1
vt 0.08333333333333333 1
vt 0.16666666666666666 1
vt 0.25 1
vt 0.3333333333333333 1
vt 0.4166666666666667 1
vt 0.5 1
vt 0.5833333333333334 1
vt 0.6666666666666666 1
vt 0.75 1
vt 0.8333333333333334 1
vt 0.9166666666666666 1
vt 0.5 0.5
vt 0.5 0.5
vt 0 0
vt 0.08333333333333333 0
vt 0.16666666666666666 0
vt 0.25 0
vt 0.3333333333333333 0
vt 0.4166666666666667 0
vt 0.5 0
vt 0.5833333333333334 0
vt 0.6666666666666666 0
vt 0.75 0
vt 0.8333333333333334 0
vt 0.9166666666666666 0
vt 0 1
vt 0.08333333333333333 1
vt 0.16666666666666666 1
vt 0.25 1
vt 0.3333333333333333 1
vt 0.4166666666666667 1
vt 0.5 1
vt 0.5833333333333334 1
vt 0.6666666666666666 1
vt 0.75 1
vt 0.8333333333333334 1
vt 0.9166666666666666 1
vt 0.5 0.5
vt 0.5 0.5
vt 0 0
vt 0.08333333333333333 0
vt 0.16666666666666666 0
vt 0.25 0
vt 0.3333333333333333 0
vt 0.4166666666666667 0
vt 0.5 0
vt 0.5833333333333334 0
vt 0.6666666666666666 0
vt 0.75 0
vt 0.8333333333333334 0
vt 0.9166666666666666 0
vt 0 1
vt 0.08333333333333333 1
vt 0.16666666666666666 1
vt 0.25 1
vt 0.3333333333333333 1
vt 0.4166666666666667 1
vt 0.5 1
vt 0.5833333333333334 1
vt 0.6666666666666666 1
vt 0.75 1
vt 0.8333333333333334 1
vt 0.9166666666666666 1
vt 0.5 0.5
vt 0.5 0.5
vt 0 0
vt 0.0625 0
vt 0.125 0
vt 0.1875 0
vt 0.25 0
vt 0.3125 0
vt 0.375 0
vt 0.4375 0
vt 0.5 0
vt 0.5625 0
vt 0.625 0
vt 0.6875 0
vt 0.75 0
vt 0.8125 0
vt 0.875 0
vt 0.9375 0
vt 0 1
vt 0.0625 1
vt 0.125 1
vt 0.1875 1
vt 0.25 1
vt 0.3125 1
vt 0.375 1
vt 0.4375 1
vt 0.5 1
vt 0.5625 1
vt 0.625 1
vt 0.6875 1
vt 0.75 1
vt 0.8125 1
vt 0.875 1
vt 0.9375 1
vt 0.5 0.5
vt 0.5 0.5
vt 0 0
vt 0.0625 0
vt 0.125 0
vt 0.1875 0
vt 0.25 0
vt 0.3125 0
vt 0.375 0
vt 0.4375 0
vt 0.5 0
vt 0.5625 0
vt 0.625 0
vt 0.6875 0
vt 0.75 0
vt 0.8125 0
vt 0.875 0
vt 0.9375 0
vt 0 1
vt 0.0625 1
vt 0.125 1
vt 0.1875 1
vt 0.25 1
vt 0.3125 1
vt 0.375 1
vt 0.4375 1
vt 0.5 1
vt 0.5625 1
vt 0.625 1
vt 0.6875 1
vt 0.75 1
vt 0.8125 1
vt 0.875 1
vt 0.9375 1
vt 0.5 0.5
vt 0.5 0.5
vt 0 0
vt 0.0625 0
vt 0.125 0
vt 0.1875 0
vt 0.25 0
vt 0.3125 0
vt 0.375 0
vt 0.4375 0
vt 0.5 0
vt 0.5625 0
vt 0.625 0
vt 0.6875 0
vt 0.75 0
vt 0.8125 0
vt 0.875 0
vt 0.9375 0
vt 0 1
vt 0.0625 1
vt 0.125 1
vt 0.1875 1
vt 0.25 1
vt 0.3125 1
vt 0.375 1
vt 0.4375 1
vt 0.5 1
vt 0.5625 1
vt 0.625 1
vt 0.6875 1
vt 0.75 1
vt 0.8125 1
vt 0.875 1
vt 0.9375 1
vt 0.5 0.5
vt 0.5 0.5
vt 0 0
vt 0 0.16666666666666666
vt 0 0.3333333333333333
vt 0 0.5
vt 0 0.6666666666666666
vt 0 0.8333333333333334
vt 0 1
vt 0.1 0
vt 0.1 0.16666666666666666
vt 0.1 0.3333333333333333
vt 0.1 0.5
vt 0.1 0.6666666666666666
vt 0.1 0.8333333333333334
vt 0.1 1
vt 0.2 0
vt 0.2 0.16666666666666666
vt 0.2 0.3333333333333333
vt 0.2 0.5
vt 0.2 0.6666666666666666
vt 0.2 0.8333333333333334
vt 0.2 1
vt 0.3 0
vt 0.3 0.16666666666666666
vt 0.3 0.3333333333333333
vt 0.3 0.5
vt 0.3 0.6666666666666666
vt 0.3 0.8333333333333334
vt 0.3 1
vt 0.4 0
vt 0.4 0.16666666666666666
vt 0.4 0.3333333333333333
vt 0.4 0.5
vt 0.4 0.6666666666666666
vt 0.4 0.8333333333333334
vt 0.4 1
vt 0.5 0
vt 0.5 0.16666666666666666
vt 0.5 0.3333333333333333
vt 0.5 0.5
vt 0.5 0.6666666666666666
vt 0.5 0.8333333333333334
vt 0.5 1
vt 0.6 0
vt 0.6 0.16666666666666666
vt 0.6 0.3333333333333333
vt 0.6 0.5
vt 0.6 0.6666666666666666
vt 0.6 0.8333333333333334
vt 0.6 1
vt 0.7 0
vt 0.7 0.16666666666666666
vt 0.7 0.3333333333333333
vt 0.7 0.5
vt 0.7 0.6666666666666666
vt 0.7 0.8333333333333334
vt 0.7 1
vt 0.8 0
vt 0.8 0.16666666666666666
vt 0.8 0.3333333333333333
vt 0.8 0.5
vt 0.8 0.6666666666666666
vt 0.8 0.8333333333333334
vt 0.8 1
vt 0.9 0
vt 0.9 0.16666666666666666
vt 0.9 0.3333333333333333
vt 0.9 0.5
vt 0.9 0.6666666666666666
vt 0.9 0.8333333333333334
vt 0.9 1
vt 1 0
vt 1 0.16666666666666666
vt 1 0.3333333333333333
vt 1 0.5
vt 1 0.6666666666666666
vt 1 0.8333333333333334
vt 1 1
vt 0 0
vt 0.0625 0
vt 0.125 0
vt 0.1875 0
vt 0.25 0
vt 0.3125 0
vt 0.375 0
vt 0.4375 0
vt 0.5 0
vt 0.5625 0
vt 0.625 0
vt 0.6875 0
vt 0.75 0
vt 0.8125 0
vt 0.875 0
vt 0.9375 0
vt 0 1
vt 0.0625 1
vt 0.125 1
vt 0.1875 1
vt 0.25 1
vt 0.3125 1
vt 0.375 1
vt 0.4375 1
vt 0.5 1
vt 0.5625 1
vt 0.625 1
vt 0.6875 1
vt 0.75 1
vt 0.8125 1
vt 0.875 1
vt 0.9375 1
vt 0.5 0.5
vt 0.5 0.5
vt 0.5 0.5
vt 0.5 0.5
vt 0.5 0.5
vt 0.5 0.5
vt 0.5 0.5
vt 0.5 0.5
vt 0.5 0.5
vt 0.5 0.5
vn 1 0 0
vn 0.5000000000000001 0.8660254037844386 0
vn -0.4999999999999998 0.8660254037844387 0
vn -1 1.2246467991473532e-16 0
vn -0.5000000000000004 -0.8660254037844385 0
vn 0.5000000000000001 -0.8660254037844386 0
vn 1 -2.4492935982947064e-16 0
vn 0.8090169943749475 0 0.5877852522924731
vn 0.40450849718747384 0.8660254037844386 0.2938926261462366
vn -0.40450849718747356 0.8660254037844387 -0.29389262614623646
vn -0.8090169943749475 1.2246467991473532e-16 -0.5877852522924731
vn -0.40450849718747406 -0.8660254037844385 -0.29389262614623685
vn 0.40450849718747384 -0.8660254037844386 0.2938926261462366
vn 0.8090169943749475 -2.4492935982947064e-16 0.5877852522924731
vn 0.30901699437494745 0 0.9510565162951535
vn 0.15450849718747375 0.8660254037844386 0.4755282581475769
vn -0.15450849718747367 0.8660254037844387 -0.47552825814757654
vn -0.30901699437494745 1.2246467991473532e-16 -0.9510565162951535
vn -0.15450849718747386 -0.8660254037844385 -0.4755282581475772
vn 0.15450849718747375 -0.8660254037844386 0.4755282581475769
vn 0.30901699437494745 -2.4492935982947064e-16 0.9510565162951535
vn -0.30901699437494734 0 0.9510565162951536
vn -0.1545084971874737 0.8660254037844386 0.47552825814757693
vn 0.15450849718747361 0.8660254037844387 -0.4755282581475766
vn 0.30901699437494734 1.2246467991473532e-16 -0.9510565162951536
vn 0.1545084971874738 -0.8660254037844385 -0.47552825814757727
vn -0.1545084971874737 -0.8660254037844386 0.47552825814757693
vn -0.30901699437494734 -2.4492935982947064e-16 0.9510565162951536
vn -0.8090169943749473 0 0.5877852522924732
vn -0.4045084971874738 0.8660254037844386 0.2938926261462367
vn 0.4045084971874735 0.8660254037844387 -0.2938926261462365
vn 0.8090169943749473 1.2246467991473532e-16 -0.5877852522924732
vn 0.404508497187474 -0.8660254037844385 -0.2938926261462369
vn -0.4045084971874738 -0.8660254037844386 0.2938926261462367
vn -0.8090169943749473 -2.4492935982947064e-16 0.5877852522924732
vn -1 0 1.2246467991473532e-16
vn -0.5000000000000001 0.8660254037844386 6.123233995736767e-17
vn 0.4999999999999998 0.8660254037844387 -6.123233995736764e-17
vn 1 1.2246467991473532e-16 -1.2246467991473532e-16
vn 0.5000000000000004 -0.8660254037844385 -6.123233995736771e-17
vn -0.5000000000000001 -0.8660254037844386 6.123233995736767e-17
vn -1 -2.4492935982947064e-16 1.2246467991473532e-16
vn -0.8090169943749475 0 -0.587785252292473
vn -0.40450849718747384 0.8660254037844386 -0.29389262614623657
vn 0.40450849718747356 0.8660254037844387 0.2938926261462364
vn 0.8090169943749475 1.2246467991473532e-16 0.587785252292473
vn 0.40450849718747406 -0.8660254037844385 0.2938926261462368
vn -0.40450849718747384 -0.8660254037844386 -0.29389262614623657
vn -0.8090169943749475 -2.4492935982947064e-16 -0.587785252292473
vn -0.30901699437494756 0 -0.9510565162951535
vn -0.1545084971874738 0.8660254037844386 -0.4755282581475769
vn 0.15450849718747373 0.8660254037844387 0.47552825814757654
vn 0.30901699437494756 1.2246467991473532e-16 0.9510565162951535
vn 0.15450849718747392 -0.8660254037844385 0.4755282581475772
vn -0.1545084971874738 -0.8660254037844386 -0.4755282581475769
vn -0.30901699437494756 -2.4492935982947064e-16 -0.9510565162951535
vn 0.30901699437494723 0 -0.9510565162951536
vn 0.15450849718747364 0.8660254037844386 -0.47552825814757693
vn -0.15450849718747356 0.8660254037844387 0.4755282581475766
vn -0.30901699437494723 1.2246467991473532e-16 0.9510565162951536
vn -0.15450849718747375 -0.8660254037844385 0.47552825814757727
vn 0.15450849718747364 -0.8660254037844386 -0.47552825814757693
vn 0.30901699437494723 -2.4492935982947064e-16 -0.9510565162951536
vn 0.8090169943749473 0 -0.5877852522924734
vn 0.4045084971874738 0.8660254037844386 -0.29389262614623674
vn -0.4045084971874735 0.8660254037844387 0.29389262614623657
vn -0.8090169943749473 1.2246467991473532e-16 0.5877852522924734
vn -0.404508497187474 -0.8660254037844385 0.29389262614623696
vn 0.4045084971874738 -0.8660254037844386 -0.29389262614623674
vn 0.8090169943749473 -2.4492935982947064e-16 -0.5877852522924734
vn 1 0 -2.4492935982947064e-16
vn 0.5000000000000001 0.8660254037844386 -1.2246467991473535e-16
vn -0.4999999999999998 0.8660254037844387 1.2246467991473527e-16
vn -1 1.2246467991473532e-16 2.4492935982947064e-16
vn -0.5000000000000004 -0.8660254037844385 1.2246467991473542e-16
vn 0.5000000000000001 -0.8660254037844386 -1.2246467991473535e-16
vn 1 -2.4492935982947064e-16 -2.4492935982947064e-16
vn 1 0 0
vn 0.5000000000000001 0.8660254037844386 0
vn -0.4999999999999998 0.8660254037844387 0
vn -1 1.2246467991473532e-16 0
vn -0.5000000000000004 -0.8660254037844385 0
vn 0.5000000000000001 -0.8660254037844386 0
vn 1 -2.4492935982947064e-16 0
vn 0.8090169943749475 0 0.5877852522924731
vn 0.40450849718747384 0.8660254037844386 0.2938926261462366
vn -0.40450849718747356 0.8660254037844387 -0.29389262614623646
vn -0.8090169943749475 1.2246467991473532e-16 -0.5877852522924731
vn -0.40450849718747406 -0.8660254037844385 -0.29389262614623685
vn 0.40450849718747384 -0.8660254037844386 0.2938926261462366
vn 0.8090169943749475 -2.4492935982947064e-16 0.5877852522924731
vn 0.30901699437494745 0 0.9510565162951535
vn 0.15450849718747375 0.8660254037844386 0.4755282581475769
vn -0.15450849718747367 0.8660254037844387 -0.47552825814757654
vn -0.30901699437494745 1.2246467991473532e-16 -0.9510565162951535
vn -0.15450849718747386 -0.8660254037844385 -0.4755282581475772
vn 0.15450849718747375 -0.8660254037844386 0.4755282581475769
vn 0.30901699437494745 -2.4492935982947064e-16 0.9510565162951535
vn -0.30901699437494734 0 0.9510565162951536
vn -0.1545084971874737 0.8660254037844386 0.47552825814757693
vn 0.15450849718747361 0.8660254037844387 -0.4755282581475766
vn 0.30901699437494734 1.2246467991473532e-16 -0.9510565162951536
vn 0.1545084971874738 -0.8660254037844385 -0.47552825814757727
vn -0.1545084971874737 -0.8660254037844386 0.47552825814757693
vn -0.30901699437494734 -2.4492935982947064e-16 0.9510565162951536
vn -0.8090169943749473 0 0.5877852522924732
vn -0.4045084971874738 0.8660254037844386 0.2938926261462367
vn 0.4045084971874735 0.8660254037844387 -0.2938926261462365
vn 0.8090169943749473 1.2246467991473532e-16 -0.5877852522924732
vn 0.404508497187474 -0.8660254037844385 -0.2938926261462369
vn -0.4045084971874738 -0.8660254037844386 0.2938926261462367
vn -0.8090169943749473 -2.4492935982947064e-16 0.5877852522924732
vn -1 0 1.2246467991473532e-16
vn -0.5000000000000001 0.8660254037844386 6.123233995736767e-17
vn 0.4999999999999998 0.8660254037844387 -6.123233995736764e-17
vn 1 1.2246467991473532e-16 -1.2246467991473532e-16
vn 0.5000000000000004 -0.8660254037844385 -6.123233995736771e-17
vn -0.5000000000000001 -0.8660254037844386 6.123233995736767e-17
vn -1 -2.4492935982947064e-16 1.2246467991473532e-16
vn -0.8090169943749475 0 -0.587785252292473
vn -0.40450849718747384 0.8660254037844386 -0.29389262614623657
vn 0.40450849718747356 0.8660254037844387 0.2938926261462364
vn 0.8090169943749475 1.2246467991473532e-16 0.587785252292473
vn 0.40450849718747406 -0.8660254037844385 0.2938926261462368
vn -0.40450849718747384 -0.8660254037844386 -0.29389262614623657
vn -0.8090169943749475 -2.4492935982947064e-16 -0.587785252292473
vn -0.30901699437494756 0 -0.9510565162951535
vn -0.1545084971874738 0.8660254037844386 -0.4755282581475769
vn 0.15450849718747373 0.8660254037844387 0.47552825814757654
vn 0.30901699437494756 1.2246467991473532e-16 0.9510565162951535
vn 0.15450849718747392 -0.8660254037844385 0.4755282581475772
vn -0.1545084971874738 -0.8660254037844386 -0.4755282581475769
vn -0.30901699437494756 -2.4492935982947064e-16 -0.9510565162951535
vn 0.30901699437494723 0 -0.9510565162951536
vn 0.15450849718747364 0.8660254037844386 -0.47552825814757693
vn -0.15450849718747356 0.8660254037844387 0.4755282581475766
vn -0.30901699437494723 1.2246467991473532e-16 0.9510565162951536
vn -0.15450849718747375 -0.8660254037844385 0.47552825814757727
vn 0.15450849718747364 -0.8660254037844386 -0.47552825814757693
vn 0.30901699437494723 -2.4492935982947064e-16 -0.9510565162951536
vn 0.8090169943749473 0 -0.5877852522924734
vn 0.4045084971874738 0.8660254037844386 -0.29389262614623674
vn -0.4045084971874735 0.8660254037844387 0.29389262614623657
vn -0.8090169943749473 1.2246467991473532e-16 0.5877852522924734
vn -0.404508497187474 -0.8660254037844385 0.29389262614623696
vn 0.4045084971874738 -0.8660254037844386 -0.29389262614623674
vn 0.8090169943749473 -2.4492935982947064e-16 -0.5877852522924734
vn 1 0 -2.4492935982947064e-16
vn 0.5000000000000001 0.8660254037844386 -1.2246467991473535e-16
vn -0.4999999999999998 0.8660254037844387 1.2246467991473527e-16
vn -1 1.2246467991473532e-16 2.4492935982947064e-16
vn -0.5000000000000004 -0.8660254037844385 1.2246467991473542e-16
vn 0.5000000000000001 -0.8660254037844386 -1.2246467991473535e-16
vn 1 -2.4492935982947064e-16 -2.4492935982947064e-16
vn 0 -1 0
vn 0 -1 0
vn 0 -1 0
vn 0 -1 0
vn 0 -1 0
vn 0 -1 0
vn 0 -1 0
vn 0 -1 0
vn 0 -1 0
vn 0 -1 0
vn 0 -1 0
vn 0 -1 0
vn 0 -1 0
vn 0 -1 0
vn 0 -1 0
vn 0 -1 0
vn 0 1 0
vn 0 1 0
vn 0 1 0
vn 0 1 0
vn 0 1 0
vn 0 1 0
vn 0 1 0
vn 0 1 0
vn 0 1 0
vn 0 1 0
vn 0 1 0
vn 0 1 0
vn 0 1 0
vn 0 1 0
vn 0 1 0
vn 0 1 0
vn 0 -1 0
vn 0 1 0
vn 0 -1 0
vn 0 -1 0
vn 0 -1 0
vn 0 -1 0
vn 0 -1 0
vn 0 -1 0
vn 0 -1 0
vn 0 -1 0
vn 0 -1 0
vn 0 -1 0
vn 0 -1 0
vn 0 -1 0
vn 0 -1 0
vn 0 -1 0
vn 0 -1 0
vn 0 -1 0
vn 0 1 0
vn 0 1 0
vn 0 1 0
vn 0 1 0
vn 0 1 0
vn 0 1 0
vn 0 1 0
vn 0 1 0
vn 0 1 0
vn 0 1 0
vn 0 1 0
vn 0 1 0
vn 0 1 0
vn 0 1 0
vn 0 1 0
vn 0 1 0
vn 0 -1 0
vn 0 1 0
vn 0 -1 0
vn 0 -1 0
vn 0 -1 0
vn 0 -1 0
vn 0 -1 0
vn 0 -1 0
vn 0 -1 0
vn 0 -1 0
vn 0 -1 0
vn 0 -1 0
vn 0 -1 0
vn 0 -1 0
vn 0 -1 0
vn 0 -1 0
vn 0 -1 0
vn 0 -1 0
vn 0 1 0
vn 0 1 0
vn 0 1 0
vn 0 1 0
vn 0 1 0
vn 0 1 0
vn 0 1 0
vn 0 1 0
vn 0 1 0
vn 0 1 0
vn 0 1 0
vn 0 1 0
vn 0 1 0
vn 0 1 0
vn 0 1 0
vn 0 1 0
vn 0 -1 0
vn 0 1 0
vn 0 -1 0
vn 0 -1 0
vn 0 -1 0
vn 0 -1 0
vn 0 -1 0
vn 0 -1 0
vn 0 -1 0
vn 0 -1 0
vn 0 -1 0
vn 0 -1 0
vn 0 -1 0
vn 0 -1 0
vn 0 -1 0
vn 0 -1 0
vn 0 -1 0
vn 0 -1 0
vn 0 1 0
vn 0 1 0
vn 0 1 0
vn 0 1 0
vn 0 1 0
vn 0 1 0
vn 0 1 0
vn 0 1 0
vn 0 1 0
vn 0 1 0
vn 0 1 0
vn 0 1 0
vn 0 1 0
vn 0 1 0
vn 0 1 0
vn 0 1 0
vn 0 -1 0
vn 0 1 0
vn 0 1 0
vn 0 1 0
vn 0 1 0
vn 0 1 0
vn 0 1 0
vn 0 1 0
vn 0 1 0
vn 0 1 0
vn 0 -1 0
vn 0 -1 0
vn 0 -1 0
vn 0 -1 0
vn 0 -1 0
vn 0 -1 0
vn 0 -1 0
vn 0 -1 0
vn 0 -1 0
vn 0 -1 0
vn 0 -1 0
vn 0 -1 0
vn 0 1 0
vn 0 1 0
vn 0 1 0
vn 0 1 0
vn 0 1 0
vn 0 1 0
vn 0 1 0
vn 0 1 0
vn 0 1 0
vn 0 1 0
vn 0 1 0
vn 0 1 0
vn 0 -1 0
vn 0 1 0
vn 0 -1 0
vn 0 -1 0
vn 0 -1 0
vn 0 -1 0
vn 0 -1 0
vn 0 -1 0
vn 0 -1 0
vn 0 -1 0
vn 0 -1 0
vn 0 -1 0
vn 0 -1 0
vn 0 -1 0
vn 0 1 0
vn 0 1 0
vn 0 1 0
vn 0 1 0
vn 0 1 0
vn 0 1 0
vn 0 1 0
vn 0 1 0
vn 0 1 0
vn 0 1 0
vn 0 1 0
vn 0 1 0
vn 0 -1 0
vn 0 1 0
vn 0 -1 0
vn 0 -1 0
vn 0 -1 0
vn 0 -1 0
vn 0 -1 0
vn 0 -1 0
vn 0 -1 0
vn 0 -1 0
vn 0 -1 0
vn 0 -1 0
vn 0 -1 0
vn 0 -1 0
vn 0 1 0
vn 0 1 0
vn 0 1 0
vn 0 1 0
vn 0 1 0
vn 0 1 0
vn 0 1 0
vn 0 1 0
vn 0 1 0
vn 0 1 0
vn 0 1 0
vn 0 1 0
vn 0 -1 0
vn 0 1 0
vn 0 -1 0
vn 0 -1 0
vn 0 -1 0
vn 0 -1 0
vn 0 -1 0
vn 0 -1 0
vn 0 -1 0
vn 0 -1 0
vn 0 -1 0
vn 0 -1 0
vn 0 -1 0
vn 0 -1 0
vn 0 1 0
vn 0 1 0
vn 0 1 0
vn 0 1 0
vn 0 1 0
vn 0 1 0
vn 0 1 0
vn 0 1 0
vn 0 1 0
vn 0 1 0
vn 0 1 0
vn 0 1 0
vn 0 -1 0
vn 0 1 0
vn 0 -1 0
vn 0 -1 0
vn 0 -1 0
vn 0 -1 0
vn 0 -1 0
vn 0 -1 0
vn 0 -1 0
vn 0 -1 0
vn 0 -1 0
vn 0 -1 0
vn 0 -1 0
vn 0 -1 0
vn 0 -1 0
vn 0 -1 0
vn 0 -1 0
vn 0 -1 0
vn 0 1 0
vn 0 1 0
vn 0 1 0
vn 0 1 0
vn 0 1 0
vn 0 1 0
vn 0 1 0
vn 0 1 0
vn 0 1 0
vn 0 1 0
vn 0 1 0
vn 0 1 0
vn 0 1 0
vn 0 1 0
vn 0 1 0
vn 0 1 0
vn 0 -1 0
vn 0 1 0
vn 0 -1 0
vn 0 -1 0
vn 0 -1 0
vn 0 -1 0
vn 0 -1 0
vn 0 -1 0
vn 0 -1 0
vn 0 -1 0
vn 0 -1 0
vn 0 -1 0
vn 0 -1 0
vn 0 -1 0
vn 0 -1 0
vn 0 -1 0
vn 0 -1 0
vn 0 -1 0
vn 0 1 0
vn 0 1 0
vn 0 1 0
vn 0 1 0
vn 0 1 0
vn 0 1 0
vn 0 1 0
vn 0 1 0
vn 0 1 0
vn 0 1 0
vn 0 1 0
vn 0 1 0
vn 0 1 0
vn 0 1 0
vn 0 1 0
vn 0 1 0
vn 0 -1 0
vn 0 1 0
vn 0 -1 0
vn 0 -1 0
vn 0 -1 0
vn 0 -1 0
vn 0 -1 0
vn 0 -1 0
vn 0 -1 0
vn 0 -1 0
vn 0 -1 0
vn 0 -1 0
vn 0 -1 0
vn 0 -1 0
vn 0 -1 0
vn 0 -1 0
vn 0 -1 0
vn 0 -1 0
vn 0 1 0
vn 0 1 0
vn 0 1 0
vn 0 1 0
vn 0 1 0
vn 0 1 0
vn 0 1 0
vn 0 1 0
vn 0 1 0
vn 0 1 0
vn 0 1 0
vn 0 1 0
vn 0 1 0
vn 0 1 0
vn 0 1 0
vn 0 1 0
vn 0 -1 0
vn 0 1 0
vn 1 0 0
vn 0.5000000000000001 0.8660254037844386 0
vn -0.4999999999999998 0.8660254037844387 0
vn -1 1.2246467991473532e-16 0
vn -0.5000000000000004 -0.8660254037844385 0
vn 0.5000000000000001 -0.8660254037844386 0
vn 1 -2.4492935982947064e-16 0
vn 0.8090169943749475 0 0.5877852522924731
vn 0.40450849718747384 0.8660254037844386 0.2938926261462366
vn -0.40450849718747356 0.8660254037844387 -0.29389262614623646
vn -0.8090169943749475 1.2246467991473532e-16 -0.5877852522924731
vn -0.40450849718747406 -0.8660254037844385 -0.29389262614623685
vn 0.40450849718747384 -0.8660254037844386 0.2938926261462366
vn 0.8090169943749475 -2.4492935982947064e-16 0.5877852522924731
vn 0.30901699437494745 0 0.9510565162951535
vn 0.15450849718747375 0.8660254037844386 0.4755282581475769
vn -0.15450849718747367 0.8660254037844387 -0.47552825814757654
vn -0.30901699437494745 1.2246467991473532e-16 -0.9510565162951535
vn -0.15450849718747386 -0.8660254037844385 -0.4755282581475772
vn 0.15450849718747375 -0.8660254037844386 0.4755282581475769
vn 0.30901699437494745 -2.4492935982947064e-16 0.9510565162951535
vn -0.30901699437494734 0 0.9510565162951536
vn -0.1545084971874737 0.8660254037844386 0.47552825814757693
vn 0.15450849718747361 0.8660254037844387 -0.4755282581475766
vn 0.30901699437494734 1.2246467991473532e-16 -0.9510565162951536
vn 0.1545084971874738 -0.8660254037844385 -0.47552825814757727
vn -0.1545084971874737 -0.8660254037844386 0.47552825814757693
vn -0.30901699437494734 -2.4492935982947064e-16 0.9510565162951536
vn -0.8090169943749473 0 0.5877852522924732
vn -0.4045084971874738 0.8660254037844386 0.2938926261462367
vn 0.4045084971874735 0.8660254037844387 -0.2938926261462365
vn 0.8090169943749473 1.2246467991473532e-16 -0.5877852522924732
vn 0.404508497187474 -0.8660254037844385 -0.2938926261462369
vn -0.4045084971874738 -0.8660254037844386 0.2938926261462367
vn -0.8090169943749473 -2.4492935982947064e-16 0.5877852522924732
vn -1 0 1.2246467991473532e-16
vn -0.5000000000000001 0.8660254037844386 6.123233995736767e-17
vn 0.4999999999999998 0.8660254037844387 -6.123233995736764e-17
vn 1 1.2246467991473532e-16 -1.2246467991473532e-16
vn 0.5000000000000004 -0.8660254037844385 -6.123233995736771e-17
vn -0.5000000000000001 -0.8660254037844386 6.123233995736767e-17
vn -1 -2.4492935982947064e-16 1.2246467991473532e-16
vn -0.8090169943749475 0 -0.587785252292473
vn -0.40450849718747384 0.8660254037844386 -0.29389262614623657
vn 0.40450849718747356 0.8660254037844387 0.2938926261462364
vn 0.8090169943749475 1.2246467991473532e-16 0.587785252292473
vn 0.40450849718747406 -0.8660254037844385 0.2938926261462368
vn -0.40450849718747384 -0.8660254037844386 -0.29389262614623657
vn -0.8090169943749475 -2.4492935982947064e-16 -0.587785252292473
vn -0.30901699437494756 0 -0.9510565162951535
vn -0.1545084971874738 0.8660254037844386 -0.4755282581475769
vn 0.15450849718747373 0.8660254037844387 0.47552825814757654
vn 0.30901699437494756 1.2246467991473532e-16 0.9510565162951535
vn 0.15450849718747392 -0.8660254037844385 0.4755282581475772
vn -0.1545084971874738 -0.8660254037844386 -0.4755282581475769
vn -0.30901699437494756 -2.4492935982947064e-16 -0.9510565162951535
vn 0.30901699437494723 0 -0.9510565162951536
vn 0.15450849718747364 0.8660254037844386 -0.47552825814757693
vn -0.15450849718747356 0.8660254037844387 0.4755282581475766
vn -0.30901699437494723 1.2246467991473532e-16 0.9510565162951536
vn -0.15450849718747375 -0.8660254037844385 0.47552825814757727
vn 0.15450849718747364 -0.8660254037844386 -0.47552825814757693
vn 0.30901699437494723 -2.4492935982947064e-16 -0.9510565162951536
vn 0.8090169943749473 0 -0.5877852522924734
vn 0.4045084971874738 0.8660254037844386 -0.29389262614623674
vn -0.4045084971874735 0.8660254037844387 0.29389262614623657
vn -0.8090169943749473 1.2246467991473532e-16 0.5877852522924734
vn -0.404508497187474 -0.8660254037844385 0.29389262614623696
vn 0.4045084971874738 -0.8660254037844386 -0.29389262614623674
vn 0.8090169943749473 -2.4492935982947064e-16 -0.5877852522924734
vn 1 0 -2.4492935982947064e-16
vn 0.5000000000000001 0.8660254037844386 -1.2246467991473535e-16
vn -0.4999999999999998 0.8660254037844387 1.2246467991473527e-16
vn -1 1.2246467991473532e-16 2.4492935982947064e-16
vn -0.5000000000000004 -0.8660254037844385 1.2246467991473542e-16
vn 0.5000000000000001 -0.8660254037844386 -1.2246467991473535e-16
vn 1 -2.4492935982947064e-16 -2.4492935982947064e-16
vn 0 -1 0
vn 0 -1 0
vn 0 -1 0
vn 0 -1 0
vn 0 -1 0
vn 0 -1 0
vn 0 -1 0
vn 0 -1 0
vn 0 -1 0
vn 0 -1 0
vn 0 -1 0
vn 0 -1 0
vn 0 -1 0
vn 0 -1 0
vn 0 -1 0
vn 0 -1 0
vn 0 1 0
vn 0 1 0
vn 0 1 0
vn 0 1 0
vn 0 1 0
vn 0 1 0
vn 0 1 0
vn 0 1 0
vn 0 1 0
vn 0 1 0
vn 0 1 0
vn 0 1 0
vn 0 1 0
vn 0 1 0
vn 0 1 0
vn 0 1 0
vn 0 -1 0
vn 0 1 0
vn 0 1 0
vn 0 1 0
vn 0 1 0
vn 0 1 0
vn 0 1 0
vn 0 1 0
vn 0 1 0
vn 0 1 0
f 1/1/1 8/8/8 9/9/9
f 1/1/1 9/9/9 2/2/2
f 2/2/2 9/9/9 10/10/10
f 2/2/2 10/10/10 3/3/3
f 3/3/3 10/10/10 11/11/11
f 3/3/3 11/11/11 4/4/4
f 4/4/4 11/11/11 12/12/12
f 4/4/4 12/12/12 5/5/5
f 5/5/5 12/12/12 13/13/13
f 5/5/5 13/13/13 6/6/6
f 6/6/6 13/13/13 14/14/14
f 6/6/6 14/14/14 7/7/7
f 8/8/8 15/15/15 16/16/16
f 8/8/8 16/16/16 9/9/9
f 9/9/9 16/16/16 17/17/17
f 9/9/9 17/17/17 10/10/10
f 10/10/10 17/17/17 18/18/18
f 10/10/10 18/18/18 11/11/11
f 11/11/11 18/18/18 19/19/19
f 11/11/11 19/19/19 12/12/12
f 12/12/12 19/19/19 20/20/20
f 12/12/12 20/20/20 13/13/13
f 13/13/13 20/20/20 21/21/21
f 13/13/13 21/21/21 14/14/14
f 15/15/15 22/22/22 23/23/23
f 15/15/15 23/23/23 16/16/16
f 16/16/16 23/23/23 24/24/24
f 16/16/16 24/24/24 17/17/17
f 17/17/17 24/24/24 25/25/25
f 17/17/17 25/25/25 18/18/18
f 18/18/18 25/25/25 26/26/26
f 18/18/18 26/26/26 19/19/19
f 19/19/19 26/26/26 27/27/27
f 19/19/19 27/27/27 20/20/20
f 20/20/20 27/27/27 28/28/28
f 20/20/20 28/28/28 21/21/21
f 22/22/22 29/29/29 30/30/30
f 22/22/22 30/30/30 23/23/23
f 23/23/23 30/30/30 31/31/31
f 23/23/23 31/31/31 24/24/24
f 24/24/24 31/31/31 32/32/32
f 24/24/24 32/32/32 25/25/25
f 25/25/25 32/32/32 33/33/33
f 25/25/25 33/33/33 26/26/26
f 26/26/26 33/33/33 34/34/34
f 26/26/26 34/34/34 27/27/27
f 27/27/27 34/34/34 35/35/35
f 27/27/27 35/35/35 28/28/28
f 29/29/29 36/36/36 37/37/37
f 29/29/29 37/37/37 30/30/30
f 30/30/30 37/37/37 38/38/38
f 30/30/30 38/38/38 31/31/31
f 31/31/31 38/38/38 39/39/39
f 31/31/31 39/39/39 32/32/32
f 32/32/32 39/39/39 40/40/40
f 32/32/32 40/40/40 33/33/33
f 33/33/33 40/40/40 41/41/41
f 33/33/33 41/41/41 34/34/34
f 34/34/34 41/41/41 42/42/42
f 34/34/34 42/42/42 35/35/35
f 36/36/36 43/43/43 44/44/44
f 36/36/36 44/44/44 37/37/37
f 37/37/37 44/44/44 45/45/45
f 37/37/37 45/45/45 38/38/38
f 38/38/38 45/45/45 46/46/46
f 38/38/38 46/46/46 39/39/39
f 39/39/39 46/46/46 47/47/47
f 39/39/39 47/47/47 40/40/40
f 40/40/40 47/47/47 48/48/48
f 40/40/40 48/48/48 41/41/41
f 41/41/41 48/48/48 49/49/49
f 41/41/41 49/49/49 42/42/42
f 43/43/43 50/50/50 51/51/51
f 43/43/43 51/51/51 44/44/44
f 44/44/44 51/51/51 52/52/52
f 44/44/44 52/52/52 45/45/45
f 45/45/45 52/52/52 53/53/53
f 45/45/45 53/53/53 46/46/46
f 46/46/46 53/53/53 54/54/54
f 46/46/46 54/54/54 47/47/47
f 47/47/47 54/54/54 55/55/55
f 47/47/47 55/55/55 48/48/48
f 48/48/48 55/55/55 56/56/56
f 48/48/48 56/56/56 49/49/49
f 50/50/50 57/57/57 58/58/58
f 50/50/50 58/58/58 51/51/51
f 51/51/51 58/58/58 59/59/59
f 51/51/51 59/59/59 52/52/52
f 52/52/52 59/59/59 60/60/60
f 52/52/52 60/60/60 53/53/53
f 53/53/53 60/60/60 61/61/61
f 53/53/53 61/61/61 54/54/54
f 54/54/54 61/61/61 62/62/62
f 54/54/54 62/62/62 55/55/55
f 55/55/55 62/62/62 63/63/63
f 55/55/55 63/63/63 56/56/56
f 57/57/57 64/64/64 65/65/65
f 57/57/57 65/65/65 58/58/58
f 58/58/58 65/65/65 66/66/66
f 58/58/58 66/66/66 59/59/59
f 59/59/59 66/66/66 67/67/67
f 59/59/59 67/67/67 60/60/60
f 60/60/60 67/67/67 68/68/68
f 60/60/60 68/68/68 61/61/61
f 61/61/61 68/68/68 69/69/69
f 61/61/61 69/69/69 62/62/62
f 62/62/62 69/69/69 70/70/70
f 62/62/62 70/70/70 63/63/63
f 64/64/64 71/71/71 72/72/72
f 64/64/64 72/72/72 65/65/65
f 65/65/65 72/72/72 73/73/73
f 65/65/65 73/73/73 66/66/66
f 66/66/66 73/73/73 74/74/74
f 66/66/66 74/74/74 67/67/67
f 67/67/67 74/74/74 75/75/75
f 67/67/67 75/75/75 68/68/68
f 68/68/68 75/75/75 76/76/76
f 68/68/68 76/76/76 69/69/69
f 69/69/69 76/76/76 77/77/77
f 69/69/69 77/77/77 70/70/70
f 78/78/78 85/85/85 86/86/86
f 78/78/78 86/86/86 79/79/79
f 79/79/79 86/86/86 87/87/87
f 79/79/79 87/87/87 80/80/80
f 80/80/80 87/87/87 88/88/88
f 80/80/80 88/88/88 81/81/81
f 81/81/81 88/88/88 89/89/89
f 81/81/81 89/89/89 82/82/82
f 82/82/82 89/89/89 90/90/90
f 82/82/82 90/90/90 83/83/83
f 83/83/83 90/90/90 91/91/91
f 83/83/83 91/91/91 84/84/84
f 85/85/85 92/92/92 93/93/93
f 85/85/85 93/93/93 86/86/86
f 86/86/86 93/93/93 94/94/94
f 86/86/86 94/94/94 87/87/87
f 87/87/87 94/94/94 95/95/95
f 87/87/87 95/95/95 88/88/88
f 88/88/88 95/95/95 96/96/96
f 88/88/88 96/96/96 89/89/89
f 89/89/89 96/96/96 97/97/97
f 89/89/89 97/97/97 90/90/90
f 90/90/90 97/97/97 98/98/98
f 90/90/90 98/98/98 91/91/91
f 92/92/92 99/99/99 100/100/100
f 92/92/92 100/100/100 93/93/93
f 93/93/93 100/100/100 101/101/101
f 93/93/93 101/101/101 94/94/94
f 94/94/94 101/101/101 102/102/102
f 94/94/94 102/102/102 95/95/95
f 95/95/95 102/102/102 103/103/103
f 95/95/95 103/103/103 96/96/96
f 96/96/96 103/103/103 104/104/104
f 96/96/96 104/104/104 97/97/97
f 97/97/97 104/104/104 105/105/105
f 97/97/97 105/105/105 98/98/98
f 99/99/99 106/106/106 107/107/107
f 99/99/99 107/107/107 100/100/100
f 100/100/100 107/107/107 108/108/108
f 100/100/100 108/108/108 101/101/101
f 101/101/101 108/108/108 109/109/109
f 101/101/101 109/109/109 102/102/102
f 102/102/102 109/109/109 110/110/110
f 102/102/102 110/110/110 103/103/103
f 103/103/103 110/110/110 111/111/111
f 103/103/103 111/111/111 104/104/104
f 104/104/104 111/111/111 112/112/112
f 104/104/104 112/112/112 105/105/105
f 106/106/106 113/113/113 114/114/114
f 106/106/106 114/114/114 107/107/107
f 107/107/107 114/114/114 115/115/115
f 107/107/107 115/115/115 108/108/108
f 108/108/108 115/115/115 116/116/116
f 108/108/108 116/116/116 109/109/109
f 109/109/109 116/116/116 117/117/117
f 109/109/109 117/117/117 110/110/110
f 110/110/110 117/117/117 118/118/118
f 110/110/110 118/118/118 111/111/111
f 111/111/111 118/118/118 119/119/119
f 111/111/111 119/119/119 112/112/112
f 113/113/113 120/120/120 121/121/121
f 113/113/113 121/121/121 114/114/114
f 114/114/114 121/121/121 122/122/122
f 114/114/114 122/122/122 115/115/115
f 115/115/115 122/122/122 123/123/123
f 115/115/115 123/123/123 116/116/116
f 116/116/116 123/123/123 124/124/124
f 116/116/116 124/124/124 117/117/117
f 117/117/117 124/124/124 125/125/125
f 117/117/117 125/125/125 118/118/118
f 118/118/118 125/125/125 126/126/126
f 118/118/118 126/126/126 119/119/119
f 120/120/120 127/127/127 128/128/128
f 120/120/120 128/128/128 121/121/121
f 121/121/121 128/128/128 129/129/129
f 121/121/121 129/129/129 122/122/122
f 122/122/122 129/129/129 130/130/130
f 122/122/122 130/130/130 123/123/123
f 123/123/123 130/130/130 131/131/131
f 123/123/123 131/131/131 124/124/124
f 124/124/124 131/131/131 132/132/132
f 124/124/124 132/132/132 125/125/125
f 125/125/125 132/132/132 133/133/133
f 125/125/125 133/133/133 126/126/126
f 127/127/127 134/134/134 135/135/135
f 127/127/127 135/135/135 128/128/128
f 128/128/128 135/135/135 136/136/136
f 128/128/128 136/136/136 129/129/129
f 129/129/129 136/136/136 137/137/137
f 129/129/129 137/137/137 130/130/130
f 130/130/130 137/137/137 138/138/138
f 130/130/130 138/138/138 131/131/131
f 131/131/131 138/138/138 139/139/139
f 131/131/131 139/139/139 132/132/132
f 132/132/132 139/139/139 140/140/140
f 132/132/132 140/140/140 133/133/133
f 134/134/134 141/141/141 142/142/142
f 134/134/134 142/142/142 135/135/135
f 135/135/135 142/142/142 143/143/143
f 135/135/135 143/143/143 136/136/136
f 136/136/136 143/143/143 144/144/144
f 136/136/136 144/144/144 137/137/137
f 137/137/137 144/144/144 145/145/145
f 137/137/137 145/145/145 138/138/138
f 138/138/138 145/145/145 146/146/146
f 138/138/138 146/146/146 139/139/139
f 139/139/139 146/146/146 147/147/147
f 139/139/139 147/147/147 140/140/140
f 141/141/141 148/148/148 149/149/149
f 141/141/141 149/149/149 142/142/142
f 142/142/142 149/149/149 150/150/150
f 142/142/142 150/150/150 143/143/143
f 143/143/143 150/150/150 151/151/151
f 143/143/143 151/151/151 144/144/144
f 144/144/144 151/151/151 152/152/152
f 144/144/144 152/152/152 145/145/145
f 145/145/145 152/152/152 153/153/153
f 145/145/145 153/153/153 146/146/146
f 146/146/146 153/153/153 154/154/154
f 146/146/146 154/154/154 147/147/147
f 155/155/155 156/156/156 172/172/172
f 155/155/155 172/172/172 171/171/171
f 187/187/187 156/156/156 155/155/155
f 188/188/188 171/171/171 172/172/172
f 156/156/156 157/157/157 173/173/173
f 156/156/156 173/173/173 172/172/172
f 187/187/187 157/157/157 156/156/156
f 188/188/188 172/172/172 173/173/173
f 157/157/157 158/158/158 174/174/174
f 157/157/157 174/174/174 173/173/173
f 187/187/187 158/158/158 157/157/157
f 188/188/188 173/173/173 174/174/174
f 158/158/158 159/159/159 175/175/175
f 158/158/158 175/175/175 174/174/174
f 187/187/187 159/159/159 158/158/158
f 188/188/188 174/174/174 175/175/175
f 159/159/159 160/160/160 176/176/176
f 159/159/159 176/176/176 175/175/175
f 187/187/187 160/160/160 159/159/159
f 188/188/188 175/175/175 176/176/176
f 160/160/160 161/161/161 177/177/177
f 160/160/160 177/177/177 176/176/176
f 187/187/187 161/161/161 160/160/160
f 188/188/188 176/176/176 177/177/177
f 161/161/161 162/162/162 178/178/178
f 161/161/161 178/178/178 177/177/177
f 187/187/187 162/162/162 161/161/161
f 188/188/188 177/177/177 178/178/178
f 162/162/162 163/163/163 179/179/179
f 162/162/162 179/179/179 178/178/178
f 187/187/187 163/163/163 162/162/162
f 188/188/188 178/178/178 179/179/179
f 163/163/163 164/164/164 180/180/180
f 163/163/163 180/180/180 179/179/179
f 187/187/187 164/164/164 163/163/163
f 188/188/188 179/179/179 180/180/180
f 164/164/164 165/165/165 181/181/181
f 164/164/164 181/181/181 180/180/180
f 187/187/187 165/165/165 164/164/164
f 188/188/188 180/180/180 181/181/181
f 165/165/165 166/166/166 182/182/182
f 165/165/165 182/182/182 181/181/181
f 187/187/187 166/166/166 165/165/165
f 188/188/188 181/181/181 182/182/182
f 166/166/166 167/167/167 183/183/183
f 166/166/166 183/183/183 182/182/182
f 187/187/187 167/167/167 166/166/166
f 188/188/188 182/182/182 183/183/183
f 167/167/167 168/168/168 184/184/184
f 167/167/167 184/184/184 183/183/183
f 187/187/187 168/168/168 167/167/167
f 188/188/188 183/183/183 184/184/184
f 168/168/168 169/169/169 185/185/185
f 168/168/168 185/185/185 184/184/184
f 187/187/187 169/169/169 168/168/168
f 188/188/188 184/184/184 185/185/185
f 169/169/169 170/170/170 186/186/186
f 169/169/169 186/186/186 185/185/185
f 187/187/187 170/170/170 169/169/169
f 188/188/188 185/185/185 186/186/186
f 170/170/170 155/155/155 171/171/171
f 170/170/170 171/171/171 186/186/186
f 187/187/187 155/155/155 170/170/170
f 188/188/188 186/186/186 171/171/171
f 189/189/189 190/190/190 206/206/206
f 189/189/189 206/206/206 205/205/205
f 221/221/221 190/190/190 189/189/189
f 222/222/222 205/205/205 206/206/206
f 190/190/190 191/191/191 207/207/207
f 190/190/190 207/207/207 206/206/206
f 221/221/221 191/191/191 190/190/190
f 222/222/222 206/206/206 207/207/207
f 191/191/191 192/192/192 208/208/208
f 191/191/191 208/208/208 207/207/207
f 221/221/221 192/192/192 191/191/191
f 222/222/222 207/207/207 208/208/208
f 192/192/192 193/193/193 209/209/209
f 192/192/192 209/209/209 208/208/208
f 221/221/221 193/193/193 192/192/192
f 222/222/222 208/208/208 209/209/209
f 193/193/193 194/194/194 210/210/210
f 193/193/193 210/210/210 209/209/209
f 221/221/221 194/194/194 193/193/193
f 222/222/222 209/209/209 210/210/210
f 194/194/194 195/195/195 211/211/211
f 194/194/194 211/211/211 210/210/210
f 221/221/221 195/195/195 194/194/194
f 222/222/222 210/210/210 211/211/211
f 195/195/195 196/196/196 212/212/212
f 195/195/195 212/212/212 211/211/211
f 221/221/221 196/196/196 195/195/195
f 222/222/222 211/211/211 212/212/212
f 196/196/196 197/197/197 213/213/213
f 196/196/196 213/213/213 212/212/212
f 221/221/221 197/197/197 196/196/196
f 222/222/222 212/212/212 213/213/213
f 197/197/197 198/198/198 214/214/214
f 197/197/197 214/214/214 213/213/213
f 221/221/221 198/198/198 197/197/197
f 222/222/222 213/213/213 214/214/214
f 198/198/198 199/199/199 215/215/215
f 198/198/198 215/215/215 214/214/214
f 221/221/221 199/199/199 198/198/198
f 222/222/222 214/214/214 215/215/215
f 199/199/199 200/200/200 216/216/216
f 199/199/199 216/216/216 215/215/215
f 221/221/221 200/200/200 199/199/199
f 222/222/222 215/215/215 216/216/216
f 200/200/200 201/201/201 217/217/217
f 200/200/200 217/217/217 216/216/216
f 221/221/221 201/201/201 200/200/200
f 222/222/222 216/216/216 217/217/217
f 201/201/201 202/202/202 218/218/218
f 201/201/201 218/218/218 217/217/217
f 221/221/221 202/202/202 201/201/201
f 222/222/222 217/217/217 218/218/218
f 202/202/202 203/203/203 219/219/219
f 202/202/202 219/219/219 218/218/218
f 221/221/221 203/203/203 202/202/202
f 222/222/222 218/218/218 219/219/219
f 203/203/203 204/204/204 220/220/220
f 203/203/203 220/220/220 219/219/219
f 221/221/221 204/204/204 203/203/203
f 222/222/222 219/219/219 220/220/220
f 204/204/204 189/189/189 205/205/205
f 204/204/204 205/205/205 220/220/220
f 221/221/221 189/189/189 204/204/204
f 222/222/222 220/220/220 205/205/205
f 223/223/223 224/224/224 240/240/240
f 223/223/223 240/240/240 239/239/239
f 255/255/255 224/224/224 223/223/223
f 256/256/256 239/239/239 240/240/240
f 224/224/224 225/225/225 241/241/241
f 224/224/224 241/241/241 240/240/240
f 255/255/255 225/225/225 224/224/224
f 256/256/256 240/240/240 241/241/241
f 225/225/225 226/226/226 242/242/242
f 225/225/225 242/242/242 241/241/241
f 255/255/255 226/226/226 225/225/225
f 256/256/256 241/241/241 242/242/242
f 226/226/226 227/227/227 243/243/243
f 226/226/226 243/243/243 242/242/242
f 255/255/255 227/227/227 226/226/226
f 256/256/256 242/242/242 243/243/243
f 227/227/227 228/228/228 244/244/244
f 227/227/227 244/244/244 243/243/243
f 255/255/255 228/228/228 227/227/227
f 256/256/256 243/243/243 244/244/244
f 228/228/228 229/229/229 245/245/245
f 228/228/228 245/245/245 244/244/244
f 255/255/255 229/229/229 228/228/228
f 256/256/256 244/244/244 245/245/245
f 229/229/229 230/230/230 246/246/246
f 229/229/229 246/246/246 245/245/245
f 255/255/255 230/230/230 229/229/229
f 256/256/256 245/245/245 246/246/246
f 230/230/230 231/231/231 247/247/247
f 230/230/230 247/247/247 246/246/246
f 255/255/255 231/231/231 230/230/230
f 256/256/256 246/246/246 247/247/247
f 231/231/231 232/232/232 248/248/248
f 231/231/231 248/248/248 247/247/247
f 255/255/255 232/232/232 231/231/231
f 256/256/256 247/247/247 248/248/248
f 232/232/232 233/233/233 249/249/249
f 232/232/232 249/249/249 248/248/248
f 255/255/255 233/233/233 232/232/232
f 256/256/256 248/248/248 249/249/249
f 233/233/233 234/234/234 250/250/250
f 233/233/233 250/250/250 249/249/249
f 255/255/255 234/234/234 233/233/233
f 256/256/256 249/249/249 250/250/250
f 234/234/234 235/235/235 251/251/251
f 234/234/234 251/251/251 250/250/250
f 255/255/255 235/235/235 234/234/234
f 256/256/256 250/250/250 251/251/251
f 235/235/235 236/236/236 252/252/252
f 235/235/235 252/252/252 251/251/251
f 255/255/255 236/236/236 235/235/235
f 256/256/256 251/251/251 252/252/252
f 236/236/236 237/237/237 253/253/253
f 236/236/236 253/253/253 252/252/252
f 255/255/255 237/237/237 236/236/236
f 256/256/256 252/252/252 253/253/253
f 237/237/237 238/238/238 254/254/254
f 237/237/237 254/254/254 253/253/253
f 255/255/255 238/238/238 237/237/237
f 256/256/256 253/253/253 254/254/254
f 238/238/238 223/223/223 239/239/239
f 238/238/238 239/239/239 254/254/254
f 255/255/255 223/223/223 238/238/238
f 256/256/256 254/254/254 239/239/239
f 257/257/257 258/258/258 274/274/274
f 257/257/257 274/274/274 273/273/273
f 289/289/289 258/258/258 257/257/257
f 290/290/290 273/273/273 274/274/274
f 258/258/258 259/259/259 275/275/275
f 258/258/258 275/275/275 274/274/274
f 289/289/289 259/259/259 258/258/258
f 290/290/290 274/274/274 275/275/275
f 259/259/259 260/260/260 276/276/276
f 259/259/259 276/276/276 275/275/275
f 289/289/289 260/260/260 259/259/259
f 290/290/290 275/275/275 276/276/276
f 260/260/260 261/261/261 277/277/277
f 260/260/260 277/277/277 276/276/276
f 289/289/289 261/261/261 260/260/260
f 290/290/290 276/276/276 277/277/277
f 261/261/261 262/262/262 278/278/278
f 261/261/261 278/278/278 277/277/277
f 289/289/289 262/262/262 261/261/261
f 290/290/290 277/277/277 278/278/278
f 262/262/262 263/263/263 279/279/279
f 262/262/262 279/279/279 278/278/278
f 289/289/289 263/263/263 262/262/262
f 290/290/290 278/278/278 279/279/279
f 263/263/263 264/264/264 280/280/280
f 263/263/263 280/280/280 279/279/279
f 289/289/289 264/264/264 263/263/263
f 290/290/290 279/279/279 280/280/280
f 264/264/264 265/265/265 281/281/281
f 264/264/264 281/281/281 280/280/280
f 289/289/289 265/265/265 264/264/264
f 290/290/290 280/280/280 281/281/281
f 265/265/265 266/266/266 282/282/282
f 265/265/265 282/282/282 281/281/281
f 289/289/289 266/266/266 265/265/265
f 290/290/290 281/281/281 282/282/282
f 266/266/266 267/267/267 283/283/283
f 266/266/266 283/283/283 282/282/282
f 289/289/289 267/267/267 266/266/266
f 290/290/290 282/282/282 283/283/283
f 267/267/267 268/268/268 284/284/284
f 267/267/267 284/284/284 283/283/283
f 289/289/289 268/268/268 267/267/267
f 290/290/290 283/283/283 284/284/284
f 268/268/268 269/269/269 285/285/285
f 268/268/268 285/285/285 284/284/284
f 289/289/289 269/269/269 268/268/268
f 290/290/290 284/284/284 285/285/285
f 269/269/269 270/270/270 286/286/286
f 269/269/269 286/286/286 285/285/285
f 289/289/289 270/270/270 269/269/269
f 290/290/290 285/285/285 286/286/286
f 270/270/270 271/271/271 287/287/287
f 270/270/270 287/287/287 286/286/286
f 289/289/289 271/271/271 270/270/270
f 290/290/290 286/286/286 287/287/287
f 271/271/271 272/272/272 288/288/288
f 271/271/271 288/288/288 287/287/287
f 289/289/289 272/272/272 271/271/271
f 290/290/290 287/287/287 288/288/288
f 272/272/272 257/257/257 273/273/273
f 272/272/272 273/273/273 288/288/288
f 289/289/289 257/257/257 272/272/272
f 290/290/290 288/288/288 273/273/273
f 291/291/291 293/293/293 292/292/292
f 291/291/291 294/294/294 293/293/293
f 295/295/295 296/296/296 297/297/297
f 295/295/295 297/297/297 298/298/298
f 291/291/291 292/292/292 296/296/296
f 291/291/291 296/296/296 295/295/295
f 293/293/293 294/294/294 298/298/298
f 293/293/293 298/298/298 297/297/297
f 291/291/291 295/295/295 298/298/298
f 291/291/291 298/298/298 294/294/294
f 292/292/292 293/293/293 297/297/297
f 292/292/292 297/297/297 296/296/296
f 299/299/299 300/300/300 312/312/312
f 299/299/299 312/312/312 311/311/311
f 323/323/323 300/300/300 299/299/299
f 324/324/324 311/311/311 312/312/312
f 300/300/300 301/301/301 313/313/313
f 300/300/300 313/313/313 312/312/312
f 323/323/323 301/301/301 300/300/300
f 324/324/324 312/312/312 313/313/313
f 301/301/301 302/302/302 314/314/314
f 301/301/301 314/314/314 313/313/313
f 323/323/323 302/302/302 301/301/301
f 324/324/324 313/313/313 314/314/314
f 302/302/302 303/303/303 315/315/315
f 302/302/302 315/315/315 314/314/314
f 323/323/323 303/303/303 302/302/302
f 324/324/324 314/314/314 315/315/315
f 303/303/303 304/304/304 316/316/316
f 303/303/303 316/316/316 315/315/315
f 323/323/323 304/304/304 303/303/303
f 324/324/324 315/315/315 316/316/316
f 304/304/304 305/305/305 317/317/317
f 304/304/304 317/317/317 316/316/316
f 323/323/323 305/305/305 304/304/304
f 324/324/324 316/316/316 317/317/317
f 305/305/305 306/306/306 318/318/318
f 305/305/305 318/318/318 317/317/317
f 323/323/323 306/306/306 305/305/305
f 324/324/324 317/317/317 318/318/318
f 306/306/306 307/307/307 319/319/319
f 306/306/306 319/319/319 318/318/318
f 323/323/323 307/307/307 306/306/306
f 324/324/324 318/318/318 319/319/319
f 307/307/307 308/308/308 320/320/320
f 307/307/307 320/320/320 319/319/319
f 323/323/323 308/308/308 307/307/307
f 324/324/324 319/319/319 320/320/320
f 308/308/308 309/309/309 321/321/321
f 308/308/308 321/321/321 320/320/320
f 323/323/323 309/309/309 308/308/308
f 324/324/324 320/320/320 321/321/321
f 309/309/309 310/310/310 322/322/322
f 309/309/309 322/322/322 321/321/321
f 323/323/323 310/310/310 309/309/309
f 324/324/324 321/321/321 322/322/322
f 310/310/310 299/299/299 311/311/311
f 310/310/310 311/311/311 322/322/322
f 323/323/323 299/299/299 310/310/310
f 324/324/324 322/322/322 311/311/311
f 325/325/325 326/326/326 338/338/338
f 325/325/325 338/338/338 337/337/337
f 349/349/349 326/326/326 325/325/325
f 350/350/350 337/337/337 338/338/338
f 326/326/326 327/327/327 339/339/339
f 326/326/326 339/339/339 338/338/338
f 349/349/349 327/327/327 326/326/326
f 350/350/350 338/338/338 339/339/339
f 327/327/327 328/328/328 340/340/340
f 327/327/327 340/340/340 339/339/339
f 349/349/349 328/328/328 327/327/327
f 350/350/350 339/339/339 340/340/340
f 328/328/328 329/329/329 341/341/341
f 328/328/328 341/341/341 340/340/340
f 349/349/349 329/329/329 328/328/328
f 350/350/350 340/340/340 341/341/341
f 329/329/329 330/330/330 342/342/342
f 329/329/329 342/342/342 341/341/341
f 349/349/349 330/330/330 329/329/329
f 350/350/350 341/341/341 342/342/342
f 330/330/330 331/331/331 343/343/343
f 330/330/330 343/343/343 342/342/342
f 349/349/349 331/331/331 330/330/330
f 350/350/350 342/342/342 343/343/343
f 331/331/331 332/332/332 344/344/344
f 331/331/331 344/344/344 343/343/343
f 349/349/349 332/332/332 331/331/331
f 350/350/350 343/343/343 344/344/344
f 332/332/332 333/333/333 345/345/345
f 332/332/332 345/345/345 344/344/344
f 349/349/349 333/333/333 332/332/332
f 350/350/350 344/344/344 345/345/345
f 333/333/333 334/334/334 346/346/346
f 333/333/333 346/346/346 345/345/345
f 349/349/349 334/334/334 333/333/333
f 350/350/350 345/345/345 346/346/346
f 334/334/334 335/335/335 347/347/347
f 334/334/334 347/347/347 346/346/346
f 349/349/349 335/335/335 334/334/334
f 350/350/350 346/346/346 347/347/347
f 335/335/335 336/336/336 348/348/348
f 335/335/335 348/348/348 347/347/347
f 349/349/349 336/336/336 335/335/335
f 350/350/350 347/347/347 348/348/348
f 336/336/336 325/325/325 337/337/337
f 336/336/336 337/337/337 348/348/348
f 349/349/349 325/325/325 336/336/336
f 350/350/350 348/348/348 337/337/337
f 351/351/351 352/352/352 364/364/364
f 351/351/351 364/364/364 363/363/363
f 375/375/375 352/352/352 351/351/351
f 376/376/376 363/363/363 364/364/364
f 352/352/352 353/353/353 365/365/365
f 352/352/352 365/365/365 364/364/364
f 375/375/375 353/353/353 352/352/352
f 376/376/376 364/364/364 365/365/365
f 353/353/353 354/354/354 366/366/366
f 353/353/353 366/366/366 365/365/365
f 375/375/375 354/354/354 353/353/353
f 376/376/376 365/365/365 366/366/366
f 354/354/354 355/355/355 367/367/367
f 354/354/354 367/367/367 366/366/366
f 375/375/375 355/355/355 354/354/354
f 376/376/376 366/366/366 367/367/367
f 355/355/355 356/356/356 368/368/368
f 355/355/355 368/368/368 367/367/367
f 375/375/375 356/356/356 355/355/355
f 376/376/376 367/367/367 368/368/368
f 356/356/356 357/357/357 369/369/369
f 356/356/356 369/369/369 368/368/368
f 375/375/375 357/357/357 356/356/356
f 376/376/376 368/368/368 369/369/369
f 357/357/357 358/358/358 370/370/370
f 357/357/357 370/370/370 369/369/369
f 375/375/375 358/358/358 357/357/357
f 376/376/376 369/369/369 370/370/370
f 358/358/358 359/359/359 371/371/371
f 358/358/358 371/371/371 370/370/370
f 375/375/375 359/359/359 358/358/358
f 376/376/376 370/370/370 371/371/371
f 359/359/359 360/360/360 372/372/372
f 359/359/359 372/372/372 371/371/371
f 375/375/375 360/360/360 359/359/359
f 376/376/376 371/371/371 372/372/372
f 360/360/360 361/361/361 373/373/373
f 360/360/360 373/373/373 372/372/372
f 375/375/375 361/361/361 360/360/360
f 376/376/376 372/372/372 373/373/373
f 361/361/361 362/362/362 374/374/374
f 361/361/361 374/374/374 373/373/373
f 375/375/375 362/362/362 361/361/361
f 376/376/376 373/373/373 374/374/374
f 362/362/362 351/351/351 363/363/363
f 362/362/362 363/363/363 374/374/374
f 375/375/375 351/351/351 362/362/362
f 376/376/376 374/374/374 363/363/363
f 377/377/377 378/378/378 390/390/390
f 377/377/377 390/390/390 389/389/389
f 401/401/401 378/378/378 377/377/377
f 402/402/402 389/389/389 390/390/390
f 378/378/378 379/379/379 391/391/391
f 378/378/378 391/391/391 390/390/390
f 401/401/401 379/379/379 378/378/378
f 402/402/402 390/390/390 391/391/391
f 379/379/379 380/380/380 392/392/392
f 379/379/379 392/392/392 391/391/391
f 401/401/401 380/380/380 379/379/379
f 402/402/402 391/391/391 392/392/392
f 380/380/380 381/381/381 393/393/393
f 380/380/380 393/393/393 392/392/392
f 401/401/401 381/381/381 380/380/380
f 402/402/402 392/392/392 393/393/393
f 381/381/381 382/382/382 394/394/394
f 381/381/381 394/394/394 393/393/393
f 401/401/401 382/382/382 381/381/381
f 402/402/402 393/393/393 394/394/394
f 382/382/382 383/383/383 395/395/395
f 382/382/382 395/395/395 394/394/394
f 401/401/401 383/383/383 382/382/382
f 402/402/402 394/394/394 395/395/395
f 383/383/383 384/384/384 396/396/396
f 383/383/383 396/396/396 395/395/395
f 401/401/401 384/384/384 383/383/383
f 402/402/402 395/395/395 396/396/396
f 384/384/384 385/385/385 397/397/397
f 384/384/384 397/397/397 396/396/396
f 401/401/401 385/385/385 384/384/384
f 402/402/402 396/396/396 397/397/397
f 385/385/385 386/386/386 398/398/398
f 385/385/385 398/398/398 397/397/397
f 401/401/401 386/386/386 385/385/385
f 402/402/402 397/397/397 398/398/398
f 386/386/386 387/387/387 399/399/399
f 386/386/386 399/399/399 398/398/398
f 401/401/401 387/387/387 386/386/386
f 402/402/402 398/398/398 399/399/399
f 387/387/387 388/388/388 400/400/400
f 387/387/387 400/400/400 399/399/399
f 401/401/401 388/388/388 387/387/387
f 402/402/402 399/399/399 400/400/400
f 388/388/388 377/377/377 389/389/389
f 388/388/388 389/389/389 400/400/400
f 401/401/401 377/377/377 388/388/388
f 402/402/402 400/400/400 389/389/389
f 403/403/403 404/404/404 420/420/420
f 403/403/403 420/420/420 419/419/419
f 435/435/435 404/404/404 403/403/403
f 436/436/436 419/419/419 420/420/420
f 404/404/404 405/405/405 421/421/421
f 404/404/404 421/421/421 420/420/420
f 435/435/435 405/405/405 404/404/404
f 436/436/436 420/420/420 421/421/421
f 405/405/405 406/406/406 422/422/422
f 405/405/405 422/422/422 421/421/421
f 435/435/435 406/406/406 405/405/405
f 436/436/436 421/421/421 422/422/422
f 406/406/406 407/407/407 423/423/423
f 406/406/406 423/423/423 422/422/422
f 435/435/435 407/407/407 406/406/406
f 436/436/436 422/422/422 423/423/423
f 407/407/407 408/408/408 424/424/424
f 407/407/407 424/424/424 423/423/423
f 435/435/435 408/408/408 407/407/407
f 436/436/436 423/423/423 424/424/424
f 408/408/408 409/409/409 425/425/425
f 408/408/408 425/425/425 424/424/424
f 435/435/435 409/409/409 408/408/408
f 436/436/436 424/424/424 425/425/425
f 409/409/409 410/410/410 426/426/426
f 409/409/409 426/426/426 425/425/425
f 435/435/435 410/410/410 409/409/409
f 436/436/436 425/425/425 426/426/426
f 410/410/410 411/411/411 427/427/427
f 410/410/410 427/427/427 426/426/426
f 435/435/435 411/411/411 410/410/410
f 436/436/436 426/426/426 427/427/427
f 411/411/411 412/412/412 428/428/428
f 411/411/411 428/428/428 427/427/427
f 435/435/435 412/412/412 411/411/411
f 436/436/436 427/427/427 428/428/428
f 412/412/412 413/413/413 429/429/429
f 412/412/412 429/429/429 428/428/428
f 435/435/435 413/413/413 412/412/412
f 436/436/436 428/428/428 429/429/429
f 413/413/413 414/414/414 430/430/430
f 413/413/413 430/430/430 429/429/429
f 435/435/435 414/414/414 413/413/413
f 436/436/436 429/429/429 430/430/430
f 414/414/414 415/415/415 431/431/431
f 414/414/414 431/431/431 430/430/430
f 435/435/435 415/415/415 414/414/414
f 436/436/436 430/430/430 431/431/431
f 415/415/415 416/416/416 432/432/432
f 415/415/415 432/432/432 431/431/431
f 435/435/435 416/416/416 415/415/415
f 436/436/436 431/431/431 432/432/432
f 416/416/416 417/417/417 433/433/433
f 416/416/416 433/433/433 432/432/432
f 435/435/435 417/417/417 416/416/416
f 436/436/436 432/432/432 433/433/433
f 417/417/417 418/418/418 434/434/434
f 417/417/417 434/434/434 433/433/433
f 435/435/435 418/418/418 417/417/417
f 436/436/436 433/433/433 434/434/434
f 418/418/418 403/403/403 419/419/419
f 418/418/418 419/419/419 434/434/434
f 435/435/435 403/403/403 418/418/418
f 436/436/436 434/434/434 419/419/419
f 437/437/437 438/438/438 454/454/454
f 437/437/437 454/454/454 453/453/453
f 469/469/469 438/438/438 437/437/437
f 470/470/470 453/453/453 454/454/454
f 438/438/438 439/439/439 455/455/455
f 438/438/438 455/455/455 454/454/454
f 469/469/469 439/439/439 438/438/438
f 470/470/470 454/454/454 455/455/455
f 439/439/439 440/440/440 456/456/456
f 439/439/439 456/456/456 455/455/455
f 469/469/469 440/440/440 439/439/439
f 470/470/470 455/455/455 456/456/456
f 440/440/440 441/441/441 457/457/457
f 440/440/440 457/457/457 456/456/456
f 469/469/469 441/441/441 440/440/440
f 470/470/470 456/456/456 457/457/457
f 441/441/441 442/442/442 458/458/458
f 441/441/441 458/458/458 457/457/457
f 469/469/469 442/442/442 441/441/441
f 470/470/470 457/457/457 458/458/458
f 442/442/442 443/443/443 459/459/459
f 442/442/442 459/459/459 458/458/458
f 469/469/469 443/443/443 442/442/442
f 470/470/470 458/458/458 459/459/459
f 443/443/443 444/444/444 460/460/460
f 443/443/443 460/460/460 459/459/459
f 469/469/469 444/444/444 443/443/443
f 470/470/470 459/459/459 460/460/460
f 444/444/444 445/445/445 461/461/461
f 444/444/444 461/461/461 460/460/460
f 469/469/469 445/445/445 444/444/444
f 470/470/470 460/460/460 461/461/461
f 445/445/445 446/446/446 462/462/462
f 445/445/445 462/462/462 461/461/461
f 469/469/469 446/446/446 445/445/445
f 470/470/470 461/461/461 462/462/462
f 446/446/446 447/447/447 463/463/463
f 446/446/446 463/463/463 462/462/462
f 469/469/469 447/447/447 446/446/446
f 470/470/470 462/462/462 463/463/463
f 447/447/447 448/448/448 464/464/464
f 447/447/447 464/464/464 463/463/463
f 469/469/469 448/448/448 447/447/447
f 470/470/470 463/463/463 464/464/464
f 448/448/448 449/449/449 465/465/465
f 448/448/448 465/465/465 464/464/464
f 469/469/469 449/449/449 448/448/448
f 470/470/470 464/464/464 465/465/465
f 449/449/449 450/450/450 466/466/466
f 449/449/449 466/466/466 465/465/465
f 469/469/469 450/450/450 449/449/449
f 470/470/470 465/465/465 466/466/466
f 450/450/450 451/451/451 467/467/467
f 450/450/450 467/467/467 466/466/466
f 469/469/469 451/451/451 450/450/450
f 470/470/470 466/466/466 467/467/467
f 451/451/451 452/452/452 468/468/468
f 451/451/451 468/468/468 467/467/467
f 469/469/469 452/452/452 451/451/451
f 470/470/470 467/467/467 468/468/468
f 452/452/452 437/437/437 453/453/453
f 452/452/452 453/453/453 468/468/468
f 469/469/469 437/437/437 452/452/452
f 470/470/470 468/468/468 453/453/453
f 471/471/471 472/472/472 488/488/488
f 471/471/471 488/488/488 487/487/487
f 503/503/503 472/472/472 471/471/471
f 504/504/504 487/487/487 488/488/488
f 472/472/472 473/473/473 489/489/489
f 472/472/472 489/489/489 488/488/488
f 503/503/503 473/473/473 472/472/472
f 504/504/504 488/488/488 489/489/489
f 473/473/473 474/474/474 490/490/490
f 473/473/473 490/490/490 489/489/489
f 503/503/503 474/474/474 473/473/473
f 504/504/504 489/489/489 490/490/490
f 474/474/474 475/475/475 491/491/491
f 474/474/474 491/491/491 490/490/490
f 503/503/503 475/475/475 474/474/474
f 504/504/504 490/490/490 491/491/491
f 475/475/475 476/476/476 492/492/492
f 475/475/475 492/492/492 491/491/491
f 503/503/503 476/476/476 475/475/475
f 504/504/504 491/491/491 492/492/492
f 476/476/476 477/477/477 493/493/493
f 476/476/476 493/493/493 492/492/492
f 503/503/503 477/477/477 476/476/476
f 504/504/504 492/492/492 493/493/493
f 477/477/477 478/478/478 494/494/494
f 477/477/477 494/494/494 493/493/493
f 503/503/503 478/478/478 477/477/477
f 504/504/504 493/493/493 494/494/494
f 478/478/478 479/479/479 495/495/495
f 478/478/478 495/495/495 494/494/494
f 503/503/503 479/479/479 478/478/478
f 504/504/504 494/494/494 495/495/495
f 479/479/479 480/480/480 496/496/496
f 479/479/479 496/496/496 495/495/495
f 503/503/503 480/480/480 479/479/479
f 504/504/504 495/495/495 496/496/496
f 480/480/480 481/481/481 497/497/497
f 480/480/480 497/497/497 496/496/496
f 503/503/503 481/481/481 480/480/480
f 504/504/504 496/496/496 497/497/497
f 481/481/481 482/482/482 498/498/498
f 481/481/481 498/498/498 497/497/497
f 503/503/503 482/482/482 481/481/481
f 504/504/504 497/497/497 498/498/498
f 482/482/482 483/483/483 499/499/499
f 482/482/482 499/499/499 498/498/498
f 503/503/503 483/483/483 482/482/482
f 504/504/504 498/498/498 499/499/499
f 483/483/483 484/484/484 500/500/500
f 483/483/483 500/500/500 499/499/499
f 503/503/503 484/484/484 483/483/483
f 504/504/504 499/499/499 500/500/500
f 484/484/484 485/485/485 501/501/501
f 484/484/484 501/501/501 500/500/500
f 503/503/503 485/485/485 484/484/484
f 504/504/504 500/500/500 501/501/501
f 485/485/485 486/486/486 502/502/502
f 485/485/485 502/502/502 501/501/501
f 503/503/503 486/486/486 485/485/485
f 504/504/504 501/501/501 502/502/502
f 486/486/486 471/471/471 487/487/487
f 486/486/486 487/487/487 502/502/502
f 503/503/503 471/471/471 486/486/486
f 504/504/504 502/502/502 487/487/487
f 505/505/505 512/512/512 513/513/513
f 505/505/505 513/513/513 506/506/506
f 506/506/506 513/513/513 514/514/514
f 506/506/506 514/514/514 507/507/507
f 507/507/507 514/514/514 515/515/515
f 507/507/507 515/515/515 508/508/508
f 508/508/508 515/515/515 516/516/516
f 508/508/508 516/516/516 509/509/509
f 509/509/509 516/516/516 517/517/517
f 509/509/509 517/517/517 510/510/510
f 510/510/510 517/517/517 518/518/518
f 510/510/510 518/518/518 511/511/511
f 512/512/512 519/519/519 520/520/520
f 512/512/512 520/520/520 513/513/513
f 513/513/513 520/520/520 521/521/521
f 513/513/513 521/521/521 514/514/514
f 514/514/514 521/521/521 522/522/522
f 514/514/514 522/522/522 515/515/515
f 515/515/515 522/522/522 523/523/523
f 515/515/515 523/523/523 516/516/516
f 516/516/516 523/523/523 524/524/524
f 516/516/516 524/524/524 517/517/517
f 517/517/517 524/524/524 525/525/525
f 517/517/517 525/525/525 518/518/518
f 519/519/519 526/526/526 527/527/527
f 519/519/519 527/527/527 520/520/520
f 520/520/520 527/527/527 528/528/528
f 520/520/520 528/528/528 521/521/521
f 521/521/521 528/528/528 529/529/529
f 521/521/521 529/529/529 522/522/522
f 522/522/522 529/529/529 530/530/530
f 522/522/522 530/530/530 523/523/523
f 523/523/523 530/530/530 531/531/531
f 523/523/523 531/531/531 524/524/524
f 524/524/524 531/531/531 532/532/532
f 524/524/524 532/532/532 525/525/525
f 526/526/526 533/533/533 534/534/534
f 526/526/526 534/534/534 527/527/527
f 527/527/527 534/534/534 535/535/535
f 527/527/527 535/535/535 528/528/528
f 528/528/528 535/535/535 536/536/536
f 528/528/528 536/536/536 529/529/529
f 529/529/529 536/536/536 537/537/537
f 529/529/529 537/537/537 530/530/530
f 530/530/530 537/537/537 538/538/538
f 530/530/530 538/538/538 531/531/531
f 531/531/531 538/538/538 539/539/539
f 531/531/531 539/539/539 532/532/532
f 533/533/533 540/540/540 541/541/541
f 533/533/533 541/541/541 534/534/534
f 534/534/534 541/541/541 542/542/542
f 534/534/534 542/542/542 535/535/535
f 535/535/535 542/542/542 543/543/543
f 535/535/535 543/543/543 536/536/536
f 536/536/536 543/543/543 544/544/544
f 536/536/536 544/544/544 537/537/537
f 537/537/537 544/544/544 545/545/545
f 537/537/537 545/545/545 538/538/538
f 538/538/538 545/545/545 546/546/546
f 538/538/538 546/546/546 539/539/539
f 540/540/540 547/547/547 548/548/548
f 540/540/540 548/548/548 541/541/541
f 541/541/541 548/548/548 549/549/549
f 541/541/541 549/549/549 542/542/542
f 542/542/542 549/549/549 550/550/550
f 542/542/542 550/550/550 543/543/543
f 543/543/543 550/550/550 551/551/551
f 543/543/543 551/551/551 544/544/544
f 544/544/544 551/551/551 552/552/552
f 544/544/544 552/552/552 545/545/545
f 545/545/545 552/552/552 553/553/553
f 545/545/545 553/553/553 546/546/546
f 547/547/547 554/554/554 555/555/555
f 547/547/547 555/555/555 548/548/548
f 548/548/548 555/555/555 556/556/556
f 548/548/548 556/556/556 549/549/549
f 549/549/549 556/556/556 557/557/557
f 549/549/549 557/557/557 550/550/550
f 550/550/550 557/557/557 558/558/558
f 550/550/550 558/558/558 551/551/551
f 551/551/551 558/558/558 559/559/559
f 551/551/551 559/559/559 552/552/552
f 552/552/552 559/559/559 560/560/560
f 552/552/552 560/560/560 553/553/553
f 554/554/554 561/561/561 562/562/562
f 554/554/554 562/562/562 555/555/555
f 555/555/555 562/562/562 563/563/563
f 555/555/555 563/563/563 556/556/556
f 556/556/556 563/563/563 564/564/564
f 556/556/556 564/564/564 557/557/557
f 557/557/557 564/564/564 565/565/565
f 557/557/557 565/565/565 558/558/558
f 558/558/558 565/565/565 566/566/566
f 558/558/558 566/566/566 559/559/559
f 559/559/559 566/566/566 567/567/567
f 559/559/559 567/567/567 560/560/560
f 561/561/561 568/568/568 569/569/569
f 561/561/561 569/569/569 562/562/562
f 562/562/562 569/569/569 570/570/570
f 562/562/562 570/570/570 563/563/563
f 563/563/563 570/570/570 571/571/571
f 563/563/563 571/571/571 564/564/564
f 564/564/564 571/571/571 572/572/572
f 564/564/564 572/572/572 565/565/565
f 565/565/565 572/572/572 573/573/573
f 565/565/565 573/573/573 566/566/566
f 566/566/566 573/573/573 574/574/574
f 566/566/566 574/574/574 567/567/567
f 568/568/568 575/575/575 576/576/576
f 568/568/568 576/576/576 569/569/569
f 569/569/569 576/576/576 577/577/577
f 569/569/569 577/577/577 570/570/570
f 570/570/570 577/577/577 578/578/578
f 570/570/570 578/578/578 571/571/571
f 571/571/571 578/578/578 579/579/579
f 571/571/571 579/579/579 572/572/572
f 572/572/572 579/579/579 580/580/580
f 572/572/572 580/580/580 573/573/573
f 573/573/573 580/580/580 581/581/581
f 573/573/573 581/581/581 574/574/574
f 582/582/582 583/583/583 599/599/599
f 582/582/582 599/599/599 598/598/598
f 614/614/614 583/583/583 582/582/582
f 615/615/615 598/598/598 599/599/599
f 583/583/583 584/584/584 600/600/600
f 583/583/583 600/600/600 599/599/599
f 614/614/614 584/584/584 583/583/583
f 615/615/615 599/599/599 600/600/600
f 584/584/584 585/585/585 601/601/601
f 584/584/584 601/601/601 600/600/600
f 614/614/614 585/585/585 584/584/584
f 615/615/615 600/600/600 601/601/601
f 585/585/585 586/586/586 602/602/602
f 585/585/585 602/602/602 601/601/601
f 614/614/614 586/586/586 585/585/585
f 615/615/615 601/601/601 602/602/602
f 586/586/586 587/587/587 603/603/603
f 586/586/586 603/603/603 602/602/602
f 614/614/614 587/587/587 586/586/586
f 615/615/615 602/602/602 603/603/603
f 587/587/587 588/588/588 604/604/604
f 587/587/587 604/604/604 603/603/603
f 614/614/614 588/588/588 587/587/587
f 615/615/615 603/603/603 604/604/604
f 588/588/588 589/589/589 605/605/605
f 588/588/588 605/605/605 604/604/604
f 614/614/614 589/589/589 588/588/588
f 615/615/615 604/604/604 605/605/605
f 589/589/589 590/590/590 606/606/606
f 589/589/589 606/606/606 605/605/605
f 614/614/614 590/590/590 589/589/589
f 615/615/615 605/605/605 606/606/606
f 590/590/590 591/591/591 607/607/607
f 590/590/590 607/607/607 606/606/606
f 614/614/614 591/591/591 590/590/590
f 615/615/615 606/606/606 607/607/607
f 591/591/591 592/592/592 608/608/608
f 591/591/591 608/608/608 607/607/607
f 614/614/614 592/592/592 591/591/591
f 615/615/615 607/607/607 608/608/608
f 592/592/592 593/593/593 609/609/609
f 592/592/592 609/609/609 608/608/608
f 614/614/614 593/593/593 592/592/592
f 615/615/615 608/608/608 609/609/609
f 593/593/593 594/594/594 610/610/610
f 593/593/593 610/610/610 609/609/609
f 614/614/614 594/594/594 593/593/593
f 615/615/615 609/609/609 610/610/610
f 594/594/594 595/595/595 611/611/611
f 594/594/594 611/611/611 610/610/610
f 614/614/614 595/595/595 594/594/594
f 615/615/615 610/610/610 611/611/611
f 595/595/595 596/596/596 612/612/612
f 595/595/595 612/612/612 611/611/611
f 614/614/614 596/596/596 595/595/595
f 615/615/615 611/611/611 612/612/612
f 596/596/596 597/597/597 613/613/613
f 596/596/596 613/613/613 612/612/612
f 614/614/614 597/597/597 596/596/596
f 615/615/615 612/612/612 613/613/613
f 597/597/597 582/582/582 598/598/598
f 597/597/597 598/598/598 613/613/613
f 614/614/614 582/582/582 597/597/597
f 615/615/615 613/613/613 598/598/598
f 616/616/616 618/618/618 617/617/617
f 616/616/616 619/619/619 618/618/618
f 620/620/620 621/621/621 622/622/622
f 620/620/620 622/622/622 623/623/623
f 616/616/616 617/617/617 621/621/621
f 616/616/616 621/621/621 620/620/620
f 618/618/618 619/619/619 623/623/623
f 618/618/618 623/623/623 622/622/622
f 616/616/616 620/620/620 623/623/623
f 616/616/616 623/623/623 619/619/619
f 617/617/617 618/618/618 622/622/622
f 617/617/617 622/622/622 621/621/621