# 3D Model: tree/canopy/1513x4724_wmkn_328537037215_202606050063000000
# Style: broadleaf_camphor_oak | Symmetry: asymmetric
# Dimensions: 17.13 x 18.015 x 16.209 m
# Triangles: 960 | Vertices: 611
v 1.4534 0 0
v 1.1758 0 0.8543
v 0.4491 0 1.3823
v -0.4491 0 1.3823
v -1.1758 0 0.8543
v -1.4534 0 0
v -1.1758 0 -0.8543
v -0.4491 0 -1.3823
v 0.4491 0 -1.3823
v 1.1758 0 -0.8543
v 0.8074 6.8324 0
v 0.6532 6.8324 0.4746
v 0.2495 6.8324 0.7679
v -0.2495 6.8324 0.7679
v -0.6532 6.8324 0.4746
v -0.8074 6.8324 0
v -0.6532 6.8324 -0.4746
v -0.2495 6.8324 -0.7679
v 0.2495 6.8324 -0.7679
v 0.6532 6.8324 -0.4746
v 0 0 0
v 0 6.8324 0
v 2.4174 0.0342 0.9401
v 0.7142 0.0342 1.1975
v 0.4568 0.0342 -0.5057
v 2.16 0.0342 -0.7631
v 1.5794 3.792 0.3221
v 1.3322 3.792 0.3595
v 1.2948 3.792 0.1123
v 1.542 3.792 0.0749
v 1.4371 0.0342 0.2172
v 1.4371 3.792 0.2172
v 1.228 0.0342 0.7249
v 0.9465 0.0342 2.4243
v -0.7529 0.0342 2.1428
v -0.4714 0.0342 0.4434
v 0.3813 3.792 1.331
v 0.3404 3.792 1.5776
v 0.0938 3.792 1.5368
v 0.1346 3.792 1.2901
v 0.2375 0.0342 1.4339
v 0.2375 3.792 1.4339
v -1.6585 0.0342 -0.4921
v -0.1292 0.0342 0.3008
v -0.9221 0.0342 1.83
v -2.4513 0.0342 1.0372
v -1.3437 3.792 0.5005
v -1.1218 3.792 0.6155
v -1.2369 3.792 0.8375
v -1.4588 3.792 0.7224
v -1.2903 0.0342 0.669
v -1.2903 3.792 0.669
v -2.253 0.0342 -1.029
v -1.0263 0.0342 -2.2384
v 0.183 0.0342 -1.0118
v -1.0436 0.0342 0.1976
v -1.2117 3.792 -1.0217
v -1.0337 3.792 -1.1972
v -0.8582 3.792 -1.0192
v -1.0362 3.792 -0.8436
v -1.035 0.0342 -1.0204
v -1.035 3.792 -1.0204
v 0.2661 0.0342 -0.1439
v -0.5051 0.0342 -1.6842
v 1.0352 0.0342 -2.4554
v 1.8064 0.0342 -0.915
v 0.5948 3.792 -1.1319
v 0.4829 3.792 -1.3554
v 0.7065 3.792 -1.4674
v 0.8184 3.792 -1.2438
v 0.6506 0.0342 -1.2996
v 0.6506 3.792 -1.2996
v 3.5425 9.7096 0.5367
v 3.5425 9.7096 0.5367
v 3.5425 9.7096 0.5367
v 3.5425 9.7096 0.5367
v 3.5425 9.7096 0.5367
v 3.5425 9.7096 0.5367
v 3.5425 9.7096 0.5367
v 3.5425 9.7096 0.5367
v 3.5425 9.7096 0.5367
v 3.5425 9.7096 0.5367
v 3.5425 9.7096 0.5367
v 6.114 9.0528 0.1538
v 5.7804 9.0541 1.3942
v 4.5779 9.1326 2.3035
v 2.966 9.2582 2.5344
v 1.5602 9.3829 1.9986
v 0.8976 9.4592 0.9009
v 1.2312 9.4579 -0.3395
v 2.4336 9.3795 -1.2488
v 4.0456 9.2539 -1.4797
v 5.4514 9.1291 -0.9439
v 6.114 9.0528 0.1538
v 7.9231 7.665 -0.1453
v 7.3453 7.6673 2.0032
v 5.2626 7.8031 3.5781
v 2.4706 8.0207 3.978
v 0.0357 8.2368 3.05
v -1.112 8.3689 1.1487
v -0.5341 8.3666 -0.9998
v 1.5485 8.2307 -2.5747
v 4.3405 8.0132 -2.9746
v 6.7754 7.7971 -2.0466
v 7.9231 7.665 -0.1453
v 8.4851 5.9179 -0.2804
v 7.8179 5.9205 2.2005
v 5.413 6.0774 4.0191
v 2.1891 6.3286 4.4808
v -0.6225 6.5782 3.4093
v -1.9477 6.7308 1.2138
v -1.2805 6.7281 -1.2671
v 1.1244 6.5712 -3.0857
v 4.3483 6.32 -3.5474
v 7.1598 6.0705 -2.4758
v 8.4851 5.9179 -0.2804
v 7.6493 4.2797 -0.2153
v 7.0715 4.282 1.9332
v 4.9888 4.4179 3.5081
v 2.1968 4.6354 3.908
v -0.238 4.8516 2.98
v -1.3858 4.9837 1.0787
v -0.8079 4.9814 -1.0698
v 1.2747 4.8455 -2.6447
v 4.0667 4.628 -3.0446
v 6.5016 4.4119 -2.1166
v 7.6493 4.2797 -0.2153
v 5.6398 3.1894 0.0326
v 5.3062 3.1907 1.273
v 4.1037 3.2692 2.1823
v 2.4918 3.3948 2.4131
v 1.086 3.5196 1.8774
v 0.4234 3.5959 0.7796
v 0.757 3.5945 -0.4608
v 1.9594 3.5161 -1.3701
v 3.5714 3.3905 -1.601
v 4.9771 3.2657 -1.0652
v 5.6398 3.1894 0.0326
v 2.9949 2.9391 0.3967
v 2.9949 2.9391 0.3967
v 2.9949 2.9391 0.3967
v 2.9949 2.9391 0.3967
v 2.9949 2.9391 0.3967
v 2.9949 2.9391 0.3967
v 2.9949 2.9391 0.3967
v 2.9949 2.9391 0.3967
v 2.9949 2.9391 0.3967
v 2.9949 2.9391 0.3967
v 2.9949 2.9391 0.3967
v 2.7282 11.1276 3.1595
v 2.7282 11.1276 3.1595
v 2.7282 11.1276 3.1595
v 2.7282 11.1276 3.1595
v 2.7282 11.1276 3.1595
v 2.7282 11.1276 3.1595
v 2.7282 11.1276 3.1595
v 2.7282 11.1276 3.1595
v 2.7282 11.1276 3.1595
v 2.7282 11.1276 3.1595
v 2.7282 11.1276 3.1595
v 4.4003 10.5658 0.9336
v 4.8592 10.4796 1.9735
v 4.4856 10.4644 3.4601
v 3.4223 10.526 4.8253
v 2.0753 10.6408 5.5478
v 0.9592 10.765 5.3516
v 0.5003 10.8511 4.3116
v 0.8739 10.8663 2.8251
v 1.9372 10.8047 1.4599
v 3.2842 10.6899 0.7374
v 4.4003 10.5658 0.9336
v 5.5274 9.23 -0.7297
v 6.3223 9.0808 1.0716
v 5.6752 9.0545 3.6463
v 3.8334 9.1611 6.011
v 1.5004 9.3599 7.2624
v -0.4327 9.575 6.9225
v -1.2275 9.7242 5.1212
v -0.5805 9.7505 2.5465
v 1.2613 9.6439 0.1818
v 3.5943 9.4451 -1.0696
v 5.5274 9.23 -0.7297
v 5.8076 7.4783 -1.3847
v 6.7254 7.306 0.6953
v 5.9783 7.2756 3.6683
v 3.8515 7.3987 6.3988
v 1.1576 7.6283 7.8438
v -1.0746 7.8766 7.4514
v -1.9923 8.0489 5.3714
v -1.2452 8.0793 2.3984
v 0.8815 7.9562 -0.3321
v 3.5755 7.7266 -1.7771
v 5.8076 7.4783 -1.3847
v 5.1658 5.7799 -0.8559
v 5.9606 5.6307 0.9454
v 5.3135 5.6044 3.5201
v 3.4718 5.711 5.8848
v 1.1387 5.9098 7.1362
v -0.7944 6.1249 6.7964
v -1.5892 6.2741 4.9951
v -0.9422 6.3004 2.4204
v 0.8996 6.1938 0.0557
v 3.2326 5.995 -1.1957
v 5.1658 5.7799 -0.8559
v 3.7739 4.5899 0.7151
v 4.2327 4.5038 1.755
v 3.8592 4.4886 3.2415
v 2.7958 4.5502 4.6068
v 1.4488 4.665 5.3293
v 0.3328 4.7891 5.1331
v -0.1261 4.8753 4.0931
v 0.2474 4.8905 2.6066
v 1.3108 4.8289 1.2413
v 2.6578 4.7141 0.5188
v 3.7739 4.5899 0.7151
v 2.0049 4.2273 2.9072
v 2.0049 4.2273 2.9072
v 2.0049 4.2273 2.9072
v 2.0049 4.2273 2.9072
v 2.0049 4.2273 2.9072
v 2.0049 4.2273 2.9072
v 2.0049 4.2273 2.9072
v 2.0049 4.2273 2.9072
v 2.0049 4.2273 2.9072
v 2.0049 4.2273 2.9072
v 2.0049 4.2273 2.9072
v -2.1439 13.2361 4.7418
v -2.1439 13.2361 4.7418
v -2.1439 13.2361 4.7418
v -2.1439 13.2361 4.7418
v -2.1439 13.2361 4.7418
v -2.1439 13.2361 4.7418
v -2.1439 13.2361 4.7418
v -2.1439 13.2361 4.7418
v -2.1439 13.2361 4.7418
v -2.1439 13.2361 4.7418
v -2.1439 13.2361 4.7418
v -2.9188 12.6424 2.6361
v -1.766 12.7297 2.6469
v -0.7411 12.7951 3.4546
v -0.2358 12.8138 4.7507
v -0.443 12.7785 6.0402
v -1.2836 12.7028 6.8305
v -2.4364 12.6156 6.8197
v -3.4613 12.5501 6.012
v -3.9666 12.5315 4.7159
v -3.7594 12.5667 3.4264
v -2.9188 12.6424 2.6361
v -3.4007 11.081 1.0775
v -1.4038 11.2321 1.0961
v 0.3712 11.3455 2.4951
v 1.2465 11.3778 4.7401
v 0.8876 11.3167 6.9736
v -0.5683 11.1856 8.3424
v -2.5652 11.0345 8.3238
v -4.3402 10.9211 6.9248
v -5.2155 10.8888 4.6798
v -4.8566 10.9499 2.4463
v -3.4007 11.081 1.0775
v -3.4604 8.9702 0.4837
v -1.1546 9.1447 0.5052
v 0.8951 9.2756 2.1206
v 1.9057 9.3129 4.7129
v 1.4913 9.2424 7.2919
v -0.1898 9.091 8.8725
v -2.4956 8.9165 8.8509
v -4.5452 8.7856 7.2355
v -5.5559 8.7483 4.6432
v -5.1415 8.8188 2.0643
v -3.4604 8.9702 0.4837
v -3.0819 6.8755 1.0137
v -1.085 7.0266 1.0324
v 0.69 7.14 2.4314
v 1.5653 7.1723 4.6763
v 1.2064 7.1113 6.9098
v -0.2495 6.9801 8.2786
v -2.2463 6.829 8.26
v -4.0214 6.7157 6.861
v -4.8966 6.6833 4.616
v -4.5378 6.7444 2.3826
v -3.0819 6.8755 1.0137
v -2.3666 5.3583 2.5257
v -1.2137 5.4456 2.5364
v -0.1889 5.511 3.3441
v 0.3164 5.5297 4.6403
v 0.1092 5.4944 5.9297
v -0.7313 5.4187 6.72
v -1.8842 5.3315 6.7093
v -2.909 5.266 5.9016
v -3.4144 5.2474 4.6054
v -3.2072 5.2826 3.3159
v -2.3666 5.3583 2.5257
v -1.5063 4.8251 4.6143
v -1.5063 4.8251 4.6143
v -1.5063 4.8251 4.6143
v -1.5063 4.8251 4.6143
v -1.5063 4.8251 4.6143
v -1.5063 4.8251 4.6143
v -1.5063 4.8251 4.6143
v -1.5063 4.8251 4.6143
v -1.5063 4.8251 4.6143
v -1.5063 4.8251 4.6143
v -1.5063 4.8251 4.6143
v -2.8485 14.9669 1.2823
v -2.8485 14.9669 1.2823
v -2.8485 14.9669 1.2823
v -2.8485 14.9669 1.2823
v -2.8485 14.9669 1.2823
v -2.8485 14.9669 1.2823
v -2.8485 14.9669 1.2823
v -2.8485 14.9669 1.2823
v -2.8485 14.9669 1.2823
v -2.8485 14.9669 1.2823
v -2.8485 14.9669 1.2823
v -5.5457 14.5508 0.0279
v -4.6416 14.391 -0.5482
v -3.0808 14.2166 -0.4041
v -1.4594 14.0943 0.405
v -0.3967 14.0707 1.5701
v -0.2987 14.1549 2.6461
v -1.2028 14.3147 3.2222
v -2.7636 14.4891 3.0782
v -4.385 14.6114 2.2691
v -5.4476 14.635 1.104
v -5.5457 14.5508 0.0279
v -7.6674 13.0181 -0.7809
v -6.1015 12.7413 -1.7786
v -3.3981 12.4393 -1.5291
v -0.5898 12.2275 -0.1278
v 1.2508 12.1866 1.8903
v 1.4206 12.3325 3.7541
v -0.1453 12.6092 4.7518
v -2.8487 12.9113 4.5023
v -5.657 13.1231 3.101
v -7.4976 13.1639 1.0829
v -7.6674 13.0181 -0.7809
v -8.6452 10.7796 -0.9273
v -6.8371 10.46 -2.0794
v -3.7155 10.1112 -1.7913
v -0.4727 9.8666 -0.1732
v 1.6526 9.8195 2.157
v 1.8487 9.9878 4.3092
v 0.0406 10.3074 5.4613
v -3.081 10.6562 5.1732
v -6.3238 10.9008 3.555
v -8.4491 10.9479 1.2248
v -8.6452 10.7796 -0.9273
v -8.2171 8.4349 -0.3722
v -6.6512 8.1582 -1.3699
v -3.9478 7.8561 -1.1205
v -1.1395 7.6443 0.2809
v 0.7011 7.6035 2.2989
v 0.8709 7.7493 4.1628
v -0.695 8.0261 5.1605
v -3.3984 8.3281 4.911
v -6.2067 8.5399 3.5096
v -8.0473 8.5808 1.4916
v -8.2171 8.4349 -0.3722
v -6.4978 6.6125 0.7357
v -5.5937 6.4527 0.1597
v -4.0329 6.2783 0.3037
v -2.4115 6.156 1.1128
v -1.3489 6.1324 2.2779
v -1.2508 6.2166 3.354
v -2.1549 6.3764 3.9301
v -3.7157 6.5508 3.786
v -5.3371 6.6731 2.9769
v -6.3998 6.6967 1.8118
v -6.4978 6.6125 0.7357
v -3.948 5.8005 2.0996
v -3.948 5.8005 2.0996
v -3.948 5.8005 2.0996
v -3.948 5.8005 2.0996
v -3.948 5.8005 2.0996
v -3.948 5.8005 2.0996
v -3.948 5.8005 2.0996
v -3.948 5.8005 2.0996
v -3.948 5.8005 2.0996
v -3.948 5.8005 2.0996
v -3.948 5.8005 2.0996
v -2.9641 15.3426 -1.251
v -2.9641 15.3426 -1.251
v -2.9641 15.3426 -1.251
v -2.9641 15.3426 -1.251
v -2.9641 15.3426 -1.251
v -2.9641 15.3426 -1.251
v -2.9641 15.3426 -1.251
v -2.9641 15.3426 -1.251
v -2.9641 15.3426 -1.251
v -2.9641 15.3426 -1.251
v -2.9641 15.3426 -1.251
v -5.3883 15.0573 -0.3884
v -5.3693 15.0128 -1.7817
v -4.4449 14.9098 -2.9666
v -2.968 14.7875 -3.4905
v -1.503 14.6928 -3.1533
v -0.6092 14.6617 -2.0838
v -0.6282 14.7061 -0.6905
v -1.5526 14.8092 0.4944
v -3.0295 14.9315 1.0183
v -4.4946 15.0262 0.6811
v -5.3883 15.0573 -0.3884
v -7.2324 13.8823 0.273
v -7.1995 13.8053 -2.1402
v -5.5983 13.6268 -4.1925
v -3.0403 13.415 -5.0999
v -0.5027 13.2509 -4.5159
v 1.0453 13.1971 -2.6635
v 1.0124 13.2741 -0.2503
v -0.5888 13.4526 1.802
v -3.1467 13.6643 2.7094
v -5.6843 13.8285 2.1254
v -7.2324 13.8823 0.273
v -8.0021 12.1325 0.5559
v -7.9641 12.0435 -2.2306
v -6.1152 11.8374 -4.6004
v -3.1616 11.5929 -5.6482
v -0.2314 11.4034 -4.9738
v 1.5561 11.3412 -2.8348
v 1.5182 11.4301 -0.0483
v -0.3307 11.6362 2.3215
v -3.2844 11.8808 3.3693
v -6.2146 12.0703 2.6949
v -8.0021 12.1325 0.5559
v -7.4913 10.2766 0.3846
v -7.4584 10.1995 -2.0286
v -5.8572 10.0211 -4.0809
v -3.2993 9.8093 -4.9883
v -0.7616 9.6452 -4.4043
v 0.7864 9.5913 -2.5519
v 0.7535 9.6684 -0.1387
v -0.8477 9.8469 1.9136
v -3.4056 10.0586 2.821
v -5.9432 10.2228 2.237
v -7.4913 10.2766 0.3846
v -5.8368 8.812 -0.1951
v -5.8178 8.7675 -1.5884
v -4.8933 8.6645 -2.7733
v -3.4165 8.5422 -3.2972
v -1.9514 8.4474 -2.96
v -1.0576 8.4163 -1.8905
v -1.0766 8.4608 -0.4972
v -2.0011 8.5639 0.6876
v -3.4779 8.6861 1.2116
v -4.943 8.7809 0.8744
v -5.8368 8.812 -0.1951
v -3.4819 8.1311 -1.0279
v -3.4819 8.1311 -1.0279
v -3.4819 8.1311 -1.0279
v -3.4819 8.1311 -1.0279
v -3.4819 8.1311 -1.0279
v -3.4819 8.1311 -1.0279
v -3.4819 8.1311 -1.0279
v -3.4819 8.1311 -1.0279
v -3.4819 8.1311 -1.0279
v -3.4819 8.1311 -1.0279
v -3.4819 8.1311 -1.0279
v -0.2659 16.3976 -2.4697
v -0.2659 16.3976 -2.4697
v -0.2659 16.3976 -2.4697
v -0.2659 16.3976 -2.4697
v -0.2659 16.3976 -2.4697
v -0.2659 16.3976 -2.4697
v -0.2659 16.3976 -2.4697
v -0.2659 16.3976 -2.4697
v -0.2659 16.3976 -2.4697
v -0.2659 16.3976 -2.4697
v -0.2659 16.3976 -2.4697
v -1.0268 16.0058 -0.2392
v -2.0765 16.1926 -1.036
v -2.4614 16.2885 -2.3848
v -2.0345 16.2568 -3.7704
v -0.9588 16.1096 -4.6636
v 0.3548 15.9032 -4.7232
v 1.4045 15.7164 -3.9264
v 1.7894 15.6205 -2.5776
v 1.3624 15.6522 -1.192
v 0.2867 15.7993 -0.2988
v -1.0268 16.0058 -0.2392
v -1.7242 14.8326 1.3706
v -3.5423 15.1562 -0.0094
v -4.209 15.3223 -2.3455
v -3.4695 15.2674 -4.7455
v -1.6064 15.0125 -6.2926
v 0.6688 14.655 -6.3958
v 2.4869 14.3314 -5.0158
v 3.1536 14.1653 -2.6796
v 2.4141 14.2202 -0.2797
v 0.551 14.4751 1.2674
v -1.7242 14.8326 1.3706
v -2.1711 13.1925 1.9285
v -4.2705 13.5662 0.335
v -5.0403 13.7579 -2.3626
v -4.1864 13.6946 -5.1338
v -2.0351 13.4002 -6.9202
v 0.592 12.9874 -7.0394
v 2.6914 12.6137 -5.4459
v 3.4612 12.4219 -2.7483
v 2.6073 12.4853 0.0229
v 0.456 12.7797 1.8093
v -2.1711 13.1925 1.9285
v -2.2479 11.5249 1.2849
v -4.066 11.8485 -0.0951
v -4.7327 12.0146 -2.4313
v -3.9932 11.9597 -4.8312
v -2.13 11.7048 -6.3783
v 0.1451 11.3473 -6.4815
v 1.9632 11.0237 -5.1015
v 2.6299 10.8576 -2.7653
v 1.8904 10.9125 -0.3654
v 0.0273 11.1674 1.1817
v -2.2479 11.5249 1.2849
v -1.9339 10.2767 -0.3877
v -2.9836 10.4635 -1.1844
v -3.3684 10.5594 -2.5332
v -2.9415 10.5277 -3.9188
v -1.8658 10.3806 -4.812
v -0.5523 10.1741 -4.8716
v 0.4974 9.9873 -4.0749
v 0.8823 9.8914 -2.7261
v 0.4554 9.9231 -1.3405
v -0.6203 10.0703 -0.4473
v -1.9339 10.2767 -0.3877
v -1.3132 9.7823 -2.6411
v -1.3132 9.7823 -2.6411
v -1.3132 9.7823 -2.6411
v -1.3132 9.7823 -2.6411
v -1.3132 9.7823 -2.6411
v -1.3132 9.7823 -2.6411
v -1.3132 9.7823 -2.6411
v -1.3132 9.7823 -2.6411
v -1.3132 9.7823 -2.6411
v -1.3132 9.7823 -2.6411
v -1.3132 9.7823 -2.6411
v 1.9835 18.0148 -2.3893
v 1.9835 18.0148 -2.3893
v 1.9835 18.0148 -2.3893
v 1.9835 18.0148 -2.3893
v 1.9835 18.0148 -2.3893
v 1.9835 18.0148 -2.3893
v 1.9835 18.0148 -2.3893
v 1.9835 18.0148 -2.3893
v 1.9835 18.0148 -2.3893
v 1.9835 18.0148 -2.3893
v 1.9835 18.0148 -2.3893
v 3.6356 17.4603 0.0156
v 2.4362 17.5999 0.1897
v 1.044 17.7151 -0.6129
v -0.0095 17.7621 -2.0855
v -0.3217 17.7228 -3.6656
v 0.2265 17.6123 -4.7498
v 1.4258 17.4727 -4.9238
v 2.8181 17.3575 -4.1212
v 3.8716 17.3105 -2.6486
v 4.1838 17.3498 -1.0685
v 3.6356 17.4603 0.0156
v 4.7401 16.0973 1.8207
v 2.6628 16.339 2.1221
v 0.2512 16.5387 0.732
v -1.5734 16.6201 -1.8186
v -2.1142 16.552 -4.5554
v -1.1646 16.3606 -6.4332
v 0.9127 16.1189 -6.7346
v 3.3242 15.9192 -5.3445
v 5.1489 15.8378 -2.7939
v 5.6897 15.9059 -0.0571
v 4.7401 16.0973 1.8207
v 5.001 14.2911 2.5422
v 2.6024 14.5702 2.8903
v -0.1822 14.8008 1.2852
v -2.2891 14.8947 -1.66
v -2.9136 14.8161 -4.8203
v -1.8171 14.5951 -6.9886
v 0.5816 14.3159 -7.3366
v 3.3662 14.0854 -5.7315
v 5.4731 13.9914 -2.7863
v 6.0975 14.07 0.374
v 5.001 14.2911 2.5422
v 4.3485 12.5256 1.9869
v 2.2712 12.7673 2.2883
v -0.1403 12.967 0.8982
v -1.9649 13.0483 -1.6524
v -2.5057 12.9803 -4.3893
v -1.5561 12.7888 -6.267
v 0.5212 12.5471 -6.5685
v 2.9327 12.3474 -5.1784
v 4.7573 12.2661 -2.6278
v 5.2981 12.3341 0.1091
v 4.3485 12.5256 1.9869
v 2.9574 11.2738 0.3034
v 1.7581 11.4134 0.4775
v 0.3658 11.5287 -0.3251
v -0.6876 11.5757 -1.7977
v -0.9999 11.5364 -3.3778
v -0.4516 11.4258 -4.462
v 0.7477 11.2863 -4.636
v 2.14 11.171 -3.8334
v 3.1934 11.124 -2.3608
v 3.5057 11.1633 -0.7807
v 2.9574 11.2738 0.3034
v 1.2004 10.8713 -2.057
v 1.2004 10.8713 -2.057
v 1.2004 10.8713 -2.057
v 1.2004 10.8713 -2.057
v 1.2004 10.8713 -2.057
v 1.2004 10.8713 -2.057
v 1.2004 10.8713 -2.057
v 1.2004 10.8713 -2.057
v 1.2004 10.8713 -2.057
v 1.2004 10.8713 -2.057
v 1.2004 10.8713 -2.057
vt 0 0
vt 0.1 0
vt 0.2 0
vt 0.3 0
vt 0.4 0
vt 0.5 0
vt 0.6 0
vt 0.7 0
vt 0.8 0
vt 0.9 0
vt 0 1
vt 0.1 1
vt 0.2 1
vt 0.3 1
vt 0.4 1
vt 0.5 1
vt 0.6 1
vt 0.7 1
vt 0.8 1
vt 0.9 1
vt 0.5 0.5
vt 0.5 0.5
vt 0 0
vt 0.25 0
vt 0.5 0
vt 0.75 0
vt 0 1
vt 0.25 1
vt 0.5 1
vt 0.75 1
vt 0.5 0.5
vt 0.5 0.5
vt 0 0
vt 0.25 0
vt 0.5 0
vt 0.75 0
vt 0 1
vt 0.25 1
vt 0.5 1
vt 0.75 1
vt 0.5 0.5
vt 0.5 0.5
vt 0 0
vt 0.25 0
vt 0.5 0
vt 0.75 0
vt 0 1
vt 0.25 1
vt 0.5 1
vt 0.75 1
vt 0.5 0.5
vt 0.5 0.5
vt 0 0
vt 0.25 0
vt 0.5 0
vt 0.75 0
vt 0 1
vt 0.25 1
vt 0.5 1
vt 0.75 1
vt 0.5 0.5
vt 0.5 0.5
vt 0 0
vt 0.25 0
vt 0.5 0
vt 0.75 0
vt 0 1
vt 0.25 1
vt 0.5 1
vt 0.75 1
vt 0.5 0.5
vt 0.5 0.5
vt 0 0
vt 0.1 0
vt 0.2 0
vt 0.3 0
vt 0.4 0
vt 0.5 0
vt 0.6 0
vt 0.7 0
vt 0.8 0
vt 0.9 0
vt 1 0
vt 0 0.16666666666666666
vt 0.1 0.16666666666666666
vt 0.2 0.16666666666666666
vt 0.3 0.16666666666666666
vt 0.4 0.16666666666666666
vt 0.5 0.16666666666666666
vt 0.6 0.16666666666666666
vt 0.7 0.16666666666666666
vt 0.8 0.16666666666666666
vt 0.9 0.16666666666666666
vt 1 0.16666666666666666
vt 0 0.3333333333333333
vt 0.1 0.3333333333333333
vt 0.2 0.3333333333333333
vt 0.3 0.3333333333333333
vt 0.4 0.3333333333333333
vt 0.5 0.3333333333333333
vt 0.6 0.3333333333333333
vt 0.7 0.3333333333333333
vt 0.8 0.3333333333333333
vt 0.9 0.3333333333333333
vt 1 0.3333333333333333
vt 0 0.5
vt 0.1 0.5
vt 0.2 0.5
vt 0.3 0.5
vt 0.4 0.5
vt 0.5 0.5
vt 0.6 0.5
vt 0.7 0.5
vt 0.8 0.5
vt 0.9 0.5
vt 1 0.5
vt 0 0.6666666666666666
vt 0.1 0.6666666666666666
vt 0.2 0.6666666666666666
vt 0.3 0.6666666666666666
vt 0.4 0.6666666666666666
vt 0.5 0.6666666666666666
vt 0.6 0.6666666666666666
vt 0.7 0.6666666666666666
vt 0.8 0.6666666666666666
vt 0.9 0.6666666666666666
vt 1 0.6666666666666666
vt 0 0.8333333333333334
vt 0.1 0.8333333333333334
vt 0.2 0.8333333333333334
vt 0.3 0.8333333333333334
vt 0.4 0.8333333333333334
vt 0.5 0.8333333333333334
vt 0.6 0.8333333333333334
vt 0.7 0.8333333333333334
vt 0.8 0.8333333333333334
vt 0.9 0.8333333333333334
vt 1 0.8333333333333334
vt 0 1
vt 0.1 1
vt 0.2 1
vt 0.3 1
vt 0.4 1
vt 0.5 1
vt 0.6 1
vt 0.7 1
vt 0.8 1
vt 0.9 1
vt 1 1
vt 0 0
vt 0.1 0
vt 0.2 0
vt 0.3 0
vt 0.4 0
vt 0.5 0
vt 0.6 0
vt 0.7 0
vt 0.8 0
vt 0.9 0
vt 1 0
vt 0 0.16666666666666666
vt 0.1 0.16666666666666666
vt 0.2 0.16666666666666666
vt 0.3 0.16666666666666666
vt 0.4 0.16666666666666666
vt 0.5 0.16666666666666666
vt 0.6 0.16666666666666666
vt 0.7 0.16666666666666666
vt 0.8 0.16666666666666666
vt 0.9 0.16666666666666666
vt 1 0.16666666666666666
vt 0 0.3333333333333333
vt 0.1 0.3333333333333333
vt 0.2 0.3333333333333333
vt 0.3 0.3333333333333333
vt 0.4 0.3333333333333333
vt 0.5 0.3333333333333333
vt 0.6 0.3333333333333333
vt 0.7 0.3333333333333333
vt 0.8 0.3333333333333333
vt 0.9 0.3333333333333333
vt 1 0.3333333333333333
vt 0 0.5
vt 0.1 0.5
vt 0.2 0.5
vt 0.3 0.5
vt 0.4 0.5
vt 0.5 0.5
vt 0.6 0.5
vt 0.7 0.5
vt 0.8 0.5
vt 0.9 0.5
vt 1 0.5
vt 0 0.6666666666666666
vt 0.1 0.6666666666666666
vt 0.2 0.6666666666666666
vt 0.3 0.6666666666666666
vt 0.4 0.6666666666666666
vt 0.5 0.6666666666666666
vt 0.6 0.6666666666666666
vt 0.7 0.6666666666666666
vt 0.8 0.6666666666666666
vt 0.9 0.6666666666666666
vt 1 0.6666666666666666
vt 0 0.8333333333333334
vt 0.1 0.8333333333333334
vt 0.2 0.8333333333333334
vt 0.3 0.8333333333333334
vt 0.4 0.8333333333333334
vt 0.5 0.8333333333333334
vt 0.6 0.8333333333333334
vt 0.7 0.8333333333333334
vt 0.8 0.8333333333333334
vt 0.9 0.8333333333333334
vt 1 0.8333333333333334
vt 0 1
vt 0.1 1
vt 0.2 1
vt 0.3 1
vt 0.4 1
vt 0.5 1
vt 0.6 1
vt 0.7 1
vt 0.8 1
vt 0.9 1
vt 1 1
vt 0 0
vt 0.1 0
vt 0.2 0
vt 0.3 0
vt 0.4 0
vt 0.5 0
vt 0.6 0
vt 0.7 0
vt 0.8 0
vt 0.9 0
vt 1 0
vt 0 0.16666666666666666
vt 0.1 0.16666666666666666
vt 0.2 0.16666666666666666
vt 0.3 0.16666666666666666
vt 0.4 0.16666666666666666
vt 0.5 0.16666666666666666
vt 0.6 0.16666666666666666
vt 0.7 0.16666666666666666
vt 0.8 0.16666666666666666
vt 0.9 0.16666666666666666
vt 1 0.16666666666666666
vt 0 0.3333333333333333
vt 0.1 0.3333333333333333
vt 0.2 0.3333333333333333
vt 0.3 0.3333333333333333
vt 0.4 0.3333333333333333
vt 0.5 0.3333333333333333
vt 0.6 0.3333333333333333
vt 0.7 0.3333333333333333
vt 0.8 0.3333333333333333
vt 0.9 0.3333333333333333
vt 1 0.3333333333333333
vt 0 0.5
vt 0.1 0.5
vt 0.2 0.5
vt 0.3 0.5
vt 0.4 0.5
vt 0.5 0.5
vt 0.6 0.5
vt 0.7 0.5
vt 0.8 0.5
vt 0.9 0.5
vt 1 0.5
vt 0 0.6666666666666666
vt 0.1 0.6666666666666666
vt 0.2 0.6666666666666666
vt 0.3 0.6666666666666666
vt 0.4 0.6666666666666666
vt 0.5 0.6666666666666666
vt 0.6 0.6666666666666666
vt 0.7 0.6666666666666666
vt 0.8 0.6666666666666666
vt 0.9 0.6666666666666666
vt 1 0.6666666666666666
vt 0 0.8333333333333334
vt 0.1 0.8333333333333334
vt 0.2 0.8333333333333334
vt 0.3 0.8333333333333334
vt 0.4 0.8333333333333334
vt 0.5 0.8333333333333334
vt 0.6 0.8333333333333334
vt 0.7 0.8333333333333334
vt 0.8 0.8333333333333334
vt 0.9 0.8333333333333334
vt 1 0.8333333333333334
vt 0 1
vt 0.1 1
vt 0.2 1
vt 0.3 1
vt 0.4 1
vt 0.5 1
vt 0.6 1
vt 0.7 1
vt 0.8 1
vt 0.9 1
vt 1 1
vt 0 0
vt 0.1 0
vt 0.2 0
vt 0.3 0
vt 0.4 0
vt 0.5 0
vt 0.6 0
vt 0.7 0
vt 0.8 0
vt 0.9 0
vt 1 0
vt 0 0.16666666666666666
vt 0.1 0.16666666666666666
vt 0.2 0.16666666666666666
vt 0.3 0.16666666666666666
vt 0.4 0.16666666666666666
vt 0.5 0.16666666666666666
vt 0.6 0.16666666666666666
vt 0.7 0.16666666666666666
vt 0.8 0.16666666666666666
vt 0.9 0.16666666666666666
vt 1 0.16666666666666666
vt 0 0.3333333333333333
vt 0.1 0.3333333333333333
vt 0.2 0.3333333333333333
vt 0.3 0.3333333333333333
vt 0.4 0.3333333333333333
vt 0.5 0.3333333333333333
vt 0.6 0.3333333333333333
vt 0.7 0.3333333333333333
vt 0.8 0.3333333333333333
vt 0.9 0.3333333333333333
vt 1 0.3333333333333333
vt 0 0.5
vt 0.1 0.5
vt 0.2 0.5
vt 0.3 0.5
vt 0.4 0.5
vt 0.5 0.5
vt 0.6 0.5
vt 0.7 0.5
vt 0.8 0.5
vt 0.9 0.5
vt 1 0.5
vt 0 0.6666666666666666
vt 0.1 0.6666666666666666
vt 0.2 0.6666666666666666
vt 0.3 0.6666666666666666
vt 0.4 0.6666666666666666
vt 0.5 0.6666666666666666
vt 0.6 0.6666666666666666
vt 0.7 0.6666666666666666
vt 0.8 0.6666666666666666
vt 0.9 0.6666666666666666
vt 1 0.6666666666666666
vt 0 0.8333333333333334
vt 0.1 0.8333333333333334
vt 0.2 0.8333333333333334
vt 0.3 0.8333333333333334
vt 0.4 0.8333333333333334
vt 0.5 0.8333333333333334
vt 0.6 0.8333333333333334
vt 0.7 0.8333333333333334
vt 0.8 0.8333333333333334
vt 0.9 0.8333333333333334
vt 1 0.8333333333333334
vt 0 1
vt 0.1 1
vt 0.2 1
vt 0.3 1
vt 0.4 1
vt 0.5 1
vt 0.6 1
vt 0.7 1
vt 0.8 1
vt 0.9 1
vt 1 1
vt 0 0
vt 0.1 0
vt 0.2 0
vt 0.3 0
vt 0.4 0
vt 0.5 0
vt 0.6 0
vt 0.7 0
vt 0.8 0
vt 0.9 0
vt 1 0
vt 0 0.16666666666666666
vt 0.1 0.16666666666666666
vt 0.2 0.16666666666666666
vt 0.3 0.16666666666666666
vt 0.4 0.16666666666666666
vt 0.5 0.16666666666666666
vt 0.6 0.16666666666666666
vt 0.7 0.16666666666666666
vt 0.8 0.16666666666666666
vt 0.9 0.16666666666666666
vt 1 0.16666666666666666
vt 0 0.3333333333333333
vt 0.1 0.3333333333333333
vt 0.2 0.3333333333333333
vt 0.3 0.3333333333333333
vt 0.4 0.3333333333333333
vt 0.5 0.3333333333333333
vt 0.6 0.3333333333333333
vt 0.7 0.3333333333333333
vt 0.8 0.3333333333333333
vt 0.9 0.3333333333333333
vt 1 0.3333333333333333
vt 0 0.5
vt 0.1 0.5
vt 0.2 0.5
vt 0.3 0.5
vt 0.4 0.5
vt 0.5 0.5
vt 0.6 0.5
vt 0.7 0.5
vt 0.8 0.5
vt 0.9 0.5
vt 1 0.5
vt 0 0.6666666666666666
vt 0.1 0.6666666666666666
vt 0.2 0.6666666666666666
vt 0.3 0.6666666666666666
vt 0.4 0.6666666666666666
vt 0.5 0.6666666666666666
vt 0.6 0.6666666666666666
vt 0.7 0.6666666666666666
vt 0.8 0.6666666666666666
vt 0.9 0.6666666666666666
vt 1 0.6666666666666666
vt 0 0.8333333333333334
vt 0.1 0.8333333333333334
vt 0.2 0.8333333333333334
vt 0.3 0.8333333333333334
vt 0.4 0.8333333333333334
vt 0.5 0.8333333333333334
vt 0.6 0.8333333333333334
vt 0.7 0.8333333333333334
vt 0.8 0.8333333333333334
vt 0.9 0.8333333333333334
vt 1 0.8333333333333334
vt 0 1
vt 0.1 1
vt 0.2 1
vt 0.3 1
vt 0.4 1
vt 0.5 1
vt 0.6 1
vt 0.7 1
vt 0.8 1
vt 0.9 1
vt 1 1
vt 0 0
vt 0.1 0
vt 0.2 0
vt 0.3 0
vt 0.4 0
vt 0.5 0
vt 0.6 0
vt 0.7 0
vt 0.8 0
vt 0.9 0
vt 1 0
vt 0 0.16666666666666666
vt 0.1 0.16666666666666666
vt 0.2 0.16666666666666666
vt 0.3 0.16666666666666666
vt 0.4 0.16666666666666666
vt 0.5 0.16666666666666666
vt 0.6 0.16666666666666666
vt 0.7 0.16666666666666666
vt 0.8 0.16666666666666666
vt 0.9 0.16666666666666666
vt 1 0.16666666666666666
vt 0 0.3333333333333333
vt 0.1 0.3333333333333333
vt 0.2 0.3333333333333333
vt 0.3 0.3333333333333333
vt 0.4 0.3333333333333333
vt 0.5 0.3333333333333333
vt 0.6 0.3333333333333333
vt 0.7 0.3333333333333333
vt 0.8 0.3333333333333333
vt 0.9 0.3333333333333333
vt 1 0.3333333333333333
vt 0 0.5
vt 0.1 0.5
vt 0.2 0.5
vt 0.3 0.5
vt 0.4 0.5
vt 0.5 0.5
vt 0.6 0.5
vt 0.7 0.5
vt 0.8 0.5
vt 0.9 0.5
vt 1 0.5
vt 0 0.6666666666666666
vt 0.1 0.6666666666666666
vt 0.2 0.6666666666666666
vt 0.3 0.6666666666666666
vt 0.4 0.6666666666666666
vt 0.5 0.6666666666666666
vt 0.6 0.6666666666666666
vt 0.7 0.6666666666666666
vt 0.8 0.6666666666666666
vt 0.9 0.6666666666666666
vt 1 0.6666666666666666
vt 0 0.8333333333333334
vt 0.1 0.8333333333333334
vt 0.2 0.8333333333333334
vt 0.3 0.8333333333333334
vt 0.4 0.8333333333333334
vt 0.5 0.8333333333333334
vt 0.6 0.8333333333333334
vt 0.7 0.8333333333333334
vt 0.8 0.8333333333333334
vt 0.9 0.8333333333333334
vt 1 0.8333333333333334
vt 0 1
vt 0.1 1
vt 0.2 1
vt 0.3 1
vt 0.4 1
vt 0.5 1
vt 0.6 1
vt 0.7 1
vt 0.8 1
vt 0.9 1
vt 1 1
vt 0 0
vt 0.1 0
vt 0.2 0
vt 0.3 0
vt 0.4 0
vt 0.5 0
vt 0.6 0
vt 0.7 0
vt 0.8 0
vt 0.9 0
vt 1 0
vt 0 0.16666666666666666
vt 0.1 0.16666666666666666
vt 0.2 0.16666666666666666
vt 0.3 0.16666666666666666
vt 0.4 0.16666666666666666
vt 0.5 0.16666666666666666
vt 0.6 0.16666666666666666
vt 0.7 0.16666666666666666
vt 0.8 0.16666666666666666
vt 0.9 0.16666666666666666
vt 1 0.16666666666666666
vt 0 0.3333333333333333
vt 0.1 0.3333333333333333
vt 0.2 0.3333333333333333
vt 0.3 0.3333333333333333
vt 0.4 0.3333333333333333
vt 0.5 0.3333333333333333
vt 0.6 0.3333333333333333
vt 0.7 0.3333333333333333
vt 0.8 0.3333333333333333
vt 0.9 0.3333333333333333
vt 1 0.3333333333333333
vt 0 0.5
vt 0.1 0.5
vt 0.2 0.5
vt 0.3 0.5
vt 0.4 0.5
vt 0.5 0.5
vt 0.6 0.5
vt 0.7 0.5
vt 0.8 0.5
vt 0.9 0.5
vt 1 0.5
vt 0 0.6666666666666666
vt 0.1 0.6666666666666666
vt 0.2 0.6666666666666666
vt 0.3 0.6666666666666666
vt 0.4 0.6666666666666666
vt 0.5 0.6666666666666666
vt 0.6 0.6666666666666666
vt 0.7 0.6666666666666666
vt 0.8 0.6666666666666666
vt 0.9 0.6666666666666666
vt 1 0.6666666666666666
vt 0 0.8333333333333334
vt 0.1 0.8333333333333334
vt 0.2 0.8333333333333334
vt 0.3 0.8333333333333334
vt 0.4 0.8333333333333334
vt 0.5 0.8333333333333334
vt 0.6 0.8333333333333334
vt 0.7 0.8333333333333334
vt 0.8 0.8333333333333334
vt 0.9 0.8333333333333334
vt 1 0.8333333333333334
vt 0 1
vt 0.1 1
vt 0.2 1
vt 0.3 1
vt 0.4 1
vt 0.5 1
vt 0.6 1
vt 0.7 1
vt 0.8 1
vt 0.9 1
vt 1 1
vn 0 -1 0
vn 0 -1 0
vn 0 -1 0
vn 0 -1 0
vn 0 -1 0
vn 0 -1 0
vn 0 -1 0
vn 0 -1 0
vn 0 -1 0
vn 0 -1 0
vn 0 1 0
vn 0 1 0
vn 0 1 0
vn 0 1 0
vn 0 1 0
vn 0 1 0
vn 0 1 0
vn 0 1 0
vn 0 1 0
vn 0 1 0
vn 0 -1 0
vn 0 1 0
vn 0 -1 0
vn 0 -1 0
vn 0 -1 0
vn 0 -1 0
vn 0 1 0
vn 0 1 0
vn 0 1 0
vn 0 1 0
vn 0 -1 0
vn 0 1 0
vn 0 -1 0
vn 0 -1 0
vn 0 -1 0
vn 0 -1 0
vn 0 1 0
vn 0 1 0
vn 0 1 0
vn 0 1 0
vn 0 -1 0
vn 0 1 0
vn 0 -1 0
vn 0 -1 0
vn 0 -1 0
vn 0 -1 0
vn 0 1 0
vn 0 1 0
vn 0 1 0
vn 0 1 0
vn 0 -1 0
vn 0 1 0
vn 0 -1 0
vn 0 -1 0
vn 0 -1 0
vn 0 -1 0
vn 0 1 0
vn 0 1 0
vn 0 1 0
vn 0 1 0
vn 0 -1 0
vn 0 1 0
vn 0 -1 0
vn 0 -1 0
vn 0 -1 0
vn 0 -1 0
vn 0 1 0
vn 0 1 0
vn 0 1 0
vn 0 1 0
vn 0 -1 0
vn 0 1 0
vn 0 1 0
vn 0 1 0
vn 0 1 0
vn 0 1 0
vn 0 1 0
vn 0 1 0
vn 0 1 0
vn 0 1 0
vn 0 1 0
vn 0 1 0
vn 0 1 0
vn 0.4999999999999999 0.8660254037844387 0
vn 0.40450849718747367 0.8660254037844387 0.2938926261462365
vn 0.1545084971874737 0.8660254037844387 0.4755282581475767
vn -0.15450849718747364 0.8660254037844387 0.47552825814757677
vn -0.40450849718747356 0.8660254037844387 0.29389262614623657
vn -0.4999999999999999 0.8660254037844387 6.123233995736765e-17
vn -0.40450849718747367 0.8660254037844387 -0.29389262614623646
vn -0.15450849718747375 0.8660254037844387 -0.4755282581475767
vn 0.1545084971874736 0.8660254037844387 -0.47552825814757677
vn 0.40450849718747356 0.8660254037844387 -0.2938926261462366
vn 0.4999999999999999 0.8660254037844387 -1.224646799147353e-16
vn 0.8660254037844386 0.5000000000000001 0
vn 0.7006292692220367 0.5000000000000001 0.5090369604551271
vn 0.2676165673298175 0.5000000000000001 0.8236391035463319
vn -0.26761656732981737 0.5000000000000001 0.823639103546332
vn -0.7006292692220366 0.5000000000000001 0.5090369604551273
vn -0.8660254037844386 0.5000000000000001 1.0605752387249068e-16
vn -0.7006292692220367 0.5000000000000001 -0.509036960455127
vn -0.26761656732981753 0.5000000000000001 -0.8236391035463319
vn 0.26761656732981726 0.5000000000000001 -0.823639103546332
vn 0.7006292692220366 0.5000000000000001 -0.5090369604551274
vn 0.8660254037844386 0.5000000000000001 -2.1211504774498136e-16
vn 1 6.123233995736766e-17 0
vn 0.8090169943749475 6.123233995736766e-17 0.5877852522924731
vn 0.30901699437494745 6.123233995736766e-17 0.9510565162951535
vn -0.30901699437494734 6.123233995736766e-17 0.9510565162951536
vn -0.8090169943749473 6.123233995736766e-17 0.5877852522924732
vn -1 6.123233995736766e-17 1.2246467991473532e-16
vn -0.8090169943749475 6.123233995736766e-17 -0.587785252292473
vn -0.30901699437494756 6.123233995736766e-17 -0.9510565162951535
vn 0.30901699437494723 6.123233995736766e-17 -0.9510565162951536
vn 0.8090169943749473 6.123233995736766e-17 -0.5877852522924734
vn 1 6.123233995736766e-17 -2.4492935982947064e-16
vn 0.8660254037844387 -0.4999999999999998 0
vn 0.7006292692220368 -0.4999999999999998 0.5090369604551273
vn 0.2676165673298175 -0.4999999999999998 0.823639103546332
vn -0.26761656732981737 -0.4999999999999998 0.8236391035463321
vn -0.7006292692220367 -0.4999999999999998 0.5090369604551274
vn -0.8660254037844387 -0.4999999999999998 1.0605752387249069e-16
vn -0.7006292692220368 -0.4999999999999998 -0.5090369604551271
vn -0.2676165673298176 -0.4999999999999998 -0.823639103546332
vn 0.2676165673298173 -0.4999999999999998 -0.8236391035463321
vn 0.7006292692220367 -0.4999999999999998 -0.5090369604551274
vn 0.8660254037844387 -0.4999999999999998 -2.1211504774498138e-16
vn 0.4999999999999999 -0.8660254037844387 0
vn 0.40450849718747367 -0.8660254037844387 0.2938926261462365
vn 0.1545084971874737 -0.8660254037844387 0.4755282581475767
vn -0.15450849718747364 -0.8660254037844387 0.47552825814757677
vn -0.40450849718747356 -0.8660254037844387 0.29389262614623657
vn -0.4999999999999999 -0.8660254037844387 6.123233995736765e-17
vn -0.40450849718747367 -0.8660254037844387 -0.29389262614623646
vn -0.15450849718747375 -0.8660254037844387 -0.4755282581475767
vn 0.1545084971874736 -0.8660254037844387 -0.47552825814757677
vn 0.40450849718747356 -0.8660254037844387 -0.2938926261462366
vn 0.4999999999999999 -0.8660254037844387 -1.224646799147353e-16
vn 1.2246467991473532e-16 -1 0
vn 9.907600726170916e-17 -1 7.198293278059966e-17
vn 3.7843667304341506e-17 -1 1.1647083184890923e-16
vn -3.7843667304341493e-17 -1 1.1647083184890926e-16
vn -9.907600726170916e-17 -1 7.198293278059968e-17
vn -1.2246467991473532e-16 -1 1.4997597826618576e-32
vn -9.907600726170916e-17 -1 -7.198293278059965e-17
vn -3.784366730434152e-17 -1 -1.1647083184890923e-16
vn 3.7843667304341475e-17 -1 -1.1647083184890926e-16
vn 9.907600726170916e-17 -1 -7.19829327805997e-17
vn 1.2246467991473532e-16 -1 -2.999519565323715e-32
vn 0 1 0
vn 0 1 0
vn 0 1 0
vn 0 1 0
vn 0 1 0
vn 0 1 0
vn 0 1 0
vn 0 1 0
vn 0 1 0
vn 0 1 0
vn 0 1 0
vn 0.49999999999999994 0.8660254037844387 0
vn 0.40450849718747367 0.8660254037844387 0.2938926261462365
vn 0.1545084971874737 0.8660254037844387 0.4755282581475767
vn -0.15450849718747364 0.8660254037844387 0.47552825814757677
vn -0.4045084971874736 0.8660254037844387 0.29389262614623657
vn -0.49999999999999994 0.8660254037844387 6.123233995736765e-17
vn -0.40450849718747367 0.8660254037844387 -0.2938926261462365
vn -0.15450849718747375 0.8660254037844387 -0.4755282581475767
vn 0.1545084971874736 0.8660254037844387 -0.47552825814757677
vn 0.4045084971874736 0.8660254037844387 -0.2938926261462366
vn 0.49999999999999994 0.8660254037844387 -1.224646799147353e-16
vn 0.8660254037844387 0.5000000000000001 0
vn 0.7006292692220367 0.5000000000000001 0.5090369604551271
vn 0.2676165673298175 0.5000000000000001 0.8236391035463319
vn -0.26761656732981737 0.5000000000000001 0.823639103546332
vn -0.7006292692220366 0.5000000000000001 0.5090369604551273
vn -0.8660254037844387 0.5000000000000001 1.0605752387249068e-16
vn -0.7006292692220367 0.5000000000000001 -0.509036960455127
vn -0.26761656732981753 0.5000000000000001 -0.8236391035463319
vn 0.26761656732981726 0.5000000000000001 -0.823639103546332
vn 0.7006292692220366 0.5000000000000001 -0.5090369604551274
vn 0.8660254037844387 0.5000000000000001 -2.1211504774498136e-16
vn 1 6.123233995736766e-17 0
vn 0.8090169943749473 6.123233995736766e-17 0.5877852522924731
vn 0.30901699437494745 6.123233995736766e-17 0.9510565162951535
vn -0.30901699437494734 6.123233995736766e-17 0.9510565162951536
vn -0.8090169943749473 6.123233995736766e-17 0.5877852522924732
vn -1 6.123233995736766e-17 1.2246467991473532e-16
vn -0.8090169943749473 6.123233995736766e-17 -0.587785252292473
vn -0.30901699437494756 6.123233995736766e-17 -0.9510565162951535
vn 0.30901699437494723 6.123233995736766e-17 -0.9510565162951536
vn 0.8090169943749473 6.123233995736766e-17 -0.5877852522924734
vn 1 6.123233995736766e-17 -2.4492935982947064e-16
vn 0.8660254037844387 -0.49999999999999983 0
vn 0.7006292692220368 -0.49999999999999983 0.5090369604551273
vn 0.2676165673298175 -0.49999999999999983 0.823639103546332
vn -0.26761656732981737 -0.49999999999999983 0.8236391035463322
vn -0.7006292692220367 -0.49999999999999983 0.5090369604551274
vn -0.8660254037844387 -0.49999999999999983 1.0605752387249069e-16
vn -0.7006292692220368 -0.49999999999999983 -0.5090369604551271
vn -0.2676165673298176 -0.49999999999999983 -0.823639103546332
vn 0.2676165673298173 -0.49999999999999983 -0.8236391035463322
vn 0.7006292692220367 -0.49999999999999983 -0.5090369604551274
vn 0.8660254037844387 -0.49999999999999983 -2.1211504774498138e-16
vn 0.49999999999999994 -0.8660254037844387 0
vn 0.40450849718747367 -0.8660254037844387 0.2938926261462365
vn 0.1545084971874737 -0.8660254037844387 0.4755282581475767
vn -0.15450849718747364 -0.8660254037844387 0.47552825814757677
vn -0.4045084971874736 -0.8660254037844387 0.29389262614623657
vn -0.49999999999999994 -0.8660254037844387 6.123233995736765e-17
vn -0.40450849718747367 -0.8660254037844387 -0.2938926261462365
vn -0.15450849718747375 -0.8660254037844387 -0.4755282581475767
vn 0.1545084971874736 -0.8660254037844387 -0.47552825814757677
vn 0.4045084971874736 -0.8660254037844387 -0.2938926261462366
vn 0.49999999999999994 -0.8660254037844387 -1.224646799147353e-16
vn 1.2246467991473532e-16 -1 0
vn 9.907600726170915e-17 -1 7.198293278059966e-17
vn 3.7843667304341506e-17 -1 1.1647083184890923e-16
vn -3.7843667304341493e-17 -1 1.1647083184890926e-16
vn -9.907600726170915e-17 -1 7.198293278059968e-17
vn -1.2246467991473532e-16 -1 1.4997597826618576e-32
vn -9.907600726170915e-17 -1 -7.198293278059965e-17
vn -3.784366730434152e-17 -1 -1.1647083184890923e-16
vn 3.7843667304341475e-17 -1 -1.1647083184890926e-16
vn 9.907600726170915e-17 -1 -7.19829327805997e-17
vn 1.2246467991473532e-16 -1 -2.999519565323715e-32
vn 0 1 0
vn 0 1 0
vn 0 1 0
vn 0 1 0
vn 0 1 0
vn 0 1 0
vn 0 1 0
vn 0 1 0
vn 0 1 0
vn 0 1 0
vn 0 1 0
vn 0.4999999999999999 0.8660254037844387 0
vn 0.40450849718747367 0.8660254037844387 0.2938926261462365
vn 0.1545084971874737 0.8660254037844387 0.4755282581475767
vn -0.15450849718747364 0.8660254037844387 0.47552825814757677
vn -0.4045084971874736 0.8660254037844387 0.29389262614623657
vn -0.4999999999999999 0.8660254037844387 6.123233995736766e-17
vn -0.40450849718747367 0.8660254037844387 -0.29389262614623646
vn -0.15450849718747375 0.8660254037844387 -0.4755282581475767
vn 0.1545084971874736 0.8660254037844387 -0.47552825814757677
vn 0.4045084971874736 0.8660254037844387 -0.2938926261462366
vn 0.4999999999999999 0.8660254037844387 -1.2246467991473532e-16
vn 0.8660254037844386 0.5000000000000001 0
vn 0.7006292692220367 0.5000000000000001 0.5090369604551271
vn 0.2676165673298175 0.5000000000000001 0.8236391035463319
vn -0.26761656732981737 0.5000000000000001 0.823639103546332
vn -0.7006292692220366 0.5000000000000001 0.5090369604551273
vn -0.8660254037844386 0.5000000000000001 1.0605752387249068e-16
vn -0.7006292692220367 0.5000000000000001 -0.509036960455127
vn -0.26761656732981753 0.5000000000000001 -0.8236391035463319
vn 0.26761656732981726 0.5000000000000001 -0.823639103546332
vn 0.7006292692220366 0.5000000000000001 -0.5090369604551274
vn 0.8660254037844386 0.5000000000000001 -2.1211504774498136e-16
vn 1 6.123233995736766e-17 0
vn 0.8090169943749475 6.123233995736766e-17 0.5877852522924731
vn 0.30901699437494745 6.123233995736766e-17 0.9510565162951535
vn -0.30901699437494734 6.123233995736766e-17 0.9510565162951536
vn -0.8090169943749473 6.123233995736766e-17 0.5877852522924732
vn -1 6.123233995736766e-17 1.2246467991473532e-16
vn -0.8090169943749475 6.123233995736766e-17 -0.587785252292473
vn -0.30901699437494756 6.123233995736766e-17 -0.9510565162951535
vn 0.30901699437494723 6.123233995736766e-17 -0.9510565162951536
vn 0.8090169943749473 6.123233995736766e-17 -0.5877852522924735
vn 1 6.123233995736766e-17 -2.4492935982947064e-16
vn 0.8660254037844387 -0.4999999999999998 0
vn 0.7006292692220368 -0.4999999999999998 0.5090369604551273
vn 0.2676165673298175 -0.4999999999999998 0.823639103546332
vn -0.26761656732981737 -0.4999999999999998 0.8236391035463321
vn -0.7006292692220367 -0.4999999999999998 0.5090369604551274
vn -0.8660254037844387 -0.4999999999999998 1.0605752387249069e-16
vn -0.7006292692220368 -0.4999999999999998 -0.5090369604551271
vn -0.2676165673298176 -0.4999999999999998 -0.823639103546332
vn 0.2676165673298173 -0.4999999999999998 -0.8236391035463321
vn 0.7006292692220367 -0.4999999999999998 -0.5090369604551274
vn 0.8660254037844387 -0.4999999999999998 -2.1211504774498138e-16
vn 0.4999999999999999 -0.8660254037844387 0
vn 0.40450849718747367 -0.8660254037844387 0.2938926261462365
vn 0.1545084971874737 -0.8660254037844387 0.4755282581475767
vn -0.15450849718747364 -0.8660254037844387 0.47552825814757677
vn -0.4045084971874736 -0.8660254037844387 0.29389262614623657
vn -0.4999999999999999 -0.8660254037844387 6.123233995736766e-17
vn -0.40450849718747367 -0.8660254037844387 -0.29389262614623646
vn -0.15450849718747375 -0.8660254037844387 -0.4755282581475767
vn 0.1545084971874736 -0.8660254037844387 -0.47552825814757677
vn 0.4045084971874736 -0.8660254037844387 -0.2938926261462366
vn 0.4999999999999999 -0.8660254037844387 -1.2246467991473532e-16
vn 1.2246467991473532e-16 -1 0
vn 9.907600726170917e-17 -1 7.198293278059966e-17
vn 3.7843667304341506e-17 -1 1.1647083184890923e-16
vn -3.7843667304341493e-17 -1 1.1647083184890926e-16
vn -9.907600726170915e-17 -1 7.198293278059968e-17
vn -1.2246467991473532e-16 -1 1.4997597826618576e-32
vn -9.907600726170917e-17 -1 -7.198293278059965e-17
vn -3.784366730434152e-17 -1 -1.1647083184890923e-16
vn 3.7843667304341475e-17 -1 -1.1647083184890926e-16
vn 9.907600726170915e-17 -1 -7.19829327805997e-17
vn 1.2246467991473532e-16 -1 -2.999519565323715e-32
vn 0 1 0
vn 0 1 0
vn 0 1 0
vn 0 1 0
vn 0 1 0
vn 0 1 0
vn 0 1 0
vn 0 1 0
vn 0 1 0
vn 0 1 0
vn 0 1 0
vn 0.49999999999999994 0.8660254037844387 0
vn 0.40450849718747367 0.8660254037844387 0.2938926261462365
vn 0.1545084971874737 0.8660254037844387 0.4755282581475767
vn -0.15450849718747364 0.8660254037844387 0.4755282581475768
vn -0.4045084971874736 0.8660254037844387 0.29389262614623657
vn -0.49999999999999994 0.8660254037844387 6.123233995736765e-17
vn -0.40450849718747367 0.8660254037844387 -0.29389262614623646
vn -0.15450849718747375 0.8660254037844387 -0.4755282581475767
vn 0.1545084971874736 0.8660254037844387 -0.4755282581475768
vn 0.4045084971874736 0.8660254037844387 -0.2938926261462366
vn 0.49999999999999994 0.8660254037844387 -1.224646799147353e-16
vn 0.8660254037844386 0.5000000000000001 0
vn 0.7006292692220367 0.5000000000000001 0.5090369604551271
vn 0.2676165673298175 0.5000000000000001 0.8236391035463319
vn -0.26761656732981737 0.5000000000000001 0.823639103546332
vn -0.7006292692220365 0.5000000000000001 0.5090369604551273
vn -0.8660254037844386 0.5000000000000001 1.0605752387249068e-16
vn -0.7006292692220367 0.5000000000000001 -0.509036960455127
vn -0.26761656732981753 0.5000000000000001 -0.8236391035463319
vn 0.26761656732981726 0.5000000000000001 -0.823639103546332
vn 0.7006292692220365 0.5000000000000001 -0.5090369604551274
vn 0.8660254037844386 0.5000000000000001 -2.1211504774498136e-16
vn 1 6.123233995736766e-17 0
vn 0.8090169943749475 6.123233995736766e-17 0.5877852522924731
vn 0.30901699437494745 6.123233995736766e-17 0.9510565162951536
vn -0.30901699437494734 6.123233995736766e-17 0.9510565162951536
vn -0.8090169943749473 6.123233995736766e-17 0.5877852522924732
vn -1 6.123233995736766e-17 1.2246467991473532e-16
vn -0.8090169943749475 6.123233995736766e-17 -0.587785252292473
vn -0.30901699437494756 6.123233995736766e-17 -0.9510565162951536
vn 0.30901699437494723 6.123233995736766e-17 -0.9510565162951536
vn 0.8090169943749473 6.123233995736766e-17 -0.5877852522924734
vn 1 6.123233995736766e-17 -2.4492935982947064e-16
vn 0.8660254037844387 -0.49999999999999983 0
vn 0.7006292692220368 -0.49999999999999983 0.5090369604551273
vn 0.2676165673298175 -0.49999999999999983 0.823639103546332
vn -0.26761656732981737 -0.49999999999999983 0.8236391035463321
vn -0.7006292692220367 -0.49999999999999983 0.5090369604551274
vn -0.8660254037844387 -0.49999999999999983 1.0605752387249069e-16
vn -0.7006292692220368 -0.49999999999999983 -0.5090369604551271
vn -0.2676165673298176 -0.49999999999999983 -0.823639103546332
vn 0.2676165673298173 -0.49999999999999983 -0.8236391035463321
vn 0.7006292692220367 -0.49999999999999983 -0.5090369604551274
vn 0.8660254037844387 -0.49999999999999983 -2.1211504774498138e-16
vn 0.49999999999999994 -0.8660254037844387 0
vn 0.40450849718747367 -0.8660254037844387 0.2938926261462365
vn 0.1545084971874737 -0.8660254037844387 0.4755282581475767
vn -0.15450849718747364 -0.8660254037844387 0.4755282581475768
vn -0.4045084971874736 -0.8660254037844387 0.29389262614623657
vn -0.49999999999999994 -0.8660254037844387 6.123233995736765e-17
vn -0.40450849718747367 -0.8660254037844387 -0.29389262614623646
vn -0.15450849718747375 -0.8660254037844387 -0.4755282581475767
vn 0.1545084971874736 -0.8660254037844387 -0.4755282581475768
vn 0.4045084971874736 -0.8660254037844387 -0.2938926261462366
vn 0.49999999999999994 -0.8660254037844387 -1.224646799147353e-16
vn 1.2246467991473532e-16 -1 0
vn 9.907600726170916e-17 -1 7.198293278059966e-17
vn 3.784366730434151e-17 -1 1.1647083184890923e-16
vn -3.7843667304341493e-17 -1 1.1647083184890926e-16
vn -9.907600726170915e-17 -1 7.198293278059969e-17
vn -1.2246467991473532e-16 -1 1.4997597826618576e-32
vn -9.907600726170916e-17 -1 -7.198293278059965e-17
vn -3.784366730434152e-17 -1 -1.1647083184890923e-16
vn 3.7843667304341475e-17 -1 -1.1647083184890926e-16
vn 9.907600726170915e-17 -1 -7.19829327805997e-17
vn 1.2246467991473532e-16 -1 -2.999519565323715e-32
vn 0 1 0
vn 0 1 0
vn 0 1 0
vn 0 1 0
vn 0 1 0
vn 0 1 0
vn 0 1 0
vn 0 1 0
vn 0 1 0
vn 0 1 0
vn 0 1 0
vn 0.4999999999999999 0.8660254037844387 0
vn 0.40450849718747367 0.8660254037844387 0.2938926261462365
vn 0.1545084971874737 0.8660254037844387 0.4755282581475767
vn -0.15450849718747364 0.8660254037844387 0.4755282581475767
vn -0.40450849718747367 0.8660254037844387 0.29389262614623657
vn -0.4999999999999999 0.8660254037844387 6.123233995736765e-17
vn -0.40450849718747367 0.8660254037844387 -0.29389262614623646
vn -0.15450849718747375 0.8660254037844387 -0.4755282581475767
vn 0.1545084971874736 0.8660254037844387 -0.4755282581475767
vn 0.40450849718747367 0.8660254037844387 -0.2938926261462366
vn 0.4999999999999999 0.8660254037844387 -1.224646799147353e-16
vn 0.8660254037844386 0.5000000000000001 0
vn 0.7006292692220367 0.5000000000000001 0.5090369604551271
vn 0.2676165673298175 0.5000000000000001 0.8236391035463319
vn -0.26761656732981737 0.5000000000000001 0.823639103546332
vn -0.7006292692220366 0.5000000000000001 0.5090369604551273
vn -0.8660254037844386 0.5000000000000001 1.0605752387249067e-16
vn -0.7006292692220367 0.5000000000000001 -0.509036960455127
vn -0.26761656732981753 0.5000000000000001 -0.8236391035463319
vn 0.26761656732981726 0.5000000000000001 -0.823639103546332
vn 0.7006292692220366 0.5000000000000001 -0.5090369604551274
vn 0.8660254037844386 0.5000000000000001 -2.1211504774498133e-16
vn 1 6.123233995736766e-17 0
vn 0.8090169943749475 6.123233995736766e-17 0.5877852522924731
vn 0.30901699437494745 6.123233995736766e-17 0.9510565162951534
vn -0.30901699437494734 6.123233995736766e-17 0.9510565162951536
vn -0.8090169943749473 6.123233995736766e-17 0.5877852522924732
vn -1 6.123233995736766e-17 1.2246467991473532e-16
vn -0.8090169943749475 6.123233995736766e-17 -0.587785252292473
vn -0.30901699437494756 6.123233995736766e-17 -0.9510565162951534
vn 0.30901699437494723 6.123233995736766e-17 -0.9510565162951536
vn 0.8090169943749473 6.123233995736766e-17 -0.5877852522924734
vn 1 6.123233995736766e-17 -2.4492935982947064e-16
vn 0.8660254037844388 -0.4999999999999998 0
vn 0.7006292692220368 -0.4999999999999998 0.5090369604551273
vn 0.2676165673298175 -0.4999999999999998 0.823639103546332
vn -0.26761656732981737 -0.4999999999999998 0.8236391035463321
vn -0.7006292692220367 -0.4999999999999998 0.5090369604551274
vn -0.8660254037844388 -0.4999999999999998 1.0605752387249069e-16
vn -0.7006292692220368 -0.4999999999999998 -0.5090369604551271
vn -0.2676165673298176 -0.4999999999999998 -0.823639103546332
vn 0.2676165673298173 -0.4999999999999998 -0.8236391035463321
vn 0.7006292692220367 -0.4999999999999998 -0.5090369604551274
vn 0.8660254037844388 -0.4999999999999998 -2.1211504774498138e-16
vn 0.4999999999999999 -0.8660254037844387 0
vn 0.40450849718747367 -0.8660254037844387 0.2938926261462365
vn 0.1545084971874737 -0.8660254037844387 0.4755282581475767
vn -0.15450849718747364 -0.8660254037844387 0.4755282581475767
vn -0.40450849718747367 -0.8660254037844387 0.29389262614623657
vn -0.4999999999999999 -0.8660254037844387 6.123233995736765e-17
vn -0.40450849718747367 -0.8660254037844387 -0.29389262614623646
vn -0.15450849718747375 -0.8660254037844387 -0.4755282581475767
vn 0.1545084971874736 -0.8660254037844387 -0.4755282581475767
vn 0.40450849718747367 -0.8660254037844387 -0.2938926261462366
vn 0.4999999999999999 -0.8660254037844387 -1.224646799147353e-16
vn 1.2246467991473532e-16 -1 0
vn 9.907600726170916e-17 -1 7.198293278059966e-17
vn 3.7843667304341506e-17 -1 1.1647083184890923e-16
vn -3.7843667304341493e-17 -1 1.1647083184890926e-16
vn -9.907600726170915e-17 -1 7.198293278059968e-17
vn -1.2246467991473532e-16 -1 1.4997597826618576e-32
vn -9.907600726170916e-17 -1 -7.198293278059965e-17
vn -3.784366730434152e-17 -1 -1.1647083184890923e-16
vn 3.7843667304341475e-17 -1 -1.1647083184890926e-16
vn 9.907600726170915e-17 -1 -7.19829327805997e-17
vn 1.2246467991473532e-16 -1 -2.999519565323715e-32
vn 0 1 0
vn 0 1 0
vn 0 1 0
vn 0 1 0
vn 0 1 0
vn 0 1 0
vn 0 1 0
vn 0 1 0
vn 0 1 0
vn 0 1 0
vn 0 1 0
vn 0.4999999999999999 0.8660254037844387 0
vn 0.40450849718747367 0.8660254037844387 0.2938926261462365
vn 0.1545084971874737 0.8660254037844387 0.4755282581475767
vn -0.15450849718747364 0.8660254037844387 0.4755282581475768
vn -0.4045084971874736 0.8660254037844387 0.29389262614623657
vn -0.4999999999999999 0.8660254037844387 6.123233995736765e-17
vn -0.40450849718747367 0.8660254037844387 -0.29389262614623646
vn -0.15450849718747375 0.8660254037844387 -0.4755282581475767
vn 0.1545084971874736 0.8660254037844387 -0.4755282581475768
vn 0.4045084971874736 0.8660254037844387 -0.2938926261462366
vn 0.4999999999999999 0.8660254037844387 -1.224646799147353e-16
vn 0.8660254037844386 0.5000000000000001 0
vn 0.7006292692220367 0.5000000000000001 0.5090369604551271
vn 0.2676165673298175 0.5000000000000001 0.8236391035463319
vn -0.26761656732981737 0.5000000000000001 0.823639103546332
vn -0.7006292692220366 0.5000000000000001 0.5090369604551273
vn -0.8660254037844386 0.5000000000000001 1.0605752387249068e-16
vn -0.7006292692220367 0.5000000000000001 -0.509036960455127
vn -0.26761656732981753 0.5000000000000001 -0.8236391035463319
vn 0.26761656732981726 0.5000000000000001 -0.823639103546332
vn 0.7006292692220366 0.5000000000000001 -0.5090369604551274
vn 0.8660254037844386 0.5000000000000001 -2.1211504774498136e-16
vn 1 6.123233995736766e-17 0
vn 0.8090169943749475 6.123233995736766e-17 0.5877852522924731
vn 0.30901699437494745 6.123233995736766e-17 0.9510565162951536
vn -0.30901699437494734 6.123233995736766e-17 0.9510565162951536
vn -0.8090169943749473 6.123233995736766e-17 0.5877852522924732
vn -1 6.123233995736766e-17 1.2246467991473532e-16
vn -0.8090169943749475 6.123233995736766e-17 -0.587785252292473
vn -0.30901699437494756 6.123233995736766e-17 -0.9510565162951536
vn 0.30901699437494723 6.123233995736766e-17 -0.9510565162951536
vn 0.8090169943749473 6.123233995736766e-17 -0.5877852522924734
vn 1 6.123233995736766e-17 -2.4492935982947064e-16
vn 0.8660254037844386 -0.4999999999999998 0
vn 0.7006292692220368 -0.4999999999999998 0.5090369604551273
vn 0.2676165673298175 -0.4999999999999998 0.823639103546332
vn -0.26761656732981737 -0.4999999999999998 0.8236391035463321
vn -0.7006292692220367 -0.4999999999999998 0.5090369604551274
vn -0.8660254037844386 -0.4999999999999998 1.060575238724907e-16
vn -0.7006292692220368 -0.4999999999999998 -0.5090369604551271
vn -0.2676165673298176 -0.4999999999999998 -0.823639103546332
vn 0.2676165673298173 -0.4999999999999998 -0.8236391035463321
vn 0.7006292692220367 -0.4999999999999998 -0.5090369604551274
vn 0.8660254037844386 -0.4999999999999998 -2.121150477449814e-16
vn 0.4999999999999999 -0.8660254037844387 0
vn 0.40450849718747367 -0.8660254037844387 0.2938926261462365
vn 0.1545084971874737 -0.8660254037844387 0.4755282581475767
vn -0.15450849718747364 -0.8660254037844387 0.4755282581475768
vn -0.4045084971874736 -0.8660254037844387 0.29389262614623657
vn -0.4999999999999999 -0.8660254037844387 6.123233995736765e-17
vn -0.40450849718747367 -0.8660254037844387 -0.29389262614623646
vn -0.15450849718747375 -0.8660254037844387 -0.4755282581475767
vn 0.1545084971874736 -0.8660254037844387 -0.4755282581475768
vn 0.4045084971874736 -0.8660254037844387 -0.2938926261462366
vn 0.4999999999999999 -0.8660254037844387 -1.224646799147353e-16
vn 1.2246467991473532e-16 -1 0
vn 9.907600726170916e-17 -1 7.198293278059966e-17
vn 3.7843667304341506e-17 -1 1.1647083184890923e-16
vn -3.7843667304341493e-17 -1 1.1647083184890926e-16
vn -9.907600726170915e-17 -1 7.198293278059968e-17
vn -1.2246467991473532e-16 -1 1.4997597826618576e-32
vn -9.907600726170916e-17 -1 -7.198293278059965e-17
vn -3.784366730434152e-17 -1 -1.1647083184890923e-16
vn 3.7843667304341475e-17 -1 -1.1647083184890926e-16
vn 9.907600726170915e-17 -1 -7.19829327805997e-17
vn 1.2246467991473532e-16 -1 -2.999519565323715e-32
vn 0 1 0
vn 0 1 0
vn 0 1 0
vn 0 1 0
vn 0 1 0
vn 0 1 0
vn 0 1 0
vn 0 1 0
vn 0 1 0
vn 0 1 0
vn 0 1 0
vn 0.49999999999999994 0.8660254037844387 0
vn 0.40450849718747367 0.8660254037844387 0.2938926261462365
vn 0.1545084971874737 0.8660254037844387 0.4755282581475767
vn -0.15450849718747364 0.8660254037844387 0.4755282581475767
vn -0.40450849718747367 0.8660254037844387 0.29389262614623657
vn -0.49999999999999994 0.8660254037844387 6.123233995736765e-17
vn -0.40450849718747367 0.8660254037844387 -0.29389262614623646
vn -0.15450849718747375 0.8660254037844387 -0.4755282581475767
vn 0.1545084971874736 0.8660254037844387 -0.4755282581475767
vn 0.40450849718747367 0.8660254037844387 -0.2938926261462366
vn 0.49999999999999994 0.8660254037844387 -1.224646799147353e-16
vn 0.8660254037844386 0.5000000000000001 0
vn 0.7006292692220367 0.5000000000000001 0.5090369604551271
vn 0.2676165673298175 0.5000000000000001 0.8236391035463319
vn -0.26761656732981737 0.5000000000000001 0.823639103546332
vn -0.7006292692220367 0.5000000000000001 0.5090369604551273
vn -0.8660254037844386 0.5000000000000001 1.0605752387249068e-16
vn -0.7006292692220367 0.5000000000000001 -0.509036960455127
vn -0.26761656732981753 0.5000000000000001 -0.8236391035463319
vn 0.26761656732981726 0.5000000000000001 -0.823639103546332
vn 0.7006292692220367 0.5000000000000001 -0.5090369604551274
vn 0.8660254037844386 0.5000000000000001 -2.1211504774498136e-16
vn 1 6.123233995736766e-17 0
vn 0.8090169943749475 6.123233995736766e-17 0.5877852522924731
vn 0.30901699437494745 6.123233995736766e-17 0.9510565162951534
vn -0.30901699437494734 6.123233995736766e-17 0.9510565162951536
vn -0.8090169943749473 6.123233995736766e-17 0.5877852522924732
vn -1 6.123233995736766e-17 1.2246467991473532e-16
vn -0.8090169943749475 6.123233995736766e-17 -0.587785252292473
vn -0.30901699437494756 6.123233995736766e-17 -0.9510565162951534
vn 0.30901699437494723 6.123233995736766e-17 -0.9510565162951536
vn 0.8090169943749473 6.123233995736766e-17 -0.5877852522924734
vn 1 6.123233995736766e-17 -2.4492935982947064e-16
vn 0.8660254037844387 -0.4999999999999998 0
vn 0.7006292692220368 -0.4999999999999998 0.5090369604551273
vn 0.2676165673298175 -0.4999999999999998 0.823639103546332
vn -0.26761656732981737 -0.4999999999999998 0.8236391035463321
vn -0.7006292692220367 -0.4999999999999998 0.5090369604551274
vn -0.8660254037844387 -0.4999999999999998 1.0605752387249069e-16
vn -0.7006292692220368 -0.4999999999999998 -0.5090369604551271
vn -0.2676165673298176 -0.4999999999999998 -0.823639103546332
vn 0.2676165673298173 -0.4999999999999998 -0.8236391035463321
vn 0.7006292692220367 -0.4999999999999998 -0.5090369604551274
vn 0.8660254037844387 -0.4999999999999998 -2.1211504774498138e-16
vn 0.49999999999999994 -0.8660254037844387 0
vn 0.40450849718747367 -0.8660254037844387 0.2938926261462365
vn 0.1545084971874737 -0.8660254037844387 0.4755282581475767
vn -0.15450849718747364 -0.8660254037844387 0.4755282581475767
vn -0.40450849718747367 -0.8660254037844387 0.29389262614623657
vn -0.49999999999999994 -0.8660254037844387 6.123233995736765e-17
vn -0.40450849718747367 -0.8660254037844387 -0.29389262614623646
vn -0.15450849718747375 -0.8660254037844387 -0.4755282581475767
vn 0.1545084971874736 -0.8660254037844387 -0.4755282581475767
vn 0.40450849718747367 -0.8660254037844387 -0.2938926261462366
vn 0.49999999999999994 -0.8660254037844387 -1.224646799147353e-16
vn 1.2246467991473532e-16 -1 0
vn 9.907600726170915e-17 -1 7.198293278059966e-17
vn 3.7843667304341506e-17 -1 1.1647083184890923e-16
vn -3.7843667304341493e-17 -1 1.1647083184890926e-16
vn -9.907600726170915e-17 -1 7.198293278059966e-17
vn -1.2246467991473532e-16 -1 1.499759782661858e-32
vn -9.907600726170915e-17 -1 -7.198293278059965e-17
vn -3.784366730434152e-17 -1 -1.1647083184890923e-16
vn 3.7843667304341475e-17 -1 -1.1647083184890926e-16
vn 9.907600726170915e-17 -1 -7.19829327805997e-17
vn 1.2246467991473532e-16 -1 -2.999519565323716e-32
f 1/1/1 2/2/2 12/12/12
f 1/1/1 12/12/12 11/11/11
f 21/21/21 2/2/2 1/1/1
f 22/22/22 11/11/11 12/12/12
f 2/2/2 3/3/3 13/13/13
f 2/2/2 13/13/13 12/12/12
f 21/21/21 3/3/3 2/2/2
f 22/22/22 12/12/12 13/13/13
f 3/3/3 4/4/4 14/14/14
f 3/3/3 14/14/14 13/13/13
f 21/21/21 4/4/4 3/3/3
f 22/22/22 13/13/13 14/14/14
f 4/4/4 5/5/5 15/15/15
f 4/4/4 15/15/15 14/14/14
f 21/21/21 5/5/5 4/4/4
f 22/22/22 14/14/14 15/15/15
f 5/5/5 6/6/6 16/16/16
f 5/5/5 16/16/16 15/15/15
f 21/21/21 6/6/6 5/5/5
f 22/22/22 15/15/15 16/16/16
f 6/6/6 7/7/7 17/17/17
f 6/6/6 17/17/17 16/16/16
f 21/21/21 7/7/7 6/6/6
f 22/22/22 16/16/16 17/17/17
f 7/7/7 8/8/8 18/18/18
f 7/7/7 18/18/18 17/17/17
f 21/21/21 8/8/8 7/7/7
f 22/22/22 17/17/17 18/18/18
f 8/8/8 9/9/9 19/19/19
f 8/8/8 19/19/19 18/18/18
f 21/21/21 9/9/9 8/8/8
f 22/22/22 18/18/18 19/19/19
f 9/9/9 10/10/10 20/20/20
f 9/9/9 20/20/20 19/19/19
f 21/21/21 10/10/10 9/9/9
f 22/22/22 19/19/19 20/20/20
f 10/10/10 1/1/1 11/11/11
f 10/10/10 11/11/11 20/20/20
f 21/21/21 1/1/1 10/10/10
f 22/22/22 20/20/20 11/11/11
f 23/23/23 24/24/24 28/28/28
f 23/23/23 28/28/28 27/27/27
f 31/31/31 24/24/24 23/23/23
f 32/32/32 27/27/27 28/28/28
f 24/24/24 25/25/25 29/29/29
f 24/24/24 29/29/29 28/28/28
f 31/31/31 25/25/25 24/24/24
f 32/32/32 28/28/28 29/29/29
f 25/25/25 26/26/26 30/30/30
f 25/25/25 30/30/30 29/29/29
f 31/31/31 26/26/26 25/25/25
f 32/32/32 29/29/29 30/30/30
f 26/26/26 23/23/23 27/27/27
f 26/26/26 27/27/27 30/30/30
f 31/31/31 23/23/23 26/26/26
f 32/32/32 30/30/30 27/27/27
f 33/33/33 34/34/34 38/38/38
f 33/33/33 38/38/38 37/37/37
f 41/41/41 34/34/34 33/33/33
f 42/42/42 37/37/37 38/38/38
f 34/34/34 35/35/35 39/39/39
f 34/34/34 39/39/39 38/38/38
f 41/41/41 35/35/35 34/34/34
f 42/42/42 38/38/38 39/39/39
f 35/35/35 36/36/36 40/40/40
f 35/35/35 40/40/40 39/39/39
f 41/41/41 36/36/36 35/35/35
f 42/42/42 39/39/39 40/40/40
f 36/36/36 33/33/33 37/37/37
f 36/36/36 37/37/37 40/40/40
f 41/41/41 33/33/33 36/36/36
f 42/42/42 40/40/40 37/37/37
f 43/43/43 44/44/44 48/48/48
f 43/43/43 48/48/48 47/47/47
f 51/51/51 44/44/44 43/43/43
f 52/52/52 47/47/47 48/48/48
f 44/44/44 45/45/45 49/49/49
f 44/44/44 49/49/49 48/48/48
f 51/51/51 45/45/45 44/44/44
f 52/52/52 48/48/48 49/49/49
f 45/45/45 46/46/46 50/50/50
f 45/45/45 50/50/50 49/49/49
f 51/51/51 46/46/46 45/45/45
f 52/52/52 49/49/49 50/50/50
f 46/46/46 43/43/43 47/47/47
f 46/46/46 47/47/47 50/50/50
f 51/51/51 43/43/43 46/46/46
f 52/52/52 50/50/50 47/47/47
f 53/53/53 54/54/54 58/58/58
f 53/53/53 58/58/58 57/57/57
f 61/61/61 54/54/54 53/53/53
f 62/62/62 57/57/57 58/58/58
f 54/54/54 55/55/55 59/59/59
f 54/54/54 59/59/59 58/58/58
f 61/61/61 55/55/55 54/54/54
f 62/62/62 58/58/58 59/59/59
f 55/55/55 56/56/56 60/60/60
f 55/55/55 60/60/60 59/59/59
f 61/61/61 56/56/56 55/55/55
f 62/62/62 59/59/59 60/60/60
f 56/56/56 53/53/53 57/57/57
f 56/56/56 57/57/57 60/60/60
f 61/61/61 53/53/53 56/56/56
f 62/62/62 60/60/60 57/57/57
f 63/63/63 64/64/64 68/68/68
f 63/63/63 68/68/68 67/67/67
f 71/71/71 64/64/64 63/63/63
f 72/72/72 67/67/67 68/68/68
f 64/64/64 65/65/65 69/69/69
f 64/64/64 69/69/69 68/68/68
f 71/71/71 65/65/65 64/64/64
f 72/72/72 68/68/68 69/69/69
f 65/65/65 66/66/66 70/70/70
f 65/65/65 70/70/70 69/69/69
f 71/71/71 66/66/66 65/65/65
f 72/72/72 69/69/69 70/70/70
f 66/66/66 63/63/63 67/67/67
f 66/66/66 67/67/67 70/70/70
f 71/71/71 63/63/63 66/66/66
f 72/72/72 70/70/70 67/67/67
f 73/73/73 84/84/84 85/85/85
f 73/73/73 85/85/85 74/74/74
f 74/74/74 85/85/85 86/86/86
f 74/74/74 86/86/86 75/75/75
f 75/75/75 86/86/86 87/87/87
f 75/75/75 87/87/87 76/76/76
f 76/76/76 87/87/87 88/88/88
f 76/76/76 88/88/88 77/77/77
f 77/77/77 88/88/88 89/89/89
f 77/77/77 89/89/89 78/78/78
f 78/78/78 89/89/89 90/90/90
f 78/78/78 90/90/90 79/79/79
f 79/79/79 90/90/90 91/91/91
f 79/79/79 91/91/91 80/80/80
f 80/80/80 91/91/91 92/92/92
f 80/80/80 92/92/92 81/81/81
f 81/81/81 92/92/92 93/93/93
f 81/81/81 93/93/93 82/82/82
f 82/82/82 93/93/93 94/94/94
f 82/82/82 94/94/94 83/83/83
f 84/84/84 95/95/95 96/96/96
f 84/84/84 96/96/96 85/85/85
f 85/85/85 96/96/96 97/97/97
f 85/85/85 97/97/97 86/86/86
f 86/86/86 97/97/97 98/98/98
f 86/86/86 98/98/98 87/87/87
f 87/87/87 98/98/98 99/99/99
f 87/87/87 99/99/99 88/88/88
f 88/88/88 99/99/99 100/100/100
f 88/88/88 100/100/100 89/89/89
f 89/89/89 100/100/100 101/101/101
f 89/89/89 101/101/101 90/90/90
f 90/90/90 101/101/101 102/102/102
f 90/90/90 102/102/102 91/91/91
f 91/91/91 102/102/102 103/103/103
f 91/91/91 103/103/103 92/92/92
f 92/92/92 103/103/103 104/104/104
f 92/92/92 104/104/104 93/93/93
f 93/93/93 104/104/104 105/105/105
f 93/93/93 105/105/105 94/94/94
f 95/95/95 106/106/106 107/107/107
f 95/95/95 107/107/107 96/96/96
f 96/96/96 107/107/107 108/108/108
f 96/96/96 108/108/108 97/97/97
f 97/97/97 108/108/108 109/109/109
f 97/97/97 109/109/109 98/98/98
f 98/98/98 109/109/109 110/110/110
f 98/98/98 110/110/110 99/99/99
f 99/99/99 110/110/110 111/111/111
f 99/99/99 111/111/111 100/100/100
f 100/100/100 111/111/111 112/112/112
f 100/100/100 112/112/112 101/101/101
f 101/101/101 112/112/112 113/113/113
f 101/101/101 113/113/113 102/102/102
f 102/102/102 113/113/113 114/114/114
f 102/102/102 114/114/114 103/103/103
f 103/103/103 114/114/114 115/115/115
f 103/103/103 115/115/115 104/104/104
f 104/104/104 115/115/115 116/116/116
f 104/104/104 116/116/116 105/105/105
f 106/106/106 117/117/117 118/118/118
f 106/106/106 118/118/118 107/107/107
f 107/107/107 118/118/118 119/119/119
f 107/107/107 119/119/119 108/108/108
f 108/108/108 119/119/119 120/120/120
f 108/108/108 120/120/120 109/109/109
f 109/109/109 120/120/120 121/121/121
f 109/109/109 121/121/121 110/110/110
f 110/110/110 121/121/121 122/122/122
f 110/110/110 122/122/122 111/111/111
f 111/111/111 122/122/122 123/123/123
f 111/111/111 123/123/123 112/112/112
f 112/112/112 123/123/123 124/124/124
f 112/112/112 124/124/124 113/113/113
f 113/113/113 124/124/124 125/125/125
f 113/113/113 125/125/125 114/114/114
f 114/114/114 125/125/125 126/126/126
f 114/114/114 126/126/126 115/115/115
f 115/115/115 126/126/126 127/127/127
f 115/115/115 127/127/127 116/116/116
f 117/117/117 128/128/128 129/129/129
f 117/117/117 129/129/129 118/118/118
f 118/118/118 129/129/129 130/130/130
f 118/118/118 130/130/130 119/119/119
f 119/119/119 130/130/130 131/131/131
f 119/119/119 131/131/131 120/120/120
f 120/120/120 131/131/131 132/132/132
f 120/120/120 132/132/132 121/121/121
f 121/121/121 132/132/132 133/133/133
f 121/121/121 133/133/133 122/122/122
f 122/122/122 133/133/133 134/134/134
f 122/122/122 134/134/134 123/123/123
f 123/123/123 134/134/134 135/135/135
f 123/123/123 135/135/135 124/124/124
f 124/124/124 135/135/135 136/136/136
f 124/124/124 136/136/136 125/125/125
f 125/125/125 136/136/136 137/137/137
f 125/125/125 137/137/137 126/126/126
f 126/126/126 137/137/137 138/138/138
f 126/126/126 138/138/138 127/127/127
f 128/128/128 139/139/139 140/140/140
f 128/128/128 140/140/140 129/129/129
f 129/129/129 140/140/140 141/141/141
f 129/129/129 141/141/141 130/130/130
f 130/130/130 141/141/141 142/142/142
f 130/130/130 142/142/142 131/131/131
f 131/131/131 142/142/142 143/143/143
f 131/131/131 143/143/143 132/132/132
f 132/132/132 143/143/143 144/144/144
f 132/132/132 144/144/144 133/133/133
f 133/133/133 144/144/144 145/145/145
f 133/133/133 145/145/145 134/134/134
f 134/134/134 145/145/145 146/146/146
f 134/134/134 146/146/146 135/135/135
f 135/135/135 146/146/146 147/147/147
f 135/135/135 147/147/147 136/136/136
f 136/136/136 147/147/147 148/148/148
f 136/136/136 148/148/148 137/137/137
f 137/137/137 148/148/148 149/149/149
f 137/137/137 149/149/149 138/138/138
f 150/150/150 161/161/161 162/162/162
f 150/150/150 162/162/162 151/151/151
f 151/151/151 162/162/162 163/163/163
f 151/151/151 163/163/163 152/152/152
f 152/152/152 163/163/163 164/164/164
f 152/152/152 164/164/164 153/153/153
f 153/153/153 164/164/164 165/165/165
f 153/153/153 165/165/165 154/154/154
f 154/154/154 165/165/165 166/166/166
f 154/154/154 166/166/166 155/155/155
f 155/155/155 166/166/166 167/167/167
f 155/155/155 167/167/167 156/156/156
f 156/156/156 167/167/167 168/168/168
f 156/156/156 168/168/168 157/157/157
f 157/157/157 168/168/168 169/169/169
f 157/157/157 169/169/169 158/158/158
f 158/158/158 169/169/169 170/170/170
f 158/158/158 170/170/170 159/159/159
f 159/159/159 170/170/170 171/171/171
f 159/159/159 171/171/171 160/160/160
f 161/161/161 172/172/172 173/173/173
f 161/161/161 173/173/173 162/162/162
f 162/162/162 173/173/173 174/174/174
f 162/162/162 174/174/174 163/163/163
f 163/163/163 174/174/174 175/175/175
f 163/163/163 175/175/175 164/164/164
f 164/164/164 175/175/175 176/176/176
f 164/164/164 176/176/176 165/165/165
f 165/165/165 176/176/176 177/177/177
f 165/165/165 177/177/177 166/166/166
f 166/166/166 177/177/177 178/178/178
f 166/166/166 178/178/178 167/167/167
f 167/167/167 178/178/178 179/179/179
f 167/167/167 179/179/179 168/168/168
f 168/168/168 179/179/179 180/180/180
f 168/168/168 180/180/180 169/169/169
f 169/169/169 180/180/180 181/181/181
f 169/169/169 181/181/181 170/170/170
f 170/170/170 181/181/181 182/182/182
f 170/170/170 182/182/182 171/171/171
f 172/172/172 183/183/183 184/184/184
f 172/172/172 184/184/184 173/173/173
f 173/173/173 184/184/184 185/185/185
f 173/173/173 185/185/185 174/174/174
f 174/174/174 185/185/185 186/186/186
f 174/174/174 186/186/186 175/175/175
f 175/175/175 186/186/186 187/187/187
f 175/175/175 187/187/187 176/176/176
f 176/176/176 187/187/187 188/188/188
f 176/176/176 188/188/188 177/177/177
f 177/177/177 188/188/188 189/189/189
f 177/177/177 189/189/189 178/178/178
f 178/178/178 189/189/189 190/190/190
f 178/178/178 190/190/190 179/179/179
f 179/179/179 190/190/190 191/191/191
f 179/179/179 191/191/191 180/180/180
f 180/180/180 191/191/191 192/192/192
f 180/180/180 192/192/192 181/181/181
f 181/181/181 192/192/192 193/193/193
f 181/181/181 193/193/193 182/182/182
f 183/183/183 194/194/194 195/195/195
f 183/183/183 195/195/195 184/184/184
f 184/184/184 195/195/195 196/196/196
f 184/184/184 196/196/196 185/185/185
f 185/185/185 196/196/196 197/197/197
f 185/185/185 197/197/197 186/186/186
f 186/186/186 197/197/197 198/198/198
f 186/186/186 198/198/198 187/187/187
f 187/187/187 198/198/198 199/199/199
f 187/187/187 199/199/199 188/188/188
f 188/188/188 199/199/199 200/200/200
f 188/188/188 200/200/200 189/189/189
f 189/189/189 200/200/200 201/201/201
f 189/189/189 201/201/201 190/190/190
f 190/190/190 201/201/201 202/202/202
f 190/190/190 202/202/202 191/191/191
f 191/191/191 202/202/202 203/203/203
f 191/191/191 203/203/203 192/192/192
f 192/192/192 203/203/203 204/204/204
f 192/192/192 204/204/204 193/193/193
f 194/194/194 205/205/205 206/206/206
f 194/194/194 206/206/206 195/195/195
f 195/195/195 206/206/206 207/207/207
f 195/195/195 207/207/207 196/196/196
f 196/196/196 207/207/207 208/208/208
f 196/196/196 208/208/208 197/197/197
f 197/197/197 208/208/208 209/209/209
f 197/197/197 209/209/209 198/198/198
f 198/198/198 209/209/209 210/210/210
f 198/198/198 210/210/210 199/199/199
f 199/199/199 210/210/210 211/211/211
f 199/199/199 211/211/211 200/200/200
f 200/200/200 211/211/211 212/212/212
f 200/200/200 212/212/212 201/201/201
f 201/201/201 212/212/212 213/213/213
f 201/201/201 213/213/213 202/202/202
f 202/202/202 213/213/213 214/214/214
f 202/202/202 214/214/214 203/203/203
f 203/203/203 214/214/214 215/215/215
f 203/203/203 215/215/215 204/204/204
f 205/205/205 216/216/216 217/217/217
f 205/205/205 217/217/217 206/206/206
f 206/206/206 217/217/217 218/218/218
f 206/206/206 218/218/218 207/207/207
f 207/207/207 218/218/218 219/219/219
f 207/207/207 219/219/219 208/208/208
f 208/208/208 219/219/219 220/220/220
f 208/208/208 220/220/220 209/209/209
f 209/209/209 220/220/220 221/221/221
f 209/209/209 221/221/221 210/210/210
f 210/210/210 221/221/221 222/222/222
f 210/210/210 222/222/222 211/211/211
f 211/211/211 222/222/222 223/223/223
f 211/211/211 223/223/223 212/212/212
f 212/212/212 223/223/223 224/224/224
f 212/212/212 224/224/224 213/213/213
f 213/213/213 224/224/224 225/225/225
f 213/213/213 225/225/225 214/214/214
f 214/214/214 225/225/225 226/226/226
f 214/214/214 226/226/226 215/215/215
f 227/227/227 238/238/238 239/239/239
f 227/227/227 239/239/239 228/228/228
f 228/228/228 239/239/239 240/240/240
f 228/228/228 240/240/240 229/229/229
f 229/229/229 240/240/240 241/241/241
f 229/229/229 241/241/241 230/230/230
f 230/230/230 241/241/241 242/242/242
f 230/230/230 242/242/242 231/231/231
f 231/231/231 242/242/242 243/243/243
f 231/231/231 243/243/243 232/232/232
f 232/232/232 243/243/243 244/244/244
f 232/232/232 244/244/244 233/233/233
f 233/233/233 244/244/244 245/245/245
f 233/233/233 245/245/245 234/234/234
f 234/234/234 245/245/245 246/246/246
f 234/234/234 246/246/246 235/235/235
f 235/235/235 246/246/246 247/247/247
f 235/235/235 247/247/247 236/236/236
f 236/236/236 247/247/247 248/248/248
f 236/236/236 248/248/248 237/237/237
f 238/238/238 249/249/249 250/250/250
f 238/238/238 250/250/250 239/239/239
f 239/239/239 250/250/250 251/251/251
f 239/239/239 251/251/251 240/240/240
f 240/240/240 251/251/251 252/252/252
f 240/240/240 252/252/252 241/241/241
f 241/241/241 252/252/252 253/253/253
f 241/241/241 253/253/253 242/242/242
f 242/242/242 253/253/253 254/254/254
f 242/242/242 254/254/254 243/243/243
f 243/243/243 254/254/254 255/255/255
f 243/243/243 255/255/255 244/244/244
f 244/244/244 255/255/255 256/256/256
f 244/244/244 256/256/256 245/245/245
f 245/245/245 256/256/256 257/257/257
f 245/245/245 257/257/257 246/246/246
f 246/246/246 257/257/257 258/258/258
f 246/246/246 258/258/258 247/247/247
f 247/247/247 258/258/258 259/259/259
f 247/247/247 259/259/259 248/248/248
f 249/249/249 260/260/260 261/261/261
f 249/249/249 261/261/261 250/250/250
f 250/250/250 261/261/261 262/262/262
f 250/250/250 262/262/262 251/251/251
f 251/251/251 262/262/262 263/263/263
f 251/251/251 263/263/263 252/252/252
f 252/252/252 263/263/263 264/264/264
f 252/252/252 264/264/264 253/253/253
f 253/253/253 264/264/264 265/265/265
f 253/253/253 265/265/265 254/254/254
f 254/254/254 265/265/265 266/266/266
f 254/254/254 266/266/266 255/255/255
f 255/255/255 266/266/266 267/267/267
f 255/255/255 267/267/267 256/256/256
f 256/256/256 267/267/267 268/268/268
f 256/256/256 268/268/268 257/257/257
f 257/257/257 268/268/268 269/269/269
f 257/257/257 269/269/269 258/258/258
f 258/258/258 269/269/269 270/270/270
f 258/258/258 270/270/270 259/259/259
f 260/260/260 271/271/271 272/272/272
f 260/260/260 272/272/272 261/261/261
f 261/261/261 272/272/272 273/273/273
f 261/261/261 273/273/273 262/262/262
f 262/262/262 273/273/273 274/274/274
f 262/262/262 274/274/274 263/263/263
f 263/263/263 274/274/274 275/275/275
f 263/263/263 275/275/275 264/264/264
f 264/264/264 275/275/275 276/276/276
f 264/264/264 276/276/276 265/265/265
f 265/265/265 276/276/276 277/277/277
f 265/265/265 277/277/277 266/266/266
f 266/266/266 277/277/277 278/278/278
f 266/266/266 278/278/278 267/267/267
f 267/267/267 278/278/278 279/279/279
f 267/267/267 279/279/279 268/268/268
f 268/268/268 279/279/279 280/280/280
f 268/268/268 280/280/280 269/269/269
f 269/269/269 280/280/280 281/281/281
f 269/269/269 281/281/281 270/270/270
f 271/271/271 282/282/282 283/283/283
f 271/271/271 283/283/283 272/272/272
f 272/272/272 283/283/283 284/284/284
f 272/272/272 284/284/284 273/273/273
f 273/273/273 284/284/284 285/285/285
f 273/273/273 285/285/285 274/274/274
f 274/274/274 285/285/285 286/286/286
f 274/274/274 286/286/286 275/275/275
f 275/275/275 286/286/286 287/287/287
f 275/275/275 287/287/287 276/276/276
f 276/276/276 287/287/287 288/288/288
f 276/276/276 288/288/288 277/277/277
f 277/277/277 288/288/288 289/289/289
f 277/277/277 289/289/289 278/278/278
f 278/278/278 289/289/289 290/290/290
f 278/278/278 290/290/290 279/279/279
f 279/279/279 290/290/290 291/291/291
f 279/279/279 291/291/291 280/280/280
f 280/280/280 291/291/291 292/292/292
f 280/280/280 292/292/292 281/281/281
f 282/282/282 293/293/293 294/294/294
f 282/282/282 294/294/294 283/283/283
f 283/283/283 294/294/294 295/295/295
f 283/283/283 295/295/295 284/284/284
f 284/284/284 295/295/295 296/296/296
f 284/284/284 296/296/296 285/285/285
f 285/285/285 296/296/296 297/297/297
f 285/285/285 297/297/297 286/286/286
f 286/286/286 297/297/297 298/298/298
f 286/286/286 298/298/298 287/287/287
f 287/287/287 298/298/298 299/299/299
f 287/287/287 299/299/299 288/288/288
f 288/288/288 299/299/299 300/300/300
f 288/288/288 300/300/300 289/289/289
f 289/289/289 300/300/300 301/301/301
f 289/289/289 301/301/301 290/290/290
f 290/290/290 301/301/301 302/302/302
f 290/290/290 302/302/302 291/291/291
f 291/291/291 302/302/302 303/303/303
f 291/291/291 303/303/303 292/292/292
f 304/304/304 315/315/315 316/316/316
f 304/304/304 316/316/316 305/305/305
f 305/305/305 316/316/316 317/317/317
f 305/305/305 317/317/317 306/306/306
f 306/306/306 317/317/317 318/318/318
f 306/306/306 318/318/318 307/307/307
f 307/307/307 318/318/318 319/319/319
f 307/307/307 319/319/319 308/308/308
f 308/308/308 319/319/319 320/320/320
f 308/308/308 320/320/320 309/309/309
f 309/309/309 320/320/320 321/321/321
f 309/309/309 321/321/321 310/310/310
f 310/310/310 321/321/321 322/322/322
f 310/310/310 322/322/322 311/311/311
f 311/311/311 322/322/322 323/323/323
f 311/311/311 323/323/323 312/312/312
f 312/312/312 323/323/323 324/324/324
f 312/312/312 324/324/324 313/313/313
f 313/313/313 324/324/324 325/325/325
f 313/313/313 325/325/325 314/314/314
f 315/315/315 326/326/326 327/327/327
f 315/315/315 327/327/327 316/316/316
f 316/316/316 327/327/327 328/328/328
f 316/316/316 328/328/328 317/317/317
f 317/317/317 328/328/328 329/329/329
f 317/317/317 329/329/329 318/318/318
f 318/318/318 329/329/329 330/330/330
f 318/318/318 330/330/330 319/319/319
f 319/319/319 330/330/330 331/331/331
f 319/319/319 331/331/331 320/320/320
f 320/320/320 331/331/331 332/332/332
f 320/320/320 332/332/332 321/321/321
f 321/321/321 332/332/332 333/333/333
f 321/321/321 333/333/333 322/322/322
f 322/322/322 333/333/333 334/334/334
f 322/322/322 334/334/334 323/323/323
f 323/323/323 334/334/334 335/335/335
f 323/323/323 335/335/335 324/324/324
f 324/324/324 335/335/335 336/336/336
f 324/324/324 336/336/336 325/325/325
f 326/326/326 337/337/337 338/338/338
f 326/326/326 338/338/338 327/327/327
f 327/327/327 338/338/338 339/339/339
f 327/327/327 339/339/339 328/328/328
f 328/328/328 339/339/339 340/340/340
f 328/328/328 340/340/340 329/329/329
f 329/329/329 340/340/340 341/341/341
f 329/329/329 341/341/341 330/330/330
f 330/330/330 341/341/341 342/342/342
f 330/330/330 342/342/342 331/331/331
f 331/331/331 342/342/342 343/343/343
f 331/331/331 343/343/343 332/332/332
f 332/332/332 343/343/343 344/344/344
f 332/332/332 344/344/344 333/333/333
f 333/333/333 344/344/344 345/345/345
f 333/333/333 345/345/345 334/334/334
f 334/334/334 345/345/345 346/346/346
f 334/334/334 346/346/346 335/335/335
f 335/335/335 346/346/346 347/347/347
f 335/335/335 347/347/347 336/336/336
f 337/337/337 348/348/348 349/349/349
f 337/337/337 349/349/349 338/338/338
f 338/338/338 349/349/349 350/350/350
f 338/338/338 350/350/350 339/339/339
f 339/339/339 350/350/350 351/351/351
f 339/339/339 351/351/351 340/340/340
f 340/340/340 351/351/351 352/352/352
f 340/340/340 352/352/352 341/341/341
f 341/341/341 352/352/352 353/353/353
f 341/341/341 353/353/353 342/342/342
f 342/342/342 353/353/353 354/354/354
f 342/342/342 354/354/354 343/343/343
f 343/343/343 354/354/354 355/355/355
f 343/343/343 355/355/355 344/344/344
f 344/344/344 355/355/355 356/356/356
f 344/344/344 356/356/356 345/345/345
f 345/345/345 356/356/356 357/357/357
f 345/345/345 357/357/357 346/346/346
f 346/346/346 357/357/357 358/358/358
f 346/346/346 358/358/358 347/347/347
f 348/348/348 359/359/359 360/360/360
f 348/348/348 360/360/360 349/349/349
f 349/349/349 360/360/360 361/361/361
f 349/349/349 361/361/361 350/350/350
f 350/350/350 361/361/361 362/362/362
f 350/350/350 362/362/362 351/351/351
f 351/351/351 362/362/362 363/363/363
f 351/351/351 363/363/363 352/352/352
f 352/352/352 363/363/363 364/364/364
f 352/352/352 364/364/364 353/353/353
f 353/353/353 364/364/364 365/365/365
f 353/353/353 365/365/365 354/354/354
f 354/354/354 365/365/365 366/366/366
f 354/354/354 366/366/366 355/355/355
f 355/355/355 366/366/366 367/367/367
f 355/355/355 367/367/367 356/356/356
f 356/356/356 367/367/367 368/368/368
f 356/356/356 368/368/368 357/357/357
f 357/357/357 368/368/368 369/369/369
f 357/357/357 369/369/369 358/358/358
f 359/359/359 370/370/370 371/371/371
f 359/359/359 371/371/371 360/360/360
f 360/360/360 371/371/371 372/372/372
f 360/360/360 372/372/372 361/361/361
f 361/361/361 372/372/372 373/373/373
f 361/361/361 373/373/373 362/362/362
f 362/362/362 373/373/373 374/374/374
f 362/362/362 374/374/374 363/363/363
f 363/363/363 374/374/374 375/375/375
f 363/363/363 375/375/375 364/364/364
f 364/364/364 375/375/375 376/376/376
f 364/364/364 376/376/376 365/365/365
f 365/365/365 376/376/376 377/377/377
f 365/365/365 377/377/377 366/366/366
f 366/366/366 377/377/377 378/378/378
f 366/366/366 378/378/378 367/367/367
f 367/367/367 378/378/378 379/379/379
f 367/367/367 379/379/379 368/368/368
f 368/368/368 379/379/379 380/380/380
f 368/368/368 380/380/380 369/369/369
f 381/381/381 392/392/392 393/393/393
f 381/381/381 393/393/393 382/382/382
f 382/382/382 393/393/393 394/394/394
f 382/382/382 394/394/394 383/383/383
f 383/383/383 394/394/394 395/395/395
f 383/383/383 395/395/395 384/384/384
f 384/384/384 395/395/395 396/396/396
f 384/384/384 396/396/396 385/385/385
f 385/385/385 396/396/396 397/397/397
f 385/385/385 397/397/397 386/386/386
f 386/386/386 397/397/397 398/398/398
f 386/386/386 398/398/398 387/387/387
f 387/387/387 398/398/398 399/399/399
f 387/387/387 399/399/399 388/388/388
f 388/388/388 399/399/399 400/400/400
f 388/388/388 400/400/400 389/389/389
f 389/389/389 400/400/400 401/401/401
f 389/389/389 401/401/401 390/390/390
f 390/390/390 401/401/401 402/402/402
f 390/390/390 402/402/402 391/391/391
f 392/392/392 403/403/403 404/404/404
f 392/392/392 404/404/404 393/393/393
f 393/393/393 404/404/404 405/405/405
f 393/393/393 405/405/405 394/394/394
f 394/394/394 405/405/405 406/406/406
f 394/394/394 406/406/406 395/395/395
f 395/395/395 406/406/406 407/407/407
f 395/395/395 407/407/407 396/396/396
f 396/396/396 407/407/407 408/408/408
f 396/396/396 408/408/408 397/397/397
f 397/397/397 408/408/408 409/409/409
f 397/397/397 409/409/409 398/398/398
f 398/398/398 409/409/409 410/410/410
f 398/398/398 410/410/410 399/399/399
f 399/399/399 410/410/410 411/411/411
f 399/399/399 411/411/411 400/400/400
f 400/400/400 411/411/411 412/412/412
f 400/400/400 412/412/412 401/401/401
f 401/401/401 412/412/412 413/413/413
f 401/401/401 413/413/413 402/402/402
f 403/403/403 414/414/414 415/415/415
f 403/403/403 415/415/415 404/404/404
f 404/404/404 415/415/415 416/416/416
f 404/404/404 416/416/416 405/405/405
f 405/405/405 416/416/416 417/417/417
f 405/405/405 417/417/417 406/406/406
f 406/406/406 417/417/417 418/418/418
f 406/406/406 418/418/418 407/407/407
f 407/407/407 418/418/418 419/419/419
f 407/407/407 419/419/419 408/408/408
f 408/408/408 419/419/419 420/420/420
f 408/408/408 420/420/420 409/409/409
f 409/409/409 420/420/420 421/421/421
f 409/409/409 421/421/421 410/410/410
f 410/410/410 421/421/421 422/422/422
f 410/410/410 422/422/422 411/411/411
f 411/411/411 422/422/422 423/423/423
f 411/411/411 423/423/423 412/412/412
f 412/412/412 423/423/423 424/424/424
f 412/412/412 424/424/424 413/413/413
f 414/414/414 425/425/425 426/426/426
f 414/414/414 426/426/426 415/415/415
f 415/415/415 426/426/426 427/427/427
f 415/415/415 427/427/427 416/416/416
f 416/416/416 427/427/427 428/428/428
f 416/416/416 428/428/428 417/417/417
f 417/417/417 428/428/428 429/429/429
f 417/417/417 429/429/429 418/418/418
f 418/418/418 429/429/429 430/430/430
f 418/418/418 430/430/430 419/419/419
f 419/419/419 430/430/430 431/431/431
f 419/419/419 431/431/431 420/420/420
f 420/420/420 431/431/431 432/432/432
f 420/420/420 432/432/432 421/421/421
f 421/421/421 432/432/432 433/433/433
f 421/421/421 433/433/433 422/422/422
f 422/422/422 433/433/433 434/434/434
f 422/422/422 434/434/434 423/423/423
f 423/423/423 434/434/434 435/435/435
f 423/423/423 435/435/435 424/424/424
f 425/425/425 436/436/436 437/437/437
f 425/425/425 437/437/437 426/426/426
f 426/426/426 437/437/437 438/438/438
f 426/426/426 438/438/438 427/427/427
f 427/427/427 438/438/438 439/439/439
f 427/427/427 439/439/439 428/428/428
f 428/428/428 439/439/439 440/440/440
f 428/428/428 440/440/440 429/429/429
f 429/429/429 440/440/440 441/441/441
f 429/429/429 441/441/441 430/430/430
f 430/430/430 441/441/441 442/442/442
f 430/430/430 442/442/442 431/431/431
f 431/431/431 442/442/442 443/443/443
f 431/431/431 443/443/443 432/432/432
f 432/432/432 443/443/443 444/444/444
f 432/432/432 444/444/444 433/433/433
f 433/433/433 444/444/444 445/445/445
f 433/433/433 445/445/445 434/434/434
f 434/434/434 445/445/445 446/446/446
f 434/434/434 446/446/446 435/435/435
f 436/436/436 447/447/447 448/448/448
f 436/436/436 448/448/448 437/437/437
f 437/437/437 448/448/448 449/449/449
f 437/437/437 449/449/449 438/438/438
f 438/438/438 449/449/449 450/450/450
f 438/438/438 450/450/450 439/439/439
f 439/439/439 450/450/450 451/451/451
f 439/439/439 451/451/451 440/440/440
f 440/440/440 451/451/451 452/452/452
f 440/440/440 452/452/452 441/441/441
f 441/441/441 452/452/452 453/453/453
f 441/441/441 453/453/453 442/442/442
f 442/442/442 453/453/453 454/454/454
f 442/442/442 454/454/454 443/443/443
f 443/443/443 454/454/454 455/455/455
f 443/443/443 455/455/455 444/444/444
f 444/444/444 455/455/455 456/456/456
f 444/444/444 456/456/456 445/445/445
f 445/445/445 456/456/456 457/457/457
f 445/445/445 457/457/457 446/446/446
f 458/458/458 469/469/469 470/470/470
f 458/458/458 470/470/470 459/459/459
f 459/459/459 470/470/470 471/471/471
f 459/459/459 471/471/471 460/460/460
f 460/460/460 471/471/471 472/472/472
f 460/460/460 472/472/472 461/461/461
f 461/461/461 472/472/472 473/473/473
f 461/461/461 473/473/473 462/462/462
f 462/462/462 473/473/473 474/474/474
f 462/462/462 474/474/474 463/463/463
f 463/463/463 474/474/474 475/475/475
f 463/463/463 475/475/475 464/464/464
f 464/464/464 475/475/475 476/476/476
f 464/464/464 476/476/476 465/465/465
f 465/465/465 476/476/476 477/477/477
f 465/465/465 477/477/477 466/466/466
f 466/466/466 477/477/477 478/478/478
f 466/466/466 478/478/478 467/467/467
f 467/467/467 478/478/478 479/479/479
f 467/467/467 479/479/479 468/468/468
f 469/469/469 480/480/480 481/481/481
f 469/469/469 481/481/481 470/470/470
f 470/470/470 481/481/481 482/482/482
f 470/470/470 482/482/482 471/471/471
f 471/471/471 482/482/482 483/483/483
f 471/471/471 483/483/483 472/472/472
f 472/472/472 483/483/483 484/484/484
f 472/472/472 484/484/484 473/473/473
f 473/473/473 484/484/484 485/485/485
f 473/473/473 485/485/485 474/474/474
f 474/474/474 485/485/485 486/486/486
f 474/474/474 486/486/486 475/475/475
f 475/475/475 486/486/486 487/487/487
f 475/475/475 487/487/487 476/476/476
f 476/476/476 487/487/487 488/488/488
f 476/476/476 488/488/488 477/477/477
f 477/477/477 488/488/488 489/489/489
f 477/477/477 489/489/489 478/478/478
f 478/478/478 489/489/489 490/490/490
f 478/478/478 490/490/490 479/479/479
f 480/480/480 491/491/491 492/492/492
f 480/480/480 492/492/492 481/481/481
f 481/481/481 492/492/492 493/493/493
f 481/481/481 493/493/493 482/482/482
f 482/482/482 493/493/493 494/494/494
f 482/482/482 494/494/494 483/483/483
f 483/483/483 494/494/494 495/495/495
f 483/483/483 495/495/495 484/484/484
f 484/484/484 495/495/495 496/496/496
f 484/484/484 496/496/496 485/485/485
f 485/485/485 496/496/496 497/497/497
f 485/485/485 497/497/497 486/486/486
f 486/486/486 497/497/497 498/498/498
f 486/486/486 498/498/498 487/487/487
f 487/487/487 498/498/498 499/499/499
f 487/487/487 499/499/499 488/488/488
f 488/488/488 499/499/499 500/500/500
f 488/488/488 500/500/500 489/489/489
f 489/489/489 500/500/500 501/501/501
f 489/489/489 501/501/501 490/490/490
f 491/491/491 502/502/502 503/503/503
f 491/491/491 503/503/503 492/492/492
f 492/492/492 503/503/503 504/504/504
f 492/492/492 504/504/504 493/493/493
f 493/493/493 504/504/504 505/505/505
f 493/493/493 505/505/505 494/494/494
f 494/494/494 505/505/505 506/506/506
f 494/494/494 506/506/506 495/495/495
f 495/495/495 506/506/506 507/507/507
f 495/495/495 507/507/507 496/496/496
f 496/496/496 507/507/507 508/508/508
f 496/496/496 508/508/508 497/497/497
f 497/497/497 508/508/508 509/509/509
f 497/497/497 509/509/509 498/498/498
f 498/498/498 509/509/509 510/510/510
f 498/498/498 510/510/510 499/499/499
f 499/499/499 510/510/510 511/511/511
f 499/499/499 511/511/511 500/500/500
f 500/500/500 511/511/511 512/512/512
f 500/500/500 512/512/512 501/501/501
f 502/502/502 513/513/513 514/514/514
f 502/502/502 514/514/514 503/503/503
f 503/503/503 514/514/514 515/515/515
f 503/503/503 515/515/515 504/504/504
f 504/504/504 515/515/515 516/516/516
f 504/504/504 516/516/516 505/505/505
f 505/505/505 516/516/516 517/517/517
f 505/505/505 517/517/517 506/506/506
f 506/506/506 517/517/517 518/518/518
f 506/506/506 518/518/518 507/507/507
f 507/507/507 518/518/518 519/519/519
f 507/507/507 519/519/519 508/508/508
f 508/508/508 519/519/519 520/520/520
f 508/508/508 520/520/520 509/509/509
f 509/509/509 520/520/520 521/521/521
f 509/509/509 521/521/521 510/510/510
f 510/510/510 521/521/521 522/522/522
f 510/510/510 522/522/522 511/511/511
f 511/511/511 522/522/522 523/523/523
f 511/511/511 523/523/523 512/512/512
f 513/513/513 524/524/524 525/525/525
f 513/513/513 525/525/525 514/514/514
f 514/514/514 525/525/525 526/526/526
f 514/514/514 526/526/526 515/515/515
f 515/515/515 526/526/526 527/527/527
f 515/515/515 527/527/527 516/516/516
f 516/516/516 527/527/527 528/528/528
f 516/516/516 528/528/528 517/517/517
f 517/517/517 528/528/528 529/529/529
f 517/517/517 529/529/529 518/518/518
f 518/518/518 529/529/529 530/530/530
f 518/518/518 530/530/530 519/519/519
f 519/519/519 530/530/530 531/531/531
f 519/519/519 531/531/531 520/520/520
f 520/520/520 531/531/531 532/532/532
f 520/520/520 532/532/532 521/521/521
f 521/521/521 532/532/532 533/533/533
f 521/521/521 533/533/533 522/522/522
f 522/522/522 533/533/533 534/534/534
f 522/522/522 534/534/534 523/523/523
f 535/535/535 546/546/546 547/547/547
f 535/535/535 547/547/547 536/536/536
f 536/536/536 547/547/547 548/548/548
f 536/536/536 548/548/548 537/537/537
f 537/537/537 548/548/548 549/549/549
f 537/537/537 549/549/549 538/538/538
f 538/538/538 549/549/549 550/550/550
f 538/538/538 550/550/550 539/539/539
f 539/539/539 550/550/550 551/551/551
f 539/539/539 551/551/551 540/540/540
f 540/540/540 551/551/551 552/552/552
f 540/540/540 552/552/552 541/541/541
f 541/541/541 552/552/552 553/553/553
f 541/541/541 553/553/553 542/542/542
f 542/542/542 553/553/553 554/554/554
f 542/542/542 554/554/554 543/543/543
f 543/543/543 554/554/554 555/555/555
f 543/543/543 555/555/555 544/544/544
f 544/544/544 555/555/555 556/556/556
f 544/544/544 556/556/556 545/545/545
f 546/546/546 557/557/557 558/558/558
f 546/546/546 558/558/558 547/547/547
f 547/547/547 558/558/558 559/559/559
f 547/547/547 559/559/559 548/548/548
f 548/548/548 559/559/559 560/560/560
f 548/548/548 560/560/560 549/549/549
f 549/549/549 560/560/560 561/561/561
f 549/549/549 561/561/561 550/550/550
f 550/550/550 561/561/561 562/562/562
f 550/550/550 562/562/562 551/551/551
f 551/551/551 562/562/562 563/563/563
f 551/551/551 563/563/563 552/552/552
f 552/552/552 563/563/563 564/564/564
f 552/552/552 564/564/564 553/553/553
f 553/553/553 564/564/564 565/565/565
f 553/553/553 565/565/565 554/554/554
f 554/554/554 565/565/565 566/566/566
f 554/554/554 566/566/566 555/555/555
f 555/555/555 566/566/566 567/567/567
f 555/555/555 567/567/567 556/556/556
f 557/557/557 568/568/568 569/569/569
f 557/557/557 569/569/569 558/558/558
f 558/558/558 569/569/569 570/570/570
f 558/558/558 570/570/570 559/559/559
f 559/559/559 570/570/570 571/571/571
f 559/559/559 571/571/571 560/560/560
f 560/560/560 571/571/571 572/572/572
f 560/560/560 572/572/572 561/561/561
f 561/561/561 572/572/572 573/573/573
f 561/561/561 573/573/573 562/562/562
f 562/562/562 573/573/573 574/574/574
f 562/562/562 574/574/574 563/563/563
f 563/563/563 574/574/574 575/575/575
f 563/563/563 575/575/575 564/564/564
f 564/564/564 575/575/575 576/576/576
f 564/564/564 576/576/576 565/565/565
f 565/565/565 576/576/576 577/577/577
f 565/565/565 577/577/577 566/566/566
f 566/566/566 577/577/577 578/578/578
f 566/566/566 578/578/578 567/567/567
f 568/568/568 579/579/579 580/580/580
f 568/568/568 580/580/580 569/569/569
f 569/569/569 580/580/580 581/581/581
f 569/569/569 581/581/581 570/570/570
f 570/570/570 581/581/581 582/582/582
f 570/570/570 582/582/582 571/571/571
f 571/571/571 582/582/582 583/583/583
f 571/571/571 583/583/583 572/572/572
f 572/572/572 583/583/583 584/584/584
f 572/572/572 584/584/584 573/573/573
f 573/573/573 584/584/584 585/585/585
f 573/573/573 585/585/585 574/574/574
f 574/574/574 585/585/585 586/586/586
f 574/574/574 586/586/586 575/575/575
f 575/575/575 586/586/586 587/587/587
f 575/575/575 587/587/587 576/576/576
f 576/576/576 587/587/587 588/588/588
f 576/576/576 588/588/588 577/577/577
f 577/577/577 588/588/588 589/589/589
f 577/577/577 589/589/589 578/578/578
f 579/579/579 590/590/590 591/591/591
f 579/579/579 591/591/591 580/580/580
f 580/580/580 591/591/591 592/592/592
f 580/580/580 592/592/592 581/581/581
f 581/581/581 592/592/592 593/593/593
f 581/581/581 593/593/593 582/582/582
f 582/582/582 593/593/593 594/594/594
f 582/582/582 594/594/594 583/583/583
f 583/583/583 594/594/594 595/595/595
f 583/583/583 595/595/595 584/584/584
f 584/584/584 595/595/595 596/596/596
f 584/584/584 596/596/596 585/585/585
f 585/585/585 596/596/596 597/597/597
f 585/585/585 597/597/597 586/586/586
f 586/586/586 597/597/597 598/598/598
f 586/586/586 598/598/598 587/587/587
f 587/587/587 598/598/598 599/599/599
f 587/587/587 599/599/599 588/588/588
f 588/588/588 599/599/599 600/600/600
f 588/588/588 600/600/600 589/589/589
f 590/590/590 601/601/601 602/602/602
f 590/590/590 602/602/602 591/591/591
f 591/591/591 602/602/602 603/603/603
f 591/591/591 603/603/603 592/592/592
f 592/592/592 603/603/603 604/604/604
f 592/592/592 604/604/604 593/593/593
f 593/593/593 604/604/604 605/605/605
f 593/593/593 605/605/605 594/594/594
f 594/594/594 605/605/605 606/606/606
f 594/594/594 606/606/606 595/595/595
f 595/595/595 606/606/606 607/607/607
f 595/595/595 607/607/607 596/596/596
f 596/596/596 607/607/607 608/608/608
f 596/596/596 608/608/608 597/597/597
f 597/597/597 608/608/608 609/609/609
f 597/597/597 609/609/609 598/598/598
f 598/598/598 609/609/609 610/610/610
f 598/598/598 610/610/610 599/599/599
f 599/599/599 610/610/610 611/611/611
f 599/599/599 611/611/611 600/600/600