# 3D Model: vehicle/bike/e5823366c7ed43f3b8e2c62ce0bc59af (v6 Gemini)
# Style: vehicle | Symmetry: symmetric
# Dimensions: 2.1 x 0.854 x 0.761 m
# Triangles: 712 | Vertices: 416
v 1.05 0.35 0
v 1.025 0.3933 0
v 0.975 0.3933 0
v 0.95 0.35 0
v 0.975 0.3067 0
v 1.025 0.3067 0
v 1.05 0.35 0
v 0.9736 0.35 0.2351
v 0.9534 0.3933 0.2204
v 0.9129 0.3933 0.191
v 0.8927 0.35 0.1763
v 0.9129 0.3067 0.191
v 0.9534 0.3067 0.2204
v 0.9736 0.35 0.2351
v 0.7736 0.35 0.3804
v 0.7659 0.3933 0.3566
v 0.7504 0.3933 0.3091
v 0.7427 0.35 0.2853
v 0.7504 0.3067 0.3091
v 0.7659 0.3067 0.3566
v 0.7736 0.35 0.3804
v 0.5264 0.35 0.3804
v 0.5341 0.3933 0.3566
v 0.5496 0.3933 0.3091
v 0.5573 0.35 0.2853
v 0.5496 0.3067 0.3091
v 0.5341 0.3067 0.3566
v 0.5264 0.35 0.3804
v 0.3264 0.35 0.2351
v 0.3466 0.3933 0.2204
v 0.3871 0.3933 0.191
v 0.4073 0.35 0.1763
v 0.3871 0.3067 0.191
v 0.3466 0.3067 0.2204
v 0.3264 0.35 0.2351
v 0.25 0.35 0
v 0.275 0.3933 0
v 0.325 0.3933 0
v 0.35 0.35 0
v 0.325 0.3067 0
v 0.275 0.3067 0
v 0.25 0.35 0
v 0.3264 0.35 -0.2351
v 0.3466 0.3933 -0.2204
v 0.3871 0.3933 -0.191
v 0.4073 0.35 -0.1763
v 0.3871 0.3067 -0.191
v 0.3466 0.3067 -0.2204
v 0.3264 0.35 -0.2351
v 0.5264 0.35 -0.3804
v 0.5341 0.3933 -0.3566
v 0.5496 0.3933 -0.3091
v 0.5573 0.35 -0.2853
v 0.5496 0.3067 -0.3091
v 0.5341 0.3067 -0.3566
v 0.5264 0.35 -0.3804
v 0.7736 0.35 -0.3804
v 0.7659 0.3933 -0.3566
v 0.7504 0.3933 -0.3091
v 0.7427 0.35 -0.2853
v 0.7504 0.3067 -0.3091
v 0.7659 0.3067 -0.3566
v 0.7736 0.35 -0.3804
v 0.9736 0.35 -0.2351
v 0.9534 0.3933 -0.2204
v 0.9129 0.3933 -0.191
v 0.8927 0.35 -0.1763
v 0.9129 0.3067 -0.191
v 0.9534 0.3067 -0.2204
v 0.9736 0.35 -0.2351
v 1.05 0.35 0
v 1.025 0.3933 0
v 0.975 0.3933 0
v 0.95 0.35 0
v 0.975 0.3067 0
v 1.025 0.3067 0
v 1.05 0.35 0
v 0.97 0.33 0
v 0.9456 0.33 0.1225
v 0.8763 0.33 0.2263
v 0.7725 0.33 0.2956
v 0.65 0.33 0.32
v 0.5275 0.33 0.2956
v 0.4237 0.33 0.2263
v 0.3544 0.33 0.1225
v 0.33 0.33 0
v 0.3544 0.33 -0.1225
v 0.4237 0.33 -0.2263
v 0.5275 0.33 -0.2956
v 0.65 0.33 -0.32
v 0.7725 0.33 -0.2956
v 0.8763 0.33 -0.2263
v 0.9456 0.33 -0.1225
v 0.97 0.37 0
v 0.9456 0.37 0.1225
v 0.8763 0.37 0.2263
v 0.7725 0.37 0.2956
v 0.65 0.37 0.32
v 0.5275 0.37 0.2956
v 0.4237 0.37 0.2263
v 0.3544 0.37 0.1225
v 0.33 0.37 0
v 0.3544 0.37 -0.1225
v 0.4237 0.37 -0.2263
v 0.5275 0.37 -0.2956
v 0.65 0.37 -0.32
v 0.7725 0.37 -0.2956
v 0.8763 0.37 -0.2263
v 0.9456 0.37 -0.1225
v 0.65 0.33 0
v 0.65 0.37 0
v -0.25 0.35 0
v -0.275 0.3933 0
v -0.325 0.3933 0
v -0.35 0.35 0
v -0.325 0.3067 0
v -0.275 0.3067 0
v -0.25 0.35 0
v -0.3264 0.35 0.2351
v -0.3466 0.3933 0.2204
v -0.3871 0.3933 0.191
v -0.4073 0.35 0.1763
v -0.3871 0.3067 0.191
v -0.3466 0.3067 0.2204
v -0.3264 0.35 0.2351
v -0.5264 0.35 0.3804
v -0.5341 0.3933 0.3566
v -0.5496 0.3933 0.3091
v -0.5573 0.35 0.2853
v -0.5496 0.3067 0.3091
v -0.5341 0.3067 0.3566
v -0.5264 0.35 0.3804
v -0.7736 0.35 0.3804
v -0.7659 0.3933 0.3566
v -0.7504 0.3933 0.3091
v -0.7427 0.35 0.2853
v -0.7504 0.3067 0.3091
v -0.7659 0.3067 0.3566
v -0.7736 0.35 0.3804
v -0.9736 0.35 0.2351
v -0.9534 0.3933 0.2204
v -0.9129 0.3933 0.191
v -0.8927 0.35 0.1763
v -0.9129 0.3067 0.191
v -0.9534 0.3067 0.2204
v -0.9736 0.35 0.2351
v -1.05 0.35 0
v -1.025 0.3933 0
v -0.975 0.3933 0
v -0.95 0.35 0
v -0.975 0.3067 0
v -1.025 0.3067 0
v -1.05 0.35 0
v -0.9736 0.35 -0.2351
v -0.9534 0.3933 -0.2204
v -0.9129 0.3933 -0.191
v -0.8927 0.35 -0.1763
v -0.9129 0.3067 -0.191
v -0.9534 0.3067 -0.2204
v -0.9736 0.35 -0.2351
v -0.7736 0.35 -0.3804
v -0.7659 0.3933 -0.3566
v -0.7504 0.3933 -0.3091
v -0.7427 0.35 -0.2853
v -0.7504 0.3067 -0.3091
v -0.7659 0.3067 -0.3566
v -0.7736 0.35 -0.3804
v -0.5264 0.35 -0.3804
v -0.5341 0.3933 -0.3566
v -0.5496 0.3933 -0.3091
v -0.5573 0.35 -0.2853
v -0.5496 0.3067 -0.3091
v -0.5341 0.3067 -0.3566
v -0.5264 0.35 -0.3804
v -0.3264 0.35 -0.2351
v -0.3466 0.3933 -0.2204
v -0.3871 0.3933 -0.191
v -0.4073 0.35 -0.1763
v -0.3871 0.3067 -0.191
v -0.3466 0.3067 -0.2204
v -0.3264 0.35 -0.2351
v -0.25 0.35 0
v -0.275 0.3933 0
v -0.325 0.3933 0
v -0.35 0.35 0
v -0.325 0.3067 0
v -0.275 0.3067 0
v -0.25 0.35 0
v -0.33 0.33 0
v -0.3544 0.33 0.1225
v -0.4237 0.33 0.2263
v -0.5275 0.33 0.2956
v -0.65 0.33 0.32
v -0.7725 0.33 0.2956
v -0.8763 0.33 0.2263
v -0.9456 0.33 0.1225
v -0.97 0.33 0
v -0.9456 0.33 -0.1225
v -0.8763 0.33 -0.2263
v -0.7725 0.33 -0.2956
v -0.65 0.33 -0.32
v -0.5275 0.33 -0.2956
v -0.4237 0.33 -0.2263
v -0.3544 0.33 -0.1225
v -0.33 0.37 0
v -0.3544 0.37 0.1225
v -0.4237 0.37 0.2263
v -0.5275 0.37 0.2956
v -0.65 0.37 0.32
v -0.7725 0.37 0.2956
v -0.8763 0.37 0.2263
v -0.9456 0.37 0.1225
v -0.97 0.37 0
v -0.9456 0.37 -0.1225
v -0.8763 0.37 -0.2263
v -0.7725 0.37 -0.2956
v -0.65 0.37 -0.32
v -0.5275 0.37 -0.2956
v -0.4237 0.37 -0.2263
v -0.3544 0.37 -0.1225
v -0.65 0.33 0
v -0.65 0.37 0
v 0.1315 0.3299 0
v 0.1242 0.3371 0.0247
v 0.1066 0.3545 0.035
v 0.089 0.3719 0.0247
v 0.0817 0.3791 0
v 0.089 0.3719 -0.0247
v 0.1066 0.3545 -0.035
v 0.1242 0.3371 -0.0247
v 0.5147 0.7244 0
v 0.5085 0.7306 0.0212
v 0.4934 0.7455 0.03
v 0.4783 0.7604 0.0212
v 0.4721 0.7666 0
v 0.4783 0.7604 -0.0212
v 0.4934 0.7455 -0.03
v 0.5085 0.7306 -0.0212
v 0.1066 0.3545 0
v 0.4934 0.7455 0
v 0.1915 0.475 0
v 0.1835 0.473 0.0198
v 0.1643 0.4681 0.028
v 0.1451 0.4632 0.0198
v 0.1372 0.4612 0
v 0.1451 0.4632 -0.0198
v 0.1643 0.4681 -0.028
v 0.1835 0.473 -0.0198
v 0.0599 0.9781 0
v 0.0528 0.9763 0.0177
v 0.0357 0.9719 0.025
v 0.0185 0.9675 0.0177
v 0.0115 0.9657 0
v 0.0185 0.9675 -0.0177
v 0.0357 0.9719 -0.025
v 0.0528 0.9763 -0.0177
v 0.1643 0.4681 0
v 0.0357 0.9719 0
v -0.133 0.3073 0
v -0.1417 0.306 0.0212
v -0.1626 0.3028 0.03
v -0.1836 0.2996 0.0212
v -0.1923 0.2983 0
v -0.1836 0.2996 -0.0212
v -0.1626 0.3028 -0.03
v -0.1417 0.306 -0.0212
v -0.2077 0.8017 0
v -0.2164 0.8004 0.0212
v -0.2374 0.7972 0.03
v -0.2583 0.794 0.0212
v -0.267 0.7927 0
v -0.2583 0.794 -0.0212
v -0.2374 0.7972 -0.03
v -0.2164 0.8004 -0.0212
v -0.1626 0.3028 0
v -0.2374 0.7972 0
v -0.6036 0.3641 0
v -0.607 0.3689 0.0141
v -0.6152 0.3804 0.02
v -0.6234 0.3919 0.0141
v -0.6269 0.3967 0
v -0.6234 0.3919 -0.0141
v -0.6152 0.3804 -0.02
v -0.607 0.3689 -0.0141
v -0.2131 0.6433 0
v -0.2166 0.6481 0.0141
v -0.2248 0.6596 0.02
v -0.233 0.6711 0.0141
v -0.2364 0.6759 0
v -0.233 0.6711 -0.0141
v -0.2248 0.6596 -0.02
v -0.2166 0.6481 -0.0141
v -0.6152 0.3804 0
v -0.2248 0.6596 0
v -0.3188 0.1263 0
v -0.3246 0.126 0.0141
v -0.3388 0.1253 0.02
v -0.3529 0.1246 0.0141
v -0.3587 0.1243 0
v -0.3529 0.1246 -0.0141
v -0.3388 0.1253 -0.02
v -0.3246 0.126 -0.0141
v -0.3413 0.5757 0
v -0.3471 0.5754 0.0141
v -0.3612 0.5747 0.02
v -0.3754 0.574 0.0141
v -0.3812 0.5737 0
v -0.3754 0.574 -0.0141
v -0.3612 0.5747 -0.02
v -0.3471 0.5754 -0.0141
v -0.3388 0.1253 0
v -0.3612 0.5747 0
v 0.4337 0.3058 0
v 0.4279 0.3102 0.0177
v 0.4138 0.3209 0.025
v 0.3998 0.3316 0.0177
v 0.3939 0.336 0
v 0.3998 0.3316 -0.0177
v 0.4138 0.3209 -0.025
v 0.4279 0.3102 -0.0177
v 0.714 0.6579 0
v 0.7059 0.6641 0.0247
v 0.6862 0.6791 0.035
v 0.6665 0.6941 0.0247
v 0.6583 0.7003 0
v 0.6665 0.6941 -0.0247
v 0.6862 0.6791 -0.035
v 0.7059 0.6641 -0.0247
v 0.4138 0.3209 0
v 0.6862 0.6791 0
v 0.525 0.775 0
v 0.5177 0.775 0.0177
v 0.5 0.775 0.025
v 0.4823 0.775 0.0177
v 0.475 0.775 0
v 0.4823 0.775 -0.0177
v 0.5 0.775 -0.025
v 0.5177 0.775 -0.0177
v 0.52 0.925 0
v 0.5141 0.925 0.0141
v 0.5 0.925 0.02
v 0.4859 0.925 0.0141
v 0.48 0.925 0
v 0.4859 0.925 -0.0141
v 0.5 0.925 -0.02
v 0.5141 0.925 -0.0141
v 0.5 0.775 0
v 0.5 0.925 0
v 0.52 0.9198 -0.3
v 0.5141 0.9056 -0.3
v 0.5 0.8998 -0.3
v 0.4859 0.9056 -0.3
v 0.48 0.9198 -0.3
v 0.4859 0.9339 -0.3
v 0.5 0.9398 -0.3
v 0.5141 0.9339 -0.3
v 0.52 0.9202 0.3
v 0.5141 0.9061 0.3
v 0.5 0.9002 0.3
v 0.4859 0.9061 0.3
v 0.48 0.9202 0.3
v 0.4859 0.9344 0.3
v 0.5 0.9402 0.3
v 0.5141 0.9344 0.3
v 0.5 0.9198 -0.3
v 0.5 0.9202 0.3
v -0.375 0.77 -0.075
v -0.125 0.77 -0.075
v -0.125 0.87 -0.075
v -0.375 0.87 -0.075
v -0.375 0.77 0.075
v -0.125 0.77 0.075
v -0.125 0.87 0.075
v -0.375 0.87 0.075
v 0.05 0.34 0
v 0.0424 0.34 0.0383
v 0.0207 0.34 0.0707
v -0.0117 0.34 0.0924
v -0.05 0.34 0.1
v -0.0883 0.34 0.0924
v -0.1207 0.34 0.0707
v -0.1424 0.34 0.0383
v -0.15 0.34 0
v -0.1424 0.34 -0.0383
v -0.1207 0.34 -0.0707
v -0.0883 0.34 -0.0924
v -0.05 0.34 -0.1
v -0.0117 0.34 -0.0924
v 0.0207 0.34 -0.0707
v 0.0424 0.34 -0.0383
v 0.05 0.42 0
v 0.0424 0.42 0.0383
v 0.0207 0.42 0.0707
v -0.0117 0.42 0.0924
v -0.05 0.42 0.1
v -0.0883 0.42 0.0924
v -0.1207 0.42 0.0707
v -0.1424 0.42 0.0383
v -0.15 0.42 0
v -0.1424 0.42 -0.0383
v -0.1207 0.42 -0.0707
v -0.0883 0.42 -0.0924
v -0.05 0.42 -0.1
v -0.0117 0.42 -0.0924
v 0.0207 0.42 -0.0707
v 0.0424 0.42 -0.0383
v -0.05 0.34 0
v -0.05 0.42 0
v -0.07 0.265 0.08
v 0.03 0.265 0.08
v 0.03 0.295 0.08
v -0.07 0.295 0.08
v -0.07 0.265 0.16
v 0.03 0.265 0.16
v 0.03 0.295 0.16
v -0.07 0.295 0.16
vt 0 0
vt 0 0.16666666666666666
vt 0 0.3333333333333333
vt 0 0.5
vt 0 0.6666666666666666
vt 0 0.8333333333333334
vt 0 1
vt 0.1 0
vt 0.1 0.16666666666666666
vt 0.1 0.3333333333333333
vt 0.1 0.5
vt 0.1 0.6666666666666666
vt 0.1 0.8333333333333334
vt 0.1 1
vt 0.2 0
vt 0.2 0.16666666666666666
vt 0.2 0.3333333333333333
vt 0.2 0.5
vt 0.2 0.6666666666666666
vt 0.2 0.8333333333333334
vt 0.2 1
vt 0.3 0
vt 0.3 0.16666666666666666
vt 0.3 0.3333333333333333
vt 0.3 0.5
vt 0.3 0.6666666666666666
vt 0.3 0.8333333333333334
vt 0.3 1
vt 0.4 0
vt 0.4 0.16666666666666666
vt 0.4 0.3333333333333333
vt 0.4 0.5
vt 0.4 0.6666666666666666
vt 0.4 0.8333333333333334
vt 0.4 1
vt 0.5 0
vt 0.5 0.16666666666666666
vt 0.5 0.3333333333333333
vt 0.5 0.5
vt 0.5 0.6666666666666666
vt 0.5 0.8333333333333334
vt 0.5 1
vt 0.6 0
vt 0.6 0.16666666666666666
vt 0.6 0.3333333333333333
vt 0.6 0.5
vt 0.6 0.6666666666666666
vt 0.6 0.8333333333333334
vt 0.6 1
vt 0.7 0
vt 0.7 0.16666666666666666
vt 0.7 0.3333333333333333
vt 0.7 0.5
vt 0.7 0.6666666666666666
vt 0.7 0.8333333333333334
vt 0.7 1
vt 0.8 0
vt 0.8 0.16666666666666666
vt 0.8 0.3333333333333333
vt 0.8 0.5
vt 0.8 0.6666666666666666
vt 0.8 0.8333333333333334
vt 0.8 1
vt 0.9 0
vt 0.9 0.16666666666666666
vt 0.9 0.3333333333333333
vt 0.9 0.5
vt 0.9 0.6666666666666666
vt 0.9 0.8333333333333334
vt 0.9 1
vt 1 0
vt 1 0.16666666666666666
vt 1 0.3333333333333333
vt 1 0.5
vt 1 0.6666666666666666
vt 1 0.8333333333333334
vt 1 1
vt 0 0
vt 0.0625 0
vt 0.125 0
vt 0.1875 0
vt 0.25 0
vt 0.3125 0
vt 0.375 0
vt 0.4375 0
vt 0.5 0
vt 0.5625 0
vt 0.625 0
vt 0.6875 0
vt 0.75 0
vt 0.8125 0
vt 0.875 0
vt 0.9375 0
vt 0 1
vt 0.0625 1
vt 0.125 1
vt 0.1875 1
vt 0.25 1
vt 0.3125 1
vt 0.375 1
vt 0.4375 1
vt 0.5 1
vt 0.5625 1
vt 0.625 1
vt 0.6875 1
vt 0.75 1
vt 0.8125 1
vt 0.875 1
vt 0.9375 1
vt 0.5 0.5
vt 0.5 0.5
vt 0 0
vt 0 0.16666666666666666
vt 0 0.3333333333333333
vt 0 0.5
vt 0 0.6666666666666666
vt 0 0.8333333333333334
vt 0 1
vt 0.1 0
vt 0.1 0.16666666666666666
vt 0.1 0.3333333333333333
vt 0.1 0.5
vt 0.1 0.6666666666666666
vt 0.1 0.8333333333333334
vt 0.1 1
vt 0.2 0
vt 0.2 0.16666666666666666
vt 0.2 0.3333333333333333
vt 0.2 0.5
vt 0.2 0.6666666666666666
vt 0.2 0.8333333333333334
vt 0.2 1
vt 0.3 0
vt 0.3 0.16666666666666666
vt 0.3 0.3333333333333333
vt 0.3 0.5
vt 0.3 0.6666666666666666
vt 0.3 0.8333333333333334
vt 0.3 1
vt 0.4 0
vt 0.4 0.16666666666666666
vt 0.4 0.3333333333333333
vt 0.4 0.5
vt 0.4 0.6666666666666666
vt 0.4 0.8333333333333334
vt 0.4 1
vt 0.5 0
vt 0.5 0.16666666666666666
vt 0.5 0.3333333333333333
vt 0.5 0.5
vt 0.5 0.6666666666666666
vt 0.5 0.8333333333333334
vt 0.5 1
vt 0.6 0
vt 0.6 0.16666666666666666
vt 0.6 0.3333333333333333
vt 0.6 0.5
vt 0.6 0.6666666666666666
vt 0.6 0.8333333333333334
vt 0.6 1
vt 0.7 0
vt 0.7 0.16666666666666666
vt 0.7 0.3333333333333333
vt 0.7 0.5
vt 0.7 0.6666666666666666
vt 0.7 0.8333333333333334
vt 0.7 1
vt 0.8 0
vt 0.8 0.16666666666666666
vt 0.8 0.3333333333333333
vt 0.8 0.5
vt 0.8 0.6666666666666666
vt 0.8 0.8333333333333334
vt 0.8 1
vt 0.9 0
vt 0.9 0.16666666666666666
vt 0.9 0.3333333333333333
vt 0.9 0.5
vt 0.9 0.6666666666666666
vt 0.9 0.8333333333333334
vt 0.9 1
vt 1 0
vt 1 0.16666666666666666
vt 1 0.3333333333333333
vt 1 0.5
vt 1 0.6666666666666666
vt 1 0.8333333333333334
vt 1 1
vt 0 0
vt 0.0625 0
vt 0.125 0
vt 0.1875 0
vt 0.25 0
vt 0.3125 0
vt 0.375 0
vt 0.4375 0
vt 0.5 0
vt 0.5625 0
vt 0.625 0
vt 0.6875 0
vt 0.75 0
vt 0.8125 0
vt 0.875 0
vt 0.9375 0
vt 0 1
vt 0.0625 1
vt 0.125 1
vt 0.1875 1
vt 0.25 1
vt 0.3125 1
vt 0.375 1
vt 0.4375 1
vt 0.5 1
vt 0.5625 1
vt 0.625 1
vt 0.6875 1
vt 0.75 1
vt 0.8125 1
vt 0.875 1
vt 0.9375 1
vt 0.5 0.5
vt 0.5 0.5
vt 0 0
vt 0.125 0
vt 0.25 0
vt 0.375 0
vt 0.5 0
vt 0.625 0
vt 0.75 0
vt 0.875 0
vt 0 1
vt 0.125 1
vt 0.25 1
vt 0.375 1
vt 0.5 1
vt 0.625 1
vt 0.75 1
vt 0.875 1
vt 0.5 0.5
vt 0.5 0.5
vt 0 0
vt 0.125 0
vt 0.25 0
vt 0.375 0
vt 0.5 0
vt 0.625 0
vt 0.75 0
vt 0.875 0
vt 0 1
vt 0.125 1
vt 0.25 1
vt 0.375 1
vt 0.5 1
vt 0.625 1
vt 0.75 1
vt 0.875 1
vt 0.5 0.5
vt 0.5 0.5
vt 0 0
vt 0.125 0
vt 0.25 0
vt 0.375 0
vt 0.5 0
vt 0.625 0
vt 0.75 0
vt 0.875 0
vt 0 1
vt 0.125 1
vt 0.25 1
vt 0.375 1
vt 0.5 1
vt 0.625 1
vt 0.75 1
vt 0.875 1
vt 0.5 0.5
vt 0.5 0.5
vt 0 0
vt 0.125 0
vt 0.25 0
vt 0.375 0
vt 0.5 0
vt 0.625 0
vt 0.75 0
vt 0.875 0
vt 0 1
vt 0.125 1
vt 0.25 1
vt 0.375 1
vt 0.5 1
vt 0.625 1
vt 0.75 1
vt 0.875 1
vt 0.5 0.5
vt 0.5 0.5
vt 0 0
vt 0.125 0
vt 0.25 0
vt 0.375 0
vt 0.5 0
vt 0.625 0
vt 0.75 0
vt 0.875 0
vt 0 1
vt 0.125 1
vt 0.25 1
vt 0.375 1
vt 0.5 1
vt 0.625 1
vt 0.75 1
vt 0.875 1
vt 0.5 0.5
vt 0.5 0.5
vt 0 0
vt 0.125 0
vt 0.25 0
vt 0.375 0
vt 0.5 0
vt 0.625 0
vt 0.75 0
vt 0.875 0
vt 0 1
vt 0.125 1
vt 0.25 1
vt 0.375 1
vt 0.5 1
vt 0.625 1
vt 0.75 1
vt 0.875 1
vt 0.5 0.5
vt 0.5 0.5
vt 0 0
vt 0.125 0
vt 0.25 0
vt 0.375 0
vt 0.5 0
vt 0.625 0
vt 0.75 0
vt 0.875 0
vt 0 1
vt 0.125 1
vt 0.25 1
vt 0.375 1
vt 0.5 1
vt 0.625 1
vt 0.75 1
vt 0.875 1
vt 0.5 0.5
vt 0.5 0.5
vt 0 0
vt 0.125 0
vt 0.25 0
vt 0.375 0
vt 0.5 0
vt 0.625 0
vt 0.75 0
vt 0.875 0
vt 0 1
vt 0.125 1
vt 0.25 1
vt 0.375 1
vt 0.5 1
vt 0.625 1
vt 0.75 1
vt 0.875 1
vt 0.5 0.5
vt 0.5 0.5
vt 0.5 0.5
vt 0.5 0.5
vt 0.5 0.5
vt 0.5 0.5
vt 0.5 0.5
vt 0.5 0.5
vt 0.5 0.5
vt 0.5 0.5
vt 0 0
vt 0.0625 0
vt 0.125 0
vt 0.1875 0
vt 0.25 0
vt 0.3125 0
vt 0.375 0
vt 0.4375 0
vt 0.5 0
vt 0.5625 0
vt 0.625 0
vt 0.6875 0
vt 0.75 0
vt 0.8125 0
vt 0.875 0
vt 0.9375 0
vt 0 1
vt 0.0625 1
vt 0.125 1
vt 0.1875 1
vt 0.25 1
vt 0.3125 1
vt 0.375 1
vt 0.4375 1
vt 0.5 1
vt 0.5625 1
vt 0.625 1
vt 0.6875 1
vt 0.75 1
vt 0.8125 1
vt 0.875 1
vt 0.9375 1
vt 0.5 0.5
vt 0.5 0.5
vt 0.5 0.5
vt 0.5 0.5
vt 0.5 0.5
vt 0.5 0.5
vt 0.5 0.5
vt 0.5 0.5
vt 0.5 0.5
vt 0.5 0.5
vn 1 0 0
vn 0.5000000000000001 0.8660254037844386 0
vn -0.4999999999999998 0.8660254037844387 0
vn -1 1.2246467991473532e-16 0
vn -0.5000000000000004 -0.8660254037844385 0
vn 0.5000000000000001 -0.8660254037844386 0
vn 1 -2.4492935982947064e-16 0
vn 0.8090169943749475 0 0.5877852522924731
vn 0.40450849718747384 0.8660254037844386 0.2938926261462366
vn -0.40450849718747356 0.8660254037844387 -0.29389262614623646
vn -0.8090169943749475 1.2246467991473532e-16 -0.5877852522924731
vn -0.40450849718747406 -0.8660254037844385 -0.29389262614623685
vn 0.40450849718747384 -0.8660254037844386 0.2938926261462366
vn 0.8090169943749475 -2.4492935982947064e-16 0.5877852522924731
vn 0.30901699437494745 0 0.9510565162951535
vn 0.15450849718747375 0.8660254037844386 0.4755282581475769
vn -0.15450849718747367 0.8660254037844387 -0.47552825814757654
vn -0.30901699437494745 1.2246467991473532e-16 -0.9510565162951535
vn -0.15450849718747386 -0.8660254037844385 -0.4755282581475772
vn 0.15450849718747375 -0.8660254037844386 0.4755282581475769
vn 0.30901699437494745 -2.4492935982947064e-16 0.9510565162951535
vn -0.30901699437494734 0 0.9510565162951536
vn -0.1545084971874737 0.8660254037844386 0.47552825814757693
vn 0.15450849718747361 0.8660254037844387 -0.4755282581475766
vn 0.30901699437494734 1.2246467991473532e-16 -0.9510565162951536
vn 0.1545084971874738 -0.8660254037844385 -0.47552825814757727
vn -0.1545084971874737 -0.8660254037844386 0.47552825814757693
vn -0.30901699437494734 -2.4492935982947064e-16 0.9510565162951536
vn -0.8090169943749473 0 0.5877852522924732
vn -0.4045084971874738 0.8660254037844386 0.2938926261462367
vn 0.4045084971874735 0.8660254037844387 -0.2938926261462365
vn 0.8090169943749473 1.2246467991473532e-16 -0.5877852522924732
vn 0.404508497187474 -0.8660254037844385 -0.2938926261462369
vn -0.4045084971874738 -0.8660254037844386 0.2938926261462367
vn -0.8090169943749473 -2.4492935982947064e-16 0.5877852522924732
vn -1 0 1.2246467991473532e-16
vn -0.5000000000000001 0.8660254037844386 6.123233995736767e-17
vn 0.4999999999999998 0.8660254037844387 -6.123233995736764e-17
vn 1 1.2246467991473532e-16 -1.2246467991473532e-16
vn 0.5000000000000004 -0.8660254037844385 -6.123233995736771e-17
vn -0.5000000000000001 -0.8660254037844386 6.123233995736767e-17
vn -1 -2.4492935982947064e-16 1.2246467991473532e-16
vn -0.8090169943749475 0 -0.587785252292473
vn -0.40450849718747384 0.8660254037844386 -0.29389262614623657
vn 0.40450849718747356 0.8660254037844387 0.2938926261462364
vn 0.8090169943749475 1.2246467991473532e-16 0.587785252292473
vn 0.40450849718747406 -0.8660254037844385 0.2938926261462368
vn -0.40450849718747384 -0.8660254037844386 -0.29389262614623657
vn -0.8090169943749475 -2.4492935982947064e-16 -0.587785252292473
vn -0.30901699437494756 0 -0.9510565162951535
vn -0.1545084971874738 0.8660254037844386 -0.4755282581475769
vn 0.15450849718747373 0.8660254037844387 0.47552825814757654
vn 0.30901699437494756 1.2246467991473532e-16 0.9510565162951535
vn 0.15450849718747392 -0.8660254037844385 0.4755282581475772
vn -0.1545084971874738 -0.8660254037844386 -0.4755282581475769
vn -0.30901699437494756 -2.4492935982947064e-16 -0.9510565162951535
vn 0.30901699437494723 0 -0.9510565162951536
vn 0.15450849718747364 0.8660254037844386 -0.47552825814757693
vn -0.15450849718747356 0.8660254037844387 0.4755282581475766
vn -0.30901699437494723 1.2246467991473532e-16 0.9510565162951536
vn -0.15450849718747375 -0.8660254037844385 0.47552825814757727
vn 0.15450849718747364 -0.8660254037844386 -0.47552825814757693
vn 0.30901699437494723 -2.4492935982947064e-16 -0.9510565162951536
vn 0.8090169943749473 0 -0.5877852522924734
vn 0.4045084971874738 0.8660254037844386 -0.29389262614623674
vn -0.4045084971874735 0.8660254037844387 0.29389262614623657
vn -0.8090169943749473 1.2246467991473532e-16 0.5877852522924734
vn -0.404508497187474 -0.8660254037844385 0.29389262614623696
vn 0.4045084971874738 -0.8660254037844386 -0.29389262614623674
vn 0.8090169943749473 -2.4492935982947064e-16 -0.5877852522924734
vn 1 0 -2.4492935982947064e-16
vn 0.5000000000000001 0.8660254037844386 -1.2246467991473535e-16
vn -0.4999999999999998 0.8660254037844387 1.2246467991473527e-16
vn -1 1.2246467991473532e-16 2.4492935982947064e-16
vn -0.5000000000000004 -0.8660254037844385 1.2246467991473542e-16
vn 0.5000000000000001 -0.8660254037844386 -1.2246467991473535e-16
vn 1 -2.4492935982947064e-16 -2.4492935982947064e-16
vn 0 -1 0
vn 0 -1 0
vn 0 -1 0
vn 0 -1 0
vn 0 -1 0
vn 0 -1 0
vn 0 -1 0
vn 0 -1 0
vn 0 -1 0
vn 0 -1 0
vn 0 -1 0
vn 0 -1 0
vn 0 -1 0
vn 0 -1 0
vn 0 -1 0
vn 0 -1 0
vn 0 1 0
vn 0 1 0
vn 0 1 0
vn 0 1 0
vn 0 1 0
vn 0 1 0
vn 0 1 0
vn 0 1 0
vn 0 1 0
vn 0 1 0
vn 0 1 0
vn 0 1 0
vn 0 1 0
vn 0 1 0
vn 0 1 0
vn 0 1 0
vn 0 -1 0
vn 0 1 0
vn 1 0 0
vn 0.5000000000000001 0.8660254037844386 0
vn -0.4999999999999998 0.8660254037844387 0
vn -1 1.2246467991473532e-16 0
vn -0.5000000000000004 -0.8660254037844385 0
vn 0.5000000000000001 -0.8660254037844386 0
vn 1 -2.4492935982947064e-16 0
vn 0.8090169943749475 0 0.5877852522924731
vn 0.40450849718747384 0.8660254037844386 0.2938926261462366
vn -0.40450849718747356 0.8660254037844387 -0.29389262614623646
vn -0.8090169943749475 1.2246467991473532e-16 -0.5877852522924731
vn -0.40450849718747406 -0.8660254037844385 -0.29389262614623685
vn 0.40450849718747384 -0.8660254037844386 0.2938926261462366
vn 0.8090169943749475 -2.4492935982947064e-16 0.5877852522924731
vn 0.30901699437494745 0 0.9510565162951535
vn 0.15450849718747375 0.8660254037844386 0.4755282581475769
vn -0.15450849718747367 0.8660254037844387 -0.47552825814757654
vn -0.30901699437494745 1.2246467991473532e-16 -0.9510565162951535
vn -0.15450849718747386 -0.8660254037844385 -0.4755282581475772
vn 0.15450849718747375 -0.8660254037844386 0.4755282581475769
vn 0.30901699437494745 -2.4492935982947064e-16 0.9510565162951535
vn -0.30901699437494734 0 0.9510565162951536
vn -0.1545084971874737 0.8660254037844386 0.47552825814757693
vn 0.15450849718747361 0.8660254037844387 -0.4755282581475766
vn 0.30901699437494734 1.2246467991473532e-16 -0.9510565162951536
vn 0.1545084971874738 -0.8660254037844385 -0.47552825814757727
vn -0.1545084971874737 -0.8660254037844386 0.47552825814757693
vn -0.30901699437494734 -2.4492935982947064e-16 0.9510565162951536
vn -0.8090169943749473 0 0.5877852522924732
vn -0.4045084971874738 0.8660254037844386 0.2938926261462367
vn 0.4045084971874735 0.8660254037844387 -0.2938926261462365
vn 0.8090169943749473 1.2246467991473532e-16 -0.5877852522924732
vn 0.404508497187474 -0.8660254037844385 -0.2938926261462369
vn -0.4045084971874738 -0.8660254037844386 0.2938926261462367
vn -0.8090169943749473 -2.4492935982947064e-16 0.5877852522924732
vn -1 0 1.2246467991473532e-16
vn -0.5000000000000001 0.8660254037844386 6.123233995736767e-17
vn 0.4999999999999998 0.8660254037844387 -6.123233995736764e-17
vn 1 1.2246467991473532e-16 -1.2246467991473532e-16
vn 0.5000000000000004 -0.8660254037844385 -6.123233995736771e-17
vn -0.5000000000000001 -0.8660254037844386 6.123233995736767e-17
vn -1 -2.4492935982947064e-16 1.2246467991473532e-16
vn -0.8090169943749475 0 -0.587785252292473
vn -0.40450849718747384 0.8660254037844386 -0.29389262614623657
vn 0.40450849718747356 0.8660254037844387 0.2938926261462364
vn 0.8090169943749475 1.2246467991473532e-16 0.587785252292473
vn 0.40450849718747406 -0.8660254037844385 0.2938926261462368
vn -0.40450849718747384 -0.8660254037844386 -0.29389262614623657
vn -0.8090169943749475 -2.4492935982947064e-16 -0.587785252292473
vn -0.30901699437494756 0 -0.9510565162951535
vn -0.1545084971874738 0.8660254037844386 -0.4755282581475769
vn 0.15450849718747373 0.8660254037844387 0.47552825814757654
vn 0.30901699437494756 1.2246467991473532e-16 0.9510565162951535
vn 0.15450849718747392 -0.8660254037844385 0.4755282581475772
vn -0.1545084971874738 -0.8660254037844386 -0.4755282581475769
vn -0.30901699437494756 -2.4492935982947064e-16 -0.9510565162951535
vn 0.30901699437494723 0 -0.9510565162951536
vn 0.15450849718747364 0.8660254037844386 -0.47552825814757693
vn -0.15450849718747356 0.8660254037844387 0.4755282581475766
vn -0.30901699437494723 1.2246467991473532e-16 0.9510565162951536
vn -0.15450849718747375 -0.8660254037844385 0.47552825814757727
vn 0.15450849718747364 -0.8660254037844386 -0.47552825814757693
vn 0.30901699437494723 -2.4492935982947064e-16 -0.9510565162951536
vn 0.8090169943749473 0 -0.5877852522924734
vn 0.4045084971874738 0.8660254037844386 -0.29389262614623674
vn -0.4045084971874735 0.8660254037844387 0.29389262614623657
vn -0.8090169943749473 1.2246467991473532e-16 0.5877852522924734
vn -0.404508497187474 -0.8660254037844385 0.29389262614623696
vn 0.4045084971874738 -0.8660254037844386 -0.29389262614623674
vn 0.8090169943749473 -2.4492935982947064e-16 -0.5877852522924734
vn 1 0 -2.4492935982947064e-16
vn 0.5000000000000001 0.8660254037844386 -1.2246467991473535e-16
vn -0.4999999999999998 0.8660254037844387 1.2246467991473527e-16
vn -1 1.2246467991473532e-16 2.4492935982947064e-16
vn -0.5000000000000004 -0.8660254037844385 1.2246467991473542e-16
vn 0.5000000000000001 -0.8660254037844386 -1.2246467991473535e-16
vn 1 -2.4492935982947064e-16 -2.4492935982947064e-16
vn 0 -1 0
vn 0 -1 0
vn 0 -1 0
vn 0 -1 0
vn 0 -1 0
vn 0 -1 0
vn 0 -1 0
vn 0 -1 0
vn 0 -1 0
vn 0 -1 0
vn 0 -1 0
vn 0 -1 0
vn 0 -1 0
vn 0 -1 0
vn 0 -1 0
vn 0 -1 0
vn 0 1 0
vn 0 1 0
vn 0 1 0
vn 0 1 0
vn 0 1 0
vn 0 1 0
vn 0 1 0
vn 0 1 0
vn 0 1 0
vn 0 1 0
vn 0 1 0
vn 0 1 0
vn 0 1 0
vn 0 1 0
vn 0 1 0
vn 0 1 0
vn 0 -1 0
vn 0 1 0
vn 0 -1 0
vn 0 -1 0
vn 0 -1 0
vn 0 -1 0
vn 0 -1 0
vn 0 -1 0
vn 0 -1 0
vn 0 -1 0
vn 0 1 0
vn 0 1 0
vn 0 1 0
vn 0 1 0
vn 0 1 0
vn 0 1 0
vn 0 1 0
vn 0 1 0
vn 0 -1 0
vn 0 1 0
vn 0 -1 0
vn 0 -1 0
vn 0 -1 0
vn 0 -1 0
vn 0 -1 0
vn 0 -1 0
vn 0 -1 0
vn 0 -1 0
vn 0 1 0
vn 0 1 0
vn 0 1 0
vn 0 1 0
vn 0 1 0
vn 0 1 0
vn 0 1 0
vn 0 1 0
vn 0 -1 0
vn 0 1 0
vn 0 -1 0
vn 0 -1 0
vn 0 -1 0
vn 0 -1 0
vn 0 -1 0
vn 0 -1 0
vn 0 -1 0
vn 0 -1 0
vn 0 1 0
vn 0 1 0
vn 0 1 0
vn 0 1 0
vn 0 1 0
vn 0 1 0
vn 0 1 0
vn 0 1 0
vn 0 -1 0
vn 0 1 0
vn 0 -1 0
vn 0 -1 0
vn 0 -1 0
vn 0 -1 0
vn 0 -1 0
vn 0 -1 0
vn 0 -1 0
vn 0 -1 0
vn 0 1 0
vn 0 1 0
vn 0 1 0
vn 0 1 0
vn 0 1 0
vn 0 1 0
vn 0 1 0
vn 0 1 0
vn 0 -1 0
vn 0 1 0
vn 0 -1 0
vn 0 -1 0
vn 0 -1 0
vn 0 -1 0
vn 0 -1 0
vn 0 -1 0
vn 0 -1 0
vn 0 -1 0
vn 0 1 0
vn 0 1 0
vn 0 1 0
vn 0 1 0
vn 0 1 0
vn 0 1 0
vn 0 1 0
vn 0 1 0
vn 0 -1 0
vn 0 1 0
vn 0 -1 0
vn 0 -1 0
vn 0 -1 0
vn 0 -1 0
vn 0 -1 0
vn 0 -1 0
vn 0 -1 0
vn 0 -1 0
vn 0 1 0
vn 0 1 0
vn 0 1 0
vn 0 1 0
vn 0 1 0
vn 0 1 0
vn 0 1 0
vn 0 1 0
vn 0 -1 0
vn 0 1 0
vn 0 -1 0
vn 0 -1 0
vn 0 -1 0
vn 0 -1 0
vn 0 -1 0
vn 0 -1 0
vn 0 -1 0
vn 0 -1 0
vn 0 1 0
vn 0 1 0
vn 0 1 0
vn 0 1 0
vn 0 1 0
vn 0 1 0
vn 0 1 0
vn 0 1 0
vn 0 -1 0
vn 0 1 0
vn 0 -1 0
vn 0 -1 0
vn 0 -1 0
vn 0 -1 0
vn 0 -1 0
vn 0 -1 0
vn 0 -1 0
vn 0 -1 0
vn 0 1 0
vn 0 1 0
vn 0 1 0
vn 0 1 0
vn 0 1 0
vn 0 1 0
vn 0 1 0
vn 0 1 0
vn 0 -1 0
vn 0 1 0
vn 0 1 0
vn 0 1 0
vn 0 1 0
vn 0 1 0
vn 0 1 0
vn 0 1 0
vn 0 1 0
vn 0 1 0
vn 0 -1 0
vn 0 -1 0
vn 0 -1 0
vn 0 -1 0
vn 0 -1 0
vn 0 -1 0
vn 0 -1 0
vn 0 -1 0
vn 0 -1 0
vn 0 -1 0
vn 0 -1 0
vn 0 -1 0
vn 0 -1 0
vn 0 -1 0
vn 0 -1 0
vn 0 -1 0
vn 0 1 0
vn 0 1 0
vn 0 1 0
vn 0 1 0
vn 0 1 0
vn 0 1 0
vn 0 1 0
vn 0 1 0
vn 0 1 0
vn 0 1 0
vn 0 1 0
vn 0 1 0
vn 0 1 0
vn 0 1 0
vn 0 1 0
vn 0 1 0
vn 0 -1 0
vn 0 1 0
vn 0 1 0
vn 0 1 0
vn 0 1 0
vn 0 1 0
vn 0 1 0
vn 0 1 0
vn 0 1 0
vn 0 1 0
f 1/1/1 8/8/8 9/9/9
f 1/1/1 9/9/9 2/2/2
f 2/2/2 9/9/9 10/10/10
f 2/2/2 10/10/10 3/3/3
f 3/3/3 10/10/10 11/11/11
f 3/3/3 11/11/11 4/4/4
f 4/4/4 11/11/11 12/12/12
f 4/4/4 12/12/12 5/5/5
f 5/5/5 12/12/12 13/13/13
f 5/5/5 13/13/13 6/6/6
f 6/6/6 13/13/13 14/14/14
f 6/6/6 14/14/14 7/7/7
f 8/8/8 15/15/15 16/16/16
f 8/8/8 16/16/16 9/9/9
f 9/9/9 16/16/16 17/17/17
f 9/9/9 17/17/17 10/10/10
f 10/10/10 17/17/17 18/18/18
f 10/10/10 18/18/18 11/11/11
f 11/11/11 18/18/18 19/19/19
f 11/11/11 19/19/19 12/12/12
f 12/12/12 19/19/19 20/20/20
f 12/12/12 20/20/20 13/13/13
f 13/13/13 20/20/20 21/21/21
f 13/13/13 21/21/21 14/14/14
f 15/15/15 22/22/22 23/23/23
f 15/15/15 23/23/23 16/16/16
f 16/16/16 23/23/23 24/24/24
f 16/16/16 24/24/24 17/17/17
f 17/17/17 24/24/24 25/25/25
f 17/17/17 25/25/25 18/18/18
f 18/18/18 25/25/25 26/26/26
f 18/18/18 26/26/26 19/19/19
f 19/19/19 26/26/26 27/27/27
f 19/19/19 27/27/27 20/20/20
f 20/20/20 27/27/27 28/28/28
f 20/20/20 28/28/28 21/21/21
f 22/22/22 29/29/29 30/30/30
f 22/22/22 30/30/30 23/23/23
f 23/23/23 30/30/30 31/31/31
f 23/23/23 31/31/31 24/24/24
f 24/24/24 31/31/31 32/32/32
f 24/24/24 32/32/32 25/25/25
f 25/25/25 32/32/32 33/33/33
f 25/25/25 33/33/33 26/26/26
f 26/26/26 33/33/33 34/34/34
f 26/26/26 34/34/34 27/27/27
f 27/27/27 34/34/34 35/35/35
f 27/27/27 35/35/35 28/28/28
f 29/29/29 36/36/36 37/37/37
f 29/29/29 37/37/37 30/30/30
f 30/30/30 37/37/37 38/38/38
f 30/30/30 38/38/38 31/31/31
f 31/31/31 38/38/38 39/39/39
f 31/31/31 39/39/39 32/32/32
f 32/32/32 39/39/39 40/40/40
f 32/32/32 40/40/40 33/33/33
f 33/33/33 40/40/40 41/41/41
f 33/33/33 41/41/41 34/34/34
f 34/34/34 41/41/41 42/42/42
f 34/34/34 42/42/42 35/35/35
f 36/36/36 43/43/43 44/44/44
f 36/36/36 44/44/44 37/37/37
f 37/37/37 44/44/44 45/45/45
f 37/37/37 45/45/45 38/38/38
f 38/38/38 45/45/45 46/46/46
f 38/38/38 46/46/46 39/39/39
f 39/39/39 46/46/46 47/47/47
f 39/39/39 47/47/47 40/40/40
f 40/40/40 47/47/47 48/48/48
f 40/40/40 48/48/48 41/41/41
f 41/41/41 48/48/48 49/49/49
f 41/41/41 49/49/49 42/42/42
f 43/43/43 50/50/50 51/51/51
f 43/43/43 51/51/51 44/44/44
f 44/44/44 51/51/51 52/52/52
f 44/44/44 52/52/52 45/45/45
f 45/45/45 52/52/52 53/53/53
f 45/45/45 53/53/53 46/46/46
f 46/46/46 53/53/53 54/54/54
f 46/46/46 54/54/54 47/47/47
f 47/47/47 54/54/54 55/55/55
f 47/47/47 55/55/55 48/48/48
f 48/48/48 55/55/55 56/56/56
f 48/48/48 56/56/56 49/49/49
f 50/50/50 57/57/57 58/58/58
f 50/50/50 58/58/58 51/51/51
f 51/51/51 58/58/58 59/59/59
f 51/51/51 59/59/59 52/52/52
f 52/52/52 59/59/59 60/60/60
f 52/52/52 60/60/60 53/53/53
f 53/53/53 60/60/60 61/61/61
f 53/53/53 61/61/61 54/54/54
f 54/54/54 61/61/61 62/62/62
f 54/54/54 62/62/62 55/55/55
f 55/55/55 62/62/62 63/63/63
f 55/55/55 63/63/63 56/56/56
f 57/57/57 64/64/64 65/65/65
f 57/57/57 65/65/65 58/58/58
f 58/58/58 65/65/65 66/66/66
f 58/58/58 66/66/66 59/59/59
f 59/59/59 66/66/66 67/67/67
f 59/59/59 67/67/67 60/60/60
f 60/60/60 67/67/67 68/68/68
f 60/60/60 68/68/68 61/61/61
f 61/61/61 68/68/68 69/69/69
f 61/61/61 69/69/69 62/62/62
f 62/62/62 69/69/69 70/70/70
f 62/62/62 70/70/70 63/63/63
f 64/64/64 71/71/71 72/72/72
f 64/64/64 72/72/72 65/65/65
f 65/65/65 72/72/72 73/73/73
f 65/65/65 73/73/73 66/66/66
f 66/66/66 73/73/73 74/74/74
f 66/66/66 74/74/74 67/67/67
f 67/67/67 74/74/74 75/75/75
f 67/67/67 75/75/75 68/68/68
f 68/68/68 75/75/75 76/76/76
f 68/68/68 76/76/76 69/69/69
f 69/69/69 76/76/76 77/77/77
f 69/69/69 77/77/77 70/70/70
f 78/78/78 79/79/79 95/95/95
f 78/78/78 95/95/95 94/94/94
f 110/110/110 79/79/79 78/78/78
f 111/111/111 94/94/94 95/95/95
f 79/79/79 80/80/80 96/96/96
f 79/79/79 96/96/96 95/95/95
f 110/110/110 80/80/80 79/79/79
f 111/111/111 95/95/95 96/96/96
f 80/80/80 81/81/81 97/97/97
f 80/80/80 97/97/97 96/96/96
f 110/110/110 81/81/81 80/80/80
f 111/111/111 96/96/96 97/97/97
f 81/81/81 82/82/82 98/98/98
f 81/81/81 98/98/98 97/97/97
f 110/110/110 82/82/82 81/81/81
f 111/111/111 97/97/97 98/98/98
f 82/82/82 83/83/83 99/99/99
f 82/82/82 99/99/99 98/98/98
f 110/110/110 83/83/83 82/82/82
f 111/111/111 98/98/98 99/99/99
f 83/83/83 84/84/84 100/100/100
f 83/83/83 100/100/100 99/99/99
f 110/110/110 84/84/84 83/83/83
f 111/111/111 99/99/99 100/100/100
f 84/84/84 85/85/85 101/101/101
f 84/84/84 101/101/101 100/100/100
f 110/110/110 85/85/85 84/84/84
f 111/111/111 100/100/100 101/101/101
f 85/85/85 86/86/86 102/102/102
f 85/85/85 102/102/102 101/101/101
f 110/110/110 86/86/86 85/85/85
f 111/111/111 101/101/101 102/102/102
f 86/86/86 87/87/87 103/103/103
f 86/86/86 103/103/103 102/102/102
f 110/110/110 87/87/87 86/86/86
f 111/111/111 102/102/102 103/103/103
f 87/87/87 88/88/88 104/104/104
f 87/87/87 104/104/104 103/103/103
f 110/110/110 88/88/88 87/87/87
f 111/111/111 103/103/103 104/104/104
f 88/88/88 89/89/89 105/105/105
f 88/88/88 105/105/105 104/104/104
f 110/110/110 89/89/89 88/88/88
f 111/111/111 104/104/104 105/105/105
f 89/89/89 90/90/90 106/106/106
f 89/89/89 106/106/106 105/105/105
f 110/110/110 90/90/90 89/89/89
f 111/111/111 105/105/105 106/106/106
f 90/90/90 91/91/91 107/107/107
f 90/90/90 107/107/107 106/106/106
f 110/110/110 91/91/91 90/90/90
f 111/111/111 106/106/106 107/107/107
f 91/91/91 92/92/92 108/108/108
f 91/91/91 108/108/108 107/107/107
f 110/110/110 92/92/92 91/91/91
f 111/111/111 107/107/107 108/108/108
f 92/92/92 93/93/93 109/109/109
f 92/92/92 109/109/109 108/108/108
f 110/110/110 93/93/93 92/92/92
f 111/111/111 108/108/108 109/109/109
f 93/93/93 78/78/78 94/94/94
f 93/93/93 94/94/94 109/109/109
f 110/110/110 78/78/78 93/93/93
f 111/111/111 109/109/109 94/94/94
f 112/112/112 119/119/119 120/120/120
f 112/112/112 120/120/120 113/113/113
f 113/113/113 120/120/120 121/121/121
f 113/113/113 121/121/121 114/114/114
f 114/114/114 121/121/121 122/122/122
f 114/114/114 122/122/122 115/115/115
f 115/115/115 122/122/122 123/123/123
f 115/115/115 123/123/123 116/116/116
f 116/116/116 123/123/123 124/124/124
f 116/116/116 124/124/124 117/117/117
f 117/117/117 124/124/124 125/125/125
f 117/117/117 125/125/125 118/118/118
f 119/119/119 126/126/126 127/127/127
f 119/119/119 127/127/127 120/120/120
f 120/120/120 127/127/127 128/128/128
f 120/120/120 128/128/128 121/121/121
f 121/121/121 128/128/128 129/129/129
f 121/121/121 129/129/129 122/122/122
f 122/122/122 129/129/129 130/130/130
f 122/122/122 130/130/130 123/123/123
f 123/123/123 130/130/130 131/131/131
f 123/123/123 131/131/131 124/124/124
f 124/124/124 131/131/131 132/132/132
f 124/124/124 132/132/132 125/125/125
f 126/126/126 133/133/133 134/134/134
f 126/126/126 134/134/134 127/127/127
f 127/127/127 134/134/134 135/135/135
f 127/127/127 135/135/135 128/128/128
f 128/128/128 135/135/135 136/136/136
f 128/128/128 136/136/136 129/129/129
f 129/129/129 136/136/136 137/137/137
f 129/129/129 137/137/137 130/130/130
f 130/130/130 137/137/137 138/138/138
f 130/130/130 138/138/138 131/131/131
f 131/131/131 138/138/138 139/139/139
f 131/131/131 139/139/139 132/132/132
f 133/133/133 140/140/140 141/141/141
f 133/133/133 141/141/141 134/134/134
f 134/134/134 141/141/141 142/142/142
f 134/134/134 142/142/142 135/135/135
f 135/135/135 142/142/142 143/143/143
f 135/135/135 143/143/143 136/136/136
f 136/136/136 143/143/143 144/144/144
f 136/136/136 144/144/144 137/137/137
f 137/137/137 144/144/144 145/145/145
f 137/137/137 145/145/145 138/138/138
f 138/138/138 145/145/145 146/146/146
f 138/138/138 146/146/146 139/139/139
f 140/140/140 147/147/147 148/148/148
f 140/140/140 148/148/148 141/141/141
f 141/141/141 148/148/148 149/149/149
f 141/141/141 149/149/149 142/142/142
f 142/142/142 149/149/149 150/150/150
f 142/142/142 150/150/150 143/143/143
f 143/143/143 150/150/150 151/151/151
f 143/143/143 151/151/151 144/144/144
f 144/144/144 151/151/151 152/152/152
f 144/144/144 152/152/152 145/145/145
f 145/145/145 152/152/152 153/153/153
f 145/145/145 153/153/153 146/146/146
f 147/147/147 154/154/154 155/155/155
f 147/147/147 155/155/155 148/148/148
f 148/148/148 155/155/155 156/156/156
f 148/148/148 156/156/156 149/149/149
f 149/149/149 156/156/156 157/157/157
f 149/149/149 157/157/157 150/150/150
f 150/150/150 157/157/157 158/158/158
f 150/150/150 158/158/158 151/151/151
f 151/151/151 158/158/158 159/159/159
f 151/151/151 159/159/159 152/152/152
f 152/152/152 159/159/159 160/160/160
f 152/152/152 160/160/160 153/153/153
f 154/154/154 161/161/161 162/162/162
f 154/154/154 162/162/162 155/155/155
f 155/155/155 162/162/162 163/163/163
f 155/155/155 163/163/163 156/156/156
f 156/156/156 163/163/163 164/164/164
f 156/156/156 164/164/164 157/157/157
f 157/157/157 164/164/164 165/165/165
f 157/157/157 165/165/165 158/158/158
f 158/158/158 165/165/165 166/166/166
f 158/158/158 166/166/166 159/159/159
f 159/159/159 166/166/166 167/167/167
f 159/159/159 167/167/167 160/160/160
f 161/161/161 168/168/168 169/169/169
f 161/161/161 169/169/169 162/162/162
f 162/162/162 169/169/169 170/170/170
f 162/162/162 170/170/170 163/163/163
f 163/163/163 170/170/170 171/171/171
f 163/163/163 171/171/171 164/164/164
f 164/164/164 171/171/171 172/172/172
f 164/164/164 172/172/172 165/165/165
f 165/165/165 172/172/172 173/173/173
f 165/165/165 173/173/173 166/166/166
f 166/166/166 173/173/173 174/174/174
f 166/166/166 174/174/174 167/167/167
f 168/168/168 175/175/175 176/176/176
f 168/168/168 176/176/176 169/169/169
f 169/169/169 176/176/176 177/177/177
f 169/169/169 177/177/177 170/170/170
f 170/170/170 177/177/177 178/178/178
f 170/170/170 178/178/178 171/171/171
f 171/171/171 178/178/178 179/179/179
f 171/171/171 179/179/179 172/172/172
f 172/172/172 179/179/179 180/180/180
f 172/172/172 180/180/180 173/173/173
f 173/173/173 180/180/180 181/181/181
f 173/173/173 181/181/181 174/174/174
f 175/175/175 182/182/182 183/183/183
f 175/175/175 183/183/183 176/176/176
f 176/176/176 183/183/183 184/184/184
f 176/176/176 184/184/184 177/177/177
f 177/177/177 184/184/184 185/185/185
f 177/177/177 185/185/185 178/178/178
f 178/178/178 185/185/185 186/186/186
f 178/178/178 186/186/186 179/179/179
f 179/179/179 186/186/186 187/187/187
f 179/179/179 187/187/187 180/180/180
f 180/180/180 187/187/187 188/188/188
f 180/180/180 188/188/188 181/181/181
f 189/189/189 190/190/190 206/206/206
f 189/189/189 206/206/206 205/205/205
f 221/221/221 190/190/190 189/189/189
f 222/222/222 205/205/205 206/206/206
f 190/190/190 191/191/191 207/207/207
f 190/190/190 207/207/207 206/206/206
f 221/221/221 191/191/191 190/190/190
f 222/222/222 206/206/206 207/207/207
f 191/191/191 192/192/192 208/208/208
f 191/191/191 208/208/208 207/207/207
f 221/221/221 192/192/192 191/191/191
f 222/222/222 207/207/207 208/208/208
f 192/192/192 193/193/193 209/209/209
f 192/192/192 209/209/209 208/208/208
f 221/221/221 193/193/193 192/192/192
f 222/222/222 208/208/208 209/209/209
f 193/193/193 194/194/194 210/210/210
f 193/193/193 210/210/210 209/209/209
f 221/221/221 194/194/194 193/193/193
f 222/222/222 209/209/209 210/210/210
f 194/194/194 195/195/195 211/211/211
f 194/194/194 211/211/211 210/210/210
f 221/221/221 195/195/195 194/194/194
f 222/222/222 210/210/210 211/211/211
f 195/195/195 196/196/196 212/212/212
f 195/195/195 212/212/212 211/211/211
f 221/221/221 196/196/196 195/195/195
f 222/222/222 211/211/211 212/212/212
f 196/196/196 197/197/197 213/213/213
f 196/196/196 213/213/213 212/212/212
f 221/221/221 197/197/197 196/196/196
f 222/222/222 212/212/212 213/213/213
f 197/197/197 198/198/198 214/214/214
f 197/197/197 214/214/214 213/213/213
f 221/221/221 198/198/198 197/197/197
f 222/222/222 213/213/213 214/214/214
f 198/198/198 199/199/199 215/215/215
f 198/198/198 215/215/215 214/214/214
f 221/221/221 199/199/199 198/198/198
f 222/222/222 214/214/214 215/215/215
f 199/199/199 200/200/200 216/216/216
f 199/199/199 216/216/216 215/215/215
f 221/221/221 200/200/200 199/199/199
f 222/222/222 215/215/215 216/216/216
f 200/200/200 201/201/201 217/217/217
f 200/200/200 217/217/217 216/216/216
f 221/221/221 201/201/201 200/200/200
f 222/222/222 216/216/216 217/217/217
f 201/201/201 202/202/202 218/218/218
f 201/201/201 218/218/218 217/217/217
f 221/221/221 202/202/202 201/201/201
f 222/222/222 217/217/217 218/218/218
f 202/202/202 203/203/203 219/219/219
f 202/202/202 219/219/219 218/218/218
f 221/221/221 203/203/203 202/202/202
f 222/222/222 218/218/218 219/219/219
f 203/203/203 204/204/204 220/220/220
f 203/203/203 220/220/220 219/219/219
f 221/221/221 204/204/204 203/203/203
f 222/222/222 219/219/219 220/220/220
f 204/204/204 189/189/189 205/205/205
f 204/204/204 205/205/205 220/220/220
f 221/221/221 189/189/189 204/204/204
f 222/222/222 220/220/220 205/205/205
f 223/223/223 224/224/224 232/232/232
f 223/223/223 232/232/232 231/231/231
f 239/239/239 224/224/224 223/223/223
f 240/240/240 231/231/231 232/232/232
f 224/224/224 225/225/225 233/233/233
f 224/224/224 233/233/233 232/232/232
f 239/239/239 225/225/225 224/224/224
f 240/240/240 232/232/232 233/233/233
f 225/225/225 226/226/226 234/234/234
f 225/225/225 234/234/234 233/233/233
f 239/239/239 226/226/226 225/225/225
f 240/240/240 233/233/233 234/234/234
f 226/226/226 227/227/227 235/235/235
f 226/226/226 235/235/235 234/234/234
f 239/239/239 227/227/227 226/226/226
f 240/240/240 234/234/234 235/235/235
f 227/227/227 228/228/228 236/236/236
f 227/227/227 236/236/236 235/235/235
f 239/239/239 228/228/228 227/227/227
f 240/240/240 235/235/235 236/236/236
f 228/228/228 229/229/229 237/237/237
f 228/228/228 237/237/237 236/236/236
f 239/239/239 229/229/229 228/228/228
f 240/240/240 236/236/236 237/237/237
f 229/229/229 230/230/230 238/238/238
f 229/229/229 238/238/238 237/237/237
f 239/239/239 230/230/230 229/229/229
f 240/240/240 237/237/237 238/238/238
f 230/230/230 223/223/223 231/231/231
f 230/230/230 231/231/231 238/238/238
f 239/239/239 223/223/223 230/230/230
f 240/240/240 238/238/238 231/231/231
f 241/241/241 242/242/242 250/250/250
f 241/241/241 250/250/250 249/249/249
f 257/257/257 242/242/242 241/241/241
f 258/258/258 249/249/249 250/250/250
f 242/242/242 243/243/243 251/251/251
f 242/242/242 251/251/251 250/250/250
f 257/257/257 243/243/243 242/242/242
f 258/258/258 250/250/250 251/251/251
f 243/243/243 244/244/244 252/252/252
f 243/243/243 252/252/252 251/251/251
f 257/257/257 244/244/244 243/243/243
f 258/258/258 251/251/251 252/252/252
f 244/244/244 245/245/245 253/253/253
f 244/244/244 253/253/253 252/252/252
f 257/257/257 245/245/245 244/244/244
f 258/258/258 252/252/252 253/253/253
f 245/245/245 246/246/246 254/254/254
f 245/245/245 254/254/254 253/253/253
f 257/257/257 246/246/246 245/245/245
f 258/258/258 253/253/253 254/254/254
f 246/246/246 247/247/247 255/255/255
f 246/246/246 255/255/255 254/254/254
f 257/257/257 247/247/247 246/246/246
f 258/258/258 254/254/254 255/255/255
f 247/247/247 248/248/248 256/256/256
f 247/247/247 256/256/256 255/255/255
f 257/257/257 248/248/248 247/247/247
f 258/258/258 255/255/255 256/256/256
f 248/248/248 241/241/241 249/249/249
f 248/248/248 249/249/249 256/256/256
f 257/257/257 241/241/241 248/248/248
f 258/258/258 256/256/256 249/249/249
f 259/259/259 260/260/260 268/268/268
f 259/259/259 268/268/268 267/267/267
f 275/275/275 260/260/260 259/259/259
f 276/276/276 267/267/267 268/268/268
f 260/260/260 261/261/261 269/269/269
f 260/260/260 269/269/269 268/268/268
f 275/275/275 261/261/261 260/260/260
f 276/276/276 268/268/268 269/269/269
f 261/261/261 262/262/262 270/270/270
f 261/261/261 270/270/270 269/269/269
f 275/275/275 262/262/262 261/261/261
f 276/276/276 269/269/269 270/270/270
f 262/262/262 263/263/263 271/271/271
f 262/262/262 271/271/271 270/270/270
f 275/275/275 263/263/263 262/262/262
f 276/276/276 270/270/270 271/271/271
f 263/263/263 264/264/264 272/272/272
f 263/263/263 272/272/272 271/271/271
f 275/275/275 264/264/264 263/263/263
f 276/276/276 271/271/271 272/272/272
f 264/264/264 265/265/265 273/273/273
f 264/264/264 273/273/273 272/272/272
f 275/275/275 265/265/265 264/264/264
f 276/276/276 272/272/272 273/273/273
f 265/265/265 266/266/266 274/274/274
f 265/265/265 274/274/274 273/273/273
f 275/275/275 266/266/266 265/265/265
f 276/276/276 273/273/273 274/274/274
f 266/266/266 259/259/259 267/267/267
f 266/266/266 267/267/267 274/274/274
f 275/275/275 259/259/259 266/266/266
f 276/276/276 274/274/274 267/267/267
f 277/277/277 278/278/278 286/286/286
f 277/277/277 286/286/286 285/285/285
f 293/293/293 278/278/278 277/277/277
f 294/294/294 285/285/285 286/286/286
f 278/278/278 279/279/279 287/287/287
f 278/278/278 287/287/287 286/286/286
f 293/293/293 279/279/279 278/278/278
f 294/294/294 286/286/286 287/287/287
f 279/279/279 280/280/280 288/288/288
f 279/279/279 288/288/288 287/287/287
f 293/293/293 280/280/280 279/279/279
f 294/294/294 287/287/287 288/288/288
f 280/280/280 281/281/281 289/289/289
f 280/280/280 289/289/289 288/288/288
f 293/293/293 281/281/281 280/280/280
f 294/294/294 288/288/288 289/289/289
f 281/281/281 282/282/282 290/290/290
f 281/281/281 290/290/290 289/289/289
f 293/293/293 282/282/282 281/281/281
f 294/294/294 289/289/289 290/290/290
f 282/282/282 283/283/283 291/291/291
f 282/282/282 291/291/291 290/290/290
f 293/293/293 283/283/283 282/282/282
f 294/294/294 290/290/290 291/291/291
f 283/283/283 284/284/284 292/292/292
f 283/283/283 292/292/292 291/291/291
f 293/293/293 284/284/284 283/283/283
f 294/294/294 291/291/291 292/292/292
f 284/284/284 277/277/277 285/285/285
f 284/284/284 285/285/285 292/292/292
f 293/293/293 277/277/277 284/284/284
f 294/294/294 292/292/292 285/285/285
f 295/295/295 296/296/296 304/304/304
f 295/295/295 304/304/304 303/303/303
f 311/311/311 296/296/296 295/295/295
f 312/312/312 303/303/303 304/304/304
f 296/296/296 297/297/297 305/305/305
f 296/296/296 305/305/305 304/304/304
f 311/311/311 297/297/297 296/296/296
f 312/312/312 304/304/304 305/305/305
f 297/297/297 298/298/298 306/306/306
f 297/297/297 306/306/306 305/305/305
f 311/311/311 298/298/298 297/297/297
f 312/312/312 305/305/305 306/306/306
f 298/298/298 299/299/299 307/307/307
f 298/298/298 307/307/307 306/306/306
f 311/311/311 299/299/299 298/298/298
f 312/312/312 306/306/306 307/307/307
f 299/299/299 300/300/300 308/308/308
f 299/299/299 308/308/308 307/307/307
f 311/311/311 300/300/300 299/299/299
f 312/312/312 307/307/307 308/308/308
f 300/300/300 301/301/301 309/309/309
f 300/300/300 309/309/309 308/308/308
f 311/311/311 301/301/301 300/300/300
f 312/312/312 308/308/308 309/309/309
f 301/301/301 302/302/302 310/310/310
f 301/301/301 310/310/310 309/309/309
f 311/311/311 302/302/302 301/301/301
f 312/312/312 309/309/309 310/310/310
f 302/302/302 295/295/295 303/303/303
f 302/302/302 303/303/303 310/310/310
f 311/311/311 295/295/295 302/302/302
f 312/312/312 310/310/310 303/303/303
f 313/313/313 314/314/314 322/322/322
f 313/313/313 322/322/322 321/321/321
f 329/329/329 314/314/314 313/313/313
f 330/330/330 321/321/321 322/322/322
f 314/314/314 315/315/315 323/323/323
f 314/314/314 323/323/323 322/322/322
f 329/329/329 315/315/315 314/314/314
f 330/330/330 322/322/322 323/323/323
f 315/315/315 316/316/316 324/324/324
f 315/315/315 324/324/324 323/323/323
f 329/329/329 316/316/316 315/315/315
f 330/330/330 323/323/323 324/324/324
f 316/316/316 317/317/317 325/325/325
f 316/316/316 325/325/325 324/324/324
f 329/329/329 317/317/317 316/316/316
f 330/330/330 324/324/324 325/325/325
f 317/317/317 318/318/318 326/326/326
f 317/317/317 326/326/326 325/325/325
f 329/329/329 318/318/318 317/317/317
f 330/330/330 325/325/325 326/326/326
f 318/318/318 319/319/319 327/327/327
f 318/318/318 327/327/327 326/326/326
f 329/329/329 319/319/319 318/318/318
f 330/330/330 326/326/326 327/327/327
f 319/319/319 320/320/320 328/328/328
f 319/319/319 328/328/328 327/327/327
f 329/329/329 320/320/320 319/319/319
f 330/330/330 327/327/327 328/328/328
f 320/320/320 313/313/313 321/321/321
f 320/320/320 321/321/321 328/328/328
f 329/329/329 313/313/313 320/320/320
f 330/330/330 328/328/328 321/321/321
f 331/331/331 332/332/332 340/340/340
f 331/331/331 340/340/340 339/339/339
f 347/347/347 332/332/332 331/331/331
f 348/348/348 339/339/339 340/340/340
f 332/332/332 333/333/333 341/341/341
f 332/332/332 341/341/341 340/340/340
f 347/347/347 333/333/333 332/332/332
f 348/348/348 340/340/340 341/341/341
f 333/333/333 334/334/334 342/342/342
f 333/333/333 342/342/342 341/341/341
f 347/347/347 334/334/334 333/333/333
f 348/348/348 341/341/341 342/342/342
f 334/334/334 335/335/335 343/343/343
f 334/334/334 343/343/343 342/342/342
f 347/347/347 335/335/335 334/334/334
f 348/348/348 342/342/342 343/343/343
f 335/335/335 336/336/336 344/344/344
f 335/335/335 344/344/344 343/343/343
f 347/347/347 336/336/336 335/335/335
f 348/348/348 343/343/343 344/344/344
f 336/336/336 337/337/337 345/345/345
f 336/336/336 345/345/345 344/344/344
f 347/347/347 337/337/337 336/336/336
f 348/348/348 344/344/344 345/345/345
f 337/337/337 338/338/338 346/346/346
f 337/337/337 346/346/346 345/345/345
f 347/347/347 338/338/338 337/337/337
f 348/348/348 345/345/345 346/346/346
f 338/338/338 331/331/331 339/339/339
f 338/338/338 339/339/339 346/346/346
f 347/347/347 331/331/331 338/338/338
f 348/348/348 346/346/346 339/339/339
f 349/349/349 350/350/350 358/358/358
f 349/349/349 358/358/358 357/357/357
f 365/365/365 350/350/350 349/349/349
f 366/366/366 357/357/357 358/358/358
f 350/350/350 351/351/351 359/359/359
f 350/350/350 359/359/359 358/358/358
f 365/365/365 351/351/351 350/350/350
f 366/366/366 358/358/358 359/359/359
f 351/351/351 352/352/352 360/360/360
f 351/351/351 360/360/360 359/359/359
f 365/365/365 352/352/352 351/351/351
f 366/366/366 359/359/359 360/360/360
f 352/352/352 353/353/353 361/361/361
f 352/352/352 361/361/361 360/360/360
f 365/365/365 353/353/353 352/352/352
f 366/366/366 360/360/360 361/361/361
f 353/353/353 354/354/354 362/362/362
f 353/353/353 362/362/362 361/361/361
f 365/365/365 354/354/354 353/353/353
f 366/366/366 361/361/361 362/362/362
f 354/354/354 355/355/355 363/363/363
f 354/354/354 363/363/363 362/362/362
f 365/365/365 355/355/355 354/354/354
f 366/366/366 362/362/362 363/363/363
f 355/355/355 356/356/356 364/364/364
f 355/355/355 364/364/364 363/363/363
f 365/365/365 356/356/356 355/355/355
f 366/366/366 363/363/363 364/364/364
f 356/356/356 349/349/349 357/357/357
f 356/356/356 357/357/357 364/364/364
f 365/365/365 349/349/349 356/356/356
f 366/366/366 364/364/364 357/357/357
f 367/367/367 369/369/369 368/368/368
f 367/367/367 370/370/370 369/369/369
f 371/371/371 372/372/372 373/373/373
f 371/371/371 373/373/373 374/374/374
f 367/367/367 368/368/368 372/372/372
f 367/367/367 372/372/372 371/371/371
f 369/369/369 370/370/370 374/374/374
f 369/369/369 374/374/374 373/373/373
f 367/367/367 371/371/371 374/374/374
f 367/367/367 374/374/374 370/370/370
f 368/368/368 369/369/369 373/373/373
f 368/368/368 373/373/373 372/372/372
f 375/375/375 376/376/376 392/392/392
f 375/375/375 392/392/392 391/391/391
f 407/407/407 376/376/376 375/375/375
f 408/408/408 391/391/391 392/392/392
f 376/376/376 377/377/377 393/393/393
f 376/376/376 393/393/393 392/392/392
f 407/407/407 377/377/377 376/376/376
f 408/408/408 392/392/392 393/393/393
f 377/377/377 378/378/378 394/394/394
f 377/377/377 394/394/394 393/393/393
f 407/407/407 378/378/378 377/377/377
f 408/408/408 393/393/393 394/394/394
f 378/378/378 379/379/379 395/395/395
f 378/378/378 395/395/395 394/394/394
f 407/407/407 379/379/379 378/378/378
f 408/408/408 394/394/394 395/395/395
f 379/379/379 380/380/380 396/396/396
f 379/379/379 396/396/396 395/395/395
f 407/407/407 380/380/380 379/379/379
f 408/408/408 395/395/395 396/396/396
f 380/380/380 381/381/381 397/397/397
f 380/380/380 397/397/397 396/396/396
f 407/407/407 381/381/381 380/380/380
f 408/408/408 396/396/396 397/397/397
f 381/381/381 382/382/382 398/398/398
f 381/381/381 398/398/398 397/397/397
f 407/407/407 382/382/382 381/381/381
f 408/408/408 397/397/397 398/398/398
f 382/382/382 383/383/383 399/399/399
f 382/382/382 399/399/399 398/398/398
f 407/407/407 383/383/383 382/382/382
f 408/408/408 398/398/398 399/399/399
f 383/383/383 384/384/384 400/400/400
f 383/383/383 400/400/400 399/399/399
f 407/407/407 384/384/384 383/383/383
f 408/408/408 399/399/399 400/400/400
f 384/384/384 385/385/385 401/401/401
f 384/384/384 401/401/401 400/400/400
f 407/407/407 385/385/385 384/384/384
f 408/408/408 400/400/400 401/401/401
f 385/385/385 386/386/386 402/402/402
f 385/385/385 402/402/402 401/401/401
f 407/407/407 386/386/386 385/385/385
f 408/408/408 401/401/401 402/402/402
f 386/386/386 387/387/387 403/403/403
f 386/386/386 403/403/403 402/402/402
f 407/407/407 387/387/387 386/386/386
f 408/408/408 402/402/402 403/403/403
f 387/387/387 388/388/388 404/404/404
f 387/387/387 404/404/404 403/403/403
f 407/407/407 388/388/388 387/387/387
f 408/408/408 403/403/403 404/404/404
f 388/388/388 389/389/389 405/405/405
f 388/388/388 405/405/405 404/404/404
f 407/407/407 389/389/389 388/388/388
f 408/408/408 404/404/404 405/405/405
f 389/389/389 390/390/390 406/406/406
f 389/389/389 406/406/406 405/405/405
f 407/407/407 390/390/390 389/389/389
f 408/408/408 405/405/405 406/406/406
f 390/390/390 375/375/375 391/391/391
f 390/390/390 391/391/391 406/406/406
f 407/407/407 375/375/375 390/390/390
f 408/408/408 406/406/406 391/391/391
f 409/409/409 411/411/411 410/410/410
f 409/409/409 412/412/412 411/411/411
f 413/413/413 414/414/414 415/415/415
f 413/413/413 415/415/415 416/416/416
f 409/409/409 410/410/410 414/414/414
f 409/409/409 414/414/414 413/413/413
f 411/411/411 412/412/412 416/416/416
f 411/411/411 416/416/416 415/415/415
f 409/409/409 413/413/413 416/416/416
f 409/409/409 416/416/416 412/412/412
f 410/410/410 411/411/411 415/415/415
f 410/410/410 415/415/415 414/414/414