# 3D Model: tree/canopy/images (4)
# Style: broadleaf_camphor_oak | Symmetry: asymmetric
# Dimensions: 15.246 x 25.631 x 18.239 m
# Triangles: 960 | Vertices: 611
v 1.5505 0 0
v 1.2544 0 0.9114
v 0.4791 0 1.4746
v -0.4791 0 1.4746
v -1.2544 0 0.9114
v -1.5505 0 0
v -1.2544 0 -0.9114
v -0.4791 0 -1.4746
v 0.4791 0 -1.4746
v 1.2544 0 -0.9114
v 0.8614 9.4775 0
v 0.6969 9.4775 0.5063
v 0.2662 9.4775 0.8192
v -0.2662 9.4775 0.8192
v -0.6969 9.4775 0.5063
v -0.8614 9.4775 0
v -0.6969 9.4775 -0.5063
v -0.2662 9.4775 -0.8192
v 0.2662 9.4775 -0.8192
v 0.6969 9.4775 -0.5063
v 0 0 0
v 0 9.4775 0
v 2.5789 0.0474 1.0029
v 0.7619 0.0474 1.2775
v 0.4873 0.0474 -0.5395
v 2.3043 0.0474 -0.8141
v 1.6754 5.26 0.3366
v 1.4282 5.26 0.374
v 1.3908 5.26 0.1268
v 1.638 5.26 0.0894
v 1.5331 0.0474 0.2317
v 1.5331 5.26 0.2317
v 1.31 0.0474 0.7734
v 1.0097 0.0474 2.5863
v -0.8032 0.0474 2.286
v -0.5029 0.0474 0.473
v 0.3971 5.26 1.4268
v 0.3563 5.26 1.6734
v 0.1096 5.26 1.6326
v 0.1505 5.26 1.3859
v 0.2534 0.0474 1.5297
v 0.2534 5.26 1.5297
v -1.7693 0.0474 -0.5249
v -0.1379 0.0474 0.3209
v -0.9837 0.0474 1.9523
v -2.6151 0.0474 1.1065
v -1.4299 5.26 0.5452
v -1.208 5.26 0.6602
v -1.3231 5.26 0.8822
v -1.545 5.26 0.7671
v -1.3765 0.0474 0.7137
v -1.3765 5.26 0.7137
v -2.4035 0.0474 -1.0978
v -1.0949 0.0474 -2.388
v 0.1953 0.0474 -1.0794
v -1.1133 0.0474 0.2108
v -1.2809 5.26 -1.0898
v -1.1029 5.26 -1.2654
v -0.9273 5.26 -1.0873
v -1.1054 5.26 -0.9118
v -1.1041 0.0474 -1.0886
v -1.1041 5.26 -1.0886
v 0.2838 0.0474 -0.1535
v -0.5388 0.0474 -1.7967
v 1.1044 0.0474 -2.6194
v 1.9271 0.0474 -0.9762
v 0.6383 5.26 -1.2187
v 0.5264 5.26 -1.4423
v 0.7499 5.26 -1.5542
v 0.8619 5.26 -1.3306
v 0.6941 0.0474 -1.3865
v 0.6941 5.26 -1.3865
v 2.6095 13.0192 -0.6902
v 2.6095 13.0192 -0.6902
v 2.6095 13.0192 -0.6902
v 2.6095 13.0192 -0.6902
v 2.6095 13.0192 -0.6902
v 2.6095 13.0192 -0.6902
v 2.6095 13.0192 -0.6902
v 2.6095 13.0192 -0.6902
v 2.6095 13.0192 -0.6902
v 2.6095 13.0192 -0.6902
v 2.6095 13.0192 -0.6902
v 4.7022 12.4858 -0.3357
v 4.1269 12.5232 0.7521
v 2.9813 12.5091 1.3021
v 1.7031 12.4486 1.1045
v 0.7804 12.3651 0.2345
v 0.5657 12.2903 -0.9754
v 1.141 12.2528 -2.0631
v 2.2866 12.267 -2.6132
v 3.5648 12.3274 -2.4155
v 4.4875 12.411 -1.5456
v 4.7022 12.4858 -0.3357
v 6.2831 10.833 -0.0068
v 5.2867 10.8979 1.8772
v 3.3025 10.8733 2.83
v 1.0885 10.7686 2.4876
v -0.5097 10.6239 0.9808
v -0.8815 10.4943 -1.1148
v 0.115 10.4294 -2.9987
v 2.0991 10.454 -3.9515
v 4.3131 10.5586 -3.6091
v 5.9113 10.7034 -2.1024
v 6.2831 10.833 -0.0068
v 6.9287 8.5036 0.2084
v 5.778 8.5786 2.3838
v 3.4869 8.5502 3.484
v 0.9304 8.4294 3.0886
v -0.915 8.2622 1.3488
v -1.3444 8.1126 -1.071
v -0.1938 8.0376 -3.2465
v 2.0974 8.066 -4.3466
v 4.6539 8.1869 -3.9513
v 6.4993 8.354 -2.2114
v 6.9287 8.5036 0.2084
v 6.4658 6.1219 0.2521
v 5.4693 6.1868 2.1361
v 3.4851 6.1622 3.0889
v 1.2711 6.0576 2.7465
v -0.327 5.9128 1.2397
v -0.6989 5.7832 -0.8559
v 0.2976 5.7183 -2.7399
v 2.2818 5.7429 -3.6926
v 4.4958 5.8476 -3.3502
v 6.0939 5.9923 -1.8435
v 6.4658 6.1219 0.2521
v 5.0186 4.326 0.1127
v 4.4433 4.3634 1.2005
v 3.2977 4.3492 1.7505
v 2.0194 4.2888 1.5529
v 1.0967 4.2052 0.6829
v 0.8821 4.1304 -0.527
v 1.4574 4.093 -1.6147
v 2.6029 4.1071 -2.1648
v 3.8812 4.1676 -1.9671
v 4.8039 4.2511 -1.0972
v 5.0186 4.326 0.1127
v 2.9748 3.597 -0.1724
v 2.9748 3.597 -0.1724
v 2.9748 3.597 -0.1724
v 2.9748 3.597 -0.1724
v 2.9748 3.597 -0.1724
v 2.9748 3.597 -0.1724
v 2.9748 3.597 -0.1724
v 2.9748 3.597 -0.1724
v 2.9748 3.597 -0.1724
v 2.9748 3.597 -0.1724
v 2.9748 3.597 -0.1724
v 2.7037 15.8138 2.5008
v 2.7037 15.8138 2.5008
v 2.7037 15.8138 2.5008
v 2.7037 15.8138 2.5008
v 2.7037 15.8138 2.5008
v 2.7037 15.8138 2.5008
v 2.7037 15.8138 2.5008
v 2.7037 15.8138 2.5008
v 2.7037 15.8138 2.5008
v 2.7037 15.8138 2.5008
v 2.7037 15.8138 2.5008
v 4.4356 15.0699 0.9381
v 4.8651 15.1004 2.0626
v 4.4756 15.1153 3.3598
v 3.4159 15.109 4.3342
v 2.0907 15.0839 4.6136
v 1.0064 15.0495 4.0913
v 0.5769 15.019 2.9667
v 0.9664 15.0041 1.6696
v 2.0261 15.0104 0.6952
v 3.3512 15.0355 0.4158
v 4.4356 15.0699 0.9381
v 5.7379 13.0171 -0.1782
v 6.4817 13.0699 1.7696
v 5.8071 13.0958 4.0164
v 3.9716 13.0848 5.704
v 1.6765 13.0413 6.1879
v -0.2018 12.9817 5.2833
v -0.9456 12.929 3.3355
v -0.271 12.9031 1.0887
v 1.5645 12.914 -0.5989
v 3.8596 12.9576 -1.0828
v 5.7379 13.0171 -0.1782
v 6.2616 10.2055 -0.5489
v 7.1205 10.2664 1.7002
v 6.3415 10.2963 4.2945
v 4.2221 10.2837 6.2433
v 1.5719 10.2334 6.8021
v -0.5969 10.1646 5.7574
v -1.4558 10.1037 3.5084
v -0.6768 10.0738 0.914
v 1.4426 10.0864 -1.0347
v 4.0928 10.1367 -1.5935
v 6.2616 10.2055 -0.5489
v 5.8665 7.3884 -0.0747
v 6.6103 7.4412 1.873
v 5.9357 7.467 4.1198
v 4.1003 7.4561 5.8075
v 1.8051 7.4126 6.2914
v -0.0731 7.353 5.3867
v -0.817 7.3002 3.439
v -0.1424 7.2744 1.1922
v 1.6931 7.2853 -0.4955
v 3.9883 7.3288 -0.9794
v 5.8665 7.3884 -0.0747
v 4.6584 5.3206 1.1173
v 5.0878 5.3511 2.2418
v 4.6983 5.3661 3.539
v 3.6386 5.3598 4.5134
v 2.3135 5.3346 4.7927
v 1.2291 5.3002 4.2704
v 0.7997 5.2698 3.1459
v 1.1892 5.2548 1.8487
v 2.2489 5.2611 0.8743
v 3.574 5.2863 0.595
v 4.6584 5.3206 1.1173
v 2.961 4.5563 2.7077
v 2.961 4.5563 2.7077
v 2.961 4.5563 2.7077
v 2.961 4.5563 2.7077
v 2.961 4.5563 2.7077
v 2.961 4.5563 2.7077
v 2.961 4.5563 2.7077
v 2.961 4.5563 2.7077
v 2.961 4.5563 2.7077
v 2.961 4.5563 2.7077
v 2.961 4.5563 2.7077
v -2.1394 16.6574 4.3959
v -2.1394 16.6574 4.3959
v -2.1394 16.6574 4.3959
v -2.1394 16.6574 4.3959
v -2.1394 16.6574 4.3959
v -2.1394 16.6574 4.3959
v -2.1394 16.6574 4.3959
v -2.1394 16.6574 4.3959
v -2.1394 16.6574 4.3959
v -2.1394 16.6574 4.3959
v -2.1394 16.6574 4.3959
v -2.8494 15.9831 1.875
v -1.6321 16.1793 2.0042
v -0.5699 16.323 3.04
v -0.0686 16.3593 4.5866
v -0.3196 16.2742 6.0534
v -1.2271 16.1003 6.88
v -2.4444 15.9041 6.7508
v -3.5066 15.7604 5.715
v -4.0079 15.7242 4.1684
v -3.7569 15.8092 2.7016
v -2.8494 15.9831 1.875
v -3.1668 14.2582 -0.0072
v -1.0583 14.5981 0.2166
v 0.7815 14.8469 2.0106
v 1.6498 14.9097 4.6894
v 1.2151 14.7624 7.2299
v -0.3567 14.4612 8.6617
v -2.4652 14.1213 8.4379
v -4.305 13.8724 6.644
v -5.1733 13.8097 3.9651
v -4.7386 13.957 1.4246
v -3.1668 14.2582 -0.0072
v -3.0064 11.9448 -0.7463
v -0.5718 12.3373 -0.4879
v 1.5526 12.6246 1.5836
v 2.5553 12.6971 4.6768
v 2.0533 12.527 7.6104
v 0.2383 12.1793 9.2637
v -2.1963 11.7868 9.0052
v -4.3207 11.4994 6.9338
v -5.3234 11.4269 3.8405
v -4.8214 11.5971 0.907
v -3.0064 11.9448 -0.7463
v -2.4113 9.6628 -0.1444
v -0.3029 10.0027 0.0794
v 1.5369 10.2516 1.8734
v 2.4052 10.3143 4.5522
v 1.9705 10.167 7.0927
v 0.3987 9.8659 8.5245
v -1.7098 9.526 8.3007
v -3.5496 9.2771 6.5068
v -4.4179 9.2143 3.8279
v -3.9832 9.3617 1.2874
v -2.4113 9.6628 -0.1444
v -1.541 8.0237 1.6373
v -0.3237 8.22 1.7666
v 0.7385 8.3636 2.8023
v 1.2398 8.3999 4.3489
v 0.9888 8.3148 5.8157
v 0.0813 8.141 6.6423
v -1.136 7.9447 6.5131
v -2.1982 7.801 5.4774
v -2.6995 7.7648 3.9307
v -2.4485 7.8498 2.464
v -1.541 8.0237 1.6373
v -0.6286 7.4667 4.1214
v -0.6286 7.4667 4.1214
v -0.6286 7.4667 4.1214
v -0.6286 7.4667 4.1214
v -0.6286 7.4667 4.1214
v -0.6286 7.4667 4.1214
v -0.6286 7.4667 4.1214
v -0.6286 7.4667 4.1214
v -0.6286 7.4667 4.1214
v -0.6286 7.4667 4.1214
v -0.6286 7.4667 4.1214
v -3.0739 18.8267 0.866
v -3.0739 18.8267 0.866
v -3.0739 18.8267 0.866
v -3.0739 18.8267 0.866
v -3.0739 18.8267 0.866
v -3.0739 18.8267 0.866
v -3.0739 18.8267 0.866
v -3.0739 18.8267 0.866
v -3.0739 18.8267 0.866
v -3.0739 18.8267 0.866
v -3.0739 18.8267 0.866
v -5.6387 18.0735 -0.0488
v -4.704 18.0478 -1.0714
v -3.1412 18.0695 -1.3428
v -1.5473 18.1304 -0.7592
v -0.531 18.2071 0.4564
v -0.4806 18.2704 1.8397
v -1.4153 18.296 2.8624
v -2.9781 18.2743 3.1338
v -4.572 18.2135 2.5502
v -5.5883 18.1367 1.3346
v -5.6387 18.0735 -0.0488
v -7.4878 16.2124 -0.6596
v -5.8689 16.1679 -2.4309
v -3.1621 16.2055 -2.9009
v -0.4013 16.3109 -1.8902
v 1.3589 16.4438 0.2153
v 1.4462 16.5534 2.6114
v -0.1727 16.5978 4.3827
v -2.8795 16.5602 4.8527
v -5.6403 16.4548 3.8419
v -7.4005 16.322 1.7364
v -7.4878 16.2124 -0.6596
v -8.1258 13.7421 -0.8027
v -6.2564 13.6907 -2.8481
v -3.1309 13.7342 -3.3908
v 0.057 13.8559 -2.2237
v 2.0895 14.0093 0.2075
v 2.1903 14.1359 2.9742
v 0.321 14.1872 5.0196
v -2.8046 14.1437 5.5623
v -5.9925 14.0221 4.3952
v -8.025 13.8686 1.964
v -8.1258 13.7421 -0.8027
v -7.3817 11.3246 -0.4399
v -5.7628 11.2801 -2.2112
v -3.056 11.3178 -2.6812
v -0.2952 11.4231 -1.6704
v 1.465 11.556 0.4351
v 1.5524 11.6656 2.8311
v -0.0666 11.7101 4.6024
v -2.7734 11.6724 5.0724
v -5.5342 11.567 4.0617
v -7.2944 11.4342 1.9562
v -7.3817 11.3246 -0.4399
v -5.4549 9.6076 0.3318
v -4.5202 9.5819 -0.6909
v -2.9574 9.6037 -0.9623
v -1.3635 9.6645 -0.3787
v -0.3472 9.7412 0.8369
v -0.2968 9.8045 2.2203
v -1.2315 9.8302 3.2429
v -2.7943 9.8084 3.5143
v -4.3882 9.7476 2.9307
v -5.4045 9.6709 1.7151
v -5.4549 9.6076 0.3318
v -2.8616 9.0512 1.3055
v -2.8616 9.0512 1.3055
v -2.8616 9.0512 1.3055
v -2.8616 9.0512 1.3055
v -2.8616 9.0512 1.3055
v -2.8616 9.0512 1.3055
v -2.8616 9.0512 1.3055
v -2.8616 9.0512 1.3055
v -2.8616 9.0512 1.3055
v -2.8616 9.0512 1.3055
v -2.8616 9.0512 1.3055
v -2.7493 20.4705 -1.3691
v -2.7493 20.4705 -1.3691
v -2.7493 20.4705 -1.3691
v -2.7493 20.4705 -1.3691
v -2.7493 20.4705 -1.3691
v -2.7493 20.4705 -1.3691
v -2.7493 20.4705 -1.3691
v -2.7493 20.4705 -1.3691
v -2.7493 20.4705 -1.3691
v -2.7493 20.4705 -1.3691
v -2.7493 20.4705 -1.3691
v -4.8097 19.8655 -0.3991
v -4.8295 19.8444 -1.4709
v -4.0548 19.8243 -2.4992
v -2.7813 19.8128 -3.0911
v -1.4957 19.8143 -3.0206
v -0.6888 19.8282 -2.3146
v -0.669 19.8493 -1.2427
v -1.4438 19.8694 -0.2145
v -2.7172 19.8809 0.3774
v -4.0029 19.8794 0.3069
v -4.8097 19.8655 -0.3991
v -6.3179 18.1755 0.3354
v -6.3523 18.139 -1.521
v -5.0103 18.1041 -3.302
v -2.8047 18.0842 -4.3272
v -0.5778 18.0868 -4.205
v 0.8197 18.1109 -2.9822
v 0.854 18.1474 -1.1257
v -0.4879 18.1822 0.6552
v -2.6936 18.2022 1.6804
v -4.9204 18.1996 1.5583
v -6.3179 18.1755 0.3354
v -6.8698 15.8532 0.6378
v -6.9095 15.8111 -1.5059
v -5.3599 15.7709 -3.5624
v -2.8131 15.7478 -4.7462
v -0.2417 15.7508 -4.6051
v 1.372 15.7787 -3.1931
v 1.4116 15.8208 -1.0495
v -0.1379 15.861 1.007
v -2.6848 15.8841 2.1908
v -5.2561 15.8811 2.0498
v -6.8698 15.8532 0.6378
v -6.3175 13.5209 0.4268
v -6.3519 13.4845 -1.4296
v -5.0099 13.4496 -3.2106
v -2.8043 13.4297 -4.2358
v -0.5774 13.4323 -4.1136
v 0.8201 13.4564 -2.8908
v 0.8544 13.4929 -1.0343
v -0.4875 13.5277 0.7466
v -2.6932 13.5477 1.7718
v -4.92 13.5451 1.6497
v -6.3175 13.5209 0.4268
v -4.809 11.8036 -0.2408
v -4.8289 11.7826 -1.3126
v -4.0541 11.7625 -2.3409
v -2.7806 11.751 -2.9328
v -1.495 11.7524 -2.8623
v -0.6881 11.7664 -2.1562
v -0.6683 11.7874 -1.0844
v -1.4431 11.8076 -0.0562
v -2.7165 11.8191 0.5357
v -4.0022 11.8176 0.4652
v -4.809 11.8036 -0.2408
v -2.7485 11.1614 -1.1863
v -2.7485 11.1614 -1.1863
v -2.7485 11.1614 -1.1863
v -2.7485 11.1614 -1.1863
v -2.7485 11.1614 -1.1863
v -2.7485 11.1614 -1.1863
v -2.7485 11.1614 -1.1863
v -2.7485 11.1614 -1.1863
v -2.7485 11.1614 -1.1863
v -2.7485 11.1614 -1.1863
v -2.7485 11.1614 -1.1863
v -1.2999 22.4318 -3.8445
v -1.2999 22.4318 -3.8445
v -1.2999 22.4318 -3.8445
v -1.2999 22.4318 -3.8445
v -1.2999 22.4318 -3.8445
v -1.2999 22.4318 -3.8445
v -1.2999 22.4318 -3.8445
v -1.2999 22.4318 -3.8445
v -1.2999 22.4318 -3.8445
v -1.2999 22.4318 -3.8445
v -1.2999 22.4318 -3.8445
v -2.1273 21.7931 -1.2725
v -3.0854 21.7801 -2.1263
v -3.3587 21.7734 -3.6359
v -2.8428 21.7758 -5.2247
v -1.7347 21.7862 -6.2857
v -0.4578 21.8007 -6.4137
v 0.5003 21.8138 -5.5598
v 0.7735 21.8204 -4.0502
v 0.2576 21.8181 -2.4615
v -0.8504 21.8077 -1.4005
v -2.1273 21.7931 -1.2725
v -2.7183 20.0558 0.6133
v -4.3777 20.0331 -0.8656
v -4.851 20.0216 -3.4803
v -3.9575 20.0257 -6.232
v -2.0383 20.0438 -8.0698
v 0.1734 20.0689 -8.2915
v 1.8328 20.0916 -6.8126
v 2.3062 20.1031 -4.1979
v 1.4126 20.099 -1.4462
v -0.5066 20.081 0.3915
v -2.7183 20.0558 0.6133
v -2.9145 17.6853 1.3075
v -4.8306 17.6592 -0.4002
v -5.3772 17.6459 -3.4194
v -4.3453 17.6506 -6.5968
v -2.1293 17.6714 -8.7188
v 0.4246 17.7005 -8.9748
v 2.3407 17.7266 -7.2671
v 2.8873 17.7399 -4.248
v 1.8554 17.7352 -1.0705
v -0.3606 17.7144 1.0515
v -2.9145 17.6853 1.3075
v -2.6633 15.3169 0.6242
v -4.3227 15.2942 -0.8547
v -4.796 15.2827 -3.4694
v -3.9025 15.2868 -6.2212
v -1.9833 15.3048 -8.0589
v 0.2284 15.33 -8.2806
v 1.8878 15.3526 -6.8017
v 2.3612 15.3641 -4.187
v 1.4676 15.3601 -1.4353
v -0.4516 15.342 0.4024
v -2.6633 15.3169 0.6242
v -2.0321 13.5851 -1.2536
v -2.9902 13.572 -2.1075
v -3.2634 13.5654 -3.6171
v -2.7475 13.5677 -5.2058
v -1.6395 13.5781 -6.2668
v -0.3625 13.5927 -6.3948
v 0.5955 13.6057 -5.541
v 0.8688 13.6124 -4.0314
v 0.3529 13.61 -2.4427
v -0.7552 13.5996 -1.3817
v -2.0321 13.5851 -1.2536
v -1.1899 12.954 -3.8228
v -1.1899 12.954 -3.8228
v -1.1899 12.954 -3.8228
v -1.1899 12.954 -3.8228
v -1.1899 12.954 -3.8228
v -1.1899 12.954 -3.8228
v -1.1899 12.954 -3.8228
v -1.1899 12.954 -3.8228
v -1.1899 12.954 -3.8228
v -1.1899 12.954 -3.8228
v -1.1899 12.954 -3.8228
v 1.8355 25.6307 -1.8927
v 1.8355 25.6307 -1.8927
v 1.8355 25.6307 -1.8927
v 1.8355 25.6307 -1.8927
v 1.8355 25.6307 -1.8927
v 1.8355 25.6307 -1.8927
v 1.8355 25.6307 -1.8927
v 1.8355 25.6307 -1.8927
v 1.8355 25.6307 -1.8927
v 1.8355 25.6307 -1.8927
v 1.8355 25.6307 -1.8927
v 3.6504 24.8823 -0.239
v 2.6853 24.8559 0.1235
v 1.4049 24.8153 -0.2821
v 0.2981 24.776 -1.301
v -0.2121 24.753 -2.5439
v 0.0689 24.7551 -3.5361
v 1.034 24.7815 -3.8986
v 2.3145 24.8221 -3.493
v 3.4212 24.8614 -2.4741
v 3.9315 24.8844 -1.2312
v 3.6504 24.8823 -0.239
v 5.0272 22.7104 0.9819
v 3.3556 22.6648 1.6098
v 1.1378 22.5944 0.9072
v -0.7791 22.5264 -0.8576
v -1.6629 22.4865 -3.0103
v -1.1761 22.4901 -4.7289
v 0.4955 22.5358 -5.3568
v 2.7133 22.6061 -4.6542
v 4.6302 22.6742 -2.8895
v 5.514 22.7141 -0.7367
v 5.0272 22.7104 0.9819
v 5.597 19.697 1.4427
v 3.6668 19.6443 2.1678
v 1.106 19.5631 1.3565
v -1.1075 19.4845 -0.6813
v -2.128 19.4385 -3.1671
v -1.5659 19.4427 -5.1515
v 0.3643 19.4954 -5.8765
v 2.9252 19.5766 -5.0652
v 5.1386 19.6552 -3.0275
v 6.1592 19.7012 -0.5417
v 5.597 19.697 1.4427
v 5.2072 16.6496 1.0201
v 3.5356 16.6039 1.648
v 1.3178 16.5336 0.9454
v -0.5991 16.4655 -0.8193
v -1.4829 16.4257 -2.9721
v -0.996 16.4293 -4.6906
v 0.6755 16.475 -5.3185
v 2.8933 16.5453 -4.6159
v 4.8102 16.6133 -2.8512
v 5.6941 16.6532 -0.6984
v 5.2072 16.6496 1.0201
v 3.9622 14.3846 -0.1727
v 2.9971 14.3582 0.1898
v 1.7167 14.3176 -0.2158
v 0.6099 14.2783 -1.2347
v 0.0997 14.2553 -2.4776
v 0.3808 14.2574 -3.4698
v 1.3458 14.2838 -3.8323
v 2.6263 14.3244 -3.4267
v 3.733 14.3637 -2.4078
v 4.2433 14.3867 -1.1649
v 3.9622 14.3846 -0.1727
v 2.1956 13.509 -1.8161
v 2.1956 13.509 -1.8161
v 2.1956 13.509 -1.8161
v 2.1956 13.509 -1.8161
v 2.1956 13.509 -1.8161
v 2.1956 13.509 -1.8161
v 2.1956 13.509 -1.8161
v 2.1956 13.509 -1.8161
v 2.1956 13.509 -1.8161
v 2.1956 13.509 -1.8161
v 2.1956 13.509 -1.8161
vt 0 0
vt 0.1 0
vt 0.2 0
vt 0.3 0
vt 0.4 0
vt 0.5 0
vt 0.6 0
vt 0.7 0
vt 0.8 0
vt 0.9 0
vt 0 1
vt 0.1 1
vt 0.2 1
vt 0.3 1
vt 0.4 1
vt 0.5 1
vt 0.6 1
vt 0.7 1
vt 0.8 1
vt 0.9 1
vt 0.5 0.5
vt 0.5 0.5
vt 0 0
vt 0.25 0
vt 0.5 0
vt 0.75 0
vt 0 1
vt 0.25 1
vt 0.5 1
vt 0.75 1
vt 0.5 0.5
vt 0.5 0.5
vt 0 0
vt 0.25 0
vt 0.5 0
vt 0.75 0
vt 0 1
vt 0.25 1
vt 0.5 1
vt 0.75 1
vt 0.5 0.5
vt 0.5 0.5
vt 0 0
vt 0.25 0
vt 0.5 0
vt 0.75 0
vt 0 1
vt 0.25 1
vt 0.5 1
vt 0.75 1
vt 0.5 0.5
vt 0.5 0.5
vt 0 0
vt 0.25 0
vt 0.5 0
vt 0.75 0
vt 0 1
vt 0.25 1
vt 0.5 1
vt 0.75 1
vt 0.5 0.5
vt 0.5 0.5
vt 0 0
vt 0.25 0
vt 0.5 0
vt 0.75 0
vt 0 1
vt 0.25 1
vt 0.5 1
vt 0.75 1
vt 0.5 0.5
vt 0.5 0.5
vt 0 0
vt 0.1 0
vt 0.2 0
vt 0.3 0
vt 0.4 0
vt 0.5 0
vt 0.6 0
vt 0.7 0
vt 0.8 0
vt 0.9 0
vt 1 0
vt 0 0.16666666666666666
vt 0.1 0.16666666666666666
vt 0.2 0.16666666666666666
vt 0.3 0.16666666666666666
vt 0.4 0.16666666666666666
vt 0.5 0.16666666666666666
vt 0.6 0.16666666666666666
vt 0.7 0.16666666666666666
vt 0.8 0.16666666666666666
vt 0.9 0.16666666666666666
vt 1 0.16666666666666666
vt 0 0.3333333333333333
vt 0.1 0.3333333333333333
vt 0.2 0.3333333333333333
vt 0.3 0.3333333333333333
vt 0.4 0.3333333333333333
vt 0.5 0.3333333333333333
vt 0.6 0.3333333333333333
vt 0.7 0.3333333333333333
vt 0.8 0.3333333333333333
vt 0.9 0.3333333333333333
vt 1 0.3333333333333333
vt 0 0.5
vt 0.1 0.5
vt 0.2 0.5
vt 0.3 0.5
vt 0.4 0.5
vt 0.5 0.5
vt 0.6 0.5
vt 0.7 0.5
vt 0.8 0.5
vt 0.9 0.5
vt 1 0.5
vt 0 0.6666666666666666
vt 0.1 0.6666666666666666
vt 0.2 0.6666666666666666
vt 0.3 0.6666666666666666
vt 0.4 0.6666666666666666
vt 0.5 0.6666666666666666
vt 0.6 0.6666666666666666
vt 0.7 0.6666666666666666
vt 0.8 0.6666666666666666
vt 0.9 0.6666666666666666
vt 1 0.6666666666666666
vt 0 0.8333333333333334
vt 0.1 0.8333333333333334
vt 0.2 0.8333333333333334
vt 0.3 0.8333333333333334
vt 0.4 0.8333333333333334
vt 0.5 0.8333333333333334
vt 0.6 0.8333333333333334
vt 0.7 0.8333333333333334
vt 0.8 0.8333333333333334
vt 0.9 0.8333333333333334
vt 1 0.8333333333333334
vt 0 1
vt 0.1 1
vt 0.2 1
vt 0.3 1
vt 0.4 1
vt 0.5 1
vt 0.6 1
vt 0.7 1
vt 0.8 1
vt 0.9 1
vt 1 1
vt 0 0
vt 0.1 0
vt 0.2 0
vt 0.3 0
vt 0.4 0
vt 0.5 0
vt 0.6 0
vt 0.7 0
vt 0.8 0
vt 0.9 0
vt 1 0
vt 0 0.16666666666666666
vt 0.1 0.16666666666666666
vt 0.2 0.16666666666666666
vt 0.3 0.16666666666666666
vt 0.4 0.16666666666666666
vt 0.5 0.16666666666666666
vt 0.6 0.16666666666666666
vt 0.7 0.16666666666666666
vt 0.8 0.16666666666666666
vt 0.9 0.16666666666666666
vt 1 0.16666666666666666
vt 0 0.3333333333333333
vt 0.1 0.3333333333333333
vt 0.2 0.3333333333333333
vt 0.3 0.3333333333333333
vt 0.4 0.3333333333333333
vt 0.5 0.3333333333333333
vt 0.6 0.3333333333333333
vt 0.7 0.3333333333333333
vt 0.8 0.3333333333333333
vt 0.9 0.3333333333333333
vt 1 0.3333333333333333
vt 0 0.5
vt 0.1 0.5
vt 0.2 0.5
vt 0.3 0.5
vt 0.4 0.5
vt 0.5 0.5
vt 0.6 0.5
vt 0.7 0.5
vt 0.8 0.5
vt 0.9 0.5
vt 1 0.5
vt 0 0.6666666666666666
vt 0.1 0.6666666666666666
vt 0.2 0.6666666666666666
vt 0.3 0.6666666666666666
vt 0.4 0.6666666666666666
vt 0.5 0.6666666666666666
vt 0.6 0.6666666666666666
vt 0.7 0.6666666666666666
vt 0.8 0.6666666666666666
vt 0.9 0.6666666666666666
vt 1 0.6666666666666666
vt 0 0.8333333333333334
vt 0.1 0.8333333333333334
vt 0.2 0.8333333333333334
vt 0.3 0.8333333333333334
vt 0.4 0.8333333333333334
vt 0.5 0.8333333333333334
vt 0.6 0.8333333333333334
vt 0.7 0.8333333333333334
vt 0.8 0.8333333333333334
vt 0.9 0.8333333333333334
vt 1 0.8333333333333334
vt 0 1
vt 0.1 1
vt 0.2 1
vt 0.3 1
vt 0.4 1
vt 0.5 1
vt 0.6 1
vt 0.7 1
vt 0.8 1
vt 0.9 1
vt 1 1
vt 0 0
vt 0.1 0
vt 0.2 0
vt 0.3 0
vt 0.4 0
vt 0.5 0
vt 0.6 0
vt 0.7 0
vt 0.8 0
vt 0.9 0
vt 1 0
vt 0 0.16666666666666666
vt 0.1 0.16666666666666666
vt 0.2 0.16666666666666666
vt 0.3 0.16666666666666666
vt 0.4 0.16666666666666666
vt 0.5 0.16666666666666666
vt 0.6 0.16666666666666666
vt 0.7 0.16666666666666666
vt 0.8 0.16666666666666666
vt 0.9 0.16666666666666666
vt 1 0.16666666666666666
vt 0 0.3333333333333333
vt 0.1 0.3333333333333333
vt 0.2 0.3333333333333333
vt 0.3 0.3333333333333333
vt 0.4 0.3333333333333333
vt 0.5 0.3333333333333333
vt 0.6 0.3333333333333333
vt 0.7 0.3333333333333333
vt 0.8 0.3333333333333333
vt 0.9 0.3333333333333333
vt 1 0.3333333333333333
vt 0 0.5
vt 0.1 0.5
vt 0.2 0.5
vt 0.3 0.5
vt 0.4 0.5
vt 0.5 0.5
vt 0.6 0.5
vt 0.7 0.5
vt 0.8 0.5
vt 0.9 0.5
vt 1 0.5
vt 0 0.6666666666666666
vt 0.1 0.6666666666666666
vt 0.2 0.6666666666666666
vt 0.3 0.6666666666666666
vt 0.4 0.6666666666666666
vt 0.5 0.6666666666666666
vt 0.6 0.6666666666666666
vt 0.7 0.6666666666666666
vt 0.8 0.6666666666666666
vt 0.9 0.6666666666666666
vt 1 0.6666666666666666
vt 0 0.8333333333333334
vt 0.1 0.8333333333333334
vt 0.2 0.8333333333333334
vt 0.3 0.8333333333333334
vt 0.4 0.8333333333333334
vt 0.5 0.8333333333333334
vt 0.6 0.8333333333333334
vt 0.7 0.8333333333333334
vt 0.8 0.8333333333333334
vt 0.9 0.8333333333333334
vt 1 0.8333333333333334
vt 0 1
vt 0.1 1
vt 0.2 1
vt 0.3 1
vt 0.4 1
vt 0.5 1
vt 0.6 1
vt 0.7 1
vt 0.8 1
vt 0.9 1
vt 1 1
vt 0 0
vt 0.1 0
vt 0.2 0
vt 0.3 0
vt 0.4 0
vt 0.5 0
vt 0.6 0
vt 0.7 0
vt 0.8 0
vt 0.9 0
vt 1 0
vt 0 0.16666666666666666
vt 0.1 0.16666666666666666
vt 0.2 0.16666666666666666
vt 0.3 0.16666666666666666
vt 0.4 0.16666666666666666
vt 0.5 0.16666666666666666
vt 0.6 0.16666666666666666
vt 0.7 0.16666666666666666
vt 0.8 0.16666666666666666
vt 0.9 0.16666666666666666
vt 1 0.16666666666666666
vt 0 0.3333333333333333
vt 0.1 0.3333333333333333
vt 0.2 0.3333333333333333
vt 0.3 0.3333333333333333
vt 0.4 0.3333333333333333
vt 0.5 0.3333333333333333
vt 0.6 0.3333333333333333
vt 0.7 0.3333333333333333
vt 0.8 0.3333333333333333
vt 0.9 0.3333333333333333
vt 1 0.3333333333333333
vt 0 0.5
vt 0.1 0.5
vt 0.2 0.5
vt 0.3 0.5
vt 0.4 0.5
vt 0.5 0.5
vt 0.6 0.5
vt 0.7 0.5
vt 0.8 0.5
vt 0.9 0.5
vt 1 0.5
vt 0 0.6666666666666666
vt 0.1 0.6666666666666666
vt 0.2 0.6666666666666666
vt 0.3 0.6666666666666666
vt 0.4 0.6666666666666666
vt 0.5 0.6666666666666666
vt 0.6 0.6666666666666666
vt 0.7 0.6666666666666666
vt 0.8 0.6666666666666666
vt 0.9 0.6666666666666666
vt 1 0.6666666666666666
vt 0 0.8333333333333334
vt 0.1 0.8333333333333334
vt 0.2 0.8333333333333334
vt 0.3 0.8333333333333334
vt 0.4 0.8333333333333334
vt 0.5 0.8333333333333334
vt 0.6 0.8333333333333334
vt 0.7 0.8333333333333334
vt 0.8 0.8333333333333334
vt 0.9 0.8333333333333334
vt 1 0.8333333333333334
vt 0 1
vt 0.1 1
vt 0.2 1
vt 0.3 1
vt 0.4 1
vt 0.5 1
vt 0.6 1
vt 0.7 1
vt 0.8 1
vt 0.9 1
vt 1 1
vt 0 0
vt 0.1 0
vt 0.2 0
vt 0.3 0
vt 0.4 0
vt 0.5 0
vt 0.6 0
vt 0.7 0
vt 0.8 0
vt 0.9 0
vt 1 0
vt 0 0.16666666666666666
vt 0.1 0.16666666666666666
vt 0.2 0.16666666666666666
vt 0.3 0.16666666666666666
vt 0.4 0.16666666666666666
vt 0.5 0.16666666666666666
vt 0.6 0.16666666666666666
vt 0.7 0.16666666666666666
vt 0.8 0.16666666666666666
vt 0.9 0.16666666666666666
vt 1 0.16666666666666666
vt 0 0.3333333333333333
vt 0.1 0.3333333333333333
vt 0.2 0.3333333333333333
vt 0.3 0.3333333333333333
vt 0.4 0.3333333333333333
vt 0.5 0.3333333333333333
vt 0.6 0.3333333333333333
vt 0.7 0.3333333333333333
vt 0.8 0.3333333333333333
vt 0.9 0.3333333333333333
vt 1 0.3333333333333333
vt 0 0.5
vt 0.1 0.5
vt 0.2 0.5
vt 0.3 0.5
vt 0.4 0.5
vt 0.5 0.5
vt 0.6 0.5
vt 0.7 0.5
vt 0.8 0.5
vt 0.9 0.5
vt 1 0.5
vt 0 0.6666666666666666
vt 0.1 0.6666666666666666
vt 0.2 0.6666666666666666
vt 0.3 0.6666666666666666
vt 0.4 0.6666666666666666
vt 0.5 0.6666666666666666
vt 0.6 0.6666666666666666
vt 0.7 0.6666666666666666
vt 0.8 0.6666666666666666
vt 0.9 0.6666666666666666
vt 1 0.6666666666666666
vt 0 0.8333333333333334
vt 0.1 0.8333333333333334
vt 0.2 0.8333333333333334
vt 0.3 0.8333333333333334
vt 0.4 0.8333333333333334
vt 0.5 0.8333333333333334
vt 0.6 0.8333333333333334
vt 0.7 0.8333333333333334
vt 0.8 0.8333333333333334
vt 0.9 0.8333333333333334
vt 1 0.8333333333333334
vt 0 1
vt 0.1 1
vt 0.2 1
vt 0.3 1
vt 0.4 1
vt 0.5 1
vt 0.6 1
vt 0.7 1
vt 0.8 1
vt 0.9 1
vt 1 1
vt 0 0
vt 0.1 0
vt 0.2 0
vt 0.3 0
vt 0.4 0
vt 0.5 0
vt 0.6 0
vt 0.7 0
vt 0.8 0
vt 0.9 0
vt 1 0
vt 0 0.16666666666666666
vt 0.1 0.16666666666666666
vt 0.2 0.16666666666666666
vt 0.3 0.16666666666666666
vt 0.4 0.16666666666666666
vt 0.5 0.16666666666666666
vt 0.6 0.16666666666666666
vt 0.7 0.16666666666666666
vt 0.8 0.16666666666666666
vt 0.9 0.16666666666666666
vt 1 0.16666666666666666
vt 0 0.3333333333333333
vt 0.1 0.3333333333333333
vt 0.2 0.3333333333333333
vt 0.3 0.3333333333333333
vt 0.4 0.3333333333333333
vt 0.5 0.3333333333333333
vt 0.6 0.3333333333333333
vt 0.7 0.3333333333333333
vt 0.8 0.3333333333333333
vt 0.9 0.3333333333333333
vt 1 0.3333333333333333
vt 0 0.5
vt 0.1 0.5
vt 0.2 0.5
vt 0.3 0.5
vt 0.4 0.5
vt 0.5 0.5
vt 0.6 0.5
vt 0.7 0.5
vt 0.8 0.5
vt 0.9 0.5
vt 1 0.5
vt 0 0.6666666666666666
vt 0.1 0.6666666666666666
vt 0.2 0.6666666666666666
vt 0.3 0.6666666666666666
vt 0.4 0.6666666666666666
vt 0.5 0.6666666666666666
vt 0.6 0.6666666666666666
vt 0.7 0.6666666666666666
vt 0.8 0.6666666666666666
vt 0.9 0.6666666666666666
vt 1 0.6666666666666666
vt 0 0.8333333333333334
vt 0.1 0.8333333333333334
vt 0.2 0.8333333333333334
vt 0.3 0.8333333333333334
vt 0.4 0.8333333333333334
vt 0.5 0.8333333333333334
vt 0.6 0.8333333333333334
vt 0.7 0.8333333333333334
vt 0.8 0.8333333333333334
vt 0.9 0.8333333333333334
vt 1 0.8333333333333334
vt 0 1
vt 0.1 1
vt 0.2 1
vt 0.3 1
vt 0.4 1
vt 0.5 1
vt 0.6 1
vt 0.7 1
vt 0.8 1
vt 0.9 1
vt 1 1
vt 0 0
vt 0.1 0
vt 0.2 0
vt 0.3 0
vt 0.4 0
vt 0.5 0
vt 0.6 0
vt 0.7 0
vt 0.8 0
vt 0.9 0
vt 1 0
vt 0 0.16666666666666666
vt 0.1 0.16666666666666666
vt 0.2 0.16666666666666666
vt 0.3 0.16666666666666666
vt 0.4 0.16666666666666666
vt 0.5 0.16666666666666666
vt 0.6 0.16666666666666666
vt 0.7 0.16666666666666666
vt 0.8 0.16666666666666666
vt 0.9 0.16666666666666666
vt 1 0.16666666666666666
vt 0 0.3333333333333333
vt 0.1 0.3333333333333333
vt 0.2 0.3333333333333333
vt 0.3 0.3333333333333333
vt 0.4 0.3333333333333333
vt 0.5 0.3333333333333333
vt 0.6 0.3333333333333333
vt 0.7 0.3333333333333333
vt 0.8 0.3333333333333333
vt 0.9 0.3333333333333333
vt 1 0.3333333333333333
vt 0 0.5
vt 0.1 0.5
vt 0.2 0.5
vt 0.3 0.5
vt 0.4 0.5
vt 0.5 0.5
vt 0.6 0.5
vt 0.7 0.5
vt 0.8 0.5
vt 0.9 0.5
vt 1 0.5
vt 0 0.6666666666666666
vt 0.1 0.6666666666666666
vt 0.2 0.6666666666666666
vt 0.3 0.6666666666666666
vt 0.4 0.6666666666666666
vt 0.5 0.6666666666666666
vt 0.6 0.6666666666666666
vt 0.7 0.6666666666666666
vt 0.8 0.6666666666666666
vt 0.9 0.6666666666666666
vt 1 0.6666666666666666
vt 0 0.8333333333333334
vt 0.1 0.8333333333333334
vt 0.2 0.8333333333333334
vt 0.3 0.8333333333333334
vt 0.4 0.8333333333333334
vt 0.5 0.8333333333333334
vt 0.6 0.8333333333333334
vt 0.7 0.8333333333333334
vt 0.8 0.8333333333333334
vt 0.9 0.8333333333333334
vt 1 0.8333333333333334
vt 0 1
vt 0.1 1
vt 0.2 1
vt 0.3 1
vt 0.4 1
vt 0.5 1
vt 0.6 1
vt 0.7 1
vt 0.8 1
vt 0.9 1
vt 1 1
vn 0 -1 0
vn 0 -1 0
vn 0 -1 0
vn 0 -1 0
vn 0 -1 0
vn 0 -1 0
vn 0 -1 0
vn 0 -1 0
vn 0 -1 0
vn 0 -1 0
vn 0 1 0
vn 0 1 0
vn 0 1 0
vn 0 1 0
vn 0 1 0
vn 0 1 0
vn 0 1 0
vn 0 1 0
vn 0 1 0
vn 0 1 0
vn 0 -1 0
vn 0 1 0
vn 0 -1 0
vn 0 -1 0
vn 0 -1 0
vn 0 -1 0
vn 0 1 0
vn 0 1 0
vn 0 1 0
vn 0 1 0
vn 0 -1 0
vn 0 1 0
vn 0 -1 0
vn 0 -1 0
vn 0 -1 0
vn 0 -1 0
vn 0 1 0
vn 0 1 0
vn 0 1 0
vn 0 1 0
vn 0 -1 0
vn 0 1 0
vn 0 -1 0
vn 0 -1 0
vn 0 -1 0
vn 0 -1 0
vn 0 1 0
vn 0 1 0
vn 0 1 0
vn 0 1 0
vn 0 -1 0
vn 0 1 0
vn 0 -1 0
vn 0 -1 0
vn 0 -1 0
vn 0 -1 0
vn 0 1 0
vn 0 1 0
vn 0 1 0
vn 0 1 0
vn 0 -1 0
vn 0 1 0
vn 0 -1 0
vn 0 -1 0
vn 0 -1 0
vn 0 -1 0
vn 0 1 0
vn 0 1 0
vn 0 1 0
vn 0 1 0
vn 0 -1 0
vn 0 1 0
vn 0 1 0
vn 0 1 0
vn 0 1 0
vn 0 1 0
vn 0 1 0
vn 0 1 0
vn 0 1 0
vn 0 1 0
vn 0 1 0
vn 0 1 0
vn 0 1 0
vn 0.4999999999999999 0.8660254037844387 0
vn 0.40450849718747367 0.8660254037844387 0.2938926261462365
vn 0.1545084971874737 0.8660254037844387 0.4755282581475767
vn -0.15450849718747364 0.8660254037844387 0.47552825814757677
vn -0.4045084971874736 0.8660254037844387 0.29389262614623657
vn -0.4999999999999999 0.8660254037844387 6.123233995736765e-17
vn -0.40450849718747367 0.8660254037844387 -0.29389262614623646
vn -0.15450849718747375 0.8660254037844387 -0.4755282581475767
vn 0.1545084971874736 0.8660254037844387 -0.47552825814757677
vn 0.4045084971874736 0.8660254037844387 -0.2938926261462366
vn 0.4999999999999999 0.8660254037844387 -1.224646799147353e-16
vn 0.8660254037844386 0.5000000000000001 0
vn 0.7006292692220367 0.5000000000000001 0.5090369604551271
vn 0.2676165673298175 0.5000000000000001 0.8236391035463319
vn -0.26761656732981737 0.5000000000000001 0.823639103546332
vn -0.7006292692220366 0.5000000000000001 0.5090369604551273
vn -0.8660254037844386 0.5000000000000001 1.0605752387249068e-16
vn -0.7006292692220367 0.5000000000000001 -0.509036960455127
vn -0.26761656732981753 0.5000000000000001 -0.8236391035463319
vn 0.26761656732981726 0.5000000000000001 -0.823639103546332
vn 0.7006292692220366 0.5000000000000001 -0.5090369604551274
vn 0.8660254037844386 0.5000000000000001 -2.1211504774498136e-16
vn 1 6.123233995736766e-17 0
vn 0.8090169943749475 6.123233995736766e-17 0.5877852522924731
vn 0.30901699437494745 6.123233995736766e-17 0.9510565162951535
vn -0.30901699437494734 6.123233995736766e-17 0.9510565162951536
vn -0.8090169943749473 6.123233995736766e-17 0.5877852522924732
vn -1 6.123233995736766e-17 1.2246467991473532e-16
vn -0.8090169943749475 6.123233995736766e-17 -0.587785252292473
vn -0.30901699437494756 6.123233995736766e-17 -0.9510565162951535
vn 0.30901699437494723 6.123233995736766e-17 -0.9510565162951536
vn 0.8090169943749473 6.123233995736766e-17 -0.5877852522924734
vn 1 6.123233995736766e-17 -2.4492935982947064e-16
vn 0.8660254037844387 -0.49999999999999983 0
vn 0.7006292692220368 -0.49999999999999983 0.5090369604551273
vn 0.2676165673298175 -0.49999999999999983 0.823639103546332
vn -0.26761656732981737 -0.49999999999999983 0.8236391035463321
vn -0.7006292692220367 -0.49999999999999983 0.5090369604551274
vn -0.8660254037844387 -0.49999999999999983 1.0605752387249069e-16
vn -0.7006292692220368 -0.49999999999999983 -0.5090369604551271
vn -0.2676165673298176 -0.49999999999999983 -0.823639103546332
vn 0.2676165673298173 -0.49999999999999983 -0.8236391035463321
vn 0.7006292692220367 -0.49999999999999983 -0.5090369604551274
vn 0.8660254037844387 -0.49999999999999983 -2.1211504774498138e-16
vn 0.4999999999999999 -0.8660254037844387 0
vn 0.40450849718747367 -0.8660254037844387 0.2938926261462365
vn 0.1545084971874737 -0.8660254037844387 0.4755282581475767
vn -0.15450849718747364 -0.8660254037844387 0.47552825814757677
vn -0.4045084971874736 -0.8660254037844387 0.29389262614623657
vn -0.4999999999999999 -0.8660254037844387 6.123233995736765e-17
vn -0.40450849718747367 -0.8660254037844387 -0.29389262614623646
vn -0.15450849718747375 -0.8660254037844387 -0.4755282581475767
vn 0.1545084971874736 -0.8660254037844387 -0.47552825814757677
vn 0.4045084971874736 -0.8660254037844387 -0.2938926261462366
vn 0.4999999999999999 -0.8660254037844387 -1.224646799147353e-16
vn 1.2246467991473532e-16 -1 0
vn 9.907600726170916e-17 -1 7.198293278059966e-17
vn 3.7843667304341506e-17 -1 1.1647083184890923e-16
vn -3.7843667304341493e-17 -1 1.1647083184890926e-16
vn -9.907600726170915e-17 -1 7.198293278059968e-17
vn -1.2246467991473532e-16 -1 1.4997597826618576e-32
vn -9.907600726170916e-17 -1 -7.198293278059965e-17
vn -3.784366730434152e-17 -1 -1.1647083184890923e-16
vn 3.7843667304341475e-17 -1 -1.1647083184890926e-16
vn 9.907600726170915e-17 -1 -7.19829327805997e-17
vn 1.2246467991473532e-16 -1 -2.999519565323715e-32
vn 0 1 0
vn 0 1 0
vn 0 1 0
vn 0 1 0
vn 0 1 0
vn 0 1 0
vn 0 1 0
vn 0 1 0
vn 0 1 0
vn 0 1 0
vn 0 1 0
vn 0.4999999999999999 0.8660254037844386 0
vn 0.40450849718747367 0.8660254037844386 0.29389262614623646
vn 0.1545084971874737 0.8660254037844386 0.4755282581475767
vn -0.15450849718747364 0.8660254037844386 0.47552825814757677
vn -0.4045084971874736 0.8660254037844386 0.29389262614623657
vn -0.4999999999999999 0.8660254037844386 6.123233995736766e-17
vn -0.40450849718747367 0.8660254037844386 -0.29389262614623646
vn -0.15450849718747375 0.8660254037844386 -0.4755282581475767
vn 0.1545084971874736 0.8660254037844386 -0.47552825814757677
vn 0.4045084971874736 0.8660254037844386 -0.2938926261462366
vn 0.4999999999999999 0.8660254037844386 -1.2246467991473532e-16
vn 0.8660254037844386 0.5000000000000001 0
vn 0.7006292692220367 0.5000000000000001 0.5090369604551271
vn 0.2676165673298175 0.5000000000000001 0.8236391035463319
vn -0.26761656732981737 0.5000000000000001 0.823639103546332
vn -0.7006292692220366 0.5000000000000001 0.5090369604551273
vn -0.8660254037844386 0.5000000000000001 1.0605752387249068e-16
vn -0.7006292692220367 0.5000000000000001 -0.509036960455127
vn -0.26761656732981753 0.5000000000000001 -0.8236391035463319
vn 0.26761656732981726 0.5000000000000001 -0.823639103546332
vn 0.7006292692220366 0.5000000000000001 -0.5090369604551274
vn 0.8660254037844386 0.5000000000000001 -2.1211504774498136e-16
vn 1 6.123233995736766e-17 0
vn 0.8090169943749475 6.123233995736766e-17 0.5877852522924731
vn 0.30901699437494745 6.123233995736766e-17 0.9510565162951535
vn -0.30901699437494734 6.123233995736766e-17 0.9510565162951535
vn -0.8090169943749473 6.123233995736766e-17 0.5877852522924732
vn -1 6.123233995736766e-17 1.2246467991473532e-16
vn -0.8090169943749475 6.123233995736766e-17 -0.5877852522924729
vn -0.30901699437494756 6.123233995736766e-17 -0.9510565162951535
vn 0.30901699437494723 6.123233995736766e-17 -0.9510565162951535
vn 0.8090169943749473 6.123233995736766e-17 -0.5877852522924734
vn 1 6.123233995736766e-17 -2.4492935982947064e-16
vn 0.8660254037844388 -0.4999999999999998 0
vn 0.7006292692220368 -0.4999999999999998 0.5090369604551273
vn 0.2676165673298175 -0.4999999999999998 0.823639103546332
vn -0.26761656732981737 -0.4999999999999998 0.8236391035463321
vn -0.7006292692220367 -0.4999999999999998 0.5090369604551274
vn -0.8660254037844388 -0.4999999999999998 1.0605752387249069e-16
vn -0.7006292692220368 -0.4999999999999998 -0.5090369604551271
vn -0.2676165673298176 -0.4999999999999998 -0.823639103546332
vn 0.2676165673298173 -0.4999999999999998 -0.8236391035463321
vn 0.7006292692220367 -0.4999999999999998 -0.5090369604551274
vn 0.8660254037844388 -0.4999999999999998 -2.1211504774498138e-16
vn 0.4999999999999999 -0.8660254037844386 0
vn 0.40450849718747367 -0.8660254037844386 0.29389262614623646
vn 0.1545084971874737 -0.8660254037844386 0.4755282581475767
vn -0.15450849718747364 -0.8660254037844386 0.47552825814757677
vn -0.4045084971874736 -0.8660254037844386 0.29389262614623657
vn -0.4999999999999999 -0.8660254037844386 6.123233995736766e-17
vn -0.40450849718747367 -0.8660254037844386 -0.29389262614623646
vn -0.15450849718747375 -0.8660254037844386 -0.4755282581475767
vn 0.1545084971874736 -0.8660254037844386 -0.47552825814757677
vn 0.4045084971874736 -0.8660254037844386 -0.2938926261462366
vn 0.4999999999999999 -0.8660254037844386 -1.2246467991473532e-16
vn 1.2246467991473532e-16 -1 0
vn 9.907600726170915e-17 -1 7.198293278059966e-17
vn 3.7843667304341506e-17 -1 1.1647083184890923e-16
vn -3.7843667304341493e-17 -1 1.1647083184890926e-16
vn -9.907600726170915e-17 -1 7.198293278059968e-17
vn -1.2246467991473532e-16 -1 1.4997597826618576e-32
vn -9.907600726170915e-17 -1 -7.198293278059965e-17
vn -3.784366730434152e-17 -1 -1.1647083184890923e-16
vn 3.7843667304341475e-17 -1 -1.1647083184890926e-16
vn 9.907600726170915e-17 -1 -7.19829327805997e-17
vn 1.2246467991473532e-16 -1 -2.999519565323715e-32
vn 0 1 0
vn 0 1 0
vn 0 1 0
vn 0 1 0
vn 0 1 0
vn 0 1 0
vn 0 1 0
vn 0 1 0
vn 0 1 0
vn 0 1 0
vn 0 1 0
vn 0.4999999999999999 0.8660254037844387 0
vn 0.40450849718747367 0.8660254037844387 0.2938926261462365
vn 0.1545084971874737 0.8660254037844387 0.4755282581475767
vn -0.15450849718747364 0.8660254037844387 0.47552825814757677
vn -0.40450849718747367 0.8660254037844387 0.29389262614623657
vn -0.4999999999999999 0.8660254037844387 6.123233995736765e-17
vn -0.40450849718747367 0.8660254037844387 -0.29389262614623646
vn -0.15450849718747375 0.8660254037844387 -0.4755282581475767
vn 0.1545084971874736 0.8660254037844387 -0.47552825814757677
vn 0.40450849718747367 0.8660254037844387 -0.2938926261462366
vn 0.4999999999999999 0.8660254037844387 -1.224646799147353e-16
vn 0.8660254037844386 0.5000000000000001 0
vn 0.7006292692220367 0.5000000000000001 0.5090369604551271
vn 0.2676165673298175 0.5000000000000001 0.8236391035463319
vn -0.26761656732981737 0.5000000000000001 0.823639103546332
vn -0.7006292692220366 0.5000000000000001 0.5090369604551273
vn -0.8660254037844386 0.5000000000000001 1.0605752387249068e-16
vn -0.7006292692220367 0.5000000000000001 -0.509036960455127
vn -0.26761656732981753 0.5000000000000001 -0.8236391035463319
vn 0.26761656732981726 0.5000000000000001 -0.823639103546332
vn 0.7006292692220366 0.5000000000000001 -0.5090369604551274
vn 0.8660254037844386 0.5000000000000001 -2.1211504774498136e-16
vn 1 6.123233995736766e-17 0
vn 0.8090169943749475 6.123233995736766e-17 0.5877852522924731
vn 0.30901699437494745 6.123233995736766e-17 0.9510565162951535
vn -0.30901699437494734 6.123233995736766e-17 0.9510565162951536
vn -0.8090169943749473 6.123233995736766e-17 0.5877852522924732
vn -1 6.123233995736766e-17 1.2246467991473532e-16
vn -0.8090169943749475 6.123233995736766e-17 -0.587785252292473
vn -0.30901699437494756 6.123233995736766e-17 -0.9510565162951535
vn 0.30901699437494723 6.123233995736766e-17 -0.9510565162951536
vn 0.8090169943749473 6.123233995736766e-17 -0.5877852522924734
vn 1 6.123233995736766e-17 -2.4492935982947064e-16
vn 0.8660254037844388 -0.49999999999999983 0
vn 0.7006292692220368 -0.49999999999999983 0.5090369604551273
vn 0.2676165673298175 -0.49999999999999983 0.823639103546332
vn -0.26761656732981737 -0.49999999999999983 0.8236391035463321
vn -0.7006292692220367 -0.49999999999999983 0.5090369604551274
vn -0.8660254037844388 -0.49999999999999983 1.0605752387249069e-16
vn -0.7006292692220368 -0.49999999999999983 -0.5090369604551271
vn -0.2676165673298176 -0.49999999999999983 -0.823639103546332
vn 0.2676165673298173 -0.49999999999999983 -0.8236391035463321
vn 0.7006292692220367 -0.49999999999999983 -0.5090369604551274
vn 0.8660254037844388 -0.49999999999999983 -2.1211504774498138e-16
vn 0.4999999999999999 -0.8660254037844387 0
vn 0.40450849718747367 -0.8660254037844387 0.2938926261462365
vn 0.1545084971874737 -0.8660254037844387 0.4755282581475767
vn -0.15450849718747364 -0.8660254037844387 0.47552825814757677
vn -0.40450849718747367 -0.8660254037844387 0.29389262614623657
vn -0.4999999999999999 -0.8660254037844387 6.123233995736765e-17
vn -0.40450849718747367 -0.8660254037844387 -0.29389262614623646
vn -0.15450849718747375 -0.8660254037844387 -0.4755282581475767
vn 0.1545084971874736 -0.8660254037844387 -0.47552825814757677
vn 0.40450849718747367 -0.8660254037844387 -0.2938926261462366
vn 0.4999999999999999 -0.8660254037844387 -1.224646799147353e-16
vn 1.2246467991473532e-16 -1 0
vn 9.907600726170917e-17 -1 7.198293278059966e-17
vn 3.7843667304341506e-17 -1 1.1647083184890923e-16
vn -3.7843667304341493e-17 -1 1.1647083184890926e-16
vn -9.907600726170915e-17 -1 7.198293278059968e-17
vn -1.2246467991473532e-16 -1 1.4997597826618576e-32
vn -9.907600726170917e-17 -1 -7.198293278059965e-17
vn -3.784366730434152e-17 -1 -1.1647083184890923e-16
vn 3.7843667304341475e-17 -1 -1.1647083184890926e-16
vn 9.907600726170915e-17 -1 -7.19829327805997e-17
vn 1.2246467991473532e-16 -1 -2.999519565323715e-32
vn 0 1 0
vn 0 1 0
vn 0 1 0
vn 0 1 0
vn 0 1 0
vn 0 1 0
vn 0 1 0
vn 0 1 0
vn 0 1 0
vn 0 1 0
vn 0 1 0
vn 0.49999999999999994 0.8660254037844387 0
vn 0.40450849718747367 0.8660254037844387 0.2938926261462365
vn 0.1545084971874737 0.8660254037844387 0.47552825814757677
vn -0.15450849718747364 0.8660254037844387 0.47552825814757677
vn -0.40450849718747367 0.8660254037844387 0.29389262614623657
vn -0.49999999999999994 0.8660254037844387 6.123233995736765e-17
vn -0.40450849718747367 0.8660254037844387 -0.29389262614623646
vn -0.15450849718747375 0.8660254037844387 -0.47552825814757677
vn 0.1545084971874736 0.8660254037844387 -0.47552825814757677
vn 0.40450849718747367 0.8660254037844387 -0.2938926261462366
vn 0.49999999999999994 0.8660254037844387 -1.224646799147353e-16
vn 0.8660254037844386 0.5000000000000001 0
vn 0.7006292692220367 0.5000000000000001 0.5090369604551271
vn 0.2676165673298175 0.5000000000000001 0.8236391035463319
vn -0.26761656732981737 0.5000000000000001 0.823639103546332
vn -0.7006292692220366 0.5000000000000001 0.5090369604551273
vn -0.8660254037844386 0.5000000000000001 1.0605752387249067e-16
vn -0.7006292692220367 0.5000000000000001 -0.509036960455127
vn -0.26761656732981753 0.5000000000000001 -0.8236391035463319
vn 0.26761656732981726 0.5000000000000001 -0.823639103546332
vn 0.7006292692220366 0.5000000000000001 -0.5090369604551274
vn 0.8660254037844386 0.5000000000000001 -2.1211504774498133e-16
vn 1 6.123233995736766e-17 0
vn 0.8090169943749475 6.123233995736766e-17 0.5877852522924731
vn 0.30901699437494745 6.123233995736766e-17 0.9510565162951535
vn -0.30901699437494734 6.123233995736766e-17 0.9510565162951536
vn -0.8090169943749473 6.123233995736766e-17 0.5877852522924732
vn -1 6.123233995736766e-17 1.2246467991473532e-16
vn -0.8090169943749475 6.123233995736766e-17 -0.587785252292473
vn -0.30901699437494756 6.123233995736766e-17 -0.9510565162951535
vn 0.30901699437494723 6.123233995736766e-17 -0.9510565162951536
vn 0.8090169943749473 6.123233995736766e-17 -0.5877852522924734
vn 1 6.123233995736766e-17 -2.4492935982947064e-16
vn 0.8660254037844388 -0.49999999999999983 0
vn 0.7006292692220368 -0.49999999999999983 0.5090369604551273
vn 0.2676165673298175 -0.49999999999999983 0.823639103546332
vn -0.26761656732981737 -0.49999999999999983 0.8236391035463321
vn -0.7006292692220367 -0.49999999999999983 0.5090369604551274
vn -0.8660254037844388 -0.49999999999999983 1.0605752387249069e-16
vn -0.7006292692220368 -0.49999999999999983 -0.5090369604551271
vn -0.2676165673298176 -0.49999999999999983 -0.823639103546332
vn 0.2676165673298173 -0.49999999999999983 -0.8236391035463321
vn 0.7006292692220367 -0.49999999999999983 -0.5090369604551274
vn 0.8660254037844388 -0.49999999999999983 -2.1211504774498138e-16
vn 0.49999999999999994 -0.8660254037844387 0
vn 0.40450849718747367 -0.8660254037844387 0.2938926261462365
vn 0.1545084971874737 -0.8660254037844387 0.47552825814757677
vn -0.15450849718747364 -0.8660254037844387 0.47552825814757677
vn -0.40450849718747367 -0.8660254037844387 0.29389262614623657
vn -0.49999999999999994 -0.8660254037844387 6.123233995736765e-17
vn -0.40450849718747367 -0.8660254037844387 -0.29389262614623646
vn -0.15450849718747375 -0.8660254037844387 -0.47552825814757677
vn 0.1545084971874736 -0.8660254037844387 -0.47552825814757677
vn 0.40450849718747367 -0.8660254037844387 -0.2938926261462366
vn 0.49999999999999994 -0.8660254037844387 -1.224646799147353e-16
vn 1.2246467991473532e-16 -1 0
vn 9.907600726170916e-17 -1 7.198293278059966e-17
vn 3.7843667304341506e-17 -1 1.1647083184890923e-16
vn -3.7843667304341493e-17 -1 1.1647083184890926e-16
vn -9.907600726170916e-17 -1 7.198293278059968e-17
vn -1.2246467991473532e-16 -1 1.4997597826618576e-32
vn -9.907600726170916e-17 -1 -7.198293278059965e-17
vn -3.784366730434152e-17 -1 -1.1647083184890923e-16
vn 3.7843667304341475e-17 -1 -1.1647083184890926e-16
vn 9.907600726170916e-17 -1 -7.19829327805997e-17
vn 1.2246467991473532e-16 -1 -2.999519565323715e-32
vn 0 1 0
vn 0 1 0
vn 0 1 0
vn 0 1 0
vn 0 1 0
vn 0 1 0
vn 0 1 0
vn 0 1 0
vn 0 1 0
vn 0 1 0
vn 0 1 0
vn 0.4999999999999999 0.8660254037844388 0
vn 0.40450849718747367 0.8660254037844388 0.2938926261462365
vn 0.1545084971874737 0.8660254037844388 0.4755282581475767
vn -0.15450849718747364 0.8660254037844388 0.47552825814757677
vn -0.4045084971874736 0.8660254037844388 0.29389262614623657
vn -0.4999999999999999 0.8660254037844388 6.123233995736765e-17
vn -0.40450849718747367 0.8660254037844388 -0.29389262614623646
vn -0.15450849718747375 0.8660254037844388 -0.4755282581475767
vn 0.1545084971874736 0.8660254037844388 -0.47552825814757677
vn 0.4045084971874736 0.8660254037844388 -0.2938926261462366
vn 0.4999999999999999 0.8660254037844388 -1.224646799147353e-16
vn 0.8660254037844386 0.5000000000000001 0
vn 0.7006292692220367 0.5000000000000001 0.5090369604551271
vn 0.2676165673298175 0.5000000000000001 0.8236391035463319
vn -0.26761656732981737 0.5000000000000001 0.823639103546332
vn -0.7006292692220366 0.5000000000000001 0.5090369604551273
vn -0.8660254037844386 0.5000000000000001 1.0605752387249068e-16
vn -0.7006292692220367 0.5000000000000001 -0.509036960455127
vn -0.26761656732981753 0.5000000000000001 -0.8236391035463319
vn 0.26761656732981726 0.5000000000000001 -0.823639103546332
vn 0.7006292692220366 0.5000000000000001 -0.5090369604551274
vn 0.8660254037844386 0.5000000000000001 -2.1211504774498136e-16
vn 1 6.123233995736766e-17 0
vn 0.8090169943749475 6.123233995736766e-17 0.5877852522924731
vn 0.30901699437494745 6.123233995736766e-17 0.9510565162951535
vn -0.30901699437494734 6.123233995736766e-17 0.9510565162951536
vn -0.8090169943749473 6.123233995736766e-17 0.5877852522924732
vn -1 6.123233995736766e-17 1.2246467991473532e-16
vn -0.8090169943749475 6.123233995736766e-17 -0.587785252292473
vn -0.30901699437494756 6.123233995736766e-17 -0.9510565162951535
vn 0.30901699437494723 6.123233995736766e-17 -0.9510565162951536
vn 0.8090169943749473 6.123233995736766e-17 -0.5877852522924734
vn 1 6.123233995736766e-17 -2.4492935982947064e-16
vn 0.8660254037844387 -0.49999999999999983 0
vn 0.7006292692220368 -0.49999999999999983 0.5090369604551273
vn 0.2676165673298175 -0.49999999999999983 0.823639103546332
vn -0.26761656732981737 -0.49999999999999983 0.8236391035463322
vn -0.7006292692220367 -0.49999999999999983 0.5090369604551274
vn -0.8660254037844387 -0.49999999999999983 1.0605752387249069e-16
vn -0.7006292692220368 -0.49999999999999983 -0.5090369604551271
vn -0.2676165673298176 -0.49999999999999983 -0.823639103546332
vn 0.2676165673298173 -0.49999999999999983 -0.8236391035463322
vn 0.7006292692220367 -0.49999999999999983 -0.5090369604551274
vn 0.8660254037844387 -0.49999999999999983 -2.1211504774498138e-16
vn 0.4999999999999999 -0.8660254037844388 0
vn 0.40450849718747367 -0.8660254037844388 0.2938926261462365
vn 0.1545084971874737 -0.8660254037844388 0.4755282581475767
vn -0.15450849718747364 -0.8660254037844388 0.47552825814757677
vn -0.4045084971874736 -0.8660254037844388 0.29389262614623657
vn -0.4999999999999999 -0.8660254037844388 6.123233995736765e-17
vn -0.40450849718747367 -0.8660254037844388 -0.29389262614623646
vn -0.15450849718747375 -0.8660254037844388 -0.4755282581475767
vn 0.1545084971874736 -0.8660254037844388 -0.47552825814757677
vn 0.4045084971874736 -0.8660254037844388 -0.2938926261462366
vn 0.4999999999999999 -0.8660254037844388 -1.224646799147353e-16
vn 1.2246467991473532e-16 -1 0
vn 9.907600726170915e-17 -1 7.198293278059966e-17
vn 3.7843667304341506e-17 -1 1.1647083184890923e-16
vn -3.7843667304341493e-17 -1 1.1647083184890926e-16
vn -9.907600726170915e-17 -1 7.198293278059968e-17
vn -1.2246467991473532e-16 -1 1.4997597826618576e-32
vn -9.907600726170915e-17 -1 -7.198293278059964e-17
vn -3.784366730434152e-17 -1 -1.1647083184890923e-16
vn 3.7843667304341475e-17 -1 -1.1647083184890926e-16
vn 9.907600726170915e-17 -1 -7.19829327805997e-17
vn 1.2246467991473532e-16 -1 -2.999519565323715e-32
vn 0 1 0
vn 0 1 0
vn 0 1 0
vn 0 1 0
vn 0 1 0
vn 0 1 0
vn 0 1 0
vn 0 1 0
vn 0 1 0
vn 0 1 0
vn 0 1 0
vn 0.49999999999999994 0.8660254037844387 0
vn 0.4045084971874736 0.8660254037844387 0.2938926261462365
vn 0.1545084971874737 0.8660254037844387 0.4755282581475767
vn -0.15450849718747364 0.8660254037844387 0.47552825814757677
vn -0.4045084971874736 0.8660254037844387 0.29389262614623657
vn -0.49999999999999994 0.8660254037844387 6.123233995736765e-17
vn -0.4045084971874736 0.8660254037844387 -0.29389262614623646
vn -0.15450849718747375 0.8660254037844387 -0.4755282581475767
vn 0.1545084971874736 0.8660254037844387 -0.47552825814757677
vn 0.4045084971874736 0.8660254037844387 -0.2938926261462366
vn 0.49999999999999994 0.8660254037844387 -1.224646799147353e-16
vn 0.8660254037844386 0.5000000000000001 0
vn 0.7006292692220367 0.5000000000000001 0.5090369604551271
vn 0.2676165673298175 0.5000000000000001 0.8236391035463319
vn -0.26761656732981737 0.5000000000000001 0.823639103546332
vn -0.7006292692220366 0.5000000000000001 0.5090369604551273
vn -0.8660254037844386 0.5000000000000001 1.0605752387249068e-16
vn -0.7006292692220367 0.5000000000000001 -0.509036960455127
vn -0.26761656732981753 0.5000000000000001 -0.8236391035463319
vn 0.26761656732981726 0.5000000000000001 -0.823639103546332
vn 0.7006292692220366 0.5000000000000001 -0.5090369604551274
vn 0.8660254037844386 0.5000000000000001 -2.1211504774498136e-16
vn 1 6.123233995736766e-17 0
vn 0.8090169943749475 6.123233995736766e-17 0.5877852522924731
vn 0.30901699437494745 6.123233995736766e-17 0.9510565162951535
vn -0.30901699437494734 6.123233995736766e-17 0.9510565162951536
vn -0.8090169943749472 6.123233995736766e-17 0.5877852522924732
vn -1 6.123233995736766e-17 1.2246467991473532e-16
vn -0.8090169943749475 6.123233995736766e-17 -0.587785252292473
vn -0.30901699437494756 6.123233995736766e-17 -0.9510565162951535
vn 0.30901699437494723 6.123233995736766e-17 -0.9510565162951536
vn 0.8090169943749472 6.123233995736766e-17 -0.5877852522924734
vn 1 6.123233995736766e-17 -2.4492935982947064e-16
vn 0.8660254037844388 -0.49999999999999983 0
vn 0.7006292692220368 -0.49999999999999983 0.5090369604551273
vn 0.2676165673298175 -0.49999999999999983 0.823639103546332
vn -0.26761656732981737 -0.49999999999999983 0.8236391035463321
vn -0.7006292692220367 -0.49999999999999983 0.5090369604551274
vn -0.8660254037844388 -0.49999999999999983 1.0605752387249069e-16
vn -0.7006292692220368 -0.49999999999999983 -0.5090369604551271
vn -0.2676165673298176 -0.49999999999999983 -0.823639103546332
vn 0.2676165673298173 -0.49999999999999983 -0.8236391035463321
vn 0.7006292692220367 -0.49999999999999983 -0.5090369604551274
vn 0.8660254037844388 -0.49999999999999983 -2.1211504774498138e-16
vn 0.49999999999999994 -0.8660254037844387 0
vn 0.4045084971874736 -0.8660254037844387 0.2938926261462365
vn 0.1545084971874737 -0.8660254037844387 0.4755282581475767
vn -0.15450849718747364 -0.8660254037844387 0.47552825814757677
vn -0.4045084971874736 -0.8660254037844387 0.29389262614623657
vn -0.49999999999999994 -0.8660254037844387 6.123233995736765e-17
vn -0.4045084971874736 -0.8660254037844387 -0.29389262614623646
vn -0.15450849718747375 -0.8660254037844387 -0.4755282581475767
vn 0.1545084971874736 -0.8660254037844387 -0.47552825814757677
vn 0.4045084971874736 -0.8660254037844387 -0.2938926261462366
vn 0.49999999999999994 -0.8660254037844387 -1.224646799147353e-16
vn 1.2246467991473532e-16 -1 0
vn 9.907600726170916e-17 -1 7.198293278059966e-17
vn 3.7843667304341506e-17 -1 1.1647083184890923e-16
vn -3.7843667304341493e-17 -1 1.1647083184890926e-16
vn -9.907600726170914e-17 -1 7.198293278059968e-17
vn -1.2246467991473532e-16 -1 1.4997597826618576e-32
vn -9.907600726170916e-17 -1 -7.198293278059965e-17
vn -3.784366730434152e-17 -1 -1.1647083184890923e-16
vn 3.7843667304341475e-17 -1 -1.1647083184890926e-16
vn 9.907600726170914e-17 -1 -7.19829327805997e-17
vn 1.2246467991473532e-16 -1 -2.999519565323715e-32
vn 0 1 0
vn 0 1 0
vn 0 1 0
vn 0 1 0
vn 0 1 0
vn 0 1 0
vn 0 1 0
vn 0 1 0
vn 0 1 0
vn 0 1 0
vn 0 1 0
vn 0.4999999999999999 0.8660254037844388 0
vn 0.40450849718747367 0.8660254037844388 0.2938926261462365
vn 0.1545084971874737 0.8660254037844388 0.4755282581475767
vn -0.15450849718747364 0.8660254037844388 0.4755282581475768
vn -0.4045084971874736 0.8660254037844388 0.29389262614623657
vn -0.4999999999999999 0.8660254037844388 6.123233995736765e-17
vn -0.40450849718747367 0.8660254037844388 -0.29389262614623646
vn -0.15450849718747375 0.8660254037844388 -0.4755282581475767
vn 0.1545084971874736 0.8660254037844388 -0.4755282581475768
vn 0.4045084971874736 0.8660254037844388 -0.2938926261462366
vn 0.4999999999999999 0.8660254037844388 -1.224646799147353e-16
vn 0.8660254037844387 0.5000000000000001 0
vn 0.7006292692220367 0.5000000000000001 0.5090369604551271
vn 0.2676165673298175 0.5000000000000001 0.823639103546332
vn -0.26761656732981737 0.5000000000000001 0.823639103546332
vn -0.7006292692220366 0.5000000000000001 0.5090369604551273
vn -0.8660254037844387 0.5000000000000001 1.0605752387249068e-16
vn -0.7006292692220367 0.5000000000000001 -0.509036960455127
vn -0.26761656732981753 0.5000000000000001 -0.823639103546332
vn 0.26761656732981726 0.5000000000000001 -0.823639103546332
vn 0.7006292692220366 0.5000000000000001 -0.5090369604551274
vn 0.8660254037844387 0.5000000000000001 -2.1211504774498136e-16
vn 1 6.123233995736766e-17 0
vn 0.8090169943749475 6.123233995736766e-17 0.5877852522924731
vn 0.30901699437494745 6.123233995736766e-17 0.9510565162951536
vn -0.30901699437494734 6.123233995736766e-17 0.9510565162951536
vn -0.8090169943749473 6.123233995736766e-17 0.5877852522924732
vn -1 6.123233995736766e-17 1.2246467991473532e-16
vn -0.8090169943749475 6.123233995736766e-17 -0.587785252292473
vn -0.30901699437494756 6.123233995736766e-17 -0.9510565162951536
vn 0.30901699437494723 6.123233995736766e-17 -0.9510565162951536
vn 0.8090169943749473 6.123233995736766e-17 -0.5877852522924734
vn 1 6.123233995736766e-17 -2.4492935982947064e-16
vn 0.8660254037844387 -0.4999999999999998 0
vn 0.7006292692220368 -0.4999999999999998 0.5090369604551273
vn 0.2676165673298175 -0.4999999999999998 0.823639103546332
vn -0.26761656732981737 -0.4999999999999998 0.8236391035463321
vn -0.7006292692220367 -0.4999999999999998 0.5090369604551274
vn -0.8660254037844387 -0.4999999999999998 1.0605752387249068e-16
vn -0.7006292692220368 -0.4999999999999998 -0.5090369604551271
vn -0.2676165673298176 -0.4999999999999998 -0.823639103546332
vn 0.2676165673298173 -0.4999999999999998 -0.8236391035463321
vn 0.7006292692220367 -0.4999999999999998 -0.5090369604551274
vn 0.8660254037844387 -0.4999999999999998 -2.1211504774498136e-16
vn 0.4999999999999999 -0.8660254037844388 0
vn 0.40450849718747367 -0.8660254037844388 0.2938926261462365
vn 0.1545084971874737 -0.8660254037844388 0.4755282581475767
vn -0.15450849718747364 -0.8660254037844388 0.4755282581475768
vn -0.4045084971874736 -0.8660254037844388 0.29389262614623657
vn -0.4999999999999999 -0.8660254037844388 6.123233995736765e-17
vn -0.40450849718747367 -0.8660254037844388 -0.29389262614623646
vn -0.15450849718747375 -0.8660254037844388 -0.4755282581475767
vn 0.1545084971874736 -0.8660254037844388 -0.4755282581475768
vn 0.4045084971874736 -0.8660254037844388 -0.2938926261462366
vn 0.4999999999999999 -0.8660254037844388 -1.224646799147353e-16
vn 1.2246467991473532e-16 -1 0
vn 9.907600726170916e-17 -1 7.198293278059965e-17
vn 3.7843667304341506e-17 -1 1.1647083184890923e-16
vn -3.7843667304341493e-17 -1 1.1647083184890926e-16
vn -9.907600726170914e-17 -1 7.198293278059968e-17
vn -1.2246467991473532e-16 -1 1.4997597826618576e-32
vn -9.907600726170916e-17 -1 -7.198293278059965e-17
vn -3.784366730434152e-17 -1 -1.1647083184890923e-16
vn 3.7843667304341475e-17 -1 -1.1647083184890926e-16
vn 9.907600726170914e-17 -1 -7.19829327805997e-17
vn 1.2246467991473532e-16 -1 -2.999519565323715e-32
f 1/1/1 2/2/2 12/12/12
f 1/1/1 12/12/12 11/11/11
f 21/21/21 2/2/2 1/1/1
f 22/22/22 11/11/11 12/12/12
f 2/2/2 3/3/3 13/13/13
f 2/2/2 13/13/13 12/12/12
f 21/21/21 3/3/3 2/2/2
f 22/22/22 12/12/12 13/13/13
f 3/3/3 4/4/4 14/14/14
f 3/3/3 14/14/14 13/13/13
f 21/21/21 4/4/4 3/3/3
f 22/22/22 13/13/13 14/14/14
f 4/4/4 5/5/5 15/15/15
f 4/4/4 15/15/15 14/14/14
f 21/21/21 5/5/5 4/4/4
f 22/22/22 14/14/14 15/15/15
f 5/5/5 6/6/6 16/16/16
f 5/5/5 16/16/16 15/15/15
f 21/21/21 6/6/6 5/5/5
f 22/22/22 15/15/15 16/16/16
f 6/6/6 7/7/7 17/17/17
f 6/6/6 17/17/17 16/16/16
f 21/21/21 7/7/7 6/6/6
f 22/22/22 16/16/16 17/17/17
f 7/7/7 8/8/8 18/18/18
f 7/7/7 18/18/18 17/17/17
f 21/21/21 8/8/8 7/7/7
f 22/22/22 17/17/17 18/18/18
f 8/8/8 9/9/9 19/19/19
f 8/8/8 19/19/19 18/18/18
f 21/21/21 9/9/9 8/8/8
f 22/22/22 18/18/18 19/19/19
f 9/9/9 10/10/10 20/20/20
f 9/9/9 20/20/20 19/19/19
f 21/21/21 10/10/10 9/9/9
f 22/22/22 19/19/19 20/20/20
f 10/10/10 1/1/1 11/11/11
f 10/10/10 11/11/11 20/20/20
f 21/21/21 1/1/1 10/10/10
f 22/22/22 20/20/20 11/11/11
f 23/23/23 24/24/24 28/28/28
f 23/23/23 28/28/28 27/27/27
f 31/31/31 24/24/24 23/23/23
f 32/32/32 27/27/27 28/28/28
f 24/24/24 25/25/25 29/29/29
f 24/24/24 29/29/29 28/28/28
f 31/31/31 25/25/25 24/24/24
f 32/32/32 28/28/28 29/29/29
f 25/25/25 26/26/26 30/30/30
f 25/25/25 30/30/30 29/29/29
f 31/31/31 26/26/26 25/25/25
f 32/32/32 29/29/29 30/30/30
f 26/26/26 23/23/23 27/27/27
f 26/26/26 27/27/27 30/30/30
f 31/31/31 23/23/23 26/26/26
f 32/32/32 30/30/30 27/27/27
f 33/33/33 34/34/34 38/38/38
f 33/33/33 38/38/38 37/37/37
f 41/41/41 34/34/34 33/33/33
f 42/42/42 37/37/37 38/38/38
f 34/34/34 35/35/35 39/39/39
f 34/34/34 39/39/39 38/38/38
f 41/41/41 35/35/35 34/34/34
f 42/42/42 38/38/38 39/39/39
f 35/35/35 36/36/36 40/40/40
f 35/35/35 40/40/40 39/39/39
f 41/41/41 36/36/36 35/35/35
f 42/42/42 39/39/39 40/40/40
f 36/36/36 33/33/33 37/37/37
f 36/36/36 37/37/37 40/40/40
f 41/41/41 33/33/33 36/36/36
f 42/42/42 40/40/40 37/37/37
f 43/43/43 44/44/44 48/48/48
f 43/43/43 48/48/48 47/47/47
f 51/51/51 44/44/44 43/43/43
f 52/52/52 47/47/47 48/48/48
f 44/44/44 45/45/45 49/49/49
f 44/44/44 49/49/49 48/48/48
f 51/51/51 45/45/45 44/44/44
f 52/52/52 48/48/48 49/49/49
f 45/45/45 46/46/46 50/50/50
f 45/45/45 50/50/50 49/49/49
f 51/51/51 46/46/46 45/45/45
f 52/52/52 49/49/49 50/50/50
f 46/46/46 43/43/43 47/47/47
f 46/46/46 47/47/47 50/50/50
f 51/51/51 43/43/43 46/46/46
f 52/52/52 50/50/50 47/47/47
f 53/53/53 54/54/54 58/58/58
f 53/53/53 58/58/58 57/57/57
f 61/61/61 54/54/54 53/53/53
f 62/62/62 57/57/57 58/58/58
f 54/54/54 55/55/55 59/59/59
f 54/54/54 59/59/59 58/58/58
f 61/61/61 55/55/55 54/54/54
f 62/62/62 58/58/58 59/59/59
f 55/55/55 56/56/56 60/60/60
f 55/55/55 60/60/60 59/59/59
f 61/61/61 56/56/56 55/55/55
f 62/62/62 59/59/59 60/60/60
f 56/56/56 53/53/53 57/57/57
f 56/56/56 57/57/57 60/60/60
f 61/61/61 53/53/53 56/56/56
f 62/62/62 60/60/60 57/57/57
f 63/63/63 64/64/64 68/68/68
f 63/63/63 68/68/68 67/67/67
f 71/71/71 64/64/64 63/63/63
f 72/72/72 67/67/67 68/68/68
f 64/64/64 65/65/65 69/69/69
f 64/64/64 69/69/69 68/68/68
f 71/71/71 65/65/65 64/64/64
f 72/72/72 68/68/68 69/69/69
f 65/65/65 66/66/66 70/70/70
f 65/65/65 70/70/70 69/69/69
f 71/71/71 66/66/66 65/65/65
f 72/72/72 69/69/69 70/70/70
f 66/66/66 63/63/63 67/67/67
f 66/66/66 67/67/67 70/70/70
f 71/71/71 63/63/63 66/66/66
f 72/72/72 70/70/70 67/67/67
f 73/73/73 84/84/84 85/85/85
f 73/73/73 85/85/85 74/74/74
f 74/74/74 85/85/85 86/86/86
f 74/74/74 86/86/86 75/75/75
f 75/75/75 86/86/86 87/87/87
f 75/75/75 87/87/87 76/76/76
f 76/76/76 87/87/87 88/88/88
f 76/76/76 88/88/88 77/77/77
f 77/77/77 88/88/88 89/89/89
f 77/77/77 89/89/89 78/78/78
f 78/78/78 89/89/89 90/90/90
f 78/78/78 90/90/90 79/79/79
f 79/79/79 90/90/90 91/91/91
f 79/79/79 91/91/91 80/80/80
f 80/80/80 91/91/91 92/92/92
f 80/80/80 92/92/92 81/81/81
f 81/81/81 92/92/92 93/93/93
f 81/81/81 93/93/93 82/82/82
f 82/82/82 93/93/93 94/94/94
f 82/82/82 94/94/94 83/83/83
f 84/84/84 95/95/95 96/96/96
f 84/84/84 96/96/96 85/85/85
f 85/85/85 96/96/96 97/97/97
f 85/85/85 97/97/97 86/86/86
f 86/86/86 97/97/97 98/98/98
f 86/86/86 98/98/98 87/87/87
f 87/87/87 98/98/98 99/99/99
f 87/87/87 99/99/99 88/88/88
f 88/88/88 99/99/99 100/100/100
f 88/88/88 100/100/100 89/89/89
f 89/89/89 100/100/100 101/101/101
f 89/89/89 101/101/101 90/90/90
f 90/90/90 101/101/101 102/102/102
f 90/90/90 102/102/102 91/91/91
f 91/91/91 102/102/102 103/103/103
f 91/91/91 103/103/103 92/92/92
f 92/92/92 103/103/103 104/104/104
f 92/92/92 104/104/104 93/93/93
f 93/93/93 104/104/104 105/105/105
f 93/93/93 105/105/105 94/94/94
f 95/95/95 106/106/106 107/107/107
f 95/95/95 107/107/107 96/96/96
f 96/96/96 107/107/107 108/108/108
f 96/96/96 108/108/108 97/97/97
f 97/97/97 108/108/108 109/109/109
f 97/97/97 109/109/109 98/98/98
f 98/98/98 109/109/109 110/110/110
f 98/98/98 110/110/110 99/99/99
f 99/99/99 110/110/110 111/111/111
f 99/99/99 111/111/111 100/100/100
f 100/100/100 111/111/111 112/112/112
f 100/100/100 112/112/112 101/101/101
f 101/101/101 112/112/112 113/113/113
f 101/101/101 113/113/113 102/102/102
f 102/102/102 113/113/113 114/114/114
f 102/102/102 114/114/114 103/103/103
f 103/103/103 114/114/114 115/115/115
f 103/103/103 115/115/115 104/104/104
f 104/104/104 115/115/115 116/116/116
f 104/104/104 116/116/116 105/105/105
f 106/106/106 117/117/117 118/118/118
f 106/106/106 118/118/118 107/107/107
f 107/107/107 118/118/118 119/119/119
f 107/107/107 119/119/119 108/108/108
f 108/108/108 119/119/119 120/120/120
f 108/108/108 120/120/120 109/109/109
f 109/109/109 120/120/120 121/121/121
f 109/109/109 121/121/121 110/110/110
f 110/110/110 121/121/121 122/122/122
f 110/110/110 122/122/122 111/111/111
f 111/111/111 122/122/122 123/123/123
f 111/111/111 123/123/123 112/112/112
f 112/112/112 123/123/123 124/124/124
f 112/112/112 124/124/124 113/113/113
f 113/113/113 124/124/124 125/125/125
f 113/113/113 125/125/125 114/114/114
f 114/114/114 125/125/125 126/126/126
f 114/114/114 126/126/126 115/115/115
f 115/115/115 126/126/126 127/127/127
f 115/115/115 127/127/127 116/116/116
f 117/117/117 128/128/128 129/129/129
f 117/117/117 129/129/129 118/118/118
f 118/118/118 129/129/129 130/130/130
f 118/118/118 130/130/130 119/119/119
f 119/119/119 130/130/130 131/131/131
f 119/119/119 131/131/131 120/120/120
f 120/120/120 131/131/131 132/132/132
f 120/120/120 132/132/132 121/121/121
f 121/121/121 132/132/132 133/133/133
f 121/121/121 133/133/133 122/122/122
f 122/122/122 133/133/133 134/134/134
f 122/122/122 134/134/134 123/123/123
f 123/123/123 134/134/134 135/135/135
f 123/123/123 135/135/135 124/124/124
f 124/124/124 135/135/135 136/136/136
f 124/124/124 136/136/136 125/125/125
f 125/125/125 136/136/136 137/137/137
f 125/125/125 137/137/137 126/126/126
f 126/126/126 137/137/137 138/138/138
f 126/126/126 138/138/138 127/127/127
f 128/128/128 139/139/139 140/140/140
f 128/128/128 140/140/140 129/129/129
f 129/129/129 140/140/140 141/141/141
f 129/129/129 141/141/141 130/130/130
f 130/130/130 141/141/141 142/142/142
f 130/130/130 142/142/142 131/131/131
f 131/131/131 142/142/142 143/143/143
f 131/131/131 143/143/143 132/132/132
f 132/132/132 143/143/143 144/144/144
f 132/132/132 144/144/144 133/133/133
f 133/133/133 144/144/144 145/145/145
f 133/133/133 145/145/145 134/134/134
f 134/134/134 145/145/145 146/146/146
f 134/134/134 146/146/146 135/135/135
f 135/135/135 146/146/146 147/147/147
f 135/135/135 147/147/147 136/136/136
f 136/136/136 147/147/147 148/148/148
f 136/136/136 148/148/148 137/137/137
f 137/137/137 148/148/148 149/149/149
f 137/137/137 149/149/149 138/138/138
f 150/150/150 161/161/161 162/162/162
f 150/150/150 162/162/162 151/151/151
f 151/151/151 162/162/162 163/163/163
f 151/151/151 163/163/163 152/152/152
f 152/152/152 163/163/163 164/164/164
f 152/152/152 164/164/164 153/153/153
f 153/153/153 164/164/164 165/165/165
f 153/153/153 165/165/165 154/154/154
f 154/154/154 165/165/165 166/166/166
f 154/154/154 166/166/166 155/155/155
f 155/155/155 166/166/166 167/167/167
f 155/155/155 167/167/167 156/156/156
f 156/156/156 167/167/167 168/168/168
f 156/156/156 168/168/168 157/157/157
f 157/157/157 168/168/168 169/169/169
f 157/157/157 169/169/169 158/158/158
f 158/158/158 169/169/169 170/170/170
f 158/158/158 170/170/170 159/159/159
f 159/159/159 170/170/170 171/171/171
f 159/159/159 171/171/171 160/160/160
f 161/161/161 172/172/172 173/173/173
f 161/161/161 173/173/173 162/162/162
f 162/162/162 173/173/173 174/174/174
f 162/162/162 174/174/174 163/163/163
f 163/163/163 174/174/174 175/175/175
f 163/163/163 175/175/175 164/164/164
f 164/164/164 175/175/175 176/176/176
f 164/164/164 176/176/176 165/165/165
f 165/165/165 176/176/176 177/177/177
f 165/165/165 177/177/177 166/166/166
f 166/166/166 177/177/177 178/178/178
f 166/166/166 178/178/178 167/167/167
f 167/167/167 178/178/178 179/179/179
f 167/167/167 179/179/179 168/168/168
f 168/168/168 179/179/179 180/180/180
f 168/168/168 180/180/180 169/169/169
f 169/169/169 180/180/180 181/181/181
f 169/169/169 181/181/181 170/170/170
f 170/170/170 181/181/181 182/182/182
f 170/170/170 182/182/182 171/171/171
f 172/172/172 183/183/183 184/184/184
f 172/172/172 184/184/184 173/173/173
f 173/173/173 184/184/184 185/185/185
f 173/173/173 185/185/185 174/174/174
f 174/174/174 185/185/185 186/186/186
f 174/174/174 186/186/186 175/175/175
f 175/175/175 186/186/186 187/187/187
f 175/175/175 187/187/187 176/176/176
f 176/176/176 187/187/187 188/188/188
f 176/176/176 188/188/188 177/177/177
f 177/177/177 188/188/188 189/189/189
f 177/177/177 189/189/189 178/178/178
f 178/178/178 189/189/189 190/190/190
f 178/178/178 190/190/190 179/179/179
f 179/179/179 190/190/190 191/191/191
f 179/179/179 191/191/191 180/180/180
f 180/180/180 191/191/191 192/192/192
f 180/180/180 192/192/192 181/181/181
f 181/181/181 192/192/192 193/193/193
f 181/181/181 193/193/193 182/182/182
f 183/183/183 194/194/194 195/195/195
f 183/183/183 195/195/195 184/184/184
f 184/184/184 195/195/195 196/196/196
f 184/184/184 196/196/196 185/185/185
f 185/185/185 196/196/196 197/197/197
f 185/185/185 197/197/197 186/186/186
f 186/186/186 197/197/197 198/198/198
f 186/186/186 198/198/198 187/187/187
f 187/187/187 198/198/198 199/199/199
f 187/187/187 199/199/199 188/188/188
f 188/188/188 199/199/199 200/200/200
f 188/188/188 200/200/200 189/189/189
f 189/189/189 200/200/200 201/201/201
f 189/189/189 201/201/201 190/190/190
f 190/190/190 201/201/201 202/202/202
f 190/190/190 202/202/202 191/191/191
f 191/191/191 202/202/202 203/203/203
f 191/191/191 203/203/203 192/192/192
f 192/192/192 203/203/203 204/204/204
f 192/192/192 204/204/204 193/193/193
f 194/194/194 205/205/205 206/206/206
f 194/194/194 206/206/206 195/195/195
f 195/195/195 206/206/206 207/207/207
f 195/195/195 207/207/207 196/196/196
f 196/196/196 207/207/207 208/208/208
f 196/196/196 208/208/208 197/197/197
f 197/197/197 208/208/208 209/209/209
f 197/197/197 209/209/209 198/198/198
f 198/198/198 209/209/209 210/210/210
f 198/198/198 210/210/210 199/199/199
f 199/199/199 210/210/210 211/211/211
f 199/199/199 211/211/211 200/200/200
f 200/200/200 211/211/211 212/212/212
f 200/200/200 212/212/212 201/201/201
f 201/201/201 212/212/212 213/213/213
f 201/201/201 213/213/213 202/202/202
f 202/202/202 213/213/213 214/214/214
f 202/202/202 214/214/214 203/203/203
f 203/203/203 214/214/214 215/215/215
f 203/203/203 215/215/215 204/204/204
f 205/205/205 216/216/216 217/217/217
f 205/205/205 217/217/217 206/206/206
f 206/206/206 217/217/217 218/218/218
f 206/206/206 218/218/218 207/207/207
f 207/207/207 218/218/218 219/219/219
f 207/207/207 219/219/219 208/208/208
f 208/208/208 219/219/219 220/220/220
f 208/208/208 220/220/220 209/209/209
f 209/209/209 220/220/220 221/221/221
f 209/209/209 221/221/221 210/210/210
f 210/210/210 221/221/221 222/222/222
f 210/210/210 222/222/222 211/211/211
f 211/211/211 222/222/222 223/223/223
f 211/211/211 223/223/223 212/212/212
f 212/212/212 223/223/223 224/224/224
f 212/212/212 224/224/224 213/213/213
f 213/213/213 224/224/224 225/225/225
f 213/213/213 225/225/225 214/214/214
f 214/214/214 225/225/225 226/226/226
f 214/214/214 226/226/226 215/215/215
f 227/227/227 238/238/238 239/239/239
f 227/227/227 239/239/239 228/228/228
f 228/228/228 239/239/239 240/240/240
f 228/228/228 240/240/240 229/229/229
f 229/229/229 240/240/240 241/241/241
f 229/229/229 241/241/241 230/230/230
f 230/230/230 241/241/241 242/242/242
f 230/230/230 242/242/242 231/231/231
f 231/231/231 242/242/242 243/243/243
f 231/231/231 243/243/243 232/232/232
f 232/232/232 243/243/243 244/244/244
f 232/232/232 244/244/244 233/233/233
f 233/233/233 244/244/244 245/245/245
f 233/233/233 245/245/245 234/234/234
f 234/234/234 245/245/245 246/246/246
f 234/234/234 246/246/246 235/235/235
f 235/235/235 246/246/246 247/247/247
f 235/235/235 247/247/247 236/236/236
f 236/236/236 247/247/247 248/248/248
f 236/236/236 248/248/248 237/237/237
f 238/238/238 249/249/249 250/250/250
f 238/238/238 250/250/250 239/239/239
f 239/239/239 250/250/250 251/251/251
f 239/239/239 251/251/251 240/240/240
f 240/240/240 251/251/251 252/252/252
f 240/240/240 252/252/252 241/241/241
f 241/241/241 252/252/252 253/253/253
f 241/241/241 253/253/253 242/242/242
f 242/242/242 253/253/253 254/254/254
f 242/242/242 254/254/254 243/243/243
f 243/243/243 254/254/254 255/255/255
f 243/243/243 255/255/255 244/244/244
f 244/244/244 255/255/255 256/256/256
f 244/244/244 256/256/256 245/245/245
f 245/245/245 256/256/256 257/257/257
f 245/245/245 257/257/257 246/246/246
f 246/246/246 257/257/257 258/258/258
f 246/246/246 258/258/258 247/247/247
f 247/247/247 258/258/258 259/259/259
f 247/247/247 259/259/259 248/248/248
f 249/249/249 260/260/260 261/261/261
f 249/249/249 261/261/261 250/250/250
f 250/250/250 261/261/261 262/262/262
f 250/250/250 262/262/262 251/251/251
f 251/251/251 262/262/262 263/263/263
f 251/251/251 263/263/263 252/252/252
f 252/252/252 263/263/263 264/264/264
f 252/252/252 264/264/264 253/253/253
f 253/253/253 264/264/264 265/265/265
f 253/253/253 265/265/265 254/254/254
f 254/254/254 265/265/265 266/266/266
f 254/254/254 266/266/266 255/255/255
f 255/255/255 266/266/266 267/267/267
f 255/255/255 267/267/267 256/256/256
f 256/256/256 267/267/267 268/268/268
f 256/256/256 268/268/268 257/257/257
f 257/257/257 268/268/268 269/269/269
f 257/257/257 269/269/269 258/258/258
f 258/258/258 269/269/269 270/270/270
f 258/258/258 270/270/270 259/259/259
f 260/260/260 271/271/271 272/272/272
f 260/260/260 272/272/272 261/261/261
f 261/261/261 272/272/272 273/273/273
f 261/261/261 273/273/273 262/262/262
f 262/262/262 273/273/273 274/274/274
f 262/262/262 274/274/274 263/263/263
f 263/263/263 274/274/274 275/275/275
f 263/263/263 275/275/275 264/264/264
f 264/264/264 275/275/275 276/276/276
f 264/264/264 276/276/276 265/265/265
f 265/265/265 276/276/276 277/277/277
f 265/265/265 277/277/277 266/266/266
f 266/266/266 277/277/277 278/278/278
f 266/266/266 278/278/278 267/267/267
f 267/267/267 278/278/278 279/279/279
f 267/267/267 279/279/279 268/268/268
f 268/268/268 279/279/279 280/280/280
f 268/268/268 280/280/280 269/269/269
f 269/269/269 280/280/280 281/281/281
f 269/269/269 281/281/281 270/270/270
f 271/271/271 282/282/282 283/283/283
f 271/271/271 283/283/283 272/272/272
f 272/272/272 283/283/283 284/284/284
f 272/272/272 284/284/284 273/273/273
f 273/273/273 284/284/284 285/285/285
f 273/273/273 285/285/285 274/274/274
f 274/274/274 285/285/285 286/286/286
f 274/274/274 286/286/286 275/275/275
f 275/275/275 286/286/286 287/287/287
f 275/275/275 287/287/287 276/276/276
f 276/276/276 287/287/287 288/288/288
f 276/276/276 288/288/288 277/277/277
f 277/277/277 288/288/288 289/289/289
f 277/277/277 289/289/289 278/278/278
f 278/278/278 289/289/289 290/290/290
f 278/278/278 290/290/290 279/279/279
f 279/279/279 290/290/290 291/291/291
f 279/279/279 291/291/291 280/280/280
f 280/280/280 291/291/291 292/292/292
f 280/280/280 292/292/292 281/281/281
f 282/282/282 293/293/293 294/294/294
f 282/282/282 294/294/294 283/283/283
f 283/283/283 294/294/294 295/295/295
f 283/283/283 295/295/295 284/284/284
f 284/284/284 295/295/295 296/296/296
f 284/284/284 296/296/296 285/285/285
f 285/285/285 296/296/296 297/297/297
f 285/285/285 297/297/297 286/286/286
f 286/286/286 297/297/297 298/298/298
f 286/286/286 298/298/298 287/287/287
f 287/287/287 298/298/298 299/299/299
f 287/287/287 299/299/299 288/288/288
f 288/288/288 299/299/299 300/300/300
f 288/288/288 300/300/300 289/289/289
f 289/289/289 300/300/300 301/301/301
f 289/289/289 301/301/301 290/290/290
f 290/290/290 301/301/301 302/302/302
f 290/290/290 302/302/302 291/291/291
f 291/291/291 302/302/302 303/303/303
f 291/291/291 303/303/303 292/292/292
f 304/304/304 315/315/315 316/316/316
f 304/304/304 316/316/316 305/305/305
f 305/305/305 316/316/316 317/317/317
f 305/305/305 317/317/317 306/306/306
f 306/306/306 317/317/317 318/318/318
f 306/306/306 318/318/318 307/307/307
f 307/307/307 318/318/318 319/319/319
f 307/307/307 319/319/319 308/308/308
f 308/308/308 319/319/319 320/320/320
f 308/308/308 320/320/320 309/309/309
f 309/309/309 320/320/320 321/321/321
f 309/309/309 321/321/321 310/310/310
f 310/310/310 321/321/321 322/322/322
f 310/310/310 322/322/322 311/311/311
f 311/311/311 322/322/322 323/323/323
f 311/311/311 323/323/323 312/312/312
f 312/312/312 323/323/323 324/324/324
f 312/312/312 324/324/324 313/313/313
f 313/313/313 324/324/324 325/325/325
f 313/313/313 325/325/325 314/314/314
f 315/315/315 326/326/326 327/327/327
f 315/315/315 327/327/327 316/316/316
f 316/316/316 327/327/327 328/328/328
f 316/316/316 328/328/328 317/317/317
f 317/317/317 328/328/328 329/329/329
f 317/317/317 329/329/329 318/318/318
f 318/318/318 329/329/329 330/330/330
f 318/318/318 330/330/330 319/319/319
f 319/319/319 330/330/330 331/331/331
f 319/319/319 331/331/331 320/320/320
f 320/320/320 331/331/331 332/332/332
f 320/320/320 332/332/332 321/321/321
f 321/321/321 332/332/332 333/333/333
f 321/321/321 333/333/333 322/322/322
f 322/322/322 333/333/333 334/334/334
f 322/322/322 334/334/334 323/323/323
f 323/323/323 334/334/334 335/335/335
f 323/323/323 335/335/335 324/324/324
f 324/324/324 335/335/335 336/336/336
f 324/324/324 336/336/336 325/325/325
f 326/326/326 337/337/337 338/338/338
f 326/326/326 338/338/338 327/327/327
f 327/327/327 338/338/338 339/339/339
f 327/327/327 339/339/339 328/328/328
f 328/328/328 339/339/339 340/340/340
f 328/328/328 340/340/340 329/329/329
f 329/329/329 340/340/340 341/341/341
f 329/329/329 341/341/341 330/330/330
f 330/330/330 341/341/341 342/342/342
f 330/330/330 342/342/342 331/331/331
f 331/331/331 342/342/342 343/343/343
f 331/331/331 343/343/343 332/332/332
f 332/332/332 343/343/343 344/344/344
f 332/332/332 344/344/344 333/333/333
f 333/333/333 344/344/344 345/345/345
f 333/333/333 345/345/345 334/334/334
f 334/334/334 345/345/345 346/346/346
f 334/334/334 346/346/346 335/335/335
f 335/335/335 346/346/346 347/347/347
f 335/335/335 347/347/347 336/336/336
f 337/337/337 348/348/348 349/349/349
f 337/337/337 349/349/349 338/338/338
f 338/338/338 349/349/349 350/350/350
f 338/338/338 350/350/350 339/339/339
f 339/339/339 350/350/350 351/351/351
f 339/339/339 351/351/351 340/340/340
f 340/340/340 351/351/351 352/352/352
f 340/340/340 352/352/352 341/341/341
f 341/341/341 352/352/352 353/353/353
f 341/341/341 353/353/353 342/342/342
f 342/342/342 353/353/353 354/354/354
f 342/342/342 354/354/354 343/343/343
f 343/343/343 354/354/354 355/355/355
f 343/343/343 355/355/355 344/344/344
f 344/344/344 355/355/355 356/356/356
f 344/344/344 356/356/356 345/345/345
f 345/345/345 356/356/356 357/357/357
f 345/345/345 357/357/357 346/346/346
f 346/346/346 357/357/357 358/358/358
f 346/346/346 358/358/358 347/347/347
f 348/348/348 359/359/359 360/360/360
f 348/348/348 360/360/360 349/349/349
f 349/349/349 360/360/360 361/361/361
f 349/349/349 361/361/361 350/350/350
f 350/350/350 361/361/361 362/362/362
f 350/350/350 362/362/362 351/351/351
f 351/351/351 362/362/362 363/363/363
f 351/351/351 363/363/363 352/352/352
f 352/352/352 363/363/363 364/364/364
f 352/352/352 364/364/364 353/353/353
f 353/353/353 364/364/364 365/365/365
f 353/353/353 365/365/365 354/354/354
f 354/354/354 365/365/365 366/366/366
f 354/354/354 366/366/366 355/355/355
f 355/355/355 366/366/366 367/367/367
f 355/355/355 367/367/367 356/356/356
f 356/356/356 367/367/367 368/368/368
f 356/356/356 368/368/368 357/357/357
f 357/357/357 368/368/368 369/369/369
f 357/357/357 369/369/369 358/358/358
f 359/359/359 370/370/370 371/371/371
f 359/359/359 371/371/371 360/360/360
f 360/360/360 371/371/371 372/372/372
f 360/360/360 372/372/372 361/361/361
f 361/361/361 372/372/372 373/373/373
f 361/361/361 373/373/373 362/362/362
f 362/362/362 373/373/373 374/374/374
f 362/362/362 374/374/374 363/363/363
f 363/363/363 374/374/374 375/375/375
f 363/363/363 375/375/375 364/364/364
f 364/364/364 375/375/375 376/376/376
f 364/364/364 376/376/376 365/365/365
f 365/365/365 376/376/376 377/377/377
f 365/365/365 377/377/377 366/366/366
f 366/366/366 377/377/377 378/378/378
f 366/366/366 378/378/378 367/367/367
f 367/367/367 378/378/378 379/379/379
f 367/367/367 379/379/379 368/368/368
f 368/368/368 379/379/379 380/380/380
f 368/368/368 380/380/380 369/369/369
f 381/381/381 392/392/392 393/393/393
f 381/381/381 393/393/393 382/382/382
f 382/382/382 393/393/393 394/394/394
f 382/382/382 394/394/394 383/383/383
f 383/383/383 394/394/394 395/395/395
f 383/383/383 395/395/395 384/384/384
f 384/384/384 395/395/395 396/396/396
f 384/384/384 396/396/396 385/385/385
f 385/385/385 396/396/396 397/397/397
f 385/385/385 397/397/397 386/386/386
f 386/386/386 397/397/397 398/398/398
f 386/386/386 398/398/398 387/387/387
f 387/387/387 398/398/398 399/399/399
f 387/387/387 399/399/399 388/388/388
f 388/388/388 399/399/399 400/400/400
f 388/388/388 400/400/400 389/389/389
f 389/389/389 400/400/400 401/401/401
f 389/389/389 401/401/401 390/390/390
f 390/390/390 401/401/401 402/402/402
f 390/390/390 402/402/402 391/391/391
f 392/392/392 403/403/403 404/404/404
f 392/392/392 404/404/404 393/393/393
f 393/393/393 404/404/404 405/405/405
f 393/393/393 405/405/405 394/394/394
f 394/394/394 405/405/405 406/406/406
f 394/394/394 406/406/406 395/395/395
f 395/395/395 406/406/406 407/407/407
f 395/395/395 407/407/407 396/396/396
f 396/396/396 407/407/407 408/408/408
f 396/396/396 408/408/408 397/397/397
f 397/397/397 408/408/408 409/409/409
f 397/397/397 409/409/409 398/398/398
f 398/398/398 409/409/409 410/410/410
f 398/398/398 410/410/410 399/399/399
f 399/399/399 410/410/410 411/411/411
f 399/399/399 411/411/411 400/400/400
f 400/400/400 411/411/411 412/412/412
f 400/400/400 412/412/412 401/401/401
f 401/401/401 412/412/412 413/413/413
f 401/401/401 413/413/413 402/402/402
f 403/403/403 414/414/414 415/415/415
f 403/403/403 415/415/415 404/404/404
f 404/404/404 415/415/415 416/416/416
f 404/404/404 416/416/416 405/405/405
f 405/405/405 416/416/416 417/417/417
f 405/405/405 417/417/417 406/406/406
f 406/406/406 417/417/417 418/418/418
f 406/406/406 418/418/418 407/407/407
f 407/407/407 418/418/418 419/419/419
f 407/407/407 419/419/419 408/408/408
f 408/408/408 419/419/419 420/420/420
f 408/408/408 420/420/420 409/409/409
f 409/409/409 420/420/420 421/421/421
f 409/409/409 421/421/421 410/410/410
f 410/410/410 421/421/421 422/422/422
f 410/410/410 422/422/422 411/411/411
f 411/411/411 422/422/422 423/423/423
f 411/411/411 423/423/423 412/412/412
f 412/412/412 423/423/423 424/424/424
f 412/412/412 424/424/424 413/413/413
f 414/414/414 425/425/425 426/426/426
f 414/414/414 426/426/426 415/415/415
f 415/415/415 426/426/426 427/427/427
f 415/415/415 427/427/427 416/416/416
f 416/416/416 427/427/427 428/428/428
f 416/416/416 428/428/428 417/417/417
f 417/417/417 428/428/428 429/429/429
f 417/417/417 429/429/429 418/418/418
f 418/418/418 429/429/429 430/430/430
f 418/418/418 430/430/430 419/419/419
f 419/419/419 430/430/430 431/431/431
f 419/419/419 431/431/431 420/420/420
f 420/420/420 431/431/431 432/432/432
f 420/420/420 432/432/432 421/421/421
f 421/421/421 432/432/432 433/433/433
f 421/421/421 433/433/433 422/422/422
f 422/422/422 433/433/433 434/434/434
f 422/422/422 434/434/434 423/423/423
f 423/423/423 434/434/434 435/435/435
f 423/423/423 435/435/435 424/424/424
f 425/425/425 436/436/436 437/437/437
f 425/425/425 437/437/437 426/426/426
f 426/426/426 437/437/437 438/438/438
f 426/426/426 438/438/438 427/427/427
f 427/427/427 438/438/438 439/439/439
f 427/427/427 439/439/439 428/428/428
f 428/428/428 439/439/439 440/440/440
f 428/428/428 440/440/440 429/429/429
f 429/429/429 440/440/440 441/441/441
f 429/429/429 441/441/441 430/430/430
f 430/430/430 441/441/441 442/442/442
f 430/430/430 442/442/442 431/431/431
f 431/431/431 442/442/442 443/443/443
f 431/431/431 443/443/443 432/432/432
f 432/432/432 443/443/443 444/444/444
f 432/432/432 444/444/444 433/433/433
f 433/433/433 444/444/444 445/445/445
f 433/433/433 445/445/445 434/434/434
f 434/434/434 445/445/445 446/446/446
f 434/434/434 446/446/446 435/435/435
f 436/436/436 447/447/447 448/448/448
f 436/436/436 448/448/448 437/437/437
f 437/437/437 448/448/448 449/449/449
f 437/437/437 449/449/449 438/438/438
f 438/438/438 449/449/449 450/450/450
f 438/438/438 450/450/450 439/439/439
f 439/439/439 450/450/450 451/451/451
f 439/439/439 451/451/451 440/440/440
f 440/440/440 451/451/451 452/452/452
f 440/440/440 452/452/452 441/441/441
f 441/441/441 452/452/452 453/453/453
f 441/441/441 453/453/453 442/442/442
f 442/442/442 453/453/453 454/454/454
f 442/442/442 454/454/454 443/443/443
f 443/443/443 454/454/454 455/455/455
f 443/443/443 455/455/455 444/444/444
f 444/444/444 455/455/455 456/456/456
f 444/444/444 456/456/456 445/445/445
f 445/445/445 456/456/456 457/457/457
f 445/445/445 457/457/457 446/446/446
f 458/458/458 469/469/469 470/470/470
f 458/458/458 470/470/470 459/459/459
f 459/459/459 470/470/470 471/471/471
f 459/459/459 471/471/471 460/460/460
f 460/460/460 471/471/471 472/472/472
f 460/460/460 472/472/472 461/461/461
f 461/461/461 472/472/472 473/473/473
f 461/461/461 473/473/473 462/462/462
f 462/462/462 473/473/473 474/474/474
f 462/462/462 474/474/474 463/463/463
f 463/463/463 474/474/474 475/475/475
f 463/463/463 475/475/475 464/464/464
f 464/464/464 475/475/475 476/476/476
f 464/464/464 476/476/476 465/465/465
f 465/465/465 476/476/476 477/477/477
f 465/465/465 477/477/477 466/466/466
f 466/466/466 477/477/477 478/478/478
f 466/466/466 478/478/478 467/467/467
f 467/467/467 478/478/478 479/479/479
f 467/467/467 479/479/479 468/468/468
f 469/469/469 480/480/480 481/481/481
f 469/469/469 481/481/481 470/470/470
f 470/470/470 481/481/481 482/482/482
f 470/470/470 482/482/482 471/471/471
f 471/471/471 482/482/482 483/483/483
f 471/471/471 483/483/483 472/472/472
f 472/472/472 483/483/483 484/484/484
f 472/472/472 484/484/484 473/473/473
f 473/473/473 484/484/484 485/485/485
f 473/473/473 485/485/485 474/474/474
f 474/474/474 485/485/485 486/486/486
f 474/474/474 486/486/486 475/475/475
f 475/475/475 486/486/486 487/487/487
f 475/475/475 487/487/487 476/476/476
f 476/476/476 487/487/487 488/488/488
f 476/476/476 488/488/488 477/477/477
f 477/477/477 488/488/488 489/489/489
f 477/477/477 489/489/489 478/478/478
f 478/478/478 489/489/489 490/490/490
f 478/478/478 490/490/490 479/479/479
f 480/480/480 491/491/491 492/492/492
f 480/480/480 492/492/492 481/481/481
f 481/481/481 492/492/492 493/493/493
f 481/481/481 493/493/493 482/482/482
f 482/482/482 493/493/493 494/494/494
f 482/482/482 494/494/494 483/483/483
f 483/483/483 494/494/494 495/495/495
f 483/483/483 495/495/495 484/484/484
f 484/484/484 495/495/495 496/496/496
f 484/484/484 496/496/496 485/485/485
f 485/485/485 496/496/496 497/497/497
f 485/485/485 497/497/497 486/486/486
f 486/486/486 497/497/497 498/498/498
f 486/486/486 498/498/498 487/487/487
f 487/487/487 498/498/498 499/499/499
f 487/487/487 499/499/499 488/488/488
f 488/488/488 499/499/499 500/500/500
f 488/488/488 500/500/500 489/489/489
f 489/489/489 500/500/500 501/501/501
f 489/489/489 501/501/501 490/490/490
f 491/491/491 502/502/502 503/503/503
f 491/491/491 503/503/503 492/492/492
f 492/492/492 503/503/503 504/504/504
f 492/492/492 504/504/504 493/493/493
f 493/493/493 504/504/504 505/505/505
f 493/493/493 505/505/505 494/494/494
f 494/494/494 505/505/505 506/506/506
f 494/494/494 506/506/506 495/495/495
f 495/495/495 506/506/506 507/507/507
f 495/495/495 507/507/507 496/496/496
f 496/496/496 507/507/507 508/508/508
f 496/496/496 508/508/508 497/497/497
f 497/497/497 508/508/508 509/509/509
f 497/497/497 509/509/509 498/498/498
f 498/498/498 509/509/509 510/510/510
f 498/498/498 510/510/510 499/499/499
f 499/499/499 510/510/510 511/511/511
f 499/499/499 511/511/511 500/500/500
f 500/500/500 511/511/511 512/512/512
f 500/500/500 512/512/512 501/501/501
f 502/502/502 513/513/513 514/514/514
f 502/502/502 514/514/514 503/503/503
f 503/503/503 514/514/514 515/515/515
f 503/503/503 515/515/515 504/504/504
f 504/504/504 515/515/515 516/516/516
f 504/504/504 516/516/516 505/505/505
f 505/505/505 516/516/516 517/517/517
f 505/505/505 517/517/517 506/506/506
f 506/506/506 517/517/517 518/518/518
f 506/506/506 518/518/518 507/507/507
f 507/507/507 518/518/518 519/519/519
f 507/507/507 519/519/519 508/508/508
f 508/508/508 519/519/519 520/520/520
f 508/508/508 520/520/520 509/509/509
f 509/509/509 520/520/520 521/521/521
f 509/509/509 521/521/521 510/510/510
f 510/510/510 521/521/521 522/522/522
f 510/510/510 522/522/522 511/511/511
f 511/511/511 522/522/522 523/523/523
f 511/511/511 523/523/523 512/512/512
f 513/513/513 524/524/524 525/525/525
f 513/513/513 525/525/525 514/514/514
f 514/514/514 525/525/525 526/526/526
f 514/514/514 526/526/526 515/515/515
f 515/515/515 526/526/526 527/527/527
f 515/515/515 527/527/527 516/516/516
f 516/516/516 527/527/527 528/528/528
f 516/516/516 528/528/528 517/517/517
f 517/517/517 528/528/528 529/529/529
f 517/517/517 529/529/529 518/518/518
f 518/518/518 529/529/529 530/530/530
f 518/518/518 530/530/530 519/519/519
f 519/519/519 530/530/530 531/531/531
f 519/519/519 531/531/531 520/520/520
f 520/520/520 531/531/531 532/532/532
f 520/520/520 532/532/532 521/521/521
f 521/521/521 532/532/532 533/533/533
f 521/521/521 533/533/533 522/522/522
f 522/522/522 533/533/533 534/534/534
f 522/522/522 534/534/534 523/523/523
f 535/535/535 546/546/546 547/547/547
f 535/535/535 547/547/547 536/536/536
f 536/536/536 547/547/547 548/548/548
f 536/536/536 548/548/548 537/537/537
f 537/537/537 548/548/548 549/549/549
f 537/537/537 549/549/549 538/538/538
f 538/538/538 549/549/549 550/550/550
f 538/538/538 550/550/550 539/539/539
f 539/539/539 550/550/550 551/551/551
f 539/539/539 551/551/551 540/540/540
f 540/540/540 551/551/551 552/552/552
f 540/540/540 552/552/552 541/541/541
f 541/541/541 552/552/552 553/553/553
f 541/541/541 553/553/553 542/542/542
f 542/542/542 553/553/553 554/554/554
f 542/542/542 554/554/554 543/543/543
f 543/543/543 554/554/554 555/555/555
f 543/543/543 555/555/555 544/544/544
f 544/544/544 555/555/555 556/556/556
f 544/544/544 556/556/556 545/545/545
f 546/546/546 557/557/557 558/558/558
f 546/546/546 558/558/558 547/547/547
f 547/547/547 558/558/558 559/559/559
f 547/547/547 559/559/559 548/548/548
f 548/548/548 559/559/559 560/560/560
f 548/548/548 560/560/560 549/549/549
f 549/549/549 560/560/560 561/561/561
f 549/549/549 561/561/561 550/550/550
f 550/550/550 561/561/561 562/562/562
f 550/550/550 562/562/562 551/551/551
f 551/551/551 562/562/562 563/563/563
f 551/551/551 563/563/563 552/552/552
f 552/552/552 563/563/563 564/564/564
f 552/552/552 564/564/564 553/553/553
f 553/553/553 564/564/564 565/565/565
f 553/553/553 565/565/565 554/554/554
f 554/554/554 565/565/565 566/566/566
f 554/554/554 566/566/566 555/555/555
f 555/555/555 566/566/566 567/567/567
f 555/555/555 567/567/567 556/556/556
f 557/557/557 568/568/568 569/569/569
f 557/557/557 569/569/569 558/558/558
f 558/558/558 569/569/569 570/570/570
f 558/558/558 570/570/570 559/559/559
f 559/559/559 570/570/570 571/571/571
f 559/559/559 571/571/571 560/560/560
f 560/560/560 571/571/571 572/572/572
f 560/560/560 572/572/572 561/561/561
f 561/561/561 572/572/572 573/573/573
f 561/561/561 573/573/573 562/562/562
f 562/562/562 573/573/573 574/574/574
f 562/562/562 574/574/574 563/563/563
f 563/563/563 574/574/574 575/575/575
f 563/563/563 575/575/575 564/564/564
f 564/564/564 575/575/575 576/576/576
f 564/564/564 576/576/576 565/565/565
f 565/565/565 576/576/576 577/577/577
f 565/565/565 577/577/577 566/566/566
f 566/566/566 577/577/577 578/578/578
f 566/566/566 578/578/578 567/567/567
f 568/568/568 579/579/579 580/580/580
f 568/568/568 580/580/580 569/569/569
f 569/569/569 580/580/580 581/581/581
f 569/569/569 581/581/581 570/570/570
f 570/570/570 581/581/581 582/582/582
f 570/570/570 582/582/582 571/571/571
f 571/571/571 582/582/582 583/583/583
f 571/571/571 583/583/583 572/572/572
f 572/572/572 583/583/583 584/584/584
f 572/572/572 584/584/584 573/573/573
f 573/573/573 584/584/584 585/585/585
f 573/573/573 585/585/585 574/574/574
f 574/574/574 585/585/585 586/586/586
f 574/574/574 586/586/586 575/575/575
f 575/575/575 586/586/586 587/587/587
f 575/575/575 587/587/587 576/576/576
f 576/576/576 587/587/587 588/588/588
f 576/576/576 588/588/588 577/577/577
f 577/577/577 588/588/588 589/589/589
f 577/577/577 589/589/589 578/578/578
f 579/579/579 590/590/590 591/591/591
f 579/579/579 591/591/591 580/580/580
f 580/580/580 591/591/591 592/592/592
f 580/580/580 592/592/592 581/581/581
f 581/581/581 592/592/592 593/593/593
f 581/581/581 593/593/593 582/582/582
f 582/582/582 593/593/593 594/594/594
f 582/582/582 594/594/594 583/583/583
f 583/583/583 594/594/594 595/595/595
f 583/583/583 595/595/595 584/584/584
f 584/584/584 595/595/595 596/596/596
f 584/584/584 596/596/596 585/585/585
f 585/585/585 596/596/596 597/597/597
f 585/585/585 597/597/597 586/586/586
f 586/586/586 597/597/597 598/598/598
f 586/586/586 598/598/598 587/587/587
f 587/587/587 598/598/598 599/599/599
f 587/587/587 599/599/599 588/588/588
f 588/588/588 599/599/599 600/600/600
f 588/588/588 600/600/600 589/589/589
f 590/590/590 601/601/601 602/602/602
f 590/590/590 602/602/602 591/591/591
f 591/591/591 602/602/602 603/603/603
f 591/591/591 603/603/603 592/592/592
f 592/592/592 603/603/603 604/604/604
f 592/592/592 604/604/604 593/593/593
f 593/593/593 604/604/604 605/605/605
f 593/593/593 605/605/605 594/594/594
f 594/594/594 605/605/605 606/606/606
f 594/594/594 606/606/606 595/595/595
f 595/595/595 606/606/606 607/607/607
f 595/595/595 607/607/607 596/596/596
f 596/596/596 607/607/607 608/608/608
f 596/596/596 608/608/608 597/597/597
f 597/597/597 608/608/608 609/609/609
f 597/597/597 609/609/609 598/598/598
f 598/598/598 609/609/609 610/610/610
f 598/598/598 610/610/610 599/599/599
f 599/599/599 610/610/610 611/611/611
f 599/599/599 611/611/611 600/600/600