# 3D Model: vehicle/bike/3827532_O_m (v6 Gemini)
# Style: vehicle/bike | Symmetry: symmetric
# Dimensions: 2.67 x 1.225 x 0.732 m
# Triangles: 900 | Vertices: 514
v -0.565 0.34 0
v -0.5875 0.379 0
v -0.6325 0.379 0
v -0.655 0.34 0
v -0.6325 0.301 0
v -0.5875 0.301 0
v -0.565 0.34 0
v -0.6385 0.34 0.2263
v -0.6567 0.379 0.2131
v -0.6931 0.379 0.1866
v -0.7113 0.34 0.1734
v -0.6931 0.301 0.1866
v -0.6567 0.301 0.2131
v -0.6385 0.34 0.2263
v -0.831 0.34 0.3662
v -0.838 0.379 0.3448
v -0.8519 0.379 0.302
v -0.8588 0.34 0.2806
v -0.8519 0.301 0.302
v -0.838 0.301 0.3448
v -0.831 0.34 0.3662
v -1.069 0.34 0.3662
v -1.062 0.379 0.3448
v -1.0481 0.379 0.302
v -1.0412 0.34 0.2806
v -1.0481 0.301 0.302
v -1.062 0.301 0.3448
v -1.069 0.34 0.3662
v -1.2615 0.34 0.2263
v -1.2433 0.379 0.2131
v -1.2069 0.379 0.1866
v -1.1887 0.34 0.1734
v -1.2069 0.301 0.1866
v -1.2433 0.301 0.2131
v -1.2615 0.34 0.2263
v -1.335 0.34 0
v -1.3125 0.379 0
v -1.2675 0.379 0
v -1.245 0.34 0
v -1.2675 0.301 0
v -1.3125 0.301 0
v -1.335 0.34 0
v -1.2615 0.34 -0.2263
v -1.2433 0.379 -0.2131
v -1.2069 0.379 -0.1866
v -1.1887 0.34 -0.1734
v -1.2069 0.301 -0.1866
v -1.2433 0.301 -0.2131
v -1.2615 0.34 -0.2263
v -1.069 0.34 -0.3662
v -1.062 0.379 -0.3448
v -1.0481 0.379 -0.302
v -1.0412 0.34 -0.2806
v -1.0481 0.301 -0.302
v -1.062 0.301 -0.3448
v -1.069 0.34 -0.3662
v -0.831 0.34 -0.3662
v -0.838 0.379 -0.3448
v -0.8519 0.379 -0.302
v -0.8588 0.34 -0.2806
v -0.8519 0.301 -0.302
v -0.838 0.301 -0.3448
v -0.831 0.34 -0.3662
v -0.6385 0.34 -0.2263
v -0.6567 0.379 -0.2131
v -0.6931 0.379 -0.1866
v -0.7113 0.34 -0.1734
v -0.6931 0.301 -0.1866
v -0.6567 0.301 -0.2131
v -0.6385 0.34 -0.2263
v -0.565 0.34 0
v -0.5875 0.379 0
v -0.6325 0.379 0
v -0.655 0.34 0
v -0.6325 0.301 0
v -0.5875 0.301 0
v -0.565 0.34 0
v 1.335 0.34 0
v 1.3125 0.379 0
v 1.2675 0.379 0
v 1.245 0.34 0
v 1.2675 0.301 0
v 1.3125 0.301 0
v 1.335 0.34 0
v 1.2615 0.34 0.2263
v 1.2433 0.379 0.2131
v 1.2069 0.379 0.1866
v 1.1887 0.34 0.1734
v 1.2069 0.301 0.1866
v 1.2433 0.301 0.2131
v 1.2615 0.34 0.2263
v 1.069 0.34 0.3662
v 1.062 0.379 0.3448
v 1.0481 0.379 0.302
v 1.0412 0.34 0.2806
v 1.0481 0.301 0.302
v 1.062 0.301 0.3448
v 1.069 0.34 0.3662
v 0.831 0.34 0.3662
v 0.838 0.379 0.3448
v 0.8519 0.379 0.302
v 0.8588 0.34 0.2806
v 0.8519 0.301 0.302
v 0.838 0.301 0.3448
v 0.831 0.34 0.3662
v 0.6385 0.34 0.2263
v 0.6567 0.379 0.2131
v 0.6931 0.379 0.1866
v 0.7113 0.34 0.1734
v 0.6931 0.301 0.1866
v 0.6567 0.301 0.2131
v 0.6385 0.34 0.2263
v 0.565 0.34 0
v 0.5875 0.379 0
v 0.6325 0.379 0
v 0.655 0.34 0
v 0.6325 0.301 0
v 0.5875 0.301 0
v 0.565 0.34 0
v 0.6385 0.34 -0.2263
v 0.6567 0.379 -0.2131
v 0.6931 0.379 -0.1866
v 0.7113 0.34 -0.1734
v 0.6931 0.301 -0.1866
v 0.6567 0.301 -0.2131
v 0.6385 0.34 -0.2263
v 0.831 0.34 -0.3662
v 0.838 0.379 -0.3448
v 0.8519 0.379 -0.302
v 0.8588 0.34 -0.2806
v 0.8519 0.301 -0.302
v 0.838 0.301 -0.3448
v 0.831 0.34 -0.3662
v 1.069 0.34 -0.3662
v 1.062 0.379 -0.3448
v 1.0481 0.379 -0.302
v 1.0412 0.34 -0.2806
v 1.0481 0.301 -0.302
v 1.062 0.301 -0.3448
v 1.069 0.34 -0.3662
v 1.2615 0.34 -0.2263
v 1.2433 0.379 -0.2131
v 1.2069 0.379 -0.1866
v 1.1887 0.34 -0.1734
v 1.2069 0.301 -0.1866
v 1.2433 0.301 -0.2131
v 1.2615 0.34 -0.2263
v 1.335 0.34 0
v 1.3125 0.379 0
v 1.2675 0.379 0
v 1.245 0.34 0
v 1.2675 0.301 0
v 1.3125 0.301 0
v 1.335 0.34 0
v -0.65 -0.16 0
v -0.6728 -0.16 0.1148
v -0.7379 -0.16 0.2121
v -0.8352 -0.16 0.2772
v -0.95 -0.16 0.3
v -1.0648 -0.16 0.2772
v -1.1621 -0.16 0.2121
v -1.2272 -0.16 0.1148
v -1.25 -0.16 0
v -1.2272 -0.16 -0.1148
v -1.1621 -0.16 -0.2121
v -1.0648 -0.16 -0.2772
v -0.95 -0.16 -0.3
v -0.8352 -0.16 -0.2772
v -0.7379 -0.16 -0.2121
v -0.6728 -0.16 -0.1148
v -0.65 0.84 0
v -0.6728 0.84 0.1148
v -0.7379 0.84 0.2121
v -0.8352 0.84 0.2772
v -0.95 0.84 0.3
v -1.0648 0.84 0.2772
v -1.1621 0.84 0.2121
v -1.2272 0.84 0.1148
v -1.25 0.84 0
v -1.2272 0.84 -0.1148
v -1.1621 0.84 -0.2121
v -1.0648 0.84 -0.2772
v -0.95 0.84 -0.3
v -0.8352 0.84 -0.2772
v -0.7379 0.84 -0.2121
v -0.6728 0.84 -0.1148
v -0.95 -0.16 0
v -0.95 0.84 0
v 1.25 -0.16 0
v 1.2272 -0.16 0.1148
v 1.1621 -0.16 0.2121
v 1.0648 -0.16 0.2772
v 0.95 -0.16 0.3
v 0.8352 -0.16 0.2772
v 0.7379 -0.16 0.2121
v 0.6728 -0.16 0.1148
v 0.65 -0.16 0
v 0.6728 -0.16 -0.1148
v 0.7379 -0.16 -0.2121
v 0.8352 -0.16 -0.2772
v 0.95 -0.16 -0.3
v 1.0648 -0.16 -0.2772
v 1.1621 -0.16 -0.2121
v 1.2272 -0.16 -0.1148
v 1.25 0.84 0
v 1.2272 0.84 0.1148
v 1.1621 0.84 0.2121
v 1.0648 0.84 0.2772
v 0.95 0.84 0.3
v 0.8352 0.84 0.2772
v 0.7379 0.84 0.2121
v 0.6728 0.84 0.1148
v 0.65 0.84 0
v 0.6728 0.84 -0.1148
v 0.7379 0.84 -0.2121
v 0.8352 0.84 -0.2772
v 0.95 0.84 -0.3
v 1.0648 0.84 -0.2772
v 1.1621 0.84 -0.2121
v 1.2272 0.84 -0.1148
v 0.95 -0.16 0
v 0.95 0.84 0
v 0.1951 0.2516 0
v 0.1925 0.2537 0.0125
v 0.1854 0.2594 0.0217
v 0.1756 0.2673 0.025
v 0.1659 0.2751 0.0217
v 0.1588 0.2809 0.0125
v 0.1562 0.283 0
v 0.1588 0.2809 -0.0125
v 0.1659 0.2751 -0.0217
v 0.1756 0.2673 -0.025
v 0.1854 0.2594 -0.0217
v 0.1925 0.2537 -0.0125
v 0.6015 0.7589 0
v 0.5992 0.7607 0.011
v 0.5929 0.7658 0.0191
v 0.5844 0.7727 0.022
v 0.5758 0.7796 0.0191
v 0.5695 0.7847 0.011
v 0.5673 0.7865 0
v 0.5695 0.7847 -0.011
v 0.5758 0.7796 -0.0191
v 0.5844 0.7727 -0.022
v 0.5929 0.7658 -0.0191
v 0.5992 0.7607 -0.011
v 0.1756 0.2673 0
v 0.5844 0.7727 0
v 0.1296 0.4336 0
v 0.1267 0.4343 0.011
v 0.1189 0.4363 0.0191
v 0.1083 0.439 0.022
v 0.0976 0.4417 0.0191
v 0.0898 0.4437 0.011
v 0.0869 0.4445 0
v 0.0898 0.4437 -0.011
v 0.0976 0.4417 -0.0191
v 0.1083 0.439 -0.022
v 0.1189 0.4363 -0.0191
v 0.1267 0.4343 -0.011
v 0.2711 0.996 0
v 0.2685 0.9967 0.01
v 0.2614 0.9985 0.0173
v 0.2517 1.001 0.02
v 0.2421 1.0035 0.0173
v 0.235 1.0053 0.01
v 0.2324 1.0059 0
v 0.235 1.0053 -0.01
v 0.2421 1.0035 -0.0173
v 0.2517 1.001 -0.02
v 0.2614 0.9985 -0.0173
v 0.2685 0.9967 -0.01
v 0.1083 0.439 0
v 0.2517 1.001 0
v -0.0806 0.3119 0
v -0.0832 0.3107 0.011
v -0.0905 0.3072 0.0191
v -0.1004 0.3024 0.022
v -0.1103 0.2976 0.0191
v -0.1175 0.2941 0.011
v -0.1202 0.2928 0
v -0.1175 0.2941 -0.011
v -0.1103 0.2976 -0.0191
v -0.1004 0.3024 -0.022
v -0.0905 0.3072 -0.0191
v -0.0832 0.3107 -0.011
v -0.3198 0.8072 0
v -0.3225 0.8059 0.011
v -0.3297 0.8024 0.0191
v -0.3396 0.7976 0.022
v -0.3495 0.7928 0.0191
v -0.3568 0.7893 0.011
v -0.3594 0.7881 0
v -0.3568 0.7893 -0.011
v -0.3495 0.7928 -0.0191
v -0.3396 0.7976 -0.022
v -0.3297 0.8024 -0.0191
v -0.3225 0.8059 -0.011
v -0.1004 0.3024 0
v -0.3396 0.7976 0
v -0.2521 0.674 0
v -0.2539 0.6731 0.0075
v -0.2589 0.6707 0.013
v -0.2656 0.6674 0.015
v -0.2724 0.6642 0.013
v -0.2773 0.6618 0.0075
v -0.2791 0.6609 0
v -0.2773 0.6618 -0.0075
v -0.2724 0.6642 -0.013
v -0.2656 0.6674 -0.015
v -0.2589 0.6707 -0.013
v -0.2539 0.6731 -0.0075
v -0.3609 0.8991 0
v -0.3627 0.8982 0.0075
v -0.3676 0.8958 0.013
v -0.3744 0.8926 0.015
v -0.3811 0.8893 0.013
v -0.3861 0.8869 0.0075
v -0.3879 0.886 0
v -0.3861 0.8869 -0.0075
v -0.3811 0.8893 -0.013
v -0.3744 0.8926 -0.015
v -0.3676 0.8958 -0.013
v -0.3627 0.8982 -0.0075
v -0.2656 0.6674 0
v -0.3744 0.8926 0
v -0.49 0.87 -0.07
v -0.21 0.87 -0.07
v -0.21 0.95 -0.07
v -0.49 0.95 -0.07
v -0.49 0.87 0.07
v -0.21 0.87 0.07
v -0.21 0.95 0.07
v -0.49 0.95 0.07
v -0.26 0.3548 0
v -0.26 0.3528 0.0075
v -0.26 0.3473 0.013
v -0.26 0.3398 0.015
v -0.26 0.3323 0.013
v -0.26 0.3268 0.0075
v -0.26 0.3248 0
v -0.26 0.3268 -0.0075
v -0.26 0.3323 -0.013
v -0.26 0.3398 -0.015
v -0.26 0.3473 -0.013
v -0.26 0.3528 -0.0075
v -0.74 0.3552 0
v -0.74 0.3532 0.0075
v -0.74 0.3477 0.013
v -0.74 0.3402 0.015
v -0.74 0.3327 0.013
v -0.74 0.3272 0.0075
v -0.74 0.3252 0
v -0.74 0.3272 -0.0075
v -0.74 0.3327 -0.013
v -0.74 0.3402 -0.015
v -0.74 0.3477 -0.013
v -0.74 0.3532 -0.0075
v -0.26 0.3398 0
v -0.74 0.3402 0
v -0.7484 0.3913 0
v -0.7495 0.3928 0.007
v -0.7526 0.3969 0.0121
v -0.7569 0.4025 0.014
v -0.7611 0.4081 0.0121
v -0.7642 0.4121 0.007
v -0.7653 0.4136 0
v -0.7642 0.4121 -0.007
v -0.7611 0.4081 -0.0121
v -0.7569 0.4025 -0.014
v -0.7526 0.3969 -0.0121
v -0.7495 0.3928 -0.007
v -0.3347 0.7064 0
v -0.3358 0.7079 0.007
v -0.3389 0.7119 0.0121
v -0.3431 0.7175 0.014
v -0.3474 0.7231 0.0121
v -0.3505 0.7272 0.007
v -0.3516 0.7287 0
v -0.3505 0.7272 -0.007
v -0.3474 0.7231 -0.0121
v -0.3431 0.7175 -0.014
v -0.3389 0.7119 -0.0121
v -0.3358 0.7079 -0.007
v -0.7569 0.4025 0
v -0.3431 0.7175 0
v 0.7238 0.2758 0
v 0.7217 0.277 0.009
v 0.716 0.2803 0.0156
v 0.7082 0.2847 0.018
v 0.7004 0.2892 0.0156
v 0.6947 0.2925 0.009
v 0.6926 0.2937 0
v 0.6947 0.2925 -0.009
v 0.7004 0.2892 -0.0156
v 0.7082 0.2847 -0.018
v 0.716 0.2803 -0.0156
v 0.7217 0.277 -0.009
v 0.9509 0.6643 0
v 0.9483 0.6658 0.011
v 0.9413 0.6698 0.0191
v 0.9318 0.6753 0.022
v 0.9223 0.6807 0.0191
v 0.9153 0.6847 0.011
v 0.9127 0.6862 0
v 0.9153 0.6847 -0.011
v 0.9223 0.6807 -0.0191
v 0.9318 0.6753 -0.022
v 0.9413 0.6698 -0.0191
v 0.9483 0.6658 -0.011
v 0.7082 0.2847 0
v 0.9318 0.6753 0
v 0.7103 0.8808 0
v 0.7082 0.8796 0.009
v 0.7025 0.8764 0.0156
v 0.6947 0.8719 0.018
v 0.6869 0.8674 0.0156
v 0.6812 0.8642 0.009
v 0.6791 0.863 0
v 0.6812 0.8642 -0.009
v 0.6869 0.8674 -0.0156
v 0.6947 0.8719 -0.018
v 0.7025 0.8764 -0.0156
v 0.7082 0.8796 -0.009
v 0.6209 1.037 0
v 0.6188 1.0358 0.009
v 0.6131 1.0326 0.0156
v 0.6053 1.0281 0.018
v 0.5975 1.0236 0.0156
v 0.5918 1.0204 0.009
v 0.5897 1.0192 0
v 0.5918 1.0204 -0.009
v 0.5975 1.0236 -0.0156
v 0.6053 1.0281 -0.018
v 0.6131 1.0326 -0.0156
v 0.6188 1.0358 -0.009
v 0.6947 0.8719 0
v 0.6053 1.0281 0
v 0.635 1.0498 -0.3
v 0.633 1.0423 -0.3
v 0.6275 1.0368 -0.3
v 0.62 1.0348 -0.3
v 0.6125 1.0368 -0.3
v 0.607 1.0423 -0.3
v 0.605 1.0498 -0.3
v 0.607 1.0573 -0.3
v 0.6125 1.0628 -0.3
v 0.62 1.0648 -0.3
v 0.6275 1.0628 -0.3
v 0.633 1.0573 -0.3
v 0.635 1.0502 0.3
v 0.633 1.0427 0.3
v 0.6275 1.0372 0.3
v 0.62 1.0352 0.3
v 0.6125 1.0372 0.3
v 0.607 1.0427 0.3
v 0.605 1.0502 0.3
v 0.607 1.0577 0.3
v 0.6125 1.0632 0.3
v 0.62 1.0652 0.3
v 0.6275 1.0632 0.3
v 0.633 1.0577 0.3
v 0.62 1.0498 -0.3
v 0.62 1.0502 0.3
v -0.175 0.34 -0.06
v -0.1784 0.3227 -0.06
v -0.1882 0.3081 -0.06
v -0.2028 0.2984 -0.06
v -0.22 0.295 -0.06
v -0.2372 0.2984 -0.06
v -0.2518 0.3081 -0.06
v -0.2616 0.3227 -0.06
v -0.265 0.34 -0.06
v -0.2616 0.3572 -0.06
v -0.2518 0.3718 -0.06
v -0.2372 0.3815 -0.06
v -0.22 0.385 -0.06
v -0.2028 0.3815 -0.06
v -0.1882 0.3718 -0.06
v -0.1784 0.3572 -0.06
v -0.175 0.34 0.06
v -0.1784 0.3228 0.06
v -0.1882 0.3082 0.06
v -0.2028 0.2985 0.06
v -0.22 0.295 0.06
v -0.2372 0.2985 0.06
v -0.2518 0.3082 0.06
v -0.2616 0.3228 0.06
v -0.265 0.34 0.06
v -0.2616 0.3573 0.06
v -0.2518 0.3719 0.06
v -0.2372 0.3816 0.06
v -0.22 0.385 0.06
v -0.2028 0.3816 0.06
v -0.1882 0.3719 0.06
v -0.1784 0.3573 0.06
v -0.22 0.34 -0.06
v -0.22 0.34 0.06
v -0.235 0.19 0.03
v -0.205 0.19 0.03
v -0.205 0.37 0.03
v -0.235 0.37 0.03
v -0.235 0.19 0.05
v -0.205 0.19 0.05
v -0.205 0.37 0.05
v -0.235 0.37 0.05
v -0.26 0.165 0.01
v -0.18 0.165 0.01
v -0.18 0.195 0.01
v -0.26 0.195 0.01
v -0.26 0.165 0.11
v -0.18 0.165 0.11
v -0.18 0.195 0.11
v -0.26 0.195 0.11
vt 0 0
vt 0 0.16666666666666666
vt 0 0.3333333333333333
vt 0 0.5
vt 0 0.6666666666666666
vt 0 0.8333333333333334
vt 0 1
vt 0.1 0
vt 0.1 0.16666666666666666
vt 0.1 0.3333333333333333
vt 0.1 0.5
vt 0.1 0.6666666666666666
vt 0.1 0.8333333333333334
vt 0.1 1
vt 0.2 0
vt 0.2 0.16666666666666666
vt 0.2 0.3333333333333333
vt 0.2 0.5
vt 0.2 0.6666666666666666
vt 0.2 0.8333333333333334
vt 0.2 1
vt 0.3 0
vt 0.3 0.16666666666666666
vt 0.3 0.3333333333333333
vt 0.3 0.5
vt 0.3 0.6666666666666666
vt 0.3 0.8333333333333334
vt 0.3 1
vt 0.4 0
vt 0.4 0.16666666666666666
vt 0.4 0.3333333333333333
vt 0.4 0.5
vt 0.4 0.6666666666666666
vt 0.4 0.8333333333333334
vt 0.4 1
vt 0.5 0
vt 0.5 0.16666666666666666
vt 0.5 0.3333333333333333
vt 0.5 0.5
vt 0.5 0.6666666666666666
vt 0.5 0.8333333333333334
vt 0.5 1
vt 0.6 0
vt 0.6 0.16666666666666666
vt 0.6 0.3333333333333333
vt 0.6 0.5
vt 0.6 0.6666666666666666
vt 0.6 0.8333333333333334
vt 0.6 1
vt 0.7 0
vt 0.7 0.16666666666666666
vt 0.7 0.3333333333333333
vt 0.7 0.5
vt 0.7 0.6666666666666666
vt 0.7 0.8333333333333334
vt 0.7 1
vt 0.8 0
vt 0.8 0.16666666666666666
vt 0.8 0.3333333333333333
vt 0.8 0.5
vt 0.8 0.6666666666666666
vt 0.8 0.8333333333333334
vt 0.8 1
vt 0.9 0
vt 0.9 0.16666666666666666
vt 0.9 0.3333333333333333
vt 0.9 0.5
vt 0.9 0.6666666666666666
vt 0.9 0.8333333333333334
vt 0.9 1
vt 1 0
vt 1 0.16666666666666666
vt 1 0.3333333333333333
vt 1 0.5
vt 1 0.6666666666666666
vt 1 0.8333333333333334
vt 1 1
vt 0 0
vt 0 0.16666666666666666
vt 0 0.3333333333333333
vt 0 0.5
vt 0 0.6666666666666666
vt 0 0.8333333333333334
vt 0 1
vt 0.1 0
vt 0.1 0.16666666666666666
vt 0.1 0.3333333333333333
vt 0.1 0.5
vt 0.1 0.6666666666666666
vt 0.1 0.8333333333333334
vt 0.1 1
vt 0.2 0
vt 0.2 0.16666666666666666
vt 0.2 0.3333333333333333
vt 0.2 0.5
vt 0.2 0.6666666666666666
vt 0.2 0.8333333333333334
vt 0.2 1
vt 0.3 0
vt 0.3 0.16666666666666666
vt 0.3 0.3333333333333333
vt 0.3 0.5
vt 0.3 0.6666666666666666
vt 0.3 0.8333333333333334
vt 0.3 1
vt 0.4 0
vt 0.4 0.16666666666666666
vt 0.4 0.3333333333333333
vt 0.4 0.5
vt 0.4 0.6666666666666666
vt 0.4 0.8333333333333334
vt 0.4 1
vt 0.5 0
vt 0.5 0.16666666666666666
vt 0.5 0.3333333333333333
vt 0.5 0.5
vt 0.5 0.6666666666666666
vt 0.5 0.8333333333333334
vt 0.5 1
vt 0.6 0
vt 0.6 0.16666666666666666
vt 0.6 0.3333333333333333
vt 0.6 0.5
vt 0.6 0.6666666666666666
vt 0.6 0.8333333333333334
vt 0.6 1
vt 0.7 0
vt 0.7 0.16666666666666666
vt 0.7 0.3333333333333333
vt 0.7 0.5
vt 0.7 0.6666666666666666
vt 0.7 0.8333333333333334
vt 0.7 1
vt 0.8 0
vt 0.8 0.16666666666666666
vt 0.8 0.3333333333333333
vt 0.8 0.5
vt 0.8 0.6666666666666666
vt 0.8 0.8333333333333334
vt 0.8 1
vt 0.9 0
vt 0.9 0.16666666666666666
vt 0.9 0.3333333333333333
vt 0.9 0.5
vt 0.9 0.6666666666666666
vt 0.9 0.8333333333333334
vt 0.9 1
vt 1 0
vt 1 0.16666666666666666
vt 1 0.3333333333333333
vt 1 0.5
vt 1 0.6666666666666666
vt 1 0.8333333333333334
vt 1 1
vt 0 0
vt 0.0625 0
vt 0.125 0
vt 0.1875 0
vt 0.25 0
vt 0.3125 0
vt 0.375 0
vt 0.4375 0
vt 0.5 0
vt 0.5625 0
vt 0.625 0
vt 0.6875 0
vt 0.75 0
vt 0.8125 0
vt 0.875 0
vt 0.9375 0
vt 0 1
vt 0.0625 1
vt 0.125 1
vt 0.1875 1
vt 0.25 1
vt 0.3125 1
vt 0.375 1
vt 0.4375 1
vt 0.5 1
vt 0.5625 1
vt 0.625 1
vt 0.6875 1
vt 0.75 1
vt 0.8125 1
vt 0.875 1
vt 0.9375 1
vt 0.5 0.5
vt 0.5 0.5
vt 0 0
vt 0.0625 0
vt 0.125 0
vt 0.1875 0
vt 0.25 0
vt 0.3125 0
vt 0.375 0
vt 0.4375 0
vt 0.5 0
vt 0.5625 0
vt 0.625 0
vt 0.6875 0
vt 0.75 0
vt 0.8125 0
vt 0.875 0
vt 0.9375 0
vt 0 1
vt 0.0625 1
vt 0.125 1
vt 0.1875 1
vt 0.25 1
vt 0.3125 1
vt 0.375 1
vt 0.4375 1
vt 0.5 1
vt 0.5625 1
vt 0.625 1
vt 0.6875 1
vt 0.75 1
vt 0.8125 1
vt 0.875 1
vt 0.9375 1
vt 0.5 0.5
vt 0.5 0.5
vt 0 0
vt 0.08333333333333333 0
vt 0.16666666666666666 0
vt 0.25 0
vt 0.3333333333333333 0
vt 0.4166666666666667 0
vt 0.5 0
vt 0.5833333333333334 0
vt 0.6666666666666666 0
vt 0.75 0
vt 0.8333333333333334 0
vt 0.9166666666666666 0
vt 0 1
vt 0.08333333333333333 1
vt 0.16666666666666666 1
vt 0.25 1
vt 0.3333333333333333 1
vt 0.4166666666666667 1
vt 0.5 1
vt 0.5833333333333334 1
vt 0.6666666666666666 1
vt 0.75 1
vt 0.8333333333333334 1
vt 0.9166666666666666 1
vt 0.5 0.5
vt 0.5 0.5
vt 0 0
vt 0.08333333333333333 0
vt 0.16666666666666666 0
vt 0.25 0
vt 0.3333333333333333 0
vt 0.4166666666666667 0
vt 0.5 0
vt 0.5833333333333334 0
vt 0.6666666666666666 0
vt 0.75 0
vt 0.8333333333333334 0
vt 0.9166666666666666 0
vt 0 1
vt 0.08333333333333333 1
vt 0.16666666666666666 1
vt 0.25 1
vt 0.3333333333333333 1
vt 0.4166666666666667 1
vt 0.5 1
vt 0.5833333333333334 1
vt 0.6666666666666666 1
vt 0.75 1
vt 0.8333333333333334 1
vt 0.9166666666666666 1
vt 0.5 0.5
vt 0.5 0.5
vt 0 0
vt 0.08333333333333333 0
vt 0.16666666666666666 0
vt 0.25 0
vt 0.3333333333333333 0
vt 0.4166666666666667 0
vt 0.5 0
vt 0.5833333333333334 0
vt 0.6666666666666666 0
vt 0.75 0
vt 0.8333333333333334 0
vt 0.9166666666666666 0
vt 0 1
vt 0.08333333333333333 1
vt 0.16666666666666666 1
vt 0.25 1
vt 0.3333333333333333 1
vt 0.4166666666666667 1
vt 0.5 1
vt 0.5833333333333334 1
vt 0.6666666666666666 1
vt 0.75 1
vt 0.8333333333333334 1
vt 0.9166666666666666 1
vt 0.5 0.5
vt 0.5 0.5
vt 0 0
vt 0.08333333333333333 0
vt 0.16666666666666666 0
vt 0.25 0
vt 0.3333333333333333 0
vt 0.4166666666666667 0
vt 0.5 0
vt 0.5833333333333334 0
vt 0.6666666666666666 0
vt 0.75 0
vt 0.8333333333333334 0
vt 0.9166666666666666 0
vt 0 1
vt 0.08333333333333333 1
vt 0.16666666666666666 1
vt 0.25 1
vt 0.3333333333333333 1
vt 0.4166666666666667 1
vt 0.5 1
vt 0.5833333333333334 1
vt 0.6666666666666666 1
vt 0.75 1
vt 0.8333333333333334 1
vt 0.9166666666666666 1
vt 0.5 0.5
vt 0.5 0.5
vt 0.5 0.5
vt 0.5 0.5
vt 0.5 0.5
vt 0.5 0.5
vt 0.5 0.5
vt 0.5 0.5
vt 0.5 0.5
vt 0.5 0.5
vt 0 0
vt 0.08333333333333333 0
vt 0.16666666666666666 0
vt 0.25 0
vt 0.3333333333333333 0
vt 0.4166666666666667 0
vt 0.5 0
vt 0.5833333333333334 0
vt 0.6666666666666666 0
vt 0.75 0
vt 0.8333333333333334 0
vt 0.9166666666666666 0
vt 0 1
vt 0.08333333333333333 1
vt 0.16666666666666666 1
vt 0.25 1
vt 0.3333333333333333 1
vt 0.4166666666666667 1
vt 0.5 1
vt 0.5833333333333334 1
vt 0.6666666666666666 1
vt 0.75 1
vt 0.8333333333333334 1
vt 0.9166666666666666 1
vt 0.5 0.5
vt 0.5 0.5
vt 0 0
vt 0.08333333333333333 0
vt 0.16666666666666666 0
vt 0.25 0
vt 0.3333333333333333 0
vt 0.4166666666666667 0
vt 0.5 0
vt 0.5833333333333334 0
vt 0.6666666666666666 0
vt 0.75 0
vt 0.8333333333333334 0
vt 0.9166666666666666 0
vt 0 1
vt 0.08333333333333333 1
vt 0.16666666666666666 1
vt 0.25 1
vt 0.3333333333333333 1
vt 0.4166666666666667 1
vt 0.5 1
vt 0.5833333333333334 1
vt 0.6666666666666666 1
vt 0.75 1
vt 0.8333333333333334 1
vt 0.9166666666666666 1
vt 0.5 0.5
vt 0.5 0.5
vt 0 0
vt 0.08333333333333333 0
vt 0.16666666666666666 0
vt 0.25 0
vt 0.3333333333333333 0
vt 0.4166666666666667 0
vt 0.5 0
vt 0.5833333333333334 0
vt 0.6666666666666666 0
vt 0.75 0
vt 0.8333333333333334 0
vt 0.9166666666666666 0
vt 0 1
vt 0.08333333333333333 1
vt 0.16666666666666666 1
vt 0.25 1
vt 0.3333333333333333 1
vt 0.4166666666666667 1
vt 0.5 1
vt 0.5833333333333334 1
vt 0.6666666666666666 1
vt 0.75 1
vt 0.8333333333333334 1
vt 0.9166666666666666 1
vt 0.5 0.5
vt 0.5 0.5
vt 0 0
vt 0.08333333333333333 0
vt 0.16666666666666666 0
vt 0.25 0
vt 0.3333333333333333 0
vt 0.4166666666666667 0
vt 0.5 0
vt 0.5833333333333334 0
vt 0.6666666666666666 0
vt 0.75 0
vt 0.8333333333333334 0
vt 0.9166666666666666 0
vt 0 1
vt 0.08333333333333333 1
vt 0.16666666666666666 1
vt 0.25 1
vt 0.3333333333333333 1
vt 0.4166666666666667 1
vt 0.5 1
vt 0.5833333333333334 1
vt 0.6666666666666666 1
vt 0.75 1
vt 0.8333333333333334 1
vt 0.9166666666666666 1
vt 0.5 0.5
vt 0.5 0.5
vt 0 0
vt 0.08333333333333333 0
vt 0.16666666666666666 0
vt 0.25 0
vt 0.3333333333333333 0
vt 0.4166666666666667 0
vt 0.5 0
vt 0.5833333333333334 0
vt 0.6666666666666666 0
vt 0.75 0
vt 0.8333333333333334 0
vt 0.9166666666666666 0
vt 0 1
vt 0.08333333333333333 1
vt 0.16666666666666666 1
vt 0.25 1
vt 0.3333333333333333 1
vt 0.4166666666666667 1
vt 0.5 1
vt 0.5833333333333334 1
vt 0.6666666666666666 1
vt 0.75 1
vt 0.8333333333333334 1
vt 0.9166666666666666 1
vt 0.5 0.5
vt 0.5 0.5
vt 0 0
vt 0.0625 0
vt 0.125 0
vt 0.1875 0
vt 0.25 0
vt 0.3125 0
vt 0.375 0
vt 0.4375 0
vt 0.5 0
vt 0.5625 0
vt 0.625 0
vt 0.6875 0
vt 0.75 0
vt 0.8125 0
vt 0.875 0
vt 0.9375 0
vt 0 1
vt 0.0625 1
vt 0.125 1
vt 0.1875 1
vt 0.25 1
vt 0.3125 1
vt 0.375 1
vt 0.4375 1
vt 0.5 1
vt 0.5625 1
vt 0.625 1
vt 0.6875 1
vt 0.75 1
vt 0.8125 1
vt 0.875 1
vt 0.9375 1
vt 0.5 0.5
vt 0.5 0.5
vt 0.5 0.5
vt 0.5 0.5
vt 0.5 0.5
vt 0.5 0.5
vt 0.5 0.5
vt 0.5 0.5
vt 0.5 0.5
vt 0.5 0.5
vt 0.5 0.5
vt 0.5 0.5
vt 0.5 0.5
vt 0.5 0.5
vt 0.5 0.5
vt 0.5 0.5
vt 0.5 0.5
vt 0.5 0.5
vn 1 0 0
vn 0.5000000000000001 0.8660254037844386 0
vn -0.4999999999999998 0.8660254037844387 0
vn -1 1.2246467991473532e-16 0
vn -0.5000000000000004 -0.8660254037844385 0
vn 0.5000000000000001 -0.8660254037844386 0
vn 1 -2.4492935982947064e-16 0
vn 0.8090169943749475 0 0.5877852522924731
vn 0.40450849718747384 0.8660254037844386 0.2938926261462366
vn -0.40450849718747356 0.8660254037844387 -0.29389262614623646
vn -0.8090169943749475 1.2246467991473532e-16 -0.5877852522924731
vn -0.40450849718747406 -0.8660254037844385 -0.29389262614623685
vn 0.40450849718747384 -0.8660254037844386 0.2938926261462366
vn 0.8090169943749475 -2.4492935982947064e-16 0.5877852522924731
vn 0.30901699437494745 0 0.9510565162951535
vn 0.15450849718747375 0.8660254037844386 0.4755282581475769
vn -0.15450849718747367 0.8660254037844387 -0.47552825814757654
vn -0.30901699437494745 1.2246467991473532e-16 -0.9510565162951535
vn -0.15450849718747386 -0.8660254037844385 -0.4755282581475772
vn 0.15450849718747375 -0.8660254037844386 0.4755282581475769
vn 0.30901699437494745 -2.4492935982947064e-16 0.9510565162951535
vn -0.30901699437494734 0 0.9510565162951536
vn -0.1545084971874737 0.8660254037844386 0.47552825814757693
vn 0.15450849718747361 0.8660254037844387 -0.4755282581475766
vn 0.30901699437494734 1.2246467991473532e-16 -0.9510565162951536
vn 0.1545084971874738 -0.8660254037844385 -0.47552825814757727
vn -0.1545084971874737 -0.8660254037844386 0.47552825814757693
vn -0.30901699437494734 -2.4492935982947064e-16 0.9510565162951536
vn -0.8090169943749473 0 0.5877852522924732
vn -0.4045084971874738 0.8660254037844386 0.2938926261462367
vn 0.4045084971874735 0.8660254037844387 -0.2938926261462365
vn 0.8090169943749473 1.2246467991473532e-16 -0.5877852522924732
vn 0.404508497187474 -0.8660254037844385 -0.2938926261462369
vn -0.4045084971874738 -0.8660254037844386 0.2938926261462367
vn -0.8090169943749473 -2.4492935982947064e-16 0.5877852522924732
vn -1 0 1.2246467991473532e-16
vn -0.5000000000000001 0.8660254037844386 6.123233995736767e-17
vn 0.4999999999999998 0.8660254037844387 -6.123233995736764e-17
vn 1 1.2246467991473532e-16 -1.2246467991473532e-16
vn 0.5000000000000004 -0.8660254037844385 -6.123233995736771e-17
vn -0.5000000000000001 -0.8660254037844386 6.123233995736767e-17
vn -1 -2.4492935982947064e-16 1.2246467991473532e-16
vn -0.8090169943749475 0 -0.587785252292473
vn -0.40450849718747384 0.8660254037844386 -0.29389262614623657
vn 0.40450849718747356 0.8660254037844387 0.2938926261462364
vn 0.8090169943749475 1.2246467991473532e-16 0.587785252292473
vn 0.40450849718747406 -0.8660254037844385 0.2938926261462368
vn -0.40450849718747384 -0.8660254037844386 -0.29389262614623657
vn -0.8090169943749475 -2.4492935982947064e-16 -0.587785252292473
vn -0.30901699437494756 0 -0.9510565162951535
vn -0.1545084971874738 0.8660254037844386 -0.4755282581475769
vn 0.15450849718747373 0.8660254037844387 0.47552825814757654
vn 0.30901699437494756 1.2246467991473532e-16 0.9510565162951535
vn 0.15450849718747392 -0.8660254037844385 0.4755282581475772
vn -0.1545084971874738 -0.8660254037844386 -0.4755282581475769
vn -0.30901699437494756 -2.4492935982947064e-16 -0.9510565162951535
vn 0.30901699437494723 0 -0.9510565162951536
vn 0.15450849718747364 0.8660254037844386 -0.47552825814757693
vn -0.15450849718747356 0.8660254037844387 0.4755282581475766
vn -0.30901699437494723 1.2246467991473532e-16 0.9510565162951536
vn -0.15450849718747375 -0.8660254037844385 0.47552825814757727
vn 0.15450849718747364 -0.8660254037844386 -0.47552825814757693
vn 0.30901699437494723 -2.4492935982947064e-16 -0.9510565162951536
vn 0.8090169943749473 0 -0.5877852522924734
vn 0.4045084971874738 0.8660254037844386 -0.29389262614623674
vn -0.4045084971874735 0.8660254037844387 0.29389262614623657
vn -0.8090169943749473 1.2246467991473532e-16 0.5877852522924734
vn -0.404508497187474 -0.8660254037844385 0.29389262614623696
vn 0.4045084971874738 -0.8660254037844386 -0.29389262614623674
vn 0.8090169943749473 -2.4492935982947064e-16 -0.5877852522924734
vn 1 0 -2.4492935982947064e-16
vn 0.5000000000000001 0.8660254037844386 -1.2246467991473535e-16
vn -0.4999999999999998 0.8660254037844387 1.2246467991473527e-16
vn -1 1.2246467991473532e-16 2.4492935982947064e-16
vn -0.5000000000000004 -0.8660254037844385 1.2246467991473542e-16
vn 0.5000000000000001 -0.8660254037844386 -1.2246467991473535e-16
vn 1 -2.4492935982947064e-16 -2.4492935982947064e-16
vn 1 0 0
vn 0.5000000000000001 0.8660254037844386 0
vn -0.4999999999999998 0.8660254037844387 0
vn -1 1.2246467991473532e-16 0
vn -0.5000000000000004 -0.8660254037844385 0
vn 0.5000000000000001 -0.8660254037844386 0
vn 1 -2.4492935982947064e-16 0
vn 0.8090169943749475 0 0.5877852522924731
vn 0.40450849718747384 0.8660254037844386 0.2938926261462366
vn -0.40450849718747356 0.8660254037844387 -0.29389262614623646
vn -0.8090169943749475 1.2246467991473532e-16 -0.5877852522924731
vn -0.40450849718747406 -0.8660254037844385 -0.29389262614623685
vn 0.40450849718747384 -0.8660254037844386 0.2938926261462366
vn 0.8090169943749475 -2.4492935982947064e-16 0.5877852522924731
vn 0.30901699437494745 0 0.9510565162951535
vn 0.15450849718747375 0.8660254037844386 0.4755282581475769
vn -0.15450849718747367 0.8660254037844387 -0.47552825814757654
vn -0.30901699437494745 1.2246467991473532e-16 -0.9510565162951535
vn -0.15450849718747386 -0.8660254037844385 -0.4755282581475772
vn 0.15450849718747375 -0.8660254037844386 0.4755282581475769
vn 0.30901699437494745 -2.4492935982947064e-16 0.9510565162951535
vn -0.30901699437494734 0 0.9510565162951536
vn -0.1545084971874737 0.8660254037844386 0.47552825814757693
vn 0.15450849718747361 0.8660254037844387 -0.4755282581475766
vn 0.30901699437494734 1.2246467991473532e-16 -0.9510565162951536
vn 0.1545084971874738 -0.8660254037844385 -0.47552825814757727
vn -0.1545084971874737 -0.8660254037844386 0.47552825814757693
vn -0.30901699437494734 -2.4492935982947064e-16 0.9510565162951536
vn -0.8090169943749473 0 0.5877852522924732
vn -0.4045084971874738 0.8660254037844386 0.2938926261462367
vn 0.4045084971874735 0.8660254037844387 -0.2938926261462365
vn 0.8090169943749473 1.2246467991473532e-16 -0.5877852522924732
vn 0.404508497187474 -0.8660254037844385 -0.2938926261462369
vn -0.4045084971874738 -0.8660254037844386 0.2938926261462367
vn -0.8090169943749473 -2.4492935982947064e-16 0.5877852522924732
vn -1 0 1.2246467991473532e-16
vn -0.5000000000000001 0.8660254037844386 6.123233995736767e-17
vn 0.4999999999999998 0.8660254037844387 -6.123233995736764e-17
vn 1 1.2246467991473532e-16 -1.2246467991473532e-16
vn 0.5000000000000004 -0.8660254037844385 -6.123233995736771e-17
vn -0.5000000000000001 -0.8660254037844386 6.123233995736767e-17
vn -1 -2.4492935982947064e-16 1.2246467991473532e-16
vn -0.8090169943749475 0 -0.587785252292473
vn -0.40450849718747384 0.8660254037844386 -0.29389262614623657
vn 0.40450849718747356 0.8660254037844387 0.2938926261462364
vn 0.8090169943749475 1.2246467991473532e-16 0.587785252292473
vn 0.40450849718747406 -0.8660254037844385 0.2938926261462368
vn -0.40450849718747384 -0.8660254037844386 -0.29389262614623657
vn -0.8090169943749475 -2.4492935982947064e-16 -0.587785252292473
vn -0.30901699437494756 0 -0.9510565162951535
vn -0.1545084971874738 0.8660254037844386 -0.4755282581475769
vn 0.15450849718747373 0.8660254037844387 0.47552825814757654
vn 0.30901699437494756 1.2246467991473532e-16 0.9510565162951535
vn 0.15450849718747392 -0.8660254037844385 0.4755282581475772
vn -0.1545084971874738 -0.8660254037844386 -0.4755282581475769
vn -0.30901699437494756 -2.4492935982947064e-16 -0.9510565162951535
vn 0.30901699437494723 0 -0.9510565162951536
vn 0.15450849718747364 0.8660254037844386 -0.47552825814757693
vn -0.15450849718747356 0.8660254037844387 0.4755282581475766
vn -0.30901699437494723 1.2246467991473532e-16 0.9510565162951536
vn -0.15450849718747375 -0.8660254037844385 0.47552825814757727
vn 0.15450849718747364 -0.8660254037844386 -0.47552825814757693
vn 0.30901699437494723 -2.4492935982947064e-16 -0.9510565162951536
vn 0.8090169943749473 0 -0.5877852522924734
vn 0.4045084971874738 0.8660254037844386 -0.29389262614623674
vn -0.4045084971874735 0.8660254037844387 0.29389262614623657
vn -0.8090169943749473 1.2246467991473532e-16 0.5877852522924734
vn -0.404508497187474 -0.8660254037844385 0.29389262614623696
vn 0.4045084971874738 -0.8660254037844386 -0.29389262614623674
vn 0.8090169943749473 -2.4492935982947064e-16 -0.5877852522924734
vn 1 0 -2.4492935982947064e-16
vn 0.5000000000000001 0.8660254037844386 -1.2246467991473535e-16
vn -0.4999999999999998 0.8660254037844387 1.2246467991473527e-16
vn -1 1.2246467991473532e-16 2.4492935982947064e-16
vn -0.5000000000000004 -0.8660254037844385 1.2246467991473542e-16
vn 0.5000000000000001 -0.8660254037844386 -1.2246467991473535e-16
vn 1 -2.4492935982947064e-16 -2.4492935982947064e-16
vn 0 -1 0
vn 0 -1 0
vn 0 -1 0
vn 0 -1 0
vn 0 -1 0
vn 0 -1 0
vn 0 -1 0
vn 0 -1 0
vn 0 -1 0
vn 0 -1 0
vn 0 -1 0
vn 0 -1 0
vn 0 -1 0
vn 0 -1 0
vn 0 -1 0
vn 0 -1 0
vn 0 1 0
vn 0 1 0
vn 0 1 0
vn 0 1 0
vn 0 1 0
vn 0 1 0
vn 0 1 0
vn 0 1 0
vn 0 1 0
vn 0 1 0
vn 0 1 0
vn 0 1 0
vn 0 1 0
vn 0 1 0
vn 0 1 0
vn 0 1 0
vn 0 -1 0
vn 0 1 0
vn 0 -1 0
vn 0 -1 0
vn 0 -1 0
vn 0 -1 0
vn 0 -1 0
vn 0 -1 0
vn 0 -1 0
vn 0 -1 0
vn 0 -1 0
vn 0 -1 0
vn 0 -1 0
vn 0 -1 0
vn 0 -1 0
vn 0 -1 0
vn 0 -1 0
vn 0 -1 0
vn 0 1 0
vn 0 1 0
vn 0 1 0
vn 0 1 0
vn 0 1 0
vn 0 1 0
vn 0 1 0
vn 0 1 0
vn 0 1 0
vn 0 1 0
vn 0 1 0
vn 0 1 0
vn 0 1 0
vn 0 1 0
vn 0 1 0
vn 0 1 0
vn 0 -1 0
vn 0 1 0
vn 0 -1 0
vn 0 -1 0
vn 0 -1 0
vn 0 -1 0
vn 0 -1 0
vn 0 -1 0
vn 0 -1 0
vn 0 -1 0
vn 0 -1 0
vn 0 -1 0
vn 0 -1 0
vn 0 -1 0
vn 0 1 0
vn 0 1 0
vn 0 1 0
vn 0 1 0
vn 0 1 0
vn 0 1 0
vn 0 1 0
vn 0 1 0
vn 0 1 0
vn 0 1 0
vn 0 1 0
vn 0 1 0
vn 0 -1 0
vn 0 1 0
vn 0 -1 0
vn 0 -1 0
vn 0 -1 0
vn 0 -1 0
vn 0 -1 0
vn 0 -1 0
vn 0 -1 0
vn 0 -1 0
vn 0 -1 0
vn 0 -1 0
vn 0 -1 0
vn 0 -1 0
vn 0 1 0
vn 0 1 0
vn 0 1 0
vn 0 1 0
vn 0 1 0
vn 0 1 0
vn 0 1 0
vn 0 1 0
vn 0 1 0
vn 0 1 0
vn 0 1 0
vn 0 1 0
vn 0 -1 0
vn 0 1 0
vn 0 -1 0
vn 0 -1 0
vn 0 -1 0
vn 0 -1 0
vn 0 -1 0
vn 0 -1 0
vn 0 -1 0
vn 0 -1 0
vn 0 -1 0
vn 0 -1 0
vn 0 -1 0
vn 0 -1 0
vn 0 1 0
vn 0 1 0
vn 0 1 0
vn 0 1 0
vn 0 1 0
vn 0 1 0
vn 0 1 0
vn 0 1 0
vn 0 1 0
vn 0 1 0
vn 0 1 0
vn 0 1 0
vn 0 -1 0
vn 0 1 0
vn 0 -1 0
vn 0 -1 0
vn 0 -1 0
vn 0 -1 0
vn 0 -1 0
vn 0 -1 0
vn 0 -1 0
vn 0 -1 0
vn 0 -1 0
vn 0 -1 0
vn 0 -1 0
vn 0 -1 0
vn 0 1 0
vn 0 1 0
vn 0 1 0
vn 0 1 0
vn 0 1 0
vn 0 1 0
vn 0 1 0
vn 0 1 0
vn 0 1 0
vn 0 1 0
vn 0 1 0
vn 0 1 0
vn 0 -1 0
vn 0 1 0
vn 0 1 0
vn 0 1 0
vn 0 1 0
vn 0 1 0
vn 0 1 0
vn 0 1 0
vn 0 1 0
vn 0 1 0
vn 0 -1 0
vn 0 -1 0
vn 0 -1 0
vn 0 -1 0
vn 0 -1 0
vn 0 -1 0
vn 0 -1 0
vn 0 -1 0
vn 0 -1 0
vn 0 -1 0
vn 0 -1 0
vn 0 -1 0
vn 0 1 0
vn 0 1 0
vn 0 1 0
vn 0 1 0
vn 0 1 0
vn 0 1 0
vn 0 1 0
vn 0 1 0
vn 0 1 0
vn 0 1 0
vn 0 1 0
vn 0 1 0
vn 0 -1 0
vn 0 1 0
vn 0 -1 0
vn 0 -1 0
vn 0 -1 0
vn 0 -1 0
vn 0 -1 0
vn 0 -1 0
vn 0 -1 0
vn 0 -1 0
vn 0 -1 0
vn 0 -1 0
vn 0 -1 0
vn 0 -1 0
vn 0 1 0
vn 0 1 0
vn 0 1 0
vn 0 1 0
vn 0 1 0
vn 0 1 0
vn 0 1 0
vn 0 1 0
vn 0 1 0
vn 0 1 0
vn 0 1 0
vn 0 1 0
vn 0 -1 0
vn 0 1 0
vn 0 -1 0
vn 0 -1 0
vn 0 -1 0
vn 0 -1 0
vn 0 -1 0
vn 0 -1 0
vn 0 -1 0
vn 0 -1 0
vn 0 -1 0
vn 0 -1 0
vn 0 -1 0
vn 0 -1 0
vn 0 1 0
vn 0 1 0
vn 0 1 0
vn 0 1 0
vn 0 1 0
vn 0 1 0
vn 0 1 0
vn 0 1 0
vn 0 1 0
vn 0 1 0
vn 0 1 0
vn 0 1 0
vn 0 -1 0
vn 0 1 0
vn 0 -1 0
vn 0 -1 0
vn 0 -1 0
vn 0 -1 0
vn 0 -1 0
vn 0 -1 0
vn 0 -1 0
vn 0 -1 0
vn 0 -1 0
vn 0 -1 0
vn 0 -1 0
vn 0 -1 0
vn 0 1 0
vn 0 1 0
vn 0 1 0
vn 0 1 0
vn 0 1 0
vn 0 1 0
vn 0 1 0
vn 0 1 0
vn 0 1 0
vn 0 1 0
vn 0 1 0
vn 0 1 0
vn 0 -1 0
vn 0 1 0
vn 0 -1 0
vn 0 -1 0
vn 0 -1 0
vn 0 -1 0
vn 0 -1 0
vn 0 -1 0
vn 0 -1 0
vn 0 -1 0
vn 0 -1 0
vn 0 -1 0
vn 0 -1 0
vn 0 -1 0
vn 0 1 0
vn 0 1 0
vn 0 1 0
vn 0 1 0
vn 0 1 0
vn 0 1 0
vn 0 1 0
vn 0 1 0
vn 0 1 0
vn 0 1 0
vn 0 1 0
vn 0 1 0
vn 0 -1 0
vn 0 1 0
vn 0 -1 0
vn 0 -1 0
vn 0 -1 0
vn 0 -1 0
vn 0 -1 0
vn 0 -1 0
vn 0 -1 0
vn 0 -1 0
vn 0 -1 0
vn 0 -1 0
vn 0 -1 0
vn 0 -1 0
vn 0 -1 0
vn 0 -1 0
vn 0 -1 0
vn 0 -1 0
vn 0 1 0
vn 0 1 0
vn 0 1 0
vn 0 1 0
vn 0 1 0
vn 0 1 0
vn 0 1 0
vn 0 1 0
vn 0 1 0
vn 0 1 0
vn 0 1 0
vn 0 1 0
vn 0 1 0
vn 0 1 0
vn 0 1 0
vn 0 1 0
vn 0 -1 0
vn 0 1 0
vn 0 1 0
vn 0 1 0
vn 0 1 0
vn 0 1 0
vn 0 1 0
vn 0 1 0
vn 0 1 0
vn 0 1 0
vn 0 1 0
vn 0 1 0
vn 0 1 0
vn 0 1 0
vn 0 1 0
vn 0 1 0
vn 0 1 0
vn 0 1 0
f 1/1/1 8/8/8 9/9/9
f 1/1/1 9/9/9 2/2/2
f 2/2/2 9/9/9 10/10/10
f 2/2/2 10/10/10 3/3/3
f 3/3/3 10/10/10 11/11/11
f 3/3/3 11/11/11 4/4/4
f 4/4/4 11/11/11 12/12/12
f 4/4/4 12/12/12 5/5/5
f 5/5/5 12/12/12 13/13/13
f 5/5/5 13/13/13 6/6/6
f 6/6/6 13/13/13 14/14/14
f 6/6/6 14/14/14 7/7/7
f 8/8/8 15/15/15 16/16/16
f 8/8/8 16/16/16 9/9/9
f 9/9/9 16/16/16 17/17/17
f 9/9/9 17/17/17 10/10/10
f 10/10/10 17/17/17 18/18/18
f 10/10/10 18/18/18 11/11/11
f 11/11/11 18/18/18 19/19/19
f 11/11/11 19/19/19 12/12/12
f 12/12/12 19/19/19 20/20/20
f 12/12/12 20/20/20 13/13/13
f 13/13/13 20/20/20 21/21/21
f 13/13/13 21/21/21 14/14/14
f 15/15/15 22/22/22 23/23/23
f 15/15/15 23/23/23 16/16/16
f 16/16/16 23/23/23 24/24/24
f 16/16/16 24/24/24 17/17/17
f 17/17/17 24/24/24 25/25/25
f 17/17/17 25/25/25 18/18/18
f 18/18/18 25/25/25 26/26/26
f 18/18/18 26/26/26 19/19/19
f 19/19/19 26/26/26 27/27/27
f 19/19/19 27/27/27 20/20/20
f 20/20/20 27/27/27 28/28/28
f 20/20/20 28/28/28 21/21/21
f 22/22/22 29/29/29 30/30/30
f 22/22/22 30/30/30 23/23/23
f 23/23/23 30/30/30 31/31/31
f 23/23/23 31/31/31 24/24/24
f 24/24/24 31/31/31 32/32/32
f 24/24/24 32/32/32 25/25/25
f 25/25/25 32/32/32 33/33/33
f 25/25/25 33/33/33 26/26/26
f 26/26/26 33/33/33 34/34/34
f 26/26/26 34/34/34 27/27/27
f 27/27/27 34/34/34 35/35/35
f 27/27/27 35/35/35 28/28/28
f 29/29/29 36/36/36 37/37/37
f 29/29/29 37/37/37 30/30/30
f 30/30/30 37/37/37 38/38/38
f 30/30/30 38/38/38 31/31/31
f 31/31/31 38/38/38 39/39/39
f 31/31/31 39/39/39 32/32/32
f 32/32/32 39/39/39 40/40/40
f 32/32/32 40/40/40 33/33/33
f 33/33/33 40/40/40 41/41/41
f 33/33/33 41/41/41 34/34/34
f 34/34/34 41/41/41 42/42/42
f 34/34/34 42/42/42 35/35/35
f 36/36/36 43/43/43 44/44/44
f 36/36/36 44/44/44 37/37/37
f 37/37/37 44/44/44 45/45/45
f 37/37/37 45/45/45 38/38/38
f 38/38/38 45/45/45 46/46/46
f 38/38/38 46/46/46 39/39/39
f 39/39/39 46/46/46 47/47/47
f 39/39/39 47/47/47 40/40/40
f 40/40/40 47/47/47 48/48/48
f 40/40/40 48/48/48 41/41/41
f 41/41/41 48/48/48 49/49/49
f 41/41/41 49/49/49 42/42/42
f 43/43/43 50/50/50 51/51/51
f 43/43/43 51/51/51 44/44/44
f 44/44/44 51/51/51 52/52/52
f 44/44/44 52/52/52 45/45/45
f 45/45/45 52/52/52 53/53/53
f 45/45/45 53/53/53 46/46/46
f 46/46/46 53/53/53 54/54/54
f 46/46/46 54/54/54 47/47/47
f 47/47/47 54/54/54 55/55/55
f 47/47/47 55/55/55 48/48/48
f 48/48/48 55/55/55 56/56/56
f 48/48/48 56/56/56 49/49/49
f 50/50/50 57/57/57 58/58/58
f 50/50/50 58/58/58 51/51/51
f 51/51/51 58/58/58 59/59/59
f 51/51/51 59/59/59 52/52/52
f 52/52/52 59/59/59 60/60/60
f 52/52/52 60/60/60 53/53/53
f 53/53/53 60/60/60 61/61/61
f 53/53/53 61/61/61 54/54/54
f 54/54/54 61/61/61 62/62/62
f 54/54/54 62/62/62 55/55/55
f 55/55/55 62/62/62 63/63/63
f 55/55/55 63/63/63 56/56/56
f 57/57/57 64/64/64 65/65/65
f 57/57/57 65/65/65 58/58/58
f 58/58/58 65/65/65 66/66/66
f 58/58/58 66/66/66 59/59/59
f 59/59/59 66/66/66 67/67/67
f 59/59/59 67/67/67 60/60/60
f 60/60/60 67/67/67 68/68/68
f 60/60/60 68/68/68 61/61/61
f 61/61/61 68/68/68 69/69/69
f 61/61/61 69/69/69 62/62/62
f 62/62/62 69/69/69 70/70/70
f 62/62/62 70/70/70 63/63/63
f 64/64/64 71/71/71 72/72/72
f 64/64/64 72/72/72 65/65/65
f 65/65/65 72/72/72 73/73/73
f 65/65/65 73/73/73 66/66/66
f 66/66/66 73/73/73 74/74/74
f 66/66/66 74/74/74 67/67/67
f 67/67/67 74/74/74 75/75/75
f 67/67/67 75/75/75 68/68/68
f 68/68/68 75/75/75 76/76/76
f 68/68/68 76/76/76 69/69/69
f 69/69/69 76/76/76 77/77/77
f 69/69/69 77/77/77 70/70/70
f 78/78/78 85/85/85 86/86/86
f 78/78/78 86/86/86 79/79/79
f 79/79/79 86/86/86 87/87/87
f 79/79/79 87/87/87 80/80/80
f 80/80/80 87/87/87 88/88/88
f 80/80/80 88/88/88 81/81/81
f 81/81/81 88/88/88 89/89/89
f 81/81/81 89/89/89 82/82/82
f 82/82/82 89/89/89 90/90/90
f 82/82/82 90/90/90 83/83/83
f 83/83/83 90/90/90 91/91/91
f 83/83/83 91/91/91 84/84/84
f 85/85/85 92/92/92 93/93/93
f 85/85/85 93/93/93 86/86/86
f 86/86/86 93/93/93 94/94/94
f 86/86/86 94/94/94 87/87/87
f 87/87/87 94/94/94 95/95/95
f 87/87/87 95/95/95 88/88/88
f 88/88/88 95/95/95 96/96/96
f 88/88/88 96/96/96 89/89/89
f 89/89/89 96/96/96 97/97/97
f 89/89/89 97/97/97 90/90/90
f 90/90/90 97/97/97 98/98/98
f 90/90/90 98/98/98 91/91/91
f 92/92/92 99/99/99 100/100/100
f 92/92/92 100/100/100 93/93/93
f 93/93/93 100/100/100 101/101/101
f 93/93/93 101/101/101 94/94/94
f 94/94/94 101/101/101 102/102/102
f 94/94/94 102/102/102 95/95/95
f 95/95/95 102/102/102 103/103/103
f 95/95/95 103/103/103 96/96/96
f 96/96/96 103/103/103 104/104/104
f 96/96/96 104/104/104 97/97/97
f 97/97/97 104/104/104 105/105/105
f 97/97/97 105/105/105 98/98/98
f 99/99/99 106/106/106 107/107/107
f 99/99/99 107/107/107 100/100/100
f 100/100/100 107/107/107 108/108/108
f 100/100/100 108/108/108 101/101/101
f 101/101/101 108/108/108 109/109/109
f 101/101/101 109/109/109 102/102/102
f 102/102/102 109/109/109 110/110/110
f 102/102/102 110/110/110 103/103/103
f 103/103/103 110/110/110 111/111/111
f 103/103/103 111/111/111 104/104/104
f 104/104/104 111/111/111 112/112/112
f 104/104/104 112/112/112 105/105/105
f 106/106/106 113/113/113 114/114/114
f 106/106/106 114/114/114 107/107/107
f 107/107/107 114/114/114 115/115/115
f 107/107/107 115/115/115 108/108/108
f 108/108/108 115/115/115 116/116/116
f 108/108/108 116/116/116 109/109/109
f 109/109/109 116/116/116 117/117/117
f 109/109/109 117/117/117 110/110/110
f 110/110/110 117/117/117 118/118/118
f 110/110/110 118/118/118 111/111/111
f 111/111/111 118/118/118 119/119/119
f 111/111/111 119/119/119 112/112/112
f 113/113/113 120/120/120 121/121/121
f 113/113/113 121/121/121 114/114/114
f 114/114/114 121/121/121 122/122/122
f 114/114/114 122/122/122 115/115/115
f 115/115/115 122/122/122 123/123/123
f 115/115/115 123/123/123 116/116/116
f 116/116/116 123/123/123 124/124/124
f 116/116/116 124/124/124 117/117/117
f 117/117/117 124/124/124 125/125/125
f 117/117/117 125/125/125 118/118/118
f 118/118/118 125/125/125 126/126/126
f 118/118/118 126/126/126 119/119/119
f 120/120/120 127/127/127 128/128/128
f 120/120/120 128/128/128 121/121/121
f 121/121/121 128/128/128 129/129/129
f 121/121/121 129/129/129 122/122/122
f 122/122/122 129/129/129 130/130/130
f 122/122/122 130/130/130 123/123/123
f 123/123/123 130/130/130 131/131/131
f 123/123/123 131/131/131 124/124/124
f 124/124/124 131/131/131 132/132/132
f 124/124/124 132/132/132 125/125/125
f 125/125/125 132/132/132 133/133/133
f 125/125/125 133/133/133 126/126/126
f 127/127/127 134/134/134 135/135/135
f 127/127/127 135/135/135 128/128/128
f 128/128/128 135/135/135 136/136/136
f 128/128/128 136/136/136 129/129/129
f 129/129/129 136/136/136 137/137/137
f 129/129/129 137/137/137 130/130/130
f 130/130/130 137/137/137 138/138/138
f 130/130/130 138/138/138 131/131/131
f 131/131/131 138/138/138 139/139/139
f 131/131/131 139/139/139 132/132/132
f 132/132/132 139/139/139 140/140/140
f 132/132/132 140/140/140 133/133/133
f 134/134/134 141/141/141 142/142/142
f 134/134/134 142/142/142 135/135/135
f 135/135/135 142/142/142 143/143/143
f 135/135/135 143/143/143 136/136/136
f 136/136/136 143/143/143 144/144/144
f 136/136/136 144/144/144 137/137/137
f 137/137/137 144/144/144 145/145/145
f 137/137/137 145/145/145 138/138/138
f 138/138/138 145/145/145 146/146/146
f 138/138/138 146/146/146 139/139/139
f 139/139/139 146/146/146 147/147/147
f 139/139/139 147/147/147 140/140/140
f 141/141/141 148/148/148 149/149/149
f 141/141/141 149/149/149 142/142/142
f 142/142/142 149/149/149 150/150/150
f 142/142/142 150/150/150 143/143/143
f 143/143/143 150/150/150 151/151/151
f 143/143/143 151/151/151 144/144/144
f 144/144/144 151/151/151 152/152/152
f 144/144/144 152/152/152 145/145/145
f 145/145/145 152/152/152 153/153/153
f 145/145/145 153/153/153 146/146/146
f 146/146/146 153/153/153 154/154/154
f 146/146/146 154/154/154 147/147/147
f 155/155/155 156/156/156 172/172/172
f 155/155/155 172/172/172 171/171/171
f 187/187/187 156/156/156 155/155/155
f 188/188/188 171/171/171 172/172/172
f 156/156/156 157/157/157 173/173/173
f 156/156/156 173/173/173 172/172/172
f 187/187/187 157/157/157 156/156/156
f 188/188/188 172/172/172 173/173/173
f 157/157/157 158/158/158 174/174/174
f 157/157/157 174/174/174 173/173/173
f 187/187/187 158/158/158 157/157/157
f 188/188/188 173/173/173 174/174/174
f 158/158/158 159/159/159 175/175/175
f 158/158/158 175/175/175 174/174/174
f 187/187/187 159/159/159 158/158/158
f 188/188/188 174/174/174 175/175/175
f 159/159/159 160/160/160 176/176/176
f 159/159/159 176/176/176 175/175/175
f 187/187/187 160/160/160 159/159/159
f 188/188/188 175/175/175 176/176/176
f 160/160/160 161/161/161 177/177/177
f 160/160/160 177/177/177 176/176/176
f 187/187/187 161/161/161 160/160/160
f 188/188/188 176/176/176 177/177/177
f 161/161/161 162/162/162 178/178/178
f 161/161/161 178/178/178 177/177/177
f 187/187/187 162/162/162 161/161/161
f 188/188/188 177/177/177 178/178/178
f 162/162/162 163/163/163 179/179/179
f 162/162/162 179/179/179 178/178/178
f 187/187/187 163/163/163 162/162/162
f 188/188/188 178/178/178 179/179/179
f 163/163/163 164/164/164 180/180/180
f 163/163/163 180/180/180 179/179/179
f 187/187/187 164/164/164 163/163/163
f 188/188/188 179/179/179 180/180/180
f 164/164/164 165/165/165 181/181/181
f 164/164/164 181/181/181 180/180/180
f 187/187/187 165/165/165 164/164/164
f 188/188/188 180/180/180 181/181/181
f 165/165/165 166/166/166 182/182/182
f 165/165/165 182/182/182 181/181/181
f 187/187/187 166/166/166 165/165/165
f 188/188/188 181/181/181 182/182/182
f 166/166/166 167/167/167 183/183/183
f 166/166/166 183/183/183 182/182/182
f 187/187/187 167/167/167 166/166/166
f 188/188/188 182/182/182 183/183/183
f 167/167/167 168/168/168 184/184/184
f 167/167/167 184/184/184 183/183/183
f 187/187/187 168/168/168 167/167/167
f 188/188/188 183/183/183 184/184/184
f 168/168/168 169/169/169 185/185/185
f 168/168/168 185/185/185 184/184/184
f 187/187/187 169/169/169 168/168/168
f 188/188/188 184/184/184 185/185/185
f 169/169/169 170/170/170 186/186/186
f 169/169/169 186/186/186 185/185/185
f 187/187/187 170/170/170 169/169/169
f 188/188/188 185/185/185 186/186/186
f 170/170/170 155/155/155 171/171/171
f 170/170/170 171/171/171 186/186/186
f 187/187/187 155/155/155 170/170/170
f 188/188/188 186/186/186 171/171/171
f 189/189/189 190/190/190 206/206/206
f 189/189/189 206/206/206 205/205/205
f 221/221/221 190/190/190 189/189/189
f 222/222/222 205/205/205 206/206/206
f 190/190/190 191/191/191 207/207/207
f 190/190/190 207/207/207 206/206/206
f 221/221/221 191/191/191 190/190/190
f 222/222/222 206/206/206 207/207/207
f 191/191/191 192/192/192 208/208/208
f 191/191/191 208/208/208 207/207/207
f 221/221/221 192/192/192 191/191/191
f 222/222/222 207/207/207 208/208/208
f 192/192/192 193/193/193 209/209/209
f 192/192/192 209/209/209 208/208/208
f 221/221/221 193/193/193 192/192/192
f 222/222/222 208/208/208 209/209/209
f 193/193/193 194/194/194 210/210/210
f 193/193/193 210/210/210 209/209/209
f 221/221/221 194/194/194 193/193/193
f 222/222/222 209/209/209 210/210/210
f 194/194/194 195/195/195 211/211/211
f 194/194/194 211/211/211 210/210/210
f 221/221/221 195/195/195 194/194/194
f 222/222/222 210/210/210 211/211/211
f 195/195/195 196/196/196 212/212/212
f 195/195/195 212/212/212 211/211/211
f 221/221/221 196/196/196 195/195/195
f 222/222/222 211/211/211 212/212/212
f 196/196/196 197/197/197 213/213/213
f 196/196/196 213/213/213 212/212/212
f 221/221/221 197/197/197 196/196/196
f 222/222/222 212/212/212 213/213/213
f 197/197/197 198/198/198 214/214/214
f 197/197/197 214/214/214 213/213/213
f 221/221/221 198/198/198 197/197/197
f 222/222/222 213/213/213 214/214/214
f 198/198/198 199/199/199 215/215/215
f 198/198/198 215/215/215 214/214/214
f 221/221/221 199/199/199 198/198/198
f 222/222/222 214/214/214 215/215/215
f 199/199/199 200/200/200 216/216/216
f 199/199/199 216/216/216 215/215/215
f 221/221/221 200/200/200 199/199/199
f 222/222/222 215/215/215 216/216/216
f 200/200/200 201/201/201 217/217/217
f 200/200/200 217/217/217 216/216/216
f 221/221/221 201/201/201 200/200/200
f 222/222/222 216/216/216 217/217/217
f 201/201/201 202/202/202 218/218/218
f 201/201/201 218/218/218 217/217/217
f 221/221/221 202/202/202 201/201/201
f 222/222/222 217/217/217 218/218/218
f 202/202/202 203/203/203 219/219/219
f 202/202/202 219/219/219 218/218/218
f 221/221/221 203/203/203 202/202/202
f 222/222/222 218/218/218 219/219/219
f 203/203/203 204/204/204 220/220/220
f 203/203/203 220/220/220 219/219/219
f 221/221/221 204/204/204 203/203/203
f 222/222/222 219/219/219 220/220/220
f 204/204/204 189/189/189 205/205/205
f 204/204/204 205/205/205 220/220/220
f 221/221/221 189/189/189 204/204/204
f 222/222/222 220/220/220 205/205/205
f 223/223/223 224/224/224 236/236/236
f 223/223/223 236/236/236 235/235/235
f 247/247/247 224/224/224 223/223/223
f 248/248/248 235/235/235 236/236/236
f 224/224/224 225/225/225 237/237/237
f 224/224/224 237/237/237 236/236/236
f 247/247/247 225/225/225 224/224/224
f 248/248/248 236/236/236 237/237/237
f 225/225/225 226/226/226 238/238/238
f 225/225/225 238/238/238 237/237/237
f 247/247/247 226/226/226 225/225/225
f 248/248/248 237/237/237 238/238/238
f 226/226/226 227/227/227 239/239/239
f 226/226/226 239/239/239 238/238/238
f 247/247/247 227/227/227 226/226/226
f 248/248/248 238/238/238 239/239/239
f 227/227/227 228/228/228 240/240/240
f 227/227/227 240/240/240 239/239/239
f 247/247/247 228/228/228 227/227/227
f 248/248/248 239/239/239 240/240/240
f 228/228/228 229/229/229 241/241/241
f 228/228/228 241/241/241 240/240/240
f 247/247/247 229/229/229 228/228/228
f 248/248/248 240/240/240 241/241/241
f 229/229/229 230/230/230 242/242/242
f 229/229/229 242/242/242 241/241/241
f 247/247/247 230/230/230 229/229/229
f 248/248/248 241/241/241 242/242/242
f 230/230/230 231/231/231 243/243/243
f 230/230/230 243/243/243 242/242/242
f 247/247/247 231/231/231 230/230/230
f 248/248/248 242/242/242 243/243/243
f 231/231/231 232/232/232 244/244/244
f 231/231/231 244/244/244 243/243/243
f 247/247/247 232/232/232 231/231/231
f 248/248/248 243/243/243 244/244/244
f 232/232/232 233/233/233 245/245/245
f 232/232/232 245/245/245 244/244/244
f 247/247/247 233/233/233 232/232/232
f 248/248/248 244/244/244 245/245/245
f 233/233/233 234/234/234 246/246/246
f 233/233/233 246/246/246 245/245/245
f 247/247/247 234/234/234 233/233/233
f 248/248/248 245/245/245 246/246/246
f 234/234/234 223/223/223 235/235/235
f 234/234/234 235/235/235 246/246/246
f 247/247/247 223/223/223 234/234/234
f 248/248/248 246/246/246 235/235/235
f 249/249/249 250/250/250 262/262/262
f 249/249/249 262/262/262 261/261/261
f 273/273/273 250/250/250 249/249/249
f 274/274/274 261/261/261 262/262/262
f 250/250/250 251/251/251 263/263/263
f 250/250/250 263/263/263 262/262/262
f 273/273/273 251/251/251 250/250/250
f 274/274/274 262/262/262 263/263/263
f 251/251/251 252/252/252 264/264/264
f 251/251/251 264/264/264 263/263/263
f 273/273/273 252/252/252 251/251/251
f 274/274/274 263/263/263 264/264/264
f 252/252/252 253/253/253 265/265/265
f 252/252/252 265/265/265 264/264/264
f 273/273/273 253/253/253 252/252/252
f 274/274/274 264/264/264 265/265/265
f 253/253/253 254/254/254 266/266/266
f 253/253/253 266/266/266 265/265/265
f 273/273/273 254/254/254 253/253/253
f 274/274/274 265/265/265 266/266/266
f 254/254/254 255/255/255 267/267/267
f 254/254/254 267/267/267 266/266/266
f 273/273/273 255/255/255 254/254/254
f 274/274/274 266/266/266 267/267/267
f 255/255/255 256/256/256 268/268/268
f 255/255/255 268/268/268 267/267/267
f 273/273/273 256/256/256 255/255/255
f 274/274/274 267/267/267 268/268/268
f 256/256/256 257/257/257 269/269/269
f 256/256/256 269/269/269 268/268/268
f 273/273/273 257/257/257 256/256/256
f 274/274/274 268/268/268 269/269/269
f 257/257/257 258/258/258 270/270/270
f 257/257/257 270/270/270 269/269/269
f 273/273/273 258/258/258 257/257/257
f 274/274/274 269/269/269 270/270/270
f 258/258/258 259/259/259 271/271/271
f 258/258/258 271/271/271 270/270/270
f 273/273/273 259/259/259 258/258/258
f 274/274/274 270/270/270 271/271/271
f 259/259/259 260/260/260 272/272/272
f 259/259/259 272/272/272 271/271/271
f 273/273/273 260/260/260 259/259/259
f 274/274/274 271/271/271 272/272/272
f 260/260/260 249/249/249 261/261/261
f 260/260/260 261/261/261 272/272/272
f 273/273/273 249/249/249 260/260/260
f 274/274/274 272/272/272 261/261/261
f 275/275/275 276/276/276 288/288/288
f 275/275/275 288/288/288 287/287/287
f 299/299/299 276/276/276 275/275/275
f 300/300/300 287/287/287 288/288/288
f 276/276/276 277/277/277 289/289/289
f 276/276/276 289/289/289 288/288/288
f 299/299/299 277/277/277 276/276/276
f 300/300/300 288/288/288 289/289/289
f 277/277/277 278/278/278 290/290/290
f 277/277/277 290/290/290 289/289/289
f 299/299/299 278/278/278 277/277/277
f 300/300/300 289/289/289 290/290/290
f 278/278/278 279/279/279 291/291/291
f 278/278/278 291/291/291 290/290/290
f 299/299/299 279/279/279 278/278/278
f 300/300/300 290/290/290 291/291/291
f 279/279/279 280/280/280 292/292/292
f 279/279/279 292/292/292 291/291/291
f 299/299/299 280/280/280 279/279/279
f 300/300/300 291/291/291 292/292/292
f 280/280/280 281/281/281 293/293/293
f 280/280/280 293/293/293 292/292/292
f 299/299/299 281/281/281 280/280/280
f 300/300/300 292/292/292 293/293/293
f 281/281/281 282/282/282 294/294/294
f 281/281/281 294/294/294 293/293/293
f 299/299/299 282/282/282 281/281/281
f 300/300/300 293/293/293 294/294/294
f 282/282/282 283/283/283 295/295/295
f 282/282/282 295/295/295 294/294/294
f 299/299/299 283/283/283 282/282/282
f 300/300/300 294/294/294 295/295/295
f 283/283/283 284/284/284 296/296/296
f 283/283/283 296/296/296 295/295/295
f 299/299/299 284/284/284 283/283/283
f 300/300/300 295/295/295 296/296/296
f 284/284/284 285/285/285 297/297/297
f 284/284/284 297/297/297 296/296/296
f 299/299/299 285/285/285 284/284/284
f 300/300/300 296/296/296 297/297/297
f 285/285/285 286/286/286 298/298/298
f 285/285/285 298/298/298 297/297/297
f 299/299/299 286/286/286 285/285/285
f 300/300/300 297/297/297 298/298/298
f 286/286/286 275/275/275 287/287/287
f 286/286/286 287/287/287 298/298/298
f 299/299/299 275/275/275 286/286/286
f 300/300/300 298/298/298 287/287/287
f 301/301/301 302/302/302 314/314/314
f 301/301/301 314/314/314 313/313/313
f 325/325/325 302/302/302 301/301/301
f 326/326/326 313/313/313 314/314/314
f 302/302/302 303/303/303 315/315/315
f 302/302/302 315/315/315 314/314/314
f 325/325/325 303/303/303 302/302/302
f 326/326/326 314/314/314 315/315/315
f 303/303/303 304/304/304 316/316/316
f 303/303/303 316/316/316 315/315/315
f 325/325/325 304/304/304 303/303/303
f 326/326/326 315/315/315 316/316/316
f 304/304/304 305/305/305 317/317/317
f 304/304/304 317/317/317 316/316/316
f 325/325/325 305/305/305 304/304/304
f 326/326/326 316/316/316 317/317/317
f 305/305/305 306/306/306 318/318/318
f 305/305/305 318/318/318 317/317/317
f 325/325/325 306/306/306 305/305/305
f 326/326/326 317/317/317 318/318/318
f 306/306/306 307/307/307 319/319/319
f 306/306/306 319/319/319 318/318/318
f 325/325/325 307/307/307 306/306/306
f 326/326/326 318/318/318 319/319/319
f 307/307/307 308/308/308 320/320/320
f 307/307/307 320/320/320 319/319/319
f 325/325/325 308/308/308 307/307/307
f 326/326/326 319/319/319 320/320/320
f 308/308/308 309/309/309 321/321/321
f 308/308/308 321/321/321 320/320/320
f 325/325/325 309/309/309 308/308/308
f 326/326/326 320/320/320 321/321/321
f 309/309/309 310/310/310 322/322/322
f 309/309/309 322/322/322 321/321/321
f 325/325/325 310/310/310 309/309/309
f 326/326/326 321/321/321 322/322/322
f 310/310/310 311/311/311 323/323/323
f 310/310/310 323/323/323 322/322/322
f 325/325/325 311/311/311 310/310/310
f 326/326/326 322/322/322 323/323/323
f 311/311/311 312/312/312 324/324/324
f 311/311/311 324/324/324 323/323/323
f 325/325/325 312/312/312 311/311/311
f 326/326/326 323/323/323 324/324/324
f 312/312/312 301/301/301 313/313/313
f 312/312/312 313/313/313 324/324/324
f 325/325/325 301/301/301 312/312/312
f 326/326/326 324/324/324 313/313/313
f 327/327/327 329/329/329 328/328/328
f 327/327/327 330/330/330 329/329/329
f 331/331/331 332/332/332 333/333/333
f 331/331/331 333/333/333 334/334/334
f 327/327/327 328/328/328 332/332/332
f 327/327/327 332/332/332 331/331/331
f 329/329/329 330/330/330 334/334/334
f 329/329/329 334/334/334 333/333/333
f 327/327/327 331/331/331 334/334/334
f 327/327/327 334/334/334 330/330/330
f 328/328/328 329/329/329 333/333/333
f 328/328/328 333/333/333 332/332/332
f 335/335/335 336/336/336 348/348/348
f 335/335/335 348/348/348 347/347/347
f 359/359/359 336/336/336 335/335/335
f 360/360/360 347/347/347 348/348/348
f 336/336/336 337/337/337 349/349/349
f 336/336/336 349/349/349 348/348/348
f 359/359/359 337/337/337 336/336/336
f 360/360/360 348/348/348 349/349/349
f 337/337/337 338/338/338 350/350/350
f 337/337/337 350/350/350 349/349/349
f 359/359/359 338/338/338 337/337/337
f 360/360/360 349/349/349 350/350/350
f 338/338/338 339/339/339 351/351/351
f 338/338/338 351/351/351 350/350/350
f 359/359/359 339/339/339 338/338/338
f 360/360/360 350/350/350 351/351/351
f 339/339/339 340/340/340 352/352/352
f 339/339/339 352/352/352 351/351/351
f 359/359/359 340/340/340 339/339/339
f 360/360/360 351/351/351 352/352/352
f 340/340/340 341/341/341 353/353/353
f 340/340/340 353/353/353 352/352/352
f 359/359/359 341/341/341 340/340/340
f 360/360/360 352/352/352 353/353/353
f 341/341/341 342/342/342 354/354/354
f 341/341/341 354/354/354 353/353/353
f 359/359/359 342/342/342 341/341/341
f 360/360/360 353/353/353 354/354/354
f 342/342/342 343/343/343 355/355/355
f 342/342/342 355/355/355 354/354/354
f 359/359/359 343/343/343 342/342/342
f 360/360/360 354/354/354 355/355/355
f 343/343/343 344/344/344 356/356/356
f 343/343/343 356/356/356 355/355/355
f 359/359/359 344/344/344 343/343/343
f 360/360/360 355/355/355 356/356/356
f 344/344/344 345/345/345 357/357/357
f 344/344/344 357/357/357 356/356/356
f 359/359/359 345/345/345 344/344/344
f 360/360/360 356/356/356 357/357/357
f 345/345/345 346/346/346 358/358/358
f 345/345/345 358/358/358 357/357/357
f 359/359/359 346/346/346 345/345/345
f 360/360/360 357/357/357 358/358/358
f 346/346/346 335/335/335 347/347/347
f 346/346/346 347/347/347 358/358/358
f 359/359/359 335/335/335 346/346/346
f 360/360/360 358/358/358 347/347/347
f 361/361/361 362/362/362 374/374/374
f 361/361/361 374/374/374 373/373/373
f 385/385/385 362/362/362 361/361/361
f 386/386/386 373/373/373 374/374/374
f 362/362/362 363/363/363 375/375/375
f 362/362/362 375/375/375 374/374/374
f 385/385/385 363/363/363 362/362/362
f 386/386/386 374/374/374 375/375/375
f 363/363/363 364/364/364 376/376/376
f 363/363/363 376/376/376 375/375/375
f 385/385/385 364/364/364 363/363/363
f 386/386/386 375/375/375 376/376/376
f 364/364/364 365/365/365 377/377/377
f 364/364/364 377/377/377 376/376/376
f 385/385/385 365/365/365 364/364/364
f 386/386/386 376/376/376 377/377/377
f 365/365/365 366/366/366 378/378/378
f 365/365/365 378/378/378 377/377/377
f 385/385/385 366/366/366 365/365/365
f 386/386/386 377/377/377 378/378/378
f 366/366/366 367/367/367 379/379/379
f 366/366/366 379/379/379 378/378/378
f 385/385/385 367/367/367 366/366/366
f 386/386/386 378/378/378 379/379/379
f 367/367/367 368/368/368 380/380/380
f 367/367/367 380/380/380 379/379/379
f 385/385/385 368/368/368 367/367/367
f 386/386/386 379/379/379 380/380/380
f 368/368/368 369/369/369 381/381/381
f 368/368/368 381/381/381 380/380/380
f 385/385/385 369/369/369 368/368/368
f 386/386/386 380/380/380 381/381/381
f 369/369/369 370/370/370 382/382/382
f 369/369/369 382/382/382 381/381/381
f 385/385/385 370/370/370 369/369/369
f 386/386/386 381/381/381 382/382/382
f 370/370/370 371/371/371 383/383/383
f 370/370/370 383/383/383 382/382/382
f 385/385/385 371/371/371 370/370/370
f 386/386/386 382/382/382 383/383/383
f 371/371/371 372/372/372 384/384/384
f 371/371/371 384/384/384 383/383/383
f 385/385/385 372/372/372 371/371/371
f 386/386/386 383/383/383 384/384/384
f 372/372/372 361/361/361 373/373/373
f 372/372/372 373/373/373 384/384/384
f 385/385/385 361/361/361 372/372/372
f 386/386/386 384/384/384 373/373/373
f 387/387/387 388/388/388 400/400/400
f 387/387/387 400/400/400 399/399/399
f 411/411/411 388/388/388 387/387/387
f 412/412/412 399/399/399 400/400/400
f 388/388/388 389/389/389 401/401/401
f 388/388/388 401/401/401 400/400/400
f 411/411/411 389/389/389 388/388/388
f 412/412/412 400/400/400 401/401/401
f 389/389/389 390/390/390 402/402/402
f 389/389/389 402/402/402 401/401/401
f 411/411/411 390/390/390 389/389/389
f 412/412/412 401/401/401 402/402/402
f 390/390/390 391/391/391 403/403/403
f 390/390/390 403/403/403 402/402/402
f 411/411/411 391/391/391 390/390/390
f 412/412/412 402/402/402 403/403/403
f 391/391/391 392/392/392 404/404/404
f 391/391/391 404/404/404 403/403/403
f 411/411/411 392/392/392 391/391/391
f 412/412/412 403/403/403 404/404/404
f 392/392/392 393/393/393 405/405/405
f 392/392/392 405/405/405 404/404/404
f 411/411/411 393/393/393 392/392/392
f 412/412/412 404/404/404 405/405/405
f 393/393/393 394/394/394 406/406/406
f 393/393/393 406/406/406 405/405/405
f 411/411/411 394/394/394 393/393/393
f 412/412/412 405/405/405 406/406/406
f 394/394/394 395/395/395 407/407/407
f 394/394/394 407/407/407 406/406/406
f 411/411/411 395/395/395 394/394/394
f 412/412/412 406/406/406 407/407/407
f 395/395/395 396/396/396 408/408/408
f 395/395/395 408/408/408 407/407/407
f 411/411/411 396/396/396 395/395/395
f 412/412/412 407/407/407 408/408/408
f 396/396/396 397/397/397 409/409/409
f 396/396/396 409/409/409 408/408/408
f 411/411/411 397/397/397 396/396/396
f 412/412/412 408/408/408 409/409/409
f 397/397/397 398/398/398 410/410/410
f 397/397/397 410/410/410 409/409/409
f 411/411/411 398/398/398 397/397/397
f 412/412/412 409/409/409 410/410/410
f 398/398/398 387/387/387 399/399/399
f 398/398/398 399/399/399 410/410/410
f 411/411/411 387/387/387 398/398/398
f 412/412/412 410/410/410 399/399/399
f 413/413/413 414/414/414 426/426/426
f 413/413/413 426/426/426 425/425/425
f 437/437/437 414/414/414 413/413/413
f 438/438/438 425/425/425 426/426/426
f 414/414/414 415/415/415 427/427/427
f 414/414/414 427/427/427 426/426/426
f 437/437/437 415/415/415 414/414/414
f 438/438/438 426/426/426 427/427/427
f 415/415/415 416/416/416 428/428/428
f 415/415/415 428/428/428 427/427/427
f 437/437/437 416/416/416 415/415/415
f 438/438/438 427/427/427 428/428/428
f 416/416/416 417/417/417 429/429/429
f 416/416/416 429/429/429 428/428/428
f 437/437/437 417/417/417 416/416/416
f 438/438/438 428/428/428 429/429/429
f 417/417/417 418/418/418 430/430/430
f 417/417/417 430/430/430 429/429/429
f 437/437/437 418/418/418 417/417/417
f 438/438/438 429/429/429 430/430/430
f 418/418/418 419/419/419 431/431/431
f 418/418/418 431/431/431 430/430/430
f 437/437/437 419/419/419 418/418/418
f 438/438/438 430/430/430 431/431/431
f 419/419/419 420/420/420 432/432/432
f 419/419/419 432/432/432 431/431/431
f 437/437/437 420/420/420 419/419/419
f 438/438/438 431/431/431 432/432/432
f 420/420/420 421/421/421 433/433/433
f 420/420/420 433/433/433 432/432/432
f 437/437/437 421/421/421 420/420/420
f 438/438/438 432/432/432 433/433/433
f 421/421/421 422/422/422 434/434/434
f 421/421/421 434/434/434 433/433/433
f 437/437/437 422/422/422 421/421/421
f 438/438/438 433/433/433 434/434/434
f 422/422/422 423/423/423 435/435/435
f 422/422/422 435/435/435 434/434/434
f 437/437/437 423/423/423 422/422/422
f 438/438/438 434/434/434 435/435/435
f 423/423/423 424/424/424 436/436/436
f 423/423/423 436/436/436 435/435/435
f 437/437/437 424/424/424 423/423/423
f 438/438/438 435/435/435 436/436/436
f 424/424/424 413/413/413 425/425/425
f 424/424/424 425/425/425 436/436/436
f 437/437/437 413/413/413 424/424/424
f 438/438/438 436/436/436 425/425/425
f 439/439/439 440/440/440 452/452/452
f 439/439/439 452/452/452 451/451/451
f 463/463/463 440/440/440 439/439/439
f 464/464/464 451/451/451 452/452/452
f 440/440/440 441/441/441 453/453/453
f 440/440/440 453/453/453 452/452/452
f 463/463/463 441/441/441 440/440/440
f 464/464/464 452/452/452 453/453/453
f 441/441/441 442/442/442 454/454/454
f 441/441/441 454/454/454 453/453/453
f 463/463/463 442/442/442 441/441/441
f 464/464/464 453/453/453 454/454/454
f 442/442/442 443/443/443 455/455/455
f 442/442/442 455/455/455 454/454/454
f 463/463/463 443/443/443 442/442/442
f 464/464/464 454/454/454 455/455/455
f 443/443/443 444/444/444 456/456/456
f 443/443/443 456/456/456 455/455/455
f 463/463/463 444/444/444 443/443/443
f 464/464/464 455/455/455 456/456/456
f 444/444/444 445/445/445 457/457/457
f 444/444/444 457/457/457 456/456/456
f 463/463/463 445/445/445 444/444/444
f 464/464/464 456/456/456 457/457/457
f 445/445/445 446/446/446 458/458/458
f 445/445/445 458/458/458 457/457/457
f 463/463/463 446/446/446 445/445/445
f 464/464/464 457/457/457 458/458/458
f 446/446/446 447/447/447 459/459/459
f 446/446/446 459/459/459 458/458/458
f 463/463/463 447/447/447 446/446/446
f 464/464/464 458/458/458 459/459/459
f 447/447/447 448/448/448 460/460/460
f 447/447/447 460/460/460 459/459/459
f 463/463/463 448/448/448 447/447/447
f 464/464/464 459/459/459 460/460/460
f 448/448/448 449/449/449 461/461/461
f 448/448/448 461/461/461 460/460/460
f 463/463/463 449/449/449 448/448/448
f 464/464/464 460/460/460 461/461/461
f 449/449/449 450/450/450 462/462/462
f 449/449/449 462/462/462 461/461/461
f 463/463/463 450/450/450 449/449/449
f 464/464/464 461/461/461 462/462/462
f 450/450/450 439/439/439 451/451/451
f 450/450/450 451/451/451 462/462/462
f 463/463/463 439/439/439 450/450/450
f 464/464/464 462/462/462 451/451/451
f 465/465/465 466/466/466 482/482/482
f 465/465/465 482/482/482 481/481/481
f 497/497/497 466/466/466 465/465/465
f 498/498/498 481/481/481 482/482/482
f 466/466/466 467/467/467 483/483/483
f 466/466/466 483/483/483 482/482/482
f 497/497/497 467/467/467 466/466/466
f 498/498/498 482/482/482 483/483/483
f 467/467/467 468/468/468 484/484/484
f 467/467/467 484/484/484 483/483/483
f 497/497/497 468/468/468 467/467/467
f 498/498/498 483/483/483 484/484/484
f 468/468/468 469/469/469 485/485/485
f 468/468/468 485/485/485 484/484/484
f 497/497/497 469/469/469 468/468/468
f 498/498/498 484/484/484 485/485/485
f 469/469/469 470/470/470 486/486/486
f 469/469/469 486/486/486 485/485/485
f 497/497/497 470/470/470 469/469/469
f 498/498/498 485/485/485 486/486/486
f 470/470/470 471/471/471 487/487/487
f 470/470/470 487/487/487 486/486/486
f 497/497/497 471/471/471 470/470/470
f 498/498/498 486/486/486 487/487/487
f 471/471/471 472/472/472 488/488/488
f 471/471/471 488/488/488 487/487/487
f 497/497/497 472/472/472 471/471/471
f 498/498/498 487/487/487 488/488/488
f 472/472/472 473/473/473 489/489/489
f 472/472/472 489/489/489 488/488/488
f 497/497/497 473/473/473 472/472/472
f 498/498/498 488/488/488 489/489/489
f 473/473/473 474/474/474 490/490/490
f 473/473/473 490/490/490 489/489/489
f 497/497/497 474/474/474 473/473/473
f 498/498/498 489/489/489 490/490/490
f 474/474/474 475/475/475 491/491/491
f 474/474/474 491/491/491 490/490/490
f 497/497/497 475/475/475 474/474/474
f 498/498/498 490/490/490 491/491/491
f 475/475/475 476/476/476 492/492/492
f 475/475/475 492/492/492 491/491/491
f 497/497/497 476/476/476 475/475/475
f 498/498/498 491/491/491 492/492/492
f 476/476/476 477/477/477 493/493/493
f 476/476/476 493/493/493 492/492/492
f 497/497/497 477/477/477 476/476/476
f 498/498/498 492/492/492 493/493/493
f 477/477/477 478/478/478 494/494/494
f 477/477/477 494/494/494 493/493/493
f 497/497/497 478/478/478 477/477/477
f 498/498/498 493/493/493 494/494/494
f 478/478/478 479/479/479 495/495/495
f 478/478/478 495/495/495 494/494/494
f 497/497/497 479/479/479 478/478/478
f 498/498/498 494/494/494 495/495/495
f 479/479/479 480/480/480 496/496/496
f 479/479/479 496/496/496 495/495/495
f 497/497/497 480/480/480 479/479/479
f 498/498/498 495/495/495 496/496/496
f 480/480/480 465/465/465 481/481/481
f 480/480/480 481/481/481 496/496/496
f 497/497/497 465/465/465 480/480/480
f 498/498/498 496/496/496 481/481/481
f 499/499/499 501/501/501 500/500/500
f 499/499/499 502/502/502 501/501/501
f 503/503/503 504/504/504 505/505/505
f 503/503/503 505/505/505 506/506/506
f 499/499/499 500/500/500 504/504/504
f 499/499/499 504/504/504 503/503/503
f 501/501/501 502/502/502 506/506/506
f 501/501/501 506/506/506 505/505/505
f 499/499/499 503/503/503 506/506/506
f 499/499/499 506/506/506 502/502/502
f 500/500/500 501/501/501 505/505/505
f 500/500/500 505/505/505 504/504/504
f 507/507/507 509/509/509 508/508/508
f 507/507/507 510/510/510 509/509/509
f 511/511/511 512/512/512 513/513/513
f 511/511/511 513/513/513 514/514/514
f 507/507/507 508/508/508 512/512/512
f 507/507/507 512/512/512 511/511/511
f 509/509/509 510/510/510 514/514/514
f 509/509/509 514/514/514 513/513/513
f 507/507/507 511/511/511 514/514/514
f 507/507/507 514/514/514 510/510/510
f 508/508/508 509/509/509 513/513/513
f 508/508/508 513/513/513 512/512/512