# 3D Model: vehicle/bike/6756854_OR_m (v6 Gemini)
# Style: vehicle/bike | Symmetry: symmetric
# Dimensions: 0.81 x 1.312 x 2.67 m
# Triangles: 1204 | Vertices: 688
v 0.405 0.35 0.95
v 0.3775 0.3976 0.95
v 0.3225 0.3976 0.95
v 0.295 0.35 0.95
v 0.3225 0.3024 0.95
v 0.3775 0.3024 0.95
v 0.405 0.35 0.95
v 0.3277 0.35 1.1881
v 0.3054 0.3976 1.1719
v 0.2609 0.3976 1.1396
v 0.2387 0.35 1.1234
v 0.2609 0.3024 1.1396
v 0.3054 0.3024 1.1719
v 0.3277 0.35 1.1881
v 0.1252 0.35 1.3352
v 0.1167 0.3976 1.309
v 0.0997 0.3976 1.2567
v 0.0912 0.35 1.2306
v 0.0997 0.3024 1.2567
v 0.1167 0.3024 1.309
v 0.1252 0.35 1.3352
v -0.1252 0.35 1.3352
v -0.1167 0.3976 1.309
v -0.0997 0.3976 1.2567
v -0.0912 0.35 1.2306
v -0.0997 0.3024 1.2567
v -0.1167 0.3024 1.309
v -0.1252 0.35 1.3352
v -0.3277 0.35 1.1881
v -0.3054 0.3976 1.1719
v -0.2609 0.3976 1.1396
v -0.2387 0.35 1.1234
v -0.2609 0.3024 1.1396
v -0.3054 0.3024 1.1719
v -0.3277 0.35 1.1881
v -0.405 0.35 0.95
v -0.3775 0.3976 0.95
v -0.3225 0.3976 0.95
v -0.295 0.35 0.95
v -0.3225 0.3024 0.95
v -0.3775 0.3024 0.95
v -0.405 0.35 0.95
v -0.3277 0.35 0.7119
v -0.3054 0.3976 0.7281
v -0.2609 0.3976 0.7604
v -0.2387 0.35 0.7766
v -0.2609 0.3024 0.7604
v -0.3054 0.3024 0.7281
v -0.3277 0.35 0.7119
v -0.1252 0.35 0.5648
v -0.1167 0.3976 0.591
v -0.0997 0.3976 0.6433
v -0.0912 0.35 0.6694
v -0.0997 0.3024 0.6433
v -0.1167 0.3024 0.591
v -0.1252 0.35 0.5648
v 0.1252 0.35 0.5648
v 0.1167 0.3976 0.591
v 0.0997 0.3976 0.6433
v 0.0912 0.35 0.6694
v 0.0997 0.3024 0.6433
v 0.1167 0.3024 0.591
v 0.1252 0.35 0.5648
v 0.3277 0.35 0.7119
v 0.3054 0.3976 0.7281
v 0.2609 0.3976 0.7604
v 0.2387 0.35 0.7766
v 0.2609 0.3024 0.7604
v 0.3054 0.3024 0.7281
v 0.3277 0.35 0.7119
v 0.405 0.35 0.95
v 0.3775 0.3976 0.95
v 0.3225 0.3976 0.95
v 0.295 0.35 0.95
v 0.3225 0.3024 0.95
v 0.3775 0.3024 0.95
v 0.405 0.35 0.95
v 0.405 0.35 -0.95
v 0.3775 0.3976 -0.95
v 0.3225 0.3976 -0.95
v 0.295 0.35 -0.95
v 0.3225 0.3024 -0.95
v 0.3775 0.3024 -0.95
v 0.405 0.35 -0.95
v 0.3277 0.35 -0.7119
v 0.3054 0.3976 -0.7281
v 0.2609 0.3976 -0.7604
v 0.2387 0.35 -0.7766
v 0.2609 0.3024 -0.7604
v 0.3054 0.3024 -0.7281
v 0.3277 0.35 -0.7119
v 0.1252 0.35 -0.5648
v 0.1167 0.3976 -0.591
v 0.0997 0.3976 -0.6433
v 0.0912 0.35 -0.6694
v 0.0997 0.3024 -0.6433
v 0.1167 0.3024 -0.591
v 0.1252 0.35 -0.5648
v -0.1252 0.35 -0.5648
v -0.1167 0.3976 -0.591
v -0.0997 0.3976 -0.6433
v -0.0912 0.35 -0.6694
v -0.0997 0.3024 -0.6433
v -0.1167 0.3024 -0.591
v -0.1252 0.35 -0.5648
v -0.3277 0.35 -0.7119
v -0.3054 0.3976 -0.7281
v -0.2609 0.3976 -0.7604
v -0.2387 0.35 -0.7766
v -0.2609 0.3024 -0.7604
v -0.3054 0.3024 -0.7281
v -0.3277 0.35 -0.7119
v -0.405 0.35 -0.95
v -0.3775 0.3976 -0.95
v -0.3225 0.3976 -0.95
v -0.295 0.35 -0.95
v -0.3225 0.3024 -0.95
v -0.3775 0.3024 -0.95
v -0.405 0.35 -0.95
v -0.3277 0.35 -1.1881
v -0.3054 0.3976 -1.1719
v -0.2609 0.3976 -1.1396
v -0.2387 0.35 -1.1234
v -0.2609 0.3024 -1.1396
v -0.3054 0.3024 -1.1719
v -0.3277 0.35 -1.1881
v -0.1252 0.35 -1.3352
v -0.1167 0.3976 -1.309
v -0.0997 0.3976 -1.2567
v -0.0912 0.35 -1.2306
v -0.0997 0.3024 -1.2567
v -0.1167 0.3024 -1.309
v -0.1252 0.35 -1.3352
v 0.1252 0.35 -1.3352
v 0.1167 0.3976 -1.309
v 0.0997 0.3976 -1.2567
v 0.0912 0.35 -1.2306
v 0.0997 0.3024 -1.2567
v 0.1167 0.3024 -1.309
v 0.1252 0.35 -1.3352
v 0.3277 0.35 -1.1881
v 0.3054 0.3976 -1.1719
v 0.2609 0.3976 -1.1396
v 0.2387 0.35 -1.1234
v 0.2609 0.3024 -1.1396
v 0.3054 0.3024 -1.1719
v 0.3277 0.35 -1.1881
v 0.405 0.35 -0.95
v 0.3775 0.3976 -0.95
v 0.3225 0.3976 -0.95
v 0.295 0.35 -0.95
v 0.3225 0.3024 -0.95
v 0.3775 0.3024 -0.95
v 0.405 0.35 -0.95
v 0.02 0.65 0.95
v 0.02 0.6272 1.0648
v 0.02 0.5621 1.1621
v 0.02 0.4648 1.2272
v 0.02 0.35 1.25
v 0.02 0.2352 1.2272
v 0.02 0.1379 1.1621
v 0.02 0.0728 1.0648
v 0.02 0.05 0.95
v 0.02 0.0728 0.8352
v 0.02 0.1379 0.7379
v 0.02 0.2352 0.6728
v 0.02 0.35 0.65
v 0.02 0.4648 0.6728
v 0.02 0.5621 0.7379
v 0.02 0.6272 0.8352
v -0.02 0.65 0.95
v -0.02 0.6272 1.0648
v -0.02 0.5621 1.1621
v -0.02 0.4648 1.2272
v -0.02 0.35 1.25
v -0.02 0.2352 1.2272
v -0.02 0.1379 1.1621
v -0.02 0.0728 1.0648
v -0.02 0.05 0.95
v -0.02 0.0728 0.8352
v -0.02 0.1379 0.7379
v -0.02 0.2352 0.6728
v -0.02 0.35 0.65
v -0.02 0.4648 0.6728
v -0.02 0.5621 0.7379
v -0.02 0.6272 0.8352
v 0.02 0.35 0.95
v -0.02 0.35 0.95
v 0.02 0.65 -0.95
v 0.02 0.6272 -0.8352
v 0.02 0.5621 -0.7379
v 0.02 0.4648 -0.6728
v 0.02 0.35 -0.65
v 0.02 0.2352 -0.6728
v 0.02 0.1379 -0.7379
v 0.02 0.0728 -0.8352
v 0.02 0.05 -0.95
v 0.02 0.0728 -1.0648
v 0.02 0.1379 -1.1621
v 0.02 0.2352 -1.2272
v 0.02 0.35 -1.25
v 0.02 0.4648 -1.2272
v 0.02 0.5621 -1.1621
v 0.02 0.6272 -1.0648
v -0.02 0.65 -0.95
v -0.02 0.6272 -0.8352
v -0.02 0.5621 -0.7379
v -0.02 0.4648 -0.6728
v -0.02 0.35 -0.65
v -0.02 0.2352 -0.6728
v -0.02 0.1379 -0.7379
v -0.02 0.0728 -0.8352
v -0.02 0.05 -0.95
v -0.02 0.0728 -1.0648
v -0.02 0.1379 -1.1621
v -0.02 0.2352 -1.2272
v -0.02 0.35 -1.25
v -0.02 0.4648 -1.2272
v -0.02 0.5621 -1.1621
v -0.02 0.6272 -1.0648
v 0.02 0.35 -0.95
v -0.02 0.35 -0.95
v 0.035 0.289 0.1914
v 0.0303 0.2766 0.2039
v 0.0175 0.2676 0.213
v 0 0.2643 0.2163
v -0.0175 0.2676 0.213
v -0.0303 0.2766 0.2039
v -0.035 0.289 0.1914
v -0.0303 0.3013 0.179
v -0.0175 0.3103 0.1699
v 0 0.3136 0.1666
v 0.0175 0.3103 0.1699
v 0.0303 0.3013 0.179
v 0.03 0.751 0.6486
v 0.026 0.7405 0.6592
v 0.015 0.7328 0.667
v 0 0.7299 0.6699
v -0.015 0.7328 0.667
v -0.026 0.7405 0.6592
v -0.03 0.751 0.6486
v -0.026 0.7616 0.6379
v -0.015 0.7693 0.6301
v 0 0.7721 0.6272
v 0.015 0.7693 0.6301
v 0.026 0.7616 0.6379
v 0 0.289 0.1914
v 0 0.751 0.6486
v -0.035 0.3771 0.2647
v 0.035 0.3771 0.2647
v 0.035 0.697 0.5811
v -0.035 0.697 0.5811
v -0.035 0.363 0.2789
v 0.035 0.363 0.2789
v 0.035 0.6829 0.5953
v -0.035 0.6829 0.5953
v 0 0.39 0.072
v 0.014 0.39 0.0758
v 0.0242 0.39 0.086
v 0.028 0.39 0.1
v 0.0242 0.39 0.114
v 0.014 0.39 0.1242
v 0 0.39 0.128
v -0.014 0.39 0.1242
v -0.0242 0.39 0.114
v -0.028 0.39 0.1
v -0.0242 0.39 0.086
v -0.014 0.39 0.0758
v 0 0.97 0.075
v 0.0125 0.97 0.0783
v 0.0217 0.97 0.0875
v 0.025 0.97 0.1
v 0.0217 0.97 0.1125
v 0.0125 0.97 0.1217
v 0 0.97 0.125
v -0.0125 0.97 0.1217
v -0.0217 0.97 0.1125
v -0.025 0.97 0.1
v -0.0217 0.97 0.0875
v -0.0125 0.97 0.0783
v 0 0.39 0.1
v 0 0.97 0.1
v -0.2 0.69 0.11
v -0.2 0.69 0.09
v -0.2 0.71 0.09
v -0.2 0.71 0.11
v 0.2 0.69 0.11
v 0.2 0.69 0.09
v 0.2 0.71 0.09
v 0.2 0.71 0.11
v 0.025 0.3507 -0.1291
v 0.0217 0.3544 -0.1171
v 0.0125 0.3571 -0.1084
v 0 0.3581 -0.1052
v -0.0125 0.3571 -0.1084
v -0.0217 0.3544 -0.1171
v -0.025 0.3507 -0.1291
v -0.0217 0.347 -0.141
v -0.0125 0.3443 -0.1498
v 0 0.3433 -0.153
v 0.0125 0.3443 -0.1498
v 0.0217 0.347 -0.141
v 0.025 0.8093 -0.2709
v 0.0217 0.813 -0.259
v 0.0125 0.8157 -0.2502
v 0 0.8167 -0.247
v -0.0125 0.8157 -0.2502
v -0.0217 0.813 -0.259
v -0.025 0.8093 -0.2709
v -0.0217 0.8056 -0.2829
v -0.0125 0.8029 -0.2916
v 0 0.8019 -0.2948
v 0.0125 0.8029 -0.2916
v 0.0217 0.8056 -0.2829
v 0 0.3507 -0.1291
v 0 0.8093 -0.2709
v 0.015 0.725 -0.26
v 0.013 0.725 -0.2525
v 0.0075 0.725 -0.247
v 0 0.725 -0.245
v -0.0075 0.725 -0.247
v -0.013 0.725 -0.2525
v -0.015 0.725 -0.26
v -0.013 0.725 -0.2675
v -0.0075 0.725 -0.273
v 0 0.725 -0.275
v 0.0075 0.725 -0.273
v 0.013 0.725 -0.2675
v 0.015 0.975 -0.26
v 0.013 0.975 -0.2525
v 0.0075 0.975 -0.247
v 0 0.975 -0.245
v -0.0075 0.975 -0.247
v -0.013 0.975 -0.2525
v -0.015 0.975 -0.26
v -0.013 0.975 -0.2675
v -0.0075 0.975 -0.273
v 0 0.975 -0.275
v 0.0075 0.975 -0.273
v 0.013 0.975 -0.2675
v 0 0.725 -0.26
v 0 0.975 -0.26
v -0.08 0.925 -0.38
v 0.08 0.925 -0.38
v 0.08 0.995 -0.38
v -0.08 0.995 -0.38
v -0.08 0.925 -0.12
v 0.08 0.925 -0.12
v 0.08 0.995 -0.12
v -0.08 0.995 -0.12
v 0.06 0.39 -0.15
v 0.06 0.3846 -0.13
v 0.06 0.37 -0.1154
v 0.06 0.35 -0.11
v 0.06 0.33 -0.1154
v 0.06 0.3154 -0.13
v 0.06 0.31 -0.15
v 0.06 0.3154 -0.17
v 0.06 0.33 -0.1846
v 0.06 0.35 -0.19
v 0.06 0.37 -0.1846
v 0.06 0.3846 -0.17
v -0.06 0.39 -0.15
v -0.06 0.3846 -0.13
v -0.06 0.37 -0.1154
v -0.06 0.35 -0.11
v -0.06 0.33 -0.1154
v -0.06 0.3154 -0.13
v -0.06 0.31 -0.15
v -0.06 0.3154 -0.17
v -0.06 0.33 -0.1846
v -0.06 0.35 -0.19
v -0.06 0.37 -0.1846
v -0.06 0.3846 -0.17
v 0.06 0.35 -0.15
v -0.06 0.35 -0.15
v 0.07 0.44 -0.15
v 0.07 0.4331 -0.1156
v 0.07 0.4136 -0.0864
v 0.07 0.3844 -0.0669
v 0.07 0.35 -0.06
v 0.07 0.3156 -0.0669
v 0.07 0.2864 -0.0864
v 0.07 0.2669 -0.1156
v 0.07 0.26 -0.15
v 0.07 0.2669 -0.1844
v 0.07 0.2864 -0.2136
v 0.07 0.3156 -0.2331
v 0.07 0.35 -0.24
v 0.07 0.3844 -0.2331
v 0.07 0.4136 -0.2136
v 0.07 0.4331 -0.1844
v 0.05 0.44 -0.15
v 0.05 0.4331 -0.1156
v 0.05 0.4136 -0.0864
v 0.05 0.3844 -0.0669
v 0.05 0.35 -0.06
v 0.05 0.3156 -0.0669
v 0.05 0.2864 -0.0864
v 0.05 0.2669 -0.1156
v 0.05 0.26 -0.15
v 0.05 0.2669 -0.1844
v 0.05 0.2864 -0.2136
v 0.05 0.3156 -0.2331
v 0.05 0.35 -0.24
v 0.05 0.3844 -0.2331
v 0.05 0.4136 -0.2136
v 0.05 0.4331 -0.1844
v 0.07 0.35 -0.15
v 0.05 0.35 -0.15
v 0.102 0.2298 -0.2184
v 0.0985 0.2257 -0.2109
v 0.09 0.224 -0.2078
v 0.0815 0.2257 -0.2109
v 0.078 0.2298 -0.2184
v 0.0815 0.2339 -0.2258
v 0.09 0.2355 -0.2289
v 0.0985 0.2339 -0.2258
v 0.102 0.3702 -0.1416
v 0.0985 0.3661 -0.1342
v 0.09 0.3645 -0.1311
v 0.0815 0.3661 -0.1342
v 0.078 0.3702 -0.1416
v 0.0815 0.3743 -0.1491
v 0.09 0.376 -0.1522
v 0.0985 0.3743 -0.1491
v 0.09 0.2298 -0.2184
v 0.09 0.3702 -0.1416
v 0.07 0.235 -0.24
v 0.17 0.235 -0.24
v 0.17 0.265 -0.24
v 0.07 0.265 -0.24
v 0.07 0.235 -0.16
v 0.17 0.235 -0.16
v 0.17 0.265 -0.16
v 0.07 0.265 -0.16
v -0.0778 -0.05 -0.5321
v -0.0911 -0.05 -0.5358
v -0.0979 -0.05 -0.5478
v -0.0942 -0.05 -0.5611
v -0.0822 -0.05 -0.5679
v -0.0689 -0.05 -0.5642
v -0.0621 -0.05 -0.5522
v -0.0658 -0.05 -0.5389
v -0.0782 0.75 -0.5351
v -0.0893 0.75 -0.5382
v -0.0949 0.75 -0.5482
v -0.0918 0.75 -0.5593
v -0.0818 0.75 -0.5649
v -0.0707 0.75 -0.5618
v -0.0651 0.75 -0.5518
v -0.0682 0.75 -0.5407
v -0.08 -0.05 -0.55
v -0.08 0.75 -0.55
v 0.0822 -0.05 -0.5679
v 0.0942 -0.05 -0.5611
v 0.0979 -0.05 -0.5478
v 0.0911 -0.05 -0.5358
v 0.0778 -0.05 -0.5321
v 0.0658 -0.05 -0.5389
v 0.0621 -0.05 -0.5522
v 0.0689 -0.05 -0.5642
v 0.0818 0.75 -0.5649
v 0.0918 0.75 -0.5593
v 0.0949 0.75 -0.5482
v 0.0893 0.75 -0.5382
v 0.0782 0.75 -0.5351
v 0.0682 0.75 -0.5407
v 0.0651 0.75 -0.5518
v 0.0707 0.75 -0.5618
v 0.08 -0.05 -0.55
v 0.08 0.75 -0.55
v 0.0073 0.2623 -0.7244
v -0.0004 0.2577 -0.7173
v -0.0117 0.2558 -0.7178
v -0.02 0.2577 -0.7256
v -0.0203 0.2623 -0.7361
v -0.0125 0.2669 -0.7432
v -0.0012 0.2689 -0.7427
v 0.007 0.2669 -0.7349
v -0.1225 0.9377 -0.4251
v -0.1287 0.934 -0.4194
v -0.1377 0.9324 -0.4198
v -0.1443 0.934 -0.426
v -0.1446 0.9377 -0.4344
v -0.1384 0.9414 -0.4401
v -0.1293 0.9429 -0.4397
v -0.1227 0.9414 -0.4335
v -0.0065 0.2623 -0.7302
v -0.1335 0.9377 -0.4298
v 0.0203 0.2623 -0.7361
v 0.02 0.2577 -0.7256
v 0.0117 0.2558 -0.7178
v 0.0004 0.2577 -0.7173
v -0.0073 0.2623 -0.7244
v -0.007 0.2669 -0.7349
v 0.0012 0.2689 -0.7427
v 0.0125 0.2669 -0.7432
v 0.1446 0.9377 -0.4344
v 0.1443 0.934 -0.426
v 0.1377 0.9324 -0.4198
v 0.1287 0.934 -0.4194
v 0.1225 0.9377 -0.4251
v 0.1227 0.9414 -0.4335
v 0.1293 0.9429 -0.4397
v 0.1384 0.9414 -0.4401
v 0.0065 0.2623 -0.7302
v 0.1335 0.9377 -0.4298
v 0.035 0.6347 0.7129
v 0.0303 0.6303 0.7298
v 0.0175 0.6272 0.7423
v 0 0.626 0.7468
v -0.0175 0.6272 0.7423
v -0.0303 0.6303 0.7298
v -0.035 0.6347 0.7129
v -0.0303 0.639 0.6959
v -0.0175 0.6422 0.6835
v 0 0.6433 0.679
v 0.0175 0.6422 0.6835
v 0.0303 0.639 0.6959
v 0.032 0.9253 0.7871
v 0.0277 0.9214 0.8026
v 0.016 0.9185 0.814
v 0 0.9174 0.8181
v -0.016 0.9185 0.814
v -0.0277 0.9214 0.8026
v -0.032 0.9253 0.7871
v -0.0277 0.9293 0.7716
v -0.016 0.9322 0.7603
v 0 0.9333 0.7561
v 0.016 0.9322 0.7603
v 0.0277 0.9293 0.7716
v 0 0.6347 0.7129
v 0 0.9253 0.7871
v 0.02 0.875 0.72
v 0.0141 0.875 0.7341
v 0 0.875 0.74
v -0.0141 0.875 0.7341
v -0.02 0.875 0.72
v -0.0141 0.875 0.7059
v 0 0.875 0.7
v 0.0141 0.875 0.7059
v 0.02 1.025 0.72
v 0.0141 1.025 0.7341
v 0 1.025 0.74
v -0.0141 1.025 0.7341
v -0.02 1.025 0.72
v -0.0141 1.025 0.7059
v 0 1.025 0.7
v 0.0141 1.025 0.7059
v 0 0.875 0.72
v 0 1.025 0.72
v 0.325 1.018 0.7
v 0.325 1.0156 0.709
v 0.325 1.009 0.7156
v 0.325 1 0.718
v 0.325 0.991 0.7156
v 0.325 0.9844 0.709
v 0.325 0.982 0.7
v 0.325 0.9844 0.691
v 0.325 0.991 0.6844
v 0.325 1 0.682
v 0.325 1.009 0.6844
v 0.325 1.0156 0.691
v -0.325 1.018 0.7
v -0.325 1.0156 0.709
v -0.325 1.009 0.7156
v -0.325 1 0.718
v -0.325 0.991 0.7156
v -0.325 0.9844 0.709
v -0.325 0.982 0.7
v -0.325 0.9844 0.691
v -0.325 0.991 0.6844
v -0.325 1 0.682
v -0.325 1.009 0.6844
v -0.325 1.0156 0.691
v 0.325 1 0.7
v -0.325 1 0.7
v -0.24 1.022 0.7
v -0.24 1.0178 0.7129
v -0.24 1.0068 0.7209
v -0.24 0.9932 0.7209
v -0.24 0.9822 0.7129
v -0.24 0.978 0.7
v -0.24 0.9822 0.6871
v -0.24 0.9932 0.6791
v -0.24 1.0068 0.6791
v -0.24 1.0178 0.6871
v -0.36 1.022 0.7
v -0.36 1.0178 0.7129
v -0.36 1.0068 0.7209
v -0.36 0.9932 0.7209
v -0.36 0.9822 0.7129
v -0.36 0.978 0.7
v -0.36 0.9822 0.6871
v -0.36 0.9932 0.6791
v -0.36 1.0068 0.6791
v -0.36 1.0178 0.6871
v -0.24 1 0.7
v -0.36 1 0.7
v 0.36 1.022 0.7
v 0.36 1.0178 0.7129
v 0.36 1.0068 0.7209
v 0.36 0.9932 0.7209
v 0.36 0.9822 0.7129
v 0.36 0.978 0.7
v 0.36 0.9822 0.6871
v 0.36 0.9932 0.6791
v 0.36 1.0068 0.6791
v 0.36 1.0178 0.6871
v 0.24 1.022 0.7
v 0.24 1.0178 0.7129
v 0.24 1.0068 0.7209
v 0.24 0.9932 0.7209
v 0.24 0.9822 0.7129
v 0.24 0.978 0.7
v 0.24 0.9822 0.6871
v 0.24 0.9932 0.6791
v 0.24 1.0068 0.6791
v 0.24 1.0178 0.6871
v 0.36 1 0.7
v 0.24 1 0.7
v -0.062 0.3135 0.812
v -0.0654 0.3109 0.8222
v -0.0744 0.3093 0.8286
v -0.0856 0.3093 0.8286
v -0.0946 0.3109 0.8222
v -0.098 0.3135 0.812
v -0.0946 0.3162 0.8017
v -0.0856 0.3178 0.7954
v -0.0744 0.3178 0.7954
v -0.0654 0.3162 0.8017
v -0.058 0.8465 0.948
v -0.0622 0.8433 0.9606
v -0.0732 0.8413 0.9683
v -0.0868 0.8413 0.9683
v -0.0978 0.8433 0.9606
v -0.102 0.8465 0.948
v -0.0978 0.8497 0.9355
v -0.0868 0.8516 0.9278
v -0.0732 0.8516 0.9278
v -0.0622 0.8497 0.9355
v -0.08 0.3135 0.812
v -0.08 0.8465 0.948
v 0.098 0.3135 0.812
v 0.0946 0.3109 0.8222
v 0.0856 0.3093 0.8286
v 0.0744 0.3093 0.8286
v 0.0654 0.3109 0.8222
v 0.062 0.3135 0.812
v 0.0654 0.3162 0.8017
v 0.0744 0.3178 0.7954
v 0.0856 0.3178 0.7954
v 0.0946 0.3162 0.8017
v 0.102 0.8465 0.948
v 0.0978 0.8433 0.9606
v 0.0868 0.8413 0.9683
v 0.0732 0.8413 0.9683
v 0.0622 0.8433 0.9606
v 0.058 0.8465 0.948
v 0.0622 0.8497 0.9355
v 0.0732 0.8516 0.9278
v 0.0868 0.8516 0.9278
v 0.0978 0.8497 0.9355
v 0.08 0.3135 0.812
v 0.08 0.8465 0.948
v 0.005 0.841 0.3348
v 0.0025 0.8379 0.3378
v -0.0025 0.8379 0.3378
v -0.005 0.841 0.3348
v -0.0025 0.8441 0.3318
v 0.0025 0.8441 0.3318
v 0.005 1.259 0.7652
v 0.0025 1.2559 0.7682
v -0.0025 1.2559 0.7682
v -0.005 1.259 0.7652
v -0.0025 1.2621 0.7622
v 0.0025 1.2621 0.7622
v 0 0.841 0.3348
v 0 1.259 0.7652
v -0.125 0.26 -0.89
v -0.075 0.26 -0.89
v -0.075 0.34 -0.89
v -0.125 0.34 -0.89
v -0.125 0.26 -0.81
v -0.075 0.26 -0.81
v -0.075 0.34 -0.81
v -0.125 0.34 -0.81
vt 0 0
vt 0 0.16666666666666666
vt 0 0.3333333333333333
vt 0 0.5
vt 0 0.6666666666666666
vt 0 0.8333333333333334
vt 0 1
vt 0.1 0
vt 0.1 0.16666666666666666
vt 0.1 0.3333333333333333
vt 0.1 0.5
vt 0.1 0.6666666666666666
vt 0.1 0.8333333333333334
vt 0.1 1
vt 0.2 0
vt 0.2 0.16666666666666666
vt 0.2 0.3333333333333333
vt 0.2 0.5
vt 0.2 0.6666666666666666
vt 0.2 0.8333333333333334
vt 0.2 1
vt 0.3 0
vt 0.3 0.16666666666666666
vt 0.3 0.3333333333333333
vt 0.3 0.5
vt 0.3 0.6666666666666666
vt 0.3 0.8333333333333334
vt 0.3 1
vt 0.4 0
vt 0.4 0.16666666666666666
vt 0.4 0.3333333333333333
vt 0.4 0.5
vt 0.4 0.6666666666666666
vt 0.4 0.8333333333333334
vt 0.4 1
vt 0.5 0
vt 0.5 0.16666666666666666
vt 0.5 0.3333333333333333
vt 0.5 0.5
vt 0.5 0.6666666666666666
vt 0.5 0.8333333333333334
vt 0.5 1
vt 0.6 0
vt 0.6 0.16666666666666666
vt 0.6 0.3333333333333333
vt 0.6 0.5
vt 0.6 0.6666666666666666
vt 0.6 0.8333333333333334
vt 0.6 1
vt 0.7 0
vt 0.7 0.16666666666666666
vt 0.7 0.3333333333333333
vt 0.7 0.5
vt 0.7 0.6666666666666666
vt 0.7 0.8333333333333334
vt 0.7 1
vt 0.8 0
vt 0.8 0.16666666666666666
vt 0.8 0.3333333333333333
vt 0.8 0.5
vt 0.8 0.6666666666666666
vt 0.8 0.8333333333333334
vt 0.8 1
vt 0.9 0
vt 0.9 0.16666666666666666
vt 0.9 0.3333333333333333
vt 0.9 0.5
vt 0.9 0.6666666666666666
vt 0.9 0.8333333333333334
vt 0.9 1
vt 1 0
vt 1 0.16666666666666666
vt 1 0.3333333333333333
vt 1 0.5
vt 1 0.6666666666666666
vt 1 0.8333333333333334
vt 1 1
vt 0 0
vt 0 0.16666666666666666
vt 0 0.3333333333333333
vt 0 0.5
vt 0 0.6666666666666666
vt 0 0.8333333333333334
vt 0 1
vt 0.1 0
vt 0.1 0.16666666666666666
vt 0.1 0.3333333333333333
vt 0.1 0.5
vt 0.1 0.6666666666666666
vt 0.1 0.8333333333333334
vt 0.1 1
vt 0.2 0
vt 0.2 0.16666666666666666
vt 0.2 0.3333333333333333
vt 0.2 0.5
vt 0.2 0.6666666666666666
vt 0.2 0.8333333333333334
vt 0.2 1
vt 0.3 0
vt 0.3 0.16666666666666666
vt 0.3 0.3333333333333333
vt 0.3 0.5
vt 0.3 0.6666666666666666
vt 0.3 0.8333333333333334
vt 0.3 1
vt 0.4 0
vt 0.4 0.16666666666666666
vt 0.4 0.3333333333333333
vt 0.4 0.5
vt 0.4 0.6666666666666666
vt 0.4 0.8333333333333334
vt 0.4 1
vt 0.5 0
vt 0.5 0.16666666666666666
vt 0.5 0.3333333333333333
vt 0.5 0.5
vt 0.5 0.6666666666666666
vt 0.5 0.8333333333333334
vt 0.5 1
vt 0.6 0
vt 0.6 0.16666666666666666
vt 0.6 0.3333333333333333
vt 0.6 0.5
vt 0.6 0.6666666666666666
vt 0.6 0.8333333333333334
vt 0.6 1
vt 0.7 0
vt 0.7 0.16666666666666666
vt 0.7 0.3333333333333333
vt 0.7 0.5
vt 0.7 0.6666666666666666
vt 0.7 0.8333333333333334
vt 0.7 1
vt 0.8 0
vt 0.8 0.16666666666666666
vt 0.8 0.3333333333333333
vt 0.8 0.5
vt 0.8 0.6666666666666666
vt 0.8 0.8333333333333334
vt 0.8 1
vt 0.9 0
vt 0.9 0.16666666666666666
vt 0.9 0.3333333333333333
vt 0.9 0.5
vt 0.9 0.6666666666666666
vt 0.9 0.8333333333333334
vt 0.9 1
vt 1 0
vt 1 0.16666666666666666
vt 1 0.3333333333333333
vt 1 0.5
vt 1 0.6666666666666666
vt 1 0.8333333333333334
vt 1 1
vt 0 0
vt 0.0625 0
vt 0.125 0
vt 0.1875 0
vt 0.25 0
vt 0.3125 0
vt 0.375 0
vt 0.4375 0
vt 0.5 0
vt 0.5625 0
vt 0.625 0
vt 0.6875 0
vt 0.75 0
vt 0.8125 0
vt 0.875 0
vt 0.9375 0
vt 0 1
vt 0.0625 1
vt 0.125 1
vt 0.1875 1
vt 0.25 1
vt 0.3125 1
vt 0.375 1
vt 0.4375 1
vt 0.5 1
vt 0.5625 1
vt 0.625 1
vt 0.6875 1
vt 0.75 1
vt 0.8125 1
vt 0.875 1
vt 0.9375 1
vt 0.5 0.5
vt 0.5 0.5
vt 0 0
vt 0.0625 0
vt 0.125 0
vt 0.1875 0
vt 0.25 0
vt 0.3125 0
vt 0.375 0
vt 0.4375 0
vt 0.5 0
vt 0.5625 0
vt 0.625 0
vt 0.6875 0
vt 0.75 0
vt 0.8125 0
vt 0.875 0
vt 0.9375 0
vt 0 1
vt 0.0625 1
vt 0.125 1
vt 0.1875 1
vt 0.25 1
vt 0.3125 1
vt 0.375 1
vt 0.4375 1
vt 0.5 1
vt 0.5625 1
vt 0.625 1
vt 0.6875 1
vt 0.75 1
vt 0.8125 1
vt 0.875 1
vt 0.9375 1
vt 0.5 0.5
vt 0.5 0.5
vt 0 0
vt 0.08333333333333333 0
vt 0.16666666666666666 0
vt 0.25 0
vt 0.3333333333333333 0
vt 0.4166666666666667 0
vt 0.5 0
vt 0.5833333333333334 0
vt 0.6666666666666666 0
vt 0.75 0
vt 0.8333333333333334 0
vt 0.9166666666666666 0
vt 0 1
vt 0.08333333333333333 1
vt 0.16666666666666666 1
vt 0.25 1
vt 0.3333333333333333 1
vt 0.4166666666666667 1
vt 0.5 1
vt 0.5833333333333334 1
vt 0.6666666666666666 1
vt 0.75 1
vt 0.8333333333333334 1
vt 0.9166666666666666 1
vt 0.5 0.5
vt 0.5 0.5
vt 0.5 0.5
vt 0.5 0.5
vt 0.5 0.5
vt 0.5 0.5
vt 0.5 0.5
vt 0.5 0.5
vt 0.5 0.5
vt 0.5 0.5
vt 0 0
vt 0.08333333333333333 0
vt 0.16666666666666666 0
vt 0.25 0
vt 0.3333333333333333 0
vt 0.4166666666666667 0
vt 0.5 0
vt 0.5833333333333334 0
vt 0.6666666666666666 0
vt 0.75 0
vt 0.8333333333333334 0
vt 0.9166666666666666 0
vt 0 1
vt 0.08333333333333333 1
vt 0.16666666666666666 1
vt 0.25 1
vt 0.3333333333333333 1
vt 0.4166666666666667 1
vt 0.5 1
vt 0.5833333333333334 1
vt 0.6666666666666666 1
vt 0.75 1
vt 0.8333333333333334 1
vt 0.9166666666666666 1
vt 0.5 0.5
vt 0.5 0.5
vt 0.5 0.5
vt 0.5 0.5
vt 0.5 0.5
vt 0.5 0.5
vt 0.5 0.5
vt 0.5 0.5
vt 0.5 0.5
vt 0.5 0.5
vt 0 0
vt 0.08333333333333333 0
vt 0.16666666666666666 0
vt 0.25 0
vt 0.3333333333333333 0
vt 0.4166666666666667 0
vt 0.5 0
vt 0.5833333333333334 0
vt 0.6666666666666666 0
vt 0.75 0
vt 0.8333333333333334 0
vt 0.9166666666666666 0
vt 0 1
vt 0.08333333333333333 1
vt 0.16666666666666666 1
vt 0.25 1
vt 0.3333333333333333 1
vt 0.4166666666666667 1
vt 0.5 1
vt 0.5833333333333334 1
vt 0.6666666666666666 1
vt 0.75 1
vt 0.8333333333333334 1
vt 0.9166666666666666 1
vt 0.5 0.5
vt 0.5 0.5
vt 0 0
vt 0.08333333333333333 0
vt 0.16666666666666666 0
vt 0.25 0
vt 0.3333333333333333 0
vt 0.4166666666666667 0
vt 0.5 0
vt 0.5833333333333334 0
vt 0.6666666666666666 0
vt 0.75 0
vt 0.8333333333333334 0
vt 0.9166666666666666 0
vt 0 1
vt 0.08333333333333333 1
vt 0.16666666666666666 1
vt 0.25 1
vt 0.3333333333333333 1
vt 0.4166666666666667 1
vt 0.5 1
vt 0.5833333333333334 1
vt 0.6666666666666666 1
vt 0.75 1
vt 0.8333333333333334 1
vt 0.9166666666666666 1
vt 0.5 0.5
vt 0.5 0.5
vt 0.5 0.5
vt 0.5 0.5
vt 0.5 0.5
vt 0.5 0.5
vt 0.5 0.5
vt 0.5 0.5
vt 0.5 0.5
vt 0.5 0.5
vt 0 0
vt 0.08333333333333333 0
vt 0.16666666666666666 0
vt 0.25 0
vt 0.3333333333333333 0
vt 0.4166666666666667 0
vt 0.5 0
vt 0.5833333333333334 0
vt 0.6666666666666666 0
vt 0.75 0
vt 0.8333333333333334 0
vt 0.9166666666666666 0
vt 0 1
vt 0.08333333333333333 1
vt 0.16666666666666666 1
vt 0.25 1
vt 0.3333333333333333 1
vt 0.4166666666666667 1
vt 0.5 1
vt 0.5833333333333334 1
vt 0.6666666666666666 1
vt 0.75 1
vt 0.8333333333333334 1
vt 0.9166666666666666 1
vt 0.5 0.5
vt 0.5 0.5
vt 0 0
vt 0.0625 0
vt 0.125 0
vt 0.1875 0
vt 0.25 0
vt 0.3125 0
vt 0.375 0
vt 0.4375 0
vt 0.5 0
vt 0.5625 0
vt 0.625 0
vt 0.6875 0
vt 0.75 0
vt 0.8125 0
vt 0.875 0
vt 0.9375 0
vt 0 1
vt 0.0625 1
vt 0.125 1
vt 0.1875 1
vt 0.25 1
vt 0.3125 1
vt 0.375 1
vt 0.4375 1
vt 0.5 1
vt 0.5625 1
vt 0.625 1
vt 0.6875 1
vt 0.75 1
vt 0.8125 1
vt 0.875 1
vt 0.9375 1
vt 0.5 0.5
vt 0.5 0.5
vt 0 0
vt 0.125 0
vt 0.25 0
vt 0.375 0
vt 0.5 0
vt 0.625 0
vt 0.75 0
vt 0.875 0
vt 0 1
vt 0.125 1
vt 0.25 1
vt 0.375 1
vt 0.5 1
vt 0.625 1
vt 0.75 1
vt 0.875 1
vt 0.5 0.5
vt 0.5 0.5
vt 0.5 0.5
vt 0.5 0.5
vt 0.5 0.5
vt 0.5 0.5
vt 0.5 0.5
vt 0.5 0.5
vt 0.5 0.5
vt 0.5 0.5
vt 0 0
vt 0.125 0
vt 0.25 0
vt 0.375 0
vt 0.5 0
vt 0.625 0
vt 0.75 0
vt 0.875 0
vt 0 1
vt 0.125 1
vt 0.25 1
vt 0.375 1
vt 0.5 1
vt 0.625 1
vt 0.75 1
vt 0.875 1
vt 0.5 0.5
vt 0.5 0.5
vt 0 0
vt 0.125 0
vt 0.25 0
vt 0.375 0
vt 0.5 0
vt 0.625 0
vt 0.75 0
vt 0.875 0
vt 0 1
vt 0.125 1
vt 0.25 1
vt 0.375 1
vt 0.5 1
vt 0.625 1
vt 0.75 1
vt 0.875 1
vt 0.5 0.5
vt 0.5 0.5
vt 0 0
vt 0.125 0
vt 0.25 0
vt 0.375 0
vt 0.5 0
vt 0.625 0
vt 0.75 0
vt 0.875 0
vt 0 1
vt 0.125 1
vt 0.25 1
vt 0.375 1
vt 0.5 1
vt 0.625 1
vt 0.75 1
vt 0.875 1
vt 0.5 0.5
vt 0.5 0.5
vt 0 0
vt 0.125 0
vt 0.25 0
vt 0.375 0
vt 0.5 0
vt 0.625 0
vt 0.75 0
vt 0.875 0
vt 0 1
vt 0.125 1
vt 0.25 1
vt 0.375 1
vt 0.5 1
vt 0.625 1
vt 0.75 1
vt 0.875 1
vt 0.5 0.5
vt 0.5 0.5
vt 0 0
vt 0.08333333333333333 0
vt 0.16666666666666666 0
vt 0.25 0
vt 0.3333333333333333 0
vt 0.4166666666666667 0
vt 0.5 0
vt 0.5833333333333334 0
vt 0.6666666666666666 0
vt 0.75 0
vt 0.8333333333333334 0
vt 0.9166666666666666 0
vt 0 1
vt 0.08333333333333333 1
vt 0.16666666666666666 1
vt 0.25 1
vt 0.3333333333333333 1
vt 0.4166666666666667 1
vt 0.5 1
vt 0.5833333333333334 1
vt 0.6666666666666666 1
vt 0.75 1
vt 0.8333333333333334 1
vt 0.9166666666666666 1
vt 0.5 0.5
vt 0.5 0.5
vt 0 0
vt 0.125 0
vt 0.25 0
vt 0.375 0
vt 0.5 0
vt 0.625 0
vt 0.75 0
vt 0.875 0
vt 0 1
vt 0.125 1
vt 0.25 1
vt 0.375 1
vt 0.5 1
vt 0.625 1
vt 0.75 1
vt 0.875 1
vt 0.5 0.5
vt 0.5 0.5
vt 0 0
vt 0.08333333333333333 0
vt 0.16666666666666666 0
vt 0.25 0
vt 0.3333333333333333 0
vt 0.4166666666666667 0
vt 0.5 0
vt 0.5833333333333334 0
vt 0.6666666666666666 0
vt 0.75 0
vt 0.8333333333333334 0
vt 0.9166666666666666 0
vt 0 1
vt 0.08333333333333333 1
vt 0.16666666666666666 1
vt 0.25 1
vt 0.3333333333333333 1
vt 0.4166666666666667 1
vt 0.5 1
vt 0.5833333333333334 1
vt 0.6666666666666666 1
vt 0.75 1
vt 0.8333333333333334 1
vt 0.9166666666666666 1
vt 0.5 0.5
vt 0.5 0.5
vt 0 0
vt 0.1 0
vt 0.2 0
vt 0.3 0
vt 0.4 0
vt 0.5 0
vt 0.6 0
vt 0.7 0
vt 0.8 0
vt 0.9 0
vt 0 1
vt 0.1 1
vt 0.2 1
vt 0.3 1
vt 0.4 1
vt 0.5 1
vt 0.6 1
vt 0.7 1
vt 0.8 1
vt 0.9 1
vt 0.5 0.5
vt 0.5 0.5
vt 0 0
vt 0.1 0
vt 0.2 0
vt 0.3 0
vt 0.4 0
vt 0.5 0
vt 0.6 0
vt 0.7 0
vt 0.8 0
vt 0.9 0
vt 0 1
vt 0.1 1
vt 0.2 1
vt 0.3 1
vt 0.4 1
vt 0.5 1
vt 0.6 1
vt 0.7 1
vt 0.8 1
vt 0.9 1
vt 0.5 0.5
vt 0.5 0.5
vt 0 0
vt 0.1 0
vt 0.2 0
vt 0.3 0
vt 0.4 0
vt 0.5 0
vt 0.6 0
vt 0.7 0
vt 0.8 0
vt 0.9 0
vt 0 1
vt 0.1 1
vt 0.2 1
vt 0.3 1
vt 0.4 1
vt 0.5 1
vt 0.6 1
vt 0.7 1
vt 0.8 1
vt 0.9 1
vt 0.5 0.5
vt 0.5 0.5
vt 0 0
vt 0.1 0
vt 0.2 0
vt 0.3 0
vt 0.4 0
vt 0.5 0
vt 0.6 0
vt 0.7 0
vt 0.8 0
vt 0.9 0
vt 0 1
vt 0.1 1
vt 0.2 1
vt 0.3 1
vt 0.4 1
vt 0.5 1
vt 0.6 1
vt 0.7 1
vt 0.8 1
vt 0.9 1
vt 0.5 0.5
vt 0.5 0.5
vt 0 0
vt 0.16666666666666666 0
vt 0.3333333333333333 0
vt 0.5 0
vt 0.6666666666666666 0
vt 0.8333333333333334 0
vt 0 1
vt 0.16666666666666666 1
vt 0.3333333333333333 1
vt 0.5 1
vt 0.6666666666666666 1
vt 0.8333333333333334 1
vt 0.5 0.5
vt 0.5 0.5
vt 0.5 0.5
vt 0.5 0.5
vt 0.5 0.5
vt 0.5 0.5
vt 0.5 0.5
vt 0.5 0.5
vt 0.5 0.5
vt 0.5 0.5
vn 1 0 0
vn 0.5000000000000001 0.8660254037844386 0
vn -0.4999999999999998 0.8660254037844387 0
vn -1 1.2246467991473532e-16 0
vn -0.5000000000000004 -0.8660254037844385 0
vn 0.5000000000000001 -0.8660254037844386 0
vn 1 -2.4492935982947064e-16 0
vn 0.8090169943749475 0 0.5877852522924731
vn 0.40450849718747384 0.8660254037844386 0.2938926261462366
vn -0.40450849718747356 0.8660254037844387 -0.29389262614623646
vn -0.8090169943749475 1.2246467991473532e-16 -0.5877852522924731
vn -0.40450849718747406 -0.8660254037844385 -0.29389262614623685
vn 0.40450849718747384 -0.8660254037844386 0.2938926261462366
vn 0.8090169943749475 -2.4492935982947064e-16 0.5877852522924731
vn 0.30901699437494745 0 0.9510565162951535
vn 0.15450849718747375 0.8660254037844386 0.4755282581475769
vn -0.15450849718747367 0.8660254037844387 -0.47552825814757654
vn -0.30901699437494745 1.2246467991473532e-16 -0.9510565162951535
vn -0.15450849718747386 -0.8660254037844385 -0.4755282581475772
vn 0.15450849718747375 -0.8660254037844386 0.4755282581475769
vn 0.30901699437494745 -2.4492935982947064e-16 0.9510565162951535
vn -0.30901699437494734 0 0.9510565162951536
vn -0.1545084971874737 0.8660254037844386 0.47552825814757693
vn 0.15450849718747361 0.8660254037844387 -0.4755282581475766
vn 0.30901699437494734 1.2246467991473532e-16 -0.9510565162951536
vn 0.1545084971874738 -0.8660254037844385 -0.47552825814757727
vn -0.1545084971874737 -0.8660254037844386 0.47552825814757693
vn -0.30901699437494734 -2.4492935982947064e-16 0.9510565162951536
vn -0.8090169943749473 0 0.5877852522924732
vn -0.4045084971874738 0.8660254037844386 0.2938926261462367
vn 0.4045084971874735 0.8660254037844387 -0.2938926261462365
vn 0.8090169943749473 1.2246467991473532e-16 -0.5877852522924732
vn 0.404508497187474 -0.8660254037844385 -0.2938926261462369
vn -0.4045084971874738 -0.8660254037844386 0.2938926261462367
vn -0.8090169943749473 -2.4492935982947064e-16 0.5877852522924732
vn -1 0 1.2246467991473532e-16
vn -0.5000000000000001 0.8660254037844386 6.123233995736767e-17
vn 0.4999999999999998 0.8660254037844387 -6.123233995736764e-17
vn 1 1.2246467991473532e-16 -1.2246467991473532e-16
vn 0.5000000000000004 -0.8660254037844385 -6.123233995736771e-17
vn -0.5000000000000001 -0.8660254037844386 6.123233995736767e-17
vn -1 -2.4492935982947064e-16 1.2246467991473532e-16
vn -0.8090169943749475 0 -0.587785252292473
vn -0.40450849718747384 0.8660254037844386 -0.29389262614623657
vn 0.40450849718747356 0.8660254037844387 0.2938926261462364
vn 0.8090169943749475 1.2246467991473532e-16 0.587785252292473
vn 0.40450849718747406 -0.8660254037844385 0.2938926261462368
vn -0.40450849718747384 -0.8660254037844386 -0.29389262614623657
vn -0.8090169943749475 -2.4492935982947064e-16 -0.587785252292473
vn -0.30901699437494756 0 -0.9510565162951535
vn -0.1545084971874738 0.8660254037844386 -0.4755282581475769
vn 0.15450849718747373 0.8660254037844387 0.47552825814757654
vn 0.30901699437494756 1.2246467991473532e-16 0.9510565162951535
vn 0.15450849718747392 -0.8660254037844385 0.4755282581475772
vn -0.1545084971874738 -0.8660254037844386 -0.4755282581475769
vn -0.30901699437494756 -2.4492935982947064e-16 -0.9510565162951535
vn 0.30901699437494723 0 -0.9510565162951536
vn 0.15450849718747364 0.8660254037844386 -0.47552825814757693
vn -0.15450849718747356 0.8660254037844387 0.4755282581475766
vn -0.30901699437494723 1.2246467991473532e-16 0.9510565162951536
vn -0.15450849718747375 -0.8660254037844385 0.47552825814757727
vn 0.15450849718747364 -0.8660254037844386 -0.47552825814757693
vn 0.30901699437494723 -2.4492935982947064e-16 -0.9510565162951536
vn 0.8090169943749473 0 -0.5877852522924734
vn 0.4045084971874738 0.8660254037844386 -0.29389262614623674
vn -0.4045084971874735 0.8660254037844387 0.29389262614623657
vn -0.8090169943749473 1.2246467991473532e-16 0.5877852522924734
vn -0.404508497187474 -0.8660254037844385 0.29389262614623696
vn 0.4045084971874738 -0.8660254037844386 -0.29389262614623674
vn 0.8090169943749473 -2.4492935982947064e-16 -0.5877852522924734
vn 1 0 -2.4492935982947064e-16
vn 0.5000000000000001 0.8660254037844386 -1.2246467991473535e-16
vn -0.4999999999999998 0.8660254037844387 1.2246467991473527e-16
vn -1 1.2246467991473532e-16 2.4492935982947064e-16
vn -0.5000000000000004 -0.8660254037844385 1.2246467991473542e-16
vn 0.5000000000000001 -0.8660254037844386 -1.2246467991473535e-16
vn 1 -2.4492935982947064e-16 -2.4492935982947064e-16
vn 1 0 0
vn 0.5000000000000001 0.8660254037844386 0
vn -0.4999999999999998 0.8660254037844387 0
vn -1 1.2246467991473532e-16 0
vn -0.5000000000000004 -0.8660254037844385 0
vn 0.5000000000000001 -0.8660254037844386 0
vn 1 -2.4492935982947064e-16 0
vn 0.8090169943749475 0 0.5877852522924731
vn 0.40450849718747384 0.8660254037844386 0.2938926261462366
vn -0.40450849718747356 0.8660254037844387 -0.29389262614623646
vn -0.8090169943749475 1.2246467991473532e-16 -0.5877852522924731
vn -0.40450849718747406 -0.8660254037844385 -0.29389262614623685
vn 0.40450849718747384 -0.8660254037844386 0.2938926261462366
vn 0.8090169943749475 -2.4492935982947064e-16 0.5877852522924731
vn 0.30901699437494745 0 0.9510565162951535
vn 0.15450849718747375 0.8660254037844386 0.4755282581475769
vn -0.15450849718747367 0.8660254037844387 -0.47552825814757654
vn -0.30901699437494745 1.2246467991473532e-16 -0.9510565162951535
vn -0.15450849718747386 -0.8660254037844385 -0.4755282581475772
vn 0.15450849718747375 -0.8660254037844386 0.4755282581475769
vn 0.30901699437494745 -2.4492935982947064e-16 0.9510565162951535
vn -0.30901699437494734 0 0.9510565162951536
vn -0.1545084971874737 0.8660254037844386 0.47552825814757693
vn 0.15450849718747361 0.8660254037844387 -0.4755282581475766
vn 0.30901699437494734 1.2246467991473532e-16 -0.9510565162951536
vn 0.1545084971874738 -0.8660254037844385 -0.47552825814757727
vn -0.1545084971874737 -0.8660254037844386 0.47552825814757693
vn -0.30901699437494734 -2.4492935982947064e-16 0.9510565162951536
vn -0.8090169943749473 0 0.5877852522924732
vn -0.4045084971874738 0.8660254037844386 0.2938926261462367
vn 0.4045084971874735 0.8660254037844387 -0.2938926261462365
vn 0.8090169943749473 1.2246467991473532e-16 -0.5877852522924732
vn 0.404508497187474 -0.8660254037844385 -0.2938926261462369
vn -0.4045084971874738 -0.8660254037844386 0.2938926261462367
vn -0.8090169943749473 -2.4492935982947064e-16 0.5877852522924732
vn -1 0 1.2246467991473532e-16
vn -0.5000000000000001 0.8660254037844386 6.123233995736767e-17
vn 0.4999999999999998 0.8660254037844387 -6.123233995736764e-17
vn 1 1.2246467991473532e-16 -1.2246467991473532e-16
vn 0.5000000000000004 -0.8660254037844385 -6.123233995736771e-17
vn -0.5000000000000001 -0.8660254037844386 6.123233995736767e-17
vn -1 -2.4492935982947064e-16 1.2246467991473532e-16
vn -0.8090169943749475 0 -0.587785252292473
vn -0.40450849718747384 0.8660254037844386 -0.29389262614623657
vn 0.40450849718747356 0.8660254037844387 0.2938926261462364
vn 0.8090169943749475 1.2246467991473532e-16 0.587785252292473
vn 0.40450849718747406 -0.8660254037844385 0.2938926261462368
vn -0.40450849718747384 -0.8660254037844386 -0.29389262614623657
vn -0.8090169943749475 -2.4492935982947064e-16 -0.587785252292473
vn -0.30901699437494756 0 -0.9510565162951535
vn -0.1545084971874738 0.8660254037844386 -0.4755282581475769
vn 0.15450849718747373 0.8660254037844387 0.47552825814757654
vn 0.30901699437494756 1.2246467991473532e-16 0.9510565162951535
vn 0.15450849718747392 -0.8660254037844385 0.4755282581475772
vn -0.1545084971874738 -0.8660254037844386 -0.4755282581475769
vn -0.30901699437494756 -2.4492935982947064e-16 -0.9510565162951535
vn 0.30901699437494723 0 -0.9510565162951536
vn 0.15450849718747364 0.8660254037844386 -0.47552825814757693
vn -0.15450849718747356 0.8660254037844387 0.4755282581475766
vn -0.30901699437494723 1.2246467991473532e-16 0.9510565162951536
vn -0.15450849718747375 -0.8660254037844385 0.47552825814757727
vn 0.15450849718747364 -0.8660254037844386 -0.47552825814757693
vn 0.30901699437494723 -2.4492935982947064e-16 -0.9510565162951536
vn 0.8090169943749473 0 -0.5877852522924734
vn 0.4045084971874738 0.8660254037844386 -0.29389262614623674
vn -0.4045084971874735 0.8660254037844387 0.29389262614623657
vn -0.8090169943749473 1.2246467991473532e-16 0.5877852522924734
vn -0.404508497187474 -0.8660254037844385 0.29389262614623696
vn 0.4045084971874738 -0.8660254037844386 -0.29389262614623674
vn 0.8090169943749473 -2.4492935982947064e-16 -0.5877852522924734
vn 1 0 -2.4492935982947064e-16
vn 0.5000000000000001 0.8660254037844386 -1.2246467991473535e-16
vn -0.4999999999999998 0.8660254037844387 1.2246467991473527e-16
vn -1 1.2246467991473532e-16 2.4492935982947064e-16
vn -0.5000000000000004 -0.8660254037844385 1.2246467991473542e-16
vn 0.5000000000000001 -0.8660254037844386 -1.2246467991473535e-16
vn 1 -2.4492935982947064e-16 -2.4492935982947064e-16
vn 0 -1 0
vn 0 -1 0
vn 0 -1 0
vn 0 -1 0
vn 0 -1 0
vn 0 -1 0
vn 0 -1 0
vn 0 -1 0
vn 0 -1 0
vn 0 -1 0
vn 0 -1 0
vn 0 -1 0
vn 0 -1 0
vn 0 -1 0
vn 0 -1 0
vn 0 -1 0
vn 0 1 0
vn 0 1 0
vn 0 1 0
vn 0 1 0
vn 0 1 0
vn 0 1 0
vn 0 1 0
vn 0 1 0
vn 0 1 0
vn 0 1 0
vn 0 1 0
vn 0 1 0
vn 0 1 0
vn 0 1 0
vn 0 1 0
vn 0 1 0
vn 0 -1 0
vn 0 1 0
vn 0 -1 0
vn 0 -1 0
vn 0 -1 0
vn 0 -1 0
vn 0 -1 0
vn 0 -1 0
vn 0 -1 0
vn 0 -1 0
vn 0 -1 0
vn 0 -1 0
vn 0 -1 0
vn 0 -1 0
vn 0 -1 0
vn 0 -1 0
vn 0 -1 0
vn 0 -1 0
vn 0 1 0
vn 0 1 0
vn 0 1 0
vn 0 1 0
vn 0 1 0
vn 0 1 0
vn 0 1 0
vn 0 1 0
vn 0 1 0
vn 0 1 0
vn 0 1 0
vn 0 1 0
vn 0 1 0
vn 0 1 0
vn 0 1 0
vn 0 1 0
vn 0 -1 0
vn 0 1 0
vn 0 -1 0
vn 0 -1 0
vn 0 -1 0
vn 0 -1 0
vn 0 -1 0
vn 0 -1 0
vn 0 -1 0
vn 0 -1 0
vn 0 -1 0
vn 0 -1 0
vn 0 -1 0
vn 0 -1 0
vn 0 1 0
vn 0 1 0
vn 0 1 0
vn 0 1 0
vn 0 1 0
vn 0 1 0
vn 0 1 0
vn 0 1 0
vn 0 1 0
vn 0 1 0
vn 0 1 0
vn 0 1 0
vn 0 -1 0
vn 0 1 0
vn 0 1 0
vn 0 1 0
vn 0 1 0
vn 0 1 0
vn 0 1 0
vn 0 1 0
vn 0 1 0
vn 0 1 0
vn 0 -1 0
vn 0 -1 0
vn 0 -1 0
vn 0 -1 0
vn 0 -1 0
vn 0 -1 0
vn 0 -1 0
vn 0 -1 0
vn 0 -1 0
vn 0 -1 0
vn 0 -1 0
vn 0 -1 0
vn 0 1 0
vn 0 1 0
vn 0 1 0
vn 0 1 0
vn 0 1 0
vn 0 1 0
vn 0 1 0
vn 0 1 0
vn 0 1 0
vn 0 1 0
vn 0 1 0
vn 0 1 0
vn 0 -1 0
vn 0 1 0
vn 0 1 0
vn 0 1 0
vn 0 1 0
vn 0 1 0
vn 0 1 0
vn 0 1 0
vn 0 1 0
vn 0 1 0
vn 0 -1 0
vn 0 -1 0
vn 0 -1 0
vn 0 -1 0
vn 0 -1 0
vn 0 -1 0
vn 0 -1 0
vn 0 -1 0
vn 0 -1 0
vn 0 -1 0
vn 0 -1 0
vn 0 -1 0
vn 0 1 0
vn 0 1 0
vn 0 1 0
vn 0 1 0
vn 0 1 0
vn 0 1 0
vn 0 1 0
vn 0 1 0
vn 0 1 0
vn 0 1 0
vn 0 1 0
vn 0 1 0
vn 0 -1 0
vn 0 1 0
vn 0 -1 0
vn 0 -1 0
vn 0 -1 0
vn 0 -1 0
vn 0 -1 0
vn 0 -1 0
vn 0 -1 0
vn 0 -1 0
vn 0 -1 0
vn 0 -1 0
vn 0 -1 0
vn 0 -1 0
vn 0 1 0
vn 0 1 0
vn 0 1 0
vn 0 1 0
vn 0 1 0
vn 0 1 0
vn 0 1 0
vn 0 1 0
vn 0 1 0
vn 0 1 0
vn 0 1 0
vn 0 1 0
vn 0 -1 0
vn 0 1 0
vn 0 1 0
vn 0 1 0
vn 0 1 0
vn 0 1 0
vn 0 1 0
vn 0 1 0
vn 0 1 0
vn 0 1 0
vn 0 -1 0
vn 0 -1 0
vn 0 -1 0
vn 0 -1 0
vn 0 -1 0
vn 0 -1 0
vn 0 -1 0
vn 0 -1 0
vn 0 -1 0
vn 0 -1 0
vn 0 -1 0
vn 0 -1 0
vn 0 1 0
vn 0 1 0
vn 0 1 0
vn 0 1 0
vn 0 1 0
vn 0 1 0
vn 0 1 0
vn 0 1 0
vn 0 1 0
vn 0 1 0
vn 0 1 0
vn 0 1 0
vn 0 -1 0
vn 0 1 0
vn 0 -1 0
vn 0 -1 0
vn 0 -1 0
vn 0 -1 0
vn 0 -1 0
vn 0 -1 0
vn 0 -1 0
vn 0 -1 0
vn 0 -1 0
vn 0 -1 0
vn 0 -1 0
vn 0 -1 0
vn 0 -1 0
vn 0 -1 0
vn 0 -1 0
vn 0 -1 0
vn 0 1 0
vn 0 1 0
vn 0 1 0
vn 0 1 0
vn 0 1 0
vn 0 1 0
vn 0 1 0
vn 0 1 0
vn 0 1 0
vn 0 1 0
vn 0 1 0
vn 0 1 0
vn 0 1 0
vn 0 1 0
vn 0 1 0
vn 0 1 0
vn 0 -1 0
vn 0 1 0
vn 0 -1 0
vn 0 -1 0
vn 0 -1 0
vn 0 -1 0
vn 0 -1 0
vn 0 -1 0
vn 0 -1 0
vn 0 -1 0
vn 0 1 0
vn 0 1 0
vn 0 1 0
vn 0 1 0
vn 0 1 0
vn 0 1 0
vn 0 1 0
vn 0 1 0
vn 0 -1 0
vn 0 1 0
vn 0 1 0
vn 0 1 0
vn 0 1 0
vn 0 1 0
vn 0 1 0
vn 0 1 0
vn 0 1 0
vn 0 1 0
vn 0 -1 0
vn 0 -1 0
vn 0 -1 0
vn 0 -1 0
vn 0 -1 0
vn 0 -1 0
vn 0 -1 0
vn 0 -1 0
vn 0 1 0
vn 0 1 0
vn 0 1 0
vn 0 1 0
vn 0 1 0
vn 0 1 0
vn 0 1 0
vn 0 1 0
vn 0 -1 0
vn 0 1 0
vn 0 -1 0
vn 0 -1 0
vn 0 -1 0
vn 0 -1 0
vn 0 -1 0
vn 0 -1 0
vn 0 -1 0
vn 0 -1 0
vn 0 1 0
vn 0 1 0
vn 0 1 0
vn 0 1 0
vn 0 1 0
vn 0 1 0
vn 0 1 0
vn 0 1 0
vn 0 -1 0
vn 0 1 0
vn 0 -1 0
vn 0 -1 0
vn 0 -1 0
vn 0 -1 0
vn 0 -1 0
vn 0 -1 0
vn 0 -1 0
vn 0 -1 0
vn 0 1 0
vn 0 1 0
vn 0 1 0
vn 0 1 0
vn 0 1 0
vn 0 1 0
vn 0 1 0
vn 0 1 0
vn 0 -1 0
vn 0 1 0
vn 0 -1 0
vn 0 -1 0
vn 0 -1 0
vn 0 -1 0
vn 0 -1 0
vn 0 -1 0
vn 0 -1 0
vn 0 -1 0
vn 0 1 0
vn 0 1 0
vn 0 1 0
vn 0 1 0
vn 0 1 0
vn 0 1 0
vn 0 1 0
vn 0 1 0
vn 0 -1 0
vn 0 1 0
vn 0 -1 0
vn 0 -1 0
vn 0 -1 0
vn 0 -1 0
vn 0 -1 0
vn 0 -1 0
vn 0 -1 0
vn 0 -1 0
vn 0 -1 0
vn 0 -1 0
vn 0 -1 0
vn 0 -1 0
vn 0 1 0
vn 0 1 0
vn 0 1 0
vn 0 1 0
vn 0 1 0
vn 0 1 0
vn 0 1 0
vn 0 1 0
vn 0 1 0
vn 0 1 0
vn 0 1 0
vn 0 1 0
vn 0 -1 0
vn 0 1 0
vn 0 -1 0
vn 0 -1 0
vn 0 -1 0
vn 0 -1 0
vn 0 -1 0
vn 0 -1 0
vn 0 -1 0
vn 0 -1 0
vn 0 1 0
vn 0 1 0
vn 0 1 0
vn 0 1 0
vn 0 1 0
vn 0 1 0
vn 0 1 0
vn 0 1 0
vn 0 -1 0
vn 0 1 0
vn 0 -1 0
vn 0 -1 0
vn 0 -1 0
vn 0 -1 0
vn 0 -1 0
vn 0 -1 0
vn 0 -1 0
vn 0 -1 0
vn 0 -1 0
vn 0 -1 0
vn 0 -1 0
vn 0 -1 0
vn 0 1 0
vn 0 1 0
vn 0 1 0
vn 0 1 0
vn 0 1 0
vn 0 1 0
vn 0 1 0
vn 0 1 0
vn 0 1 0
vn 0 1 0
vn 0 1 0
vn 0 1 0
vn 0 -1 0
vn 0 1 0
vn 0 -1 0
vn 0 -1 0
vn 0 -1 0
vn 0 -1 0
vn 0 -1 0
vn 0 -1 0
vn 0 -1 0
vn 0 -1 0
vn 0 -1 0
vn 0 -1 0
vn 0 1 0
vn 0 1 0
vn 0 1 0
vn 0 1 0
vn 0 1 0
vn 0 1 0
vn 0 1 0
vn 0 1 0
vn 0 1 0
vn 0 1 0
vn 0 -1 0
vn 0 1 0
vn 0 -1 0
vn 0 -1 0
vn 0 -1 0
vn 0 -1 0
vn 0 -1 0
vn 0 -1 0
vn 0 -1 0
vn 0 -1 0
vn 0 -1 0
vn 0 -1 0
vn 0 1 0
vn 0 1 0
vn 0 1 0
vn 0 1 0
vn 0 1 0
vn 0 1 0
vn 0 1 0
vn 0 1 0
vn 0 1 0
vn 0 1 0
vn 0 -1 0
vn 0 1 0
vn 0 -1 0
vn 0 -1 0
vn 0 -1 0
vn 0 -1 0
vn 0 -1 0
vn 0 -1 0
vn 0 -1 0
vn 0 -1 0
vn 0 -1 0
vn 0 -1 0
vn 0 1 0
vn 0 1 0
vn 0 1 0
vn 0 1 0
vn 0 1 0
vn 0 1 0
vn 0 1 0
vn 0 1 0
vn 0 1 0
vn 0 1 0
vn 0 -1 0
vn 0 1 0
vn 0 -1 0
vn 0 -1 0
vn 0 -1 0
vn 0 -1 0
vn 0 -1 0
vn 0 -1 0
vn 0 -1 0
vn 0 -1 0
vn 0 -1 0
vn 0 -1 0
vn 0 1 0
vn 0 1 0
vn 0 1 0
vn 0 1 0
vn 0 1 0
vn 0 1 0
vn 0 1 0
vn 0 1 0
vn 0 1 0
vn 0 1 0
vn 0 -1 0
vn 0 1 0
vn 0 -1 0
vn 0 -1 0
vn 0 -1 0
vn 0 -1 0
vn 0 -1 0
vn 0 -1 0
vn 0 1 0
vn 0 1 0
vn 0 1 0
vn 0 1 0
vn 0 1 0
vn 0 1 0
vn 0 -1 0
vn 0 1 0
vn 0 1 0
vn 0 1 0
vn 0 1 0
vn 0 1 0
vn 0 1 0
vn 0 1 0
vn 0 1 0
vn 0 1 0
f 1/1/1 8/8/8 9/9/9
f 1/1/1 9/9/9 2/2/2
f 2/2/2 9/9/9 10/10/10
f 2/2/2 10/10/10 3/3/3
f 3/3/3 10/10/10 11/11/11
f 3/3/3 11/11/11 4/4/4
f 4/4/4 11/11/11 12/12/12
f 4/4/4 12/12/12 5/5/5
f 5/5/5 12/12/12 13/13/13
f 5/5/5 13/13/13 6/6/6
f 6/6/6 13/13/13 14/14/14
f 6/6/6 14/14/14 7/7/7
f 8/8/8 15/15/15 16/16/16
f 8/8/8 16/16/16 9/9/9
f 9/9/9 16/16/16 17/17/17
f 9/9/9 17/17/17 10/10/10
f 10/10/10 17/17/17 18/18/18
f 10/10/10 18/18/18 11/11/11
f 11/11/11 18/18/18 19/19/19
f 11/11/11 19/19/19 12/12/12
f 12/12/12 19/19/19 20/20/20
f 12/12/12 20/20/20 13/13/13
f 13/13/13 20/20/20 21/21/21
f 13/13/13 21/21/21 14/14/14
f 15/15/15 22/22/22 23/23/23
f 15/15/15 23/23/23 16/16/16
f 16/16/16 23/23/23 24/24/24
f 16/16/16 24/24/24 17/17/17
f 17/17/17 24/24/24 25/25/25
f 17/17/17 25/25/25 18/18/18
f 18/18/18 25/25/25 26/26/26
f 18/18/18 26/26/26 19/19/19
f 19/19/19 26/26/26 27/27/27
f 19/19/19 27/27/27 20/20/20
f 20/20/20 27/27/27 28/28/28
f 20/20/20 28/28/28 21/21/21
f 22/22/22 29/29/29 30/30/30
f 22/22/22 30/30/30 23/23/23
f 23/23/23 30/30/30 31/31/31
f 23/23/23 31/31/31 24/24/24
f 24/24/24 31/31/31 32/32/32
f 24/24/24 32/32/32 25/25/25
f 25/25/25 32/32/32 33/33/33
f 25/25/25 33/33/33 26/26/26
f 26/26/26 33/33/33 34/34/34
f 26/26/26 34/34/34 27/27/27
f 27/27/27 34/34/34 35/35/35
f 27/27/27 35/35/35 28/28/28
f 29/29/29 36/36/36 37/37/37
f 29/29/29 37/37/37 30/30/30
f 30/30/30 37/37/37 38/38/38
f 30/30/30 38/38/38 31/31/31
f 31/31/31 38/38/38 39/39/39
f 31/31/31 39/39/39 32/32/32
f 32/32/32 39/39/39 40/40/40
f 32/32/32 40/40/40 33/33/33
f 33/33/33 40/40/40 41/41/41
f 33/33/33 41/41/41 34/34/34
f 34/34/34 41/41/41 42/42/42
f 34/34/34 42/42/42 35/35/35
f 36/36/36 43/43/43 44/44/44
f 36/36/36 44/44/44 37/37/37
f 37/37/37 44/44/44 45/45/45
f 37/37/37 45/45/45 38/38/38
f 38/38/38 45/45/45 46/46/46
f 38/38/38 46/46/46 39/39/39
f 39/39/39 46/46/46 47/47/47
f 39/39/39 47/47/47 40/40/40
f 40/40/40 47/47/47 48/48/48
f 40/40/40 48/48/48 41/41/41
f 41/41/41 48/48/48 49/49/49
f 41/41/41 49/49/49 42/42/42
f 43/43/43 50/50/50 51/51/51
f 43/43/43 51/51/51 44/44/44
f 44/44/44 51/51/51 52/52/52
f 44/44/44 52/52/52 45/45/45
f 45/45/45 52/52/52 53/53/53
f 45/45/45 53/53/53 46/46/46
f 46/46/46 53/53/53 54/54/54
f 46/46/46 54/54/54 47/47/47
f 47/47/47 54/54/54 55/55/55
f 47/47/47 55/55/55 48/48/48
f 48/48/48 55/55/55 56/56/56
f 48/48/48 56/56/56 49/49/49
f 50/50/50 57/57/57 58/58/58
f 50/50/50 58/58/58 51/51/51
f 51/51/51 58/58/58 59/59/59
f 51/51/51 59/59/59 52/52/52
f 52/52/52 59/59/59 60/60/60
f 52/52/52 60/60/60 53/53/53
f 53/53/53 60/60/60 61/61/61
f 53/53/53 61/61/61 54/54/54
f 54/54/54 61/61/61 62/62/62
f 54/54/54 62/62/62 55/55/55
f 55/55/55 62/62/62 63/63/63
f 55/55/55 63/63/63 56/56/56
f 57/57/57 64/64/64 65/65/65
f 57/57/57 65/65/65 58/58/58
f 58/58/58 65/65/65 66/66/66
f 58/58/58 66/66/66 59/59/59
f 59/59/59 66/66/66 67/67/67
f 59/59/59 67/67/67 60/60/60
f 60/60/60 67/67/67 68/68/68
f 60/60/60 68/68/68 61/61/61
f 61/61/61 68/68/68 69/69/69
f 61/61/61 69/69/69 62/62/62
f 62/62/62 69/69/69 70/70/70
f 62/62/62 70/70/70 63/63/63
f 64/64/64 71/71/71 72/72/72
f 64/64/64 72/72/72 65/65/65
f 65/65/65 72/72/72 73/73/73
f 65/65/65 73/73/73 66/66/66
f 66/66/66 73/73/73 74/74/74
f 66/66/66 74/74/74 67/67/67
f 67/67/67 74/74/74 75/75/75
f 67/67/67 75/75/75 68/68/68
f 68/68/68 75/75/75 76/76/76
f 68/68/68 76/76/76 69/69/69
f 69/69/69 76/76/76 77/77/77
f 69/69/69 77/77/77 70/70/70
f 78/78/78 85/85/85 86/86/86
f 78/78/78 86/86/86 79/79/79
f 79/79/79 86/86/86 87/87/87
f 79/79/79 87/87/87 80/80/80
f 80/80/80 87/87/87 88/88/88
f 80/80/80 88/88/88 81/81/81
f 81/81/81 88/88/88 89/89/89
f 81/81/81 89/89/89 82/82/82
f 82/82/82 89/89/89 90/90/90
f 82/82/82 90/90/90 83/83/83
f 83/83/83 90/90/90 91/91/91
f 83/83/83 91/91/91 84/84/84
f 85/85/85 92/92/92 93/93/93
f 85/85/85 93/93/93 86/86/86
f 86/86/86 93/93/93 94/94/94
f 86/86/86 94/94/94 87/87/87
f 87/87/87 94/94/94 95/95/95
f 87/87/87 95/95/95 88/88/88
f 88/88/88 95/95/95 96/96/96
f 88/88/88 96/96/96 89/89/89
f 89/89/89 96/96/96 97/97/97
f 89/89/89 97/97/97 90/90/90
f 90/90/90 97/97/97 98/98/98
f 90/90/90 98/98/98 91/91/91
f 92/92/92 99/99/99 100/100/100
f 92/92/92 100/100/100 93/93/93
f 93/93/93 100/100/100 101/101/101
f 93/93/93 101/101/101 94/94/94
f 94/94/94 101/101/101 102/102/102
f 94/94/94 102/102/102 95/95/95
f 95/95/95 102/102/102 103/103/103
f 95/95/95 103/103/103 96/96/96
f 96/96/96 103/103/103 104/104/104
f 96/96/96 104/104/104 97/97/97
f 97/97/97 104/104/104 105/105/105
f 97/97/97 105/105/105 98/98/98
f 99/99/99 106/106/106 107/107/107
f 99/99/99 107/107/107 100/100/100
f 100/100/100 107/107/107 108/108/108
f 100/100/100 108/108/108 101/101/101
f 101/101/101 108/108/108 109/109/109
f 101/101/101 109/109/109 102/102/102
f 102/102/102 109/109/109 110/110/110
f 102/102/102 110/110/110 103/103/103
f 103/103/103 110/110/110 111/111/111
f 103/103/103 111/111/111 104/104/104
f 104/104/104 111/111/111 112/112/112
f 104/104/104 112/112/112 105/105/105
f 106/106/106 113/113/113 114/114/114
f 106/106/106 114/114/114 107/107/107
f 107/107/107 114/114/114 115/115/115
f 107/107/107 115/115/115 108/108/108
f 108/108/108 115/115/115 116/116/116
f 108/108/108 116/116/116 109/109/109
f 109/109/109 116/116/116 117/117/117
f 109/109/109 117/117/117 110/110/110
f 110/110/110 117/117/117 118/118/118
f 110/110/110 118/118/118 111/111/111
f 111/111/111 118/118/118 119/119/119
f 111/111/111 119/119/119 112/112/112
f 113/113/113 120/120/120 121/121/121
f 113/113/113 121/121/121 114/114/114
f 114/114/114 121/121/121 122/122/122
f 114/114/114 122/122/122 115/115/115
f 115/115/115 122/122/122 123/123/123
f 115/115/115 123/123/123 116/116/116
f 116/116/116 123/123/123 124/124/124
f 116/116/116 124/124/124 117/117/117
f 117/117/117 124/124/124 125/125/125
f 117/117/117 125/125/125 118/118/118
f 118/118/118 125/125/125 126/126/126
f 118/118/118 126/126/126 119/119/119
f 120/120/120 127/127/127 128/128/128
f 120/120/120 128/128/128 121/121/121
f 121/121/121 128/128/128 129/129/129
f 121/121/121 129/129/129 122/122/122
f 122/122/122 129/129/129 130/130/130
f 122/122/122 130/130/130 123/123/123
f 123/123/123 130/130/130 131/131/131
f 123/123/123 131/131/131 124/124/124
f 124/124/124 131/131/131 132/132/132
f 124/124/124 132/132/132 125/125/125
f 125/125/125 132/132/132 133/133/133
f 125/125/125 133/133/133 126/126/126
f 127/127/127 134/134/134 135/135/135
f 127/127/127 135/135/135 128/128/128
f 128/128/128 135/135/135 136/136/136
f 128/128/128 136/136/136 129/129/129
f 129/129/129 136/136/136 137/137/137
f 129/129/129 137/137/137 130/130/130
f 130/130/130 137/137/137 138/138/138
f 130/130/130 138/138/138 131/131/131
f 131/131/131 138/138/138 139/139/139
f 131/131/131 139/139/139 132/132/132
f 132/132/132 139/139/139 140/140/140
f 132/132/132 140/140/140 133/133/133
f 134/134/134 141/141/141 142/142/142
f 134/134/134 142/142/142 135/135/135
f 135/135/135 142/142/142 143/143/143
f 135/135/135 143/143/143 136/136/136
f 136/136/136 143/143/143 144/144/144
f 136/136/136 144/144/144 137/137/137
f 137/137/137 144/144/144 145/145/145
f 137/137/137 145/145/145 138/138/138
f 138/138/138 145/145/145 146/146/146
f 138/138/138 146/146/146 139/139/139
f 139/139/139 146/146/146 147/147/147
f 139/139/139 147/147/147 140/140/140
f 141/141/141 148/148/148 149/149/149
f 141/141/141 149/149/149 142/142/142
f 142/142/142 149/149/149 150/150/150
f 142/142/142 150/150/150 143/143/143
f 143/143/143 150/150/150 151/151/151
f 143/143/143 151/151/151 144/144/144
f 144/144/144 151/151/151 152/152/152
f 144/144/144 152/152/152 145/145/145
f 145/145/145 152/152/152 153/153/153
f 145/145/145 153/153/153 146/146/146
f 146/146/146 153/153/153 154/154/154
f 146/146/146 154/154/154 147/147/147
f 155/155/155 156/156/156 172/172/172
f 155/155/155 172/172/172 171/171/171
f 187/187/187 156/156/156 155/155/155
f 188/188/188 171/171/171 172/172/172
f 156/156/156 157/157/157 173/173/173
f 156/156/156 173/173/173 172/172/172
f 187/187/187 157/157/157 156/156/156
f 188/188/188 172/172/172 173/173/173
f 157/157/157 158/158/158 174/174/174
f 157/157/157 174/174/174 173/173/173
f 187/187/187 158/158/158 157/157/157
f 188/188/188 173/173/173 174/174/174
f 158/158/158 159/159/159 175/175/175
f 158/158/158 175/175/175 174/174/174
f 187/187/187 159/159/159 158/158/158
f 188/188/188 174/174/174 175/175/175
f 159/159/159 160/160/160 176/176/176
f 159/159/159 176/176/176 175/175/175
f 187/187/187 160/160/160 159/159/159
f 188/188/188 175/175/175 176/176/176
f 160/160/160 161/161/161 177/177/177
f 160/160/160 177/177/177 176/176/176
f 187/187/187 161/161/161 160/160/160
f 188/188/188 176/176/176 177/177/177
f 161/161/161 162/162/162 178/178/178
f 161/161/161 178/178/178 177/177/177
f 187/187/187 162/162/162 161/161/161
f 188/188/188 177/177/177 178/178/178
f 162/162/162 163/163/163 179/179/179
f 162/162/162 179/179/179 178/178/178
f 187/187/187 163/163/163 162/162/162
f 188/188/188 178/178/178 179/179/179
f 163/163/163 164/164/164 180/180/180
f 163/163/163 180/180/180 179/179/179
f 187/187/187 164/164/164 163/163/163
f 188/188/188 179/179/179 180/180/180
f 164/164/164 165/165/165 181/181/181
f 164/164/164 181/181/181 180/180/180
f 187/187/187 165/165/165 164/164/164
f 188/188/188 180/180/180 181/181/181
f 165/165/165 166/166/166 182/182/182
f 165/165/165 182/182/182 181/181/181
f 187/187/187 166/166/166 165/165/165
f 188/188/188 181/181/181 182/182/182
f 166/166/166 167/167/167 183/183/183
f 166/166/166 183/183/183 182/182/182
f 187/187/187 167/167/167 166/166/166
f 188/188/188 182/182/182 183/183/183
f 167/167/167 168/168/168 184/184/184
f 167/167/167 184/184/184 183/183/183
f 187/187/187 168/168/168 167/167/167
f 188/188/188 183/183/183 184/184/184
f 168/168/168 169/169/169 185/185/185
f 168/168/168 185/185/185 184/184/184
f 187/187/187 169/169/169 168/168/168
f 188/188/188 184/184/184 185/185/185
f 169/169/169 170/170/170 186/186/186
f 169/169/169 186/186/186 185/185/185
f 187/187/187 170/170/170 169/169/169
f 188/188/188 185/185/185 186/186/186
f 170/170/170 155/155/155 171/171/171
f 170/170/170 171/171/171 186/186/186
f 187/187/187 155/155/155 170/170/170
f 188/188/188 186/186/186 171/171/171
f 189/189/189 190/190/190 206/206/206
f 189/189/189 206/206/206 205/205/205
f 221/221/221 190/190/190 189/189/189
f 222/222/222 205/205/205 206/206/206
f 190/190/190 191/191/191 207/207/207
f 190/190/190 207/207/207 206/206/206
f 221/221/221 191/191/191 190/190/190
f 222/222/222 206/206/206 207/207/207
f 191/191/191 192/192/192 208/208/208
f 191/191/191 208/208/208 207/207/207
f 221/221/221 192/192/192 191/191/191
f 222/222/222 207/207/207 208/208/208
f 192/192/192 193/193/193 209/209/209
f 192/192/192 209/209/209 208/208/208
f 221/221/221 193/193/193 192/192/192
f 222/222/222 208/208/208 209/209/209
f 193/193/193 194/194/194 210/210/210
f 193/193/193 210/210/210 209/209/209
f 221/221/221 194/194/194 193/193/193
f 222/222/222 209/209/209 210/210/210
f 194/194/194 195/195/195 211/211/211
f 194/194/194 211/211/211 210/210/210
f 221/221/221 195/195/195 194/194/194
f 222/222/222 210/210/210 211/211/211
f 195/195/195 196/196/196 212/212/212
f 195/195/195 212/212/212 211/211/211
f 221/221/221 196/196/196 195/195/195
f 222/222/222 211/211/211 212/212/212
f 196/196/196 197/197/197 213/213/213
f 196/196/196 213/213/213 212/212/212
f 221/221/221 197/197/197 196/196/196
f 222/222/222 212/212/212 213/213/213
f 197/197/197 198/198/198 214/214/214
f 197/197/197 214/214/214 213/213/213
f 221/221/221 198/198/198 197/197/197
f 222/222/222 213/213/213 214/214/214
f 198/198/198 199/199/199 215/215/215
f 198/198/198 215/215/215 214/214/214
f 221/221/221 199/199/199 198/198/198
f 222/222/222 214/214/214 215/215/215
f 199/199/199 200/200/200 216/216/216
f 199/199/199 216/216/216 215/215/215
f 221/221/221 200/200/200 199/199/199
f 222/222/222 215/215/215 216/216/216
f 200/200/200 201/201/201 217/217/217
f 200/200/200 217/217/217 216/216/216
f 221/221/221 201/201/201 200/200/200
f 222/222/222 216/216/216 217/217/217
f 201/201/201 202/202/202 218/218/218
f 201/201/201 218/218/218 217/217/217
f 221/221/221 202/202/202 201/201/201
f 222/222/222 217/217/217 218/218/218
f 202/202/202 203/203/203 219/219/219
f 202/202/202 219/219/219 218/218/218
f 221/221/221 203/203/203 202/202/202
f 222/222/222 218/218/218 219/219/219
f 203/203/203 204/204/204 220/220/220
f 203/203/203 220/220/220 219/219/219
f 221/221/221 204/204/204 203/203/203
f 222/222/222 219/219/219 220/220/220
f 204/204/204 189/189/189 205/205/205
f 204/204/204 205/205/205 220/220/220
f 221/221/221 189/189/189 204/204/204
f 222/222/222 220/220/220 205/205/205
f 223/223/223 224/224/224 236/236/236
f 223/223/223 236/236/236 235/235/235
f 247/247/247 224/224/224 223/223/223
f 248/248/248 235/235/235 236/236/236
f 224/224/224 225/225/225 237/237/237
f 224/224/224 237/237/237 236/236/236
f 247/247/247 225/225/225 224/224/224
f 248/248/248 236/236/236 237/237/237
f 225/225/225 226/226/226 238/238/238
f 225/225/225 238/238/238 237/237/237
f 247/247/247 226/226/226 225/225/225
f 248/248/248 237/237/237 238/238/238
f 226/226/226 227/227/227 239/239/239
f 226/226/226 239/239/239 238/238/238
f 247/247/247 227/227/227 226/226/226
f 248/248/248 238/238/238 239/239/239
f 227/227/227 228/228/228 240/240/240
f 227/227/227 240/240/240 239/239/239
f 247/247/247 228/228/228 227/227/227
f 248/248/248 239/239/239 240/240/240
f 228/228/228 229/229/229 241/241/241
f 228/228/228 241/241/241 240/240/240
f 247/247/247 229/229/229 228/228/228
f 248/248/248 240/240/240 241/241/241
f 229/229/229 230/230/230 242/242/242
f 229/229/229 242/242/242 241/241/241
f 247/247/247 230/230/230 229/229/229
f 248/248/248 241/241/241 242/242/242
f 230/230/230 231/231/231 243/243/243
f 230/230/230 243/243/243 242/242/242
f 247/247/247 231/231/231 230/230/230
f 248/248/248 242/242/242 243/243/243
f 231/231/231 232/232/232 244/244/244
f 231/231/231 244/244/244 243/243/243
f 247/247/247 232/232/232 231/231/231
f 248/248/248 243/243/243 244/244/244
f 232/232/232 233/233/233 245/245/245
f 232/232/232 245/245/245 244/244/244
f 247/247/247 233/233/233 232/232/232
f 248/248/248 244/244/244 245/245/245
f 233/233/233 234/234/234 246/246/246
f 233/233/233 246/246/246 245/245/245
f 247/247/247 234/234/234 233/233/233
f 248/248/248 245/245/245 246/246/246
f 234/234/234 223/223/223 235/235/235
f 234/234/234 235/235/235 246/246/246
f 247/247/247 223/223/223 234/234/234
f 248/248/248 246/246/246 235/235/235
f 249/249/249 251/251/251 250/250/250
f 249/249/249 252/252/252 251/251/251
f 253/253/253 254/254/254 255/255/255
f 253/253/253 255/255/255 256/256/256
f 249/249/249 250/250/250 254/254/254
f 249/249/249 254/254/254 253/253/253
f 251/251/251 252/252/252 256/256/256
f 251/251/251 256/256/256 255/255/255
f 249/249/249 253/253/253 256/256/256
f 249/249/249 256/256/256 252/252/252
f 250/250/250 251/251/251 255/255/255
f 250/250/250 255/255/255 254/254/254
f 257/257/257 258/258/258 270/270/270
f 257/257/257 270/270/270 269/269/269
f 281/281/281 258/258/258 257/257/257
f 282/282/282 269/269/269 270/270/270
f 258/258/258 259/259/259 271/271/271
f 258/258/258 271/271/271 270/270/270
f 281/281/281 259/259/259 258/258/258
f 282/282/282 270/270/270 271/271/271
f 259/259/259 260/260/260 272/272/272
f 259/259/259 272/272/272 271/271/271
f 281/281/281 260/260/260 259/259/259
f 282/282/282 271/271/271 272/272/272
f 260/260/260 261/261/261 273/273/273
f 260/260/260 273/273/273 272/272/272
f 281/281/281 261/261/261 260/260/260
f 282/282/282 272/272/272 273/273/273
f 261/261/261 262/262/262 274/274/274
f 261/261/261 274/274/274 273/273/273
f 281/281/281 262/262/262 261/261/261
f 282/282/282 273/273/273 274/274/274
f 262/262/262 263/263/263 275/275/275
f 262/262/262 275/275/275 274/274/274
f 281/281/281 263/263/263 262/262/262
f 282/282/282 274/274/274 275/275/275
f 263/263/263 264/264/264 276/276/276
f 263/263/263 276/276/276 275/275/275
f 281/281/281 264/264/264 263/263/263
f 282/282/282 275/275/275 276/276/276
f 264/264/264 265/265/265 277/277/277
f 264/264/264 277/277/277 276/276/276
f 281/281/281 265/265/265 264/264/264
f 282/282/282 276/276/276 277/277/277
f 265/265/265 266/266/266 278/278/278
f 265/265/265 278/278/278 277/277/277
f 281/281/281 266/266/266 265/265/265
f 282/282/282 277/277/277 278/278/278
f 266/266/266 267/267/267 279/279/279
f 266/266/266 279/279/279 278/278/278
f 281/281/281 267/267/267 266/266/266
f 282/282/282 278/278/278 279/279/279
f 267/267/267 268/268/268 280/280/280
f 267/267/267 280/280/280 279/279/279
f 281/281/281 268/268/268 267/267/267
f 282/282/282 279/279/279 280/280/280
f 268/268/268 257/257/257 269/269/269
f 268/268/268 269/269/269 280/280/280
f 281/281/281 257/257/257 268/268/268
f 282/282/282 280/280/280 269/269/269
f 283/283/283 285/285/285 284/284/284
f 283/283/283 286/286/286 285/285/285
f 287/287/287 288/288/288 289/289/289
f 287/287/287 289/289/289 290/290/290
f 283/283/283 284/284/284 288/288/288
f 283/283/283 288/288/288 287/287/287
f 285/285/285 286/286/286 290/290/290
f 285/285/285 290/290/290 289/289/289
f 283/283/283 287/287/287 290/290/290
f 283/283/283 290/290/290 286/286/286
f 284/284/284 285/285/285 289/289/289
f 284/284/284 289/289/289 288/288/288
f 291/291/291 292/292/292 304/304/304
f 291/291/291 304/304/304 303/303/303
f 315/315/315 292/292/292 291/291/291
f 316/316/316 303/303/303 304/304/304
f 292/292/292 293/293/293 305/305/305
f 292/292/292 305/305/305 304/304/304
f 315/315/315 293/293/293 292/292/292
f 316/316/316 304/304/304 305/305/305
f 293/293/293 294/294/294 306/306/306
f 293/293/293 306/306/306 305/305/305
f 315/315/315 294/294/294 293/293/293
f 316/316/316 305/305/305 306/306/306
f 294/294/294 295/295/295 307/307/307
f 294/294/294 307/307/307 306/306/306
f 315/315/315 295/295/295 294/294/294
f 316/316/316 306/306/306 307/307/307
f 295/295/295 296/296/296 308/308/308
f 295/295/295 308/308/308 307/307/307
f 315/315/315 296/296/296 295/295/295
f 316/316/316 307/307/307 308/308/308
f 296/296/296 297/297/297 309/309/309
f 296/296/296 309/309/309 308/308/308
f 315/315/315 297/297/297 296/296/296
f 316/316/316 308/308/308 309/309/309
f 297/297/297 298/298/298 310/310/310
f 297/297/297 310/310/310 309/309/309
f 315/315/315 298/298/298 297/297/297
f 316/316/316 309/309/309 310/310/310
f 298/298/298 299/299/299 311/311/311
f 298/298/298 311/311/311 310/310/310
f 315/315/315 299/299/299 298/298/298
f 316/316/316 310/310/310 311/311/311
f 299/299/299 300/300/300 312/312/312
f 299/299/299 312/312/312 311/311/311
f 315/315/315 300/300/300 299/299/299
f 316/316/316 311/311/311 312/312/312
f 300/300/300 301/301/301 313/313/313
f 300/300/300 313/313/313 312/312/312
f 315/315/315 301/301/301 300/300/300
f 316/316/316 312/312/312 313/313/313
f 301/301/301 302/302/302 314/314/314
f 301/301/301 314/314/314 313/313/313
f 315/315/315 302/302/302 301/301/301
f 316/316/316 313/313/313 314/314/314
f 302/302/302 291/291/291 303/303/303
f 302/302/302 303/303/303 314/314/314
f 315/315/315 291/291/291 302/302/302
f 316/316/316 314/314/314 303/303/303
f 317/317/317 318/318/318 330/330/330
f 317/317/317 330/330/330 329/329/329
f 341/341/341 318/318/318 317/317/317
f 342/342/342 329/329/329 330/330/330
f 318/318/318 319/319/319 331/331/331
f 318/318/318 331/331/331 330/330/330
f 341/341/341 319/319/319 318/318/318
f 342/342/342 330/330/330 331/331/331
f 319/319/319 320/320/320 332/332/332
f 319/319/319 332/332/332 331/331/331
f 341/341/341 320/320/320 319/319/319
f 342/342/342 331/331/331 332/332/332
f 320/320/320 321/321/321 333/333/333
f 320/320/320 333/333/333 332/332/332
f 341/341/341 321/321/321 320/320/320
f 342/342/342 332/332/332 333/333/333
f 321/321/321 322/322/322 334/334/334
f 321/321/321 334/334/334 333/333/333
f 341/341/341 322/322/322 321/321/321
f 342/342/342 333/333/333 334/334/334
f 322/322/322 323/323/323 335/335/335
f 322/322/322 335/335/335 334/334/334
f 341/341/341 323/323/323 322/322/322
f 342/342/342 334/334/334 335/335/335
f 323/323/323 324/324/324 336/336/336
f 323/323/323 336/336/336 335/335/335
f 341/341/341 324/324/324 323/323/323
f 342/342/342 335/335/335 336/336/336
f 324/324/324 325/325/325 337/337/337
f 324/324/324 337/337/337 336/336/336
f 341/341/341 325/325/325 324/324/324
f 342/342/342 336/336/336 337/337/337
f 325/325/325 326/326/326 338/338/338
f 325/325/325 338/338/338 337/337/337
f 341/341/341 326/326/326 325/325/325
f 342/342/342 337/337/337 338/338/338
f 326/326/326 327/327/327 339/339/339
f 326/326/326 339/339/339 338/338/338
f 341/341/341 327/327/327 326/326/326
f 342/342/342 338/338/338 339/339/339
f 327/327/327 328/328/328 340/340/340
f 327/327/327 340/340/340 339/339/339
f 341/341/341 328/328/328 327/327/327
f 342/342/342 339/339/339 340/340/340
f 328/328/328 317/317/317 329/329/329
f 328/328/328 329/329/329 340/340/340
f 341/341/341 317/317/317 328/328/328
f 342/342/342 340/340/340 329/329/329
f 343/343/343 345/345/345 344/344/344
f 343/343/343 346/346/346 345/345/345
f 347/347/347 348/348/348 349/349/349
f 347/347/347 349/349/349 350/350/350
f 343/343/343 344/344/344 348/348/348
f 343/343/343 348/348/348 347/347/347
f 345/345/345 346/346/346 350/350/350
f 345/345/345 350/350/350 349/349/349
f 343/343/343 347/347/347 350/350/350
f 343/343/343 350/350/350 346/346/346
f 344/344/344 345/345/345 349/349/349
f 344/344/344 349/349/349 348/348/348
f 351/351/351 352/352/352 364/364/364
f 351/351/351 364/364/364 363/363/363
f 375/375/375 352/352/352 351/351/351
f 376/376/376 363/363/363 364/364/364
f 352/352/352 353/353/353 365/365/365
f 352/352/352 365/365/365 364/364/364
f 375/375/375 353/353/353 352/352/352
f 376/376/376 364/364/364 365/365/365
f 353/353/353 354/354/354 366/366/366
f 353/353/353 366/366/366 365/365/365
f 375/375/375 354/354/354 353/353/353
f 376/376/376 365/365/365 366/366/366
f 354/354/354 355/355/355 367/367/367
f 354/354/354 367/367/367 366/366/366
f 375/375/375 355/355/355 354/354/354
f 376/376/376 366/366/366 367/367/367
f 355/355/355 356/356/356 368/368/368
f 355/355/355 368/368/368 367/367/367
f 375/375/375 356/356/356 355/355/355
f 376/376/376 367/367/367 368/368/368
f 356/356/356 357/357/357 369/369/369
f 356/356/356 369/369/369 368/368/368
f 375/375/375 357/357/357 356/356/356
f 376/376/376 368/368/368 369/369/369
f 357/357/357 358/358/358 370/370/370
f 357/357/357 370/370/370 369/369/369
f 375/375/375 358/358/358 357/357/357
f 376/376/376 369/369/369 370/370/370
f 358/358/358 359/359/359 371/371/371
f 358/358/358 371/371/371 370/370/370
f 375/375/375 359/359/359 358/358/358
f 376/376/376 370/370/370 371/371/371
f 359/359/359 360/360/360 372/372/372
f 359/359/359 372/372/372 371/371/371
f 375/375/375 360/360/360 359/359/359
f 376/376/376 371/371/371 372/372/372
f 360/360/360 361/361/361 373/373/373
f 360/360/360 373/373/373 372/372/372
f 375/375/375 361/361/361 360/360/360
f 376/376/376 372/372/372 373/373/373
f 361/361/361 362/362/362 374/374/374
f 361/361/361 374/374/374 373/373/373
f 375/375/375 362/362/362 361/361/361
f 376/376/376 373/373/373 374/374/374
f 362/362/362 351/351/351 363/363/363
f 362/362/362 363/363/363 374/374/374
f 375/375/375 351/351/351 362/362/362
f 376/376/376 374/374/374 363/363/363
f 377/377/377 378/378/378 394/394/394
f 377/377/377 394/394/394 393/393/393
f 409/409/409 378/378/378 377/377/377
f 410/410/410 393/393/393 394/394/394
f 378/378/378 379/379/379 395/395/395
f 378/378/378 395/395/395 394/394/394
f 409/409/409 379/379/379 378/378/378
f 410/410/410 394/394/394 395/395/395
f 379/379/379 380/380/380 396/396/396
f 379/379/379 396/396/396 395/395/395
f 409/409/409 380/380/380 379/379/379
f 410/410/410 395/395/395 396/396/396
f 380/380/380 381/381/381 397/397/397
f 380/380/380 397/397/397 396/396/396
f 409/409/409 381/381/381 380/380/380
f 410/410/410 396/396/396 397/397/397
f 381/381/381 382/382/382 398/398/398
f 381/381/381 398/398/398 397/397/397
f 409/409/409 382/382/382 381/381/381
f 410/410/410 397/397/397 398/398/398
f 382/382/382 383/383/383 399/399/399
f 382/382/382 399/399/399 398/398/398
f 409/409/409 383/383/383 382/382/382
f 410/410/410 398/398/398 399/399/399
f 383/383/383 384/384/384 400/400/400
f 383/383/383 400/400/400 399/399/399
f 409/409/409 384/384/384 383/383/383
f 410/410/410 399/399/399 400/400/400
f 384/384/384 385/385/385 401/401/401
f 384/384/384 401/401/401 400/400/400
f 409/409/409 385/385/385 384/384/384
f 410/410/410 400/400/400 401/401/401
f 385/385/385 386/386/386 402/402/402
f 385/385/385 402/402/402 401/401/401
f 409/409/409 386/386/386 385/385/385
f 410/410/410 401/401/401 402/402/402
f 386/386/386 387/387/387 403/403/403
f 386/386/386 403/403/403 402/402/402
f 409/409/409 387/387/387 386/386/386
f 410/410/410 402/402/402 403/403/403
f 387/387/387 388/388/388 404/404/404
f 387/387/387 404/404/404 403/403/403
f 409/409/409 388/388/388 387/387/387
f 410/410/410 403/403/403 404/404/404
f 388/388/388 389/389/389 405/405/405
f 388/388/388 405/405/405 404/404/404
f 409/409/409 389/389/389 388/388/388
f 410/410/410 404/404/404 405/405/405
f 389/389/389 390/390/390 406/406/406
f 389/389/389 406/406/406 405/405/405
f 409/409/409 390/390/390 389/389/389
f 410/410/410 405/405/405 406/406/406
f 390/390/390 391/391/391 407/407/407
f 390/390/390 407/407/407 406/406/406
f 409/409/409 391/391/391 390/390/390
f 410/410/410 406/406/406 407/407/407
f 391/391/391 392/392/392 408/408/408
f 391/391/391 408/408/408 407/407/407
f 409/409/409 392/392/392 391/391/391
f 410/410/410 407/407/407 408/408/408
f 392/392/392 377/377/377 393/393/393
f 392/392/392 393/393/393 408/408/408
f 409/409/409 377/377/377 392/392/392
f 410/410/410 408/408/408 393/393/393
f 411/411/411 412/412/412 420/420/420
f 411/411/411 420/420/420 419/419/419
f 427/427/427 412/412/412 411/411/411
f 428/428/428 419/419/419 420/420/420
f 412/412/412 413/413/413 421/421/421
f 412/412/412 421/421/421 420/420/420
f 427/427/427 413/413/413 412/412/412
f 428/428/428 420/420/420 421/421/421
f 413/413/413 414/414/414 422/422/422
f 413/413/413 422/422/422 421/421/421
f 427/427/427 414/414/414 413/413/413
f 428/428/428 421/421/421 422/422/422
f 414/414/414 415/415/415 423/423/423
f 414/414/414 423/423/423 422/422/422
f 427/427/427 415/415/415 414/414/414
f 428/428/428 422/422/422 423/423/423
f 415/415/415 416/416/416 424/424/424
f 415/415/415 424/424/424 423/423/423
f 427/427/427 416/416/416 415/415/415
f 428/428/428 423/423/423 424/424/424
f 416/416/416 417/417/417 425/425/425
f 416/416/416 425/425/425 424/424/424
f 427/427/427 417/417/417 416/416/416
f 428/428/428 424/424/424 425/425/425
f 417/417/417 418/418/418 426/426/426
f 417/417/417 426/426/426 425/425/425
f 427/427/427 418/418/418 417/417/417
f 428/428/428 425/425/425 426/426/426
f 418/418/418 411/411/411 419/419/419
f 418/418/418 419/419/419 426/426/426
f 427/427/427 411/411/411 418/418/418
f 428/428/428 426/426/426 419/419/419
f 429/429/429 431/431/431 430/430/430
f 429/429/429 432/432/432 431/431/431
f 433/433/433 434/434/434 435/435/435
f 433/433/433 435/435/435 436/436/436
f 429/429/429 430/430/430 434/434/434
f 429/429/429 434/434/434 433/433/433
f 431/431/431 432/432/432 436/436/436
f 431/431/431 436/436/436 435/435/435
f 429/429/429 433/433/433 436/436/436
f 429/429/429 436/436/436 432/432/432
f 430/430/430 431/431/431 435/435/435
f 430/430/430 435/435/435 434/434/434
f 437/437/437 438/438/438 446/446/446
f 437/437/437 446/446/446 445/445/445
f 453/453/453 438/438/438 437/437/437
f 454/454/454 445/445/445 446/446/446
f 438/438/438 439/439/439 447/447/447
f 438/438/438 447/447/447 446/446/446
f 453/453/453 439/439/439 438/438/438
f 454/454/454 446/446/446 447/447/447
f 439/439/439 440/440/440 448/448/448
f 439/439/439 448/448/448 447/447/447
f 453/453/453 440/440/440 439/439/439
f 454/454/454 447/447/447 448/448/448
f 440/440/440 441/441/441 449/449/449
f 440/440/440 449/449/449 448/448/448
f 453/453/453 441/441/441 440/440/440
f 454/454/454 448/448/448 449/449/449
f 441/441/441 442/442/442 450/450/450
f 441/441/441 450/450/450 449/449/449
f 453/453/453 442/442/442 441/441/441
f 454/454/454 449/449/449 450/450/450
f 442/442/442 443/443/443 451/451/451
f 442/442/442 451/451/451 450/450/450
f 453/453/453 443/443/443 442/442/442
f 454/454/454 450/450/450 451/451/451
f 443/443/443 444/444/444 452/452/452
f 443/443/443 452/452/452 451/451/451
f 453/453/453 444/444/444 443/443/443
f 454/454/454 451/451/451 452/452/452
f 444/444/444 437/437/437 445/445/445
f 444/444/444 445/445/445 452/452/452
f 453/453/453 437/437/437 444/444/444
f 454/454/454 452/452/452 445/445/445
f 455/455/455 456/456/456 464/464/464
f 455/455/455 464/464/464 463/463/463
f 471/471/471 456/456/456 455/455/455
f 472/472/472 463/463/463 464/464/464
f 456/456/456 457/457/457 465/465/465
f 456/456/456 465/465/465 464/464/464
f 471/471/471 457/457/457 456/456/456
f 472/472/472 464/464/464 465/465/465
f 457/457/457 458/458/458 466/466/466
f 457/457/457 466/466/466 465/465/465
f 471/471/471 458/458/458 457/457/457
f 472/472/472 465/465/465 466/466/466
f 458/458/458 459/459/459 467/467/467
f 458/458/458 467/467/467 466/466/466
f 471/471/471 459/459/459 458/458/458
f 472/472/472 466/466/466 467/467/467
f 459/459/459 460/460/460 468/468/468
f 459/459/459 468/468/468 467/467/467
f 471/471/471 460/460/460 459/459/459
f 472/472/472 467/467/467 468/468/468
f 460/460/460 461/461/461 469/469/469
f 460/460/460 469/469/469 468/468/468
f 471/471/471 461/461/461 460/460/460
f 472/472/472 468/468/468 469/469/469
f 461/461/461 462/462/462 470/470/470
f 461/461/461 470/470/470 469/469/469
f 471/471/471 462/462/462 461/461/461
f 472/472/472 469/469/469 470/470/470
f 462/462/462 455/455/455 463/463/463
f 462/462/462 463/463/463 470/470/470
f 471/471/471 455/455/455 462/462/462
f 472/472/472 470/470/470 463/463/463
f 473/473/473 474/474/474 482/482/482
f 473/473/473 482/482/482 481/481/481
f 489/489/489 474/474/474 473/473/473
f 490/490/490 481/481/481 482/482/482
f 474/474/474 475/475/475 483/483/483
f 474/474/474 483/483/483 482/482/482
f 489/489/489 475/475/475 474/474/474
f 490/490/490 482/482/482 483/483/483
f 475/475/475 476/476/476 484/484/484
f 475/475/475 484/484/484 483/483/483
f 489/489/489 476/476/476 475/475/475
f 490/490/490 483/483/483 484/484/484
f 476/476/476 477/477/477 485/485/485
f 476/476/476 485/485/485 484/484/484
f 489/489/489 477/477/477 476/476/476
f 490/490/490 484/484/484 485/485/485
f 477/477/477 478/478/478 486/486/486
f 477/477/477 486/486/486 485/485/485
f 489/489/489 478/478/478 477/477/477
f 490/490/490 485/485/485 486/486/486
f 478/478/478 479/479/479 487/487/487
f 478/478/478 487/487/487 486/486/486
f 489/489/489 479/479/479 478/478/478
f 490/490/490 486/486/486 487/487/487
f 479/479/479 480/480/480 488/488/488
f 479/479/479 488/488/488 487/487/487
f 489/489/489 480/480/480 479/479/479
f 490/490/490 487/487/487 488/488/488
f 480/480/480 473/473/473 481/481/481
f 480/480/480 481/481/481 488/488/488
f 489/489/489 473/473/473 480/480/480
f 490/490/490 488/488/488 481/481/481
f 491/491/491 492/492/492 500/500/500
f 491/491/491 500/500/500 499/499/499
f 507/507/507 492/492/492 491/491/491
f 508/508/508 499/499/499 500/500/500
f 492/492/492 493/493/493 501/501/501
f 492/492/492 501/501/501 500/500/500
f 507/507/507 493/493/493 492/492/492
f 508/508/508 500/500/500 501/501/501
f 493/493/493 494/494/494 502/502/502
f 493/493/493 502/502/502 501/501/501
f 507/507/507 494/494/494 493/493/493
f 508/508/508 501/501/501 502/502/502
f 494/494/494 495/495/495 503/503/503
f 494/494/494 503/503/503 502/502/502
f 507/507/507 495/495/495 494/494/494
f 508/508/508 502/502/502 503/503/503
f 495/495/495 496/496/496 504/504/504
f 495/495/495 504/504/504 503/503/503
f 507/507/507 496/496/496 495/495/495
f 508/508/508 503/503/503 504/504/504
f 496/496/496 497/497/497 505/505/505
f 496/496/496 505/505/505 504/504/504
f 507/507/507 497/497/497 496/496/496
f 508/508/508 504/504/504 505/505/505
f 497/497/497 498/498/498 506/506/506
f 497/497/497 506/506/506 505/505/505
f 507/507/507 498/498/498 497/497/497
f 508/508/508 505/505/505 506/506/506
f 498/498/498 491/491/491 499/499/499
f 498/498/498 499/499/499 506/506/506
f 507/507/507 491/491/491 498/498/498
f 508/508/508 506/506/506 499/499/499
f 509/509/509 510/510/510 522/522/522
f 509/509/509 522/522/522 521/521/521
f 533/533/533 510/510/510 509/509/509
f 534/534/534 521/521/521 522/522/522
f 510/510/510 511/511/511 523/523/523
f 510/510/510 523/523/523 522/522/522
f 533/533/533 511/511/511 510/510/510
f 534/534/534 522/522/522 523/523/523
f 511/511/511 512/512/512 524/524/524
f 511/511/511 524/524/524 523/523/523
f 533/533/533 512/512/512 511/511/511
f 534/534/534 523/523/523 524/524/524
f 512/512/512 513/513/513 525/525/525
f 512/512/512 525/525/525 524/524/524
f 533/533/533 513/513/513 512/512/512
f 534/534/534 524/524/524 525/525/525
f 513/513/513 514/514/514 526/526/526
f 513/513/513 526/526/526 525/525/525
f 533/533/533 514/514/514 513/513/513
f 534/534/534 525/525/525 526/526/526
f 514/514/514 515/515/515 527/527/527
f 514/514/514 527/527/527 526/526/526
f 533/533/533 515/515/515 514/514/514
f 534/534/534 526/526/526 527/527/527
f 515/515/515 516/516/516 528/528/528
f 515/515/515 528/528/528 527/527/527
f 533/533/533 516/516/516 515/515/515
f 534/534/534 527/527/527 528/528/528
f 516/516/516 517/517/517 529/529/529
f 516/516/516 529/529/529 528/528/528
f 533/533/533 517/517/517 516/516/516
f 534/534/534 528/528/528 529/529/529
f 517/517/517 518/518/518 530/530/530
f 517/517/517 530/530/530 529/529/529
f 533/533/533 518/518/518 517/517/517
f 534/534/534 529/529/529 530/530/530
f 518/518/518 519/519/519 531/531/531
f 518/518/518 531/531/531 530/530/530
f 533/533/533 519/519/519 518/518/518
f 534/534/534 530/530/530 531/531/531
f 519/519/519 520/520/520 532/532/532
f 519/519/519 532/532/532 531/531/531
f 533/533/533 520/520/520 519/519/519
f 534/534/534 531/531/531 532/532/532
f 520/520/520 509/509/509 521/521/521
f 520/520/520 521/521/521 532/532/532
f 533/533/533 509/509/509 520/520/520
f 534/534/534 532/532/532 521/521/521
f 535/535/535 536/536/536 544/544/544
f 535/535/535 544/544/544 543/543/543
f 551/551/551 536/536/536 535/535/535
f 552/552/552 543/543/543 544/544/544
f 536/536/536 537/537/537 545/545/545
f 536/536/536 545/545/545 544/544/544
f 551/551/551 537/537/537 536/536/536
f 552/552/552 544/544/544 545/545/545
f 537/537/537 538/538/538 546/546/546
f 537/537/537 546/546/546 545/545/545
f 551/551/551 538/538/538 537/537/537
f 552/552/552 545/545/545 546/546/546
f 538/538/538 539/539/539 547/547/547
f 538/538/538 547/547/547 546/546/546
f 551/551/551 539/539/539 538/538/538
f 552/552/552 546/546/546 547/547/547
f 539/539/539 540/540/540 548/548/548
f 539/539/539 548/548/548 547/547/547
f 551/551/551 540/540/540 539/539/539
f 552/552/552 547/547/547 548/548/548
f 540/540/540 541/541/541 549/549/549
f 540/540/540 549/549/549 548/548/548
f 551/551/551 541/541/541 540/540/540
f 552/552/552 548/548/548 549/549/549
f 541/541/541 542/542/542 550/550/550
f 541/541/541 550/550/550 549/549/549
f 551/551/551 542/542/542 541/541/541
f 552/552/552 549/549/549 550/550/550
f 542/542/542 535/535/535 543/543/543
f 542/542/542 543/543/543 550/550/550
f 551/551/551 535/535/535 542/542/542
f 552/552/552 550/550/550 543/543/543
f 553/553/553 554/554/554 566/566/566
f 553/553/553 566/566/566 565/565/565
f 577/577/577 554/554/554 553/553/553
f 578/578/578 565/565/565 566/566/566
f 554/554/554 555/555/555 567/567/567
f 554/554/554 567/567/567 566/566/566
f 577/577/577 555/555/555 554/554/554
f 578/578/578 566/566/566 567/567/567
f 555/555/555 556/556/556 568/568/568
f 555/555/555 568/568/568 567/567/567
f 577/577/577 556/556/556 555/555/555
f 578/578/578 567/567/567 568/568/568
f 556/556/556 557/557/557 569/569/569
f 556/556/556 569/569/569 568/568/568
f 577/577/577 557/557/557 556/556/556
f 578/578/578 568/568/568 569/569/569
f 557/557/557 558/558/558 570/570/570
f 557/557/557 570/570/570 569/569/569
f 577/577/577 558/558/558 557/557/557
f 578/578/578 569/569/569 570/570/570
f 558/558/558 559/559/559 571/571/571
f 558/558/558 571/571/571 570/570/570
f 577/577/577 559/559/559 558/558/558
f 578/578/578 570/570/570 571/571/571
f 559/559/559 560/560/560 572/572/572
f 559/559/559 572/572/572 571/571/571
f 577/577/577 560/560/560 559/559/559
f 578/578/578 571/571/571 572/572/572
f 560/560/560 561/561/561 573/573/573
f 560/560/560 573/573/573 572/572/572
f 577/577/577 561/561/561 560/560/560
f 578/578/578 572/572/572 573/573/573
f 561/561/561 562/562/562 574/574/574
f 561/561/561 574/574/574 573/573/573
f 577/577/577 562/562/562 561/561/561
f 578/578/578 573/573/573 574/574/574
f 562/562/562 563/563/563 575/575/575
f 562/562/562 575/575/575 574/574/574
f 577/577/577 563/563/563 562/562/562
f 578/578/578 574/574/574 575/575/575
f 563/563/563 564/564/564 576/576/576
f 563/563/563 576/576/576 575/575/575
f 577/577/577 564/564/564 563/563/563
f 578/578/578 575/575/575 576/576/576
f 564/564/564 553/553/553 565/565/565
f 564/564/564 565/565/565 576/576/576
f 577/577/577 553/553/553 564/564/564
f 578/578/578 576/576/576 565/565/565
f 579/579/579 580/580/580 590/590/590
f 579/579/579 590/590/590 589/589/589
f 599/599/599 580/580/580 579/579/579
f 600/600/600 589/589/589 590/590/590
f 580/580/580 581/581/581 591/591/591
f 580/580/580 591/591/591 590/590/590
f 599/599/599 581/581/581 580/580/580
f 600/600/600 590/590/590 591/591/591
f 581/581/581 582/582/582 592/592/592
f 581/581/581 592/592/592 591/591/591
f 599/599/599 582/582/582 581/581/581
f 600/600/600 591/591/591 592/592/592
f 582/582/582 583/583/583 593/593/593
f 582/582/582 593/593/593 592/592/592
f 599/599/599 583/583/583 582/582/582
f 600/600/600 592/592/592 593/593/593
f 583/583/583 584/584/584 594/594/594
f 583/583/583 594/594/594 593/593/593
f 599/599/599 584/584/584 583/583/583
f 600/600/600 593/593/593 594/594/594
f 584/584/584 585/585/585 595/595/595
f 584/584/584 595/595/595 594/594/594
f 599/599/599 585/585/585 584/584/584
f 600/600/600 594/594/594 595/595/595
f 585/585/585 586/586/586 596/596/596
f 585/585/585 596/596/596 595/595/595
f 599/599/599 586/586/586 585/585/585
f 600/600/600 595/595/595 596/596/596
f 586/586/586 587/587/587 597/597/597
f 586/586/586 597/597/597 596/596/596
f 599/599/599 587/587/587 586/586/586
f 600/600/600 596/596/596 597/597/597
f 587/587/587 588/588/588 598/598/598
f 587/587/587 598/598/598 597/597/597
f 599/599/599 588/588/588 587/587/587
f 600/600/600 597/597/597 598/598/598
f 588/588/588 579/579/579 589/589/589
f 588/588/588 589/589/589 598/598/598
f 599/599/599 579/579/579 588/588/588
f 600/600/600 598/598/598 589/589/589
f 601/601/601 602/602/602 612/612/612
f 601/601/601 612/612/612 611/611/611
f 621/621/621 602/602/602 601/601/601
f 622/622/622 611/611/611 612/612/612
f 602/602/602 603/603/603 613/613/613
f 602/602/602 613/613/613 612/612/612
f 621/621/621 603/603/603 602/602/602
f 622/622/622 612/612/612 613/613/613
f 603/603/603 604/604/604 614/614/614
f 603/603/603 614/614/614 613/613/613
f 621/621/621 604/604/604 603/603/603
f 622/622/622 613/613/613 614/614/614
f 604/604/604 605/605/605 615/615/615
f 604/604/604 615/615/615 614/614/614
f 621/621/621 605/605/605 604/604/604
f 622/622/622 614/614/614 615/615/615
f 605/605/605 606/606/606 616/616/616
f 605/605/605 616/616/616 615/615/615
f 621/621/621 606/606/606 605/605/605
f 622/622/622 615/615/615 616/616/616
f 606/606/606 607/607/607 617/617/617
f 606/606/606 617/617/617 616/616/616
f 621/621/621 607/607/607 606/606/606
f 622/622/622 616/616/616 617/617/617
f 607/607/607 608/608/608 618/618/618
f 607/607/607 618/618/618 617/617/617
f 621/621/621 608/608/608 607/607/607
f 622/622/622 617/617/617 618/618/618
f 608/608/608 609/609/609 619/619/619
f 608/608/608 619/619/619 618/618/618
f 621/621/621 609/609/609 608/608/608
f 622/622/622 618/618/618 619/619/619
f 609/609/609 610/610/610 620/620/620
f 609/609/609 620/620/620 619/619/619
f 621/621/621 610/610/610 609/609/609
f 622/622/622 619/619/619 620/620/620
f 610/610/610 601/601/601 611/611/611
f 610/610/610 611/611/611 620/620/620
f 621/621/621 601/601/601 610/610/610
f 622/622/622 620/620/620 611/611/611
f 623/623/623 624/624/624 634/634/634
f 623/623/623 634/634/634 633/633/633
f 643/643/643 624/624/624 623/623/623
f 644/644/644 633/633/633 634/634/634
f 624/624/624 625/625/625 635/635/635
f 624/624/624 635/635/635 634/634/634
f 643/643/643 625/625/625 624/624/624
f 644/644/644 634/634/634 635/635/635
f 625/625/625 626/626/626 636/636/636
f 625/625/625 636/636/636 635/635/635
f 643/643/643 626/626/626 625/625/625
f 644/644/644 635/635/635 636/636/636
f 626/626/626 627/627/627 637/637/637
f 626/626/626 637/637/637 636/636/636
f 643/643/643 627/627/627 626/626/626
f 644/644/644 636/636/636 637/637/637
f 627/627/627 628/628/628 638/638/638
f 627/627/627 638/638/638 637/637/637
f 643/643/643 628/628/628 627/627/627
f 644/644/644 637/637/637 638/638/638
f 628/628/628 629/629/629 639/639/639
f 628/628/628 639/639/639 638/638/638
f 643/643/643 629/629/629 628/628/628
f 644/644/644 638/638/638 639/639/639
f 629/629/629 630/630/630 640/640/640
f 629/629/629 640/640/640 639/639/639
f 643/643/643 630/630/630 629/629/629
f 644/644/644 639/639/639 640/640/640
f 630/630/630 631/631/631 641/641/641
f 630/630/630 641/641/641 640/640/640
f 643/643/643 631/631/631 630/630/630
f 644/644/644 640/640/640 641/641/641
f 631/631/631 632/632/632 642/642/642
f 631/631/631 642/642/642 641/641/641
f 643/643/643 632/632/632 631/631/631
f 644/644/644 641/641/641 642/642/642
f 632/632/632 623/623/623 633/633/633
f 632/632/632 633/633/633 642/642/642
f 643/643/643 623/623/623 632/632/632
f 644/644/644 642/642/642 633/633/633
f 645/645/645 646/646/646 656/656/656
f 645/645/645 656/656/656 655/655/655
f 665/665/665 646/646/646 645/645/645
f 666/666/666 655/655/655 656/656/656
f 646/646/646 647/647/647 657/657/657
f 646/646/646 657/657/657 656/656/656
f 665/665/665 647/647/647 646/646/646
f 666/666/666 656/656/656 657/657/657
f 647/647/647 648/648/648 658/658/658
f 647/647/647 658/658/658 657/657/657
f 665/665/665 648/648/648 647/647/647
f 666/666/666 657/657/657 658/658/658
f 648/648/648 649/649/649 659/659/659
f 648/648/648 659/659/659 658/658/658
f 665/665/665 649/649/649 648/648/648
f 666/666/666 658/658/658 659/659/659
f 649/649/649 650/650/650 660/660/660
f 649/649/649 660/660/660 659/659/659
f 665/665/665 650/650/650 649/649/649
f 666/666/666 659/659/659 660/660/660
f 650/650/650 651/651/651 661/661/661
f 650/650/650 661/661/661 660/660/660
f 665/665/665 651/651/651 650/650/650
f 666/666/666 660/660/660 661/661/661
f 651/651/651 652/652/652 662/662/662
f 651/651/651 662/662/662 661/661/661
f 665/665/665 652/652/652 651/651/651
f 666/666/666 661/661/661 662/662/662
f 652/652/652 653/653/653 663/663/663
f 652/652/652 663/663/663 662/662/662
f 665/665/665 653/653/653 652/652/652
f 666/666/666 662/662/662 663/663/663
f 653/653/653 654/654/654 664/664/664
f 653/653/653 664/664/664 663/663/663
f 665/665/665 654/654/654 653/653/653
f 666/666/666 663/663/663 664/664/664
f 654/654/654 645/645/645 655/655/655
f 654/654/654 655/655/655 664/664/664
f 665/665/665 645/645/645 654/654/654
f 666/666/666 664/664/664 655/655/655
f 667/667/667 668/668/668 674/674/674
f 667/667/667 674/674/674 673/673/673
f 679/679/679 668/668/668 667/667/667
f 680/680/680 673/673/673 674/674/674
f 668/668/668 669/669/669 675/675/675
f 668/668/668 675/675/675 674/674/674
f 679/679/679 669/669/669 668/668/668
f 680/680/680 674/674/674 675/675/675
f 669/669/669 670/670/670 676/676/676
f 669/669/669 676/676/676 675/675/675
f 679/679/679 670/670/670 669/669/669
f 680/680/680 675/675/675 676/676/676
f 670/670/670 671/671/671 677/677/677
f 670/670/670 677/677/677 676/676/676
f 679/679/679 671/671/671 670/670/670
f 680/680/680 676/676/676 677/677/677
f 671/671/671 672/672/672 678/678/678
f 671/671/671 678/678/678 677/677/677
f 679/679/679 672/672/672 671/671/671
f 680/680/680 677/677/677 678/678/678
f 672/672/672 667/667/667 673/673/673
f 672/672/672 673/673/673 678/678/678
f 679/679/679 667/667/667 672/672/672
f 680/680/680 678/678/678 673/673/673
f 681/681/681 683/683/683 682/682/682
f 681/681/681 684/684/684 683/683/683
f 685/685/685 686/686/686 687/687/687
f 685/685/685 687/687/687 688/688/688
f 681/681/681 682/682/682 686/686/686
f 681/681/681 686/686/686 685/685/685
f 683/683/683 684/684/684 688/688/688
f 683/683/683 688/688/688 687/687/687
f 681/681/681 685/685/685 688/688/688
f 681/681/681 688/688/688 684/684/684
f 682/682/682 683/683/683 687/687/687
f 682/682/682 687/687/687 686/686/686