# 3D Model: vehicle/bike/MY25PropelAdvanced1_ColorBIllusionWhite-1-1024x768 (v6 Gemini)
# Style: vehicle | Symmetry: symmetric
# Dimensions: 2.47 x 0.903 x 0.972 m
# Triangles: 736 | Vertices: 464
v -0.465 0.35 0.12
v -0.4825 0.3803 0.12
v -0.5175 0.3803 0.12
v -0.535 0.35 0.12
v -0.5175 0.3197 0.12
v -0.4825 0.3197 0.12
v -0.465 0.35 0.12
v -0.5385 0.35 0.3463
v -0.5527 0.3803 0.336
v -0.581 0.3803 0.3154
v -0.5952 0.35 0.3052
v -0.581 0.3197 0.3154
v -0.5527 0.3197 0.336
v -0.5385 0.35 0.3463
v -0.731 0.35 0.4862
v -0.7364 0.3803 0.4695
v -0.7473 0.3803 0.4362
v -0.7527 0.35 0.4196
v -0.7473 0.3197 0.4362
v -0.7364 0.3197 0.4695
v -0.731 0.35 0.4862
v -0.969 0.35 0.4862
v -0.9636 0.3803 0.4695
v -0.9527 0.3803 0.4362
v -0.9473 0.35 0.4196
v -0.9527 0.3197 0.4362
v -0.9636 0.3197 0.4695
v -0.969 0.35 0.4862
v -1.1615 0.35 0.3463
v -1.1473 0.3803 0.336
v -1.119 0.3803 0.3154
v -1.1048 0.35 0.3052
v -1.119 0.3197 0.3154
v -1.1473 0.3197 0.336
v -1.1615 0.35 0.3463
v -1.235 0.35 0.12
v -1.2175 0.3803 0.12
v -1.1825 0.3803 0.12
v -1.165 0.35 0.12
v -1.1825 0.3197 0.12
v -1.2175 0.3197 0.12
v -1.235 0.35 0.12
v -1.1615 0.35 -0.1063
v -1.1473 0.3803 -0.096
v -1.119 0.3803 -0.0754
v -1.1048 0.35 -0.0652
v -1.119 0.3197 -0.0754
v -1.1473 0.3197 -0.096
v -1.1615 0.35 -0.1063
v -0.969 0.35 -0.2462
v -0.9636 0.3803 -0.2295
v -0.9527 0.3803 -0.1962
v -0.9473 0.35 -0.1796
v -0.9527 0.3197 -0.1962
v -0.9636 0.3197 -0.2295
v -0.969 0.35 -0.2462
v -0.731 0.35 -0.2462
v -0.7364 0.3803 -0.2295
v -0.7473 0.3803 -0.1962
v -0.7527 0.35 -0.1796
v -0.7473 0.3197 -0.1962
v -0.7364 0.3197 -0.2295
v -0.731 0.35 -0.2462
v -0.5385 0.35 -0.1063
v -0.5527 0.3803 -0.096
v -0.581 0.3803 -0.0754
v -0.5952 0.35 -0.0652
v -0.581 0.3197 -0.0754
v -0.5527 0.3197 -0.096
v -0.5385 0.35 -0.1063
v -0.465 0.35 0.12
v -0.4825 0.3803 0.12
v -0.5175 0.3803 0.12
v -0.535 0.35 0.12
v -0.5175 0.3197 0.12
v -0.4825 0.3197 0.12
v -0.465 0.35 0.12
v -0.465 0.35 -0.12
v -0.4825 0.3803 -0.12
v -0.5175 0.3803 -0.12
v -0.535 0.35 -0.12
v -0.5175 0.3197 -0.12
v -0.4825 0.3197 -0.12
v -0.465 0.35 -0.12
v -0.5385 0.35 0.1063
v -0.5527 0.3803 0.096
v -0.581 0.3803 0.0754
v -0.5952 0.35 0.0652
v -0.581 0.3197 0.0754
v -0.5527 0.3197 0.096
v -0.5385 0.35 0.1063
v -0.731 0.35 0.2462
v -0.7364 0.3803 0.2295
v -0.7473 0.3803 0.1962
v -0.7527 0.35 0.1796
v -0.7473 0.3197 0.1962
v -0.7364 0.3197 0.2295
v -0.731 0.35 0.2462
v -0.969 0.35 0.2462
v -0.9636 0.3803 0.2295
v -0.9527 0.3803 0.1962
v -0.9473 0.35 0.1796
v -0.9527 0.3197 0.1962
v -0.9636 0.3197 0.2295
v -0.969 0.35 0.2462
v -1.1615 0.35 0.1063
v -1.1473 0.3803 0.096
v -1.119 0.3803 0.0754
v -1.1048 0.35 0.0652
v -1.119 0.3197 0.0754
v -1.1473 0.3197 0.096
v -1.1615 0.35 0.1063
v -1.235 0.35 -0.12
v -1.2175 0.3803 -0.12
v -1.1825 0.3803 -0.12
v -1.165 0.35 -0.12
v -1.1825 0.3197 -0.12
v -1.2175 0.3197 -0.12
v -1.235 0.35 -0.12
v -1.1615 0.35 -0.3463
v -1.1473 0.3803 -0.336
v -1.119 0.3803 -0.3154
v -1.1048 0.35 -0.3052
v -1.119 0.3197 -0.3154
v -1.1473 0.3197 -0.336
v -1.1615 0.35 -0.3463
v -0.969 0.35 -0.4862
v -0.9636 0.3803 -0.4695
v -0.9527 0.3803 -0.4362
v -0.9473 0.35 -0.4196
v -0.9527 0.3197 -0.4362
v -0.9636 0.3197 -0.4695
v -0.969 0.35 -0.4862
v -0.731 0.35 -0.4862
v -0.7364 0.3803 -0.4695
v -0.7473 0.3803 -0.4362
v -0.7527 0.35 -0.4196
v -0.7473 0.3197 -0.4362
v -0.7364 0.3197 -0.4695
v -0.731 0.35 -0.4862
v -0.5385 0.35 -0.3463
v -0.5527 0.3803 -0.336
v -0.581 0.3803 -0.3154
v -0.5952 0.35 -0.3052
v -0.581 0.3197 -0.3154
v -0.5527 0.3197 -0.336
v -0.5385 0.35 -0.3463
v -0.465 0.35 -0.12
v -0.4825 0.3803 -0.12
v -0.5175 0.3803 -0.12
v -0.535 0.35 -0.12
v -0.5175 0.3197 -0.12
v -0.4825 0.3197 -0.12
v -0.465 0.35 -0.12
v 1.235 0.35 0.12
v 1.2175 0.3803 0.12
v 1.1825 0.3803 0.12
v 1.165 0.35 0.12
v 1.1825 0.3197 0.12
v 1.2175 0.3197 0.12
v 1.235 0.35 0.12
v 1.1615 0.35 0.3463
v 1.1473 0.3803 0.336
v 1.119 0.3803 0.3154
v 1.1048 0.35 0.3052
v 1.119 0.3197 0.3154
v 1.1473 0.3197 0.336
v 1.1615 0.35 0.3463
v 0.969 0.35 0.4862
v 0.9636 0.3803 0.4695
v 0.9527 0.3803 0.4362
v 0.9473 0.35 0.4196
v 0.9527 0.3197 0.4362
v 0.9636 0.3197 0.4695
v 0.969 0.35 0.4862
v 0.731 0.35 0.4862
v 0.7364 0.3803 0.4695
v 0.7473 0.3803 0.4362
v 0.7527 0.35 0.4196
v 0.7473 0.3197 0.4362
v 0.7364 0.3197 0.4695
v 0.731 0.35 0.4862
v 0.5385 0.35 0.3463
v 0.5527 0.3803 0.336
v 0.581 0.3803 0.3154
v 0.5952 0.35 0.3052
v 0.581 0.3197 0.3154
v 0.5527 0.3197 0.336
v 0.5385 0.35 0.3463
v 0.465 0.35 0.12
v 0.4825 0.3803 0.12
v 0.5175 0.3803 0.12
v 0.535 0.35 0.12
v 0.5175 0.3197 0.12
v 0.4825 0.3197 0.12
v 0.465 0.35 0.12
v 0.5385 0.35 -0.1063
v 0.5527 0.3803 -0.096
v 0.581 0.3803 -0.0754
v 0.5952 0.35 -0.0652
v 0.581 0.3197 -0.0754
v 0.5527 0.3197 -0.096
v 0.5385 0.35 -0.1063
v 0.731 0.35 -0.2462
v 0.7364 0.3803 -0.2295
v 0.7473 0.3803 -0.1962
v 0.7527 0.35 -0.1796
v 0.7473 0.3197 -0.1962
v 0.7364 0.3197 -0.2295
v 0.731 0.35 -0.2462
v 0.969 0.35 -0.2462
v 0.9636 0.3803 -0.2295
v 0.9527 0.3803 -0.1962
v 0.9473 0.35 -0.1796
v 0.9527 0.3197 -0.1962
v 0.9636 0.3197 -0.2295
v 0.969 0.35 -0.2462
v 1.1615 0.35 -0.1063
v 1.1473 0.3803 -0.096
v 1.119 0.3803 -0.0754
v 1.1048 0.35 -0.0652
v 1.119 0.3197 -0.0754
v 1.1473 0.3197 -0.096
v 1.1615 0.35 -0.1063
v 1.235 0.35 0.12
v 1.2175 0.3803 0.12
v 1.1825 0.3803 0.12
v 1.165 0.35 0.12
v 1.1825 0.3197 0.12
v 1.2175 0.3197 0.12
v 1.235 0.35 0.12
v 1.235 0.35 -0.12
v 1.2175 0.3803 -0.12
v 1.1825 0.3803 -0.12
v 1.165 0.35 -0.12
v 1.1825 0.3197 -0.12
v 1.2175 0.3197 -0.12
v 1.235 0.35 -0.12
v 1.1615 0.35 0.1063
v 1.1473 0.3803 0.096
v 1.119 0.3803 0.0754
v 1.1048 0.35 0.0652
v 1.119 0.3197 0.0754
v 1.1473 0.3197 0.096
v 1.1615 0.35 0.1063
v 0.969 0.35 0.2462
v 0.9636 0.3803 0.2295
v 0.9527 0.3803 0.1962
v 0.9473 0.35 0.1796
v 0.9527 0.3197 0.1962
v 0.9636 0.3197 0.2295
v 0.969 0.35 0.2462
v 0.731 0.35 0.2462
v 0.7364 0.3803 0.2295
v 0.7473 0.3803 0.1962
v 0.7527 0.35 0.1796
v 0.7473 0.3197 0.1962
v 0.7364 0.3197 0.2295
v 0.731 0.35 0.2462
v 0.5385 0.35 0.1063
v 0.5527 0.3803 0.096
v 0.581 0.3803 0.0754
v 0.5952 0.35 0.0652
v 0.581 0.3197 0.0754
v 0.5527 0.3197 0.096
v 0.5385 0.35 0.1063
v 0.465 0.35 -0.12
v 0.4825 0.3803 -0.12
v 0.5175 0.3803 -0.12
v 0.535 0.35 -0.12
v 0.5175 0.3197 -0.12
v 0.4825 0.3197 -0.12
v 0.465 0.35 -0.12
v 0.5385 0.35 -0.3463
v 0.5527 0.3803 -0.336
v 0.581 0.3803 -0.3154
v 0.5952 0.35 -0.3052
v 0.581 0.3197 -0.3154
v 0.5527 0.3197 -0.336
v 0.5385 0.35 -0.3463
v 0.731 0.35 -0.4862
v 0.7364 0.3803 -0.4695
v 0.7473 0.3803 -0.4362
v 0.7527 0.35 -0.4196
v 0.7473 0.3197 -0.4362
v 0.7364 0.3197 -0.4695
v 0.731 0.35 -0.4862
v 0.969 0.35 -0.4862
v 0.9636 0.3803 -0.4695
v 0.9527 0.3803 -0.4362
v 0.9473 0.35 -0.4196
v 0.9527 0.3197 -0.4362
v 0.9636 0.3197 -0.4695
v 0.969 0.35 -0.4862
v 1.1615 0.35 -0.3463
v 1.1473 0.3803 -0.336
v 1.119 0.3803 -0.3154
v 1.1048 0.35 -0.3052
v 1.119 0.3197 -0.3154
v 1.1473 0.3197 -0.336
v 1.1615 0.35 -0.3463
v 1.235 0.35 -0.12
v 1.2175 0.3803 -0.12
v 1.1825 0.3803 -0.12
v 1.165 0.35 -0.12
v 1.1825 0.3197 -0.12
v 1.2175 0.3197 -0.12
v 1.235 0.35 -0.12
v 0.0773 0.2537 -0.03
v 0.1339 0.1972 -0.03
v 0.5227 0.5863 -0.03
v 0.4661 0.6428 -0.03
v 0.0773 0.2537 0.03
v 0.1339 0.1972 0.03
v 0.5227 0.5863 0.03
v 0.4661 0.6428 0.03
v -0.3147 0.2507 -0.025
v -0.2567 0.2661 -0.025
v -0.3853 0.7493 -0.025
v -0.4433 0.7339 -0.025
v -0.3147 0.2507 0.025
v -0.2567 0.2661 0.025
v -0.3853 0.7493 0.025
v -0.4433 0.7339 0.025
v -0.3217 0.6281 -0.025
v 0.2265 0.6721 -0.025
v 0.2217 0.7319 -0.025
v -0.3265 0.6879 -0.025
v -0.3217 0.6281 0.025
v 0.2265 0.6721 0.025
v 0.2217 0.7319 0.025
v -0.3265 0.6879 0.025
v -0.8187 0.1717 0.03
v -0.3738 0.2389 0.03
v -0.3813 0.2883 0.03
v -0.8262 0.2211 0.03
v -0.8187 0.1717 0.07
v -0.3738 0.2389 0.07
v -0.3813 0.2883 0.07
v -0.8262 0.2211 0.07
v -0.8187 0.1717 -0.07
v -0.3738 0.2389 -0.07
v -0.3813 0.2883 -0.07
v -0.8262 0.2211 -0.07
v -0.8187 0.1717 -0.03
v -0.3738 0.2389 -0.03
v -0.3813 0.2883 -0.03
v -0.8262 0.2211 -0.03
v -0.7471 0.6714 0.035
v -0.4854 0.3053 0.035
v -0.4529 0.3286 0.035
v -0.7146 0.6947 0.035
v -0.7471 0.6714 0.065
v -0.4854 0.3053 0.065
v -0.4529 0.3286 0.065
v -0.7146 0.6947 0.065
v -0.7471 0.6714 -0.065
v -0.4854 0.3053 -0.065
v -0.4529 0.3286 -0.065
v -0.7146 0.6947 -0.065
v -0.7471 0.6714 -0.035
v -0.4854 0.3053 -0.035
v -0.4529 0.3286 -0.035
v -0.7146 0.6947 -0.035
v 0.8482 0.1881 -0.04
v 0.9003 0.218 -0.04
v 0.6518 0.6519 -0.04
v 0.5997 0.622 -0.04
v 0.8482 0.1881 0.04
v 0.9003 0.218 0.04
v 0.6518 0.6519 0.04
v 0.5997 0.622 0.04
v -0.45 0.73 -0.015
v -0.41 0.73 -0.015
v -0.41 1.03 -0.015
v -0.45 1.03 -0.015
v -0.45 0.73 0.015
v -0.41 0.73 0.015
v -0.41 1.03 0.015
v -0.45 1.03 0.015
v -0.575 1.025 -0.04
v -0.325 1.025 -0.04
v -0.325 1.075 -0.04
v -0.575 1.075 -0.04
v -0.575 1.025 0.04
v -0.325 1.025 0.04
v -0.325 1.075 0.04
v -0.575 1.075 0.04
v 0.675 0.795 -0.025
v 0.825 0.795 -0.025
v 0.825 0.845 -0.025
v 0.675 0.845 -0.025
v 0.675 0.795 0.025
v 0.825 0.795 0.025
v 0.825 0.845 0.025
v 0.675 0.845 0.025
v 0.75 0.855 -0.225
v 0.81 0.855 -0.225
v 0.81 0.905 -0.225
v 0.75 0.905 -0.225
v 0.75 0.855 0.225
v 0.81 0.855 0.225
v 0.81 0.905 0.225
v 0.75 0.905 0.225
v -0.21 0.225 0.08
v -0.2169 0.225 0.1144
v -0.2364 0.225 0.1436
v -0.2656 0.225 0.1631
v -0.3 0.225 0.17
v -0.3344 0.225 0.1631
v -0.3636 0.225 0.1436
v -0.3831 0.225 0.1144
v -0.39 0.225 0.08
v -0.3831 0.225 0.0456
v -0.3636 0.225 0.0164
v -0.3344 0.225 -0.0031
v -0.3 0.225 -0.01
v -0.2656 0.225 -0.0031
v -0.2364 0.225 0.0164
v -0.2169 0.225 0.0456
v -0.21 0.275 0.08
v -0.2169 0.275 0.1144
v -0.2364 0.275 0.1436
v -0.2656 0.275 0.1631
v -0.3 0.275 0.17
v -0.3344 0.275 0.1631
v -0.3636 0.275 0.1436
v -0.3831 0.275 0.1144
v -0.39 0.275 0.08
v -0.3831 0.275 0.0456
v -0.3636 0.275 0.0164
v -0.3344 0.275 -0.0031
v -0.3 0.275 -0.01
v -0.2656 0.275 -0.0031
v -0.2364 0.275 0.0164
v -0.2169 0.275 0.0456
v -0.3 0.225 0.08
v -0.3 0.275 0.08
v -0.8 0.33 0.06
v -0.8067 0.33 0.085
v -0.825 0.33 0.1033
v -0.85 0.33 0.11
v -0.875 0.33 0.1033
v -0.8933 0.33 0.085
v -0.9 0.33 0.06
v -0.8933 0.33 0.035
v -0.875 0.33 0.0167
v -0.85 0.33 0.01
v -0.825 0.33 0.0167
v -0.8067 0.33 0.035
v -0.8 0.37 0.06
v -0.8067 0.37 0.085
v -0.825 0.37 0.1033
v -0.85 0.37 0.11
v -0.875 0.37 0.1033
v -0.8933 0.37 0.085
v -0.9 0.37 0.06
v -0.8933 0.37 0.035
v -0.875 0.37 0.0167
v -0.85 0.37 0.01
v -0.825 0.37 0.0167
v -0.8067 0.37 0.035
v -0.85 0.33 0.06
v -0.85 0.37 0.06
vt 0 0
vt 0 0.16666666666666666
vt 0 0.3333333333333333
vt 0 0.5
vt 0 0.6666666666666666
vt 0 0.8333333333333334
vt 0 1
vt 0.1 0
vt 0.1 0.16666666666666666
vt 0.1 0.3333333333333333
vt 0.1 0.5
vt 0.1 0.6666666666666666
vt 0.1 0.8333333333333334
vt 0.1 1
vt 0.2 0
vt 0.2 0.16666666666666666
vt 0.2 0.3333333333333333
vt 0.2 0.5
vt 0.2 0.6666666666666666
vt 0.2 0.8333333333333334
vt 0.2 1
vt 0.3 0
vt 0.3 0.16666666666666666
vt 0.3 0.3333333333333333
vt 0.3 0.5
vt 0.3 0.6666666666666666
vt 0.3 0.8333333333333334
vt 0.3 1
vt 0.4 0
vt 0.4 0.16666666666666666
vt 0.4 0.3333333333333333
vt 0.4 0.5
vt 0.4 0.6666666666666666
vt 0.4 0.8333333333333334
vt 0.4 1
vt 0.5 0
vt 0.5 0.16666666666666666
vt 0.5 0.3333333333333333
vt 0.5 0.5
vt 0.5 0.6666666666666666
vt 0.5 0.8333333333333334
vt 0.5 1
vt 0.6 0
vt 0.6 0.16666666666666666
vt 0.6 0.3333333333333333
vt 0.6 0.5
vt 0.6 0.6666666666666666
vt 0.6 0.8333333333333334
vt 0.6 1
vt 0.7 0
vt 0.7 0.16666666666666666
vt 0.7 0.3333333333333333
vt 0.7 0.5
vt 0.7 0.6666666666666666
vt 0.7 0.8333333333333334
vt 0.7 1
vt 0.8 0
vt 0.8 0.16666666666666666
vt 0.8 0.3333333333333333
vt 0.8 0.5
vt 0.8 0.6666666666666666
vt 0.8 0.8333333333333334
vt 0.8 1
vt 0.9 0
vt 0.9 0.16666666666666666
vt 0.9 0.3333333333333333
vt 0.9 0.5
vt 0.9 0.6666666666666666
vt 0.9 0.8333333333333334
vt 0.9 1
vt 1 0
vt 1 0.16666666666666666
vt 1 0.3333333333333333
vt 1 0.5
vt 1 0.6666666666666666
vt 1 0.8333333333333334
vt 1 1
vt 0 0
vt 0 0.16666666666666666
vt 0 0.3333333333333333
vt 0 0.5
vt 0 0.6666666666666666
vt 0 0.8333333333333334
vt 0 1
vt 0.1 0
vt 0.1 0.16666666666666666
vt 0.1 0.3333333333333333
vt 0.1 0.5
vt 0.1 0.6666666666666666
vt 0.1 0.8333333333333334
vt 0.1 1
vt 0.2 0
vt 0.2 0.16666666666666666
vt 0.2 0.3333333333333333
vt 0.2 0.5
vt 0.2 0.6666666666666666
vt 0.2 0.8333333333333334
vt 0.2 1
vt 0.3 0
vt 0.3 0.16666666666666666
vt 0.3 0.3333333333333333
vt 0.3 0.5
vt 0.3 0.6666666666666666
vt 0.3 0.8333333333333334
vt 0.3 1
vt 0.4 0
vt 0.4 0.16666666666666666
vt 0.4 0.3333333333333333
vt 0.4 0.5
vt 0.4 0.6666666666666666
vt 0.4 0.8333333333333334
vt 0.4 1
vt 0.5 0
vt 0.5 0.16666666666666666
vt 0.5 0.3333333333333333
vt 0.5 0.5
vt 0.5 0.6666666666666666
vt 0.5 0.8333333333333334
vt 0.5 1
vt 0.6 0
vt 0.6 0.16666666666666666
vt 0.6 0.3333333333333333
vt 0.6 0.5
vt 0.6 0.6666666666666666
vt 0.6 0.8333333333333334
vt 0.6 1
vt 0.7 0
vt 0.7 0.16666666666666666
vt 0.7 0.3333333333333333
vt 0.7 0.5
vt 0.7 0.6666666666666666
vt 0.7 0.8333333333333334
vt 0.7 1
vt 0.8 0
vt 0.8 0.16666666666666666
vt 0.8 0.3333333333333333
vt 0.8 0.5
vt 0.8 0.6666666666666666
vt 0.8 0.8333333333333334
vt 0.8 1
vt 0.9 0
vt 0.9 0.16666666666666666
vt 0.9 0.3333333333333333
vt 0.9 0.5
vt 0.9 0.6666666666666666
vt 0.9 0.8333333333333334
vt 0.9 1
vt 1 0
vt 1 0.16666666666666666
vt 1 0.3333333333333333
vt 1 0.5
vt 1 0.6666666666666666
vt 1 0.8333333333333334
vt 1 1
vt 0 0
vt 0 0.16666666666666666
vt 0 0.3333333333333333
vt 0 0.5
vt 0 0.6666666666666666
vt 0 0.8333333333333334
vt 0 1
vt 0.1 0
vt 0.1 0.16666666666666666
vt 0.1 0.3333333333333333
vt 0.1 0.5
vt 0.1 0.6666666666666666
vt 0.1 0.8333333333333334
vt 0.1 1
vt 0.2 0
vt 0.2 0.16666666666666666
vt 0.2 0.3333333333333333
vt 0.2 0.5
vt 0.2 0.6666666666666666
vt 0.2 0.8333333333333334
vt 0.2 1
vt 0.3 0
vt 0.3 0.16666666666666666
vt 0.3 0.3333333333333333
vt 0.3 0.5
vt 0.3 0.6666666666666666
vt 0.3 0.8333333333333334
vt 0.3 1
vt 0.4 0
vt 0.4 0.16666666666666666
vt 0.4 0.3333333333333333
vt 0.4 0.5
vt 0.4 0.6666666666666666
vt 0.4 0.8333333333333334
vt 0.4 1
vt 0.5 0
vt 0.5 0.16666666666666666
vt 0.5 0.3333333333333333
vt 0.5 0.5
vt 0.5 0.6666666666666666
vt 0.5 0.8333333333333334
vt 0.5 1
vt 0.6 0
vt 0.6 0.16666666666666666
vt 0.6 0.3333333333333333
vt 0.6 0.5
vt 0.6 0.6666666666666666
vt 0.6 0.8333333333333334
vt 0.6 1
vt 0.7 0
vt 0.7 0.16666666666666666
vt 0.7 0.3333333333333333
vt 0.7 0.5
vt 0.7 0.6666666666666666
vt 0.7 0.8333333333333334
vt 0.7 1
vt 0.8 0
vt 0.8 0.16666666666666666
vt 0.8 0.3333333333333333
vt 0.8 0.5
vt 0.8 0.6666666666666666
vt 0.8 0.8333333333333334
vt 0.8 1
vt 0.9 0
vt 0.9 0.16666666666666666
vt 0.9 0.3333333333333333
vt 0.9 0.5
vt 0.9 0.6666666666666666
vt 0.9 0.8333333333333334
vt 0.9 1
vt 1 0
vt 1 0.16666666666666666
vt 1 0.3333333333333333
vt 1 0.5
vt 1 0.6666666666666666
vt 1 0.8333333333333334
vt 1 1
vt 0 0
vt 0 0.16666666666666666
vt 0 0.3333333333333333
vt 0 0.5
vt 0 0.6666666666666666
vt 0 0.8333333333333334
vt 0 1
vt 0.1 0
vt 0.1 0.16666666666666666
vt 0.1 0.3333333333333333
vt 0.1 0.5
vt 0.1 0.6666666666666666
vt 0.1 0.8333333333333334
vt 0.1 1
vt 0.2 0
vt 0.2 0.16666666666666666
vt 0.2 0.3333333333333333
vt 0.2 0.5
vt 0.2 0.6666666666666666
vt 0.2 0.8333333333333334
vt 0.2 1
vt 0.3 0
vt 0.3 0.16666666666666666
vt 0.3 0.3333333333333333
vt 0.3 0.5
vt 0.3 0.6666666666666666
vt 0.3 0.8333333333333334
vt 0.3 1
vt 0.4 0
vt 0.4 0.16666666666666666
vt 0.4 0.3333333333333333
vt 0.4 0.5
vt 0.4 0.6666666666666666
vt 0.4 0.8333333333333334
vt 0.4 1
vt 0.5 0
vt 0.5 0.16666666666666666
vt 0.5 0.3333333333333333
vt 0.5 0.5
vt 0.5 0.6666666666666666
vt 0.5 0.8333333333333334
vt 0.5 1
vt 0.6 0
vt 0.6 0.16666666666666666
vt 0.6 0.3333333333333333
vt 0.6 0.5
vt 0.6 0.6666666666666666
vt 0.6 0.8333333333333334
vt 0.6 1
vt 0.7 0
vt 0.7 0.16666666666666666
vt 0.7 0.3333333333333333
vt 0.7 0.5
vt 0.7 0.6666666666666666
vt 0.7 0.8333333333333334
vt 0.7 1
vt 0.8 0
vt 0.8 0.16666666666666666
vt 0.8 0.3333333333333333
vt 0.8 0.5
vt 0.8 0.6666666666666666
vt 0.8 0.8333333333333334
vt 0.8 1
vt 0.9 0
vt 0.9 0.16666666666666666
vt 0.9 0.3333333333333333
vt 0.9 0.5
vt 0.9 0.6666666666666666
vt 0.9 0.8333333333333334
vt 0.9 1
vt 1 0
vt 1 0.16666666666666666
vt 1 0.3333333333333333
vt 1 0.5
vt 1 0.6666666666666666
vt 1 0.8333333333333334
vt 1 1
vt 0.5 0.5
vt 0.5 0.5
vt 0.5 0.5
vt 0.5 0.5
vt 0.5 0.5
vt 0.5 0.5
vt 0.5 0.5
vt 0.5 0.5
vt 0.5 0.5
vt 0.5 0.5
vt 0.5 0.5
vt 0.5 0.5
vt 0.5 0.5
vt 0.5 0.5
vt 0.5 0.5
vt 0.5 0.5
vt 0.5 0.5
vt 0.5 0.5
vt 0.5 0.5
vt 0.5 0.5
vt 0.5 0.5
vt 0.5 0.5
vt 0.5 0.5
vt 0.5 0.5
vt 0.5 0.5
vt 0.5 0.5
vt 0.5 0.5
vt 0.5 0.5
vt 0.5 0.5
vt 0.5 0.5
vt 0.5 0.5
vt 0.5 0.5
vt 0.5 0.5
vt 0.5 0.5
vt 0.5 0.5
vt 0.5 0.5
vt 0.5 0.5
vt 0.5 0.5
vt 0.5 0.5
vt 0.5 0.5
vt 0.5 0.5
vt 0.5 0.5
vt 0.5 0.5
vt 0.5 0.5
vt 0.5 0.5
vt 0.5 0.5
vt 0.5 0.5
vt 0.5 0.5
vt 0.5 0.5
vt 0.5 0.5
vt 0.5 0.5
vt 0.5 0.5
vt 0.5 0.5
vt 0.5 0.5
vt 0.5 0.5
vt 0.5 0.5
vt 0.5 0.5
vt 0.5 0.5
vt 0.5 0.5
vt 0.5 0.5
vt 0.5 0.5
vt 0.5 0.5
vt 0.5 0.5
vt 0.5 0.5
vt 0.5 0.5
vt 0.5 0.5
vt 0.5 0.5
vt 0.5 0.5
vt 0.5 0.5
vt 0.5 0.5
vt 0.5 0.5
vt 0.5 0.5
vt 0.5 0.5
vt 0.5 0.5
vt 0.5 0.5
vt 0.5 0.5
vt 0.5 0.5
vt 0.5 0.5
vt 0.5 0.5
vt 0.5 0.5
vt 0.5 0.5
vt 0.5 0.5
vt 0.5 0.5
vt 0.5 0.5
vt 0.5 0.5
vt 0.5 0.5
vt 0.5 0.5
vt 0.5 0.5
vt 0.5 0.5
vt 0.5 0.5
vt 0.5 0.5
vt 0.5 0.5
vt 0.5 0.5
vt 0.5 0.5
vt 0.5 0.5
vt 0.5 0.5
vt 0 0
vt 0.0625 0
vt 0.125 0
vt 0.1875 0
vt 0.25 0
vt 0.3125 0
vt 0.375 0
vt 0.4375 0
vt 0.5 0
vt 0.5625 0
vt 0.625 0
vt 0.6875 0
vt 0.75 0
vt 0.8125 0
vt 0.875 0
vt 0.9375 0
vt 0 1
vt 0.0625 1
vt 0.125 1
vt 0.1875 1
vt 0.25 1
vt 0.3125 1
vt 0.375 1
vt 0.4375 1
vt 0.5 1
vt 0.5625 1
vt 0.625 1
vt 0.6875 1
vt 0.75 1
vt 0.8125 1
vt 0.875 1
vt 0.9375 1
vt 0.5 0.5
vt 0.5 0.5
vt 0 0
vt 0.08333333333333333 0
vt 0.16666666666666666 0
vt 0.25 0
vt 0.3333333333333333 0
vt 0.4166666666666667 0
vt 0.5 0
vt 0.5833333333333334 0
vt 0.6666666666666666 0
vt 0.75 0
vt 0.8333333333333334 0
vt 0.9166666666666666 0
vt 0 1
vt 0.08333333333333333 1
vt 0.16666666666666666 1
vt 0.25 1
vt 0.3333333333333333 1
vt 0.4166666666666667 1
vt 0.5 1
vt 0.5833333333333334 1
vt 0.6666666666666666 1
vt 0.75 1
vt 0.8333333333333334 1
vt 0.9166666666666666 1
vt 0.5 0.5
vt 0.5 0.5
vn 1 0 0
vn 0.5000000000000001 0.8660254037844386 0
vn -0.4999999999999998 0.8660254037844387 0
vn -1 1.2246467991473532e-16 0
vn -0.5000000000000004 -0.8660254037844385 0
vn 0.5000000000000001 -0.8660254037844386 0
vn 1 -2.4492935982947064e-16 0
vn 0.8090169943749475 0 0.5877852522924731
vn 0.40450849718747384 0.8660254037844386 0.2938926261462366
vn -0.40450849718747356 0.8660254037844387 -0.29389262614623646
vn -0.8090169943749475 1.2246467991473532e-16 -0.5877852522924731
vn -0.40450849718747406 -0.8660254037844385 -0.29389262614623685
vn 0.40450849718747384 -0.8660254037844386 0.2938926261462366
vn 0.8090169943749475 -2.4492935982947064e-16 0.5877852522924731
vn 0.30901699437494745 0 0.9510565162951535
vn 0.15450849718747375 0.8660254037844386 0.4755282581475769
vn -0.15450849718747367 0.8660254037844387 -0.47552825814757654
vn -0.30901699437494745 1.2246467991473532e-16 -0.9510565162951535
vn -0.15450849718747386 -0.8660254037844385 -0.4755282581475772
vn 0.15450849718747375 -0.8660254037844386 0.4755282581475769
vn 0.30901699437494745 -2.4492935982947064e-16 0.9510565162951535
vn -0.30901699437494734 0 0.9510565162951536
vn -0.1545084971874737 0.8660254037844386 0.47552825814757693
vn 0.15450849718747361 0.8660254037844387 -0.4755282581475766
vn 0.30901699437494734 1.2246467991473532e-16 -0.9510565162951536
vn 0.1545084971874738 -0.8660254037844385 -0.47552825814757727
vn -0.1545084971874737 -0.8660254037844386 0.47552825814757693
vn -0.30901699437494734 -2.4492935982947064e-16 0.9510565162951536
vn -0.8090169943749473 0 0.5877852522924732
vn -0.4045084971874738 0.8660254037844386 0.2938926261462367
vn 0.4045084971874735 0.8660254037844387 -0.2938926261462365
vn 0.8090169943749473 1.2246467991473532e-16 -0.5877852522924732
vn 0.404508497187474 -0.8660254037844385 -0.2938926261462369
vn -0.4045084971874738 -0.8660254037844386 0.2938926261462367
vn -0.8090169943749473 -2.4492935982947064e-16 0.5877852522924732
vn -1 0 1.2246467991473532e-16
vn -0.5000000000000001 0.8660254037844386 6.123233995736767e-17
vn 0.4999999999999998 0.8660254037844387 -6.123233995736764e-17
vn 1 1.2246467991473532e-16 -1.2246467991473532e-16
vn 0.5000000000000004 -0.8660254037844385 -6.123233995736771e-17
vn -0.5000000000000001 -0.8660254037844386 6.123233995736767e-17
vn -1 -2.4492935982947064e-16 1.2246467991473532e-16
vn -0.8090169943749475 0 -0.587785252292473
vn -0.40450849718747384 0.8660254037844386 -0.29389262614623657
vn 0.40450849718747356 0.8660254037844387 0.2938926261462364
vn 0.8090169943749475 1.2246467991473532e-16 0.587785252292473
vn 0.40450849718747406 -0.8660254037844385 0.2938926261462368
vn -0.40450849718747384 -0.8660254037844386 -0.29389262614623657
vn -0.8090169943749475 -2.4492935982947064e-16 -0.587785252292473
vn -0.30901699437494756 0 -0.9510565162951535
vn -0.1545084971874738 0.8660254037844386 -0.4755282581475769
vn 0.15450849718747373 0.8660254037844387 0.47552825814757654
vn 0.30901699437494756 1.2246467991473532e-16 0.9510565162951535
vn 0.15450849718747392 -0.8660254037844385 0.4755282581475772
vn -0.1545084971874738 -0.8660254037844386 -0.4755282581475769
vn -0.30901699437494756 -2.4492935982947064e-16 -0.9510565162951535
vn 0.30901699437494723 0 -0.9510565162951536
vn 0.15450849718747364 0.8660254037844386 -0.47552825814757693
vn -0.15450849718747356 0.8660254037844387 0.4755282581475766
vn -0.30901699437494723 1.2246467991473532e-16 0.9510565162951536
vn -0.15450849718747375 -0.8660254037844385 0.47552825814757727
vn 0.15450849718747364 -0.8660254037844386 -0.47552825814757693
vn 0.30901699437494723 -2.4492935982947064e-16 -0.9510565162951536
vn 0.8090169943749473 0 -0.5877852522924734
vn 0.4045084971874738 0.8660254037844386 -0.29389262614623674
vn -0.4045084971874735 0.8660254037844387 0.29389262614623657
vn -0.8090169943749473 1.2246467991473532e-16 0.5877852522924734
vn -0.404508497187474 -0.8660254037844385 0.29389262614623696
vn 0.4045084971874738 -0.8660254037844386 -0.29389262614623674
vn 0.8090169943749473 -2.4492935982947064e-16 -0.5877852522924734
vn 1 0 -2.4492935982947064e-16
vn 0.5000000000000001 0.8660254037844386 -1.2246467991473535e-16
vn -0.4999999999999998 0.8660254037844387 1.2246467991473527e-16
vn -1 1.2246467991473532e-16 2.4492935982947064e-16
vn -0.5000000000000004 -0.8660254037844385 1.2246467991473542e-16
vn 0.5000000000000001 -0.8660254037844386 -1.2246467991473535e-16
vn 1 -2.4492935982947064e-16 -2.4492935982947064e-16
vn 1 0 0
vn 0.5000000000000001 0.8660254037844386 0
vn -0.4999999999999998 0.8660254037844387 0
vn -1 1.2246467991473532e-16 0
vn -0.5000000000000004 -0.8660254037844385 0
vn 0.5000000000000001 -0.8660254037844386 0
vn 1 -2.4492935982947064e-16 0
vn 0.8090169943749475 0 0.5877852522924731
vn 0.40450849718747384 0.8660254037844386 0.2938926261462366
vn -0.40450849718747356 0.8660254037844387 -0.29389262614623646
vn -0.8090169943749475 1.2246467991473532e-16 -0.5877852522924731
vn -0.40450849718747406 -0.8660254037844385 -0.29389262614623685
vn 0.40450849718747384 -0.8660254037844386 0.2938926261462366
vn 0.8090169943749475 -2.4492935982947064e-16 0.5877852522924731
vn 0.30901699437494745 0 0.9510565162951535
vn 0.15450849718747375 0.8660254037844386 0.4755282581475769
vn -0.15450849718747367 0.8660254037844387 -0.47552825814757654
vn -0.30901699437494745 1.2246467991473532e-16 -0.9510565162951535
vn -0.15450849718747386 -0.8660254037844385 -0.4755282581475772
vn 0.15450849718747375 -0.8660254037844386 0.4755282581475769
vn 0.30901699437494745 -2.4492935982947064e-16 0.9510565162951535
vn -0.30901699437494734 0 0.9510565162951536
vn -0.1545084971874737 0.8660254037844386 0.47552825814757693
vn 0.15450849718747361 0.8660254037844387 -0.4755282581475766
vn 0.30901699437494734 1.2246467991473532e-16 -0.9510565162951536
vn 0.1545084971874738 -0.8660254037844385 -0.47552825814757727
vn -0.1545084971874737 -0.8660254037844386 0.47552825814757693
vn -0.30901699437494734 -2.4492935982947064e-16 0.9510565162951536
vn -0.8090169943749473 0 0.5877852522924732
vn -0.4045084971874738 0.8660254037844386 0.2938926261462367
vn 0.4045084971874735 0.8660254037844387 -0.2938926261462365
vn 0.8090169943749473 1.2246467991473532e-16 -0.5877852522924732
vn 0.404508497187474 -0.8660254037844385 -0.2938926261462369
vn -0.4045084971874738 -0.8660254037844386 0.2938926261462367
vn -0.8090169943749473 -2.4492935982947064e-16 0.5877852522924732
vn -1 0 1.2246467991473532e-16
vn -0.5000000000000001 0.8660254037844386 6.123233995736767e-17
vn 0.4999999999999998 0.8660254037844387 -6.123233995736764e-17
vn 1 1.2246467991473532e-16 -1.2246467991473532e-16
vn 0.5000000000000004 -0.8660254037844385 -6.123233995736771e-17
vn -0.5000000000000001 -0.8660254037844386 6.123233995736767e-17
vn -1 -2.4492935982947064e-16 1.2246467991473532e-16
vn -0.8090169943749475 0 -0.587785252292473
vn -0.40450849718747384 0.8660254037844386 -0.29389262614623657
vn 0.40450849718747356 0.8660254037844387 0.2938926261462364
vn 0.8090169943749475 1.2246467991473532e-16 0.587785252292473
vn 0.40450849718747406 -0.8660254037844385 0.2938926261462368
vn -0.40450849718747384 -0.8660254037844386 -0.29389262614623657
vn -0.8090169943749475 -2.4492935982947064e-16 -0.587785252292473
vn -0.30901699437494756 0 -0.9510565162951535
vn -0.1545084971874738 0.8660254037844386 -0.4755282581475769
vn 0.15450849718747373 0.8660254037844387 0.47552825814757654
vn 0.30901699437494756 1.2246467991473532e-16 0.9510565162951535
vn 0.15450849718747392 -0.8660254037844385 0.4755282581475772
vn -0.1545084971874738 -0.8660254037844386 -0.4755282581475769
vn -0.30901699437494756 -2.4492935982947064e-16 -0.9510565162951535
vn 0.30901699437494723 0 -0.9510565162951536
vn 0.15450849718747364 0.8660254037844386 -0.47552825814757693
vn -0.15450849718747356 0.8660254037844387 0.4755282581475766
vn -0.30901699437494723 1.2246467991473532e-16 0.9510565162951536
vn -0.15450849718747375 -0.8660254037844385 0.47552825814757727
vn 0.15450849718747364 -0.8660254037844386 -0.47552825814757693
vn 0.30901699437494723 -2.4492935982947064e-16 -0.9510565162951536
vn 0.8090169943749473 0 -0.5877852522924734
vn 0.4045084971874738 0.8660254037844386 -0.29389262614623674
vn -0.4045084971874735 0.8660254037844387 0.29389262614623657
vn -0.8090169943749473 1.2246467991473532e-16 0.5877852522924734
vn -0.404508497187474 -0.8660254037844385 0.29389262614623696
vn 0.4045084971874738 -0.8660254037844386 -0.29389262614623674
vn 0.8090169943749473 -2.4492935982947064e-16 -0.5877852522924734
vn 1 0 -2.4492935982947064e-16
vn 0.5000000000000001 0.8660254037844386 -1.2246467991473535e-16
vn -0.4999999999999998 0.8660254037844387 1.2246467991473527e-16
vn -1 1.2246467991473532e-16 2.4492935982947064e-16
vn -0.5000000000000004 -0.8660254037844385 1.2246467991473542e-16
vn 0.5000000000000001 -0.8660254037844386 -1.2246467991473535e-16
vn 1 -2.4492935982947064e-16 -2.4492935982947064e-16
vn 1 0 0
vn 0.5000000000000001 0.8660254037844386 0
vn -0.4999999999999998 0.8660254037844387 0
vn -1 1.2246467991473532e-16 0
vn -0.5000000000000004 -0.8660254037844385 0
vn 0.5000000000000001 -0.8660254037844386 0
vn 1 -2.4492935982947064e-16 0
vn 0.8090169943749475 0 0.5877852522924731
vn 0.40450849718747384 0.8660254037844386 0.2938926261462366
vn -0.40450849718747356 0.8660254037844387 -0.29389262614623646
vn -0.8090169943749475 1.2246467991473532e-16 -0.5877852522924731
vn -0.40450849718747406 -0.8660254037844385 -0.29389262614623685
vn 0.40450849718747384 -0.8660254037844386 0.2938926261462366
vn 0.8090169943749475 -2.4492935982947064e-16 0.5877852522924731
vn 0.30901699437494745 0 0.9510565162951535
vn 0.15450849718747375 0.8660254037844386 0.4755282581475769
vn -0.15450849718747367 0.8660254037844387 -0.47552825814757654
vn -0.30901699437494745 1.2246467991473532e-16 -0.9510565162951535
vn -0.15450849718747386 -0.8660254037844385 -0.4755282581475772
vn 0.15450849718747375 -0.8660254037844386 0.4755282581475769
vn 0.30901699437494745 -2.4492935982947064e-16 0.9510565162951535
vn -0.30901699437494734 0 0.9510565162951536
vn -0.1545084971874737 0.8660254037844386 0.47552825814757693
vn 0.15450849718747361 0.8660254037844387 -0.4755282581475766
vn 0.30901699437494734 1.2246467991473532e-16 -0.9510565162951536
vn 0.1545084971874738 -0.8660254037844385 -0.47552825814757727
vn -0.1545084971874737 -0.8660254037844386 0.47552825814757693
vn -0.30901699437494734 -2.4492935982947064e-16 0.9510565162951536
vn -0.8090169943749473 0 0.5877852522924732
vn -0.4045084971874738 0.8660254037844386 0.2938926261462367
vn 0.4045084971874735 0.8660254037844387 -0.2938926261462365
vn 0.8090169943749473 1.2246467991473532e-16 -0.5877852522924732
vn 0.404508497187474 -0.8660254037844385 -0.2938926261462369
vn -0.4045084971874738 -0.8660254037844386 0.2938926261462367
vn -0.8090169943749473 -2.4492935982947064e-16 0.5877852522924732
vn -1 0 1.2246467991473532e-16
vn -0.5000000000000001 0.8660254037844386 6.123233995736767e-17
vn 0.4999999999999998 0.8660254037844387 -6.123233995736764e-17
vn 1 1.2246467991473532e-16 -1.2246467991473532e-16
vn 0.5000000000000004 -0.8660254037844385 -6.123233995736771e-17
vn -0.5000000000000001 -0.8660254037844386 6.123233995736767e-17
vn -1 -2.4492935982947064e-16 1.2246467991473532e-16
vn -0.8090169943749475 0 -0.587785252292473
vn -0.40450849718747384 0.8660254037844386 -0.29389262614623657
vn 0.40450849718747356 0.8660254037844387 0.2938926261462364
vn 0.8090169943749475 1.2246467991473532e-16 0.587785252292473
vn 0.40450849718747406 -0.8660254037844385 0.2938926261462368
vn -0.40450849718747384 -0.8660254037844386 -0.29389262614623657
vn -0.8090169943749475 -2.4492935982947064e-16 -0.587785252292473
vn -0.30901699437494756 0 -0.9510565162951535
vn -0.1545084971874738 0.8660254037844386 -0.4755282581475769
vn 0.15450849718747373 0.8660254037844387 0.47552825814757654
vn 0.30901699437494756 1.2246467991473532e-16 0.9510565162951535
vn 0.15450849718747392 -0.8660254037844385 0.4755282581475772
vn -0.1545084971874738 -0.8660254037844386 -0.4755282581475769
vn -0.30901699437494756 -2.4492935982947064e-16 -0.9510565162951535
vn 0.30901699437494723 0 -0.9510565162951536
vn 0.15450849718747364 0.8660254037844386 -0.47552825814757693
vn -0.15450849718747356 0.8660254037844387 0.4755282581475766
vn -0.30901699437494723 1.2246467991473532e-16 0.9510565162951536
vn -0.15450849718747375 -0.8660254037844385 0.47552825814757727
vn 0.15450849718747364 -0.8660254037844386 -0.47552825814757693
vn 0.30901699437494723 -2.4492935982947064e-16 -0.9510565162951536
vn 0.8090169943749473 0 -0.5877852522924734
vn 0.4045084971874738 0.8660254037844386 -0.29389262614623674
vn -0.4045084971874735 0.8660254037844387 0.29389262614623657
vn -0.8090169943749473 1.2246467991473532e-16 0.5877852522924734
vn -0.404508497187474 -0.8660254037844385 0.29389262614623696
vn 0.4045084971874738 -0.8660254037844386 -0.29389262614623674
vn 0.8090169943749473 -2.4492935982947064e-16 -0.5877852522924734
vn 1 0 -2.4492935982947064e-16
vn 0.5000000000000001 0.8660254037844386 -1.2246467991473535e-16
vn -0.4999999999999998 0.8660254037844387 1.2246467991473527e-16
vn -1 1.2246467991473532e-16 2.4492935982947064e-16
vn -0.5000000000000004 -0.8660254037844385 1.2246467991473542e-16
vn 0.5000000000000001 -0.8660254037844386 -1.2246467991473535e-16
vn 1 -2.4492935982947064e-16 -2.4492935982947064e-16
vn 1 0 0
vn 0.5000000000000001 0.8660254037844386 0
vn -0.4999999999999998 0.8660254037844387 0
vn -1 1.2246467991473532e-16 0
vn -0.5000000000000004 -0.8660254037844385 0
vn 0.5000000000000001 -0.8660254037844386 0
vn 1 -2.4492935982947064e-16 0
vn 0.8090169943749475 0 0.5877852522924731
vn 0.40450849718747384 0.8660254037844386 0.2938926261462366
vn -0.40450849718747356 0.8660254037844387 -0.29389262614623646
vn -0.8090169943749475 1.2246467991473532e-16 -0.5877852522924731
vn -0.40450849718747406 -0.8660254037844385 -0.29389262614623685
vn 0.40450849718747384 -0.8660254037844386 0.2938926261462366
vn 0.8090169943749475 -2.4492935982947064e-16 0.5877852522924731
vn 0.30901699437494745 0 0.9510565162951535
vn 0.15450849718747375 0.8660254037844386 0.4755282581475769
vn -0.15450849718747367 0.8660254037844387 -0.47552825814757654
vn -0.30901699437494745 1.2246467991473532e-16 -0.9510565162951535
vn -0.15450849718747386 -0.8660254037844385 -0.4755282581475772
vn 0.15450849718747375 -0.8660254037844386 0.4755282581475769
vn 0.30901699437494745 -2.4492935982947064e-16 0.9510565162951535
vn -0.30901699437494734 0 0.9510565162951536
vn -0.1545084971874737 0.8660254037844386 0.47552825814757693
vn 0.15450849718747361 0.8660254037844387 -0.4755282581475766
vn 0.30901699437494734 1.2246467991473532e-16 -0.9510565162951536
vn 0.1545084971874738 -0.8660254037844385 -0.47552825814757727
vn -0.1545084971874737 -0.8660254037844386 0.47552825814757693
vn -0.30901699437494734 -2.4492935982947064e-16 0.9510565162951536
vn -0.8090169943749473 0 0.5877852522924732
vn -0.4045084971874738 0.8660254037844386 0.2938926261462367
vn 0.4045084971874735 0.8660254037844387 -0.2938926261462365
vn 0.8090169943749473 1.2246467991473532e-16 -0.5877852522924732
vn 0.404508497187474 -0.8660254037844385 -0.2938926261462369
vn -0.4045084971874738 -0.8660254037844386 0.2938926261462367
vn -0.8090169943749473 -2.4492935982947064e-16 0.5877852522924732
vn -1 0 1.2246467991473532e-16
vn -0.5000000000000001 0.8660254037844386 6.123233995736767e-17
vn 0.4999999999999998 0.8660254037844387 -6.123233995736764e-17
vn 1 1.2246467991473532e-16 -1.2246467991473532e-16
vn 0.5000000000000004 -0.8660254037844385 -6.123233995736771e-17
vn -0.5000000000000001 -0.8660254037844386 6.123233995736767e-17
vn -1 -2.4492935982947064e-16 1.2246467991473532e-16
vn -0.8090169943749475 0 -0.587785252292473
vn -0.40450849718747384 0.8660254037844386 -0.29389262614623657
vn 0.40450849718747356 0.8660254037844387 0.2938926261462364
vn 0.8090169943749475 1.2246467991473532e-16 0.587785252292473
vn 0.40450849718747406 -0.8660254037844385 0.2938926261462368
vn -0.40450849718747384 -0.8660254037844386 -0.29389262614623657
vn -0.8090169943749475 -2.4492935982947064e-16 -0.587785252292473
vn -0.30901699437494756 0 -0.9510565162951535
vn -0.1545084971874738 0.8660254037844386 -0.4755282581475769
vn 0.15450849718747373 0.8660254037844387 0.47552825814757654
vn 0.30901699437494756 1.2246467991473532e-16 0.9510565162951535
vn 0.15450849718747392 -0.8660254037844385 0.4755282581475772
vn -0.1545084971874738 -0.8660254037844386 -0.4755282581475769
vn -0.30901699437494756 -2.4492935982947064e-16 -0.9510565162951535
vn 0.30901699437494723 0 -0.9510565162951536
vn 0.15450849718747364 0.8660254037844386 -0.47552825814757693
vn -0.15450849718747356 0.8660254037844387 0.4755282581475766
vn -0.30901699437494723 1.2246467991473532e-16 0.9510565162951536
vn -0.15450849718747375 -0.8660254037844385 0.47552825814757727
vn 0.15450849718747364 -0.8660254037844386 -0.47552825814757693
vn 0.30901699437494723 -2.4492935982947064e-16 -0.9510565162951536
vn 0.8090169943749473 0 -0.5877852522924734
vn 0.4045084971874738 0.8660254037844386 -0.29389262614623674
vn -0.4045084971874735 0.8660254037844387 0.29389262614623657
vn -0.8090169943749473 1.2246467991473532e-16 0.5877852522924734
vn -0.404508497187474 -0.8660254037844385 0.29389262614623696
vn 0.4045084971874738 -0.8660254037844386 -0.29389262614623674
vn 0.8090169943749473 -2.4492935982947064e-16 -0.5877852522924734
vn 1 0 -2.4492935982947064e-16
vn 0.5000000000000001 0.8660254037844386 -1.2246467991473535e-16
vn -0.4999999999999998 0.8660254037844387 1.2246467991473527e-16
vn -1 1.2246467991473532e-16 2.4492935982947064e-16
vn -0.5000000000000004 -0.8660254037844385 1.2246467991473542e-16
vn 0.5000000000000001 -0.8660254037844386 -1.2246467991473535e-16
vn 1 -2.4492935982947064e-16 -2.4492935982947064e-16
vn 0 1 0
vn 0 1 0
vn 0 1 0
vn 0 1 0
vn 0 1 0
vn 0 1 0
vn 0 1 0
vn 0 1 0
vn 0 1 0
vn 0 1 0
vn 0 1 0
vn 0 1 0
vn 0 1 0
vn 0 1 0
vn 0 1 0
vn 0 1 0
vn 0 1 0
vn 0 1 0
vn 0 1 0
vn 0 1 0
vn 0 1 0
vn 0 1 0
vn 0 1 0
vn 0 1 0
vn 0 1 0
vn 0 1 0
vn 0 1 0
vn 0 1 0
vn 0 1 0
vn 0 1 0
vn 0 1 0
vn 0 1 0
vn 0 1 0
vn 0 1 0
vn 0 1 0
vn 0 1 0
vn 0 1 0
vn 0 1 0
vn 0 1 0
vn 0 1 0
vn 0 1 0
vn 0 1 0
vn 0 1 0
vn 0 1 0
vn 0 1 0
vn 0 1 0
vn 0 1 0
vn 0 1 0
vn 0 1 0
vn 0 1 0
vn 0 1 0
vn 0 1 0
vn 0 1 0
vn 0 1 0
vn 0 1 0
vn 0 1 0
vn 0 1 0
vn 0 1 0
vn 0 1 0
vn 0 1 0
vn 0 1 0
vn 0 1 0
vn 0 1 0
vn 0 1 0
vn 0 1 0
vn 0 1 0
vn 0 1 0
vn 0 1 0
vn 0 1 0
vn 0 1 0
vn 0 1 0
vn 0 1 0
vn 0 1 0
vn 0 1 0
vn 0 1 0
vn 0 1 0
vn 0 1 0
vn 0 1 0
vn 0 1 0
vn 0 1 0
vn 0 1 0
vn 0 1 0
vn 0 1 0
vn 0 1 0
vn 0 1 0
vn 0 1 0
vn 0 1 0
vn 0 1 0
vn 0 1 0
vn 0 1 0
vn 0 1 0
vn 0 1 0
vn 0 1 0
vn 0 1 0
vn 0 1 0
vn 0 1 0
vn 0 -1 0
vn 0 -1 0
vn 0 -1 0
vn 0 -1 0
vn 0 -1 0
vn 0 -1 0
vn 0 -1 0
vn 0 -1 0
vn 0 -1 0
vn 0 -1 0
vn 0 -1 0
vn 0 -1 0
vn 0 -1 0
vn 0 -1 0
vn 0 -1 0
vn 0 -1 0
vn 0 1 0
vn 0 1 0
vn 0 1 0
vn 0 1 0
vn 0 1 0
vn 0 1 0
vn 0 1 0
vn 0 1 0
vn 0 1 0
vn 0 1 0
vn 0 1 0
vn 0 1 0
vn 0 1 0
vn 0 1 0
vn 0 1 0
vn 0 1 0
vn 0 -1 0
vn 0 1 0
vn 0 -1 0
vn 0 -1 0
vn 0 -1 0
vn 0 -1 0
vn 0 -1 0
vn 0 -1 0
vn 0 -1 0
vn 0 -1 0
vn 0 -1 0
vn 0 -1 0
vn 0 -1 0
vn 0 -1 0
vn 0 1 0
vn 0 1 0
vn 0 1 0
vn 0 1 0
vn 0 1 0
vn 0 1 0
vn 0 1 0
vn 0 1 0
vn 0 1 0
vn 0 1 0
vn 0 1 0
vn 0 1 0
vn 0 -1 0
vn 0 1 0
f 1/1/1 8/8/8 9/9/9
f 1/1/1 9/9/9 2/2/2
f 2/2/2 9/9/9 10/10/10
f 2/2/2 10/10/10 3/3/3
f 3/3/3 10/10/10 11/11/11
f 3/3/3 11/11/11 4/4/4
f 4/4/4 11/11/11 12/12/12
f 4/4/4 12/12/12 5/5/5
f 5/5/5 12/12/12 13/13/13
f 5/5/5 13/13/13 6/6/6
f 6/6/6 13/13/13 14/14/14
f 6/6/6 14/14/14 7/7/7
f 8/8/8 15/15/15 16/16/16
f 8/8/8 16/16/16 9/9/9
f 9/9/9 16/16/16 17/17/17
f 9/9/9 17/17/17 10/10/10
f 10/10/10 17/17/17 18/18/18
f 10/10/10 18/18/18 11/11/11
f 11/11/11 18/18/18 19/19/19
f 11/11/11 19/19/19 12/12/12
f 12/12/12 19/19/19 20/20/20
f 12/12/12 20/20/20 13/13/13
f 13/13/13 20/20/20 21/21/21
f 13/13/13 21/21/21 14/14/14
f 15/15/15 22/22/22 23/23/23
f 15/15/15 23/23/23 16/16/16
f 16/16/16 23/23/23 24/24/24
f 16/16/16 24/24/24 17/17/17
f 17/17/17 24/24/24 25/25/25
f 17/17/17 25/25/25 18/18/18
f 18/18/18 25/25/25 26/26/26
f 18/18/18 26/26/26 19/19/19
f 19/19/19 26/26/26 27/27/27
f 19/19/19 27/27/27 20/20/20
f 20/20/20 27/27/27 28/28/28
f 20/20/20 28/28/28 21/21/21
f 22/22/22 29/29/29 30/30/30
f 22/22/22 30/30/30 23/23/23
f 23/23/23 30/30/30 31/31/31
f 23/23/23 31/31/31 24/24/24
f 24/24/24 31/31/31 32/32/32
f 24/24/24 32/32/32 25/25/25
f 25/25/25 32/32/32 33/33/33
f 25/25/25 33/33/33 26/26/26
f 26/26/26 33/33/33 34/34/34
f 26/26/26 34/34/34 27/27/27
f 27/27/27 34/34/34 35/35/35
f 27/27/27 35/35/35 28/28/28
f 29/29/29 36/36/36 37/37/37
f 29/29/29 37/37/37 30/30/30
f 30/30/30 37/37/37 38/38/38
f 30/30/30 38/38/38 31/31/31
f 31/31/31 38/38/38 39/39/39
f 31/31/31 39/39/39 32/32/32
f 32/32/32 39/39/39 40/40/40
f 32/32/32 40/40/40 33/33/33
f 33/33/33 40/40/40 41/41/41
f 33/33/33 41/41/41 34/34/34
f 34/34/34 41/41/41 42/42/42
f 34/34/34 42/42/42 35/35/35
f 36/36/36 43/43/43 44/44/44
f 36/36/36 44/44/44 37/37/37
f 37/37/37 44/44/44 45/45/45
f 37/37/37 45/45/45 38/38/38
f 38/38/38 45/45/45 46/46/46
f 38/38/38 46/46/46 39/39/39
f 39/39/39 46/46/46 47/47/47
f 39/39/39 47/47/47 40/40/40
f 40/40/40 47/47/47 48/48/48
f 40/40/40 48/48/48 41/41/41
f 41/41/41 48/48/48 49/49/49
f 41/41/41 49/49/49 42/42/42
f 43/43/43 50/50/50 51/51/51
f 43/43/43 51/51/51 44/44/44
f 44/44/44 51/51/51 52/52/52
f 44/44/44 52/52/52 45/45/45
f 45/45/45 52/52/52 53/53/53
f 45/45/45 53/53/53 46/46/46
f 46/46/46 53/53/53 54/54/54
f 46/46/46 54/54/54 47/47/47
f 47/47/47 54/54/54 55/55/55
f 47/47/47 55/55/55 48/48/48
f 48/48/48 55/55/55 56/56/56
f 48/48/48 56/56/56 49/49/49
f 50/50/50 57/57/57 58/58/58
f 50/50/50 58/58/58 51/51/51
f 51/51/51 58/58/58 59/59/59
f 51/51/51 59/59/59 52/52/52
f 52/52/52 59/59/59 60/60/60
f 52/52/52 60/60/60 53/53/53
f 53/53/53 60/60/60 61/61/61
f 53/53/53 61/61/61 54/54/54
f 54/54/54 61/61/61 62/62/62
f 54/54/54 62/62/62 55/55/55
f 55/55/55 62/62/62 63/63/63
f 55/55/55 63/63/63 56/56/56
f 57/57/57 64/64/64 65/65/65
f 57/57/57 65/65/65 58/58/58
f 58/58/58 65/65/65 66/66/66
f 58/58/58 66/66/66 59/59/59
f 59/59/59 66/66/66 67/67/67
f 59/59/59 67/67/67 60/60/60
f 60/60/60 67/67/67 68/68/68
f 60/60/60 68/68/68 61/61/61
f 61/61/61 68/68/68 69/69/69
f 61/61/61 69/69/69 62/62/62
f 62/62/62 69/69/69 70/70/70
f 62/62/62 70/70/70 63/63/63
f 64/64/64 71/71/71 72/72/72
f 64/64/64 72/72/72 65/65/65
f 65/65/65 72/72/72 73/73/73
f 65/65/65 73/73/73 66/66/66
f 66/66/66 73/73/73 74/74/74
f 66/66/66 74/74/74 67/67/67
f 67/67/67 74/74/74 75/75/75
f 67/67/67 75/75/75 68/68/68
f 68/68/68 75/75/75 76/76/76
f 68/68/68 76/76/76 69/69/69
f 69/69/69 76/76/76 77/77/77
f 69/69/69 77/77/77 70/70/70
f 78/78/78 85/85/85 86/86/86
f 78/78/78 86/86/86 79/79/79
f 79/79/79 86/86/86 87/87/87
f 79/79/79 87/87/87 80/80/80
f 80/80/80 87/87/87 88/88/88
f 80/80/80 88/88/88 81/81/81
f 81/81/81 88/88/88 89/89/89
f 81/81/81 89/89/89 82/82/82
f 82/82/82 89/89/89 90/90/90
f 82/82/82 90/90/90 83/83/83
f 83/83/83 90/90/90 91/91/91
f 83/83/83 91/91/91 84/84/84
f 85/85/85 92/92/92 93/93/93
f 85/85/85 93/93/93 86/86/86
f 86/86/86 93/93/93 94/94/94
f 86/86/86 94/94/94 87/87/87
f 87/87/87 94/94/94 95/95/95
f 87/87/87 95/95/95 88/88/88
f 88/88/88 95/95/95 96/96/96
f 88/88/88 96/96/96 89/89/89
f 89/89/89 96/96/96 97/97/97
f 89/89/89 97/97/97 90/90/90
f 90/90/90 97/97/97 98/98/98
f 90/90/90 98/98/98 91/91/91
f 92/92/92 99/99/99 100/100/100
f 92/92/92 100/100/100 93/93/93
f 93/93/93 100/100/100 101/101/101
f 93/93/93 101/101/101 94/94/94
f 94/94/94 101/101/101 102/102/102
f 94/94/94 102/102/102 95/95/95
f 95/95/95 102/102/102 103/103/103
f 95/95/95 103/103/103 96/96/96
f 96/96/96 103/103/103 104/104/104
f 96/96/96 104/104/104 97/97/97
f 97/97/97 104/104/104 105/105/105
f 97/97/97 105/105/105 98/98/98
f 99/99/99 106/106/106 107/107/107
f 99/99/99 107/107/107 100/100/100
f 100/100/100 107/107/107 108/108/108
f 100/100/100 108/108/108 101/101/101
f 101/101/101 108/108/108 109/109/109
f 101/101/101 109/109/109 102/102/102
f 102/102/102 109/109/109 110/110/110
f 102/102/102 110/110/110 103/103/103
f 103/103/103 110/110/110 111/111/111
f 103/103/103 111/111/111 104/104/104
f 104/104/104 111/111/111 112/112/112
f 104/104/104 112/112/112 105/105/105
f 106/106/106 113/113/113 114/114/114
f 106/106/106 114/114/114 107/107/107
f 107/107/107 114/114/114 115/115/115
f 107/107/107 115/115/115 108/108/108
f 108/108/108 115/115/115 116/116/116
f 108/108/108 116/116/116 109/109/109
f 109/109/109 116/116/116 117/117/117
f 109/109/109 117/117/117 110/110/110
f 110/110/110 117/117/117 118/118/118
f 110/110/110 118/118/118 111/111/111
f 111/111/111 118/118/118 119/119/119
f 111/111/111 119/119/119 112/112/112
f 113/113/113 120/120/120 121/121/121
f 113/113/113 121/121/121 114/114/114
f 114/114/114 121/121/121 122/122/122
f 114/114/114 122/122/122 115/115/115
f 115/115/115 122/122/122 123/123/123
f 115/115/115 123/123/123 116/116/116
f 116/116/116 123/123/123 124/124/124
f 116/116/116 124/124/124 117/117/117
f 117/117/117 124/124/124 125/125/125
f 117/117/117 125/125/125 118/118/118
f 118/118/118 125/125/125 126/126/126
f 118/118/118 126/126/126 119/119/119
f 120/120/120 127/127/127 128/128/128
f 120/120/120 128/128/128 121/121/121
f 121/121/121 128/128/128 129/129/129
f 121/121/121 129/129/129 122/122/122
f 122/122/122 129/129/129 130/130/130
f 122/122/122 130/130/130 123/123/123
f 123/123/123 130/130/130 131/131/131
f 123/123/123 131/131/131 124/124/124
f 124/124/124 131/131/131 132/132/132
f 124/124/124 132/132/132 125/125/125
f 125/125/125 132/132/132 133/133/133
f 125/125/125 133/133/133 126/126/126
f 127/127/127 134/134/134 135/135/135
f 127/127/127 135/135/135 128/128/128
f 128/128/128 135/135/135 136/136/136
f 128/128/128 136/136/136 129/129/129
f 129/129/129 136/136/136 137/137/137
f 129/129/129 137/137/137 130/130/130
f 130/130/130 137/137/137 138/138/138
f 130/130/130 138/138/138 131/131/131
f 131/131/131 138/138/138 139/139/139
f 131/131/131 139/139/139 132/132/132
f 132/132/132 139/139/139 140/140/140
f 132/132/132 140/140/140 133/133/133
f 134/134/134 141/141/141 142/142/142
f 134/134/134 142/142/142 135/135/135
f 135/135/135 142/142/142 143/143/143
f 135/135/135 143/143/143 136/136/136
f 136/136/136 143/143/143 144/144/144
f 136/136/136 144/144/144 137/137/137
f 137/137/137 144/144/144 145/145/145
f 137/137/137 145/145/145 138/138/138
f 138/138/138 145/145/145 146/146/146
f 138/138/138 146/146/146 139/139/139
f 139/139/139 146/146/146 147/147/147
f 139/139/139 147/147/147 140/140/140
f 141/141/141 148/148/148 149/149/149
f 141/141/141 149/149/149 142/142/142
f 142/142/142 149/149/149 150/150/150
f 142/142/142 150/150/150 143/143/143
f 143/143/143 150/150/150 151/151/151
f 143/143/143 151/151/151 144/144/144
f 144/144/144 151/151/151 152/152/152
f 144/144/144 152/152/152 145/145/145
f 145/145/145 152/152/152 153/153/153
f 145/145/145 153/153/153 146/146/146
f 146/146/146 153/153/153 154/154/154
f 146/146/146 154/154/154 147/147/147
f 155/155/155 162/162/162 163/163/163
f 155/155/155 163/163/163 156/156/156
f 156/156/156 163/163/163 164/164/164
f 156/156/156 164/164/164 157/157/157
f 157/157/157 164/164/164 165/165/165
f 157/157/157 165/165/165 158/158/158
f 158/158/158 165/165/165 166/166/166
f 158/158/158 166/166/166 159/159/159
f 159/159/159 166/166/166 167/167/167
f 159/159/159 167/167/167 160/160/160
f 160/160/160 167/167/167 168/168/168
f 160/160/160 168/168/168 161/161/161
f 162/162/162 169/169/169 170/170/170
f 162/162/162 170/170/170 163/163/163
f 163/163/163 170/170/170 171/171/171
f 163/163/163 171/171/171 164/164/164
f 164/164/164 171/171/171 172/172/172
f 164/164/164 172/172/172 165/165/165
f 165/165/165 172/172/172 173/173/173
f 165/165/165 173/173/173 166/166/166
f 166/166/166 173/173/173 174/174/174
f 166/166/166 174/174/174 167/167/167
f 167/167/167 174/174/174 175/175/175
f 167/167/167 175/175/175 168/168/168
f 169/169/169 176/176/176 177/177/177
f 169/169/169 177/177/177 170/170/170
f 170/170/170 177/177/177 178/178/178
f 170/170/170 178/178/178 171/171/171
f 171/171/171 178/178/178 179/179/179
f 171/171/171 179/179/179 172/172/172
f 172/172/172 179/179/179 180/180/180
f 172/172/172 180/180/180 173/173/173
f 173/173/173 180/180/180 181/181/181
f 173/173/173 181/181/181 174/174/174
f 174/174/174 181/181/181 182/182/182
f 174/174/174 182/182/182 175/175/175
f 176/176/176 183/183/183 184/184/184
f 176/176/176 184/184/184 177/177/177
f 177/177/177 184/184/184 185/185/185
f 177/177/177 185/185/185 178/178/178
f 178/178/178 185/185/185 186/186/186
f 178/178/178 186/186/186 179/179/179
f 179/179/179 186/186/186 187/187/187
f 179/179/179 187/187/187 180/180/180
f 180/180/180 187/187/187 188/188/188
f 180/180/180 188/188/188 181/181/181
f 181/181/181 188/188/188 189/189/189
f 181/181/181 189/189/189 182/182/182
f 183/183/183 190/190/190 191/191/191
f 183/183/183 191/191/191 184/184/184
f 184/184/184 191/191/191 192/192/192
f 184/184/184 192/192/192 185/185/185
f 185/185/185 192/192/192 193/193/193
f 185/185/185 193/193/193 186/186/186
f 186/186/186 193/193/193 194/194/194
f 186/186/186 194/194/194 187/187/187
f 187/187/187 194/194/194 195/195/195
f 187/187/187 195/195/195 188/188/188
f 188/188/188 195/195/195 196/196/196
f 188/188/188 196/196/196 189/189/189
f 190/190/190 197/197/197 198/198/198
f 190/190/190 198/198/198 191/191/191
f 191/191/191 198/198/198 199/199/199
f 191/191/191 199/199/199 192/192/192
f 192/192/192 199/199/199 200/200/200
f 192/192/192 200/200/200 193/193/193
f 193/193/193 200/200/200 201/201/201
f 193/193/193 201/201/201 194/194/194
f 194/194/194 201/201/201 202/202/202
f 194/194/194 202/202/202 195/195/195
f 195/195/195 202/202/202 203/203/203
f 195/195/195 203/203/203 196/196/196
f 197/197/197 204/204/204 205/205/205
f 197/197/197 205/205/205 198/198/198
f 198/198/198 205/205/205 206/206/206
f 198/198/198 206/206/206 199/199/199
f 199/199/199 206/206/206 207/207/207
f 199/199/199 207/207/207 200/200/200
f 200/200/200 207/207/207 208/208/208
f 200/200/200 208/208/208 201/201/201
f 201/201/201 208/208/208 209/209/209
f 201/201/201 209/209/209 202/202/202
f 202/202/202 209/209/209 210/210/210
f 202/202/202 210/210/210 203/203/203
f 204/204/204 211/211/211 212/212/212
f 204/204/204 212/212/212 205/205/205
f 205/205/205 212/212/212 213/213/213
f 205/205/205 213/213/213 206/206/206
f 206/206/206 213/213/213 214/214/214
f 206/206/206 214/214/214 207/207/207
f 207/207/207 214/214/214 215/215/215
f 207/207/207 215/215/215 208/208/208
f 208/208/208 215/215/215 216/216/216
f 208/208/208 216/216/216 209/209/209
f 209/209/209 216/216/216 217/217/217
f 209/209/209 217/217/217 210/210/210
f 211/211/211 218/218/218 219/219/219
f 211/211/211 219/219/219 212/212/212
f 212/212/212 219/219/219 220/220/220
f 212/212/212 220/220/220 213/213/213
f 213/213/213 220/220/220 221/221/221
f 213/213/213 221/221/221 214/214/214
f 214/214/214 221/221/221 222/222/222
f 214/214/214 222/222/222 215/215/215
f 215/215/215 222/222/222 223/223/223
f 215/215/215 223/223/223 216/216/216
f 216/216/216 223/223/223 224/224/224
f 216/216/216 224/224/224 217/217/217
f 218/218/218 225/225/225 226/226/226
f 218/218/218 226/226/226 219/219/219
f 219/219/219 226/226/226 227/227/227
f 219/219/219 227/227/227 220/220/220
f 220/220/220 227/227/227 228/228/228
f 220/220/220 228/228/228 221/221/221
f 221/221/221 228/228/228 229/229/229
f 221/221/221 229/229/229 222/222/222
f 222/222/222 229/229/229 230/230/230
f 222/222/222 230/230/230 223/223/223
f 223/223/223 230/230/230 231/231/231
f 223/223/223 231/231/231 224/224/224
f 232/232/232 239/239/239 240/240/240
f 232/232/232 240/240/240 233/233/233
f 233/233/233 240/240/240 241/241/241
f 233/233/233 241/241/241 234/234/234
f 234/234/234 241/241/241 242/242/242
f 234/234/234 242/242/242 235/235/235
f 235/235/235 242/242/242 243/243/243
f 235/235/235 243/243/243 236/236/236
f 236/236/236 243/243/243 244/244/244
f 236/236/236 244/244/244 237/237/237
f 237/237/237 244/244/244 245/245/245
f 237/237/237 245/245/245 238/238/238
f 239/239/239 246/246/246 247/247/247
f 239/239/239 247/247/247 240/240/240
f 240/240/240 247/247/247 248/248/248
f 240/240/240 248/248/248 241/241/241
f 241/241/241 248/248/248 249/249/249
f 241/241/241 249/249/249 242/242/242
f 242/242/242 249/249/249 250/250/250
f 242/242/242 250/250/250 243/243/243
f 243/243/243 250/250/250 251/251/251
f 243/243/243 251/251/251 244/244/244
f 244/244/244 251/251/251 252/252/252
f 244/244/244 252/252/252 245/245/245
f 246/246/246 253/253/253 254/254/254
f 246/246/246 254/254/254 247/247/247
f 247/247/247 254/254/254 255/255/255
f 247/247/247 255/255/255 248/248/248
f 248/248/248 255/255/255 256/256/256
f 248/248/248 256/256/256 249/249/249
f 249/249/249 256/256/256 257/257/257
f 249/249/249 257/257/257 250/250/250
f 250/250/250 257/257/257 258/258/258
f 250/250/250 258/258/258 251/251/251
f 251/251/251 258/258/258 259/259/259
f 251/251/251 259/259/259 252/252/252
f 253/253/253 260/260/260 261/261/261
f 253/253/253 261/261/261 254/254/254
f 254/254/254 261/261/261 262/262/262
f 254/254/254 262/262/262 255/255/255
f 255/255/255 262/262/262 263/263/263
f 255/255/255 263/263/263 256/256/256
f 256/256/256 263/263/263 264/264/264
f 256/256/256 264/264/264 257/257/257
f 257/257/257 264/264/264 265/265/265
f 257/257/257 265/265/265 258/258/258
f 258/258/258 265/265/265 266/266/266
f 258/258/258 266/266/266 259/259/259
f 260/260/260 267/267/267 268/268/268
f 260/260/260 268/268/268 261/261/261
f 261/261/261 268/268/268 269/269/269
f 261/261/261 269/269/269 262/262/262
f 262/262/262 269/269/269 270/270/270
f 262/262/262 270/270/270 263/263/263
f 263/263/263 270/270/270 271/271/271
f 263/263/263 271/271/271 264/264/264
f 264/264/264 271/271/271 272/272/272
f 264/264/264 272/272/272 265/265/265
f 265/265/265 272/272/272 273/273/273
f 265/265/265 273/273/273 266/266/266
f 267/267/267 274/274/274 275/275/275
f 267/267/267 275/275/275 268/268/268
f 268/268/268 275/275/275 276/276/276
f 268/268/268 276/276/276 269/269/269
f 269/269/269 276/276/276 277/277/277
f 269/269/269 277/277/277 270/270/270
f 270/270/270 277/277/277 278/278/278
f 270/270/270 278/278/278 271/271/271
f 271/271/271 278/278/278 279/279/279
f 271/271/271 279/279/279 272/272/272
f 272/272/272 279/279/279 280/280/280
f 272/272/272 280/280/280 273/273/273
f 274/274/274 281/281/281 282/282/282
f 274/274/274 282/282/282 275/275/275
f 275/275/275 282/282/282 283/283/283
f 275/275/275 283/283/283 276/276/276
f 276/276/276 283/283/283 284/284/284
f 276/276/276 284/284/284 277/277/277
f 277/277/277 284/284/284 285/285/285
f 277/277/277 285/285/285 278/278/278
f 278/278/278 285/285/285 286/286/286
f 278/278/278 286/286/286 279/279/279
f 279/279/279 286/286/286 287/287/287
f 279/279/279 287/287/287 280/280/280
f 281/281/281 288/288/288 289/289/289
f 281/281/281 289/289/289 282/282/282
f 282/282/282 289/289/289 290/290/290
f 282/282/282 290/290/290 283/283/283
f 283/283/283 290/290/290 291/291/291
f 283/283/283 291/291/291 284/284/284
f 284/284/284 291/291/291 292/292/292
f 284/284/284 292/292/292 285/285/285
f 285/285/285 292/292/292 293/293/293
f 285/285/285 293/293/293 286/286/286
f 286/286/286 293/293/293 294/294/294
f 286/286/286 294/294/294 287/287/287
f 288/288/288 295/295/295 296/296/296
f 288/288/288 296/296/296 289/289/289
f 289/289/289 296/296/296 297/297/297
f 289/289/289 297/297/297 290/290/290
f 290/290/290 297/297/297 298/298/298
f 290/290/290 298/298/298 291/291/291
f 291/291/291 298/298/298 299/299/299
f 291/291/291 299/299/299 292/292/292
f 292/292/292 299/299/299 300/300/300
f 292/292/292 300/300/300 293/293/293
f 293/293/293 300/300/300 301/301/301
f 293/293/293 301/301/301 294/294/294
f 295/295/295 302/302/302 303/303/303
f 295/295/295 303/303/303 296/296/296
f 296/296/296 303/303/303 304/304/304
f 296/296/296 304/304/304 297/297/297
f 297/297/297 304/304/304 305/305/305
f 297/297/297 305/305/305 298/298/298
f 298/298/298 305/305/305 306/306/306
f 298/298/298 306/306/306 299/299/299
f 299/299/299 306/306/306 307/307/307
f 299/299/299 307/307/307 300/300/300
f 300/300/300 307/307/307 308/308/308
f 300/300/300 308/308/308 301/301/301
f 309/309/309 311/311/311 310/310/310
f 309/309/309 312/312/312 311/311/311
f 313/313/313 314/314/314 315/315/315
f 313/313/313 315/315/315 316/316/316
f 309/309/309 310/310/310 314/314/314
f 309/309/309 314/314/314 313/313/313
f 311/311/311 312/312/312 316/316/316
f 311/311/311 316/316/316 315/315/315
f 309/309/309 313/313/313 316/316/316
f 309/309/309 316/316/316 312/312/312
f 310/310/310 311/311/311 315/315/315
f 310/310/310 315/315/315 314/314/314
f 317/317/317 319/319/319 318/318/318
f 317/317/317 320/320/320 319/319/319
f 321/321/321 322/322/322 323/323/323
f 321/321/321 323/323/323 324/324/324
f 317/317/317 318/318/318 322/322/322
f 317/317/317 322/322/322 321/321/321
f 319/319/319 320/320/320 324/324/324
f 319/319/319 324/324/324 323/323/323
f 317/317/317 321/321/321 324/324/324
f 317/317/317 324/324/324 320/320/320
f 318/318/318 319/319/319 323/323/323
f 318/318/318 323/323/323 322/322/322
f 325/325/325 327/327/327 326/326/326
f 325/325/325 328/328/328 327/327/327
f 329/329/329 330/330/330 331/331/331
f 329/329/329 331/331/331 332/332/332
f 325/325/325 326/326/326 330/330/330
f 325/325/325 330/330/330 329/329/329
f 327/327/327 328/328/328 332/332/332
f 327/327/327 332/332/332 331/331/331
f 325/325/325 329/329/329 332/332/332
f 325/325/325 332/332/332 328/328/328
f 326/326/326 327/327/327 331/331/331
f 326/326/326 331/331/331 330/330/330
f 333/333/333 335/335/335 334/334/334
f 333/333/333 336/336/336 335/335/335
f 337/337/337 338/338/338 339/339/339
f 337/337/337 339/339/339 340/340/340
f 333/333/333 334/334/334 338/338/338
f 333/333/333 338/338/338 337/337/337
f 335/335/335 336/336/336 340/340/340
f 335/335/335 340/340/340 339/339/339
f 333/333/333 337/337/337 340/340/340
f 333/333/333 340/340/340 336/336/336
f 334/334/334 335/335/335 339/339/339
f 334/334/334 339/339/339 338/338/338
f 341/341/341 343/343/343 342/342/342
f 341/341/341 344/344/344 343/343/343
f 345/345/345 346/346/346 347/347/347
f 345/345/345 347/347/347 348/348/348
f 341/341/341 342/342/342 346/346/346
f 341/341/341 346/346/346 345/345/345
f 343/343/343 344/344/344 348/348/348
f 343/343/343 348/348/348 347/347/347
f 341/341/341 345/345/345 348/348/348
f 341/341/341 348/348/348 344/344/344
f 342/342/342 343/343/343 347/347/347
f 342/342/342 347/347/347 346/346/346
f 349/349/349 351/351/351 350/350/350
f 349/349/349 352/352/352 351/351/351
f 353/353/353 354/354/354 355/355/355
f 353/353/353 355/355/355 356/356/356
f 349/349/349 350/350/350 354/354/354
f 349/349/349 354/354/354 353/353/353
f 351/351/351 352/352/352 356/356/356
f 351/351/351 356/356/356 355/355/355
f 349/349/349 353/353/353 356/356/356
f 349/349/349 356/356/356 352/352/352
f 350/350/350 351/351/351 355/355/355
f 350/350/350 355/355/355 354/354/354
f 357/357/357 359/359/359 358/358/358
f 357/357/357 360/360/360 359/359/359
f 361/361/361 362/362/362 363/363/363
f 361/361/361 363/363/363 364/364/364
f 357/357/357 358/358/358 362/362/362
f 357/357/357 362/362/362 361/361/361
f 359/359/359 360/360/360 364/364/364
f 359/359/359 364/364/364 363/363/363
f 357/357/357 361/361/361 364/364/364
f 357/357/357 364/364/364 360/360/360
f 358/358/358 359/359/359 363/363/363
f 358/358/358 363/363/363 362/362/362
f 365/365/365 367/367/367 366/366/366
f 365/365/365 368/368/368 367/367/367
f 369/369/369 370/370/370 371/371/371
f 369/369/369 371/371/371 372/372/372
f 365/365/365 366/366/366 370/370/370
f 365/365/365 370/370/370 369/369/369
f 367/367/367 368/368/368 372/372/372
f 367/367/367 372/372/372 371/371/371
f 365/365/365 369/369/369 372/372/372
f 365/365/365 372/372/372 368/368/368
f 366/366/366 367/367/367 371/371/371
f 366/366/366 371/371/371 370/370/370
f 373/373/373 375/375/375 374/374/374
f 373/373/373 376/376/376 375/375/375
f 377/377/377 378/378/378 379/379/379
f 377/377/377 379/379/379 380/380/380
f 373/373/373 374/374/374 378/378/378
f 373/373/373 378/378/378 377/377/377
f 375/375/375 376/376/376 380/380/380
f 375/375/375 380/380/380 379/379/379
f 373/373/373 377/377/377 380/380/380
f 373/373/373 380/380/380 376/376/376
f 374/374/374 375/375/375 379/379/379
f 374/374/374 379/379/379 378/378/378
f 381/381/381 383/383/383 382/382/382
f 381/381/381 384/384/384 383/383/383
f 385/385/385 386/386/386 387/387/387
f 385/385/385 387/387/387 388/388/388
f 381/381/381 382/382/382 386/386/386
f 381/381/381 386/386/386 385/385/385
f 383/383/383 384/384/384 388/388/388
f 383/383/383 388/388/388 387/387/387
f 381/381/381 385/385/385 388/388/388
f 381/381/381 388/388/388 384/384/384
f 382/382/382 383/383/383 387/387/387
f 382/382/382 387/387/387 386/386/386
f 389/389/389 391/391/391 390/390/390
f 389/389/389 392/392/392 391/391/391
f 393/393/393 394/394/394 395/395/395
f 393/393/393 395/395/395 396/396/396
f 389/389/389 390/390/390 394/394/394
f 389/389/389 394/394/394 393/393/393
f 391/391/391 392/392/392 396/396/396
f 391/391/391 396/396/396 395/395/395
f 389/389/389 393/393/393 396/396/396
f 389/389/389 396/396/396 392/392/392
f 390/390/390 391/391/391 395/395/395
f 390/390/390 395/395/395 394/394/394
f 397/397/397 399/399/399 398/398/398
f 397/397/397 400/400/400 399/399/399
f 401/401/401 402/402/402 403/403/403
f 401/401/401 403/403/403 404/404/404
f 397/397/397 398/398/398 402/402/402
f 397/397/397 402/402/402 401/401/401
f 399/399/399 400/400/400 404/404/404
f 399/399/399 404/404/404 403/403/403
f 397/397/397 401/401/401 404/404/404
f 397/397/397 404/404/404 400/400/400
f 398/398/398 399/399/399 403/403/403
f 398/398/398 403/403/403 402/402/402
f 405/405/405 406/406/406 422/422/422
f 405/405/405 422/422/422 421/421/421
f 437/437/437 406/406/406 405/405/405
f 438/438/438 421/421/421 422/422/422
f 406/406/406 407/407/407 423/423/423
f 406/406/406 423/423/423 422/422/422
f 437/437/437 407/407/407 406/406/406
f 438/438/438 422/422/422 423/423/423
f 407/407/407 408/408/408 424/424/424
f 407/407/407 424/424/424 423/423/423
f 437/437/437 408/408/408 407/407/407
f 438/438/438 423/423/423 424/424/424
f 408/408/408 409/409/409 425/425/425
f 408/408/408 425/425/425 424/424/424
f 437/437/437 409/409/409 408/408/408
f 438/438/438 424/424/424 425/425/425
f 409/409/409 410/410/410 426/426/426
f 409/409/409 426/426/426 425/425/425
f 437/437/437 410/410/410 409/409/409
f 438/438/438 425/425/425 426/426/426
f 410/410/410 411/411/411 427/427/427
f 410/410/410 427/427/427 426/426/426
f 437/437/437 411/411/411 410/410/410
f 438/438/438 426/426/426 427/427/427
f 411/411/411 412/412/412 428/428/428
f 411/411/411 428/428/428 427/427/427
f 437/437/437 412/412/412 411/411/411
f 438/438/438 427/427/427 428/428/428
f 412/412/412 413/413/413 429/429/429
f 412/412/412 429/429/429 428/428/428
f 437/437/437 413/413/413 412/412/412
f 438/438/438 428/428/428 429/429/429
f 413/413/413 414/414/414 430/430/430
f 413/413/413 430/430/430 429/429/429
f 437/437/437 414/414/414 413/413/413
f 438/438/438 429/429/429 430/430/430
f 414/414/414 415/415/415 431/431/431
f 414/414/414 431/431/431 430/430/430
f 437/437/437 415/415/415 414/414/414
f 438/438/438 430/430/430 431/431/431
f 415/415/415 416/416/416 432/432/432
f 415/415/415 432/432/432 431/431/431
f 437/437/437 416/416/416 415/415/415
f 438/438/438 431/431/431 432/432/432
f 416/416/416 417/417/417 433/433/433
f 416/416/416 433/433/433 432/432/432
f 437/437/437 417/417/417 416/416/416
f 438/438/438 432/432/432 433/433/433
f 417/417/417 418/418/418 434/434/434
f 417/417/417 434/434/434 433/433/433
f 437/437/437 418/418/418 417/417/417
f 438/438/438 433/433/433 434/434/434
f 418/418/418 419/419/419 435/435/435
f 418/418/418 435/435/435 434/434/434
f 437/437/437 419/419/419 418/418/418
f 438/438/438 434/434/434 435/435/435
f 419/419/419 420/420/420 436/436/436
f 419/419/419 436/436/436 435/435/435
f 437/437/437 420/420/420 419/419/419
f 438/438/438 435/435/435 436/436/436
f 420/420/420 405/405/405 421/421/421
f 420/420/420 421/421/421 436/436/436
f 437/437/437 405/405/405 420/420/420
f 438/438/438 436/436/436 421/421/421
f 439/439/439 440/440/440 452/452/452
f 439/439/439 452/452/452 451/451/451
f 463/463/463 440/440/440 439/439/439
f 464/464/464 451/451/451 452/452/452
f 440/440/440 441/441/441 453/453/453
f 440/440/440 453/453/453 452/452/452
f 463/463/463 441/441/441 440/440/440
f 464/464/464 452/452/452 453/453/453
f 441/441/441 442/442/442 454/454/454
f 441/441/441 454/454/454 453/453/453
f 463/463/463 442/442/442 441/441/441
f 464/464/464 453/453/453 454/454/454
f 442/442/442 443/443/443 455/455/455
f 442/442/442 455/455/455 454/454/454
f 463/463/463 443/443/443 442/442/442
f 464/464/464 454/454/454 455/455/455
f 443/443/443 444/444/444 456/456/456
f 443/443/443 456/456/456 455/455/455
f 463/463/463 444/444/444 443/443/443
f 464/464/464 455/455/455 456/456/456
f 444/444/444 445/445/445 457/457/457
f 444/444/444 457/457/457 456/456/456
f 463/463/463 445/445/445 444/444/444
f 464/464/464 456/456/456 457/457/457
f 445/445/445 446/446/446 458/458/458
f 445/445/445 458/458/458 457/457/457
f 463/463/463 446/446/446 445/445/445
f 464/464/464 457/457/457 458/458/458
f 446/446/446 447/447/447 459/459/459
f 446/446/446 459/459/459 458/458/458
f 463/463/463 447/447/447 446/446/446
f 464/464/464 458/458/458 459/459/459
f 447/447/447 448/448/448 460/460/460
f 447/447/447 460/460/460 459/459/459
f 463/463/463 448/448/448 447/447/447
f 464/464/464 459/459/459 460/460/460
f 448/448/448 449/449/449 461/461/461
f 448/448/448 461/461/461 460/460/460
f 463/463/463 449/449/449 448/448/448
f 464/464/464 460/460/460 461/461/461
f 449/449/449 450/450/450 462/462/462
f 449/449/449 462/462/462 461/461/461
f 463/463/463 450/450/450 449/449/449
f 464/464/464 461/461/461 462/462/462
f 450/450/450 439/439/439 451/451/451
f 450/450/450 451/451/451 462/462/462
f 463/463/463 439/439/439 450/450/450
f 464/464/464 462/462/462 451/451/451