# 3D Model: vehicle/bike/兒童款-26-彎把公路車-rc-100-白色-btwin-8826164~1 (v6 Gemini)
# Style: vehicle | Symmetry: symmetric
# Dimensions: 2.304 x 1.94 x 2.07 m
# Triangles: 736 | Vertices: 437
v -0.3054 0.5225 0
v -0.3093 0.5233 0.015
v -0.3201 0.5255 0.026
v -0.3348 0.5285 0.03
v -0.3495 0.5315 0.026
v -0.3602 0.5336 0.015
v -0.3642 0.5344 0
v -0.3602 0.5336 -0.015
v -0.3495 0.5315 -0.026
v -0.3348 0.5285 -0.03
v -0.3201 0.5255 -0.026
v -0.3093 0.5233 -0.015
v -0.2358 0.8656 0
v -0.2398 0.8664 0.015
v -0.2505 0.8685 0.026
v -0.2652 0.8715 0.03
v -0.2799 0.8745 0.026
v -0.2907 0.8767 0.015
v -0.2946 0.8775 0
v -0.2907 0.8767 -0.015
v -0.2799 0.8745 -0.026
v -0.2652 0.8715 -0.03
v -0.2505 0.8685 -0.026
v -0.2398 0.8664 -0.015
v -0.3348 0.5285 0
v -0.2652 0.8715 0
v -0.6601 0.402 -0.025
v -0.6476 0.4032 -0.0217
v -0.6385 0.4042 -0.0125
v -0.6352 0.4045 0
v -0.6385 0.4042 0.0125
v -0.6476 0.4032 0.0217
v -0.6601 0.402 0.025
v -0.6725 0.4008 0.0217
v -0.6816 0.3998 0.0125
v -0.6849 0.3995 0
v -0.6816 0.3998 -0.0125
v -0.6725 0.4008 -0.0217
v -0.7399 1.198 -0.025
v -0.7275 1.1992 -0.0217
v -0.7184 1.2002 -0.0125
v -0.7151 1.2005 0
v -0.7184 1.2002 0.0125
v -0.7275 1.1992 0.0217
v -0.7399 1.198 0.025
v -0.7524 1.1968 0.0217
v -0.7615 1.1958 0.0125
v -0.7648 1.1955 0
v -0.7615 1.1958 -0.0125
v -0.7524 1.1968 -0.0217
v -0.6601 0.402 0
v -0.7399 1.198 0
v -0.7802 0.2346 0
v -0.783 0.2375 0.015
v -0.7906 0.2454 0.026
v -0.8011 0.2562 0.03
v -0.8115 0.2669 0.026
v -0.8192 0.2748 0.015
v -0.822 0.2777 0
v -0.8192 0.2748 -0.015
v -0.8115 0.2669 -0.026
v -0.8011 0.2562 -0.03
v -0.7906 0.2454 -0.026
v -0.783 0.2375 -0.015
v -0.278 0.7223 0
v -0.2808 0.7252 0.015
v -0.2885 0.7331 0.026
v -0.2989 0.7438 0.03
v -0.3094 0.7546 0.026
v -0.317 0.7625 0.015
v -0.3198 0.7654 0
v -0.317 0.7625 -0.015
v -0.3094 0.7546 -0.026
v -0.2989 0.7438 -0.03
v -0.2885 0.7331 -0.026
v -0.2808 0.7252 -0.015
v -0.8011 0.2562 0
v -0.2989 0.7438 0
v -0.0924 0.0652 0.06
v -0.0946 0.0641 0.069
v -0.1005 0.0613 0.0756
v -0.1086 0.0574 0.078
v -0.1167 0.0534 0.0756
v -0.1227 0.0506 0.069
v -0.1248 0.0495 0.06
v -0.1227 0.0506 0.051
v -0.1167 0.0534 0.0444
v -0.1086 0.0574 0.042
v -0.1005 0.0613 0.0444
v -0.0946 0.0641 0.051
v -0.3689 0.6535 0.06
v -0.3719 0.6521 0.0725
v -0.3801 0.6481 0.0817
v -0.3914 0.6426 0.085
v -0.4026 0.6372 0.0817
v -0.4109 0.6332 0.0725
v -0.4139 0.6318 0.06
v -0.4109 0.6332 0.0475
v -0.4026 0.6372 0.0383
v -0.3914 0.6426 0.035
v -0.3801 0.6481 0.0383
v -0.3719 0.6521 0.0475
v -0.1086 0.0574 0.06
v -0.3914 0.6426 0.06
v -0.0924 0.0652 -0.06
v -0.0946 0.0641 -0.051
v -0.1005 0.0613 -0.0444
v -0.1086 0.0574 -0.042
v -0.1167 0.0534 -0.0444
v -0.1227 0.0506 -0.051
v -0.1248 0.0495 -0.06
v -0.1227 0.0506 -0.069
v -0.1167 0.0534 -0.0756
v -0.1086 0.0574 -0.078
v -0.1005 0.0613 -0.0756
v -0.0946 0.0641 -0.069
v -0.3689 0.6535 -0.06
v -0.3719 0.6521 -0.0475
v -0.3801 0.6481 -0.0383
v -0.3914 0.6426 -0.035
v -0.4026 0.6372 -0.0383
v -0.4109 0.6332 -0.0475
v -0.4139 0.6318 -0.06
v -0.4109 0.6332 -0.0725
v -0.4026 0.6372 -0.0817
v -0.3914 0.6426 -0.085
v -0.3801 0.6481 -0.0817
v -0.3719 0.6521 -0.0725
v -0.1086 0.0574 -0.06
v -0.3914 0.6426 -0.06
v 0 0.35 -1.035
v 0 0.3803 -1.0175
v 0 0.3803 -0.9825
v 0 0.35 -0.965
v 0 0.3197 -0.9825
v 0 0.3197 -1.0175
v 0 0.35 -1.035
v 0.6084 0.35 -0.8373
v 0.5981 0.3803 -0.8232
v 0.5775 0.3803 -0.7949
v 0.5672 0.35 -0.7807
v 0.5775 0.3197 -0.7949
v 0.5981 0.3197 -0.8232
v 0.6084 0.35 -0.8373
v 0.9843 0.35 -0.3198
v 0.9677 0.3803 -0.3144
v 0.9344 0.3803 -0.3036
v 0.9178 0.35 -0.2982
v 0.9344 0.3197 -0.3036
v 0.9677 0.3197 -0.3144
v 0.9843 0.35 -0.3198
v 0.9843 0.35 0.3198
v 0.9677 0.3803 0.3144
v 0.9344 0.3803 0.3036
v 0.9178 0.35 0.2982
v 0.9344 0.3197 0.3036
v 0.9677 0.3197 0.3144
v 0.9843 0.35 0.3198
v 0.6084 0.35 0.8373
v 0.5981 0.3803 0.8232
v 0.5775 0.3803 0.7949
v 0.5672 0.35 0.7807
v 0.5775 0.3197 0.7949
v 0.5981 0.3197 0.8232
v 0.6084 0.35 0.8373
v 0 0.35 1.035
v 0 0.3803 1.0175
v 0 0.3803 0.9825
v 0 0.35 0.965
v 0 0.3197 0.9825
v 0 0.3197 1.0175
v 0 0.35 1.035
v -0.6084 0.35 0.8373
v -0.5981 0.3803 0.8232
v -0.5775 0.3803 0.7949
v -0.5672 0.35 0.7807
v -0.5775 0.3197 0.7949
v -0.5981 0.3197 0.8232
v -0.6084 0.35 0.8373
v -0.9843 0.35 0.3198
v -0.9677 0.3803 0.3144
v -0.9344 0.3803 0.3036
v -0.9178 0.35 0.2982
v -0.9344 0.3197 0.3036
v -0.9677 0.3197 0.3144
v -0.9843 0.35 0.3198
v -0.9843 0.35 -0.3198
v -0.9677 0.3803 -0.3144
v -0.9344 0.3803 -0.3036
v -0.9178 0.35 -0.2982
v -0.9344 0.3197 -0.3036
v -0.9677 0.3197 -0.3144
v -0.9843 0.35 -0.3198
v -0.6084 0.35 -0.8373
v -0.5981 0.3803 -0.8232
v -0.5775 0.3803 -0.7949
v -0.5672 0.35 -0.7807
v -0.5775 0.3197 -0.7949
v -0.5981 0.3197 -0.8232
v -0.6084 0.35 -0.8373
v 0 0.35 -1.035
v 0 0.3803 -1.0175
v 0 0.3803 -0.9825
v 0 0.35 -0.965
v 0 0.3197 -0.9825
v 0 0.3197 -1.0175
v 0 0.35 -1.035
v 0 0.35 -1.015
v 0 0.363 -1.0075
v 0 0.363 -0.9925
v 0 0.35 -0.985
v 0 0.337 -0.9925
v 0 0.337 -1.0075
v 0 0.35 -1.015
v 0.5966 0.35 -0.8212
v 0.5922 0.363 -0.8151
v 0.5834 0.363 -0.803
v 0.579 0.35 -0.7969
v 0.5834 0.337 -0.803
v 0.5922 0.337 -0.8151
v 0.5966 0.35 -0.8212
v 0.9653 0.35 -0.3137
v 0.9582 0.363 -0.3113
v 0.9439 0.363 -0.3067
v 0.9368 0.35 -0.3044
v 0.9439 0.337 -0.3067
v 0.9582 0.337 -0.3113
v 0.9653 0.35 -0.3137
v 0.9653 0.35 0.3136
v 0.9582 0.363 0.3113
v 0.9439 0.363 0.3067
v 0.9368 0.35 0.3044
v 0.9439 0.337 0.3067
v 0.9582 0.337 0.3113
v 0.9653 0.35 0.3136
v 0.5966 0.35 0.8212
v 0.5922 0.363 0.8151
v 0.5834 0.363 0.8029
v 0.579 0.35 0.7969
v 0.5834 0.337 0.8029
v 0.5922 0.337 0.8151
v 0.5966 0.35 0.8212
v 0 0.35 1.015
v 0 0.363 1.0075
v 0 0.363 0.9925
v 0 0.35 0.985
v 0 0.337 0.9925
v 0 0.337 1.0075
v 0 0.35 1.015
v -0.5966 0.35 0.8212
v -0.5922 0.363 0.8151
v -0.5834 0.363 0.803
v -0.579 0.35 0.7969
v -0.5834 0.337 0.803
v -0.5922 0.337 0.8151
v -0.5966 0.35 0.8212
v -0.9653 0.35 0.3137
v -0.9582 0.363 0.3113
v -0.9439 0.363 0.3067
v -0.9368 0.35 0.3044
v -0.9439 0.337 0.3067
v -0.9582 0.337 0.3113
v -0.9653 0.35 0.3137
v -0.9653 0.35 -0.3136
v -0.9582 0.363 -0.3113
v -0.9439 0.363 -0.3067
v -0.9368 0.35 -0.3044
v -0.9439 0.337 -0.3067
v -0.9582 0.337 -0.3113
v -0.9653 0.35 -0.3136
v -0.5966 0.35 -0.8212
v -0.5922 0.363 -0.8151
v -0.5834 0.363 -0.8029
v -0.579 0.35 -0.7969
v -0.5834 0.337 -0.8029
v -0.5922 0.337 -0.8151
v -0.5966 0.35 -0.8212
v 0 0.35 -1.015
v 0 0.363 -1.0075
v 0 0.363 -0.9925
v 0 0.35 -0.985
v 0 0.337 -0.9925
v 0 0.337 -1.0075
v 0 0.35 -1.015
v 0 0.29 -0.04
v 0.0153 0.29 -0.037
v 0.0283 0.29 -0.0283
v 0.037 0.29 -0.0153
v 0.04 0.29 0
v 0.037 0.29 0.0153
v 0.0283 0.29 0.0283
v 0.0153 0.29 0.037
v 0 0.29 0.04
v -0.0153 0.29 0.037
v -0.0283 0.29 0.0283
v -0.037 0.29 0.0153
v -0.04 0.29 0
v -0.037 0.29 -0.0153
v -0.0283 0.29 -0.0283
v -0.0153 0.29 -0.037
v 0 0.41 -0.04
v 0.0153 0.41 -0.037
v 0.0283 0.41 -0.0283
v 0.037 0.41 -0.0153
v 0.04 0.41 0
v 0.037 0.41 0.0153
v 0.0283 0.41 0.0283
v 0.0153 0.41 0.037
v 0 0.41 0.04
v -0.0153 0.41 0.037
v -0.0283 0.41 0.0283
v -0.037 0.41 0.0153
v -0.04 0.41 0
v -0.037 0.41 -0.0153
v -0.0283 0.41 -0.0283
v -0.0153 0.41 -0.037
v 0 0.29 0
v 0 0.41 0
v -0.3304 0.8715 0
v -0.3337 0.8722 0.0125
v -0.3426 0.874 0.0217
v -0.3549 0.8765 0.025
v -0.3672 0.879 0.0217
v -0.3761 0.8808 0.0125
v -0.3794 0.8815 0
v -0.3761 0.8808 -0.0125
v -0.3672 0.879 -0.0217
v -0.3549 0.8765 -0.025
v -0.3426 0.874 -0.0217
v -0.3337 0.8722 -0.0125
v -0.3006 1.0185 0
v -0.3039 1.0192 0.0125
v -0.3128 1.021 0.0217
v -0.3251 1.0235 0.025
v -0.3374 1.026 0.0217
v -0.3463 1.0278 0.0125
v -0.3496 1.0285 0
v -0.3463 1.0278 -0.0125
v -0.3374 1.026 -0.0217
v -0.3251 1.0235 -0.025
v -0.3128 1.021 -0.0217
v -0.3039 1.0192 -0.0125
v -0.3549 0.8765 0
v -0.3251 1.0235 0
v 0.72 0.98 0
v 0.71 0.98 0.0173
v 0.69 0.98 0.0173
v 0.68 0.98 0
v 0.69 0.98 -0.0173
v 0.71 0.98 -0.0173
v 0.72 0.98 0
v 0.5252 0.3805 0
v 0.5171 0.3863 0.0173
v 0.5009 0.3981 0.0173
v 0.4928 0.404 0
v 0.5009 0.3981 -0.0173
v 0.5171 0.3863 -0.0173
v 0.5252 0.3805 0
v 0.0152 0.0099 0
v 0.0121 0.0194 0.0173
v 0.0059 0.0385 0.0173
v 0.0028 0.048 0
v 0.0059 0.0385 -0.0173
v 0.0121 0.0194 -0.0173
v 0.0152 0.0099 0
v -0.6152 0.0099 0
v -0.6121 0.0194 0.0173
v -0.6059 0.0385 0.0173
v -0.6028 0.048 0
v -0.6059 0.0385 -0.0173
v -0.6121 0.0194 -0.0173
v -0.6152 0.0099 0
v -1.1252 0.3805 0
v -1.1171 0.3863 0.0173
v -1.1009 0.3981 0.0173
v -1.0928 0.404 0
v -1.1009 0.3981 -0.0173
v -1.1171 0.3863 -0.0173
v -1.1252 0.3805 0
v -1.32 0.98 0
v -1.31 0.98 0.0173
v -1.29 0.98 0.0173
v -1.28 0.98 0
v -1.29 0.98 -0.0173
v -1.31 0.98 -0.0173
v -1.32 0.98 0
v -1.1252 1.5795 0
v -1.1171 1.5737 0.0173
v -1.1009 1.5619 0.0173
v -1.0928 1.556 0
v -1.1009 1.5619 -0.0173
v -1.1171 1.5737 -0.0173
v -1.1252 1.5795 0
v -0.6152 1.9501 0
v -0.6121 1.9406 0.0173
v -0.6059 1.9215 0.0173
v -0.6028 1.912 0
v -0.6059 1.9215 -0.0173
v -0.6121 1.9406 -0.0173
v -0.6152 1.9501 0
v 0.0152 1.9501 0
v 0.0121 1.9406 0.0173
v 0.0059 1.9215 0.0173
v 0.0028 1.912 0
v 0.0059 1.9215 -0.0173
v 0.0121 1.9406 -0.0173
v 0.0152 1.9501 0
v 0.5252 1.5795 0
v 0.5171 1.5737 0.0173
v 0.5009 1.5619 0.0173
v 0.4928 1.556 0
v 0.5009 1.5619 -0.0173
v 0.5171 1.5737 -0.0173
v 0.5252 1.5795 0
v 0.72 0.98 0
v 0.71 0.98 0.0173
v 0.69 0.98 0.0173
v 0.68 0.98 0
v 0.69 0.98 -0.0173
v 0.71 0.98 -0.0173
v 0.72 0.98 0
v -0.1788 0.959 0.08
v -0.1349 0.983 0.08
v -0.2212 1.141 0.08
v -0.2651 1.117 0.08
v -0.1788 0.959 0.12
v -0.1349 0.983 0.12
v -0.2212 1.141 0.12
v -0.2651 1.117 0.12
v -0.1788 0.959 -0.12
v -0.1349 0.983 -0.12
v -0.2212 1.141 -0.12
v -0.2651 1.117 -0.12
v -0.1788 0.959 -0.08
v -0.1349 0.983 -0.08
v -0.2212 1.141 -0.08
v -0.2651 1.117 -0.08
vt 0 0
vt 0.08333333333333333 0
vt 0.16666666666666666 0
vt 0.25 0
vt 0.3333333333333333 0
vt 0.4166666666666667 0
vt 0.5 0
vt 0.5833333333333334 0
vt 0.6666666666666666 0
vt 0.75 0
vt 0.8333333333333334 0
vt 0.9166666666666666 0
vt 0 1
vt 0.08333333333333333 1
vt 0.16666666666666666 1
vt 0.25 1
vt 0.3333333333333333 1
vt 0.4166666666666667 1
vt 0.5 1
vt 0.5833333333333334 1
vt 0.6666666666666666 1
vt 0.75 1
vt 0.8333333333333334 1
vt 0.9166666666666666 1
vt 0.5 0.5
vt 0.5 0.5
vt 0 0
vt 0.08333333333333333 0
vt 0.16666666666666666 0
vt 0.25 0
vt 0.3333333333333333 0
vt 0.4166666666666667 0
vt 0.5 0
vt 0.5833333333333334 0
vt 0.6666666666666666 0
vt 0.75 0
vt 0.8333333333333334 0
vt 0.9166666666666666 0
vt 0 1
vt 0.08333333333333333 1
vt 0.16666666666666666 1
vt 0.25 1
vt 0.3333333333333333 1
vt 0.4166666666666667 1
vt 0.5 1
vt 0.5833333333333334 1
vt 0.6666666666666666 1
vt 0.75 1
vt 0.8333333333333334 1
vt 0.9166666666666666 1
vt 0.5 0.5
vt 0.5 0.5
vt 0 0
vt 0.08333333333333333 0
vt 0.16666666666666666 0
vt 0.25 0
vt 0.3333333333333333 0
vt 0.4166666666666667 0
vt 0.5 0
vt 0.5833333333333334 0
vt 0.6666666666666666 0
vt 0.75 0
vt 0.8333333333333334 0
vt 0.9166666666666666 0
vt 0 1
vt 0.08333333333333333 1
vt 0.16666666666666666 1
vt 0.25 1
vt 0.3333333333333333 1
vt 0.4166666666666667 1
vt 0.5 1
vt 0.5833333333333334 1
vt 0.6666666666666666 1
vt 0.75 1
vt 0.8333333333333334 1
vt 0.9166666666666666 1
vt 0.5 0.5
vt 0.5 0.5
vt 0 0
vt 0.08333333333333333 0
vt 0.16666666666666666 0
vt 0.25 0
vt 0.3333333333333333 0
vt 0.4166666666666667 0
vt 0.5 0
vt 0.5833333333333334 0
vt 0.6666666666666666 0
vt 0.75 0
vt 0.8333333333333334 0
vt 0.9166666666666666 0
vt 0 1
vt 0.08333333333333333 1
vt 0.16666666666666666 1
vt 0.25 1
vt 0.3333333333333333 1
vt 0.4166666666666667 1
vt 0.5 1
vt 0.5833333333333334 1
vt 0.6666666666666666 1
vt 0.75 1
vt 0.8333333333333334 1
vt 0.9166666666666666 1
vt 0.5 0.5
vt 0.5 0.5
vt 0 0
vt 0.08333333333333333 0
vt 0.16666666666666666 0
vt 0.25 0
vt 0.3333333333333333 0
vt 0.4166666666666667 0
vt 0.5 0
vt 0.5833333333333334 0
vt 0.6666666666666666 0
vt 0.75 0
vt 0.8333333333333334 0
vt 0.9166666666666666 0
vt 0 1
vt 0.08333333333333333 1
vt 0.16666666666666666 1
vt 0.25 1
vt 0.3333333333333333 1
vt 0.4166666666666667 1
vt 0.5 1
vt 0.5833333333333334 1
vt 0.6666666666666666 1
vt 0.75 1
vt 0.8333333333333334 1
vt 0.9166666666666666 1
vt 0.5 0.5
vt 0.5 0.5
vt 0 0
vt 0 0.16666666666666666
vt 0 0.3333333333333333
vt 0 0.5
vt 0 0.6666666666666666
vt 0 0.8333333333333334
vt 0 1
vt 0.1 0
vt 0.1 0.16666666666666666
vt 0.1 0.3333333333333333
vt 0.1 0.5
vt 0.1 0.6666666666666666
vt 0.1 0.8333333333333334
vt 0.1 1
vt 0.2 0
vt 0.2 0.16666666666666666
vt 0.2 0.3333333333333333
vt 0.2 0.5
vt 0.2 0.6666666666666666
vt 0.2 0.8333333333333334
vt 0.2 1
vt 0.3 0
vt 0.3 0.16666666666666666
vt 0.3 0.3333333333333333
vt 0.3 0.5
vt 0.3 0.6666666666666666
vt 0.3 0.8333333333333334
vt 0.3 1
vt 0.4 0
vt 0.4 0.16666666666666666
vt 0.4 0.3333333333333333
vt 0.4 0.5
vt 0.4 0.6666666666666666
vt 0.4 0.8333333333333334
vt 0.4 1
vt 0.5 0
vt 0.5 0.16666666666666666
vt 0.5 0.3333333333333333
vt 0.5 0.5
vt 0.5 0.6666666666666666
vt 0.5 0.8333333333333334
vt 0.5 1
vt 0.6 0
vt 0.6 0.16666666666666666
vt 0.6 0.3333333333333333
vt 0.6 0.5
vt 0.6 0.6666666666666666
vt 0.6 0.8333333333333334
vt 0.6 1
vt 0.7 0
vt 0.7 0.16666666666666666
vt 0.7 0.3333333333333333
vt 0.7 0.5
vt 0.7 0.6666666666666666
vt 0.7 0.8333333333333334
vt 0.7 1
vt 0.8 0
vt 0.8 0.16666666666666666
vt 0.8 0.3333333333333333
vt 0.8 0.5
vt 0.8 0.6666666666666666
vt 0.8 0.8333333333333334
vt 0.8 1
vt 0.9 0
vt 0.9 0.16666666666666666
vt 0.9 0.3333333333333333
vt 0.9 0.5
vt 0.9 0.6666666666666666
vt 0.9 0.8333333333333334
vt 0.9 1
vt 1 0
vt 1 0.16666666666666666
vt 1 0.3333333333333333
vt 1 0.5
vt 1 0.6666666666666666
vt 1 0.8333333333333334
vt 1 1
vt 0 0
vt 0 0.16666666666666666
vt 0 0.3333333333333333
vt 0 0.5
vt 0 0.6666666666666666
vt 0 0.8333333333333334
vt 0 1
vt 0.1 0
vt 0.1 0.16666666666666666
vt 0.1 0.3333333333333333
vt 0.1 0.5
vt 0.1 0.6666666666666666
vt 0.1 0.8333333333333334
vt 0.1 1
vt 0.2 0
vt 0.2 0.16666666666666666
vt 0.2 0.3333333333333333
vt 0.2 0.5
vt 0.2 0.6666666666666666
vt 0.2 0.8333333333333334
vt 0.2 1
vt 0.3 0
vt 0.3 0.16666666666666666
vt 0.3 0.3333333333333333
vt 0.3 0.5
vt 0.3 0.6666666666666666
vt 0.3 0.8333333333333334
vt 0.3 1
vt 0.4 0
vt 0.4 0.16666666666666666
vt 0.4 0.3333333333333333
vt 0.4 0.5
vt 0.4 0.6666666666666666
vt 0.4 0.8333333333333334
vt 0.4 1
vt 0.5 0
vt 0.5 0.16666666666666666
vt 0.5 0.3333333333333333
vt 0.5 0.5
vt 0.5 0.6666666666666666
vt 0.5 0.8333333333333334
vt 0.5 1
vt 0.6 0
vt 0.6 0.16666666666666666
vt 0.6 0.3333333333333333
vt 0.6 0.5
vt 0.6 0.6666666666666666
vt 0.6 0.8333333333333334
vt 0.6 1
vt 0.7 0
vt 0.7 0.16666666666666666
vt 0.7 0.3333333333333333
vt 0.7 0.5
vt 0.7 0.6666666666666666
vt 0.7 0.8333333333333334
vt 0.7 1
vt 0.8 0
vt 0.8 0.16666666666666666
vt 0.8 0.3333333333333333
vt 0.8 0.5
vt 0.8 0.6666666666666666
vt 0.8 0.8333333333333334
vt 0.8 1
vt 0.9 0
vt 0.9 0.16666666666666666
vt 0.9 0.3333333333333333
vt 0.9 0.5
vt 0.9 0.6666666666666666
vt 0.9 0.8333333333333334
vt 0.9 1
vt 1 0
vt 1 0.16666666666666666
vt 1 0.3333333333333333
vt 1 0.5
vt 1 0.6666666666666666
vt 1 0.8333333333333334
vt 1 1
vt 0 0
vt 0.0625 0
vt 0.125 0
vt 0.1875 0
vt 0.25 0
vt 0.3125 0
vt 0.375 0
vt 0.4375 0
vt 0.5 0
vt 0.5625 0
vt 0.625 0
vt 0.6875 0
vt 0.75 0
vt 0.8125 0
vt 0.875 0
vt 0.9375 0
vt 0 1
vt 0.0625 1
vt 0.125 1
vt 0.1875 1
vt 0.25 1
vt 0.3125 1
vt 0.375 1
vt 0.4375 1
vt 0.5 1
vt 0.5625 1
vt 0.625 1
vt 0.6875 1
vt 0.75 1
vt 0.8125 1
vt 0.875 1
vt 0.9375 1
vt 0.5 0.5
vt 0.5 0.5
vt 0 0
vt 0.08333333333333333 0
vt 0.16666666666666666 0
vt 0.25 0
vt 0.3333333333333333 0
vt 0.4166666666666667 0
vt 0.5 0
vt 0.5833333333333334 0
vt 0.6666666666666666 0
vt 0.75 0
vt 0.8333333333333334 0
vt 0.9166666666666666 0
vt 0 1
vt 0.08333333333333333 1
vt 0.16666666666666666 1
vt 0.25 1
vt 0.3333333333333333 1
vt 0.4166666666666667 1
vt 0.5 1
vt 0.5833333333333334 1
vt 0.6666666666666666 1
vt 0.75 1
vt 0.8333333333333334 1
vt 0.9166666666666666 1
vt 0.5 0.5
vt 0.5 0.5
vt 0 0
vt 0 0.16666666666666666
vt 0 0.3333333333333333
vt 0 0.5
vt 0 0.6666666666666666
vt 0 0.8333333333333334
vt 0 1
vt 0.1 0
vt 0.1 0.16666666666666666
vt 0.1 0.3333333333333333
vt 0.1 0.5
vt 0.1 0.6666666666666666
vt 0.1 0.8333333333333334
vt 0.1 1
vt 0.2 0
vt 0.2 0.16666666666666666
vt 0.2 0.3333333333333333
vt 0.2 0.5
vt 0.2 0.6666666666666666
vt 0.2 0.8333333333333334
vt 0.2 1
vt 0.3 0
vt 0.3 0.16666666666666666
vt 0.3 0.3333333333333333
vt 0.3 0.5
vt 0.3 0.6666666666666666
vt 0.3 0.8333333333333334
vt 0.3 1
vt 0.4 0
vt 0.4 0.16666666666666666
vt 0.4 0.3333333333333333
vt 0.4 0.5
vt 0.4 0.6666666666666666
vt 0.4 0.8333333333333334
vt 0.4 1
vt 0.5 0
vt 0.5 0.16666666666666666
vt 0.5 0.3333333333333333
vt 0.5 0.5
vt 0.5 0.6666666666666666
vt 0.5 0.8333333333333334
vt 0.5 1
vt 0.6 0
vt 0.6 0.16666666666666666
vt 0.6 0.3333333333333333
vt 0.6 0.5
vt 0.6 0.6666666666666666
vt 0.6 0.8333333333333334
vt 0.6 1
vt 0.7 0
vt 0.7 0.16666666666666666
vt 0.7 0.3333333333333333
vt 0.7 0.5
vt 0.7 0.6666666666666666
vt 0.7 0.8333333333333334
vt 0.7 1
vt 0.8 0
vt 0.8 0.16666666666666666
vt 0.8 0.3333333333333333
vt 0.8 0.5
vt 0.8 0.6666666666666666
vt 0.8 0.8333333333333334
vt 0.8 1
vt 0.9 0
vt 0.9 0.16666666666666666
vt 0.9 0.3333333333333333
vt 0.9 0.5
vt 0.9 0.6666666666666666
vt 0.9 0.8333333333333334
vt 0.9 1
vt 1 0
vt 1 0.16666666666666666
vt 1 0.3333333333333333
vt 1 0.5
vt 1 0.6666666666666666
vt 1 0.8333333333333334
vt 1 1
vt 0.5 0.5
vt 0.5 0.5
vt 0.5 0.5
vt 0.5 0.5
vt 0.5 0.5
vt 0.5 0.5
vt 0.5 0.5
vt 0.5 0.5
vt 0.5 0.5
vt 0.5 0.5
vt 0.5 0.5
vt 0.5 0.5
vt 0.5 0.5
vt 0.5 0.5
vt 0.5 0.5
vt 0.5 0.5
vn 0 -1 0
vn 0 -1 0
vn 0 -1 0
vn 0 -1 0
vn 0 -1 0
vn 0 -1 0
vn 0 -1 0
vn 0 -1 0
vn 0 -1 0
vn 0 -1 0
vn 0 -1 0
vn 0 -1 0
vn 0 1 0
vn 0 1 0
vn 0 1 0
vn 0 1 0
vn 0 1 0
vn 0 1 0
vn 0 1 0
vn 0 1 0
vn 0 1 0
vn 0 1 0
vn 0 1 0
vn 0 1 0
vn 0 -1 0
vn 0 1 0
vn 0 -1 0
vn 0 -1 0
vn 0 -1 0
vn 0 -1 0
vn 0 -1 0
vn 0 -1 0
vn 0 -1 0
vn 0 -1 0
vn 0 -1 0
vn 0 -1 0
vn 0 -1 0
vn 0 -1 0
vn 0 1 0
vn 0 1 0
vn 0 1 0
vn 0 1 0
vn 0 1 0
vn 0 1 0
vn 0 1 0
vn 0 1 0
vn 0 1 0
vn 0 1 0
vn 0 1 0
vn 0 1 0
vn 0 -1 0
vn 0 1 0
vn 0 -1 0
vn 0 -1 0
vn 0 -1 0
vn 0 -1 0
vn 0 -1 0
vn 0 -1 0
vn 0 -1 0
vn 0 -1 0
vn 0 -1 0
vn 0 -1 0
vn 0 -1 0
vn 0 -1 0
vn 0 1 0
vn 0 1 0
vn 0 1 0
vn 0 1 0
vn 0 1 0
vn 0 1 0
vn 0 1 0
vn 0 1 0
vn 0 1 0
vn 0 1 0
vn 0 1 0
vn 0 1 0
vn 0 -1 0
vn 0 1 0
vn 0 -1 0
vn 0 -1 0
vn 0 -1 0
vn 0 -1 0
vn 0 -1 0
vn 0 -1 0
vn 0 -1 0
vn 0 -1 0
vn 0 -1 0
vn 0 -1 0
vn 0 -1 0
vn 0 -1 0
vn 0 1 0
vn 0 1 0
vn 0 1 0
vn 0 1 0
vn 0 1 0
vn 0 1 0
vn 0 1 0
vn 0 1 0
vn 0 1 0
vn 0 1 0
vn 0 1 0
vn 0 1 0
vn 0 -1 0
vn 0 1 0
vn 0 -1 0
vn 0 -1 0
vn 0 -1 0
vn 0 -1 0
vn 0 -1 0
vn 0 -1 0
vn 0 -1 0
vn 0 -1 0
vn 0 -1 0
vn 0 -1 0
vn 0 -1 0
vn 0 -1 0
vn 0 1 0
vn 0 1 0
vn 0 1 0
vn 0 1 0
vn 0 1 0
vn 0 1 0
vn 0 1 0
vn 0 1 0
vn 0 1 0
vn 0 1 0
vn 0 1 0
vn 0 1 0
vn 0 -1 0
vn 0 1 0
vn 1 0 0
vn 0.5000000000000001 0.8660254037844386 0
vn -0.4999999999999998 0.8660254037844387 0
vn -1 1.2246467991473532e-16 0
vn -0.5000000000000004 -0.8660254037844385 0
vn 0.5000000000000001 -0.8660254037844386 0
vn 1 -2.4492935982947064e-16 0
vn 0.8090169943749475 0 0.5877852522924731
vn 0.40450849718747384 0.8660254037844386 0.2938926261462366
vn -0.40450849718747356 0.8660254037844387 -0.29389262614623646
vn -0.8090169943749475 1.2246467991473532e-16 -0.5877852522924731
vn -0.40450849718747406 -0.8660254037844385 -0.29389262614623685
vn 0.40450849718747384 -0.8660254037844386 0.2938926261462366
vn 0.8090169943749475 -2.4492935982947064e-16 0.5877852522924731
vn 0.30901699437494745 0 0.9510565162951535
vn 0.15450849718747375 0.8660254037844386 0.4755282581475769
vn -0.15450849718747367 0.8660254037844387 -0.47552825814757654
vn -0.30901699437494745 1.2246467991473532e-16 -0.9510565162951535
vn -0.15450849718747386 -0.8660254037844385 -0.4755282581475772
vn 0.15450849718747375 -0.8660254037844386 0.4755282581475769
vn 0.30901699437494745 -2.4492935982947064e-16 0.9510565162951535
vn -0.30901699437494734 0 0.9510565162951536
vn -0.1545084971874737 0.8660254037844386 0.47552825814757693
vn 0.15450849718747361 0.8660254037844387 -0.4755282581475766
vn 0.30901699437494734 1.2246467991473532e-16 -0.9510565162951536
vn 0.1545084971874738 -0.8660254037844385 -0.47552825814757727
vn -0.1545084971874737 -0.8660254037844386 0.47552825814757693
vn -0.30901699437494734 -2.4492935982947064e-16 0.9510565162951536
vn -0.8090169943749473 0 0.5877852522924732
vn -0.4045084971874738 0.8660254037844386 0.2938926261462367
vn 0.4045084971874735 0.8660254037844387 -0.2938926261462365
vn 0.8090169943749473 1.2246467991473532e-16 -0.5877852522924732
vn 0.404508497187474 -0.8660254037844385 -0.2938926261462369
vn -0.4045084971874738 -0.8660254037844386 0.2938926261462367
vn -0.8090169943749473 -2.4492935982947064e-16 0.5877852522924732
vn -1 0 1.2246467991473532e-16
vn -0.5000000000000001 0.8660254037844386 6.123233995736767e-17
vn 0.4999999999999998 0.8660254037844387 -6.123233995736764e-17
vn 1 1.2246467991473532e-16 -1.2246467991473532e-16
vn 0.5000000000000004 -0.8660254037844385 -6.123233995736771e-17
vn -0.5000000000000001 -0.8660254037844386 6.123233995736767e-17
vn -1 -2.4492935982947064e-16 1.2246467991473532e-16
vn -0.8090169943749475 0 -0.587785252292473
vn -0.40450849718747384 0.8660254037844386 -0.29389262614623657
vn 0.40450849718747356 0.8660254037844387 0.2938926261462364
vn 0.8090169943749475 1.2246467991473532e-16 0.587785252292473
vn 0.40450849718747406 -0.8660254037844385 0.2938926261462368
vn -0.40450849718747384 -0.8660254037844386 -0.29389262614623657
vn -0.8090169943749475 -2.4492935982947064e-16 -0.587785252292473
vn -0.30901699437494756 0 -0.9510565162951535
vn -0.1545084971874738 0.8660254037844386 -0.4755282581475769
vn 0.15450849718747373 0.8660254037844387 0.47552825814757654
vn 0.30901699437494756 1.2246467991473532e-16 0.9510565162951535
vn 0.15450849718747392 -0.8660254037844385 0.4755282581475772
vn -0.1545084971874738 -0.8660254037844386 -0.4755282581475769
vn -0.30901699437494756 -2.4492935982947064e-16 -0.9510565162951535
vn 0.30901699437494723 0 -0.9510565162951536
vn 0.15450849718747364 0.8660254037844386 -0.47552825814757693
vn -0.15450849718747356 0.8660254037844387 0.4755282581475766
vn -0.30901699437494723 1.2246467991473532e-16 0.9510565162951536
vn -0.15450849718747375 -0.8660254037844385 0.47552825814757727
vn 0.15450849718747364 -0.8660254037844386 -0.47552825814757693
vn 0.30901699437494723 -2.4492935982947064e-16 -0.9510565162951536
vn 0.8090169943749473 0 -0.5877852522924734
vn 0.4045084971874738 0.8660254037844386 -0.29389262614623674
vn -0.4045084971874735 0.8660254037844387 0.29389262614623657
vn -0.8090169943749473 1.2246467991473532e-16 0.5877852522924734
vn -0.404508497187474 -0.8660254037844385 0.29389262614623696
vn 0.4045084971874738 -0.8660254037844386 -0.29389262614623674
vn 0.8090169943749473 -2.4492935982947064e-16 -0.5877852522924734
vn 1 0 -2.4492935982947064e-16
vn 0.5000000000000001 0.8660254037844386 -1.2246467991473535e-16
vn -0.4999999999999998 0.8660254037844387 1.2246467991473527e-16
vn -1 1.2246467991473532e-16 2.4492935982947064e-16
vn -0.5000000000000004 -0.8660254037844385 1.2246467991473542e-16
vn 0.5000000000000001 -0.8660254037844386 -1.2246467991473535e-16
vn 1 -2.4492935982947064e-16 -2.4492935982947064e-16
vn 1 0 0
vn 0.5000000000000001 0.8660254037844386 0
vn -0.4999999999999998 0.8660254037844387 0
vn -1 1.2246467991473532e-16 0
vn -0.5000000000000004 -0.8660254037844385 0
vn 0.5000000000000001 -0.8660254037844386 0
vn 1 -2.4492935982947064e-16 0
vn 0.8090169943749475 0 0.5877852522924731
vn 0.40450849718747384 0.8660254037844386 0.2938926261462366
vn -0.40450849718747356 0.8660254037844387 -0.29389262614623646
vn -0.8090169943749475 1.2246467991473532e-16 -0.5877852522924731
vn -0.40450849718747406 -0.8660254037844385 -0.29389262614623685
vn 0.40450849718747384 -0.8660254037844386 0.2938926261462366
vn 0.8090169943749475 -2.4492935982947064e-16 0.5877852522924731
vn 0.30901699437494745 0 0.9510565162951535
vn 0.15450849718747375 0.8660254037844386 0.4755282581475769
vn -0.15450849718747367 0.8660254037844387 -0.47552825814757654
vn -0.30901699437494745 1.2246467991473532e-16 -0.9510565162951535
vn -0.15450849718747386 -0.8660254037844385 -0.4755282581475772
vn 0.15450849718747375 -0.8660254037844386 0.4755282581475769
vn 0.30901699437494745 -2.4492935982947064e-16 0.9510565162951535
vn -0.30901699437494734 0 0.9510565162951536
vn -0.1545084971874737 0.8660254037844386 0.47552825814757693
vn 0.15450849718747361 0.8660254037844387 -0.4755282581475766
vn 0.30901699437494734 1.2246467991473532e-16 -0.9510565162951536
vn 0.1545084971874738 -0.8660254037844385 -0.47552825814757727
vn -0.1545084971874737 -0.8660254037844386 0.47552825814757693
vn -0.30901699437494734 -2.4492935982947064e-16 0.9510565162951536
vn -0.8090169943749473 0 0.5877852522924732
vn -0.4045084971874738 0.8660254037844386 0.2938926261462367
vn 0.4045084971874735 0.8660254037844387 -0.2938926261462365
vn 0.8090169943749473 1.2246467991473532e-16 -0.5877852522924732
vn 0.404508497187474 -0.8660254037844385 -0.2938926261462369
vn -0.4045084971874738 -0.8660254037844386 0.2938926261462367
vn -0.8090169943749473 -2.4492935982947064e-16 0.5877852522924732
vn -1 0 1.2246467991473532e-16
vn -0.5000000000000001 0.8660254037844386 6.123233995736767e-17
vn 0.4999999999999998 0.8660254037844387 -6.123233995736764e-17
vn 1 1.2246467991473532e-16 -1.2246467991473532e-16
vn 0.5000000000000004 -0.8660254037844385 -6.123233995736771e-17
vn -0.5000000000000001 -0.8660254037844386 6.123233995736767e-17
vn -1 -2.4492935982947064e-16 1.2246467991473532e-16
vn -0.8090169943749475 0 -0.587785252292473
vn -0.40450849718747384 0.8660254037844386 -0.29389262614623657
vn 0.40450849718747356 0.8660254037844387 0.2938926261462364
vn 0.8090169943749475 1.2246467991473532e-16 0.587785252292473
vn 0.40450849718747406 -0.8660254037844385 0.2938926261462368
vn -0.40450849718747384 -0.8660254037844386 -0.29389262614623657
vn -0.8090169943749475 -2.4492935982947064e-16 -0.587785252292473
vn -0.30901699437494756 0 -0.9510565162951535
vn -0.1545084971874738 0.8660254037844386 -0.4755282581475769
vn 0.15450849718747373 0.8660254037844387 0.47552825814757654
vn 0.30901699437494756 1.2246467991473532e-16 0.9510565162951535
vn 0.15450849718747392 -0.8660254037844385 0.4755282581475772
vn -0.1545084971874738 -0.8660254037844386 -0.4755282581475769
vn -0.30901699437494756 -2.4492935982947064e-16 -0.9510565162951535
vn 0.30901699437494723 0 -0.9510565162951536
vn 0.15450849718747364 0.8660254037844386 -0.47552825814757693
vn -0.15450849718747356 0.8660254037844387 0.4755282581475766
vn -0.30901699437494723 1.2246467991473532e-16 0.9510565162951536
vn -0.15450849718747375 -0.8660254037844385 0.47552825814757727
vn 0.15450849718747364 -0.8660254037844386 -0.47552825814757693
vn 0.30901699437494723 -2.4492935982947064e-16 -0.9510565162951536
vn 0.8090169943749473 0 -0.5877852522924734
vn 0.4045084971874738 0.8660254037844386 -0.29389262614623674
vn -0.4045084971874735 0.8660254037844387 0.29389262614623657
vn -0.8090169943749473 1.2246467991473532e-16 0.5877852522924734
vn -0.404508497187474 -0.8660254037844385 0.29389262614623696
vn 0.4045084971874738 -0.8660254037844386 -0.29389262614623674
vn 0.8090169943749473 -2.4492935982947064e-16 -0.5877852522924734
vn 1 0 -2.4492935982947064e-16
vn 0.5000000000000001 0.8660254037844386 -1.2246467991473535e-16
vn -0.4999999999999998 0.8660254037844387 1.2246467991473527e-16
vn -1 1.2246467991473532e-16 2.4492935982947064e-16
vn -0.5000000000000004 -0.8660254037844385 1.2246467991473542e-16
vn 0.5000000000000001 -0.8660254037844386 -1.2246467991473535e-16
vn 1 -2.4492935982947064e-16 -2.4492935982947064e-16
vn 0 -1 0
vn 0 -1 0
vn 0 -1 0
vn 0 -1 0
vn 0 -1 0
vn 0 -1 0
vn 0 -1 0
vn 0 -1 0
vn 0 -1 0
vn 0 -1 0
vn 0 -1 0
vn 0 -1 0
vn 0 -1 0
vn 0 -1 0
vn 0 -1 0
vn 0 -1 0
vn 0 1 0
vn 0 1 0
vn 0 1 0
vn 0 1 0
vn 0 1 0
vn 0 1 0
vn 0 1 0
vn 0 1 0
vn 0 1 0
vn 0 1 0
vn 0 1 0
vn 0 1 0
vn 0 1 0
vn 0 1 0
vn 0 1 0
vn 0 1 0
vn 0 -1 0
vn 0 1 0
vn 0 -1 0
vn 0 -1 0
vn 0 -1 0
vn 0 -1 0
vn 0 -1 0
vn 0 -1 0
vn 0 -1 0
vn 0 -1 0
vn 0 -1 0
vn 0 -1 0
vn 0 -1 0
vn 0 -1 0
vn 0 1 0
vn 0 1 0
vn 0 1 0
vn 0 1 0
vn 0 1 0
vn 0 1 0
vn 0 1 0
vn 0 1 0
vn 0 1 0
vn 0 1 0
vn 0 1 0
vn 0 1 0
vn 0 -1 0
vn 0 1 0
vn 1 0 0
vn 0.5000000000000001 0.8660254037844386 0
vn -0.4999999999999998 0.8660254037844387 0
vn -1 1.2246467991473532e-16 0
vn -0.5000000000000004 -0.8660254037844385 0
vn 0.5000000000000001 -0.8660254037844386 0
vn 1 -2.4492935982947064e-16 0
vn 0.8090169943749475 0 0.5877852522924731
vn 0.40450849718747384 0.8660254037844386 0.2938926261462366
vn -0.40450849718747356 0.8660254037844387 -0.29389262614623646
vn -0.8090169943749475 1.2246467991473532e-16 -0.5877852522924731
vn -0.40450849718747406 -0.8660254037844385 -0.29389262614623685
vn 0.40450849718747384 -0.8660254037844386 0.2938926261462366
vn 0.8090169943749475 -2.4492935982947064e-16 0.5877852522924731
vn 0.30901699437494745 0 0.9510565162951535
vn 0.15450849718747375 0.8660254037844386 0.4755282581475769
vn -0.15450849718747367 0.8660254037844387 -0.47552825814757654
vn -0.30901699437494745 1.2246467991473532e-16 -0.9510565162951535
vn -0.15450849718747386 -0.8660254037844385 -0.4755282581475772
vn 0.15450849718747375 -0.8660254037844386 0.4755282581475769
vn 0.30901699437494745 -2.4492935982947064e-16 0.9510565162951535
vn -0.30901699437494734 0 0.9510565162951536
vn -0.1545084971874737 0.8660254037844386 0.47552825814757693
vn 0.15450849718747361 0.8660254037844387 -0.4755282581475766
vn 0.30901699437494734 1.2246467991473532e-16 -0.9510565162951536
vn 0.1545084971874738 -0.8660254037844385 -0.47552825814757727
vn -0.1545084971874737 -0.8660254037844386 0.47552825814757693
vn -0.30901699437494734 -2.4492935982947064e-16 0.9510565162951536
vn -0.8090169943749473 0 0.5877852522924732
vn -0.4045084971874738 0.8660254037844386 0.2938926261462367
vn 0.4045084971874735 0.8660254037844387 -0.2938926261462365
vn 0.8090169943749473 1.2246467991473532e-16 -0.5877852522924732
vn 0.404508497187474 -0.8660254037844385 -0.2938926261462369
vn -0.4045084971874738 -0.8660254037844386 0.2938926261462367
vn -0.8090169943749473 -2.4492935982947064e-16 0.5877852522924732
vn -1 0 1.2246467991473532e-16
vn -0.5000000000000001 0.8660254037844386 6.123233995736767e-17
vn 0.4999999999999998 0.8660254037844387 -6.123233995736764e-17
vn 1 1.2246467991473532e-16 -1.2246467991473532e-16
vn 0.5000000000000004 -0.8660254037844385 -6.123233995736771e-17
vn -0.5000000000000001 -0.8660254037844386 6.123233995736767e-17
vn -1 -2.4492935982947064e-16 1.2246467991473532e-16
vn -0.8090169943749475 0 -0.587785252292473
vn -0.40450849718747384 0.8660254037844386 -0.29389262614623657
vn 0.40450849718747356 0.8660254037844387 0.2938926261462364
vn 0.8090169943749475 1.2246467991473532e-16 0.587785252292473
vn 0.40450849718747406 -0.8660254037844385 0.2938926261462368
vn -0.40450849718747384 -0.8660254037844386 -0.29389262614623657
vn -0.8090169943749475 -2.4492935982947064e-16 -0.587785252292473
vn -0.30901699437494756 0 -0.9510565162951535
vn -0.1545084971874738 0.8660254037844386 -0.4755282581475769
vn 0.15450849718747373 0.8660254037844387 0.47552825814757654
vn 0.30901699437494756 1.2246467991473532e-16 0.9510565162951535
vn 0.15450849718747392 -0.8660254037844385 0.4755282581475772
vn -0.1545084971874738 -0.8660254037844386 -0.4755282581475769
vn -0.30901699437494756 -2.4492935982947064e-16 -0.9510565162951535
vn 0.30901699437494723 0 -0.9510565162951536
vn 0.15450849718747364 0.8660254037844386 -0.47552825814757693
vn -0.15450849718747356 0.8660254037844387 0.4755282581475766
vn -0.30901699437494723 1.2246467991473532e-16 0.9510565162951536
vn -0.15450849718747375 -0.8660254037844385 0.47552825814757727
vn 0.15450849718747364 -0.8660254037844386 -0.47552825814757693
vn 0.30901699437494723 -2.4492935982947064e-16 -0.9510565162951536
vn 0.8090169943749473 0 -0.5877852522924734
vn 0.4045084971874738 0.8660254037844386 -0.29389262614623674
vn -0.4045084971874735 0.8660254037844387 0.29389262614623657
vn -0.8090169943749473 1.2246467991473532e-16 0.5877852522924734
vn -0.404508497187474 -0.8660254037844385 0.29389262614623696
vn 0.4045084971874738 -0.8660254037844386 -0.29389262614623674
vn 0.8090169943749473 -2.4492935982947064e-16 -0.5877852522924734
vn 1 0 -2.4492935982947064e-16
vn 0.5000000000000001 0.8660254037844386 -1.2246467991473535e-16
vn -0.4999999999999998 0.8660254037844387 1.2246467991473527e-16
vn -1 1.2246467991473532e-16 2.4492935982947064e-16
vn -0.5000000000000004 -0.8660254037844385 1.2246467991473542e-16
vn 0.5000000000000001 -0.8660254037844386 -1.2246467991473535e-16
vn 1 -2.4492935982947064e-16 -2.4492935982947064e-16
vn 0 1 0
vn 0 1 0
vn 0 1 0
vn 0 1 0
vn 0 1 0
vn 0 1 0
vn 0 1 0
vn 0 1 0
vn 0 1 0
vn 0 1 0
vn 0 1 0
vn 0 1 0
vn 0 1 0
vn 0 1 0
vn 0 1 0
vn 0 1 0
f 1/1/1 2/2/2 14/14/14
f 1/1/1 14/14/14 13/13/13
f 25/25/25 2/2/2 1/1/1
f 26/26/26 13/13/13 14/14/14
f 2/2/2 3/3/3 15/15/15
f 2/2/2 15/15/15 14/14/14
f 25/25/25 3/3/3 2/2/2
f 26/26/26 14/14/14 15/15/15
f 3/3/3 4/4/4 16/16/16
f 3/3/3 16/16/16 15/15/15
f 25/25/25 4/4/4 3/3/3
f 26/26/26 15/15/15 16/16/16
f 4/4/4 5/5/5 17/17/17
f 4/4/4 17/17/17 16/16/16
f 25/25/25 5/5/5 4/4/4
f 26/26/26 16/16/16 17/17/17
f 5/5/5 6/6/6 18/18/18
f 5/5/5 18/18/18 17/17/17
f 25/25/25 6/6/6 5/5/5
f 26/26/26 17/17/17 18/18/18
f 6/6/6 7/7/7 19/19/19
f 6/6/6 19/19/19 18/18/18
f 25/25/25 7/7/7 6/6/6
f 26/26/26 18/18/18 19/19/19
f 7/7/7 8/8/8 20/20/20
f 7/7/7 20/20/20 19/19/19
f 25/25/25 8/8/8 7/7/7
f 26/26/26 19/19/19 20/20/20
f 8/8/8 9/9/9 21/21/21
f 8/8/8 21/21/21 20/20/20
f 25/25/25 9/9/9 8/8/8
f 26/26/26 20/20/20 21/21/21
f 9/9/9 10/10/10 22/22/22
f 9/9/9 22/22/22 21/21/21
f 25/25/25 10/10/10 9/9/9
f 26/26/26 21/21/21 22/22/22
f 10/10/10 11/11/11 23/23/23
f 10/10/10 23/23/23 22/22/22
f 25/25/25 11/11/11 10/10/10
f 26/26/26 22/22/22 23/23/23
f 11/11/11 12/12/12 24/24/24
f 11/11/11 24/24/24 23/23/23
f 25/25/25 12/12/12 11/11/11
f 26/26/26 23/23/23 24/24/24
f 12/12/12 1/1/1 13/13/13
f 12/12/12 13/13/13 24/24/24
f 25/25/25 1/1/1 12/12/12
f 26/26/26 24/24/24 13/13/13
f 27/27/27 28/28/28 40/40/40
f 27/27/27 40/40/40 39/39/39
f 51/51/51 28/28/28 27/27/27
f 52/52/52 39/39/39 40/40/40
f 28/28/28 29/29/29 41/41/41
f 28/28/28 41/41/41 40/40/40
f 51/51/51 29/29/29 28/28/28
f 52/52/52 40/40/40 41/41/41
f 29/29/29 30/30/30 42/42/42
f 29/29/29 42/42/42 41/41/41
f 51/51/51 30/30/30 29/29/29
f 52/52/52 41/41/41 42/42/42
f 30/30/30 31/31/31 43/43/43
f 30/30/30 43/43/43 42/42/42
f 51/51/51 31/31/31 30/30/30
f 52/52/52 42/42/42 43/43/43
f 31/31/31 32/32/32 44/44/44
f 31/31/31 44/44/44 43/43/43
f 51/51/51 32/32/32 31/31/31
f 52/52/52 43/43/43 44/44/44
f 32/32/32 33/33/33 45/45/45
f 32/32/32 45/45/45 44/44/44
f 51/51/51 33/33/33 32/32/32
f 52/52/52 44/44/44 45/45/45
f 33/33/33 34/34/34 46/46/46
f 33/33/33 46/46/46 45/45/45
f 51/51/51 34/34/34 33/33/33
f 52/52/52 45/45/45 46/46/46
f 34/34/34 35/35/35 47/47/47
f 34/34/34 47/47/47 46/46/46
f 51/51/51 35/35/35 34/34/34
f 52/52/52 46/46/46 47/47/47
f 35/35/35 36/36/36 48/48/48
f 35/35/35 48/48/48 47/47/47
f 51/51/51 36/36/36 35/35/35
f 52/52/52 47/47/47 48/48/48
f 36/36/36 37/37/37 49/49/49
f 36/36/36 49/49/49 48/48/48
f 51/51/51 37/37/37 36/36/36
f 52/52/52 48/48/48 49/49/49
f 37/37/37 38/38/38 50/50/50
f 37/37/37 50/50/50 49/49/49
f 51/51/51 38/38/38 37/37/37
f 52/52/52 49/49/49 50/50/50
f 38/38/38 27/27/27 39/39/39
f 38/38/38 39/39/39 50/50/50
f 51/51/51 27/27/27 38/38/38
f 52/52/52 50/50/50 39/39/39
f 53/53/53 54/54/54 66/66/66
f 53/53/53 66/66/66 65/65/65
f 77/77/77 54/54/54 53/53/53
f 78/78/78 65/65/65 66/66/66
f 54/54/54 55/55/55 67/67/67
f 54/54/54 67/67/67 66/66/66
f 77/77/77 55/55/55 54/54/54
f 78/78/78 66/66/66 67/67/67
f 55/55/55 56/56/56 68/68/68
f 55/55/55 68/68/68 67/67/67
f 77/77/77 56/56/56 55/55/55
f 78/78/78 67/67/67 68/68/68
f 56/56/56 57/57/57 69/69/69
f 56/56/56 69/69/69 68/68/68
f 77/77/77 57/57/57 56/56/56
f 78/78/78 68/68/68 69/69/69
f 57/57/57 58/58/58 70/70/70
f 57/57/57 70/70/70 69/69/69
f 77/77/77 58/58/58 57/57/57
f 78/78/78 69/69/69 70/70/70
f 58/58/58 59/59/59 71/71/71
f 58/58/58 71/71/71 70/70/70
f 77/77/77 59/59/59 58/58/58
f 78/78/78 70/70/70 71/71/71
f 59/59/59 60/60/60 72/72/72
f 59/59/59 72/72/72 71/71/71
f 77/77/77 60/60/60 59/59/59
f 78/78/78 71/71/71 72/72/72
f 60/60/60 61/61/61 73/73/73
f 60/60/60 73/73/73 72/72/72
f 77/77/77 61/61/61 60/60/60
f 78/78/78 72/72/72 73/73/73
f 61/61/61 62/62/62 74/74/74
f 61/61/61 74/74/74 73/73/73
f 77/77/77 62/62/62 61/61/61
f 78/78/78 73/73/73 74/74/74
f 62/62/62 63/63/63 75/75/75
f 62/62/62 75/75/75 74/74/74
f 77/77/77 63/63/63 62/62/62
f 78/78/78 74/74/74 75/75/75
f 63/63/63 64/64/64 76/76/76
f 63/63/63 76/76/76 75/75/75
f 77/77/77 64/64/64 63/63/63
f 78/78/78 75/75/75 76/76/76
f 64/64/64 53/53/53 65/65/65
f 64/64/64 65/65/65 76/76/76
f 77/77/77 53/53/53 64/64/64
f 78/78/78 76/76/76 65/65/65
f 79/79/79 80/80/80 92/92/92
f 79/79/79 92/92/92 91/91/91
f 103/103/103 80/80/80 79/79/79
f 104/104/104 91/91/91 92/92/92
f 80/80/80 81/81/81 93/93/93
f 80/80/80 93/93/93 92/92/92
f 103/103/103 81/81/81 80/80/80
f 104/104/104 92/92/92 93/93/93
f 81/81/81 82/82/82 94/94/94
f 81/81/81 94/94/94 93/93/93
f 103/103/103 82/82/82 81/81/81
f 104/104/104 93/93/93 94/94/94
f 82/82/82 83/83/83 95/95/95
f 82/82/82 95/95/95 94/94/94
f 103/103/103 83/83/83 82/82/82
f 104/104/104 94/94/94 95/95/95
f 83/83/83 84/84/84 96/96/96
f 83/83/83 96/96/96 95/95/95
f 103/103/103 84/84/84 83/83/83
f 104/104/104 95/95/95 96/96/96
f 84/84/84 85/85/85 97/97/97
f 84/84/84 97/97/97 96/96/96
f 103/103/103 85/85/85 84/84/84
f 104/104/104 96/96/96 97/97/97
f 85/85/85 86/86/86 98/98/98
f 85/85/85 98/98/98 97/97/97
f 103/103/103 86/86/86 85/85/85
f 104/104/104 97/97/97 98/98/98
f 86/86/86 87/87/87 99/99/99
f 86/86/86 99/99/99 98/98/98
f 103/103/103 87/87/87 86/86/86
f 104/104/104 98/98/98 99/99/99
f 87/87/87 88/88/88 100/100/100
f 87/87/87 100/100/100 99/99/99
f 103/103/103 88/88/88 87/87/87
f 104/104/104 99/99/99 100/100/100
f 88/88/88 89/89/89 101/101/101
f 88/88/88 101/101/101 100/100/100
f 103/103/103 89/89/89 88/88/88
f 104/104/104 100/100/100 101/101/101
f 89/89/89 90/90/90 102/102/102
f 89/89/89 102/102/102 101/101/101
f 103/103/103 90/90/90 89/89/89
f 104/104/104 101/101/101 102/102/102
f 90/90/90 79/79/79 91/91/91
f 90/90/90 91/91/91 102/102/102
f 103/103/103 79/79/79 90/90/90
f 104/104/104 102/102/102 91/91/91
f 105/105/105 106/106/106 118/118/118
f 105/105/105 118/118/118 117/117/117
f 129/129/129 106/106/106 105/105/105
f 130/130/130 117/117/117 118/118/118
f 106/106/106 107/107/107 119/119/119
f 106/106/106 119/119/119 118/118/118
f 129/129/129 107/107/107 106/106/106
f 130/130/130 118/118/118 119/119/119
f 107/107/107 108/108/108 120/120/120
f 107/107/107 120/120/120 119/119/119
f 129/129/129 108/108/108 107/107/107
f 130/130/130 119/119/119 120/120/120
f 108/108/108 109/109/109 121/121/121
f 108/108/108 121/121/121 120/120/120
f 129/129/129 109/109/109 108/108/108
f 130/130/130 120/120/120 121/121/121
f 109/109/109 110/110/110 122/122/122
f 109/109/109 122/122/122 121/121/121
f 129/129/129 110/110/110 109/109/109
f 130/130/130 121/121/121 122/122/122
f 110/110/110 111/111/111 123/123/123
f 110/110/110 123/123/123 122/122/122
f 129/129/129 111/111/111 110/110/110
f 130/130/130 122/122/122 123/123/123
f 111/111/111 112/112/112 124/124/124
f 111/111/111 124/124/124 123/123/123
f 129/129/129 112/112/112 111/111/111
f 130/130/130 123/123/123 124/124/124
f 112/112/112 113/113/113 125/125/125
f 112/112/112 125/125/125 124/124/124
f 129/129/129 113/113/113 112/112/112
f 130/130/130 124/124/124 125/125/125
f 113/113/113 114/114/114 126/126/126
f 113/113/113 126/126/126 125/125/125
f 129/129/129 114/114/114 113/113/113
f 130/130/130 125/125/125 126/126/126
f 114/114/114 115/115/115 127/127/127
f 114/114/114 127/127/127 126/126/126
f 129/129/129 115/115/115 114/114/114
f 130/130/130 126/126/126 127/127/127
f 115/115/115 116/116/116 128/128/128
f 115/115/115 128/128/128 127/127/127
f 129/129/129 116/116/116 115/115/115
f 130/130/130 127/127/127 128/128/128
f 116/116/116 105/105/105 117/117/117
f 116/116/116 117/117/117 128/128/128
f 129/129/129 105/105/105 116/116/116
f 130/130/130 128/128/128 117/117/117
f 131/131/131 138/138/138 139/139/139
f 131/131/131 139/139/139 132/132/132
f 132/132/132 139/139/139 140/140/140
f 132/132/132 140/140/140 133/133/133
f 133/133/133 140/140/140 141/141/141
f 133/133/133 141/141/141 134/134/134
f 134/134/134 141/141/141 142/142/142
f 134/134/134 142/142/142 135/135/135
f 135/135/135 142/142/142 143/143/143
f 135/135/135 143/143/143 136/136/136
f 136/136/136 143/143/143 144/144/144
f 136/136/136 144/144/144 137/137/137
f 138/138/138 145/145/145 146/146/146
f 138/138/138 146/146/146 139/139/139
f 139/139/139 146/146/146 147/147/147
f 139/139/139 147/147/147 140/140/140
f 140/140/140 147/147/147 148/148/148
f 140/140/140 148/148/148 141/141/141
f 141/141/141 148/148/148 149/149/149
f 141/141/141 149/149/149 142/142/142
f 142/142/142 149/149/149 150/150/150
f 142/142/142 150/150/150 143/143/143
f 143/143/143 150/150/150 151/151/151
f 143/143/143 151/151/151 144/144/144
f 145/145/145 152/152/152 153/153/153
f 145/145/145 153/153/153 146/146/146
f 146/146/146 153/153/153 154/154/154
f 146/146/146 154/154/154 147/147/147
f 147/147/147 154/154/154 155/155/155
f 147/147/147 155/155/155 148/148/148
f 148/148/148 155/155/155 156/156/156
f 148/148/148 156/156/156 149/149/149
f 149/149/149 156/156/156 157/157/157
f 149/149/149 157/157/157 150/150/150
f 150/150/150 157/157/157 158/158/158
f 150/150/150 158/158/158 151/151/151
f 152/152/152 159/159/159 160/160/160
f 152/152/152 160/160/160 153/153/153
f 153/153/153 160/160/160 161/161/161
f 153/153/153 161/161/161 154/154/154
f 154/154/154 161/161/161 162/162/162
f 154/154/154 162/162/162 155/155/155
f 155/155/155 162/162/162 163/163/163
f 155/155/155 163/163/163 156/156/156
f 156/156/156 163/163/163 164/164/164
f 156/156/156 164/164/164 157/157/157
f 157/157/157 164/164/164 165/165/165
f 157/157/157 165/165/165 158/158/158
f 159/159/159 166/166/166 167/167/167
f 159/159/159 167/167/167 160/160/160
f 160/160/160 167/167/167 168/168/168
f 160/160/160 168/168/168 161/161/161
f 161/161/161 168/168/168 169/169/169
f 161/161/161 169/169/169 162/162/162
f 162/162/162 169/169/169 170/170/170
f 162/162/162 170/170/170 163/163/163
f 163/163/163 170/170/170 171/171/171
f 163/163/163 171/171/171 164/164/164
f 164/164/164 171/171/171 172/172/172
f 164/164/164 172/172/172 165/165/165
f 166/166/166 173/173/173 174/174/174
f 166/166/166 174/174/174 167/167/167
f 167/167/167 174/174/174 175/175/175
f 167/167/167 175/175/175 168/168/168
f 168/168/168 175/175/175 176/176/176
f 168/168/168 176/176/176 169/169/169
f 169/169/169 176/176/176 177/177/177
f 169/169/169 177/177/177 170/170/170
f 170/170/170 177/177/177 178/178/178
f 170/170/170 178/178/178 171/171/171
f 171/171/171 178/178/178 179/179/179
f 171/171/171 179/179/179 172/172/172
f 173/173/173 180/180/180 181/181/181
f 173/173/173 181/181/181 174/174/174
f 174/174/174 181/181/181 182/182/182
f 174/174/174 182/182/182 175/175/175
f 175/175/175 182/182/182 183/183/183
f 175/175/175 183/183/183 176/176/176
f 176/176/176 183/183/183 184/184/184
f 176/176/176 184/184/184 177/177/177
f 177/177/177 184/184/184 185/185/185
f 177/177/177 185/185/185 178/178/178
f 178/178/178 185/185/185 186/186/186
f 178/178/178 186/186/186 179/179/179
f 180/180/180 187/187/187 188/188/188
f 180/180/180 188/188/188 181/181/181
f 181/181/181 188/188/188 189/189/189
f 181/181/181 189/189/189 182/182/182
f 182/182/182 189/189/189 190/190/190
f 182/182/182 190/190/190 183/183/183
f 183/183/183 190/190/190 191/191/191
f 183/183/183 191/191/191 184/184/184
f 184/184/184 191/191/191 192/192/192
f 184/184/184 192/192/192 185/185/185
f 185/185/185 192/192/192 193/193/193
f 185/185/185 193/193/193 186/186/186
f 187/187/187 194/194/194 195/195/195
f 187/187/187 195/195/195 188/188/188
f 188/188/188 195/195/195 196/196/196
f 188/188/188 196/196/196 189/189/189
f 189/189/189 196/196/196 197/197/197
f 189/189/189 197/197/197 190/190/190
f 190/190/190 197/197/197 198/198/198
f 190/190/190 198/198/198 191/191/191
f 191/191/191 198/198/198 199/199/199
f 191/191/191 199/199/199 192/192/192
f 192/192/192 199/199/199 200/200/200
f 192/192/192 200/200/200 193/193/193
f 194/194/194 201/201/201 202/202/202
f 194/194/194 202/202/202 195/195/195
f 195/195/195 202/202/202 203/203/203
f 195/195/195 203/203/203 196/196/196
f 196/196/196 203/203/203 204/204/204
f 196/196/196 204/204/204 197/197/197
f 197/197/197 204/204/204 205/205/205
f 197/197/197 205/205/205 198/198/198
f 198/198/198 205/205/205 206/206/206
f 198/198/198 206/206/206 199/199/199
f 199/199/199 206/206/206 207/207/207
f 199/199/199 207/207/207 200/200/200
f 208/208/208 215/215/215 216/216/216
f 208/208/208 216/216/216 209/209/209
f 209/209/209 216/216/216 217/217/217
f 209/209/209 217/217/217 210/210/210
f 210/210/210 217/217/217 218/218/218
f 210/210/210 218/218/218 211/211/211
f 211/211/211 218/218/218 219/219/219
f 211/211/211 219/219/219 212/212/212
f 212/212/212 219/219/219 220/220/220
f 212/212/212 220/220/220 213/213/213
f 213/213/213 220/220/220 221/221/221
f 213/213/213 221/221/221 214/214/214
f 215/215/215 222/222/222 223/223/223
f 215/215/215 223/223/223 216/216/216
f 216/216/216 223/223/223 224/224/224
f 216/216/216 224/224/224 217/217/217
f 217/217/217 224/224/224 225/225/225
f 217/217/217 225/225/225 218/218/218
f 218/218/218 225/225/225 226/226/226
f 218/218/218 226/226/226 219/219/219
f 219/219/219 226/226/226 227/227/227
f 219/219/219 227/227/227 220/220/220
f 220/220/220 227/227/227 228/228/228
f 220/220/220 228/228/228 221/221/221
f 222/222/222 229/229/229 230/230/230
f 222/222/222 230/230/230 223/223/223
f 223/223/223 230/230/230 231/231/231
f 223/223/223 231/231/231 224/224/224
f 224/224/224 231/231/231 232/232/232
f 224/224/224 232/232/232 225/225/225
f 225/225/225 232/232/232 233/233/233
f 225/225/225 233/233/233 226/226/226
f 226/226/226 233/233/233 234/234/234
f 226/226/226 234/234/234 227/227/227
f 227/227/227 234/234/234 235/235/235
f 227/227/227 235/235/235 228/228/228
f 229/229/229 236/236/236 237/237/237
f 229/229/229 237/237/237 230/230/230
f 230/230/230 237/237/237 238/238/238
f 230/230/230 238/238/238 231/231/231
f 231/231/231 238/238/238 239/239/239
f 231/231/231 239/239/239 232/232/232
f 232/232/232 239/239/239 240/240/240
f 232/232/232 240/240/240 233/233/233
f 233/233/233 240/240/240 241/241/241
f 233/233/233 241/241/241 234/234/234
f 234/234/234 241/241/241 242/242/242
f 234/234/234 242/242/242 235/235/235
f 236/236/236 243/243/243 244/244/244
f 236/236/236 244/244/244 237/237/237
f 237/237/237 244/244/244 245/245/245
f 237/237/237 245/245/245 238/238/238
f 238/238/238 245/245/245 246/246/246
f 238/238/238 246/246/246 239/239/239
f 239/239/239 246/246/246 247/247/247
f 239/239/239 247/247/247 240/240/240
f 240/240/240 247/247/247 248/248/248
f 240/240/240 248/248/248 241/241/241
f 241/241/241 248/248/248 249/249/249
f 241/241/241 249/249/249 242/242/242
f 243/243/243 250/250/250 251/251/251
f 243/243/243 251/251/251 244/244/244
f 244/244/244 251/251/251 252/252/252
f 244/244/244 252/252/252 245/245/245
f 245/245/245 252/252/252 253/253/253
f 245/245/245 253/253/253 246/246/246
f 246/246/246 253/253/253 254/254/254
f 246/246/246 254/254/254 247/247/247
f 247/247/247 254/254/254 255/255/255
f 247/247/247 255/255/255 248/248/248
f 248/248/248 255/255/255 256/256/256
f 248/248/248 256/256/256 249/249/249
f 250/250/250 257/257/257 258/258/258
f 250/250/250 258/258/258 251/251/251
f 251/251/251 258/258/258 259/259/259
f 251/251/251 259/259/259 252/252/252
f 252/252/252 259/259/259 260/260/260
f 252/252/252 260/260/260 253/253/253
f 253/253/253 260/260/260 261/261/261
f 253/253/253 261/261/261 254/254/254
f 254/254/254 261/261/261 262/262/262
f 254/254/254 262/262/262 255/255/255
f 255/255/255 262/262/262 263/263/263
f 255/255/255 263/263/263 256/256/256
f 257/257/257 264/264/264 265/265/265
f 257/257/257 265/265/265 258/258/258
f 258/258/258 265/265/265 266/266/266
f 258/258/258 266/266/266 259/259/259
f 259/259/259 266/266/266 267/267/267
f 259/259/259 267/267/267 260/260/260
f 260/260/260 267/267/267 268/268/268
f 260/260/260 268/268/268 261/261/261
f 261/261/261 268/268/268 269/269/269
f 261/261/261 269/269/269 262/262/262
f 262/262/262 269/269/269 270/270/270
f 262/262/262 270/270/270 263/263/263
f 264/264/264 271/271/271 272/272/272
f 264/264/264 272/272/272 265/265/265
f 265/265/265 272/272/272 273/273/273
f 265/265/265 273/273/273 266/266/266
f 266/266/266 273/273/273 274/274/274
f 266/266/266 274/274/274 267/267/267
f 267/267/267 274/274/274 275/275/275
f 267/267/267 275/275/275 268/268/268
f 268/268/268 275/275/275 276/276/276
f 268/268/268 276/276/276 269/269/269
f 269/269/269 276/276/276 277/277/277
f 269/269/269 277/277/277 270/270/270
f 271/271/271 278/278/278 279/279/279
f 271/271/271 279/279/279 272/272/272
f 272/272/272 279/279/279 280/280/280
f 272/272/272 280/280/280 273/273/273
f 273/273/273 280/280/280 281/281/281
f 273/273/273 281/281/281 274/274/274
f 274/274/274 281/281/281 282/282/282
f 274/274/274 282/282/282 275/275/275
f 275/275/275 282/282/282 283/283/283
f 275/275/275 283/283/283 276/276/276
f 276/276/276 283/283/283 284/284/284
f 276/276/276 284/284/284 277/277/277
f 285/285/285 286/286/286 302/302/302
f 285/285/285 302/302/302 301/301/301
f 317/317/317 286/286/286 285/285/285
f 318/318/318 301/301/301 302/302/302
f 286/286/286 287/287/287 303/303/303
f 286/286/286 303/303/303 302/302/302
f 317/317/317 287/287/287 286/286/286
f 318/318/318 302/302/302 303/303/303
f 287/287/287 288/288/288 304/304/304
f 287/287/287 304/304/304 303/303/303
f 317/317/317 288/288/288 287/287/287
f 318/318/318 303/303/303 304/304/304
f 288/288/288 289/289/289 305/305/305
f 288/288/288 305/305/305 304/304/304
f 317/317/317 289/289/289 288/288/288
f 318/318/318 304/304/304 305/305/305
f 289/289/289 290/290/290 306/306/306
f 289/289/289 306/306/306 305/305/305
f 317/317/317 290/290/290 289/289/289
f 318/318/318 305/305/305 306/306/306
f 290/290/290 291/291/291 307/307/307
f 290/290/290 307/307/307 306/306/306
f 317/317/317 291/291/291 290/290/290
f 318/318/318 306/306/306 307/307/307
f 291/291/291 292/292/292 308/308/308
f 291/291/291 308/308/308 307/307/307
f 317/317/317 292/292/292 291/291/291
f 318/318/318 307/307/307 308/308/308
f 292/292/292 293/293/293 309/309/309
f 292/292/292 309/309/309 308/308/308
f 317/317/317 293/293/293 292/292/292
f 318/318/318 308/308/308 309/309/309
f 293/293/293 294/294/294 310/310/310
f 293/293/293 310/310/310 309/309/309
f 317/317/317 294/294/294 293/293/293
f 318/318/318 309/309/309 310/310/310
f 294/294/294 295/295/295 311/311/311
f 294/294/294 311/311/311 310/310/310
f 317/317/317 295/295/295 294/294/294
f 318/318/318 310/310/310 311/311/311
f 295/295/295 296/296/296 312/312/312
f 295/295/295 312/312/312 311/311/311
f 317/317/317 296/296/296 295/295/295
f 318/318/318 311/311/311 312/312/312
f 296/296/296 297/297/297 313/313/313
f 296/296/296 313/313/313 312/312/312
f 317/317/317 297/297/297 296/296/296
f 318/318/318 312/312/312 313/313/313
f 297/297/297 298/298/298 314/314/314
f 297/297/297 314/314/314 313/313/313
f 317/317/317 298/298/298 297/297/297
f 318/318/318 313/313/313 314/314/314
f 298/298/298 299/299/299 315/315/315
f 298/298/298 315/315/315 314/314/314
f 317/317/317 299/299/299 298/298/298
f 318/318/318 314/314/314 315/315/315
f 299/299/299 300/300/300 316/316/316
f 299/299/299 316/316/316 315/315/315
f 317/317/317 300/300/300 299/299/299
f 318/318/318 315/315/315 316/316/316
f 300/300/300 285/285/285 301/301/301
f 300/300/300 301/301/301 316/316/316
f 317/317/317 285/285/285 300/300/300
f 318/318/318 316/316/316 301/301/301
f 319/319/319 320/320/320 332/332/332
f 319/319/319 332/332/332 331/331/331
f 343/343/343 320/320/320 319/319/319
f 344/344/344 331/331/331 332/332/332
f 320/320/320 321/321/321 333/333/333
f 320/320/320 333/333/333 332/332/332
f 343/343/343 321/321/321 320/320/320
f 344/344/344 332/332/332 333/333/333
f 321/321/321 322/322/322 334/334/334
f 321/321/321 334/334/334 333/333/333
f 343/343/343 322/322/322 321/321/321
f 344/344/344 333/333/333 334/334/334
f 322/322/322 323/323/323 335/335/335
f 322/322/322 335/335/335 334/334/334
f 343/343/343 323/323/323 322/322/322
f 344/344/344 334/334/334 335/335/335
f 323/323/323 324/324/324 336/336/336
f 323/323/323 336/336/336 335/335/335
f 343/343/343 324/324/324 323/323/323
f 344/344/344 335/335/335 336/336/336
f 324/324/324 325/325/325 337/337/337
f 324/324/324 337/337/337 336/336/336
f 343/343/343 325/325/325 324/324/324
f 344/344/344 336/336/336 337/337/337
f 325/325/325 326/326/326 338/338/338
f 325/325/325 338/338/338 337/337/337
f 343/343/343 326/326/326 325/325/325
f 344/344/344 337/337/337 338/338/338
f 326/326/326 327/327/327 339/339/339
f 326/326/326 339/339/339 338/338/338
f 343/343/343 327/327/327 326/326/326
f 344/344/344 338/338/338 339/339/339
f 327/327/327 328/328/328 340/340/340
f 327/327/327 340/340/340 339/339/339
f 343/343/343 328/328/328 327/327/327
f 344/344/344 339/339/339 340/340/340
f 328/328/328 329/329/329 341/341/341
f 328/328/328 341/341/341 340/340/340
f 343/343/343 329/329/329 328/328/328
f 344/344/344 340/340/340 341/341/341
f 329/329/329 330/330/330 342/342/342
f 329/329/329 342/342/342 341/341/341
f 343/343/343 330/330/330 329/329/329
f 344/344/344 341/341/341 342/342/342
f 330/330/330 319/319/319 331/331/331
f 330/330/330 331/331/331 342/342/342
f 343/343/343 319/319/319 330/330/330
f 344/344/344 342/342/342 331/331/331
f 345/345/345 352/352/352 353/353/353
f 345/345/345 353/353/353 346/346/346
f 346/346/346 353/353/353 354/354/354
f 346/346/346 354/354/354 347/347/347
f 347/347/347 354/354/354 355/355/355
f 347/347/347 355/355/355 348/348/348
f 348/348/348 355/355/355 356/356/356
f 348/348/348 356/356/356 349/349/349
f 349/349/349 356/356/356 357/357/357
f 349/349/349 357/357/357 350/350/350
f 350/350/350 357/357/357 358/358/358
f 350/350/350 358/358/358 351/351/351
f 352/352/352 359/359/359 360/360/360
f 352/352/352 360/360/360 353/353/353
f 353/353/353 360/360/360 361/361/361
f 353/353/353 361/361/361 354/354/354
f 354/354/354 361/361/361 362/362/362
f 354/354/354 362/362/362 355/355/355
f 355/355/355 362/362/362 363/363/363
f 355/355/355 363/363/363 356/356/356
f 356/356/356 363/363/363 364/364/364
f 356/356/356 364/364/364 357/357/357
f 357/357/357 364/364/364 365/365/365
f 357/357/357 365/365/365 358/358/358
f 359/359/359 366/366/366 367/367/367
f 359/359/359 367/367/367 360/360/360
f 360/360/360 367/367/367 368/368/368
f 360/360/360 368/368/368 361/361/361
f 361/361/361 368/368/368 369/369/369
f 361/361/361 369/369/369 362/362/362
f 362/362/362 369/369/369 370/370/370
f 362/362/362 370/370/370 363/363/363
f 363/363/363 370/370/370 371/371/371
f 363/363/363 371/371/371 364/364/364
f 364/364/364 371/371/371 372/372/372
f 364/364/364 372/372/372 365/365/365
f 366/366/366 373/373/373 374/374/374
f 366/366/366 374/374/374 367/367/367
f 367/367/367 374/374/374 375/375/375
f 367/367/367 375/375/375 368/368/368
f 368/368/368 375/375/375 376/376/376
f 368/368/368 376/376/376 369/369/369
f 369/369/369 376/376/376 377/377/377
f 369/369/369 377/377/377 370/370/370
f 370/370/370 377/377/377 378/378/378
f 370/370/370 378/378/378 371/371/371
f 371/371/371 378/378/378 379/379/379
f 371/371/371 379/379/379 372/372/372
f 373/373/373 380/380/380 381/381/381
f 373/373/373 381/381/381 374/374/374
f 374/374/374 381/381/381 382/382/382
f 374/374/374 382/382/382 375/375/375
f 375/375/375 382/382/382 383/383/383
f 375/375/375 383/383/383 376/376/376
f 376/376/376 383/383/383 384/384/384
f 376/376/376 384/384/384 377/377/377
f 377/377/377 384/384/384 385/385/385
f 377/377/377 385/385/385 378/378/378
f 378/378/378 385/385/385 386/386/386
f 378/378/378 386/386/386 379/379/379
f 380/380/380 387/387/387 388/388/388
f 380/380/380 388/388/388 381/381/381
f 381/381/381 388/388/388 389/389/389
f 381/381/381 389/389/389 382/382/382
f 382/382/382 389/389/389 390/390/390
f 382/382/382 390/390/390 383/383/383
f 383/383/383 390/390/390 391/391/391
f 383/383/383 391/391/391 384/384/384
f 384/384/384 391/391/391 392/392/392
f 384/384/384 392/392/392 385/385/385
f 385/385/385 392/392/392 393/393/393
f 385/385/385 393/393/393 386/386/386
f 387/387/387 394/394/394 395/395/395
f 387/387/387 395/395/395 388/388/388
f 388/388/388 395/395/395 396/396/396
f 388/388/388 396/396/396 389/389/389
f 389/389/389 396/396/396 397/397/397
f 389/389/389 397/397/397 390/390/390
f 390/390/390 397/397/397 398/398/398
f 390/390/390 398/398/398 391/391/391
f 391/391/391 398/398/398 399/399/399
f 391/391/391 399/399/399 392/392/392
f 392/392/392 399/399/399 400/400/400
f 392/392/392 400/400/400 393/393/393
f 394/394/394 401/401/401 402/402/402
f 394/394/394 402/402/402 395/395/395
f 395/395/395 402/402/402 403/403/403
f 395/395/395 403/403/403 396/396/396
f 396/396/396 403/403/403 404/404/404
f 396/396/396 404/404/404 397/397/397
f 397/397/397 404/404/404 405/405/405
f 397/397/397 405/405/405 398/398/398
f 398/398/398 405/405/405 406/406/406
f 398/398/398 406/406/406 399/399/399
f 399/399/399 406/406/406 407/407/407
f 399/399/399 407/407/407 400/400/400
f 401/401/401 408/408/408 409/409/409
f 401/401/401 409/409/409 402/402/402
f 402/402/402 409/409/409 410/410/410
f 402/402/402 410/410/410 403/403/403
f 403/403/403 410/410/410 411/411/411
f 403/403/403 411/411/411 404/404/404
f 404/404/404 411/411/411 412/412/412
f 404/404/404 412/412/412 405/405/405
f 405/405/405 412/412/412 413/413/413
f 405/405/405 413/413/413 406/406/406
f 406/406/406 413/413/413 414/414/414
f 406/406/406 414/414/414 407/407/407
f 408/408/408 415/415/415 416/416/416
f 408/408/408 416/416/416 409/409/409
f 409/409/409 416/416/416 417/417/417
f 409/409/409 417/417/417 410/410/410
f 410/410/410 417/417/417 418/418/418
f 410/410/410 418/418/418 411/411/411
f 411/411/411 418/418/418 419/419/419
f 411/411/411 419/419/419 412/412/412
f 412/412/412 419/419/419 420/420/420
f 412/412/412 420/420/420 413/413/413
f 413/413/413 420/420/420 421/421/421
f 413/413/413 421/421/421 414/414/414
f 422/422/422 424/424/424 423/423/423
f 422/422/422 425/425/425 424/424/424
f 426/426/426 427/427/427 428/428/428
f 426/426/426 428/428/428 429/429/429
f 422/422/422 423/423/423 427/427/427
f 422/422/422 427/427/427 426/426/426
f 424/424/424 425/425/425 429/429/429
f 424/424/424 429/429/429 428/428/428
f 422/422/422 426/426/426 429/429/429
f 422/422/422 429/429/429 425/425/425
f 423/423/423 424/424/424 428/428/428
f 423/423/423 428/428/428 427/427/427
f 430/430/430 432/432/432 431/431/431
f 430/430/430 433/433/433 432/432/432
f 434/434/434 435/435/435 436/436/436
f 434/434/434 436/436/436 437/437/437
f 430/430/430 431/431/431 435/435/435
f 430/430/430 435/435/435 434/434/434
f 432/432/432 433/433/433 437/437/437
f 432/432/432 437/437/437 436/436/436
f 430/430/430 434/434/434 437/437/437
f 430/430/430 437/437/437 433/433/433
f 431/431/431 432/432/432 436/436/436
f 431/431/431 436/436/436 435/435/435