# 3D Model: vehicle/bike/folding-gravel-bike-changebike-gf-102g-b1~0 (v6 Gemini)
# Style: vehicle/bike | Symmetry: symmetric
# Dimensions: 1.969 x 1.074 x 2.07 m
# Triangles: 988 | Vertices: 541
v 0 0.45 -1.035
v 0 0.4803 -1.0175
v 0 0.4803 -0.9825
v 0 0.45 -0.965
v 0 0.4197 -0.9825
v 0 0.4197 -1.0175
v 0 0.45 -1.035
v 0.6084 0.45 -0.8373
v 0.5981 0.4803 -0.8232
v 0.5775 0.4803 -0.7949
v 0.5672 0.45 -0.7807
v 0.5775 0.4197 -0.7949
v 0.5981 0.4197 -0.8232
v 0.6084 0.45 -0.8373
v 0.9843 0.45 -0.3198
v 0.9677 0.4803 -0.3144
v 0.9344 0.4803 -0.3036
v 0.9178 0.45 -0.2982
v 0.9344 0.4197 -0.3036
v 0.9677 0.4197 -0.3144
v 0.9843 0.45 -0.3198
v 0.9843 0.45 0.3198
v 0.9677 0.4803 0.3144
v 0.9344 0.4803 0.3036
v 0.9178 0.45 0.2982
v 0.9344 0.4197 0.3036
v 0.9677 0.4197 0.3144
v 0.9843 0.45 0.3198
v 0.6084 0.45 0.8373
v 0.5981 0.4803 0.8232
v 0.5775 0.4803 0.7949
v 0.5672 0.45 0.7807
v 0.5775 0.4197 0.7949
v 0.5981 0.4197 0.8232
v 0.6084 0.45 0.8373
v 0 0.45 1.035
v 0 0.4803 1.0175
v 0 0.4803 0.9825
v 0 0.45 0.965
v 0 0.4197 0.9825
v 0 0.4197 1.0175
v 0 0.45 1.035
v -0.6084 0.45 0.8373
v -0.5981 0.4803 0.8232
v -0.5775 0.4803 0.7949
v -0.5672 0.45 0.7807
v -0.5775 0.4197 0.7949
v -0.5981 0.4197 0.8232
v -0.6084 0.45 0.8373
v -0.9843 0.45 0.3198
v -0.9677 0.4803 0.3144
v -0.9344 0.4803 0.3036
v -0.9178 0.45 0.2982
v -0.9344 0.4197 0.3036
v -0.9677 0.4197 0.3144
v -0.9843 0.45 0.3198
v -0.9843 0.45 -0.3198
v -0.9677 0.4803 -0.3144
v -0.9344 0.4803 -0.3036
v -0.9178 0.45 -0.2982
v -0.9344 0.4197 -0.3036
v -0.9677 0.4197 -0.3144
v -0.9843 0.45 -0.3198
v -0.6084 0.45 -0.8373
v -0.5981 0.4803 -0.8232
v -0.5775 0.4803 -0.7949
v -0.5672 0.45 -0.7807
v -0.5775 0.4197 -0.7949
v -0.5981 0.4197 -0.8232
v -0.6084 0.45 -0.8373
v 0 0.45 -1.035
v 0 0.4803 -1.0175
v 0 0.4803 -0.9825
v 0 0.45 -0.965
v 0 0.4197 -0.9825
v 0 0.4197 -1.0175
v 0 0.45 -1.035
v 0 -0.05 -0.39
v 0.0761 -0.05 -0.3825
v 0.1492 -0.05 -0.3603
v 0.2167 -0.05 -0.3243
v 0.2758 -0.05 -0.2758
v 0.3243 -0.05 -0.2167
v 0.3603 -0.05 -0.1492
v 0.3825 -0.05 -0.0761
v 0.39 -0.05 0
v 0.3825 -0.05 0.0761
v 0.3603 -0.05 0.1492
v 0.3243 -0.05 0.2167
v 0.2758 -0.05 0.2758
v 0.2167 -0.05 0.3243
v 0.1492 -0.05 0.3603
v 0.0761 -0.05 0.3825
v 0 -0.05 0.39
v -0.0761 -0.05 0.3825
v -0.1492 -0.05 0.3603
v -0.2167 -0.05 0.3243
v -0.2758 -0.05 0.2758
v -0.3243 -0.05 0.2167
v -0.3603 -0.05 0.1492
v -0.3825 -0.05 0.0761
v -0.39 -0.05 0
v -0.3825 -0.05 -0.0761
v -0.3603 -0.05 -0.1492
v -0.3243 -0.05 -0.2167
v -0.2758 -0.05 -0.2758
v -0.2167 -0.05 -0.3243
v -0.1492 -0.05 -0.3603
v -0.0761 -0.05 -0.3825
v 0 0.95 -0.39
v 0.0761 0.95 -0.3825
v 0.1492 0.95 -0.3603
v 0.2167 0.95 -0.3243
v 0.2758 0.95 -0.2758
v 0.3243 0.95 -0.2167
v 0.3603 0.95 -0.1492
v 0.3825 0.95 -0.0761
v 0.39 0.95 0
v 0.3825 0.95 0.0761
v 0.3603 0.95 0.1492
v 0.3243 0.95 0.2167
v 0.2758 0.95 0.2758
v 0.2167 0.95 0.3243
v 0.1492 0.95 0.3603
v 0.0761 0.95 0.3825
v 0 0.95 0.39
v -0.0761 0.95 0.3825
v -0.1492 0.95 0.3603
v -0.2167 0.95 0.3243
v -0.2758 0.95 0.2758
v -0.3243 0.95 0.2167
v -0.3603 0.95 0.1492
v -0.3825 0.95 0.0761
v -0.39 0.95 0
v -0.3825 0.95 -0.0761
v -0.3603 0.95 -0.1492
v -0.3243 0.95 -0.2167
v -0.2758 0.95 -0.2758
v -0.2167 0.95 -0.3243
v -0.1492 0.95 -0.3603
v -0.0761 0.95 -0.3825
v 0 -0.05 0
v 0 0.95 0
v 0 -0.05 -0.04
v 0.0153 -0.05 -0.037
v 0.0283 -0.05 -0.0283
v 0.037 -0.05 -0.0153
v 0.04 -0.05 0
v 0.037 -0.05 0.0153
v 0.0283 -0.05 0.0283
v 0.0153 -0.05 0.037
v 0 -0.05 0.04
v -0.0153 -0.05 0.037
v -0.0283 -0.05 0.0283
v -0.037 -0.05 0.0153
v -0.04 -0.05 0
v -0.037 -0.05 -0.0153
v -0.0283 -0.05 -0.0283
v -0.0153 -0.05 -0.037
v 0 0.95 -0.04
v 0.0153 0.95 -0.037
v 0.0283 0.95 -0.0283
v 0.037 0.95 -0.0153
v 0.04 0.95 0
v 0.037 0.95 0.0153
v 0.0283 0.95 0.0283
v 0.0153 0.95 0.037
v 0 0.95 0.04
v -0.0153 0.95 0.037
v -0.0283 0.95 0.0283
v -0.037 0.95 0.0153
v -0.04 0.95 0
v -0.037 0.95 -0.0153
v -0.0283 0.95 -0.0283
v -0.0153 0.95 -0.037
v 0 -0.05 0
v 0 0.95 0
v -0.04 -0.05 -0.08
v -0.0193 -0.05 -0.0773
v 0 -0.05 -0.0693
v 0.0166 -0.05 -0.0566
v 0.0293 -0.05 -0.04
v 0.0373 -0.05 -0.0207
v 0.04 -0.05 0
v 0.0373 -0.05 0.0207
v 0.0293 -0.05 0.04
v 0.0166 -0.05 0.0566
v 0 -0.05 0.0693
v -0.0193 -0.05 0.0773
v -0.04 -0.05 0.08
v -0.0607 -0.05 0.0773
v -0.08 -0.05 0.0693
v -0.0966 -0.05 0.0566
v -0.1093 -0.05 0.04
v -0.1173 -0.05 0.0207
v -0.12 -0.05 0
v -0.1173 -0.05 -0.0207
v -0.1093 -0.05 -0.04
v -0.0966 -0.05 -0.0566
v -0.08 -0.05 -0.0693
v -0.0607 -0.05 -0.0773
v -0.04 0.95 -0.08
v -0.0193 0.95 -0.0773
v 0 0.95 -0.0693
v 0.0166 0.95 -0.0566
v 0.0293 0.95 -0.04
v 0.0373 0.95 -0.0207
v 0.04 0.95 0
v 0.0373 0.95 0.0207
v 0.0293 0.95 0.04
v 0.0166 0.95 0.0566
v 0 0.95 0.0693
v -0.0193 0.95 0.0773
v -0.04 0.95 0.08
v -0.0607 0.95 0.0773
v -0.08 0.95 0.0693
v -0.0966 0.95 0.0566
v -0.1093 0.95 0.04
v -0.1173 0.95 0.0207
v -0.12 0.95 0
v -0.1173 0.95 -0.0207
v -0.1093 0.95 -0.04
v -0.0966 0.95 -0.0566
v -0.08 0.95 -0.0693
v -0.0607 0.95 -0.0773
v -0.04 -0.05 0
v -0.04 0.95 0
v -0.05 -0.05 0.02
v -0.027 -0.05 0.0246
v -0.0076 -0.05 0.0376
v 0.0054 -0.05 0.057
v 0.01 -0.05 0.08
v 0.0054 -0.05 0.103
v -0.0076 -0.05 0.1224
v -0.027 -0.05 0.1354
v -0.05 -0.05 0.14
v -0.073 -0.05 0.1354
v -0.0924 -0.05 0.1224
v -0.1054 -0.05 0.103
v -0.11 -0.05 0.08
v -0.1054 -0.05 0.057
v -0.0924 -0.05 0.0376
v -0.073 -0.05 0.0246
v -0.05 0.95 0.02
v -0.027 0.95 0.0246
v -0.0076 0.95 0.0376
v 0.0054 0.95 0.057
v 0.01 0.95 0.08
v 0.0054 0.95 0.103
v -0.0076 0.95 0.1224
v -0.027 0.95 0.1354
v -0.05 0.95 0.14
v -0.073 0.95 0.1354
v -0.0924 0.95 0.1224
v -0.1054 0.95 0.103
v -0.11 0.95 0.08
v -0.1054 0.95 0.057
v -0.0924 0.95 0.0376
v -0.073 0.95 0.0246
v -0.05 -0.05 0.08
v -0.05 0.95 0.08
v -0.1213 0.2672 0.14
v -0.0625 0.2552 0.14
v -0.0387 0.3728 0.14
v -0.0975 0.3848 0.14
v -0.1213 0.2672 0.22
v -0.0625 0.2552 0.22
v -0.0387 0.3728 0.22
v -0.0975 0.3848 0.22
v -0.035 0.45 -0.41
v -0.037 0.4425 -0.41
v -0.0425 0.437 -0.41
v -0.05 0.435 -0.41
v -0.0575 0.437 -0.41
v -0.063 0.4425 -0.41
v -0.065 0.45 -0.41
v -0.063 0.4575 -0.41
v -0.0575 0.463 -0.41
v -0.05 0.465 -0.41
v -0.0425 0.463 -0.41
v -0.037 0.4575 -0.41
v -0.035 0.45 0.01
v -0.037 0.4425 0.01
v -0.0425 0.437 0.01
v -0.05 0.435 0.01
v -0.0575 0.437 0.01
v -0.063 0.4425 0.01
v -0.065 0.45 0.01
v -0.063 0.4575 0.01
v -0.0575 0.463 0.01
v -0.05 0.465 0.01
v -0.0425 0.463 0.01
v -0.037 0.4575 0.01
v -0.05 0.45 -0.41
v -0.05 0.45 0.01
v 0.065 0.45 -0.41
v 0.063 0.4425 -0.41
v 0.0575 0.437 -0.41
v 0.05 0.435 -0.41
v 0.0425 0.437 -0.41
v 0.037 0.4425 -0.41
v 0.035 0.45 -0.41
v 0.037 0.4575 -0.41
v 0.0425 0.463 -0.41
v 0.05 0.465 -0.41
v 0.0575 0.463 -0.41
v 0.063 0.4575 -0.41
v 0.065 0.45 0.01
v 0.063 0.4425 0.01
v 0.0575 0.437 0.01
v 0.05 0.435 0.01
v 0.0425 0.437 0.01
v 0.037 0.4425 0.01
v 0.035 0.45 0.01
v 0.037 0.4575 0.01
v 0.0425 0.463 0.01
v 0.05 0.465 0.01
v 0.0575 0.463 0.01
v 0.063 0.4575 0.01
v 0.05 0.45 -0.41
v 0.05 0.45 0.01
v -0.0041 0.4837 -0.2649
v -0.0049 0.4796 -0.2604
v -0.0086 0.476 -0.257
v -0.0143 0.4738 -0.2558
v -0.0204 0.4736 -0.257
v -0.0252 0.4755 -0.2604
v -0.0276 0.479 -0.2649
v -0.0268 0.4831 -0.2695
v -0.023 0.4867 -0.2729
v -0.0173 0.4889 -0.2741
v -0.0113 0.4891 -0.2729
v -0.0064 0.4872 -0.2695
v -0.0724 0.821 0.0249
v -0.0732 0.8169 0.0295
v -0.077 0.8133 0.0329
v -0.0827 0.8111 0.0341
v -0.0887 0.8109 0.0329
v -0.0936 0.8128 0.0295
v -0.0959 0.8163 0.0249
v -0.0951 0.8204 0.0204
v -0.0914 0.824 0.017
v -0.0857 0.8262 0.0158
v -0.0796 0.8264 0.017
v -0.0748 0.8245 0.0204
v -0.0158 0.4813 -0.2649
v -0.0842 0.8187 0.0249
v 0.0276 0.479 -0.2649
v 0.0252 0.4755 -0.2604
v 0.0204 0.4736 -0.257
v 0.0143 0.4738 -0.2558
v 0.0086 0.476 -0.257
v 0.0049 0.4796 -0.2604
v 0.0041 0.4837 -0.2649
v 0.0064 0.4872 -0.2695
v 0.0113 0.4891 -0.2729
v 0.0173 0.4889 -0.2741
v 0.023 0.4867 -0.2729
v 0.0268 0.4831 -0.2695
v 0.0959 0.8163 0.0249
v 0.0936 0.8128 0.0295
v 0.0887 0.8109 0.0329
v 0.0827 0.8111 0.0341
v 0.077 0.8133 0.0329
v 0.0732 0.8169 0.0295
v 0.0724 0.821 0.0249
v 0.0748 0.8245 0.0204
v 0.0796 0.8264 0.017
v 0.0857 0.8262 0.0158
v 0.0914 0.824 0.017
v 0.0951 0.8204 0.0204
v 0.0158 0.4813 -0.2649
v 0.0842 0.8187 0.0249
v 0.02 0.505 -0.3497
v 0.0185 0.5035 -0.3422
v 0.0141 0.5022 -0.3358
v 0.0077 0.5013 -0.3316
v 0 0.501 -0.3301
v -0.0077 0.5013 -0.3316
v -0.0141 0.5022 -0.3358
v -0.0185 0.5035 -0.3422
v -0.02 0.505 -0.3497
v -0.0185 0.5065 -0.3572
v -0.0141 0.5078 -0.3635
v -0.0077 0.5087 -0.3678
v 0 0.509 -0.3693
v 0.0077 0.5087 -0.3678
v 0.0141 0.5078 -0.3635
v 0.0185 0.5065 -0.3572
v 0.02 0.995 -0.2503
v 0.0185 0.9935 -0.2428
v 0.0141 0.9922 -0.2365
v 0.0077 0.9913 -0.2322
v 0 0.991 -0.2307
v -0.0077 0.9913 -0.2322
v -0.0141 0.9922 -0.2365
v -0.0185 0.9935 -0.2428
v -0.02 0.995 -0.2503
v -0.0185 0.9965 -0.2578
v -0.0141 0.9978 -0.2642
v -0.0077 0.9987 -0.2684
v 0 0.999 -0.2699
v 0.0077 0.9987 -0.2684
v 0.0141 0.9978 -0.2642
v 0.0185 0.9965 -0.2578
v 0 0.505 -0.3497
v 0 0.995 -0.2503
v 0.022 0.9408 -0.3579
v 0.0203 0.9391 -0.3497
v 0.0156 0.9377 -0.3427
v 0.0084 0.9368 -0.338
v 0 0.9364 -0.3364
v -0.0084 0.9368 -0.338
v -0.0156 0.9377 -0.3427
v -0.0203 0.9391 -0.3497
v -0.022 0.9408 -0.3579
v -0.0203 0.9425 -0.3662
v -0.0156 0.9439 -0.3732
v -0.0084 0.9448 -0.3779
v 0 0.9452 -0.3795
v 0.0084 0.9448 -0.3779
v 0.0156 0.9439 -0.3732
v 0.0203 0.9425 -0.3662
v 0.022 1.0192 -0.3421
v 0.0203 1.0175 -0.3338
v 0.0156 1.0161 -0.3268
v 0.0084 1.0152 -0.3221
v 0 1.0148 -0.3205
v -0.0084 1.0152 -0.3221
v -0.0156 1.0161 -0.3268
v -0.0203 1.0175 -0.3338
v -0.022 1.0192 -0.3421
v -0.0203 1.0209 -0.3503
v -0.0156 1.0223 -0.3573
v -0.0084 1.0232 -0.362
v 0 1.0236 -0.3636
v 0.0084 1.0232 -0.362
v 0.0156 1.0223 -0.3573
v 0.0203 1.0209 -0.3503
v 0 0.9408 -0.3579
v 0 1.0192 -0.3421
v 0 0.41 -0.425
v 0.0096 0.41 -0.4231
v 0.0177 0.41 -0.4177
v 0.0231 0.41 -0.4096
v 0.025 0.41 -0.4
v 0.0231 0.41 -0.3904
v 0.0177 0.41 -0.3823
v 0.0096 0.41 -0.3769
v 0 0.41 -0.375
v -0.0096 0.41 -0.3769
v -0.0177 0.41 -0.3823
v -0.0231 0.41 -0.3904
v -0.025 0.41 -0.4
v -0.0231 0.41 -0.4096
v -0.0177 0.41 -0.4177
v -0.0096 0.41 -0.4231
v 0 0.49 -0.425
v 0.0096 0.49 -0.4231
v 0.0177 0.49 -0.4177
v 0.0231 0.49 -0.4096
v 0.025 0.49 -0.4
v 0.0231 0.49 -0.3904
v 0.0177 0.49 -0.3823
v 0.0096 0.49 -0.3769
v 0 0.49 -0.375
v -0.0096 0.49 -0.3769
v -0.0177 0.49 -0.3823
v -0.0231 0.49 -0.3904
v -0.025 0.49 -0.4
v -0.0231 0.49 -0.4096
v -0.0177 0.49 -0.4177
v -0.0096 0.49 -0.4231
v 0 0.41 -0.4
v 0 0.49 -0.4
v 0.06 0.445 -0.51
v 0.0885 0.445 -0.5063
v 0.115 0.445 -0.4953
v 0.1378 0.445 -0.4778
v 0.1553 0.445 -0.455
v 0.1663 0.445 -0.4285
v 0.17 0.445 -0.4
v 0.1663 0.445 -0.3715
v 0.1553 0.445 -0.345
v 0.1378 0.445 -0.3222
v 0.115 0.445 -0.3047
v 0.0885 0.445 -0.2937
v 0.06 0.445 -0.29
v 0.0315 0.445 -0.2937
v 0.005 0.445 -0.3047
v -0.0178 0.445 -0.3222
v -0.0353 0.445 -0.345
v -0.0463 0.445 -0.3715
v -0.05 0.445 -0.4
v -0.0463 0.445 -0.4285
v -0.0353 0.445 -0.455
v -0.0178 0.445 -0.4778
v 0.005 0.445 -0.4953
v 0.0315 0.445 -0.5063
v 0.06 0.455 -0.51
v 0.0885 0.455 -0.5063
v 0.115 0.455 -0.4953
v 0.1378 0.455 -0.4778
v 0.1553 0.455 -0.455
v 0.1663 0.455 -0.4285
v 0.17 0.455 -0.4
v 0.1663 0.455 -0.3715
v 0.1553 0.455 -0.345
v 0.1378 0.455 -0.3222
v 0.115 0.455 -0.3047
v 0.0885 0.455 -0.2937
v 0.06 0.455 -0.29
v 0.0315 0.455 -0.2937
v 0.005 0.455 -0.3047
v -0.0178 0.455 -0.3222
v -0.0353 0.455 -0.345
v -0.0463 0.455 -0.3715
v -0.05 0.455 -0.4
v -0.0463 0.455 -0.4285
v -0.0353 0.455 -0.455
v -0.0178 0.455 -0.4778
v 0.005 0.455 -0.4953
v 0.0315 0.455 -0.5063
v 0.06 0.445 -0.4
v 0.06 0.455 -0.4
v 0.1144 0.2962 -0.395
v 0.1319 0.3058 -0.395
v 0.0456 0.4638 -0.395
v 0.0281 0.4542 -0.395
v 0.1144 0.2962 -0.365
v 0.1319 0.3058 -0.365
v 0.0456 0.4638 -0.365
v 0.0281 0.4542 -0.365
v 0.08 0.265 -0.4
v 0.16 0.265 -0.4
v 0.16 0.295 -0.4
v 0.08 0.295 -0.4
v 0.08 0.265 -0.3
v 0.16 0.265 -0.3
v 0.16 0.295 -0.3
v 0.08 0.295 -0.3
vt 0 0
vt 0 0.16666666666666666
vt 0 0.3333333333333333
vt 0 0.5
vt 0 0.6666666666666666
vt 0 0.8333333333333334
vt 0 1
vt 0.1 0
vt 0.1 0.16666666666666666
vt 0.1 0.3333333333333333
vt 0.1 0.5
vt 0.1 0.6666666666666666
vt 0.1 0.8333333333333334
vt 0.1 1
vt 0.2 0
vt 0.2 0.16666666666666666
vt 0.2 0.3333333333333333
vt 0.2 0.5
vt 0.2 0.6666666666666666
vt 0.2 0.8333333333333334
vt 0.2 1
vt 0.3 0
vt 0.3 0.16666666666666666
vt 0.3 0.3333333333333333
vt 0.3 0.5
vt 0.3 0.6666666666666666
vt 0.3 0.8333333333333334
vt 0.3 1
vt 0.4 0
vt 0.4 0.16666666666666666
vt 0.4 0.3333333333333333
vt 0.4 0.5
vt 0.4 0.6666666666666666
vt 0.4 0.8333333333333334
vt 0.4 1
vt 0.5 0
vt 0.5 0.16666666666666666
vt 0.5 0.3333333333333333
vt 0.5 0.5
vt 0.5 0.6666666666666666
vt 0.5 0.8333333333333334
vt 0.5 1
vt 0.6 0
vt 0.6 0.16666666666666666
vt 0.6 0.3333333333333333
vt 0.6 0.5
vt 0.6 0.6666666666666666
vt 0.6 0.8333333333333334
vt 0.6 1
vt 0.7 0
vt 0.7 0.16666666666666666
vt 0.7 0.3333333333333333
vt 0.7 0.5
vt 0.7 0.6666666666666666
vt 0.7 0.8333333333333334
vt 0.7 1
vt 0.8 0
vt 0.8 0.16666666666666666
vt 0.8 0.3333333333333333
vt 0.8 0.5
vt 0.8 0.6666666666666666
vt 0.8 0.8333333333333334
vt 0.8 1
vt 0.9 0
vt 0.9 0.16666666666666666
vt 0.9 0.3333333333333333
vt 0.9 0.5
vt 0.9 0.6666666666666666
vt 0.9 0.8333333333333334
vt 0.9 1
vt 1 0
vt 1 0.16666666666666666
vt 1 0.3333333333333333
vt 1 0.5
vt 1 0.6666666666666666
vt 1 0.8333333333333334
vt 1 1
vt 0 0
vt 0.03125 0
vt 0.0625 0
vt 0.09375 0
vt 0.125 0
vt 0.15625 0
vt 0.1875 0
vt 0.21875 0
vt 0.25 0
vt 0.28125 0
vt 0.3125 0
vt 0.34375 0
vt 0.375 0
vt 0.40625 0
vt 0.4375 0
vt 0.46875 0
vt 0.5 0
vt 0.53125 0
vt 0.5625 0
vt 0.59375 0
vt 0.625 0
vt 0.65625 0
vt 0.6875 0
vt 0.71875 0
vt 0.75 0
vt 0.78125 0
vt 0.8125 0
vt 0.84375 0
vt 0.875 0
vt 0.90625 0
vt 0.9375 0
vt 0.96875 0
vt 0 1
vt 0.03125 1
vt 0.0625 1
vt 0.09375 1
vt 0.125 1
vt 0.15625 1
vt 0.1875 1
vt 0.21875 1
vt 0.25 1
vt 0.28125 1
vt 0.3125 1
vt 0.34375 1
vt 0.375 1
vt 0.40625 1
vt 0.4375 1
vt 0.46875 1
vt 0.5 1
vt 0.53125 1
vt 0.5625 1
vt 0.59375 1
vt 0.625 1
vt 0.65625 1
vt 0.6875 1
vt 0.71875 1
vt 0.75 1
vt 0.78125 1
vt 0.8125 1
vt 0.84375 1
vt 0.875 1
vt 0.90625 1
vt 0.9375 1
vt 0.96875 1
vt 0.5 0.5
vt 0.5 0.5
vt 0 0
vt 0.0625 0
vt 0.125 0
vt 0.1875 0
vt 0.25 0
vt 0.3125 0
vt 0.375 0
vt 0.4375 0
vt 0.5 0
vt 0.5625 0
vt 0.625 0
vt 0.6875 0
vt 0.75 0
vt 0.8125 0
vt 0.875 0
vt 0.9375 0
vt 0 1
vt 0.0625 1
vt 0.125 1
vt 0.1875 1
vt 0.25 1
vt 0.3125 1
vt 0.375 1
vt 0.4375 1
vt 0.5 1
vt 0.5625 1
vt 0.625 1
vt 0.6875 1
vt 0.75 1
vt 0.8125 1
vt 0.875 1
vt 0.9375 1
vt 0.5 0.5
vt 0.5 0.5
vt 0 0
vt 0.041666666666666664 0
vt 0.08333333333333333 0
vt 0.125 0
vt 0.16666666666666666 0
vt 0.20833333333333334 0
vt 0.25 0
vt 0.2916666666666667 0
vt 0.3333333333333333 0
vt 0.375 0
vt 0.4166666666666667 0
vt 0.4583333333333333 0
vt 0.5 0
vt 0.5416666666666666 0
vt 0.5833333333333334 0
vt 0.625 0
vt 0.6666666666666666 0
vt 0.7083333333333334 0
vt 0.75 0
vt 0.7916666666666666 0
vt 0.8333333333333334 0
vt 0.875 0
vt 0.9166666666666666 0
vt 0.9583333333333334 0
vt 0 1
vt 0.041666666666666664 1
vt 0.08333333333333333 1
vt 0.125 1
vt 0.16666666666666666 1
vt 0.20833333333333334 1
vt 0.25 1
vt 0.2916666666666667 1
vt 0.3333333333333333 1
vt 0.375 1
vt 0.4166666666666667 1
vt 0.4583333333333333 1
vt 0.5 1
vt 0.5416666666666666 1
vt 0.5833333333333334 1
vt 0.625 1
vt 0.6666666666666666 1
vt 0.7083333333333334 1
vt 0.75 1
vt 0.7916666666666666 1
vt 0.8333333333333334 1
vt 0.875 1
vt 0.9166666666666666 1
vt 0.9583333333333334 1
vt 0.5 0.5
vt 0.5 0.5
vt 0 0
vt 0.0625 0
vt 0.125 0
vt 0.1875 0
vt 0.25 0
vt 0.3125 0
vt 0.375 0
vt 0.4375 0
vt 0.5 0
vt 0.5625 0
vt 0.625 0
vt 0.6875 0
vt 0.75 0
vt 0.8125 0
vt 0.875 0
vt 0.9375 0
vt 0 1
vt 0.0625 1
vt 0.125 1
vt 0.1875 1
vt 0.25 1
vt 0.3125 1
vt 0.375 1
vt 0.4375 1
vt 0.5 1
vt 0.5625 1
vt 0.625 1
vt 0.6875 1
vt 0.75 1
vt 0.8125 1
vt 0.875 1
vt 0.9375 1
vt 0.5 0.5
vt 0.5 0.5
vt 0.5 0.5
vt 0.5 0.5
vt 0.5 0.5
vt 0.5 0.5
vt 0.5 0.5
vt 0.5 0.5
vt 0.5 0.5
vt 0.5 0.5
vt 0 0
vt 0.08333333333333333 0
vt 0.16666666666666666 0
vt 0.25 0
vt 0.3333333333333333 0
vt 0.4166666666666667 0
vt 0.5 0
vt 0.5833333333333334 0
vt 0.6666666666666666 0
vt 0.75 0
vt 0.8333333333333334 0
vt 0.9166666666666666 0
vt 0 1
vt 0.08333333333333333 1
vt 0.16666666666666666 1
vt 0.25 1
vt 0.3333333333333333 1
vt 0.4166666666666667 1
vt 0.5 1
vt 0.5833333333333334 1
vt 0.6666666666666666 1
vt 0.75 1
vt 0.8333333333333334 1
vt 0.9166666666666666 1
vt 0.5 0.5
vt 0.5 0.5
vt 0 0
vt 0.08333333333333333 0
vt 0.16666666666666666 0
vt 0.25 0
vt 0.3333333333333333 0
vt 0.4166666666666667 0
vt 0.5 0
vt 0.5833333333333334 0
vt 0.6666666666666666 0
vt 0.75 0
vt 0.8333333333333334 0
vt 0.9166666666666666 0
vt 0 1
vt 0.08333333333333333 1
vt 0.16666666666666666 1
vt 0.25 1
vt 0.3333333333333333 1
vt 0.4166666666666667 1
vt 0.5 1
vt 0.5833333333333334 1
vt 0.6666666666666666 1
vt 0.75 1
vt 0.8333333333333334 1
vt 0.9166666666666666 1
vt 0.5 0.5
vt 0.5 0.5
vt 0 0
vt 0.08333333333333333 0
vt 0.16666666666666666 0
vt 0.25 0
vt 0.3333333333333333 0
vt 0.4166666666666667 0
vt 0.5 0
vt 0.5833333333333334 0
vt 0.6666666666666666 0
vt 0.75 0
vt 0.8333333333333334 0
vt 0.9166666666666666 0
vt 0 1
vt 0.08333333333333333 1
vt 0.16666666666666666 1
vt 0.25 1
vt 0.3333333333333333 1
vt 0.4166666666666667 1
vt 0.5 1
vt 0.5833333333333334 1
vt 0.6666666666666666 1
vt 0.75 1
vt 0.8333333333333334 1
vt 0.9166666666666666 1
vt 0.5 0.5
vt 0.5 0.5
vt 0 0
vt 0.08333333333333333 0
vt 0.16666666666666666 0
vt 0.25 0
vt 0.3333333333333333 0
vt 0.4166666666666667 0
vt 0.5 0
vt 0.5833333333333334 0
vt 0.6666666666666666 0
vt 0.75 0
vt 0.8333333333333334 0
vt 0.9166666666666666 0
vt 0 1
vt 0.08333333333333333 1
vt 0.16666666666666666 1
vt 0.25 1
vt 0.3333333333333333 1
vt 0.4166666666666667 1
vt 0.5 1
vt 0.5833333333333334 1
vt 0.6666666666666666 1
vt 0.75 1
vt 0.8333333333333334 1
vt 0.9166666666666666 1
vt 0.5 0.5
vt 0.5 0.5
vt 0 0
vt 0.0625 0
vt 0.125 0
vt 0.1875 0
vt 0.25 0
vt 0.3125 0
vt 0.375 0
vt 0.4375 0
vt 0.5 0
vt 0.5625 0
vt 0.625 0
vt 0.6875 0
vt 0.75 0
vt 0.8125 0
vt 0.875 0
vt 0.9375 0
vt 0 1
vt 0.0625 1
vt 0.125 1
vt 0.1875 1
vt 0.25 1
vt 0.3125 1
vt 0.375 1
vt 0.4375 1
vt 0.5 1
vt 0.5625 1
vt 0.625 1
vt 0.6875 1
vt 0.75 1
vt 0.8125 1
vt 0.875 1
vt 0.9375 1
vt 0.5 0.5
vt 0.5 0.5
vt 0 0
vt 0.0625 0
vt 0.125 0
vt 0.1875 0
vt 0.25 0
vt 0.3125 0
vt 0.375 0
vt 0.4375 0
vt 0.5 0
vt 0.5625 0
vt 0.625 0
vt 0.6875 0
vt 0.75 0
vt 0.8125 0
vt 0.875 0
vt 0.9375 0
vt 0 1
vt 0.0625 1
vt 0.125 1
vt 0.1875 1
vt 0.25 1
vt 0.3125 1
vt 0.375 1
vt 0.4375 1
vt 0.5 1
vt 0.5625 1
vt 0.625 1
vt 0.6875 1
vt 0.75 1
vt 0.8125 1
vt 0.875 1
vt 0.9375 1
vt 0.5 0.5
vt 0.5 0.5
vt 0 0
vt 0.0625 0
vt 0.125 0
vt 0.1875 0
vt 0.25 0
vt 0.3125 0
vt 0.375 0
vt 0.4375 0
vt 0.5 0
vt 0.5625 0
vt 0.625 0
vt 0.6875 0
vt 0.75 0
vt 0.8125 0
vt 0.875 0
vt 0.9375 0
vt 0 1
vt 0.0625 1
vt 0.125 1
vt 0.1875 1
vt 0.25 1
vt 0.3125 1
vt 0.375 1
vt 0.4375 1
vt 0.5 1
vt 0.5625 1
vt 0.625 1
vt 0.6875 1
vt 0.75 1
vt 0.8125 1
vt 0.875 1
vt 0.9375 1
vt 0.5 0.5
vt 0.5 0.5
vt 0 0
vt 0.041666666666666664 0
vt 0.08333333333333333 0
vt 0.125 0
vt 0.16666666666666666 0
vt 0.20833333333333334 0
vt 0.25 0
vt 0.2916666666666667 0
vt 0.3333333333333333 0
vt 0.375 0
vt 0.4166666666666667 0
vt 0.4583333333333333 0
vt 0.5 0
vt 0.5416666666666666 0
vt 0.5833333333333334 0
vt 0.625 0
vt 0.6666666666666666 0
vt 0.7083333333333334 0
vt 0.75 0
vt 0.7916666666666666 0
vt 0.8333333333333334 0
vt 0.875 0
vt 0.9166666666666666 0
vt 0.9583333333333334 0
vt 0 1
vt 0.041666666666666664 1
vt 0.08333333333333333 1
vt 0.125 1
vt 0.16666666666666666 1
vt 0.20833333333333334 1
vt 0.25 1
vt 0.2916666666666667 1
vt 0.3333333333333333 1
vt 0.375 1
vt 0.4166666666666667 1
vt 0.4583333333333333 1
vt 0.5 1
vt 0.5416666666666666 1
vt 0.5833333333333334 1
vt 0.625 1
vt 0.6666666666666666 1
vt 0.7083333333333334 1
vt 0.75 1
vt 0.7916666666666666 1
vt 0.8333333333333334 1
vt 0.875 1
vt 0.9166666666666666 1
vt 0.9583333333333334 1
vt 0.5 0.5
vt 0.5 0.5
vt 0.5 0.5
vt 0.5 0.5
vt 0.5 0.5
vt 0.5 0.5
vt 0.5 0.5
vt 0.5 0.5
vt 0.5 0.5
vt 0.5 0.5
vt 0.5 0.5
vt 0.5 0.5
vt 0.5 0.5
vt 0.5 0.5
vt 0.5 0.5
vt 0.5 0.5
vt 0.5 0.5
vt 0.5 0.5
vn 1 0 0
vn 0.5000000000000001 0.8660254037844386 0
vn -0.4999999999999998 0.8660254037844387 0
vn -1 1.2246467991473532e-16 0
vn -0.5000000000000004 -0.8660254037844385 0
vn 0.5000000000000001 -0.8660254037844386 0
vn 1 -2.4492935982947064e-16 0
vn 0.8090169943749475 0 0.5877852522924731
vn 0.40450849718747384 0.8660254037844386 0.2938926261462366
vn -0.40450849718747356 0.8660254037844387 -0.29389262614623646
vn -0.8090169943749475 1.2246467991473532e-16 -0.5877852522924731
vn -0.40450849718747406 -0.8660254037844385 -0.29389262614623685
vn 0.40450849718747384 -0.8660254037844386 0.2938926261462366
vn 0.8090169943749475 -2.4492935982947064e-16 0.5877852522924731
vn 0.30901699437494745 0 0.9510565162951535
vn 0.15450849718747375 0.8660254037844386 0.4755282581475769
vn -0.15450849718747367 0.8660254037844387 -0.47552825814757654
vn -0.30901699437494745 1.2246467991473532e-16 -0.9510565162951535
vn -0.15450849718747386 -0.8660254037844385 -0.4755282581475772
vn 0.15450849718747375 -0.8660254037844386 0.4755282581475769
vn 0.30901699437494745 -2.4492935982947064e-16 0.9510565162951535
vn -0.30901699437494734 0 0.9510565162951536
vn -0.1545084971874737 0.8660254037844386 0.47552825814757693
vn 0.15450849718747361 0.8660254037844387 -0.4755282581475766
vn 0.30901699437494734 1.2246467991473532e-16 -0.9510565162951536
vn 0.1545084971874738 -0.8660254037844385 -0.47552825814757727
vn -0.1545084971874737 -0.8660254037844386 0.47552825814757693
vn -0.30901699437494734 -2.4492935982947064e-16 0.9510565162951536
vn -0.8090169943749473 0 0.5877852522924732
vn -0.4045084971874738 0.8660254037844386 0.2938926261462367
vn 0.4045084971874735 0.8660254037844387 -0.2938926261462365
vn 0.8090169943749473 1.2246467991473532e-16 -0.5877852522924732
vn 0.404508497187474 -0.8660254037844385 -0.2938926261462369
vn -0.4045084971874738 -0.8660254037844386 0.2938926261462367
vn -0.8090169943749473 -2.4492935982947064e-16 0.5877852522924732
vn -1 0 1.2246467991473532e-16
vn -0.5000000000000001 0.8660254037844386 6.123233995736767e-17
vn 0.4999999999999998 0.8660254037844387 -6.123233995736764e-17
vn 1 1.2246467991473532e-16 -1.2246467991473532e-16
vn 0.5000000000000004 -0.8660254037844385 -6.123233995736771e-17
vn -0.5000000000000001 -0.8660254037844386 6.123233995736767e-17
vn -1 -2.4492935982947064e-16 1.2246467991473532e-16
vn -0.8090169943749475 0 -0.587785252292473
vn -0.40450849718747384 0.8660254037844386 -0.29389262614623657
vn 0.40450849718747356 0.8660254037844387 0.2938926261462364
vn 0.8090169943749475 1.2246467991473532e-16 0.587785252292473
vn 0.40450849718747406 -0.8660254037844385 0.2938926261462368
vn -0.40450849718747384 -0.8660254037844386 -0.29389262614623657
vn -0.8090169943749475 -2.4492935982947064e-16 -0.587785252292473
vn -0.30901699437494756 0 -0.9510565162951535
vn -0.1545084971874738 0.8660254037844386 -0.4755282581475769
vn 0.15450849718747373 0.8660254037844387 0.47552825814757654
vn 0.30901699437494756 1.2246467991473532e-16 0.9510565162951535
vn 0.15450849718747392 -0.8660254037844385 0.4755282581475772
vn -0.1545084971874738 -0.8660254037844386 -0.4755282581475769
vn -0.30901699437494756 -2.4492935982947064e-16 -0.9510565162951535
vn 0.30901699437494723 0 -0.9510565162951536
vn 0.15450849718747364 0.8660254037844386 -0.47552825814757693
vn -0.15450849718747356 0.8660254037844387 0.4755282581475766
vn -0.30901699437494723 1.2246467991473532e-16 0.9510565162951536
vn -0.15450849718747375 -0.8660254037844385 0.47552825814757727
vn 0.15450849718747364 -0.8660254037844386 -0.47552825814757693
vn 0.30901699437494723 -2.4492935982947064e-16 -0.9510565162951536
vn 0.8090169943749473 0 -0.5877852522924734
vn 0.4045084971874738 0.8660254037844386 -0.29389262614623674
vn -0.4045084971874735 0.8660254037844387 0.29389262614623657
vn -0.8090169943749473 1.2246467991473532e-16 0.5877852522924734
vn -0.404508497187474 -0.8660254037844385 0.29389262614623696
vn 0.4045084971874738 -0.8660254037844386 -0.29389262614623674
vn 0.8090169943749473 -2.4492935982947064e-16 -0.5877852522924734
vn 1 0 -2.4492935982947064e-16
vn 0.5000000000000001 0.8660254037844386 -1.2246467991473535e-16
vn -0.4999999999999998 0.8660254037844387 1.2246467991473527e-16
vn -1 1.2246467991473532e-16 2.4492935982947064e-16
vn -0.5000000000000004 -0.8660254037844385 1.2246467991473542e-16
vn 0.5000000000000001 -0.8660254037844386 -1.2246467991473535e-16
vn 1 -2.4492935982947064e-16 -2.4492935982947064e-16
vn 0 -1 0
vn 0 -1 0
vn 0 -1 0
vn 0 -1 0
vn 0 -1 0
vn 0 -1 0
vn 0 -1 0
vn 0 -1 0
vn 0 -1 0
vn 0 -1 0
vn 0 -1 0
vn 0 -1 0
vn 0 -1 0
vn 0 -1 0
vn 0 -1 0
vn 0 -1 0
vn 0 -1 0
vn 0 -1 0
vn 0 -1 0
vn 0 -1 0
vn 0 -1 0
vn 0 -1 0
vn 0 -1 0
vn 0 -1 0
vn 0 -1 0
vn 0 -1 0
vn 0 -1 0
vn 0 -1 0
vn 0 -1 0
vn 0 -1 0
vn 0 -1 0
vn 0 -1 0
vn 0 1 0
vn 0 1 0
vn 0 1 0
vn 0 1 0
vn 0 1 0
vn 0 1 0
vn 0 1 0
vn 0 1 0
vn 0 1 0
vn 0 1 0
vn 0 1 0
vn 0 1 0
vn 0 1 0
vn 0 1 0
vn 0 1 0
vn 0 1 0
vn 0 1 0
vn 0 1 0
vn 0 1 0
vn 0 1 0
vn 0 1 0
vn 0 1 0
vn 0 1 0
vn 0 1 0
vn 0 1 0
vn 0 1 0
vn 0 1 0
vn 0 1 0
vn 0 1 0
vn 0 1 0
vn 0 1 0
vn 0 1 0
vn 0 -1 0
vn 0 1 0
vn 0 -1 0
vn 0 -1 0
vn 0 -1 0
vn 0 -1 0
vn 0 -1 0
vn 0 -1 0
vn 0 -1 0
vn 0 -1 0
vn 0 -1 0
vn 0 -1 0
vn 0 -1 0
vn 0 -1 0
vn 0 -1 0
vn 0 -1 0
vn 0 -1 0
vn 0 -1 0
vn 0 1 0
vn 0 1 0
vn 0 1 0
vn 0 1 0
vn 0 1 0
vn 0 1 0
vn 0 1 0
vn 0 1 0
vn 0 1 0
vn 0 1 0
vn 0 1 0
vn 0 1 0
vn 0 1 0
vn 0 1 0
vn 0 1 0
vn 0 1 0
vn 0 -1 0
vn 0 1 0
vn 0 -1 0
vn 0 -1 0
vn 0 -1 0
vn 0 -1 0
vn 0 -1 0
vn 0 -1 0
vn 0 -1 0
vn 0 -1 0
vn 0 -1 0
vn 0 -1 0
vn 0 -1 0
vn 0 -1 0
vn 0 -1 0
vn 0 -1 0
vn 0 -1 0
vn 0 -1 0
vn 0 -1 0
vn 0 -1 0
vn 0 -1 0
vn 0 -1 0
vn 0 -1 0
vn 0 -1 0
vn 0 -1 0
vn 0 -1 0
vn 0 1 0
vn 0 1 0
vn 0 1 0
vn 0 1 0
vn 0 1 0
vn 0 1 0
vn 0 1 0
vn 0 1 0
vn 0 1 0
vn 0 1 0
vn 0 1 0
vn 0 1 0
vn 0 1 0
vn 0 1 0
vn 0 1 0
vn 0 1 0
vn 0 1 0
vn 0 1 0
vn 0 1 0
vn 0 1 0
vn 0 1 0
vn 0 1 0
vn 0 1 0
vn 0 1 0
vn 0 -1 0
vn 0 1 0
vn 0 -1 0
vn 0 -1 0
vn 0 -1 0
vn 0 -1 0
vn 0 -1 0
vn 0 -1 0
vn 0 -1 0
vn 0 -1 0
vn 0 -1 0
vn 0 -1 0
vn 0 -1 0
vn 0 -1 0
vn 0 -1 0
vn 0 -1 0
vn 0 -1 0
vn 0 -1 0
vn 0 1 0
vn 0 1 0
vn 0 1 0
vn 0 1 0
vn 0 1 0
vn 0 1 0
vn 0 1 0
vn 0 1 0
vn 0 1 0
vn 0 1 0
vn 0 1 0
vn 0 1 0
vn 0 1 0
vn 0 1 0
vn 0 1 0
vn 0 1 0
vn 0 -1 0
vn 0 1 0
vn 0 1 0
vn 0 1 0
vn 0 1 0
vn 0 1 0
vn 0 1 0
vn 0 1 0
vn 0 1 0
vn 0 1 0
vn 0 -1 0
vn 0 -1 0
vn 0 -1 0
vn 0 -1 0
vn 0 -1 0
vn 0 -1 0
vn 0 -1 0
vn 0 -1 0
vn 0 -1 0
vn 0 -1 0
vn 0 -1 0
vn 0 -1 0
vn 0 1 0
vn 0 1 0
vn 0 1 0
vn 0 1 0
vn 0 1 0
vn 0 1 0
vn 0 1 0
vn 0 1 0
vn 0 1 0
vn 0 1 0
vn 0 1 0
vn 0 1 0
vn 0 -1 0
vn 0 1 0
vn 0 -1 0
vn 0 -1 0
vn 0 -1 0
vn 0 -1 0
vn 0 -1 0
vn 0 -1 0
vn 0 -1 0
vn 0 -1 0
vn 0 -1 0
vn 0 -1 0
vn 0 -1 0
vn 0 -1 0
vn 0 1 0
vn 0 1 0
vn 0 1 0
vn 0 1 0
vn 0 1 0
vn 0 1 0
vn 0 1 0
vn 0 1 0
vn 0 1 0
vn 0 1 0
vn 0 1 0
vn 0 1 0
vn 0 -1 0
vn 0 1 0
vn 0 -1 0
vn 0 -1 0
vn 0 -1 0
vn 0 -1 0
vn 0 -1 0
vn 0 -1 0
vn 0 -1 0
vn 0 -1 0
vn 0 -1 0
vn 0 -1 0
vn 0 -1 0
vn 0 -1 0
vn 0 1 0
vn 0 1 0
vn 0 1 0
vn 0 1 0
vn 0 1 0
vn 0 1 0
vn 0 1 0
vn 0 1 0
vn 0 1 0
vn 0 1 0
vn 0 1 0
vn 0 1 0
vn 0 -1 0
vn 0 1 0
vn 0 -1 0
vn 0 -1 0
vn 0 -1 0
vn 0 -1 0
vn 0 -1 0
vn 0 -1 0
vn 0 -1 0
vn 0 -1 0
vn 0 -1 0
vn 0 -1 0
vn 0 -1 0
vn 0 -1 0
vn 0 1 0
vn 0 1 0
vn 0 1 0
vn 0 1 0
vn 0 1 0
vn 0 1 0
vn 0 1 0
vn 0 1 0
vn 0 1 0
vn 0 1 0
vn 0 1 0
vn 0 1 0
vn 0 -1 0
vn 0 1 0
vn 0 -1 0
vn 0 -1 0
vn 0 -1 0
vn 0 -1 0
vn 0 -1 0
vn 0 -1 0
vn 0 -1 0
vn 0 -1 0
vn 0 -1 0
vn 0 -1 0
vn 0 -1 0
vn 0 -1 0
vn 0 -1 0
vn 0 -1 0
vn 0 -1 0
vn 0 -1 0
vn 0 1 0
vn 0 1 0
vn 0 1 0
vn 0 1 0
vn 0 1 0
vn 0 1 0
vn 0 1 0
vn 0 1 0
vn 0 1 0
vn 0 1 0
vn 0 1 0
vn 0 1 0
vn 0 1 0
vn 0 1 0
vn 0 1 0
vn 0 1 0
vn 0 -1 0
vn 0 1 0
vn 0 -1 0
vn 0 -1 0
vn 0 -1 0
vn 0 -1 0
vn 0 -1 0
vn 0 -1 0
vn 0 -1 0
vn 0 -1 0
vn 0 -1 0
vn 0 -1 0
vn 0 -1 0
vn 0 -1 0
vn 0 -1 0
vn 0 -1 0
vn 0 -1 0
vn 0 -1 0
vn 0 1 0
vn 0 1 0
vn 0 1 0
vn 0 1 0
vn 0 1 0
vn 0 1 0
vn 0 1 0
vn 0 1 0
vn 0 1 0
vn 0 1 0
vn 0 1 0
vn 0 1 0
vn 0 1 0
vn 0 1 0
vn 0 1 0
vn 0 1 0
vn 0 -1 0
vn 0 1 0
vn 0 -1 0
vn 0 -1 0
vn 0 -1 0
vn 0 -1 0
vn 0 -1 0
vn 0 -1 0
vn 0 -1 0
vn 0 -1 0
vn 0 -1 0
vn 0 -1 0
vn 0 -1 0
vn 0 -1 0
vn 0 -1 0
vn 0 -1 0
vn 0 -1 0
vn 0 -1 0
vn 0 1 0
vn 0 1 0
vn 0 1 0
vn 0 1 0
vn 0 1 0
vn 0 1 0
vn 0 1 0
vn 0 1 0
vn 0 1 0
vn 0 1 0
vn 0 1 0
vn 0 1 0
vn 0 1 0
vn 0 1 0
vn 0 1 0
vn 0 1 0
vn 0 -1 0
vn 0 1 0
vn 0 -1 0
vn 0 -1 0
vn 0 -1 0
vn 0 -1 0
vn 0 -1 0
vn 0 -1 0
vn 0 -1 0
vn 0 -1 0
vn 0 -1 0
vn 0 -1 0
vn 0 -1 0
vn 0 -1 0
vn 0 -1 0
vn 0 -1 0
vn 0 -1 0
vn 0 -1 0
vn 0 -1 0
vn 0 -1 0
vn 0 -1 0
vn 0 -1 0
vn 0 -1 0
vn 0 -1 0
vn 0 -1 0
vn 0 -1 0
vn 0 1 0
vn 0 1 0
vn 0 1 0
vn 0 1 0
vn 0 1 0
vn 0 1 0
vn 0 1 0
vn 0 1 0
vn 0 1 0
vn 0 1 0
vn 0 1 0
vn 0 1 0
vn 0 1 0
vn 0 1 0
vn 0 1 0
vn 0 1 0
vn 0 1 0
vn 0 1 0
vn 0 1 0
vn 0 1 0
vn 0 1 0
vn 0 1 0
vn 0 1 0
vn 0 1 0
vn 0 -1 0
vn 0 1 0
vn 0 1 0
vn 0 1 0
vn 0 1 0
vn 0 1 0
vn 0 1 0
vn 0 1 0
vn 0 1 0
vn 0 1 0
vn 0 1 0
vn 0 1 0
vn 0 1 0
vn 0 1 0
vn 0 1 0
vn 0 1 0
vn 0 1 0
vn 0 1 0
f 1/1/1 8/8/8 9/9/9
f 1/1/1 9/9/9 2/2/2
f 2/2/2 9/9/9 10/10/10
f 2/2/2 10/10/10 3/3/3
f 3/3/3 10/10/10 11/11/11
f 3/3/3 11/11/11 4/4/4
f 4/4/4 11/11/11 12/12/12
f 4/4/4 12/12/12 5/5/5
f 5/5/5 12/12/12 13/13/13
f 5/5/5 13/13/13 6/6/6
f 6/6/6 13/13/13 14/14/14
f 6/6/6 14/14/14 7/7/7
f 8/8/8 15/15/15 16/16/16
f 8/8/8 16/16/16 9/9/9
f 9/9/9 16/16/16 17/17/17
f 9/9/9 17/17/17 10/10/10
f 10/10/10 17/17/17 18/18/18
f 10/10/10 18/18/18 11/11/11
f 11/11/11 18/18/18 19/19/19
f 11/11/11 19/19/19 12/12/12
f 12/12/12 19/19/19 20/20/20
f 12/12/12 20/20/20 13/13/13
f 13/13/13 20/20/20 21/21/21
f 13/13/13 21/21/21 14/14/14
f 15/15/15 22/22/22 23/23/23
f 15/15/15 23/23/23 16/16/16
f 16/16/16 23/23/23 24/24/24
f 16/16/16 24/24/24 17/17/17
f 17/17/17 24/24/24 25/25/25
f 17/17/17 25/25/25 18/18/18
f 18/18/18 25/25/25 26/26/26
f 18/18/18 26/26/26 19/19/19
f 19/19/19 26/26/26 27/27/27
f 19/19/19 27/27/27 20/20/20
f 20/20/20 27/27/27 28/28/28
f 20/20/20 28/28/28 21/21/21
f 22/22/22 29/29/29 30/30/30
f 22/22/22 30/30/30 23/23/23
f 23/23/23 30/30/30 31/31/31
f 23/23/23 31/31/31 24/24/24
f 24/24/24 31/31/31 32/32/32
f 24/24/24 32/32/32 25/25/25
f 25/25/25 32/32/32 33/33/33
f 25/25/25 33/33/33 26/26/26
f 26/26/26 33/33/33 34/34/34
f 26/26/26 34/34/34 27/27/27
f 27/27/27 34/34/34 35/35/35
f 27/27/27 35/35/35 28/28/28
f 29/29/29 36/36/36 37/37/37
f 29/29/29 37/37/37 30/30/30
f 30/30/30 37/37/37 38/38/38
f 30/30/30 38/38/38 31/31/31
f 31/31/31 38/38/38 39/39/39
f 31/31/31 39/39/39 32/32/32
f 32/32/32 39/39/39 40/40/40
f 32/32/32 40/40/40 33/33/33
f 33/33/33 40/40/40 41/41/41
f 33/33/33 41/41/41 34/34/34
f 34/34/34 41/41/41 42/42/42
f 34/34/34 42/42/42 35/35/35
f 36/36/36 43/43/43 44/44/44
f 36/36/36 44/44/44 37/37/37
f 37/37/37 44/44/44 45/45/45
f 37/37/37 45/45/45 38/38/38
f 38/38/38 45/45/45 46/46/46
f 38/38/38 46/46/46 39/39/39
f 39/39/39 46/46/46 47/47/47
f 39/39/39 47/47/47 40/40/40
f 40/40/40 47/47/47 48/48/48
f 40/40/40 48/48/48 41/41/41
f 41/41/41 48/48/48 49/49/49
f 41/41/41 49/49/49 42/42/42
f 43/43/43 50/50/50 51/51/51
f 43/43/43 51/51/51 44/44/44
f 44/44/44 51/51/51 52/52/52
f 44/44/44 52/52/52 45/45/45
f 45/45/45 52/52/52 53/53/53
f 45/45/45 53/53/53 46/46/46
f 46/46/46 53/53/53 54/54/54
f 46/46/46 54/54/54 47/47/47
f 47/47/47 54/54/54 55/55/55
f 47/47/47 55/55/55 48/48/48
f 48/48/48 55/55/55 56/56/56
f 48/48/48 56/56/56 49/49/49
f 50/50/50 57/57/57 58/58/58
f 50/50/50 58/58/58 51/51/51
f 51/51/51 58/58/58 59/59/59
f 51/51/51 59/59/59 52/52/52
f 52/52/52 59/59/59 60/60/60
f 52/52/52 60/60/60 53/53/53
f 53/53/53 60/60/60 61/61/61
f 53/53/53 61/61/61 54/54/54
f 54/54/54 61/61/61 62/62/62
f 54/54/54 62/62/62 55/55/55
f 55/55/55 62/62/62 63/63/63
f 55/55/55 63/63/63 56/56/56
f 57/57/57 64/64/64 65/65/65
f 57/57/57 65/65/65 58/58/58
f 58/58/58 65/65/65 66/66/66
f 58/58/58 66/66/66 59/59/59
f 59/59/59 66/66/66 67/67/67
f 59/59/59 67/67/67 60/60/60
f 60/60/60 67/67/67 68/68/68
f 60/60/60 68/68/68 61/61/61
f 61/61/61 68/68/68 69/69/69
f 61/61/61 69/69/69 62/62/62
f 62/62/62 69/69/69 70/70/70
f 62/62/62 70/70/70 63/63/63
f 64/64/64 71/71/71 72/72/72
f 64/64/64 72/72/72 65/65/65
f 65/65/65 72/72/72 73/73/73
f 65/65/65 73/73/73 66/66/66
f 66/66/66 73/73/73 74/74/74
f 66/66/66 74/74/74 67/67/67
f 67/67/67 74/74/74 75/75/75
f 67/67/67 75/75/75 68/68/68
f 68/68/68 75/75/75 76/76/76
f 68/68/68 76/76/76 69/69/69
f 69/69/69 76/76/76 77/77/77
f 69/69/69 77/77/77 70/70/70
f 78/78/78 79/79/79 111/111/111
f 78/78/78 111/111/111 110/110/110
f 142/142/142 79/79/79 78/78/78
f 143/143/143 110/110/110 111/111/111
f 79/79/79 80/80/80 112/112/112
f 79/79/79 112/112/112 111/111/111
f 142/142/142 80/80/80 79/79/79
f 143/143/143 111/111/111 112/112/112
f 80/80/80 81/81/81 113/113/113
f 80/80/80 113/113/113 112/112/112
f 142/142/142 81/81/81 80/80/80
f 143/143/143 112/112/112 113/113/113
f 81/81/81 82/82/82 114/114/114
f 81/81/81 114/114/114 113/113/113
f 142/142/142 82/82/82 81/81/81
f 143/143/143 113/113/113 114/114/114
f 82/82/82 83/83/83 115/115/115
f 82/82/82 115/115/115 114/114/114
f 142/142/142 83/83/83 82/82/82
f 143/143/143 114/114/114 115/115/115
f 83/83/83 84/84/84 116/116/116
f 83/83/83 116/116/116 115/115/115
f 142/142/142 84/84/84 83/83/83
f 143/143/143 115/115/115 116/116/116
f 84/84/84 85/85/85 117/117/117
f 84/84/84 117/117/117 116/116/116
f 142/142/142 85/85/85 84/84/84
f 143/143/143 116/116/116 117/117/117
f 85/85/85 86/86/86 118/118/118
f 85/85/85 118/118/118 117/117/117
f 142/142/142 86/86/86 85/85/85
f 143/143/143 117/117/117 118/118/118
f 86/86/86 87/87/87 119/119/119
f 86/86/86 119/119/119 118/118/118
f 142/142/142 87/87/87 86/86/86
f 143/143/143 118/118/118 119/119/119
f 87/87/87 88/88/88 120/120/120
f 87/87/87 120/120/120 119/119/119
f 142/142/142 88/88/88 87/87/87
f 143/143/143 119/119/119 120/120/120
f 88/88/88 89/89/89 121/121/121
f 88/88/88 121/121/121 120/120/120
f 142/142/142 89/89/89 88/88/88
f 143/143/143 120/120/120 121/121/121
f 89/89/89 90/90/90 122/122/122
f 89/89/89 122/122/122 121/121/121
f 142/142/142 90/90/90 89/89/89
f 143/143/143 121/121/121 122/122/122
f 90/90/90 91/91/91 123/123/123
f 90/90/90 123/123/123 122/122/122
f 142/142/142 91/91/91 90/90/90
f 143/143/143 122/122/122 123/123/123
f 91/91/91 92/92/92 124/124/124
f 91/91/91 124/124/124 123/123/123
f 142/142/142 92/92/92 91/91/91
f 143/143/143 123/123/123 124/124/124
f 92/92/92 93/93/93 125/125/125
f 92/92/92 125/125/125 124/124/124
f 142/142/142 93/93/93 92/92/92
f 143/143/143 124/124/124 125/125/125
f 93/93/93 94/94/94 126/126/126
f 93/93/93 126/126/126 125/125/125
f 142/142/142 94/94/94 93/93/93
f 143/143/143 125/125/125 126/126/126
f 94/94/94 95/95/95 127/127/127
f 94/94/94 127/127/127 126/126/126
f 142/142/142 95/95/95 94/94/94
f 143/143/143 126/126/126 127/127/127
f 95/95/95 96/96/96 128/128/128
f 95/95/95 128/128/128 127/127/127
f 142/142/142 96/96/96 95/95/95
f 143/143/143 127/127/127 128/128/128
f 96/96/96 97/97/97 129/129/129
f 96/96/96 129/129/129 128/128/128
f 142/142/142 97/97/97 96/96/96
f 143/143/143 128/128/128 129/129/129
f 97/97/97 98/98/98 130/130/130
f 97/97/97 130/130/130 129/129/129
f 142/142/142 98/98/98 97/97/97
f 143/143/143 129/129/129 130/130/130
f 98/98/98 99/99/99 131/131/131
f 98/98/98 131/131/131 130/130/130
f 142/142/142 99/99/99 98/98/98
f 143/143/143 130/130/130 131/131/131
f 99/99/99 100/100/100 132/132/132
f 99/99/99 132/132/132 131/131/131
f 142/142/142 100/100/100 99/99/99
f 143/143/143 131/131/131 132/132/132
f 100/100/100 101/101/101 133/133/133
f 100/100/100 133/133/133 132/132/132
f 142/142/142 101/101/101 100/100/100
f 143/143/143 132/132/132 133/133/133
f 101/101/101 102/102/102 134/134/134
f 101/101/101 134/134/134 133/133/133
f 142/142/142 102/102/102 101/101/101
f 143/143/143 133/133/133 134/134/134
f 102/102/102 103/103/103 135/135/135
f 102/102/102 135/135/135 134/134/134
f 142/142/142 103/103/103 102/102/102
f 143/143/143 134/134/134 135/135/135
f 103/103/103 104/104/104 136/136/136
f 103/103/103 136/136/136 135/135/135
f 142/142/142 104/104/104 103/103/103
f 143/143/143 135/135/135 136/136/136
f 104/104/104 105/105/105 137/137/137
f 104/104/104 137/137/137 136/136/136
f 142/142/142 105/105/105 104/104/104
f 143/143/143 136/136/136 137/137/137
f 105/105/105 106/106/106 138/138/138
f 105/105/105 138/138/138 137/137/137
f 142/142/142 106/106/106 105/105/105
f 143/143/143 137/137/137 138/138/138
f 106/106/106 107/107/107 139/139/139
f 106/106/106 139/139/139 138/138/138
f 142/142/142 107/107/107 106/106/106
f 143/143/143 138/138/138 139/139/139
f 107/107/107 108/108/108 140/140/140
f 107/107/107 140/140/140 139/139/139
f 142/142/142 108/108/108 107/107/107
f 143/143/143 139/139/139 140/140/140
f 108/108/108 109/109/109 141/141/141
f 108/108/108 141/141/141 140/140/140
f 142/142/142 109/109/109 108/108/108
f 143/143/143 140/140/140 141/141/141
f 109/109/109 78/78/78 110/110/110
f 109/109/109 110/110/110 141/141/141
f 142/142/142 78/78/78 109/109/109
f 143/143/143 141/141/141 110/110/110
f 144/144/144 145/145/145 161/161/161
f 144/144/144 161/161/161 160/160/160
f 176/176/176 145/145/145 144/144/144
f 177/177/177 160/160/160 161/161/161
f 145/145/145 146/146/146 162/162/162
f 145/145/145 162/162/162 161/161/161
f 176/176/176 146/146/146 145/145/145
f 177/177/177 161/161/161 162/162/162
f 146/146/146 147/147/147 163/163/163
f 146/146/146 163/163/163 162/162/162
f 176/176/176 147/147/147 146/146/146
f 177/177/177 162/162/162 163/163/163
f 147/147/147 148/148/148 164/164/164
f 147/147/147 164/164/164 163/163/163
f 176/176/176 148/148/148 147/147/147
f 177/177/177 163/163/163 164/164/164
f 148/148/148 149/149/149 165/165/165
f 148/148/148 165/165/165 164/164/164
f 176/176/176 149/149/149 148/148/148
f 177/177/177 164/164/164 165/165/165
f 149/149/149 150/150/150 166/166/166
f 149/149/149 166/166/166 165/165/165
f 176/176/176 150/150/150 149/149/149
f 177/177/177 165/165/165 166/166/166
f 150/150/150 151/151/151 167/167/167
f 150/150/150 167/167/167 166/166/166
f 176/176/176 151/151/151 150/150/150
f 177/177/177 166/166/166 167/167/167
f 151/151/151 152/152/152 168/168/168
f 151/151/151 168/168/168 167/167/167
f 176/176/176 152/152/152 151/151/151
f 177/177/177 167/167/167 168/168/168
f 152/152/152 153/153/153 169/169/169
f 152/152/152 169/169/169 168/168/168
f 176/176/176 153/153/153 152/152/152
f 177/177/177 168/168/168 169/169/169
f 153/153/153 154/154/154 170/170/170
f 153/153/153 170/170/170 169/169/169
f 176/176/176 154/154/154 153/153/153
f 177/177/177 169/169/169 170/170/170
f 154/154/154 155/155/155 171/171/171
f 154/154/154 171/171/171 170/170/170
f 176/176/176 155/155/155 154/154/154
f 177/177/177 170/170/170 171/171/171
f 155/155/155 156/156/156 172/172/172
f 155/155/155 172/172/172 171/171/171
f 176/176/176 156/156/156 155/155/155
f 177/177/177 171/171/171 172/172/172
f 156/156/156 157/157/157 173/173/173
f 156/156/156 173/173/173 172/172/172
f 176/176/176 157/157/157 156/156/156
f 177/177/177 172/172/172 173/173/173
f 157/157/157 158/158/158 174/174/174
f 157/157/157 174/174/174 173/173/173
f 176/176/176 158/158/158 157/157/157
f 177/177/177 173/173/173 174/174/174
f 158/158/158 159/159/159 175/175/175
f 158/158/158 175/175/175 174/174/174
f 176/176/176 159/159/159 158/158/158
f 177/177/177 174/174/174 175/175/175
f 159/159/159 144/144/144 160/160/160
f 159/159/159 160/160/160 175/175/175
f 176/176/176 144/144/144 159/159/159
f 177/177/177 175/175/175 160/160/160
f 178/178/178 179/179/179 203/203/203
f 178/178/178 203/203/203 202/202/202
f 226/226/226 179/179/179 178/178/178
f 227/227/227 202/202/202 203/203/203
f 179/179/179 180/180/180 204/204/204
f 179/179/179 204/204/204 203/203/203
f 226/226/226 180/180/180 179/179/179
f 227/227/227 203/203/203 204/204/204
f 180/180/180 181/181/181 205/205/205
f 180/180/180 205/205/205 204/204/204
f 226/226/226 181/181/181 180/180/180
f 227/227/227 204/204/204 205/205/205
f 181/181/181 182/182/182 206/206/206
f 181/181/181 206/206/206 205/205/205
f 226/226/226 182/182/182 181/181/181
f 227/227/227 205/205/205 206/206/206
f 182/182/182 183/183/183 207/207/207
f 182/182/182 207/207/207 206/206/206
f 226/226/226 183/183/183 182/182/182
f 227/227/227 206/206/206 207/207/207
f 183/183/183 184/184/184 208/208/208
f 183/183/183 208/208/208 207/207/207
f 226/226/226 184/184/184 183/183/183
f 227/227/227 207/207/207 208/208/208
f 184/184/184 185/185/185 209/209/209
f 184/184/184 209/209/209 208/208/208
f 226/226/226 185/185/185 184/184/184
f 227/227/227 208/208/208 209/209/209
f 185/185/185 186/186/186 210/210/210
f 185/185/185 210/210/210 209/209/209
f 226/226/226 186/186/186 185/185/185
f 227/227/227 209/209/209 210/210/210
f 186/186/186 187/187/187 211/211/211
f 186/186/186 211/211/211 210/210/210
f 226/226/226 187/187/187 186/186/186
f 227/227/227 210/210/210 211/211/211
f 187/187/187 188/188/188 212/212/212
f 187/187/187 212/212/212 211/211/211
f 226/226/226 188/188/188 187/187/187
f 227/227/227 211/211/211 212/212/212
f 188/188/188 189/189/189 213/213/213
f 188/188/188 213/213/213 212/212/212
f 226/226/226 189/189/189 188/188/188
f 227/227/227 212/212/212 213/213/213
f 189/189/189 190/190/190 214/214/214
f 189/189/189 214/214/214 213/213/213
f 226/226/226 190/190/190 189/189/189
f 227/227/227 213/213/213 214/214/214
f 190/190/190 191/191/191 215/215/215
f 190/190/190 215/215/215 214/214/214
f 226/226/226 191/191/191 190/190/190
f 227/227/227 214/214/214 215/215/215
f 191/191/191 192/192/192 216/216/216
f 191/191/191 216/216/216 215/215/215
f 226/226/226 192/192/192 191/191/191
f 227/227/227 215/215/215 216/216/216
f 192/192/192 193/193/193 217/217/217
f 192/192/192 217/217/217 216/216/216
f 226/226/226 193/193/193 192/192/192
f 227/227/227 216/216/216 217/217/217
f 193/193/193 194/194/194 218/218/218
f 193/193/193 218/218/218 217/217/217
f 226/226/226 194/194/194 193/193/193
f 227/227/227 217/217/217 218/218/218
f 194/194/194 195/195/195 219/219/219
f 194/194/194 219/219/219 218/218/218
f 226/226/226 195/195/195 194/194/194
f 227/227/227 218/218/218 219/219/219
f 195/195/195 196/196/196 220/220/220
f 195/195/195 220/220/220 219/219/219
f 226/226/226 196/196/196 195/195/195
f 227/227/227 219/219/219 220/220/220
f 196/196/196 197/197/197 221/221/221
f 196/196/196 221/221/221 220/220/220
f 226/226/226 197/197/197 196/196/196
f 227/227/227 220/220/220 221/221/221
f 197/197/197 198/198/198 222/222/222
f 197/197/197 222/222/222 221/221/221
f 226/226/226 198/198/198 197/197/197
f 227/227/227 221/221/221 222/222/222
f 198/198/198 199/199/199 223/223/223
f 198/198/198 223/223/223 222/222/222
f 226/226/226 199/199/199 198/198/198
f 227/227/227 222/222/222 223/223/223
f 199/199/199 200/200/200 224/224/224
f 199/199/199 224/224/224 223/223/223
f 226/226/226 200/200/200 199/199/199
f 227/227/227 223/223/223 224/224/224
f 200/200/200 201/201/201 225/225/225
f 200/200/200 225/225/225 224/224/224
f 226/226/226 201/201/201 200/200/200
f 227/227/227 224/224/224 225/225/225
f 201/201/201 178/178/178 202/202/202
f 201/201/201 202/202/202 225/225/225
f 226/226/226 178/178/178 201/201/201
f 227/227/227 225/225/225 202/202/202
f 228/228/228 229/229/229 245/245/245
f 228/228/228 245/245/245 244/244/244
f 260/260/260 229/229/229 228/228/228
f 261/261/261 244/244/244 245/245/245
f 229/229/229 230/230/230 246/246/246
f 229/229/229 246/246/246 245/245/245
f 260/260/260 230/230/230 229/229/229
f 261/261/261 245/245/245 246/246/246
f 230/230/230 231/231/231 247/247/247
f 230/230/230 247/247/247 246/246/246
f 260/260/260 231/231/231 230/230/230
f 261/261/261 246/246/246 247/247/247
f 231/231/231 232/232/232 248/248/248
f 231/231/231 248/248/248 247/247/247
f 260/260/260 232/232/232 231/231/231
f 261/261/261 247/247/247 248/248/248
f 232/232/232 233/233/233 249/249/249
f 232/232/232 249/249/249 248/248/248
f 260/260/260 233/233/233 232/232/232
f 261/261/261 248/248/248 249/249/249
f 233/233/233 234/234/234 250/250/250
f 233/233/233 250/250/250 249/249/249
f 260/260/260 234/234/234 233/233/233
f 261/261/261 249/249/249 250/250/250
f 234/234/234 235/235/235 251/251/251
f 234/234/234 251/251/251 250/250/250
f 260/260/260 235/235/235 234/234/234
f 261/261/261 250/250/250 251/251/251
f 235/235/235 236/236/236 252/252/252
f 235/235/235 252/252/252 251/251/251
f 260/260/260 236/236/236 235/235/235
f 261/261/261 251/251/251 252/252/252
f 236/236/236 237/237/237 253/253/253
f 236/236/236 253/253/253 252/252/252
f 260/260/260 237/237/237 236/236/236
f 261/261/261 252/252/252 253/253/253
f 237/237/237 238/238/238 254/254/254
f 237/237/237 254/254/254 253/253/253
f 260/260/260 238/238/238 237/237/237
f 261/261/261 253/253/253 254/254/254
f 238/238/238 239/239/239 255/255/255
f 238/238/238 255/255/255 254/254/254
f 260/260/260 239/239/239 238/238/238
f 261/261/261 254/254/254 255/255/255
f 239/239/239 240/240/240 256/256/256
f 239/239/239 256/256/256 255/255/255
f 260/260/260 240/240/240 239/239/239
f 261/261/261 255/255/255 256/256/256
f 240/240/240 241/241/241 257/257/257
f 240/240/240 257/257/257 256/256/256
f 260/260/260 241/241/241 240/240/240
f 261/261/261 256/256/256 257/257/257
f 241/241/241 242/242/242 258/258/258
f 241/241/241 258/258/258 257/257/257
f 260/260/260 242/242/242 241/241/241
f 261/261/261 257/257/257 258/258/258
f 242/242/242 243/243/243 259/259/259
f 242/242/242 259/259/259 258/258/258
f 260/260/260 243/243/243 242/242/242
f 261/261/261 258/258/258 259/259/259
f 243/243/243 228/228/228 244/244/244
f 243/243/243 244/244/244 259/259/259
f 260/260/260 228/228/228 243/243/243
f 261/261/261 259/259/259 244/244/244
f 262/262/262 264/264/264 263/263/263
f 262/262/262 265/265/265 264/264/264
f 266/266/266 267/267/267 268/268/268
f 266/266/266 268/268/268 269/269/269
f 262/262/262 263/263/263 267/267/267
f 262/262/262 267/267/267 266/266/266
f 264/264/264 265/265/265 269/269/269
f 264/264/264 269/269/269 268/268/268
f 262/262/262 266/266/266 269/269/269
f 262/262/262 269/269/269 265/265/265
f 263/263/263 264/264/264 268/268/268
f 263/263/263 268/268/268 267/267/267
f 270/270/270 271/271/271 283/283/283
f 270/270/270 283/283/283 282/282/282
f 294/294/294 271/271/271 270/270/270
f 295/295/295 282/282/282 283/283/283
f 271/271/271 272/272/272 284/284/284
f 271/271/271 284/284/284 283/283/283
f 294/294/294 272/272/272 271/271/271
f 295/295/295 283/283/283 284/284/284
f 272/272/272 273/273/273 285/285/285
f 272/272/272 285/285/285 284/284/284
f 294/294/294 273/273/273 272/272/272
f 295/295/295 284/284/284 285/285/285
f 273/273/273 274/274/274 286/286/286
f 273/273/273 286/286/286 285/285/285
f 294/294/294 274/274/274 273/273/273
f 295/295/295 285/285/285 286/286/286
f 274/274/274 275/275/275 287/287/287
f 274/274/274 287/287/287 286/286/286
f 294/294/294 275/275/275 274/274/274
f 295/295/295 286/286/286 287/287/287
f 275/275/275 276/276/276 288/288/288
f 275/275/275 288/288/288 287/287/287
f 294/294/294 276/276/276 275/275/275
f 295/295/295 287/287/287 288/288/288
f 276/276/276 277/277/277 289/289/289
f 276/276/276 289/289/289 288/288/288
f 294/294/294 277/277/277 276/276/276
f 295/295/295 288/288/288 289/289/289
f 277/277/277 278/278/278 290/290/290
f 277/277/277 290/290/290 289/289/289
f 294/294/294 278/278/278 277/277/277
f 295/295/295 289/289/289 290/290/290
f 278/278/278 279/279/279 291/291/291
f 278/278/278 291/291/291 290/290/290
f 294/294/294 279/279/279 278/278/278
f 295/295/295 290/290/290 291/291/291
f 279/279/279 280/280/280 292/292/292
f 279/279/279 292/292/292 291/291/291
f 294/294/294 280/280/280 279/279/279
f 295/295/295 291/291/291 292/292/292
f 280/280/280 281/281/281 293/293/293
f 280/280/280 293/293/293 292/292/292
f 294/294/294 281/281/281 280/280/280
f 295/295/295 292/292/292 293/293/293
f 281/281/281 270/270/270 282/282/282
f 281/281/281 282/282/282 293/293/293
f 294/294/294 270/270/270 281/281/281
f 295/295/295 293/293/293 282/282/282
f 296/296/296 297/297/297 309/309/309
f 296/296/296 309/309/309 308/308/308
f 320/320/320 297/297/297 296/296/296
f 321/321/321 308/308/308 309/309/309
f 297/297/297 298/298/298 310/310/310
f 297/297/297 310/310/310 309/309/309
f 320/320/320 298/298/298 297/297/297
f 321/321/321 309/309/309 310/310/310
f 298/298/298 299/299/299 311/311/311
f 298/298/298 311/311/311 310/310/310
f 320/320/320 299/299/299 298/298/298
f 321/321/321 310/310/310 311/311/311
f 299/299/299 300/300/300 312/312/312
f 299/299/299 312/312/312 311/311/311
f 320/320/320 300/300/300 299/299/299
f 321/321/321 311/311/311 312/312/312
f 300/300/300 301/301/301 313/313/313
f 300/300/300 313/313/313 312/312/312
f 320/320/320 301/301/301 300/300/300
f 321/321/321 312/312/312 313/313/313
f 301/301/301 302/302/302 314/314/314
f 301/301/301 314/314/314 313/313/313
f 320/320/320 302/302/302 301/301/301
f 321/321/321 313/313/313 314/314/314
f 302/302/302 303/303/303 315/315/315
f 302/302/302 315/315/315 314/314/314
f 320/320/320 303/303/303 302/302/302
f 321/321/321 314/314/314 315/315/315
f 303/303/303 304/304/304 316/316/316
f 303/303/303 316/316/316 315/315/315
f 320/320/320 304/304/304 303/303/303
f 321/321/321 315/315/315 316/316/316
f 304/304/304 305/305/305 317/317/317
f 304/304/304 317/317/317 316/316/316
f 320/320/320 305/305/305 304/304/304
f 321/321/321 316/316/316 317/317/317
f 305/305/305 306/306/306 318/318/318
f 305/305/305 318/318/318 317/317/317
f 320/320/320 306/306/306 305/305/305
f 321/321/321 317/317/317 318/318/318
f 306/306/306 307/307/307 319/319/319
f 306/306/306 319/319/319 318/318/318
f 320/320/320 307/307/307 306/306/306
f 321/321/321 318/318/318 319/319/319
f 307/307/307 296/296/296 308/308/308
f 307/307/307 308/308/308 319/319/319
f 320/320/320 296/296/296 307/307/307
f 321/321/321 319/319/319 308/308/308
f 322/322/322 323/323/323 335/335/335
f 322/322/322 335/335/335 334/334/334
f 346/346/346 323/323/323 322/322/322
f 347/347/347 334/334/334 335/335/335
f 323/323/323 324/324/324 336/336/336
f 323/323/323 336/336/336 335/335/335
f 346/346/346 324/324/324 323/323/323
f 347/347/347 335/335/335 336/336/336
f 324/324/324 325/325/325 337/337/337
f 324/324/324 337/337/337 336/336/336
f 346/346/346 325/325/325 324/324/324
f 347/347/347 336/336/336 337/337/337
f 325/325/325 326/326/326 338/338/338
f 325/325/325 338/338/338 337/337/337
f 346/346/346 326/326/326 325/325/325
f 347/347/347 337/337/337 338/338/338
f 326/326/326 327/327/327 339/339/339
f 326/326/326 339/339/339 338/338/338
f 346/346/346 327/327/327 326/326/326
f 347/347/347 338/338/338 339/339/339
f 327/327/327 328/328/328 340/340/340
f 327/327/327 340/340/340 339/339/339
f 346/346/346 328/328/328 327/327/327
f 347/347/347 339/339/339 340/340/340
f 328/328/328 329/329/329 341/341/341
f 328/328/328 341/341/341 340/340/340
f 346/346/346 329/329/329 328/328/328
f 347/347/347 340/340/340 341/341/341
f 329/329/329 330/330/330 342/342/342
f 329/329/329 342/342/342 341/341/341
f 346/346/346 330/330/330 329/329/329
f 347/347/347 341/341/341 342/342/342
f 330/330/330 331/331/331 343/343/343
f 330/330/330 343/343/343 342/342/342
f 346/346/346 331/331/331 330/330/330
f 347/347/347 342/342/342 343/343/343
f 331/331/331 332/332/332 344/344/344
f 331/331/331 344/344/344 343/343/343
f 346/346/346 332/332/332 331/331/331
f 347/347/347 343/343/343 344/344/344
f 332/332/332 333/333/333 345/345/345
f 332/332/332 345/345/345 344/344/344
f 346/346/346 333/333/333 332/332/332
f 347/347/347 344/344/344 345/345/345
f 333/333/333 322/322/322 334/334/334
f 333/333/333 334/334/334 345/345/345
f 346/346/346 322/322/322 333/333/333
f 347/347/347 345/345/345 334/334/334
f 348/348/348 349/349/349 361/361/361
f 348/348/348 361/361/361 360/360/360
f 372/372/372 349/349/349 348/348/348
f 373/373/373 360/360/360 361/361/361
f 349/349/349 350/350/350 362/362/362
f 349/349/349 362/362/362 361/361/361
f 372/372/372 350/350/350 349/349/349
f 373/373/373 361/361/361 362/362/362
f 350/350/350 351/351/351 363/363/363
f 350/350/350 363/363/363 362/362/362
f 372/372/372 351/351/351 350/350/350
f 373/373/373 362/362/362 363/363/363
f 351/351/351 352/352/352 364/364/364
f 351/351/351 364/364/364 363/363/363
f 372/372/372 352/352/352 351/351/351
f 373/373/373 363/363/363 364/364/364
f 352/352/352 353/353/353 365/365/365
f 352/352/352 365/365/365 364/364/364
f 372/372/372 353/353/353 352/352/352
f 373/373/373 364/364/364 365/365/365
f 353/353/353 354/354/354 366/366/366
f 353/353/353 366/366/366 365/365/365
f 372/372/372 354/354/354 353/353/353
f 373/373/373 365/365/365 366/366/366
f 354/354/354 355/355/355 367/367/367
f 354/354/354 367/367/367 366/366/366
f 372/372/372 355/355/355 354/354/354
f 373/373/373 366/366/366 367/367/367
f 355/355/355 356/356/356 368/368/368
f 355/355/355 368/368/368 367/367/367
f 372/372/372 356/356/356 355/355/355
f 373/373/373 367/367/367 368/368/368
f 356/356/356 357/357/357 369/369/369
f 356/356/356 369/369/369 368/368/368
f 372/372/372 357/357/357 356/356/356
f 373/373/373 368/368/368 369/369/369
f 357/357/357 358/358/358 370/370/370
f 357/357/357 370/370/370 369/369/369
f 372/372/372 358/358/358 357/357/357
f 373/373/373 369/369/369 370/370/370
f 358/358/358 359/359/359 371/371/371
f 358/358/358 371/371/371 370/370/370
f 372/372/372 359/359/359 358/358/358
f 373/373/373 370/370/370 371/371/371
f 359/359/359 348/348/348 360/360/360
f 359/359/359 360/360/360 371/371/371
f 372/372/372 348/348/348 359/359/359
f 373/373/373 371/371/371 360/360/360
f 374/374/374 375/375/375 391/391/391
f 374/374/374 391/391/391 390/390/390
f 406/406/406 375/375/375 374/374/374
f 407/407/407 390/390/390 391/391/391
f 375/375/375 376/376/376 392/392/392
f 375/375/375 392/392/392 391/391/391
f 406/406/406 376/376/376 375/375/375
f 407/407/407 391/391/391 392/392/392
f 376/376/376 377/377/377 393/393/393
f 376/376/376 393/393/393 392/392/392
f 406/406/406 377/377/377 376/376/376
f 407/407/407 392/392/392 393/393/393
f 377/377/377 378/378/378 394/394/394
f 377/377/377 394/394/394 393/393/393
f 406/406/406 378/378/378 377/377/377
f 407/407/407 393/393/393 394/394/394
f 378/378/378 379/379/379 395/395/395
f 378/378/378 395/395/395 394/394/394
f 406/406/406 379/379/379 378/378/378
f 407/407/407 394/394/394 395/395/395
f 379/379/379 380/380/380 396/396/396
f 379/379/379 396/396/396 395/395/395
f 406/406/406 380/380/380 379/379/379
f 407/407/407 395/395/395 396/396/396
f 380/380/380 381/381/381 397/397/397
f 380/380/380 397/397/397 396/396/396
f 406/406/406 381/381/381 380/380/380
f 407/407/407 396/396/396 397/397/397
f 381/381/381 382/382/382 398/398/398
f 381/381/381 398/398/398 397/397/397
f 406/406/406 382/382/382 381/381/381
f 407/407/407 397/397/397 398/398/398
f 382/382/382 383/383/383 399/399/399
f 382/382/382 399/399/399 398/398/398
f 406/406/406 383/383/383 382/382/382
f 407/407/407 398/398/398 399/399/399
f 383/383/383 384/384/384 400/400/400
f 383/383/383 400/400/400 399/399/399
f 406/406/406 384/384/384 383/383/383
f 407/407/407 399/399/399 400/400/400
f 384/384/384 385/385/385 401/401/401
f 384/384/384 401/401/401 400/400/400
f 406/406/406 385/385/385 384/384/384
f 407/407/407 400/400/400 401/401/401
f 385/385/385 386/386/386 402/402/402
f 385/385/385 402/402/402 401/401/401
f 406/406/406 386/386/386 385/385/385
f 407/407/407 401/401/401 402/402/402
f 386/386/386 387/387/387 403/403/403
f 386/386/386 403/403/403 402/402/402
f 406/406/406 387/387/387 386/386/386
f 407/407/407 402/402/402 403/403/403
f 387/387/387 388/388/388 404/404/404
f 387/387/387 404/404/404 403/403/403
f 406/406/406 388/388/388 387/387/387
f 407/407/407 403/403/403 404/404/404
f 388/388/388 389/389/389 405/405/405
f 388/388/388 405/405/405 404/404/404
f 406/406/406 389/389/389 388/388/388
f 407/407/407 404/404/404 405/405/405
f 389/389/389 374/374/374 390/390/390
f 389/389/389 390/390/390 405/405/405
f 406/406/406 374/374/374 389/389/389
f 407/407/407 405/405/405 390/390/390
f 408/408/408 409/409/409 425/425/425
f 408/408/408 425/425/425 424/424/424
f 440/440/440 409/409/409 408/408/408
f 441/441/441 424/424/424 425/425/425
f 409/409/409 410/410/410 426/426/426
f 409/409/409 426/426/426 425/425/425
f 440/440/440 410/410/410 409/409/409
f 441/441/441 425/425/425 426/426/426
f 410/410/410 411/411/411 427/427/427
f 410/410/410 427/427/427 426/426/426
f 440/440/440 411/411/411 410/410/410
f 441/441/441 426/426/426 427/427/427
f 411/411/411 412/412/412 428/428/428
f 411/411/411 428/428/428 427/427/427
f 440/440/440 412/412/412 411/411/411
f 441/441/441 427/427/427 428/428/428
f 412/412/412 413/413/413 429/429/429
f 412/412/412 429/429/429 428/428/428
f 440/440/440 413/413/413 412/412/412
f 441/441/441 428/428/428 429/429/429
f 413/413/413 414/414/414 430/430/430
f 413/413/413 430/430/430 429/429/429
f 440/440/440 414/414/414 413/413/413
f 441/441/441 429/429/429 430/430/430
f 414/414/414 415/415/415 431/431/431
f 414/414/414 431/431/431 430/430/430
f 440/440/440 415/415/415 414/414/414
f 441/441/441 430/430/430 431/431/431
f 415/415/415 416/416/416 432/432/432
f 415/415/415 432/432/432 431/431/431
f 440/440/440 416/416/416 415/415/415
f 441/441/441 431/431/431 432/432/432
f 416/416/416 417/417/417 433/433/433
f 416/416/416 433/433/433 432/432/432
f 440/440/440 417/417/417 416/416/416
f 441/441/441 432/432/432 433/433/433
f 417/417/417 418/418/418 434/434/434
f 417/417/417 434/434/434 433/433/433
f 440/440/440 418/418/418 417/417/417
f 441/441/441 433/433/433 434/434/434
f 418/418/418 419/419/419 435/435/435
f 418/418/418 435/435/435 434/434/434
f 440/440/440 419/419/419 418/418/418
f 441/441/441 434/434/434 435/435/435
f 419/419/419 420/420/420 436/436/436
f 419/419/419 436/436/436 435/435/435
f 440/440/440 420/420/420 419/419/419
f 441/441/441 435/435/435 436/436/436
f 420/420/420 421/421/421 437/437/437
f 420/420/420 437/437/437 436/436/436
f 440/440/440 421/421/421 420/420/420
f 441/441/441 436/436/436 437/437/437
f 421/421/421 422/422/422 438/438/438
f 421/421/421 438/438/438 437/437/437
f 440/440/440 422/422/422 421/421/421
f 441/441/441 437/437/437 438/438/438
f 422/422/422 423/423/423 439/439/439
f 422/422/422 439/439/439 438/438/438
f 440/440/440 423/423/423 422/422/422
f 441/441/441 438/438/438 439/439/439
f 423/423/423 408/408/408 424/424/424
f 423/423/423 424/424/424 439/439/439
f 440/440/440 408/408/408 423/423/423
f 441/441/441 439/439/439 424/424/424
f 442/442/442 443/443/443 459/459/459
f 442/442/442 459/459/459 458/458/458
f 474/474/474 443/443/443 442/442/442
f 475/475/475 458/458/458 459/459/459
f 443/443/443 444/444/444 460/460/460
f 443/443/443 460/460/460 459/459/459
f 474/474/474 444/444/444 443/443/443
f 475/475/475 459/459/459 460/460/460
f 444/444/444 445/445/445 461/461/461
f 444/444/444 461/461/461 460/460/460
f 474/474/474 445/445/445 444/444/444
f 475/475/475 460/460/460 461/461/461
f 445/445/445 446/446/446 462/462/462
f 445/445/445 462/462/462 461/461/461
f 474/474/474 446/446/446 445/445/445
f 475/475/475 461/461/461 462/462/462
f 446/446/446 447/447/447 463/463/463
f 446/446/446 463/463/463 462/462/462
f 474/474/474 447/447/447 446/446/446
f 475/475/475 462/462/462 463/463/463
f 447/447/447 448/448/448 464/464/464
f 447/447/447 464/464/464 463/463/463
f 474/474/474 448/448/448 447/447/447
f 475/475/475 463/463/463 464/464/464
f 448/448/448 449/449/449 465/465/465
f 448/448/448 465/465/465 464/464/464
f 474/474/474 449/449/449 448/448/448
f 475/475/475 464/464/464 465/465/465
f 449/449/449 450/450/450 466/466/466
f 449/449/449 466/466/466 465/465/465
f 474/474/474 450/450/450 449/449/449
f 475/475/475 465/465/465 466/466/466
f 450/450/450 451/451/451 467/467/467
f 450/450/450 467/467/467 466/466/466
f 474/474/474 451/451/451 450/450/450
f 475/475/475 466/466/466 467/467/467
f 451/451/451 452/452/452 468/468/468
f 451/451/451 468/468/468 467/467/467
f 474/474/474 452/452/452 451/451/451
f 475/475/475 467/467/467 468/468/468
f 452/452/452 453/453/453 469/469/469
f 452/452/452 469/469/469 468/468/468
f 474/474/474 453/453/453 452/452/452
f 475/475/475 468/468/468 469/469/469
f 453/453/453 454/454/454 470/470/470
f 453/453/453 470/470/470 469/469/469
f 474/474/474 454/454/454 453/453/453
f 475/475/475 469/469/469 470/470/470
f 454/454/454 455/455/455 471/471/471
f 454/454/454 471/471/471 470/470/470
f 474/474/474 455/455/455 454/454/454
f 475/475/475 470/470/470 471/471/471
f 455/455/455 456/456/456 472/472/472
f 455/455/455 472/472/472 471/471/471
f 474/474/474 456/456/456 455/455/455
f 475/475/475 471/471/471 472/472/472
f 456/456/456 457/457/457 473/473/473
f 456/456/456 473/473/473 472/472/472
f 474/474/474 457/457/457 456/456/456
f 475/475/475 472/472/472 473/473/473
f 457/457/457 442/442/442 458/458/458
f 457/457/457 458/458/458 473/473/473
f 474/474/474 442/442/442 457/457/457
f 475/475/475 473/473/473 458/458/458
f 476/476/476 477/477/477 501/501/501
f 476/476/476 501/501/501 500/500/500
f 524/524/524 477/477/477 476/476/476
f 525/525/525 500/500/500 501/501/501
f 477/477/477 478/478/478 502/502/502
f 477/477/477 502/502/502 501/501/501
f 524/524/524 478/478/478 477/477/477
f 525/525/525 501/501/501 502/502/502
f 478/478/478 479/479/479 503/503/503
f 478/478/478 503/503/503 502/502/502
f 524/524/524 479/479/479 478/478/478
f 525/525/525 502/502/502 503/503/503
f 479/479/479 480/480/480 504/504/504
f 479/479/479 504/504/504 503/503/503
f 524/524/524 480/480/480 479/479/479
f 525/525/525 503/503/503 504/504/504
f 480/480/480 481/481/481 505/505/505
f 480/480/480 505/505/505 504/504/504
f 524/524/524 481/481/481 480/480/480
f 525/525/525 504/504/504 505/505/505
f 481/481/481 482/482/482 506/506/506
f 481/481/481 506/506/506 505/505/505
f 524/524/524 482/482/482 481/481/481
f 525/525/525 505/505/505 506/506/506
f 482/482/482 483/483/483 507/507/507
f 482/482/482 507/507/507 506/506/506
f 524/524/524 483/483/483 482/482/482
f 525/525/525 506/506/506 507/507/507
f 483/483/483 484/484/484 508/508/508
f 483/483/483 508/508/508 507/507/507
f 524/524/524 484/484/484 483/483/483
f 525/525/525 507/507/507 508/508/508
f 484/484/484 485/485/485 509/509/509
f 484/484/484 509/509/509 508/508/508
f 524/524/524 485/485/485 484/484/484
f 525/525/525 508/508/508 509/509/509
f 485/485/485 486/486/486 510/510/510
f 485/485/485 510/510/510 509/509/509
f 524/524/524 486/486/486 485/485/485
f 525/525/525 509/509/509 510/510/510
f 486/486/486 487/487/487 511/511/511
f 486/486/486 511/511/511 510/510/510
f 524/524/524 487/487/487 486/486/486
f 525/525/525 510/510/510 511/511/511
f 487/487/487 488/488/488 512/512/512
f 487/487/487 512/512/512 511/511/511
f 524/524/524 488/488/488 487/487/487
f 525/525/525 511/511/511 512/512/512
f 488/488/488 489/489/489 513/513/513
f 488/488/488 513/513/513 512/512/512
f 524/524/524 489/489/489 488/488/488
f 525/525/525 512/512/512 513/513/513
f 489/489/489 490/490/490 514/514/514
f 489/489/489 514/514/514 513/513/513
f 524/524/524 490/490/490 489/489/489
f 525/525/525 513/513/513 514/514/514
f 490/490/490 491/491/491 515/515/515
f 490/490/490 515/515/515 514/514/514
f 524/524/524 491/491/491 490/490/490
f 525/525/525 514/514/514 515/515/515
f 491/491/491 492/492/492 516/516/516
f 491/491/491 516/516/516 515/515/515
f 524/524/524 492/492/492 491/491/491
f 525/525/525 515/515/515 516/516/516
f 492/492/492 493/493/493 517/517/517
f 492/492/492 517/517/517 516/516/516
f 524/524/524 493/493/493 492/492/492
f 525/525/525 516/516/516 517/517/517
f 493/493/493 494/494/494 518/518/518
f 493/493/493 518/518/518 517/517/517
f 524/524/524 494/494/494 493/493/493
f 525/525/525 517/517/517 518/518/518
f 494/494/494 495/495/495 519/519/519
f 494/494/494 519/519/519 518/518/518
f 524/524/524 495/495/495 494/494/494
f 525/525/525 518/518/518 519/519/519
f 495/495/495 496/496/496 520/520/520
f 495/495/495 520/520/520 519/519/519
f 524/524/524 496/496/496 495/495/495
f 525/525/525 519/519/519 520/520/520
f 496/496/496 497/497/497 521/521/521
f 496/496/496 521/521/521 520/520/520
f 524/524/524 497/497/497 496/496/496
f 525/525/525 520/520/520 521/521/521
f 497/497/497 498/498/498 522/522/522
f 497/497/497 522/522/522 521/521/521
f 524/524/524 498/498/498 497/497/497
f 525/525/525 521/521/521 522/522/522
f 498/498/498 499/499/499 523/523/523
f 498/498/498 523/523/523 522/522/522
f 524/524/524 499/499/499 498/498/498
f 525/525/525 522/522/522 523/523/523
f 499/499/499 476/476/476 500/500/500
f 499/499/499 500/500/500 523/523/523
f 524/524/524 476/476/476 499/499/499
f 525/525/525 523/523/523 500/500/500
f 526/526/526 528/528/528 527/527/527
f 526/526/526 529/529/529 528/528/528
f 530/530/530 531/531/531 532/532/532
f 530/530/530 532/532/532 533/533/533
f 526/526/526 527/527/527 531/531/531
f 526/526/526 531/531/531 530/530/530
f 528/528/528 529/529/529 533/533/533
f 528/528/528 533/533/533 532/532/532
f 526/526/526 530/530/530 533/533/533
f 526/526/526 533/533/533 529/529/529
f 527/527/527 528/528/528 532/532/532
f 527/527/527 532/532/532 531/531/531
f 534/534/534 536/536/536 535/535/535
f 534/534/534 537/537/537 536/536/536
f 538/538/538 539/539/539 540/540/540
f 538/538/538 540/540/540 541/541/541
f 534/534/534 535/535/535 539/539/539
f 534/534/534 539/539/539 538/538/538
f 536/536/536 537/537/537 541/541/541
f 536/536/536 541/541/541 540/540/540
f 534/534/534 538/538/538 541/541/541
f 534/534/534 541/541/541 537/537/537
f 535/535/535 536/536/536 540/540/540
f 535/535/535 540/540/540 539/539/539