# 3D Model: vehicle/car/1711950770028207_600_400
# Style: standard_passenger_automobile | Symmetry: symmetric
# Dimensions: 5.233 x 1.671 x 2.659 m
# Triangles: 1012 | Vertices: 612
v -2.5915 0.29 -0.975
v 2.5915 0.29 -0.975
v 2.5915 0.83 -0.975
v -2.5915 0.83 -0.975
v -2.5915 0.29 0.975
v 2.5915 0.29 0.975
v 2.5915 0.83 0.975
v -2.5915 0.83 0.975
v 1.2794 0.82 1.3294
v -1.3794 0.82 1.3294
v -1.3794 0.82 -1.3294
v 1.2794 0.82 -1.3294
v 0.9996 1.6643 1.0496
v -1.0996 1.6643 1.0496
v -1.0996 1.6643 -1.0496
v 0.9996 1.6643 -1.0496
v -0.05 0.82 0
v -0.05 1.6643 0
v 0.8293 0.56 -0.936
v 2.4878 0.56 -0.936
v 2.4878 0.56 0.936
v 0.8293 0.56 0.936
v 0.8293 0.92 -0.936
v 2.4878 0.92 -0.936
v 2.4615 0.6 0.695
v 2.6215 0.6 0.695
v 2.6215 0.76 0.695
v 2.4615 0.76 0.695
v 2.4615 0.6 0.955
v 2.6215 0.6 0.955
v 2.6215 0.76 0.955
v 2.4615 0.76 0.955
v -2.6115 0.62 0.705
v -2.4715 0.62 0.705
v -2.4715 0.78 0.705
v -2.6115 0.78 0.705
v -2.6115 0.62 0.945
v -2.4715 0.62 0.945
v -2.4715 0.78 0.945
v -2.6115 0.78 0.945
v 1.8184 0.36 0.7425
v 1.7931 0.36 0.8036
v 1.732 0.36 0.8289
v 1.6709 0.36 0.8036
v 1.6456 0.36 0.7425
v 1.6709 0.36 0.6814
v 1.732 0.36 0.6561
v 1.7931 0.36 0.6814
v 1.8184 0.36 0.7425
v 1.7692 0.1764 0.7425
v 1.7473 0.1891 0.8036
v 1.6944 0.2196 0.8289
v 1.6415 0.2501 0.8036
v 1.6196 0.2628 0.7425
v 1.6415 0.2501 0.6814
v 1.6944 0.2196 0.6561
v 1.7473 0.1891 0.6814
v 1.7692 0.1764 0.7425
v 1.6348 0.042 0.7425
v 1.6222 0.0639 0.8036
v 1.5916 0.1168 0.8289
v 1.5611 0.1697 0.8036
v 1.5484 0.1916 0.7425
v 1.5611 0.1697 0.6814
v 1.5916 0.1168 0.6561
v 1.6222 0.0639 0.6814
v 1.6348 0.042 0.7425
v 1.4512 -0.0072 0.7425
v 1.4512 0.0181 0.8036
v 1.4512 0.0792 0.8289
v 1.4512 0.1403 0.8036
v 1.4512 0.1656 0.7425
v 1.4512 0.1403 0.6814
v 1.4512 0.0792 0.6561
v 1.4512 0.0181 0.6814
v 1.4512 -0.0072 0.7425
v 1.2676 0.042 0.7425
v 1.2803 0.0639 0.8036
v 1.3108 0.1168 0.8289
v 1.3414 0.1697 0.8036
v 1.354 0.1916 0.7425
v 1.3414 0.1697 0.6814
v 1.3108 0.1168 0.6561
v 1.2803 0.0639 0.6814
v 1.2676 0.042 0.7425
v 1.1332 0.1764 0.7425
v 1.1552 0.1891 0.8036
v 1.2081 0.2196 0.8289
v 1.261 0.2501 0.8036
v 1.2829 0.2628 0.7425
v 1.261 0.2501 0.6814
v 1.2081 0.2196 0.6561
v 1.1552 0.1891 0.6814
v 1.1332 0.1764 0.7425
v 1.084 0.36 0.7425
v 1.1093 0.36 0.8036
v 1.1704 0.36 0.8289
v 1.2315 0.36 0.8036
v 1.2568 0.36 0.7425
v 1.2315 0.36 0.6814
v 1.1704 0.36 0.6561
v 1.1093 0.36 0.6814
v 1.084 0.36 0.7425
v 1.1332 0.5436 0.7425
v 1.1552 0.5309 0.8036
v 1.2081 0.5004 0.8289
v 1.261 0.4699 0.8036
v 1.2829 0.4572 0.7425
v 1.261 0.4699 0.6814
v 1.2081 0.5004 0.6561
v 1.1552 0.5309 0.6814
v 1.1332 0.5436 0.7425
v 1.2676 0.678 0.7425
v 1.2803 0.6561 0.8036
v 1.3108 0.6032 0.8289
v 1.3414 0.5503 0.8036
v 1.354 0.5284 0.7425
v 1.3414 0.5503 0.6814
v 1.3108 0.6032 0.6561
v 1.2803 0.6561 0.6814
v 1.2676 0.678 0.7425
v 1.4512 0.7272 0.7425
v 1.4512 0.7019 0.8036
v 1.4512 0.6408 0.8289
v 1.4512 0.5797 0.8036
v 1.4512 0.5544 0.7425
v 1.4512 0.5797 0.6814
v 1.4512 0.6408 0.6561
v 1.4512 0.7019 0.6814
v 1.4512 0.7272 0.7425
v 1.6348 0.678 0.7425
v 1.6222 0.6561 0.8036
v 1.5916 0.6032 0.8289
v 1.5611 0.5503 0.8036
v 1.5484 0.5284 0.7425
v 1.5611 0.5503 0.6814
v 1.5916 0.6032 0.6561
v 1.6222 0.6561 0.6814
v 1.6348 0.678 0.7425
v 1.7692 0.5436 0.7425
v 1.7473 0.5309 0.8036
v 1.6944 0.5004 0.8289
v 1.6415 0.4699 0.8036
v 1.6196 0.4572 0.7425
v 1.6415 0.4699 0.6814
v 1.6944 0.5004 0.6561
v 1.7473 0.5309 0.6814
v 1.7692 0.5436 0.7425
v 1.8184 0.36 0.7425
v 1.7931 0.36 0.8036
v 1.732 0.36 0.8289
v 1.6709 0.36 0.8036
v 1.6456 0.36 0.7425
v 1.6709 0.36 0.6814
v 1.732 0.36 0.6561
v 1.7931 0.36 0.6814
v 1.8184 0.36 0.7425
v 1.6852 0.36 0.6125
v 1.6406 0.2225 0.6125
v 1.5236 0.1375 0.6125
v 1.3789 0.1375 0.6125
v 1.2619 0.2225 0.6125
v 1.2172 0.36 0.6125
v 1.2619 0.4975 0.6125
v 1.3789 0.5825 0.6125
v 1.5236 0.5825 0.6125
v 1.6406 0.4975 0.6125
v 1.6852 0.36 0.8725
v 1.6406 0.2225 0.8725
v 1.5236 0.1375 0.8725
v 1.3789 0.1375 0.8725
v 1.2619 0.2225 0.8725
v 1.2172 0.36 0.8725
v 1.2619 0.4975 0.8725
v 1.3789 0.5825 0.8725
v 1.5236 0.5825 0.8725
v 1.6406 0.4975 0.8725
v 1.4512 0.36 0.6125
v 1.4512 0.36 0.8725
v -1.084 0.36 0.7425
v -1.1093 0.36 0.8036
v -1.1704 0.36 0.8289
v -1.2315 0.36 0.8036
v -1.2568 0.36 0.7425
v -1.2315 0.36 0.6814
v -1.1704 0.36 0.6561
v -1.1093 0.36 0.6814
v -1.084 0.36 0.7425
v -1.1332 0.1764 0.7425
v -1.1552 0.1891 0.8036
v -1.2081 0.2196 0.8289
v -1.261 0.2501 0.8036
v -1.2829 0.2628 0.7425
v -1.261 0.2501 0.6814
v -1.2081 0.2196 0.6561
v -1.1552 0.1891 0.6814
v -1.1332 0.1764 0.7425
v -1.2676 0.042 0.7425
v -1.2803 0.0639 0.8036
v -1.3108 0.1168 0.8289
v -1.3414 0.1697 0.8036
v -1.354 0.1916 0.7425
v -1.3414 0.1697 0.6814
v -1.3108 0.1168 0.6561
v -1.2803 0.0639 0.6814
v -1.2676 0.042 0.7425
v -1.4512 -0.0072 0.7425
v -1.4512 0.0181 0.8036
v -1.4512 0.0792 0.8289
v -1.4512 0.1403 0.8036
v -1.4512 0.1656 0.7425
v -1.4512 0.1403 0.6814
v -1.4512 0.0792 0.6561
v -1.4512 0.0181 0.6814
v -1.4512 -0.0072 0.7425
v -1.6348 0.042 0.7425
v -1.6222 0.0639 0.8036
v -1.5916 0.1168 0.8289
v -1.5611 0.1697 0.8036
v -1.5484 0.1916 0.7425
v -1.5611 0.1697 0.6814
v -1.5916 0.1168 0.6561
v -1.6222 0.0639 0.6814
v -1.6348 0.042 0.7425
v -1.7692 0.1764 0.7425
v -1.7473 0.1891 0.8036
v -1.6944 0.2196 0.8289
v -1.6415 0.2501 0.8036
v -1.6196 0.2628 0.7425
v -1.6415 0.2501 0.6814
v -1.6944 0.2196 0.6561
v -1.7473 0.1891 0.6814
v -1.7692 0.1764 0.7425
v -1.8184 0.36 0.7425
v -1.7931 0.36 0.8036
v -1.732 0.36 0.8289
v -1.6709 0.36 0.8036
v -1.6456 0.36 0.7425
v -1.6709 0.36 0.6814
v -1.732 0.36 0.6561
v -1.7931 0.36 0.6814
v -1.8184 0.36 0.7425
v -1.7692 0.5436 0.7425
v -1.7473 0.5309 0.8036
v -1.6944 0.5004 0.8289
v -1.6415 0.4699 0.8036
v -1.6196 0.4572 0.7425
v -1.6415 0.4699 0.6814
v -1.6944 0.5004 0.6561
v -1.7473 0.5309 0.6814
v -1.7692 0.5436 0.7425
v -1.6348 0.678 0.7425
v -1.6222 0.6561 0.8036
v -1.5916 0.6032 0.8289
v -1.5611 0.5503 0.8036
v -1.5484 0.5284 0.7425
v -1.5611 0.5503 0.6814
v -1.5916 0.6032 0.6561
v -1.6222 0.6561 0.6814
v -1.6348 0.678 0.7425
v -1.4512 0.7272 0.7425
v -1.4512 0.7019 0.8036
v -1.4512 0.6408 0.8289
v -1.4512 0.5797 0.8036
v -1.4512 0.5544 0.7425
v -1.4512 0.5797 0.6814
v -1.4512 0.6408 0.6561
v -1.4512 0.7019 0.6814
v -1.4512 0.7272 0.7425
v -1.2676 0.678 0.7425
v -1.2803 0.6561 0.8036
v -1.3108 0.6032 0.8289
v -1.3414 0.5503 0.8036
v -1.354 0.5284 0.7425
v -1.3414 0.5503 0.6814
v -1.3108 0.6032 0.6561
v -1.2803 0.6561 0.6814
v -1.2676 0.678 0.7425
v -1.1332 0.5436 0.7425
v -1.1552 0.5309 0.8036
v -1.2081 0.5004 0.8289
v -1.261 0.4699 0.8036
v -1.2829 0.4572 0.7425
v -1.261 0.4699 0.6814
v -1.2081 0.5004 0.6561
v -1.1552 0.5309 0.6814
v -1.1332 0.5436 0.7425
v -1.084 0.36 0.7425
v -1.1093 0.36 0.8036
v -1.1704 0.36 0.8289
v -1.2315 0.36 0.8036
v -1.2568 0.36 0.7425
v -1.2315 0.36 0.6814
v -1.1704 0.36 0.6561
v -1.1093 0.36 0.6814
v -1.084 0.36 0.7425
v -1.2172 0.36 0.6125
v -1.2619 0.2225 0.6125
v -1.3789 0.1375 0.6125
v -1.5236 0.1375 0.6125
v -1.6406 0.2225 0.6125
v -1.6852 0.36 0.6125
v -1.6406 0.4975 0.6125
v -1.5236 0.5825 0.6125
v -1.3789 0.5825 0.6125
v -1.2619 0.4975 0.6125
v -1.2172 0.36 0.8725
v -1.2619 0.2225 0.8725
v -1.3789 0.1375 0.8725
v -1.5236 0.1375 0.8725
v -1.6406 0.2225 0.8725
v -1.6852 0.36 0.8725
v -1.6406 0.4975 0.8725
v -1.5236 0.5825 0.8725
v -1.3789 0.5825 0.8725
v -1.2619 0.4975 0.8725
v -1.4512 0.36 0.6125
v -1.4512 0.36 0.8725
v 2.4615 0.6 -0.955
v 2.6215 0.6 -0.955
v 2.6215 0.76 -0.955
v 2.4615 0.76 -0.955
v 2.4615 0.6 -0.695
v 2.6215 0.6 -0.695
v 2.6215 0.76 -0.695
v 2.4615 0.76 -0.695
v -2.6115 0.62 -0.945
v -2.4715 0.62 -0.945
v -2.4715 0.78 -0.945
v -2.6115 0.78 -0.945
v -2.6115 0.62 -0.705
v -2.4715 0.62 -0.705
v -2.4715 0.78 -0.705
v -2.6115 0.78 -0.705
v 1.8184 0.36 -0.7425
v 1.7931 0.36 -0.6814
v 1.732 0.36 -0.6561
v 1.6709 0.36 -0.6814
v 1.6456 0.36 -0.7425
v 1.6709 0.36 -0.8036
v 1.732 0.36 -0.8289
v 1.7931 0.36 -0.8036
v 1.8184 0.36 -0.7425
v 1.7692 0.1764 -0.7425
v 1.7473 0.1891 -0.6814
v 1.6944 0.2196 -0.6561
v 1.6415 0.2501 -0.6814
v 1.6196 0.2628 -0.7425
v 1.6415 0.2501 -0.8036
v 1.6944 0.2196 -0.8289
v 1.7473 0.1891 -0.8036
v 1.7692 0.1764 -0.7425
v 1.6348 0.042 -0.7425
v 1.6222 0.0639 -0.6814
v 1.5916 0.1168 -0.6561
v 1.5611 0.1697 -0.6814
v 1.5484 0.1916 -0.7425
v 1.5611 0.1697 -0.8036
v 1.5916 0.1168 -0.8289
v 1.6222 0.0639 -0.8036
v 1.6348 0.042 -0.7425
v 1.4512 -0.0072 -0.7425
v 1.4512 0.0181 -0.6814
v 1.4512 0.0792 -0.6561
v 1.4512 0.1403 -0.6814
v 1.4512 0.1656 -0.7425
v 1.4512 0.1403 -0.8036
v 1.4512 0.0792 -0.8289
v 1.4512 0.0181 -0.8036
v 1.4512 -0.0072 -0.7425
v 1.2676 0.042 -0.7425
v 1.2803 0.0639 -0.6814
v 1.3108 0.1168 -0.6561
v 1.3414 0.1697 -0.6814
v 1.354 0.1916 -0.7425
v 1.3414 0.1697 -0.8036
v 1.3108 0.1168 -0.8289
v 1.2803 0.0639 -0.8036
v 1.2676 0.042 -0.7425
v 1.1332 0.1764 -0.7425
v 1.1552 0.1891 -0.6814
v 1.2081 0.2196 -0.6561
v 1.261 0.2501 -0.6814
v 1.2829 0.2628 -0.7425
v 1.261 0.2501 -0.8036
v 1.2081 0.2196 -0.8289
v 1.1552 0.1891 -0.8036
v 1.1332 0.1764 -0.7425
v 1.084 0.36 -0.7425
v 1.1093 0.36 -0.6814
v 1.1704 0.36 -0.6561
v 1.2315 0.36 -0.6814
v 1.2568 0.36 -0.7425
v 1.2315 0.36 -0.8036
v 1.1704 0.36 -0.8289
v 1.1093 0.36 -0.8036
v 1.084 0.36 -0.7425
v 1.1332 0.5436 -0.7425
v 1.1552 0.5309 -0.6814
v 1.2081 0.5004 -0.6561
v 1.261 0.4699 -0.6814
v 1.2829 0.4572 -0.7425
v 1.261 0.4699 -0.8036
v 1.2081 0.5004 -0.8289
v 1.1552 0.5309 -0.8036
v 1.1332 0.5436 -0.7425
v 1.2676 0.678 -0.7425
v 1.2803 0.6561 -0.6814
v 1.3108 0.6032 -0.6561
v 1.3414 0.5503 -0.6814
v 1.354 0.5284 -0.7425
v 1.3414 0.5503 -0.8036
v 1.3108 0.6032 -0.8289
v 1.2803 0.6561 -0.8036
v 1.2676 0.678 -0.7425
v 1.4512 0.7272 -0.7425
v 1.4512 0.7019 -0.6814
v 1.4512 0.6408 -0.6561
v 1.4512 0.5797 -0.6814
v 1.4512 0.5544 -0.7425
v 1.4512 0.5797 -0.8036
v 1.4512 0.6408 -0.8289
v 1.4512 0.7019 -0.8036
v 1.4512 0.7272 -0.7425
v 1.6348 0.678 -0.7425
v 1.6222 0.6561 -0.6814
v 1.5916 0.6032 -0.6561
v 1.5611 0.5503 -0.6814
v 1.5484 0.5284 -0.7425
v 1.5611 0.5503 -0.8036
v 1.5916 0.6032 -0.8289
v 1.6222 0.6561 -0.8036
v 1.6348 0.678 -0.7425
v 1.7692 0.5436 -0.7425
v 1.7473 0.5309 -0.6814
v 1.6944 0.5004 -0.6561
v 1.6415 0.4699 -0.6814
v 1.6196 0.4572 -0.7425
v 1.6415 0.4699 -0.8036
v 1.6944 0.5004 -0.8289
v 1.7473 0.5309 -0.8036
v 1.7692 0.5436 -0.7425
v 1.8184 0.36 -0.7425
v 1.7931 0.36 -0.6814
v 1.732 0.36 -0.6561
v 1.6709 0.36 -0.6814
v 1.6456 0.36 -0.7425
v 1.6709 0.36 -0.8036
v 1.732 0.36 -0.8289
v 1.7931 0.36 -0.8036
v 1.8184 0.36 -0.7425
v 1.6852 0.36 -0.8725
v 1.6406 0.2225 -0.8725
v 1.5236 0.1375 -0.8725
v 1.3789 0.1375 -0.8725
v 1.2619 0.2225 -0.8725
v 1.2172 0.36 -0.8725
v 1.2619 0.4975 -0.8725
v 1.3789 0.5825 -0.8725
v 1.5236 0.5825 -0.8725
v 1.6406 0.4975 -0.8725
v 1.6852 0.36 -0.6125
v 1.6406 0.2225 -0.6125
v 1.5236 0.1375 -0.6125
v 1.3789 0.1375 -0.6125
v 1.2619 0.2225 -0.6125
v 1.2172 0.36 -0.6125
v 1.2619 0.4975 -0.6125
v 1.3789 0.5825 -0.6125
v 1.5236 0.5825 -0.6125
v 1.6406 0.4975 -0.6125
v 1.4512 0.36 -0.8725
v 1.4512 0.36 -0.6125
v -1.084 0.36 -0.7425
v -1.1093 0.36 -0.6814
v -1.1704 0.36 -0.6561
v -1.2315 0.36 -0.6814
v -1.2568 0.36 -0.7425
v -1.2315 0.36 -0.8036
v -1.1704 0.36 -0.8289
v -1.1093 0.36 -0.8036
v -1.084 0.36 -0.7425
v -1.1332 0.1764 -0.7425
v -1.1552 0.1891 -0.6814
v -1.2081 0.2196 -0.6561
v -1.261 0.2501 -0.6814
v -1.2829 0.2628 -0.7425
v -1.261 0.2501 -0.8036
v -1.2081 0.2196 -0.8289
v -1.1552 0.1891 -0.8036
v -1.1332 0.1764 -0.7425
v -1.2676 0.042 -0.7425
v -1.2803 0.0639 -0.6814
v -1.3108 0.1168 -0.6561
v -1.3414 0.1697 -0.6814
v -1.354 0.1916 -0.7425
v -1.3414 0.1697 -0.8036
v -1.3108 0.1168 -0.8289
v -1.2803 0.0639 -0.8036
v -1.2676 0.042 -0.7425
v -1.4512 -0.0072 -0.7425
v -1.4512 0.0181 -0.6814
v -1.4512 0.0792 -0.6561
v -1.4512 0.1403 -0.6814
v -1.4512 0.1656 -0.7425
v -1.4512 0.1403 -0.8036
v -1.4512 0.0792 -0.8289
v -1.4512 0.0181 -0.8036
v -1.4512 -0.0072 -0.7425
v -1.6348 0.042 -0.7425
v -1.6222 0.0639 -0.6814
v -1.5916 0.1168 -0.6561
v -1.5611 0.1697 -0.6814
v -1.5484 0.1916 -0.7425
v -1.5611 0.1697 -0.8036
v -1.5916 0.1168 -0.8289
v -1.6222 0.0639 -0.8036
v -1.6348 0.042 -0.7425
v -1.7692 0.1764 -0.7425
v -1.7473 0.1891 -0.6814
v -1.6944 0.2196 -0.6561
v -1.6415 0.2501 -0.6814
v -1.6196 0.2628 -0.7425
v -1.6415 0.2501 -0.8036
v -1.6944 0.2196 -0.8289
v -1.7473 0.1891 -0.8036
v -1.7692 0.1764 -0.7425
v -1.8184 0.36 -0.7425
v -1.7931 0.36 -0.6814
v -1.732 0.36 -0.6561
v -1.6709 0.36 -0.6814
v -1.6456 0.36 -0.7425
v -1.6709 0.36 -0.8036
v -1.732 0.36 -0.8289
v -1.7931 0.36 -0.8036
v -1.8184 0.36 -0.7425
v -1.7692 0.5436 -0.7425
v -1.7473 0.5309 -0.6814
v -1.6944 0.5004 -0.6561
v -1.6415 0.4699 -0.6814
v -1.6196 0.4572 -0.7425
v -1.6415 0.4699 -0.8036
v -1.6944 0.5004 -0.8289
v -1.7473 0.5309 -0.8036
v -1.7692 0.5436 -0.7425
v -1.6348 0.678 -0.7425
v -1.6222 0.6561 -0.6814
v -1.5916 0.6032 -0.6561
v -1.5611 0.5503 -0.6814
v -1.5484 0.5284 -0.7425
v -1.5611 0.5503 -0.8036
v -1.5916 0.6032 -0.8289
v -1.6222 0.6561 -0.8036
v -1.6348 0.678 -0.7425
v -1.4512 0.7272 -0.7425
v -1.4512 0.7019 -0.6814
v -1.4512 0.6408 -0.6561
v -1.4512 0.5797 -0.6814
v -1.4512 0.5544 -0.7425
v -1.4512 0.5797 -0.8036
v -1.4512 0.6408 -0.8289
v -1.4512 0.7019 -0.8036
v -1.4512 0.7272 -0.7425
v -1.2676 0.678 -0.7425
v -1.2803 0.6561 -0.6814
v -1.3108 0.6032 -0.6561
v -1.3414 0.5503 -0.6814
v -1.354 0.5284 -0.7425
v -1.3414 0.5503 -0.8036
v -1.3108 0.6032 -0.8289
v -1.2803 0.6561 -0.8036
v -1.2676 0.678 -0.7425
v -1.1332 0.5436 -0.7425
v -1.1552 0.5309 -0.6814
v -1.2081 0.5004 -0.6561
v -1.261 0.4699 -0.6814
v -1.2829 0.4572 -0.7425
v -1.261 0.4699 -0.8036
v -1.2081 0.5004 -0.8289
v -1.1552 0.5309 -0.8036
v -1.1332 0.5436 -0.7425
v -1.084 0.36 -0.7425
v -1.1093 0.36 -0.6814
v -1.1704 0.36 -0.6561
v -1.2315 0.36 -0.6814
v -1.2568 0.36 -0.7425
v -1.2315 0.36 -0.8036
v -1.1704 0.36 -0.8289
v -1.1093 0.36 -0.8036
v -1.084 0.36 -0.7425
v -1.2172 0.36 -0.8725
v -1.2619 0.2225 -0.8725
v -1.3789 0.1375 -0.8725
v -1.5236 0.1375 -0.8725
v -1.6406 0.2225 -0.8725
v -1.6852 0.36 -0.8725
v -1.6406 0.4975 -0.8725
v -1.5236 0.5825 -0.8725
v -1.3789 0.5825 -0.8725
v -1.2619 0.4975 -0.8725
v -1.2172 0.36 -0.6125
v -1.2619 0.2225 -0.6125
v -1.3789 0.1375 -0.6125
v -1.5236 0.1375 -0.6125
v -1.6406 0.2225 -0.6125
v -1.6852 0.36 -0.6125
v -1.6406 0.4975 -0.6125
v -1.5236 0.5825 -0.6125
v -1.3789 0.5825 -0.6125
v -1.2619 0.4975 -0.6125
v -1.4512 0.36 -0.8725
v -1.4512 0.36 -0.6125
vt 0.5 0.5
vt 0.5 0.5
vt 0.5 0.5
vt 0.5 0.5
vt 0.5 0.5
vt 0.5 0.5
vt 0.5 0.5
vt 0.5 0.5
vt 0 0
vt 0.25 0
vt 0.5 0
vt 0.75 0
vt 0 1
vt 0.25 1
vt 0.5 1
vt 0.75 1
vt 0.5 0.5
vt 0.5 0.5
vt 0.5 0.5
vt 0.5 0.5
vt 0.5 0.5
vt 0.5 0.5
vt 0.5 0.5
vt 0.5 0.5
vt 0.5 0.5
vt 0.5 0.5
vt 0.5 0.5
vt 0.5 0.5
vt 0.5 0.5
vt 0.5 0.5
vt 0.5 0.5
vt 0.5 0.5
vt 0.5 0.5
vt 0.5 0.5
vt 0.5 0.5
vt 0.5 0.5
vt 0.5 0.5
vt 0.5 0.5
vt 0.5 0.5
vt 0.5 0.5
vt 0 0
vt 0 0.125
vt 0 0.25
vt 0 0.375
vt 0 0.5
vt 0 0.625
vt 0 0.75
vt 0 0.875
vt 0 1
vt 0.08333333333333333 0
vt 0.08333333333333333 0.125
vt 0.08333333333333333 0.25
vt 0.08333333333333333 0.375
vt 0.08333333333333333 0.5
vt 0.08333333333333333 0.625
vt 0.08333333333333333 0.75
vt 0.08333333333333333 0.875
vt 0.08333333333333333 1
vt 0.16666666666666666 0
vt 0.16666666666666666 0.125
vt 0.16666666666666666 0.25
vt 0.16666666666666666 0.375
vt 0.16666666666666666 0.5
vt 0.16666666666666666 0.625
vt 0.16666666666666666 0.75
vt 0.16666666666666666 0.875
vt 0.16666666666666666 1
vt 0.25 0
vt 0.25 0.125
vt 0.25 0.25
vt 0.25 0.375
vt 0.25 0.5
vt 0.25 0.625
vt 0.25 0.75
vt 0.25 0.875
vt 0.25 1
vt 0.3333333333333333 0
vt 0.3333333333333333 0.125
vt 0.3333333333333333 0.25
vt 0.3333333333333333 0.375
vt 0.3333333333333333 0.5
vt 0.3333333333333333 0.625
vt 0.3333333333333333 0.75
vt 0.3333333333333333 0.875
vt 0.3333333333333333 1
vt 0.4166666666666667 0
vt 0.4166666666666667 0.125
vt 0.4166666666666667 0.25
vt 0.4166666666666667 0.375
vt 0.4166666666666667 0.5
vt 0.4166666666666667 0.625
vt 0.4166666666666667 0.75
vt 0.4166666666666667 0.875
vt 0.4166666666666667 1
vt 0.5 0
vt 0.5 0.125
vt 0.5 0.25
vt 0.5 0.375
vt 0.5 0.5
vt 0.5 0.625
vt 0.5 0.75
vt 0.5 0.875
vt 0.5 1
vt 0.5833333333333334 0
vt 0.5833333333333334 0.125
vt 0.5833333333333334 0.25
vt 0.5833333333333334 0.375
vt 0.5833333333333334 0.5
vt 0.5833333333333334 0.625
vt 0.5833333333333334 0.75
vt 0.5833333333333334 0.875
vt 0.5833333333333334 1
vt 0.6666666666666666 0
vt 0.6666666666666666 0.125
vt 0.6666666666666666 0.25
vt 0.6666666666666666 0.375
vt 0.6666666666666666 0.5
vt 0.6666666666666666 0.625
vt 0.6666666666666666 0.75
vt 0.6666666666666666 0.875
vt 0.6666666666666666 1
vt 0.75 0
vt 0.75 0.125
vt 0.75 0.25
vt 0.75 0.375
vt 0.75 0.5
vt 0.75 0.625
vt 0.75 0.75
vt 0.75 0.875
vt 0.75 1
vt 0.8333333333333334 0
vt 0.8333333333333334 0.125
vt 0.8333333333333334 0.25
vt 0.8333333333333334 0.375
vt 0.8333333333333334 0.5
vt 0.8333333333333334 0.625
vt 0.8333333333333334 0.75
vt 0.8333333333333334 0.875
vt 0.8333333333333334 1
vt 0.9166666666666666 0
vt 0.9166666666666666 0.125
vt 0.9166666666666666 0.25
vt 0.9166666666666666 0.375
vt 0.9166666666666666 0.5
vt 0.9166666666666666 0.625
vt 0.9166666666666666 0.75
vt 0.9166666666666666 0.875
vt 0.9166666666666666 1
vt 1 0
vt 1 0.125
vt 1 0.25
vt 1 0.375
vt 1 0.5
vt 1 0.625
vt 1 0.75
vt 1 0.875
vt 1 1
vt 0 0
vt 0.1 0
vt 0.2 0
vt 0.3 0
vt 0.4 0
vt 0.5 0
vt 0.6 0
vt 0.7 0
vt 0.8 0
vt 0.9 0
vt 0 1
vt 0.1 1
vt 0.2 1
vt 0.3 1
vt 0.4 1
vt 0.5 1
vt 0.6 1
vt 0.7 1
vt 0.8 1
vt 0.9 1
vt 0.5 0.5
vt 0.5 0.5
vt 0 0
vt 0 0.125
vt 0 0.25
vt 0 0.375
vt 0 0.5
vt 0 0.625
vt 0 0.75
vt 0 0.875
vt 0 1
vt 0.08333333333333333 0
vt 0.08333333333333333 0.125
vt 0.08333333333333333 0.25
vt 0.08333333333333333 0.375
vt 0.08333333333333333 0.5
vt 0.08333333333333333 0.625
vt 0.08333333333333333 0.75
vt 0.08333333333333333 0.875
vt 0.08333333333333333 1
vt 0.16666666666666666 0
vt 0.16666666666666666 0.125
vt 0.16666666666666666 0.25
vt 0.16666666666666666 0.375
vt 0.16666666666666666 0.5
vt 0.16666666666666666 0.625
vt 0.16666666666666666 0.75
vt 0.16666666666666666 0.875
vt 0.16666666666666666 1
vt 0.25 0
vt 0.25 0.125
vt 0.25 0.25
vt 0.25 0.375
vt 0.25 0.5
vt 0.25 0.625
vt 0.25 0.75
vt 0.25 0.875
vt 0.25 1
vt 0.3333333333333333 0
vt 0.3333333333333333 0.125
vt 0.3333333333333333 0.25
vt 0.3333333333333333 0.375
vt 0.3333333333333333 0.5
vt 0.3333333333333333 0.625
vt 0.3333333333333333 0.75
vt 0.3333333333333333 0.875
vt 0.3333333333333333 1
vt 0.4166666666666667 0
vt 0.4166666666666667 0.125
vt 0.4166666666666667 0.25
vt 0.4166666666666667 0.375
vt 0.4166666666666667 0.5
vt 0.4166666666666667 0.625
vt 0.4166666666666667 0.75
vt 0.4166666666666667 0.875
vt 0.4166666666666667 1
vt 0.5 0
vt 0.5 0.125
vt 0.5 0.25
vt 0.5 0.375
vt 0.5 0.5
vt 0.5 0.625
vt 0.5 0.75
vt 0.5 0.875
vt 0.5 1
vt 0.5833333333333334 0
vt 0.5833333333333334 0.125
vt 0.5833333333333334 0.25
vt 0.5833333333333334 0.375
vt 0.5833333333333334 0.5
vt 0.5833333333333334 0.625
vt 0.5833333333333334 0.75
vt 0.5833333333333334 0.875
vt 0.5833333333333334 1
vt 0.6666666666666666 0
vt 0.6666666666666666 0.125
vt 0.6666666666666666 0.25
vt 0.6666666666666666 0.375
vt 0.6666666666666666 0.5
vt 0.6666666666666666 0.625
vt 0.6666666666666666 0.75
vt 0.6666666666666666 0.875
vt 0.6666666666666666 1
vt 0.75 0
vt 0.75 0.125
vt 0.75 0.25
vt 0.75 0.375
vt 0.75 0.5
vt 0.75 0.625
vt 0.75 0.75
vt 0.75 0.875
vt 0.75 1
vt 0.8333333333333334 0
vt 0.8333333333333334 0.125
vt 0.8333333333333334 0.25
vt 0.8333333333333334 0.375
vt 0.8333333333333334 0.5
vt 0.8333333333333334 0.625
vt 0.8333333333333334 0.75
vt 0.8333333333333334 0.875
vt 0.8333333333333334 1
vt 0.9166666666666666 0
vt 0.9166666666666666 0.125
vt 0.9166666666666666 0.25
vt 0.9166666666666666 0.375
vt 0.9166666666666666 0.5
vt 0.9166666666666666 0.625
vt 0.9166666666666666 0.75
vt 0.9166666666666666 0.875
vt 0.9166666666666666 1
vt 1 0
vt 1 0.125
vt 1 0.25
vt 1 0.375
vt 1 0.5
vt 1 0.625
vt 1 0.75
vt 1 0.875
vt 1 1
vt 0 0
vt 0.1 0
vt 0.2 0
vt 0.3 0
vt 0.4 0
vt 0.5 0
vt 0.6 0
vt 0.7 0
vt 0.8 0
vt 0.9 0
vt 0 1
vt 0.1 1
vt 0.2 1
vt 0.3 1
vt 0.4 1
vt 0.5 1
vt 0.6 1
vt 0.7 1
vt 0.8 1
vt 0.9 1
vt 0.5 0.5
vt 0.5 0.5
vt 0.5 0.5
vt 0.5 0.5
vt 0.5 0.5
vt 0.5 0.5
vt 0.5 0.5
vt 0.5 0.5
vt 0.5 0.5
vt 0.5 0.5
vt 0.5 0.5
vt 0.5 0.5
vt 0.5 0.5
vt 0.5 0.5
vt 0.5 0.5
vt 0.5 0.5
vt 0.5 0.5
vt 0.5 0.5
vt 0 0
vt 0 0.125
vt 0 0.25
vt 0 0.375
vt 0 0.5
vt 0 0.625
vt 0 0.75
vt 0 0.875
vt 0 1
vt 0.08333333333333333 0
vt 0.08333333333333333 0.125
vt 0.08333333333333333 0.25
vt 0.08333333333333333 0.375
vt 0.08333333333333333 0.5
vt 0.08333333333333333 0.625
vt 0.08333333333333333 0.75
vt 0.08333333333333333 0.875
vt 0.08333333333333333 1
vt 0.16666666666666666 0
vt 0.16666666666666666 0.125
vt 0.16666666666666666 0.25
vt 0.16666666666666666 0.375
vt 0.16666666666666666 0.5
vt 0.16666666666666666 0.625
vt 0.16666666666666666 0.75
vt 0.16666666666666666 0.875
vt 0.16666666666666666 1
vt 0.25 0
vt 0.25 0.125
vt 0.25 0.25
vt 0.25 0.375
vt 0.25 0.5
vt 0.25 0.625
vt 0.25 0.75
vt 0.25 0.875
vt 0.25 1
vt 0.3333333333333333 0
vt 0.3333333333333333 0.125
vt 0.3333333333333333 0.25
vt 0.3333333333333333 0.375
vt 0.3333333333333333 0.5
vt 0.3333333333333333 0.625
vt 0.3333333333333333 0.75
vt 0.3333333333333333 0.875
vt 0.3333333333333333 1
vt 0.4166666666666667 0
vt 0.4166666666666667 0.125
vt 0.4166666666666667 0.25
vt 0.4166666666666667 0.375
vt 0.4166666666666667 0.5
vt 0.4166666666666667 0.625
vt 0.4166666666666667 0.75
vt 0.4166666666666667 0.875
vt 0.4166666666666667 1
vt 0.5 0
vt 0.5 0.125
vt 0.5 0.25
vt 0.5 0.375
vt 0.5 0.5
vt 0.5 0.625
vt 0.5 0.75
vt 0.5 0.875
vt 0.5 1
vt 0.5833333333333334 0
vt 0.5833333333333334 0.125
vt 0.5833333333333334 0.25
vt 0.5833333333333334 0.375
vt 0.5833333333333334 0.5
vt 0.5833333333333334 0.625
vt 0.5833333333333334 0.75
vt 0.5833333333333334 0.875
vt 0.5833333333333334 1
vt 0.6666666666666666 0
vt 0.6666666666666666 0.125
vt 0.6666666666666666 0.25
vt 0.6666666666666666 0.375
vt 0.6666666666666666 0.5
vt 0.6666666666666666 0.625
vt 0.6666666666666666 0.75
vt 0.6666666666666666 0.875
vt 0.6666666666666666 1
vt 0.75 0
vt 0.75 0.125
vt 0.75 0.25
vt 0.75 0.375
vt 0.75 0.5
vt 0.75 0.625
vt 0.75 0.75
vt 0.75 0.875
vt 0.75 1
vt 0.8333333333333334 0
vt 0.8333333333333334 0.125
vt 0.8333333333333334 0.25
vt 0.8333333333333334 0.375
vt 0.8333333333333334 0.5
vt 0.8333333333333334 0.625
vt 0.8333333333333334 0.75
vt 0.8333333333333334 0.875
vt 0.8333333333333334 1
vt 0.9166666666666666 0
vt 0.9166666666666666 0.125
vt 0.9166666666666666 0.25
vt 0.9166666666666666 0.375
vt 0.9166666666666666 0.5
vt 0.9166666666666666 0.625
vt 0.9166666666666666 0.75
vt 0.9166666666666666 0.875
vt 0.9166666666666666 1
vt 1 0
vt 1 0.125
vt 1 0.25
vt 1 0.375
vt 1 0.5
vt 1 0.625
vt 1 0.75
vt 1 0.875
vt 1 1
vt 0 0
vt 0.1 0
vt 0.2 0
vt 0.3 0
vt 0.4 0
vt 0.5 0
vt 0.6 0
vt 0.7 0
vt 0.8 0
vt 0.9 0
vt 0 1
vt 0.1 1
vt 0.2 1
vt 0.3 1
vt 0.4 1
vt 0.5 1
vt 0.6 1
vt 0.7 1
vt 0.8 1
vt 0.9 1
vt 0.5 0.5
vt 0.5 0.5
vt 0 0
vt 0 0.125
vt 0 0.25
vt 0 0.375
vt 0 0.5
vt 0 0.625
vt 0 0.75
vt 0 0.875
vt 0 1
vt 0.08333333333333333 0
vt 0.08333333333333333 0.125
vt 0.08333333333333333 0.25
vt 0.08333333333333333 0.375
vt 0.08333333333333333 0.5
vt 0.08333333333333333 0.625
vt 0.08333333333333333 0.75
vt 0.08333333333333333 0.875
vt 0.08333333333333333 1
vt 0.16666666666666666 0
vt 0.16666666666666666 0.125
vt 0.16666666666666666 0.25
vt 0.16666666666666666 0.375
vt 0.16666666666666666 0.5
vt 0.16666666666666666 0.625
vt 0.16666666666666666 0.75
vt 0.16666666666666666 0.875
vt 0.16666666666666666 1
vt 0.25 0
vt 0.25 0.125
vt 0.25 0.25
vt 0.25 0.375
vt 0.25 0.5
vt 0.25 0.625
vt 0.25 0.75
vt 0.25 0.875
vt 0.25 1
vt 0.3333333333333333 0
vt 0.3333333333333333 0.125
vt 0.3333333333333333 0.25
vt 0.3333333333333333 0.375
vt 0.3333333333333333 0.5
vt 0.3333333333333333 0.625
vt 0.3333333333333333 0.75
vt 0.3333333333333333 0.875
vt 0.3333333333333333 1
vt 0.4166666666666667 0
vt 0.4166666666666667 0.125
vt 0.4166666666666667 0.25
vt 0.4166666666666667 0.375
vt 0.4166666666666667 0.5
vt 0.4166666666666667 0.625
vt 0.4166666666666667 0.75
vt 0.4166666666666667 0.875
vt 0.4166666666666667 1
vt 0.5 0
vt 0.5 0.125
vt 0.5 0.25
vt 0.5 0.375
vt 0.5 0.5
vt 0.5 0.625
vt 0.5 0.75
vt 0.5 0.875
vt 0.5 1
vt 0.5833333333333334 0
vt 0.5833333333333334 0.125
vt 0.5833333333333334 0.25
vt 0.5833333333333334 0.375
vt 0.5833333333333334 0.5
vt 0.5833333333333334 0.625
vt 0.5833333333333334 0.75
vt 0.5833333333333334 0.875
vt 0.5833333333333334 1
vt 0.6666666666666666 0
vt 0.6666666666666666 0.125
vt 0.6666666666666666 0.25
vt 0.6666666666666666 0.375
vt 0.6666666666666666 0.5
vt 0.6666666666666666 0.625
vt 0.6666666666666666 0.75
vt 0.6666666666666666 0.875
vt 0.6666666666666666 1
vt 0.75 0
vt 0.75 0.125
vt 0.75 0.25
vt 0.75 0.375
vt 0.75 0.5
vt 0.75 0.625
vt 0.75 0.75
vt 0.75 0.875
vt 0.75 1
vt 0.8333333333333334 0
vt 0.8333333333333334 0.125
vt 0.8333333333333334 0.25
vt 0.8333333333333334 0.375
vt 0.8333333333333334 0.5
vt 0.8333333333333334 0.625
vt 0.8333333333333334 0.75
vt 0.8333333333333334 0.875
vt 0.8333333333333334 1
vt 0.9166666666666666 0
vt 0.9166666666666666 0.125
vt 0.9166666666666666 0.25
vt 0.9166666666666666 0.375
vt 0.9166666666666666 0.5
vt 0.9166666666666666 0.625
vt 0.9166666666666666 0.75
vt 0.9166666666666666 0.875
vt 0.9166666666666666 1
vt 1 0
vt 1 0.125
vt 1 0.25
vt 1 0.375
vt 1 0.5
vt 1 0.625
vt 1 0.75
vt 1 0.875
vt 1 1
vt 0 0
vt 0.1 0
vt 0.2 0
vt 0.3 0
vt 0.4 0
vt 0.5 0
vt 0.6 0
vt 0.7 0
vt 0.8 0
vt 0.9 0
vt 0 1
vt 0.1 1
vt 0.2 1
vt 0.3 1
vt 0.4 1
vt 0.5 1
vt 0.6 1
vt 0.7 1
vt 0.8 1
vt 0.9 1
vt 0.5 0.5
vt 0.5 0.5
vn 0 1 0
vn 0 1 0
vn 0 1 0
vn 0 1 0
vn 0 1 0
vn 0 1 0
vn 0 1 0
vn 0 1 0
vn 0 -1 0
vn 0 -1 0
vn 0 -1 0
vn 0 -1 0
vn 0 1 0
vn 0 1 0
vn 0 1 0
vn 0 1 0
vn 0 -1 0
vn 0 1 0
vn 0 1 0
vn 0 1 0
vn 0 1 0
vn 0 1 0
vn 0 1 0
vn 0 1 0
vn 0 1 0
vn 0 1 0
vn 0 1 0
vn 0 1 0
vn 0 1 0
vn 0 1 0
vn 0 1 0
vn 0 1 0
vn 0 1 0
vn 0 1 0
vn 0 1 0
vn 0 1 0
vn 0 1 0
vn 0 1 0
vn 0 1 0
vn 0 1 0
vn 1 0 0
vn 0.7071067811865476 0.7071067811865475 0
vn 6.123233995736766e-17 1 0
vn -0.7071067811865475 0.7071067811865476 0
vn -1 1.2246467991473532e-16 0
vn -0.7071067811865477 -0.7071067811865475 0
vn -1.8369701987210297e-16 -1 0
vn 0.7071067811865474 -0.7071067811865477 0
vn 1 -2.4492935982947064e-16 0
vn 0.8660254037844387 0 0.49999999999999994
vn 0.6123724356957946 0.7071067811865475 0.35355339059327373
vn 5.3028761936245346e-17 1 3.0616169978683824e-17
vn -0.6123724356957945 0.7071067811865476 -0.3535533905932737
vn -0.8660254037844387 1.2246467991473532e-16 -0.49999999999999994
vn -0.6123724356957947 -0.7071067811865475 -0.3535533905932738
vn -1.5908628580873602e-16 -1 -9.184850993605147e-17
vn 0.6123724356957945 -0.7071067811865477 0.3535533905932736
vn 0.8660254037844387 -2.4492935982947064e-16 0.49999999999999994
vn 0.5000000000000001 0 0.8660254037844386
vn 0.35355339059327384 0.7071067811865475 0.6123724356957946
vn 3.0616169978683836e-17 1 5.302876193624534e-17
vn -0.3535533905932738 0.7071067811865476 -0.6123724356957945
vn -0.5000000000000001 1.2246467991473532e-16 -0.8660254037844386
vn -0.3535533905932739 -0.7071067811865475 -0.6123724356957946
vn -9.184850993605151e-17 -1 -1.5908628580873602e-16
vn 0.35355339059327373 -0.7071067811865477 0.6123724356957944
vn 0.5000000000000001 -2.4492935982947064e-16 0.8660254037844386
vn 6.123233995736766e-17 0 1
vn 4.329780281177467e-17 0.7071067811865475 0.7071067811865476
vn 3.749399456654644e-33 1 6.123233995736766e-17
vn -4.329780281177466e-17 0.7071067811865476 -0.7071067811865475
vn -6.123233995736766e-17 1.2246467991473532e-16 -1
vn -4.3297802811774677e-17 -0.7071067811865475 -0.7071067811865477
vn -1.1248198369963932e-32 -1 -1.8369701987210297e-16
vn 4.329780281177465e-17 -0.7071067811865477 0.7071067811865474
vn 6.123233995736766e-17 -2.4492935982947064e-16 1
vn -0.4999999999999998 0 0.8660254037844387
vn -0.3535533905932736 0.7071067811865475 0.6123724356957946
vn -3.061616997868382e-17 1 5.3028761936245346e-17
vn 0.35355339059327356 0.7071067811865476 -0.6123724356957945
vn 0.4999999999999998 1.2246467991473532e-16 -0.8660254037844387
vn 0.3535533905932737 -0.7071067811865475 -0.6123724356957947
vn 9.184850993605145e-17 -1 -1.5908628580873602e-16
vn -0.3535533905932735 -0.7071067811865477 0.6123724356957945
vn -0.4999999999999998 -2.4492935982947064e-16 0.8660254037844387
vn -0.8660254037844387 0 0.49999999999999994
vn -0.6123724356957946 0.7071067811865475 0.35355339059327373
vn -5.3028761936245346e-17 1 3.0616169978683824e-17
vn 0.6123724356957945 0.7071067811865476 -0.3535533905932737
vn 0.8660254037844387 1.2246467991473532e-16 -0.49999999999999994
vn 0.6123724356957947 -0.7071067811865475 -0.3535533905932738
vn 1.5908628580873602e-16 -1 -9.184850993605147e-17
vn -0.6123724356957945 -0.7071067811865477 0.3535533905932736
vn -0.8660254037844387 -2.4492935982947064e-16 0.49999999999999994
vn -1 0 1.2246467991473532e-16
vn -0.7071067811865476 0.7071067811865475 8.659560562354934e-17
vn -6.123233995736766e-17 1 7.498798913309288e-33
vn 0.7071067811865475 0.7071067811865476 -8.659560562354932e-17
vn 1 1.2246467991473532e-16 -1.2246467991473532e-16
vn 0.7071067811865477 -0.7071067811865475 -8.659560562354935e-17
vn 1.8369701987210297e-16 -1 -2.2496396739927864e-32
vn -0.7071067811865474 -0.7071067811865477 8.65956056235493e-17
vn -1 -2.4492935982947064e-16 1.2246467991473532e-16
vn -0.8660254037844386 0 -0.5000000000000001
vn -0.6123724356957946 0.7071067811865475 -0.35355339059327384
vn -5.302876193624534e-17 1 -3.0616169978683836e-17
vn 0.6123724356957945 0.7071067811865476 0.3535533905932738
vn 0.8660254037844386 1.2246467991473532e-16 0.5000000000000001
vn 0.6123724356957946 -0.7071067811865475 0.3535533905932739
vn 1.5908628580873602e-16 -1 9.184850993605151e-17
vn -0.6123724356957944 -0.7071067811865477 -0.35355339059327373
vn -0.8660254037844386 -2.4492935982947064e-16 -0.5000000000000001
vn -0.5000000000000004 0 -0.8660254037844385
vn -0.3535533905932741 0.7071067811865475 -0.6123724356957945
vn -3.0616169978683855e-17 1 -5.3028761936245333e-17
vn 0.35355339059327406 0.7071067811865476 0.6123724356957944
vn 0.5000000000000004 1.2246467991473532e-16 0.8660254037844385
vn 0.3535533905932742 -0.7071067811865475 0.6123724356957946
vn 9.184850993605157e-17 -1 1.59086285808736e-16
vn -0.353553390593274 -0.7071067811865477 -0.6123724356957942
vn -0.5000000000000004 -2.4492935982947064e-16 -0.8660254037844385
vn -1.8369701987210297e-16 0 -1
vn -1.29893408435324e-16 0.7071067811865475 -0.7071067811865476
vn -1.1248198369963932e-32 1 -6.123233995736766e-17
vn 1.2989340843532398e-16 0.7071067811865476 0.7071067811865475
vn 1.8369701987210297e-16 1.2246467991473532e-16 1
vn 1.29893408435324e-16 -0.7071067811865475 0.7071067811865477
vn 3.374459510989179e-32 -1 1.8369701987210297e-16
vn -1.2989340843532396e-16 -0.7071067811865477 -0.7071067811865474
vn -1.8369701987210297e-16 -2.4492935982947064e-16 -1
vn 0.5000000000000001 0 -0.8660254037844386
vn 0.35355339059327384 0.7071067811865475 -0.6123724356957946
vn 3.0616169978683836e-17 1 -5.302876193624534e-17
vn -0.3535533905932738 0.7071067811865476 0.6123724356957945
vn -0.5000000000000001 1.2246467991473532e-16 0.8660254037844386
vn -0.3535533905932739 -0.7071067811865475 0.6123724356957946
vn -9.184850993605151e-17 -1 1.5908628580873602e-16
vn 0.35355339059327373 -0.7071067811865477 -0.6123724356957944
vn 0.5000000000000001 -2.4492935982947064e-16 -0.8660254037844386
vn 0.8660254037844384 0 -0.5000000000000004
vn 0.6123724356957944 0.7071067811865475 -0.3535533905932741
vn 5.302876193624533e-17 1 -3.0616169978683855e-17
vn -0.6123724356957942 0.7071067811865476 0.35355339059327406
vn -0.8660254037844384 1.2246467991473532e-16 0.5000000000000004
vn -0.6123724356957945 -0.7071067811865475 0.3535533905932742
vn -1.5908628580873598e-16 -1 9.184850993605157e-17
vn 0.6123724356957941 -0.7071067811865477 -0.353553390593274
vn 0.8660254037844384 -2.4492935982947064e-16 -0.5000000000000004
vn 1 0 -2.4492935982947064e-16
vn 0.7071067811865476 0.7071067811865475 -1.7319121124709868e-16
vn 6.123233995736766e-17 1 -1.4997597826618576e-32
vn -0.7071067811865475 0.7071067811865476 1.7319121124709863e-16
vn -1 1.2246467991473532e-16 2.4492935982947064e-16
vn -0.7071067811865477 -0.7071067811865475 1.731912112470987e-16
vn -1.8369701987210297e-16 -1 4.499279347985573e-32
vn 0.7071067811865474 -0.7071067811865477 -1.731912112470986e-16
vn 1 -2.4492935982947064e-16 -2.4492935982947064e-16
vn 0 -1 0
vn 0 -1 0
vn 0 -1 0
vn 0 -1 0
vn 0 -1 0
vn 0 -1 0
vn 0 -1 0
vn 0 -1 0
vn 0 -1 0
vn 0 -1 0
vn 0 1 0
vn 0 1 0
vn 0 1 0
vn 0 1 0
vn 0 1 0
vn 0 1 0
vn 0 1 0
vn 0 1 0
vn 0 1 0
vn 0 1 0
vn 0 -1 0
vn 0 1 0
vn 1 0 0
vn 0.7071067811865476 0.7071067811865475 0
vn 6.123233995736766e-17 1 0
vn -0.7071067811865475 0.7071067811865476 0
vn -1 1.2246467991473532e-16 0
vn -0.7071067811865477 -0.7071067811865475 0
vn -1.8369701987210297e-16 -1 0
vn 0.7071067811865474 -0.7071067811865477 0
vn 1 -2.4492935982947064e-16 0
vn 0.8660254037844387 0 0.49999999999999994
vn 0.6123724356957946 0.7071067811865475 0.35355339059327373
vn 5.3028761936245346e-17 1 3.0616169978683824e-17
vn -0.6123724356957945 0.7071067811865476 -0.3535533905932737
vn -0.8660254037844387 1.2246467991473532e-16 -0.49999999999999994
vn -0.6123724356957947 -0.7071067811865475 -0.3535533905932738
vn -1.5908628580873602e-16 -1 -9.184850993605147e-17
vn 0.6123724356957945 -0.7071067811865477 0.3535533905932736
vn 0.8660254037844387 -2.4492935982947064e-16 0.49999999999999994
vn 0.5000000000000001 0 0.8660254037844386
vn 0.35355339059327384 0.7071067811865475 0.6123724356957946
vn 3.0616169978683836e-17 1 5.302876193624534e-17
vn -0.3535533905932738 0.7071067811865476 -0.6123724356957945
vn -0.5000000000000001 1.2246467991473532e-16 -0.8660254037844386
vn -0.3535533905932739 -0.7071067811865475 -0.6123724356957946
vn -9.184850993605151e-17 -1 -1.5908628580873602e-16
vn 0.35355339059327373 -0.7071067811865477 0.6123724356957944
vn 0.5000000000000001 -2.4492935982947064e-16 0.8660254037844386
vn 6.123233995736766e-17 0 1
vn 4.329780281177467e-17 0.7071067811865475 0.7071067811865476
vn 3.749399456654644e-33 1 6.123233995736766e-17
vn -4.329780281177466e-17 0.7071067811865476 -0.7071067811865475
vn -6.123233995736766e-17 1.2246467991473532e-16 -1
vn -4.3297802811774677e-17 -0.7071067811865475 -0.7071067811865477
vn -1.1248198369963932e-32 -1 -1.8369701987210297e-16
vn 4.329780281177465e-17 -0.7071067811865477 0.7071067811865474
vn 6.123233995736766e-17 -2.4492935982947064e-16 1
vn -0.4999999999999998 0 0.8660254037844387
vn -0.3535533905932736 0.7071067811865475 0.6123724356957946
vn -3.061616997868382e-17 1 5.3028761936245346e-17
vn 0.35355339059327356 0.7071067811865476 -0.6123724356957945
vn 0.4999999999999998 1.2246467991473532e-16 -0.8660254037844387
vn 0.3535533905932737 -0.7071067811865475 -0.6123724356957947
vn 9.184850993605145e-17 -1 -1.5908628580873602e-16
vn -0.3535533905932735 -0.7071067811865477 0.6123724356957945
vn -0.4999999999999998 -2.4492935982947064e-16 0.8660254037844387
vn -0.8660254037844387 0 0.49999999999999994
vn -0.6123724356957946 0.7071067811865475 0.35355339059327373
vn -5.3028761936245346e-17 1 3.0616169978683824e-17
vn 0.6123724356957945 0.7071067811865476 -0.3535533905932737
vn 0.8660254037844387 1.2246467991473532e-16 -0.49999999999999994
vn 0.6123724356957947 -0.7071067811865475 -0.3535533905932738
vn 1.5908628580873602e-16 -1 -9.184850993605147e-17
vn -0.6123724356957945 -0.7071067811865477 0.3535533905932736
vn -0.8660254037844387 -2.4492935982947064e-16 0.49999999999999994
vn -1 0 1.2246467991473532e-16
vn -0.7071067811865476 0.7071067811865475 8.659560562354934e-17
vn -6.123233995736766e-17 1 7.498798913309288e-33
vn 0.7071067811865475 0.7071067811865476 -8.659560562354932e-17
vn 1 1.2246467991473532e-16 -1.2246467991473532e-16
vn 0.7071067811865477 -0.7071067811865475 -8.659560562354935e-17
vn 1.8369701987210297e-16 -1 -2.2496396739927864e-32
vn -0.7071067811865474 -0.7071067811865477 8.65956056235493e-17
vn -1 -2.4492935982947064e-16 1.2246467991473532e-16
vn -0.8660254037844386 0 -0.5000000000000001
vn -0.6123724356957946 0.7071067811865475 -0.35355339059327384
vn -5.302876193624534e-17 1 -3.0616169978683836e-17
vn 0.6123724356957945 0.7071067811865476 0.3535533905932738
vn 0.8660254037844386 1.2246467991473532e-16 0.5000000000000001
vn 0.6123724356957946 -0.7071067811865475 0.3535533905932739
vn 1.5908628580873602e-16 -1 9.184850993605151e-17
vn -0.6123724356957944 -0.7071067811865477 -0.35355339059327373
vn -0.8660254037844386 -2.4492935982947064e-16 -0.5000000000000001
vn -0.5000000000000004 0 -0.8660254037844385
vn -0.3535533905932741 0.7071067811865475 -0.6123724356957945
vn -3.0616169978683855e-17 1 -5.3028761936245333e-17
vn 0.35355339059327406 0.7071067811865476 0.6123724356957944
vn 0.5000000000000004 1.2246467991473532e-16 0.8660254037844385
vn 0.3535533905932742 -0.7071067811865475 0.6123724356957946
vn 9.184850993605157e-17 -1 1.59086285808736e-16
vn -0.353553390593274 -0.7071067811865477 -0.6123724356957942
vn -0.5000000000000004 -2.4492935982947064e-16 -0.8660254037844385
vn -1.8369701987210297e-16 0 -1
vn -1.29893408435324e-16 0.7071067811865475 -0.7071067811865476
vn -1.1248198369963932e-32 1 -6.123233995736766e-17
vn 1.2989340843532398e-16 0.7071067811865476 0.7071067811865475
vn 1.8369701987210297e-16 1.2246467991473532e-16 1
vn 1.29893408435324e-16 -0.7071067811865475 0.7071067811865477
vn 3.374459510989179e-32 -1 1.8369701987210297e-16
vn -1.2989340843532396e-16 -0.7071067811865477 -0.7071067811865474
vn -1.8369701987210297e-16 -2.4492935982947064e-16 -1
vn 0.5000000000000001 0 -0.8660254037844386
vn 0.35355339059327384 0.7071067811865475 -0.6123724356957946
vn 3.0616169978683836e-17 1 -5.302876193624534e-17
vn -0.3535533905932738 0.7071067811865476 0.6123724356957945
vn -0.5000000000000001 1.2246467991473532e-16 0.8660254037844386
vn -0.3535533905932739 -0.7071067811865475 0.6123724356957946
vn -9.184850993605151e-17 -1 1.5908628580873602e-16
vn 0.35355339059327373 -0.7071067811865477 -0.6123724356957944
vn 0.5000000000000001 -2.4492935982947064e-16 -0.8660254037844386
vn 0.8660254037844384 0 -0.5000000000000004
vn 0.6123724356957944 0.7071067811865475 -0.3535533905932741
vn 5.302876193624533e-17 1 -3.0616169978683855e-17
vn -0.6123724356957942 0.7071067811865476 0.35355339059327406
vn -0.8660254037844384 1.2246467991473532e-16 0.5000000000000004
vn -0.6123724356957945 -0.7071067811865475 0.3535533905932742
vn -1.5908628580873598e-16 -1 9.184850993605157e-17
vn 0.6123724356957941 -0.7071067811865477 -0.353553390593274
vn 0.8660254037844384 -2.4492935982947064e-16 -0.5000000000000004
vn 1 0 -2.4492935982947064e-16
vn 0.7071067811865476 0.7071067811865475 -1.7319121124709868e-16
vn 6.123233995736766e-17 1 -1.4997597826618576e-32
vn -0.7071067811865475 0.7071067811865476 1.7319121124709863e-16
vn -1 1.2246467991473532e-16 2.4492935982947064e-16
vn -0.7071067811865477 -0.7071067811865475 1.731912112470987e-16
vn -1.8369701987210297e-16 -1 4.499279347985573e-32
vn 0.7071067811865474 -0.7071067811865477 -1.731912112470986e-16
vn 1 -2.4492935982947064e-16 -2.4492935982947064e-16
vn 0 -1 0
vn 0 -1 0
vn 0 -1 0
vn 0 -1 0
vn 0 -1 0
vn 0 -1 0
vn 0 -1 0
vn 0 -1 0
vn 0 -1 0
vn 0 -1 0
vn 0 1 0
vn 0 1 0
vn 0 1 0
vn 0 1 0
vn 0 1 0
vn 0 1 0
vn 0 1 0
vn 0 1 0
vn 0 1 0
vn 0 1 0
vn 0 -1 0
vn 0 1 0
vn 0 1 0
vn 0 1 0
vn 0 1 0
vn 0 1 0
vn 0 1 0
vn 0 1 0
vn 0 1 0
vn 0 1 0
vn 0 1 0
vn 0 1 0
vn 0 1 0
vn 0 1 0
vn 0 1 0
vn 0 1 0
vn 0 1 0
vn 0 1 0
vn 1 0 0
vn 0.7071067811865476 0.7071067811865475 0
vn 6.123233995736766e-17 1 0
vn -0.7071067811865475 0.7071067811865476 0
vn -1 1.2246467991473532e-16 0
vn -0.7071067811865477 -0.7071067811865475 0
vn -1.8369701987210297e-16 -1 0
vn 0.7071067811865474 -0.7071067811865477 0
vn 1 -2.4492935982947064e-16 0
vn 0.8660254037844387 0 0.49999999999999994
vn 0.6123724356957946 0.7071067811865475 0.35355339059327373
vn 5.3028761936245346e-17 1 3.0616169978683824e-17
vn -0.6123724356957945 0.7071067811865476 -0.3535533905932737
vn -0.8660254037844387 1.2246467991473532e-16 -0.49999999999999994
vn -0.6123724356957947 -0.7071067811865475 -0.3535533905932738
vn -1.5908628580873602e-16 -1 -9.184850993605147e-17
vn 0.6123724356957945 -0.7071067811865477 0.3535533905932736
vn 0.8660254037844387 -2.4492935982947064e-16 0.49999999999999994
vn 0.5000000000000001 0 0.8660254037844386
vn 0.35355339059327384 0.7071067811865475 0.6123724356957946
vn 3.0616169978683836e-17 1 5.302876193624534e-17
vn -0.3535533905932738 0.7071067811865476 -0.6123724356957945
vn -0.5000000000000001 1.2246467991473532e-16 -0.8660254037844386
vn -0.3535533905932739 -0.7071067811865475 -0.6123724356957946
vn -9.184850993605151e-17 -1 -1.5908628580873602e-16
vn 0.35355339059327373 -0.7071067811865477 0.6123724356957944
vn 0.5000000000000001 -2.4492935982947064e-16 0.8660254037844386
vn 6.123233995736766e-17 0 1
vn 4.329780281177467e-17 0.7071067811865475 0.7071067811865476
vn 3.749399456654644e-33 1 6.123233995736766e-17
vn -4.329780281177466e-17 0.7071067811865476 -0.7071067811865475
vn -6.123233995736766e-17 1.2246467991473532e-16 -1
vn -4.3297802811774677e-17 -0.7071067811865475 -0.7071067811865477
vn -1.1248198369963932e-32 -1 -1.8369701987210297e-16
vn 4.329780281177465e-17 -0.7071067811865477 0.7071067811865474
vn 6.123233995736766e-17 -2.4492935982947064e-16 1
vn -0.4999999999999998 0 0.8660254037844387
vn -0.3535533905932736 0.7071067811865475 0.6123724356957946
vn -3.061616997868382e-17 1 5.3028761936245346e-17
vn 0.35355339059327356 0.7071067811865476 -0.6123724356957945
vn 0.4999999999999998 1.2246467991473532e-16 -0.8660254037844387
vn 0.3535533905932737 -0.7071067811865475 -0.6123724356957947
vn 9.184850993605145e-17 -1 -1.5908628580873602e-16
vn -0.3535533905932735 -0.7071067811865477 0.6123724356957945
vn -0.4999999999999998 -2.4492935982947064e-16 0.8660254037844387
vn -0.8660254037844387 0 0.49999999999999994
vn -0.6123724356957946 0.7071067811865475 0.35355339059327373
vn -5.3028761936245346e-17 1 3.0616169978683824e-17
vn 0.6123724356957945 0.7071067811865476 -0.3535533905932737
vn 0.8660254037844387 1.2246467991473532e-16 -0.49999999999999994
vn 0.6123724356957947 -0.7071067811865475 -0.3535533905932738
vn 1.5908628580873602e-16 -1 -9.184850993605147e-17
vn -0.6123724356957945 -0.7071067811865477 0.3535533905932736
vn -0.8660254037844387 -2.4492935982947064e-16 0.49999999999999994
vn -1 0 1.2246467991473532e-16
vn -0.7071067811865476 0.7071067811865475 8.659560562354934e-17
vn -6.123233995736766e-17 1 7.498798913309288e-33
vn 0.7071067811865475 0.7071067811865476 -8.659560562354932e-17
vn 1 1.2246467991473532e-16 -1.2246467991473532e-16
vn 0.7071067811865477 -0.7071067811865475 -8.659560562354935e-17
vn 1.8369701987210297e-16 -1 -2.2496396739927864e-32
vn -0.7071067811865474 -0.7071067811865477 8.65956056235493e-17
vn -1 -2.4492935982947064e-16 1.2246467991473532e-16
vn -0.8660254037844386 0 -0.5000000000000001
vn -0.6123724356957946 0.7071067811865475 -0.35355339059327384
vn -5.302876193624534e-17 1 -3.0616169978683836e-17
vn 0.6123724356957945 0.7071067811865476 0.3535533905932738
vn 0.8660254037844386 1.2246467991473532e-16 0.5000000000000001
vn 0.6123724356957946 -0.7071067811865475 0.3535533905932739
vn 1.5908628580873602e-16 -1 9.184850993605151e-17
vn -0.6123724356957944 -0.7071067811865477 -0.35355339059327373
vn -0.8660254037844386 -2.4492935982947064e-16 -0.5000000000000001
vn -0.5000000000000004 0 -0.8660254037844385
vn -0.3535533905932741 0.7071067811865475 -0.6123724356957945
vn -3.0616169978683855e-17 1 -5.3028761936245333e-17
vn 0.35355339059327406 0.7071067811865476 0.6123724356957944
vn 0.5000000000000004 1.2246467991473532e-16 0.8660254037844385
vn 0.3535533905932742 -0.7071067811865475 0.6123724356957946
vn 9.184850993605157e-17 -1 1.59086285808736e-16
vn -0.353553390593274 -0.7071067811865477 -0.6123724356957942
vn -0.5000000000000004 -2.4492935982947064e-16 -0.8660254037844385
vn -1.8369701987210297e-16 0 -1
vn -1.29893408435324e-16 0.7071067811865475 -0.7071067811865476
vn -1.1248198369963932e-32 1 -6.123233995736766e-17
vn 1.2989340843532398e-16 0.7071067811865476 0.7071067811865475
vn 1.8369701987210297e-16 1.2246467991473532e-16 1
vn 1.29893408435324e-16 -0.7071067811865475 0.7071067811865477
vn 3.374459510989179e-32 -1 1.8369701987210297e-16
vn -1.2989340843532396e-16 -0.7071067811865477 -0.7071067811865474
vn -1.8369701987210297e-16 -2.4492935982947064e-16 -1
vn 0.5000000000000001 0 -0.8660254037844386
vn 0.35355339059327384 0.7071067811865475 -0.6123724356957946
vn 3.0616169978683836e-17 1 -5.302876193624534e-17
vn -0.3535533905932738 0.7071067811865476 0.6123724356957945
vn -0.5000000000000001 1.2246467991473532e-16 0.8660254037844386
vn -0.3535533905932739 -0.7071067811865475 0.6123724356957946
vn -9.184850993605151e-17 -1 1.5908628580873602e-16
vn 0.35355339059327373 -0.7071067811865477 -0.6123724356957944
vn 0.5000000000000001 -2.4492935982947064e-16 -0.8660254037844386
vn 0.8660254037844384 0 -0.5000000000000004
vn 0.6123724356957944 0.7071067811865475 -0.3535533905932741
vn 5.302876193624533e-17 1 -3.0616169978683855e-17
vn -0.6123724356957942 0.7071067811865476 0.35355339059327406
vn -0.8660254037844384 1.2246467991473532e-16 0.5000000000000004
vn -0.6123724356957945 -0.7071067811865475 0.3535533905932742
vn -1.5908628580873598e-16 -1 9.184850993605157e-17
vn 0.6123724356957941 -0.7071067811865477 -0.353553390593274
vn 0.8660254037844384 -2.4492935982947064e-16 -0.5000000000000004
vn 1 0 -2.4492935982947064e-16
vn 0.7071067811865476 0.7071067811865475 -1.7319121124709868e-16
vn 6.123233995736766e-17 1 -1.4997597826618576e-32
vn -0.7071067811865475 0.7071067811865476 1.7319121124709863e-16
vn -1 1.2246467991473532e-16 2.4492935982947064e-16
vn -0.7071067811865477 -0.7071067811865475 1.731912112470987e-16
vn -1.8369701987210297e-16 -1 4.499279347985573e-32
vn 0.7071067811865474 -0.7071067811865477 -1.731912112470986e-16
vn 1 -2.4492935982947064e-16 -2.4492935982947064e-16
vn 0 -1 0
vn 0 -1 0
vn 0 -1 0
vn 0 -1 0
vn 0 -1 0
vn 0 -1 0
vn 0 -1 0
vn 0 -1 0
vn 0 -1 0
vn 0 -1 0
vn 0 1 0
vn 0 1 0
vn 0 1 0
vn 0 1 0
vn 0 1 0
vn 0 1 0
vn 0 1 0
vn 0 1 0
vn 0 1 0
vn 0 1 0
vn 0 -1 0
vn 0 1 0
vn 1 0 0
vn 0.7071067811865476 0.7071067811865475 0
vn 6.123233995736766e-17 1 0
vn -0.7071067811865475 0.7071067811865476 0
vn -1 1.2246467991473532e-16 0
vn -0.7071067811865477 -0.7071067811865475 0
vn -1.8369701987210297e-16 -1 0
vn 0.7071067811865474 -0.7071067811865477 0
vn 1 -2.4492935982947064e-16 0
vn 0.8660254037844387 0 0.49999999999999994
vn 0.6123724356957946 0.7071067811865475 0.35355339059327373
vn 5.3028761936245346e-17 1 3.0616169978683824e-17
vn -0.6123724356957945 0.7071067811865476 -0.3535533905932737
vn -0.8660254037844387 1.2246467991473532e-16 -0.49999999999999994
vn -0.6123724356957947 -0.7071067811865475 -0.3535533905932738
vn -1.5908628580873602e-16 -1 -9.184850993605147e-17
vn 0.6123724356957945 -0.7071067811865477 0.3535533905932736
vn 0.8660254037844387 -2.4492935982947064e-16 0.49999999999999994
vn 0.5000000000000001 0 0.8660254037844386
vn 0.35355339059327384 0.7071067811865475 0.6123724356957946
vn 3.0616169978683836e-17 1 5.302876193624534e-17
vn -0.3535533905932738 0.7071067811865476 -0.6123724356957945
vn -0.5000000000000001 1.2246467991473532e-16 -0.8660254037844386
vn -0.3535533905932739 -0.7071067811865475 -0.6123724356957946
vn -9.184850993605151e-17 -1 -1.5908628580873602e-16
vn 0.35355339059327373 -0.7071067811865477 0.6123724356957944
vn 0.5000000000000001 -2.4492935982947064e-16 0.8660254037844386
vn 6.123233995736766e-17 0 1
vn 4.329780281177467e-17 0.7071067811865475 0.7071067811865476
vn 3.749399456654644e-33 1 6.123233995736766e-17
vn -4.329780281177466e-17 0.7071067811865476 -0.7071067811865475
vn -6.123233995736766e-17 1.2246467991473532e-16 -1
vn -4.3297802811774677e-17 -0.7071067811865475 -0.7071067811865477
vn -1.1248198369963932e-32 -1 -1.8369701987210297e-16
vn 4.329780281177465e-17 -0.7071067811865477 0.7071067811865474
vn 6.123233995736766e-17 -2.4492935982947064e-16 1
vn -0.4999999999999998 0 0.8660254037844387
vn -0.3535533905932736 0.7071067811865475 0.6123724356957946
vn -3.061616997868382e-17 1 5.3028761936245346e-17
vn 0.35355339059327356 0.7071067811865476 -0.6123724356957945
vn 0.4999999999999998 1.2246467991473532e-16 -0.8660254037844387
vn 0.3535533905932737 -0.7071067811865475 -0.6123724356957947
vn 9.184850993605145e-17 -1 -1.5908628580873602e-16
vn -0.3535533905932735 -0.7071067811865477 0.6123724356957945
vn -0.4999999999999998 -2.4492935982947064e-16 0.8660254037844387
vn -0.8660254037844387 0 0.49999999999999994
vn -0.6123724356957946 0.7071067811865475 0.35355339059327373
vn -5.3028761936245346e-17 1 3.0616169978683824e-17
vn 0.6123724356957945 0.7071067811865476 -0.3535533905932737
vn 0.8660254037844387 1.2246467991473532e-16 -0.49999999999999994
vn 0.6123724356957947 -0.7071067811865475 -0.3535533905932738
vn 1.5908628580873602e-16 -1 -9.184850993605147e-17
vn -0.6123724356957945 -0.7071067811865477 0.3535533905932736
vn -0.8660254037844387 -2.4492935982947064e-16 0.49999999999999994
vn -1 0 1.2246467991473532e-16
vn -0.7071067811865476 0.7071067811865475 8.659560562354934e-17
vn -6.123233995736766e-17 1 7.498798913309288e-33
vn 0.7071067811865475 0.7071067811865476 -8.659560562354932e-17
vn 1 1.2246467991473532e-16 -1.2246467991473532e-16
vn 0.7071067811865477 -0.7071067811865475 -8.659560562354935e-17
vn 1.8369701987210297e-16 -1 -2.2496396739927864e-32
vn -0.7071067811865474 -0.7071067811865477 8.65956056235493e-17
vn -1 -2.4492935982947064e-16 1.2246467991473532e-16
vn -0.8660254037844386 0 -0.5000000000000001
vn -0.6123724356957946 0.7071067811865475 -0.35355339059327384
vn -5.302876193624534e-17 1 -3.0616169978683836e-17
vn 0.6123724356957945 0.7071067811865476 0.3535533905932738
vn 0.8660254037844386 1.2246467991473532e-16 0.5000000000000001
vn 0.6123724356957946 -0.7071067811865475 0.3535533905932739
vn 1.5908628580873602e-16 -1 9.184850993605151e-17
vn -0.6123724356957944 -0.7071067811865477 -0.35355339059327373
vn -0.8660254037844386 -2.4492935982947064e-16 -0.5000000000000001
vn -0.5000000000000004 0 -0.8660254037844385
vn -0.3535533905932741 0.7071067811865475 -0.6123724356957945
vn -3.0616169978683855e-17 1 -5.3028761936245333e-17
vn 0.35355339059327406 0.7071067811865476 0.6123724356957944
vn 0.5000000000000004 1.2246467991473532e-16 0.8660254037844385
vn 0.3535533905932742 -0.7071067811865475 0.6123724356957946
vn 9.184850993605157e-17 -1 1.59086285808736e-16
vn -0.353553390593274 -0.7071067811865477 -0.6123724356957942
vn -0.5000000000000004 -2.4492935982947064e-16 -0.8660254037844385
vn -1.8369701987210297e-16 0 -1
vn -1.29893408435324e-16 0.7071067811865475 -0.7071067811865476
vn -1.1248198369963932e-32 1 -6.123233995736766e-17
vn 1.2989340843532398e-16 0.7071067811865476 0.7071067811865475
vn 1.8369701987210297e-16 1.2246467991473532e-16 1
vn 1.29893408435324e-16 -0.7071067811865475 0.7071067811865477
vn 3.374459510989179e-32 -1 1.8369701987210297e-16
vn -1.2989340843532396e-16 -0.7071067811865477 -0.7071067811865474
vn -1.8369701987210297e-16 -2.4492935982947064e-16 -1
vn 0.5000000000000001 0 -0.8660254037844386
vn 0.35355339059327384 0.7071067811865475 -0.6123724356957946
vn 3.0616169978683836e-17 1 -5.302876193624534e-17
vn -0.3535533905932738 0.7071067811865476 0.6123724356957945
vn -0.5000000000000001 1.2246467991473532e-16 0.8660254037844386
vn -0.3535533905932739 -0.7071067811865475 0.6123724356957946
vn -9.184850993605151e-17 -1 1.5908628580873602e-16
vn 0.35355339059327373 -0.7071067811865477 -0.6123724356957944
vn 0.5000000000000001 -2.4492935982947064e-16 -0.8660254037844386
vn 0.8660254037844384 0 -0.5000000000000004
vn 0.6123724356957944 0.7071067811865475 -0.3535533905932741
vn 5.302876193624533e-17 1 -3.0616169978683855e-17
vn -0.6123724356957942 0.7071067811865476 0.35355339059327406
vn -0.8660254037844384 1.2246467991473532e-16 0.5000000000000004
vn -0.6123724356957945 -0.7071067811865475 0.3535533905932742
vn -1.5908628580873598e-16 -1 9.184850993605157e-17
vn 0.6123724356957941 -0.7071067811865477 -0.353553390593274
vn 0.8660254037844384 -2.4492935982947064e-16 -0.5000000000000004
vn 1 0 -2.4492935982947064e-16
vn 0.7071067811865476 0.7071067811865475 -1.7319121124709868e-16
vn 6.123233995736766e-17 1 -1.4997597826618576e-32
vn -0.7071067811865475 0.7071067811865476 1.7319121124709863e-16
vn -1 1.2246467991473532e-16 2.4492935982947064e-16
vn -0.7071067811865477 -0.7071067811865475 1.731912112470987e-16
vn -1.8369701987210297e-16 -1 4.499279347985573e-32
vn 0.7071067811865474 -0.7071067811865477 -1.731912112470986e-16
vn 1 -2.4492935982947064e-16 -2.4492935982947064e-16
vn 0 -1 0
vn 0 -1 0
vn 0 -1 0
vn 0 -1 0
vn 0 -1 0
vn 0 -1 0
vn 0 -1 0
vn 0 -1 0
vn 0 -1 0
vn 0 -1 0
vn 0 1 0
vn 0 1 0
vn 0 1 0
vn 0 1 0
vn 0 1 0
vn 0 1 0
vn 0 1 0
vn 0 1 0
vn 0 1 0
vn 0 1 0
vn 0 -1 0
vn 0 1 0
f 1/1/1 3/3/3 2/2/2
f 1/1/1 4/4/4 3/3/3
f 5/5/5 6/6/6 7/7/7
f 5/5/5 7/7/7 8/8/8
f 1/1/1 2/2/2 6/6/6
f 1/1/1 6/6/6 5/5/5
f 3/3/3 4/4/4 8/8/8
f 3/3/3 8/8/8 7/7/7
f 1/1/1 5/5/5 8/8/8
f 1/1/1 8/8/8 4/4/4
f 2/2/2 3/3/3 7/7/7
f 2/2/2 7/7/7 6/6/6
f 9/9/9 10/10/10 14/14/14
f 9/9/9 14/14/14 13/13/13
f 17/17/17 10/10/10 9/9/9
f 18/18/18 13/13/13 14/14/14
f 10/10/10 11/11/11 15/15/15
f 10/10/10 15/15/15 14/14/14
f 17/17/17 11/11/11 10/10/10
f 18/18/18 14/14/14 15/15/15
f 11/11/11 12/12/12 16/16/16
f 11/11/11 16/16/16 15/15/15
f 17/17/17 12/12/12 11/11/11
f 18/18/18 15/15/15 16/16/16
f 12/12/12 9/9/9 13/13/13
f 12/12/12 13/13/13 16/16/16
f 17/17/17 9/9/9 12/12/12
f 18/18/18 16/16/16 13/13/13
f 19/19/19 21/21/21 20/20/20
f 19/19/19 22/22/22 21/21/21
f 19/19/19 20/20/20 24/24/24
f 19/19/19 24/24/24 23/23/23
f 21/21/21 22/22/22 23/23/23
f 21/21/21 23/23/23 24/24/24
f 19/19/19 23/23/23 22/22/22
f 20/20/20 21/21/21 24/24/24
f 25/25/25 27/27/27 26/26/26
f 25/25/25 28/28/28 27/27/27
f 29/29/29 30/30/30 31/31/31
f 29/29/29 31/31/31 32/32/32
f 25/25/25 26/26/26 30/30/30
f 25/25/25 30/30/30 29/29/29
f 27/27/27 28/28/28 32/32/32
f 27/27/27 32/32/32 31/31/31
f 25/25/25 29/29/29 32/32/32
f 25/25/25 32/32/32 28/28/28
f 26/26/26 27/27/27 31/31/31
f 26/26/26 31/31/31 30/30/30
f 33/33/33 35/35/35 34/34/34
f 33/33/33 36/36/36 35/35/35
f 37/37/37 38/38/38 39/39/39
f 37/37/37 39/39/39 40/40/40
f 33/33/33 34/34/34 38/38/38
f 33/33/33 38/38/38 37/37/37
f 35/35/35 36/36/36 40/40/40
f 35/35/35 40/40/40 39/39/39
f 33/33/33 37/37/37 40/40/40
f 33/33/33 40/40/40 36/36/36
f 34/34/34 35/35/35 39/39/39
f 34/34/34 39/39/39 38/38/38
f 41/41/41 50/50/50 51/51/51
f 41/41/41 51/51/51 42/42/42
f 42/42/42 51/51/51 52/52/52
f 42/42/42 52/52/52 43/43/43
f 43/43/43 52/52/52 53/53/53
f 43/43/43 53/53/53 44/44/44
f 44/44/44 53/53/53 54/54/54
f 44/44/44 54/54/54 45/45/45
f 45/45/45 54/54/54 55/55/55
f 45/45/45 55/55/55 46/46/46
f 46/46/46 55/55/55 56/56/56
f 46/46/46 56/56/56 47/47/47
f 47/47/47 56/56/56 57/57/57
f 47/47/47 57/57/57 48/48/48
f 48/48/48 57/57/57 58/58/58
f 48/48/48 58/58/58 49/49/49
f 50/50/50 59/59/59 60/60/60
f 50/50/50 60/60/60 51/51/51
f 51/51/51 60/60/60 61/61/61
f 51/51/51 61/61/61 52/52/52
f 52/52/52 61/61/61 62/62/62
f 52/52/52 62/62/62 53/53/53
f 53/53/53 62/62/62 63/63/63
f 53/53/53 63/63/63 54/54/54
f 54/54/54 63/63/63 64/64/64
f 54/54/54 64/64/64 55/55/55
f 55/55/55 64/64/64 65/65/65
f 55/55/55 65/65/65 56/56/56
f 56/56/56 65/65/65 66/66/66
f 56/56/56 66/66/66 57/57/57
f 57/57/57 66/66/66 67/67/67
f 57/57/57 67/67/67 58/58/58
f 59/59/59 68/68/68 69/69/69
f 59/59/59 69/69/69 60/60/60
f 60/60/60 69/69/69 70/70/70
f 60/60/60 70/70/70 61/61/61
f 61/61/61 70/70/70 71/71/71
f 61/61/61 71/71/71 62/62/62
f 62/62/62 71/71/71 72/72/72
f 62/62/62 72/72/72 63/63/63
f 63/63/63 72/72/72 73/73/73
f 63/63/63 73/73/73 64/64/64
f 64/64/64 73/73/73 74/74/74
f 64/64/64 74/74/74 65/65/65
f 65/65/65 74/74/74 75/75/75
f 65/65/65 75/75/75 66/66/66
f 66/66/66 75/75/75 76/76/76
f 66/66/66 76/76/76 67/67/67
f 68/68/68 77/77/77 78/78/78
f 68/68/68 78/78/78 69/69/69
f 69/69/69 78/78/78 79/79/79
f 69/69/69 79/79/79 70/70/70
f 70/70/70 79/79/79 80/80/80
f 70/70/70 80/80/80 71/71/71
f 71/71/71 80/80/80 81/81/81
f 71/71/71 81/81/81 72/72/72
f 72/72/72 81/81/81 82/82/82
f 72/72/72 82/82/82 73/73/73
f 73/73/73 82/82/82 83/83/83
f 73/73/73 83/83/83 74/74/74
f 74/74/74 83/83/83 84/84/84
f 74/74/74 84/84/84 75/75/75
f 75/75/75 84/84/84 85/85/85
f 75/75/75 85/85/85 76/76/76
f 77/77/77 86/86/86 87/87/87
f 77/77/77 87/87/87 78/78/78
f 78/78/78 87/87/87 88/88/88
f 78/78/78 88/88/88 79/79/79
f 79/79/79 88/88/88 89/89/89
f 79/79/79 89/89/89 80/80/80
f 80/80/80 89/89/89 90/90/90
f 80/80/80 90/90/90 81/81/81
f 81/81/81 90/90/90 91/91/91
f 81/81/81 91/91/91 82/82/82
f 82/82/82 91/91/91 92/92/92
f 82/82/82 92/92/92 83/83/83
f 83/83/83 92/92/92 93/93/93
f 83/83/83 93/93/93 84/84/84
f 84/84/84 93/93/93 94/94/94
f 84/84/84 94/94/94 85/85/85
f 86/86/86 95/95/95 96/96/96
f 86/86/86 96/96/96 87/87/87
f 87/87/87 96/96/96 97/97/97
f 87/87/87 97/97/97 88/88/88
f 88/88/88 97/97/97 98/98/98
f 88/88/88 98/98/98 89/89/89
f 89/89/89 98/98/98 99/99/99
f 89/89/89 99/99/99 90/90/90
f 90/90/90 99/99/99 100/100/100
f 90/90/90 100/100/100 91/91/91
f 91/91/91 100/100/100 101/101/101
f 91/91/91 101/101/101 92/92/92
f 92/92/92 101/101/101 102/102/102
f 92/92/92 102/102/102 93/93/93
f 93/93/93 102/102/102 103/103/103
f 93/93/93 103/103/103 94/94/94
f 95/95/95 104/104/104 105/105/105
f 95/95/95 105/105/105 96/96/96
f 96/96/96 105/105/105 106/106/106
f 96/96/96 106/106/106 97/97/97
f 97/97/97 106/106/106 107/107/107
f 97/97/97 107/107/107 98/98/98
f 98/98/98 107/107/107 108/108/108
f 98/98/98 108/108/108 99/99/99
f 99/99/99 108/108/108 109/109/109
f 99/99/99 109/109/109 100/100/100
f 100/100/100 109/109/109 110/110/110
f 100/100/100 110/110/110 101/101/101
f 101/101/101 110/110/110 111/111/111
f 101/101/101 111/111/111 102/102/102
f 102/102/102 111/111/111 112/112/112
f 102/102/102 112/112/112 103/103/103
f 104/104/104 113/113/113 114/114/114
f 104/104/104 114/114/114 105/105/105
f 105/105/105 114/114/114 115/115/115
f 105/105/105 115/115/115 106/106/106
f 106/106/106 115/115/115 116/116/116
f 106/106/106 116/116/116 107/107/107
f 107/107/107 116/116/116 117/117/117
f 107/107/107 117/117/117 108/108/108
f 108/108/108 117/117/117 118/118/118
f 108/108/108 118/118/118 109/109/109
f 109/109/109 118/118/118 119/119/119
f 109/109/109 119/119/119 110/110/110
f 110/110/110 119/119/119 120/120/120
f 110/110/110 120/120/120 111/111/111
f 111/111/111 120/120/120 121/121/121
f 111/111/111 121/121/121 112/112/112
f 113/113/113 122/122/122 123/123/123
f 113/113/113 123/123/123 114/114/114
f 114/114/114 123/123/123 124/124/124
f 114/114/114 124/124/124 115/115/115
f 115/115/115 124/124/124 125/125/125
f 115/115/115 125/125/125 116/116/116
f 116/116/116 125/125/125 126/126/126
f 116/116/116 126/126/126 117/117/117
f 117/117/117 126/126/126 127/127/127
f 117/117/117 127/127/127 118/118/118
f 118/118/118 127/127/127 128/128/128
f 118/118/118 128/128/128 119/119/119
f 119/119/119 128/128/128 129/129/129
f 119/119/119 129/129/129 120/120/120
f 120/120/120 129/129/129 130/130/130
f 120/120/120 130/130/130 121/121/121
f 122/122/122 131/131/131 132/132/132
f 122/122/122 132/132/132 123/123/123
f 123/123/123 132/132/132 133/133/133
f 123/123/123 133/133/133 124/124/124
f 124/124/124 133/133/133 134/134/134
f 124/124/124 134/134/134 125/125/125
f 125/125/125 134/134/134 135/135/135
f 125/125/125 135/135/135 126/126/126
f 126/126/126 135/135/135 136/136/136
f 126/126/126 136/136/136 127/127/127
f 127/127/127 136/136/136 137/137/137
f 127/127/127 137/137/137 128/128/128
f 128/128/128 137/137/137 138/138/138
f 128/128/128 138/138/138 129/129/129
f 129/129/129 138/138/138 139/139/139
f 129/129/129 139/139/139 130/130/130
f 131/131/131 140/140/140 141/141/141
f 131/131/131 141/141/141 132/132/132
f 132/132/132 141/141/141 142/142/142
f 132/132/132 142/142/142 133/133/133
f 133/133/133 142/142/142 143/143/143
f 133/133/133 143/143/143 134/134/134
f 134/134/134 143/143/143 144/144/144
f 134/134/134 144/144/144 135/135/135
f 135/135/135 144/144/144 145/145/145
f 135/135/135 145/145/145 136/136/136
f 136/136/136 145/145/145 146/146/146
f 136/136/136 146/146/146 137/137/137
f 137/137/137 146/146/146 147/147/147
f 137/137/137 147/147/147 138/138/138
f 138/138/138 147/147/147 148/148/148
f 138/138/138 148/148/148 139/139/139
f 140/140/140 149/149/149 150/150/150
f 140/140/140 150/150/150 141/141/141
f 141/141/141 150/150/150 151/151/151
f 141/141/141 151/151/151 142/142/142
f 142/142/142 151/151/151 152/152/152
f 142/142/142 152/152/152 143/143/143
f 143/143/143 152/152/152 153/153/153
f 143/143/143 153/153/153 144/144/144
f 144/144/144 153/153/153 154/154/154
f 144/144/144 154/154/154 145/145/145
f 145/145/145 154/154/154 155/155/155
f 145/145/145 155/155/155 146/146/146
f 146/146/146 155/155/155 156/156/156
f 146/146/146 156/156/156 147/147/147
f 147/147/147 156/156/156 157/157/157
f 147/147/147 157/157/157 148/148/148
f 158/158/158 159/159/159 169/169/169
f 158/158/158 169/169/169 168/168/168
f 178/178/178 159/159/159 158/158/158
f 179/179/179 168/168/168 169/169/169
f 159/159/159 160/160/160 170/170/170
f 159/159/159 170/170/170 169/169/169
f 178/178/178 160/160/160 159/159/159
f 179/179/179 169/169/169 170/170/170
f 160/160/160 161/161/161 171/171/171
f 160/160/160 171/171/171 170/170/170
f 178/178/178 161/161/161 160/160/160
f 179/179/179 170/170/170 171/171/171
f 161/161/161 162/162/162 172/172/172
f 161/161/161 172/172/172 171/171/171
f 178/178/178 162/162/162 161/161/161
f 179/179/179 171/171/171 172/172/172
f 162/162/162 163/163/163 173/173/173
f 162/162/162 173/173/173 172/172/172
f 178/178/178 163/163/163 162/162/162
f 179/179/179 172/172/172 173/173/173
f 163/163/163 164/164/164 174/174/174
f 163/163/163 174/174/174 173/173/173
f 178/178/178 164/164/164 163/163/163
f 179/179/179 173/173/173 174/174/174
f 164/164/164 165/165/165 175/175/175
f 164/164/164 175/175/175 174/174/174
f 178/178/178 165/165/165 164/164/164
f 179/179/179 174/174/174 175/175/175
f 165/165/165 166/166/166 176/176/176
f 165/165/165 176/176/176 175/175/175
f 178/178/178 166/166/166 165/165/165
f 179/179/179 175/175/175 176/176/176
f 166/166/166 167/167/167 177/177/177
f 166/166/166 177/177/177 176/176/176
f 178/178/178 167/167/167 166/166/166
f 179/179/179 176/176/176 177/177/177
f 167/167/167 158/158/158 168/168/168
f 167/167/167 168/168/168 177/177/177
f 178/178/178 158/158/158 167/167/167
f 179/179/179 177/177/177 168/168/168
f 180/180/180 189/189/189 190/190/190
f 180/180/180 190/190/190 181/181/181
f 181/181/181 190/190/190 191/191/191
f 181/181/181 191/191/191 182/182/182
f 182/182/182 191/191/191 192/192/192
f 182/182/182 192/192/192 183/183/183
f 183/183/183 192/192/192 193/193/193
f 183/183/183 193/193/193 184/184/184
f 184/184/184 193/193/193 194/194/194
f 184/184/184 194/194/194 185/185/185
f 185/185/185 194/194/194 195/195/195
f 185/185/185 195/195/195 186/186/186
f 186/186/186 195/195/195 196/196/196
f 186/186/186 196/196/196 187/187/187
f 187/187/187 196/196/196 197/197/197
f 187/187/187 197/197/197 188/188/188
f 189/189/189 198/198/198 199/199/199
f 189/189/189 199/199/199 190/190/190
f 190/190/190 199/199/199 200/200/200
f 190/190/190 200/200/200 191/191/191
f 191/191/191 200/200/200 201/201/201
f 191/191/191 201/201/201 192/192/192
f 192/192/192 201/201/201 202/202/202
f 192/192/192 202/202/202 193/193/193
f 193/193/193 202/202/202 203/203/203
f 193/193/193 203/203/203 194/194/194
f 194/194/194 203/203/203 204/204/204
f 194/194/194 204/204/204 195/195/195
f 195/195/195 204/204/204 205/205/205
f 195/195/195 205/205/205 196/196/196
f 196/196/196 205/205/205 206/206/206
f 196/196/196 206/206/206 197/197/197
f 198/198/198 207/207/207 208/208/208
f 198/198/198 208/208/208 199/199/199
f 199/199/199 208/208/208 209/209/209
f 199/199/199 209/209/209 200/200/200
f 200/200/200 209/209/209 210/210/210
f 200/200/200 210/210/210 201/201/201
f 201/201/201 210/210/210 211/211/211
f 201/201/201 211/211/211 202/202/202
f 202/202/202 211/211/211 212/212/212
f 202/202/202 212/212/212 203/203/203
f 203/203/203 212/212/212 213/213/213
f 203/203/203 213/213/213 204/204/204
f 204/204/204 213/213/213 214/214/214
f 204/204/204 214/214/214 205/205/205
f 205/205/205 214/214/214 215/215/215
f 205/205/205 215/215/215 206/206/206
f 207/207/207 216/216/216 217/217/217
f 207/207/207 217/217/217 208/208/208
f 208/208/208 217/217/217 218/218/218
f 208/208/208 218/218/218 209/209/209
f 209/209/209 218/218/218 219/219/219
f 209/209/209 219/219/219 210/210/210
f 210/210/210 219/219/219 220/220/220
f 210/210/210 220/220/220 211/211/211
f 211/211/211 220/220/220 221/221/221
f 211/211/211 221/221/221 212/212/212
f 212/212/212 221/221/221 222/222/222
f 212/212/212 222/222/222 213/213/213
f 213/213/213 222/222/222 223/223/223
f 213/213/213 223/223/223 214/214/214
f 214/214/214 223/223/223 224/224/224
f 214/214/214 224/224/224 215/215/215
f 216/216/216 225/225/225 226/226/226
f 216/216/216 226/226/226 217/217/217
f 217/217/217 226/226/226 227/227/227
f 217/217/217 227/227/227 218/218/218
f 218/218/218 227/227/227 228/228/228
f 218/218/218 228/228/228 219/219/219
f 219/219/219 228/228/228 229/229/229
f 219/219/219 229/229/229 220/220/220
f 220/220/220 229/229/229 230/230/230
f 220/220/220 230/230/230 221/221/221
f 221/221/221 230/230/230 231/231/231
f 221/221/221 231/231/231 222/222/222
f 222/222/222 231/231/231 232/232/232
f 222/222/222 232/232/232 223/223/223
f 223/223/223 232/232/232 233/233/233
f 223/223/223 233/233/233 224/224/224
f 225/225/225 234/234/234 235/235/235
f 225/225/225 235/235/235 226/226/226
f 226/226/226 235/235/235 236/236/236
f 226/226/226 236/236/236 227/227/227
f 227/227/227 236/236/236 237/237/237
f 227/227/227 237/237/237 228/228/228
f 228/228/228 237/237/237 238/238/238
f 228/228/228 238/238/238 229/229/229
f 229/229/229 238/238/238 239/239/239
f 229/229/229 239/239/239 230/230/230
f 230/230/230 239/239/239 240/240/240
f 230/230/230 240/240/240 231/231/231
f 231/231/231 240/240/240 241/241/241
f 231/231/231 241/241/241 232/232/232
f 232/232/232 241/241/241 242/242/242
f 232/232/232 242/242/242 233/233/233
f 234/234/234 243/243/243 244/244/244
f 234/234/234 244/244/244 235/235/235
f 235/235/235 244/244/244 245/245/245
f 235/235/235 245/245/245 236/236/236
f 236/236/236 245/245/245 246/246/246
f 236/236/236 246/246/246 237/237/237
f 237/237/237 246/246/246 247/247/247
f 237/237/237 247/247/247 238/238/238
f 238/238/238 247/247/247 248/248/248
f 238/238/238 248/248/248 239/239/239
f 239/239/239 248/248/248 249/249/249
f 239/239/239 249/249/249 240/240/240
f 240/240/240 249/249/249 250/250/250
f 240/240/240 250/250/250 241/241/241
f 241/241/241 250/250/250 251/251/251
f 241/241/241 251/251/251 242/242/242
f 243/243/243 252/252/252 253/253/253
f 243/243/243 253/253/253 244/244/244
f 244/244/244 253/253/253 254/254/254
f 244/244/244 254/254/254 245/245/245
f 245/245/245 254/254/254 255/255/255
f 245/245/245 255/255/255 246/246/246
f 246/246/246 255/255/255 256/256/256
f 246/246/246 256/256/256 247/247/247
f 247/247/247 256/256/256 257/257/257
f 247/247/247 257/257/257 248/248/248
f 248/248/248 257/257/257 258/258/258
f 248/248/248 258/258/258 249/249/249
f 249/249/249 258/258/258 259/259/259
f 249/249/249 259/259/259 250/250/250
f 250/250/250 259/259/259 260/260/260
f 250/250/250 260/260/260 251/251/251
f 252/252/252 261/261/261 262/262/262
f 252/252/252 262/262/262 253/253/253
f 253/253/253 262/262/262 263/263/263
f 253/253/253 263/263/263 254/254/254
f 254/254/254 263/263/263 264/264/264
f 254/254/254 264/264/264 255/255/255
f 255/255/255 264/264/264 265/265/265
f 255/255/255 265/265/265 256/256/256
f 256/256/256 265/265/265 266/266/266
f 256/256/256 266/266/266 257/257/257
f 257/257/257 266/266/266 267/267/267
f 257/257/257 267/267/267 258/258/258
f 258/258/258 267/267/267 268/268/268
f 258/258/258 268/268/268 259/259/259
f 259/259/259 268/268/268 269/269/269
f 259/259/259 269/269/269 260/260/260
f 261/261/261 270/270/270 271/271/271
f 261/261/261 271/271/271 262/262/262
f 262/262/262 271/271/271 272/272/272
f 262/262/262 272/272/272 263/263/263
f 263/263/263 272/272/272 273/273/273
f 263/263/263 273/273/273 264/264/264
f 264/264/264 273/273/273 274/274/274
f 264/264/264 274/274/274 265/265/265
f 265/265/265 274/274/274 275/275/275
f 265/265/265 275/275/275 266/266/266
f 266/266/266 275/275/275 276/276/276
f 266/266/266 276/276/276 267/267/267
f 267/267/267 276/276/276 277/277/277
f 267/267/267 277/277/277 268/268/268
f 268/268/268 277/277/277 278/278/278
f 268/268/268 278/278/278 269/269/269
f 270/270/270 279/279/279 280/280/280
f 270/270/270 280/280/280 271/271/271
f 271/271/271 280/280/280 281/281/281
f 271/271/271 281/281/281 272/272/272
f 272/272/272 281/281/281 282/282/282
f 272/272/272 282/282/282 273/273/273
f 273/273/273 282/282/282 283/283/283
f 273/273/273 283/283/283 274/274/274
f 274/274/274 283/283/283 284/284/284
f 274/274/274 284/284/284 275/275/275
f 275/275/275 284/284/284 285/285/285
f 275/275/275 285/285/285 276/276/276
f 276/276/276 285/285/285 286/286/286
f 276/276/276 286/286/286 277/277/277
f 277/277/277 286/286/286 287/287/287
f 277/277/277 287/287/287 278/278/278
f 279/279/279 288/288/288 289/289/289
f 279/279/279 289/289/289 280/280/280
f 280/280/280 289/289/289 290/290/290
f 280/280/280 290/290/290 281/281/281
f 281/281/281 290/290/290 291/291/291
f 281/281/281 291/291/291 282/282/282
f 282/282/282 291/291/291 292/292/292
f 282/282/282 292/292/292 283/283/283
f 283/283/283 292/292/292 293/293/293
f 283/283/283 293/293/293 284/284/284
f 284/284/284 293/293/293 294/294/294
f 284/284/284 294/294/294 285/285/285
f 285/285/285 294/294/294 295/295/295
f 285/285/285 295/295/295 286/286/286
f 286/286/286 295/295/295 296/296/296
f 286/286/286 296/296/296 287/287/287
f 297/297/297 298/298/298 308/308/308
f 297/297/297 308/308/308 307/307/307
f 317/317/317 298/298/298 297/297/297
f 318/318/318 307/307/307 308/308/308
f 298/298/298 299/299/299 309/309/309
f 298/298/298 309/309/309 308/308/308
f 317/317/317 299/299/299 298/298/298
f 318/318/318 308/308/308 309/309/309
f 299/299/299 300/300/300 310/310/310
f 299/299/299 310/310/310 309/309/309
f 317/317/317 300/300/300 299/299/299
f 318/318/318 309/309/309 310/310/310
f 300/300/300 301/301/301 311/311/311
f 300/300/300 311/311/311 310/310/310
f 317/317/317 301/301/301 300/300/300
f 318/318/318 310/310/310 311/311/311
f 301/301/301 302/302/302 312/312/312
f 301/301/301 312/312/312 311/311/311
f 317/317/317 302/302/302 301/301/301
f 318/318/318 311/311/311 312/312/312
f 302/302/302 303/303/303 313/313/313
f 302/302/302 313/313/313 312/312/312
f 317/317/317 303/303/303 302/302/302
f 318/318/318 312/312/312 313/313/313
f 303/303/303 304/304/304 314/314/314
f 303/303/303 314/314/314 313/313/313
f 317/317/317 304/304/304 303/303/303
f 318/318/318 313/313/313 314/314/314
f 304/304/304 305/305/305 315/315/315
f 304/304/304 315/315/315 314/314/314
f 317/317/317 305/305/305 304/304/304
f 318/318/318 314/314/314 315/315/315
f 305/305/305 306/306/306 316/316/316
f 305/305/305 316/316/316 315/315/315
f 317/317/317 306/306/306 305/305/305
f 318/318/318 315/315/315 316/316/316
f 306/306/306 297/297/297 307/307/307
f 306/306/306 307/307/307 316/316/316
f 317/317/317 297/297/297 306/306/306
f 318/318/318 316/316/316 307/307/307
f 319/319/319 321/321/321 320/320/320
f 319/319/319 322/322/322 321/321/321
f 323/323/323 324/324/324 325/325/325
f 323/323/323 325/325/325 326/326/326
f 319/319/319 320/320/320 324/324/324
f 319/319/319 324/324/324 323/323/323
f 321/321/321 322/322/322 326/326/326
f 321/321/321 326/326/326 325/325/325
f 319/319/319 323/323/323 326/326/326
f 319/319/319 326/326/326 322/322/322
f 320/320/320 321/321/321 325/325/325
f 320/320/320 325/325/325 324/324/324
f 327/327/327 329/329/329 328/328/328
f 327/327/327 330/330/330 329/329/329
f 331/331/331 332/332/332 333/333/333
f 331/331/331 333/333/333 334/334/334
f 327/327/327 328/328/328 332/332/332
f 327/327/327 332/332/332 331/331/331
f 329/329/329 330/330/330 334/334/334
f 329/329/329 334/334/334 333/333/333
f 327/327/327 331/331/331 334/334/334
f 327/327/327 334/334/334 330/330/330
f 328/328/328 329/329/329 333/333/333
f 328/328/328 333/333/333 332/332/332
f 335/335/335 344/344/344 345/345/345
f 335/335/335 345/345/345 336/336/336
f 336/336/336 345/345/345 346/346/346
f 336/336/336 346/346/346 337/337/337
f 337/337/337 346/346/346 347/347/347
f 337/337/337 347/347/347 338/338/338
f 338/338/338 347/347/347 348/348/348
f 338/338/338 348/348/348 339/339/339
f 339/339/339 348/348/348 349/349/349
f 339/339/339 349/349/349 340/340/340
f 340/340/340 349/349/349 350/350/350
f 340/340/340 350/350/350 341/341/341
f 341/341/341 350/350/350 351/351/351
f 341/341/341 351/351/351 342/342/342
f 342/342/342 351/351/351 352/352/352
f 342/342/342 352/352/352 343/343/343
f 344/344/344 353/353/353 354/354/354
f 344/344/344 354/354/354 345/345/345
f 345/345/345 354/354/354 355/355/355
f 345/345/345 355/355/355 346/346/346
f 346/346/346 355/355/355 356/356/356
f 346/346/346 356/356/356 347/347/347
f 347/347/347 356/356/356 357/357/357
f 347/347/347 357/357/357 348/348/348
f 348/348/348 357/357/357 358/358/358
f 348/348/348 358/358/358 349/349/349
f 349/349/349 358/358/358 359/359/359
f 349/349/349 359/359/359 350/350/350
f 350/350/350 359/359/359 360/360/360
f 350/350/350 360/360/360 351/351/351
f 351/351/351 360/360/360 361/361/361
f 351/351/351 361/361/361 352/352/352
f 353/353/353 362/362/362 363/363/363
f 353/353/353 363/363/363 354/354/354
f 354/354/354 363/363/363 364/364/364
f 354/354/354 364/364/364 355/355/355
f 355/355/355 364/364/364 365/365/365
f 355/355/355 365/365/365 356/356/356
f 356/356/356 365/365/365 366/366/366
f 356/356/356 366/366/366 357/357/357
f 357/357/357 366/366/366 367/367/367
f 357/357/357 367/367/367 358/358/358
f 358/358/358 367/367/367 368/368/368
f 358/358/358 368/368/368 359/359/359
f 359/359/359 368/368/368 369/369/369
f 359/359/359 369/369/369 360/360/360
f 360/360/360 369/369/369 370/370/370
f 360/360/360 370/370/370 361/361/361
f 362/362/362 371/371/371 372/372/372
f 362/362/362 372/372/372 363/363/363
f 363/363/363 372/372/372 373/373/373
f 363/363/363 373/373/373 364/364/364
f 364/364/364 373/373/373 374/374/374
f 364/364/364 374/374/374 365/365/365
f 365/365/365 374/374/374 375/375/375
f 365/365/365 375/375/375 366/366/366
f 366/366/366 375/375/375 376/376/376
f 366/366/366 376/376/376 367/367/367
f 367/367/367 376/376/376 377/377/377
f 367/367/367 377/377/377 368/368/368
f 368/368/368 377/377/377 378/378/378
f 368/368/368 378/378/378 369/369/369
f 369/369/369 378/378/378 379/379/379
f 369/369/369 379/379/379 370/370/370
f 371/371/371 380/380/380 381/381/381
f 371/371/371 381/381/381 372/372/372
f 372/372/372 381/381/381 382/382/382
f 372/372/372 382/382/382 373/373/373
f 373/373/373 382/382/382 383/383/383
f 373/373/373 383/383/383 374/374/374
f 374/374/374 383/383/383 384/384/384
f 374/374/374 384/384/384 375/375/375
f 375/375/375 384/384/384 385/385/385
f 375/375/375 385/385/385 376/376/376
f 376/376/376 385/385/385 386/386/386
f 376/376/376 386/386/386 377/377/377
f 377/377/377 386/386/386 387/387/387
f 377/377/377 387/387/387 378/378/378
f 378/378/378 387/387/387 388/388/388
f 378/378/378 388/388/388 379/379/379
f 380/380/380 389/389/389 390/390/390
f 380/380/380 390/390/390 381/381/381
f 381/381/381 390/390/390 391/391/391
f 381/381/381 391/391/391 382/382/382
f 382/382/382 391/391/391 392/392/392
f 382/382/382 392/392/392 383/383/383
f 383/383/383 392/392/392 393/393/393
f 383/383/383 393/393/393 384/384/384
f 384/384/384 393/393/393 394/394/394
f 384/384/384 394/394/394 385/385/385
f 385/385/385 394/394/394 395/395/395
f 385/385/385 395/395/395 386/386/386
f 386/386/386 395/395/395 396/396/396
f 386/386/386 396/396/396 387/387/387
f 387/387/387 396/396/396 397/397/397
f 387/387/387 397/397/397 388/388/388
f 389/389/389 398/398/398 399/399/399
f 389/389/389 399/399/399 390/390/390
f 390/390/390 399/399/399 400/400/400
f 390/390/390 400/400/400 391/391/391
f 391/391/391 400/400/400 401/401/401
f 391/391/391 401/401/401 392/392/392
f 392/392/392 401/401/401 402/402/402
f 392/392/392 402/402/402 393/393/393
f 393/393/393 402/402/402 403/403/403
f 393/393/393 403/403/403 394/394/394
f 394/394/394 403/403/403 404/404/404
f 394/394/394 404/404/404 395/395/395
f 395/395/395 404/404/404 405/405/405
f 395/395/395 405/405/405 396/396/396
f 396/396/396 405/405/405 406/406/406
f 396/396/396 406/406/406 397/397/397
f 398/398/398 407/407/407 408/408/408
f 398/398/398 408/408/408 399/399/399
f 399/399/399 408/408/408 409/409/409
f 399/399/399 409/409/409 400/400/400
f 400/400/400 409/409/409 410/410/410
f 400/400/400 410/410/410 401/401/401
f 401/401/401 410/410/410 411/411/411
f 401/401/401 411/411/411 402/402/402
f 402/402/402 411/411/411 412/412/412
f 402/402/402 412/412/412 403/403/403
f 403/403/403 412/412/412 413/413/413
f 403/403/403 413/413/413 404/404/404
f 404/404/404 413/413/413 414/414/414
f 404/404/404 414/414/414 405/405/405
f 405/405/405 414/414/414 415/415/415
f 405/405/405 415/415/415 406/406/406
f 407/407/407 416/416/416 417/417/417
f 407/407/407 417/417/417 408/408/408
f 408/408/408 417/417/417 418/418/418
f 408/408/408 418/418/418 409/409/409
f 409/409/409 418/418/418 419/419/419
f 409/409/409 419/419/419 410/410/410
f 410/410/410 419/419/419 420/420/420
f 410/410/410 420/420/420 411/411/411
f 411/411/411 420/420/420 421/421/421
f 411/411/411 421/421/421 412/412/412
f 412/412/412 421/421/421 422/422/422
f 412/412/412 422/422/422 413/413/413
f 413/413/413 422/422/422 423/423/423
f 413/413/413 423/423/423 414/414/414
f 414/414/414 423/423/423 424/424/424
f 414/414/414 424/424/424 415/415/415
f 416/416/416 425/425/425 426/426/426
f 416/416/416 426/426/426 417/417/417
f 417/417/417 426/426/426 427/427/427
f 417/417/417 427/427/427 418/418/418
f 418/418/418 427/427/427 428/428/428
f 418/418/418 428/428/428 419/419/419
f 419/419/419 428/428/428 429/429/429
f 419/419/419 429/429/429 420/420/420
f 420/420/420 429/429/429 430/430/430
f 420/420/420 430/430/430 421/421/421
f 421/421/421 430/430/430 431/431/431
f 421/421/421 431/431/431 422/422/422
f 422/422/422 431/431/431 432/432/432
f 422/422/422 432/432/432 423/423/423
f 423/423/423 432/432/432 433/433/433
f 423/423/423 433/433/433 424/424/424
f 425/425/425 434/434/434 435/435/435
f 425/425/425 435/435/435 426/426/426
f 426/426/426 435/435/435 436/436/436
f 426/426/426 436/436/436 427/427/427
f 427/427/427 436/436/436 437/437/437
f 427/427/427 437/437/437 428/428/428
f 428/428/428 437/437/437 438/438/438
f 428/428/428 438/438/438 429/429/429
f 429/429/429 438/438/438 439/439/439
f 429/429/429 439/439/439 430/430/430
f 430/430/430 439/439/439 440/440/440
f 430/430/430 440/440/440 431/431/431
f 431/431/431 440/440/440 441/441/441
f 431/431/431 441/441/441 432/432/432
f 432/432/432 441/441/441 442/442/442
f 432/432/432 442/442/442 433/433/433
f 434/434/434 443/443/443 444/444/444
f 434/434/434 444/444/444 435/435/435
f 435/435/435 444/444/444 445/445/445
f 435/435/435 445/445/445 436/436/436
f 436/436/436 445/445/445 446/446/446
f 436/436/436 446/446/446 437/437/437
f 437/437/437 446/446/446 447/447/447
f 437/437/437 447/447/447 438/438/438
f 438/438/438 447/447/447 448/448/448
f 438/438/438 448/448/448 439/439/439
f 439/439/439 448/448/448 449/449/449
f 439/439/439 449/449/449 440/440/440
f 440/440/440 449/449/449 450/450/450
f 440/440/440 450/450/450 441/441/441
f 441/441/441 450/450/450 451/451/451
f 441/441/441 451/451/451 442/442/442
f 452/452/452 453/453/453 463/463/463
f 452/452/452 463/463/463 462/462/462
f 472/472/472 453/453/453 452/452/452
f 473/473/473 462/462/462 463/463/463
f 453/453/453 454/454/454 464/464/464
f 453/453/453 464/464/464 463/463/463
f 472/472/472 454/454/454 453/453/453
f 473/473/473 463/463/463 464/464/464
f 454/454/454 455/455/455 465/465/465
f 454/454/454 465/465/465 464/464/464
f 472/472/472 455/455/455 454/454/454
f 473/473/473 464/464/464 465/465/465
f 455/455/455 456/456/456 466/466/466
f 455/455/455 466/466/466 465/465/465
f 472/472/472 456/456/456 455/455/455
f 473/473/473 465/465/465 466/466/466
f 456/456/456 457/457/457 467/467/467
f 456/456/456 467/467/467 466/466/466
f 472/472/472 457/457/457 456/456/456
f 473/473/473 466/466/466 467/467/467
f 457/457/457 458/458/458 468/468/468
f 457/457/457 468/468/468 467/467/467
f 472/472/472 458/458/458 457/457/457
f 473/473/473 467/467/467 468/468/468
f 458/458/458 459/459/459 469/469/469
f 458/458/458 469/469/469 468/468/468
f 472/472/472 459/459/459 458/458/458
f 473/473/473 468/468/468 469/469/469
f 459/459/459 460/460/460 470/470/470
f 459/459/459 470/470/470 469/469/469
f 472/472/472 460/460/460 459/459/459
f 473/473/473 469/469/469 470/470/470
f 460/460/460 461/461/461 471/471/471
f 460/460/460 471/471/471 470/470/470
f 472/472/472 461/461/461 460/460/460
f 473/473/473 470/470/470 471/471/471
f 461/461/461 452/452/452 462/462/462
f 461/461/461 462/462/462 471/471/471
f 472/472/472 452/452/452 461/461/461
f 473/473/473 471/471/471 462/462/462
f 474/474/474 483/483/483 484/484/484
f 474/474/474 484/484/484 475/475/475
f 475/475/475 484/484/484 485/485/485
f 475/475/475 485/485/485 476/476/476
f 476/476/476 485/485/485 486/486/486
f 476/476/476 486/486/486 477/477/477
f 477/477/477 486/486/486 487/487/487
f 477/477/477 487/487/487 478/478/478
f 478/478/478 487/487/487 488/488/488
f 478/478/478 488/488/488 479/479/479
f 479/479/479 488/488/488 489/489/489
f 479/479/479 489/489/489 480/480/480
f 480/480/480 489/489/489 490/490/490
f 480/480/480 490/490/490 481/481/481
f 481/481/481 490/490/490 491/491/491
f 481/481/481 491/491/491 482/482/482
f 483/483/483 492/492/492 493/493/493
f 483/483/483 493/493/493 484/484/484
f 484/484/484 493/493/493 494/494/494
f 484/484/484 494/494/494 485/485/485
f 485/485/485 494/494/494 495/495/495
f 485/485/485 495/495/495 486/486/486
f 486/486/486 495/495/495 496/496/496
f 486/486/486 496/496/496 487/487/487
f 487/487/487 496/496/496 497/497/497
f 487/487/487 497/497/497 488/488/488
f 488/488/488 497/497/497 498/498/498
f 488/488/488 498/498/498 489/489/489
f 489/489/489 498/498/498 499/499/499
f 489/489/489 499/499/499 490/490/490
f 490/490/490 499/499/499 500/500/500
f 490/490/490 500/500/500 491/491/491
f 492/492/492 501/501/501 502/502/502
f 492/492/492 502/502/502 493/493/493
f 493/493/493 502/502/502 503/503/503
f 493/493/493 503/503/503 494/494/494
f 494/494/494 503/503/503 504/504/504
f 494/494/494 504/504/504 495/495/495
f 495/495/495 504/504/504 505/505/505
f 495/495/495 505/505/505 496/496/496
f 496/496/496 505/505/505 506/506/506
f 496/496/496 506/506/506 497/497/497
f 497/497/497 506/506/506 507/507/507
f 497/497/497 507/507/507 498/498/498
f 498/498/498 507/507/507 508/508/508
f 498/498/498 508/508/508 499/499/499
f 499/499/499 508/508/508 509/509/509
f 499/499/499 509/509/509 500/500/500
f 501/501/501 510/510/510 511/511/511
f 501/501/501 511/511/511 502/502/502
f 502/502/502 511/511/511 512/512/512
f 502/502/502 512/512/512 503/503/503
f 503/503/503 512/512/512 513/513/513
f 503/503/503 513/513/513 504/504/504
f 504/504/504 513/513/513 514/514/514
f 504/504/504 514/514/514 505/505/505
f 505/505/505 514/514/514 515/515/515
f 505/505/505 515/515/515 506/506/506
f 506/506/506 515/515/515 516/516/516
f 506/506/506 516/516/516 507/507/507
f 507/507/507 516/516/516 517/517/517
f 507/507/507 517/517/517 508/508/508
f 508/508/508 517/517/517 518/518/518
f 508/508/508 518/518/518 509/509/509
f 510/510/510 519/519/519 520/520/520
f 510/510/510 520/520/520 511/511/511
f 511/511/511 520/520/520 521/521/521
f 511/511/511 521/521/521 512/512/512
f 512/512/512 521/521/521 522/522/522
f 512/512/512 522/522/522 513/513/513
f 513/513/513 522/522/522 523/523/523
f 513/513/513 523/523/523 514/514/514
f 514/514/514 523/523/523 524/524/524
f 514/514/514 524/524/524 515/515/515
f 515/515/515 524/524/524 525/525/525
f 515/515/515 525/525/525 516/516/516
f 516/516/516 525/525/525 526/526/526
f 516/516/516 526/526/526 517/517/517
f 517/517/517 526/526/526 527/527/527
f 517/517/517 527/527/527 518/518/518
f 519/519/519 528/528/528 529/529/529
f 519/519/519 529/529/529 520/520/520
f 520/520/520 529/529/529 530/530/530
f 520/520/520 530/530/530 521/521/521
f 521/521/521 530/530/530 531/531/531
f 521/521/521 531/531/531 522/522/522
f 522/522/522 531/531/531 532/532/532
f 522/522/522 532/532/532 523/523/523
f 523/523/523 532/532/532 533/533/533
f 523/523/523 533/533/533 524/524/524
f 524/524/524 533/533/533 534/534/534
f 524/524/524 534/534/534 525/525/525
f 525/525/525 534/534/534 535/535/535
f 525/525/525 535/535/535 526/526/526
f 526/526/526 535/535/535 536/536/536
f 526/526/526 536/536/536 527/527/527
f 528/528/528 537/537/537 538/538/538
f 528/528/528 538/538/538 529/529/529
f 529/529/529 538/538/538 539/539/539
f 529/529/529 539/539/539 530/530/530
f 530/530/530 539/539/539 540/540/540
f 530/530/530 540/540/540 531/531/531
f 531/531/531 540/540/540 541/541/541
f 531/531/531 541/541/541 532/532/532
f 532/532/532 541/541/541 542/542/542
f 532/532/532 542/542/542 533/533/533
f 533/533/533 542/542/542 543/543/543
f 533/533/533 543/543/543 534/534/534
f 534/534/534 543/543/543 544/544/544
f 534/534/534 544/544/544 535/535/535
f 535/535/535 544/544/544 545/545/545
f 535/535/535 545/545/545 536/536/536
f 537/537/537 546/546/546 547/547/547
f 537/537/537 547/547/547 538/538/538
f 538/538/538 547/547/547 548/548/548
f 538/538/538 548/548/548 539/539/539
f 539/539/539 548/548/548 549/549/549
f 539/539/539 549/549/549 540/540/540
f 540/540/540 549/549/549 550/550/550
f 540/540/540 550/550/550 541/541/541
f 541/541/541 550/550/550 551/551/551
f 541/541/541 551/551/551 542/542/542
f 542/542/542 551/551/551 552/552/552
f 542/542/542 552/552/552 543/543/543
f 543/543/543 552/552/552 553/553/553
f 543/543/543 553/553/553 544/544/544
f 544/544/544 553/553/553 554/554/554
f 544/544/544 554/554/554 545/545/545
f 546/546/546 555/555/555 556/556/556
f 546/546/546 556/556/556 547/547/547
f 547/547/547 556/556/556 557/557/557
f 547/547/547 557/557/557 548/548/548
f 548/548/548 557/557/557 558/558/558
f 548/548/548 558/558/558 549/549/549
f 549/549/549 558/558/558 559/559/559
f 549/549/549 559/559/559 550/550/550
f 550/550/550 559/559/559 560/560/560
f 550/550/550 560/560/560 551/551/551
f 551/551/551 560/560/560 561/561/561
f 551/551/551 561/561/561 552/552/552
f 552/552/552 561/561/561 562/562/562
f 552/552/552 562/562/562 553/553/553
f 553/553/553 562/562/562 563/563/563
f 553/553/553 563/563/563 554/554/554
f 555/555/555 564/564/564 565/565/565
f 555/555/555 565/565/565 556/556/556
f 556/556/556 565/565/565 566/566/566
f 556/556/556 566/566/566 557/557/557
f 557/557/557 566/566/566 567/567/567
f 557/557/557 567/567/567 558/558/558
f 558/558/558 567/567/567 568/568/568
f 558/558/558 568/568/568 559/559/559
f 559/559/559 568/568/568 569/569/569
f 559/559/559 569/569/569 560/560/560
f 560/560/560 569/569/569 570/570/570
f 560/560/560 570/570/570 561/561/561
f 561/561/561 570/570/570 571/571/571
f 561/561/561 571/571/571 562/562/562
f 562/562/562 571/571/571 572/572/572
f 562/562/562 572/572/572 563/563/563
f 564/564/564 573/573/573 574/574/574
f 564/564/564 574/574/574 565/565/565
f 565/565/565 574/574/574 575/575/575
f 565/565/565 575/575/575 566/566/566
f 566/566/566 575/575/575 576/576/576
f 566/566/566 576/576/576 567/567/567
f 567/567/567 576/576/576 577/577/577
f 567/567/567 577/577/577 568/568/568
f 568/568/568 577/577/577 578/578/578
f 568/568/568 578/578/578 569/569/569
f 569/569/569 578/578/578 579/579/579
f 569/569/569 579/579/579 570/570/570
f 570/570/570 579/579/579 580/580/580
f 570/570/570 580/580/580 571/571/571
f 571/571/571 580/580/580 581/581/581
f 571/571/571 581/581/581 572/572/572
f 573/573/573 582/582/582 583/583/583
f 573/573/573 583/583/583 574/574/574
f 574/574/574 583/583/583 584/584/584
f 574/574/574 584/584/584 575/575/575
f 575/575/575 584/584/584 585/585/585
f 575/575/575 585/585/585 576/576/576
f 576/576/576 585/585/585 586/586/586
f 576/576/576 586/586/586 577/577/577
f 577/577/577 586/586/586 587/587/587
f 577/577/577 587/587/587 578/578/578
f 578/578/578 587/587/587 588/588/588
f 578/578/578 588/588/588 579/579/579
f 579/579/579 588/588/588 589/589/589
f 579/579/579 589/589/589 580/580/580
f 580/580/580 589/589/589 590/590/590
f 580/580/580 590/590/590 581/581/581
f 591/591/591 592/592/592 602/602/602
f 591/591/591 602/602/602 601/601/601
f 611/611/611 592/592/592 591/591/591
f 612/612/612 601/601/601 602/602/602
f 592/592/592 593/593/593 603/603/603
f 592/592/592 603/603/603 602/602/602
f 611/611/611 593/593/593 592/592/592
f 612/612/612 602/602/602 603/603/603
f 593/593/593 594/594/594 604/604/604
f 593/593/593 604/604/604 603/603/603
f 611/611/611 594/594/594 593/593/593
f 612/612/612 603/603/603 604/604/604
f 594/594/594 595/595/595 605/605/605
f 594/594/594 605/605/605 604/604/604
f 611/611/611 595/595/595 594/594/594
f 612/612/612 604/604/604 605/605/605
f 595/595/595 596/596/596 606/606/606
f 595/595/595 606/606/606 605/605/605
f 611/611/611 596/596/596 595/595/595
f 612/612/612 605/605/605 606/606/606
f 596/596/596 597/597/597 607/607/607
f 596/596/596 607/607/607 606/606/606
f 611/611/611 597/597/597 596/596/596
f 612/612/612 606/606/606 607/607/607
f 597/597/597 598/598/598 608/608/608
f 597/597/597 608/608/608 607/607/607
f 611/611/611 598/598/598 597/597/597
f 612/612/612 607/607/607 608/608/608
f 598/598/598 599/599/599 609/609/609
f 598/598/598 609/609/609 608/608/608
f 611/611/611 599/599/599 598/598/598
f 612/612/612 608/608/608 609/609/609
f 599/599/599 600/600/600 610/610/610
f 599/599/599 610/610/610 609/609/609
f 611/611/611 600/600/600 599/599/599
f 612/612/612 609/609/609 610/610/610
f 600/600/600 591/591/591 601/601/601
f 600/600/600 601/601/601 610/610/610
f 611/611/611 591/591/591 600/600/600
f 612/612/612 610/610/610 601/601/601