# 3D Model: vehicle/bike/MY25PropelAdvanced1_ColorBIllusionWhite-1-1024x768~0 (v6 Gemini)
# Style: vehicle/bike | Symmetry: symmetric
# Dimensions: 1.07 x 1.33 x 0.896 m
# Triangles: 1228 | Vertices: 682
v 0.235 0.35 0
v 0.2175 0.3803 0
v 0.1825 0.3803 0
v 0.165 0.35 0
v 0.1825 0.3197 0
v 0.2175 0.3197 0
v 0.235 0.35 0
v 0.1615 0.35 0.2263
v 0.1473 0.3803 0.216
v 0.119 0.3803 0.1954
v 0.1048 0.35 0.1852
v 0.119 0.3197 0.1954
v 0.1473 0.3197 0.216
v 0.1615 0.35 0.2263
v -0.031 0.35 0.3662
v -0.0364 0.3803 0.3495
v -0.0473 0.3803 0.3162
v -0.0527 0.35 0.2996
v -0.0473 0.3197 0.3162
v -0.0364 0.3197 0.3495
v -0.031 0.35 0.3662
v -0.269 0.35 0.3662
v -0.2636 0.3803 0.3495
v -0.2527 0.3803 0.3162
v -0.2473 0.35 0.2996
v -0.2527 0.3197 0.3162
v -0.2636 0.3197 0.3495
v -0.269 0.35 0.3662
v -0.4615 0.35 0.2263
v -0.4473 0.3803 0.216
v -0.419 0.3803 0.1954
v -0.4048 0.35 0.1852
v -0.419 0.3197 0.1954
v -0.4473 0.3197 0.216
v -0.4615 0.35 0.2263
v -0.535 0.35 0
v -0.5175 0.3803 0
v -0.4825 0.3803 0
v -0.465 0.35 0
v -0.4825 0.3197 0
v -0.5175 0.3197 0
v -0.535 0.35 0
v -0.4615 0.35 -0.2263
v -0.4473 0.3803 -0.216
v -0.419 0.3803 -0.1954
v -0.4048 0.35 -0.1852
v -0.419 0.3197 -0.1954
v -0.4473 0.3197 -0.216
v -0.4615 0.35 -0.2263
v -0.269 0.35 -0.3662
v -0.2636 0.3803 -0.3495
v -0.2527 0.3803 -0.3162
v -0.2473 0.35 -0.2996
v -0.2527 0.3197 -0.3162
v -0.2636 0.3197 -0.3495
v -0.269 0.35 -0.3662
v -0.031 0.35 -0.3662
v -0.0364 0.3803 -0.3495
v -0.0473 0.3803 -0.3162
v -0.0527 0.35 -0.2996
v -0.0473 0.3197 -0.3162
v -0.0364 0.3197 -0.3495
v -0.031 0.35 -0.3662
v 0.1615 0.35 -0.2263
v 0.1473 0.3803 -0.216
v 0.119 0.3803 -0.1954
v 0.1048 0.35 -0.1852
v 0.119 0.3197 -0.1954
v 0.1473 0.3197 -0.216
v 0.1615 0.35 -0.2263
v 0.235 0.35 0
v 0.2175 0.3803 0
v 0.1825 0.3803 0
v 0.165 0.35 0
v 0.1825 0.3197 0
v 0.2175 0.3197 0
v 0.235 0.35 0
v 0.535 0.35 0
v 0.5175 0.3803 0
v 0.4825 0.3803 0
v 0.465 0.35 0
v 0.4825 0.3197 0
v 0.5175 0.3197 0
v 0.535 0.35 0
v 0.4615 0.35 0.2263
v 0.4473 0.3803 0.216
v 0.419 0.3803 0.1954
v 0.4048 0.35 0.1852
v 0.419 0.3197 0.1954
v 0.4473 0.3197 0.216
v 0.4615 0.35 0.2263
v 0.269 0.35 0.3662
v 0.2636 0.3803 0.3495
v 0.2527 0.3803 0.3162
v 0.2473 0.35 0.2996
v 0.2527 0.3197 0.3162
v 0.2636 0.3197 0.3495
v 0.269 0.35 0.3662
v 0.031 0.35 0.3662
v 0.0364 0.3803 0.3495
v 0.0473 0.3803 0.3162
v 0.0527 0.35 0.2996
v 0.0473 0.3197 0.3162
v 0.0364 0.3197 0.3495
v 0.031 0.35 0.3662
v -0.1615 0.35 0.2263
v -0.1473 0.3803 0.216
v -0.119 0.3803 0.1954
v -0.1048 0.35 0.1852
v -0.119 0.3197 0.1954
v -0.1473 0.3197 0.216
v -0.1615 0.35 0.2263
v -0.235 0.35 0
v -0.2175 0.3803 0
v -0.1825 0.3803 0
v -0.165 0.35 0
v -0.1825 0.3197 0
v -0.2175 0.3197 0
v -0.235 0.35 0
v -0.1615 0.35 -0.2263
v -0.1473 0.3803 -0.216
v -0.119 0.3803 -0.1954
v -0.1048 0.35 -0.1852
v -0.119 0.3197 -0.1954
v -0.1473 0.3197 -0.216
v -0.1615 0.35 -0.2263
v 0.031 0.35 -0.3662
v 0.0364 0.3803 -0.3495
v 0.0473 0.3803 -0.3162
v 0.0527 0.35 -0.2996
v 0.0473 0.3197 -0.3162
v 0.0364 0.3197 -0.3495
v 0.031 0.35 -0.3662
v 0.269 0.35 -0.3662
v 0.2636 0.3803 -0.3495
v 0.2527 0.3803 -0.3162
v 0.2473 0.35 -0.2996
v 0.2527 0.3197 -0.3162
v 0.2636 0.3197 -0.3495
v 0.269 0.35 -0.3662
v 0.4615 0.35 -0.2263
v 0.4473 0.3803 -0.216
v 0.419 0.3803 -0.1954
v 0.4048 0.35 -0.1852
v 0.419 0.3197 -0.1954
v 0.4473 0.3197 -0.216
v 0.4615 0.35 -0.2263
v 0.535 0.35 0
v 0.5175 0.3803 0
v 0.4825 0.3803 0
v 0.465 0.35 0
v 0.4825 0.3197 0
v 0.5175 0.3197 0
v 0.535 0.35 0
v 0.19 -0.15 0
v 0.184 -0.15 0.0605
v 0.1664 -0.15 0.1186
v 0.1378 -0.15 0.1722
v 0.0992 -0.15 0.2192
v 0.0522 -0.15 0.2578
v -0.0014 -0.15 0.2864
v -0.0595 -0.15 0.304
v -0.12 -0.15 0.31
v -0.1805 -0.15 0.304
v -0.2386 -0.15 0.2864
v -0.2922 -0.15 0.2578
v -0.3392 -0.15 0.2192
v -0.3778 -0.15 0.1722
v -0.4064 -0.15 0.1186
v -0.424 -0.15 0.0605
v -0.43 -0.15 0
v -0.424 -0.15 -0.0605
v -0.4064 -0.15 -0.1186
v -0.3778 -0.15 -0.1722
v -0.3392 -0.15 -0.2192
v -0.2922 -0.15 -0.2578
v -0.2386 -0.15 -0.2864
v -0.1805 -0.15 -0.304
v -0.12 -0.15 -0.31
v -0.0595 -0.15 -0.304
v -0.0014 -0.15 -0.2864
v 0.0522 -0.15 -0.2578
v 0.0992 -0.15 -0.2192
v 0.1378 -0.15 -0.1722
v 0.1664 -0.15 -0.1186
v 0.184 -0.15 -0.0605
v 0.19 0.85 0
v 0.184 0.85 0.0605
v 0.1664 0.85 0.1186
v 0.1378 0.85 0.1722
v 0.0992 0.85 0.2192
v 0.0522 0.85 0.2578
v -0.0014 0.85 0.2864
v -0.0595 0.85 0.304
v -0.12 0.85 0.31
v -0.1805 0.85 0.304
v -0.2386 0.85 0.2864
v -0.2922 0.85 0.2578
v -0.3392 0.85 0.2192
v -0.3778 0.85 0.1722
v -0.4064 0.85 0.1186
v -0.424 0.85 0.0605
v -0.43 0.85 0
v -0.424 0.85 -0.0605
v -0.4064 0.85 -0.1186
v -0.3778 0.85 -0.1722
v -0.3392 0.85 -0.2192
v -0.2922 0.85 -0.2578
v -0.2386 0.85 -0.2864
v -0.1805 0.85 -0.304
v -0.12 0.85 -0.31
v -0.0595 0.85 -0.304
v -0.0014 0.85 -0.2864
v 0.0522 0.85 -0.2578
v 0.0992 0.85 -0.2192
v 0.1378 0.85 -0.1722
v 0.1664 0.85 -0.1186
v 0.184 0.85 -0.0605
v -0.12 -0.15 0
v -0.12 0.85 0
v 0.43 -0.15 0
v 0.424 -0.15 0.0605
v 0.4064 -0.15 0.1186
v 0.3778 -0.15 0.1722
v 0.3392 -0.15 0.2192
v 0.2922 -0.15 0.2578
v 0.2386 -0.15 0.2864
v 0.1805 -0.15 0.304
v 0.12 -0.15 0.31
v 0.0595 -0.15 0.304
v 0.0014 -0.15 0.2864
v -0.0522 -0.15 0.2578
v -0.0992 -0.15 0.2192
v -0.1378 -0.15 0.1722
v -0.1664 -0.15 0.1186
v -0.184 -0.15 0.0605
v -0.19 -0.15 0
v -0.184 -0.15 -0.0605
v -0.1664 -0.15 -0.1186
v -0.1378 -0.15 -0.1722
v -0.0992 -0.15 -0.2192
v -0.0522 -0.15 -0.2578
v 0.0014 -0.15 -0.2864
v 0.0595 -0.15 -0.304
v 0.12 -0.15 -0.31
v 0.1805 -0.15 -0.304
v 0.2386 -0.15 -0.2864
v 0.2922 -0.15 -0.2578
v 0.3392 -0.15 -0.2192
v 0.3778 -0.15 -0.1722
v 0.4064 -0.15 -0.1186
v 0.424 -0.15 -0.0605
v 0.43 0.85 0
v 0.424 0.85 0.0605
v 0.4064 0.85 0.1186
v 0.3778 0.85 0.1722
v 0.3392 0.85 0.2192
v 0.2922 0.85 0.2578
v 0.2386 0.85 0.2864
v 0.1805 0.85 0.304
v 0.12 0.85 0.31
v 0.0595 0.85 0.304
v 0.0014 0.85 0.2864
v -0.0522 0.85 0.2578
v -0.0992 0.85 0.2192
v -0.1378 0.85 0.1722
v -0.1664 0.85 0.1186
v -0.184 0.85 0.0605
v -0.19 0.85 0
v -0.184 0.85 -0.0605
v -0.1664 0.85 -0.1186
v -0.1378 0.85 -0.1722
v -0.0992 0.85 -0.2192
v -0.0522 0.85 -0.2578
v 0.0014 0.85 -0.2864
v 0.0595 0.85 -0.304
v 0.12 0.85 -0.31
v 0.1805 0.85 -0.304
v 0.2386 0.85 -0.2864
v 0.2922 0.85 -0.2578
v 0.3392 0.85 -0.2192
v 0.3778 0.85 -0.1722
v 0.4064 0.85 -0.1186
v 0.424 0.85 -0.0605
v 0.12 -0.15 0
v 0.12 0.85 0
v 0.025 -0.05 -0.4
v 0.0231 -0.05 -0.3904
v 0.0177 -0.05 -0.3823
v 0.0096 -0.05 -0.3769
v 0 -0.05 -0.375
v -0.0096 -0.05 -0.3769
v -0.0177 -0.05 -0.3823
v -0.0231 -0.05 -0.3904
v -0.025 -0.05 -0.4
v -0.0231 -0.05 -0.4096
v -0.0177 -0.05 -0.4177
v -0.0096 -0.05 -0.4231
v 0 -0.05 -0.425
v 0.0096 -0.05 -0.4231
v 0.0177 -0.05 -0.4177
v 0.0231 -0.05 -0.4096
v 0.02 0.95 -0.4
v 0.0185 0.95 -0.3923
v 0.0141 0.95 -0.3859
v 0.0077 0.95 -0.3815
v 0 0.95 -0.38
v -0.0077 0.95 -0.3815
v -0.0141 0.95 -0.3859
v -0.0185 0.95 -0.3923
v -0.02 0.95 -0.4
v -0.0185 0.95 -0.4077
v -0.0141 0.95 -0.4141
v -0.0077 0.95 -0.4185
v 0 0.95 -0.42
v 0.0077 0.95 -0.4185
v 0.0141 0.95 -0.4141
v 0.0185 0.95 -0.4077
v 0 -0.05 -0.4
v 0 0.95 -0.4
v 0.035 0 -0.2
v 0.0323 0 -0.1866
v 0.0247 0 -0.1753
v 0.0134 0 -0.1677
v 0 0 -0.165
v -0.0134 0 -0.1677
v -0.0247 0 -0.1753
v -0.0323 0 -0.1866
v -0.035 0 -0.2
v -0.0323 0 -0.2134
v -0.0247 0 -0.2247
v -0.0134 0 -0.2323
v 0 0 -0.235
v 0.0134 0 -0.2323
v 0.0247 0 -0.2247
v 0.0323 0 -0.2134
v 0.025 1 -0.2
v 0.0231 1 -0.1904
v 0.0177 1 -0.1823
v 0.0096 1 -0.1769
v 0 1 -0.175
v -0.0096 1 -0.1769
v -0.0177 1 -0.1823
v -0.0231 1 -0.1904
v -0.025 1 -0.2
v -0.0231 1 -0.2096
v -0.0177 1 -0.2177
v -0.0096 1 -0.2231
v 0 1 -0.225
v 0.0096 1 -0.2231
v 0.0177 1 -0.2177
v 0.0231 1 -0.2096
v 0 0 -0.2
v 0 1 -0.2
v 0.02 0.15 -0.45
v 0.0185 0.15 -0.4423
v 0.0141 0.15 -0.4359
v 0.0077 0.15 -0.4315
v 0 0.15 -0.43
v -0.0077 0.15 -0.4315
v -0.0141 0.15 -0.4359
v -0.0185 0.15 -0.4423
v -0.02 0.15 -0.45
v -0.0185 0.15 -0.4577
v -0.0141 0.15 -0.4641
v -0.0077 0.15 -0.4685
v 0 0.15 -0.47
v 0.0077 0.15 -0.4685
v 0.0141 0.15 -0.4641
v 0.0185 0.15 -0.4577
v 0.02 1.15 -0.45
v 0.0185 1.15 -0.4423
v 0.0141 1.15 -0.4359
v 0.0077 1.15 -0.4315
v 0 1.15 -0.43
v -0.0077 1.15 -0.4315
v -0.0141 1.15 -0.4359
v -0.0185 1.15 -0.4423
v -0.02 1.15 -0.45
v -0.0185 1.15 -0.4577
v -0.0141 1.15 -0.4641
v -0.0077 1.15 -0.4685
v 0 1.15 -0.47
v 0.0077 1.15 -0.4685
v 0.0141 1.15 -0.4641
v 0.0185 1.15 -0.4577
v 0 0.15 -0.45
v 0 1.15 -0.45
v -0.065 -0.02 -0.2
v -0.067 -0.02 -0.1925
v -0.0725 -0.02 -0.187
v -0.08 -0.02 -0.185
v -0.0875 -0.02 -0.187
v -0.093 -0.02 -0.1925
v -0.095 -0.02 -0.2
v -0.093 -0.02 -0.2075
v -0.0875 -0.02 -0.213
v -0.08 -0.02 -0.215
v -0.0725 -0.02 -0.213
v -0.067 -0.02 -0.2075
v -0.068 0.98 -0.2
v -0.0696 0.98 -0.194
v -0.074 0.98 -0.1896
v -0.08 0.98 -0.188
v -0.086 0.98 -0.1896
v -0.0904 0.98 -0.194
v -0.092 0.98 -0.2
v -0.0904 0.98 -0.206
v -0.086 0.98 -0.2104
v -0.08 0.98 -0.212
v -0.074 0.98 -0.2104
v -0.0696 0.98 -0.206
v -0.08 -0.02 -0.2
v -0.08 0.98 -0.2
v 0.095 -0.02 -0.2
v 0.093 -0.02 -0.1925
v 0.0875 -0.02 -0.187
v 0.08 -0.02 -0.185
v 0.0725 -0.02 -0.187
v 0.067 -0.02 -0.1925
v 0.065 -0.02 -0.2
v 0.067 -0.02 -0.2075
v 0.0725 -0.02 -0.213
v 0.08 -0.02 -0.215
v 0.0875 -0.02 -0.213
v 0.093 -0.02 -0.2075
v 0.092 0.98 -0.2
v 0.0904 0.98 -0.194
v 0.086 0.98 -0.1896
v 0.08 0.98 -0.188
v 0.074 0.98 -0.1896
v 0.0696 0.98 -0.194
v 0.068 0.98 -0.2
v 0.0696 0.98 -0.206
v 0.074 0.98 -0.2104
v 0.08 0.98 -0.212
v 0.086 0.98 -0.2104
v 0.0904 0.98 -0.206
v 0.08 -0.02 -0.2
v 0.08 0.98 -0.2
v -0.062 -0.18 -0.2
v -0.0644 -0.18 -0.191
v -0.071 -0.18 -0.1844
v -0.08 -0.18 -0.182
v -0.089 -0.18 -0.1844
v -0.0956 -0.18 -0.191
v -0.098 -0.18 -0.2
v -0.0956 -0.18 -0.209
v -0.089 -0.18 -0.2156
v -0.08 -0.18 -0.218
v -0.071 -0.18 -0.2156
v -0.0644 -0.18 -0.209
v -0.065 0.82 -0.2
v -0.067 0.82 -0.1925
v -0.0725 0.82 -0.187
v -0.08 0.82 -0.185
v -0.0875 0.82 -0.187
v -0.093 0.82 -0.1925
v -0.095 0.82 -0.2
v -0.093 0.82 -0.2075
v -0.0875 0.82 -0.213
v -0.08 0.82 -0.215
v -0.0725 0.82 -0.213
v -0.067 0.82 -0.2075
v -0.08 -0.18 -0.2
v -0.08 0.82 -0.2
v 0.098 -0.18 -0.2
v 0.0956 -0.18 -0.191
v 0.089 -0.18 -0.1844
v 0.08 -0.18 -0.182
v 0.071 -0.18 -0.1844
v 0.0644 -0.18 -0.191
v 0.062 -0.18 -0.2
v 0.0644 -0.18 -0.209
v 0.071 -0.18 -0.2156
v 0.08 -0.18 -0.218
v 0.089 -0.18 -0.2156
v 0.0956 -0.18 -0.209
v 0.095 0.82 -0.2
v 0.093 0.82 -0.1925
v 0.0875 0.82 -0.187
v 0.08 0.82 -0.185
v 0.0725 0.82 -0.187
v 0.067 0.82 -0.1925
v 0.065 0.82 -0.2
v 0.067 0.82 -0.2075
v 0.0725 0.82 -0.213
v 0.08 0.82 -0.215
v 0.0875 0.82 -0.213
v 0.093 0.82 -0.2075
v 0.08 -0.18 -0.2
v 0.08 0.82 -0.2
v 0.22 -0.18 -0.42
v 0.2166 -0.18 -0.3941
v 0.2066 -0.18 -0.37
v 0.1907 -0.18 -0.3493
v 0.17 -0.18 -0.3334
v 0.1459 -0.18 -0.3234
v 0.12 -0.18 -0.32
v 0.0941 -0.18 -0.3234
v 0.07 -0.18 -0.3334
v 0.0493 -0.18 -0.3493
v 0.0334 -0.18 -0.37
v 0.0234 -0.18 -0.3941
v 0.02 -0.18 -0.42
v 0.0234 -0.18 -0.4459
v 0.0334 -0.18 -0.47
v 0.0493 -0.18 -0.4907
v 0.07 -0.18 -0.5066
v 0.0941 -0.18 -0.5166
v 0.12 -0.18 -0.52
v 0.1459 -0.18 -0.5166
v 0.17 -0.18 -0.5066
v 0.1907 -0.18 -0.4907
v 0.2066 -0.18 -0.47
v 0.2166 -0.18 -0.4459
v 0.22 0.82 -0.42
v 0.2166 0.82 -0.3941
v 0.2066 0.82 -0.37
v 0.1907 0.82 -0.3493
v 0.17 0.82 -0.3334
v 0.1459 0.82 -0.3234
v 0.12 0.82 -0.32
v 0.0941 0.82 -0.3234
v 0.07 0.82 -0.3334
v 0.0493 0.82 -0.3493
v 0.0334 0.82 -0.37
v 0.0234 0.82 -0.3941
v 0.02 0.82 -0.42
v 0.0234 0.82 -0.4459
v 0.0334 0.82 -0.47
v 0.0493 0.82 -0.4907
v 0.07 0.82 -0.5066
v 0.0941 0.82 -0.5166
v 0.12 0.82 -0.52
v 0.1459 0.82 -0.5166
v 0.17 0.82 -0.5066
v 0.1907 0.82 -0.4907
v 0.2066 0.82 -0.47
v 0.2166 0.82 -0.4459
v 0.12 -0.18 -0.42
v 0.12 0.82 -0.42
v 0.25 -0.18 -0.42
v 0.2479 -0.18 -0.3985
v 0.2416 -0.18 -0.3779
v 0.2315 -0.18 -0.3589
v 0.2178 -0.18 -0.3422
v 0.2011 -0.18 -0.3285
v 0.1821 -0.18 -0.3184
v 0.1615 -0.18 -0.3121
v 0.14 -0.18 -0.31
v 0.1185 -0.18 -0.3121
v 0.0979 -0.18 -0.3184
v 0.0789 -0.18 -0.3285
v 0.0622 -0.18 -0.3422
v 0.0485 -0.18 -0.3589
v 0.0384 -0.18 -0.3779
v 0.0321 -0.18 -0.3985
v 0.03 -0.18 -0.42
v 0.0321 -0.18 -0.4415
v 0.0384 -0.18 -0.4621
v 0.0485 -0.18 -0.4811
v 0.0622 -0.18 -0.4978
v 0.0789 -0.18 -0.5115
v 0.0979 -0.18 -0.5216
v 0.1185 -0.18 -0.5279
v 0.14 -0.18 -0.53
v 0.1615 -0.18 -0.5279
v 0.1821 -0.18 -0.5216
v 0.2011 -0.18 -0.5115
v 0.2178 -0.18 -0.4978
v 0.2315 -0.18 -0.4811
v 0.2416 -0.18 -0.4621
v 0.2479 -0.18 -0.4415
v 0.25 0.82 -0.42
v 0.2479 0.82 -0.3985
v 0.2416 0.82 -0.3779
v 0.2315 0.82 -0.3589
v 0.2178 0.82 -0.3422
v 0.2011 0.82 -0.3285
v 0.1821 0.82 -0.3184
v 0.1615 0.82 -0.3121
v 0.14 0.82 -0.31
v 0.1185 0.82 -0.3121
v 0.0979 0.82 -0.3184
v 0.0789 0.82 -0.3285
v 0.0622 0.82 -0.3422
v 0.0485 0.82 -0.3589
v 0.0384 0.82 -0.3779
v 0.0321 0.82 -0.3985
v 0.03 0.82 -0.42
v 0.0321 0.82 -0.4415
v 0.0384 0.82 -0.4621
v 0.0485 0.82 -0.4811
v 0.0622 0.82 -0.4978
v 0.0789 0.82 -0.5115
v 0.0979 0.82 -0.5216
v 0.1185 0.82 -0.5279
v 0.14 0.82 -0.53
v 0.1615 0.82 -0.5279
v 0.1821 0.82 -0.5216
v 0.2011 0.82 -0.5115
v 0.2178 0.82 -0.4978
v 0.2315 0.82 -0.4811
v 0.2416 0.82 -0.4621
v 0.2479 0.82 -0.4415
v 0.14 -0.18 -0.42
v 0.14 0.82 -0.42
v 0.145 0.22 -0.43
v 0.175 0.22 -0.43
v 0.175 0.34 -0.43
v 0.145 0.34 -0.43
v 0.145 0.22 -0.41
v 0.175 0.22 -0.41
v 0.175 0.34 -0.41
v 0.145 0.34 -0.41
v 0.14 -0.15 0
v 0.1354 -0.15 0.023
v 0.1224 -0.15 0.0424
v 0.103 -0.15 0.0554
v 0.08 -0.15 0.06
v 0.057 -0.15 0.0554
v 0.0376 -0.15 0.0424
v 0.0246 -0.15 0.023
v 0.02 -0.15 0
v 0.0246 -0.15 -0.023
v 0.0376 -0.15 -0.0424
v 0.057 -0.15 -0.0554
v 0.08 -0.15 -0.06
v 0.103 -0.15 -0.0554
v 0.1224 -0.15 -0.0424
v 0.1354 -0.15 -0.023
v 0.14 0.85 0
v 0.1354 0.85 0.023
v 0.1224 0.85 0.0424
v 0.103 0.85 0.0554
v 0.08 0.85 0.06
v 0.057 0.85 0.0554
v 0.0376 0.85 0.0424
v 0.0246 0.85 0.023
v 0.02 0.85 0
v 0.0246 0.85 -0.023
v 0.0376 0.85 -0.0424
v 0.057 0.85 -0.0554
v 0.08 0.85 -0.06
v 0.103 0.85 -0.0554
v 0.1224 0.85 -0.0424
v 0.1354 0.85 -0.023
v 0.08 -0.15 0
v 0.08 0.85 0
v 0.035 0.2 0.01
v 0.085 0.2 0.01
v 0.085 0.3 0.01
v 0.035 0.3 0.01
v 0.035 0.2 0.09
v 0.085 0.2 0.09
v 0.085 0.3 0.09
v 0.035 0.3 0.09
v 0.09 0.31 -0.425
v 0.11 0.31 -0.425
v 0.11 0.33 -0.425
v 0.09 0.33 -0.425
v 0.09 0.31 0.025
v 0.11 0.31 0.025
v 0.11 0.33 0.025
v 0.09 0.33 0.025
v -0.04 0.425 -0.34
v 0.04 0.425 -0.34
v 0.04 0.575 -0.34
v -0.04 0.575 -0.34
v -0.04 0.425 -0.26
v 0.04 0.425 -0.26
v 0.04 0.575 -0.26
v -0.04 0.575 -0.26
v -0.04 0.59 -0.39
v 0.04 0.59 -0.39
v 0.04 0.71 -0.39
v -0.04 0.71 -0.39
v -0.04 0.59 -0.31
v 0.04 0.59 -0.31
v 0.04 0.71 -0.31
v -0.04 0.71 -0.31
vt 0 0
vt 0 0.16666666666666666
vt 0 0.3333333333333333
vt 0 0.5
vt 0 0.6666666666666666
vt 0 0.8333333333333334
vt 0 1
vt 0.1 0
vt 0.1 0.16666666666666666
vt 0.1 0.3333333333333333
vt 0.1 0.5
vt 0.1 0.6666666666666666
vt 0.1 0.8333333333333334
vt 0.1 1
vt 0.2 0
vt 0.2 0.16666666666666666
vt 0.2 0.3333333333333333
vt 0.2 0.5
vt 0.2 0.6666666666666666
vt 0.2 0.8333333333333334
vt 0.2 1
vt 0.3 0
vt 0.3 0.16666666666666666
vt 0.3 0.3333333333333333
vt 0.3 0.5
vt 0.3 0.6666666666666666
vt 0.3 0.8333333333333334
vt 0.3 1
vt 0.4 0
vt 0.4 0.16666666666666666
vt 0.4 0.3333333333333333
vt 0.4 0.5
vt 0.4 0.6666666666666666
vt 0.4 0.8333333333333334
vt 0.4 1
vt 0.5 0
vt 0.5 0.16666666666666666
vt 0.5 0.3333333333333333
vt 0.5 0.5
vt 0.5 0.6666666666666666
vt 0.5 0.8333333333333334
vt 0.5 1
vt 0.6 0
vt 0.6 0.16666666666666666
vt 0.6 0.3333333333333333
vt 0.6 0.5
vt 0.6 0.6666666666666666
vt 0.6 0.8333333333333334
vt 0.6 1
vt 0.7 0
vt 0.7 0.16666666666666666
vt 0.7 0.3333333333333333
vt 0.7 0.5
vt 0.7 0.6666666666666666
vt 0.7 0.8333333333333334
vt 0.7 1
vt 0.8 0
vt 0.8 0.16666666666666666
vt 0.8 0.3333333333333333
vt 0.8 0.5
vt 0.8 0.6666666666666666
vt 0.8 0.8333333333333334
vt 0.8 1
vt 0.9 0
vt 0.9 0.16666666666666666
vt 0.9 0.3333333333333333
vt 0.9 0.5
vt 0.9 0.6666666666666666
vt 0.9 0.8333333333333334
vt 0.9 1
vt 1 0
vt 1 0.16666666666666666
vt 1 0.3333333333333333
vt 1 0.5
vt 1 0.6666666666666666
vt 1 0.8333333333333334
vt 1 1
vt 0 0
vt 0 0.16666666666666666
vt 0 0.3333333333333333
vt 0 0.5
vt 0 0.6666666666666666
vt 0 0.8333333333333334
vt 0 1
vt 0.1 0
vt 0.1 0.16666666666666666
vt 0.1 0.3333333333333333
vt 0.1 0.5
vt 0.1 0.6666666666666666
vt 0.1 0.8333333333333334
vt 0.1 1
vt 0.2 0
vt 0.2 0.16666666666666666
vt 0.2 0.3333333333333333
vt 0.2 0.5
vt 0.2 0.6666666666666666
vt 0.2 0.8333333333333334
vt 0.2 1
vt 0.3 0
vt 0.3 0.16666666666666666
vt 0.3 0.3333333333333333
vt 0.3 0.5
vt 0.3 0.6666666666666666
vt 0.3 0.8333333333333334
vt 0.3 1
vt 0.4 0
vt 0.4 0.16666666666666666
vt 0.4 0.3333333333333333
vt 0.4 0.5
vt 0.4 0.6666666666666666
vt 0.4 0.8333333333333334
vt 0.4 1
vt 0.5 0
vt 0.5 0.16666666666666666
vt 0.5 0.3333333333333333
vt 0.5 0.5
vt 0.5 0.6666666666666666
vt 0.5 0.8333333333333334
vt 0.5 1
vt 0.6 0
vt 0.6 0.16666666666666666
vt 0.6 0.3333333333333333
vt 0.6 0.5
vt 0.6 0.6666666666666666
vt 0.6 0.8333333333333334
vt 0.6 1
vt 0.7 0
vt 0.7 0.16666666666666666
vt 0.7 0.3333333333333333
vt 0.7 0.5
vt 0.7 0.6666666666666666
vt 0.7 0.8333333333333334
vt 0.7 1
vt 0.8 0
vt 0.8 0.16666666666666666
vt 0.8 0.3333333333333333
vt 0.8 0.5
vt 0.8 0.6666666666666666
vt 0.8 0.8333333333333334
vt 0.8 1
vt 0.9 0
vt 0.9 0.16666666666666666
vt 0.9 0.3333333333333333
vt 0.9 0.5
vt 0.9 0.6666666666666666
vt 0.9 0.8333333333333334
vt 0.9 1
vt 1 0
vt 1 0.16666666666666666
vt 1 0.3333333333333333
vt 1 0.5
vt 1 0.6666666666666666
vt 1 0.8333333333333334
vt 1 1
vt 0 0
vt 0.03125 0
vt 0.0625 0
vt 0.09375 0
vt 0.125 0
vt 0.15625 0
vt 0.1875 0
vt 0.21875 0
vt 0.25 0
vt 0.28125 0
vt 0.3125 0
vt 0.34375 0
vt 0.375 0
vt 0.40625 0
vt 0.4375 0
vt 0.46875 0
vt 0.5 0
vt 0.53125 0
vt 0.5625 0
vt 0.59375 0
vt 0.625 0
vt 0.65625 0
vt 0.6875 0
vt 0.71875 0
vt 0.75 0
vt 0.78125 0
vt 0.8125 0
vt 0.84375 0
vt 0.875 0
vt 0.90625 0
vt 0.9375 0
vt 0.96875 0
vt 0 1
vt 0.03125 1
vt 0.0625 1
vt 0.09375 1
vt 0.125 1
vt 0.15625 1
vt 0.1875 1
vt 0.21875 1
vt 0.25 1
vt 0.28125 1
vt 0.3125 1
vt 0.34375 1
vt 0.375 1
vt 0.40625 1
vt 0.4375 1
vt 0.46875 1
vt 0.5 1
vt 0.53125 1
vt 0.5625 1
vt 0.59375 1
vt 0.625 1
vt 0.65625 1
vt 0.6875 1
vt 0.71875 1
vt 0.75 1
vt 0.78125 1
vt 0.8125 1
vt 0.84375 1
vt 0.875 1
vt 0.90625 1
vt 0.9375 1
vt 0.96875 1
vt 0.5 0.5
vt 0.5 0.5
vt 0 0
vt 0.03125 0
vt 0.0625 0
vt 0.09375 0
vt 0.125 0
vt 0.15625 0
vt 0.1875 0
vt 0.21875 0
vt 0.25 0
vt 0.28125 0
vt 0.3125 0
vt 0.34375 0
vt 0.375 0
vt 0.40625 0
vt 0.4375 0
vt 0.46875 0
vt 0.5 0
vt 0.53125 0
vt 0.5625 0
vt 0.59375 0
vt 0.625 0
vt 0.65625 0
vt 0.6875 0
vt 0.71875 0
vt 0.75 0
vt 0.78125 0
vt 0.8125 0
vt 0.84375 0
vt 0.875 0
vt 0.90625 0
vt 0.9375 0
vt 0.96875 0
vt 0 1
vt 0.03125 1
vt 0.0625 1
vt 0.09375 1
vt 0.125 1
vt 0.15625 1
vt 0.1875 1
vt 0.21875 1
vt 0.25 1
vt 0.28125 1
vt 0.3125 1
vt 0.34375 1
vt 0.375 1
vt 0.40625 1
vt 0.4375 1
vt 0.46875 1
vt 0.5 1
vt 0.53125 1
vt 0.5625 1
vt 0.59375 1
vt 0.625 1
vt 0.65625 1
vt 0.6875 1
vt 0.71875 1
vt 0.75 1
vt 0.78125 1
vt 0.8125 1
vt 0.84375 1
vt 0.875 1
vt 0.90625 1
vt 0.9375 1
vt 0.96875 1
vt 0.5 0.5
vt 0.5 0.5
vt 0 0
vt 0.0625 0
vt 0.125 0
vt 0.1875 0
vt 0.25 0
vt 0.3125 0
vt 0.375 0
vt 0.4375 0
vt 0.5 0
vt 0.5625 0
vt 0.625 0
vt 0.6875 0
vt 0.75 0
vt 0.8125 0
vt 0.875 0
vt 0.9375 0
vt 0 1
vt 0.0625 1
vt 0.125 1
vt 0.1875 1
vt 0.25 1
vt 0.3125 1
vt 0.375 1
vt 0.4375 1
vt 0.5 1
vt 0.5625 1
vt 0.625 1
vt 0.6875 1
vt 0.75 1
vt 0.8125 1
vt 0.875 1
vt 0.9375 1
vt 0.5 0.5
vt 0.5 0.5
vt 0 0
vt 0.0625 0
vt 0.125 0
vt 0.1875 0
vt 0.25 0
vt 0.3125 0
vt 0.375 0
vt 0.4375 0
vt 0.5 0
vt 0.5625 0
vt 0.625 0
vt 0.6875 0
vt 0.75 0
vt 0.8125 0
vt 0.875 0
vt 0.9375 0
vt 0 1
vt 0.0625 1
vt 0.125 1
vt 0.1875 1
vt 0.25 1
vt 0.3125 1
vt 0.375 1
vt 0.4375 1
vt 0.5 1
vt 0.5625 1
vt 0.625 1
vt 0.6875 1
vt 0.75 1
vt 0.8125 1
vt 0.875 1
vt 0.9375 1
vt 0.5 0.5
vt 0.5 0.5
vt 0 0
vt 0.0625 0
vt 0.125 0
vt 0.1875 0
vt 0.25 0
vt 0.3125 0
vt 0.375 0
vt 0.4375 0
vt 0.5 0
vt 0.5625 0
vt 0.625 0
vt 0.6875 0
vt 0.75 0
vt 0.8125 0
vt 0.875 0
vt 0.9375 0
vt 0 1
vt 0.0625 1
vt 0.125 1
vt 0.1875 1
vt 0.25 1
vt 0.3125 1
vt 0.375 1
vt 0.4375 1
vt 0.5 1
vt 0.5625 1
vt 0.625 1
vt 0.6875 1
vt 0.75 1
vt 0.8125 1
vt 0.875 1
vt 0.9375 1
vt 0.5 0.5
vt 0.5 0.5
vt 0 0
vt 0.08333333333333333 0
vt 0.16666666666666666 0
vt 0.25 0
vt 0.3333333333333333 0
vt 0.4166666666666667 0
vt 0.5 0
vt 0.5833333333333334 0
vt 0.6666666666666666 0
vt 0.75 0
vt 0.8333333333333334 0
vt 0.9166666666666666 0
vt 0 1
vt 0.08333333333333333 1
vt 0.16666666666666666 1
vt 0.25 1
vt 0.3333333333333333 1
vt 0.4166666666666667 1
vt 0.5 1
vt 0.5833333333333334 1
vt 0.6666666666666666 1
vt 0.75 1
vt 0.8333333333333334 1
vt 0.9166666666666666 1
vt 0.5 0.5
vt 0.5 0.5
vt 0 0
vt 0.08333333333333333 0
vt 0.16666666666666666 0
vt 0.25 0
vt 0.3333333333333333 0
vt 0.4166666666666667 0
vt 0.5 0
vt 0.5833333333333334 0
vt 0.6666666666666666 0
vt 0.75 0
vt 0.8333333333333334 0
vt 0.9166666666666666 0
vt 0 1
vt 0.08333333333333333 1
vt 0.16666666666666666 1
vt 0.25 1
vt 0.3333333333333333 1
vt 0.4166666666666667 1
vt 0.5 1
vt 0.5833333333333334 1
vt 0.6666666666666666 1
vt 0.75 1
vt 0.8333333333333334 1
vt 0.9166666666666666 1
vt 0.5 0.5
vt 0.5 0.5
vt 0 0
vt 0.08333333333333333 0
vt 0.16666666666666666 0
vt 0.25 0
vt 0.3333333333333333 0
vt 0.4166666666666667 0
vt 0.5 0
vt 0.5833333333333334 0
vt 0.6666666666666666 0
vt 0.75 0
vt 0.8333333333333334 0
vt 0.9166666666666666 0
vt 0 1
vt 0.08333333333333333 1
vt 0.16666666666666666 1
vt 0.25 1
vt 0.3333333333333333 1
vt 0.4166666666666667 1
vt 0.5 1
vt 0.5833333333333334 1
vt 0.6666666666666666 1
vt 0.75 1
vt 0.8333333333333334 1
vt 0.9166666666666666 1
vt 0.5 0.5
vt 0.5 0.5
vt 0 0
vt 0.08333333333333333 0
vt 0.16666666666666666 0
vt 0.25 0
vt 0.3333333333333333 0
vt 0.4166666666666667 0
vt 0.5 0
vt 0.5833333333333334 0
vt 0.6666666666666666 0
vt 0.75 0
vt 0.8333333333333334 0
vt 0.9166666666666666 0
vt 0 1
vt 0.08333333333333333 1
vt 0.16666666666666666 1
vt 0.25 1
vt 0.3333333333333333 1
vt 0.4166666666666667 1
vt 0.5 1
vt 0.5833333333333334 1
vt 0.6666666666666666 1
vt 0.75 1
vt 0.8333333333333334 1
vt 0.9166666666666666 1
vt 0.5 0.5
vt 0.5 0.5
vt 0 0
vt 0.041666666666666664 0
vt 0.08333333333333333 0
vt 0.125 0
vt 0.16666666666666666 0
vt 0.20833333333333334 0
vt 0.25 0
vt 0.2916666666666667 0
vt 0.3333333333333333 0
vt 0.375 0
vt 0.4166666666666667 0
vt 0.4583333333333333 0
vt 0.5 0
vt 0.5416666666666666 0
vt 0.5833333333333334 0
vt 0.625 0
vt 0.6666666666666666 0
vt 0.7083333333333334 0
vt 0.75 0
vt 0.7916666666666666 0
vt 0.8333333333333334 0
vt 0.875 0
vt 0.9166666666666666 0
vt 0.9583333333333334 0
vt 0 1
vt 0.041666666666666664 1
vt 0.08333333333333333 1
vt 0.125 1
vt 0.16666666666666666 1
vt 0.20833333333333334 1
vt 0.25 1
vt 0.2916666666666667 1
vt 0.3333333333333333 1
vt 0.375 1
vt 0.4166666666666667 1
vt 0.4583333333333333 1
vt 0.5 1
vt 0.5416666666666666 1
vt 0.5833333333333334 1
vt 0.625 1
vt 0.6666666666666666 1
vt 0.7083333333333334 1
vt 0.75 1
vt 0.7916666666666666 1
vt 0.8333333333333334 1
vt 0.875 1
vt 0.9166666666666666 1
vt 0.9583333333333334 1
vt 0.5 0.5
vt 0.5 0.5
vt 0 0
vt 0.03125 0
vt 0.0625 0
vt 0.09375 0
vt 0.125 0
vt 0.15625 0
vt 0.1875 0
vt 0.21875 0
vt 0.25 0
vt 0.28125 0
vt 0.3125 0
vt 0.34375 0
vt 0.375 0
vt 0.40625 0
vt 0.4375 0
vt 0.46875 0
vt 0.5 0
vt 0.53125 0
vt 0.5625 0
vt 0.59375 0
vt 0.625 0
vt 0.65625 0
vt 0.6875 0
vt 0.71875 0
vt 0.75 0
vt 0.78125 0
vt 0.8125 0
vt 0.84375 0
vt 0.875 0
vt 0.90625 0
vt 0.9375 0
vt 0.96875 0
vt 0 1
vt 0.03125 1
vt 0.0625 1
vt 0.09375 1
vt 0.125 1
vt 0.15625 1
vt 0.1875 1
vt 0.21875 1
vt 0.25 1
vt 0.28125 1
vt 0.3125 1
vt 0.34375 1
vt 0.375 1
vt 0.40625 1
vt 0.4375 1
vt 0.46875 1
vt 0.5 1
vt 0.53125 1
vt 0.5625 1
vt 0.59375 1
vt 0.625 1
vt 0.65625 1
vt 0.6875 1
vt 0.71875 1
vt 0.75 1
vt 0.78125 1
vt 0.8125 1
vt 0.84375 1
vt 0.875 1
vt 0.90625 1
vt 0.9375 1
vt 0.96875 1
vt 0.5 0.5
vt 0.5 0.5
vt 0.5 0.5
vt 0.5 0.5
vt 0.5 0.5
vt 0.5 0.5
vt 0.5 0.5
vt 0.5 0.5
vt 0.5 0.5
vt 0.5 0.5
vt 0 0
vt 0.0625 0
vt 0.125 0
vt 0.1875 0
vt 0.25 0
vt 0.3125 0
vt 0.375 0
vt 0.4375 0
vt 0.5 0
vt 0.5625 0
vt 0.625 0
vt 0.6875 0
vt 0.75 0
vt 0.8125 0
vt 0.875 0
vt 0.9375 0
vt 0 1
vt 0.0625 1
vt 0.125 1
vt 0.1875 1
vt 0.25 1
vt 0.3125 1
vt 0.375 1
vt 0.4375 1
vt 0.5 1
vt 0.5625 1
vt 0.625 1
vt 0.6875 1
vt 0.75 1
vt 0.8125 1
vt 0.875 1
vt 0.9375 1
vt 0.5 0.5
vt 0.5 0.5
vt 0.5 0.5
vt 0.5 0.5
vt 0.5 0.5
vt 0.5 0.5
vt 0.5 0.5
vt 0.5 0.5
vt 0.5 0.5
vt 0.5 0.5
vt 0.5 0.5
vt 0.5 0.5
vt 0.5 0.5
vt 0.5 0.5
vt 0.5 0.5
vt 0.5 0.5
vt 0.5 0.5
vt 0.5 0.5
vt 0.5 0.5
vt 0.5 0.5
vt 0.5 0.5
vt 0.5 0.5
vt 0.5 0.5
vt 0.5 0.5
vt 0.5 0.5
vt 0.5 0.5
vt 0.5 0.5
vt 0.5 0.5
vt 0.5 0.5
vt 0.5 0.5
vt 0.5 0.5
vt 0.5 0.5
vt 0.5 0.5
vt 0.5 0.5
vn 1 0 0
vn 0.5000000000000001 0.8660254037844386 0
vn -0.4999999999999998 0.8660254037844387 0
vn -1 1.2246467991473532e-16 0
vn -0.5000000000000004 -0.8660254037844385 0
vn 0.5000000000000001 -0.8660254037844386 0
vn 1 -2.4492935982947064e-16 0
vn 0.8090169943749475 0 0.5877852522924731
vn 0.40450849718747384 0.8660254037844386 0.2938926261462366
vn -0.40450849718747356 0.8660254037844387 -0.29389262614623646
vn -0.8090169943749475 1.2246467991473532e-16 -0.5877852522924731
vn -0.40450849718747406 -0.8660254037844385 -0.29389262614623685
vn 0.40450849718747384 -0.8660254037844386 0.2938926261462366
vn 0.8090169943749475 -2.4492935982947064e-16 0.5877852522924731
vn 0.30901699437494745 0 0.9510565162951535
vn 0.15450849718747375 0.8660254037844386 0.4755282581475769
vn -0.15450849718747367 0.8660254037844387 -0.47552825814757654
vn -0.30901699437494745 1.2246467991473532e-16 -0.9510565162951535
vn -0.15450849718747386 -0.8660254037844385 -0.4755282581475772
vn 0.15450849718747375 -0.8660254037844386 0.4755282581475769
vn 0.30901699437494745 -2.4492935982947064e-16 0.9510565162951535
vn -0.30901699437494734 0 0.9510565162951536
vn -0.1545084971874737 0.8660254037844386 0.47552825814757693
vn 0.15450849718747361 0.8660254037844387 -0.4755282581475766
vn 0.30901699437494734 1.2246467991473532e-16 -0.9510565162951536
vn 0.1545084971874738 -0.8660254037844385 -0.47552825814757727
vn -0.1545084971874737 -0.8660254037844386 0.47552825814757693
vn -0.30901699437494734 -2.4492935982947064e-16 0.9510565162951536
vn -0.8090169943749473 0 0.5877852522924732
vn -0.4045084971874738 0.8660254037844386 0.2938926261462367
vn 0.4045084971874735 0.8660254037844387 -0.2938926261462365
vn 0.8090169943749473 1.2246467991473532e-16 -0.5877852522924732
vn 0.404508497187474 -0.8660254037844385 -0.2938926261462369
vn -0.4045084971874738 -0.8660254037844386 0.2938926261462367
vn -0.8090169943749473 -2.4492935982947064e-16 0.5877852522924732
vn -1 0 1.2246467991473532e-16
vn -0.5000000000000001 0.8660254037844386 6.123233995736767e-17
vn 0.4999999999999998 0.8660254037844387 -6.123233995736764e-17
vn 1 1.2246467991473532e-16 -1.2246467991473532e-16
vn 0.5000000000000004 -0.8660254037844385 -6.123233995736771e-17
vn -0.5000000000000001 -0.8660254037844386 6.123233995736767e-17
vn -1 -2.4492935982947064e-16 1.2246467991473532e-16
vn -0.8090169943749475 0 -0.587785252292473
vn -0.40450849718747384 0.8660254037844386 -0.29389262614623657
vn 0.40450849718747356 0.8660254037844387 0.2938926261462364
vn 0.8090169943749475 1.2246467991473532e-16 0.587785252292473
vn 0.40450849718747406 -0.8660254037844385 0.2938926261462368
vn -0.40450849718747384 -0.8660254037844386 -0.29389262614623657
vn -0.8090169943749475 -2.4492935982947064e-16 -0.587785252292473
vn -0.30901699437494756 0 -0.9510565162951535
vn -0.1545084971874738 0.8660254037844386 -0.4755282581475769
vn 0.15450849718747373 0.8660254037844387 0.47552825814757654
vn 0.30901699437494756 1.2246467991473532e-16 0.9510565162951535
vn 0.15450849718747392 -0.8660254037844385 0.4755282581475772
vn -0.1545084971874738 -0.8660254037844386 -0.4755282581475769
vn -0.30901699437494756 -2.4492935982947064e-16 -0.9510565162951535
vn 0.30901699437494723 0 -0.9510565162951536
vn 0.15450849718747364 0.8660254037844386 -0.47552825814757693
vn -0.15450849718747356 0.8660254037844387 0.4755282581475766
vn -0.30901699437494723 1.2246467991473532e-16 0.9510565162951536
vn -0.15450849718747375 -0.8660254037844385 0.47552825814757727
vn 0.15450849718747364 -0.8660254037844386 -0.47552825814757693
vn 0.30901699437494723 -2.4492935982947064e-16 -0.9510565162951536
vn 0.8090169943749473 0 -0.5877852522924734
vn 0.4045084971874738 0.8660254037844386 -0.29389262614623674
vn -0.4045084971874735 0.8660254037844387 0.29389262614623657
vn -0.8090169943749473 1.2246467991473532e-16 0.5877852522924734
vn -0.404508497187474 -0.8660254037844385 0.29389262614623696
vn 0.4045084971874738 -0.8660254037844386 -0.29389262614623674
vn 0.8090169943749473 -2.4492935982947064e-16 -0.5877852522924734
vn 1 0 -2.4492935982947064e-16
vn 0.5000000000000001 0.8660254037844386 -1.2246467991473535e-16
vn -0.4999999999999998 0.8660254037844387 1.2246467991473527e-16
vn -1 1.2246467991473532e-16 2.4492935982947064e-16
vn -0.5000000000000004 -0.8660254037844385 1.2246467991473542e-16
vn 0.5000000000000001 -0.8660254037844386 -1.2246467991473535e-16
vn 1 -2.4492935982947064e-16 -2.4492935982947064e-16
vn 1 0 0
vn 0.5000000000000001 0.8660254037844386 0
vn -0.4999999999999998 0.8660254037844387 0
vn -1 1.2246467991473532e-16 0
vn -0.5000000000000004 -0.8660254037844385 0
vn 0.5000000000000001 -0.8660254037844386 0
vn 1 -2.4492935982947064e-16 0
vn 0.8090169943749475 0 0.5877852522924731
vn 0.40450849718747384 0.8660254037844386 0.2938926261462366
vn -0.40450849718747356 0.8660254037844387 -0.29389262614623646
vn -0.8090169943749475 1.2246467991473532e-16 -0.5877852522924731
vn -0.40450849718747406 -0.8660254037844385 -0.29389262614623685
vn 0.40450849718747384 -0.8660254037844386 0.2938926261462366
vn 0.8090169943749475 -2.4492935982947064e-16 0.5877852522924731
vn 0.30901699437494745 0 0.9510565162951535
vn 0.15450849718747375 0.8660254037844386 0.4755282581475769
vn -0.15450849718747367 0.8660254037844387 -0.47552825814757654
vn -0.30901699437494745 1.2246467991473532e-16 -0.9510565162951535
vn -0.15450849718747386 -0.8660254037844385 -0.4755282581475772
vn 0.15450849718747375 -0.8660254037844386 0.4755282581475769
vn 0.30901699437494745 -2.4492935982947064e-16 0.9510565162951535
vn -0.30901699437494734 0 0.9510565162951536
vn -0.1545084971874737 0.8660254037844386 0.47552825814757693
vn 0.15450849718747361 0.8660254037844387 -0.4755282581475766
vn 0.30901699437494734 1.2246467991473532e-16 -0.9510565162951536
vn 0.1545084971874738 -0.8660254037844385 -0.47552825814757727
vn -0.1545084971874737 -0.8660254037844386 0.47552825814757693
vn -0.30901699437494734 -2.4492935982947064e-16 0.9510565162951536
vn -0.8090169943749473 0 0.5877852522924732
vn -0.4045084971874738 0.8660254037844386 0.2938926261462367
vn 0.4045084971874735 0.8660254037844387 -0.2938926261462365
vn 0.8090169943749473 1.2246467991473532e-16 -0.5877852522924732
vn 0.404508497187474 -0.8660254037844385 -0.2938926261462369
vn -0.4045084971874738 -0.8660254037844386 0.2938926261462367
vn -0.8090169943749473 -2.4492935982947064e-16 0.5877852522924732
vn -1 0 1.2246467991473532e-16
vn -0.5000000000000001 0.8660254037844386 6.123233995736767e-17
vn 0.4999999999999998 0.8660254037844387 -6.123233995736764e-17
vn 1 1.2246467991473532e-16 -1.2246467991473532e-16
vn 0.5000000000000004 -0.8660254037844385 -6.123233995736771e-17
vn -0.5000000000000001 -0.8660254037844386 6.123233995736767e-17
vn -1 -2.4492935982947064e-16 1.2246467991473532e-16
vn -0.8090169943749475 0 -0.587785252292473
vn -0.40450849718747384 0.8660254037844386 -0.29389262614623657
vn 0.40450849718747356 0.8660254037844387 0.2938926261462364
vn 0.8090169943749475 1.2246467991473532e-16 0.587785252292473
vn 0.40450849718747406 -0.8660254037844385 0.2938926261462368
vn -0.40450849718747384 -0.8660254037844386 -0.29389262614623657
vn -0.8090169943749475 -2.4492935982947064e-16 -0.587785252292473
vn -0.30901699437494756 0 -0.9510565162951535
vn -0.1545084971874738 0.8660254037844386 -0.4755282581475769
vn 0.15450849718747373 0.8660254037844387 0.47552825814757654
vn 0.30901699437494756 1.2246467991473532e-16 0.9510565162951535
vn 0.15450849718747392 -0.8660254037844385 0.4755282581475772
vn -0.1545084971874738 -0.8660254037844386 -0.4755282581475769
vn -0.30901699437494756 -2.4492935982947064e-16 -0.9510565162951535
vn 0.30901699437494723 0 -0.9510565162951536
vn 0.15450849718747364 0.8660254037844386 -0.47552825814757693
vn -0.15450849718747356 0.8660254037844387 0.4755282581475766
vn -0.30901699437494723 1.2246467991473532e-16 0.9510565162951536
vn -0.15450849718747375 -0.8660254037844385 0.47552825814757727
vn 0.15450849718747364 -0.8660254037844386 -0.47552825814757693
vn 0.30901699437494723 -2.4492935982947064e-16 -0.9510565162951536
vn 0.8090169943749473 0 -0.5877852522924734
vn 0.4045084971874738 0.8660254037844386 -0.29389262614623674
vn -0.4045084971874735 0.8660254037844387 0.29389262614623657
vn -0.8090169943749473 1.2246467991473532e-16 0.5877852522924734
vn -0.404508497187474 -0.8660254037844385 0.29389262614623696
vn 0.4045084971874738 -0.8660254037844386 -0.29389262614623674
vn 0.8090169943749473 -2.4492935982947064e-16 -0.5877852522924734
vn 1 0 -2.4492935982947064e-16
vn 0.5000000000000001 0.8660254037844386 -1.2246467991473535e-16
vn -0.4999999999999998 0.8660254037844387 1.2246467991473527e-16
vn -1 1.2246467991473532e-16 2.4492935982947064e-16
vn -0.5000000000000004 -0.8660254037844385 1.2246467991473542e-16
vn 0.5000000000000001 -0.8660254037844386 -1.2246467991473535e-16
vn 1 -2.4492935982947064e-16 -2.4492935982947064e-16
vn 0 -1 0
vn 0 -1 0
vn 0 -1 0
vn 0 -1 0
vn 0 -1 0
vn 0 -1 0
vn 0 -1 0
vn 0 -1 0
vn 0 -1 0
vn 0 -1 0
vn 0 -1 0
vn 0 -1 0
vn 0 -1 0
vn 0 -1 0
vn 0 -1 0
vn 0 -1 0
vn 0 -1 0
vn 0 -1 0
vn 0 -1 0
vn 0 -1 0
vn 0 -1 0
vn 0 -1 0
vn 0 -1 0
vn 0 -1 0
vn 0 -1 0
vn 0 -1 0
vn 0 -1 0
vn 0 -1 0
vn 0 -1 0
vn 0 -1 0
vn 0 -1 0
vn 0 -1 0
vn 0 1 0
vn 0 1 0
vn 0 1 0
vn 0 1 0
vn 0 1 0
vn 0 1 0
vn 0 1 0
vn 0 1 0
vn 0 1 0
vn 0 1 0
vn 0 1 0
vn 0 1 0
vn 0 1 0
vn 0 1 0
vn 0 1 0
vn 0 1 0
vn 0 1 0
vn 0 1 0
vn 0 1 0
vn 0 1 0
vn 0 1 0
vn 0 1 0
vn 0 1 0
vn 0 1 0
vn 0 1 0
vn 0 1 0
vn 0 1 0
vn 0 1 0
vn 0 1 0
vn 0 1 0
vn 0 1 0
vn 0 1 0
vn 0 -1 0
vn 0 1 0
vn 0 -1 0
vn 0 -1 0
vn 0 -1 0
vn 0 -1 0
vn 0 -1 0
vn 0 -1 0
vn 0 -1 0
vn 0 -1 0
vn 0 -1 0
vn 0 -1 0
vn 0 -1 0
vn 0 -1 0
vn 0 -1 0
vn 0 -1 0
vn 0 -1 0
vn 0 -1 0
vn 0 -1 0
vn 0 -1 0
vn 0 -1 0
vn 0 -1 0
vn 0 -1 0
vn 0 -1 0
vn 0 -1 0
vn 0 -1 0
vn 0 -1 0
vn 0 -1 0
vn 0 -1 0
vn 0 -1 0
vn 0 -1 0
vn 0 -1 0
vn 0 -1 0
vn 0 -1 0
vn 0 1 0
vn 0 1 0
vn 0 1 0
vn 0 1 0
vn 0 1 0
vn 0 1 0
vn 0 1 0
vn 0 1 0
vn 0 1 0
vn 0 1 0
vn 0 1 0
vn 0 1 0
vn 0 1 0
vn 0 1 0
vn 0 1 0
vn 0 1 0
vn 0 1 0
vn 0 1 0
vn 0 1 0
vn 0 1 0
vn 0 1 0
vn 0 1 0
vn 0 1 0
vn 0 1 0
vn 0 1 0
vn 0 1 0
vn 0 1 0
vn 0 1 0
vn 0 1 0
vn 0 1 0
vn 0 1 0
vn 0 1 0
vn 0 -1 0
vn 0 1 0
vn 0 -1 0
vn 0 -1 0
vn 0 -1 0
vn 0 -1 0
vn 0 -1 0
vn 0 -1 0
vn 0 -1 0
vn 0 -1 0
vn 0 -1 0
vn 0 -1 0
vn 0 -1 0
vn 0 -1 0
vn 0 -1 0
vn 0 -1 0
vn 0 -1 0
vn 0 -1 0
vn 0 1 0
vn 0 1 0
vn 0 1 0
vn 0 1 0
vn 0 1 0
vn 0 1 0
vn 0 1 0
vn 0 1 0
vn 0 1 0
vn 0 1 0
vn 0 1 0
vn 0 1 0
vn 0 1 0
vn 0 1 0
vn 0 1 0
vn 0 1 0
vn 0 -1 0
vn 0 1 0
vn 0 -1 0
vn 0 -1 0
vn 0 -1 0
vn 0 -1 0
vn 0 -1 0
vn 0 -1 0
vn 0 -1 0
vn 0 -1 0
vn 0 -1 0
vn 0 -1 0
vn 0 -1 0
vn 0 -1 0
vn 0 -1 0
vn 0 -1 0
vn 0 -1 0
vn 0 -1 0
vn 0 1 0
vn 0 1 0
vn 0 1 0
vn 0 1 0
vn 0 1 0
vn 0 1 0
vn 0 1 0
vn 0 1 0
vn 0 1 0
vn 0 1 0
vn 0 1 0
vn 0 1 0
vn 0 1 0
vn 0 1 0
vn 0 1 0
vn 0 1 0
vn 0 -1 0
vn 0 1 0
vn 0 -1 0
vn 0 -1 0
vn 0 -1 0
vn 0 -1 0
vn 0 -1 0
vn 0 -1 0
vn 0 -1 0
vn 0 -1 0
vn 0 -1 0
vn 0 -1 0
vn 0 -1 0
vn 0 -1 0
vn 0 -1 0
vn 0 -1 0
vn 0 -1 0
vn 0 -1 0
vn 0 1 0
vn 0 1 0
vn 0 1 0
vn 0 1 0
vn 0 1 0
vn 0 1 0
vn 0 1 0
vn 0 1 0
vn 0 1 0
vn 0 1 0
vn 0 1 0
vn 0 1 0
vn 0 1 0
vn 0 1 0
vn 0 1 0
vn 0 1 0
vn 0 -1 0
vn 0 1 0
vn 0 -1 0
vn 0 -1 0
vn 0 -1 0
vn 0 -1 0
vn 0 -1 0
vn 0 -1 0
vn 0 -1 0
vn 0 -1 0
vn 0 -1 0
vn 0 -1 0
vn 0 -1 0
vn 0 -1 0
vn 0 1 0
vn 0 1 0
vn 0 1 0
vn 0 1 0
vn 0 1 0
vn 0 1 0
vn 0 1 0
vn 0 1 0
vn 0 1 0
vn 0 1 0
vn 0 1 0
vn 0 1 0
vn 0 -1 0
vn 0 1 0
vn 0 -1 0
vn 0 -1 0
vn 0 -1 0
vn 0 -1 0
vn 0 -1 0
vn 0 -1 0
vn 0 -1 0
vn 0 -1 0
vn 0 -1 0
vn 0 -1 0
vn 0 -1 0
vn 0 -1 0
vn 0 1 0
vn 0 1 0
vn 0 1 0
vn 0 1 0
vn 0 1 0
vn 0 1 0
vn 0 1 0
vn 0 1 0
vn 0 1 0
vn 0 1 0
vn 0 1 0
vn 0 1 0
vn 0 -1 0
vn 0 1 0
vn 0 -1 0
vn 0 -1 0
vn 0 -1 0
vn 0 -1 0
vn 0 -1 0
vn 0 -1 0
vn 0 -1 0
vn 0 -1 0
vn 0 -1 0
vn 0 -1 0
vn 0 -1 0
vn 0 -1 0
vn 0 1 0
vn 0 1 0
vn 0 1 0
vn 0 1 0
vn 0 1 0
vn 0 1 0
vn 0 1 0
vn 0 1 0
vn 0 1 0
vn 0 1 0
vn 0 1 0
vn 0 1 0
vn 0 -1 0
vn 0 1 0
vn 0 -1 0
vn 0 -1 0
vn 0 -1 0
vn 0 -1 0
vn 0 -1 0
vn 0 -1 0
vn 0 -1 0
vn 0 -1 0
vn 0 -1 0
vn 0 -1 0
vn 0 -1 0
vn 0 -1 0
vn 0 1 0
vn 0 1 0
vn 0 1 0
vn 0 1 0
vn 0 1 0
vn 0 1 0
vn 0 1 0
vn 0 1 0
vn 0 1 0
vn 0 1 0
vn 0 1 0
vn 0 1 0
vn 0 -1 0
vn 0 1 0
vn 0 -1 0
vn 0 -1 0
vn 0 -1 0
vn 0 -1 0
vn 0 -1 0
vn 0 -1 0
vn 0 -1 0
vn 0 -1 0
vn 0 -1 0
vn 0 -1 0
vn 0 -1 0
vn 0 -1 0
vn 0 -1 0
vn 0 -1 0
vn 0 -1 0
vn 0 -1 0
vn 0 -1 0
vn 0 -1 0
vn 0 -1 0
vn 0 -1 0
vn 0 -1 0
vn 0 -1 0
vn 0 -1 0
vn 0 -1 0
vn 0 1 0
vn 0 1 0
vn 0 1 0
vn 0 1 0
vn 0 1 0
vn 0 1 0
vn 0 1 0
vn 0 1 0
vn 0 1 0
vn 0 1 0
vn 0 1 0
vn 0 1 0
vn 0 1 0
vn 0 1 0
vn 0 1 0
vn 0 1 0
vn 0 1 0
vn 0 1 0
vn 0 1 0
vn 0 1 0
vn 0 1 0
vn 0 1 0
vn 0 1 0
vn 0 1 0
vn 0 -1 0
vn 0 1 0
vn 0 -1 0
vn 0 -1 0
vn 0 -1 0
vn 0 -1 0
vn 0 -1 0
vn 0 -1 0
vn 0 -1 0
vn 0 -1 0
vn 0 -1 0
vn 0 -1 0
vn 0 -1 0
vn 0 -1 0
vn 0 -1 0
vn 0 -1 0
vn 0 -1 0
vn 0 -1 0
vn 0 -1 0
vn 0 -1 0
vn 0 -1 0
vn 0 -1 0
vn 0 -1 0
vn 0 -1 0
vn 0 -1 0
vn 0 -1 0
vn 0 -1 0
vn 0 -1 0
vn 0 -1 0
vn 0 -1 0
vn 0 -1 0
vn 0 -1 0
vn 0 -1 0
vn 0 -1 0
vn 0 1 0
vn 0 1 0
vn 0 1 0
vn 0 1 0
vn 0 1 0
vn 0 1 0
vn 0 1 0
vn 0 1 0
vn 0 1 0
vn 0 1 0
vn 0 1 0
vn 0 1 0
vn 0 1 0
vn 0 1 0
vn 0 1 0
vn 0 1 0
vn 0 1 0
vn 0 1 0
vn 0 1 0
vn 0 1 0
vn 0 1 0
vn 0 1 0
vn 0 1 0
vn 0 1 0
vn 0 1 0
vn 0 1 0
vn 0 1 0
vn 0 1 0
vn 0 1 0
vn 0 1 0
vn 0 1 0
vn 0 1 0
vn 0 -1 0
vn 0 1 0
vn 0 1 0
vn 0 1 0
vn 0 1 0
vn 0 1 0
vn 0 1 0
vn 0 1 0
vn 0 1 0
vn 0 1 0
vn 0 -1 0
vn 0 -1 0
vn 0 -1 0
vn 0 -1 0
vn 0 -1 0
vn 0 -1 0
vn 0 -1 0
vn 0 -1 0
vn 0 -1 0
vn 0 -1 0
vn 0 -1 0
vn 0 -1 0
vn 0 -1 0
vn 0 -1 0
vn 0 -1 0
vn 0 -1 0
vn 0 1 0
vn 0 1 0
vn 0 1 0
vn 0 1 0
vn 0 1 0
vn 0 1 0
vn 0 1 0
vn 0 1 0
vn 0 1 0
vn 0 1 0
vn 0 1 0
vn 0 1 0
vn 0 1 0
vn 0 1 0
vn 0 1 0
vn 0 1 0
vn 0 -1 0
vn 0 1 0
vn 0 1 0
vn 0 1 0
vn 0 1 0
vn 0 1 0
vn 0 1 0
vn 0 1 0
vn 0 1 0
vn 0 1 0
vn 0 1 0
vn 0 1 0
vn 0 1 0
vn 0 1 0
vn 0 1 0
vn 0 1 0
vn 0 1 0
vn 0 1 0
vn 0 1 0
vn 0 1 0
vn 0 1 0
vn 0 1 0
vn 0 1 0
vn 0 1 0
vn 0 1 0
vn 0 1 0
vn 0 1 0
vn 0 1 0
vn 0 1 0
vn 0 1 0
vn 0 1 0
vn 0 1 0
vn 0 1 0
vn 0 1 0
f 1/1/1 8/8/8 9/9/9
f 1/1/1 9/9/9 2/2/2
f 2/2/2 9/9/9 10/10/10
f 2/2/2 10/10/10 3/3/3
f 3/3/3 10/10/10 11/11/11
f 3/3/3 11/11/11 4/4/4
f 4/4/4 11/11/11 12/12/12
f 4/4/4 12/12/12 5/5/5
f 5/5/5 12/12/12 13/13/13
f 5/5/5 13/13/13 6/6/6
f 6/6/6 13/13/13 14/14/14
f 6/6/6 14/14/14 7/7/7
f 8/8/8 15/15/15 16/16/16
f 8/8/8 16/16/16 9/9/9
f 9/9/9 16/16/16 17/17/17
f 9/9/9 17/17/17 10/10/10
f 10/10/10 17/17/17 18/18/18
f 10/10/10 18/18/18 11/11/11
f 11/11/11 18/18/18 19/19/19
f 11/11/11 19/19/19 12/12/12
f 12/12/12 19/19/19 20/20/20
f 12/12/12 20/20/20 13/13/13
f 13/13/13 20/20/20 21/21/21
f 13/13/13 21/21/21 14/14/14
f 15/15/15 22/22/22 23/23/23
f 15/15/15 23/23/23 16/16/16
f 16/16/16 23/23/23 24/24/24
f 16/16/16 24/24/24 17/17/17
f 17/17/17 24/24/24 25/25/25
f 17/17/17 25/25/25 18/18/18
f 18/18/18 25/25/25 26/26/26
f 18/18/18 26/26/26 19/19/19
f 19/19/19 26/26/26 27/27/27
f 19/19/19 27/27/27 20/20/20
f 20/20/20 27/27/27 28/28/28
f 20/20/20 28/28/28 21/21/21
f 22/22/22 29/29/29 30/30/30
f 22/22/22 30/30/30 23/23/23
f 23/23/23 30/30/30 31/31/31
f 23/23/23 31/31/31 24/24/24
f 24/24/24 31/31/31 32/32/32
f 24/24/24 32/32/32 25/25/25
f 25/25/25 32/32/32 33/33/33
f 25/25/25 33/33/33 26/26/26
f 26/26/26 33/33/33 34/34/34
f 26/26/26 34/34/34 27/27/27
f 27/27/27 34/34/34 35/35/35
f 27/27/27 35/35/35 28/28/28
f 29/29/29 36/36/36 37/37/37
f 29/29/29 37/37/37 30/30/30
f 30/30/30 37/37/37 38/38/38
f 30/30/30 38/38/38 31/31/31
f 31/31/31 38/38/38 39/39/39
f 31/31/31 39/39/39 32/32/32
f 32/32/32 39/39/39 40/40/40
f 32/32/32 40/40/40 33/33/33
f 33/33/33 40/40/40 41/41/41
f 33/33/33 41/41/41 34/34/34
f 34/34/34 41/41/41 42/42/42
f 34/34/34 42/42/42 35/35/35
f 36/36/36 43/43/43 44/44/44
f 36/36/36 44/44/44 37/37/37
f 37/37/37 44/44/44 45/45/45
f 37/37/37 45/45/45 38/38/38
f 38/38/38 45/45/45 46/46/46
f 38/38/38 46/46/46 39/39/39
f 39/39/39 46/46/46 47/47/47
f 39/39/39 47/47/47 40/40/40
f 40/40/40 47/47/47 48/48/48
f 40/40/40 48/48/48 41/41/41
f 41/41/41 48/48/48 49/49/49
f 41/41/41 49/49/49 42/42/42
f 43/43/43 50/50/50 51/51/51
f 43/43/43 51/51/51 44/44/44
f 44/44/44 51/51/51 52/52/52
f 44/44/44 52/52/52 45/45/45
f 45/45/45 52/52/52 53/53/53
f 45/45/45 53/53/53 46/46/46
f 46/46/46 53/53/53 54/54/54
f 46/46/46 54/54/54 47/47/47
f 47/47/47 54/54/54 55/55/55
f 47/47/47 55/55/55 48/48/48
f 48/48/48 55/55/55 56/56/56
f 48/48/48 56/56/56 49/49/49
f 50/50/50 57/57/57 58/58/58
f 50/50/50 58/58/58 51/51/51
f 51/51/51 58/58/58 59/59/59
f 51/51/51 59/59/59 52/52/52
f 52/52/52 59/59/59 60/60/60
f 52/52/52 60/60/60 53/53/53
f 53/53/53 60/60/60 61/61/61
f 53/53/53 61/61/61 54/54/54
f 54/54/54 61/61/61 62/62/62
f 54/54/54 62/62/62 55/55/55
f 55/55/55 62/62/62 63/63/63
f 55/55/55 63/63/63 56/56/56
f 57/57/57 64/64/64 65/65/65
f 57/57/57 65/65/65 58/58/58
f 58/58/58 65/65/65 66/66/66
f 58/58/58 66/66/66 59/59/59
f 59/59/59 66/66/66 67/67/67
f 59/59/59 67/67/67 60/60/60
f 60/60/60 67/67/67 68/68/68
f 60/60/60 68/68/68 61/61/61
f 61/61/61 68/68/68 69/69/69
f 61/61/61 69/69/69 62/62/62
f 62/62/62 69/69/69 70/70/70
f 62/62/62 70/70/70 63/63/63
f 64/64/64 71/71/71 72/72/72
f 64/64/64 72/72/72 65/65/65
f 65/65/65 72/72/72 73/73/73
f 65/65/65 73/73/73 66/66/66
f 66/66/66 73/73/73 74/74/74
f 66/66/66 74/74/74 67/67/67
f 67/67/67 74/74/74 75/75/75
f 67/67/67 75/75/75 68/68/68
f 68/68/68 75/75/75 76/76/76
f 68/68/68 76/76/76 69/69/69
f 69/69/69 76/76/76 77/77/77
f 69/69/69 77/77/77 70/70/70
f 78/78/78 85/85/85 86/86/86
f 78/78/78 86/86/86 79/79/79
f 79/79/79 86/86/86 87/87/87
f 79/79/79 87/87/87 80/80/80
f 80/80/80 87/87/87 88/88/88
f 80/80/80 88/88/88 81/81/81
f 81/81/81 88/88/88 89/89/89
f 81/81/81 89/89/89 82/82/82
f 82/82/82 89/89/89 90/90/90
f 82/82/82 90/90/90 83/83/83
f 83/83/83 90/90/90 91/91/91
f 83/83/83 91/91/91 84/84/84
f 85/85/85 92/92/92 93/93/93
f 85/85/85 93/93/93 86/86/86
f 86/86/86 93/93/93 94/94/94
f 86/86/86 94/94/94 87/87/87
f 87/87/87 94/94/94 95/95/95
f 87/87/87 95/95/95 88/88/88
f 88/88/88 95/95/95 96/96/96
f 88/88/88 96/96/96 89/89/89
f 89/89/89 96/96/96 97/97/97
f 89/89/89 97/97/97 90/90/90
f 90/90/90 97/97/97 98/98/98
f 90/90/90 98/98/98 91/91/91
f 92/92/92 99/99/99 100/100/100
f 92/92/92 100/100/100 93/93/93
f 93/93/93 100/100/100 101/101/101
f 93/93/93 101/101/101 94/94/94
f 94/94/94 101/101/101 102/102/102
f 94/94/94 102/102/102 95/95/95
f 95/95/95 102/102/102 103/103/103
f 95/95/95 103/103/103 96/96/96
f 96/96/96 103/103/103 104/104/104
f 96/96/96 104/104/104 97/97/97
f 97/97/97 104/104/104 105/105/105
f 97/97/97 105/105/105 98/98/98
f 99/99/99 106/106/106 107/107/107
f 99/99/99 107/107/107 100/100/100
f 100/100/100 107/107/107 108/108/108
f 100/100/100 108/108/108 101/101/101
f 101/101/101 108/108/108 109/109/109
f 101/101/101 109/109/109 102/102/102
f 102/102/102 109/109/109 110/110/110
f 102/102/102 110/110/110 103/103/103
f 103/103/103 110/110/110 111/111/111
f 103/103/103 111/111/111 104/104/104
f 104/104/104 111/111/111 112/112/112
f 104/104/104 112/112/112 105/105/105
f 106/106/106 113/113/113 114/114/114
f 106/106/106 114/114/114 107/107/107
f 107/107/107 114/114/114 115/115/115
f 107/107/107 115/115/115 108/108/108
f 108/108/108 115/115/115 116/116/116
f 108/108/108 116/116/116 109/109/109
f 109/109/109 116/116/116 117/117/117
f 109/109/109 117/117/117 110/110/110
f 110/110/110 117/117/117 118/118/118
f 110/110/110 118/118/118 111/111/111
f 111/111/111 118/118/118 119/119/119
f 111/111/111 119/119/119 112/112/112
f 113/113/113 120/120/120 121/121/121
f 113/113/113 121/121/121 114/114/114
f 114/114/114 121/121/121 122/122/122
f 114/114/114 122/122/122 115/115/115
f 115/115/115 122/122/122 123/123/123
f 115/115/115 123/123/123 116/116/116
f 116/116/116 123/123/123 124/124/124
f 116/116/116 124/124/124 117/117/117
f 117/117/117 124/124/124 125/125/125
f 117/117/117 125/125/125 118/118/118
f 118/118/118 125/125/125 126/126/126
f 118/118/118 126/126/126 119/119/119
f 120/120/120 127/127/127 128/128/128
f 120/120/120 128/128/128 121/121/121
f 121/121/121 128/128/128 129/129/129
f 121/121/121 129/129/129 122/122/122
f 122/122/122 129/129/129 130/130/130
f 122/122/122 130/130/130 123/123/123
f 123/123/123 130/130/130 131/131/131
f 123/123/123 131/131/131 124/124/124
f 124/124/124 131/131/131 132/132/132
f 124/124/124 132/132/132 125/125/125
f 125/125/125 132/132/132 133/133/133
f 125/125/125 133/133/133 126/126/126
f 127/127/127 134/134/134 135/135/135
f 127/127/127 135/135/135 128/128/128
f 128/128/128 135/135/135 136/136/136
f 128/128/128 136/136/136 129/129/129
f 129/129/129 136/136/136 137/137/137
f 129/129/129 137/137/137 130/130/130
f 130/130/130 137/137/137 138/138/138
f 130/130/130 138/138/138 131/131/131
f 131/131/131 138/138/138 139/139/139
f 131/131/131 139/139/139 132/132/132
f 132/132/132 139/139/139 140/140/140
f 132/132/132 140/140/140 133/133/133
f 134/134/134 141/141/141 142/142/142
f 134/134/134 142/142/142 135/135/135
f 135/135/135 142/142/142 143/143/143
f 135/135/135 143/143/143 136/136/136
f 136/136/136 143/143/143 144/144/144
f 136/136/136 144/144/144 137/137/137
f 137/137/137 144/144/144 145/145/145
f 137/137/137 145/145/145 138/138/138
f 138/138/138 145/145/145 146/146/146
f 138/138/138 146/146/146 139/139/139
f 139/139/139 146/146/146 147/147/147
f 139/139/139 147/147/147 140/140/140
f 141/141/141 148/148/148 149/149/149
f 141/141/141 149/149/149 142/142/142
f 142/142/142 149/149/149 150/150/150
f 142/142/142 150/150/150 143/143/143
f 143/143/143 150/150/150 151/151/151
f 143/143/143 151/151/151 144/144/144
f 144/144/144 151/151/151 152/152/152
f 144/144/144 152/152/152 145/145/145
f 145/145/145 152/152/152 153/153/153
f 145/145/145 153/153/153 146/146/146
f 146/146/146 153/153/153 154/154/154
f 146/146/146 154/154/154 147/147/147
f 155/155/155 156/156/156 188/188/188
f 155/155/155 188/188/188 187/187/187
f 219/219/219 156/156/156 155/155/155
f 220/220/220 187/187/187 188/188/188
f 156/156/156 157/157/157 189/189/189
f 156/156/156 189/189/189 188/188/188
f 219/219/219 157/157/157 156/156/156
f 220/220/220 188/188/188 189/189/189
f 157/157/157 158/158/158 190/190/190
f 157/157/157 190/190/190 189/189/189
f 219/219/219 158/158/158 157/157/157
f 220/220/220 189/189/189 190/190/190
f 158/158/158 159/159/159 191/191/191
f 158/158/158 191/191/191 190/190/190
f 219/219/219 159/159/159 158/158/158
f 220/220/220 190/190/190 191/191/191
f 159/159/159 160/160/160 192/192/192
f 159/159/159 192/192/192 191/191/191
f 219/219/219 160/160/160 159/159/159
f 220/220/220 191/191/191 192/192/192
f 160/160/160 161/161/161 193/193/193
f 160/160/160 193/193/193 192/192/192
f 219/219/219 161/161/161 160/160/160
f 220/220/220 192/192/192 193/193/193
f 161/161/161 162/162/162 194/194/194
f 161/161/161 194/194/194 193/193/193
f 219/219/219 162/162/162 161/161/161
f 220/220/220 193/193/193 194/194/194
f 162/162/162 163/163/163 195/195/195
f 162/162/162 195/195/195 194/194/194
f 219/219/219 163/163/163 162/162/162
f 220/220/220 194/194/194 195/195/195
f 163/163/163 164/164/164 196/196/196
f 163/163/163 196/196/196 195/195/195
f 219/219/219 164/164/164 163/163/163
f 220/220/220 195/195/195 196/196/196
f 164/164/164 165/165/165 197/197/197
f 164/164/164 197/197/197 196/196/196
f 219/219/219 165/165/165 164/164/164
f 220/220/220 196/196/196 197/197/197
f 165/165/165 166/166/166 198/198/198
f 165/165/165 198/198/198 197/197/197
f 219/219/219 166/166/166 165/165/165
f 220/220/220 197/197/197 198/198/198
f 166/166/166 167/167/167 199/199/199
f 166/166/166 199/199/199 198/198/198
f 219/219/219 167/167/167 166/166/166
f 220/220/220 198/198/198 199/199/199
f 167/167/167 168/168/168 200/200/200
f 167/167/167 200/200/200 199/199/199
f 219/219/219 168/168/168 167/167/167
f 220/220/220 199/199/199 200/200/200
f 168/168/168 169/169/169 201/201/201
f 168/168/168 201/201/201 200/200/200
f 219/219/219 169/169/169 168/168/168
f 220/220/220 200/200/200 201/201/201
f 169/169/169 170/170/170 202/202/202
f 169/169/169 202/202/202 201/201/201
f 219/219/219 170/170/170 169/169/169
f 220/220/220 201/201/201 202/202/202
f 170/170/170 171/171/171 203/203/203
f 170/170/170 203/203/203 202/202/202
f 219/219/219 171/171/171 170/170/170
f 220/220/220 202/202/202 203/203/203
f 171/171/171 172/172/172 204/204/204
f 171/171/171 204/204/204 203/203/203
f 219/219/219 172/172/172 171/171/171
f 220/220/220 203/203/203 204/204/204
f 172/172/172 173/173/173 205/205/205
f 172/172/172 205/205/205 204/204/204
f 219/219/219 173/173/173 172/172/172
f 220/220/220 204/204/204 205/205/205
f 173/173/173 174/174/174 206/206/206
f 173/173/173 206/206/206 205/205/205
f 219/219/219 174/174/174 173/173/173
f 220/220/220 205/205/205 206/206/206
f 174/174/174 175/175/175 207/207/207
f 174/174/174 207/207/207 206/206/206
f 219/219/219 175/175/175 174/174/174
f 220/220/220 206/206/206 207/207/207
f 175/175/175 176/176/176 208/208/208
f 175/175/175 208/208/208 207/207/207
f 219/219/219 176/176/176 175/175/175
f 220/220/220 207/207/207 208/208/208
f 176/176/176 177/177/177 209/209/209
f 176/176/176 209/209/209 208/208/208
f 219/219/219 177/177/177 176/176/176
f 220/220/220 208/208/208 209/209/209
f 177/177/177 178/178/178 210/210/210
f 177/177/177 210/210/210 209/209/209
f 219/219/219 178/178/178 177/177/177
f 220/220/220 209/209/209 210/210/210
f 178/178/178 179/179/179 211/211/211
f 178/178/178 211/211/211 210/210/210
f 219/219/219 179/179/179 178/178/178
f 220/220/220 210/210/210 211/211/211
f 179/179/179 180/180/180 212/212/212
f 179/179/179 212/212/212 211/211/211
f 219/219/219 180/180/180 179/179/179
f 220/220/220 211/211/211 212/212/212
f 180/180/180 181/181/181 213/213/213
f 180/180/180 213/213/213 212/212/212
f 219/219/219 181/181/181 180/180/180
f 220/220/220 212/212/212 213/213/213
f 181/181/181 182/182/182 214/214/214
f 181/181/181 214/214/214 213/213/213
f 219/219/219 182/182/182 181/181/181
f 220/220/220 213/213/213 214/214/214
f 182/182/182 183/183/183 215/215/215
f 182/182/182 215/215/215 214/214/214
f 219/219/219 183/183/183 182/182/182
f 220/220/220 214/214/214 215/215/215
f 183/183/183 184/184/184 216/216/216
f 183/183/183 216/216/216 215/215/215
f 219/219/219 184/184/184 183/183/183
f 220/220/220 215/215/215 216/216/216
f 184/184/184 185/185/185 217/217/217
f 184/184/184 217/217/217 216/216/216
f 219/219/219 185/185/185 184/184/184
f 220/220/220 216/216/216 217/217/217
f 185/185/185 186/186/186 218/218/218
f 185/185/185 218/218/218 217/217/217
f 219/219/219 186/186/186 185/185/185
f 220/220/220 217/217/217 218/218/218
f 186/186/186 155/155/155 187/187/187
f 186/186/186 187/187/187 218/218/218
f 219/219/219 155/155/155 186/186/186
f 220/220/220 218/218/218 187/187/187
f 221/221/221 222/222/222 254/254/254
f 221/221/221 254/254/254 253/253/253
f 285/285/285 222/222/222 221/221/221
f 286/286/286 253/253/253 254/254/254
f 222/222/222 223/223/223 255/255/255
f 222/222/222 255/255/255 254/254/254
f 285/285/285 223/223/223 222/222/222
f 286/286/286 254/254/254 255/255/255
f 223/223/223 224/224/224 256/256/256
f 223/223/223 256/256/256 255/255/255
f 285/285/285 224/224/224 223/223/223
f 286/286/286 255/255/255 256/256/256
f 224/224/224 225/225/225 257/257/257
f 224/224/224 257/257/257 256/256/256
f 285/285/285 225/225/225 224/224/224
f 286/286/286 256/256/256 257/257/257
f 225/225/225 226/226/226 258/258/258
f 225/225/225 258/258/258 257/257/257
f 285/285/285 226/226/226 225/225/225
f 286/286/286 257/257/257 258/258/258
f 226/226/226 227/227/227 259/259/259
f 226/226/226 259/259/259 258/258/258
f 285/285/285 227/227/227 226/226/226
f 286/286/286 258/258/258 259/259/259
f 227/227/227 228/228/228 260/260/260
f 227/227/227 260/260/260 259/259/259
f 285/285/285 228/228/228 227/227/227
f 286/286/286 259/259/259 260/260/260
f 228/228/228 229/229/229 261/261/261
f 228/228/228 261/261/261 260/260/260
f 285/285/285 229/229/229 228/228/228
f 286/286/286 260/260/260 261/261/261
f 229/229/229 230/230/230 262/262/262
f 229/229/229 262/262/262 261/261/261
f 285/285/285 230/230/230 229/229/229
f 286/286/286 261/261/261 262/262/262
f 230/230/230 231/231/231 263/263/263
f 230/230/230 263/263/263 262/262/262
f 285/285/285 231/231/231 230/230/230
f 286/286/286 262/262/262 263/263/263
f 231/231/231 232/232/232 264/264/264
f 231/231/231 264/264/264 263/263/263
f 285/285/285 232/232/232 231/231/231
f 286/286/286 263/263/263 264/264/264
f 232/232/232 233/233/233 265/265/265
f 232/232/232 265/265/265 264/264/264
f 285/285/285 233/233/233 232/232/232
f 286/286/286 264/264/264 265/265/265
f 233/233/233 234/234/234 266/266/266
f 233/233/233 266/266/266 265/265/265
f 285/285/285 234/234/234 233/233/233
f 286/286/286 265/265/265 266/266/266
f 234/234/234 235/235/235 267/267/267
f 234/234/234 267/267/267 266/266/266
f 285/285/285 235/235/235 234/234/234
f 286/286/286 266/266/266 267/267/267
f 235/235/235 236/236/236 268/268/268
f 235/235/235 268/268/268 267/267/267
f 285/285/285 236/236/236 235/235/235
f 286/286/286 267/267/267 268/268/268
f 236/236/236 237/237/237 269/269/269
f 236/236/236 269/269/269 268/268/268
f 285/285/285 237/237/237 236/236/236
f 286/286/286 268/268/268 269/269/269
f 237/237/237 238/238/238 270/270/270
f 237/237/237 270/270/270 269/269/269
f 285/285/285 238/238/238 237/237/237
f 286/286/286 269/269/269 270/270/270
f 238/238/238 239/239/239 271/271/271
f 238/238/238 271/271/271 270/270/270
f 285/285/285 239/239/239 238/238/238
f 286/286/286 270/270/270 271/271/271
f 239/239/239 240/240/240 272/272/272
f 239/239/239 272/272/272 271/271/271
f 285/285/285 240/240/240 239/239/239
f 286/286/286 271/271/271 272/272/272
f 240/240/240 241/241/241 273/273/273
f 240/240/240 273/273/273 272/272/272
f 285/285/285 241/241/241 240/240/240
f 286/286/286 272/272/272 273/273/273
f 241/241/241 242/242/242 274/274/274
f 241/241/241 274/274/274 273/273/273
f 285/285/285 242/242/242 241/241/241
f 286/286/286 273/273/273 274/274/274
f 242/242/242 243/243/243 275/275/275
f 242/242/242 275/275/275 274/274/274
f 285/285/285 243/243/243 242/242/242
f 286/286/286 274/274/274 275/275/275
f 243/243/243 244/244/244 276/276/276
f 243/243/243 276/276/276 275/275/275
f 285/285/285 244/244/244 243/243/243
f 286/286/286 275/275/275 276/276/276
f 244/244/244 245/245/245 277/277/277
f 244/244/244 277/277/277 276/276/276
f 285/285/285 245/245/245 244/244/244
f 286/286/286 276/276/276 277/277/277
f 245/245/245 246/246/246 278/278/278
f 245/245/245 278/278/278 277/277/277
f 285/285/285 246/246/246 245/245/245
f 286/286/286 277/277/277 278/278/278
f 246/246/246 247/247/247 279/279/279
f 246/246/246 279/279/279 278/278/278
f 285/285/285 247/247/247 246/246/246
f 286/286/286 278/278/278 279/279/279
f 247/247/247 248/248/248 280/280/280
f 247/247/247 280/280/280 279/279/279
f 285/285/285 248/248/248 247/247/247
f 286/286/286 279/279/279 280/280/280
f 248/248/248 249/249/249 281/281/281
f 248/248/248 281/281/281 280/280/280
f 285/285/285 249/249/249 248/248/248
f 286/286/286 280/280/280 281/281/281
f 249/249/249 250/250/250 282/282/282
f 249/249/249 282/282/282 281/281/281
f 285/285/285 250/250/250 249/249/249
f 286/286/286 281/281/281 282/282/282
f 250/250/250 251/251/251 283/283/283
f 250/250/250 283/283/283 282/282/282
f 285/285/285 251/251/251 250/250/250
f 286/286/286 282/282/282 283/283/283
f 251/251/251 252/252/252 284/284/284
f 251/251/251 284/284/284 283/283/283
f 285/285/285 252/252/252 251/251/251
f 286/286/286 283/283/283 284/284/284
f 252/252/252 221/221/221 253/253/253
f 252/252/252 253/253/253 284/284/284
f 285/285/285 221/221/221 252/252/252
f 286/286/286 284/284/284 253/253/253
f 287/287/287 288/288/288 304/304/304
f 287/287/287 304/304/304 303/303/303
f 319/319/319 288/288/288 287/287/287
f 320/320/320 303/303/303 304/304/304
f 288/288/288 289/289/289 305/305/305
f 288/288/288 305/305/305 304/304/304
f 319/319/319 289/289/289 288/288/288
f 320/320/320 304/304/304 305/305/305
f 289/289/289 290/290/290 306/306/306
f 289/289/289 306/306/306 305/305/305
f 319/319/319 290/290/290 289/289/289
f 320/320/320 305/305/305 306/306/306
f 290/290/290 291/291/291 307/307/307
f 290/290/290 307/307/307 306/306/306
f 319/319/319 291/291/291 290/290/290
f 320/320/320 306/306/306 307/307/307
f 291/291/291 292/292/292 308/308/308
f 291/291/291 308/308/308 307/307/307
f 319/319/319 292/292/292 291/291/291
f 320/320/320 307/307/307 308/308/308
f 292/292/292 293/293/293 309/309/309
f 292/292/292 309/309/309 308/308/308
f 319/319/319 293/293/293 292/292/292
f 320/320/320 308/308/308 309/309/309
f 293/293/293 294/294/294 310/310/310
f 293/293/293 310/310/310 309/309/309
f 319/319/319 294/294/294 293/293/293
f 320/320/320 309/309/309 310/310/310
f 294/294/294 295/295/295 311/311/311
f 294/294/294 311/311/311 310/310/310
f 319/319/319 295/295/295 294/294/294
f 320/320/320 310/310/310 311/311/311
f 295/295/295 296/296/296 312/312/312
f 295/295/295 312/312/312 311/311/311
f 319/319/319 296/296/296 295/295/295
f 320/320/320 311/311/311 312/312/312
f 296/296/296 297/297/297 313/313/313
f 296/296/296 313/313/313 312/312/312
f 319/319/319 297/297/297 296/296/296
f 320/320/320 312/312/312 313/313/313
f 297/297/297 298/298/298 314/314/314
f 297/297/297 314/314/314 313/313/313
f 319/319/319 298/298/298 297/297/297
f 320/320/320 313/313/313 314/314/314
f 298/298/298 299/299/299 315/315/315
f 298/298/298 315/315/315 314/314/314
f 319/319/319 299/299/299 298/298/298
f 320/320/320 314/314/314 315/315/315
f 299/299/299 300/300/300 316/316/316
f 299/299/299 316/316/316 315/315/315
f 319/319/319 300/300/300 299/299/299
f 320/320/320 315/315/315 316/316/316
f 300/300/300 301/301/301 317/317/317
f 300/300/300 317/317/317 316/316/316
f 319/319/319 301/301/301 300/300/300
f 320/320/320 316/316/316 317/317/317
f 301/301/301 302/302/302 318/318/318
f 301/301/301 318/318/318 317/317/317
f 319/319/319 302/302/302 301/301/301
f 320/320/320 317/317/317 318/318/318
f 302/302/302 287/287/287 303/303/303
f 302/302/302 303/303/303 318/318/318
f 319/319/319 287/287/287 302/302/302
f 320/320/320 318/318/318 303/303/303
f 321/321/321 322/322/322 338/338/338
f 321/321/321 338/338/338 337/337/337
f 353/353/353 322/322/322 321/321/321
f 354/354/354 337/337/337 338/338/338
f 322/322/322 323/323/323 339/339/339
f 322/322/322 339/339/339 338/338/338
f 353/353/353 323/323/323 322/322/322
f 354/354/354 338/338/338 339/339/339
f 323/323/323 324/324/324 340/340/340
f 323/323/323 340/340/340 339/339/339
f 353/353/353 324/324/324 323/323/323
f 354/354/354 339/339/339 340/340/340
f 324/324/324 325/325/325 341/341/341
f 324/324/324 341/341/341 340/340/340
f 353/353/353 325/325/325 324/324/324
f 354/354/354 340/340/340 341/341/341
f 325/325/325 326/326/326 342/342/342
f 325/325/325 342/342/342 341/341/341
f 353/353/353 326/326/326 325/325/325
f 354/354/354 341/341/341 342/342/342
f 326/326/326 327/327/327 343/343/343
f 326/326/326 343/343/343 342/342/342
f 353/353/353 327/327/327 326/326/326
f 354/354/354 342/342/342 343/343/343
f 327/327/327 328/328/328 344/344/344
f 327/327/327 344/344/344 343/343/343
f 353/353/353 328/328/328 327/327/327
f 354/354/354 343/343/343 344/344/344
f 328/328/328 329/329/329 345/345/345
f 328/328/328 345/345/345 344/344/344
f 353/353/353 329/329/329 328/328/328
f 354/354/354 344/344/344 345/345/345
f 329/329/329 330/330/330 346/346/346
f 329/329/329 346/346/346 345/345/345
f 353/353/353 330/330/330 329/329/329
f 354/354/354 345/345/345 346/346/346
f 330/330/330 331/331/331 347/347/347
f 330/330/330 347/347/347 346/346/346
f 353/353/353 331/331/331 330/330/330
f 354/354/354 346/346/346 347/347/347
f 331/331/331 332/332/332 348/348/348
f 331/331/331 348/348/348 347/347/347
f 353/353/353 332/332/332 331/331/331
f 354/354/354 347/347/347 348/348/348
f 332/332/332 333/333/333 349/349/349
f 332/332/332 349/349/349 348/348/348
f 353/353/353 333/333/333 332/332/332
f 354/354/354 348/348/348 349/349/349
f 333/333/333 334/334/334 350/350/350
f 333/333/333 350/350/350 349/349/349
f 353/353/353 334/334/334 333/333/333
f 354/354/354 349/349/349 350/350/350
f 334/334/334 335/335/335 351/351/351
f 334/334/334 351/351/351 350/350/350
f 353/353/353 335/335/335 334/334/334
f 354/354/354 350/350/350 351/351/351
f 335/335/335 336/336/336 352/352/352
f 335/335/335 352/352/352 351/351/351
f 353/353/353 336/336/336 335/335/335
f 354/354/354 351/351/351 352/352/352
f 336/336/336 321/321/321 337/337/337
f 336/336/336 337/337/337 352/352/352
f 353/353/353 321/321/321 336/336/336
f 354/354/354 352/352/352 337/337/337
f 355/355/355 356/356/356 372/372/372
f 355/355/355 372/372/372 371/371/371
f 387/387/387 356/356/356 355/355/355
f 388/388/388 371/371/371 372/372/372
f 356/356/356 357/357/357 373/373/373
f 356/356/356 373/373/373 372/372/372
f 387/387/387 357/357/357 356/356/356
f 388/388/388 372/372/372 373/373/373
f 357/357/357 358/358/358 374/374/374
f 357/357/357 374/374/374 373/373/373
f 387/387/387 358/358/358 357/357/357
f 388/388/388 373/373/373 374/374/374
f 358/358/358 359/359/359 375/375/375
f 358/358/358 375/375/375 374/374/374
f 387/387/387 359/359/359 358/358/358
f 388/388/388 374/374/374 375/375/375
f 359/359/359 360/360/360 376/376/376
f 359/359/359 376/376/376 375/375/375
f 387/387/387 360/360/360 359/359/359
f 388/388/388 375/375/375 376/376/376
f 360/360/360 361/361/361 377/377/377
f 360/360/360 377/377/377 376/376/376
f 387/387/387 361/361/361 360/360/360
f 388/388/388 376/376/376 377/377/377
f 361/361/361 362/362/362 378/378/378
f 361/361/361 378/378/378 377/377/377
f 387/387/387 362/362/362 361/361/361
f 388/388/388 377/377/377 378/378/378
f 362/362/362 363/363/363 379/379/379
f 362/362/362 379/379/379 378/378/378
f 387/387/387 363/363/363 362/362/362
f 388/388/388 378/378/378 379/379/379
f 363/363/363 364/364/364 380/380/380
f 363/363/363 380/380/380 379/379/379
f 387/387/387 364/364/364 363/363/363
f 388/388/388 379/379/379 380/380/380
f 364/364/364 365/365/365 381/381/381
f 364/364/364 381/381/381 380/380/380
f 387/387/387 365/365/365 364/364/364
f 388/388/388 380/380/380 381/381/381
f 365/365/365 366/366/366 382/382/382
f 365/365/365 382/382/382 381/381/381
f 387/387/387 366/366/366 365/365/365
f 388/388/388 381/381/381 382/382/382
f 366/366/366 367/367/367 383/383/383
f 366/366/366 383/383/383 382/382/382
f 387/387/387 367/367/367 366/366/366
f 388/388/388 382/382/382 383/383/383
f 367/367/367 368/368/368 384/384/384
f 367/367/367 384/384/384 383/383/383
f 387/387/387 368/368/368 367/367/367
f 388/388/388 383/383/383 384/384/384
f 368/368/368 369/369/369 385/385/385
f 368/368/368 385/385/385 384/384/384
f 387/387/387 369/369/369 368/368/368
f 388/388/388 384/384/384 385/385/385
f 369/369/369 370/370/370 386/386/386
f 369/369/369 386/386/386 385/385/385
f 387/387/387 370/370/370 369/369/369
f 388/388/388 385/385/385 386/386/386
f 370/370/370 355/355/355 371/371/371
f 370/370/370 371/371/371 386/386/386
f 387/387/387 355/355/355 370/370/370
f 388/388/388 386/386/386 371/371/371
f 389/389/389 390/390/390 402/402/402
f 389/389/389 402/402/402 401/401/401
f 413/413/413 390/390/390 389/389/389
f 414/414/414 401/401/401 402/402/402
f 390/390/390 391/391/391 403/403/403
f 390/390/390 403/403/403 402/402/402
f 413/413/413 391/391/391 390/390/390
f 414/414/414 402/402/402 403/403/403
f 391/391/391 392/392/392 404/404/404
f 391/391/391 404/404/404 403/403/403
f 413/413/413 392/392/392 391/391/391
f 414/414/414 403/403/403 404/404/404
f 392/392/392 393/393/393 405/405/405
f 392/392/392 405/405/405 404/404/404
f 413/413/413 393/393/393 392/392/392
f 414/414/414 404/404/404 405/405/405
f 393/393/393 394/394/394 406/406/406
f 393/393/393 406/406/406 405/405/405
f 413/413/413 394/394/394 393/393/393
f 414/414/414 405/405/405 406/406/406
f 394/394/394 395/395/395 407/407/407
f 394/394/394 407/407/407 406/406/406
f 413/413/413 395/395/395 394/394/394
f 414/414/414 406/406/406 407/407/407
f 395/395/395 396/396/396 408/408/408
f 395/395/395 408/408/408 407/407/407
f 413/413/413 396/396/396 395/395/395
f 414/414/414 407/407/407 408/408/408
f 396/396/396 397/397/397 409/409/409
f 396/396/396 409/409/409 408/408/408
f 413/413/413 397/397/397 396/396/396
f 414/414/414 408/408/408 409/409/409
f 397/397/397 398/398/398 410/410/410
f 397/397/397 410/410/410 409/409/409
f 413/413/413 398/398/398 397/397/397
f 414/414/414 409/409/409 410/410/410
f 398/398/398 399/399/399 411/411/411
f 398/398/398 411/411/411 410/410/410
f 413/413/413 399/399/399 398/398/398
f 414/414/414 410/410/410 411/411/411
f 399/399/399 400/400/400 412/412/412
f 399/399/399 412/412/412 411/411/411
f 413/413/413 400/400/400 399/399/399
f 414/414/414 411/411/411 412/412/412
f 400/400/400 389/389/389 401/401/401
f 400/400/400 401/401/401 412/412/412
f 413/413/413 389/389/389 400/400/400
f 414/414/414 412/412/412 401/401/401
f 415/415/415 416/416/416 428/428/428
f 415/415/415 428/428/428 427/427/427
f 439/439/439 416/416/416 415/415/415
f 440/440/440 427/427/427 428/428/428
f 416/416/416 417/417/417 429/429/429
f 416/416/416 429/429/429 428/428/428
f 439/439/439 417/417/417 416/416/416
f 440/440/440 428/428/428 429/429/429
f 417/417/417 418/418/418 430/430/430
f 417/417/417 430/430/430 429/429/429
f 439/439/439 418/418/418 417/417/417
f 440/440/440 429/429/429 430/430/430
f 418/418/418 419/419/419 431/431/431
f 418/418/418 431/431/431 430/430/430
f 439/439/439 419/419/419 418/418/418
f 440/440/440 430/430/430 431/431/431
f 419/419/419 420/420/420 432/432/432
f 419/419/419 432/432/432 431/431/431
f 439/439/439 420/420/420 419/419/419
f 440/440/440 431/431/431 432/432/432
f 420/420/420 421/421/421 433/433/433
f 420/420/420 433/433/433 432/432/432
f 439/439/439 421/421/421 420/420/420
f 440/440/440 432/432/432 433/433/433
f 421/421/421 422/422/422 434/434/434
f 421/421/421 434/434/434 433/433/433
f 439/439/439 422/422/422 421/421/421
f 440/440/440 433/433/433 434/434/434
f 422/422/422 423/423/423 435/435/435
f 422/422/422 435/435/435 434/434/434
f 439/439/439 423/423/423 422/422/422
f 440/440/440 434/434/434 435/435/435
f 423/423/423 424/424/424 436/436/436
f 423/423/423 436/436/436 435/435/435
f 439/439/439 424/424/424 423/423/423
f 440/440/440 435/435/435 436/436/436
f 424/424/424 425/425/425 437/437/437
f 424/424/424 437/437/437 436/436/436
f 439/439/439 425/425/425 424/424/424
f 440/440/440 436/436/436 437/437/437
f 425/425/425 426/426/426 438/438/438
f 425/425/425 438/438/438 437/437/437
f 439/439/439 426/426/426 425/425/425
f 440/440/440 437/437/437 438/438/438
f 426/426/426 415/415/415 427/427/427
f 426/426/426 427/427/427 438/438/438
f 439/439/439 415/415/415 426/426/426
f 440/440/440 438/438/438 427/427/427
f 441/441/441 442/442/442 454/454/454
f 441/441/441 454/454/454 453/453/453
f 465/465/465 442/442/442 441/441/441
f 466/466/466 453/453/453 454/454/454
f 442/442/442 443/443/443 455/455/455
f 442/442/442 455/455/455 454/454/454
f 465/465/465 443/443/443 442/442/442
f 466/466/466 454/454/454 455/455/455
f 443/443/443 444/444/444 456/456/456
f 443/443/443 456/456/456 455/455/455
f 465/465/465 444/444/444 443/443/443
f 466/466/466 455/455/455 456/456/456
f 444/444/444 445/445/445 457/457/457
f 444/444/444 457/457/457 456/456/456
f 465/465/465 445/445/445 444/444/444
f 466/466/466 456/456/456 457/457/457
f 445/445/445 446/446/446 458/458/458
f 445/445/445 458/458/458 457/457/457
f 465/465/465 446/446/446 445/445/445
f 466/466/466 457/457/457 458/458/458
f 446/446/446 447/447/447 459/459/459
f 446/446/446 459/459/459 458/458/458
f 465/465/465 447/447/447 446/446/446
f 466/466/466 458/458/458 459/459/459
f 447/447/447 448/448/448 460/460/460
f 447/447/447 460/460/460 459/459/459
f 465/465/465 448/448/448 447/447/447
f 466/466/466 459/459/459 460/460/460
f 448/448/448 449/449/449 461/461/461
f 448/448/448 461/461/461 460/460/460
f 465/465/465 449/449/449 448/448/448
f 466/466/466 460/460/460 461/461/461
f 449/449/449 450/450/450 462/462/462
f 449/449/449 462/462/462 461/461/461
f 465/465/465 450/450/450 449/449/449
f 466/466/466 461/461/461 462/462/462
f 450/450/450 451/451/451 463/463/463
f 450/450/450 463/463/463 462/462/462
f 465/465/465 451/451/451 450/450/450
f 466/466/466 462/462/462 463/463/463
f 451/451/451 452/452/452 464/464/464
f 451/451/451 464/464/464 463/463/463
f 465/465/465 452/452/452 451/451/451
f 466/466/466 463/463/463 464/464/464
f 452/452/452 441/441/441 453/453/453
f 452/452/452 453/453/453 464/464/464
f 465/465/465 441/441/441 452/452/452
f 466/466/466 464/464/464 453/453/453
f 467/467/467 468/468/468 480/480/480
f 467/467/467 480/480/480 479/479/479
f 491/491/491 468/468/468 467/467/467
f 492/492/492 479/479/479 480/480/480
f 468/468/468 469/469/469 481/481/481
f 468/468/468 481/481/481 480/480/480
f 491/491/491 469/469/469 468/468/468
f 492/492/492 480/480/480 481/481/481
f 469/469/469 470/470/470 482/482/482
f 469/469/469 482/482/482 481/481/481
f 491/491/491 470/470/470 469/469/469
f 492/492/492 481/481/481 482/482/482
f 470/470/470 471/471/471 483/483/483
f 470/470/470 483/483/483 482/482/482
f 491/491/491 471/471/471 470/470/470
f 492/492/492 482/482/482 483/483/483
f 471/471/471 472/472/472 484/484/484
f 471/471/471 484/484/484 483/483/483
f 491/491/491 472/472/472 471/471/471
f 492/492/492 483/483/483 484/484/484
f 472/472/472 473/473/473 485/485/485
f 472/472/472 485/485/485 484/484/484
f 491/491/491 473/473/473 472/472/472
f 492/492/492 484/484/484 485/485/485
f 473/473/473 474/474/474 486/486/486
f 473/473/473 486/486/486 485/485/485
f 491/491/491 474/474/474 473/473/473
f 492/492/492 485/485/485 486/486/486
f 474/474/474 475/475/475 487/487/487
f 474/474/474 487/487/487 486/486/486
f 491/491/491 475/475/475 474/474/474
f 492/492/492 486/486/486 487/487/487
f 475/475/475 476/476/476 488/488/488
f 475/475/475 488/488/488 487/487/487
f 491/491/491 476/476/476 475/475/475
f 492/492/492 487/487/487 488/488/488
f 476/476/476 477/477/477 489/489/489
f 476/476/476 489/489/489 488/488/488
f 491/491/491 477/477/477 476/476/476
f 492/492/492 488/488/488 489/489/489
f 477/477/477 478/478/478 490/490/490
f 477/477/477 490/490/490 489/489/489
f 491/491/491 478/478/478 477/477/477
f 492/492/492 489/489/489 490/490/490
f 478/478/478 467/467/467 479/479/479
f 478/478/478 479/479/479 490/490/490
f 491/491/491 467/467/467 478/478/478
f 492/492/492 490/490/490 479/479/479
f 493/493/493 494/494/494 518/518/518
f 493/493/493 518/518/518 517/517/517
f 541/541/541 494/494/494 493/493/493
f 542/542/542 517/517/517 518/518/518
f 494/494/494 495/495/495 519/519/519
f 494/494/494 519/519/519 518/518/518
f 541/541/541 495/495/495 494/494/494
f 542/542/542 518/518/518 519/519/519
f 495/495/495 496/496/496 520/520/520
f 495/495/495 520/520/520 519/519/519
f 541/541/541 496/496/496 495/495/495
f 542/542/542 519/519/519 520/520/520
f 496/496/496 497/497/497 521/521/521
f 496/496/496 521/521/521 520/520/520
f 541/541/541 497/497/497 496/496/496
f 542/542/542 520/520/520 521/521/521
f 497/497/497 498/498/498 522/522/522
f 497/497/497 522/522/522 521/521/521
f 541/541/541 498/498/498 497/497/497
f 542/542/542 521/521/521 522/522/522
f 498/498/498 499/499/499 523/523/523
f 498/498/498 523/523/523 522/522/522
f 541/541/541 499/499/499 498/498/498
f 542/542/542 522/522/522 523/523/523
f 499/499/499 500/500/500 524/524/524
f 499/499/499 524/524/524 523/523/523
f 541/541/541 500/500/500 499/499/499
f 542/542/542 523/523/523 524/524/524
f 500/500/500 501/501/501 525/525/525
f 500/500/500 525/525/525 524/524/524
f 541/541/541 501/501/501 500/500/500
f 542/542/542 524/524/524 525/525/525
f 501/501/501 502/502/502 526/526/526
f 501/501/501 526/526/526 525/525/525
f 541/541/541 502/502/502 501/501/501
f 542/542/542 525/525/525 526/526/526
f 502/502/502 503/503/503 527/527/527
f 502/502/502 527/527/527 526/526/526
f 541/541/541 503/503/503 502/502/502
f 542/542/542 526/526/526 527/527/527
f 503/503/503 504/504/504 528/528/528
f 503/503/503 528/528/528 527/527/527
f 541/541/541 504/504/504 503/503/503
f 542/542/542 527/527/527 528/528/528
f 504/504/504 505/505/505 529/529/529
f 504/504/504 529/529/529 528/528/528
f 541/541/541 505/505/505 504/504/504
f 542/542/542 528/528/528 529/529/529
f 505/505/505 506/506/506 530/530/530
f 505/505/505 530/530/530 529/529/529
f 541/541/541 506/506/506 505/505/505
f 542/542/542 529/529/529 530/530/530
f 506/506/506 507/507/507 531/531/531
f 506/506/506 531/531/531 530/530/530
f 541/541/541 507/507/507 506/506/506
f 542/542/542 530/530/530 531/531/531
f 507/507/507 508/508/508 532/532/532
f 507/507/507 532/532/532 531/531/531
f 541/541/541 508/508/508 507/507/507
f 542/542/542 531/531/531 532/532/532
f 508/508/508 509/509/509 533/533/533
f 508/508/508 533/533/533 532/532/532
f 541/541/541 509/509/509 508/508/508
f 542/542/542 532/532/532 533/533/533
f 509/509/509 510/510/510 534/534/534
f 509/509/509 534/534/534 533/533/533
f 541/541/541 510/510/510 509/509/509
f 542/542/542 533/533/533 534/534/534
f 510/510/510 511/511/511 535/535/535
f 510/510/510 535/535/535 534/534/534
f 541/541/541 511/511/511 510/510/510
f 542/542/542 534/534/534 535/535/535
f 511/511/511 512/512/512 536/536/536
f 511/511/511 536/536/536 535/535/535
f 541/541/541 512/512/512 511/511/511
f 542/542/542 535/535/535 536/536/536
f 512/512/512 513/513/513 537/537/537
f 512/512/512 537/537/537 536/536/536
f 541/541/541 513/513/513 512/512/512
f 542/542/542 536/536/536 537/537/537
f 513/513/513 514/514/514 538/538/538
f 513/513/513 538/538/538 537/537/537
f 541/541/541 514/514/514 513/513/513
f 542/542/542 537/537/537 538/538/538
f 514/514/514 515/515/515 539/539/539
f 514/514/514 539/539/539 538/538/538
f 541/541/541 515/515/515 514/514/514
f 542/542/542 538/538/538 539/539/539
f 515/515/515 516/516/516 540/540/540
f 515/515/515 540/540/540 539/539/539
f 541/541/541 516/516/516 515/515/515
f 542/542/542 539/539/539 540/540/540
f 516/516/516 493/493/493 517/517/517
f 516/516/516 517/517/517 540/540/540
f 541/541/541 493/493/493 516/516/516
f 542/542/542 540/540/540 517/517/517
f 543/543/543 544/544/544 576/576/576
f 543/543/543 576/576/576 575/575/575
f 607/607/607 544/544/544 543/543/543
f 608/608/608 575/575/575 576/576/576
f 544/544/544 545/545/545 577/577/577
f 544/544/544 577/577/577 576/576/576
f 607/607/607 545/545/545 544/544/544
f 608/608/608 576/576/576 577/577/577
f 545/545/545 546/546/546 578/578/578
f 545/545/545 578/578/578 577/577/577
f 607/607/607 546/546/546 545/545/545
f 608/608/608 577/577/577 578/578/578
f 546/546/546 547/547/547 579/579/579
f 546/546/546 579/579/579 578/578/578
f 607/607/607 547/547/547 546/546/546
f 608/608/608 578/578/578 579/579/579
f 547/547/547 548/548/548 580/580/580
f 547/547/547 580/580/580 579/579/579
f 607/607/607 548/548/548 547/547/547
f 608/608/608 579/579/579 580/580/580
f 548/548/548 549/549/549 581/581/581
f 548/548/548 581/581/581 580/580/580
f 607/607/607 549/549/549 548/548/548
f 608/608/608 580/580/580 581/581/581
f 549/549/549 550/550/550 582/582/582
f 549/549/549 582/582/582 581/581/581
f 607/607/607 550/550/550 549/549/549
f 608/608/608 581/581/581 582/582/582
f 550/550/550 551/551/551 583/583/583
f 550/550/550 583/583/583 582/582/582
f 607/607/607 551/551/551 550/550/550
f 608/608/608 582/582/582 583/583/583
f 551/551/551 552/552/552 584/584/584
f 551/551/551 584/584/584 583/583/583
f 607/607/607 552/552/552 551/551/551
f 608/608/608 583/583/583 584/584/584
f 552/552/552 553/553/553 585/585/585
f 552/552/552 585/585/585 584/584/584
f 607/607/607 553/553/553 552/552/552
f 608/608/608 584/584/584 585/585/585
f 553/553/553 554/554/554 586/586/586
f 553/553/553 586/586/586 585/585/585
f 607/607/607 554/554/554 553/553/553
f 608/608/608 585/585/585 586/586/586
f 554/554/554 555/555/555 587/587/587
f 554/554/554 587/587/587 586/586/586
f 607/607/607 555/555/555 554/554/554
f 608/608/608 586/586/586 587/587/587
f 555/555/555 556/556/556 588/588/588
f 555/555/555 588/588/588 587/587/587
f 607/607/607 556/556/556 555/555/555
f 608/608/608 587/587/587 588/588/588
f 556/556/556 557/557/557 589/589/589
f 556/556/556 589/589/589 588/588/588
f 607/607/607 557/557/557 556/556/556
f 608/608/608 588/588/588 589/589/589
f 557/557/557 558/558/558 590/590/590
f 557/557/557 590/590/590 589/589/589
f 607/607/607 558/558/558 557/557/557
f 608/608/608 589/589/589 590/590/590
f 558/558/558 559/559/559 591/591/591
f 558/558/558 591/591/591 590/590/590
f 607/607/607 559/559/559 558/558/558
f 608/608/608 590/590/590 591/591/591
f 559/559/559 560/560/560 592/592/592
f 559/559/559 592/592/592 591/591/591
f 607/607/607 560/560/560 559/559/559
f 608/608/608 591/591/591 592/592/592
f 560/560/560 561/561/561 593/593/593
f 560/560/560 593/593/593 592/592/592
f 607/607/607 561/561/561 560/560/560
f 608/608/608 592/592/592 593/593/593
f 561/561/561 562/562/562 594/594/594
f 561/561/561 594/594/594 593/593/593
f 607/607/607 562/562/562 561/561/561
f 608/608/608 593/593/593 594/594/594
f 562/562/562 563/563/563 595/595/595
f 562/562/562 595/595/595 594/594/594
f 607/607/607 563/563/563 562/562/562
f 608/608/608 594/594/594 595/595/595
f 563/563/563 564/564/564 596/596/596
f 563/563/563 596/596/596 595/595/595
f 607/607/607 564/564/564 563/563/563
f 608/608/608 595/595/595 596/596/596
f 564/564/564 565/565/565 597/597/597
f 564/564/564 597/597/597 596/596/596
f 607/607/607 565/565/565 564/564/564
f 608/608/608 596/596/596 597/597/597
f 565/565/565 566/566/566 598/598/598
f 565/565/565 598/598/598 597/597/597
f 607/607/607 566/566/566 565/565/565
f 608/608/608 597/597/597 598/598/598
f 566/566/566 567/567/567 599/599/599
f 566/566/566 599/599/599 598/598/598
f 607/607/607 567/567/567 566/566/566
f 608/608/608 598/598/598 599/599/599
f 567/567/567 568/568/568 600/600/600
f 567/567/567 600/600/600 599/599/599
f 607/607/607 568/568/568 567/567/567
f 608/608/608 599/599/599 600/600/600
f 568/568/568 569/569/569 601/601/601
f 568/568/568 601/601/601 600/600/600
f 607/607/607 569/569/569 568/568/568
f 608/608/608 600/600/600 601/601/601
f 569/569/569 570/570/570 602/602/602
f 569/569/569 602/602/602 601/601/601
f 607/607/607 570/570/570 569/569/569
f 608/608/608 601/601/601 602/602/602
f 570/570/570 571/571/571 603/603/603
f 570/570/570 603/603/603 602/602/602
f 607/607/607 571/571/571 570/570/570
f 608/608/608 602/602/602 603/603/603
f 571/571/571 572/572/572 604/604/604
f 571/571/571 604/604/604 603/603/603
f 607/607/607 572/572/572 571/571/571
f 608/608/608 603/603/603 604/604/604
f 572/572/572 573/573/573 605/605/605
f 572/572/572 605/605/605 604/604/604
f 607/607/607 573/573/573 572/572/572
f 608/608/608 604/604/604 605/605/605
f 573/573/573 574/574/574 606/606/606
f 573/573/573 606/606/606 605/605/605
f 607/607/607 574/574/574 573/573/573
f 608/608/608 605/605/605 606/606/606
f 574/574/574 543/543/543 575/575/575
f 574/574/574 575/575/575 606/606/606
f 607/607/607 543/543/543 574/574/574
f 608/608/608 606/606/606 575/575/575
f 609/609/609 611/611/611 610/610/610
f 609/609/609 612/612/612 611/611/611
f 613/613/613 614/614/614 615/615/615
f 613/613/613 615/615/615 616/616/616
f 609/609/609 610/610/610 614/614/614
f 609/609/609 614/614/614 613/613/613
f 611/611/611 612/612/612 616/616/616
f 611/611/611 616/616/616 615/615/615
f 609/609/609 613/613/613 616/616/616
f 609/609/609 616/616/616 612/612/612
f 610/610/610 611/611/611 615/615/615
f 610/610/610 615/615/615 614/614/614
f 617/617/617 618/618/618 634/634/634
f 617/617/617 634/634/634 633/633/633
f 649/649/649 618/618/618 617/617/617
f 650/650/650 633/633/633 634/634/634
f 618/618/618 619/619/619 635/635/635
f 618/618/618 635/635/635 634/634/634
f 649/649/649 619/619/619 618/618/618
f 650/650/650 634/634/634 635/635/635
f 619/619/619 620/620/620 636/636/636
f 619/619/619 636/636/636 635/635/635
f 649/649/649 620/620/620 619/619/619
f 650/650/650 635/635/635 636/636/636
f 620/620/620 621/621/621 637/637/637
f 620/620/620 637/637/637 636/636/636
f 649/649/649 621/621/621 620/620/620
f 650/650/650 636/636/636 637/637/637
f 621/621/621 622/622/622 638/638/638
f 621/621/621 638/638/638 637/637/637
f 649/649/649 622/622/622 621/621/621
f 650/650/650 637/637/637 638/638/638
f 622/622/622 623/623/623 639/639/639
f 622/622/622 639/639/639 638/638/638
f 649/649/649 623/623/623 622/622/622
f 650/650/650 638/638/638 639/639/639
f 623/623/623 624/624/624 640/640/640
f 623/623/623 640/640/640 639/639/639
f 649/649/649 624/624/624 623/623/623
f 650/650/650 639/639/639 640/640/640
f 624/624/624 625/625/625 641/641/641
f 624/624/624 641/641/641 640/640/640
f 649/649/649 625/625/625 624/624/624
f 650/650/650 640/640/640 641/641/641
f 625/625/625 626/626/626 642/642/642
f 625/625/625 642/642/642 641/641/641
f 649/649/649 626/626/626 625/625/625
f 650/650/650 641/641/641 642/642/642
f 626/626/626 627/627/627 643/643/643
f 626/626/626 643/643/643 642/642/642
f 649/649/649 627/627/627 626/626/626
f 650/650/650 642/642/642 643/643/643
f 627/627/627 628/628/628 644/644/644
f 627/627/627 644/644/644 643/643/643
f 649/649/649 628/628/628 627/627/627
f 650/650/650 643/643/643 644/644/644
f 628/628/628 629/629/629 645/645/645
f 628/628/628 645/645/645 644/644/644
f 649/649/649 629/629/629 628/628/628
f 650/650/650 644/644/644 645/645/645
f 629/629/629 630/630/630 646/646/646
f 629/629/629 646/646/646 645/645/645
f 649/649/649 630/630/630 629/629/629
f 650/650/650 645/645/645 646/646/646
f 630/630/630 631/631/631 647/647/647
f 630/630/630 647/647/647 646/646/646
f 649/649/649 631/631/631 630/630/630
f 650/650/650 646/646/646 647/647/647
f 631/631/631 632/632/632 648/648/648
f 631/631/631 648/648/648 647/647/647
f 649/649/649 632/632/632 631/631/631
f 650/650/650 647/647/647 648/648/648
f 632/632/632 617/617/617 633/633/633
f 632/632/632 633/633/633 648/648/648
f 649/649/649 617/617/617 632/632/632
f 650/650/650 648/648/648 633/633/633
f 651/651/651 653/653/653 652/652/652
f 651/651/651 654/654/654 653/653/653
f 655/655/655 656/656/656 657/657/657
f 655/655/655 657/657/657 658/658/658
f 651/651/651 652/652/652 656/656/656
f 651/651/651 656/656/656 655/655/655
f 653/653/653 654/654/654 658/658/658
f 653/653/653 658/658/658 657/657/657
f 651/651/651 655/655/655 658/658/658
f 651/651/651 658/658/658 654/654/654
f 652/652/652 653/653/653 657/657/657
f 652/652/652 657/657/657 656/656/656
f 659/659/659 661/661/661 660/660/660
f 659/659/659 662/662/662 661/661/661
f 663/663/663 664/664/664 665/665/665
f 663/663/663 665/665/665 666/666/666
f 659/659/659 660/660/660 664/664/664
f 659/659/659 664/664/664 663/663/663
f 661/661/661 662/662/662 666/666/666
f 661/661/661 666/666/666 665/665/665
f 659/659/659 663/663/663 666/666/666
f 659/659/659 666/666/666 662/662/662
f 660/660/660 661/661/661 665/665/665
f 660/660/660 665/665/665 664/664/664
f 667/667/667 669/669/669 668/668/668
f 667/667/667 670/670/670 669/669/669
f 671/671/671 672/672/672 673/673/673
f 671/671/671 673/673/673 674/674/674
f 667/667/667 668/668/668 672/672/672
f 667/667/667 672/672/672 671/671/671
f 669/669/669 670/670/670 674/674/674
f 669/669/669 674/674/674 673/673/673
f 667/667/667 671/671/671 674/674/674
f 667/667/667 674/674/674 670/670/670
f 668/668/668 669/669/669 673/673/673
f 668/668/668 673/673/673 672/672/672
f 675/675/675 677/677/677 676/676/676
f 675/675/675 678/678/678 677/677/677
f 679/679/679 680/680/680 681/681/681
f 679/679/679 681/681/681 682/682/682
f 675/675/675 676/676/676 680/680/680
f 675/675/675 680/680/680 679/679/679
f 677/677/677 678/678/678 682/682/682
f 677/677/677 682/682/682 681/681/681
f 675/675/675 679/679/679 682/682/682
f 675/675/675 682/682/682 678/678/678
f 676/676/676 677/677/677 681/681/681
f 676/676/676 681/681/681 680/680/680