# 3D Model: tree/canopy/p6CRn6GXmKSX (v6 Gemini)
# Style: Giant Sequoia Tree | Symmetry: asymmetric
# Dimensions: 13 x 51 x 13 m
# Triangles: 680 | Vertices: 405
v 4.5 0 0
v 4.1575 0 1.7221
v 3.182 0 3.182
v 1.7221 0 4.1575
v 0 0 4.5
v -1.7221 0 4.1575
v -3.182 0 3.182
v -4.1575 0 1.7221
v -4.5 0 0
v -4.1575 0 -1.7221
v -3.182 0 -3.182
v -1.7221 0 -4.1575
v 0 0 -4.5
v 1.7221 0 -4.1575
v 3.182 0 -3.182
v 4.1575 0 -1.7221
v 2.5 30 0
v 2.3097 30 0.9567
v 1.7678 30 1.7678
v 0.9567 30 2.3097
v 0 30 2.5
v -0.9567 30 2.3097
v -1.7678 30 1.7678
v -2.3097 30 0.9567
v -2.5 30 0
v -2.3097 30 -0.9567
v -1.7678 30 -1.7678
v -0.9567 30 -2.3097
v 0 30 -2.5
v 0.9567 30 -2.3097
v 1.7678 30 -1.7678
v 2.3097 30 -0.9567
v 0 0 0
v 0 30 0
v 6.5 0 0
v 6.0052 0 2.4874
v 4.5962 0 4.5962
v 2.4874 0 6.0052
v 0 0 6.5
v -2.4874 0 6.0052
v -4.5962 0 4.5962
v -6.0052 0 2.4874
v -6.5 0 0
v -6.0052 0 -2.4874
v -4.5962 0 -4.5962
v -2.4874 0 -6.0052
v 0 0 -6.5
v 2.4874 0 -6.0052
v 4.5962 0 -4.5962
v 6.0052 0 -2.4874
v 4.5 4 0
v 4.1575 4 1.7221
v 3.182 4 3.182
v 1.7221 4 4.1575
v 0 4 4.5
v -1.7221 4 4.1575
v -3.182 4 3.182
v -4.1575 4 1.7221
v -4.5 4 0
v -4.1575 4 -1.7221
v -3.182 4 -3.182
v -1.7221 4 -4.1575
v 0 4 -4.5
v 1.7221 4 -4.1575
v 3.182 4 -3.182
v 4.1575 4 -1.7221
v 0 0 0
v 0 4 0
v 0 33 0
v 0 33 0
v 0 33 0
v 0 33 0
v 0 33 0
v 0 33 0
v 0 33 0
v 0 33 0
v 0 33 0
v 0 33 0
v 0 33 0
v 2.2961 32.391 0
v 1.8576 32.391 1.3496
v 0.7095 32.391 2.1837
v -0.7095 32.391 2.1837
v -1.8576 32.391 1.3496
v -2.2961 32.391 0
v -1.8576 32.391 -1.3496
v -0.7095 32.391 -2.1837
v 0.7095 32.391 -2.1837
v 1.8576 32.391 -1.3496
v 2.2961 32.391 0
v 4.2426 30.6569 0
v 3.4324 30.6569 2.4938
v 1.311 30.6569 4.035
v -1.311 30.6569 4.035
v -3.4324 30.6569 2.4938
v -4.2426 30.6569 0
v -3.4324 30.6569 -2.4938
v -1.311 30.6569 -4.035
v 1.311 30.6569 -4.035
v 3.4324 30.6569 -2.4938
v 4.2426 30.6569 0
v 5.5433 28.0615 0
v 4.4846 28.0615 3.2583
v 1.713 28.0615 5.272
v -1.713 28.0615 5.272
v -4.4846 28.0615 3.2583
v -5.5433 28.0615 0
v -4.4846 28.0615 -3.2583
v -1.713 28.0615 -5.272
v 1.713 28.0615 -5.272
v 4.4846 28.0615 -3.2583
v 5.5433 28.0615 0
v 6 25 0
v 4.8541 25 3.5267
v 1.8541 25 5.7063
v -1.8541 25 5.7063
v -4.8541 25 3.5267
v -6 25 0
v -4.8541 25 -3.5267
v -1.8541 25 -5.7063
v 1.8541 25 -5.7063
v 4.8541 25 -3.5267
v 6 25 0
v 5.5433 21.9385 0
v 4.4846 21.9385 3.2583
v 1.713 21.9385 5.272
v -1.713 21.9385 5.272
v -4.4846 21.9385 3.2583
v -5.5433 21.9385 0
v -4.4846 21.9385 -3.2583
v -1.713 21.9385 -5.272
v 1.713 21.9385 -5.272
v 4.4846 21.9385 -3.2583
v 5.5433 21.9385 0
v 4.2426 19.3431 0
v 3.4324 19.3431 2.4938
v 1.311 19.3431 4.035
v -1.311 19.3431 4.035
v -3.4324 19.3431 2.4938
v -4.2426 19.3431 0
v -3.4324 19.3431 -2.4938
v -1.311 19.3431 -4.035
v 1.311 19.3431 -4.035
v 3.4324 19.3431 -2.4938
v 4.2426 19.3431 0
v 2.2961 17.609 0
v 1.8576 17.609 1.3496
v 0.7095 17.609 2.1837
v -0.7095 17.609 2.1837
v -1.8576 17.609 1.3496
v -2.2961 17.609 0
v -1.8576 17.609 -1.3496
v -0.7095 17.609 -2.1837
v 0.7095 17.609 -2.1837
v 1.8576 17.609 -1.3496
v 2.2961 17.609 0
v 0 17 0
v 0 17 0
v 0 17 0
v 0 17 0
v 0 17 0
v 0 17 0
v 0 17 0
v 0 17 0
v 0 17 0
v 0 17 0
v 0 17 0
v 1 42 0
v 1 42 0
v 1 42 0
v 1 42 0
v 1 42 0
v 1 42 0
v 1 42 0
v 1 42 0
v 1 42 0
v 1 42 0
v 1 42 0
v 2.9134 41.4672 0
v 2.548 41.4672 1.1247
v 1.5913 41.4672 1.8198
v 0.4087 41.4672 1.8198
v -0.548 41.4672 1.1247
v -0.9134 41.4672 0
v -0.548 41.4672 -1.1247
v 0.4087 41.4672 -1.8198
v 1.5913 41.4672 -1.8198
v 2.548 41.4672 -1.1247
v 2.9134 41.4672 0
v 4.5355 39.9497 0
v 3.8603 39.9497 2.0781
v 2.0925 39.9497 3.3625
v -0.0925 39.9497 3.3625
v -1.8603 39.9497 2.0781
v -2.5355 39.9497 0
v -1.8603 39.9497 -2.0781
v -0.0925 39.9497 -3.3625
v 2.0925 39.9497 -3.3625
v 3.8603 39.9497 -2.0781
v 4.5355 39.9497 0
v 5.6194 37.6788 0
v 4.7372 37.6788 2.7152
v 2.4275 37.6788 4.3933
v -0.4275 37.6788 4.3933
v -2.7372 37.6788 2.7152
v -3.6194 37.6788 0
v -2.7372 37.6788 -2.7152
v -0.4275 37.6788 -4.3933
v 2.4275 37.6788 -4.3933
v 4.7372 37.6788 -2.7152
v 5.6194 37.6788 0
v 6 35 0
v 5.0451 35 2.9389
v 2.5451 35 4.7553
v -0.5451 35 4.7553
v -3.0451 35 2.9389
v -4 35 0
v -3.0451 35 -2.9389
v -0.5451 35 -4.7553
v 2.5451 35 -4.7553
v 5.0451 35 -2.9389
v 6 35 0
v 5.6194 32.3212 0
v 4.7372 32.3212 2.7152
v 2.4275 32.3212 4.3933
v -0.4275 32.3212 4.3933
v -2.7372 32.3212 2.7152
v -3.6194 32.3212 0
v -2.7372 32.3212 -2.7152
v -0.4275 32.3212 -4.3933
v 2.4275 32.3212 -4.3933
v 4.7372 32.3212 -2.7152
v 5.6194 32.3212 0
v 4.5355 30.0503 0
v 3.8603 30.0503 2.0781
v 2.0925 30.0503 3.3625
v -0.0925 30.0503 3.3625
v -1.8603 30.0503 2.0781
v -2.5355 30.0503 0
v -1.8603 30.0503 -2.0781
v -0.0925 30.0503 -3.3625
v 2.0925 30.0503 -3.3625
v 3.8603 30.0503 -2.0781
v 4.5355 30.0503 0
v 2.9134 28.5328 0
v 2.548 28.5328 1.1247
v 1.5913 28.5328 1.8198
v 0.4087 28.5328 1.8198
v -0.548 28.5328 1.1247
v -0.9134 28.5328 0
v -0.548 28.5328 -1.1247
v 0.4087 28.5328 -1.8198
v 1.5913 28.5328 -1.8198
v 2.548 28.5328 -1.1247
v 2.9134 28.5328 0
v 1 28 0
v 1 28 0
v 1 28 0
v 1 28 0
v 1 28 0
v 1 28 0
v 1 28 0
v 1 28 0
v 1 28 0
v 1 28 0
v 1 28 0
v 0 51 0
v 0 51 0
v 0 51 0
v 0 51 0
v 0 51 0
v 0 51 0
v 0 51 0
v 0 51 0
v 0 51 0
v 0 51 0
v 0 51 0
v 1.5307 50.5433 0
v 1.2384 50.5433 0.8997
v 0.473 50.5433 1.4558
v -0.473 50.5433 1.4558
v -1.2384 50.5433 0.8997
v -1.5307 50.5433 0
v -1.2384 50.5433 -0.8997
v -0.473 50.5433 -1.4558
v 0.473 50.5433 -1.4558
v 1.2384 50.5433 -0.8997
v 1.5307 50.5433 0
v 2.8284 49.2426 0
v 2.2882 49.2426 1.6625
v 0.874 49.2426 2.69
v -0.874 49.2426 2.69
v -2.2882 49.2426 1.6625
v -2.8284 49.2426 0
v -2.2882 49.2426 -1.6625
v -0.874 49.2426 -2.69
v 0.874 49.2426 -2.69
v 2.2882 49.2426 -1.6625
v 2.8284 49.2426 0
v 3.6955 47.2961 0
v 2.9897 47.2961 2.1722
v 1.142 47.2961 3.5146
v -1.142 47.2961 3.5146
v -2.9897 47.2961 2.1722
v -3.6955 47.2961 0
v -2.9897 47.2961 -2.1722
v -1.142 47.2961 -3.5146
v 1.142 47.2961 -3.5146
v 2.9897 47.2961 -2.1722
v 3.6955 47.2961 0
v 4 45 0
v 3.2361 45 2.3511
v 1.2361 45 3.8042
v -1.2361 45 3.8042
v -3.2361 45 2.3511
v -4 45 0
v -3.2361 45 -2.3511
v -1.2361 45 -3.8042
v 1.2361 45 -3.8042
v 3.2361 45 -2.3511
v 4 45 0
v 3.6955 42.7039 0
v 2.9897 42.7039 2.1722
v 1.142 42.7039 3.5146
v -1.142 42.7039 3.5146
v -2.9897 42.7039 2.1722
v -3.6955 42.7039 0
v -2.9897 42.7039 -2.1722
v -1.142 42.7039 -3.5146
v 1.142 42.7039 -3.5146
v 2.9897 42.7039 -2.1722
v 3.6955 42.7039 0
v 2.8284 40.7574 0
v 2.2882 40.7574 1.6625
v 0.874 40.7574 2.69
v -0.874 40.7574 2.69
v -2.2882 40.7574 1.6625
v -2.8284 40.7574 0
v -2.2882 40.7574 -1.6625
v -0.874 40.7574 -2.69
v 0.874 40.7574 -2.69
v 2.2882 40.7574 -1.6625
v 2.8284 40.7574 0
v 1.5307 39.4567 0
v 1.2384 39.4567 0.8997
v 0.473 39.4567 1.4558
v -0.473 39.4567 1.4558
v -1.2384 39.4567 0.8997
v -1.5307 39.4567 0
v -1.2384 39.4567 -0.8997
v -0.473 39.4567 -1.4558
v 0.473 39.4567 -1.4558
v 1.2384 39.4567 -0.8997
v 1.5307 39.4567 0
v 0 39 0
v 0 39 0
v 0 39 0
v 0 39 0
v 0 39 0
v 0 39 0
v 0 39 0
v 0 39 0
v 0 39 0
v 0 39 0
v 0 39 0
v 1.5566 28.5566 0.5566
v 1.5566 28.5566 3.4434
v 1.5566 31.4434 0.5566
v 1.5566 31.4434 3.4434
v 4.4434 28.5566 0.5566
v 4.4434 28.5566 3.4434
v 4.4434 31.4434 0.5566
v 4.4434 31.4434 3.4434
v 3 29.1079 -0.3354
v 3 29.1079 4.3354
v 3 30.8921 -0.3354
v 3 30.8921 4.3354
v 2.1079 27.6646 2
v 2.1079 32.3354 2
v 3.8921 27.6646 2
v 3.8921 32.3354 2
v 0.6646 30 1.1079
v 0.6646 30 2.8921
v 5.3354 30 1.1079
v 5.3354 30 2.8921
v -3.1547 36.8453 -2.1547
v -3.1547 36.8453 0.1547
v -3.1547 39.1547 -2.1547
v -3.1547 39.1547 0.1547
v -0.8453 36.8453 -2.1547
v -0.8453 36.8453 0.1547
v -0.8453 39.1547 -2.1547
v -0.8453 39.1547 0.1547
v -2 37.2864 -2.8683
v -2 37.2864 0.8683
v -2 38.7136 -2.8683
v -2 38.7136 0.8683
v -2.7136 36.1317 -1
v -2.7136 39.8683 -1
v -1.2864 36.1317 -1
v -1.2864 39.8683 -1
v -3.8683 38 -1.7136
v -3.8683 38 -0.2864
v -0.1317 38 -1.7136
v -0.1317 38 -0.2864
vt 0 0
vt 0.0625 0
vt 0.125 0
vt 0.1875 0
vt 0.25 0
vt 0.3125 0
vt 0.375 0
vt 0.4375 0
vt 0.5 0
vt 0.5625 0
vt 0.625 0
vt 0.6875 0
vt 0.75 0
vt 0.8125 0
vt 0.875 0
vt 0.9375 0
vt 0 1
vt 0.0625 1
vt 0.125 1
vt 0.1875 1
vt 0.25 1
vt 0.3125 1
vt 0.375 1
vt 0.4375 1
vt 0.5 1
vt 0.5625 1
vt 0.625 1
vt 0.6875 1
vt 0.75 1
vt 0.8125 1
vt 0.875 1
vt 0.9375 1
vt 0.5 0.5
vt 0.5 0.5
vt 0 0
vt 0.0625 0
vt 0.125 0
vt 0.1875 0
vt 0.25 0
vt 0.3125 0
vt 0.375 0
vt 0.4375 0
vt 0.5 0
vt 0.5625 0
vt 0.625 0
vt 0.6875 0
vt 0.75 0
vt 0.8125 0
vt 0.875 0
vt 0.9375 0
vt 0 1
vt 0.0625 1
vt 0.125 1
vt 0.1875 1
vt 0.25 1
vt 0.3125 1
vt 0.375 1
vt 0.4375 1
vt 0.5 1
vt 0.5625 1
vt 0.625 1
vt 0.6875 1
vt 0.75 1
vt 0.8125 1
vt 0.875 1
vt 0.9375 1
vt 0.5 0.5
vt 0.5 0.5
vt 0 0
vt 0.1 0
vt 0.2 0
vt 0.3 0
vt 0.4 0
vt 0.5 0
vt 0.6 0
vt 0.7 0
vt 0.8 0
vt 0.9 0
vt 1 0
vt 0 0.125
vt 0.1 0.125
vt 0.2 0.125
vt 0.3 0.125
vt 0.4 0.125
vt 0.5 0.125
vt 0.6 0.125
vt 0.7 0.125
vt 0.8 0.125
vt 0.9 0.125
vt 1 0.125
vt 0 0.25
vt 0.1 0.25
vt 0.2 0.25
vt 0.3 0.25
vt 0.4 0.25
vt 0.5 0.25
vt 0.6 0.25
vt 0.7 0.25
vt 0.8 0.25
vt 0.9 0.25
vt 1 0.25
vt 0 0.375
vt 0.1 0.375
vt 0.2 0.375
vt 0.3 0.375
vt 0.4 0.375
vt 0.5 0.375
vt 0.6 0.375
vt 0.7 0.375
vt 0.8 0.375
vt 0.9 0.375
vt 1 0.375
vt 0 0.5
vt 0.1 0.5
vt 0.2 0.5
vt 0.3 0.5
vt 0.4 0.5
vt 0.5 0.5
vt 0.6 0.5
vt 0.7 0.5
vt 0.8 0.5
vt 0.9 0.5
vt 1 0.5
vt 0 0.625
vt 0.1 0.625
vt 0.2 0.625
vt 0.3 0.625
vt 0.4 0.625
vt 0.5 0.625
vt 0.6 0.625
vt 0.7 0.625
vt 0.8 0.625
vt 0.9 0.625
vt 1 0.625
vt 0 0.75
vt 0.1 0.75
vt 0.2 0.75
vt 0.3 0.75
vt 0.4 0.75
vt 0.5 0.75
vt 0.6 0.75
vt 0.7 0.75
vt 0.8 0.75
vt 0.9 0.75
vt 1 0.75
vt 0 0.875
vt 0.1 0.875
vt 0.2 0.875
vt 0.3 0.875
vt 0.4 0.875
vt 0.5 0.875
vt 0.6 0.875
vt 0.7 0.875
vt 0.8 0.875
vt 0.9 0.875
vt 1 0.875
vt 0 1
vt 0.1 1
vt 0.2 1
vt 0.3 1
vt 0.4 1
vt 0.5 1
vt 0.6 1
vt 0.7 1
vt 0.8 1
vt 0.9 1
vt 1 1
vt 0 0
vt 0.1 0
vt 0.2 0
vt 0.3 0
vt 0.4 0
vt 0.5 0
vt 0.6 0
vt 0.7 0
vt 0.8 0
vt 0.9 0
vt 1 0
vt 0 0.125
vt 0.1 0.125
vt 0.2 0.125
vt 0.3 0.125
vt 0.4 0.125
vt 0.5 0.125
vt 0.6 0.125
vt 0.7 0.125
vt 0.8 0.125
vt 0.9 0.125
vt 1 0.125
vt 0 0.25
vt 0.1 0.25
vt 0.2 0.25
vt 0.3 0.25
vt 0.4 0.25
vt 0.5 0.25
vt 0.6 0.25
vt 0.7 0.25
vt 0.8 0.25
vt 0.9 0.25
vt 1 0.25
vt 0 0.375
vt 0.1 0.375
vt 0.2 0.375
vt 0.3 0.375
vt 0.4 0.375
vt 0.5 0.375
vt 0.6 0.375
vt 0.7 0.375
vt 0.8 0.375
vt 0.9 0.375
vt 1 0.375
vt 0 0.5
vt 0.1 0.5
vt 0.2 0.5
vt 0.3 0.5
vt 0.4 0.5
vt 0.5 0.5
vt 0.6 0.5
vt 0.7 0.5
vt 0.8 0.5
vt 0.9 0.5
vt 1 0.5
vt 0 0.625
vt 0.1 0.625
vt 0.2 0.625
vt 0.3 0.625
vt 0.4 0.625
vt 0.5 0.625
vt 0.6 0.625
vt 0.7 0.625
vt 0.8 0.625
vt 0.9 0.625
vt 1 0.625
vt 0 0.75
vt 0.1 0.75
vt 0.2 0.75
vt 0.3 0.75
vt 0.4 0.75
vt 0.5 0.75
vt 0.6 0.75
vt 0.7 0.75
vt 0.8 0.75
vt 0.9 0.75
vt 1 0.75
vt 0 0.875
vt 0.1 0.875
vt 0.2 0.875
vt 0.3 0.875
vt 0.4 0.875
vt 0.5 0.875
vt 0.6 0.875
vt 0.7 0.875
vt 0.8 0.875
vt 0.9 0.875
vt 1 0.875
vt 0 1
vt 0.1 1
vt 0.2 1
vt 0.3 1
vt 0.4 1
vt 0.5 1
vt 0.6 1
vt 0.7 1
vt 0.8 1
vt 0.9 1
vt 1 1
vt 0 0
vt 0.1 0
vt 0.2 0
vt 0.3 0
vt 0.4 0
vt 0.5 0
vt 0.6 0
vt 0.7 0
vt 0.8 0
vt 0.9 0
vt 1 0
vt 0 0.125
vt 0.1 0.125
vt 0.2 0.125
vt 0.3 0.125
vt 0.4 0.125
vt 0.5 0.125
vt 0.6 0.125
vt 0.7 0.125
vt 0.8 0.125
vt 0.9 0.125
vt 1 0.125
vt 0 0.25
vt 0.1 0.25
vt 0.2 0.25
vt 0.3 0.25
vt 0.4 0.25
vt 0.5 0.25
vt 0.6 0.25
vt 0.7 0.25
vt 0.8 0.25
vt 0.9 0.25
vt 1 0.25
vt 0 0.375
vt 0.1 0.375
vt 0.2 0.375
vt 0.3 0.375
vt 0.4 0.375
vt 0.5 0.375
vt 0.6 0.375
vt 0.7 0.375
vt 0.8 0.375
vt 0.9 0.375
vt 1 0.375
vt 0 0.5
vt 0.1 0.5
vt 0.2 0.5
vt 0.3 0.5
vt 0.4 0.5
vt 0.5 0.5
vt 0.6 0.5
vt 0.7 0.5
vt 0.8 0.5
vt 0.9 0.5
vt 1 0.5
vt 0 0.625
vt 0.1 0.625
vt 0.2 0.625
vt 0.3 0.625
vt 0.4 0.625
vt 0.5 0.625
vt 0.6 0.625
vt 0.7 0.625
vt 0.8 0.625
vt 0.9 0.625
vt 1 0.625
vt 0 0.75
vt 0.1 0.75
vt 0.2 0.75
vt 0.3 0.75
vt 0.4 0.75
vt 0.5 0.75
vt 0.6 0.75
vt 0.7 0.75
vt 0.8 0.75
vt 0.9 0.75
vt 1 0.75
vt 0 0.875
vt 0.1 0.875
vt 0.2 0.875
vt 0.3 0.875
vt 0.4 0.875
vt 0.5 0.875
vt 0.6 0.875
vt 0.7 0.875
vt 0.8 0.875
vt 0.9 0.875
vt 1 0.875
vt 0 1
vt 0.1 1
vt 0.2 1
vt 0.3 1
vt 0.4 1
vt 0.5 1
vt 0.6 1
vt 0.7 1
vt 0.8 1
vt 0.9 1
vt 1 1
vt 0.5 0.5
vt 0.5 0.5
vt 0.5 0.5
vt 0.5 0.5
vt 0.5 0.5
vt 0.5 0.5
vt 0.5 0.5
vt 0.5 0.5
vt 0.5 0.5
vt 0.5 0.5
vt 0.5 0.5
vt 0.5 0.5
vt 0.5 0.5
vt 0.5 0.5
vt 0.5 0.5
vt 0.5 0.5
vt 0.5 0.5
vt 0.5 0.5
vt 0.5 0.5
vt 0.5 0.5
vt 0.5 0.5
vt 0.5 0.5
vt 0.5 0.5
vt 0.5 0.5
vt 0.5 0.5
vt 0.5 0.5
vt 0.5 0.5
vt 0.5 0.5
vt 0.5 0.5
vt 0.5 0.5
vt 0.5 0.5
vt 0.5 0.5
vt 0.5 0.5
vt 0.5 0.5
vt 0.5 0.5
vt 0.5 0.5
vt 0.5 0.5
vt 0.5 0.5
vt 0.5 0.5
vt 0.5 0.5
vn 0 -1 0
vn 0 -1 0
vn 0 -1 0
vn 0 -1 0
vn 0 -1 0
vn 0 -1 0
vn 0 -1 0
vn 0 -1 0
vn 0 -1 0
vn 0 -1 0
vn 0 -1 0
vn 0 -1 0
vn 0 -1 0
vn 0 -1 0
vn 0 -1 0
vn 0 -1 0
vn 0 1 0
vn 0 1 0
vn 0 1 0
vn 0 1 0
vn 0 1 0
vn 0 1 0
vn 0 1 0
vn 0 1 0
vn 0 1 0
vn 0 1 0
vn 0 1 0
vn 0 1 0
vn 0 1 0
vn 0 1 0
vn 0 1 0
vn 0 1 0
vn 0 -1 0
vn 0 1 0
vn 0 -1 0
vn 0 -1 0
vn 0 -1 0
vn 0 -1 0
vn 0 -1 0
vn 0 -1 0
vn 0 -1 0
vn 0 -1 0
vn 0 -1 0
vn 0 -1 0
vn 0 -1 0
vn 0 -1 0
vn 0 -1 0
vn 0 -1 0
vn 0 -1 0
vn 0 -1 0
vn 0 1 0
vn 0 1 0
vn 0 1 0
vn 0 1 0
vn 0 1 0
vn 0 1 0
vn 0 1 0
vn 0 1 0
vn 0 1 0
vn 0 1 0
vn 0 1 0
vn 0 1 0
vn 0 1 0
vn 0 1 0
vn 0 1 0
vn 0 1 0
vn 0 -1 0
vn 0 1 0
vn 0 1 0
vn 0 1 0
vn 0 1 0
vn 0 1 0
vn 0 1 0
vn 0 1 0
vn 0 1 0
vn 0 1 0
vn 0 1 0
vn 0 1 0
vn 0 1 0
vn 0.3826834323650898 0.9238795325112867 0
vn 0.30959740024909344 0.9238795325112867 0.22493567784086388
vn 0.11825568406654853 0.9238795325112867 0.3639535720290143
vn -0.11825568406654847 0.9238795325112867 0.36395357202901435
vn -0.3095974002490934 0.9238795325112867 0.2249356778408639
vn -0.3826834323650898 0.9238795325112867 4.6865204053262986e-17
vn -0.30959740024909344 0.9238795325112867 -0.22493567784086385
vn -0.11825568406654857 0.9238795325112867 -0.3639535720290143
vn 0.11825568406654845 0.9238795325112867 -0.36395357202901435
vn 0.3095974002490934 0.9238795325112867 -0.22493567784086396
vn 0.3826834323650898 0.9238795325112867 -9.373040810652597e-17
vn 0.7071067811865475 0.7071067811865476 0
vn 0.5720614028176843 0.7071067811865476 0.41562693777745335
vn 0.21850801222441055 0.7071067811865476 0.6724985119639572
vn -0.21850801222441044 0.7071067811865476 0.6724985119639572
vn -0.5720614028176841 0.7071067811865476 0.41562693777745346
vn -0.7071067811865475 0.7071067811865476 8.659560562354932e-17
vn -0.5720614028176843 0.7071067811865476 -0.4156269377774533
vn -0.2185080122244106 0.7071067811865476 -0.6724985119639572
vn 0.21850801222441038 0.7071067811865476 -0.6724985119639572
vn 0.5720614028176841 0.7071067811865476 -0.4156269377774536
vn 0.7071067811865475 0.7071067811865476 -1.7319121124709863e-16
vn 0.9238795325112866 0.38268343236508984 0
vn 0.7474342425568127 0.38268343236508984 0.5430427641049989
vn 0.28549447630116936 0.38268343236508984 0.8786616496665794
vn -0.28549447630116925 0.38268343236508984 0.8786616496665797
vn -0.7474342425568127 0.38268343236508984 0.543042764104999
vn -0.9238795325112866 0.38268343236508984 1.1314261122877003e-16
vn -0.7474342425568127 0.38268343236508984 -0.5430427641049987
vn -0.2854944763011695 0.38268343236508984 -0.8786616496665794
vn 0.28549447630116914 0.38268343236508984 -0.8786616496665797
vn 0.7474342425568127 0.38268343236508984 -0.543042764104999
vn 0.9238795325112866 0.38268343236508984 -2.2628522245754005e-16
vn 1 6.123233995736766e-17 0
vn 0.8090169943749475 6.123233995736766e-17 0.5877852522924731
vn 0.30901699437494745 6.123233995736766e-17 0.9510565162951535
vn -0.30901699437494734 6.123233995736766e-17 0.9510565162951536
vn -0.8090169943749473 6.123233995736766e-17 0.5877852522924732
vn -1 6.123233995736766e-17 1.2246467991473532e-16
vn -0.8090169943749475 6.123233995736766e-17 -0.587785252292473
vn -0.30901699437494756 6.123233995736766e-17 -0.9510565162951535
vn 0.30901699437494723 6.123233995736766e-17 -0.9510565162951536
vn 0.8090169943749473 6.123233995736766e-17 -0.5877852522924734
vn 1 6.123233995736766e-17 -2.4492935982947064e-16
vn 0.9238795325112866 -0.3826834323650897 0
vn 0.7474342425568127 -0.3826834323650897 0.5430427641049989
vn 0.28549447630116936 -0.3826834323650897 0.8786616496665794
vn -0.28549447630116925 -0.3826834323650897 0.8786616496665797
vn -0.7474342425568127 -0.3826834323650897 0.543042764104999
vn -0.9238795325112866 -0.3826834323650897 1.1314261122877003e-16
vn -0.7474342425568127 -0.3826834323650897 -0.5430427641049987
vn -0.2854944763011695 -0.3826834323650897 -0.8786616496665794
vn 0.28549447630116914 -0.3826834323650897 -0.8786616496665797
vn 0.7474342425568127 -0.3826834323650897 -0.543042764104999
vn 0.9238795325112866 -0.3826834323650897 -2.2628522245754005e-16
vn 0.7071067811865476 -0.7071067811865475 0
vn 0.5720614028176844 -0.7071067811865475 0.41562693777745346
vn 0.2185080122244106 -0.7071067811865475 0.6724985119639574
vn -0.2185080122244105 -0.7071067811865475 0.6724985119639574
vn -0.5720614028176843 -0.7071067811865475 0.4156269377774535
vn -0.7071067811865476 -0.7071067811865475 8.659560562354934e-17
vn -0.5720614028176844 -0.7071067811865475 -0.41562693777745335
vn -0.21850801222441066 -0.7071067811865475 -0.6724985119639574
vn 0.2185080122244104 -0.7071067811865475 -0.6724985119639574
vn 0.5720614028176843 -0.7071067811865475 -0.4156269377774537
vn 0.7071067811865476 -0.7071067811865475 -1.7319121124709868e-16
vn 0.3826834323650899 -0.9238795325112867 0
vn 0.3095974002490935 -0.9238795325112867 0.2249356778408639
vn 0.11825568406654857 -0.9238795325112867 0.3639535720290144
vn -0.11825568406654853 -0.9238795325112867 0.3639535720290145
vn -0.3095974002490935 -0.9238795325112867 0.224935677840864
vn -0.3826834323650899 -0.9238795325112867 4.6865204053263e-17
vn -0.3095974002490935 -0.9238795325112867 -0.2249356778408639
vn -0.11825568406654861 -0.9238795325112867 -0.3639535720290144
vn 0.11825568406654847 -0.9238795325112867 -0.3639535720290145
vn 0.3095974002490935 -0.9238795325112867 -0.22493567784086402
vn 0.3826834323650899 -0.9238795325112867 -9.3730408106526e-17
vn 1.2246467991473532e-16 -1 0
vn 9.907600726170917e-17 -1 7.198293278059966e-17
vn 3.7843667304341506e-17 -1 1.1647083184890923e-16
vn -3.7843667304341493e-17 -1 1.1647083184890926e-16
vn -9.907600726170915e-17 -1 7.198293278059968e-17
vn -1.2246467991473532e-16 -1 1.4997597826618576e-32
vn -9.907600726170917e-17 -1 -7.198293278059965e-17
vn -3.784366730434152e-17 -1 -1.1647083184890923e-16
vn 3.784366730434148e-17 -1 -1.1647083184890926e-16
vn 9.907600726170915e-17 -1 -7.19829327805997e-17
vn 1.2246467991473532e-16 -1 -2.999519565323715e-32
vn 0 1 0
vn 0 1 0
vn 0 1 0
vn 0 1 0
vn 0 1 0
vn 0 1 0
vn 0 1 0
vn 0 1 0
vn 0 1 0
vn 0 1 0
vn 0 1 0
vn 0.3826834323650898 0.9238795325112867 0
vn 0.30959740024909344 0.9238795325112867 0.22493567784086385
vn 0.11825568406654854 0.9238795325112867 0.3639535720290143
vn -0.11825568406654849 0.9238795325112867 0.36395357202901435
vn -0.3095974002490934 0.9238795325112867 0.2249356778408639
vn -0.3826834323650898 0.9238795325112867 4.6865204053262986e-17
vn -0.30959740024909344 0.9238795325112867 -0.22493567784086382
vn -0.11825568406654856 0.9238795325112867 -0.3639535720290143
vn 0.11825568406654845 0.9238795325112867 -0.36395357202901435
vn 0.3095974002490934 0.9238795325112867 -0.22493567784086393
vn 0.3826834323650898 0.9238795325112867 -9.373040810652597e-17
vn 0.7071067811865475 0.7071067811865476 0
vn 0.5720614028176843 0.7071067811865476 0.4156269377774534
vn 0.21850801222441057 0.7071067811865476 0.6724985119639573
vn -0.21850801222441046 0.7071067811865476 0.6724985119639573
vn -0.5720614028176841 0.7071067811865476 0.4156269377774534
vn -0.7071067811865475 0.7071067811865476 8.659560562354932e-17
vn -0.5720614028176843 0.7071067811865476 -0.41562693777745335
vn -0.2185080122244106 0.7071067811865476 -0.6724985119639573
vn 0.21850801222441038 0.7071067811865476 -0.6724985119639573
vn 0.5720614028176841 0.7071067811865476 -0.41562693777745363
vn 0.7071067811865475 0.7071067811865476 -1.7319121124709863e-16
vn 0.9238795325112867 0.3826834323650899 0
vn 0.7474342425568128 0.3826834323650899 0.5430427641049989
vn 0.28549447630116936 0.3826834323650899 0.8786616496665796
vn -0.28549447630116925 0.3826834323650899 0.8786616496665796
vn -0.7474342425568127 0.3826834323650899 0.543042764104999
vn -0.9238795325112867 0.3826834323650899 1.1314261122877003e-16
vn -0.7474342425568128 0.3826834323650899 -0.5430427641049987
vn -0.2854944763011695 0.3826834323650899 -0.8786616496665796
vn 0.28549447630116914 0.3826834323650899 -0.8786616496665796
vn 0.7474342425568127 0.3826834323650899 -0.543042764104999
vn 0.9238795325112867 0.3826834323650899 -2.2628522245754005e-16
vn 1 6.123233995736766e-17 0
vn 0.8090169943749475 6.123233995736766e-17 0.5877852522924731
vn 0.30901699437494745 6.123233995736766e-17 0.9510565162951534
vn -0.30901699437494734 6.123233995736766e-17 0.9510565162951536
vn -0.8090169943749472 6.123233995736766e-17 0.5877852522924732
vn -1 6.123233995736766e-17 1.2246467991473532e-16
vn -0.8090169943749475 6.123233995736766e-17 -0.587785252292473
vn -0.30901699437494756 6.123233995736766e-17 -0.9510565162951534
vn 0.30901699437494723 6.123233995736766e-17 -0.9510565162951536
vn 0.8090169943749472 6.123233995736766e-17 -0.5877852522924734
vn 1 6.123233995736766e-17 -2.4492935982947064e-16
vn 0.9238795325112867 -0.3826834323650897 0
vn 0.7474342425568128 -0.3826834323650897 0.5430427641049989
vn 0.28549447630116936 -0.3826834323650897 0.8786616496665796
vn -0.28549447630116925 -0.3826834323650897 0.8786616496665796
vn -0.7474342425568127 -0.3826834323650897 0.543042764104999
vn -0.9238795325112867 -0.3826834323650897 1.1314261122877003e-16
vn -0.7474342425568128 -0.3826834323650897 -0.5430427641049987
vn -0.2854944763011695 -0.3826834323650897 -0.8786616496665796
vn 0.28549447630116914 -0.3826834323650897 -0.8786616496665796
vn 0.7474342425568127 -0.3826834323650897 -0.543042764104999
vn 0.9238795325112867 -0.3826834323650897 -2.2628522245754005e-16
vn 0.7071067811865476 -0.7071067811865474 0
vn 0.5720614028176844 -0.7071067811865474 0.4156269377774534
vn 0.21850801222441057 -0.7071067811865474 0.6724985119639574
vn -0.21850801222441046 -0.7071067811865474 0.6724985119639574
vn -0.5720614028176843 -0.7071067811865474 0.4156269377774535
vn -0.7071067811865476 -0.7071067811865474 8.659560562354934e-17
vn -0.5720614028176844 -0.7071067811865474 -0.4156269377774534
vn -0.21850801222441066 -0.7071067811865474 -0.6724985119639574
vn 0.21850801222441038 -0.7071067811865474 -0.6724985119639574
vn 0.5720614028176843 -0.7071067811865474 -0.41562693777745363
vn 0.7071067811865476 -0.7071067811865474 -1.7319121124709868e-16
vn 0.3826834323650899 -0.9238795325112867 0
vn 0.3095974002490935 -0.9238795325112867 0.22493567784086393
vn 0.11825568406654856 -0.9238795325112867 0.3639535720290144
vn -0.11825568406654854 -0.9238795325112867 0.36395357202901446
vn -0.3095974002490935 -0.9238795325112867 0.224935677840864
vn -0.3826834323650899 -0.9238795325112867 4.6865204053263e-17
vn -0.3095974002490935 -0.9238795325112867 -0.2249356778408639
vn -0.1182556840665486 -0.9238795325112867 -0.3639535720290144
vn 0.11825568406654849 -0.9238795325112867 -0.36395357202901446
vn 0.3095974002490935 -0.9238795325112867 -0.22493567784086405
vn 0.3826834323650899 -0.9238795325112867 -9.3730408106526e-17
vn 1.2246467991473532e-16 -1 0
vn 9.907600726170916e-17 -1 7.198293278059966e-17
vn 3.7843667304341506e-17 -1 1.1647083184890923e-16
vn -3.7843667304341493e-17 -1 1.1647083184890926e-16
vn -9.907600726170916e-17 -1 7.198293278059968e-17
vn -1.2246467991473532e-16 -1 1.4997597826618576e-32
vn -9.907600726170916e-17 -1 -7.198293278059965e-17
vn -3.784366730434152e-17 -1 -1.1647083184890923e-16
vn 3.7843667304341475e-17 -1 -1.1647083184890926e-16
vn 9.907600726170916e-17 -1 -7.19829327805997e-17
vn 1.2246467991473532e-16 -1 -2.999519565323715e-32
vn 0 1 0
vn 0 1 0
vn 0 1 0
vn 0 1 0
vn 0 1 0
vn 0 1 0
vn 0 1 0
vn 0 1 0
vn 0 1 0
vn 0 1 0
vn 0 1 0
vn 0.3826834323650898 0.9238795325112866 0
vn 0.30959740024909344 0.9238795325112866 0.22493567784086388
vn 0.11825568406654853 0.9238795325112866 0.3639535720290143
vn -0.11825568406654849 0.9238795325112866 0.36395357202901435
vn -0.3095974002490934 0.9238795325112866 0.2249356778408639
vn -0.3826834323650898 0.9238795325112866 4.6865204053262986e-17
vn -0.30959740024909344 0.9238795325112866 -0.22493567784086382
vn -0.11825568406654857 0.9238795325112866 -0.3639535720290143
vn 0.11825568406654845 0.9238795325112866 -0.36395357202901435
vn 0.3095974002490934 0.9238795325112866 -0.22493567784086396
vn 0.3826834323650898 0.9238795325112866 -9.373040810652597e-17
vn 0.7071067811865475 0.7071067811865476 0
vn 0.5720614028176843 0.7071067811865476 0.4156269377774534
vn 0.21850801222441055 0.7071067811865476 0.6724985119639573
vn -0.21850801222441046 0.7071067811865476 0.6724985119639573
vn -0.5720614028176841 0.7071067811865476 0.41562693777745346
vn -0.7071067811865475 0.7071067811865476 8.659560562354932e-17
vn -0.5720614028176843 0.7071067811865476 -0.4156269377774533
vn -0.2185080122244106 0.7071067811865476 -0.6724985119639573
vn 0.21850801222441038 0.7071067811865476 -0.6724985119639573
vn 0.5720614028176841 0.7071067811865476 -0.4156269377774536
vn 0.7071067811865475 0.7071067811865476 -1.7319121124709863e-16
vn 0.9238795325112867 0.38268343236508984 0
vn 0.7474342425568128 0.38268343236508984 0.5430427641049989
vn 0.28549447630116936 0.38268343236508984 0.8786616496665794
vn -0.28549447630116925 0.38268343236508984 0.8786616496665796
vn -0.7474342425568127 0.38268343236508984 0.543042764104999
vn -0.9238795325112867 0.38268343236508984 1.1314261122877003e-16
vn -0.7474342425568128 0.38268343236508984 -0.5430427641049987
vn -0.2854944763011695 0.38268343236508984 -0.8786616496665794
vn 0.28549447630116914 0.38268343236508984 -0.8786616496665796
vn 0.7474342425568127 0.38268343236508984 -0.543042764104999
vn 0.9238795325112867 0.38268343236508984 -2.2628522245754005e-16
vn 1 6.123233995736766e-17 0
vn 0.8090169943749475 6.123233995736766e-17 0.5877852522924731
vn 0.30901699437494745 6.123233995736766e-17 0.9510565162951535
vn -0.30901699437494734 6.123233995736766e-17 0.9510565162951536
vn -0.8090169943749473 6.123233995736766e-17 0.5877852522924732
vn -1 6.123233995736766e-17 1.2246467991473532e-16
vn -0.8090169943749475 6.123233995736766e-17 -0.587785252292473
vn -0.30901699437494756 6.123233995736766e-17 -0.9510565162951535
vn 0.30901699437494723 6.123233995736766e-17 -0.9510565162951536
vn 0.8090169943749473 6.123233995736766e-17 -0.5877852522924734
vn 1 6.123233995736766e-17 -2.4492935982947064e-16
vn 0.9238795325112867 -0.3826834323650898 0
vn 0.7474342425568128 -0.3826834323650898 0.5430427641049989
vn 0.28549447630116936 -0.3826834323650898 0.8786616496665794
vn -0.28549447630116925 -0.3826834323650898 0.8786616496665796
vn -0.7474342425568127 -0.3826834323650898 0.543042764104999
vn -0.9238795325112867 -0.3826834323650898 1.1314261122877003e-16
vn -0.7474342425568128 -0.3826834323650898 -0.5430427641049987
vn -0.2854944763011695 -0.3826834323650898 -0.8786616496665794
vn 0.28549447630116914 -0.3826834323650898 -0.8786616496665796
vn 0.7474342425568127 -0.3826834323650898 -0.543042764104999
vn 0.9238795325112867 -0.3826834323650898 -2.2628522245754005e-16
vn 0.7071067811865476 -0.7071067811865475 0
vn 0.5720614028176844 -0.7071067811865475 0.41562693777745346
vn 0.21850801222441057 -0.7071067811865475 0.6724985119639574
vn -0.2185080122244105 -0.7071067811865475 0.6724985119639574
vn -0.5720614028176843 -0.7071067811865475 0.4156269377774535
vn -0.7071067811865476 -0.7071067811865475 8.659560562354934e-17
vn -0.5720614028176844 -0.7071067811865475 -0.4156269377774534
vn -0.21850801222441066 -0.7071067811865475 -0.6724985119639574
vn 0.2185080122244104 -0.7071067811865475 -0.6724985119639574
vn 0.5720614028176843 -0.7071067811865475 -0.41562693777745363
vn 0.7071067811865476 -0.7071067811865475 -1.7319121124709868e-16
vn 0.3826834323650899 -0.9238795325112866 0
vn 0.3095974002490935 -0.9238795325112866 0.22493567784086393
vn 0.11825568406654857 -0.9238795325112866 0.3639535720290144
vn -0.11825568406654853 -0.9238795325112866 0.36395357202901446
vn -0.3095974002490935 -0.9238795325112866 0.224935677840864
vn -0.3826834323650899 -0.9238795325112866 4.6865204053263e-17
vn -0.3095974002490935 -0.9238795325112866 -0.2249356778408639
vn -0.11825568406654861 -0.9238795325112866 -0.3639535720290144
vn 0.11825568406654849 -0.9238795325112866 -0.36395357202901446
vn 0.3095974002490935 -0.9238795325112866 -0.22493567784086402
vn 0.3826834323650899 -0.9238795325112866 -9.3730408106526e-17
vn 1.2246467991473532e-16 -1 0
vn 9.907600726170916e-17 -1 7.198293278059966e-17
vn 3.7843667304341506e-17 -1 1.1647083184890923e-16
vn -3.7843667304341493e-17 -1 1.1647083184890926e-16
vn -9.907600726170915e-17 -1 7.198293278059968e-17
vn -1.2246467991473532e-16 -1 1.4997597826618576e-32
vn -9.907600726170916e-17 -1 -7.198293278059965e-17
vn -3.784366730434152e-17 -1 -1.1647083184890923e-16
vn 3.7843667304341475e-17 -1 -1.1647083184890926e-16
vn 9.907600726170915e-17 -1 -7.19829327805997e-17
vn 1.2246467991473532e-16 -1 -2.999519565323715e-32
vn -0.5773502691896258 -0.5773502691896258 -0.5773502691896258
vn -0.5773502691896258 -0.5773502691896258 0.5773502691896258
vn -0.5773502691896258 0.5773502691896258 -0.5773502691896258
vn -0.5773502691896258 0.5773502691896258 0.5773502691896258
vn 0.5773502691896258 -0.5773502691896258 -0.5773502691896258
vn 0.5773502691896258 -0.5773502691896258 0.5773502691896258
vn 0.5773502691896258 0.5773502691896258 -0.5773502691896258
vn 0.5773502691896258 0.5773502691896258 0.5773502691896258
vn 0 -0.35682208977308993 -0.9341723589627158
vn 0 -0.35682208977308993 0.9341723589627158
vn 0 0.35682208977308993 -0.9341723589627158
vn 0 0.35682208977308993 0.9341723589627158
vn -0.35682208977308993 -0.9341723589627158 0
vn -0.35682208977308993 0.9341723589627158 0
vn 0.35682208977308993 -0.9341723589627158 0
vn 0.35682208977308993 0.9341723589627158 0
vn -0.9341723589627158 0 -0.35682208977308993
vn -0.9341723589627158 0 0.35682208977308993
vn 0.9341723589627158 0 -0.35682208977308993
vn 0.9341723589627158 0 0.35682208977308993
vn -0.5773502691896258 -0.5773502691896258 -0.5773502691896258
vn -0.5773502691896258 -0.5773502691896258 0.5773502691896258
vn -0.5773502691896258 0.5773502691896258 -0.5773502691896258
vn -0.5773502691896258 0.5773502691896258 0.5773502691896258
vn 0.5773502691896258 -0.5773502691896258 -0.5773502691896258
vn 0.5773502691896258 -0.5773502691896258 0.5773502691896258
vn 0.5773502691896258 0.5773502691896258 -0.5773502691896258
vn 0.5773502691896258 0.5773502691896258 0.5773502691896258
vn 0 -0.35682208977309 -0.9341723589627159
vn 0 -0.35682208977309 0.9341723589627159
vn 0 0.35682208977309 -0.9341723589627159
vn 0 0.35682208977309 0.9341723589627159
vn -0.35682208977309 -0.9341723589627159 0
vn -0.35682208977309 0.9341723589627159 0
vn 0.35682208977309 -0.9341723589627159 0
vn 0.35682208977309 0.9341723589627159 0
vn -0.9341723589627159 0 -0.35682208977309
vn -0.9341723589627159 0 0.35682208977309
vn 0.9341723589627159 0 -0.35682208977309
vn 0.9341723589627159 0 0.35682208977309
f 1/1/1 2/2/2 18/18/18
f 1/1/1 18/18/18 17/17/17
f 33/33/33 2/2/2 1/1/1
f 34/34/34 17/17/17 18/18/18
f 2/2/2 3/3/3 19/19/19
f 2/2/2 19/19/19 18/18/18
f 33/33/33 3/3/3 2/2/2
f 34/34/34 18/18/18 19/19/19
f 3/3/3 4/4/4 20/20/20
f 3/3/3 20/20/20 19/19/19
f 33/33/33 4/4/4 3/3/3
f 34/34/34 19/19/19 20/20/20
f 4/4/4 5/5/5 21/21/21
f 4/4/4 21/21/21 20/20/20
f 33/33/33 5/5/5 4/4/4
f 34/34/34 20/20/20 21/21/21
f 5/5/5 6/6/6 22/22/22
f 5/5/5 22/22/22 21/21/21
f 33/33/33 6/6/6 5/5/5
f 34/34/34 21/21/21 22/22/22
f 6/6/6 7/7/7 23/23/23
f 6/6/6 23/23/23 22/22/22
f 33/33/33 7/7/7 6/6/6
f 34/34/34 22/22/22 23/23/23
f 7/7/7 8/8/8 24/24/24
f 7/7/7 24/24/24 23/23/23
f 33/33/33 8/8/8 7/7/7
f 34/34/34 23/23/23 24/24/24
f 8/8/8 9/9/9 25/25/25
f 8/8/8 25/25/25 24/24/24
f 33/33/33 9/9/9 8/8/8
f 34/34/34 24/24/24 25/25/25
f 9/9/9 10/10/10 26/26/26
f 9/9/9 26/26/26 25/25/25
f 33/33/33 10/10/10 9/9/9
f 34/34/34 25/25/25 26/26/26
f 10/10/10 11/11/11 27/27/27
f 10/10/10 27/27/27 26/26/26
f 33/33/33 11/11/11 10/10/10
f 34/34/34 26/26/26 27/27/27
f 11/11/11 12/12/12 28/28/28
f 11/11/11 28/28/28 27/27/27
f 33/33/33 12/12/12 11/11/11
f 34/34/34 27/27/27 28/28/28
f 12/12/12 13/13/13 29/29/29
f 12/12/12 29/29/29 28/28/28
f 33/33/33 13/13/13 12/12/12
f 34/34/34 28/28/28 29/29/29
f 13/13/13 14/14/14 30/30/30
f 13/13/13 30/30/30 29/29/29
f 33/33/33 14/14/14 13/13/13
f 34/34/34 29/29/29 30/30/30
f 14/14/14 15/15/15 31/31/31
f 14/14/14 31/31/31 30/30/30
f 33/33/33 15/15/15 14/14/14
f 34/34/34 30/30/30 31/31/31
f 15/15/15 16/16/16 32/32/32
f 15/15/15 32/32/32 31/31/31
f 33/33/33 16/16/16 15/15/15
f 34/34/34 31/31/31 32/32/32
f 16/16/16 1/1/1 17/17/17
f 16/16/16 17/17/17 32/32/32
f 33/33/33 1/1/1 16/16/16
f 34/34/34 32/32/32 17/17/17
f 35/35/35 36/36/36 52/52/52
f 35/35/35 52/52/52 51/51/51
f 67/67/67 36/36/36 35/35/35
f 68/68/68 51/51/51 52/52/52
f 36/36/36 37/37/37 53/53/53
f 36/36/36 53/53/53 52/52/52
f 67/67/67 37/37/37 36/36/36
f 68/68/68 52/52/52 53/53/53
f 37/37/37 38/38/38 54/54/54
f 37/37/37 54/54/54 53/53/53
f 67/67/67 38/38/38 37/37/37
f 68/68/68 53/53/53 54/54/54
f 38/38/38 39/39/39 55/55/55
f 38/38/38 55/55/55 54/54/54
f 67/67/67 39/39/39 38/38/38
f 68/68/68 54/54/54 55/55/55
f 39/39/39 40/40/40 56/56/56
f 39/39/39 56/56/56 55/55/55
f 67/67/67 40/40/40 39/39/39
f 68/68/68 55/55/55 56/56/56
f 40/40/40 41/41/41 57/57/57
f 40/40/40 57/57/57 56/56/56
f 67/67/67 41/41/41 40/40/40
f 68/68/68 56/56/56 57/57/57
f 41/41/41 42/42/42 58/58/58
f 41/41/41 58/58/58 57/57/57
f 67/67/67 42/42/42 41/41/41
f 68/68/68 57/57/57 58/58/58
f 42/42/42 43/43/43 59/59/59
f 42/42/42 59/59/59 58/58/58
f 67/67/67 43/43/43 42/42/42
f 68/68/68 58/58/58 59/59/59
f 43/43/43 44/44/44 60/60/60
f 43/43/43 60/60/60 59/59/59
f 67/67/67 44/44/44 43/43/43
f 68/68/68 59/59/59 60/60/60
f 44/44/44 45/45/45 61/61/61
f 44/44/44 61/61/61 60/60/60
f 67/67/67 45/45/45 44/44/44
f 68/68/68 60/60/60 61/61/61
f 45/45/45 46/46/46 62/62/62
f 45/45/45 62/62/62 61/61/61
f 67/67/67 46/46/46 45/45/45
f 68/68/68 61/61/61 62/62/62
f 46/46/46 47/47/47 63/63/63
f 46/46/46 63/63/63 62/62/62
f 67/67/67 47/47/47 46/46/46
f 68/68/68 62/62/62 63/63/63
f 47/47/47 48/48/48 64/64/64
f 47/47/47 64/64/64 63/63/63
f 67/67/67 48/48/48 47/47/47
f 68/68/68 63/63/63 64/64/64
f 48/48/48 49/49/49 65/65/65
f 48/48/48 65/65/65 64/64/64
f 67/67/67 49/49/49 48/48/48
f 68/68/68 64/64/64 65/65/65
f 49/49/49 50/50/50 66/66/66
f 49/49/49 66/66/66 65/65/65
f 67/67/67 50/50/50 49/49/49
f 68/68/68 65/65/65 66/66/66
f 50/50/50 35/35/35 51/51/51
f 50/50/50 51/51/51 66/66/66
f 67/67/67 35/35/35 50/50/50
f 68/68/68 66/66/66 51/51/51
f 69/69/69 80/80/80 81/81/81
f 69/69/69 81/81/81 70/70/70
f 70/70/70 81/81/81 82/82/82
f 70/70/70 82/82/82 71/71/71
f 71/71/71 82/82/82 83/83/83
f 71/71/71 83/83/83 72/72/72
f 72/72/72 83/83/83 84/84/84
f 72/72/72 84/84/84 73/73/73
f 73/73/73 84/84/84 85/85/85
f 73/73/73 85/85/85 74/74/74
f 74/74/74 85/85/85 86/86/86
f 74/74/74 86/86/86 75/75/75
f 75/75/75 86/86/86 87/87/87
f 75/75/75 87/87/87 76/76/76
f 76/76/76 87/87/87 88/88/88
f 76/76/76 88/88/88 77/77/77
f 77/77/77 88/88/88 89/89/89
f 77/77/77 89/89/89 78/78/78
f 78/78/78 89/89/89 90/90/90
f 78/78/78 90/90/90 79/79/79
f 80/80/80 91/91/91 92/92/92
f 80/80/80 92/92/92 81/81/81
f 81/81/81 92/92/92 93/93/93
f 81/81/81 93/93/93 82/82/82
f 82/82/82 93/93/93 94/94/94
f 82/82/82 94/94/94 83/83/83
f 83/83/83 94/94/94 95/95/95
f 83/83/83 95/95/95 84/84/84
f 84/84/84 95/95/95 96/96/96
f 84/84/84 96/96/96 85/85/85
f 85/85/85 96/96/96 97/97/97
f 85/85/85 97/97/97 86/86/86
f 86/86/86 97/97/97 98/98/98
f 86/86/86 98/98/98 87/87/87
f 87/87/87 98/98/98 99/99/99
f 87/87/87 99/99/99 88/88/88
f 88/88/88 99/99/99 100/100/100
f 88/88/88 100/100/100 89/89/89
f 89/89/89 100/100/100 101/101/101
f 89/89/89 101/101/101 90/90/90
f 91/91/91 102/102/102 103/103/103
f 91/91/91 103/103/103 92/92/92
f 92/92/92 103/103/103 104/104/104
f 92/92/92 104/104/104 93/93/93
f 93/93/93 104/104/104 105/105/105
f 93/93/93 105/105/105 94/94/94
f 94/94/94 105/105/105 106/106/106
f 94/94/94 106/106/106 95/95/95
f 95/95/95 106/106/106 107/107/107
f 95/95/95 107/107/107 96/96/96
f 96/96/96 107/107/107 108/108/108
f 96/96/96 108/108/108 97/97/97
f 97/97/97 108/108/108 109/109/109
f 97/97/97 109/109/109 98/98/98
f 98/98/98 109/109/109 110/110/110
f 98/98/98 110/110/110 99/99/99
f 99/99/99 110/110/110 111/111/111
f 99/99/99 111/111/111 100/100/100
f 100/100/100 111/111/111 112/112/112
f 100/100/100 112/112/112 101/101/101
f 102/102/102 113/113/113 114/114/114
f 102/102/102 114/114/114 103/103/103
f 103/103/103 114/114/114 115/115/115
f 103/103/103 115/115/115 104/104/104
f 104/104/104 115/115/115 116/116/116
f 104/104/104 116/116/116 105/105/105
f 105/105/105 116/116/116 117/117/117
f 105/105/105 117/117/117 106/106/106
f 106/106/106 117/117/117 118/118/118
f 106/106/106 118/118/118 107/107/107
f 107/107/107 118/118/118 119/119/119
f 107/107/107 119/119/119 108/108/108
f 108/108/108 119/119/119 120/120/120
f 108/108/108 120/120/120 109/109/109
f 109/109/109 120/120/120 121/121/121
f 109/109/109 121/121/121 110/110/110
f 110/110/110 121/121/121 122/122/122
f 110/110/110 122/122/122 111/111/111
f 111/111/111 122/122/122 123/123/123
f 111/111/111 123/123/123 112/112/112
f 113/113/113 124/124/124 125/125/125
f 113/113/113 125/125/125 114/114/114
f 114/114/114 125/125/125 126/126/126
f 114/114/114 126/126/126 115/115/115
f 115/115/115 126/126/126 127/127/127
f 115/115/115 127/127/127 116/116/116
f 116/116/116 127/127/127 128/128/128
f 116/116/116 128/128/128 117/117/117
f 117/117/117 128/128/128 129/129/129
f 117/117/117 129/129/129 118/118/118
f 118/118/118 129/129/129 130/130/130
f 118/118/118 130/130/130 119/119/119
f 119/119/119 130/130/130 131/131/131
f 119/119/119 131/131/131 120/120/120
f 120/120/120 131/131/131 132/132/132
f 120/120/120 132/132/132 121/121/121
f 121/121/121 132/132/132 133/133/133
f 121/121/121 133/133/133 122/122/122
f 122/122/122 133/133/133 134/134/134
f 122/122/122 134/134/134 123/123/123
f 124/124/124 135/135/135 136/136/136
f 124/124/124 136/136/136 125/125/125
f 125/125/125 136/136/136 137/137/137
f 125/125/125 137/137/137 126/126/126
f 126/126/126 137/137/137 138/138/138
f 126/126/126 138/138/138 127/127/127
f 127/127/127 138/138/138 139/139/139
f 127/127/127 139/139/139 128/128/128
f 128/128/128 139/139/139 140/140/140
f 128/128/128 140/140/140 129/129/129
f 129/129/129 140/140/140 141/141/141
f 129/129/129 141/141/141 130/130/130
f 130/130/130 141/141/141 142/142/142
f 130/130/130 142/142/142 131/131/131
f 131/131/131 142/142/142 143/143/143
f 131/131/131 143/143/143 132/132/132
f 132/132/132 143/143/143 144/144/144
f 132/132/132 144/144/144 133/133/133
f 133/133/133 144/144/144 145/145/145
f 133/133/133 145/145/145 134/134/134
f 135/135/135 146/146/146 147/147/147
f 135/135/135 147/147/147 136/136/136
f 136/136/136 147/147/147 148/148/148
f 136/136/136 148/148/148 137/137/137
f 137/137/137 148/148/148 149/149/149
f 137/137/137 149/149/149 138/138/138
f 138/138/138 149/149/149 150/150/150
f 138/138/138 150/150/150 139/139/139
f 139/139/139 150/150/150 151/151/151
f 139/139/139 151/151/151 140/140/140
f 140/140/140 151/151/151 152/152/152
f 140/140/140 152/152/152 141/141/141
f 141/141/141 152/152/152 153/153/153
f 141/141/141 153/153/153 142/142/142
f 142/142/142 153/153/153 154/154/154
f 142/142/142 154/154/154 143/143/143
f 143/143/143 154/154/154 155/155/155
f 143/143/143 155/155/155 144/144/144
f 144/144/144 155/155/155 156/156/156
f 144/144/144 156/156/156 145/145/145
f 146/146/146 157/157/157 158/158/158
f 146/146/146 158/158/158 147/147/147
f 147/147/147 158/158/158 159/159/159
f 147/147/147 159/159/159 148/148/148
f 148/148/148 159/159/159 160/160/160
f 148/148/148 160/160/160 149/149/149
f 149/149/149 160/160/160 161/161/161
f 149/149/149 161/161/161 150/150/150
f 150/150/150 161/161/161 162/162/162
f 150/150/150 162/162/162 151/151/151
f 151/151/151 162/162/162 163/163/163
f 151/151/151 163/163/163 152/152/152
f 152/152/152 163/163/163 164/164/164
f 152/152/152 164/164/164 153/153/153
f 153/153/153 164/164/164 165/165/165
f 153/153/153 165/165/165 154/154/154
f 154/154/154 165/165/165 166/166/166
f 154/154/154 166/166/166 155/155/155
f 155/155/155 166/166/166 167/167/167
f 155/155/155 167/167/167 156/156/156
f 168/168/168 179/179/179 180/180/180
f 168/168/168 180/180/180 169/169/169
f 169/169/169 180/180/180 181/181/181
f 169/169/169 181/181/181 170/170/170
f 170/170/170 181/181/181 182/182/182
f 170/170/170 182/182/182 171/171/171
f 171/171/171 182/182/182 183/183/183
f 171/171/171 183/183/183 172/172/172
f 172/172/172 183/183/183 184/184/184
f 172/172/172 184/184/184 173/173/173
f 173/173/173 184/184/184 185/185/185
f 173/173/173 185/185/185 174/174/174
f 174/174/174 185/185/185 186/186/186
f 174/174/174 186/186/186 175/175/175
f 175/175/175 186/186/186 187/187/187
f 175/175/175 187/187/187 176/176/176
f 176/176/176 187/187/187 188/188/188
f 176/176/176 188/188/188 177/177/177
f 177/177/177 188/188/188 189/189/189
f 177/177/177 189/189/189 178/178/178
f 179/179/179 190/190/190 191/191/191
f 179/179/179 191/191/191 180/180/180
f 180/180/180 191/191/191 192/192/192
f 180/180/180 192/192/192 181/181/181
f 181/181/181 192/192/192 193/193/193
f 181/181/181 193/193/193 182/182/182
f 182/182/182 193/193/193 194/194/194
f 182/182/182 194/194/194 183/183/183
f 183/183/183 194/194/194 195/195/195
f 183/183/183 195/195/195 184/184/184
f 184/184/184 195/195/195 196/196/196
f 184/184/184 196/196/196 185/185/185
f 185/185/185 196/196/196 197/197/197
f 185/185/185 197/197/197 186/186/186
f 186/186/186 197/197/197 198/198/198
f 186/186/186 198/198/198 187/187/187
f 187/187/187 198/198/198 199/199/199
f 187/187/187 199/199/199 188/188/188
f 188/188/188 199/199/199 200/200/200
f 188/188/188 200/200/200 189/189/189
f 190/190/190 201/201/201 202/202/202
f 190/190/190 202/202/202 191/191/191
f 191/191/191 202/202/202 203/203/203
f 191/191/191 203/203/203 192/192/192
f 192/192/192 203/203/203 204/204/204
f 192/192/192 204/204/204 193/193/193
f 193/193/193 204/204/204 205/205/205
f 193/193/193 205/205/205 194/194/194
f 194/194/194 205/205/205 206/206/206
f 194/194/194 206/206/206 195/195/195
f 195/195/195 206/206/206 207/207/207
f 195/195/195 207/207/207 196/196/196
f 196/196/196 207/207/207 208/208/208
f 196/196/196 208/208/208 197/197/197
f 197/197/197 208/208/208 209/209/209
f 197/197/197 209/209/209 198/198/198
f 198/198/198 209/209/209 210/210/210
f 198/198/198 210/210/210 199/199/199
f 199/199/199 210/210/210 211/211/211
f 199/199/199 211/211/211 200/200/200
f 201/201/201 212/212/212 213/213/213
f 201/201/201 213/213/213 202/202/202
f 202/202/202 213/213/213 214/214/214
f 202/202/202 214/214/214 203/203/203
f 203/203/203 214/214/214 215/215/215
f 203/203/203 215/215/215 204/204/204
f 204/204/204 215/215/215 216/216/216
f 204/204/204 216/216/216 205/205/205
f 205/205/205 216/216/216 217/217/217
f 205/205/205 217/217/217 206/206/206
f 206/206/206 217/217/217 218/218/218
f 206/206/206 218/218/218 207/207/207
f 207/207/207 218/218/218 219/219/219
f 207/207/207 219/219/219 208/208/208
f 208/208/208 219/219/219 220/220/220
f 208/208/208 220/220/220 209/209/209
f 209/209/209 220/220/220 221/221/221
f 209/209/209 221/221/221 210/210/210
f 210/210/210 221/221/221 222/222/222
f 210/210/210 222/222/222 211/211/211
f 212/212/212 223/223/223 224/224/224
f 212/212/212 224/224/224 213/213/213
f 213/213/213 224/224/224 225/225/225
f 213/213/213 225/225/225 214/214/214
f 214/214/214 225/225/225 226/226/226
f 214/214/214 226/226/226 215/215/215
f 215/215/215 226/226/226 227/227/227
f 215/215/215 227/227/227 216/216/216
f 216/216/216 227/227/227 228/228/228
f 216/216/216 228/228/228 217/217/217
f 217/217/217 228/228/228 229/229/229
f 217/217/217 229/229/229 218/218/218
f 218/218/218 229/229/229 230/230/230
f 218/218/218 230/230/230 219/219/219
f 219/219/219 230/230/230 231/231/231
f 219/219/219 231/231/231 220/220/220
f 220/220/220 231/231/231 232/232/232
f 220/220/220 232/232/232 221/221/221
f 221/221/221 232/232/232 233/233/233
f 221/221/221 233/233/233 222/222/222
f 223/223/223 234/234/234 235/235/235
f 223/223/223 235/235/235 224/224/224
f 224/224/224 235/235/235 236/236/236
f 224/224/224 236/236/236 225/225/225
f 225/225/225 236/236/236 237/237/237
f 225/225/225 237/237/237 226/226/226
f 226/226/226 237/237/237 238/238/238
f 226/226/226 238/238/238 227/227/227
f 227/227/227 238/238/238 239/239/239
f 227/227/227 239/239/239 228/228/228
f 228/228/228 239/239/239 240/240/240
f 228/228/228 240/240/240 229/229/229
f 229/229/229 240/240/240 241/241/241
f 229/229/229 241/241/241 230/230/230
f 230/230/230 241/241/241 242/242/242
f 230/230/230 242/242/242 231/231/231
f 231/231/231 242/242/242 243/243/243
f 231/231/231 243/243/243 232/232/232
f 232/232/232 243/243/243 244/244/244
f 232/232/232 244/244/244 233/233/233
f 234/234/234 245/245/245 246/246/246
f 234/234/234 246/246/246 235/235/235
f 235/235/235 246/246/246 247/247/247
f 235/235/235 247/247/247 236/236/236
f 236/236/236 247/247/247 248/248/248
f 236/236/236 248/248/248 237/237/237
f 237/237/237 248/248/248 249/249/249
f 237/237/237 249/249/249 238/238/238
f 238/238/238 249/249/249 250/250/250
f 238/238/238 250/250/250 239/239/239
f 239/239/239 250/250/250 251/251/251
f 239/239/239 251/251/251 240/240/240
f 240/240/240 251/251/251 252/252/252
f 240/240/240 252/252/252 241/241/241
f 241/241/241 252/252/252 253/253/253
f 241/241/241 253/253/253 242/242/242
f 242/242/242 253/253/253 254/254/254
f 242/242/242 254/254/254 243/243/243
f 243/243/243 254/254/254 255/255/255
f 243/243/243 255/255/255 244/244/244
f 245/245/245 256/256/256 257/257/257
f 245/245/245 257/257/257 246/246/246
f 246/246/246 257/257/257 258/258/258
f 246/246/246 258/258/258 247/247/247
f 247/247/247 258/258/258 259/259/259
f 247/247/247 259/259/259 248/248/248
f 248/248/248 259/259/259 260/260/260
f 248/248/248 260/260/260 249/249/249
f 249/249/249 260/260/260 261/261/261
f 249/249/249 261/261/261 250/250/250
f 250/250/250 261/261/261 262/262/262
f 250/250/250 262/262/262 251/251/251
f 251/251/251 262/262/262 263/263/263
f 251/251/251 263/263/263 252/252/252
f 252/252/252 263/263/263 264/264/264
f 252/252/252 264/264/264 253/253/253
f 253/253/253 264/264/264 265/265/265
f 253/253/253 265/265/265 254/254/254
f 254/254/254 265/265/265 266/266/266
f 254/254/254 266/266/266 255/255/255
f 267/267/267 278/278/278 279/279/279
f 267/267/267 279/279/279 268/268/268
f 268/268/268 279/279/279 280/280/280
f 268/268/268 280/280/280 269/269/269
f 269/269/269 280/280/280 281/281/281
f 269/269/269 281/281/281 270/270/270
f 270/270/270 281/281/281 282/282/282
f 270/270/270 282/282/282 271/271/271
f 271/271/271 282/282/282 283/283/283
f 271/271/271 283/283/283 272/272/272
f 272/272/272 283/283/283 284/284/284
f 272/272/272 284/284/284 273/273/273
f 273/273/273 284/284/284 285/285/285
f 273/273/273 285/285/285 274/274/274
f 274/274/274 285/285/285 286/286/286
f 274/274/274 286/286/286 275/275/275
f 275/275/275 286/286/286 287/287/287
f 275/275/275 287/287/287 276/276/276
f 276/276/276 287/287/287 288/288/288
f 276/276/276 288/288/288 277/277/277
f 278/278/278 289/289/289 290/290/290
f 278/278/278 290/290/290 279/279/279
f 279/279/279 290/290/290 291/291/291
f 279/279/279 291/291/291 280/280/280
f 280/280/280 291/291/291 292/292/292
f 280/280/280 292/292/292 281/281/281
f 281/281/281 292/292/292 293/293/293
f 281/281/281 293/293/293 282/282/282
f 282/282/282 293/293/293 294/294/294
f 282/282/282 294/294/294 283/283/283
f 283/283/283 294/294/294 295/295/295
f 283/283/283 295/295/295 284/284/284
f 284/284/284 295/295/295 296/296/296
f 284/284/284 296/296/296 285/285/285
f 285/285/285 296/296/296 297/297/297
f 285/285/285 297/297/297 286/286/286
f 286/286/286 297/297/297 298/298/298
f 286/286/286 298/298/298 287/287/287
f 287/287/287 298/298/298 299/299/299
f 287/287/287 299/299/299 288/288/288
f 289/289/289 300/300/300 301/301/301
f 289/289/289 301/301/301 290/290/290
f 290/290/290 301/301/301 302/302/302
f 290/290/290 302/302/302 291/291/291
f 291/291/291 302/302/302 303/303/303
f 291/291/291 303/303/303 292/292/292
f 292/292/292 303/303/303 304/304/304
f 292/292/292 304/304/304 293/293/293
f 293/293/293 304/304/304 305/305/305
f 293/293/293 305/305/305 294/294/294
f 294/294/294 305/305/305 306/306/306
f 294/294/294 306/306/306 295/295/295
f 295/295/295 306/306/306 307/307/307
f 295/295/295 307/307/307 296/296/296
f 296/296/296 307/307/307 308/308/308
f 296/296/296 308/308/308 297/297/297
f 297/297/297 308/308/308 309/309/309
f 297/297/297 309/309/309 298/298/298
f 298/298/298 309/309/309 310/310/310
f 298/298/298 310/310/310 299/299/299
f 300/300/300 311/311/311 312/312/312
f 300/300/300 312/312/312 301/301/301
f 301/301/301 312/312/312 313/313/313
f 301/301/301 313/313/313 302/302/302
f 302/302/302 313/313/313 314/314/314
f 302/302/302 314/314/314 303/303/303
f 303/303/303 314/314/314 315/315/315
f 303/303/303 315/315/315 304/304/304
f 304/304/304 315/315/315 316/316/316
f 304/304/304 316/316/316 305/305/305
f 305/305/305 316/316/316 317/317/317
f 305/305/305 317/317/317 306/306/306
f 306/306/306 317/317/317 318/318/318
f 306/306/306 318/318/318 307/307/307
f 307/307/307 318/318/318 319/319/319
f 307/307/307 319/319/319 308/308/308
f 308/308/308 319/319/319 320/320/320
f 308/308/308 320/320/320 309/309/309
f 309/309/309 320/320/320 321/321/321
f 309/309/309 321/321/321 310/310/310
f 311/311/311 322/322/322 323/323/323
f 311/311/311 323/323/323 312/312/312
f 312/312/312 323/323/323 324/324/324
f 312/312/312 324/324/324 313/313/313
f 313/313/313 324/324/324 325/325/325
f 313/313/313 325/325/325 314/314/314
f 314/314/314 325/325/325 326/326/326
f 314/314/314 326/326/326 315/315/315
f 315/315/315 326/326/326 327/327/327
f 315/315/315 327/327/327 316/316/316
f 316/316/316 327/327/327 328/328/328
f 316/316/316 328/328/328 317/317/317
f 317/317/317 328/328/328 329/329/329
f 317/317/317 329/329/329 318/318/318
f 318/318/318 329/329/329 330/330/330
f 318/318/318 330/330/330 319/319/319
f 319/319/319 330/330/330 331/331/331
f 319/319/319 331/331/331 320/320/320
f 320/320/320 331/331/331 332/332/332
f 320/320/320 332/332/332 321/321/321
f 322/322/322 333/333/333 334/334/334
f 322/322/322 334/334/334 323/323/323
f 323/323/323 334/334/334 335/335/335
f 323/323/323 335/335/335 324/324/324
f 324/324/324 335/335/335 336/336/336
f 324/324/324 336/336/336 325/325/325
f 325/325/325 336/336/336 337/337/337
f 325/325/325 337/337/337 326/326/326
f 326/326/326 337/337/337 338/338/338
f 326/326/326 338/338/338 327/327/327
f 327/327/327 338/338/338 339/339/339
f 327/327/327 339/339/339 328/328/328
f 328/328/328 339/339/339 340/340/340
f 328/328/328 340/340/340 329/329/329
f 329/329/329 340/340/340 341/341/341
f 329/329/329 341/341/341 330/330/330
f 330/330/330 341/341/341 342/342/342
f 330/330/330 342/342/342 331/331/331
f 331/331/331 342/342/342 343/343/343
f 331/331/331 343/343/343 332/332/332
f 333/333/333 344/344/344 345/345/345
f 333/333/333 345/345/345 334/334/334
f 334/334/334 345/345/345 346/346/346
f 334/334/334 346/346/346 335/335/335
f 335/335/335 346/346/346 347/347/347
f 335/335/335 347/347/347 336/336/336
f 336/336/336 347/347/347 348/348/348
f 336/336/336 348/348/348 337/337/337
f 337/337/337 348/348/348 349/349/349
f 337/337/337 349/349/349 338/338/338
f 338/338/338 349/349/349 350/350/350
f 338/338/338 350/350/350 339/339/339
f 339/339/339 350/350/350 351/351/351
f 339/339/339 351/351/351 340/340/340
f 340/340/340 351/351/351 352/352/352
f 340/340/340 352/352/352 341/341/341
f 341/341/341 352/352/352 353/353/353
f 341/341/341 353/353/353 342/342/342
f 342/342/342 353/353/353 354/354/354
f 342/342/342 354/354/354 343/343/343
f 344/344/344 355/355/355 356/356/356
f 344/344/344 356/356/356 345/345/345
f 345/345/345 356/356/356 357/357/357
f 345/345/345 357/357/357 346/346/346
f 346/346/346 357/357/357 358/358/358
f 346/346/346 358/358/358 347/347/347
f 347/347/347 358/358/358 359/359/359
f 347/347/347 359/359/359 348/348/348
f 348/348/348 359/359/359 360/360/360
f 348/348/348 360/360/360 349/349/349
f 349/349/349 360/360/360 361/361/361
f 349/349/349 361/361/361 350/350/350
f 350/350/350 361/361/361 362/362/362
f 350/350/350 362/362/362 351/351/351
f 351/351/351 362/362/362 363/363/363
f 351/351/351 363/363/363 352/352/352
f 352/352/352 363/363/363 364/364/364
f 352/352/352 364/364/364 353/353/353
f 353/353/353 364/364/364 365/365/365
f 353/353/353 365/365/365 354/354/354
f 366/366/366 374/374/374 370/370/370
f 366/366/366 370/370/370 380/380/380
f 366/366/366 380/380/380 378/378/378
f 366/366/366 382/382/382 368/368/368
f 366/366/366 368/368/368 376/376/376
f 366/366/366 376/376/376 374/374/374
f 366/366/366 378/378/378 367/367/367
f 366/366/366 367/367/367 383/383/383
f 366/366/366 383/383/383 382/382/382
f 374/374/374 376/376/376 372/372/372
f 374/374/374 372/372/372 384/384/384
f 374/374/374 384/384/384 370/370/370
f 368/368/368 379/379/379 369/369/369
f 368/368/368 369/369/369 377/377/377
f 368/368/368 377/377/377 376/376/376
f 368/368/368 382/382/382 383/383/383
f 368/368/368 383/383/383 369/369/369
f 368/368/368 369/369/369 379/379/379
f 370/370/370 384/384/384 385/385/385
f 370/370/370 385/385/385 371/371/371
f 370/370/370 371/371/371 380/380/380
f 372/372/372 381/381/381 373/373/373
f 372/372/372 373/373/373 385/385/385
f 372/372/372 385/385/385 384/384/384
f 372/372/372 376/376/376 377/377/377
f 372/372/372 377/377/377 373/373/373
f 372/372/372 373/373/373 381/381/381
f 367/367/367 375/375/375 371/371/371
f 367/367/367 371/371/371 380/380/380
f 367/367/367 380/380/380 378/378/378
f 367/367/367 383/383/383 369/369/369
f 367/367/367 369/369/369 377/377/377
f 367/367/367 377/377/377 375/375/375
f 371/371/371 385/385/385 373/373/373
f 371/371/371 373/373/373 381/381/381
f 371/371/371 381/381/381 375/375/375
f 386/386/386 394/394/394 390/390/390
f 386/386/386 390/390/390 400/400/400
f 386/386/386 400/400/400 398/398/398
f 386/386/386 402/402/402 388/388/388
f 386/386/386 388/388/388 396/396/396
f 386/386/386 396/396/396 394/394/394
f 386/386/386 398/398/398 387/387/387
f 386/386/386 387/387/387 403/403/403
f 386/386/386 403/403/403 402/402/402
f 394/394/394 396/396/396 392/392/392
f 394/394/394 392/392/392 404/404/404
f 394/394/394 404/404/404 390/390/390
f 388/388/388 399/399/399 389/389/389
f 388/388/388 389/389/389 397/397/397
f 388/388/388 397/397/397 396/396/396
f 388/388/388 402/402/402 403/403/403
f 388/388/388 403/403/403 389/389/389
f 388/388/388 389/389/389 399/399/399
f 390/390/390 404/404/404 405/405/405
f 390/390/390 405/405/405 391/391/391
f 390/390/390 391/391/391 400/400/400
f 392/392/392 401/401/401 393/393/393
f 392/392/392 393/393/393 405/405/405
f 392/392/392 405/405/405 404/404/404
f 392/392/392 396/396/396 397/397/397
f 392/392/392 397/397/397 393/393/393
f 392/392/392 393/393/393 401/401/401
f 387/387/387 395/395/395 391/391/391
f 387/387/387 391/391/391 400/400/400
f 387/387/387 400/400/400 398/398/398
f 387/387/387 403/403/403 389/389/389
f 387/387/387 389/389/389 397/397/397
f 387/387/387 397/397/397 395/395/395
f 391/391/391 405/405/405 393/393/393
f 391/391/391 393/393/393 401/401/401
f 391/391/391 401/401/401 395/395/395