# 3D Model: vehicle/heavy/CSPV-02_01 (v6 Gemini)
# Style: vehicle | Symmetry: symmetric
# Dimensions: 3.24 x 3.025 x 6 m
# Triangles: 952 | Vertices: 588
v -1.2 0 -3
v 1.2 0 -3
v 1.2 0.8 -3
v -1.2 0.8 -3
v -1.2 0 3
v 1.2 0 3
v 1.2 0.8 3
v -1.2 0.8 3
v -1.15 0.9 0.1
v 1.15 0.9 0.1
v 1.15 2.7 0.1
v -1.15 2.7 0.1
v -1.15 0.9 2.3
v 1.15 0.9 2.3
v 1.15 2.7 2.3
v -1.15 2.7 2.3
v -1.15 2.65 0.1
v 1.15 2.65 0.1
v 1.15 2.85 0.1
v -1.15 2.85 0.1
v -1.15 2.65 2.3
v 1.15 2.65 2.3
v 1.15 2.85 2.3
v -1.15 2.85 2.3
v -1 1.5672 2.3587
v 1 1.5672 2.3587
v 1 2.618 2.0336
v -1 2.618 2.0336
v -1 1.582 2.4064
v 1 1.582 2.4064
v 1 2.6328 2.0813
v -1 2.6328 2.0813
v -0.9 0.9 2.295
v 0.9 0.9 2.295
v 0.9 1.7 2.295
v -0.9 1.7 2.295
v -0.9 0.9 2.345
v 0.9 0.9 2.345
v 0.9 1.7 2.345
v -0.9 1.7 2.345
v -1.17 0.4 2.1
v 1.17 0.4 2.1
v 1.17 1 2.1
v -1.17 1 2.1
v -1.17 0.4 2.5
v 1.17 0.4 2.5
v 1.17 1 2.5
v -1.17 1 2.5
v -1.1 0.65 2.305
v -0.7 0.65 2.305
v -0.7 0.85 2.305
v -1.1 0.85 2.305
v -1.1 0.65 2.355
v -0.7 0.65 2.355
v -0.7 0.85 2.355
v -1.1 0.85 2.355
v 0.7 0.65 2.305
v 1.1 0.65 2.305
v 1.1 0.85 2.305
v 0.7 0.85 2.305
v 0.7 0.65 2.355
v 1.1 0.65 2.355
v 1.1 0.85 2.355
v 0.7 0.85 2.355
v -0.125 1.325 2.325
v 0.125 1.325 2.325
v 0.125 1.575 2.325
v -0.125 1.575 2.325
v -0.125 1.325 2.375
v 0.125 1.325 2.375
v 0.125 1.575 2.375
v -0.125 1.575 2.375
v -1.62 1.55 1.4246
v -1.62 1.55 1.3746
v -1.62 2.45 1.3746
v -1.62 2.45 1.4246
v -0.72 1.55 1.4254
v -0.72 1.55 1.3754
v -0.72 2.45 1.3754
v -0.72 2.45 1.4254
v 0.72 1.55 1.4246
v 0.72 1.55 1.3746
v 0.72 2.45 1.3746
v 0.72 2.45 1.4246
v 1.62 1.55 1.4254
v 1.62 1.55 1.3754
v 1.62 2.45 1.3754
v 1.62 2.45 1.4254
v -1.4 1.95 1.85
v -1.2 1.95 1.85
v -1.2 2.45 1.85
v -1.4 2.45 1.85
v -1.4 1.95 2.15
v -1.2 1.95 2.15
v -1.2 2.45 2.15
v -1.4 2.45 2.15
v 1.2 1.95 1.85
v 1.4 1.95 1.85
v 1.4 2.45 1.85
v 1.2 2.45 1.85
v 1.2 1.95 2.15
v 1.4 1.95 2.15
v 1.4 2.45 2.15
v 1.2 2.45 2.15
v -1.15 0.8 -2.7
v 1.15 0.8 -2.7
v 1.15 2.8 -2.7
v -1.15 2.8 -2.7
v -1.15 0.8 0.3
v 1.15 0.8 0.3
v 1.15 2.8 0.3
v -1.15 2.8 0.3
v -1 1 -2.745
v -0.1 1 -2.745
v -0.1 2.4 -2.745
v -1 2.4 -2.745
v -1 1 -2.695
v -0.1 1 -2.695
v -0.1 2.4 -2.695
v -1 2.4 -2.695
v 0.1 1 -2.745
v 1 1 -2.745
v 1 2.4 -2.745
v 0.1 2.4 -2.745
v 0.1 1 -2.695
v 1 1 -2.695
v 1 2.4 -2.695
v 0.1 2.4 -2.695
v -0.8 2.8 1.3
v 0.8 2.8 1.3
v 0.8 3 1.3
v -0.8 3 1.3
v -0.8 2.8 1.7
v 0.8 2.8 1.7
v 0.8 3 1.7
v -0.8 3 1.7
v -0.6 2.875 -2.05
v 0.6 2.875 -2.05
v 0.6 3.025 -2.05
v -0.6 3.025 -2.05
v -0.6 2.875 0.45
v 0.6 2.875 0.45
v 0.6 3.025 0.45
v -0.6 3.025 0.45
v -0.9996 0.9998 1.6
v -0.9996 0.9618 1.7913
v -0.9997 0.8534 1.9536
v -0.9998 0.6912 2.0619
v -1 0.4998 2.1
v -1.0002 0.3085 2.0619
v -1.0003 0.1463 1.9536
v -1.0004 0.0379 1.7913
v -1.0004 -0.0002 1.6
v -1.0004 0.0379 1.4087
v -1.0003 0.1463 1.2464
v -1.0002 0.3085 1.1381
v -1 0.4998 1.1
v -0.9998 0.6912 1.1381
v -0.9997 0.8534 1.2464
v -0.9996 0.9618 1.4087
v -1.3996 1.0002 1.6
v -1.3996 0.9621 1.7913
v -1.3997 0.8537 1.9536
v -1.3998 0.6915 2.0619
v -1.4 0.5002 2.1
v -1.4002 0.3088 2.0619
v -1.4003 0.1466 1.9536
v -1.4004 0.0382 1.7913
v -1.4004 0.0002 1.6
v -1.4004 0.0382 1.4087
v -1.4003 0.1466 1.2464
v -1.4002 0.3088 1.1381
v -1.4 0.5002 1.1
v -1.3998 0.6915 1.1381
v -1.3997 0.8537 1.2464
v -1.3996 0.9621 1.4087
v -1 0.4998 1.6
v -1.4 0.5002 1.6
v 1.4004 0.9998 1.6
v 1.4004 0.9618 1.7913
v 1.4003 0.8534 1.9536
v 1.4002 0.6912 2.0619
v 1.4 0.4998 2.1
v 1.3998 0.3085 2.0619
v 1.3997 0.1463 1.9536
v 1.3996 0.0379 1.7913
v 1.3996 -0.0002 1.6
v 1.3996 0.0379 1.4087
v 1.3997 0.1463 1.2464
v 1.3998 0.3085 1.1381
v 1.4 0.4998 1.1
v 1.4002 0.6912 1.1381
v 1.4003 0.8534 1.2464
v 1.4004 0.9618 1.4087
v 1.0004 1.0002 1.6
v 1.0004 0.9621 1.7913
v 1.0003 0.8537 1.9536
v 1.0002 0.6915 2.0619
v 1 0.5002 2.1
v 0.9998 0.3088 2.0619
v 0.9997 0.1466 1.9536
v 0.9996 0.0382 1.7913
v 0.9996 0.0002 1.6
v 0.9996 0.0382 1.4087
v 0.9997 0.1466 1.2464
v 0.9998 0.3088 1.1381
v 1 0.5002 1.1
v 1.0002 0.6915 1.1381
v 1.0003 0.8537 1.2464
v 1.0004 0.9621 1.4087
v 1.4 0.4998 1.6
v 1 0.5002 1.6
v -0.9996 0.9998 -1.8
v -0.9996 0.9618 -1.6087
v -0.9997 0.8534 -1.4464
v -0.9998 0.6912 -1.3381
v -1 0.4998 -1.3
v -1.0002 0.3085 -1.3381
v -1.0003 0.1463 -1.4464
v -1.0004 0.0379 -1.6087
v -1.0004 -0.0002 -1.8
v -1.0004 0.0379 -1.9913
v -1.0003 0.1463 -2.1536
v -1.0002 0.3085 -2.2619
v -1 0.4998 -2.3
v -0.9998 0.6912 -2.2619
v -0.9997 0.8534 -2.1536
v -0.9996 0.9618 -1.9913
v -1.3996 1.0002 -1.8
v -1.3996 0.9621 -1.6087
v -1.3997 0.8537 -1.4464
v -1.3998 0.6915 -1.3381
v -1.4 0.5002 -1.3
v -1.4002 0.3088 -1.3381
v -1.4003 0.1466 -1.4464
v -1.4004 0.0382 -1.6087
v -1.4004 0.0002 -1.8
v -1.4004 0.0382 -1.9913
v -1.4003 0.1466 -2.1536
v -1.4002 0.3088 -2.2619
v -1.4 0.5002 -2.3
v -1.3998 0.6915 -2.2619
v -1.3997 0.8537 -2.1536
v -1.3996 0.9621 -1.9913
v -1 0.4998 -1.8
v -1.4 0.5002 -1.8
v 1.4004 0.9998 -1.8
v 1.4004 0.9618 -1.6087
v 1.4003 0.8534 -1.4464
v 1.4002 0.6912 -1.3381
v 1.4 0.4998 -1.3
v 1.3998 0.3085 -1.3381
v 1.3997 0.1463 -1.4464
v 1.3996 0.0379 -1.6087
v 1.3996 -0.0002 -1.8
v 1.3996 0.0379 -1.9913
v 1.3997 0.1463 -2.1536
v 1.3998 0.3085 -2.2619
v 1.4 0.4998 -2.3
v 1.4002 0.6912 -2.2619
v 1.4003 0.8534 -2.1536
v 1.4004 0.9618 -1.9913
v 1.0004 1.0002 -1.8
v 1.0004 0.9621 -1.6087
v 1.0003 0.8537 -1.4464
v 1.0002 0.6915 -1.3381
v 1 0.5002 -1.3
v 0.9998 0.3088 -1.3381
v 0.9997 0.1466 -1.4464
v 0.9996 0.0382 -1.6087
v 0.9996 0.0002 -1.8
v 0.9996 0.0382 -1.9913
v 0.9997 0.1466 -2.1536
v 0.9998 0.3088 -2.2619
v 1 0.5002 -2.3
v 1.0002 0.6915 -2.2619
v 1.0003 0.8537 -2.1536
v 1.0004 0.9621 -1.9913
v 1.4 0.4998 -1.8
v 1 0.5002 -1.8
v -1.4198 0.8 1.6
v -1.4631 0.775 1.6
v -1.4631 0.725 1.6
v -1.4198 0.7 1.6
v -1.3765 0.725 1.6
v -1.3765 0.775 1.6
v -1.4198 0.8 1.6
v -1.4198 0.7427 1.7763
v -1.4631 0.7225 1.7616
v -1.4632 0.6821 1.7323
v -1.4199 0.6618 1.7176
v -1.3766 0.682 1.7323
v -1.3765 0.7224 1.7616
v -1.4198 0.7427 1.7763
v -1.4199 0.5927 1.8853
v -1.4632 0.585 1.8615
v -1.4632 0.5696 1.814
v -1.42 0.5618 1.7902
v -1.3766 0.5695 1.814
v -1.3766 0.5849 1.8615
v -1.4199 0.5927 1.8853
v -1.4201 0.4073 1.8853
v -1.4634 0.4151 1.8615
v -1.4634 0.4305 1.814
v -1.42 0.4382 1.7902
v -1.3768 0.4304 1.814
v -1.3768 0.415 1.8615
v -1.4201 0.4073 1.8853
v -1.4202 0.2573 1.7763
v -1.4635 0.2776 1.7616
v -1.4634 0.318 1.7323
v -1.4201 0.3382 1.7176
v -1.3768 0.3179 1.7323
v -1.3769 0.2775 1.7616
v -1.4202 0.2573 1.7763
v -1.4202 0.2 1.6
v -1.4635 0.225 1.6
v -1.4635 0.275 1.6
v -1.4202 0.3 1.6
v -1.3769 0.275 1.6
v -1.3769 0.225 1.6
v -1.4202 0.2 1.6
v -1.4202 0.2573 1.4237
v -1.4635 0.2776 1.4384
v -1.4634 0.318 1.4677
v -1.4201 0.3382 1.4824
v -1.3768 0.3179 1.4677
v -1.3769 0.2775 1.4384
v -1.4202 0.2573 1.4237
v -1.4201 0.4073 1.3147
v -1.4634 0.4151 1.3385
v -1.4634 0.4305 1.386
v -1.42 0.4382 1.4098
v -1.3768 0.4304 1.386
v -1.3768 0.415 1.3385
v -1.4201 0.4073 1.3147
v -1.4199 0.5927 1.3147
v -1.4632 0.585 1.3385
v -1.4632 0.5696 1.386
v -1.42 0.5618 1.4098
v -1.3766 0.5695 1.386
v -1.3766 0.5849 1.3385
v -1.4199 0.5927 1.3147
v -1.4198 0.7427 1.4237
v -1.4631 0.7225 1.4384
v -1.4632 0.6821 1.4677
v -1.4199 0.6618 1.4824
v -1.3766 0.682 1.4677
v -1.3765 0.7224 1.4384
v -1.4198 0.7427 1.4237
v -1.4198 0.8 1.6
v -1.4631 0.775 1.6
v -1.4631 0.725 1.6
v -1.4198 0.7 1.6
v -1.3765 0.725 1.6
v -1.3765 0.775 1.6
v -1.4198 0.8 1.6
v 1.4202 0.8 1.6
v 1.3769 0.775 1.6
v 1.3769 0.725 1.6
v 1.4202 0.7 1.6
v 1.4635 0.725 1.6
v 1.4635 0.775 1.6
v 1.4202 0.8 1.6
v 1.4202 0.7427 1.7763
v 1.3769 0.7225 1.7616
v 1.3768 0.6821 1.7323
v 1.4201 0.6618 1.7176
v 1.4634 0.682 1.7323
v 1.4635 0.7224 1.7616
v 1.4202 0.7427 1.7763
v 1.4201 0.5927 1.8853
v 1.3768 0.585 1.8615
v 1.3768 0.5696 1.814
v 1.42 0.5618 1.7902
v 1.4634 0.5695 1.814
v 1.4634 0.5849 1.8615
v 1.4201 0.5927 1.8853
v 1.4199 0.4073 1.8853
v 1.3766 0.4151 1.8615
v 1.3766 0.4305 1.814
v 1.42 0.4382 1.7902
v 1.4632 0.4304 1.814
v 1.4632 0.415 1.8615
v 1.4199 0.4073 1.8853
v 1.4198 0.2573 1.7763
v 1.3765 0.2776 1.7616
v 1.3766 0.318 1.7323
v 1.4199 0.3382 1.7176
v 1.4632 0.3179 1.7323
v 1.4631 0.2775 1.7616
v 1.4198 0.2573 1.7763
v 1.4198 0.2 1.6
v 1.3765 0.225 1.6
v 1.3765 0.275 1.6
v 1.4198 0.3 1.6
v 1.4631 0.275 1.6
v 1.4631 0.225 1.6
v 1.4198 0.2 1.6
v 1.4198 0.2573 1.4237
v 1.3765 0.2776 1.4384
v 1.3766 0.318 1.4677
v 1.4199 0.3382 1.4824
v 1.4632 0.3179 1.4677
v 1.4631 0.2775 1.4384
v 1.4198 0.2573 1.4237
v 1.4199 0.4073 1.3147
v 1.3766 0.4151 1.3385
v 1.3766 0.4305 1.386
v 1.42 0.4382 1.4098
v 1.4632 0.4304 1.386
v 1.4632 0.415 1.3385
v 1.4199 0.4073 1.3147
v 1.4201 0.5927 1.3147
v 1.3768 0.585 1.3385
v 1.3768 0.5696 1.386
v 1.42 0.5618 1.4098
v 1.4634 0.5695 1.386
v 1.4634 0.5849 1.3385
v 1.4201 0.5927 1.3147
v 1.4202 0.7427 1.4237
v 1.3769 0.7225 1.4384
v 1.3768 0.6821 1.4677
v 1.4201 0.6618 1.4824
v 1.4634 0.682 1.4677
v 1.4635 0.7224 1.4384
v 1.4202 0.7427 1.4237
v 1.4202 0.8 1.6
v 1.3769 0.775 1.6
v 1.3769 0.725 1.6
v 1.4202 0.7 1.6
v 1.4635 0.725 1.6
v 1.4635 0.775 1.6
v 1.4202 0.8 1.6
v -1.4198 0.8 -1.8
v -1.4631 0.775 -1.8
v -1.4631 0.725 -1.8
v -1.4198 0.7 -1.8
v -1.3765 0.725 -1.8
v -1.3765 0.775 -1.8
v -1.4198 0.8 -1.8
v -1.4198 0.7427 -1.6237
v -1.4631 0.7225 -1.6384
v -1.4632 0.6821 -1.6677
v -1.4199 0.6618 -1.6824
v -1.3766 0.682 -1.6677
v -1.3765 0.7224 -1.6384
v -1.4198 0.7427 -1.6237
v -1.4199 0.5927 -1.5147
v -1.4632 0.585 -1.5385
v -1.4632 0.5696 -1.586
v -1.42 0.5618 -1.6098
v -1.3766 0.5695 -1.586
v -1.3766 0.5849 -1.5385
v -1.4199 0.5927 -1.5147
v -1.4201 0.4073 -1.5147
v -1.4634 0.4151 -1.5385
v -1.4634 0.4305 -1.586
v -1.42 0.4382 -1.6098
v -1.3768 0.4304 -1.586
v -1.3768 0.415 -1.5385
v -1.4201 0.4073 -1.5147
v -1.4202 0.2573 -1.6237
v -1.4635 0.2776 -1.6384
v -1.4634 0.318 -1.6677
v -1.4201 0.3382 -1.6824
v -1.3768 0.3179 -1.6677
v -1.3769 0.2775 -1.6384
v -1.4202 0.2573 -1.6237
v -1.4202 0.2 -1.8
v -1.4635 0.225 -1.8
v -1.4635 0.275 -1.8
v -1.4202 0.3 -1.8
v -1.3769 0.275 -1.8
v -1.3769 0.225 -1.8
v -1.4202 0.2 -1.8
v -1.4202 0.2573 -1.9763
v -1.4635 0.2776 -1.9616
v -1.4634 0.318 -1.9323
v -1.4201 0.3382 -1.9176
v -1.3768 0.3179 -1.9323
v -1.3769 0.2775 -1.9616
v -1.4202 0.2573 -1.9763
v -1.4201 0.4073 -2.0853
v -1.4634 0.4151 -2.0615
v -1.4634 0.4305 -2.014
v -1.42 0.4382 -1.9902
v -1.3768 0.4304 -2.014
v -1.3768 0.415 -2.0615
v -1.4201 0.4073 -2.0853
v -1.4199 0.5927 -2.0853
v -1.4632 0.585 -2.0615
v -1.4632 0.5696 -2.014
v -1.42 0.5618 -1.9902
v -1.3766 0.5695 -2.014
v -1.3766 0.5849 -2.0615
v -1.4199 0.5927 -2.0853
v -1.4198 0.7427 -1.9763
v -1.4631 0.7225 -1.9616
v -1.4632 0.6821 -1.9323
v -1.4199 0.6618 -1.9176
v -1.3766 0.682 -1.9323
v -1.3765 0.7224 -1.9616
v -1.4198 0.7427 -1.9763
v -1.4198 0.8 -1.8
v -1.4631 0.775 -1.8
v -1.4631 0.725 -1.8
v -1.4198 0.7 -1.8
v -1.3765 0.725 -1.8
v -1.3765 0.775 -1.8
v -1.4198 0.8 -1.8
v 1.4202 0.8 -1.8
v 1.3769 0.775 -1.8
v 1.3769 0.725 -1.8
v 1.4202 0.7 -1.8
v 1.4635 0.725 -1.8
v 1.4635 0.775 -1.8
v 1.4202 0.8 -1.8
v 1.4202 0.7427 -1.6237
v 1.3769 0.7225 -1.6384
v 1.3768 0.6821 -1.6677
v 1.4201 0.6618 -1.6824
v 1.4634 0.682 -1.6677
v 1.4635 0.7224 -1.6384
v 1.4202 0.7427 -1.6237
v 1.4201 0.5927 -1.5147
v 1.3768 0.585 -1.5385
v 1.3768 0.5696 -1.586
v 1.42 0.5618 -1.6098
v 1.4634 0.5695 -1.586
v 1.4634 0.5849 -1.5385
v 1.4201 0.5927 -1.5147
v 1.4199 0.4073 -1.5147
v 1.3766 0.4151 -1.5385
v 1.3766 0.4305 -1.586
v 1.42 0.4382 -1.6098
v 1.4632 0.4304 -1.586
v 1.4632 0.415 -1.5385
v 1.4199 0.4073 -1.5147
v 1.4198 0.2573 -1.6237
v 1.3765 0.2776 -1.6384
v 1.3766 0.318 -1.6677
v 1.4199 0.3382 -1.6824
v 1.4632 0.3179 -1.6677
v 1.4631 0.2775 -1.6384
v 1.4198 0.2573 -1.6237
v 1.4198 0.2 -1.8
v 1.3765 0.225 -1.8
v 1.3765 0.275 -1.8
v 1.4198 0.3 -1.8
v 1.4631 0.275 -1.8
v 1.4631 0.225 -1.8
v 1.4198 0.2 -1.8
v 1.4198 0.2573 -1.9763
v 1.3765 0.2776 -1.9616
v 1.3766 0.318 -1.9323
v 1.4199 0.3382 -1.9176
v 1.4632 0.3179 -1.9323
v 1.4631 0.2775 -1.9616
v 1.4198 0.2573 -1.9763
v 1.4199 0.4073 -2.0853
v 1.3766 0.4151 -2.0615
v 1.3766 0.4305 -2.014
v 1.42 0.4382 -1.9902
v 1.4632 0.4304 -2.014
v 1.4632 0.415 -2.0615
v 1.4199 0.4073 -2.0853
v 1.4201 0.5927 -2.0853
v 1.3768 0.585 -2.0615
v 1.3768 0.5696 -2.014
v 1.42 0.5618 -1.9902
v 1.4634 0.5695 -2.014
v 1.4634 0.5849 -2.0615
v 1.4201 0.5927 -2.0853
v 1.4202 0.7427 -1.9763
v 1.3769 0.7225 -1.9616
v 1.3768 0.6821 -1.9323
v 1.4201 0.6618 -1.9176
v 1.4634 0.682 -1.9323
v 1.4635 0.7224 -1.9616
v 1.4202 0.7427 -1.9763
v 1.4202 0.8 -1.8
v 1.3769 0.775 -1.8
v 1.3769 0.725 -1.8
v 1.4202 0.7 -1.8
v 1.4635 0.725 -1.8
v 1.4635 0.775 -1.8
v 1.4202 0.8 -1.8
vt 0.5 0.5
vt 0.5 0.5
vt 0.5 0.5
vt 0.5 0.5
vt 0.5 0.5
vt 0.5 0.5
vt 0.5 0.5
vt 0.5 0.5
vt 0.5 0.5
vt 0.5 0.5
vt 0.5 0.5
vt 0.5 0.5
vt 0.5 0.5
vt 0.5 0.5
vt 0.5 0.5
vt 0.5 0.5
vt 0.5 0.5
vt 0.5 0.5
vt 0.5 0.5
vt 0.5 0.5
vt 0.5 0.5
vt 0.5 0.5
vt 0.5 0.5
vt 0.5 0.5
vt 0.5 0.5
vt 0.5 0.5
vt 0.5 0.5
vt 0.5 0.5
vt 0.5 0.5
vt 0.5 0.5
vt 0.5 0.5
vt 0.5 0.5
vt 0.5 0.5
vt 0.5 0.5
vt 0.5 0.5
vt 0.5 0.5
vt 0.5 0.5
vt 0.5 0.5
vt 0.5 0.5
vt 0.5 0.5
vt 0.5 0.5
vt 0.5 0.5
vt 0.5 0.5
vt 0.5 0.5
vt 0.5 0.5
vt 0.5 0.5
vt 0.5 0.5
vt 0.5 0.5
vt 0.5 0.5
vt 0.5 0.5
vt 0.5 0.5
vt 0.5 0.5
vt 0.5 0.5
vt 0.5 0.5
vt 0.5 0.5
vt 0.5 0.5
vt 0.5 0.5
vt 0.5 0.5
vt 0.5 0.5
vt 0.5 0.5
vt 0.5 0.5
vt 0.5 0.5
vt 0.5 0.5
vt 0.5 0.5
vt 0.5 0.5
vt 0.5 0.5
vt 0.5 0.5
vt 0.5 0.5
vt 0.5 0.5
vt 0.5 0.5
vt 0.5 0.5
vt 0.5 0.5
vt 0.5 0.5
vt 0.5 0.5
vt 0.5 0.5
vt 0.5 0.5
vt 0.5 0.5
vt 0.5 0.5
vt 0.5 0.5
vt 0.5 0.5
vt 0.5 0.5
vt 0.5 0.5
vt 0.5 0.5
vt 0.5 0.5
vt 0.5 0.5
vt 0.5 0.5
vt 0.5 0.5
vt 0.5 0.5
vt 0.5 0.5
vt 0.5 0.5
vt 0.5 0.5
vt 0.5 0.5
vt 0.5 0.5
vt 0.5 0.5
vt 0.5 0.5
vt 0.5 0.5
vt 0.5 0.5
vt 0.5 0.5
vt 0.5 0.5
vt 0.5 0.5
vt 0.5 0.5
vt 0.5 0.5
vt 0.5 0.5
vt 0.5 0.5
vt 0.5 0.5
vt 0.5 0.5
vt 0.5 0.5
vt 0.5 0.5
vt 0.5 0.5
vt 0.5 0.5
vt 0.5 0.5
vt 0.5 0.5
vt 0.5 0.5
vt 0.5 0.5
vt 0.5 0.5
vt 0.5 0.5
vt 0.5 0.5
vt 0.5 0.5
vt 0.5 0.5
vt 0.5 0.5
vt 0.5 0.5
vt 0.5 0.5
vt 0.5 0.5
vt 0.5 0.5
vt 0.5 0.5
vt 0.5 0.5
vt 0.5 0.5
vt 0.5 0.5
vt 0.5 0.5
vt 0.5 0.5
vt 0.5 0.5
vt 0.5 0.5
vt 0.5 0.5
vt 0.5 0.5
vt 0.5 0.5
vt 0.5 0.5
vt 0.5 0.5
vt 0.5 0.5
vt 0.5 0.5
vt 0.5 0.5
vt 0.5 0.5
vt 0.5 0.5
vt 0.5 0.5
vt 0.5 0.5
vt 0 0
vt 0.0625 0
vt 0.125 0
vt 0.1875 0
vt 0.25 0
vt 0.3125 0
vt 0.375 0
vt 0.4375 0
vt 0.5 0
vt 0.5625 0
vt 0.625 0
vt 0.6875 0
vt 0.75 0
vt 0.8125 0
vt 0.875 0
vt 0.9375 0
vt 0 1
vt 0.0625 1
vt 0.125 1
vt 0.1875 1
vt 0.25 1
vt 0.3125 1
vt 0.375 1
vt 0.4375 1
vt 0.5 1
vt 0.5625 1
vt 0.625 1
vt 0.6875 1
vt 0.75 1
vt 0.8125 1
vt 0.875 1
vt 0.9375 1
vt 0.5 0.5
vt 0.5 0.5
vt 0 0
vt 0.0625 0
vt 0.125 0
vt 0.1875 0
vt 0.25 0
vt 0.3125 0
vt 0.375 0
vt 0.4375 0
vt 0.5 0
vt 0.5625 0
vt 0.625 0
vt 0.6875 0
vt 0.75 0
vt 0.8125 0
vt 0.875 0
vt 0.9375 0
vt 0 1
vt 0.0625 1
vt 0.125 1
vt 0.1875 1
vt 0.25 1
vt 0.3125 1
vt 0.375 1
vt 0.4375 1
vt 0.5 1
vt 0.5625 1
vt 0.625 1
vt 0.6875 1
vt 0.75 1
vt 0.8125 1
vt 0.875 1
vt 0.9375 1
vt 0.5 0.5
vt 0.5 0.5
vt 0 0
vt 0.0625 0
vt 0.125 0
vt 0.1875 0
vt 0.25 0
vt 0.3125 0
vt 0.375 0
vt 0.4375 0
vt 0.5 0
vt 0.5625 0
vt 0.625 0
vt 0.6875 0
vt 0.75 0
vt 0.8125 0
vt 0.875 0
vt 0.9375 0
vt 0 1
vt 0.0625 1
vt 0.125 1
vt 0.1875 1
vt 0.25 1
vt 0.3125 1
vt 0.375 1
vt 0.4375 1
vt 0.5 1
vt 0.5625 1
vt 0.625 1
vt 0.6875 1
vt 0.75 1
vt 0.8125 1
vt 0.875 1
vt 0.9375 1
vt 0.5 0.5
vt 0.5 0.5
vt 0 0
vt 0.0625 0
vt 0.125 0
vt 0.1875 0
vt 0.25 0
vt 0.3125 0
vt 0.375 0
vt 0.4375 0
vt 0.5 0
vt 0.5625 0
vt 0.625 0
vt 0.6875 0
vt 0.75 0
vt 0.8125 0
vt 0.875 0
vt 0.9375 0
vt 0 1
vt 0.0625 1
vt 0.125 1
vt 0.1875 1
vt 0.25 1
vt 0.3125 1
vt 0.375 1
vt 0.4375 1
vt 0.5 1
vt 0.5625 1
vt 0.625 1
vt 0.6875 1
vt 0.75 1
vt 0.8125 1
vt 0.875 1
vt 0.9375 1
vt 0.5 0.5
vt 0.5 0.5
vt 0 0
vt 0 0.16666666666666666
vt 0 0.3333333333333333
vt 0 0.5
vt 0 0.6666666666666666
vt 0 0.8333333333333334
vt 0 1
vt 0.1 0
vt 0.1 0.16666666666666666
vt 0.1 0.3333333333333333
vt 0.1 0.5
vt 0.1 0.6666666666666666
vt 0.1 0.8333333333333334
vt 0.1 1
vt 0.2 0
vt 0.2 0.16666666666666666
vt 0.2 0.3333333333333333
vt 0.2 0.5
vt 0.2 0.6666666666666666
vt 0.2 0.8333333333333334
vt 0.2 1
vt 0.3 0
vt 0.3 0.16666666666666666
vt 0.3 0.3333333333333333
vt 0.3 0.5
vt 0.3 0.6666666666666666
vt 0.3 0.8333333333333334
vt 0.3 1
vt 0.4 0
vt 0.4 0.16666666666666666
vt 0.4 0.3333333333333333
vt 0.4 0.5
vt 0.4 0.6666666666666666
vt 0.4 0.8333333333333334
vt 0.4 1
vt 0.5 0
vt 0.5 0.16666666666666666
vt 0.5 0.3333333333333333
vt 0.5 0.5
vt 0.5 0.6666666666666666
vt 0.5 0.8333333333333334
vt 0.5 1
vt 0.6 0
vt 0.6 0.16666666666666666
vt 0.6 0.3333333333333333
vt 0.6 0.5
vt 0.6 0.6666666666666666
vt 0.6 0.8333333333333334
vt 0.6 1
vt 0.7 0
vt 0.7 0.16666666666666666
vt 0.7 0.3333333333333333
vt 0.7 0.5
vt 0.7 0.6666666666666666
vt 0.7 0.8333333333333334
vt 0.7 1
vt 0.8 0
vt 0.8 0.16666666666666666
vt 0.8 0.3333333333333333
vt 0.8 0.5
vt 0.8 0.6666666666666666
vt 0.8 0.8333333333333334
vt 0.8 1
vt 0.9 0
vt 0.9 0.16666666666666666
vt 0.9 0.3333333333333333
vt 0.9 0.5
vt 0.9 0.6666666666666666
vt 0.9 0.8333333333333334
vt 0.9 1
vt 1 0
vt 1 0.16666666666666666
vt 1 0.3333333333333333
vt 1 0.5
vt 1 0.6666666666666666
vt 1 0.8333333333333334
vt 1 1
vt 0 0
vt 0 0.16666666666666666
vt 0 0.3333333333333333
vt 0 0.5
vt 0 0.6666666666666666
vt 0 0.8333333333333334
vt 0 1
vt 0.1 0
vt 0.1 0.16666666666666666
vt 0.1 0.3333333333333333
vt 0.1 0.5
vt 0.1 0.6666666666666666
vt 0.1 0.8333333333333334
vt 0.1 1
vt 0.2 0
vt 0.2 0.16666666666666666
vt 0.2 0.3333333333333333
vt 0.2 0.5
vt 0.2 0.6666666666666666
vt 0.2 0.8333333333333334
vt 0.2 1
vt 0.3 0
vt 0.3 0.16666666666666666
vt 0.3 0.3333333333333333
vt 0.3 0.5
vt 0.3 0.6666666666666666
vt 0.3 0.8333333333333334
vt 0.3 1
vt 0.4 0
vt 0.4 0.16666666666666666
vt 0.4 0.3333333333333333
vt 0.4 0.5
vt 0.4 0.6666666666666666
vt 0.4 0.8333333333333334
vt 0.4 1
vt 0.5 0
vt 0.5 0.16666666666666666
vt 0.5 0.3333333333333333
vt 0.5 0.5
vt 0.5 0.6666666666666666
vt 0.5 0.8333333333333334
vt 0.5 1
vt 0.6 0
vt 0.6 0.16666666666666666
vt 0.6 0.3333333333333333
vt 0.6 0.5
vt 0.6 0.6666666666666666
vt 0.6 0.8333333333333334
vt 0.6 1
vt 0.7 0
vt 0.7 0.16666666666666666
vt 0.7 0.3333333333333333
vt 0.7 0.5
vt 0.7 0.6666666666666666
vt 0.7 0.8333333333333334
vt 0.7 1
vt 0.8 0
vt 0.8 0.16666666666666666
vt 0.8 0.3333333333333333
vt 0.8 0.5
vt 0.8 0.6666666666666666
vt 0.8 0.8333333333333334
vt 0.8 1
vt 0.9 0
vt 0.9 0.16666666666666666
vt 0.9 0.3333333333333333
vt 0.9 0.5
vt 0.9 0.6666666666666666
vt 0.9 0.8333333333333334
vt 0.9 1
vt 1 0
vt 1 0.16666666666666666
vt 1 0.3333333333333333
vt 1 0.5
vt 1 0.6666666666666666
vt 1 0.8333333333333334
vt 1 1
vt 0 0
vt 0 0.16666666666666666
vt 0 0.3333333333333333
vt 0 0.5
vt 0 0.6666666666666666
vt 0 0.8333333333333334
vt 0 1
vt 0.1 0
vt 0.1 0.16666666666666666
vt 0.1 0.3333333333333333
vt 0.1 0.5
vt 0.1 0.6666666666666666
vt 0.1 0.8333333333333334
vt 0.1 1
vt 0.2 0
vt 0.2 0.16666666666666666
vt 0.2 0.3333333333333333
vt 0.2 0.5
vt 0.2 0.6666666666666666
vt 0.2 0.8333333333333334
vt 0.2 1
vt 0.3 0
vt 0.3 0.16666666666666666
vt 0.3 0.3333333333333333
vt 0.3 0.5
vt 0.3 0.6666666666666666
vt 0.3 0.8333333333333334
vt 0.3 1
vt 0.4 0
vt 0.4 0.16666666666666666
vt 0.4 0.3333333333333333
vt 0.4 0.5
vt 0.4 0.6666666666666666
vt 0.4 0.8333333333333334
vt 0.4 1
vt 0.5 0
vt 0.5 0.16666666666666666
vt 0.5 0.3333333333333333
vt 0.5 0.5
vt 0.5 0.6666666666666666
vt 0.5 0.8333333333333334
vt 0.5 1
vt 0.6 0
vt 0.6 0.16666666666666666
vt 0.6 0.3333333333333333
vt 0.6 0.5
vt 0.6 0.6666666666666666
vt 0.6 0.8333333333333334
vt 0.6 1
vt 0.7 0
vt 0.7 0.16666666666666666
vt 0.7 0.3333333333333333
vt 0.7 0.5
vt 0.7 0.6666666666666666
vt 0.7 0.8333333333333334
vt 0.7 1
vt 0.8 0
vt 0.8 0.16666666666666666
vt 0.8 0.3333333333333333
vt 0.8 0.5
vt 0.8 0.6666666666666666
vt 0.8 0.8333333333333334
vt 0.8 1
vt 0.9 0
vt 0.9 0.16666666666666666
vt 0.9 0.3333333333333333
vt 0.9 0.5
vt 0.9 0.6666666666666666
vt 0.9 0.8333333333333334
vt 0.9 1
vt 1 0
vt 1 0.16666666666666666
vt 1 0.3333333333333333
vt 1 0.5
vt 1 0.6666666666666666
vt 1 0.8333333333333334
vt 1 1
vt 0 0
vt 0 0.16666666666666666
vt 0 0.3333333333333333
vt 0 0.5
vt 0 0.6666666666666666
vt 0 0.8333333333333334
vt 0 1
vt 0.1 0
vt 0.1 0.16666666666666666
vt 0.1 0.3333333333333333
vt 0.1 0.5
vt 0.1 0.6666666666666666
vt 0.1 0.8333333333333334
vt 0.1 1
vt 0.2 0
vt 0.2 0.16666666666666666
vt 0.2 0.3333333333333333
vt 0.2 0.5
vt 0.2 0.6666666666666666
vt 0.2 0.8333333333333334
vt 0.2 1
vt 0.3 0
vt 0.3 0.16666666666666666
vt 0.3 0.3333333333333333
vt 0.3 0.5
vt 0.3 0.6666666666666666
vt 0.3 0.8333333333333334
vt 0.3 1
vt 0.4 0
vt 0.4 0.16666666666666666
vt 0.4 0.3333333333333333
vt 0.4 0.5
vt 0.4 0.6666666666666666
vt 0.4 0.8333333333333334
vt 0.4 1
vt 0.5 0
vt 0.5 0.16666666666666666
vt 0.5 0.3333333333333333
vt 0.5 0.5
vt 0.5 0.6666666666666666
vt 0.5 0.8333333333333334
vt 0.5 1
vt 0.6 0
vt 0.6 0.16666666666666666
vt 0.6 0.3333333333333333
vt 0.6 0.5
vt 0.6 0.6666666666666666
vt 0.6 0.8333333333333334
vt 0.6 1
vt 0.7 0
vt 0.7 0.16666666666666666
vt 0.7 0.3333333333333333
vt 0.7 0.5
vt 0.7 0.6666666666666666
vt 0.7 0.8333333333333334
vt 0.7 1
vt 0.8 0
vt 0.8 0.16666666666666666
vt 0.8 0.3333333333333333
vt 0.8 0.5
vt 0.8 0.6666666666666666
vt 0.8 0.8333333333333334
vt 0.8 1
vt 0.9 0
vt 0.9 0.16666666666666666
vt 0.9 0.3333333333333333
vt 0.9 0.5
vt 0.9 0.6666666666666666
vt 0.9 0.8333333333333334
vt 0.9 1
vt 1 0
vt 1 0.16666666666666666
vt 1 0.3333333333333333
vt 1 0.5
vt 1 0.6666666666666666
vt 1 0.8333333333333334
vt 1 1
vn 0 1 0
vn 0 1 0
vn 0 1 0
vn 0 1 0
vn 0 1 0
vn 0 1 0
vn 0 1 0
vn 0 1 0
vn 0 1 0
vn 0 1 0
vn 0 1 0
vn 0 1 0
vn 0 1 0
vn 0 1 0
vn 0 1 0
vn 0 1 0
vn 0 1 0
vn 0 1 0
vn 0 1 0
vn 0 1 0
vn 0 1 0
vn 0 1 0
vn 0 1 0
vn 0 1 0
vn 0 1 0
vn 0 1 0
vn 0 1 0
vn 0 1 0
vn 0 1 0
vn 0 1 0
vn 0 1 0
vn 0 1 0
vn 0 1 0
vn 0 1 0
vn 0 1 0
vn 0 1 0
vn 0 1 0
vn 0 1 0
vn 0 1 0
vn 0 1 0
vn 0 1 0
vn 0 1 0
vn 0 1 0
vn 0 1 0
vn 0 1 0
vn 0 1 0
vn 0 1 0
vn 0 1 0
vn 0 1 0
vn 0 1 0
vn 0 1 0
vn 0 1 0
vn 0 1 0
vn 0 1 0
vn 0 1 0
vn 0 1 0
vn 0 1 0
vn 0 1 0
vn 0 1 0
vn 0 1 0
vn 0 1 0
vn 0 1 0
vn 0 1 0
vn 0 1 0
vn 0 1 0
vn 0 1 0
vn 0 1 0
vn 0 1 0
vn 0 1 0
vn 0 1 0
vn 0 1 0
vn 0 1 0
vn 0 1 0
vn 0 1 0
vn 0 1 0
vn 0 1 0
vn 0 1 0
vn 0 1 0
vn 0 1 0
vn 0 1 0
vn 0 1 0
vn 0 1 0
vn 0 1 0
vn 0 1 0
vn 0 1 0
vn 0 1 0
vn 0 1 0
vn 0 1 0
vn 0 1 0
vn 0 1 0
vn 0 1 0
vn 0 1 0
vn 0 1 0
vn 0 1 0
vn 0 1 0
vn 0 1 0
vn 0 1 0
vn 0 1 0
vn 0 1 0
vn 0 1 0
vn 0 1 0
vn 0 1 0
vn 0 1 0
vn 0 1 0
vn 0 1 0
vn 0 1 0
vn 0 1 0
vn 0 1 0
vn 0 1 0
vn 0 1 0
vn 0 1 0
vn 0 1 0
vn 0 1 0
vn 0 1 0
vn 0 1 0
vn 0 1 0
vn 0 1 0
vn 0 1 0
vn 0 1 0
vn 0 1 0
vn 0 1 0
vn 0 1 0
vn 0 1 0
vn 0 1 0
vn 0 1 0
vn 0 1 0
vn 0 1 0
vn 0 1 0
vn 0 1 0
vn 0 1 0
vn 0 1 0
vn 0 1 0
vn 0 1 0
vn 0 1 0
vn 0 1 0
vn 0 1 0
vn 0 1 0
vn 0 1 0
vn 0 1 0
vn 0 1 0
vn 0 1 0
vn 0 1 0
vn 0 1 0
vn 0 1 0
vn 0 -1 0
vn 0 -1 0
vn 0 -1 0
vn 0 -1 0
vn 0 -1 0
vn 0 -1 0
vn 0 -1 0
vn 0 -1 0
vn 0 -1 0
vn 0 -1 0
vn 0 -1 0
vn 0 -1 0
vn 0 -1 0
vn 0 -1 0
vn 0 -1 0
vn 0 -1 0
vn 0 1 0
vn 0 1 0
vn 0 1 0
vn 0 1 0
vn 0 1 0
vn 0 1 0
vn 0 1 0
vn 0 1 0
vn 0 1 0
vn 0 1 0
vn 0 1 0
vn 0 1 0
vn 0 1 0
vn 0 1 0
vn 0 1 0
vn 0 1 0
vn 0 -1 0
vn 0 1 0
vn 0 -1 0
vn 0 -1 0
vn 0 -1 0
vn 0 -1 0
vn 0 -1 0
vn 0 -1 0
vn 0 -1 0
vn 0 -1 0
vn 0 -1 0
vn 0 -1 0
vn 0 -1 0
vn 0 -1 0
vn 0 -1 0
vn 0 -1 0
vn 0 -1 0
vn 0 -1 0
vn 0 1 0
vn 0 1 0
vn 0 1 0
vn 0 1 0
vn 0 1 0
vn 0 1 0
vn 0 1 0
vn 0 1 0
vn 0 1 0
vn 0 1 0
vn 0 1 0
vn 0 1 0
vn 0 1 0
vn 0 1 0
vn 0 1 0
vn 0 1 0
vn 0 -1 0
vn 0 1 0
vn 0 -1 0
vn 0 -1 0
vn 0 -1 0
vn 0 -1 0
vn 0 -1 0
vn 0 -1 0
vn 0 -1 0
vn 0 -1 0
vn 0 -1 0
vn 0 -1 0
vn 0 -1 0
vn 0 -1 0
vn 0 -1 0
vn 0 -1 0
vn 0 -1 0
vn 0 -1 0
vn 0 1 0
vn 0 1 0
vn 0 1 0
vn 0 1 0
vn 0 1 0
vn 0 1 0
vn 0 1 0
vn 0 1 0
vn 0 1 0
vn 0 1 0
vn 0 1 0
vn 0 1 0
vn 0 1 0
vn 0 1 0
vn 0 1 0
vn 0 1 0
vn 0 -1 0
vn 0 1 0
vn 0 -1 0
vn 0 -1 0
vn 0 -1 0
vn 0 -1 0
vn 0 -1 0
vn 0 -1 0
vn 0 -1 0
vn 0 -1 0
vn 0 -1 0
vn 0 -1 0
vn 0 -1 0
vn 0 -1 0
vn 0 -1 0
vn 0 -1 0
vn 0 -1 0
vn 0 -1 0
vn 0 1 0
vn 0 1 0
vn 0 1 0
vn 0 1 0
vn 0 1 0
vn 0 1 0
vn 0 1 0
vn 0 1 0
vn 0 1 0
vn 0 1 0
vn 0 1 0
vn 0 1 0
vn 0 1 0
vn 0 1 0
vn 0 1 0
vn 0 1 0
vn 0 -1 0
vn 0 1 0
vn 1 0 0
vn 0.5000000000000001 0.8660254037844386 0
vn -0.4999999999999998 0.8660254037844387 0
vn -1 1.2246467991473532e-16 0
vn -0.5000000000000004 -0.8660254037844385 0
vn 0.5000000000000001 -0.8660254037844386 0
vn 1 -2.4492935982947064e-16 0
vn 0.8090169943749475 0 0.5877852522924731
vn 0.40450849718747384 0.8660254037844386 0.2938926261462366
vn -0.40450849718747356 0.8660254037844387 -0.29389262614623646
vn -0.8090169943749475 1.2246467991473532e-16 -0.5877852522924731
vn -0.40450849718747406 -0.8660254037844385 -0.29389262614623685
vn 0.40450849718747384 -0.8660254037844386 0.2938926261462366
vn 0.8090169943749475 -2.4492935982947064e-16 0.5877852522924731
vn 0.30901699437494745 0 0.9510565162951535
vn 0.15450849718747375 0.8660254037844386 0.4755282581475769
vn -0.15450849718747367 0.8660254037844387 -0.47552825814757654
vn -0.30901699437494745 1.2246467991473532e-16 -0.9510565162951535
vn -0.15450849718747386 -0.8660254037844385 -0.4755282581475772
vn 0.15450849718747375 -0.8660254037844386 0.4755282581475769
vn 0.30901699437494745 -2.4492935982947064e-16 0.9510565162951535
vn -0.30901699437494734 0 0.9510565162951536
vn -0.1545084971874737 0.8660254037844386 0.47552825814757693
vn 0.15450849718747361 0.8660254037844387 -0.4755282581475766
vn 0.30901699437494734 1.2246467991473532e-16 -0.9510565162951536
vn 0.1545084971874738 -0.8660254037844385 -0.47552825814757727
vn -0.1545084971874737 -0.8660254037844386 0.47552825814757693
vn -0.30901699437494734 -2.4492935982947064e-16 0.9510565162951536
vn -0.8090169943749473 0 0.5877852522924732
vn -0.4045084971874738 0.8660254037844386 0.2938926261462367
vn 0.4045084971874735 0.8660254037844387 -0.2938926261462365
vn 0.8090169943749473 1.2246467991473532e-16 -0.5877852522924732
vn 0.404508497187474 -0.8660254037844385 -0.2938926261462369
vn -0.4045084971874738 -0.8660254037844386 0.2938926261462367
vn -0.8090169943749473 -2.4492935982947064e-16 0.5877852522924732
vn -1 0 1.2246467991473532e-16
vn -0.5000000000000001 0.8660254037844386 6.123233995736767e-17
vn 0.4999999999999998 0.8660254037844387 -6.123233995736764e-17
vn 1 1.2246467991473532e-16 -1.2246467991473532e-16
vn 0.5000000000000004 -0.8660254037844385 -6.123233995736771e-17
vn -0.5000000000000001 -0.8660254037844386 6.123233995736767e-17
vn -1 -2.4492935982947064e-16 1.2246467991473532e-16
vn -0.8090169943749475 0 -0.587785252292473
vn -0.40450849718747384 0.8660254037844386 -0.29389262614623657
vn 0.40450849718747356 0.8660254037844387 0.2938926261462364
vn 0.8090169943749475 1.2246467991473532e-16 0.587785252292473
vn 0.40450849718747406 -0.8660254037844385 0.2938926261462368
vn -0.40450849718747384 -0.8660254037844386 -0.29389262614623657
vn -0.8090169943749475 -2.4492935982947064e-16 -0.587785252292473
vn -0.30901699437494756 0 -0.9510565162951535
vn -0.1545084971874738 0.8660254037844386 -0.4755282581475769
vn 0.15450849718747373 0.8660254037844387 0.47552825814757654
vn 0.30901699437494756 1.2246467991473532e-16 0.9510565162951535
vn 0.15450849718747392 -0.8660254037844385 0.4755282581475772
vn -0.1545084971874738 -0.8660254037844386 -0.4755282581475769
vn -0.30901699437494756 -2.4492935982947064e-16 -0.9510565162951535
vn 0.30901699437494723 0 -0.9510565162951536
vn 0.15450849718747364 0.8660254037844386 -0.47552825814757693
vn -0.15450849718747356 0.8660254037844387 0.4755282581475766
vn -0.30901699437494723 1.2246467991473532e-16 0.9510565162951536
vn -0.15450849718747375 -0.8660254037844385 0.47552825814757727
vn 0.15450849718747364 -0.8660254037844386 -0.47552825814757693
vn 0.30901699437494723 -2.4492935982947064e-16 -0.9510565162951536
vn 0.8090169943749473 0 -0.5877852522924734
vn 0.4045084971874738 0.8660254037844386 -0.29389262614623674
vn -0.4045084971874735 0.8660254037844387 0.29389262614623657
vn -0.8090169943749473 1.2246467991473532e-16 0.5877852522924734
vn -0.404508497187474 -0.8660254037844385 0.29389262614623696
vn 0.4045084971874738 -0.8660254037844386 -0.29389262614623674
vn 0.8090169943749473 -2.4492935982947064e-16 -0.5877852522924734
vn 1 0 -2.4492935982947064e-16
vn 0.5000000000000001 0.8660254037844386 -1.2246467991473535e-16
vn -0.4999999999999998 0.8660254037844387 1.2246467991473527e-16
vn -1 1.2246467991473532e-16 2.4492935982947064e-16
vn -0.5000000000000004 -0.8660254037844385 1.2246467991473542e-16
vn 0.5000000000000001 -0.8660254037844386 -1.2246467991473535e-16
vn 1 -2.4492935982947064e-16 -2.4492935982947064e-16
vn 1 0 0
vn 0.5000000000000001 0.8660254037844386 0
vn -0.4999999999999998 0.8660254037844387 0
vn -1 1.2246467991473532e-16 0
vn -0.5000000000000004 -0.8660254037844385 0
vn 0.5000000000000001 -0.8660254037844386 0
vn 1 -2.4492935982947064e-16 0
vn 0.8090169943749475 0 0.5877852522924731
vn 0.40450849718747384 0.8660254037844386 0.2938926261462366
vn -0.40450849718747356 0.8660254037844387 -0.29389262614623646
vn -0.8090169943749475 1.2246467991473532e-16 -0.5877852522924731
vn -0.40450849718747406 -0.8660254037844385 -0.29389262614623685
vn 0.40450849718747384 -0.8660254037844386 0.2938926261462366
vn 0.8090169943749475 -2.4492935982947064e-16 0.5877852522924731
vn 0.30901699437494745 0 0.9510565162951535
vn 0.15450849718747375 0.8660254037844386 0.4755282581475769
vn -0.15450849718747367 0.8660254037844387 -0.47552825814757654
vn -0.30901699437494745 1.2246467991473532e-16 -0.9510565162951535
vn -0.15450849718747386 -0.8660254037844385 -0.4755282581475772
vn 0.15450849718747375 -0.8660254037844386 0.4755282581475769
vn 0.30901699437494745 -2.4492935982947064e-16 0.9510565162951535
vn -0.30901699437494734 0 0.9510565162951536
vn -0.1545084971874737 0.8660254037844386 0.47552825814757693
vn 0.15450849718747361 0.8660254037844387 -0.4755282581475766
vn 0.30901699437494734 1.2246467991473532e-16 -0.9510565162951536
vn 0.1545084971874738 -0.8660254037844385 -0.47552825814757727
vn -0.1545084971874737 -0.8660254037844386 0.47552825814757693
vn -0.30901699437494734 -2.4492935982947064e-16 0.9510565162951536
vn -0.8090169943749473 0 0.5877852522924732
vn -0.4045084971874738 0.8660254037844386 0.2938926261462367
vn 0.4045084971874735 0.8660254037844387 -0.2938926261462365
vn 0.8090169943749473 1.2246467991473532e-16 -0.5877852522924732
vn 0.404508497187474 -0.8660254037844385 -0.2938926261462369
vn -0.4045084971874738 -0.8660254037844386 0.2938926261462367
vn -0.8090169943749473 -2.4492935982947064e-16 0.5877852522924732
vn -1 0 1.2246467991473532e-16
vn -0.5000000000000001 0.8660254037844386 6.123233995736767e-17
vn 0.4999999999999998 0.8660254037844387 -6.123233995736764e-17
vn 1 1.2246467991473532e-16 -1.2246467991473532e-16
vn 0.5000000000000004 -0.8660254037844385 -6.123233995736771e-17
vn -0.5000000000000001 -0.8660254037844386 6.123233995736767e-17
vn -1 -2.4492935982947064e-16 1.2246467991473532e-16
vn -0.8090169943749475 0 -0.587785252292473
vn -0.40450849718747384 0.8660254037844386 -0.29389262614623657
vn 0.40450849718747356 0.8660254037844387 0.2938926261462364
vn 0.8090169943749475 1.2246467991473532e-16 0.587785252292473
vn 0.40450849718747406 -0.8660254037844385 0.2938926261462368
vn -0.40450849718747384 -0.8660254037844386 -0.29389262614623657
vn -0.8090169943749475 -2.4492935982947064e-16 -0.587785252292473
vn -0.30901699437494756 0 -0.9510565162951535
vn -0.1545084971874738 0.8660254037844386 -0.4755282581475769
vn 0.15450849718747373 0.8660254037844387 0.47552825814757654
vn 0.30901699437494756 1.2246467991473532e-16 0.9510565162951535
vn 0.15450849718747392 -0.8660254037844385 0.4755282581475772
vn -0.1545084971874738 -0.8660254037844386 -0.4755282581475769
vn -0.30901699437494756 -2.4492935982947064e-16 -0.9510565162951535
vn 0.30901699437494723 0 -0.9510565162951536
vn 0.15450849718747364 0.8660254037844386 -0.47552825814757693
vn -0.15450849718747356 0.8660254037844387 0.4755282581475766
vn -0.30901699437494723 1.2246467991473532e-16 0.9510565162951536
vn -0.15450849718747375 -0.8660254037844385 0.47552825814757727
vn 0.15450849718747364 -0.8660254037844386 -0.47552825814757693
vn 0.30901699437494723 -2.4492935982947064e-16 -0.9510565162951536
vn 0.8090169943749473 0 -0.5877852522924734
vn 0.4045084971874738 0.8660254037844386 -0.29389262614623674
vn -0.4045084971874735 0.8660254037844387 0.29389262614623657
vn -0.8090169943749473 1.2246467991473532e-16 0.5877852522924734
vn -0.404508497187474 -0.8660254037844385 0.29389262614623696
vn 0.4045084971874738 -0.8660254037844386 -0.29389262614623674
vn 0.8090169943749473 -2.4492935982947064e-16 -0.5877852522924734
vn 1 0 -2.4492935982947064e-16
vn 0.5000000000000001 0.8660254037844386 -1.2246467991473535e-16
vn -0.4999999999999998 0.8660254037844387 1.2246467991473527e-16
vn -1 1.2246467991473532e-16 2.4492935982947064e-16
vn -0.5000000000000004 -0.8660254037844385 1.2246467991473542e-16
vn 0.5000000000000001 -0.8660254037844386 -1.2246467991473535e-16
vn 1 -2.4492935982947064e-16 -2.4492935982947064e-16
vn 1 0 0
vn 0.5000000000000001 0.8660254037844386 0
vn -0.4999999999999998 0.8660254037844387 0
vn -1 1.2246467991473532e-16 0
vn -0.5000000000000004 -0.8660254037844385 0
vn 0.5000000000000001 -0.8660254037844386 0
vn 1 -2.4492935982947064e-16 0
vn 0.8090169943749475 0 0.5877852522924731
vn 0.40450849718747384 0.8660254037844386 0.2938926261462366
vn -0.40450849718747356 0.8660254037844387 -0.29389262614623646
vn -0.8090169943749475 1.2246467991473532e-16 -0.5877852522924731
vn -0.40450849718747406 -0.8660254037844385 -0.29389262614623685
vn 0.40450849718747384 -0.8660254037844386 0.2938926261462366
vn 0.8090169943749475 -2.4492935982947064e-16 0.5877852522924731
vn 0.30901699437494745 0 0.9510565162951535
vn 0.15450849718747375 0.8660254037844386 0.4755282581475769
vn -0.15450849718747367 0.8660254037844387 -0.47552825814757654
vn -0.30901699437494745 1.2246467991473532e-16 -0.9510565162951535
vn -0.15450849718747386 -0.8660254037844385 -0.4755282581475772
vn 0.15450849718747375 -0.8660254037844386 0.4755282581475769
vn 0.30901699437494745 -2.4492935982947064e-16 0.9510565162951535
vn -0.30901699437494734 0 0.9510565162951536
vn -0.1545084971874737 0.8660254037844386 0.47552825814757693
vn 0.15450849718747361 0.8660254037844387 -0.4755282581475766
vn 0.30901699437494734 1.2246467991473532e-16 -0.9510565162951536
vn 0.1545084971874738 -0.8660254037844385 -0.47552825814757727
vn -0.1545084971874737 -0.8660254037844386 0.47552825814757693
vn -0.30901699437494734 -2.4492935982947064e-16 0.9510565162951536
vn -0.8090169943749473 0 0.5877852522924732
vn -0.4045084971874738 0.8660254037844386 0.2938926261462367
vn 0.4045084971874735 0.8660254037844387 -0.2938926261462365
vn 0.8090169943749473 1.2246467991473532e-16 -0.5877852522924732
vn 0.404508497187474 -0.8660254037844385 -0.2938926261462369
vn -0.4045084971874738 -0.8660254037844386 0.2938926261462367
vn -0.8090169943749473 -2.4492935982947064e-16 0.5877852522924732
vn -1 0 1.2246467991473532e-16
vn -0.5000000000000001 0.8660254037844386 6.123233995736767e-17
vn 0.4999999999999998 0.8660254037844387 -6.123233995736764e-17
vn 1 1.2246467991473532e-16 -1.2246467991473532e-16
vn 0.5000000000000004 -0.8660254037844385 -6.123233995736771e-17
vn -0.5000000000000001 -0.8660254037844386 6.123233995736767e-17
vn -1 -2.4492935982947064e-16 1.2246467991473532e-16
vn -0.8090169943749475 0 -0.587785252292473
vn -0.40450849718747384 0.8660254037844386 -0.29389262614623657
vn 0.40450849718747356 0.8660254037844387 0.2938926261462364
vn 0.8090169943749475 1.2246467991473532e-16 0.587785252292473
vn 0.40450849718747406 -0.8660254037844385 0.2938926261462368
vn -0.40450849718747384 -0.8660254037844386 -0.29389262614623657
vn -0.8090169943749475 -2.4492935982947064e-16 -0.587785252292473
vn -0.30901699437494756 0 -0.9510565162951535
vn -0.1545084971874738 0.8660254037844386 -0.4755282581475769
vn 0.15450849718747373 0.8660254037844387 0.47552825814757654
vn 0.30901699437494756 1.2246467991473532e-16 0.9510565162951535
vn 0.15450849718747392 -0.8660254037844385 0.4755282581475772
vn -0.1545084971874738 -0.8660254037844386 -0.4755282581475769
vn -0.30901699437494756 -2.4492935982947064e-16 -0.9510565162951535
vn 0.30901699437494723 0 -0.9510565162951536
vn 0.15450849718747364 0.8660254037844386 -0.47552825814757693
vn -0.15450849718747356 0.8660254037844387 0.4755282581475766
vn -0.30901699437494723 1.2246467991473532e-16 0.9510565162951536
vn -0.15450849718747375 -0.8660254037844385 0.47552825814757727
vn 0.15450849718747364 -0.8660254037844386 -0.47552825814757693
vn 0.30901699437494723 -2.4492935982947064e-16 -0.9510565162951536
vn 0.8090169943749473 0 -0.5877852522924734
vn 0.4045084971874738 0.8660254037844386 -0.29389262614623674
vn -0.4045084971874735 0.8660254037844387 0.29389262614623657
vn -0.8090169943749473 1.2246467991473532e-16 0.5877852522924734
vn -0.404508497187474 -0.8660254037844385 0.29389262614623696
vn 0.4045084971874738 -0.8660254037844386 -0.29389262614623674
vn 0.8090169943749473 -2.4492935982947064e-16 -0.5877852522924734
vn 1 0 -2.4492935982947064e-16
vn 0.5000000000000001 0.8660254037844386 -1.2246467991473535e-16
vn -0.4999999999999998 0.8660254037844387 1.2246467991473527e-16
vn -1 1.2246467991473532e-16 2.4492935982947064e-16
vn -0.5000000000000004 -0.8660254037844385 1.2246467991473542e-16
vn 0.5000000000000001 -0.8660254037844386 -1.2246467991473535e-16
vn 1 -2.4492935982947064e-16 -2.4492935982947064e-16
vn 1 0 0
vn 0.5000000000000001 0.8660254037844386 0
vn -0.4999999999999998 0.8660254037844387 0
vn -1 1.2246467991473532e-16 0
vn -0.5000000000000004 -0.8660254037844385 0
vn 0.5000000000000001 -0.8660254037844386 0
vn 1 -2.4492935982947064e-16 0
vn 0.8090169943749475 0 0.5877852522924731
vn 0.40450849718747384 0.8660254037844386 0.2938926261462366
vn -0.40450849718747356 0.8660254037844387 -0.29389262614623646
vn -0.8090169943749475 1.2246467991473532e-16 -0.5877852522924731
vn -0.40450849718747406 -0.8660254037844385 -0.29389262614623685
vn 0.40450849718747384 -0.8660254037844386 0.2938926261462366
vn 0.8090169943749475 -2.4492935982947064e-16 0.5877852522924731
vn 0.30901699437494745 0 0.9510565162951535
vn 0.15450849718747375 0.8660254037844386 0.4755282581475769
vn -0.15450849718747367 0.8660254037844387 -0.47552825814757654
vn -0.30901699437494745 1.2246467991473532e-16 -0.9510565162951535
vn -0.15450849718747386 -0.8660254037844385 -0.4755282581475772
vn 0.15450849718747375 -0.8660254037844386 0.4755282581475769
vn 0.30901699437494745 -2.4492935982947064e-16 0.9510565162951535
vn -0.30901699437494734 0 0.9510565162951536
vn -0.1545084971874737 0.8660254037844386 0.47552825814757693
vn 0.15450849718747361 0.8660254037844387 -0.4755282581475766
vn 0.30901699437494734 1.2246467991473532e-16 -0.9510565162951536
vn 0.1545084971874738 -0.8660254037844385 -0.47552825814757727
vn -0.1545084971874737 -0.8660254037844386 0.47552825814757693
vn -0.30901699437494734 -2.4492935982947064e-16 0.9510565162951536
vn -0.8090169943749473 0 0.5877852522924732
vn -0.4045084971874738 0.8660254037844386 0.2938926261462367
vn 0.4045084971874735 0.8660254037844387 -0.2938926261462365
vn 0.8090169943749473 1.2246467991473532e-16 -0.5877852522924732
vn 0.404508497187474 -0.8660254037844385 -0.2938926261462369
vn -0.4045084971874738 -0.8660254037844386 0.2938926261462367
vn -0.8090169943749473 -2.4492935982947064e-16 0.5877852522924732
vn -1 0 1.2246467991473532e-16
vn -0.5000000000000001 0.8660254037844386 6.123233995736767e-17
vn 0.4999999999999998 0.8660254037844387 -6.123233995736764e-17
vn 1 1.2246467991473532e-16 -1.2246467991473532e-16
vn 0.5000000000000004 -0.8660254037844385 -6.123233995736771e-17
vn -0.5000000000000001 -0.8660254037844386 6.123233995736767e-17
vn -1 -2.4492935982947064e-16 1.2246467991473532e-16
vn -0.8090169943749475 0 -0.587785252292473
vn -0.40450849718747384 0.8660254037844386 -0.29389262614623657
vn 0.40450849718747356 0.8660254037844387 0.2938926261462364
vn 0.8090169943749475 1.2246467991473532e-16 0.587785252292473
vn 0.40450849718747406 -0.8660254037844385 0.2938926261462368
vn -0.40450849718747384 -0.8660254037844386 -0.29389262614623657
vn -0.8090169943749475 -2.4492935982947064e-16 -0.587785252292473
vn -0.30901699437494756 0 -0.9510565162951535
vn -0.1545084971874738 0.8660254037844386 -0.4755282581475769
vn 0.15450849718747373 0.8660254037844387 0.47552825814757654
vn 0.30901699437494756 1.2246467991473532e-16 0.9510565162951535
vn 0.15450849718747392 -0.8660254037844385 0.4755282581475772
vn -0.1545084971874738 -0.8660254037844386 -0.4755282581475769
vn -0.30901699437494756 -2.4492935982947064e-16 -0.9510565162951535
vn 0.30901699437494723 0 -0.9510565162951536
vn 0.15450849718747364 0.8660254037844386 -0.47552825814757693
vn -0.15450849718747356 0.8660254037844387 0.4755282581475766
vn -0.30901699437494723 1.2246467991473532e-16 0.9510565162951536
vn -0.15450849718747375 -0.8660254037844385 0.47552825814757727
vn 0.15450849718747364 -0.8660254037844386 -0.47552825814757693
vn 0.30901699437494723 -2.4492935982947064e-16 -0.9510565162951536
vn 0.8090169943749473 0 -0.5877852522924734
vn 0.4045084971874738 0.8660254037844386 -0.29389262614623674
vn -0.4045084971874735 0.8660254037844387 0.29389262614623657
vn -0.8090169943749473 1.2246467991473532e-16 0.5877852522924734
vn -0.404508497187474 -0.8660254037844385 0.29389262614623696
vn 0.4045084971874738 -0.8660254037844386 -0.29389262614623674
vn 0.8090169943749473 -2.4492935982947064e-16 -0.5877852522924734
vn 1 0 -2.4492935982947064e-16
vn 0.5000000000000001 0.8660254037844386 -1.2246467991473535e-16
vn -0.4999999999999998 0.8660254037844387 1.2246467991473527e-16
vn -1 1.2246467991473532e-16 2.4492935982947064e-16
vn -0.5000000000000004 -0.8660254037844385 1.2246467991473542e-16
vn 0.5000000000000001 -0.8660254037844386 -1.2246467991473535e-16
vn 1 -2.4492935982947064e-16 -2.4492935982947064e-16
f 1/1/1 3/3/3 2/2/2
f 1/1/1 4/4/4 3/3/3
f 5/5/5 6/6/6 7/7/7
f 5/5/5 7/7/7 8/8/8
f 1/1/1 2/2/2 6/6/6
f 1/1/1 6/6/6 5/5/5
f 3/3/3 4/4/4 8/8/8
f 3/3/3 8/8/8 7/7/7
f 1/1/1 5/5/5 8/8/8
f 1/1/1 8/8/8 4/4/4
f 2/2/2 3/3/3 7/7/7
f 2/2/2 7/7/7 6/6/6
f 9/9/9 11/11/11 10/10/10
f 9/9/9 12/12/12 11/11/11
f 13/13/13 14/14/14 15/15/15
f 13/13/13 15/15/15 16/16/16
f 9/9/9 10/10/10 14/14/14
f 9/9/9 14/14/14 13/13/13
f 11/11/11 12/12/12 16/16/16
f 11/11/11 16/16/16 15/15/15
f 9/9/9 13/13/13 16/16/16
f 9/9/9 16/16/16 12/12/12
f 10/10/10 11/11/11 15/15/15
f 10/10/10 15/15/15 14/14/14
f 17/17/17 19/19/19 18/18/18
f 17/17/17 20/20/20 19/19/19
f 21/21/21 22/22/22 23/23/23
f 21/21/21 23/23/23 24/24/24
f 17/17/17 18/18/18 22/22/22
f 17/17/17 22/22/22 21/21/21
f 19/19/19 20/20/20 24/24/24
f 19/19/19 24/24/24 23/23/23
f 17/17/17 21/21/21 24/24/24
f 17/17/17 24/24/24 20/20/20
f 18/18/18 19/19/19 23/23/23
f 18/18/18 23/23/23 22/22/22
f 25/25/25 27/27/27 26/26/26
f 25/25/25 28/28/28 27/27/27
f 29/29/29 30/30/30 31/31/31
f 29/29/29 31/31/31 32/32/32
f 25/25/25 26/26/26 30/30/30
f 25/25/25 30/30/30 29/29/29
f 27/27/27 28/28/28 32/32/32
f 27/27/27 32/32/32 31/31/31
f 25/25/25 29/29/29 32/32/32
f 25/25/25 32/32/32 28/28/28
f 26/26/26 27/27/27 31/31/31
f 26/26/26 31/31/31 30/30/30
f 33/33/33 35/35/35 34/34/34
f 33/33/33 36/36/36 35/35/35
f 37/37/37 38/38/38 39/39/39
f 37/37/37 39/39/39 40/40/40
f 33/33/33 34/34/34 38/38/38
f 33/33/33 38/38/38 37/37/37
f 35/35/35 36/36/36 40/40/40
f 35/35/35 40/40/40 39/39/39
f 33/33/33 37/37/37 40/40/40
f 33/33/33 40/40/40 36/36/36
f 34/34/34 35/35/35 39/39/39
f 34/34/34 39/39/39 38/38/38
f 41/41/41 43/43/43 42/42/42
f 41/41/41 44/44/44 43/43/43
f 45/45/45 46/46/46 47/47/47
f 45/45/45 47/47/47 48/48/48
f 41/41/41 42/42/42 46/46/46
f 41/41/41 46/46/46 45/45/45
f 43/43/43 44/44/44 48/48/48
f 43/43/43 48/48/48 47/47/47
f 41/41/41 45/45/45 48/48/48
f 41/41/41 48/48/48 44/44/44
f 42/42/42 43/43/43 47/47/47
f 42/42/42 47/47/47 46/46/46
f 49/49/49 51/51/51 50/50/50
f 49/49/49 52/52/52 51/51/51
f 53/53/53 54/54/54 55/55/55
f 53/53/53 55/55/55 56/56/56
f 49/49/49 50/50/50 54/54/54
f 49/49/49 54/54/54 53/53/53
f 51/51/51 52/52/52 56/56/56
f 51/51/51 56/56/56 55/55/55
f 49/49/49 53/53/53 56/56/56
f 49/49/49 56/56/56 52/52/52
f 50/50/50 51/51/51 55/55/55
f 50/50/50 55/55/55 54/54/54
f 57/57/57 59/59/59 58/58/58
f 57/57/57 60/60/60 59/59/59
f 61/61/61 62/62/62 63/63/63
f 61/61/61 63/63/63 64/64/64
f 57/57/57 58/58/58 62/62/62
f 57/57/57 62/62/62 61/61/61
f 59/59/59 60/60/60 64/64/64
f 59/59/59 64/64/64 63/63/63
f 57/57/57 61/61/61 64/64/64
f 57/57/57 64/64/64 60/60/60
f 58/58/58 59/59/59 63/63/63
f 58/58/58 63/63/63 62/62/62
f 65/65/65 67/67/67 66/66/66
f 65/65/65 68/68/68 67/67/67
f 69/69/69 70/70/70 71/71/71
f 69/69/69 71/71/71 72/72/72
f 65/65/65 66/66/66 70/70/70
f 65/65/65 70/70/70 69/69/69
f 67/67/67 68/68/68 72/72/72
f 67/67/67 72/72/72 71/71/71
f 65/65/65 69/69/69 72/72/72
f 65/65/65 72/72/72 68/68/68
f 66/66/66 67/67/67 71/71/71
f 66/66/66 71/71/71 70/70/70
f 73/73/73 75/75/75 74/74/74
f 73/73/73 76/76/76 75/75/75
f 77/77/77 78/78/78 79/79/79
f 77/77/77 79/79/79 80/80/80
f 73/73/73 74/74/74 78/78/78
f 73/73/73 78/78/78 77/77/77
f 75/75/75 76/76/76 80/80/80
f 75/75/75 80/80/80 79/79/79
f 73/73/73 77/77/77 80/80/80
f 73/73/73 80/80/80 76/76/76
f 74/74/74 75/75/75 79/79/79
f 74/74/74 79/79/79 78/78/78
f 81/81/81 83/83/83 82/82/82
f 81/81/81 84/84/84 83/83/83
f 85/85/85 86/86/86 87/87/87
f 85/85/85 87/87/87 88/88/88
f 81/81/81 82/82/82 86/86/86
f 81/81/81 86/86/86 85/85/85
f 83/83/83 84/84/84 88/88/88
f 83/83/83 88/88/88 87/87/87
f 81/81/81 85/85/85 88/88/88
f 81/81/81 88/88/88 84/84/84
f 82/82/82 83/83/83 87/87/87
f 82/82/82 87/87/87 86/86/86
f 89/89/89 91/91/91 90/90/90
f 89/89/89 92/92/92 91/91/91
f 93/93/93 94/94/94 95/95/95
f 93/93/93 95/95/95 96/96/96
f 89/89/89 90/90/90 94/94/94
f 89/89/89 94/94/94 93/93/93
f 91/91/91 92/92/92 96/96/96
f 91/91/91 96/96/96 95/95/95
f 89/89/89 93/93/93 96/96/96
f 89/89/89 96/96/96 92/92/92
f 90/90/90 91/91/91 95/95/95
f 90/90/90 95/95/95 94/94/94
f 97/97/97 99/99/99 98/98/98
f 97/97/97 100/100/100 99/99/99
f 101/101/101 102/102/102 103/103/103
f 101/101/101 103/103/103 104/104/104
f 97/97/97 98/98/98 102/102/102
f 97/97/97 102/102/102 101/101/101
f 99/99/99 100/100/100 104/104/104
f 99/99/99 104/104/104 103/103/103
f 97/97/97 101/101/101 104/104/104
f 97/97/97 104/104/104 100/100/100
f 98/98/98 99/99/99 103/103/103
f 98/98/98 103/103/103 102/102/102
f 105/105/105 107/107/107 106/106/106
f 105/105/105 108/108/108 107/107/107
f 109/109/109 110/110/110 111/111/111
f 109/109/109 111/111/111 112/112/112
f 105/105/105 106/106/106 110/110/110
f 105/105/105 110/110/110 109/109/109
f 107/107/107 108/108/108 112/112/112
f 107/107/107 112/112/112 111/111/111
f 105/105/105 109/109/109 112/112/112
f 105/105/105 112/112/112 108/108/108
f 106/106/106 107/107/107 111/111/111
f 106/106/106 111/111/111 110/110/110
f 113/113/113 115/115/115 114/114/114
f 113/113/113 116/116/116 115/115/115
f 117/117/117 118/118/118 119/119/119
f 117/117/117 119/119/119 120/120/120
f 113/113/113 114/114/114 118/118/118
f 113/113/113 118/118/118 117/117/117
f 115/115/115 116/116/116 120/120/120
f 115/115/115 120/120/120 119/119/119
f 113/113/113 117/117/117 120/120/120
f 113/113/113 120/120/120 116/116/116
f 114/114/114 115/115/115 119/119/119
f 114/114/114 119/119/119 118/118/118
f 121/121/121 123/123/123 122/122/122
f 121/121/121 124/124/124 123/123/123
f 125/125/125 126/126/126 127/127/127
f 125/125/125 127/127/127 128/128/128
f 121/121/121 122/122/122 126/126/126
f 121/121/121 126/126/126 125/125/125
f 123/123/123 124/124/124 128/128/128
f 123/123/123 128/128/128 127/127/127
f 121/121/121 125/125/125 128/128/128
f 121/121/121 128/128/128 124/124/124
f 122/122/122 123/123/123 127/127/127
f 122/122/122 127/127/127 126/126/126
f 129/129/129 131/131/131 130/130/130
f 129/129/129 132/132/132 131/131/131
f 133/133/133 134/134/134 135/135/135
f 133/133/133 135/135/135 136/136/136
f 129/129/129 130/130/130 134/134/134
f 129/129/129 134/134/134 133/133/133
f 131/131/131 132/132/132 136/136/136
f 131/131/131 136/136/136 135/135/135
f 129/129/129 133/133/133 136/136/136
f 129/129/129 136/136/136 132/132/132
f 130/130/130 131/131/131 135/135/135
f 130/130/130 135/135/135 134/134/134
f 137/137/137 139/139/139 138/138/138
f 137/137/137 140/140/140 139/139/139
f 141/141/141 142/142/142 143/143/143
f 141/141/141 143/143/143 144/144/144
f 137/137/137 138/138/138 142/142/142
f 137/137/137 142/142/142 141/141/141
f 139/139/139 140/140/140 144/144/144
f 139/139/139 144/144/144 143/143/143
f 137/137/137 141/141/141 144/144/144
f 137/137/137 144/144/144 140/140/140
f 138/138/138 139/139/139 143/143/143
f 138/138/138 143/143/143 142/142/142
f 145/145/145 146/146/146 162/162/162
f 145/145/145 162/162/162 161/161/161
f 177/177/177 146/146/146 145/145/145
f 178/178/178 161/161/161 162/162/162
f 146/146/146 147/147/147 163/163/163
f 146/146/146 163/163/163 162/162/162
f 177/177/177 147/147/147 146/146/146
f 178/178/178 162/162/162 163/163/163
f 147/147/147 148/148/148 164/164/164
f 147/147/147 164/164/164 163/163/163
f 177/177/177 148/148/148 147/147/147
f 178/178/178 163/163/163 164/164/164
f 148/148/148 149/149/149 165/165/165
f 148/148/148 165/165/165 164/164/164
f 177/177/177 149/149/149 148/148/148
f 178/178/178 164/164/164 165/165/165
f 149/149/149 150/150/150 166/166/166
f 149/149/149 166/166/166 165/165/165
f 177/177/177 150/150/150 149/149/149
f 178/178/178 165/165/165 166/166/166
f 150/150/150 151/151/151 167/167/167
f 150/150/150 167/167/167 166/166/166
f 177/177/177 151/151/151 150/150/150
f 178/178/178 166/166/166 167/167/167
f 151/151/151 152/152/152 168/168/168
f 151/151/151 168/168/168 167/167/167
f 177/177/177 152/152/152 151/151/151
f 178/178/178 167/167/167 168/168/168
f 152/152/152 153/153/153 169/169/169
f 152/152/152 169/169/169 168/168/168
f 177/177/177 153/153/153 152/152/152
f 178/178/178 168/168/168 169/169/169
f 153/153/153 154/154/154 170/170/170
f 153/153/153 170/170/170 169/169/169
f 177/177/177 154/154/154 153/153/153
f 178/178/178 169/169/169 170/170/170
f 154/154/154 155/155/155 171/171/171
f 154/154/154 171/171/171 170/170/170
f 177/177/177 155/155/155 154/154/154
f 178/178/178 170/170/170 171/171/171
f 155/155/155 156/156/156 172/172/172
f 155/155/155 172/172/172 171/171/171
f 177/177/177 156/156/156 155/155/155
f 178/178/178 171/171/171 172/172/172
f 156/156/156 157/157/157 173/173/173
f 156/156/156 173/173/173 172/172/172
f 177/177/177 157/157/157 156/156/156
f 178/178/178 172/172/172 173/173/173
f 157/157/157 158/158/158 174/174/174
f 157/157/157 174/174/174 173/173/173
f 177/177/177 158/158/158 157/157/157
f 178/178/178 173/173/173 174/174/174
f 158/158/158 159/159/159 175/175/175
f 158/158/158 175/175/175 174/174/174
f 177/177/177 159/159/159 158/158/158
f 178/178/178 174/174/174 175/175/175
f 159/159/159 160/160/160 176/176/176
f 159/159/159 176/176/176 175/175/175
f 177/177/177 160/160/160 159/159/159
f 178/178/178 175/175/175 176/176/176
f 160/160/160 145/145/145 161/161/161
f 160/160/160 161/161/161 176/176/176
f 177/177/177 145/145/145 160/160/160
f 178/178/178 176/176/176 161/161/161
f 179/179/179 180/180/180 196/196/196
f 179/179/179 196/196/196 195/195/195
f 211/211/211 180/180/180 179/179/179
f 212/212/212 195/195/195 196/196/196
f 180/180/180 181/181/181 197/197/197
f 180/180/180 197/197/197 196/196/196
f 211/211/211 181/181/181 180/180/180
f 212/212/212 196/196/196 197/197/197
f 181/181/181 182/182/182 198/198/198
f 181/181/181 198/198/198 197/197/197
f 211/211/211 182/182/182 181/181/181
f 212/212/212 197/197/197 198/198/198
f 182/182/182 183/183/183 199/199/199
f 182/182/182 199/199/199 198/198/198
f 211/211/211 183/183/183 182/182/182
f 212/212/212 198/198/198 199/199/199
f 183/183/183 184/184/184 200/200/200
f 183/183/183 200/200/200 199/199/199
f 211/211/211 184/184/184 183/183/183
f 212/212/212 199/199/199 200/200/200
f 184/184/184 185/185/185 201/201/201
f 184/184/184 201/201/201 200/200/200
f 211/211/211 185/185/185 184/184/184
f 212/212/212 200/200/200 201/201/201
f 185/185/185 186/186/186 202/202/202
f 185/185/185 202/202/202 201/201/201
f 211/211/211 186/186/186 185/185/185
f 212/212/212 201/201/201 202/202/202
f 186/186/186 187/187/187 203/203/203
f 186/186/186 203/203/203 202/202/202
f 211/211/211 187/187/187 186/186/186
f 212/212/212 202/202/202 203/203/203
f 187/187/187 188/188/188 204/204/204
f 187/187/187 204/204/204 203/203/203
f 211/211/211 188/188/188 187/187/187
f 212/212/212 203/203/203 204/204/204
f 188/188/188 189/189/189 205/205/205
f 188/188/188 205/205/205 204/204/204
f 211/211/211 189/189/189 188/188/188
f 212/212/212 204/204/204 205/205/205
f 189/189/189 190/190/190 206/206/206
f 189/189/189 206/206/206 205/205/205
f 211/211/211 190/190/190 189/189/189
f 212/212/212 205/205/205 206/206/206
f 190/190/190 191/191/191 207/207/207
f 190/190/190 207/207/207 206/206/206
f 211/211/211 191/191/191 190/190/190
f 212/212/212 206/206/206 207/207/207
f 191/191/191 192/192/192 208/208/208
f 191/191/191 208/208/208 207/207/207
f 211/211/211 192/192/192 191/191/191
f 212/212/212 207/207/207 208/208/208
f 192/192/192 193/193/193 209/209/209
f 192/192/192 209/209/209 208/208/208
f 211/211/211 193/193/193 192/192/192
f 212/212/212 208/208/208 209/209/209
f 193/193/193 194/194/194 210/210/210
f 193/193/193 210/210/210 209/209/209
f 211/211/211 194/194/194 193/193/193
f 212/212/212 209/209/209 210/210/210
f 194/194/194 179/179/179 195/195/195
f 194/194/194 195/195/195 210/210/210
f 211/211/211 179/179/179 194/194/194
f 212/212/212 210/210/210 195/195/195
f 213/213/213 214/214/214 230/230/230
f 213/213/213 230/230/230 229/229/229
f 245/245/245 214/214/214 213/213/213
f 246/246/246 229/229/229 230/230/230
f 214/214/214 215/215/215 231/231/231
f 214/214/214 231/231/231 230/230/230
f 245/245/245 215/215/215 214/214/214
f 246/246/246 230/230/230 231/231/231
f 215/215/215 216/216/216 232/232/232
f 215/215/215 232/232/232 231/231/231
f 245/245/245 216/216/216 215/215/215
f 246/246/246 231/231/231 232/232/232
f 216/216/216 217/217/217 233/233/233
f 216/216/216 233/233/233 232/232/232
f 245/245/245 217/217/217 216/216/216
f 246/246/246 232/232/232 233/233/233
f 217/217/217 218/218/218 234/234/234
f 217/217/217 234/234/234 233/233/233
f 245/245/245 218/218/218 217/217/217
f 246/246/246 233/233/233 234/234/234
f 218/218/218 219/219/219 235/235/235
f 218/218/218 235/235/235 234/234/234
f 245/245/245 219/219/219 218/218/218
f 246/246/246 234/234/234 235/235/235
f 219/219/219 220/220/220 236/236/236
f 219/219/219 236/236/236 235/235/235
f 245/245/245 220/220/220 219/219/219
f 246/246/246 235/235/235 236/236/236
f 220/220/220 221/221/221 237/237/237
f 220/220/220 237/237/237 236/236/236
f 245/245/245 221/221/221 220/220/220
f 246/246/246 236/236/236 237/237/237
f 221/221/221 222/222/222 238/238/238
f 221/221/221 238/238/238 237/237/237
f 245/245/245 222/222/222 221/221/221
f 246/246/246 237/237/237 238/238/238
f 222/222/222 223/223/223 239/239/239
f 222/222/222 239/239/239 238/238/238
f 245/245/245 223/223/223 222/222/222
f 246/246/246 238/238/238 239/239/239
f 223/223/223 224/224/224 240/240/240
f 223/223/223 240/240/240 239/239/239
f 245/245/245 224/224/224 223/223/223
f 246/246/246 239/239/239 240/240/240
f 224/224/224 225/225/225 241/241/241
f 224/224/224 241/241/241 240/240/240
f 245/245/245 225/225/225 224/224/224
f 246/246/246 240/240/240 241/241/241
f 225/225/225 226/226/226 242/242/242
f 225/225/225 242/242/242 241/241/241
f 245/245/245 226/226/226 225/225/225
f 246/246/246 241/241/241 242/242/242
f 226/226/226 227/227/227 243/243/243
f 226/226/226 243/243/243 242/242/242
f 245/245/245 227/227/227 226/226/226
f 246/246/246 242/242/242 243/243/243
f 227/227/227 228/228/228 244/244/244
f 227/227/227 244/244/244 243/243/243
f 245/245/245 228/228/228 227/227/227
f 246/246/246 243/243/243 244/244/244
f 228/228/228 213/213/213 229/229/229
f 228/228/228 229/229/229 244/244/244
f 245/245/245 213/213/213 228/228/228
f 246/246/246 244/244/244 229/229/229
f 247/247/247 248/248/248 264/264/264
f 247/247/247 264/264/264 263/263/263
f 279/279/279 248/248/248 247/247/247
f 280/280/280 263/263/263 264/264/264
f 248/248/248 249/249/249 265/265/265
f 248/248/248 265/265/265 264/264/264
f 279/279/279 249/249/249 248/248/248
f 280/280/280 264/264/264 265/265/265
f 249/249/249 250/250/250 266/266/266
f 249/249/249 266/266/266 265/265/265
f 279/279/279 250/250/250 249/249/249
f 280/280/280 265/265/265 266/266/266
f 250/250/250 251/251/251 267/267/267
f 250/250/250 267/267/267 266/266/266
f 279/279/279 251/251/251 250/250/250
f 280/280/280 266/266/266 267/267/267
f 251/251/251 252/252/252 268/268/268
f 251/251/251 268/268/268 267/267/267
f 279/279/279 252/252/252 251/251/251
f 280/280/280 267/267/267 268/268/268
f 252/252/252 253/253/253 269/269/269
f 252/252/252 269/269/269 268/268/268
f 279/279/279 253/253/253 252/252/252
f 280/280/280 268/268/268 269/269/269
f 253/253/253 254/254/254 270/270/270
f 253/253/253 270/270/270 269/269/269
f 279/279/279 254/254/254 253/253/253
f 280/280/280 269/269/269 270/270/270
f 254/254/254 255/255/255 271/271/271
f 254/254/254 271/271/271 270/270/270
f 279/279/279 255/255/255 254/254/254
f 280/280/280 270/270/270 271/271/271
f 255/255/255 256/256/256 272/272/272
f 255/255/255 272/272/272 271/271/271
f 279/279/279 256/256/256 255/255/255
f 280/280/280 271/271/271 272/272/272
f 256/256/256 257/257/257 273/273/273
f 256/256/256 273/273/273 272/272/272
f 279/279/279 257/257/257 256/256/256
f 280/280/280 272/272/272 273/273/273
f 257/257/257 258/258/258 274/274/274
f 257/257/257 274/274/274 273/273/273
f 279/279/279 258/258/258 257/257/257
f 280/280/280 273/273/273 274/274/274
f 258/258/258 259/259/259 275/275/275
f 258/258/258 275/275/275 274/274/274
f 279/279/279 259/259/259 258/258/258
f 280/280/280 274/274/274 275/275/275
f 259/259/259 260/260/260 276/276/276
f 259/259/259 276/276/276 275/275/275
f 279/279/279 260/260/260 259/259/259
f 280/280/280 275/275/275 276/276/276
f 260/260/260 261/261/261 277/277/277
f 260/260/260 277/277/277 276/276/276
f 279/279/279 261/261/261 260/260/260
f 280/280/280 276/276/276 277/277/277
f 261/261/261 262/262/262 278/278/278
f 261/261/261 278/278/278 277/277/277
f 279/279/279 262/262/262 261/261/261
f 280/280/280 277/277/277 278/278/278
f 262/262/262 247/247/247 263/263/263
f 262/262/262 263/263/263 278/278/278
f 279/279/279 247/247/247 262/262/262
f 280/280/280 278/278/278 263/263/263
f 281/281/281 288/288/288 289/289/289
f 281/281/281 289/289/289 282/282/282
f 282/282/282 289/289/289 290/290/290
f 282/282/282 290/290/290 283/283/283
f 283/283/283 290/290/290 291/291/291
f 283/283/283 291/291/291 284/284/284
f 284/284/284 291/291/291 292/292/292
f 284/284/284 292/292/292 285/285/285
f 285/285/285 292/292/292 293/293/293
f 285/285/285 293/293/293 286/286/286
f 286/286/286 293/293/293 294/294/294
f 286/286/286 294/294/294 287/287/287
f 288/288/288 295/295/295 296/296/296
f 288/288/288 296/296/296 289/289/289
f 289/289/289 296/296/296 297/297/297
f 289/289/289 297/297/297 290/290/290
f 290/290/290 297/297/297 298/298/298
f 290/290/290 298/298/298 291/291/291
f 291/291/291 298/298/298 299/299/299
f 291/291/291 299/299/299 292/292/292
f 292/292/292 299/299/299 300/300/300
f 292/292/292 300/300/300 293/293/293
f 293/293/293 300/300/300 301/301/301
f 293/293/293 301/301/301 294/294/294
f 295/295/295 302/302/302 303/303/303
f 295/295/295 303/303/303 296/296/296
f 296/296/296 303/303/303 304/304/304
f 296/296/296 304/304/304 297/297/297
f 297/297/297 304/304/304 305/305/305
f 297/297/297 305/305/305 298/298/298
f 298/298/298 305/305/305 306/306/306
f 298/298/298 306/306/306 299/299/299
f 299/299/299 306/306/306 307/307/307
f 299/299/299 307/307/307 300/300/300
f 300/300/300 307/307/307 308/308/308
f 300/300/300 308/308/308 301/301/301
f 302/302/302 309/309/309 310/310/310
f 302/302/302 310/310/310 303/303/303
f 303/303/303 310/310/310 311/311/311
f 303/303/303 311/311/311 304/304/304
f 304/304/304 311/311/311 312/312/312
f 304/304/304 312/312/312 305/305/305
f 305/305/305 312/312/312 313/313/313
f 305/305/305 313/313/313 306/306/306
f 306/306/306 313/313/313 314/314/314
f 306/306/306 314/314/314 307/307/307
f 307/307/307 314/314/314 315/315/315
f 307/307/307 315/315/315 308/308/308
f 309/309/309 316/316/316 317/317/317
f 309/309/309 317/317/317 310/310/310
f 310/310/310 317/317/317 318/318/318
f 310/310/310 318/318/318 311/311/311
f 311/311/311 318/318/318 319/319/319
f 311/311/311 319/319/319 312/312/312
f 312/312/312 319/319/319 320/320/320
f 312/312/312 320/320/320 313/313/313
f 313/313/313 320/320/320 321/321/321
f 313/313/313 321/321/321 314/314/314
f 314/314/314 321/321/321 322/322/322
f 314/314/314 322/322/322 315/315/315
f 316/316/316 323/323/323 324/324/324
f 316/316/316 324/324/324 317/317/317
f 317/317/317 324/324/324 325/325/325
f 317/317/317 325/325/325 318/318/318
f 318/318/318 325/325/325 326/326/326
f 318/318/318 326/326/326 319/319/319
f 319/319/319 326/326/326 327/327/327
f 319/319/319 327/327/327 320/320/320
f 320/320/320 327/327/327 328/328/328
f 320/320/320 328/328/328 321/321/321
f 321/321/321 328/328/328 329/329/329
f 321/321/321 329/329/329 322/322/322
f 323/323/323 330/330/330 331/331/331
f 323/323/323 331/331/331 324/324/324
f 324/324/324 331/331/331 332/332/332
f 324/324/324 332/332/332 325/325/325
f 325/325/325 332/332/332 333/333/333
f 325/325/325 333/333/333 326/326/326
f 326/326/326 333/333/333 334/334/334
f 326/326/326 334/334/334 327/327/327
f 327/327/327 334/334/334 335/335/335
f 327/327/327 335/335/335 328/328/328
f 328/328/328 335/335/335 336/336/336
f 328/328/328 336/336/336 329/329/329
f 330/330/330 337/337/337 338/338/338
f 330/330/330 338/338/338 331/331/331
f 331/331/331 338/338/338 339/339/339
f 331/331/331 339/339/339 332/332/332
f 332/332/332 339/339/339 340/340/340
f 332/332/332 340/340/340 333/333/333
f 333/333/333 340/340/340 341/341/341
f 333/333/333 341/341/341 334/334/334
f 334/334/334 341/341/341 342/342/342
f 334/334/334 342/342/342 335/335/335
f 335/335/335 342/342/342 343/343/343
f 335/335/335 343/343/343 336/336/336
f 337/337/337 344/344/344 345/345/345
f 337/337/337 345/345/345 338/338/338
f 338/338/338 345/345/345 346/346/346
f 338/338/338 346/346/346 339/339/339
f 339/339/339 346/346/346 347/347/347
f 339/339/339 347/347/347 340/340/340
f 340/340/340 347/347/347 348/348/348
f 340/340/340 348/348/348 341/341/341
f 341/341/341 348/348/348 349/349/349
f 341/341/341 349/349/349 342/342/342
f 342/342/342 349/349/349 350/350/350
f 342/342/342 350/350/350 343/343/343
f 344/344/344 351/351/351 352/352/352
f 344/344/344 352/352/352 345/345/345
f 345/345/345 352/352/352 353/353/353
f 345/345/345 353/353/353 346/346/346
f 346/346/346 353/353/353 354/354/354
f 346/346/346 354/354/354 347/347/347
f 347/347/347 354/354/354 355/355/355
f 347/347/347 355/355/355 348/348/348
f 348/348/348 355/355/355 356/356/356
f 348/348/348 356/356/356 349/349/349
f 349/349/349 356/356/356 357/357/357
f 349/349/349 357/357/357 350/350/350
f 358/358/358 365/365/365 366/366/366
f 358/358/358 366/366/366 359/359/359
f 359/359/359 366/366/366 367/367/367
f 359/359/359 367/367/367 360/360/360
f 360/360/360 367/367/367 368/368/368
f 360/360/360 368/368/368 361/361/361
f 361/361/361 368/368/368 369/369/369
f 361/361/361 369/369/369 362/362/362
f 362/362/362 369/369/369 370/370/370
f 362/362/362 370/370/370 363/363/363
f 363/363/363 370/370/370 371/371/371
f 363/363/363 371/371/371 364/364/364
f 365/365/365 372/372/372 373/373/373
f 365/365/365 373/373/373 366/366/366
f 366/366/366 373/373/373 374/374/374
f 366/366/366 374/374/374 367/367/367
f 367/367/367 374/374/374 375/375/375
f 367/367/367 375/375/375 368/368/368
f 368/368/368 375/375/375 376/376/376
f 368/368/368 376/376/376 369/369/369
f 369/369/369 376/376/376 377/377/377
f 369/369/369 377/377/377 370/370/370
f 370/370/370 377/377/377 378/378/378
f 370/370/370 378/378/378 371/371/371
f 372/372/372 379/379/379 380/380/380
f 372/372/372 380/380/380 373/373/373
f 373/373/373 380/380/380 381/381/381
f 373/373/373 381/381/381 374/374/374
f 374/374/374 381/381/381 382/382/382
f 374/374/374 382/382/382 375/375/375
f 375/375/375 382/382/382 383/383/383
f 375/375/375 383/383/383 376/376/376
f 376/376/376 383/383/383 384/384/384
f 376/376/376 384/384/384 377/377/377
f 377/377/377 384/384/384 385/385/385
f 377/377/377 385/385/385 378/378/378
f 379/379/379 386/386/386 387/387/387
f 379/379/379 387/387/387 380/380/380
f 380/380/380 387/387/387 388/388/388
f 380/380/380 388/388/388 381/381/381
f 381/381/381 388/388/388 389/389/389
f 381/381/381 389/389/389 382/382/382
f 382/382/382 389/389/389 390/390/390
f 382/382/382 390/390/390 383/383/383
f 383/383/383 390/390/390 391/391/391
f 383/383/383 391/391/391 384/384/384
f 384/384/384 391/391/391 392/392/392
f 384/384/384 392/392/392 385/385/385
f 386/386/386 393/393/393 394/394/394
f 386/386/386 394/394/394 387/387/387
f 387/387/387 394/394/394 395/395/395
f 387/387/387 395/395/395 388/388/388
f 388/388/388 395/395/395 396/396/396
f 388/388/388 396/396/396 389/389/389
f 389/389/389 396/396/396 397/397/397
f 389/389/389 397/397/397 390/390/390
f 390/390/390 397/397/397 398/398/398
f 390/390/390 398/398/398 391/391/391
f 391/391/391 398/398/398 399/399/399
f 391/391/391 399/399/399 392/392/392
f 393/393/393 400/400/400 401/401/401
f 393/393/393 401/401/401 394/394/394
f 394/394/394 401/401/401 402/402/402
f 394/394/394 402/402/402 395/395/395
f 395/395/395 402/402/402 403/403/403
f 395/395/395 403/403/403 396/396/396
f 396/396/396 403/403/403 404/404/404
f 396/396/396 404/404/404 397/397/397
f 397/397/397 404/404/404 405/405/405
f 397/397/397 405/405/405 398/398/398
f 398/398/398 405/405/405 406/406/406
f 398/398/398 406/406/406 399/399/399
f 400/400/400 407/407/407 408/408/408
f 400/400/400 408/408/408 401/401/401
f 401/401/401 408/408/408 409/409/409
f 401/401/401 409/409/409 402/402/402
f 402/402/402 409/409/409 410/410/410
f 402/402/402 410/410/410 403/403/403
f 403/403/403 410/410/410 411/411/411
f 403/403/403 411/411/411 404/404/404
f 404/404/404 411/411/411 412/412/412
f 404/404/404 412/412/412 405/405/405
f 405/405/405 412/412/412 413/413/413
f 405/405/405 413/413/413 406/406/406
f 407/407/407 414/414/414 415/415/415
f 407/407/407 415/415/415 408/408/408
f 408/408/408 415/415/415 416/416/416
f 408/408/408 416/416/416 409/409/409
f 409/409/409 416/416/416 417/417/417
f 409/409/409 417/417/417 410/410/410
f 410/410/410 417/417/417 418/418/418
f 410/410/410 418/418/418 411/411/411
f 411/411/411 418/418/418 419/419/419
f 411/411/411 419/419/419 412/412/412
f 412/412/412 419/419/419 420/420/420
f 412/412/412 420/420/420 413/413/413
f 414/414/414 421/421/421 422/422/422
f 414/414/414 422/422/422 415/415/415
f 415/415/415 422/422/422 423/423/423
f 415/415/415 423/423/423 416/416/416
f 416/416/416 423/423/423 424/424/424
f 416/416/416 424/424/424 417/417/417
f 417/417/417 424/424/424 425/425/425
f 417/417/417 425/425/425 418/418/418
f 418/418/418 425/425/425 426/426/426
f 418/418/418 426/426/426 419/419/419
f 419/419/419 426/426/426 427/427/427
f 419/419/419 427/427/427 420/420/420
f 421/421/421 428/428/428 429/429/429
f 421/421/421 429/429/429 422/422/422
f 422/422/422 429/429/429 430/430/430
f 422/422/422 430/430/430 423/423/423
f 423/423/423 430/430/430 431/431/431
f 423/423/423 431/431/431 424/424/424
f 424/424/424 431/431/431 432/432/432
f 424/424/424 432/432/432 425/425/425
f 425/425/425 432/432/432 433/433/433
f 425/425/425 433/433/433 426/426/426
f 426/426/426 433/433/433 434/434/434
f 426/426/426 434/434/434 427/427/427
f 435/435/435 442/442/442 443/443/443
f 435/435/435 443/443/443 436/436/436
f 436/436/436 443/443/443 444/444/444
f 436/436/436 444/444/444 437/437/437
f 437/437/437 444/444/444 445/445/445
f 437/437/437 445/445/445 438/438/438
f 438/438/438 445/445/445 446/446/446
f 438/438/438 446/446/446 439/439/439
f 439/439/439 446/446/446 447/447/447
f 439/439/439 447/447/447 440/440/440
f 440/440/440 447/447/447 448/448/448
f 440/440/440 448/448/448 441/441/441
f 442/442/442 449/449/449 450/450/450
f 442/442/442 450/450/450 443/443/443
f 443/443/443 450/450/450 451/451/451
f 443/443/443 451/451/451 444/444/444
f 444/444/444 451/451/451 452/452/452
f 444/444/444 452/452/452 445/445/445
f 445/445/445 452/452/452 453/453/453
f 445/445/445 453/453/453 446/446/446
f 446/446/446 453/453/453 454/454/454
f 446/446/446 454/454/454 447/447/447
f 447/447/447 454/454/454 455/455/455
f 447/447/447 455/455/455 448/448/448
f 449/449/449 456/456/456 457/457/457
f 449/449/449 457/457/457 450/450/450
f 450/450/450 457/457/457 458/458/458
f 450/450/450 458/458/458 451/451/451
f 451/451/451 458/458/458 459/459/459
f 451/451/451 459/459/459 452/452/452
f 452/452/452 459/459/459 460/460/460
f 452/452/452 460/460/460 453/453/453
f 453/453/453 460/460/460 461/461/461
f 453/453/453 461/461/461 454/454/454
f 454/454/454 461/461/461 462/462/462
f 454/454/454 462/462/462 455/455/455
f 456/456/456 463/463/463 464/464/464
f 456/456/456 464/464/464 457/457/457
f 457/457/457 464/464/464 465/465/465
f 457/457/457 465/465/465 458/458/458
f 458/458/458 465/465/465 466/466/466
f 458/458/458 466/466/466 459/459/459
f 459/459/459 466/466/466 467/467/467
f 459/459/459 467/467/467 460/460/460
f 460/460/460 467/467/467 468/468/468
f 460/460/460 468/468/468 461/461/461
f 461/461/461 468/468/468 469/469/469
f 461/461/461 469/469/469 462/462/462
f 463/463/463 470/470/470 471/471/471
f 463/463/463 471/471/471 464/464/464
f 464/464/464 471/471/471 472/472/472
f 464/464/464 472/472/472 465/465/465
f 465/465/465 472/472/472 473/473/473
f 465/465/465 473/473/473 466/466/466
f 466/466/466 473/473/473 474/474/474
f 466/466/466 474/474/474 467/467/467
f 467/467/467 474/474/474 475/475/475
f 467/467/467 475/475/475 468/468/468
f 468/468/468 475/475/475 476/476/476
f 468/468/468 476/476/476 469/469/469
f 470/470/470 477/477/477 478/478/478
f 470/470/470 478/478/478 471/471/471
f 471/471/471 478/478/478 479/479/479
f 471/471/471 479/479/479 472/472/472
f 472/472/472 479/479/479 480/480/480
f 472/472/472 480/480/480 473/473/473
f 473/473/473 480/480/480 481/481/481
f 473/473/473 481/481/481 474/474/474
f 474/474/474 481/481/481 482/482/482
f 474/474/474 482/482/482 475/475/475
f 475/475/475 482/482/482 483/483/483
f 475/475/475 483/483/483 476/476/476
f 477/477/477 484/484/484 485/485/485
f 477/477/477 485/485/485 478/478/478
f 478/478/478 485/485/485 486/486/486
f 478/478/478 486/486/486 479/479/479
f 479/479/479 486/486/486 487/487/487
f 479/479/479 487/487/487 480/480/480
f 480/480/480 487/487/487 488/488/488
f 480/480/480 488/488/488 481/481/481
f 481/481/481 488/488/488 489/489/489
f 481/481/481 489/489/489 482/482/482
f 482/482/482 489/489/489 490/490/490
f 482/482/482 490/490/490 483/483/483
f 484/484/484 491/491/491 492/492/492
f 484/484/484 492/492/492 485/485/485
f 485/485/485 492/492/492 493/493/493
f 485/485/485 493/493/493 486/486/486
f 486/486/486 493/493/493 494/494/494
f 486/486/486 494/494/494 487/487/487
f 487/487/487 494/494/494 495/495/495
f 487/487/487 495/495/495 488/488/488
f 488/488/488 495/495/495 496/496/496
f 488/488/488 496/496/496 489/489/489
f 489/489/489 496/496/496 497/497/497
f 489/489/489 497/497/497 490/490/490
f 491/491/491 498/498/498 499/499/499
f 491/491/491 499/499/499 492/492/492
f 492/492/492 499/499/499 500/500/500
f 492/492/492 500/500/500 493/493/493
f 493/493/493 500/500/500 501/501/501
f 493/493/493 501/501/501 494/494/494
f 494/494/494 501/501/501 502/502/502
f 494/494/494 502/502/502 495/495/495
f 495/495/495 502/502/502 503/503/503
f 495/495/495 503/503/503 496/496/496
f 496/496/496 503/503/503 504/504/504
f 496/496/496 504/504/504 497/497/497
f 498/498/498 505/505/505 506/506/506
f 498/498/498 506/506/506 499/499/499
f 499/499/499 506/506/506 507/507/507
f 499/499/499 507/507/507 500/500/500
f 500/500/500 507/507/507 508/508/508
f 500/500/500 508/508/508 501/501/501
f 501/501/501 508/508/508 509/509/509
f 501/501/501 509/509/509 502/502/502
f 502/502/502 509/509/509 510/510/510
f 502/502/502 510/510/510 503/503/503
f 503/503/503 510/510/510 511/511/511
f 503/503/503 511/511/511 504/504/504
f 512/512/512 519/519/519 520/520/520
f 512/512/512 520/520/520 513/513/513
f 513/513/513 520/520/520 521/521/521
f 513/513/513 521/521/521 514/514/514
f 514/514/514 521/521/521 522/522/522
f 514/514/514 522/522/522 515/515/515
f 515/515/515 522/522/522 523/523/523
f 515/515/515 523/523/523 516/516/516
f 516/516/516 523/523/523 524/524/524
f 516/516/516 524/524/524 517/517/517
f 517/517/517 524/524/524 525/525/525
f 517/517/517 525/525/525 518/518/518
f 519/519/519 526/526/526 527/527/527
f 519/519/519 527/527/527 520/520/520
f 520/520/520 527/527/527 528/528/528
f 520/520/520 528/528/528 521/521/521
f 521/521/521 528/528/528 529/529/529
f 521/521/521 529/529/529 522/522/522
f 522/522/522 529/529/529 530/530/530
f 522/522/522 530/530/530 523/523/523
f 523/523/523 530/530/530 531/531/531
f 523/523/523 531/531/531 524/524/524
f 524/524/524 531/531/531 532/532/532
f 524/524/524 532/532/532 525/525/525
f 526/526/526 533/533/533 534/534/534
f 526/526/526 534/534/534 527/527/527
f 527/527/527 534/534/534 535/535/535
f 527/527/527 535/535/535 528/528/528
f 528/528/528 535/535/535 536/536/536
f 528/528/528 536/536/536 529/529/529
f 529/529/529 536/536/536 537/537/537
f 529/529/529 537/537/537 530/530/530
f 530/530/530 537/537/537 538/538/538
f 530/530/530 538/538/538 531/531/531
f 531/531/531 538/538/538 539/539/539
f 531/531/531 539/539/539 532/532/532
f 533/533/533 540/540/540 541/541/541
f 533/533/533 541/541/541 534/534/534
f 534/534/534 541/541/541 542/542/542
f 534/534/534 542/542/542 535/535/535
f 535/535/535 542/542/542 543/543/543
f 535/535/535 543/543/543 536/536/536
f 536/536/536 543/543/543 544/544/544
f 536/536/536 544/544/544 537/537/537
f 537/537/537 544/544/544 545/545/545
f 537/537/537 545/545/545 538/538/538
f 538/538/538 545/545/545 546/546/546
f 538/538/538 546/546/546 539/539/539
f 540/540/540 547/547/547 548/548/548
f 540/540/540 548/548/548 541/541/541
f 541/541/541 548/548/548 549/549/549
f 541/541/541 549/549/549 542/542/542
f 542/542/542 549/549/549 550/550/550
f 542/542/542 550/550/550 543/543/543
f 543/543/543 550/550/550 551/551/551
f 543/543/543 551/551/551 544/544/544
f 544/544/544 551/551/551 552/552/552
f 544/544/544 552/552/552 545/545/545
f 545/545/545 552/552/552 553/553/553
f 545/545/545 553/553/553 546/546/546
f 547/547/547 554/554/554 555/555/555
f 547/547/547 555/555/555 548/548/548
f 548/548/548 555/555/555 556/556/556
f 548/548/548 556/556/556 549/549/549
f 549/549/549 556/556/556 557/557/557
f 549/549/549 557/557/557 550/550/550
f 550/550/550 557/557/557 558/558/558
f 550/550/550 558/558/558 551/551/551
f 551/551/551 558/558/558 559/559/559
f 551/551/551 559/559/559 552/552/552
f 552/552/552 559/559/559 560/560/560
f 552/552/552 560/560/560 553/553/553
f 554/554/554 561/561/561 562/562/562
f 554/554/554 562/562/562 555/555/555
f 555/555/555 562/562/562 563/563/563
f 555/555/555 563/563/563 556/556/556
f 556/556/556 563/563/563 564/564/564
f 556/556/556 564/564/564 557/557/557
f 557/557/557 564/564/564 565/565/565
f 557/557/557 565/565/565 558/558/558
f 558/558/558 565/565/565 566/566/566
f 558/558/558 566/566/566 559/559/559
f 559/559/559 566/566/566 567/567/567
f 559/559/559 567/567/567 560/560/560
f 561/561/561 568/568/568 569/569/569
f 561/561/561 569/569/569 562/562/562
f 562/562/562 569/569/569 570/570/570
f 562/562/562 570/570/570 563/563/563
f 563/563/563 570/570/570 571/571/571
f 563/563/563 571/571/571 564/564/564
f 564/564/564 571/571/571 572/572/572
f 564/564/564 572/572/572 565/565/565
f 565/565/565 572/572/572 573/573/573
f 565/565/565 573/573/573 566/566/566
f 566/566/566 573/573/573 574/574/574
f 566/566/566 574/574/574 567/567/567
f 568/568/568 575/575/575 576/576/576
f 568/568/568 576/576/576 569/569/569
f 569/569/569 576/576/576 577/577/577
f 569/569/569 577/577/577 570/570/570
f 570/570/570 577/577/577 578/578/578
f 570/570/570 578/578/578 571/571/571
f 571/571/571 578/578/578 579/579/579
f 571/571/571 579/579/579 572/572/572
f 572/572/572 579/579/579 580/580/580
f 572/572/572 580/580/580 573/573/573
f 573/573/573 580/580/580 581/581/581
f 573/573/573 581/581/581 574/574/574
f 575/575/575 582/582/582 583/583/583
f 575/575/575 583/583/583 576/576/576
f 576/576/576 583/583/583 584/584/584
f 576/576/576 584/584/584 577/577/577
f 577/577/577 584/584/584 585/585/585
f 577/577/577 585/585/585 578/578/578
f 578/578/578 585/585/585 586/586/586
f 578/578/578 586/586/586 579/579/579
f 579/579/579 586/586/586 587/587/587
f 579/579/579 587/587/587 580/580/580
f 580/580/580 587/587/587 588/588/588
f 580/580/580 588/588/588 581/581/581