# 3D Model: vehicle/bike/5df81b4da9928fe4b137e2bc3acbae24 (v6 Gemini)
# Style: vehicle/bike | Symmetry: symmetric
# Dimensions: 1.85 x 1.09 x 0.713 m
# Triangles: 832 | Vertices: 486
v -0.175 0.33 0
v -0.1975 0.369 0
v -0.2425 0.369 0
v -0.265 0.33 0
v -0.2425 0.291 0
v -0.1975 0.291 0
v -0.175 0.33 0
v -0.2466 0.33 0.2204
v -0.2648 0.369 0.2072
v -0.3012 0.369 0.1807
v -0.3194 0.33 0.1675
v -0.3012 0.291 0.1807
v -0.2648 0.291 0.2072
v -0.2466 0.33 0.2204
v -0.4341 0.33 0.3566
v -0.4411 0.369 0.3352
v -0.455 0.369 0.2924
v -0.4619 0.33 0.2711
v -0.455 0.291 0.2924
v -0.4411 0.291 0.3352
v -0.4341 0.33 0.3566
v -0.6659 0.33 0.3566
v -0.6589 0.369 0.3352
v -0.645 0.369 0.2924
v -0.6381 0.33 0.2711
v -0.645 0.291 0.2924
v -0.6589 0.291 0.3352
v -0.6659 0.33 0.3566
v -0.8534 0.33 0.2204
v -0.8352 0.369 0.2072
v -0.7988 0.369 0.1807
v -0.7806 0.33 0.1675
v -0.7988 0.291 0.1807
v -0.8352 0.291 0.2072
v -0.8534 0.33 0.2204
v -0.925 0.33 0
v -0.9025 0.369 0
v -0.8575 0.369 0
v -0.835 0.33 0
v -0.8575 0.291 0
v -0.9025 0.291 0
v -0.925 0.33 0
v -0.8534 0.33 -0.2204
v -0.8352 0.369 -0.2072
v -0.7988 0.369 -0.1807
v -0.7806 0.33 -0.1675
v -0.7988 0.291 -0.1807
v -0.8352 0.291 -0.2072
v -0.8534 0.33 -0.2204
v -0.6659 0.33 -0.3566
v -0.6589 0.369 -0.3352
v -0.645 0.369 -0.2924
v -0.6381 0.33 -0.2711
v -0.645 0.291 -0.2924
v -0.6589 0.291 -0.3352
v -0.6659 0.33 -0.3566
v -0.4341 0.33 -0.3566
v -0.4411 0.369 -0.3352
v -0.455 0.369 -0.2924
v -0.4619 0.33 -0.2711
v -0.455 0.291 -0.2924
v -0.4411 0.291 -0.3352
v -0.4341 0.33 -0.3566
v -0.2466 0.33 -0.2204
v -0.2648 0.369 -0.2072
v -0.3012 0.369 -0.1807
v -0.3194 0.33 -0.1675
v -0.3012 0.291 -0.1807
v -0.2648 0.291 -0.2072
v -0.2466 0.33 -0.2204
v -0.175 0.33 0
v -0.1975 0.369 0
v -0.2425 0.369 0
v -0.265 0.33 0
v -0.2425 0.291 0
v -0.1975 0.291 0
v -0.175 0.33 0
v 0.925 0.33 0
v 0.9025 0.369 0
v 0.8575 0.369 0
v 0.835 0.33 0
v 0.8575 0.291 0
v 0.9025 0.291 0
v 0.925 0.33 0
v 0.8534 0.33 0.2204
v 0.8352 0.369 0.2072
v 0.7988 0.369 0.1807
v 0.7806 0.33 0.1675
v 0.7988 0.291 0.1807
v 0.8352 0.291 0.2072
v 0.8534 0.33 0.2204
v 0.6659 0.33 0.3566
v 0.6589 0.369 0.3352
v 0.645 0.369 0.2924
v 0.6381 0.33 0.2711
v 0.645 0.291 0.2924
v 0.6589 0.291 0.3352
v 0.6659 0.33 0.3566
v 0.4341 0.33 0.3566
v 0.4411 0.369 0.3352
v 0.455 0.369 0.2924
v 0.4619 0.33 0.2711
v 0.455 0.291 0.2924
v 0.4411 0.291 0.3352
v 0.4341 0.33 0.3566
v 0.2466 0.33 0.2204
v 0.2648 0.369 0.2072
v 0.3012 0.369 0.1807
v 0.3194 0.33 0.1675
v 0.3012 0.291 0.1807
v 0.2648 0.291 0.2072
v 0.2466 0.33 0.2204
v 0.175 0.33 0
v 0.1975 0.369 0
v 0.2425 0.369 0
v 0.265 0.33 0
v 0.2425 0.291 0
v 0.1975 0.291 0
v 0.175 0.33 0
v 0.2466 0.33 -0.2204
v 0.2648 0.369 -0.2072
v 0.3012 0.369 -0.1807
v 0.3194 0.33 -0.1675
v 0.3012 0.291 -0.1807
v 0.2648 0.291 -0.2072
v 0.2466 0.33 -0.2204
v 0.4341 0.33 -0.3566
v 0.4411 0.369 -0.3352
v 0.455 0.369 -0.2924
v 0.4619 0.33 -0.2711
v 0.455 0.291 -0.2924
v 0.4411 0.291 -0.3352
v 0.4341 0.33 -0.3566
v 0.6659 0.33 -0.3566
v 0.6589 0.369 -0.3352
v 0.645 0.369 -0.2924
v 0.6381 0.33 -0.2711
v 0.645 0.291 -0.2924
v 0.6589 0.291 -0.3352
v 0.6659 0.33 -0.3566
v 0.8534 0.33 -0.2204
v 0.8352 0.369 -0.2072
v 0.7988 0.369 -0.1807
v 0.7806 0.33 -0.1675
v 0.7988 0.291 -0.1807
v 0.8352 0.291 -0.2072
v 0.8534 0.33 -0.2204
v 0.925 0.33 0
v 0.9025 0.369 0
v 0.8575 0.369 0
v 0.835 0.33 0
v 0.8575 0.291 0
v 0.9025 0.291 0
v 0.925 0.33 0
v -0.25 0.315 0
v -0.2728 0.315 0.1148
v -0.3379 0.315 0.2121
v -0.4352 0.315 0.2772
v -0.55 0.315 0.3
v -0.6648 0.315 0.2772
v -0.7621 0.315 0.2121
v -0.8272 0.315 0.1148
v -0.85 0.315 0
v -0.8272 0.315 -0.1148
v -0.7621 0.315 -0.2121
v -0.6648 0.315 -0.2772
v -0.55 0.315 -0.3
v -0.4352 0.315 -0.2772
v -0.3379 0.315 -0.2121
v -0.2728 0.315 -0.1148
v -0.25 0.345 0
v -0.2728 0.345 0.1148
v -0.3379 0.345 0.2121
v -0.4352 0.345 0.2772
v -0.55 0.345 0.3
v -0.6648 0.345 0.2772
v -0.7621 0.345 0.2121
v -0.8272 0.345 0.1148
v -0.85 0.345 0
v -0.8272 0.345 -0.1148
v -0.7621 0.345 -0.2121
v -0.6648 0.345 -0.2772
v -0.55 0.345 -0.3
v -0.4352 0.345 -0.2772
v -0.3379 0.345 -0.2121
v -0.2728 0.345 -0.1148
v -0.55 0.315 0
v -0.55 0.345 0
v 0.85 0.315 0
v 0.8272 0.315 0.1148
v 0.7621 0.315 0.2121
v 0.6648 0.315 0.2772
v 0.55 0.315 0.3
v 0.4352 0.315 0.2772
v 0.3379 0.315 0.2121
v 0.2728 0.315 0.1148
v 0.25 0.315 0
v 0.2728 0.315 -0.1148
v 0.3379 0.315 -0.2121
v 0.4352 0.315 -0.2772
v 0.55 0.315 -0.3
v 0.6648 0.315 -0.2772
v 0.7621 0.315 -0.2121
v 0.8272 0.315 -0.1148
v 0.85 0.345 0
v 0.8272 0.345 0.1148
v 0.7621 0.345 0.2121
v 0.6648 0.345 0.2772
v 0.55 0.345 0.3
v 0.4352 0.345 0.2772
v 0.3379 0.345 0.2121
v 0.2728 0.345 0.1148
v 0.25 0.345 0
v 0.2728 0.345 -0.1148
v 0.3379 0.345 -0.2121
v 0.4352 0.345 -0.2772
v 0.55 0.345 -0.3
v 0.6648 0.345 -0.2772
v 0.7621 0.345 -0.2121
v 0.8272 0.345 -0.1148
v 0.55 0.315 0
v 0.55 0.345 0
v 0.23 0.175 0
v 0.2212 0.175 0.0212
v 0.2 0.175 0.03
v 0.1788 0.175 0.0212
v 0.17 0.175 0
v 0.1788 0.175 -0.0212
v 0.2 0.175 -0.03
v 0.2212 0.175 -0.0212
v 0.225 0.725 0
v 0.2177 0.725 0.0177
v 0.2 0.725 0.025
v 0.1823 0.725 0.0177
v 0.175 0.725 0
v 0.1823 0.725 -0.0177
v 0.2 0.725 -0.025
v 0.2177 0.725 -0.0177
v 0.2 0.175 0
v 0.2 0.725 0
v -0.025 0.37 0
v -0.0323 0.37 0.0177
v -0.05 0.37 0.025
v -0.0677 0.37 0.0177
v -0.075 0.37 0
v -0.0677 0.37 -0.0177
v -0.05 0.37 -0.025
v -0.0323 0.37 -0.0177
v -0.028 0.89 0
v -0.0344 0.89 0.0156
v -0.05 0.89 0.022
v -0.0656 0.89 0.0156
v -0.072 0.89 0
v -0.0656 0.89 -0.0156
v -0.05 0.89 -0.022
v -0.0344 0.89 -0.0156
v -0.05 0.37 0
v -0.05 0.89 0
v -0.275 0.275 0
v -0.2823 0.275 0.0177
v -0.3 0.275 0.025
v -0.3177 0.275 0.0177
v -0.325 0.275 0
v -0.3177 0.275 -0.0177
v -0.3 0.275 -0.025
v -0.2823 0.275 -0.0177
v -0.278 0.725 0
v -0.2844 0.725 0.0156
v -0.3 0.725 0.022
v -0.3156 0.725 0.0156
v -0.322 0.725 0
v -0.3156 0.725 -0.0156
v -0.3 0.725 -0.022
v -0.2844 0.725 -0.0156
v -0.3 0.275 0
v -0.3 0.725 0
v -0.402 0.25 0
v -0.4073 0.25 0.0127
v -0.42 0.25 0.018
v -0.4327 0.25 0.0127
v -0.438 0.25 0
v -0.4327 0.25 -0.0127
v -0.42 0.25 -0.018
v -0.4073 0.25 -0.0127
v -0.405 0.65 0
v -0.4094 0.65 0.0106
v -0.42 0.65 0.015
v -0.4306 0.65 0.0106
v -0.435 0.65 0
v -0.4306 0.65 -0.0106
v -0.42 0.65 -0.015
v -0.4094 0.65 -0.0106
v -0.42 0.25 0
v -0.42 0.65 0
v -0.262 0.13 0
v -0.2673 0.13 0.0127
v -0.28 0.13 0.018
v -0.2927 0.13 0.0127
v -0.298 0.13 0
v -0.2927 0.13 -0.0127
v -0.28 0.13 -0.018
v -0.2673 0.13 -0.0127
v -0.262 0.53 0
v -0.2673 0.53 0.0127
v -0.28 0.53 0.018
v -0.2927 0.53 0.0127
v -0.298 0.53 0
v -0.2927 0.53 -0.0127
v -0.28 0.53 -0.018
v -0.2673 0.53 -0.0127
v -0.28 0.13 0
v -0.28 0.53 0
v -0.11 0.28 0
v -0.1154 0.28 0.02
v -0.13 0.28 0.0346
v -0.15 0.28 0.04
v -0.17 0.28 0.0346
v -0.1846 0.28 0.02
v -0.19 0.28 0
v -0.1846 0.28 -0.02
v -0.17 0.28 -0.0346
v -0.15 0.28 -0.04
v -0.13 0.28 -0.0346
v -0.1154 0.28 -0.02
v -0.11 0.38 0
v -0.1154 0.38 0.02
v -0.13 0.38 0.0346
v -0.15 0.38 0.04
v -0.17 0.38 0.0346
v -0.1846 0.38 0.02
v -0.19 0.38 0
v -0.1846 0.38 -0.02
v -0.17 0.38 -0.0346
v -0.15 0.38 -0.04
v -0.13 0.38 -0.0346
v -0.1154 0.38 -0.02
v -0.15 0.28 0
v -0.15 0.38 0
v -0.165 0.19 0.01
v -0.135 0.19 0.01
v -0.135 0.37 0.01
v -0.165 0.37 0.01
v -0.165 0.19 0.03
v -0.135 0.19 0.03
v -0.135 0.37 0.03
v -0.165 0.37 0.03
v -0.22 0.165 0
v -0.14 0.165 0
v -0.14 0.195 0
v -0.22 0.195 0
v -0.22 0.165 0.1
v -0.14 0.165 0.1
v -0.14 0.195 0.1
v -0.22 0.195 0.1
v -0.325 0.62 0
v -0.3294 0.62 0.0106
v -0.34 0.62 0.015
v -0.3506 0.62 0.0106
v -0.355 0.62 0
v -0.3506 0.62 -0.0106
v -0.34 0.62 -0.015
v -0.3294 0.62 -0.0106
v -0.325 0.82 0
v -0.3294 0.82 0.0106
v -0.34 0.82 0.015
v -0.3506 0.82 0.0106
v -0.355 0.82 0
v -0.3506 0.82 -0.0106
v -0.34 0.82 -0.015
v -0.3294 0.82 -0.0106
v -0.34 0.62 0
v -0.34 0.82 0
v -0.5 0.78 -0.07
v -0.22 0.78 -0.07
v -0.22 0.86 -0.07
v -0.5 0.86 -0.07
v -0.5 0.78 0.07
v -0.22 0.78 0.07
v -0.22 0.86 0.07
v -0.5 0.86 0.07
v 0.41 0.5 0
v 0.4012 0.5 0.0212
v 0.38 0.5 0.03
v 0.3588 0.5 0.0212
v 0.35 0.5 0
v 0.3588 0.5 -0.0212
v 0.38 0.5 -0.03
v 0.4012 0.5 -0.0212
v 0.41 0.8 0
v 0.4012 0.8 0.0212
v 0.38 0.8 0.03
v 0.3588 0.8 0.0212
v 0.35 0.8 0
v 0.3588 0.8 -0.0212
v 0.38 0.8 -0.03
v 0.4012 0.8 -0.0212
v 0.38 0.5 0
v 0.38 0.8 0
v 0.5 0.29 0
v 0.4941 0.29 0.0141
v 0.48 0.29 0.02
v 0.4659 0.29 0.0141
v 0.46 0.29 0
v 0.4659 0.29 -0.0141
v 0.48 0.29 -0.02
v 0.4941 0.29 -0.0141
v 0.505 0.67 0
v 0.4977 0.67 0.0177
v 0.48 0.67 0.025
v 0.4623 0.67 0.0177
v 0.455 0.67 0
v 0.4623 0.67 -0.0177
v 0.48 0.67 -0.025
v 0.4977 0.67 -0.0177
v 0.48 0.29 0
v 0.48 0.67 0
v 0.37 0.79 0
v 0.3641 0.79 0.0141
v 0.35 0.79 0.02
v 0.3359 0.79 0.0141
v 0.33 0.79 0
v 0.3359 0.79 -0.0141
v 0.35 0.79 -0.02
v 0.3641 0.79 -0.0141
v 0.37 0.91 0
v 0.3641 0.91 0.0141
v 0.35 0.91 0.02
v 0.3359 0.91 0.0141
v 0.33 0.91 0
v 0.3359 0.91 -0.0141
v 0.35 0.91 -0.02
v 0.3641 0.91 -0.0141
v 0.35 0.79 0
v 0.35 0.91 0
v 0.348 0.62 0
v 0.3427 0.62 0.0127
v 0.33 0.62 0.018
v 0.3173 0.62 0.0127
v 0.312 0.62 0
v 0.3173 0.62 -0.0127
v 0.33 0.62 -0.018
v 0.3427 0.62 -0.0127
v 0.348 1.22 0
v 0.3427 1.22 0.0127
v 0.33 1.22 0.018
v 0.3173 1.22 0.0127
v 0.312 1.22 0
v 0.3173 1.22 -0.0127
v 0.33 1.22 -0.018
v 0.3427 1.22 -0.0127
v 0.33 0.62 0
v 0.33 1.22 0
v -0.06 0.305 0.03
v -0.0721 0.305 0.075
v -0.105 0.305 0.1079
v -0.15 0.305 0.12
v -0.195 0.305 0.1079
v -0.2279 0.305 0.075
v -0.24 0.305 0.03
v -0.2279 0.305 -0.015
v -0.195 0.305 -0.0479
v -0.15 0.305 -0.06
v -0.105 0.305 -0.0479
v -0.0721 0.305 -0.015
v -0.06 0.355 0.03
v -0.0721 0.355 0.075
v -0.105 0.355 0.1079
v -0.15 0.355 0.12
v -0.195 0.355 0.1079
v -0.2279 0.355 0.075
v -0.24 0.355 0.03
v -0.2279 0.355 -0.015
v -0.195 0.355 -0.0479
v -0.15 0.355 -0.06
v -0.105 0.355 -0.0479
v -0.0721 0.355 -0.015
v -0.15 0.305 0.03
v -0.15 0.355 0.03
v -0.54 0.24 -0.055
v -0.46 0.24 -0.055
v -0.46 0.32 -0.055
v -0.54 0.32 -0.055
v -0.54 0.24 -0.005
v -0.46 0.24 -0.005
v -0.46 0.32 -0.005
v -0.54 0.32 -0.005
vt 0 0
vt 0 0.16666666666666666
vt 0 0.3333333333333333
vt 0 0.5
vt 0 0.6666666666666666
vt 0 0.8333333333333334
vt 0 1
vt 0.1 0
vt 0.1 0.16666666666666666
vt 0.1 0.3333333333333333
vt 0.1 0.5
vt 0.1 0.6666666666666666
vt 0.1 0.8333333333333334
vt 0.1 1
vt 0.2 0
vt 0.2 0.16666666666666666
vt 0.2 0.3333333333333333
vt 0.2 0.5
vt 0.2 0.6666666666666666
vt 0.2 0.8333333333333334
vt 0.2 1
vt 0.3 0
vt 0.3 0.16666666666666666
vt 0.3 0.3333333333333333
vt 0.3 0.5
vt 0.3 0.6666666666666666
vt 0.3 0.8333333333333334
vt 0.3 1
vt 0.4 0
vt 0.4 0.16666666666666666
vt 0.4 0.3333333333333333
vt 0.4 0.5
vt 0.4 0.6666666666666666
vt 0.4 0.8333333333333334
vt 0.4 1
vt 0.5 0
vt 0.5 0.16666666666666666
vt 0.5 0.3333333333333333
vt 0.5 0.5
vt 0.5 0.6666666666666666
vt 0.5 0.8333333333333334
vt 0.5 1
vt 0.6 0
vt 0.6 0.16666666666666666
vt 0.6 0.3333333333333333
vt 0.6 0.5
vt 0.6 0.6666666666666666
vt 0.6 0.8333333333333334
vt 0.6 1
vt 0.7 0
vt 0.7 0.16666666666666666
vt 0.7 0.3333333333333333
vt 0.7 0.5
vt 0.7 0.6666666666666666
vt 0.7 0.8333333333333334
vt 0.7 1
vt 0.8 0
vt 0.8 0.16666666666666666
vt 0.8 0.3333333333333333
vt 0.8 0.5
vt 0.8 0.6666666666666666
vt 0.8 0.8333333333333334
vt 0.8 1
vt 0.9 0
vt 0.9 0.16666666666666666
vt 0.9 0.3333333333333333
vt 0.9 0.5
vt 0.9 0.6666666666666666
vt 0.9 0.8333333333333334
vt 0.9 1
vt 1 0
vt 1 0.16666666666666666
vt 1 0.3333333333333333
vt 1 0.5
vt 1 0.6666666666666666
vt 1 0.8333333333333334
vt 1 1
vt 0 0
vt 0 0.16666666666666666
vt 0 0.3333333333333333
vt 0 0.5
vt 0 0.6666666666666666
vt 0 0.8333333333333334
vt 0 1
vt 0.1 0
vt 0.1 0.16666666666666666
vt 0.1 0.3333333333333333
vt 0.1 0.5
vt 0.1 0.6666666666666666
vt 0.1 0.8333333333333334
vt 0.1 1
vt 0.2 0
vt 0.2 0.16666666666666666
vt 0.2 0.3333333333333333
vt 0.2 0.5
vt 0.2 0.6666666666666666
vt 0.2 0.8333333333333334
vt 0.2 1
vt 0.3 0
vt 0.3 0.16666666666666666
vt 0.3 0.3333333333333333
vt 0.3 0.5
vt 0.3 0.6666666666666666
vt 0.3 0.8333333333333334
vt 0.3 1
vt 0.4 0
vt 0.4 0.16666666666666666
vt 0.4 0.3333333333333333
vt 0.4 0.5
vt 0.4 0.6666666666666666
vt 0.4 0.8333333333333334
vt 0.4 1
vt 0.5 0
vt 0.5 0.16666666666666666
vt 0.5 0.3333333333333333
vt 0.5 0.5
vt 0.5 0.6666666666666666
vt 0.5 0.8333333333333334
vt 0.5 1
vt 0.6 0
vt 0.6 0.16666666666666666
vt 0.6 0.3333333333333333
vt 0.6 0.5
vt 0.6 0.6666666666666666
vt 0.6 0.8333333333333334
vt 0.6 1
vt 0.7 0
vt 0.7 0.16666666666666666
vt 0.7 0.3333333333333333
vt 0.7 0.5
vt 0.7 0.6666666666666666
vt 0.7 0.8333333333333334
vt 0.7 1
vt 0.8 0
vt 0.8 0.16666666666666666
vt 0.8 0.3333333333333333
vt 0.8 0.5
vt 0.8 0.6666666666666666
vt 0.8 0.8333333333333334
vt 0.8 1
vt 0.9 0
vt 0.9 0.16666666666666666
vt 0.9 0.3333333333333333
vt 0.9 0.5
vt 0.9 0.6666666666666666
vt 0.9 0.8333333333333334
vt 0.9 1
vt 1 0
vt 1 0.16666666666666666
vt 1 0.3333333333333333
vt 1 0.5
vt 1 0.6666666666666666
vt 1 0.8333333333333334
vt 1 1
vt 0 0
vt 0.0625 0
vt 0.125 0
vt 0.1875 0
vt 0.25 0
vt 0.3125 0
vt 0.375 0
vt 0.4375 0
vt 0.5 0
vt 0.5625 0
vt 0.625 0
vt 0.6875 0
vt 0.75 0
vt 0.8125 0
vt 0.875 0
vt 0.9375 0
vt 0 1
vt 0.0625 1
vt 0.125 1
vt 0.1875 1
vt 0.25 1
vt 0.3125 1
vt 0.375 1
vt 0.4375 1
vt 0.5 1
vt 0.5625 1
vt 0.625 1
vt 0.6875 1
vt 0.75 1
vt 0.8125 1
vt 0.875 1
vt 0.9375 1
vt 0.5 0.5
vt 0.5 0.5
vt 0 0
vt 0.0625 0
vt 0.125 0
vt 0.1875 0
vt 0.25 0
vt 0.3125 0
vt 0.375 0
vt 0.4375 0
vt 0.5 0
vt 0.5625 0
vt 0.625 0
vt 0.6875 0
vt 0.75 0
vt 0.8125 0
vt 0.875 0
vt 0.9375 0
vt 0 1
vt 0.0625 1
vt 0.125 1
vt 0.1875 1
vt 0.25 1
vt 0.3125 1
vt 0.375 1
vt 0.4375 1
vt 0.5 1
vt 0.5625 1
vt 0.625 1
vt 0.6875 1
vt 0.75 1
vt 0.8125 1
vt 0.875 1
vt 0.9375 1
vt 0.5 0.5
vt 0.5 0.5
vt 0 0
vt 0.125 0
vt 0.25 0
vt 0.375 0
vt 0.5 0
vt 0.625 0
vt 0.75 0
vt 0.875 0
vt 0 1
vt 0.125 1
vt 0.25 1
vt 0.375 1
vt 0.5 1
vt 0.625 1
vt 0.75 1
vt 0.875 1
vt 0.5 0.5
vt 0.5 0.5
vt 0 0
vt 0.125 0
vt 0.25 0
vt 0.375 0
vt 0.5 0
vt 0.625 0
vt 0.75 0
vt 0.875 0
vt 0 1
vt 0.125 1
vt 0.25 1
vt 0.375 1
vt 0.5 1
vt 0.625 1
vt 0.75 1
vt 0.875 1
vt 0.5 0.5
vt 0.5 0.5
vt 0 0
vt 0.125 0
vt 0.25 0
vt 0.375 0
vt 0.5 0
vt 0.625 0
vt 0.75 0
vt 0.875 0
vt 0 1
vt 0.125 1
vt 0.25 1
vt 0.375 1
vt 0.5 1
vt 0.625 1
vt 0.75 1
vt 0.875 1
vt 0.5 0.5
vt 0.5 0.5
vt 0 0
vt 0.125 0
vt 0.25 0
vt 0.375 0
vt 0.5 0
vt 0.625 0
vt 0.75 0
vt 0.875 0
vt 0 1
vt 0.125 1
vt 0.25 1
vt 0.375 1
vt 0.5 1
vt 0.625 1
vt 0.75 1
vt 0.875 1
vt 0.5 0.5
vt 0.5 0.5
vt 0 0
vt 0.125 0
vt 0.25 0
vt 0.375 0
vt 0.5 0
vt 0.625 0
vt 0.75 0
vt 0.875 0
vt 0 1
vt 0.125 1
vt 0.25 1
vt 0.375 1
vt 0.5 1
vt 0.625 1
vt 0.75 1
vt 0.875 1
vt 0.5 0.5
vt 0.5 0.5
vt 0 0
vt 0.08333333333333333 0
vt 0.16666666666666666 0
vt 0.25 0
vt 0.3333333333333333 0
vt 0.4166666666666667 0
vt 0.5 0
vt 0.5833333333333334 0
vt 0.6666666666666666 0
vt 0.75 0
vt 0.8333333333333334 0
vt 0.9166666666666666 0
vt 0 1
vt 0.08333333333333333 1
vt 0.16666666666666666 1
vt 0.25 1
vt 0.3333333333333333 1
vt 0.4166666666666667 1
vt 0.5 1
vt 0.5833333333333334 1
vt 0.6666666666666666 1
vt 0.75 1
vt 0.8333333333333334 1
vt 0.9166666666666666 1
vt 0.5 0.5
vt 0.5 0.5
vt 0.5 0.5
vt 0.5 0.5
vt 0.5 0.5
vt 0.5 0.5
vt 0.5 0.5
vt 0.5 0.5
vt 0.5 0.5
vt 0.5 0.5
vt 0.5 0.5
vt 0.5 0.5
vt 0.5 0.5
vt 0.5 0.5
vt 0.5 0.5
vt 0.5 0.5
vt 0.5 0.5
vt 0.5 0.5
vt 0 0
vt 0.125 0
vt 0.25 0
vt 0.375 0
vt 0.5 0
vt 0.625 0
vt 0.75 0
vt 0.875 0
vt 0 1
vt 0.125 1
vt 0.25 1
vt 0.375 1
vt 0.5 1
vt 0.625 1
vt 0.75 1
vt 0.875 1
vt 0.5 0.5
vt 0.5 0.5
vt 0.5 0.5
vt 0.5 0.5
vt 0.5 0.5
vt 0.5 0.5
vt 0.5 0.5
vt 0.5 0.5
vt 0.5 0.5
vt 0.5 0.5
vt 0 0
vt 0.125 0
vt 0.25 0
vt 0.375 0
vt 0.5 0
vt 0.625 0
vt 0.75 0
vt 0.875 0
vt 0 1
vt 0.125 1
vt 0.25 1
vt 0.375 1
vt 0.5 1
vt 0.625 1
vt 0.75 1
vt 0.875 1
vt 0.5 0.5
vt 0.5 0.5
vt 0 0
vt 0.125 0
vt 0.25 0
vt 0.375 0
vt 0.5 0
vt 0.625 0
vt 0.75 0
vt 0.875 0
vt 0 1
vt 0.125 1
vt 0.25 1
vt 0.375 1
vt 0.5 1
vt 0.625 1
vt 0.75 1
vt 0.875 1
vt 0.5 0.5
vt 0.5 0.5
vt 0 0
vt 0.125 0
vt 0.25 0
vt 0.375 0
vt 0.5 0
vt 0.625 0
vt 0.75 0
vt 0.875 0
vt 0 1
vt 0.125 1
vt 0.25 1
vt 0.375 1
vt 0.5 1
vt 0.625 1
vt 0.75 1
vt 0.875 1
vt 0.5 0.5
vt 0.5 0.5
vt 0 0
vt 0.125 0
vt 0.25 0
vt 0.375 0
vt 0.5 0
vt 0.625 0
vt 0.75 0
vt 0.875 0
vt 0 1
vt 0.125 1
vt 0.25 1
vt 0.375 1
vt 0.5 1
vt 0.625 1
vt 0.75 1
vt 0.875 1
vt 0.5 0.5
vt 0.5 0.5
vt 0 0
vt 0.08333333333333333 0
vt 0.16666666666666666 0
vt 0.25 0
vt 0.3333333333333333 0
vt 0.4166666666666667 0
vt 0.5 0
vt 0.5833333333333334 0
vt 0.6666666666666666 0
vt 0.75 0
vt 0.8333333333333334 0
vt 0.9166666666666666 0
vt 0 1
vt 0.08333333333333333 1
vt 0.16666666666666666 1
vt 0.25 1
vt 0.3333333333333333 1
vt 0.4166666666666667 1
vt 0.5 1
vt 0.5833333333333334 1
vt 0.6666666666666666 1
vt 0.75 1
vt 0.8333333333333334 1
vt 0.9166666666666666 1
vt 0.5 0.5
vt 0.5 0.5
vt 0.5 0.5
vt 0.5 0.5
vt 0.5 0.5
vt 0.5 0.5
vt 0.5 0.5
vt 0.5 0.5
vt 0.5 0.5
vt 0.5 0.5
vn 1 0 0
vn 0.5000000000000001 0.8660254037844386 0
vn -0.4999999999999998 0.8660254037844387 0
vn -1 1.2246467991473532e-16 0
vn -0.5000000000000004 -0.8660254037844385 0
vn 0.5000000000000001 -0.8660254037844386 0
vn 1 -2.4492935982947064e-16 0
vn 0.8090169943749475 0 0.5877852522924731
vn 0.40450849718747384 0.8660254037844386 0.2938926261462366
vn -0.40450849718747356 0.8660254037844387 -0.29389262614623646
vn -0.8090169943749475 1.2246467991473532e-16 -0.5877852522924731
vn -0.40450849718747406 -0.8660254037844385 -0.29389262614623685
vn 0.40450849718747384 -0.8660254037844386 0.2938926261462366
vn 0.8090169943749475 -2.4492935982947064e-16 0.5877852522924731
vn 0.30901699437494745 0 0.9510565162951535
vn 0.15450849718747375 0.8660254037844386 0.4755282581475769
vn -0.15450849718747367 0.8660254037844387 -0.47552825814757654
vn -0.30901699437494745 1.2246467991473532e-16 -0.9510565162951535
vn -0.15450849718747386 -0.8660254037844385 -0.4755282581475772
vn 0.15450849718747375 -0.8660254037844386 0.4755282581475769
vn 0.30901699437494745 -2.4492935982947064e-16 0.9510565162951535
vn -0.30901699437494734 0 0.9510565162951536
vn -0.1545084971874737 0.8660254037844386 0.47552825814757693
vn 0.15450849718747361 0.8660254037844387 -0.4755282581475766
vn 0.30901699437494734 1.2246467991473532e-16 -0.9510565162951536
vn 0.1545084971874738 -0.8660254037844385 -0.47552825814757727
vn -0.1545084971874737 -0.8660254037844386 0.47552825814757693
vn -0.30901699437494734 -2.4492935982947064e-16 0.9510565162951536
vn -0.8090169943749473 0 0.5877852522924732
vn -0.4045084971874738 0.8660254037844386 0.2938926261462367
vn 0.4045084971874735 0.8660254037844387 -0.2938926261462365
vn 0.8090169943749473 1.2246467991473532e-16 -0.5877852522924732
vn 0.404508497187474 -0.8660254037844385 -0.2938926261462369
vn -0.4045084971874738 -0.8660254037844386 0.2938926261462367
vn -0.8090169943749473 -2.4492935982947064e-16 0.5877852522924732
vn -1 0 1.2246467991473532e-16
vn -0.5000000000000001 0.8660254037844386 6.123233995736767e-17
vn 0.4999999999999998 0.8660254037844387 -6.123233995736764e-17
vn 1 1.2246467991473532e-16 -1.2246467991473532e-16
vn 0.5000000000000004 -0.8660254037844385 -6.123233995736771e-17
vn -0.5000000000000001 -0.8660254037844386 6.123233995736767e-17
vn -1 -2.4492935982947064e-16 1.2246467991473532e-16
vn -0.8090169943749475 0 -0.587785252292473
vn -0.40450849718747384 0.8660254037844386 -0.29389262614623657
vn 0.40450849718747356 0.8660254037844387 0.2938926261462364
vn 0.8090169943749475 1.2246467991473532e-16 0.587785252292473
vn 0.40450849718747406 -0.8660254037844385 0.2938926261462368
vn -0.40450849718747384 -0.8660254037844386 -0.29389262614623657
vn -0.8090169943749475 -2.4492935982947064e-16 -0.587785252292473
vn -0.30901699437494756 0 -0.9510565162951535
vn -0.1545084971874738 0.8660254037844386 -0.4755282581475769
vn 0.15450849718747373 0.8660254037844387 0.47552825814757654
vn 0.30901699437494756 1.2246467991473532e-16 0.9510565162951535
vn 0.15450849718747392 -0.8660254037844385 0.4755282581475772
vn -0.1545084971874738 -0.8660254037844386 -0.4755282581475769
vn -0.30901699437494756 -2.4492935982947064e-16 -0.9510565162951535
vn 0.30901699437494723 0 -0.9510565162951536
vn 0.15450849718747364 0.8660254037844386 -0.47552825814757693
vn -0.15450849718747356 0.8660254037844387 0.4755282581475766
vn -0.30901699437494723 1.2246467991473532e-16 0.9510565162951536
vn -0.15450849718747375 -0.8660254037844385 0.47552825814757727
vn 0.15450849718747364 -0.8660254037844386 -0.47552825814757693
vn 0.30901699437494723 -2.4492935982947064e-16 -0.9510565162951536
vn 0.8090169943749473 0 -0.5877852522924734
vn 0.4045084971874738 0.8660254037844386 -0.29389262614623674
vn -0.4045084971874735 0.8660254037844387 0.29389262614623657
vn -0.8090169943749473 1.2246467991473532e-16 0.5877852522924734
vn -0.404508497187474 -0.8660254037844385 0.29389262614623696
vn 0.4045084971874738 -0.8660254037844386 -0.29389262614623674
vn 0.8090169943749473 -2.4492935982947064e-16 -0.5877852522924734
vn 1 0 -2.4492935982947064e-16
vn 0.5000000000000001 0.8660254037844386 -1.2246467991473535e-16
vn -0.4999999999999998 0.8660254037844387 1.2246467991473527e-16
vn -1 1.2246467991473532e-16 2.4492935982947064e-16
vn -0.5000000000000004 -0.8660254037844385 1.2246467991473542e-16
vn 0.5000000000000001 -0.8660254037844386 -1.2246467991473535e-16
vn 1 -2.4492935982947064e-16 -2.4492935982947064e-16
vn 1 0 0
vn 0.5000000000000001 0.8660254037844386 0
vn -0.4999999999999998 0.8660254037844387 0
vn -1 1.2246467991473532e-16 0
vn -0.5000000000000004 -0.8660254037844385 0
vn 0.5000000000000001 -0.8660254037844386 0
vn 1 -2.4492935982947064e-16 0
vn 0.8090169943749475 0 0.5877852522924731
vn 0.40450849718747384 0.8660254037844386 0.2938926261462366
vn -0.40450849718747356 0.8660254037844387 -0.29389262614623646
vn -0.8090169943749475 1.2246467991473532e-16 -0.5877852522924731
vn -0.40450849718747406 -0.8660254037844385 -0.29389262614623685
vn 0.40450849718747384 -0.8660254037844386 0.2938926261462366
vn 0.8090169943749475 -2.4492935982947064e-16 0.5877852522924731
vn 0.30901699437494745 0 0.9510565162951535
vn 0.15450849718747375 0.8660254037844386 0.4755282581475769
vn -0.15450849718747367 0.8660254037844387 -0.47552825814757654
vn -0.30901699437494745 1.2246467991473532e-16 -0.9510565162951535
vn -0.15450849718747386 -0.8660254037844385 -0.4755282581475772
vn 0.15450849718747375 -0.8660254037844386 0.4755282581475769
vn 0.30901699437494745 -2.4492935982947064e-16 0.9510565162951535
vn -0.30901699437494734 0 0.9510565162951536
vn -0.1545084971874737 0.8660254037844386 0.47552825814757693
vn 0.15450849718747361 0.8660254037844387 -0.4755282581475766
vn 0.30901699437494734 1.2246467991473532e-16 -0.9510565162951536
vn 0.1545084971874738 -0.8660254037844385 -0.47552825814757727
vn -0.1545084971874737 -0.8660254037844386 0.47552825814757693
vn -0.30901699437494734 -2.4492935982947064e-16 0.9510565162951536
vn -0.8090169943749473 0 0.5877852522924732
vn -0.4045084971874738 0.8660254037844386 0.2938926261462367
vn 0.4045084971874735 0.8660254037844387 -0.2938926261462365
vn 0.8090169943749473 1.2246467991473532e-16 -0.5877852522924732
vn 0.404508497187474 -0.8660254037844385 -0.2938926261462369
vn -0.4045084971874738 -0.8660254037844386 0.2938926261462367
vn -0.8090169943749473 -2.4492935982947064e-16 0.5877852522924732
vn -1 0 1.2246467991473532e-16
vn -0.5000000000000001 0.8660254037844386 6.123233995736767e-17
vn 0.4999999999999998 0.8660254037844387 -6.123233995736764e-17
vn 1 1.2246467991473532e-16 -1.2246467991473532e-16
vn 0.5000000000000004 -0.8660254037844385 -6.123233995736771e-17
vn -0.5000000000000001 -0.8660254037844386 6.123233995736767e-17
vn -1 -2.4492935982947064e-16 1.2246467991473532e-16
vn -0.8090169943749475 0 -0.587785252292473
vn -0.40450849718747384 0.8660254037844386 -0.29389262614623657
vn 0.40450849718747356 0.8660254037844387 0.2938926261462364
vn 0.8090169943749475 1.2246467991473532e-16 0.587785252292473
vn 0.40450849718747406 -0.8660254037844385 0.2938926261462368
vn -0.40450849718747384 -0.8660254037844386 -0.29389262614623657
vn -0.8090169943749475 -2.4492935982947064e-16 -0.587785252292473
vn -0.30901699437494756 0 -0.9510565162951535
vn -0.1545084971874738 0.8660254037844386 -0.4755282581475769
vn 0.15450849718747373 0.8660254037844387 0.47552825814757654
vn 0.30901699437494756 1.2246467991473532e-16 0.9510565162951535
vn 0.15450849718747392 -0.8660254037844385 0.4755282581475772
vn -0.1545084971874738 -0.8660254037844386 -0.4755282581475769
vn -0.30901699437494756 -2.4492935982947064e-16 -0.9510565162951535
vn 0.30901699437494723 0 -0.9510565162951536
vn 0.15450849718747364 0.8660254037844386 -0.47552825814757693
vn -0.15450849718747356 0.8660254037844387 0.4755282581475766
vn -0.30901699437494723 1.2246467991473532e-16 0.9510565162951536
vn -0.15450849718747375 -0.8660254037844385 0.47552825814757727
vn 0.15450849718747364 -0.8660254037844386 -0.47552825814757693
vn 0.30901699437494723 -2.4492935982947064e-16 -0.9510565162951536
vn 0.8090169943749473 0 -0.5877852522924734
vn 0.4045084971874738 0.8660254037844386 -0.29389262614623674
vn -0.4045084971874735 0.8660254037844387 0.29389262614623657
vn -0.8090169943749473 1.2246467991473532e-16 0.5877852522924734
vn -0.404508497187474 -0.8660254037844385 0.29389262614623696
vn 0.4045084971874738 -0.8660254037844386 -0.29389262614623674
vn 0.8090169943749473 -2.4492935982947064e-16 -0.5877852522924734
vn 1 0 -2.4492935982947064e-16
vn 0.5000000000000001 0.8660254037844386 -1.2246467991473535e-16
vn -0.4999999999999998 0.8660254037844387 1.2246467991473527e-16
vn -1 1.2246467991473532e-16 2.4492935982947064e-16
vn -0.5000000000000004 -0.8660254037844385 1.2246467991473542e-16
vn 0.5000000000000001 -0.8660254037844386 -1.2246467991473535e-16
vn 1 -2.4492935982947064e-16 -2.4492935982947064e-16
vn 0 -1 0
vn 0 -1 0
vn 0 -1 0
vn 0 -1 0
vn 0 -1 0
vn 0 -1 0
vn 0 -1 0
vn 0 -1 0
vn 0 -1 0
vn 0 -1 0
vn 0 -1 0
vn 0 -1 0
vn 0 -1 0
vn 0 -1 0
vn 0 -1 0
vn 0 -1 0
vn 0 1 0
vn 0 1 0
vn 0 1 0
vn 0 1 0
vn 0 1 0
vn 0 1 0
vn 0 1 0
vn 0 1 0
vn 0 1 0
vn 0 1 0
vn 0 1 0
vn 0 1 0
vn 0 1 0
vn 0 1 0
vn 0 1 0
vn 0 1 0
vn 0 -1 0
vn 0 1 0
vn 0 -1 0
vn 0 -1 0
vn 0 -1 0
vn 0 -1 0
vn 0 -1 0
vn 0 -1 0
vn 0 -1 0
vn 0 -1 0
vn 0 -1 0
vn 0 -1 0
vn 0 -1 0
vn 0 -1 0
vn 0 -1 0
vn 0 -1 0
vn 0 -1 0
vn 0 -1 0
vn 0 1 0
vn 0 1 0
vn 0 1 0
vn 0 1 0
vn 0 1 0
vn 0 1 0
vn 0 1 0
vn 0 1 0
vn 0 1 0
vn 0 1 0
vn 0 1 0
vn 0 1 0
vn 0 1 0
vn 0 1 0
vn 0 1 0
vn 0 1 0
vn 0 -1 0
vn 0 1 0
vn 0 -1 0
vn 0 -1 0
vn 0 -1 0
vn 0 -1 0
vn 0 -1 0
vn 0 -1 0
vn 0 -1 0
vn 0 -1 0
vn 0 1 0
vn 0 1 0
vn 0 1 0
vn 0 1 0
vn 0 1 0
vn 0 1 0
vn 0 1 0
vn 0 1 0
vn 0 -1 0
vn 0 1 0
vn 0 -1 0
vn 0 -1 0
vn 0 -1 0
vn 0 -1 0
vn 0 -1 0
vn 0 -1 0
vn 0 -1 0
vn 0 -1 0
vn 0 1 0
vn 0 1 0
vn 0 1 0
vn 0 1 0
vn 0 1 0
vn 0 1 0
vn 0 1 0
vn 0 1 0
vn 0 -1 0
vn 0 1 0
vn 0 -1 0
vn 0 -1 0
vn 0 -1 0
vn 0 -1 0
vn 0 -1 0
vn 0 -1 0
vn 0 -1 0
vn 0 -1 0
vn 0 1 0
vn 0 1 0
vn 0 1 0
vn 0 1 0
vn 0 1 0
vn 0 1 0
vn 0 1 0
vn 0 1 0
vn 0 -1 0
vn 0 1 0
vn 0 -1 0
vn 0 -1 0
vn 0 -1 0
vn 0 -1 0
vn 0 -1 0
vn 0 -1 0
vn 0 -1 0
vn 0 -1 0
vn 0 1 0
vn 0 1 0
vn 0 1 0
vn 0 1 0
vn 0 1 0
vn 0 1 0
vn 0 1 0
vn 0 1 0
vn 0 -1 0
vn 0 1 0
vn 0 -1 0
vn 0 -1 0
vn 0 -1 0
vn 0 -1 0
vn 0 -1 0
vn 0 -1 0
vn 0 -1 0
vn 0 -1 0
vn 0 1 0
vn 0 1 0
vn 0 1 0
vn 0 1 0
vn 0 1 0
vn 0 1 0
vn 0 1 0
vn 0 1 0
vn 0 -1 0
vn 0 1 0
vn 0 -1 0
vn 0 -1 0
vn 0 -1 0
vn 0 -1 0
vn 0 -1 0
vn 0 -1 0
vn 0 -1 0
vn 0 -1 0
vn 0 -1 0
vn 0 -1 0
vn 0 -1 0
vn 0 -1 0
vn 0 1 0
vn 0 1 0
vn 0 1 0
vn 0 1 0
vn 0 1 0
vn 0 1 0
vn 0 1 0
vn 0 1 0
vn 0 1 0
vn 0 1 0
vn 0 1 0
vn 0 1 0
vn 0 -1 0
vn 0 1 0
vn 0 1 0
vn 0 1 0
vn 0 1 0
vn 0 1 0
vn 0 1 0
vn 0 1 0
vn 0 1 0
vn 0 1 0
vn 0 1 0
vn 0 1 0
vn 0 1 0
vn 0 1 0
vn 0 1 0
vn 0 1 0
vn 0 1 0
vn 0 1 0
vn 0 -1 0
vn 0 -1 0
vn 0 -1 0
vn 0 -1 0
vn 0 -1 0
vn 0 -1 0
vn 0 -1 0
vn 0 -1 0
vn 0 1 0
vn 0 1 0
vn 0 1 0
vn 0 1 0
vn 0 1 0
vn 0 1 0
vn 0 1 0
vn 0 1 0
vn 0 -1 0
vn 0 1 0
vn 0 1 0
vn 0 1 0
vn 0 1 0
vn 0 1 0
vn 0 1 0
vn 0 1 0
vn 0 1 0
vn 0 1 0
vn 0 -1 0
vn 0 -1 0
vn 0 -1 0
vn 0 -1 0
vn 0 -1 0
vn 0 -1 0
vn 0 -1 0
vn 0 -1 0
vn 0 1 0
vn 0 1 0
vn 0 1 0
vn 0 1 0
vn 0 1 0
vn 0 1 0
vn 0 1 0
vn 0 1 0
vn 0 -1 0
vn 0 1 0
vn 0 -1 0
vn 0 -1 0
vn 0 -1 0
vn 0 -1 0
vn 0 -1 0
vn 0 -1 0
vn 0 -1 0
vn 0 -1 0
vn 0 1 0
vn 0 1 0
vn 0 1 0
vn 0 1 0
vn 0 1 0
vn 0 1 0
vn 0 1 0
vn 0 1 0
vn 0 -1 0
vn 0 1 0
vn 0 -1 0
vn 0 -1 0
vn 0 -1 0
vn 0 -1 0
vn 0 -1 0
vn 0 -1 0
vn 0 -1 0
vn 0 -1 0
vn 0 1 0
vn 0 1 0
vn 0 1 0
vn 0 1 0
vn 0 1 0
vn 0 1 0
vn 0 1 0
vn 0 1 0
vn 0 -1 0
vn 0 1 0
vn 0 -1 0
vn 0 -1 0
vn 0 -1 0
vn 0 -1 0
vn 0 -1 0
vn 0 -1 0
vn 0 -1 0
vn 0 -1 0
vn 0 1 0
vn 0 1 0
vn 0 1 0
vn 0 1 0
vn 0 1 0
vn 0 1 0
vn 0 1 0
vn 0 1 0
vn 0 -1 0
vn 0 1 0
vn 0 -1 0
vn 0 -1 0
vn 0 -1 0
vn 0 -1 0
vn 0 -1 0
vn 0 -1 0
vn 0 -1 0
vn 0 -1 0
vn 0 -1 0
vn 0 -1 0
vn 0 -1 0
vn 0 -1 0
vn 0 1 0
vn 0 1 0
vn 0 1 0
vn 0 1 0
vn 0 1 0
vn 0 1 0
vn 0 1 0
vn 0 1 0
vn 0 1 0
vn 0 1 0
vn 0 1 0
vn 0 1 0
vn 0 -1 0
vn 0 1 0
vn 0 1 0
vn 0 1 0
vn 0 1 0
vn 0 1 0
vn 0 1 0
vn 0 1 0
vn 0 1 0
vn 0 1 0
f 1/1/1 8/8/8 9/9/9
f 1/1/1 9/9/9 2/2/2
f 2/2/2 9/9/9 10/10/10
f 2/2/2 10/10/10 3/3/3
f 3/3/3 10/10/10 11/11/11
f 3/3/3 11/11/11 4/4/4
f 4/4/4 11/11/11 12/12/12
f 4/4/4 12/12/12 5/5/5
f 5/5/5 12/12/12 13/13/13
f 5/5/5 13/13/13 6/6/6
f 6/6/6 13/13/13 14/14/14
f 6/6/6 14/14/14 7/7/7
f 8/8/8 15/15/15 16/16/16
f 8/8/8 16/16/16 9/9/9
f 9/9/9 16/16/16 17/17/17
f 9/9/9 17/17/17 10/10/10
f 10/10/10 17/17/17 18/18/18
f 10/10/10 18/18/18 11/11/11
f 11/11/11 18/18/18 19/19/19
f 11/11/11 19/19/19 12/12/12
f 12/12/12 19/19/19 20/20/20
f 12/12/12 20/20/20 13/13/13
f 13/13/13 20/20/20 21/21/21
f 13/13/13 21/21/21 14/14/14
f 15/15/15 22/22/22 23/23/23
f 15/15/15 23/23/23 16/16/16
f 16/16/16 23/23/23 24/24/24
f 16/16/16 24/24/24 17/17/17
f 17/17/17 24/24/24 25/25/25
f 17/17/17 25/25/25 18/18/18
f 18/18/18 25/25/25 26/26/26
f 18/18/18 26/26/26 19/19/19
f 19/19/19 26/26/26 27/27/27
f 19/19/19 27/27/27 20/20/20
f 20/20/20 27/27/27 28/28/28
f 20/20/20 28/28/28 21/21/21
f 22/22/22 29/29/29 30/30/30
f 22/22/22 30/30/30 23/23/23
f 23/23/23 30/30/30 31/31/31
f 23/23/23 31/31/31 24/24/24
f 24/24/24 31/31/31 32/32/32
f 24/24/24 32/32/32 25/25/25
f 25/25/25 32/32/32 33/33/33
f 25/25/25 33/33/33 26/26/26
f 26/26/26 33/33/33 34/34/34
f 26/26/26 34/34/34 27/27/27
f 27/27/27 34/34/34 35/35/35
f 27/27/27 35/35/35 28/28/28
f 29/29/29 36/36/36 37/37/37
f 29/29/29 37/37/37 30/30/30
f 30/30/30 37/37/37 38/38/38
f 30/30/30 38/38/38 31/31/31
f 31/31/31 38/38/38 39/39/39
f 31/31/31 39/39/39 32/32/32
f 32/32/32 39/39/39 40/40/40
f 32/32/32 40/40/40 33/33/33
f 33/33/33 40/40/40 41/41/41
f 33/33/33 41/41/41 34/34/34
f 34/34/34 41/41/41 42/42/42
f 34/34/34 42/42/42 35/35/35
f 36/36/36 43/43/43 44/44/44
f 36/36/36 44/44/44 37/37/37
f 37/37/37 44/44/44 45/45/45
f 37/37/37 45/45/45 38/38/38
f 38/38/38 45/45/45 46/46/46
f 38/38/38 46/46/46 39/39/39
f 39/39/39 46/46/46 47/47/47
f 39/39/39 47/47/47 40/40/40
f 40/40/40 47/47/47 48/48/48
f 40/40/40 48/48/48 41/41/41
f 41/41/41 48/48/48 49/49/49
f 41/41/41 49/49/49 42/42/42
f 43/43/43 50/50/50 51/51/51
f 43/43/43 51/51/51 44/44/44
f 44/44/44 51/51/51 52/52/52
f 44/44/44 52/52/52 45/45/45
f 45/45/45 52/52/52 53/53/53
f 45/45/45 53/53/53 46/46/46
f 46/46/46 53/53/53 54/54/54
f 46/46/46 54/54/54 47/47/47
f 47/47/47 54/54/54 55/55/55
f 47/47/47 55/55/55 48/48/48
f 48/48/48 55/55/55 56/56/56
f 48/48/48 56/56/56 49/49/49
f 50/50/50 57/57/57 58/58/58
f 50/50/50 58/58/58 51/51/51
f 51/51/51 58/58/58 59/59/59
f 51/51/51 59/59/59 52/52/52
f 52/52/52 59/59/59 60/60/60
f 52/52/52 60/60/60 53/53/53
f 53/53/53 60/60/60 61/61/61
f 53/53/53 61/61/61 54/54/54
f 54/54/54 61/61/61 62/62/62
f 54/54/54 62/62/62 55/55/55
f 55/55/55 62/62/62 63/63/63
f 55/55/55 63/63/63 56/56/56
f 57/57/57 64/64/64 65/65/65
f 57/57/57 65/65/65 58/58/58
f 58/58/58 65/65/65 66/66/66
f 58/58/58 66/66/66 59/59/59
f 59/59/59 66/66/66 67/67/67
f 59/59/59 67/67/67 60/60/60
f 60/60/60 67/67/67 68/68/68
f 60/60/60 68/68/68 61/61/61
f 61/61/61 68/68/68 69/69/69
f 61/61/61 69/69/69 62/62/62
f 62/62/62 69/69/69 70/70/70
f 62/62/62 70/70/70 63/63/63
f 64/64/64 71/71/71 72/72/72
f 64/64/64 72/72/72 65/65/65
f 65/65/65 72/72/72 73/73/73
f 65/65/65 73/73/73 66/66/66
f 66/66/66 73/73/73 74/74/74
f 66/66/66 74/74/74 67/67/67
f 67/67/67 74/74/74 75/75/75
f 67/67/67 75/75/75 68/68/68
f 68/68/68 75/75/75 76/76/76
f 68/68/68 76/76/76 69/69/69
f 69/69/69 76/76/76 77/77/77
f 69/69/69 77/77/77 70/70/70
f 78/78/78 85/85/85 86/86/86
f 78/78/78 86/86/86 79/79/79
f 79/79/79 86/86/86 87/87/87
f 79/79/79 87/87/87 80/80/80
f 80/80/80 87/87/87 88/88/88
f 80/80/80 88/88/88 81/81/81
f 81/81/81 88/88/88 89/89/89
f 81/81/81 89/89/89 82/82/82
f 82/82/82 89/89/89 90/90/90
f 82/82/82 90/90/90 83/83/83
f 83/83/83 90/90/90 91/91/91
f 83/83/83 91/91/91 84/84/84
f 85/85/85 92/92/92 93/93/93
f 85/85/85 93/93/93 86/86/86
f 86/86/86 93/93/93 94/94/94
f 86/86/86 94/94/94 87/87/87
f 87/87/87 94/94/94 95/95/95
f 87/87/87 95/95/95 88/88/88
f 88/88/88 95/95/95 96/96/96
f 88/88/88 96/96/96 89/89/89
f 89/89/89 96/96/96 97/97/97
f 89/89/89 97/97/97 90/90/90
f 90/90/90 97/97/97 98/98/98
f 90/90/90 98/98/98 91/91/91
f 92/92/92 99/99/99 100/100/100
f 92/92/92 100/100/100 93/93/93
f 93/93/93 100/100/100 101/101/101
f 93/93/93 101/101/101 94/94/94
f 94/94/94 101/101/101 102/102/102
f 94/94/94 102/102/102 95/95/95
f 95/95/95 102/102/102 103/103/103
f 95/95/95 103/103/103 96/96/96
f 96/96/96 103/103/103 104/104/104
f 96/96/96 104/104/104 97/97/97
f 97/97/97 104/104/104 105/105/105
f 97/97/97 105/105/105 98/98/98
f 99/99/99 106/106/106 107/107/107
f 99/99/99 107/107/107 100/100/100
f 100/100/100 107/107/107 108/108/108
f 100/100/100 108/108/108 101/101/101
f 101/101/101 108/108/108 109/109/109
f 101/101/101 109/109/109 102/102/102
f 102/102/102 109/109/109 110/110/110
f 102/102/102 110/110/110 103/103/103
f 103/103/103 110/110/110 111/111/111
f 103/103/103 111/111/111 104/104/104
f 104/104/104 111/111/111 112/112/112
f 104/104/104 112/112/112 105/105/105
f 106/106/106 113/113/113 114/114/114
f 106/106/106 114/114/114 107/107/107
f 107/107/107 114/114/114 115/115/115
f 107/107/107 115/115/115 108/108/108
f 108/108/108 115/115/115 116/116/116
f 108/108/108 116/116/116 109/109/109
f 109/109/109 116/116/116 117/117/117
f 109/109/109 117/117/117 110/110/110
f 110/110/110 117/117/117 118/118/118
f 110/110/110 118/118/118 111/111/111
f 111/111/111 118/118/118 119/119/119
f 111/111/111 119/119/119 112/112/112
f 113/113/113 120/120/120 121/121/121
f 113/113/113 121/121/121 114/114/114
f 114/114/114 121/121/121 122/122/122
f 114/114/114 122/122/122 115/115/115
f 115/115/115 122/122/122 123/123/123
f 115/115/115 123/123/123 116/116/116
f 116/116/116 123/123/123 124/124/124
f 116/116/116 124/124/124 117/117/117
f 117/117/117 124/124/124 125/125/125
f 117/117/117 125/125/125 118/118/118
f 118/118/118 125/125/125 126/126/126
f 118/118/118 126/126/126 119/119/119
f 120/120/120 127/127/127 128/128/128
f 120/120/120 128/128/128 121/121/121
f 121/121/121 128/128/128 129/129/129
f 121/121/121 129/129/129 122/122/122
f 122/122/122 129/129/129 130/130/130
f 122/122/122 130/130/130 123/123/123
f 123/123/123 130/130/130 131/131/131
f 123/123/123 131/131/131 124/124/124
f 124/124/124 131/131/131 132/132/132
f 124/124/124 132/132/132 125/125/125
f 125/125/125 132/132/132 133/133/133
f 125/125/125 133/133/133 126/126/126
f 127/127/127 134/134/134 135/135/135
f 127/127/127 135/135/135 128/128/128
f 128/128/128 135/135/135 136/136/136
f 128/128/128 136/136/136 129/129/129
f 129/129/129 136/136/136 137/137/137
f 129/129/129 137/137/137 130/130/130
f 130/130/130 137/137/137 138/138/138
f 130/130/130 138/138/138 131/131/131
f 131/131/131 138/138/138 139/139/139
f 131/131/131 139/139/139 132/132/132
f 132/132/132 139/139/139 140/140/140
f 132/132/132 140/140/140 133/133/133
f 134/134/134 141/141/141 142/142/142
f 134/134/134 142/142/142 135/135/135
f 135/135/135 142/142/142 143/143/143
f 135/135/135 143/143/143 136/136/136
f 136/136/136 143/143/143 144/144/144
f 136/136/136 144/144/144 137/137/137
f 137/137/137 144/144/144 145/145/145
f 137/137/137 145/145/145 138/138/138
f 138/138/138 145/145/145 146/146/146
f 138/138/138 146/146/146 139/139/139
f 139/139/139 146/146/146 147/147/147
f 139/139/139 147/147/147 140/140/140
f 141/141/141 148/148/148 149/149/149
f 141/141/141 149/149/149 142/142/142
f 142/142/142 149/149/149 150/150/150
f 142/142/142 150/150/150 143/143/143
f 143/143/143 150/150/150 151/151/151
f 143/143/143 151/151/151 144/144/144
f 144/144/144 151/151/151 152/152/152
f 144/144/144 152/152/152 145/145/145
f 145/145/145 152/152/152 153/153/153
f 145/145/145 153/153/153 146/146/146
f 146/146/146 153/153/153 154/154/154
f 146/146/146 154/154/154 147/147/147
f 155/155/155 156/156/156 172/172/172
f 155/155/155 172/172/172 171/171/171
f 187/187/187 156/156/156 155/155/155
f 188/188/188 171/171/171 172/172/172
f 156/156/156 157/157/157 173/173/173
f 156/156/156 173/173/173 172/172/172
f 187/187/187 157/157/157 156/156/156
f 188/188/188 172/172/172 173/173/173
f 157/157/157 158/158/158 174/174/174
f 157/157/157 174/174/174 173/173/173
f 187/187/187 158/158/158 157/157/157
f 188/188/188 173/173/173 174/174/174
f 158/158/158 159/159/159 175/175/175
f 158/158/158 175/175/175 174/174/174
f 187/187/187 159/159/159 158/158/158
f 188/188/188 174/174/174 175/175/175
f 159/159/159 160/160/160 176/176/176
f 159/159/159 176/176/176 175/175/175
f 187/187/187 160/160/160 159/159/159
f 188/188/188 175/175/175 176/176/176
f 160/160/160 161/161/161 177/177/177
f 160/160/160 177/177/177 176/176/176
f 187/187/187 161/161/161 160/160/160
f 188/188/188 176/176/176 177/177/177
f 161/161/161 162/162/162 178/178/178
f 161/161/161 178/178/178 177/177/177
f 187/187/187 162/162/162 161/161/161
f 188/188/188 177/177/177 178/178/178
f 162/162/162 163/163/163 179/179/179
f 162/162/162 179/179/179 178/178/178
f 187/187/187 163/163/163 162/162/162
f 188/188/188 178/178/178 179/179/179
f 163/163/163 164/164/164 180/180/180
f 163/163/163 180/180/180 179/179/179
f 187/187/187 164/164/164 163/163/163
f 188/188/188 179/179/179 180/180/180
f 164/164/164 165/165/165 181/181/181
f 164/164/164 181/181/181 180/180/180
f 187/187/187 165/165/165 164/164/164
f 188/188/188 180/180/180 181/181/181
f 165/165/165 166/166/166 182/182/182
f 165/165/165 182/182/182 181/181/181
f 187/187/187 166/166/166 165/165/165
f 188/188/188 181/181/181 182/182/182
f 166/166/166 167/167/167 183/183/183
f 166/166/166 183/183/183 182/182/182
f 187/187/187 167/167/167 166/166/166
f 188/188/188 182/182/182 183/183/183
f 167/167/167 168/168/168 184/184/184
f 167/167/167 184/184/184 183/183/183
f 187/187/187 168/168/168 167/167/167
f 188/188/188 183/183/183 184/184/184
f 168/168/168 169/169/169 185/185/185
f 168/168/168 185/185/185 184/184/184
f 187/187/187 169/169/169 168/168/168
f 188/188/188 184/184/184 185/185/185
f 169/169/169 170/170/170 186/186/186
f 169/169/169 186/186/186 185/185/185
f 187/187/187 170/170/170 169/169/169
f 188/188/188 185/185/185 186/186/186
f 170/170/170 155/155/155 171/171/171
f 170/170/170 171/171/171 186/186/186
f 187/187/187 155/155/155 170/170/170
f 188/188/188 186/186/186 171/171/171
f 189/189/189 190/190/190 206/206/206
f 189/189/189 206/206/206 205/205/205
f 221/221/221 190/190/190 189/189/189
f 222/222/222 205/205/205 206/206/206
f 190/190/190 191/191/191 207/207/207
f 190/190/190 207/207/207 206/206/206
f 221/221/221 191/191/191 190/190/190
f 222/222/222 206/206/206 207/207/207
f 191/191/191 192/192/192 208/208/208
f 191/191/191 208/208/208 207/207/207
f 221/221/221 192/192/192 191/191/191
f 222/222/222 207/207/207 208/208/208
f 192/192/192 193/193/193 209/209/209
f 192/192/192 209/209/209 208/208/208
f 221/221/221 193/193/193 192/192/192
f 222/222/222 208/208/208 209/209/209
f 193/193/193 194/194/194 210/210/210
f 193/193/193 210/210/210 209/209/209
f 221/221/221 194/194/194 193/193/193
f 222/222/222 209/209/209 210/210/210
f 194/194/194 195/195/195 211/211/211
f 194/194/194 211/211/211 210/210/210
f 221/221/221 195/195/195 194/194/194
f 222/222/222 210/210/210 211/211/211
f 195/195/195 196/196/196 212/212/212
f 195/195/195 212/212/212 211/211/211
f 221/221/221 196/196/196 195/195/195
f 222/222/222 211/211/211 212/212/212
f 196/196/196 197/197/197 213/213/213
f 196/196/196 213/213/213 212/212/212
f 221/221/221 197/197/197 196/196/196
f 222/222/222 212/212/212 213/213/213
f 197/197/197 198/198/198 214/214/214
f 197/197/197 214/214/214 213/213/213
f 221/221/221 198/198/198 197/197/197
f 222/222/222 213/213/213 214/214/214
f 198/198/198 199/199/199 215/215/215
f 198/198/198 215/215/215 214/214/214
f 221/221/221 199/199/199 198/198/198
f 222/222/222 214/214/214 215/215/215
f 199/199/199 200/200/200 216/216/216
f 199/199/199 216/216/216 215/215/215
f 221/221/221 200/200/200 199/199/199
f 222/222/222 215/215/215 216/216/216
f 200/200/200 201/201/201 217/217/217
f 200/200/200 217/217/217 216/216/216
f 221/221/221 201/201/201 200/200/200
f 222/222/222 216/216/216 217/217/217
f 201/201/201 202/202/202 218/218/218
f 201/201/201 218/218/218 217/217/217
f 221/221/221 202/202/202 201/201/201
f 222/222/222 217/217/217 218/218/218
f 202/202/202 203/203/203 219/219/219
f 202/202/202 219/219/219 218/218/218
f 221/221/221 203/203/203 202/202/202
f 222/222/222 218/218/218 219/219/219
f 203/203/203 204/204/204 220/220/220
f 203/203/203 220/220/220 219/219/219
f 221/221/221 204/204/204 203/203/203
f 222/222/222 219/219/219 220/220/220
f 204/204/204 189/189/189 205/205/205
f 204/204/204 205/205/205 220/220/220
f 221/221/221 189/189/189 204/204/204
f 222/222/222 220/220/220 205/205/205
f 223/223/223 224/224/224 232/232/232
f 223/223/223 232/232/232 231/231/231
f 239/239/239 224/224/224 223/223/223
f 240/240/240 231/231/231 232/232/232
f 224/224/224 225/225/225 233/233/233
f 224/224/224 233/233/233 232/232/232
f 239/239/239 225/225/225 224/224/224
f 240/240/240 232/232/232 233/233/233
f 225/225/225 226/226/226 234/234/234
f 225/225/225 234/234/234 233/233/233
f 239/239/239 226/226/226 225/225/225
f 240/240/240 233/233/233 234/234/234
f 226/226/226 227/227/227 235/235/235
f 226/226/226 235/235/235 234/234/234
f 239/239/239 227/227/227 226/226/226
f 240/240/240 234/234/234 235/235/235
f 227/227/227 228/228/228 236/236/236
f 227/227/227 236/236/236 235/235/235
f 239/239/239 228/228/228 227/227/227
f 240/240/240 235/235/235 236/236/236
f 228/228/228 229/229/229 237/237/237
f 228/228/228 237/237/237 236/236/236
f 239/239/239 229/229/229 228/228/228
f 240/240/240 236/236/236 237/237/237
f 229/229/229 230/230/230 238/238/238
f 229/229/229 238/238/238 237/237/237
f 239/239/239 230/230/230 229/229/229
f 240/240/240 237/237/237 238/238/238
f 230/230/230 223/223/223 231/231/231
f 230/230/230 231/231/231 238/238/238
f 239/239/239 223/223/223 230/230/230
f 240/240/240 238/238/238 231/231/231
f 241/241/241 242/242/242 250/250/250
f 241/241/241 250/250/250 249/249/249
f 257/257/257 242/242/242 241/241/241
f 258/258/258 249/249/249 250/250/250
f 242/242/242 243/243/243 251/251/251
f 242/242/242 251/251/251 250/250/250
f 257/257/257 243/243/243 242/242/242
f 258/258/258 250/250/250 251/251/251
f 243/243/243 244/244/244 252/252/252
f 243/243/243 252/252/252 251/251/251
f 257/257/257 244/244/244 243/243/243
f 258/258/258 251/251/251 252/252/252
f 244/244/244 245/245/245 253/253/253
f 244/244/244 253/253/253 252/252/252
f 257/257/257 245/245/245 244/244/244
f 258/258/258 252/252/252 253/253/253
f 245/245/245 246/246/246 254/254/254
f 245/245/245 254/254/254 253/253/253
f 257/257/257 246/246/246 245/245/245
f 258/258/258 253/253/253 254/254/254
f 246/246/246 247/247/247 255/255/255
f 246/246/246 255/255/255 254/254/254
f 257/257/257 247/247/247 246/246/246
f 258/258/258 254/254/254 255/255/255
f 247/247/247 248/248/248 256/256/256
f 247/247/247 256/256/256 255/255/255
f 257/257/257 248/248/248 247/247/247
f 258/258/258 255/255/255 256/256/256
f 248/248/248 241/241/241 249/249/249
f 248/248/248 249/249/249 256/256/256
f 257/257/257 241/241/241 248/248/248
f 258/258/258 256/256/256 249/249/249
f 259/259/259 260/260/260 268/268/268
f 259/259/259 268/268/268 267/267/267
f 275/275/275 260/260/260 259/259/259
f 276/276/276 267/267/267 268/268/268
f 260/260/260 261/261/261 269/269/269
f 260/260/260 269/269/269 268/268/268
f 275/275/275 261/261/261 260/260/260
f 276/276/276 268/268/268 269/269/269
f 261/261/261 262/262/262 270/270/270
f 261/261/261 270/270/270 269/269/269
f 275/275/275 262/262/262 261/261/261
f 276/276/276 269/269/269 270/270/270
f 262/262/262 263/263/263 271/271/271
f 262/262/262 271/271/271 270/270/270
f 275/275/275 263/263/263 262/262/262
f 276/276/276 270/270/270 271/271/271
f 263/263/263 264/264/264 272/272/272
f 263/263/263 272/272/272 271/271/271
f 275/275/275 264/264/264 263/263/263
f 276/276/276 271/271/271 272/272/272
f 264/264/264 265/265/265 273/273/273
f 264/264/264 273/273/273 272/272/272
f 275/275/275 265/265/265 264/264/264
f 276/276/276 272/272/272 273/273/273
f 265/265/265 266/266/266 274/274/274
f 265/265/265 274/274/274 273/273/273
f 275/275/275 266/266/266 265/265/265
f 276/276/276 273/273/273 274/274/274
f 266/266/266 259/259/259 267/267/267
f 266/266/266 267/267/267 274/274/274
f 275/275/275 259/259/259 266/266/266
f 276/276/276 274/274/274 267/267/267
f 277/277/277 278/278/278 286/286/286
f 277/277/277 286/286/286 285/285/285
f 293/293/293 278/278/278 277/277/277
f 294/294/294 285/285/285 286/286/286
f 278/278/278 279/279/279 287/287/287
f 278/278/278 287/287/287 286/286/286
f 293/293/293 279/279/279 278/278/278
f 294/294/294 286/286/286 287/287/287
f 279/279/279 280/280/280 288/288/288
f 279/279/279 288/288/288 287/287/287
f 293/293/293 280/280/280 279/279/279
f 294/294/294 287/287/287 288/288/288
f 280/280/280 281/281/281 289/289/289
f 280/280/280 289/289/289 288/288/288
f 293/293/293 281/281/281 280/280/280
f 294/294/294 288/288/288 289/289/289
f 281/281/281 282/282/282 290/290/290
f 281/281/281 290/290/290 289/289/289
f 293/293/293 282/282/282 281/281/281
f 294/294/294 289/289/289 290/290/290
f 282/282/282 283/283/283 291/291/291
f 282/282/282 291/291/291 290/290/290
f 293/293/293 283/283/283 282/282/282
f 294/294/294 290/290/290 291/291/291
f 283/283/283 284/284/284 292/292/292
f 283/283/283 292/292/292 291/291/291
f 293/293/293 284/284/284 283/283/283
f 294/294/294 291/291/291 292/292/292
f 284/284/284 277/277/277 285/285/285
f 284/284/284 285/285/285 292/292/292
f 293/293/293 277/277/277 284/284/284
f 294/294/294 292/292/292 285/285/285
f 295/295/295 296/296/296 304/304/304
f 295/295/295 304/304/304 303/303/303
f 311/311/311 296/296/296 295/295/295
f 312/312/312 303/303/303 304/304/304
f 296/296/296 297/297/297 305/305/305
f 296/296/296 305/305/305 304/304/304
f 311/311/311 297/297/297 296/296/296
f 312/312/312 304/304/304 305/305/305
f 297/297/297 298/298/298 306/306/306
f 297/297/297 306/306/306 305/305/305
f 311/311/311 298/298/298 297/297/297
f 312/312/312 305/305/305 306/306/306
f 298/298/298 299/299/299 307/307/307
f 298/298/298 307/307/307 306/306/306
f 311/311/311 299/299/299 298/298/298
f 312/312/312 306/306/306 307/307/307
f 299/299/299 300/300/300 308/308/308
f 299/299/299 308/308/308 307/307/307
f 311/311/311 300/300/300 299/299/299
f 312/312/312 307/307/307 308/308/308
f 300/300/300 301/301/301 309/309/309
f 300/300/300 309/309/309 308/308/308
f 311/311/311 301/301/301 300/300/300
f 312/312/312 308/308/308 309/309/309
f 301/301/301 302/302/302 310/310/310
f 301/301/301 310/310/310 309/309/309
f 311/311/311 302/302/302 301/301/301
f 312/312/312 309/309/309 310/310/310
f 302/302/302 295/295/295 303/303/303
f 302/302/302 303/303/303 310/310/310
f 311/311/311 295/295/295 302/302/302
f 312/312/312 310/310/310 303/303/303
f 313/313/313 314/314/314 326/326/326
f 313/313/313 326/326/326 325/325/325
f 337/337/337 314/314/314 313/313/313
f 338/338/338 325/325/325 326/326/326
f 314/314/314 315/315/315 327/327/327
f 314/314/314 327/327/327 326/326/326
f 337/337/337 315/315/315 314/314/314
f 338/338/338 326/326/326 327/327/327
f 315/315/315 316/316/316 328/328/328
f 315/315/315 328/328/328 327/327/327
f 337/337/337 316/316/316 315/315/315
f 338/338/338 327/327/327 328/328/328
f 316/316/316 317/317/317 329/329/329
f 316/316/316 329/329/329 328/328/328
f 337/337/337 317/317/317 316/316/316
f 338/338/338 328/328/328 329/329/329
f 317/317/317 318/318/318 330/330/330
f 317/317/317 330/330/330 329/329/329
f 337/337/337 318/318/318 317/317/317
f 338/338/338 329/329/329 330/330/330
f 318/318/318 319/319/319 331/331/331
f 318/318/318 331/331/331 330/330/330
f 337/337/337 319/319/319 318/318/318
f 338/338/338 330/330/330 331/331/331
f 319/319/319 320/320/320 332/332/332
f 319/319/319 332/332/332 331/331/331
f 337/337/337 320/320/320 319/319/319
f 338/338/338 331/331/331 332/332/332
f 320/320/320 321/321/321 333/333/333
f 320/320/320 333/333/333 332/332/332
f 337/337/337 321/321/321 320/320/320
f 338/338/338 332/332/332 333/333/333
f 321/321/321 322/322/322 334/334/334
f 321/321/321 334/334/334 333/333/333
f 337/337/337 322/322/322 321/321/321
f 338/338/338 333/333/333 334/334/334
f 322/322/322 323/323/323 335/335/335
f 322/322/322 335/335/335 334/334/334
f 337/337/337 323/323/323 322/322/322
f 338/338/338 334/334/334 335/335/335
f 323/323/323 324/324/324 336/336/336
f 323/323/323 336/336/336 335/335/335
f 337/337/337 324/324/324 323/323/323
f 338/338/338 335/335/335 336/336/336
f 324/324/324 313/313/313 325/325/325
f 324/324/324 325/325/325 336/336/336
f 337/337/337 313/313/313 324/324/324
f 338/338/338 336/336/336 325/325/325
f 339/339/339 341/341/341 340/340/340
f 339/339/339 342/342/342 341/341/341
f 343/343/343 344/344/344 345/345/345
f 343/343/343 345/345/345 346/346/346
f 339/339/339 340/340/340 344/344/344
f 339/339/339 344/344/344 343/343/343
f 341/341/341 342/342/342 346/346/346
f 341/341/341 346/346/346 345/345/345
f 339/339/339 343/343/343 346/346/346
f 339/339/339 346/346/346 342/342/342
f 340/340/340 341/341/341 345/345/345
f 340/340/340 345/345/345 344/344/344
f 347/347/347 349/349/349 348/348/348
f 347/347/347 350/350/350 349/349/349
f 351/351/351 352/352/352 353/353/353
f 351/351/351 353/353/353 354/354/354
f 347/347/347 348/348/348 352/352/352
f 347/347/347 352/352/352 351/351/351
f 349/349/349 350/350/350 354/354/354
f 349/349/349 354/354/354 353/353/353
f 347/347/347 351/351/351 354/354/354
f 347/347/347 354/354/354 350/350/350
f 348/348/348 349/349/349 353/353/353
f 348/348/348 353/353/353 352/352/352
f 355/355/355 356/356/356 364/364/364
f 355/355/355 364/364/364 363/363/363
f 371/371/371 356/356/356 355/355/355
f 372/372/372 363/363/363 364/364/364
f 356/356/356 357/357/357 365/365/365
f 356/356/356 365/365/365 364/364/364
f 371/371/371 357/357/357 356/356/356
f 372/372/372 364/364/364 365/365/365
f 357/357/357 358/358/358 366/366/366
f 357/357/357 366/366/366 365/365/365
f 371/371/371 358/358/358 357/357/357
f 372/372/372 365/365/365 366/366/366
f 358/358/358 359/359/359 367/367/367
f 358/358/358 367/367/367 366/366/366
f 371/371/371 359/359/359 358/358/358
f 372/372/372 366/366/366 367/367/367
f 359/359/359 360/360/360 368/368/368
f 359/359/359 368/368/368 367/367/367
f 371/371/371 360/360/360 359/359/359
f 372/372/372 367/367/367 368/368/368
f 360/360/360 361/361/361 369/369/369
f 360/360/360 369/369/369 368/368/368
f 371/371/371 361/361/361 360/360/360
f 372/372/372 368/368/368 369/369/369
f 361/361/361 362/362/362 370/370/370
f 361/361/361 370/370/370 369/369/369
f 371/371/371 362/362/362 361/361/361
f 372/372/372 369/369/369 370/370/370
f 362/362/362 355/355/355 363/363/363
f 362/362/362 363/363/363 370/370/370
f 371/371/371 355/355/355 362/362/362
f 372/372/372 370/370/370 363/363/363
f 373/373/373 375/375/375 374/374/374
f 373/373/373 376/376/376 375/375/375
f 377/377/377 378/378/378 379/379/379
f 377/377/377 379/379/379 380/380/380
f 373/373/373 374/374/374 378/378/378
f 373/373/373 378/378/378 377/377/377
f 375/375/375 376/376/376 380/380/380
f 375/375/375 380/380/380 379/379/379
f 373/373/373 377/377/377 380/380/380
f 373/373/373 380/380/380 376/376/376
f 374/374/374 375/375/375 379/379/379
f 374/374/374 379/379/379 378/378/378
f 381/381/381 382/382/382 390/390/390
f 381/381/381 390/390/390 389/389/389
f 397/397/397 382/382/382 381/381/381
f 398/398/398 389/389/389 390/390/390
f 382/382/382 383/383/383 391/391/391
f 382/382/382 391/391/391 390/390/390
f 397/397/397 383/383/383 382/382/382
f 398/398/398 390/390/390 391/391/391
f 383/383/383 384/384/384 392/392/392
f 383/383/383 392/392/392 391/391/391
f 397/397/397 384/384/384 383/383/383
f 398/398/398 391/391/391 392/392/392
f 384/384/384 385/385/385 393/393/393
f 384/384/384 393/393/393 392/392/392
f 397/397/397 385/385/385 384/384/384
f 398/398/398 392/392/392 393/393/393
f 385/385/385 386/386/386 394/394/394
f 385/385/385 394/394/394 393/393/393
f 397/397/397 386/386/386 385/385/385
f 398/398/398 393/393/393 394/394/394
f 386/386/386 387/387/387 395/395/395
f 386/386/386 395/395/395 394/394/394
f 397/397/397 387/387/387 386/386/386
f 398/398/398 394/394/394 395/395/395
f 387/387/387 388/388/388 396/396/396
f 387/387/387 396/396/396 395/395/395
f 397/397/397 388/388/388 387/387/387
f 398/398/398 395/395/395 396/396/396
f 388/388/388 381/381/381 389/389/389
f 388/388/388 389/389/389 396/396/396
f 397/397/397 381/381/381 388/388/388
f 398/398/398 396/396/396 389/389/389
f 399/399/399 400/400/400 408/408/408
f 399/399/399 408/408/408 407/407/407
f 415/415/415 400/400/400 399/399/399
f 416/416/416 407/407/407 408/408/408
f 400/400/400 401/401/401 409/409/409
f 400/400/400 409/409/409 408/408/408
f 415/415/415 401/401/401 400/400/400
f 416/416/416 408/408/408 409/409/409
f 401/401/401 402/402/402 410/410/410
f 401/401/401 410/410/410 409/409/409
f 415/415/415 402/402/402 401/401/401
f 416/416/416 409/409/409 410/410/410
f 402/402/402 403/403/403 411/411/411
f 402/402/402 411/411/411 410/410/410
f 415/415/415 403/403/403 402/402/402
f 416/416/416 410/410/410 411/411/411
f 403/403/403 404/404/404 412/412/412
f 403/403/403 412/412/412 411/411/411
f 415/415/415 404/404/404 403/403/403
f 416/416/416 411/411/411 412/412/412
f 404/404/404 405/405/405 413/413/413
f 404/404/404 413/413/413 412/412/412
f 415/415/415 405/405/405 404/404/404
f 416/416/416 412/412/412 413/413/413
f 405/405/405 406/406/406 414/414/414
f 405/405/405 414/414/414 413/413/413
f 415/415/415 406/406/406 405/405/405
f 416/416/416 413/413/413 414/414/414
f 406/406/406 399/399/399 407/407/407
f 406/406/406 407/407/407 414/414/414
f 415/415/415 399/399/399 406/406/406
f 416/416/416 414/414/414 407/407/407
f 417/417/417 418/418/418 426/426/426
f 417/417/417 426/426/426 425/425/425
f 433/433/433 418/418/418 417/417/417
f 434/434/434 425/425/425 426/426/426
f 418/418/418 419/419/419 427/427/427
f 418/418/418 427/427/427 426/426/426
f 433/433/433 419/419/419 418/418/418
f 434/434/434 426/426/426 427/427/427
f 419/419/419 420/420/420 428/428/428
f 419/419/419 428/428/428 427/427/427
f 433/433/433 420/420/420 419/419/419
f 434/434/434 427/427/427 428/428/428
f 420/420/420 421/421/421 429/429/429
f 420/420/420 429/429/429 428/428/428
f 433/433/433 421/421/421 420/420/420
f 434/434/434 428/428/428 429/429/429
f 421/421/421 422/422/422 430/430/430
f 421/421/421 430/430/430 429/429/429
f 433/433/433 422/422/422 421/421/421
f 434/434/434 429/429/429 430/430/430
f 422/422/422 423/423/423 431/431/431
f 422/422/422 431/431/431 430/430/430
f 433/433/433 423/423/423 422/422/422
f 434/434/434 430/430/430 431/431/431
f 423/423/423 424/424/424 432/432/432
f 423/423/423 432/432/432 431/431/431
f 433/433/433 424/424/424 423/423/423
f 434/434/434 431/431/431 432/432/432
f 424/424/424 417/417/417 425/425/425
f 424/424/424 425/425/425 432/432/432
f 433/433/433 417/417/417 424/424/424
f 434/434/434 432/432/432 425/425/425
f 435/435/435 436/436/436 444/444/444
f 435/435/435 444/444/444 443/443/443
f 451/451/451 436/436/436 435/435/435
f 452/452/452 443/443/443 444/444/444
f 436/436/436 437/437/437 445/445/445
f 436/436/436 445/445/445 444/444/444
f 451/451/451 437/437/437 436/436/436
f 452/452/452 444/444/444 445/445/445
f 437/437/437 438/438/438 446/446/446
f 437/437/437 446/446/446 445/445/445
f 451/451/451 438/438/438 437/437/437
f 452/452/452 445/445/445 446/446/446
f 438/438/438 439/439/439 447/447/447
f 438/438/438 447/447/447 446/446/446
f 451/451/451 439/439/439 438/438/438
f 452/452/452 446/446/446 447/447/447
f 439/439/439 440/440/440 448/448/448
f 439/439/439 448/448/448 447/447/447
f 451/451/451 440/440/440 439/439/439
f 452/452/452 447/447/447 448/448/448
f 440/440/440 441/441/441 449/449/449
f 440/440/440 449/449/449 448/448/448
f 451/451/451 441/441/441 440/440/440
f 452/452/452 448/448/448 449/449/449
f 441/441/441 442/442/442 450/450/450
f 441/441/441 450/450/450 449/449/449
f 451/451/451 442/442/442 441/441/441
f 452/452/452 449/449/449 450/450/450
f 442/442/442 435/435/435 443/443/443
f 442/442/442 443/443/443 450/450/450
f 451/451/451 435/435/435 442/442/442
f 452/452/452 450/450/450 443/443/443
f 453/453/453 454/454/454 466/466/466
f 453/453/453 466/466/466 465/465/465
f 477/477/477 454/454/454 453/453/453
f 478/478/478 465/465/465 466/466/466
f 454/454/454 455/455/455 467/467/467
f 454/454/454 467/467/467 466/466/466
f 477/477/477 455/455/455 454/454/454
f 478/478/478 466/466/466 467/467/467
f 455/455/455 456/456/456 468/468/468
f 455/455/455 468/468/468 467/467/467
f 477/477/477 456/456/456 455/455/455
f 478/478/478 467/467/467 468/468/468
f 456/456/456 457/457/457 469/469/469
f 456/456/456 469/469/469 468/468/468
f 477/477/477 457/457/457 456/456/456
f 478/478/478 468/468/468 469/469/469
f 457/457/457 458/458/458 470/470/470
f 457/457/457 470/470/470 469/469/469
f 477/477/477 458/458/458 457/457/457
f 478/478/478 469/469/469 470/470/470
f 458/458/458 459/459/459 471/471/471
f 458/458/458 471/471/471 470/470/470
f 477/477/477 459/459/459 458/458/458
f 478/478/478 470/470/470 471/471/471
f 459/459/459 460/460/460 472/472/472
f 459/459/459 472/472/472 471/471/471
f 477/477/477 460/460/460 459/459/459
f 478/478/478 471/471/471 472/472/472
f 460/460/460 461/461/461 473/473/473
f 460/460/460 473/473/473 472/472/472
f 477/477/477 461/461/461 460/460/460
f 478/478/478 472/472/472 473/473/473
f 461/461/461 462/462/462 474/474/474
f 461/461/461 474/474/474 473/473/473
f 477/477/477 462/462/462 461/461/461
f 478/478/478 473/473/473 474/474/474
f 462/462/462 463/463/463 475/475/475
f 462/462/462 475/475/475 474/474/474
f 477/477/477 463/463/463 462/462/462
f 478/478/478 474/474/474 475/475/475
f 463/463/463 464/464/464 476/476/476
f 463/463/463 476/476/476 475/475/475
f 477/477/477 464/464/464 463/463/463
f 478/478/478 475/475/475 476/476/476
f 464/464/464 453/453/453 465/465/465
f 464/464/464 465/465/465 476/476/476
f 477/477/477 453/453/453 464/464/464
f 478/478/478 476/476/476 465/465/465
f 479/479/479 481/481/481 480/480/480
f 479/479/479 482/482/482 481/481/481
f 483/483/483 484/484/484 485/485/485
f 483/483/483 485/485/485 486/486/486
f 479/479/479 480/480/480 484/484/484
f 479/479/479 484/484/484 483/483/483
f 481/481/481 482/482/482 486/486/486
f 481/481/481 486/486/486 485/485/485
f 479/479/479 483/483/483 486/486/486
f 479/479/479 486/486/486 482/482/482
f 480/480/480 481/481/481 485/485/485
f 480/480/480 485/485/485 484/484/484