# 3D Model: building/bld_lighthouse/ov_a2f6edb9-4915-485a-bff7-5090f6c6277f (v6 Gemini)
# Style: building/bld_lighthouse | Symmetry: symmetric
# Dimensions: 4.446 x 15.305 x 4.11 m
# Triangles: 934 | Vertices: 539
v -1.2702 -0.9702 -1.2702
v -1.2702 -0.9702 1.2702
v -1.2702 1.5702 -1.2702
v -1.2702 1.5702 1.2702
v 1.2702 -0.9702 -1.2702
v 1.2702 -0.9702 1.2702
v 1.2702 1.5702 -1.2702
v 1.2702 1.5702 1.2702
v 0 -0.485 -2.0552
v 0 -0.485 2.0552
v 0 1.085 -2.0552
v 0 1.085 2.0552
v -0.785 -1.7552 0
v -0.785 2.3552 0
v 0.785 -1.7552 0
v 0.785 2.3552 0
v -2.0552 0.3 -0.785
v -2.0552 0.3 0.785
v 2.0552 0.3 -0.785
v 2.0552 0.3 0.785
v 0.464 1.3909 -0.8
v 1.936 1.3909 -0.8
v 0.464 -0.9909 -0.8
v 1.936 -0.9909 -0.8
v 1.2 -0.536 0.3909
v 1.2 0.936 0.3909
v 1.2 -0.536 -1.9909
v 1.2 0.936 -1.9909
v 2.3909 0.2 -1.536
v 2.3909 0.2 -0.064
v 0.0091 0.2 -1.536
v 0.0091 0.2 -0.064
v -1.6309 1.1708 1
v -0.3691 1.1708 1
v -1.6309 -0.8708 1
v -0.3691 -0.8708 1
v -1 -0.4809 2.0208
v -1 0.7809 2.0208
v -1 -0.4809 -0.0208
v -1 0.7809 -0.0208
v 0.0208 0.15 0.3691
v 0.0208 0.15 1.6309
v -2.0208 0.15 0.3691
v -2.0208 0.15 1.6309
v 1.8 0.2 0
v 1.5588 0.2 0.9
v 0.9 0.2 1.5588
v 0 0.2 1.8
v -0.9 0.2 1.5588
v -1.5588 0.2 0.9
v -1.8 0.2 0
v -1.5588 0.2 -0.9
v -0.9 0.2 -1.5588
v 0 0.2 -1.8
v 0.9 0.2 -1.5588
v 1.5588 0.2 -0.9
v 1.6 1.2 0
v 1.3856 1.2 0.8
v 0.8 1.2 1.3856
v 0 1.2 1.6
v -0.8 1.2 1.3856
v -1.3856 1.2 0.8
v -1.6 1.2 0
v -1.3856 1.2 -0.8
v -0.8 1.2 -1.3856
v 0 1.2 -1.6
v 0.8 1.2 -1.3856
v 1.3856 1.2 -0.8
v 0 0.2 0
v 0 1.2 0
v 1.6 0.7 0
v 1.3856 0.7 0.8
v 0.8 0.7 1.3856
v 0 0.7 1.6
v -0.8 0.7 1.3856
v -1.3856 0.7 0.8
v -1.6 0.7 0
v -1.3856 0.7 -0.8
v -0.8 0.7 -1.3856
v 0 0.7 -1.6
v 0.8 0.7 -1.3856
v 1.3856 0.7 -0.8
v 1.1 9.7 0
v 0.9526 9.7 0.55
v 0.55 9.7 0.9526
v 0 9.7 1.1
v -0.55 9.7 0.9526
v -0.9526 9.7 0.55
v -1.1 9.7 0
v -0.9526 9.7 -0.55
v -0.55 9.7 -0.9526
v 0 9.7 -1.1
v 0.55 9.7 -0.9526
v 0.9526 9.7 -0.55
v 0 0.7 0
v 0 9.7 0
v -0.2 3.2029 1.3851
v 0.2 3.2029 1.3851
v 0.2 3.8021 1.4151
v -0.2 3.8021 1.4151
v -0.2 3.1979 1.4849
v 0.2 3.1979 1.4849
v 0.2 3.7971 1.5149
v -0.2 3.7971 1.5149
v -0.2 5.2029 1.2351
v 0.2 5.2029 1.2351
v 0.2 5.8021 1.2651
v -0.2 5.8021 1.2651
v -0.2 5.1979 1.3349
v 0.2 5.1979 1.3349
v 0.2 5.7971 1.3649
v -0.2 5.7971 1.3649
v -0.2 7.2029 1.0851
v 0.2 7.2029 1.0851
v 0.2 7.8021 1.1151
v -0.2 7.8021 1.1151
v -0.2 7.1979 1.1849
v 0.2 7.1979 1.1849
v 0.2 7.7971 1.2149
v -0.2 7.7971 1.2149
v 1.1 9.7 0
v 0.9526 9.7 0.55
v 0.55 9.7 0.9526
v 0 9.7 1.1
v -0.55 9.7 0.9526
v -0.9526 9.7 0.55
v -1.1 9.7 0
v -0.9526 9.7 -0.55
v -0.55 9.7 -0.9526
v 0 9.7 -1.1
v 0.55 9.7 -0.9526
v 0.9526 9.7 -0.55
v 1.3 10 0
v 1.1258 10 0.65
v 0.65 10 1.1258
v 0 10 1.3
v -0.65 10 1.1258
v -1.1258 10 0.65
v -1.3 10 0
v -1.1258 10 -0.65
v -0.65 10 -1.1258
v 0 10 -1.3
v 0.65 10 -1.1258
v 1.1258 10 -0.65
v 0 9.7 0
v 0 10 0
v 1.4 10 0
v 1.2124 10 0.7
v 0.7 10 1.2124
v 0 10 1.4
v -0.7 10 1.2124
v -1.2124 10 0.7
v -1.4 10 0
v -1.2124 10 -0.7
v -0.7 10 -1.2124
v 0 10 -1.4
v 0.7 10 -1.2124
v 1.2124 10 -0.7
v 1.4 10.2 0
v 1.2124 10.2 0.7
v 0.7 10.2 1.2124
v 0 10.2 1.4
v -0.7 10.2 1.2124
v -1.2124 10.2 0.7
v -1.4 10.2 0
v -1.2124 10.2 -0.7
v -0.7 10.2 -1.2124
v 0 10.2 -1.4
v 0.7 10.2 -1.2124
v 1.2124 10.2 -0.7
v 0 10 0
v 0 10.2 0
v 1.38 10.2 0
v 1.1951 10.2 0.69
v 0.69 10.2 1.1951
v 0 10.2 1.38
v -0.69 10.2 1.1951
v -1.1951 10.2 0.69
v -1.38 10.2 0
v -1.1951 10.2 -0.69
v -0.69 10.2 -1.1951
v 0 10.2 -1.38
v 0.69 10.2 -1.1951
v 1.1951 10.2 -0.69
v 1.38 10.8 0
v 1.1951 10.8 0.69
v 0.69 10.8 1.1951
v 0 10.8 1.38
v -0.69 10.8 1.1951
v -1.1951 10.8 0.69
v -1.38 10.8 0
v -1.1951 10.8 -0.69
v -0.69 10.8 -1.1951
v 0 10.8 -1.38
v 0.69 10.8 -1.1951
v 1.1951 10.8 -0.69
v 0 10.2 0
v 0 10.8 0
v 1.1 10.2 0
v 0.9526 10.2 0.55
v 0.55 10.2 0.9526
v 0 10.2 1.1
v -0.55 10.2 0.9526
v -0.9526 10.2 0.55
v -1.1 10.2 0
v -0.9526 10.2 -0.55
v -0.55 10.2 -0.9526
v 0 10.2 -1.1
v 0.55 10.2 -0.9526
v 0.9526 10.2 -0.55
v 1.1 10.8 0
v 0.9526 10.8 0.55
v 0.55 10.8 0.9526
v 0 10.8 1.1
v -0.55 10.8 0.9526
v -0.9526 10.8 0.55
v -1.1 10.8 0
v -0.9526 10.8 -0.55
v -0.55 10.8 -0.9526
v 0 10.8 -1.1
v 0.55 10.8 -0.9526
v 0.9526 10.8 -0.55
v 0 10.2 0
v 0 10.8 0
v 1 10.8 0
v 0.866 10.8 0.5
v 0.5 10.8 0.866
v 0 10.8 1
v -0.5 10.8 0.866
v -0.866 10.8 0.5
v -1 10.8 0
v -0.866 10.8 -0.5
v -0.5 10.8 -0.866
v 0 10.8 -1
v 0.5 10.8 -0.866
v 0.866 10.8 -0.5
v 1 12.2 0
v 0.866 12.2 0.5
v 0.5 12.2 0.866
v 0 12.2 1
v -0.5 12.2 0.866
v -0.866 12.2 0.5
v -1 12.2 0
v -0.866 12.2 -0.5
v -0.5 12.2 -0.866
v 0 12.2 -1
v 0.5 12.2 -0.866
v 0.866 12.2 -0.5
v 0 10.8 0
v 0 12.2 0
v 1.02 10.8 0
v 0.8833 10.8 0.51
v 0.51 10.8 0.8833
v 0 10.8 1.02
v -0.51 10.8 0.8833
v -0.8833 10.8 0.51
v -1.02 10.8 0
v -0.8833 10.8 -0.51
v -0.51 10.8 -0.8833
v 0 10.8 -1.02
v 0.51 10.8 -0.8833
v 0.8833 10.8 -0.51
v 1.02 12.2 0
v 0.8833 12.2 0.51
v 0.51 12.2 0.8833
v 0 12.2 1.02
v -0.51 12.2 0.8833
v -0.8833 12.2 0.51
v -1.02 12.2 0
v -0.8833 12.2 -0.51
v -0.51 12.2 -0.8833
v 0 12.2 -1.02
v 0.51 12.2 -0.8833
v 0.8833 12.2 -0.51
v 0 10.8 0
v 0 12.2 0
v 1.1 12.2 0
v 0.9526 12.2 0.55
v 0.55 12.2 0.9526
v 0 12.2 1.1
v -0.55 12.2 0.9526
v -0.9526 12.2 0.55
v -1.1 12.2 0
v -0.9526 12.2 -0.55
v -0.55 12.2 -0.9526
v 0 12.2 -1.1
v 0.55 12.2 -0.9526
v 0.9526 12.2 -0.55
v 1.1 12.3 0
v 0.9526 12.3 0.55
v 0.55 12.3 0.9526
v 0 12.3 1.1
v -0.55 12.3 0.9526
v -0.9526 12.3 0.55
v -1.1 12.3 0
v -0.9526 12.3 -0.55
v -0.55 12.3 -0.9526
v 0 12.3 -1.1
v 0.55 12.3 -0.9526
v 0.9526 12.3 -0.55
v 0 12.2 0
v 0 12.3 0
v 0 13.1 0
v 0 13.1 0
v 0 13.1 0
v 0 13.1 0
v 0 13.1 0
v 0 13.1 0
v 0 13.1 0
v 0 13.1 0
v 0 13.1 0
v 0 13.1 0
v 0 13.1 0
v 0.1951 13.0846 0
v 0.1578 13.0846 0.1147
v 0.0603 13.0846 0.1855
v -0.0603 13.0846 0.1855
v -0.1578 13.0846 0.1147
v -0.1951 13.0846 0
v -0.1578 13.0846 -0.1147
v -0.0603 13.0846 -0.1855
v 0.0603 13.0846 -0.1855
v 0.1578 13.0846 -0.1147
v 0.1951 13.0846 0
v 0.3827 13.0391 0
v 0.3096 13.0391 0.2249
v 0.1183 13.0391 0.364
v -0.1183 13.0391 0.364
v -0.3096 13.0391 0.2249
v -0.3827 13.0391 0
v -0.3096 13.0391 -0.2249
v -0.1183 13.0391 -0.364
v 0.1183 13.0391 -0.364
v 0.3096 13.0391 -0.2249
v 0.3827 13.0391 0
v 0.5556 12.9652 0
v 0.4495 12.9652 0.3266
v 0.1717 12.9652 0.5284
v -0.1717 12.9652 0.5284
v -0.4495 12.9652 0.3266
v -0.5556 12.9652 0
v -0.4495 12.9652 -0.3266
v -0.1717 12.9652 -0.5284
v 0.1717 12.9652 -0.5284
v 0.4495 12.9652 -0.3266
v 0.5556 12.9652 0
v 0.7071 12.8657 0
v 0.5721 12.8657 0.4156
v 0.2185 12.8657 0.6725
v -0.2185 12.8657 0.6725
v -0.5721 12.8657 0.4156
v -0.7071 12.8657 0
v -0.5721 12.8657 -0.4156
v -0.2185 12.8657 -0.6725
v 0.2185 12.8657 -0.6725
v 0.5721 12.8657 -0.4156
v 0.7071 12.8657 0
v 0.8315 12.7445 0
v 0.6727 12.7445 0.4887
v 0.2569 12.7445 0.7908
v -0.2569 12.7445 0.7908
v -0.6727 12.7445 0.4887
v -0.8315 12.7445 0
v -0.6727 12.7445 -0.4887
v -0.2569 12.7445 -0.7908
v 0.2569 12.7445 -0.7908
v 0.6727 12.7445 -0.4887
v 0.8315 12.7445 0
v 0.9239 12.6061 0
v 0.7474 12.6061 0.543
v 0.2855 12.6061 0.8787
v -0.2855 12.6061 0.8787
v -0.7474 12.6061 0.543
v -0.9239 12.6061 0
v -0.7474 12.6061 -0.543
v -0.2855 12.6061 -0.8787
v 0.2855 12.6061 -0.8787
v 0.7474 12.6061 -0.543
v 0.9239 12.6061 0
v 0.9808 12.4561 0
v 0.7935 12.4561 0.5765
v 0.3031 12.4561 0.9328
v -0.3031 12.4561 0.9328
v -0.7935 12.4561 0.5765
v -0.9808 12.4561 0
v -0.7935 12.4561 -0.5765
v -0.3031 12.4561 -0.9328
v 0.3031 12.4561 -0.9328
v 0.7935 12.4561 -0.5765
v 0.9808 12.4561 0
v 1 12.3 0
v 0.809 12.3 0.5878
v 0.309 12.3 0.9511
v -0.309 12.3 0.9511
v -0.809 12.3 0.5878
v -1 12.3 0
v -0.809 12.3 -0.5878
v -0.309 12.3 -0.9511
v 0.309 12.3 -0.9511
v 0.809 12.3 -0.5878
v 1 12.3 0
v 0 12.3 0
v 0.05 13.05 0
v 0.025 13.05 0.0433
v -0.025 13.05 0.0433
v -0.05 13.05 0
v -0.025 13.05 -0.0433
v 0.025 13.05 -0.0433
v 0.05 13.35 0
v 0.025 13.35 0.0433
v -0.025 13.35 0.0433
v -0.05 13.35 0
v -0.025 13.35 -0.0433
v 0.025 13.35 -0.0433
v 0 13.05 0
v 0 13.35 0
v 0 13.55 0
v 0 13.55 0
v 0 13.55 0
v 0 13.55 0
v 0 13.55 0
v 0 13.55 0
v 0 13.55 0
v 0 13.55 0
v 0 13.55 0
v 0 13.55 0
v 0 13.55 0
v 0.0574 13.5386 0
v 0.0464 13.5386 0.0337
v 0.0177 13.5386 0.0546
v -0.0177 13.5386 0.0546
v -0.0464 13.5386 0.0337
v -0.0574 13.5386 0
v -0.0464 13.5386 -0.0337
v -0.0177 13.5386 -0.0546
v 0.0177 13.5386 -0.0546
v 0.0464 13.5386 -0.0337
v 0.0574 13.5386 0
v 0.1061 13.5061 0
v 0.0858 13.5061 0.0623
v 0.0328 13.5061 0.1009
v -0.0328 13.5061 0.1009
v -0.0858 13.5061 0.0623
v -0.1061 13.5061 0
v -0.0858 13.5061 -0.0623
v -0.0328 13.5061 -0.1009
v 0.0328 13.5061 -0.1009
v 0.0858 13.5061 -0.0623
v 0.1061 13.5061 0
v 0.1386 13.4574 0
v 0.1121 13.4574 0.0815
v 0.0428 13.4574 0.1318
v -0.0428 13.4574 0.1318
v -0.1121 13.4574 0.0815
v -0.1386 13.4574 0
v -0.1121 13.4574 -0.0815
v -0.0428 13.4574 -0.1318
v 0.0428 13.4574 -0.1318
v 0.1121 13.4574 -0.0815
v 0.1386 13.4574 0
v 0.15 13.4 0
v 0.1214 13.4 0.0882
v 0.0464 13.4 0.1427
v -0.0464 13.4 0.1427
v -0.1214 13.4 0.0882
v -0.15 13.4 0
v -0.1214 13.4 -0.0882
v -0.0464 13.4 -0.1427
v 0.0464 13.4 -0.1427
v 0.1214 13.4 -0.0882
v 0.15 13.4 0
v 0.1386 13.3426 0
v 0.1121 13.3426 0.0815
v 0.0428 13.3426 0.1318
v -0.0428 13.3426 0.1318
v -0.1121 13.3426 0.0815
v -0.1386 13.3426 0
v -0.1121 13.3426 -0.0815
v -0.0428 13.3426 -0.1318
v 0.0428 13.3426 -0.1318
v 0.1121 13.3426 -0.0815
v 0.1386 13.3426 0
v 0.1061 13.2939 0
v 0.0858 13.2939 0.0623
v 0.0328 13.2939 0.1009
v -0.0328 13.2939 0.1009
v -0.0858 13.2939 0.0623
v -0.1061 13.2939 0
v -0.0858 13.2939 -0.0623
v -0.0328 13.2939 -0.1009
v 0.0328 13.2939 -0.1009
v 0.0858 13.2939 -0.0623
v 0.1061 13.2939 0
v 0.0574 13.2614 0
v 0.0464 13.2614 0.0337
v 0.0177 13.2614 0.0546
v -0.0177 13.2614 0.0546
v -0.0464 13.2614 0.0337
v -0.0574 13.2614 0
v -0.0464 13.2614 -0.0337
v -0.0177 13.2614 -0.0546
v 0.0177 13.2614 -0.0546
v 0.0464 13.2614 -0.0337
v 0.0574 13.2614 0
v 0 13.25 0
v 0 13.25 0
v 0 13.25 0
v 0 13.25 0
v 0 13.25 0
v 0 13.25 0
v 0 13.25 0
v 0 13.25 0
v 0 13.25 0
v 0 13.25 0
v 0 13.25 0
v 0.9952 0.8 0.5065
v 1.5684 0.8 0.3292
v 1.5684 1 0.3292
v 0.9952 1 0.5065
v 1.2316 0.8 1.2708
v 1.8048 0.8 1.0935
v 1.8048 1 1.0935
v 1.2316 1 1.2708
v 0.7265 1.2 1.0393
v 1.2217 1.2 0.7005
v 1.2217 1.4 0.7005
v 0.7265 1.4 1.0393
v 1.1783 1.2 1.6995
v 1.6735 1.2 1.3607
v 1.6735 1.4 1.3607
v 1.1783 1.4 1.6995
v 0.3002 1.6 1.3864
v 0.6732 1.6 0.9164
v 0.6732 1.8 0.9164
v 0.3002 1.8 1.3864
v 0.9268 1.6 1.8836
v 1.2998 1.6 1.4136
v 1.2998 1.8 1.4136
v 0.9268 1.8 1.8836
vt 0.5 0.5
vt 0.5 0.5
vt 0.5 0.5
vt 0.5 0.5
vt 0.5 0.5
vt 0.5 0.5
vt 0.5 0.5
vt 0.5 0.5
vt 0.5 0.5
vt 0.5 0.5
vt 0.5 0.5
vt 0.5 0.5
vt 0.5 0.5
vt 0.5 0.5
vt 0.5 0.5
vt 0.5 0.5
vt 0.5 0.5
vt 0.5 0.5
vt 0.5 0.5
vt 0.5 0.5
vt 0.5 0.5
vt 0.5 0.5
vt 0.5 0.5
vt 0.5 0.5
vt 0.5 0.5
vt 0.5 0.5
vt 0.5 0.5
vt 0.5 0.5
vt 0.5 0.5
vt 0.5 0.5
vt 0.5 0.5
vt 0.5 0.5
vt 0.5 0.5
vt 0.5 0.5
vt 0.5 0.5
vt 0.5 0.5
vt 0.5 0.5
vt 0.5 0.5
vt 0.5 0.5
vt 0.5 0.5
vt 0.5 0.5
vt 0.5 0.5
vt 0.5 0.5
vt 0.5 0.5
vt 0 0
vt 0.08333333333333333 0
vt 0.16666666666666666 0
vt 0.25 0
vt 0.3333333333333333 0
vt 0.4166666666666667 0
vt 0.5 0
vt 0.5833333333333334 0
vt 0.6666666666666666 0
vt 0.75 0
vt 0.8333333333333334 0
vt 0.9166666666666666 0
vt 0 1
vt 0.08333333333333333 1
vt 0.16666666666666666 1
vt 0.25 1
vt 0.3333333333333333 1
vt 0.4166666666666667 1
vt 0.5 1
vt 0.5833333333333334 1
vt 0.6666666666666666 1
vt 0.75 1
vt 0.8333333333333334 1
vt 0.9166666666666666 1
vt 0.5 0.5
vt 0.5 0.5
vt 0 0
vt 0.08333333333333333 0
vt 0.16666666666666666 0
vt 0.25 0
vt 0.3333333333333333 0
vt 0.4166666666666667 0
vt 0.5 0
vt 0.5833333333333334 0
vt 0.6666666666666666 0
vt 0.75 0
vt 0.8333333333333334 0
vt 0.9166666666666666 0
vt 0 1
vt 0.08333333333333333 1
vt 0.16666666666666666 1
vt 0.25 1
vt 0.3333333333333333 1
vt 0.4166666666666667 1
vt 0.5 1
vt 0.5833333333333334 1
vt 0.6666666666666666 1
vt 0.75 1
vt 0.8333333333333334 1
vt 0.9166666666666666 1
vt 0.5 0.5
vt 0.5 0.5
vt 0.5 0.5
vt 0.5 0.5
vt 0.5 0.5
vt 0.5 0.5
vt 0.5 0.5
vt 0.5 0.5
vt 0.5 0.5
vt 0.5 0.5
vt 0.5 0.5
vt 0.5 0.5
vt 0.5 0.5
vt 0.5 0.5
vt 0.5 0.5
vt 0.5 0.5
vt 0.5 0.5
vt 0.5 0.5
vt 0.5 0.5
vt 0.5 0.5
vt 0.5 0.5
vt 0.5 0.5
vt 0.5 0.5
vt 0.5 0.5
vt 0.5 0.5
vt 0.5 0.5
vt 0 0
vt 0.08333333333333333 0
vt 0.16666666666666666 0
vt 0.25 0
vt 0.3333333333333333 0
vt 0.4166666666666667 0
vt 0.5 0
vt 0.5833333333333334 0
vt 0.6666666666666666 0
vt 0.75 0
vt 0.8333333333333334 0
vt 0.9166666666666666 0
vt 0 1
vt 0.08333333333333333 1
vt 0.16666666666666666 1
vt 0.25 1
vt 0.3333333333333333 1
vt 0.4166666666666667 1
vt 0.5 1
vt 0.5833333333333334 1
vt 0.6666666666666666 1
vt 0.75 1
vt 0.8333333333333334 1
vt 0.9166666666666666 1
vt 0.5 0.5
vt 0.5 0.5
vt 0 0
vt 0.08333333333333333 0
vt 0.16666666666666666 0
vt 0.25 0
vt 0.3333333333333333 0
vt 0.4166666666666667 0
vt 0.5 0
vt 0.5833333333333334 0
vt 0.6666666666666666 0
vt 0.75 0
vt 0.8333333333333334 0
vt 0.9166666666666666 0
vt 0 1
vt 0.08333333333333333 1
vt 0.16666666666666666 1
vt 0.25 1
vt 0.3333333333333333 1
vt 0.4166666666666667 1
vt 0.5 1
vt 0.5833333333333334 1
vt 0.6666666666666666 1
vt 0.75 1
vt 0.8333333333333334 1
vt 0.9166666666666666 1
vt 0.5 0.5
vt 0.5 0.5
vt 0 0
vt 0.08333333333333333 0
vt 0.16666666666666666 0
vt 0.25 0
vt 0.3333333333333333 0
vt 0.4166666666666667 0
vt 0.5 0
vt 0.5833333333333334 0
vt 0.6666666666666666 0
vt 0.75 0
vt 0.8333333333333334 0
vt 0.9166666666666666 0
vt 0 1
vt 0.08333333333333333 1
vt 0.16666666666666666 1
vt 0.25 1
vt 0.3333333333333333 1
vt 0.4166666666666667 1
vt 0.5 1
vt 0.5833333333333334 1
vt 0.6666666666666666 1
vt 0.75 1
vt 0.8333333333333334 1
vt 0.9166666666666666 1
vt 0.5 0.5
vt 0.5 0.5
vt 0 0
vt 0.08333333333333333 0
vt 0.16666666666666666 0
vt 0.25 0
vt 0.3333333333333333 0
vt 0.4166666666666667 0
vt 0.5 0
vt 0.5833333333333334 0
vt 0.6666666666666666 0
vt 0.75 0
vt 0.8333333333333334 0
vt 0.9166666666666666 0
vt 0 1
vt 0.08333333333333333 1
vt 0.16666666666666666 1
vt 0.25 1
vt 0.3333333333333333 1
vt 0.4166666666666667 1
vt 0.5 1
vt 0.5833333333333334 1
vt 0.6666666666666666 1
vt 0.75 1
vt 0.8333333333333334 1
vt 0.9166666666666666 1
vt 0.5 0.5
vt 0.5 0.5
vt 0 0
vt 0.08333333333333333 0
vt 0.16666666666666666 0
vt 0.25 0
vt 0.3333333333333333 0
vt 0.4166666666666667 0
vt 0.5 0
vt 0.5833333333333334 0
vt 0.6666666666666666 0
vt 0.75 0
vt 0.8333333333333334 0
vt 0.9166666666666666 0
vt 0 1
vt 0.08333333333333333 1
vt 0.16666666666666666 1
vt 0.25 1
vt 0.3333333333333333 1
vt 0.4166666666666667 1
vt 0.5 1
vt 0.5833333333333334 1
vt 0.6666666666666666 1
vt 0.75 1
vt 0.8333333333333334 1
vt 0.9166666666666666 1
vt 0.5 0.5
vt 0.5 0.5
vt 0 0
vt 0.08333333333333333 0
vt 0.16666666666666666 0
vt 0.25 0
vt 0.3333333333333333 0
vt 0.4166666666666667 0
vt 0.5 0
vt 0.5833333333333334 0
vt 0.6666666666666666 0
vt 0.75 0
vt 0.8333333333333334 0
vt 0.9166666666666666 0
vt 0 1
vt 0.08333333333333333 1
vt 0.16666666666666666 1
vt 0.25 1
vt 0.3333333333333333 1
vt 0.4166666666666667 1
vt 0.5 1
vt 0.5833333333333334 1
vt 0.6666666666666666 1
vt 0.75 1
vt 0.8333333333333334 1
vt 0.9166666666666666 1
vt 0.5 0.5
vt 0.5 0.5
vt 0 0
vt 0.08333333333333333 0
vt 0.16666666666666666 0
vt 0.25 0
vt 0.3333333333333333 0
vt 0.4166666666666667 0
vt 0.5 0
vt 0.5833333333333334 0
vt 0.6666666666666666 0
vt 0.75 0
vt 0.8333333333333334 0
vt 0.9166666666666666 0
vt 0 1
vt 0.08333333333333333 1
vt 0.16666666666666666 1
vt 0.25 1
vt 0.3333333333333333 1
vt 0.4166666666666667 1
vt 0.5 1
vt 0.5833333333333334 1
vt 0.6666666666666666 1
vt 0.75 1
vt 0.8333333333333334 1
vt 0.9166666666666666 1
vt 0.5 0.5
vt 0.5 0.5
vt 0 0
vt 0.1 0
vt 0.2 0
vt 0.3 0
vt 0.4 0
vt 0.5 0
vt 0.6 0
vt 0.7 0
vt 0.8 0
vt 0.9 0
vt 1 0
vt 0 0.125
vt 0.1 0.125
vt 0.2 0.125
vt 0.3 0.125
vt 0.4 0.125
vt 0.5 0.125
vt 0.6 0.125
vt 0.7 0.125
vt 0.8 0.125
vt 0.9 0.125
vt 1 0.125
vt 0 0.25
vt 0.1 0.25
vt 0.2 0.25
vt 0.3 0.25
vt 0.4 0.25
vt 0.5 0.25
vt 0.6 0.25
vt 0.7 0.25
vt 0.8 0.25
vt 0.9 0.25
vt 1 0.25
vt 0 0.375
vt 0.1 0.375
vt 0.2 0.375
vt 0.3 0.375
vt 0.4 0.375
vt 0.5 0.375
vt 0.6 0.375
vt 0.7 0.375
vt 0.8 0.375
vt 0.9 0.375
vt 1 0.375
vt 0 0.5
vt 0.1 0.5
vt 0.2 0.5
vt 0.3 0.5
vt 0.4 0.5
vt 0.5 0.5
vt 0.6 0.5
vt 0.7 0.5
vt 0.8 0.5
vt 0.9 0.5
vt 1 0.5
vt 0 0.625
vt 0.1 0.625
vt 0.2 0.625
vt 0.3 0.625
vt 0.4 0.625
vt 0.5 0.625
vt 0.6 0.625
vt 0.7 0.625
vt 0.8 0.625
vt 0.9 0.625
vt 1 0.625
vt 0 0.75
vt 0.1 0.75
vt 0.2 0.75
vt 0.3 0.75
vt 0.4 0.75
vt 0.5 0.75
vt 0.6 0.75
vt 0.7 0.75
vt 0.8 0.75
vt 0.9 0.75
vt 1 0.75
vt 0 0.875
vt 0.1 0.875
vt 0.2 0.875
vt 0.3 0.875
vt 0.4 0.875
vt 0.5 0.875
vt 0.6 0.875
vt 0.7 0.875
vt 0.8 0.875
vt 0.9 0.875
vt 1 0.875
vt 0 1
vt 0.1 1
vt 0.2 1
vt 0.3 1
vt 0.4 1
vt 0.5 1
vt 0.6 1
vt 0.7 1
vt 0.8 1
vt 0.9 1
vt 1 1
vt 0.5 0.5
vt 0 0
vt 0.16666666666666666 0
vt 0.3333333333333333 0
vt 0.5 0
vt 0.6666666666666666 0
vt 0.8333333333333334 0
vt 0 1
vt 0.16666666666666666 1
vt 0.3333333333333333 1
vt 0.5 1
vt 0.6666666666666666 1
vt 0.8333333333333334 1
vt 0.5 0.5
vt 0.5 0.5
vt 0 0
vt 0.1 0
vt 0.2 0
vt 0.3 0
vt 0.4 0
vt 0.5 0
vt 0.6 0
vt 0.7 0
vt 0.8 0
vt 0.9 0
vt 1 0
vt 0 0.125
vt 0.1 0.125
vt 0.2 0.125
vt 0.3 0.125
vt 0.4 0.125
vt 0.5 0.125
vt 0.6 0.125
vt 0.7 0.125
vt 0.8 0.125
vt 0.9 0.125
vt 1 0.125
vt 0 0.25
vt 0.1 0.25
vt 0.2 0.25
vt 0.3 0.25
vt 0.4 0.25
vt 0.5 0.25
vt 0.6 0.25
vt 0.7 0.25
vt 0.8 0.25
vt 0.9 0.25
vt 1 0.25
vt 0 0.375
vt 0.1 0.375
vt 0.2 0.375
vt 0.3 0.375
vt 0.4 0.375
vt 0.5 0.375
vt 0.6 0.375
vt 0.7 0.375
vt 0.8 0.375
vt 0.9 0.375
vt 1 0.375
vt 0 0.5
vt 0.1 0.5
vt 0.2 0.5
vt 0.3 0.5
vt 0.4 0.5
vt 0.5 0.5
vt 0.6 0.5
vt 0.7 0.5
vt 0.8 0.5
vt 0.9 0.5
vt 1 0.5
vt 0 0.625
vt 0.1 0.625
vt 0.2 0.625
vt 0.3 0.625
vt 0.4 0.625
vt 0.5 0.625
vt 0.6 0.625
vt 0.7 0.625
vt 0.8 0.625
vt 0.9 0.625
vt 1 0.625
vt 0 0.75
vt 0.1 0.75
vt 0.2 0.75
vt 0.3 0.75
vt 0.4 0.75
vt 0.5 0.75
vt 0.6 0.75
vt 0.7 0.75
vt 0.8 0.75
vt 0.9 0.75
vt 1 0.75
vt 0 0.875
vt 0.1 0.875
vt 0.2 0.875
vt 0.3 0.875
vt 0.4 0.875
vt 0.5 0.875
vt 0.6 0.875
vt 0.7 0.875
vt 0.8 0.875
vt 0.9 0.875
vt 1 0.875
vt 0 1
vt 0.1 1
vt 0.2 1
vt 0.3 1
vt 0.4 1
vt 0.5 1
vt 0.6 1
vt 0.7 1
vt 0.8 1
vt 0.9 1
vt 1 1
vt 0.5 0.5
vt 0.5 0.5
vt 0.5 0.5
vt 0.5 0.5
vt 0.5 0.5
vt 0.5 0.5
vt 0.5 0.5
vt 0.5 0.5
vt 0.5 0.5
vt 0.5 0.5
vt 0.5 0.5
vt 0.5 0.5
vt 0.5 0.5
vt 0.5 0.5
vt 0.5 0.5
vt 0.5 0.5
vt 0.5 0.5
vt 0.5 0.5
vt 0.5 0.5
vt 0.5 0.5
vt 0.5 0.5
vt 0.5 0.5
vt 0.5 0.5
vt 0.5 0.5
vn -0.5773502691896258 -0.5773502691896258 -0.5773502691896258
vn -0.5773502691896258 -0.5773502691896258 0.5773502691896258
vn -0.5773502691896258 0.5773502691896258 -0.5773502691896258
vn -0.5773502691896258 0.5773502691896258 0.5773502691896258
vn 0.5773502691896258 -0.5773502691896258 -0.5773502691896258
vn 0.5773502691896258 -0.5773502691896258 0.5773502691896258
vn 0.5773502691896258 0.5773502691896258 -0.5773502691896258
vn 0.5773502691896258 0.5773502691896258 0.5773502691896258
vn 0 -0.35682208977309 -0.9341723589627158
vn 0 -0.35682208977309 0.9341723589627158
vn 0 0.35682208977309 -0.9341723589627158
vn 0 0.35682208977309 0.9341723589627158
vn -0.35682208977309 -0.9341723589627158 0
vn -0.35682208977309 0.9341723589627158 0
vn 0.35682208977309 -0.9341723589627158 0
vn 0.35682208977309 0.9341723589627158 0
vn -0.9341723589627158 0 -0.35682208977309
vn -0.9341723589627158 0 0.35682208977309
vn 0.9341723589627158 0 -0.35682208977309
vn 0.9341723589627158 0 0.35682208977309
vn -0.5257311121191336 0.8506508083520399 0
vn 0.5257311121191336 0.8506508083520399 0
vn -0.5257311121191336 -0.8506508083520399 0
vn 0.5257311121191336 -0.8506508083520399 0
vn 0 -0.5257311121191336 0.8506508083520399
vn 0 0.5257311121191336 0.8506508083520399
vn 0 -0.5257311121191336 -0.8506508083520399
vn 0 0.5257311121191336 -0.8506508083520399
vn 0.8506508083520399 0 -0.5257311121191336
vn 0.8506508083520399 0 0.5257311121191336
vn -0.8506508083520399 0 -0.5257311121191336
vn -0.8506508083520399 0 0.5257311121191336
vn -0.5257311121191337 0.85065080835204 0
vn 0.5257311121191337 0.85065080835204 0
vn -0.5257311121191337 -0.85065080835204 0
vn 0.5257311121191337 -0.85065080835204 0
vn 0 -0.5257311121191337 0.85065080835204
vn 0 0.5257311121191337 0.85065080835204
vn 0 -0.5257311121191337 -0.85065080835204
vn 0 0.5257311121191337 -0.85065080835204
vn 0.85065080835204 0 -0.5257311121191337
vn 0.85065080835204 0 0.5257311121191337
vn -0.85065080835204 0 -0.5257311121191337
vn -0.85065080835204 0 0.5257311121191337
vn 0 -1 0
vn 0 -1 0
vn 0 -1 0
vn 0 -1 0
vn 0 -1 0
vn 0 -1 0
vn 0 -1 0
vn 0 -1 0
vn 0 -1 0
vn 0 -1 0
vn 0 -1 0
vn 0 -1 0
vn 0 1 0
vn 0 1 0
vn 0 1 0
vn 0 1 0
vn 0 1 0
vn 0 1 0
vn 0 1 0
vn 0 1 0
vn 0 1 0
vn 0 1 0
vn 0 1 0
vn 0 1 0
vn 0 -1 0
vn 0 1 0
vn 0 -1 0
vn 0 -1 0
vn 0 -1 0
vn 0 -1 0
vn 0 -1 0
vn 0 -1 0
vn 0 -1 0
vn 0 -1 0
vn 0 -1 0
vn 0 -1 0
vn 0 -1 0
vn 0 -1 0
vn 0 1 0
vn 0 1 0
vn 0 1 0
vn 0 1 0
vn 0 1 0
vn 0 1 0
vn 0 1 0
vn 0 1 0
vn 0 1 0
vn 0 1 0
vn 0 1 0
vn 0 1 0
vn 0 -1 0
vn 0 1 0
vn 0 1 0
vn 0 1 0
vn 0 1 0
vn 0 1 0
vn 0 1 0
vn 0 1 0
vn 0 1 0
vn 0 1 0
vn 0 1 0
vn 0 1 0
vn 0 1 0
vn 0 1 0
vn 0 1 0
vn 0 1 0
vn 0 1 0
vn 0 1 0
vn 0 1 0
vn 0 1 0
vn 0 1 0
vn 0 1 0
vn 0 1 0
vn 0 1 0
vn 0 1 0
vn 0 1 0
vn 0 -1 0
vn 0 -1 0
vn 0 -1 0
vn 0 -1 0
vn 0 -1 0
vn 0 -1 0
vn 0 -1 0
vn 0 -1 0
vn 0 -1 0
vn 0 -1 0
vn 0 -1 0
vn 0 -1 0
vn 0 1 0
vn 0 1 0
vn 0 1 0
vn 0 1 0
vn 0 1 0
vn 0 1 0
vn 0 1 0
vn 0 1 0
vn 0 1 0
vn 0 1 0
vn 0 1 0
vn 0 1 0
vn 0 -1 0
vn 0 1 0
vn 0 -1 0
vn 0 -1 0
vn 0 -1 0
vn 0 -1 0
vn 0 -1 0
vn 0 -1 0
vn 0 -1 0
vn 0 -1 0
vn 0 -1 0
vn 0 -1 0
vn 0 -1 0
vn 0 -1 0
vn 0 1 0
vn 0 1 0
vn 0 1 0
vn 0 1 0
vn 0 1 0
vn 0 1 0
vn 0 1 0
vn 0 1 0
vn 0 1 0
vn 0 1 0
vn 0 1 0
vn 0 1 0
vn 0 -1 0
vn 0 1 0
vn 0 -1 0
vn 0 -1 0
vn 0 -1 0
vn 0 -1 0
vn 0 -1 0
vn 0 -1 0
vn 0 -1 0
vn 0 -1 0
vn 0 -1 0
vn 0 -1 0
vn 0 -1 0
vn 0 -1 0
vn 0 1 0
vn 0 1 0
vn 0 1 0
vn 0 1 0
vn 0 1 0
vn 0 1 0
vn 0 1 0
vn 0 1 0
vn 0 1 0
vn 0 1 0
vn 0 1 0
vn 0 1 0
vn 0 -1 0
vn 0 1 0
vn 0 -1 0
vn 0 -1 0
vn 0 -1 0
vn 0 -1 0
vn 0 -1 0
vn 0 -1 0
vn 0 -1 0
vn 0 -1 0
vn 0 -1 0
vn 0 -1 0
vn 0 -1 0
vn 0 -1 0
vn 0 1 0
vn 0 1 0
vn 0 1 0
vn 0 1 0
vn 0 1 0
vn 0 1 0
vn 0 1 0
vn 0 1 0
vn 0 1 0
vn 0 1 0
vn 0 1 0
vn 0 1 0
vn 0 -1 0
vn 0 1 0
vn 0 -1 0
vn 0 -1 0
vn 0 -1 0
vn 0 -1 0
vn 0 -1 0
vn 0 -1 0
vn 0 -1 0
vn 0 -1 0
vn 0 -1 0
vn 0 -1 0
vn 0 -1 0
vn 0 -1 0
vn 0 1 0
vn 0 1 0
vn 0 1 0
vn 0 1 0
vn 0 1 0
vn 0 1 0
vn 0 1 0
vn 0 1 0
vn 0 1 0
vn 0 1 0
vn 0 1 0
vn 0 1 0
vn 0 -1 0
vn 0 1 0
vn 0 -1 0
vn 0 -1 0
vn 0 -1 0
vn 0 -1 0
vn 0 -1 0
vn 0 -1 0
vn 0 -1 0
vn 0 -1 0
vn 0 -1 0
vn 0 -1 0
vn 0 -1 0
vn 0 -1 0
vn 0 1 0
vn 0 1 0
vn 0 1 0
vn 0 1 0
vn 0 1 0
vn 0 1 0
vn 0 1 0
vn 0 1 0
vn 0 1 0
vn 0 1 0
vn 0 1 0
vn 0 1 0
vn 0 -1 0
vn 0 1 0
vn 0 -1 0
vn 0 -1 0
vn 0 -1 0
vn 0 -1 0
vn 0 -1 0
vn 0 -1 0
vn 0 -1 0
vn 0 -1 0
vn 0 -1 0
vn 0 -1 0
vn 0 -1 0
vn 0 -1 0
vn 0 1 0
vn 0 1 0
vn 0 1 0
vn 0 1 0
vn 0 1 0
vn 0 1 0
vn 0 1 0
vn 0 1 0
vn 0 1 0
vn 0 1 0
vn 0 1 0
vn 0 1 0
vn 0 -1 0
vn 0 1 0
vn 0 1 0
vn 0 1 0
vn 0 1 0
vn 0 1 0
vn 0 1 0
vn 0 1 0
vn 0 1 0
vn 0 1 0
vn 0 1 0
vn 0 1 0
vn 0 1 0
vn 0.19509032201612825 0.9807852804032304 0
vn 0.1578313859491287 0.9807852804032304 0.11467121414606977
vn 0.06028622494106459 0.9807852804032304 0.18554192201955863
vn -0.060286224941064566 0.9807852804032304 0.18554192201955866
vn -0.15783138594912868 0.9807852804032304 0.11467121414606979
vn -0.19509032201612825 0.9807852804032304 2.3891673840167787e-17
vn -0.1578313859491287 0.9807852804032304 -0.11467121414606975
vn -0.060286224941064614 0.9807852804032304 -0.18554192201955863
vn 0.060286224941064545 0.9807852804032304 -0.18554192201955866
vn 0.15783138594912868 0.9807852804032304 -0.11467121414606982
vn 0.19509032201612825 0.9807852804032304 -4.7783347680335573e-17
vn 0.3826834323650898 0.9238795325112867 0
vn 0.30959740024909344 0.9238795325112867 0.22493567784086388
vn 0.11825568406654853 0.9238795325112867 0.3639535720290143
vn -0.11825568406654849 0.9238795325112867 0.36395357202901435
vn -0.3095974002490934 0.9238795325112867 0.2249356778408639
vn -0.3826834323650898 0.9238795325112867 4.6865204053262986e-17
vn -0.30959740024909344 0.9238795325112867 -0.22493567784086382
vn -0.11825568406654857 0.9238795325112867 -0.3639535720290143
vn 0.11825568406654845 0.9238795325112867 -0.36395357202901435
vn 0.3095974002490934 0.9238795325112867 -0.22493567784086396
vn 0.3826834323650898 0.9238795325112867 -9.373040810652597e-17
vn 0.5555702330196022 0.8314696123025452 0
vn 0.44946576008170774 0.8314696123025452 0.32655598958161497
vn 0.17168064357190665 0.8314696123025452 0.5283786903729095
vn -0.1716806435719066 0.8314696123025452 0.5283786903729096
vn -0.4494657600817077 0.8314696123025452 0.326555989581615
vn -0.5555702330196022 0.8314696123025452 6.80377307569005e-17
vn -0.44946576008170774 0.8314696123025452 -0.3265559895816149
vn -0.1716806435719067 0.8314696123025452 -0.5283786903729095
vn 0.17168064357190652 0.8314696123025452 -0.5283786903729096
vn 0.4494657600817077 0.8314696123025452 -0.3265559895816151
vn 0.5555702330196022 0.8314696123025452 -1.36075461513801e-16
vn 0.7071067811865475 0.7071067811865476 0
vn 0.5720614028176843 0.7071067811865476 0.4156269377774534
vn 0.21850801222441055 0.7071067811865476 0.6724985119639573
vn -0.21850801222441046 0.7071067811865476 0.6724985119639573
vn -0.5720614028176841 0.7071067811865476 0.41562693777745346
vn -0.7071067811865475 0.7071067811865476 8.659560562354932e-17
vn -0.5720614028176843 0.7071067811865476 -0.4156269377774533
vn -0.2185080122244106 0.7071067811865476 -0.6724985119639573
vn 0.21850801222441038 0.7071067811865476 -0.6724985119639573
vn 0.5720614028176841 0.7071067811865476 -0.4156269377774536
vn 0.7071067811865475 0.7071067811865476 -1.7319121124709863e-16
vn 0.8314696123025452 0.5555702330196023 0
vn 0.672673046659108 0.5555702330196023 0.48872557584077636
vn 0.25693824050783537 0.5555702330196023 0.7907745928817406
vn -0.25693824050783526 0.5555702330196023 0.7907745928817407
vn -0.6726730466591079 0.5555702330196023 0.48872557584077647
vn -0.8314696123025452 0.5555702330196023 1.0182565992946028e-16
vn -0.672673046659108 0.5555702330196023 -0.4887255758407763
vn -0.2569382405078354 0.5555702330196023 -0.7907745928817406
vn 0.25693824050783515 0.5555702330196023 -0.7907745928817407
vn 0.6726730466591079 0.5555702330196023 -0.4887255758407766
vn 0.8314696123025452 0.5555702330196023 -2.0365131985892056e-16
vn 0.9238795325112867 0.3826834323650899 0
vn 0.7474342425568128 0.3826834323650899 0.5430427641049989
vn 0.28549447630116936 0.3826834323650899 0.8786616496665794
vn -0.28549447630116925 0.3826834323650899 0.8786616496665796
vn -0.7474342425568127 0.3826834323650899 0.543042764104999
vn -0.9238795325112867 0.3826834323650899 1.1314261122877003e-16
vn -0.7474342425568128 0.3826834323650899 -0.5430427641049987
vn -0.2854944763011695 0.3826834323650899 -0.8786616496665794
vn 0.28549447630116914 0.3826834323650899 -0.8786616496665796
vn 0.7474342425568127 0.3826834323650899 -0.543042764104999
vn 0.9238795325112867 0.3826834323650899 -2.2628522245754005e-16
vn 0.9807852804032304 0.19509032201612833 0
vn 0.7934719596790115 0.19509032201612833 0.5764911234865568
vn 0.3030793194773963 0.19509032201612833 0.9327822320138617
vn -0.3030793194773962 0.19509032201612833 0.9327822320138618
vn -0.7934719596790114 0.19509032201612833 0.576491123486557
vn -0.9807852804032304 0.19509032201612833 1.2011155542966555e-16
vn -0.7934719596790115 0.19509032201612833 -0.5764911234865567
vn -0.3030793194773964 0.19509032201612833 -0.9327822320138617
vn 0.3030793194773961 0.19509032201612833 -0.9327822320138618
vn 0.7934719596790114 0.19509032201612833 -0.5764911234865571
vn 0.9807852804032304 0.19509032201612833 -2.402231108593311e-16
vn 1 6.123233995736766e-17 0
vn 0.8090169943749475 6.123233995736766e-17 0.5877852522924731
vn 0.30901699437494745 6.123233995736766e-17 0.9510565162951535
vn -0.30901699437494734 6.123233995736766e-17 0.9510565162951536
vn -0.8090169943749473 6.123233995736766e-17 0.5877852522924732
vn -1 6.123233995736766e-17 1.2246467991473532e-16
vn -0.8090169943749475 6.123233995736766e-17 -0.587785252292473
vn -0.30901699437494756 6.123233995736766e-17 -0.9510565162951535
vn 0.30901699437494723 6.123233995736766e-17 -0.9510565162951536
vn 0.8090169943749473 6.123233995736766e-17 -0.5877852522924734
vn 1 6.123233995736766e-17 -2.4492935982947064e-16
vn 0 -1 0
vn 0 -1 0
vn 0 -1 0
vn 0 -1 0
vn 0 -1 0
vn 0 -1 0
vn 0 -1 0
vn 0 1 0
vn 0 1 0
vn 0 1 0
vn 0 1 0
vn 0 1 0
vn 0 1 0
vn 0 -1 0
vn 0 1 0
vn 0 1 0
vn 0 1 0
vn 0 1 0
vn 0 1 0
vn 0 1 0
vn 0 1 0
vn 0 1 0
vn 0 1 0
vn 0 1 0
vn 0 1 0
vn 0 1 0
vn 0.3826834323650898 0.9238795325112868 0
vn 0.30959740024909344 0.9238795325112868 0.22493567784086385
vn 0.11825568406654853 0.9238795325112868 0.3639535720290143
vn -0.11825568406654849 0.9238795325112868 0.36395357202901435
vn -0.3095974002490934 0.9238795325112868 0.2249356778408639
vn -0.3826834323650898 0.9238795325112868 4.686520405326298e-17
vn -0.30959740024909344 0.9238795325112868 -0.22493567784086382
vn -0.11825568406654857 0.9238795325112868 -0.3639535720290143
vn 0.11825568406654843 0.9238795325112868 -0.36395357202901435
vn 0.3095974002490934 0.9238795325112868 -0.22493567784086396
vn 0.3826834323650898 0.9238795325112868 -9.373040810652596e-17
vn 0.7071067811865475 0.7071067811865476 0
vn 0.5720614028176843 0.7071067811865476 0.4156269377774534
vn 0.21850801222441055 0.7071067811865476 0.6724985119639573
vn -0.21850801222441046 0.7071067811865476 0.6724985119639573
vn -0.5720614028176841 0.7071067811865476 0.41562693777745346
vn -0.7071067811865475 0.7071067811865476 8.659560562354932e-17
vn -0.5720614028176843 0.7071067811865476 -0.4156269377774533
vn -0.2185080122244106 0.7071067811865476 -0.6724985119639573
vn 0.21850801222441038 0.7071067811865476 -0.6724985119639573
vn 0.5720614028176841 0.7071067811865476 -0.4156269377774536
vn 0.7071067811865475 0.7071067811865476 -1.7319121124709863e-16
vn 0.9238795325112868 0.38268343236508984 0
vn 0.7474342425568128 0.38268343236508984 0.5430427641049989
vn 0.28549447630116936 0.38268343236508984 0.8786616496665794
vn -0.28549447630116925 0.38268343236508984 0.8786616496665794
vn -0.7474342425568127 0.38268343236508984 0.543042764104999
vn -0.9238795325112868 0.38268343236508984 1.1314261122877003e-16
vn -0.7474342425568128 0.38268343236508984 -0.5430427641049987
vn -0.2854944763011695 0.38268343236508984 -0.8786616496665794
vn 0.28549447630116914 0.38268343236508984 -0.8786616496665794
vn 0.7474342425568127 0.38268343236508984 -0.543042764104999
vn 0.9238795325112868 0.38268343236508984 -2.2628522245754005e-16
vn 1 6.123233995736766e-17 0
vn 0.8090169943749475 6.123233995736766e-17 0.5877852522924731
vn 0.30901699437494745 6.123233995736766e-17 0.9510565162951534
vn -0.30901699437494734 6.123233995736766e-17 0.9510565162951536
vn -0.8090169943749473 6.123233995736766e-17 0.5877852522924732
vn -1 6.123233995736766e-17 1.2246467991473532e-16
vn -0.8090169943749475 6.123233995736766e-17 -0.587785252292473
vn -0.30901699437494756 6.123233995736766e-17 -0.9510565162951534
vn 0.30901699437494723 6.123233995736766e-17 -0.9510565162951536
vn 0.8090169943749473 6.123233995736766e-17 -0.5877852522924734
vn 1 6.123233995736766e-17 -2.4492935982947064e-16
vn 0.9238795325112868 -0.3826834323650897 0
vn 0.7474342425568128 -0.3826834323650897 0.5430427641049989
vn 0.28549447630116936 -0.3826834323650897 0.8786616496665794
vn -0.28549447630116925 -0.3826834323650897 0.8786616496665794
vn -0.7474342425568127 -0.3826834323650897 0.543042764104999
vn -0.9238795325112868 -0.3826834323650897 1.1314261122877003e-16
vn -0.7474342425568128 -0.3826834323650897 -0.5430427641049987
vn -0.2854944763011695 -0.3826834323650897 -0.8786616496665794
vn 0.28549447630116914 -0.3826834323650897 -0.8786616496665794
vn 0.7474342425568127 -0.3826834323650897 -0.543042764104999
vn 0.9238795325112868 -0.3826834323650897 -2.2628522245754005e-16
vn 0.7071067811865476 -0.7071067811865475 0
vn 0.5720614028176844 -0.7071067811865475 0.41562693777745346
vn 0.21850801222441055 -0.7071067811865475 0.6724985119639574
vn -0.21850801222441052 -0.7071067811865475 0.6724985119639574
vn -0.5720614028176843 -0.7071067811865475 0.4156269377774535
vn -0.7071067811865476 -0.7071067811865475 8.659560562354934e-17
vn -0.5720614028176844 -0.7071067811865475 -0.4156269377774534
vn -0.21850801222441066 -0.7071067811865475 -0.6724985119639574
vn 0.2185080122244104 -0.7071067811865475 -0.6724985119639574
vn 0.5720614028176843 -0.7071067811865475 -0.41562693777745363
vn 0.7071067811865476 -0.7071067811865475 -1.7319121124709868e-16
vn 0.3826834323650899 -0.9238795325112868 0
vn 0.3095974002490935 -0.9238795325112868 0.22493567784086396
vn 0.11825568406654857 -0.9238795325112868 0.3639535720290144
vn -0.11825568406654853 -0.9238795325112868 0.36395357202901446
vn -0.3095974002490935 -0.9238795325112868 0.224935677840864
vn -0.3826834323650899 -0.9238795325112868 4.6865204053263004e-17
vn -0.3095974002490935 -0.9238795325112868 -0.2249356778408639
vn -0.11825568406654863 -0.9238795325112868 -0.3639535720290144
vn 0.11825568406654849 -0.9238795325112868 -0.36395357202901446
vn 0.3095974002490935 -0.9238795325112868 -0.224935677840864
vn 0.3826834323650899 -0.9238795325112868 -9.373040810652601e-17
vn 1.2246467991473532e-16 -1 0
vn 9.907600726170916e-17 -1 7.198293278059966e-17
vn 3.7843667304341506e-17 -1 1.1647083184890923e-16
vn -3.7843667304341493e-17 -1 1.1647083184890926e-16
vn -9.907600726170915e-17 -1 7.198293278059968e-17
vn -1.2246467991473532e-16 -1 1.4997597826618576e-32
vn -9.907600726170916e-17 -1 -7.198293278059965e-17
vn -3.784366730434152e-17 -1 -1.1647083184890923e-16
vn 3.7843667304341475e-17 -1 -1.1647083184890926e-16
vn 9.907600726170915e-17 -1 -7.19829327805997e-17
vn 1.2246467991473532e-16 -1 -2.999519565323715e-32
vn 0 1 0
vn 0 1 0
vn 0 1 0
vn 0 1 0
vn 0 1 0
vn 0 1 0
vn 0 1 0
vn 0 1 0
vn 0 1 0
vn 0 1 0
vn 0 1 0
vn 0 1 0
vn 0 1 0
vn 0 1 0
vn 0 1 0
vn 0 1 0
vn 0 1 0
vn 0 1 0
vn 0 1 0
vn 0 1 0
vn 0 1 0
vn 0 1 0
vn 0 1 0
vn 0 1 0
f 1/1/1 9/9/9 5/5/5
f 1/1/1 5/5/5 15/15/15
f 1/1/1 15/15/15 13/13/13
f 1/1/1 17/17/17 3/3/3
f 1/1/1 3/3/3 11/11/11
f 1/1/1 11/11/11 9/9/9
f 1/1/1 13/13/13 2/2/2
f 1/1/1 2/2/2 18/18/18
f 1/1/1 18/18/18 17/17/17
f 9/9/9 11/11/11 7/7/7
f 9/9/9 7/7/7 19/19/19
f 9/9/9 19/19/19 5/5/5
f 3/3/3 14/14/14 4/4/4
f 3/3/3 4/4/4 12/12/12
f 3/3/3 12/12/12 11/11/11
f 3/3/3 17/17/17 18/18/18
f 3/3/3 18/18/18 4/4/4
f 3/3/3 4/4/4 14/14/14
f 5/5/5 19/19/19 20/20/20
f 5/5/5 20/20/20 6/6/6
f 5/5/5 6/6/6 15/15/15
f 7/7/7 16/16/16 8/8/8
f 7/7/7 8/8/8 20/20/20
f 7/7/7 20/20/20 19/19/19
f 7/7/7 11/11/11 12/12/12
f 7/7/7 12/12/12 8/8/8
f 7/7/7 8/8/8 16/16/16
f 2/2/2 10/10/10 6/6/6
f 2/2/2 6/6/6 15/15/15
f 2/2/2 15/15/15 13/13/13
f 2/2/2 18/18/18 4/4/4
f 2/2/2 4/4/4 12/12/12
f 2/2/2 12/12/12 10/10/10
f 6/6/6 20/20/20 8/8/8
f 6/6/6 8/8/8 16/16/16
f 6/6/6 16/16/16 10/10/10
f 21/21/21 32/32/32 26/26/26
f 21/21/21 26/26/26 22/22/22
f 21/21/21 22/22/22 28/28/28
f 21/21/21 28/28/28 31/31/31
f 21/21/21 31/31/31 32/32/32
f 22/22/22 26/26/26 30/30/30
f 26/26/26 32/32/32 25/25/25
f 32/32/32 31/31/31 23/23/23
f 31/31/31 28/28/28 27/27/27
f 28/28/28 22/22/22 29/29/29
f 24/24/24 30/30/30 25/25/25
f 24/24/24 25/25/25 23/23/23
f 24/24/24 23/23/23 27/27/27
f 24/24/24 27/27/27 29/29/29
f 24/24/24 29/29/29 30/30/30
f 25/25/25 30/30/30 26/26/26
f 23/23/23 25/25/25 32/32/32
f 27/27/27 23/23/23 31/31/31
f 29/29/29 27/27/27 28/28/28
f 30/30/30 29/29/29 22/22/22
f 33/33/33 44/44/44 38/38/38
f 33/33/33 38/38/38 34/34/34
f 33/33/33 34/34/34 40/40/40
f 33/33/33 40/40/40 43/43/43
f 33/33/33 43/43/43 44/44/44
f 34/34/34 38/38/38 42/42/42
f 38/38/38 44/44/44 37/37/37
f 44/44/44 43/43/43 35/35/35
f 43/43/43 40/40/40 39/39/39
f 40/40/40 34/34/34 41/41/41
f 36/36/36 42/42/42 37/37/37
f 36/36/36 37/37/37 35/35/35
f 36/36/36 35/35/35 39/39/39
f 36/36/36 39/39/39 41/41/41
f 36/36/36 41/41/41 42/42/42
f 37/37/37 42/42/42 38/38/38
f 35/35/35 37/37/37 44/44/44
f 39/39/39 35/35/35 43/43/43
f 41/41/41 39/39/39 40/40/40
f 42/42/42 41/41/41 34/34/34
f 45/45/45 46/46/46 58/58/58
f 45/45/45 58/58/58 57/57/57
f 69/69/69 46/46/46 45/45/45
f 70/70/70 57/57/57 58/58/58
f 46/46/46 47/47/47 59/59/59
f 46/46/46 59/59/59 58/58/58
f 69/69/69 47/47/47 46/46/46
f 70/70/70 58/58/58 59/59/59
f 47/47/47 48/48/48 60/60/60
f 47/47/47 60/60/60 59/59/59
f 69/69/69 48/48/48 47/47/47
f 70/70/70 59/59/59 60/60/60
f 48/48/48 49/49/49 61/61/61
f 48/48/48 61/61/61 60/60/60
f 69/69/69 49/49/49 48/48/48
f 70/70/70 60/60/60 61/61/61
f 49/49/49 50/50/50 62/62/62
f 49/49/49 62/62/62 61/61/61
f 69/69/69 50/50/50 49/49/49
f 70/70/70 61/61/61 62/62/62
f 50/50/50 51/51/51 63/63/63
f 50/50/50 63/63/63 62/62/62
f 69/69/69 51/51/51 50/50/50
f 70/70/70 62/62/62 63/63/63
f 51/51/51 52/52/52 64/64/64
f 51/51/51 64/64/64 63/63/63
f 69/69/69 52/52/52 51/51/51
f 70/70/70 63/63/63 64/64/64
f 52/52/52 53/53/53 65/65/65
f 52/52/52 65/65/65 64/64/64
f 69/69/69 53/53/53 52/52/52
f 70/70/70 64/64/64 65/65/65
f 53/53/53 54/54/54 66/66/66
f 53/53/53 66/66/66 65/65/65
f 69/69/69 54/54/54 53/53/53
f 70/70/70 65/65/65 66/66/66
f 54/54/54 55/55/55 67/67/67
f 54/54/54 67/67/67 66/66/66
f 69/69/69 55/55/55 54/54/54
f 70/70/70 66/66/66 67/67/67
f 55/55/55 56/56/56 68/68/68
f 55/55/55 68/68/68 67/67/67
f 69/69/69 56/56/56 55/55/55
f 70/70/70 67/67/67 68/68/68
f 56/56/56 45/45/45 57/57/57
f 56/56/56 57/57/57 68/68/68
f 69/69/69 45/45/45 56/56/56
f 70/70/70 68/68/68 57/57/57
f 71/71/71 72/72/72 84/84/84
f 71/71/71 84/84/84 83/83/83
f 95/95/95 72/72/72 71/71/71
f 96/96/96 83/83/83 84/84/84
f 72/72/72 73/73/73 85/85/85
f 72/72/72 85/85/85 84/84/84
f 95/95/95 73/73/73 72/72/72
f 96/96/96 84/84/84 85/85/85
f 73/73/73 74/74/74 86/86/86
f 73/73/73 86/86/86 85/85/85
f 95/95/95 74/74/74 73/73/73
f 96/96/96 85/85/85 86/86/86
f 74/74/74 75/75/75 87/87/87
f 74/74/74 87/87/87 86/86/86
f 95/95/95 75/75/75 74/74/74
f 96/96/96 86/86/86 87/87/87
f 75/75/75 76/76/76 88/88/88
f 75/75/75 88/88/88 87/87/87
f 95/95/95 76/76/76 75/75/75
f 96/96/96 87/87/87 88/88/88
f 76/76/76 77/77/77 89/89/89
f 76/76/76 89/89/89 88/88/88
f 95/95/95 77/77/77 76/76/76
f 96/96/96 88/88/88 89/89/89
f 77/77/77 78/78/78 90/90/90
f 77/77/77 90/90/90 89/89/89
f 95/95/95 78/78/78 77/77/77
f 96/96/96 89/89/89 90/90/90
f 78/78/78 79/79/79 91/91/91
f 78/78/78 91/91/91 90/90/90
f 95/95/95 79/79/79 78/78/78
f 96/96/96 90/90/90 91/91/91
f 79/79/79 80/80/80 92/92/92
f 79/79/79 92/92/92 91/91/91
f 95/95/95 80/80/80 79/79/79
f 96/96/96 91/91/91 92/92/92
f 80/80/80 81/81/81 93/93/93
f 80/80/80 93/93/93 92/92/92
f 95/95/95 81/81/81 80/80/80
f 96/96/96 92/92/92 93/93/93
f 81/81/81 82/82/82 94/94/94
f 81/81/81 94/94/94 93/93/93
f 95/95/95 82/82/82 81/81/81
f 96/96/96 93/93/93 94/94/94
f 82/82/82 71/71/71 83/83/83
f 82/82/82 83/83/83 94/94/94
f 95/95/95 71/71/71 82/82/82
f 96/96/96 94/94/94 83/83/83
f 97/97/97 99/99/99 98/98/98
f 97/97/97 100/100/100 99/99/99
f 101/101/101 102/102/102 103/103/103
f 101/101/101 103/103/103 104/104/104
f 97/97/97 98/98/98 102/102/102
f 97/97/97 102/102/102 101/101/101
f 99/99/99 100/100/100 104/104/104
f 99/99/99 104/104/104 103/103/103
f 97/97/97 101/101/101 104/104/104
f 97/97/97 104/104/104 100/100/100
f 98/98/98 99/99/99 103/103/103
f 98/98/98 103/103/103 102/102/102
f 105/105/105 107/107/107 106/106/106
f 105/105/105 108/108/108 107/107/107
f 109/109/109 110/110/110 111/111/111
f 109/109/109 111/111/111 112/112/112
f 105/105/105 106/106/106 110/110/110
f 105/105/105 110/110/110 109/109/109
f 107/107/107 108/108/108 112/112/112
f 107/107/107 112/112/112 111/111/111
f 105/105/105 109/109/109 112/112/112
f 105/105/105 112/112/112 108/108/108
f 106/106/106 107/107/107 111/111/111
f 106/106/106 111/111/111 110/110/110
f 113/113/113 115/115/115 114/114/114
f 113/113/113 116/116/116 115/115/115
f 117/117/117 118/118/118 119/119/119
f 117/117/117 119/119/119 120/120/120
f 113/113/113 114/114/114 118/118/118
f 113/113/113 118/118/118 117/117/117
f 115/115/115 116/116/116 120/120/120
f 115/115/115 120/120/120 119/119/119
f 113/113/113 117/117/117 120/120/120
f 113/113/113 120/120/120 116/116/116
f 114/114/114 115/115/115 119/119/119
f 114/114/114 119/119/119 118/118/118
f 121/121/121 122/122/122 134/134/134
f 121/121/121 134/134/134 133/133/133
f 145/145/145 122/122/122 121/121/121
f 146/146/146 133/133/133 134/134/134
f 122/122/122 123/123/123 135/135/135
f 122/122/122 135/135/135 134/134/134
f 145/145/145 123/123/123 122/122/122
f 146/146/146 134/134/134 135/135/135
f 123/123/123 124/124/124 136/136/136
f 123/123/123 136/136/136 135/135/135
f 145/145/145 124/124/124 123/123/123
f 146/146/146 135/135/135 136/136/136
f 124/124/124 125/125/125 137/137/137
f 124/124/124 137/137/137 136/136/136
f 145/145/145 125/125/125 124/124/124
f 146/146/146 136/136/136 137/137/137
f 125/125/125 126/126/126 138/138/138
f 125/125/125 138/138/138 137/137/137
f 145/145/145 126/126/126 125/125/125
f 146/146/146 137/137/137 138/138/138
f 126/126/126 127/127/127 139/139/139
f 126/126/126 139/139/139 138/138/138
f 145/145/145 127/127/127 126/126/126
f 146/146/146 138/138/138 139/139/139
f 127/127/127 128/128/128 140/140/140
f 127/127/127 140/140/140 139/139/139
f 145/145/145 128/128/128 127/127/127
f 146/146/146 139/139/139 140/140/140
f 128/128/128 129/129/129 141/141/141
f 128/128/128 141/141/141 140/140/140
f 145/145/145 129/129/129 128/128/128
f 146/146/146 140/140/140 141/141/141
f 129/129/129 130/130/130 142/142/142
f 129/129/129 142/142/142 141/141/141
f 145/145/145 130/130/130 129/129/129
f 146/146/146 141/141/141 142/142/142
f 130/130/130 131/131/131 143/143/143
f 130/130/130 143/143/143 142/142/142
f 145/145/145 131/131/131 130/130/130
f 146/146/146 142/142/142 143/143/143
f 131/131/131 132/132/132 144/144/144
f 131/131/131 144/144/144 143/143/143
f 145/145/145 132/132/132 131/131/131
f 146/146/146 143/143/143 144/144/144
f 132/132/132 121/121/121 133/133/133
f 132/132/132 133/133/133 144/144/144
f 145/145/145 121/121/121 132/132/132
f 146/146/146 144/144/144 133/133/133
f 147/147/147 148/148/148 160/160/160
f 147/147/147 160/160/160 159/159/159
f 171/171/171 148/148/148 147/147/147
f 172/172/172 159/159/159 160/160/160
f 148/148/148 149/149/149 161/161/161
f 148/148/148 161/161/161 160/160/160
f 171/171/171 149/149/149 148/148/148
f 172/172/172 160/160/160 161/161/161
f 149/149/149 150/150/150 162/162/162
f 149/149/149 162/162/162 161/161/161
f 171/171/171 150/150/150 149/149/149
f 172/172/172 161/161/161 162/162/162
f 150/150/150 151/151/151 163/163/163
f 150/150/150 163/163/163 162/162/162
f 171/171/171 151/151/151 150/150/150
f 172/172/172 162/162/162 163/163/163
f 151/151/151 152/152/152 164/164/164
f 151/151/151 164/164/164 163/163/163
f 171/171/171 152/152/152 151/151/151
f 172/172/172 163/163/163 164/164/164
f 152/152/152 153/153/153 165/165/165
f 152/152/152 165/165/165 164/164/164
f 171/171/171 153/153/153 152/152/152
f 172/172/172 164/164/164 165/165/165
f 153/153/153 154/154/154 166/166/166
f 153/153/153 166/166/166 165/165/165
f 171/171/171 154/154/154 153/153/153
f 172/172/172 165/165/165 166/166/166
f 154/154/154 155/155/155 167/167/167
f 154/154/154 167/167/167 166/166/166
f 171/171/171 155/155/155 154/154/154
f 172/172/172 166/166/166 167/167/167
f 155/155/155 156/156/156 168/168/168
f 155/155/155 168/168/168 167/167/167
f 171/171/171 156/156/156 155/155/155
f 172/172/172 167/167/167 168/168/168
f 156/156/156 157/157/157 169/169/169
f 156/156/156 169/169/169 168/168/168
f 171/171/171 157/157/157 156/156/156
f 172/172/172 168/168/168 169/169/169
f 157/157/157 158/158/158 170/170/170
f 157/157/157 170/170/170 169/169/169
f 171/171/171 158/158/158 157/157/157
f 172/172/172 169/169/169 170/170/170
f 158/158/158 147/147/147 159/159/159
f 158/158/158 159/159/159 170/170/170
f 171/171/171 147/147/147 158/158/158
f 172/172/172 170/170/170 159/159/159
f 173/173/173 174/174/174 186/186/186
f 173/173/173 186/186/186 185/185/185
f 197/197/197 174/174/174 173/173/173
f 198/198/198 185/185/185 186/186/186
f 174/174/174 175/175/175 187/187/187
f 174/174/174 187/187/187 186/186/186
f 197/197/197 175/175/175 174/174/174
f 198/198/198 186/186/186 187/187/187
f 175/175/175 176/176/176 188/188/188
f 175/175/175 188/188/188 187/187/187
f 197/197/197 176/176/176 175/175/175
f 198/198/198 187/187/187 188/188/188
f 176/176/176 177/177/177 189/189/189
f 176/176/176 189/189/189 188/188/188
f 197/197/197 177/177/177 176/176/176
f 198/198/198 188/188/188 189/189/189
f 177/177/177 178/178/178 190/190/190
f 177/177/177 190/190/190 189/189/189
f 197/197/197 178/178/178 177/177/177
f 198/198/198 189/189/189 190/190/190
f 178/178/178 179/179/179 191/191/191
f 178/178/178 191/191/191 190/190/190
f 197/197/197 179/179/179 178/178/178
f 198/198/198 190/190/190 191/191/191
f 179/179/179 180/180/180 192/192/192
f 179/179/179 192/192/192 191/191/191
f 197/197/197 180/180/180 179/179/179
f 198/198/198 191/191/191 192/192/192
f 180/180/180 181/181/181 193/193/193
f 180/180/180 193/193/193 192/192/192
f 197/197/197 181/181/181 180/180/180
f 198/198/198 192/192/192 193/193/193
f 181/181/181 182/182/182 194/194/194
f 181/181/181 194/194/194 193/193/193
f 197/197/197 182/182/182 181/181/181
f 198/198/198 193/193/193 194/194/194
f 182/182/182 183/183/183 195/195/195
f 182/182/182 195/195/195 194/194/194
f 197/197/197 183/183/183 182/182/182
f 198/198/198 194/194/194 195/195/195
f 183/183/183 184/184/184 196/196/196
f 183/183/183 196/196/196 195/195/195
f 197/197/197 184/184/184 183/183/183
f 198/198/198 195/195/195 196/196/196
f 184/184/184 173/173/173 185/185/185
f 184/184/184 185/185/185 196/196/196
f 197/197/197 173/173/173 184/184/184
f 198/198/198 196/196/196 185/185/185
f 199/199/199 200/200/200 212/212/212
f 199/199/199 212/212/212 211/211/211
f 223/223/223 200/200/200 199/199/199
f 224/224/224 211/211/211 212/212/212
f 200/200/200 201/201/201 213/213/213
f 200/200/200 213/213/213 212/212/212
f 223/223/223 201/201/201 200/200/200
f 224/224/224 212/212/212 213/213/213
f 201/201/201 202/202/202 214/214/214
f 201/201/201 214/214/214 213/213/213
f 223/223/223 202/202/202 201/201/201
f 224/224/224 213/213/213 214/214/214
f 202/202/202 203/203/203 215/215/215
f 202/202/202 215/215/215 214/214/214
f 223/223/223 203/203/203 202/202/202
f 224/224/224 214/214/214 215/215/215
f 203/203/203 204/204/204 216/216/216
f 203/203/203 216/216/216 215/215/215
f 223/223/223 204/204/204 203/203/203
f 224/224/224 215/215/215 216/216/216
f 204/204/204 205/205/205 217/217/217
f 204/204/204 217/217/217 216/216/216
f 223/223/223 205/205/205 204/204/204
f 224/224/224 216/216/216 217/217/217
f 205/205/205 206/206/206 218/218/218
f 205/205/205 218/218/218 217/217/217
f 223/223/223 206/206/206 205/205/205
f 224/224/224 217/217/217 218/218/218
f 206/206/206 207/207/207 219/219/219
f 206/206/206 219/219/219 218/218/218
f 223/223/223 207/207/207 206/206/206
f 224/224/224 218/218/218 219/219/219
f 207/207/207 208/208/208 220/220/220
f 207/207/207 220/220/220 219/219/219
f 223/223/223 208/208/208 207/207/207
f 224/224/224 219/219/219 220/220/220
f 208/208/208 209/209/209 221/221/221
f 208/208/208 221/221/221 220/220/220
f 223/223/223 209/209/209 208/208/208
f 224/224/224 220/220/220 221/221/221
f 209/209/209 210/210/210 222/222/222
f 209/209/209 222/222/222 221/221/221
f 223/223/223 210/210/210 209/209/209
f 224/224/224 221/221/221 222/222/222
f 210/210/210 199/199/199 211/211/211
f 210/210/210 211/211/211 222/222/222
f 223/223/223 199/199/199 210/210/210
f 224/224/224 222/222/222 211/211/211
f 225/225/225 226/226/226 238/238/238
f 225/225/225 238/238/238 237/237/237
f 249/249/249 226/226/226 225/225/225
f 250/250/250 237/237/237 238/238/238
f 226/226/226 227/227/227 239/239/239
f 226/226/226 239/239/239 238/238/238
f 249/249/249 227/227/227 226/226/226
f 250/250/250 238/238/238 239/239/239
f 227/227/227 228/228/228 240/240/240
f 227/227/227 240/240/240 239/239/239
f 249/249/249 228/228/228 227/227/227
f 250/250/250 239/239/239 240/240/240
f 228/228/228 229/229/229 241/241/241
f 228/228/228 241/241/241 240/240/240
f 249/249/249 229/229/229 228/228/228
f 250/250/250 240/240/240 241/241/241
f 229/229/229 230/230/230 242/242/242
f 229/229/229 242/242/242 241/241/241
f 249/249/249 230/230/230 229/229/229
f 250/250/250 241/241/241 242/242/242
f 230/230/230 231/231/231 243/243/243
f 230/230/230 243/243/243 242/242/242
f 249/249/249 231/231/231 230/230/230
f 250/250/250 242/242/242 243/243/243
f 231/231/231 232/232/232 244/244/244
f 231/231/231 244/244/244 243/243/243
f 249/249/249 232/232/232 231/231/231
f 250/250/250 243/243/243 244/244/244
f 232/232/232 233/233/233 245/245/245
f 232/232/232 245/245/245 244/244/244
f 249/249/249 233/233/233 232/232/232
f 250/250/250 244/244/244 245/245/245
f 233/233/233 234/234/234 246/246/246
f 233/233/233 246/246/246 245/245/245
f 249/249/249 234/234/234 233/233/233
f 250/250/250 245/245/245 246/246/246
f 234/234/234 235/235/235 247/247/247
f 234/234/234 247/247/247 246/246/246
f 249/249/249 235/235/235 234/234/234
f 250/250/250 246/246/246 247/247/247
f 235/235/235 236/236/236 248/248/248
f 235/235/235 248/248/248 247/247/247
f 249/249/249 236/236/236 235/235/235
f 250/250/250 247/247/247 248/248/248
f 236/236/236 225/225/225 237/237/237
f 236/236/236 237/237/237 248/248/248
f 249/249/249 225/225/225 236/236/236
f 250/250/250 248/248/248 237/237/237
f 251/251/251 252/252/252 264/264/264
f 251/251/251 264/264/264 263/263/263
f 275/275/275 252/252/252 251/251/251
f 276/276/276 263/263/263 264/264/264
f 252/252/252 253/253/253 265/265/265
f 252/252/252 265/265/265 264/264/264
f 275/275/275 253/253/253 252/252/252
f 276/276/276 264/264/264 265/265/265
f 253/253/253 254/254/254 266/266/266
f 253/253/253 266/266/266 265/265/265
f 275/275/275 254/254/254 253/253/253
f 276/276/276 265/265/265 266/266/266
f 254/254/254 255/255/255 267/267/267
f 254/254/254 267/267/267 266/266/266
f 275/275/275 255/255/255 254/254/254
f 276/276/276 266/266/266 267/267/267
f 255/255/255 256/256/256 268/268/268
f 255/255/255 268/268/268 267/267/267
f 275/275/275 256/256/256 255/255/255
f 276/276/276 267/267/267 268/268/268
f 256/256/256 257/257/257 269/269/269
f 256/256/256 269/269/269 268/268/268
f 275/275/275 257/257/257 256/256/256
f 276/276/276 268/268/268 269/269/269
f 257/257/257 258/258/258 270/270/270
f 257/257/257 270/270/270 269/269/269
f 275/275/275 258/258/258 257/257/257
f 276/276/276 269/269/269 270/270/270
f 258/258/258 259/259/259 271/271/271
f 258/258/258 271/271/271 270/270/270
f 275/275/275 259/259/259 258/258/258
f 276/276/276 270/270/270 271/271/271
f 259/259/259 260/260/260 272/272/272
f 259/259/259 272/272/272 271/271/271
f 275/275/275 260/260/260 259/259/259
f 276/276/276 271/271/271 272/272/272
f 260/260/260 261/261/261 273/273/273
f 260/260/260 273/273/273 272/272/272
f 275/275/275 261/261/261 260/260/260
f 276/276/276 272/272/272 273/273/273
f 261/261/261 262/262/262 274/274/274
f 261/261/261 274/274/274 273/273/273
f 275/275/275 262/262/262 261/261/261
f 276/276/276 273/273/273 274/274/274
f 262/262/262 251/251/251 263/263/263
f 262/262/262 263/263/263 274/274/274
f 275/275/275 251/251/251 262/262/262
f 276/276/276 274/274/274 263/263/263
f 277/277/277 278/278/278 290/290/290
f 277/277/277 290/290/290 289/289/289
f 301/301/301 278/278/278 277/277/277
f 302/302/302 289/289/289 290/290/290
f 278/278/278 279/279/279 291/291/291
f 278/278/278 291/291/291 290/290/290
f 301/301/301 279/279/279 278/278/278
f 302/302/302 290/290/290 291/291/291
f 279/279/279 280/280/280 292/292/292
f 279/279/279 292/292/292 291/291/291
f 301/301/301 280/280/280 279/279/279
f 302/302/302 291/291/291 292/292/292
f 280/280/280 281/281/281 293/293/293
f 280/280/280 293/293/293 292/292/292
f 301/301/301 281/281/281 280/280/280
f 302/302/302 292/292/292 293/293/293
f 281/281/281 282/282/282 294/294/294
f 281/281/281 294/294/294 293/293/293
f 301/301/301 282/282/282 281/281/281
f 302/302/302 293/293/293 294/294/294
f 282/282/282 283/283/283 295/295/295
f 282/282/282 295/295/295 294/294/294
f 301/301/301 283/283/283 282/282/282
f 302/302/302 294/294/294 295/295/295
f 283/283/283 284/284/284 296/296/296
f 283/283/283 296/296/296 295/295/295
f 301/301/301 284/284/284 283/283/283
f 302/302/302 295/295/295 296/296/296
f 284/284/284 285/285/285 297/297/297
f 284/284/284 297/297/297 296/296/296
f 301/301/301 285/285/285 284/284/284
f 302/302/302 296/296/296 297/297/297
f 285/285/285 286/286/286 298/298/298
f 285/285/285 298/298/298 297/297/297
f 301/301/301 286/286/286 285/285/285
f 302/302/302 297/297/297 298/298/298
f 286/286/286 287/287/287 299/299/299
f 286/286/286 299/299/299 298/298/298
f 301/301/301 287/287/287 286/286/286
f 302/302/302 298/298/298 299/299/299
f 287/287/287 288/288/288 300/300/300
f 287/287/287 300/300/300 299/299/299
f 301/301/301 288/288/288 287/287/287
f 302/302/302 299/299/299 300/300/300
f 288/288/288 277/277/277 289/289/289
f 288/288/288 289/289/289 300/300/300
f 301/301/301 277/277/277 288/288/288
f 302/302/302 300/300/300 289/289/289
f 303/303/303 314/314/314 315/315/315
f 303/303/303 315/315/315 304/304/304
f 304/304/304 315/315/315 316/316/316
f 304/304/304 316/316/316 305/305/305
f 305/305/305 316/316/316 317/317/317
f 305/305/305 317/317/317 306/306/306
f 306/306/306 317/317/317 318/318/318
f 306/306/306 318/318/318 307/307/307
f 307/307/307 318/318/318 319/319/319
f 307/307/307 319/319/319 308/308/308
f 308/308/308 319/319/319 320/320/320
f 308/308/308 320/320/320 309/309/309
f 309/309/309 320/320/320 321/321/321
f 309/309/309 321/321/321 310/310/310
f 310/310/310 321/321/321 322/322/322
f 310/310/310 322/322/322 311/311/311
f 311/311/311 322/322/322 323/323/323
f 311/311/311 323/323/323 312/312/312
f 312/312/312 323/323/323 324/324/324
f 312/312/312 324/324/324 313/313/313
f 314/314/314 325/325/325 326/326/326
f 314/314/314 326/326/326 315/315/315
f 315/315/315 326/326/326 327/327/327
f 315/315/315 327/327/327 316/316/316
f 316/316/316 327/327/327 328/328/328
f 316/316/316 328/328/328 317/317/317
f 317/317/317 328/328/328 329/329/329
f 317/317/317 329/329/329 318/318/318
f 318/318/318 329/329/329 330/330/330
f 318/318/318 330/330/330 319/319/319
f 319/319/319 330/330/330 331/331/331
f 319/319/319 331/331/331 320/320/320
f 320/320/320 331/331/331 332/332/332
f 320/320/320 332/332/332 321/321/321
f 321/321/321 332/332/332 333/333/333
f 321/321/321 333/333/333 322/322/322
f 322/322/322 333/333/333 334/334/334
f 322/322/322 334/334/334 323/323/323
f 323/323/323 334/334/334 335/335/335
f 323/323/323 335/335/335 324/324/324
f 325/325/325 336/336/336 337/337/337
f 325/325/325 337/337/337 326/326/326
f 326/326/326 337/337/337 338/338/338
f 326/326/326 338/338/338 327/327/327
f 327/327/327 338/338/338 339/339/339
f 327/327/327 339/339/339 328/328/328
f 328/328/328 339/339/339 340/340/340
f 328/328/328 340/340/340 329/329/329
f 329/329/329 340/340/340 341/341/341
f 329/329/329 341/341/341 330/330/330
f 330/330/330 341/341/341 342/342/342
f 330/330/330 342/342/342 331/331/331
f 331/331/331 342/342/342 343/343/343
f 331/331/331 343/343/343 332/332/332
f 332/332/332 343/343/343 344/344/344
f 332/332/332 344/344/344 333/333/333
f 333/333/333 344/344/344 345/345/345
f 333/333/333 345/345/345 334/334/334
f 334/334/334 345/345/345 346/346/346
f 334/334/334 346/346/346 335/335/335
f 336/336/336 347/347/347 348/348/348
f 336/336/336 348/348/348 337/337/337
f 337/337/337 348/348/348 349/349/349
f 337/337/337 349/349/349 338/338/338
f 338/338/338 349/349/349 350/350/350
f 338/338/338 350/350/350 339/339/339
f 339/339/339 350/350/350 351/351/351
f 339/339/339 351/351/351 340/340/340
f 340/340/340 351/351/351 352/352/352
f 340/340/340 352/352/352 341/341/341
f 341/341/341 352/352/352 353/353/353
f 341/341/341 353/353/353 342/342/342
f 342/342/342 353/353/353 354/354/354
f 342/342/342 354/354/354 343/343/343
f 343/343/343 354/354/354 355/355/355
f 343/343/343 355/355/355 344/344/344
f 344/344/344 355/355/355 356/356/356
f 344/344/344 356/356/356 345/345/345
f 345/345/345 356/356/356 357/357/357
f 345/345/345 357/357/357 346/346/346
f 347/347/347 358/358/358 359/359/359
f 347/347/347 359/359/359 348/348/348
f 348/348/348 359/359/359 360/360/360
f 348/348/348 360/360/360 349/349/349
f 349/349/349 360/360/360 361/361/361
f 349/349/349 361/361/361 350/350/350
f 350/350/350 361/361/361 362/362/362
f 350/350/350 362/362/362 351/351/351
f 351/351/351 362/362/362 363/363/363
f 351/351/351 363/363/363 352/352/352
f 352/352/352 363/363/363 364/364/364
f 352/352/352 364/364/364 353/353/353
f 353/353/353 364/364/364 365/365/365
f 353/353/353 365/365/365 354/354/354
f 354/354/354 365/365/365 366/366/366
f 354/354/354 366/366/366 355/355/355
f 355/355/355 366/366/366 367/367/367
f 355/355/355 367/367/367 356/356/356
f 356/356/356 367/367/367 368/368/368
f 356/356/356 368/368/368 357/357/357
f 358/358/358 369/369/369 370/370/370
f 358/358/358 370/370/370 359/359/359
f 359/359/359 370/370/370 371/371/371
f 359/359/359 371/371/371 360/360/360
f 360/360/360 371/371/371 372/372/372
f 360/360/360 372/372/372 361/361/361
f 361/361/361 372/372/372 373/373/373
f 361/361/361 373/373/373 362/362/362
f 362/362/362 373/373/373 374/374/374
f 362/362/362 374/374/374 363/363/363
f 363/363/363 374/374/374 375/375/375
f 363/363/363 375/375/375 364/364/364
f 364/364/364 375/375/375 376/376/376
f 364/364/364 376/376/376 365/365/365
f 365/365/365 376/376/376 377/377/377
f 365/365/365 377/377/377 366/366/366
f 366/366/366 377/377/377 378/378/378
f 366/366/366 378/378/378 367/367/367
f 367/367/367 378/378/378 379/379/379
f 367/367/367 379/379/379 368/368/368
f 369/369/369 380/380/380 381/381/381
f 369/369/369 381/381/381 370/370/370
f 370/370/370 381/381/381 382/382/382
f 370/370/370 382/382/382 371/371/371
f 371/371/371 382/382/382 383/383/383
f 371/371/371 383/383/383 372/372/372
f 372/372/372 383/383/383 384/384/384
f 372/372/372 384/384/384 373/373/373
f 373/373/373 384/384/384 385/385/385
f 373/373/373 385/385/385 374/374/374
f 374/374/374 385/385/385 386/386/386
f 374/374/374 386/386/386 375/375/375
f 375/375/375 386/386/386 387/387/387
f 375/375/375 387/387/387 376/376/376
f 376/376/376 387/387/387 388/388/388
f 376/376/376 388/388/388 377/377/377
f 377/377/377 388/388/388 389/389/389
f 377/377/377 389/389/389 378/378/378
f 378/378/378 389/389/389 390/390/390
f 378/378/378 390/390/390 379/379/379
f 380/380/380 391/391/391 392/392/392
f 380/380/380 392/392/392 381/381/381
f 381/381/381 392/392/392 393/393/393
f 381/381/381 393/393/393 382/382/382
f 382/382/382 393/393/393 394/394/394
f 382/382/382 394/394/394 383/383/383
f 383/383/383 394/394/394 395/395/395
f 383/383/383 395/395/395 384/384/384
f 384/384/384 395/395/395 396/396/396
f 384/384/384 396/396/396 385/385/385
f 385/385/385 396/396/396 397/397/397
f 385/385/385 397/397/397 386/386/386
f 386/386/386 397/397/397 398/398/398
f 386/386/386 398/398/398 387/387/387
f 387/387/387 398/398/398 399/399/399
f 387/387/387 399/399/399 388/388/388
f 388/388/388 399/399/399 400/400/400
f 388/388/388 400/400/400 389/389/389
f 389/389/389 400/400/400 401/401/401
f 389/389/389 401/401/401 390/390/390
f 402/402/402 391/391/391 392/392/392
f 402/402/402 392/392/392 393/393/393
f 402/402/402 393/393/393 394/394/394
f 402/402/402 394/394/394 395/395/395
f 402/402/402 395/395/395 396/396/396
f 402/402/402 396/396/396 397/397/397
f 402/402/402 397/397/397 398/398/398
f 402/402/402 398/398/398 399/399/399
f 402/402/402 399/399/399 400/400/400
f 402/402/402 400/400/400 401/401/401
f 403/403/403 404/404/404 410/410/410
f 403/403/403 410/410/410 409/409/409
f 415/415/415 404/404/404 403/403/403
f 416/416/416 409/409/409 410/410/410
f 404/404/404 405/405/405 411/411/411
f 404/404/404 411/411/411 410/410/410
f 415/415/415 405/405/405 404/404/404
f 416/416/416 410/410/410 411/411/411
f 405/405/405 406/406/406 412/412/412
f 405/405/405 412/412/412 411/411/411
f 415/415/415 406/406/406 405/405/405
f 416/416/416 411/411/411 412/412/412
f 406/406/406 407/407/407 413/413/413
f 406/406/406 413/413/413 412/412/412
f 415/415/415 407/407/407 406/406/406
f 416/416/416 412/412/412 413/413/413
f 407/407/407 408/408/408 414/414/414
f 407/407/407 414/414/414 413/413/413
f 415/415/415 408/408/408 407/407/407
f 416/416/416 413/413/413 414/414/414
f 408/408/408 403/403/403 409/409/409
f 408/408/408 409/409/409 414/414/414
f 415/415/415 403/403/403 408/408/408
f 416/416/416 414/414/414 409/409/409
f 417/417/417 428/428/428 429/429/429
f 417/417/417 429/429/429 418/418/418
f 418/418/418 429/429/429 430/430/430
f 418/418/418 430/430/430 419/419/419
f 419/419/419 430/430/430 431/431/431
f 419/419/419 431/431/431 420/420/420
f 420/420/420 431/431/431 432/432/432
f 420/420/420 432/432/432 421/421/421
f 421/421/421 432/432/432 433/433/433
f 421/421/421 433/433/433 422/422/422
f 422/422/422 433/433/433 434/434/434
f 422/422/422 434/434/434 423/423/423
f 423/423/423 434/434/434 435/435/435
f 423/423/423 435/435/435 424/424/424
f 424/424/424 435/435/435 436/436/436
f 424/424/424 436/436/436 425/425/425
f 425/425/425 436/436/436 437/437/437
f 425/425/425 437/437/437 426/426/426
f 426/426/426 437/437/437 438/438/438
f 426/426/426 438/438/438 427/427/427
f 428/428/428 439/439/439 440/440/440
f 428/428/428 440/440/440 429/429/429
f 429/429/429 440/440/440 441/441/441
f 429/429/429 441/441/441 430/430/430
f 430/430/430 441/441/441 442/442/442
f 430/430/430 442/442/442 431/431/431
f 431/431/431 442/442/442 443/443/443
f 431/431/431 443/443/443 432/432/432
f 432/432/432 443/443/443 444/444/444
f 432/432/432 444/444/444 433/433/433
f 433/433/433 444/444/444 445/445/445
f 433/433/433 445/445/445 434/434/434
f 434/434/434 445/445/445 446/446/446
f 434/434/434 446/446/446 435/435/435
f 435/435/435 446/446/446 447/447/447
f 435/435/435 447/447/447 436/436/436
f 436/436/436 447/447/447 448/448/448
f 436/436/436 448/448/448 437/437/437
f 437/437/437 448/448/448 449/449/449
f 437/437/437 449/449/449 438/438/438
f 439/439/439 450/450/450 451/451/451
f 439/439/439 451/451/451 440/440/440
f 440/440/440 451/451/451 452/452/452
f 440/440/440 452/452/452 441/441/441
f 441/441/441 452/452/452 453/453/453
f 441/441/441 453/453/453 442/442/442
f 442/442/442 453/453/453 454/454/454
f 442/442/442 454/454/454 443/443/443
f 443/443/443 454/454/454 455/455/455
f 443/443/443 455/455/455 444/444/444
f 444/444/444 455/455/455 456/456/456
f 444/444/444 456/456/456 445/445/445
f 445/445/445 456/456/456 457/457/457
f 445/445/445 457/457/457 446/446/446
f 446/446/446 457/457/457 458/458/458
f 446/446/446 458/458/458 447/447/447
f 447/447/447 458/458/458 459/459/459
f 447/447/447 459/459/459 448/448/448
f 448/448/448 459/459/459 460/460/460
f 448/448/448 460/460/460 449/449/449
f 450/450/450 461/461/461 462/462/462
f 450/450/450 462/462/462 451/451/451
f 451/451/451 462/462/462 463/463/463
f 451/451/451 463/463/463 452/452/452
f 452/452/452 463/463/463 464/464/464
f 452/452/452 464/464/464 453/453/453
f 453/453/453 464/464/464 465/465/465
f 453/453/453 465/465/465 454/454/454
f 454/454/454 465/465/465 466/466/466
f 454/454/454 466/466/466 455/455/455
f 455/455/455 466/466/466 467/467/467
f 455/455/455 467/467/467 456/456/456
f 456/456/456 467/467/467 468/468/468
f 456/456/456 468/468/468 457/457/457
f 457/457/457 468/468/468 469/469/469
f 457/457/457 469/469/469 458/458/458
f 458/458/458 469/469/469 470/470/470
f 458/458/458 470/470/470 459/459/459
f 459/459/459 470/470/470 471/471/471
f 459/459/459 471/471/471 460/460/460
f 461/461/461 472/472/472 473/473/473
f 461/461/461 473/473/473 462/462/462
f 462/462/462 473/473/473 474/474/474
f 462/462/462 474/474/474 463/463/463
f 463/463/463 474/474/474 475/475/475
f 463/463/463 475/475/475 464/464/464
f 464/464/464 475/475/475 476/476/476
f 464/464/464 476/476/476 465/465/465
f 465/465/465 476/476/476 477/477/477
f 465/465/465 477/477/477 466/466/466
f 466/466/466 477/477/477 478/478/478
f 466/466/466 478/478/478 467/467/467
f 467/467/467 478/478/478 479/479/479
f 467/467/467 479/479/479 468/468/468
f 468/468/468 479/479/479 480/480/480
f 468/468/468 480/480/480 469/469/469
f 469/469/469 480/480/480 481/481/481
f 469/469/469 481/481/481 470/470/470
f 470/470/470 481/481/481 482/482/482
f 470/470/470 482/482/482 471/471/471
f 472/472/472 483/483/483 484/484/484
f 472/472/472 484/484/484 473/473/473
f 473/473/473 484/484/484 485/485/485
f 473/473/473 485/485/485 474/474/474
f 474/474/474 485/485/485 486/486/486
f 474/474/474 486/486/486 475/475/475
f 475/475/475 486/486/486 487/487/487
f 475/475/475 487/487/487 476/476/476
f 476/476/476 487/487/487 488/488/488
f 476/476/476 488/488/488 477/477/477
f 477/477/477 488/488/488 489/489/489
f 477/477/477 489/489/489 478/478/478
f 478/478/478 489/489/489 490/490/490
f 478/478/478 490/490/490 479/479/479
f 479/479/479 490/490/490 491/491/491
f 479/479/479 491/491/491 480/480/480
f 480/480/480 491/491/491 492/492/492
f 480/480/480 492/492/492 481/481/481
f 481/481/481 492/492/492 493/493/493
f 481/481/481 493/493/493 482/482/482
f 483/483/483 494/494/494 495/495/495
f 483/483/483 495/495/495 484/484/484
f 484/484/484 495/495/495 496/496/496
f 484/484/484 496/496/496 485/485/485
f 485/485/485 496/496/496 497/497/497
f 485/485/485 497/497/497 486/486/486
f 486/486/486 497/497/497 498/498/498
f 486/486/486 498/498/498 487/487/487
f 487/487/487 498/498/498 499/499/499
f 487/487/487 499/499/499 488/488/488
f 488/488/488 499/499/499 500/500/500
f 488/488/488 500/500/500 489/489/489
f 489/489/489 500/500/500 501/501/501
f 489/489/489 501/501/501 490/490/490
f 490/490/490 501/501/501 502/502/502
f 490/490/490 502/502/502 491/491/491
f 491/491/491 502/502/502 503/503/503
f 491/491/491 503/503/503 492/492/492
f 492/492/492 503/503/503 504/504/504
f 492/492/492 504/504/504 493/493/493
f 494/494/494 505/505/505 506/506/506
f 494/494/494 506/506/506 495/495/495
f 495/495/495 506/506/506 507/507/507
f 495/495/495 507/507/507 496/496/496
f 496/496/496 507/507/507 508/508/508
f 496/496/496 508/508/508 497/497/497
f 497/497/497 508/508/508 509/509/509
f 497/497/497 509/509/509 498/498/498
f 498/498/498 509/509/509 510/510/510
f 498/498/498 510/510/510 499/499/499
f 499/499/499 510/510/510 511/511/511
f 499/499/499 511/511/511 500/500/500
f 500/500/500 511/511/511 512/512/512
f 500/500/500 512/512/512 501/501/501
f 501/501/501 512/512/512 513/513/513
f 501/501/501 513/513/513 502/502/502
f 502/502/502 513/513/513 514/514/514
f 502/502/502 514/514/514 503/503/503
f 503/503/503 514/514/514 515/515/515
f 503/503/503 515/515/515 504/504/504
f 516/516/516 518/518/518 517/517/517
f 516/516/516 519/519/519 518/518/518
f 520/520/520 521/521/521 522/522/522
f 520/520/520 522/522/522 523/523/523
f 516/516/516 517/517/517 521/521/521
f 516/516/516 521/521/521 520/520/520
f 518/518/518 519/519/519 523/523/523
f 518/518/518 523/523/523 522/522/522
f 516/516/516 520/520/520 523/523/523
f 516/516/516 523/523/523 519/519/519
f 517/517/517 518/518/518 522/522/522
f 517/517/517 522/522/522 521/521/521
f 524/524/524 526/526/526 525/525/525
f 524/524/524 527/527/527 526/526/526
f 528/528/528 529/529/529 530/530/530
f 528/528/528 530/530/530 531/531/531
f 524/524/524 525/525/525 529/529/529
f 524/524/524 529/529/529 528/528/528
f 526/526/526 527/527/527 531/531/531
f 526/526/526 531/531/531 530/530/530
f 524/524/524 528/528/528 531/531/531
f 524/524/524 531/531/531 527/527/527
f 525/525/525 526/526/526 530/530/530
f 525/525/525 530/530/530 529/529/529
f 532/532/532 534/534/534 533/533/533
f 532/532/532 535/535/535 534/534/534
f 536/536/536 537/537/537 538/538/538
f 536/536/536 538/538/538 539/539/539
f 532/532/532 533/533/533 537/537/537
f 532/532/532 537/537/537 536/536/536
f 534/534/534 535/535/535 539/539/539
f 534/534/534 539/539/539 538/538/538
f 532/532/532 536/536/536 539/539/539
f 532/532/532 539/539/539 535/535/535
f 533/533/533 534/534/534 538/538/538
f 533/533/533 538/538/538 537/537/537