# 3D Model: building/bld_lighthouse/ov_024ac479-c873-4c6e-9546-604a07f993a0 (v6 Gemini)
# Style: vintage_sketch_lighthouse | Symmetry: symmetric
# Dimensions: 5 x 11.597 x 4.755 m
# Triangles: 1070 | Vertices: 616
v 0 0.6 0
v 0 0.6 0
v 0 0.6 0
v 0 0.6 0
v 0 0.6 0
v 0 0.6 0
v 0 0.6 0
v 0 0.6 0
v 0 0.6 0
v 0 0.6 0
v 0 0.6 0
v 0.9567 0.5696 0
v 0.774 0.5696 0.5623
v 0.2956 0.5696 0.9099
v -0.2956 0.5696 0.9099
v -0.774 0.5696 0.5623
v -0.9567 0.5696 0
v -0.774 0.5696 -0.5623
v -0.2956 0.5696 -0.9099
v 0.2956 0.5696 -0.9099
v 0.774 0.5696 -0.5623
v 0.9567 0.5696 0
v 1.7678 0.4828 0
v 1.4302 0.4828 1.0391
v 0.5463 0.4828 1.6812
v -0.5463 0.4828 1.6812
v -1.4302 0.4828 1.0391
v -1.7678 0.4828 0
v -1.4302 0.4828 -1.0391
v -0.5463 0.4828 -1.6812
v 0.5463 0.4828 -1.6812
v 1.4302 0.4828 -1.0391
v 1.7678 0.4828 0
v 2.3097 0.3531 0
v 1.8686 0.3531 1.3576
v 0.7137 0.3531 2.1967
v -0.7137 0.3531 2.1967
v -1.8686 0.3531 1.3576
v -2.3097 0.3531 0
v -1.8686 0.3531 -1.3576
v -0.7137 0.3531 -2.1967
v 0.7137 0.3531 -2.1967
v 1.8686 0.3531 -1.3576
v 2.3097 0.3531 0
v 2.5 0.2 0
v 2.0225 0.2 1.4695
v 0.7725 0.2 2.3776
v -0.7725 0.2 2.3776
v -2.0225 0.2 1.4695
v -2.5 0.2 0
v -2.0225 0.2 -1.4695
v -0.7725 0.2 -2.3776
v 0.7725 0.2 -2.3776
v 2.0225 0.2 -1.4695
v 2.5 0.2 0
v 2.3097 0.0469 0
v 1.8686 0.0469 1.3576
v 0.7137 0.0469 2.1967
v -0.7137 0.0469 2.1967
v -1.8686 0.0469 1.3576
v -2.3097 0.0469 0
v -1.8686 0.0469 -1.3576
v -0.7137 0.0469 -2.1967
v 0.7137 0.0469 -2.1967
v 1.8686 0.0469 -1.3576
v 2.3097 0.0469 0
v 1.7678 -0.0828 0
v 1.4302 -0.0828 1.0391
v 0.5463 -0.0828 1.6812
v -0.5463 -0.0828 1.6812
v -1.4302 -0.0828 1.0391
v -1.7678 -0.0828 0
v -1.4302 -0.0828 -1.0391
v -0.5463 -0.0828 -1.6812
v 0.5463 -0.0828 -1.6812
v 1.4302 -0.0828 -1.0391
v 1.7678 -0.0828 0
v 0.9567 -0.1696 0
v 0.774 -0.1696 0.5623
v 0.2956 -0.1696 0.9099
v -0.2956 -0.1696 0.9099
v -0.774 -0.1696 0.5623
v -0.9567 -0.1696 0
v -0.774 -0.1696 -0.5623
v -0.2956 -0.1696 -0.9099
v 0.2956 -0.1696 -0.9099
v 0.774 -0.1696 -0.5623
v 0.9567 -0.1696 0
v 0 -0.2 0
v 0 -0.2 0
v 0 -0.2 0
v 0 -0.2 0
v 0 -0.2 0
v 0 -0.2 0
v 0 -0.2 0
v 0 -0.2 0
v 0 -0.2 0
v 0 -0.2 0
v 0 -0.2 0
v 0.7381 -0.3119 -1.2619
v 0.7381 -0.3119 -0.3381
v 0.7381 0.6119 -1.2619
v 0.7381 0.6119 -0.3381
v 1.6619 -0.3119 -1.2619
v 1.6619 -0.3119 -0.3381
v 1.6619 0.6119 -1.2619
v 1.6619 0.6119 -0.3381
v 1.2 -0.1355 -1.5473
v 1.2 -0.1355 -0.0527
v 1.2 0.4355 -1.5473
v 1.2 0.4355 -0.0527
v 0.9145 -0.5973 -0.8
v 0.9145 0.8973 -0.8
v 1.4855 -0.5973 -0.8
v 1.4855 0.8973 -0.8
v 0.4527 0.15 -1.0855
v 0.4527 0.15 -0.5145
v 1.9473 0.15 -1.0855
v 1.9473 0.15 -0.5145
v -1.4041 -0.3041 0.5959
v -1.4041 -0.3041 1.4041
v -1.4041 0.5041 0.5959
v -1.4041 0.5041 1.4041
v -0.5959 -0.3041 0.5959
v -0.5959 -0.3041 1.4041
v -0.5959 0.5041 0.5959
v -0.5959 0.5041 1.4041
v -1 -0.1498 0.3461
v -1 -0.1498 1.6539
v -1 0.3498 0.3461
v -1 0.3498 1.6539
v -1.2498 -0.5539 1
v -1.2498 0.7539 1
v -0.7502 -0.5539 1
v -0.7502 0.7539 1
v -1.6539 0.1 0.7502
v -1.6539 0.1 1.2498
v -0.3461 0.1 0.7502
v -0.3461 0.1 1.2498
v 1.3 3.7 0
v 1.201 3.7 0.4975
v 0.9192 3.7 0.9192
v 0.4975 3.7 1.201
v 0 3.7 1.3
v -0.4975 3.7 1.201
v -0.9192 3.7 0.9192
v -1.201 3.7 0.4975
v -1.3 3.7 0
v -1.201 3.7 -0.4975
v -0.9192 3.7 -0.9192
v -0.4975 3.7 -1.201
v 0 3.7 -1.3
v 0.4975 3.7 -1.201
v 0.9192 3.7 -0.9192
v 1.201 3.7 -0.4975
v 0.9 4.7 0
v 0.8315 4.7 0.3444
v 0.6364 4.7 0.6364
v 0.3444 4.7 0.8315
v 0 4.7 0.9
v -0.3444 4.7 0.8315
v -0.6364 4.7 0.6364
v -0.8315 4.7 0.3444
v -0.9 4.7 0
v -0.8315 4.7 -0.3444
v -0.6364 4.7 -0.6364
v -0.3444 4.7 -0.8315
v 0 4.7 -0.9
v 0.3444 4.7 -0.8315
v 0.6364 4.7 -0.6364
v 0.8315 4.7 -0.3444
v 0 3.7 0
v 0 4.7 0
v -0.125 3.3046 0.9842
v 0.125 3.3046 0.9842
v 0.125 3.7034 1.0161
v -0.125 3.7034 1.0161
v -0.125 3.2966 1.0839
v 0.125 3.2966 1.0839
v 0.125 3.6954 1.1158
v -0.125 3.6954 1.1158
v -0.125 4.8046 0.8842
v 0.125 4.8046 0.8842
v 0.125 5.2034 0.9161
v -0.125 5.2034 0.9161
v -0.125 4.7966 0.9839
v 0.125 4.7966 0.9839
v 0.125 5.1954 1.0158
v -0.125 5.1954 1.0158
v -0.125 6.3046 0.7842
v 0.125 6.3046 0.7842
v 0.125 6.7034 0.8161
v -0.125 6.7034 0.8161
v -0.125 6.2966 0.8839
v 0.125 6.2966 0.8839
v 0.125 6.6954 0.9158
v -0.125 6.6954 0.9158
v 0.9 7.4 0
v 0.8315 7.4 0.3444
v 0.6364 7.4 0.6364
v 0.3444 7.4 0.8315
v 0 7.4 0.9
v -0.3444 7.4 0.8315
v -0.6364 7.4 0.6364
v -0.8315 7.4 0.3444
v -0.9 7.4 0
v -0.8315 7.4 -0.3444
v -0.6364 7.4 -0.6364
v -0.3444 7.4 -0.8315
v 0 7.4 -0.9
v 0.3444 7.4 -0.8315
v 0.6364 7.4 -0.6364
v 0.8315 7.4 -0.3444
v 1.1 8.4 0
v 1.0163 8.4 0.421
v 0.7778 8.4 0.7778
v 0.421 8.4 1.0163
v 0 8.4 1.1
v -0.421 8.4 1.0163
v -0.7778 8.4 0.7778
v -1.0163 8.4 0.421
v -1.1 8.4 0
v -1.0163 8.4 -0.421
v -0.7778 8.4 -0.7778
v -0.421 8.4 -1.0163
v 0 8.4 -1.1
v 0.421 8.4 -1.0163
v 0.7778 8.4 -0.7778
v 1.0163 8.4 -0.421
v 0 7.4 0
v 0 8.4 0
v 1.2 7.6 0
v 1.1087 7.6 0.4592
v 0.8485 7.6 0.8485
v 0.4592 7.6 1.1087
v 0 7.6 1.2
v -0.4592 7.6 1.1087
v -0.8485 7.6 0.8485
v -1.1087 7.6 0.4592
v -1.2 7.6 0
v -1.1087 7.6 -0.4592
v -0.8485 7.6 -0.8485
v -0.4592 7.6 -1.1087
v 0 7.6 -1.2
v 0.4592 7.6 -1.1087
v 0.8485 7.6 -0.8485
v 1.1087 7.6 -0.4592
v 1.2 8.6 0
v 1.1087 8.6 0.4592
v 0.8485 8.6 0.8485
v 0.4592 8.6 1.1087
v 0 8.6 1.2
v -0.4592 8.6 1.1087
v -0.8485 8.6 0.8485
v -1.1087 8.6 0.4592
v -1.2 8.6 0
v -1.1087 8.6 -0.4592
v -0.8485 8.6 -0.8485
v -0.4592 8.6 -1.1087
v 0 8.6 -1.2
v 0.4592 8.6 -1.1087
v 0.8485 8.6 -0.8485
v 1.1087 8.6 -0.4592
v 0 7.6 0
v 0 8.6 0
v 1.18 7.9 0
v 1.0902 7.9 0.4516
v 0.8344 7.9 0.8344
v 0.4516 7.9 1.0902
v 0 7.9 1.18
v -0.4516 7.9 1.0902
v -0.8344 7.9 0.8344
v -1.0902 7.9 0.4516
v -1.18 7.9 0
v -1.0902 7.9 -0.4516
v -0.8344 7.9 -0.8344
v -0.4516 7.9 -1.0902
v 0 7.9 -1.18
v 0.4516 7.9 -1.0902
v 0.8344 7.9 -0.8344
v 1.0902 7.9 -0.4516
v 1.18 8.9 0
v 1.0902 8.9 0.4516
v 0.8344 8.9 0.8344
v 0.4516 8.9 1.0902
v 0 8.9 1.18
v -0.4516 8.9 1.0902
v -0.8344 8.9 0.8344
v -1.0902 8.9 0.4516
v -1.18 8.9 0
v -1.0902 8.9 -0.4516
v -0.8344 8.9 -0.8344
v -0.4516 8.9 -1.0902
v 0 8.9 -1.18
v 0.4516 8.9 -1.0902
v 0.8344 8.9 -0.8344
v 1.0902 8.9 -0.4516
v 0 7.9 0
v 0 8.9 0
v 0.9 7.9 0
v 0.7794 7.9 0.45
v 0.45 7.9 0.7794
v 0 7.9 0.9
v -0.45 7.9 0.7794
v -0.7794 7.9 0.45
v -0.9 7.9 0
v -0.7794 7.9 -0.45
v -0.45 7.9 -0.7794
v 0 7.9 -0.9
v 0.45 7.9 -0.7794
v 0.7794 7.9 -0.45
v 0.9 8.9 0
v 0.7794 8.9 0.45
v 0.45 8.9 0.7794
v 0 8.9 0.9
v -0.45 8.9 0.7794
v -0.7794 8.9 0.45
v -0.9 8.9 0
v -0.7794 8.9 -0.45
v -0.45 8.9 -0.7794
v 0 8.9 -0.9
v 0.45 8.9 -0.7794
v 0.7794 8.9 -0.45
v 0 7.9 0
v 0 8.9 0
v 0.85 8.6 0
v 0.7361 8.6 0.425
v 0.425 8.6 0.7361
v 0 8.6 0.85
v -0.425 8.6 0.7361
v -0.7361 8.6 0.425
v -0.85 8.6 0
v -0.7361 8.6 -0.425
v -0.425 8.6 -0.7361
v 0 8.6 -0.85
v 0.425 8.6 -0.7361
v 0.7361 8.6 -0.425
v 0.85 9.6 0
v 0.7361 9.6 0.425
v 0.425 9.6 0.7361
v 0 9.6 0.85
v -0.425 9.6 0.7361
v -0.7361 9.6 0.425
v -0.85 9.6 0
v -0.7361 9.6 -0.425
v -0.425 9.6 -0.7361
v 0 9.6 -0.85
v 0.425 9.6 -0.7361
v 0.7361 9.6 -0.425
v 0 8.6 0
v 0 9.6 0
v 0.87 8.6 0
v 0.7534 8.6 0.435
v 0.435 8.6 0.7534
v 0 8.6 0.87
v -0.435 8.6 0.7534
v -0.7534 8.6 0.435
v -0.87 8.6 0
v -0.7534 8.6 -0.435
v -0.435 8.6 -0.7534
v 0 8.6 -0.87
v 0.435 8.6 -0.7534
v 0.7534 8.6 -0.435
v 0.87 9.6 0
v 0.7534 9.6 0.435
v 0.435 9.6 0.7534
v 0 9.6 0.87
v -0.435 9.6 0.7534
v -0.7534 9.6 0.435
v -0.87 9.6 0
v -0.7534 9.6 -0.435
v -0.435 9.6 -0.7534
v 0 9.6 -0.87
v 0.435 9.6 -0.7534
v 0.7534 9.6 -0.435
v 0 8.6 0
v 0 9.6 0
v 0.95 9.2 0
v 0.8227 9.2 0.475
v 0.475 9.2 0.8227
v 0 9.2 0.95
v -0.475 9.2 0.8227
v -0.8227 9.2 0.475
v -0.95 9.2 0
v -0.8227 9.2 -0.475
v -0.475 9.2 -0.8227
v 0 9.2 -0.95
v 0.475 9.2 -0.8227
v 0.8227 9.2 -0.475
v 0.95 10.2 0
v 0.8227 10.2 0.475
v 0.475 10.2 0.8227
v 0 10.2 0.95
v -0.475 10.2 0.8227
v -0.8227 10.2 0.475
v -0.95 10.2 0
v -0.8227 10.2 -0.475
v -0.475 10.2 -0.8227
v 0 10.2 -0.95
v 0.475 10.2 -0.8227
v 0.8227 10.2 -0.475
v 0 9.2 0
v 0 10.2 0
v 0 10.4 0
v 0 10.4 0
v 0 10.4 0
v 0 10.4 0
v 0 10.4 0
v 0 10.4 0
v 0 10.4 0
v 0 10.4 0
v 0 10.4 0
v 0 10.4 0
v 0 10.4 0
v 0.1756 10.3885 0
v 0.142 10.3885 0.1032
v 0.0543 10.3885 0.167
v -0.0543 10.3885 0.167
v -0.142 10.3885 0.1032
v -0.1756 10.3885 0
v -0.142 10.3885 -0.1032
v -0.0543 10.3885 -0.167
v 0.0543 10.3885 -0.167
v 0.142 10.3885 -0.1032
v 0.1756 10.3885 0
v 0.3444 10.3543 0
v 0.2786 10.3543 0.2024
v 0.1064 10.3543 0.3276
v -0.1064 10.3543 0.3276
v -0.2786 10.3543 0.2024
v -0.3444 10.3543 0
v -0.2786 10.3543 -0.2024
v -0.1064 10.3543 -0.3276
v 0.1064 10.3543 -0.3276
v 0.2786 10.3543 -0.2024
v 0.3444 10.3543 0
v 0.5 10.2989 0
v 0.4045 10.2989 0.2939
v 0.1545 10.2989 0.4755
v -0.1545 10.2989 0.4755
v -0.4045 10.2989 0.2939
v -0.5 10.2989 0
v -0.4045 10.2989 -0.2939
v -0.1545 10.2989 -0.4755
v 0.1545 10.2989 -0.4755
v 0.4045 10.2989 -0.2939
v 0.5 10.2989 0
v 0.6364 10.2243 0
v 0.5149 10.2243 0.3741
v 0.1967 10.2243 0.6052
v -0.1967 10.2243 0.6052
v -0.5149 10.2243 0.3741
v -0.6364 10.2243 0
v -0.5149 10.2243 -0.3741
v -0.1967 10.2243 -0.6052
v 0.1967 10.2243 -0.6052
v 0.5149 10.2243 -0.3741
v 0.6364 10.2243 0
v 0.7483 10.1333 0
v 0.6054 10.1333 0.4399
v 0.2312 10.1333 0.7117
v -0.2312 10.1333 0.7117
v -0.6054 10.1333 0.4399
v -0.7483 10.1333 0
v -0.6054 10.1333 -0.4399
v -0.2312 10.1333 -0.7117
v 0.2312 10.1333 -0.7117
v 0.6054 10.1333 -0.4399
v 0.7483 10.1333 0
v 0.8315 10.0296 0
v 0.6727 10.0296 0.4887
v 0.2569 10.0296 0.7908
v -0.2569 10.0296 0.7908
v -0.6727 10.0296 0.4887
v -0.8315 10.0296 0
v -0.6727 10.0296 -0.4887
v -0.2569 10.0296 -0.7908
v 0.2569 10.0296 -0.7908
v 0.6727 10.0296 -0.4887
v 0.8315 10.0296 0
v 0.8827 9.9171 0
v 0.7141 9.9171 0.5188
v 0.2728 9.9171 0.8395
v -0.2728 9.9171 0.8395
v -0.7141 9.9171 0.5188
v -0.8827 9.9171 0
v -0.7141 9.9171 -0.5188
v -0.2728 9.9171 -0.8395
v 0.2728 9.9171 -0.8395
v 0.7141 9.9171 -0.5188
v 0.8827 9.9171 0
v 0.9 9.8 0
v 0.7281 9.8 0.529
v 0.2781 9.8 0.856
v -0.2781 9.8 0.856
v -0.7281 9.8 0.529
v -0.9 9.8 0
v -0.7281 9.8 -0.529
v -0.2781 9.8 -0.856
v 0.2781 9.8 -0.856
v 0.7281 9.8 -0.529
v 0.9 9.8 0
v 0 9.8 0
v 0.05 10 0
v 0.025 10 0.0433
v -0.025 10 0.0433
v -0.05 10 0
v -0.025 10 -0.0433
v 0.025 10 -0.0433
v 0.05 11 0
v 0.025 11 0.0433
v -0.025 11 0.0433
v -0.05 11 0
v -0.025 11 -0.0433
v 0.025 11 -0.0433
v 0 10 0
v 0 11 0
v 0 10.82 0
v 0 10.82 0
v 0 10.82 0
v 0 10.82 0
v 0 10.82 0
v 0 10.82 0
v 0 10.82 0
v 0 10.82 0
v 0 10.82 0
v 0 10.82 0
v 0 10.82 0
v 0.0459 10.8109 0
v 0.0372 10.8109 0.027
v 0.0142 10.8109 0.0437
v -0.0142 10.8109 0.0437
v -0.0372 10.8109 0.027
v -0.0459 10.8109 0
v -0.0372 10.8109 -0.027
v -0.0142 10.8109 -0.0437
v 0.0142 10.8109 -0.0437
v 0.0372 10.8109 -0.027
v 0.0459 10.8109 0
v 0.0849 10.7849 0
v 0.0686 10.7849 0.0499
v 0.0262 10.7849 0.0807
v -0.0262 10.7849 0.0807
v -0.0686 10.7849 0.0499
v -0.0849 10.7849 0
v -0.0686 10.7849 -0.0499
v -0.0262 10.7849 -0.0807
v 0.0262 10.7849 -0.0807
v 0.0686 10.7849 -0.0499
v 0.0849 10.7849 0
v 0.1109 10.7459 0
v 0.0897 10.7459 0.0652
v 0.0343 10.7459 0.1054
v -0.0343 10.7459 0.1054
v -0.0897 10.7459 0.0652
v -0.1109 10.7459 0
v -0.0897 10.7459 -0.0652
v -0.0343 10.7459 -0.1054
v 0.0343 10.7459 -0.1054
v 0.0897 10.7459 -0.0652
v 0.1109 10.7459 0
v 0.12 10.7 0
v 0.0971 10.7 0.0705
v 0.0371 10.7 0.1141
v -0.0371 10.7 0.1141
v -0.0971 10.7 0.0705
v -0.12 10.7 0
v -0.0971 10.7 -0.0705
v -0.0371 10.7 -0.1141
v 0.0371 10.7 -0.1141
v 0.0971 10.7 -0.0705
v 0.12 10.7 0
v 0.1109 10.6541 0
v 0.0897 10.6541 0.0652
v 0.0343 10.6541 0.1054
v -0.0343 10.6541 0.1054
v -0.0897 10.6541 0.0652
v -0.1109 10.6541 0
v -0.0897 10.6541 -0.0652
v -0.0343 10.6541 -0.1054
v 0.0343 10.6541 -0.1054
v 0.0897 10.6541 -0.0652
v 0.1109 10.6541 0
v 0.0849 10.6151 0
v 0.0686 10.6151 0.0499
v 0.0262 10.6151 0.0807
v -0.0262 10.6151 0.0807
v -0.0686 10.6151 0.0499
v -0.0849 10.6151 0
v -0.0686 10.6151 -0.0499
v -0.0262 10.6151 -0.0807
v 0.0262 10.6151 -0.0807
v 0.0686 10.6151 -0.0499
v 0.0849 10.6151 0
v 0.0459 10.5891 0
v 0.0372 10.5891 0.027
v 0.0142 10.5891 0.0437
v -0.0142 10.5891 0.0437
v -0.0372 10.5891 0.027
v -0.0459 10.5891 0
v -0.0372 10.5891 -0.027
v -0.0142 10.5891 -0.0437
v 0.0142 10.5891 -0.0437
v 0.0372 10.5891 -0.027
v 0.0459 10.5891 0
v 0 10.58 0
v 0 10.58 0
v 0 10.58 0
v 0 10.58 0
v 0 10.58 0
v 0 10.58 0
v 0 10.58 0
v 0 10.58 0
v 0 10.58 0
v 0 10.58 0
v 0 10.58 0
vt 0 0
vt 0.1 0
vt 0.2 0
vt 0.3 0
vt 0.4 0
vt 0.5 0
vt 0.6 0
vt 0.7 0
vt 0.8 0
vt 0.9 0
vt 1 0
vt 0 0.125
vt 0.1 0.125
vt 0.2 0.125
vt 0.3 0.125
vt 0.4 0.125
vt 0.5 0.125
vt 0.6 0.125
vt 0.7 0.125
vt 0.8 0.125
vt 0.9 0.125
vt 1 0.125
vt 0 0.25
vt 0.1 0.25
vt 0.2 0.25
vt 0.3 0.25
vt 0.4 0.25
vt 0.5 0.25
vt 0.6 0.25
vt 0.7 0.25
vt 0.8 0.25
vt 0.9 0.25
vt 1 0.25
vt 0 0.375
vt 0.1 0.375
vt 0.2 0.375
vt 0.3 0.375
vt 0.4 0.375
vt 0.5 0.375
vt 0.6 0.375
vt 0.7 0.375
vt 0.8 0.375
vt 0.9 0.375
vt 1 0.375
vt 0 0.5
vt 0.1 0.5
vt 0.2 0.5
vt 0.3 0.5
vt 0.4 0.5
vt 0.5 0.5
vt 0.6 0.5
vt 0.7 0.5
vt 0.8 0.5
vt 0.9 0.5
vt 1 0.5
vt 0 0.625
vt 0.1 0.625
vt 0.2 0.625
vt 0.3 0.625
vt 0.4 0.625
vt 0.5 0.625
vt 0.6 0.625
vt 0.7 0.625
vt 0.8 0.625
vt 0.9 0.625
vt 1 0.625
vt 0 0.75
vt 0.1 0.75
vt 0.2 0.75
vt 0.3 0.75
vt 0.4 0.75
vt 0.5 0.75
vt 0.6 0.75
vt 0.7 0.75
vt 0.8 0.75
vt 0.9 0.75
vt 1 0.75
vt 0 0.875
vt 0.1 0.875
vt 0.2 0.875
vt 0.3 0.875
vt 0.4 0.875
vt 0.5 0.875
vt 0.6 0.875
vt 0.7 0.875
vt 0.8 0.875
vt 0.9 0.875
vt 1 0.875
vt 0 1
vt 0.1 1
vt 0.2 1
vt 0.3 1
vt 0.4 1
vt 0.5 1
vt 0.6 1
vt 0.7 1
vt 0.8 1
vt 0.9 1
vt 1 1
vt 0.5 0.5
vt 0.5 0.5
vt 0.5 0.5
vt 0.5 0.5
vt 0.5 0.5
vt 0.5 0.5
vt 0.5 0.5
vt 0.5 0.5
vt 0.5 0.5
vt 0.5 0.5
vt 0.5 0.5
vt 0.5 0.5
vt 0.5 0.5
vt 0.5 0.5
vt 0.5 0.5
vt 0.5 0.5
vt 0.5 0.5
vt 0.5 0.5
vt 0.5 0.5
vt 0.5 0.5
vt 0.5 0.5
vt 0.5 0.5
vt 0.5 0.5
vt 0.5 0.5
vt 0.5 0.5
vt 0.5 0.5
vt 0.5 0.5
vt 0.5 0.5
vt 0.5 0.5
vt 0.5 0.5
vt 0.5 0.5
vt 0.5 0.5
vt 0.5 0.5
vt 0.5 0.5
vt 0.5 0.5
vt 0.5 0.5
vt 0.5 0.5
vt 0.5 0.5
vt 0.5 0.5
vt 0.5 0.5
vt 0 0
vt 0.0625 0
vt 0.125 0
vt 0.1875 0
vt 0.25 0
vt 0.3125 0
vt 0.375 0
vt 0.4375 0
vt 0.5 0
vt 0.5625 0
vt 0.625 0
vt 0.6875 0
vt 0.75 0
vt 0.8125 0
vt 0.875 0
vt 0.9375 0
vt 0 1
vt 0.0625 1
vt 0.125 1
vt 0.1875 1
vt 0.25 1
vt 0.3125 1
vt 0.375 1
vt 0.4375 1
vt 0.5 1
vt 0.5625 1
vt 0.625 1
vt 0.6875 1
vt 0.75 1
vt 0.8125 1
vt 0.875 1
vt 0.9375 1
vt 0.5 0.5
vt 0.5 0.5
vt 0.5 0.5
vt 0.5 0.5
vt 0.5 0.5
vt 0.5 0.5
vt 0.5 0.5
vt 0.5 0.5
vt 0.5 0.5
vt 0.5 0.5
vt 0.5 0.5
vt 0.5 0.5
vt 0.5 0.5
vt 0.5 0.5
vt 0.5 0.5
vt 0.5 0.5
vt 0.5 0.5
vt 0.5 0.5
vt 0.5 0.5
vt 0.5 0.5
vt 0.5 0.5
vt 0.5 0.5
vt 0.5 0.5
vt 0.5 0.5
vt 0.5 0.5
vt 0.5 0.5
vt 0 0
vt 0.0625 0
vt 0.125 0
vt 0.1875 0
vt 0.25 0
vt 0.3125 0
vt 0.375 0
vt 0.4375 0
vt 0.5 0
vt 0.5625 0
vt 0.625 0
vt 0.6875 0
vt 0.75 0
vt 0.8125 0
vt 0.875 0
vt 0.9375 0
vt 0 1
vt 0.0625 1
vt 0.125 1
vt 0.1875 1
vt 0.25 1
vt 0.3125 1
vt 0.375 1
vt 0.4375 1
vt 0.5 1
vt 0.5625 1
vt 0.625 1
vt 0.6875 1
vt 0.75 1
vt 0.8125 1
vt 0.875 1
vt 0.9375 1
vt 0.5 0.5
vt 0.5 0.5
vt 0 0
vt 0.0625 0
vt 0.125 0
vt 0.1875 0
vt 0.25 0
vt 0.3125 0
vt 0.375 0
vt 0.4375 0
vt 0.5 0
vt 0.5625 0
vt 0.625 0
vt 0.6875 0
vt 0.75 0
vt 0.8125 0
vt 0.875 0
vt 0.9375 0
vt 0 1
vt 0.0625 1
vt 0.125 1
vt 0.1875 1
vt 0.25 1
vt 0.3125 1
vt 0.375 1
vt 0.4375 1
vt 0.5 1
vt 0.5625 1
vt 0.625 1
vt 0.6875 1
vt 0.75 1
vt 0.8125 1
vt 0.875 1
vt 0.9375 1
vt 0.5 0.5
vt 0.5 0.5
vt 0 0
vt 0.0625 0
vt 0.125 0
vt 0.1875 0
vt 0.25 0
vt 0.3125 0
vt 0.375 0
vt 0.4375 0
vt 0.5 0
vt 0.5625 0
vt 0.625 0
vt 0.6875 0
vt 0.75 0
vt 0.8125 0
vt 0.875 0
vt 0.9375 0
vt 0 1
vt 0.0625 1
vt 0.125 1
vt 0.1875 1
vt 0.25 1
vt 0.3125 1
vt 0.375 1
vt 0.4375 1
vt 0.5 1
vt 0.5625 1
vt 0.625 1
vt 0.6875 1
vt 0.75 1
vt 0.8125 1
vt 0.875 1
vt 0.9375 1
vt 0.5 0.5
vt 0.5 0.5
vt 0 0
vt 0.08333333333333333 0
vt 0.16666666666666666 0
vt 0.25 0
vt 0.3333333333333333 0
vt 0.4166666666666667 0
vt 0.5 0
vt 0.5833333333333334 0
vt 0.6666666666666666 0
vt 0.75 0
vt 0.8333333333333334 0
vt 0.9166666666666666 0
vt 0 1
vt 0.08333333333333333 1
vt 0.16666666666666666 1
vt 0.25 1
vt 0.3333333333333333 1
vt 0.4166666666666667 1
vt 0.5 1
vt 0.5833333333333334 1
vt 0.6666666666666666 1
vt 0.75 1
vt 0.8333333333333334 1
vt 0.9166666666666666 1
vt 0.5 0.5
vt 0.5 0.5
vt 0 0
vt 0.08333333333333333 0
vt 0.16666666666666666 0
vt 0.25 0
vt 0.3333333333333333 0
vt 0.4166666666666667 0
vt 0.5 0
vt 0.5833333333333334 0
vt 0.6666666666666666 0
vt 0.75 0
vt 0.8333333333333334 0
vt 0.9166666666666666 0
vt 0 1
vt 0.08333333333333333 1
vt 0.16666666666666666 1
vt 0.25 1
vt 0.3333333333333333 1
vt 0.4166666666666667 1
vt 0.5 1
vt 0.5833333333333334 1
vt 0.6666666666666666 1
vt 0.75 1
vt 0.8333333333333334 1
vt 0.9166666666666666 1
vt 0.5 0.5
vt 0.5 0.5
vt 0 0
vt 0.08333333333333333 0
vt 0.16666666666666666 0
vt 0.25 0
vt 0.3333333333333333 0
vt 0.4166666666666667 0
vt 0.5 0
vt 0.5833333333333334 0
vt 0.6666666666666666 0
vt 0.75 0
vt 0.8333333333333334 0
vt 0.9166666666666666 0
vt 0 1
vt 0.08333333333333333 1
vt 0.16666666666666666 1
vt 0.25 1
vt 0.3333333333333333 1
vt 0.4166666666666667 1
vt 0.5 1
vt 0.5833333333333334 1
vt 0.6666666666666666 1
vt 0.75 1
vt 0.8333333333333334 1
vt 0.9166666666666666 1
vt 0.5 0.5
vt 0.5 0.5
vt 0 0
vt 0.08333333333333333 0
vt 0.16666666666666666 0
vt 0.25 0
vt 0.3333333333333333 0
vt 0.4166666666666667 0
vt 0.5 0
vt 0.5833333333333334 0
vt 0.6666666666666666 0
vt 0.75 0
vt 0.8333333333333334 0
vt 0.9166666666666666 0
vt 0 1
vt 0.08333333333333333 1
vt 0.16666666666666666 1
vt 0.25 1
vt 0.3333333333333333 1
vt 0.4166666666666667 1
vt 0.5 1
vt 0.5833333333333334 1
vt 0.6666666666666666 1
vt 0.75 1
vt 0.8333333333333334 1
vt 0.9166666666666666 1
vt 0.5 0.5
vt 0.5 0.5
vt 0 0
vt 0.1 0
vt 0.2 0
vt 0.3 0
vt 0.4 0
vt 0.5 0
vt 0.6 0
vt 0.7 0
vt 0.8 0
vt 0.9 0
vt 1 0
vt 0 0.125
vt 0.1 0.125
vt 0.2 0.125
vt 0.3 0.125
vt 0.4 0.125
vt 0.5 0.125
vt 0.6 0.125
vt 0.7 0.125
vt 0.8 0.125
vt 0.9 0.125
vt 1 0.125
vt 0 0.25
vt 0.1 0.25
vt 0.2 0.25
vt 0.3 0.25
vt 0.4 0.25
vt 0.5 0.25
vt 0.6 0.25
vt 0.7 0.25
vt 0.8 0.25
vt 0.9 0.25
vt 1 0.25
vt 0 0.375
vt 0.1 0.375
vt 0.2 0.375
vt 0.3 0.375
vt 0.4 0.375
vt 0.5 0.375
vt 0.6 0.375
vt 0.7 0.375
vt 0.8 0.375
vt 0.9 0.375
vt 1 0.375
vt 0 0.5
vt 0.1 0.5
vt 0.2 0.5
vt 0.3 0.5
vt 0.4 0.5
vt 0.5 0.5
vt 0.6 0.5
vt 0.7 0.5
vt 0.8 0.5
vt 0.9 0.5
vt 1 0.5
vt 0 0.625
vt 0.1 0.625
vt 0.2 0.625
vt 0.3 0.625
vt 0.4 0.625
vt 0.5 0.625
vt 0.6 0.625
vt 0.7 0.625
vt 0.8 0.625
vt 0.9 0.625
vt 1 0.625
vt 0 0.75
vt 0.1 0.75
vt 0.2 0.75
vt 0.3 0.75
vt 0.4 0.75
vt 0.5 0.75
vt 0.6 0.75
vt 0.7 0.75
vt 0.8 0.75
vt 0.9 0.75
vt 1 0.75
vt 0 0.875
vt 0.1 0.875
vt 0.2 0.875
vt 0.3 0.875
vt 0.4 0.875
vt 0.5 0.875
vt 0.6 0.875
vt 0.7 0.875
vt 0.8 0.875
vt 0.9 0.875
vt 1 0.875
vt 0 1
vt 0.1 1
vt 0.2 1
vt 0.3 1
vt 0.4 1
vt 0.5 1
vt 0.6 1
vt 0.7 1
vt 0.8 1
vt 0.9 1
vt 1 1
vt 0.5 0.5
vt 0 0
vt 0.16666666666666666 0
vt 0.3333333333333333 0
vt 0.5 0
vt 0.6666666666666666 0
vt 0.8333333333333334 0
vt 0 1
vt 0.16666666666666666 1
vt 0.3333333333333333 1
vt 0.5 1
vt 0.6666666666666666 1
vt 0.8333333333333334 1
vt 0.5 0.5
vt 0.5 0.5
vt 0 0
vt 0.1 0
vt 0.2 0
vt 0.3 0
vt 0.4 0
vt 0.5 0
vt 0.6 0
vt 0.7 0
vt 0.8 0
vt 0.9 0
vt 1 0
vt 0 0.125
vt 0.1 0.125
vt 0.2 0.125
vt 0.3 0.125
vt 0.4 0.125
vt 0.5 0.125
vt 0.6 0.125
vt 0.7 0.125
vt 0.8 0.125
vt 0.9 0.125
vt 1 0.125
vt 0 0.25
vt 0.1 0.25
vt 0.2 0.25
vt 0.3 0.25
vt 0.4 0.25
vt 0.5 0.25
vt 0.6 0.25
vt 0.7 0.25
vt 0.8 0.25
vt 0.9 0.25
vt 1 0.25
vt 0 0.375
vt 0.1 0.375
vt 0.2 0.375
vt 0.3 0.375
vt 0.4 0.375
vt 0.5 0.375
vt 0.6 0.375
vt 0.7 0.375
vt 0.8 0.375
vt 0.9 0.375
vt 1 0.375
vt 0 0.5
vt 0.1 0.5
vt 0.2 0.5
vt 0.3 0.5
vt 0.4 0.5
vt 0.5 0.5
vt 0.6 0.5
vt 0.7 0.5
vt 0.8 0.5
vt 0.9 0.5
vt 1 0.5
vt 0 0.625
vt 0.1 0.625
vt 0.2 0.625
vt 0.3 0.625
vt 0.4 0.625
vt 0.5 0.625
vt 0.6 0.625
vt 0.7 0.625
vt 0.8 0.625
vt 0.9 0.625
vt 1 0.625
vt 0 0.75
vt 0.1 0.75
vt 0.2 0.75
vt 0.3 0.75
vt 0.4 0.75
vt 0.5 0.75
vt 0.6 0.75
vt 0.7 0.75
vt 0.8 0.75
vt 0.9 0.75
vt 1 0.75
vt 0 0.875
vt 0.1 0.875
vt 0.2 0.875
vt 0.3 0.875
vt 0.4 0.875
vt 0.5 0.875
vt 0.6 0.875
vt 0.7 0.875
vt 0.8 0.875
vt 0.9 0.875
vt 1 0.875
vt 0 1
vt 0.1 1
vt 0.2 1
vt 0.3 1
vt 0.4 1
vt 0.5 1
vt 0.6 1
vt 0.7 1
vt 0.8 1
vt 0.9 1
vt 1 1
vn 0 1 0
vn 0 1 0
vn 0 1 0
vn 0 1 0
vn 0 1 0
vn 0 1 0
vn 0 1 0
vn 0 1 0
vn 0 1 0
vn 0 1 0
vn 0 1 0
vn 0.3826834323650898 0.9238795325112867 0
vn 0.30959740024909344 0.9238795325112867 0.22493567784086385
vn 0.11825568406654854 0.9238795325112867 0.3639535720290143
vn -0.11825568406654849 0.9238795325112867 0.36395357202901435
vn -0.3095974002490934 0.9238795325112867 0.2249356778408639
vn -0.3826834323650898 0.9238795325112867 4.6865204053262986e-17
vn -0.30959740024909344 0.9238795325112867 -0.22493567784086382
vn -0.11825568406654856 0.9238795325112867 -0.3639535720290143
vn 0.11825568406654845 0.9238795325112867 -0.36395357202901435
vn 0.3095974002490934 0.9238795325112867 -0.22493567784086393
vn 0.3826834323650898 0.9238795325112867 -9.373040810652597e-17
vn 0.7071067811865475 0.7071067811865476 0
vn 0.5720614028176843 0.7071067811865476 0.4156269377774534
vn 0.21850801222441057 0.7071067811865476 0.6724985119639573
vn -0.21850801222441046 0.7071067811865476 0.6724985119639573
vn -0.5720614028176841 0.7071067811865476 0.4156269377774534
vn -0.7071067811865475 0.7071067811865476 8.659560562354932e-17
vn -0.5720614028176843 0.7071067811865476 -0.41562693777745335
vn -0.2185080122244106 0.7071067811865476 -0.6724985119639573
vn 0.21850801222441038 0.7071067811865476 -0.6724985119639573
vn 0.5720614028176841 0.7071067811865476 -0.41562693777745363
vn 0.7071067811865475 0.7071067811865476 -1.7319121124709863e-16
vn 0.9238795325112867 0.3826834323650899 0
vn 0.7474342425568128 0.3826834323650899 0.5430427641049989
vn 0.28549447630116936 0.3826834323650899 0.8786616496665796
vn -0.28549447630116925 0.3826834323650899 0.8786616496665796
vn -0.7474342425568127 0.3826834323650899 0.543042764104999
vn -0.9238795325112867 0.3826834323650899 1.1314261122877003e-16
vn -0.7474342425568128 0.3826834323650899 -0.5430427641049987
vn -0.2854944763011695 0.3826834323650899 -0.8786616496665796
vn 0.28549447630116914 0.3826834323650899 -0.8786616496665796
vn 0.7474342425568127 0.3826834323650899 -0.543042764104999
vn 0.9238795325112867 0.3826834323650899 -2.2628522245754005e-16
vn 1 6.123233995736766e-17 0
vn 0.8090169943749475 6.123233995736766e-17 0.5877852522924731
vn 0.30901699437494745 6.123233995736766e-17 0.9510565162951534
vn -0.30901699437494734 6.123233995736766e-17 0.9510565162951536
vn -0.8090169943749472 6.123233995736766e-17 0.5877852522924732
vn -1 6.123233995736766e-17 1.2246467991473532e-16
vn -0.8090169943749475 6.123233995736766e-17 -0.587785252292473
vn -0.30901699437494756 6.123233995736766e-17 -0.9510565162951534
vn 0.30901699437494723 6.123233995736766e-17 -0.9510565162951536
vn 0.8090169943749472 6.123233995736766e-17 -0.5877852522924734
vn 1 6.123233995736766e-17 -2.4492935982947064e-16
vn 0.9238795325112867 -0.3826834323650897 0
vn 0.7474342425568128 -0.3826834323650897 0.5430427641049989
vn 0.28549447630116936 -0.3826834323650897 0.8786616496665796
vn -0.28549447630116925 -0.3826834323650897 0.8786616496665796
vn -0.7474342425568127 -0.3826834323650897 0.543042764104999
vn -0.9238795325112867 -0.3826834323650897 1.1314261122877003e-16
vn -0.7474342425568128 -0.3826834323650897 -0.5430427641049987
vn -0.2854944763011695 -0.3826834323650897 -0.8786616496665796
vn 0.28549447630116914 -0.3826834323650897 -0.8786616496665796
vn 0.7474342425568127 -0.3826834323650897 -0.543042764104999
vn 0.9238795325112867 -0.3826834323650897 -2.2628522245754005e-16
vn 0.7071067811865476 -0.7071067811865475 0
vn 0.5720614028176844 -0.7071067811865475 0.4156269377774534
vn 0.21850801222441057 -0.7071067811865475 0.6724985119639574
vn -0.21850801222441046 -0.7071067811865475 0.6724985119639574
vn -0.5720614028176843 -0.7071067811865475 0.4156269377774535
vn -0.7071067811865476 -0.7071067811865475 8.659560562354934e-17
vn -0.5720614028176844 -0.7071067811865475 -0.4156269377774534
vn -0.21850801222441066 -0.7071067811865475 -0.6724985119639574
vn 0.21850801222441038 -0.7071067811865475 -0.6724985119639574
vn 0.5720614028176843 -0.7071067811865475 -0.41562693777745363
vn 0.7071067811865476 -0.7071067811865475 -1.7319121124709868e-16
vn 0.3826834323650899 -0.9238795325112867 0
vn 0.3095974002490935 -0.9238795325112867 0.22493567784086393
vn 0.11825568406654856 -0.9238795325112867 0.3639535720290144
vn -0.11825568406654854 -0.9238795325112867 0.36395357202901446
vn -0.3095974002490935 -0.9238795325112867 0.224935677840864
vn -0.3826834323650899 -0.9238795325112867 4.6865204053263e-17
vn -0.3095974002490935 -0.9238795325112867 -0.2249356778408639
vn -0.1182556840665486 -0.9238795325112867 -0.3639535720290144
vn 0.11825568406654849 -0.9238795325112867 -0.36395357202901446
vn 0.3095974002490935 -0.9238795325112867 -0.22493567784086405
vn 0.3826834323650899 -0.9238795325112867 -9.3730408106526e-17
vn 1.2246467991473532e-16 -1 0
vn 9.907600726170916e-17 -1 7.198293278059966e-17
vn 3.7843667304341506e-17 -1 1.1647083184890923e-16
vn -3.7843667304341493e-17 -1 1.1647083184890926e-16
vn -9.907600726170916e-17 -1 7.198293278059968e-17
vn -1.2246467991473532e-16 -1 1.4997597826618576e-32
vn -9.907600726170916e-17 -1 -7.198293278059965e-17
vn -3.784366730434152e-17 -1 -1.1647083184890923e-16
vn 3.7843667304341475e-17 -1 -1.1647083184890926e-16
vn 9.907600726170916e-17 -1 -7.19829327805997e-17
vn 1.2246467991473532e-16 -1 -2.999519565323715e-32
vn -0.5773502691896257 -0.5773502691896257 -0.5773502691896257
vn -0.5773502691896257 -0.5773502691896257 0.5773502691896257
vn -0.5773502691896257 0.5773502691896257 -0.5773502691896257
vn -0.5773502691896257 0.5773502691896257 0.5773502691896257
vn 0.5773502691896257 -0.5773502691896257 -0.5773502691896257
vn 0.5773502691896257 -0.5773502691896257 0.5773502691896257
vn 0.5773502691896257 0.5773502691896257 -0.5773502691896257
vn 0.5773502691896257 0.5773502691896257 0.5773502691896257
vn 0 -0.35682208977308993 -0.9341723589627158
vn 0 -0.35682208977308993 0.9341723589627158
vn 0 0.35682208977308993 -0.9341723589627158
vn 0 0.35682208977308993 0.9341723589627158
vn -0.35682208977308993 -0.9341723589627158 0
vn -0.35682208977308993 0.9341723589627158 0
vn 0.35682208977308993 -0.9341723589627158 0
vn 0.35682208977308993 0.9341723589627158 0
vn -0.9341723589627158 0 -0.35682208977308993
vn -0.9341723589627158 0 0.35682208977308993
vn 0.9341723589627158 0 -0.35682208977308993
vn 0.9341723589627158 0 0.35682208977308993
vn -0.5773502691896258 -0.5773502691896258 -0.5773502691896258
vn -0.5773502691896258 -0.5773502691896258 0.5773502691896258
vn -0.5773502691896258 0.5773502691896258 -0.5773502691896258
vn -0.5773502691896258 0.5773502691896258 0.5773502691896258
vn 0.5773502691896258 -0.5773502691896258 -0.5773502691896258
vn 0.5773502691896258 -0.5773502691896258 0.5773502691896258
vn 0.5773502691896258 0.5773502691896258 -0.5773502691896258
vn 0.5773502691896258 0.5773502691896258 0.5773502691896258
vn 0 -0.35682208977308993 -0.9341723589627159
vn 0 -0.35682208977308993 0.9341723589627159
vn 0 0.35682208977308993 -0.9341723589627159
vn 0 0.35682208977308993 0.9341723589627159
vn -0.35682208977308993 -0.9341723589627159 0
vn -0.35682208977308993 0.9341723589627159 0
vn 0.35682208977308993 -0.9341723589627159 0
vn 0.35682208977308993 0.9341723589627159 0
vn -0.9341723589627159 0 -0.35682208977308993
vn -0.9341723589627159 0 0.35682208977308993
vn 0.9341723589627159 0 -0.35682208977308993
vn 0.9341723589627159 0 0.35682208977308993
vn 0 -1 0
vn 0 -1 0
vn 0 -1 0
vn 0 -1 0
vn 0 -1 0
vn 0 -1 0
vn 0 -1 0
vn 0 -1 0
vn 0 -1 0
vn 0 -1 0
vn 0 -1 0
vn 0 -1 0
vn 0 -1 0
vn 0 -1 0
vn 0 -1 0
vn 0 -1 0
vn 0 1 0
vn 0 1 0
vn 0 1 0
vn 0 1 0
vn 0 1 0
vn 0 1 0
vn 0 1 0
vn 0 1 0
vn 0 1 0
vn 0 1 0
vn 0 1 0
vn 0 1 0
vn 0 1 0
vn 0 1 0
vn 0 1 0
vn 0 1 0
vn 0 -1 0
vn 0 1 0
vn 0 1 0
vn 0 1 0
vn 0 1 0
vn 0 1 0
vn 0 1 0
vn 0 1 0
vn 0 1 0
vn 0 1 0
vn 0 1 0
vn 0 1 0
vn 0 1 0
vn 0 1 0
vn 0 1 0
vn 0 1 0
vn 0 1 0
vn 0 1 0
vn 0 1 0
vn 0 1 0
vn 0 1 0
vn 0 1 0
vn 0 1 0
vn 0 1 0
vn 0 1 0
vn 0 1 0
vn 0 -1 0
vn 0 -1 0
vn 0 -1 0
vn 0 -1 0
vn 0 -1 0
vn 0 -1 0
vn 0 -1 0
vn 0 -1 0
vn 0 -1 0
vn 0 -1 0
vn 0 -1 0
vn 0 -1 0
vn 0 -1 0
vn 0 -1 0
vn 0 -1 0
vn 0 -1 0
vn 0 1 0
vn 0 1 0
vn 0 1 0
vn 0 1 0
vn 0 1 0
vn 0 1 0
vn 0 1 0
vn 0 1 0
vn 0 1 0
vn 0 1 0
vn 0 1 0
vn 0 1 0
vn 0 1 0
vn 0 1 0
vn 0 1 0
vn 0 1 0
vn 0 -1 0
vn 0 1 0
vn 0 -1 0
vn 0 -1 0
vn 0 -1 0
vn 0 -1 0
vn 0 -1 0
vn 0 -1 0
vn 0 -1 0
vn 0 -1 0
vn 0 -1 0
vn 0 -1 0
vn 0 -1 0
vn 0 -1 0
vn 0 -1 0
vn 0 -1 0
vn 0 -1 0
vn 0 -1 0
vn 0 1 0
vn 0 1 0
vn 0 1 0
vn 0 1 0
vn 0 1 0
vn 0 1 0
vn 0 1 0
vn 0 1 0
vn 0 1 0
vn 0 1 0
vn 0 1 0
vn 0 1 0
vn 0 1 0
vn 0 1 0
vn 0 1 0
vn 0 1 0
vn 0 -1 0
vn 0 1 0
vn 0 -1 0
vn 0 -1 0
vn 0 -1 0
vn 0 -1 0
vn 0 -1 0
vn 0 -1 0
vn 0 -1 0
vn 0 -1 0
vn 0 -1 0
vn 0 -1 0
vn 0 -1 0
vn 0 -1 0
vn 0 -1 0
vn 0 -1 0
vn 0 -1 0
vn 0 -1 0
vn 0 1 0
vn 0 1 0
vn 0 1 0
vn 0 1 0
vn 0 1 0
vn 0 1 0
vn 0 1 0
vn 0 1 0
vn 0 1 0
vn 0 1 0
vn 0 1 0
vn 0 1 0
vn 0 1 0
vn 0 1 0
vn 0 1 0
vn 0 1 0
vn 0 -1 0
vn 0 1 0
vn 0 -1 0
vn 0 -1 0
vn 0 -1 0
vn 0 -1 0
vn 0 -1 0
vn 0 -1 0
vn 0 -1 0
vn 0 -1 0
vn 0 -1 0
vn 0 -1 0
vn 0 -1 0
vn 0 -1 0
vn 0 1 0
vn 0 1 0
vn 0 1 0
vn 0 1 0
vn 0 1 0
vn 0 1 0
vn 0 1 0
vn 0 1 0
vn 0 1 0
vn 0 1 0
vn 0 1 0
vn 0 1 0
vn 0 -1 0
vn 0 1 0
vn 0 -1 0
vn 0 -1 0
vn 0 -1 0
vn 0 -1 0
vn 0 -1 0
vn 0 -1 0
vn 0 -1 0
vn 0 -1 0
vn 0 -1 0
vn 0 -1 0
vn 0 -1 0
vn 0 -1 0
vn 0 1 0
vn 0 1 0
vn 0 1 0
vn 0 1 0
vn 0 1 0
vn 0 1 0
vn 0 1 0
vn 0 1 0
vn 0 1 0
vn 0 1 0
vn 0 1 0
vn 0 1 0
vn 0 -1 0
vn 0 1 0
vn 0 -1 0
vn 0 -1 0
vn 0 -1 0
vn 0 -1 0
vn 0 -1 0
vn 0 -1 0
vn 0 -1 0
vn 0 -1 0
vn 0 -1 0
vn 0 -1 0
vn 0 -1 0
vn 0 -1 0
vn 0 1 0
vn 0 1 0
vn 0 1 0
vn 0 1 0
vn 0 1 0
vn 0 1 0
vn 0 1 0
vn 0 1 0
vn 0 1 0
vn 0 1 0
vn 0 1 0
vn 0 1 0
vn 0 -1 0
vn 0 1 0
vn 0 -1 0
vn 0 -1 0
vn 0 -1 0
vn 0 -1 0
vn 0 -1 0
vn 0 -1 0
vn 0 -1 0
vn 0 -1 0
vn 0 -1 0
vn 0 -1 0
vn 0 -1 0
vn 0 -1 0
vn 0 1 0
vn 0 1 0
vn 0 1 0
vn 0 1 0
vn 0 1 0
vn 0 1 0
vn 0 1 0
vn 0 1 0
vn 0 1 0
vn 0 1 0
vn 0 1 0
vn 0 1 0
vn 0 -1 0
vn 0 1 0
vn 0 1 0
vn 0 1 0
vn 0 1 0
vn 0 1 0
vn 0 1 0
vn 0 1 0
vn 0 1 0
vn 0 1 0
vn 0 1 0
vn 0 1 0
vn 0 1 0
vn 0.19509032201612825 0.9807852804032304 0
vn 0.1578313859491287 0.9807852804032304 0.11467121414606977
vn 0.06028622494106459 0.9807852804032304 0.18554192201955863
vn -0.060286224941064566 0.9807852804032304 0.18554192201955866
vn -0.15783138594912868 0.9807852804032304 0.11467121414606979
vn -0.19509032201612825 0.9807852804032304 2.3891673840167787e-17
vn -0.1578313859491287 0.9807852804032304 -0.11467121414606975
vn -0.060286224941064614 0.9807852804032304 -0.18554192201955863
vn 0.060286224941064545 0.9807852804032304 -0.18554192201955866
vn 0.15783138594912868 0.9807852804032304 -0.11467121414606982
vn 0.19509032201612825 0.9807852804032304 -4.7783347680335573e-17
vn 0.3826834323650898 0.9238795325112868 0
vn 0.3095974002490935 0.9238795325112868 0.22493567784086388
vn 0.11825568406654852 0.9238795325112868 0.3639535720290143
vn -0.11825568406654849 0.9238795325112868 0.36395357202901435
vn -0.3095974002490934 0.9238795325112868 0.22493567784086388
vn -0.3826834323650898 0.9238795325112868 4.6865204053262986e-17
vn -0.3095974002490935 0.9238795325112868 -0.22493567784086382
vn -0.11825568406654857 0.9238795325112868 -0.3639535720290143
vn 0.11825568406654845 0.9238795325112868 -0.36395357202901435
vn 0.3095974002490934 0.9238795325112868 -0.22493567784086396
vn 0.3826834323650898 0.9238795325112868 -9.373040810652597e-17
vn 0.5555702330196022 0.8314696123025452 0
vn 0.44946576008170774 0.8314696123025452 0.32655598958161497
vn 0.17168064357190668 0.8314696123025452 0.5283786903729095
vn -0.1716806435719066 0.8314696123025452 0.5283786903729096
vn -0.4494657600817077 0.8314696123025452 0.326555989581615
vn -0.5555702330196022 0.8314696123025452 6.80377307569005e-17
vn -0.44946576008170774 0.8314696123025452 -0.3265559895816149
vn -0.1716806435719067 0.8314696123025452 -0.5283786903729095
vn 0.17168064357190652 0.8314696123025452 -0.5283786903729096
vn 0.4494657600817077 0.8314696123025452 -0.3265559895816151
vn 0.5555702330196022 0.8314696123025452 -1.36075461513801e-16
vn 0.7071067811865475 0.7071067811865476 0
vn 0.5720614028176843 0.7071067811865476 0.4156269377774534
vn 0.21850801222441055 0.7071067811865476 0.6724985119639573
vn -0.21850801222441046 0.7071067811865476 0.6724985119639573
vn -0.5720614028176841 0.7071067811865476 0.41562693777745346
vn -0.7071067811865475 0.7071067811865476 8.65956056235493e-17
vn -0.5720614028176843 0.7071067811865476 -0.4156269377774533
vn -0.21850801222441057 0.7071067811865476 -0.6724985119639573
vn 0.21850801222441038 0.7071067811865476 -0.6724985119639573
vn 0.5720614028176841 0.7071067811865476 -0.4156269377774536
vn 0.7071067811865475 0.7071067811865476 -1.731912112470986e-16
vn 0.8314696123025451 0.5555702330196023 0
vn 0.672673046659108 0.5555702330196023 0.48872557584077636
vn 0.25693824050783537 0.5555702330196023 0.7907745928817406
vn -0.25693824050783526 0.5555702330196023 0.7907745928817407
vn -0.6726730466591079 0.5555702330196023 0.48872557584077647
vn -0.8314696123025451 0.5555702330196023 1.0182565992946027e-16
vn -0.672673046659108 0.5555702330196023 -0.4887255758407763
vn -0.2569382405078354 0.5555702330196023 -0.7907745928817406
vn 0.25693824050783515 0.5555702330196023 -0.7907745928817407
vn 0.6726730466591079 0.5555702330196023 -0.4887255758407766
vn 0.8314696123025451 0.5555702330196023 -2.0365131985892053e-16
vn 0.9238795325112867 0.38268343236508984 0
vn 0.7474342425568128 0.38268343236508984 0.5430427641049989
vn 0.28549447630116936 0.38268343236508984 0.8786616496665794
vn -0.28549447630116925 0.38268343236508984 0.8786616496665796
vn -0.7474342425568127 0.38268343236508984 0.543042764104999
vn -0.9238795325112867 0.38268343236508984 1.1314261122877003e-16
vn -0.7474342425568128 0.38268343236508984 -0.5430427641049987
vn -0.2854944763011695 0.38268343236508984 -0.8786616496665794
vn 0.28549447630116914 0.38268343236508984 -0.8786616496665796
vn 0.7474342425568127 0.38268343236508984 -0.543042764104999
vn 0.9238795325112867 0.38268343236508984 -2.2628522245754005e-16
vn 0.9807852804032304 0.19509032201612833 0
vn 0.7934719596790114 0.19509032201612833 0.5764911234865568
vn 0.3030793194773963 0.19509032201612833 0.9327822320138617
vn -0.3030793194773962 0.19509032201612833 0.9327822320138618
vn -0.7934719596790114 0.19509032201612833 0.576491123486557
vn -0.9807852804032304 0.19509032201612833 1.2011155542966555e-16
vn -0.7934719596790114 0.19509032201612833 -0.5764911234865567
vn -0.3030793194773964 0.19509032201612833 -0.9327822320138617
vn 0.3030793194773961 0.19509032201612833 -0.9327822320138618
vn 0.7934719596790114 0.19509032201612833 -0.5764911234865571
vn 0.9807852804032304 0.19509032201612833 -2.402231108593311e-16
vn 1 6.123233995736766e-17 0
vn 0.8090169943749475 6.123233995736766e-17 0.5877852522924731
vn 0.3090169943749475 6.123233995736766e-17 0.9510565162951535
vn -0.30901699437494734 6.123233995736766e-17 0.9510565162951536
vn -0.8090169943749473 6.123233995736766e-17 0.5877852522924732
vn -1 6.123233995736766e-17 1.2246467991473532e-16
vn -0.8090169943749475 6.123233995736766e-17 -0.587785252292473
vn -0.30901699437494756 6.123233995736766e-17 -0.9510565162951535
vn 0.30901699437494723 6.123233995736766e-17 -0.9510565162951536
vn 0.8090169943749473 6.123233995736766e-17 -0.5877852522924734
vn 1 6.123233995736766e-17 -2.4492935982947064e-16
vn 0 -1 0
vn 0 -1 0
vn 0 -1 0
vn 0 -1 0
vn 0 -1 0
vn 0 -1 0
vn 0 -1 0
vn 0 1 0
vn 0 1 0
vn 0 1 0
vn 0 1 0
vn 0 1 0
vn 0 1 0
vn 0 -1 0
vn 0 1 0
vn 0 1 0
vn 0 1 0
vn 0 1 0
vn 0 1 0
vn 0 1 0
vn 0 1 0
vn 0 1 0
vn 0 1 0
vn 0 1 0
vn 0 1 0
vn 0 1 0
vn 0.3826834323650898 0.9238795325112867 0
vn 0.30959740024909344 0.9238795325112867 0.22493567784086388
vn 0.11825568406654853 0.9238795325112867 0.3639535720290143
vn -0.11825568406654849 0.9238795325112867 0.36395357202901435
vn -0.3095974002490934 0.9238795325112867 0.2249356778408639
vn -0.3826834323650898 0.9238795325112867 4.6865204053262986e-17
vn -0.30959740024909344 0.9238795325112867 -0.22493567784086382
vn -0.11825568406654857 0.9238795325112867 -0.3639535720290143
vn 0.11825568406654845 0.9238795325112867 -0.36395357202901435
vn 0.3095974002490934 0.9238795325112867 -0.22493567784086396
vn 0.3826834323650898 0.9238795325112867 -9.373040810652597e-17
vn 0.7071067811865475 0.7071067811865476 0
vn 0.5720614028176843 0.7071067811865476 0.4156269377774534
vn 0.21850801222441055 0.7071067811865476 0.6724985119639574
vn -0.21850801222441046 0.7071067811865476 0.6724985119639574
vn -0.5720614028176841 0.7071067811865476 0.41562693777745346
vn -0.7071067811865475 0.7071067811865476 8.659560562354932e-17
vn -0.5720614028176843 0.7071067811865476 -0.4156269377774533
vn -0.2185080122244106 0.7071067811865476 -0.6724985119639574
vn 0.21850801222441038 0.7071067811865476 -0.6724985119639574
vn 0.5720614028176841 0.7071067811865476 -0.4156269377774536
vn 0.7071067811865475 0.7071067811865476 -1.7319121124709863e-16
vn 0.9238795325112867 0.38268343236508984 0
vn 0.7474342425568128 0.38268343236508984 0.5430427641049989
vn 0.28549447630116936 0.38268343236508984 0.8786616496665796
vn -0.28549447630116925 0.38268343236508984 0.8786616496665796
vn -0.7474342425568127 0.38268343236508984 0.543042764104999
vn -0.9238795325112867 0.38268343236508984 1.1314261122877003e-16
vn -0.7474342425568128 0.38268343236508984 -0.5430427641049989
vn -0.2854944763011695 0.38268343236508984 -0.8786616496665796
vn 0.28549447630116914 0.38268343236508984 -0.8786616496665796
vn 0.7474342425568127 0.38268343236508984 -0.543042764104999
vn 0.9238795325112867 0.38268343236508984 -2.2628522245754005e-16
vn 1 6.123233995736766e-17 0
vn 0.8090169943749475 6.123233995736766e-17 0.5877852522924731
vn 0.30901699437494745 6.123233995736766e-17 0.9510565162951535
vn -0.30901699437494734 6.123233995736766e-17 0.9510565162951536
vn -0.8090169943749473 6.123233995736766e-17 0.5877852522924732
vn -1 6.123233995736766e-17 1.2246467991473532e-16
vn -0.8090169943749475 6.123233995736766e-17 -0.587785252292473
vn -0.3090169943749475 6.123233995736766e-17 -0.9510565162951535
vn 0.30901699437494723 6.123233995736766e-17 -0.9510565162951536
vn 0.8090169943749473 6.123233995736766e-17 -0.5877852522924734
vn 1 6.123233995736766e-17 -2.4492935982947064e-16
vn 0.9238795325112867 -0.3826834323650897 0
vn 0.7474342425568128 -0.3826834323650897 0.5430427641049989
vn 0.28549447630116936 -0.3826834323650897 0.8786616496665796
vn -0.28549447630116925 -0.3826834323650897 0.8786616496665796
vn -0.7474342425568127 -0.3826834323650897 0.543042764104999
vn -0.9238795325112867 -0.3826834323650897 1.1314261122877003e-16
vn -0.7474342425568128 -0.3826834323650897 -0.5430427641049989
vn -0.2854944763011695 -0.3826834323650897 -0.8786616496665796
vn 0.28549447630116914 -0.3826834323650897 -0.8786616496665796
vn 0.7474342425568127 -0.3826834323650897 -0.543042764104999
vn 0.9238795325112867 -0.3826834323650897 -2.2628522245754005e-16
vn 0.7071067811865476 -0.7071067811865475 0
vn 0.5720614028176843 -0.7071067811865475 0.41562693777745346
vn 0.21850801222441057 -0.7071067811865475 0.6724985119639574
vn -0.2185080122244105 -0.7071067811865475 0.6724985119639574
vn -0.5720614028176843 -0.7071067811865475 0.4156269377774535
vn -0.7071067811865476 -0.7071067811865475 8.659560562354934e-17
vn -0.5720614028176843 -0.7071067811865475 -0.4156269377774534
vn -0.21850801222441066 -0.7071067811865475 -0.6724985119639574
vn 0.2185080122244104 -0.7071067811865475 -0.6724985119639574
vn 0.5720614028176843 -0.7071067811865475 -0.41562693777745363
vn 0.7071067811865476 -0.7071067811865475 -1.7319121124709868e-16
vn 0.3826834323650899 -0.9238795325112867 0
vn 0.3095974002490935 -0.9238795325112867 0.22493567784086393
vn 0.11825568406654857 -0.9238795325112867 0.3639535720290144
vn -0.11825568406654853 -0.9238795325112867 0.36395357202901446
vn -0.3095974002490935 -0.9238795325112867 0.224935677840864
vn -0.3826834323650899 -0.9238795325112867 4.6865204053263e-17
vn -0.3095974002490935 -0.9238795325112867 -0.2249356778408639
vn -0.11825568406654861 -0.9238795325112867 -0.3639535720290144
vn 0.11825568406654849 -0.9238795325112867 -0.36395357202901446
vn 0.3095974002490935 -0.9238795325112867 -0.22493567784086402
vn 0.3826834323650899 -0.9238795325112867 -9.3730408106526e-17
vn 1.2246467991473532e-16 -1 0
vn 9.907600726170916e-17 -1 7.198293278059966e-17
vn 3.7843667304341506e-17 -1 1.1647083184890923e-16
vn -3.7843667304341493e-17 -1 1.1647083184890926e-16
vn -9.907600726170915e-17 -1 7.198293278059968e-17
vn -1.2246467991473532e-16 -1 1.4997597826618576e-32
vn -9.907600726170916e-17 -1 -7.198293278059965e-17
vn -3.784366730434152e-17 -1 -1.1647083184890923e-16
vn 3.7843667304341475e-17 -1 -1.1647083184890926e-16
vn 9.907600726170915e-17 -1 -7.19829327805997e-17
vn 1.2246467991473532e-16 -1 -2.999519565323715e-32
f 1/1/1 12/12/12 13/13/13
f 1/1/1 13/13/13 2/2/2
f 2/2/2 13/13/13 14/14/14
f 2/2/2 14/14/14 3/3/3
f 3/3/3 14/14/14 15/15/15
f 3/3/3 15/15/15 4/4/4
f 4/4/4 15/15/15 16/16/16
f 4/4/4 16/16/16 5/5/5
f 5/5/5 16/16/16 17/17/17
f 5/5/5 17/17/17 6/6/6
f 6/6/6 17/17/17 18/18/18
f 6/6/6 18/18/18 7/7/7
f 7/7/7 18/18/18 19/19/19
f 7/7/7 19/19/19 8/8/8
f 8/8/8 19/19/19 20/20/20
f 8/8/8 20/20/20 9/9/9
f 9/9/9 20/20/20 21/21/21
f 9/9/9 21/21/21 10/10/10
f 10/10/10 21/21/21 22/22/22
f 10/10/10 22/22/22 11/11/11
f 12/12/12 23/23/23 24/24/24
f 12/12/12 24/24/24 13/13/13
f 13/13/13 24/24/24 25/25/25
f 13/13/13 25/25/25 14/14/14
f 14/14/14 25/25/25 26/26/26
f 14/14/14 26/26/26 15/15/15
f 15/15/15 26/26/26 27/27/27
f 15/15/15 27/27/27 16/16/16
f 16/16/16 27/27/27 28/28/28
f 16/16/16 28/28/28 17/17/17
f 17/17/17 28/28/28 29/29/29
f 17/17/17 29/29/29 18/18/18
f 18/18/18 29/29/29 30/30/30
f 18/18/18 30/30/30 19/19/19
f 19/19/19 30/30/30 31/31/31
f 19/19/19 31/31/31 20/20/20
f 20/20/20 31/31/31 32/32/32
f 20/20/20 32/32/32 21/21/21
f 21/21/21 32/32/32 33/33/33
f 21/21/21 33/33/33 22/22/22
f 23/23/23 34/34/34 35/35/35
f 23/23/23 35/35/35 24/24/24
f 24/24/24 35/35/35 36/36/36
f 24/24/24 36/36/36 25/25/25
f 25/25/25 36/36/36 37/37/37
f 25/25/25 37/37/37 26/26/26
f 26/26/26 37/37/37 38/38/38
f 26/26/26 38/38/38 27/27/27
f 27/27/27 38/38/38 39/39/39
f 27/27/27 39/39/39 28/28/28
f 28/28/28 39/39/39 40/40/40
f 28/28/28 40/40/40 29/29/29
f 29/29/29 40/40/40 41/41/41
f 29/29/29 41/41/41 30/30/30
f 30/30/30 41/41/41 42/42/42
f 30/30/30 42/42/42 31/31/31
f 31/31/31 42/42/42 43/43/43
f 31/31/31 43/43/43 32/32/32
f 32/32/32 43/43/43 44/44/44
f 32/32/32 44/44/44 33/33/33
f 34/34/34 45/45/45 46/46/46
f 34/34/34 46/46/46 35/35/35
f 35/35/35 46/46/46 47/47/47
f 35/35/35 47/47/47 36/36/36
f 36/36/36 47/47/47 48/48/48
f 36/36/36 48/48/48 37/37/37
f 37/37/37 48/48/48 49/49/49
f 37/37/37 49/49/49 38/38/38
f 38/38/38 49/49/49 50/50/50
f 38/38/38 50/50/50 39/39/39
f 39/39/39 50/50/50 51/51/51
f 39/39/39 51/51/51 40/40/40
f 40/40/40 51/51/51 52/52/52
f 40/40/40 52/52/52 41/41/41
f 41/41/41 52/52/52 53/53/53
f 41/41/41 53/53/53 42/42/42
f 42/42/42 53/53/53 54/54/54
f 42/42/42 54/54/54 43/43/43
f 43/43/43 54/54/54 55/55/55
f 43/43/43 55/55/55 44/44/44
f 45/45/45 56/56/56 57/57/57
f 45/45/45 57/57/57 46/46/46
f 46/46/46 57/57/57 58/58/58
f 46/46/46 58/58/58 47/47/47
f 47/47/47 58/58/58 59/59/59
f 47/47/47 59/59/59 48/48/48
f 48/48/48 59/59/59 60/60/60
f 48/48/48 60/60/60 49/49/49
f 49/49/49 60/60/60 61/61/61
f 49/49/49 61/61/61 50/50/50
f 50/50/50 61/61/61 62/62/62
f 50/50/50 62/62/62 51/51/51
f 51/51/51 62/62/62 63/63/63
f 51/51/51 63/63/63 52/52/52
f 52/52/52 63/63/63 64/64/64
f 52/52/52 64/64/64 53/53/53
f 53/53/53 64/64/64 65/65/65
f 53/53/53 65/65/65 54/54/54
f 54/54/54 65/65/65 66/66/66
f 54/54/54 66/66/66 55/55/55
f 56/56/56 67/67/67 68/68/68
f 56/56/56 68/68/68 57/57/57
f 57/57/57 68/68/68 69/69/69
f 57/57/57 69/69/69 58/58/58
f 58/58/58 69/69/69 70/70/70
f 58/58/58 70/70/70 59/59/59
f 59/59/59 70/70/70 71/71/71
f 59/59/59 71/71/71 60/60/60
f 60/60/60 71/71/71 72/72/72
f 60/60/60 72/72/72 61/61/61
f 61/61/61 72/72/72 73/73/73
f 61/61/61 73/73/73 62/62/62
f 62/62/62 73/73/73 74/74/74
f 62/62/62 74/74/74 63/63/63
f 63/63/63 74/74/74 75/75/75
f 63/63/63 75/75/75 64/64/64
f 64/64/64 75/75/75 76/76/76
f 64/64/64 76/76/76 65/65/65
f 65/65/65 76/76/76 77/77/77
f 65/65/65 77/77/77 66/66/66
f 67/67/67 78/78/78 79/79/79
f 67/67/67 79/79/79 68/68/68
f 68/68/68 79/79/79 80/80/80
f 68/68/68 80/80/80 69/69/69
f 69/69/69 80/80/80 81/81/81
f 69/69/69 81/81/81 70/70/70
f 70/70/70 81/81/81 82/82/82
f 70/70/70 82/82/82 71/71/71
f 71/71/71 82/82/82 83/83/83
f 71/71/71 83/83/83 72/72/72
f 72/72/72 83/83/83 84/84/84
f 72/72/72 84/84/84 73/73/73
f 73/73/73 84/84/84 85/85/85
f 73/73/73 85/85/85 74/74/74
f 74/74/74 85/85/85 86/86/86
f 74/74/74 86/86/86 75/75/75
f 75/75/75 86/86/86 87/87/87
f 75/75/75 87/87/87 76/76/76
f 76/76/76 87/87/87 88/88/88
f 76/76/76 88/88/88 77/77/77
f 78/78/78 89/89/89 90/90/90
f 78/78/78 90/90/90 79/79/79
f 79/79/79 90/90/90 91/91/91
f 79/79/79 91/91/91 80/80/80
f 80/80/80 91/91/91 92/92/92
f 80/80/80 92/92/92 81/81/81
f 81/81/81 92/92/92 93/93/93
f 81/81/81 93/93/93 82/82/82
f 82/82/82 93/93/93 94/94/94
f 82/82/82 94/94/94 83/83/83
f 83/83/83 94/94/94 95/95/95
f 83/83/83 95/95/95 84/84/84
f 84/84/84 95/95/95 96/96/96
f 84/84/84 96/96/96 85/85/85
f 85/85/85 96/96/96 97/97/97
f 85/85/85 97/97/97 86/86/86
f 86/86/86 97/97/97 98/98/98
f 86/86/86 98/98/98 87/87/87
f 87/87/87 98/98/98 99/99/99
f 87/87/87 99/99/99 88/88/88
f 100/100/100 108/108/108 104/104/104
f 100/100/100 104/104/104 114/114/114
f 100/100/100 114/114/114 112/112/112
f 100/100/100 116/116/116 102/102/102
f 100/100/100 102/102/102 110/110/110
f 100/100/100 110/110/110 108/108/108
f 100/100/100 112/112/112 101/101/101
f 100/100/100 101/101/101 117/117/117
f 100/100/100 117/117/117 116/116/116
f 108/108/108 110/110/110 106/106/106
f 108/108/108 106/106/106 118/118/118
f 108/108/108 118/118/118 104/104/104
f 102/102/102 113/113/113 103/103/103
f 102/102/102 103/103/103 111/111/111
f 102/102/102 111/111/111 110/110/110
f 102/102/102 116/116/116 117/117/117
f 102/102/102 117/117/117 103/103/103
f 102/102/102 103/103/103 113/113/113
f 104/104/104 118/118/118 119/119/119
f 104/104/104 119/119/119 105/105/105
f 104/104/104 105/105/105 114/114/114
f 106/106/106 115/115/115 107/107/107
f 106/106/106 107/107/107 119/119/119
f 106/106/106 119/119/119 118/118/118
f 106/106/106 110/110/110 111/111/111
f 106/106/106 111/111/111 107/107/107
f 106/106/106 107/107/107 115/115/115
f 101/101/101 109/109/109 105/105/105
f 101/101/101 105/105/105 114/114/114
f 101/101/101 114/114/114 112/112/112
f 101/101/101 117/117/117 103/103/103
f 101/101/101 103/103/103 111/111/111
f 101/101/101 111/111/111 109/109/109
f 105/105/105 119/119/119 107/107/107
f 105/105/105 107/107/107 115/115/115
f 105/105/105 115/115/115 109/109/109
f 120/120/120 128/128/128 124/124/124
f 120/120/120 124/124/124 134/134/134
f 120/120/120 134/134/134 132/132/132
f 120/120/120 136/136/136 122/122/122
f 120/120/120 122/122/122 130/130/130
f 120/120/120 130/130/130 128/128/128
f 120/120/120 132/132/132 121/121/121
f 120/120/120 121/121/121 137/137/137
f 120/120/120 137/137/137 136/136/136
f 128/128/128 130/130/130 126/126/126
f 128/128/128 126/126/126 138/138/138
f 128/128/128 138/138/138 124/124/124
f 122/122/122 133/133/133 123/123/123
f 122/122/122 123/123/123 131/131/131
f 122/122/122 131/131/131 130/130/130
f 122/122/122 136/136/136 137/137/137
f 122/122/122 137/137/137 123/123/123
f 122/122/122 123/123/123 133/133/133
f 124/124/124 138/138/138 139/139/139
f 124/124/124 139/139/139 125/125/125
f 124/124/124 125/125/125 134/134/134
f 126/126/126 135/135/135 127/127/127
f 126/126/126 127/127/127 139/139/139
f 126/126/126 139/139/139 138/138/138
f 126/126/126 130/130/130 131/131/131
f 126/126/126 131/131/131 127/127/127
f 126/126/126 127/127/127 135/135/135
f 121/121/121 129/129/129 125/125/125
f 121/121/121 125/125/125 134/134/134
f 121/121/121 134/134/134 132/132/132
f 121/121/121 137/137/137 123/123/123
f 121/121/121 123/123/123 131/131/131
f 121/121/121 131/131/131 129/129/129
f 125/125/125 139/139/139 127/127/127
f 125/125/125 127/127/127 135/135/135
f 125/125/125 135/135/135 129/129/129
f 140/140/140 141/141/141 157/157/157
f 140/140/140 157/157/157 156/156/156
f 172/172/172 141/141/141 140/140/140
f 173/173/173 156/156/156 157/157/157
f 141/141/141 142/142/142 158/158/158
f 141/141/141 158/158/158 157/157/157
f 172/172/172 142/142/142 141/141/141
f 173/173/173 157/157/157 158/158/158
f 142/142/142 143/143/143 159/159/159
f 142/142/142 159/159/159 158/158/158
f 172/172/172 143/143/143 142/142/142
f 173/173/173 158/158/158 159/159/159
f 143/143/143 144/144/144 160/160/160
f 143/143/143 160/160/160 159/159/159
f 172/172/172 144/144/144 143/143/143
f 173/173/173 159/159/159 160/160/160
f 144/144/144 145/145/145 161/161/161
f 144/144/144 161/161/161 160/160/160
f 172/172/172 145/145/145 144/144/144
f 173/173/173 160/160/160 161/161/161
f 145/145/145 146/146/146 162/162/162
f 145/145/145 162/162/162 161/161/161
f 172/172/172 146/146/146 145/145/145
f 173/173/173 161/161/161 162/162/162
f 146/146/146 147/147/147 163/163/163
f 146/146/146 163/163/163 162/162/162
f 172/172/172 147/147/147 146/146/146
f 173/173/173 162/162/162 163/163/163
f 147/147/147 148/148/148 164/164/164
f 147/147/147 164/164/164 163/163/163
f 172/172/172 148/148/148 147/147/147
f 173/173/173 163/163/163 164/164/164
f 148/148/148 149/149/149 165/165/165
f 148/148/148 165/165/165 164/164/164
f 172/172/172 149/149/149 148/148/148
f 173/173/173 164/164/164 165/165/165
f 149/149/149 150/150/150 166/166/166
f 149/149/149 166/166/166 165/165/165
f 172/172/172 150/150/150 149/149/149
f 173/173/173 165/165/165 166/166/166
f 150/150/150 151/151/151 167/167/167
f 150/150/150 167/167/167 166/166/166
f 172/172/172 151/151/151 150/150/150
f 173/173/173 166/166/166 167/167/167
f 151/151/151 152/152/152 168/168/168
f 151/151/151 168/168/168 167/167/167
f 172/172/172 152/152/152 151/151/151
f 173/173/173 167/167/167 168/168/168
f 152/152/152 153/153/153 169/169/169
f 152/152/152 169/169/169 168/168/168
f 172/172/172 153/153/153 152/152/152
f 173/173/173 168/168/168 169/169/169
f 153/153/153 154/154/154 170/170/170
f 153/153/153 170/170/170 169/169/169
f 172/172/172 154/154/154 153/153/153
f 173/173/173 169/169/169 170/170/170
f 154/154/154 155/155/155 171/171/171
f 154/154/154 171/171/171 170/170/170
f 172/172/172 155/155/155 154/154/154
f 173/173/173 170/170/170 171/171/171
f 155/155/155 140/140/140 156/156/156
f 155/155/155 156/156/156 171/171/171
f 172/172/172 140/140/140 155/155/155
f 173/173/173 171/171/171 156/156/156
f 174/174/174 176/176/176 175/175/175
f 174/174/174 177/177/177 176/176/176
f 178/178/178 179/179/179 180/180/180
f 178/178/178 180/180/180 181/181/181
f 174/174/174 175/175/175 179/179/179
f 174/174/174 179/179/179 178/178/178
f 176/176/176 177/177/177 181/181/181
f 176/176/176 181/181/181 180/180/180
f 174/174/174 178/178/178 181/181/181
f 174/174/174 181/181/181 177/177/177
f 175/175/175 176/176/176 180/180/180
f 175/175/175 180/180/180 179/179/179
f 182/182/182 184/184/184 183/183/183
f 182/182/182 185/185/185 184/184/184
f 186/186/186 187/187/187 188/188/188
f 186/186/186 188/188/188 189/189/189
f 182/182/182 183/183/183 187/187/187
f 182/182/182 187/187/187 186/186/186
f 184/184/184 185/185/185 189/189/189
f 184/184/184 189/189/189 188/188/188
f 182/182/182 186/186/186 189/189/189
f 182/182/182 189/189/189 185/185/185
f 183/183/183 184/184/184 188/188/188
f 183/183/183 188/188/188 187/187/187
f 190/190/190 192/192/192 191/191/191
f 190/190/190 193/193/193 192/192/192
f 194/194/194 195/195/195 196/196/196
f 194/194/194 196/196/196 197/197/197
f 190/190/190 191/191/191 195/195/195
f 190/190/190 195/195/195 194/194/194
f 192/192/192 193/193/193 197/197/197
f 192/192/192 197/197/197 196/196/196
f 190/190/190 194/194/194 197/197/197
f 190/190/190 197/197/197 193/193/193
f 191/191/191 192/192/192 196/196/196
f 191/191/191 196/196/196 195/195/195
f 198/198/198 199/199/199 215/215/215
f 198/198/198 215/215/215 214/214/214
f 230/230/230 199/199/199 198/198/198
f 231/231/231 214/214/214 215/215/215
f 199/199/199 200/200/200 216/216/216
f 199/199/199 216/216/216 215/215/215
f 230/230/230 200/200/200 199/199/199
f 231/231/231 215/215/215 216/216/216
f 200/200/200 201/201/201 217/217/217
f 200/200/200 217/217/217 216/216/216
f 230/230/230 201/201/201 200/200/200
f 231/231/231 216/216/216 217/217/217
f 201/201/201 202/202/202 218/218/218
f 201/201/201 218/218/218 217/217/217
f 230/230/230 202/202/202 201/201/201
f 231/231/231 217/217/217 218/218/218
f 202/202/202 203/203/203 219/219/219
f 202/202/202 219/219/219 218/218/218
f 230/230/230 203/203/203 202/202/202
f 231/231/231 218/218/218 219/219/219
f 203/203/203 204/204/204 220/220/220
f 203/203/203 220/220/220 219/219/219
f 230/230/230 204/204/204 203/203/203
f 231/231/231 219/219/219 220/220/220
f 204/204/204 205/205/205 221/221/221
f 204/204/204 221/221/221 220/220/220
f 230/230/230 205/205/205 204/204/204
f 231/231/231 220/220/220 221/221/221
f 205/205/205 206/206/206 222/222/222
f 205/205/205 222/222/222 221/221/221
f 230/230/230 206/206/206 205/205/205
f 231/231/231 221/221/221 222/222/222
f 206/206/206 207/207/207 223/223/223
f 206/206/206 223/223/223 222/222/222
f 230/230/230 207/207/207 206/206/206
f 231/231/231 222/222/222 223/223/223
f 207/207/207 208/208/208 224/224/224
f 207/207/207 224/224/224 223/223/223
f 230/230/230 208/208/208 207/207/207
f 231/231/231 223/223/223 224/224/224
f 208/208/208 209/209/209 225/225/225
f 208/208/208 225/225/225 224/224/224
f 230/230/230 209/209/209 208/208/208
f 231/231/231 224/224/224 225/225/225
f 209/209/209 210/210/210 226/226/226
f 209/209/209 226/226/226 225/225/225
f 230/230/230 210/210/210 209/209/209
f 231/231/231 225/225/225 226/226/226
f 210/210/210 211/211/211 227/227/227
f 210/210/210 227/227/227 226/226/226
f 230/230/230 211/211/211 210/210/210
f 231/231/231 226/226/226 227/227/227
f 211/211/211 212/212/212 228/228/228
f 211/211/211 228/228/228 227/227/227
f 230/230/230 212/212/212 211/211/211
f 231/231/231 227/227/227 228/228/228
f 212/212/212 213/213/213 229/229/229
f 212/212/212 229/229/229 228/228/228
f 230/230/230 213/213/213 212/212/212
f 231/231/231 228/228/228 229/229/229
f 213/213/213 198/198/198 214/214/214
f 213/213/213 214/214/214 229/229/229
f 230/230/230 198/198/198 213/213/213
f 231/231/231 229/229/229 214/214/214
f 232/232/232 233/233/233 249/249/249
f 232/232/232 249/249/249 248/248/248
f 264/264/264 233/233/233 232/232/232
f 265/265/265 248/248/248 249/249/249
f 233/233/233 234/234/234 250/250/250
f 233/233/233 250/250/250 249/249/249
f 264/264/264 234/234/234 233/233/233
f 265/265/265 249/249/249 250/250/250
f 234/234/234 235/235/235 251/251/251
f 234/234/234 251/251/251 250/250/250
f 264/264/264 235/235/235 234/234/234
f 265/265/265 250/250/250 251/251/251
f 235/235/235 236/236/236 252/252/252
f 235/235/235 252/252/252 251/251/251
f 264/264/264 236/236/236 235/235/235
f 265/265/265 251/251/251 252/252/252
f 236/236/236 237/237/237 253/253/253
f 236/236/236 253/253/253 252/252/252
f 264/264/264 237/237/237 236/236/236
f 265/265/265 252/252/252 253/253/253
f 237/237/237 238/238/238 254/254/254
f 237/237/237 254/254/254 253/253/253
f 264/264/264 238/238/238 237/237/237
f 265/265/265 253/253/253 254/254/254
f 238/238/238 239/239/239 255/255/255
f 238/238/238 255/255/255 254/254/254
f 264/264/264 239/239/239 238/238/238
f 265/265/265 254/254/254 255/255/255
f 239/239/239 240/240/240 256/256/256
f 239/239/239 256/256/256 255/255/255
f 264/264/264 240/240/240 239/239/239
f 265/265/265 255/255/255 256/256/256
f 240/240/240 241/241/241 257/257/257
f 240/240/240 257/257/257 256/256/256
f 264/264/264 241/241/241 240/240/240
f 265/265/265 256/256/256 257/257/257
f 241/241/241 242/242/242 258/258/258
f 241/241/241 258/258/258 257/257/257
f 264/264/264 242/242/242 241/241/241
f 265/265/265 257/257/257 258/258/258
f 242/242/242 243/243/243 259/259/259
f 242/242/242 259/259/259 258/258/258
f 264/264/264 243/243/243 242/242/242
f 265/265/265 258/258/258 259/259/259
f 243/243/243 244/244/244 260/260/260
f 243/243/243 260/260/260 259/259/259
f 264/264/264 244/244/244 243/243/243
f 265/265/265 259/259/259 260/260/260
f 244/244/244 245/245/245 261/261/261
f 244/244/244 261/261/261 260/260/260
f 264/264/264 245/245/245 244/244/244
f 265/265/265 260/260/260 261/261/261
f 245/245/245 246/246/246 262/262/262
f 245/245/245 262/262/262 261/261/261
f 264/264/264 246/246/246 245/245/245
f 265/265/265 261/261/261 262/262/262
f 246/246/246 247/247/247 263/263/263
f 246/246/246 263/263/263 262/262/262
f 264/264/264 247/247/247 246/246/246
f 265/265/265 262/262/262 263/263/263
f 247/247/247 232/232/232 248/248/248
f 247/247/247 248/248/248 263/263/263
f 264/264/264 232/232/232 247/247/247
f 265/265/265 263/263/263 248/248/248
f 266/266/266 267/267/267 283/283/283
f 266/266/266 283/283/283 282/282/282
f 298/298/298 267/267/267 266/266/266
f 299/299/299 282/282/282 283/283/283
f 267/267/267 268/268/268 284/284/284
f 267/267/267 284/284/284 283/283/283
f 298/298/298 268/268/268 267/267/267
f 299/299/299 283/283/283 284/284/284
f 268/268/268 269/269/269 285/285/285
f 268/268/268 285/285/285 284/284/284
f 298/298/298 269/269/269 268/268/268
f 299/299/299 284/284/284 285/285/285
f 269/269/269 270/270/270 286/286/286
f 269/269/269 286/286/286 285/285/285
f 298/298/298 270/270/270 269/269/269
f 299/299/299 285/285/285 286/286/286
f 270/270/270 271/271/271 287/287/287
f 270/270/270 287/287/287 286/286/286
f 298/298/298 271/271/271 270/270/270
f 299/299/299 286/286/286 287/287/287
f 271/271/271 272/272/272 288/288/288
f 271/271/271 288/288/288 287/287/287
f 298/298/298 272/272/272 271/271/271
f 299/299/299 287/287/287 288/288/288
f 272/272/272 273/273/273 289/289/289
f 272/272/272 289/289/289 288/288/288
f 298/298/298 273/273/273 272/272/272
f 299/299/299 288/288/288 289/289/289
f 273/273/273 274/274/274 290/290/290
f 273/273/273 290/290/290 289/289/289
f 298/298/298 274/274/274 273/273/273
f 299/299/299 289/289/289 290/290/290
f 274/274/274 275/275/275 291/291/291
f 274/274/274 291/291/291 290/290/290
f 298/298/298 275/275/275 274/274/274
f 299/299/299 290/290/290 291/291/291
f 275/275/275 276/276/276 292/292/292
f 275/275/275 292/292/292 291/291/291
f 298/298/298 276/276/276 275/275/275
f 299/299/299 291/291/291 292/292/292
f 276/276/276 277/277/277 293/293/293
f 276/276/276 293/293/293 292/292/292
f 298/298/298 277/277/277 276/276/276
f 299/299/299 292/292/292 293/293/293
f 277/277/277 278/278/278 294/294/294
f 277/277/277 294/294/294 293/293/293
f 298/298/298 278/278/278 277/277/277
f 299/299/299 293/293/293 294/294/294
f 278/278/278 279/279/279 295/295/295
f 278/278/278 295/295/295 294/294/294
f 298/298/298 279/279/279 278/278/278
f 299/299/299 294/294/294 295/295/295
f 279/279/279 280/280/280 296/296/296
f 279/279/279 296/296/296 295/295/295
f 298/298/298 280/280/280 279/279/279
f 299/299/299 295/295/295 296/296/296
f 280/280/280 281/281/281 297/297/297
f 280/280/280 297/297/297 296/296/296
f 298/298/298 281/281/281 280/280/280
f 299/299/299 296/296/296 297/297/297
f 281/281/281 266/266/266 282/282/282
f 281/281/281 282/282/282 297/297/297
f 298/298/298 266/266/266 281/281/281
f 299/299/299 297/297/297 282/282/282
f 300/300/300 301/301/301 313/313/313
f 300/300/300 313/313/313 312/312/312
f 324/324/324 301/301/301 300/300/300
f 325/325/325 312/312/312 313/313/313
f 301/301/301 302/302/302 314/314/314
f 301/301/301 314/314/314 313/313/313
f 324/324/324 302/302/302 301/301/301
f 325/325/325 313/313/313 314/314/314
f 302/302/302 303/303/303 315/315/315
f 302/302/302 315/315/315 314/314/314
f 324/324/324 303/303/303 302/302/302
f 325/325/325 314/314/314 315/315/315
f 303/303/303 304/304/304 316/316/316
f 303/303/303 316/316/316 315/315/315
f 324/324/324 304/304/304 303/303/303
f 325/325/325 315/315/315 316/316/316
f 304/304/304 305/305/305 317/317/317
f 304/304/304 317/317/317 316/316/316
f 324/324/324 305/305/305 304/304/304
f 325/325/325 316/316/316 317/317/317
f 305/305/305 306/306/306 318/318/318
f 305/305/305 318/318/318 317/317/317
f 324/324/324 306/306/306 305/305/305
f 325/325/325 317/317/317 318/318/318
f 306/306/306 307/307/307 319/319/319
f 306/306/306 319/319/319 318/318/318
f 324/324/324 307/307/307 306/306/306
f 325/325/325 318/318/318 319/319/319
f 307/307/307 308/308/308 320/320/320
f 307/307/307 320/320/320 319/319/319
f 324/324/324 308/308/308 307/307/307
f 325/325/325 319/319/319 320/320/320
f 308/308/308 309/309/309 321/321/321
f 308/308/308 321/321/321 320/320/320
f 324/324/324 309/309/309 308/308/308
f 325/325/325 320/320/320 321/321/321
f 309/309/309 310/310/310 322/322/322
f 309/309/309 322/322/322 321/321/321
f 324/324/324 310/310/310 309/309/309
f 325/325/325 321/321/321 322/322/322
f 310/310/310 311/311/311 323/323/323
f 310/310/310 323/323/323 322/322/322
f 324/324/324 311/311/311 310/310/310
f 325/325/325 322/322/322 323/323/323
f 311/311/311 300/300/300 312/312/312
f 311/311/311 312/312/312 323/323/323
f 324/324/324 300/300/300 311/311/311
f 325/325/325 323/323/323 312/312/312
f 326/326/326 327/327/327 339/339/339
f 326/326/326 339/339/339 338/338/338
f 350/350/350 327/327/327 326/326/326
f 351/351/351 338/338/338 339/339/339
f 327/327/327 328/328/328 340/340/340
f 327/327/327 340/340/340 339/339/339
f 350/350/350 328/328/328 327/327/327
f 351/351/351 339/339/339 340/340/340
f 328/328/328 329/329/329 341/341/341
f 328/328/328 341/341/341 340/340/340
f 350/350/350 329/329/329 328/328/328
f 351/351/351 340/340/340 341/341/341
f 329/329/329 330/330/330 342/342/342
f 329/329/329 342/342/342 341/341/341
f 350/350/350 330/330/330 329/329/329
f 351/351/351 341/341/341 342/342/342
f 330/330/330 331/331/331 343/343/343
f 330/330/330 343/343/343 342/342/342
f 350/350/350 331/331/331 330/330/330
f 351/351/351 342/342/342 343/343/343
f 331/331/331 332/332/332 344/344/344
f 331/331/331 344/344/344 343/343/343
f 350/350/350 332/332/332 331/331/331
f 351/351/351 343/343/343 344/344/344
f 332/332/332 333/333/333 345/345/345
f 332/332/332 345/345/345 344/344/344
f 350/350/350 333/333/333 332/332/332
f 351/351/351 344/344/344 345/345/345
f 333/333/333 334/334/334 346/346/346
f 333/333/333 346/346/346 345/345/345
f 350/350/350 334/334/334 333/333/333
f 351/351/351 345/345/345 346/346/346
f 334/334/334 335/335/335 347/347/347
f 334/334/334 347/347/347 346/346/346
f 350/350/350 335/335/335 334/334/334
f 351/351/351 346/346/346 347/347/347
f 335/335/335 336/336/336 348/348/348
f 335/335/335 348/348/348 347/347/347
f 350/350/350 336/336/336 335/335/335
f 351/351/351 347/347/347 348/348/348
f 336/336/336 337/337/337 349/349/349
f 336/336/336 349/349/349 348/348/348
f 350/350/350 337/337/337 336/336/336
f 351/351/351 348/348/348 349/349/349
f 337/337/337 326/326/326 338/338/338
f 337/337/337 338/338/338 349/349/349
f 350/350/350 326/326/326 337/337/337
f 351/351/351 349/349/349 338/338/338
f 352/352/352 353/353/353 365/365/365
f 352/352/352 365/365/365 364/364/364
f 376/376/376 353/353/353 352/352/352
f 377/377/377 364/364/364 365/365/365
f 353/353/353 354/354/354 366/366/366
f 353/353/353 366/366/366 365/365/365
f 376/376/376 354/354/354 353/353/353
f 377/377/377 365/365/365 366/366/366
f 354/354/354 355/355/355 367/367/367
f 354/354/354 367/367/367 366/366/366
f 376/376/376 355/355/355 354/354/354
f 377/377/377 366/366/366 367/367/367
f 355/355/355 356/356/356 368/368/368
f 355/355/355 368/368/368 367/367/367
f 376/376/376 356/356/356 355/355/355
f 377/377/377 367/367/367 368/368/368
f 356/356/356 357/357/357 369/369/369
f 356/356/356 369/369/369 368/368/368
f 376/376/376 357/357/357 356/356/356
f 377/377/377 368/368/368 369/369/369
f 357/357/357 358/358/358 370/370/370
f 357/357/357 370/370/370 369/369/369
f 376/376/376 358/358/358 357/357/357
f 377/377/377 369/369/369 370/370/370
f 358/358/358 359/359/359 371/371/371
f 358/358/358 371/371/371 370/370/370
f 376/376/376 359/359/359 358/358/358
f 377/377/377 370/370/370 371/371/371
f 359/359/359 360/360/360 372/372/372
f 359/359/359 372/372/372 371/371/371
f 376/376/376 360/360/360 359/359/359
f 377/377/377 371/371/371 372/372/372
f 360/360/360 361/361/361 373/373/373
f 360/360/360 373/373/373 372/372/372
f 376/376/376 361/361/361 360/360/360
f 377/377/377 372/372/372 373/373/373
f 361/361/361 362/362/362 374/374/374
f 361/361/361 374/374/374 373/373/373
f 376/376/376 362/362/362 361/361/361
f 377/377/377 373/373/373 374/374/374
f 362/362/362 363/363/363 375/375/375
f 362/362/362 375/375/375 374/374/374
f 376/376/376 363/363/363 362/362/362
f 377/377/377 374/374/374 375/375/375
f 363/363/363 352/352/352 364/364/364
f 363/363/363 364/364/364 375/375/375
f 376/376/376 352/352/352 363/363/363
f 377/377/377 375/375/375 364/364/364
f 378/378/378 379/379/379 391/391/391
f 378/378/378 391/391/391 390/390/390
f 402/402/402 379/379/379 378/378/378
f 403/403/403 390/390/390 391/391/391
f 379/379/379 380/380/380 392/392/392
f 379/379/379 392/392/392 391/391/391
f 402/402/402 380/380/380 379/379/379
f 403/403/403 391/391/391 392/392/392
f 380/380/380 381/381/381 393/393/393
f 380/380/380 393/393/393 392/392/392
f 402/402/402 381/381/381 380/380/380
f 403/403/403 392/392/392 393/393/393
f 381/381/381 382/382/382 394/394/394
f 381/381/381 394/394/394 393/393/393
f 402/402/402 382/382/382 381/381/381
f 403/403/403 393/393/393 394/394/394
f 382/382/382 383/383/383 395/395/395
f 382/382/382 395/395/395 394/394/394
f 402/402/402 383/383/383 382/382/382
f 403/403/403 394/394/394 395/395/395
f 383/383/383 384/384/384 396/396/396
f 383/383/383 396/396/396 395/395/395
f 402/402/402 384/384/384 383/383/383
f 403/403/403 395/395/395 396/396/396
f 384/384/384 385/385/385 397/397/397
f 384/384/384 397/397/397 396/396/396
f 402/402/402 385/385/385 384/384/384
f 403/403/403 396/396/396 397/397/397
f 385/385/385 386/386/386 398/398/398
f 385/385/385 398/398/398 397/397/397
f 402/402/402 386/386/386 385/385/385
f 403/403/403 397/397/397 398/398/398
f 386/386/386 387/387/387 399/399/399
f 386/386/386 399/399/399 398/398/398
f 402/402/402 387/387/387 386/386/386
f 403/403/403 398/398/398 399/399/399
f 387/387/387 388/388/388 400/400/400
f 387/387/387 400/400/400 399/399/399
f 402/402/402 388/388/388 387/387/387
f 403/403/403 399/399/399 400/400/400
f 388/388/388 389/389/389 401/401/401
f 388/388/388 401/401/401 400/400/400
f 402/402/402 389/389/389 388/388/388
f 403/403/403 400/400/400 401/401/401
f 389/389/389 378/378/378 390/390/390
f 389/389/389 390/390/390 401/401/401
f 402/402/402 378/378/378 389/389/389
f 403/403/403 401/401/401 390/390/390
f 404/404/404 415/415/415 416/416/416
f 404/404/404 416/416/416 405/405/405
f 405/405/405 416/416/416 417/417/417
f 405/405/405 417/417/417 406/406/406
f 406/406/406 417/417/417 418/418/418
f 406/406/406 418/418/418 407/407/407
f 407/407/407 418/418/418 419/419/419
f 407/407/407 419/419/419 408/408/408
f 408/408/408 419/419/419 420/420/420
f 408/408/408 420/420/420 409/409/409
f 409/409/409 420/420/420 421/421/421
f 409/409/409 421/421/421 410/410/410
f 410/410/410 421/421/421 422/422/422
f 410/410/410 422/422/422 411/411/411
f 411/411/411 422/422/422 423/423/423
f 411/411/411 423/423/423 412/412/412
f 412/412/412 423/423/423 424/424/424
f 412/412/412 424/424/424 413/413/413
f 413/413/413 424/424/424 425/425/425
f 413/413/413 425/425/425 414/414/414
f 415/415/415 426/426/426 427/427/427
f 415/415/415 427/427/427 416/416/416
f 416/416/416 427/427/427 428/428/428
f 416/416/416 428/428/428 417/417/417
f 417/417/417 428/428/428 429/429/429
f 417/417/417 429/429/429 418/418/418
f 418/418/418 429/429/429 430/430/430
f 418/418/418 430/430/430 419/419/419
f 419/419/419 430/430/430 431/431/431
f 419/419/419 431/431/431 420/420/420
f 420/420/420 431/431/431 432/432/432
f 420/420/420 432/432/432 421/421/421
f 421/421/421 432/432/432 433/433/433
f 421/421/421 433/433/433 422/422/422
f 422/422/422 433/433/433 434/434/434
f 422/422/422 434/434/434 423/423/423
f 423/423/423 434/434/434 435/435/435
f 423/423/423 435/435/435 424/424/424
f 424/424/424 435/435/435 436/436/436
f 424/424/424 436/436/436 425/425/425
f 426/426/426 437/437/437 438/438/438
f 426/426/426 438/438/438 427/427/427
f 427/427/427 438/438/438 439/439/439
f 427/427/427 439/439/439 428/428/428
f 428/428/428 439/439/439 440/440/440
f 428/428/428 440/440/440 429/429/429
f 429/429/429 440/440/440 441/441/441
f 429/429/429 441/441/441 430/430/430
f 430/430/430 441/441/441 442/442/442
f 430/430/430 442/442/442 431/431/431
f 431/431/431 442/442/442 443/443/443
f 431/431/431 443/443/443 432/432/432
f 432/432/432 443/443/443 444/444/444
f 432/432/432 444/444/444 433/433/433
f 433/433/433 444/444/444 445/445/445
f 433/433/433 445/445/445 434/434/434
f 434/434/434 445/445/445 446/446/446
f 434/434/434 446/446/446 435/435/435
f 435/435/435 446/446/446 447/447/447
f 435/435/435 447/447/447 436/436/436
f 437/437/437 448/448/448 449/449/449
f 437/437/437 449/449/449 438/438/438
f 438/438/438 449/449/449 450/450/450
f 438/438/438 450/450/450 439/439/439
f 439/439/439 450/450/450 451/451/451
f 439/439/439 451/451/451 440/440/440
f 440/440/440 451/451/451 452/452/452
f 440/440/440 452/452/452 441/441/441
f 441/441/441 452/452/452 453/453/453
f 441/441/441 453/453/453 442/442/442
f 442/442/442 453/453/453 454/454/454
f 442/442/442 454/454/454 443/443/443
f 443/443/443 454/454/454 455/455/455
f 443/443/443 455/455/455 444/444/444
f 444/444/444 455/455/455 456/456/456
f 444/444/444 456/456/456 445/445/445
f 445/445/445 456/456/456 457/457/457
f 445/445/445 457/457/457 446/446/446
f 446/446/446 457/457/457 458/458/458
f 446/446/446 458/458/458 447/447/447
f 448/448/448 459/459/459 460/460/460
f 448/448/448 460/460/460 449/449/449
f 449/449/449 460/460/460 461/461/461
f 449/449/449 461/461/461 450/450/450
f 450/450/450 461/461/461 462/462/462
f 450/450/450 462/462/462 451/451/451
f 451/451/451 462/462/462 463/463/463
f 451/451/451 463/463/463 452/452/452
f 452/452/452 463/463/463 464/464/464
f 452/452/452 464/464/464 453/453/453
f 453/453/453 464/464/464 465/465/465
f 453/453/453 465/465/465 454/454/454
f 454/454/454 465/465/465 466/466/466
f 454/454/454 466/466/466 455/455/455
f 455/455/455 466/466/466 467/467/467
f 455/455/455 467/467/467 456/456/456
f 456/456/456 467/467/467 468/468/468
f 456/456/456 468/468/468 457/457/457
f 457/457/457 468/468/468 469/469/469
f 457/457/457 469/469/469 458/458/458
f 459/459/459 470/470/470 471/471/471
f 459/459/459 471/471/471 460/460/460
f 460/460/460 471/471/471 472/472/472
f 460/460/460 472/472/472 461/461/461
f 461/461/461 472/472/472 473/473/473
f 461/461/461 473/473/473 462/462/462
f 462/462/462 473/473/473 474/474/474
f 462/462/462 474/474/474 463/463/463
f 463/463/463 474/474/474 475/475/475
f 463/463/463 475/475/475 464/464/464
f 464/464/464 475/475/475 476/476/476
f 464/464/464 476/476/476 465/465/465
f 465/465/465 476/476/476 477/477/477
f 465/465/465 477/477/477 466/466/466
f 466/466/466 477/477/477 478/478/478
f 466/466/466 478/478/478 467/467/467
f 467/467/467 478/478/478 479/479/479
f 467/467/467 479/479/479 468/468/468
f 468/468/468 479/479/479 480/480/480
f 468/468/468 480/480/480 469/469/469
f 470/470/470 481/481/481 482/482/482
f 470/470/470 482/482/482 471/471/471
f 471/471/471 482/482/482 483/483/483
f 471/471/471 483/483/483 472/472/472
f 472/472/472 483/483/483 484/484/484
f 472/472/472 484/484/484 473/473/473
f 473/473/473 484/484/484 485/485/485
f 473/473/473 485/485/485 474/474/474
f 474/474/474 485/485/485 486/486/486
f 474/474/474 486/486/486 475/475/475
f 475/475/475 486/486/486 487/487/487
f 475/475/475 487/487/487 476/476/476
f 476/476/476 487/487/487 488/488/488
f 476/476/476 488/488/488 477/477/477
f 477/477/477 488/488/488 489/489/489
f 477/477/477 489/489/489 478/478/478
f 478/478/478 489/489/489 490/490/490
f 478/478/478 490/490/490 479/479/479
f 479/479/479 490/490/490 491/491/491
f 479/479/479 491/491/491 480/480/480
f 481/481/481 492/492/492 493/493/493
f 481/481/481 493/493/493 482/482/482
f 482/482/482 493/493/493 494/494/494
f 482/482/482 494/494/494 483/483/483
f 483/483/483 494/494/494 495/495/495
f 483/483/483 495/495/495 484/484/484
f 484/484/484 495/495/495 496/496/496
f 484/484/484 496/496/496 485/485/485
f 485/485/485 496/496/496 497/497/497
f 485/485/485 497/497/497 486/486/486
f 486/486/486 497/497/497 498/498/498
f 486/486/486 498/498/498 487/487/487
f 487/487/487 498/498/498 499/499/499
f 487/487/487 499/499/499 488/488/488
f 488/488/488 499/499/499 500/500/500
f 488/488/488 500/500/500 489/489/489
f 489/489/489 500/500/500 501/501/501
f 489/489/489 501/501/501 490/490/490
f 490/490/490 501/501/501 502/502/502
f 490/490/490 502/502/502 491/491/491
f 503/503/503 492/492/492 493/493/493
f 503/503/503 493/493/493 494/494/494
f 503/503/503 494/494/494 495/495/495
f 503/503/503 495/495/495 496/496/496
f 503/503/503 496/496/496 497/497/497
f 503/503/503 497/497/497 498/498/498
f 503/503/503 498/498/498 499/499/499
f 503/503/503 499/499/499 500/500/500
f 503/503/503 500/500/500 501/501/501
f 503/503/503 501/501/501 502/502/502
f 504/504/504 505/505/505 511/511/511
f 504/504/504 511/511/511 510/510/510
f 516/516/516 505/505/505 504/504/504
f 517/517/517 510/510/510 511/511/511
f 505/505/505 506/506/506 512/512/512
f 505/505/505 512/512/512 511/511/511
f 516/516/516 506/506/506 505/505/505
f 517/517/517 511/511/511 512/512/512
f 506/506/506 507/507/507 513/513/513
f 506/506/506 513/513/513 512/512/512
f 516/516/516 507/507/507 506/506/506
f 517/517/517 512/512/512 513/513/513
f 507/507/507 508/508/508 514/514/514
f 507/507/507 514/514/514 513/513/513
f 516/516/516 508/508/508 507/507/507
f 517/517/517 513/513/513 514/514/514
f 508/508/508 509/509/509 515/515/515
f 508/508/508 515/515/515 514/514/514
f 516/516/516 509/509/509 508/508/508
f 517/517/517 514/514/514 515/515/515
f 509/509/509 504/504/504 510/510/510
f 509/509/509 510/510/510 515/515/515
f 516/516/516 504/504/504 509/509/509
f 517/517/517 515/515/515 510/510/510
f 518/518/518 529/529/529 530/530/530
f 518/518/518 530/530/530 519/519/519
f 519/519/519 530/530/530 531/531/531
f 519/519/519 531/531/531 520/520/520
f 520/520/520 531/531/531 532/532/532
f 520/520/520 532/532/532 521/521/521
f 521/521/521 532/532/532 533/533/533
f 521/521/521 533/533/533 522/522/522
f 522/522/522 533/533/533 534/534/534
f 522/522/522 534/534/534 523/523/523
f 523/523/523 534/534/534 535/535/535
f 523/523/523 535/535/535 524/524/524
f 524/524/524 535/535/535 536/536/536
f 524/524/524 536/536/536 525/525/525
f 525/525/525 536/536/536 537/537/537
f 525/525/525 537/537/537 526/526/526
f 526/526/526 537/537/537 538/538/538
f 526/526/526 538/538/538 527/527/527
f 527/527/527 538/538/538 539/539/539
f 527/527/527 539/539/539 528/528/528
f 529/529/529 540/540/540 541/541/541
f 529/529/529 541/541/541 530/530/530
f 530/530/530 541/541/541 542/542/542
f 530/530/530 542/542/542 531/531/531
f 531/531/531 542/542/542 543/543/543
f 531/531/531 543/543/543 532/532/532
f 532/532/532 543/543/543 544/544/544
f 532/532/532 544/544/544 533/533/533
f 533/533/533 544/544/544 545/545/545
f 533/533/533 545/545/545 534/534/534
f 534/534/534 545/545/545 546/546/546
f 534/534/534 546/546/546 535/535/535
f 535/535/535 546/546/546 547/547/547
f 535/535/535 547/547/547 536/536/536
f 536/536/536 547/547/547 548/548/548
f 536/536/536 548/548/548 537/537/537
f 537/537/537 548/548/548 549/549/549
f 537/537/537 549/549/549 538/538/538
f 538/538/538 549/549/549 550/550/550
f 538/538/538 550/550/550 539/539/539
f 540/540/540 551/551/551 552/552/552
f 540/540/540 552/552/552 541/541/541
f 541/541/541 552/552/552 553/553/553
f 541/541/541 553/553/553 542/542/542
f 542/542/542 553/553/553 554/554/554
f 542/542/542 554/554/554 543/543/543
f 543/543/543 554/554/554 555/555/555
f 543/543/543 555/555/555 544/544/544
f 544/544/544 555/555/555 556/556/556
f 544/544/544 556/556/556 545/545/545
f 545/545/545 556/556/556 557/557/557
f 545/545/545 557/557/557 546/546/546
f 546/546/546 557/557/557 558/558/558
f 546/546/546 558/558/558 547/547/547
f 547/547/547 558/558/558 559/559/559
f 547/547/547 559/559/559 548/548/548
f 548/548/548 559/559/559 560/560/560
f 548/548/548 560/560/560 549/549/549
f 549/549/549 560/560/560 561/561/561
f 549/549/549 561/561/561 550/550/550
f 551/551/551 562/562/562 563/563/563
f 551/551/551 563/563/563 552/552/552
f 552/552/552 563/563/563 564/564/564
f 552/552/552 564/564/564 553/553/553
f 553/553/553 564/564/564 565/565/565
f 553/553/553 565/565/565 554/554/554
f 554/554/554 565/565/565 566/566/566
f 554/554/554 566/566/566 555/555/555
f 555/555/555 566/566/566 567/567/567
f 555/555/555 567/567/567 556/556/556
f 556/556/556 567/567/567 568/568/568
f 556/556/556 568/568/568 557/557/557
f 557/557/557 568/568/568 569/569/569
f 557/557/557 569/569/569 558/558/558
f 558/558/558 569/569/569 570/570/570
f 558/558/558 570/570/570 559/559/559
f 559/559/559 570/570/570 571/571/571
f 559/559/559 571/571/571 560/560/560
f 560/560/560 571/571/571 572/572/572
f 560/560/560 572/572/572 561/561/561
f 562/562/562 573/573/573 574/574/574
f 562/562/562 574/574/574 563/563/563
f 563/563/563 574/574/574 575/575/575
f 563/563/563 575/575/575 564/564/564
f 564/564/564 575/575/575 576/576/576
f 564/564/564 576/576/576 565/565/565
f 565/565/565 576/576/576 577/577/577
f 565/565/565 577/577/577 566/566/566
f 566/566/566 577/577/577 578/578/578
f 566/566/566 578/578/578 567/567/567
f 567/567/567 578/578/578 579/579/579
f 567/567/567 579/579/579 568/568/568
f 568/568/568 579/579/579 580/580/580
f 568/568/568 580/580/580 569/569/569
f 569/569/569 580/580/580 581/581/581
f 569/569/569 581/581/581 570/570/570
f 570/570/570 581/581/581 582/582/582
f 570/570/570 582/582/582 571/571/571
f 571/571/571 582/582/582 583/583/583
f 571/571/571 583/583/583 572/572/572
f 573/573/573 584/584/584 585/585/585
f 573/573/573 585/585/585 574/574/574
f 574/574/574 585/585/585 586/586/586
f 574/574/574 586/586/586 575/575/575
f 575/575/575 586/586/586 587/587/587
f 575/575/575 587/587/587 576/576/576
f 576/576/576 587/587/587 588/588/588
f 576/576/576 588/588/588 577/577/577
f 577/577/577 588/588/588 589/589/589
f 577/577/577 589/589/589 578/578/578
f 578/578/578 589/589/589 590/590/590
f 578/578/578 590/590/590 579/579/579
f 579/579/579 590/590/590 591/591/591
f 579/579/579 591/591/591 580/580/580
f 580/580/580 591/591/591 592/592/592
f 580/580/580 592/592/592 581/581/581
f 581/581/581 592/592/592 593/593/593
f 581/581/581 593/593/593 582/582/582
f 582/582/582 593/593/593 594/594/594
f 582/582/582 594/594/594 583/583/583
f 584/584/584 595/595/595 596/596/596
f 584/584/584 596/596/596 585/585/585
f 585/585/585 596/596/596 597/597/597
f 585/585/585 597/597/597 586/586/586
f 586/586/586 597/597/597 598/598/598
f 586/586/586 598/598/598 587/587/587
f 587/587/587 598/598/598 599/599/599
f 587/587/587 599/599/599 588/588/588
f 588/588/588 599/599/599 600/600/600
f 588/588/588 600/600/600 589/589/589
f 589/589/589 600/600/600 601/601/601
f 589/589/589 601/601/601 590/590/590
f 590/590/590 601/601/601 602/602/602
f 590/590/590 602/602/602 591/591/591
f 591/591/591 602/602/602 603/603/603
f 591/591/591 603/603/603 592/592/592
f 592/592/592 603/603/603 604/604/604
f 592/592/592 604/604/604 593/593/593
f 593/593/593 604/604/604 605/605/605
f 593/593/593 605/605/605 594/594/594
f 595/595/595 606/606/606 607/607/607
f 595/595/595 607/607/607 596/596/596
f 596/596/596 607/607/607 608/608/608
f 596/596/596 608/608/608 597/597/597
f 597/597/597 608/608/608 609/609/609
f 597/597/597 609/609/609 598/598/598
f 598/598/598 609/609/609 610/610/610
f 598/598/598 610/610/610 599/599/599
f 599/599/599 610/610/610 611/611/611
f 599/599/599 611/611/611 600/600/600
f 600/600/600 611/611/611 612/612/612
f 600/600/600 612/612/612 601/601/601
f 601/601/601 612/612/612 613/613/613
f 601/601/601 613/613/613 602/602/602
f 602/602/602 613/613/613 614/614/614
f 602/602/602 614/614/614 603/603/603
f 603/603/603 614/614/614 615/615/615
f 603/603/603 615/615/615 604/604/604
f 604/604/604 615/615/615 616/616/616
f 604/604/604 616/616/616 605/605/605