# 3D Model: building/mass/phoenix-tower_rotated_270 (v6 Gemini)
# Style: Chinese Pagoda | Symmetry: symmetric
# Dimensions: 9.4 x 37.9 x 9.4 m
# Triangles: 1170 | Vertices: 689
v 4.5 1 0
v 3.182 1 3.182
v 0 1 4.5
v -3.182 1 3.182
v -4.5 1 0
v -3.182 1 -3.182
v 0 1 -4.5
v 3.182 1 -3.182
v 4.5 2 0
v 3.182 2 3.182
v 0 2 4.5
v -3.182 2 3.182
v -4.5 2 0
v -3.182 2 -3.182
v 0 2 -4.5
v 3.182 2 -3.182
v 0 1 0
v 0 2 0
v 4.7 2.7 0
v 3.3234 2.7 3.3234
v 0 2.7 4.7
v -3.3234 2.7 3.3234
v -4.7 2.7 0
v -3.3234 2.7 -3.3234
v 0 2.7 -4.7
v 3.3234 2.7 -3.3234
v 4.7 3.7 0
v 3.3234 3.7 3.3234
v 0 3.7 4.7
v -3.3234 3.7 3.3234
v -4.7 3.7 0
v -3.3234 3.7 -3.3234
v 0 3.7 -4.7
v 3.3234 3.7 -3.3234
v 0 2.7 0
v 0 3.7 0
v 4.2 5 0
v 2.9698 5 2.9698
v 0 5 4.2
v -2.9698 5 2.9698
v -4.2 5 0
v -2.9698 5 -2.9698
v 0 5 -4.2
v 2.9698 5 -2.9698
v 4.2 6 0
v 2.9698 6 2.9698
v 0 6 4.2
v -2.9698 6 2.9698
v -4.2 6 0
v -2.9698 6 -2.9698
v 0 6 -4.2
v 2.9698 6 -2.9698
v 0 5 0
v 0 6 0
v -0.8 3.2 4.17
v 0.8 3.2 4.17
v 0.8 5.8 4.17
v -0.8 5.8 4.17
v -0.8 3.2 4.27
v 0.8 3.2 4.27
v 0.8 5.8 4.27
v -0.8 5.8 4.27
v -0.8 3.2 -4.27
v 0.8 3.2 -4.27
v 0.8 5.8 -4.27
v -0.8 5.8 -4.27
v -0.8 3.2 -4.17
v 0.8 3.2 -4.17
v 0.8 5.8 -4.17
v -0.8 5.8 -4.17
v 4.6 7.6 0
v 3.2527 7.6 3.2527
v 0 7.6 4.6
v -3.2527 7.6 3.2527
v -4.6 7.6 0
v -3.2527 7.6 -3.2527
v 0 7.6 -4.6
v 3.2527 7.6 -3.2527
v 4 8.6 0
v 2.8284 8.6 2.8284
v 0 8.6 4
v -2.8284 8.6 2.8284
v -4 8.6 0
v -2.8284 8.6 -2.8284
v 0 8.6 -4
v 2.8284 8.6 -2.8284
v 0 7.6 0
v 0 8.6 0
v 3.9 10 0
v 2.7577 10 2.7577
v 0 10 3.9
v -2.7577 10 2.7577
v -3.9 10 0
v -2.7577 10 -2.7577
v 0 10 -3.9
v 2.7577 10 -2.7577
v 3.9 11 0
v 2.7577 11 2.7577
v 0 11 3.9
v -2.7577 11 2.7577
v -3.9 11 0
v -2.7577 11 -2.7577
v 0 11 -3.9
v 2.7577 11 -2.7577
v 0 10 0
v 0 11 0
v -0.4 9.6 3.87
v 0.4 9.6 3.87
v 0.4 11.4 3.87
v -0.4 11.4 3.87
v -0.4 9.6 3.97
v 0.4 9.6 3.97
v 0.4 11.4 3.97
v -0.4 11.4 3.97
v -0.4 9.6 -3.97
v 0.4 9.6 -3.97
v 0.4 11.4 -3.97
v -0.4 11.4 -3.97
v -0.4 9.6 -3.87
v 0.4 9.6 -3.87
v 0.4 11.4 -3.87
v -0.4 11.4 -3.87
v 4.3 12.3 0
v 3.0406 12.3 3.0406
v 0 12.3 4.3
v -3.0406 12.3 3.0406
v -4.3 12.3 0
v -3.0406 12.3 -3.0406
v 0 12.3 -4.3
v 3.0406 12.3 -3.0406
v 3.7 13.3 0
v 2.6163 13.3 2.6163
v 0 13.3 3.7
v -2.6163 13.3 2.6163
v -3.7 13.3 0
v -2.6163 13.3 -2.6163
v 0 13.3 -3.7
v 2.6163 13.3 -2.6163
v 0 12.3 0
v 0 13.3 0
v 3.6 14.5 0
v 2.5456 14.5 2.5456
v 0 14.5 3.6
v -2.5456 14.5 2.5456
v -3.6 14.5 0
v -2.5456 14.5 -2.5456
v 0 14.5 -3.6
v 2.5456 14.5 -2.5456
v 3.6 15.5 0
v 2.5456 15.5 2.5456
v 0 15.5 3.6
v -2.5456 15.5 2.5456
v -3.6 15.5 0
v -2.5456 15.5 -2.5456
v 0 15.5 -3.6
v 2.5456 15.5 -2.5456
v 0 14.5 0
v 0 15.5 0
v -0.4 14.1 3.57
v 0.4 14.1 3.57
v 0.4 15.9 3.57
v -0.4 15.9 3.57
v -0.4 14.1 3.67
v 0.4 14.1 3.67
v 0.4 15.9 3.67
v -0.4 15.9 3.67
v -0.4 14.1 -3.67
v 0.4 14.1 -3.67
v 0.4 15.9 -3.67
v -0.4 15.9 -3.67
v -0.4 14.1 -3.57
v 0.4 14.1 -3.57
v 0.4 15.9 -3.57
v -0.4 15.9 -3.57
v 4 16.6 0
v 2.8284 16.6 2.8284
v 0 16.6 4
v -2.8284 16.6 2.8284
v -4 16.6 0
v -2.8284 16.6 -2.8284
v 0 16.6 -4
v 2.8284 16.6 -2.8284
v 3.4 17.6 0
v 2.4042 17.6 2.4042
v 0 17.6 3.4
v -2.4042 17.6 2.4042
v -3.4 17.6 0
v -2.4042 17.6 -2.4042
v 0 17.6 -3.4
v 2.4042 17.6 -2.4042
v 0 16.6 0
v 0 17.6 0
v 3.3 18.6 0
v 2.3335 18.6 2.3335
v 0 18.6 3.3
v -2.3335 18.6 2.3335
v -3.3 18.6 0
v -2.3335 18.6 -2.3335
v 0 18.6 -3.3
v 2.3335 18.6 -2.3335
v 3.3 19.6 0
v 2.3335 19.6 2.3335
v 0 19.6 3.3
v -2.3335 19.6 2.3335
v -3.3 19.6 0
v -2.3335 19.6 -2.3335
v 0 19.6 -3.3
v 2.3335 19.6 -2.3335
v 0 18.6 0
v 0 19.6 0
v -0.35 18.3 3.27
v 0.35 18.3 3.27
v 0.35 19.9 3.27
v -0.35 19.9 3.27
v -0.35 18.3 3.37
v 0.35 18.3 3.37
v 0.35 19.9 3.37
v -0.35 19.9 3.37
v -0.35 18.3 -3.37
v 0.35 18.3 -3.37
v 0.35 19.9 -3.37
v -0.35 19.9 -3.37
v -0.35 18.3 -3.27
v 0.35 18.3 -3.27
v 0.35 19.9 -3.27
v -0.35 19.9 -3.27
v 3.7 20.5 0
v 2.6163 20.5 2.6163
v 0 20.5 3.7
v -2.6163 20.5 2.6163
v -3.7 20.5 0
v -2.6163 20.5 -2.6163
v 0 20.5 -3.7
v 2.6163 20.5 -2.6163
v 3.1 21.5 0
v 2.192 21.5 2.192
v 0 21.5 3.1
v -2.192 21.5 2.192
v -3.1 21.5 0
v -2.192 21.5 -2.192
v 0 21.5 -3.1
v 2.192 21.5 -2.192
v 0 20.5 0
v 0 21.5 0
v 3 22.4 0
v 2.1213 22.4 2.1213
v 0 22.4 3
v -2.1213 22.4 2.1213
v -3 22.4 0
v -2.1213 22.4 -2.1213
v 0 22.4 -3
v 2.1213 22.4 -2.1213
v 3 23.4 0
v 2.1213 23.4 2.1213
v 0 23.4 3
v -2.1213 23.4 2.1213
v -3 23.4 0
v -2.1213 23.4 -2.1213
v 0 23.4 -3
v 2.1213 23.4 -2.1213
v 0 22.4 0
v 0 23.4 0
v -0.35 22.1 2.97
v 0.35 22.1 2.97
v 0.35 23.7 2.97
v -0.35 23.7 2.97
v -0.35 22.1 3.07
v 0.35 22.1 3.07
v 0.35 23.7 3.07
v -0.35 23.7 3.07
v -0.35 22.1 -3.07
v 0.35 22.1 -3.07
v 0.35 23.7 -3.07
v -0.35 23.7 -3.07
v -0.35 22.1 -2.97
v 0.35 22.1 -2.97
v 0.35 23.7 -2.97
v -0.35 23.7 -2.97
v 3.4 24.2 0
v 2.4042 24.2 2.4042
v 0 24.2 3.4
v -2.4042 24.2 2.4042
v -3.4 24.2 0
v -2.4042 24.2 -2.4042
v 0 24.2 -3.4
v 2.4042 24.2 -2.4042
v 2.8 25.2 0
v 1.9799 25.2 1.9799
v 0 25.2 2.8
v -1.9799 25.2 1.9799
v -2.8 25.2 0
v -1.9799 25.2 -1.9799
v 0 25.2 -2.8
v 1.9799 25.2 -1.9799
v 0 24.2 0
v 0 25.2 0
v 2.7 26 0
v 1.9092 26 1.9092
v 0 26 2.7
v -1.9092 26 1.9092
v -2.7 26 0
v -1.9092 26 -1.9092
v 0 26 -2.7
v 1.9092 26 -1.9092
v 2.7 27 0
v 1.9092 27 1.9092
v 0 27 2.7
v -1.9092 27 1.9092
v -2.7 27 0
v -1.9092 27 -1.9092
v 0 27 -2.7
v 1.9092 27 -1.9092
v 0 26 0
v 0 27 0
v -0.3 25.8 2.67
v 0.3 25.8 2.67
v 0.3 27.2 2.67
v -0.3 27.2 2.67
v -0.3 25.8 2.77
v 0.3 25.8 2.77
v 0.3 27.2 2.77
v -0.3 27.2 2.77
v -0.3 25.8 -2.77
v 0.3 25.8 -2.77
v 0.3 27.2 -2.77
v -0.3 27.2 -2.77
v -0.3 25.8 -2.67
v 0.3 25.8 -2.67
v 0.3 27.2 -2.67
v -0.3 27.2 -2.67
v 3.1 27.7 0
v 2.192 27.7 2.192
v 0 27.7 3.1
v -2.192 27.7 2.192
v -3.1 27.7 0
v -2.192 27.7 -2.192
v 0 27.7 -3.1
v 2.192 27.7 -2.192
v 2.5 28.7 0
v 1.7678 28.7 1.7678
v 0 28.7 2.5
v -1.7678 28.7 1.7678
v -2.5 28.7 0
v -1.7678 28.7 -1.7678
v 0 28.7 -2.5
v 1.7678 28.7 -1.7678
v 0 27.7 0
v 0 28.7 0
v 2.4 29.3 0
v 1.6971 29.3 1.6971
v 0 29.3 2.4
v -1.6971 29.3 1.6971
v -2.4 29.3 0
v -1.6971 29.3 -1.6971
v 0 29.3 -2.4
v 1.6971 29.3 -1.6971
v 2.4 30.3 0
v 1.6971 30.3 1.6971
v 0 30.3 2.4
v -1.6971 30.3 1.6971
v -2.4 30.3 0
v -1.6971 30.3 -1.6971
v 0 30.3 -2.4
v 1.6971 30.3 -1.6971
v 0 29.3 0
v 0 30.3 0
v -0.3 29.1 2.37
v 0.3 29.1 2.37
v 0.3 30.5 2.37
v -0.3 30.5 2.37
v -0.3 29.1 2.47
v 0.3 29.1 2.47
v 0.3 30.5 2.47
v -0.3 30.5 2.47
v -0.3 29.1 -2.47
v 0.3 29.1 -2.47
v 0.3 30.5 -2.47
v -0.3 30.5 -2.47
v -0.3 29.1 -2.37
v 0.3 29.1 -2.37
v 0.3 30.5 -2.37
v -0.3 30.5 -2.37
v 2.8 30.9 0
v 1.9799 30.9 1.9799
v 0 30.9 2.8
v -1.9799 30.9 1.9799
v -2.8 30.9 0
v -1.9799 30.9 -1.9799
v 0 30.9 -2.8
v 1.9799 30.9 -1.9799
v 2.2 31.9 0
v 1.5556 31.9 1.5556
v 0 31.9 2.2
v -1.5556 31.9 1.5556
v -2.2 31.9 0
v -1.5556 31.9 -1.5556
v 0 31.9 -2.2
v 1.5556 31.9 -1.5556
v 0 30.9 0
v 0 31.9 0
v 2.1 32.3 0
v 1.4849 32.3 1.4849
v 0 32.3 2.1
v -1.4849 32.3 1.4849
v -2.1 32.3 0
v -1.4849 32.3 -1.4849
v 0 32.3 -2.1
v 1.4849 32.3 -1.4849
v 2.1 33.3 0
v 1.4849 33.3 1.4849
v 0 33.3 2.1
v -1.4849 33.3 1.4849
v -2.1 33.3 0
v -1.4849 33.3 -1.4849
v 0 33.3 -2.1
v 1.4849 33.3 -1.4849
v 0 32.3 0
v 0 33.3 0
v 2.4 33.7 0
v 1.6971 33.7 1.6971
v 0 33.7 2.4
v -1.6971 33.7 1.6971
v -2.4 33.7 0
v -1.6971 33.7 -1.6971
v 0 33.7 -2.4
v 1.6971 33.7 -1.6971
v 1.9 34.7 0
v 1.3435 34.7 1.3435
v 0 34.7 1.9
v -1.3435 34.7 1.3435
v -1.9 34.7 0
v -1.3435 34.7 -1.3435
v 0 34.7 -1.9
v 1.3435 34.7 -1.3435
v 0 33.7 0
v 0 34.7 0
v 1.8 34.7 0
v 1.2728 34.7 1.2728
v 0 34.7 1.8
v -1.2728 34.7 1.2728
v -1.8 34.7 0
v -1.2728 34.7 -1.2728
v 0 34.7 -1.8
v 1.2728 34.7 -1.2728
v 1.2 35.7 0
v 0.8485 35.7 0.8485
v 0 35.7 1.2
v -0.8485 35.7 0.8485
v -1.2 35.7 0
v -0.8485 35.7 -0.8485
v 0 35.7 -1.2
v 0.8485 35.7 -0.8485
v 0 34.7 0
v 0 35.7 0
v 0 37.1 0
v 0 37.1 0
v 0 37.1 0
v 0 37.1 0
v 0 37.1 0
v 0 37.1 0
v 0 37.1 0
v 0 37.1 0
v 0 37.1 0
v 0 37.1 0
v 0 37.1 0
v 0.2146 37.0789 0
v 0.1736 37.0789 0.1261
v 0.0663 37.0789 0.2041
v -0.0663 37.0789 0.2041
v -0.1736 37.0789 0.1261
v -0.2146 37.0789 0
v -0.1736 37.0789 -0.1261
v -0.0663 37.0789 -0.2041
v 0.0663 37.0789 -0.2041
v 0.1736 37.0789 -0.1261
v 0.2146 37.0789 0
v 0.421 37.0163 0
v 0.3406 37.0163 0.2474
v 0.1301 37.0163 0.4003
v -0.1301 37.0163 0.4003
v -0.3406 37.0163 0.2474
v -0.421 37.0163 0
v -0.3406 37.0163 -0.2474
v -0.1301 37.0163 -0.4003
v 0.1301 37.0163 -0.4003
v 0.3406 37.0163 -0.2474
v 0.421 37.0163 0
v 0.6111 36.9146 0
v 0.4944 36.9146 0.3592
v 0.1888 36.9146 0.5812
v -0.1888 36.9146 0.5812
v -0.4944 36.9146 0.3592
v -0.6111 36.9146 0
v -0.4944 36.9146 -0.3592
v -0.1888 36.9146 -0.5812
v 0.1888 36.9146 -0.5812
v 0.4944 36.9146 -0.3592
v 0.6111 36.9146 0
v 0.7778 36.7778 0
v 0.6293 36.7778 0.4572
v 0.2404 36.7778 0.7397
v -0.2404 36.7778 0.7397
v -0.6293 36.7778 0.4572
v -0.7778 36.7778 0
v -0.6293 36.7778 -0.4572
v -0.2404 36.7778 -0.7397
v 0.2404 36.7778 -0.7397
v 0.6293 36.7778 -0.4572
v 0.7778 36.7778 0
v 0.9146 36.6111 0
v 0.7399 36.6111 0.5376
v 0.2826 36.6111 0.8699
v -0.2826 36.6111 0.8699
v -0.7399 36.6111 0.5376
v -0.9146 36.6111 0
v -0.7399 36.6111 -0.5376
v -0.2826 36.6111 -0.8699
v 0.2826 36.6111 -0.8699
v 0.7399 36.6111 -0.5376
v 0.9146 36.6111 0
v 1.0163 36.421 0
v 0.8222 36.421 0.5973
v 0.314 36.421 0.9665
v -0.314 36.421 0.9665
v -0.8222 36.421 0.5973
v -1.0163 36.421 0
v -0.8222 36.421 -0.5973
v -0.314 36.421 -0.9665
v 0.314 36.421 -0.9665
v 0.8222 36.421 -0.5973
v 1.0163 36.421 0
v 1.0789 36.2146 0
v 0.8728 36.2146 0.6341
v 0.3334 36.2146 1.0261
v -0.3334 36.2146 1.0261
v -0.8728 36.2146 0.6341
v -1.0789 36.2146 0
v -0.8728 36.2146 -0.6341
v -0.3334 36.2146 -1.0261
v 0.3334 36.2146 -1.0261
v 0.8728 36.2146 -0.6341
v 1.0789 36.2146 0
v 1.1 36 0
v 0.8899 36 0.6466
v 0.3399 36 1.0462
v -0.3399 36 1.0462
v -0.8899 36 0.6466
v -1.1 36 0
v -0.8899 36 -0.6466
v -0.3399 36 -1.0462
v 0.3399 36 -1.0462
v 0.8899 36 -0.6466
v 1.1 36 0
v 0 36 0
v 0.2 36.5 0
v 0.1414 36.5 0.1414
v 0 36.5 0.2
v -0.1414 36.5 0.1414
v -0.2 36.5 0
v -0.1414 36.5 -0.1414
v 0 36.5 -0.2
v 0.1414 36.5 -0.1414
v 0.2 37.5 0
v 0.1414 37.5 0.1414
v 0 37.5 0.2
v -0.1414 37.5 0.1414
v -0.2 37.5 0
v -0.1414 37.5 -0.1414
v 0 37.5 -0.2
v 0.1414 37.5 -0.1414
v 0 36.5 0
v 0 37.5 0
v 0 38.2 0
v 0 38.2 0
v 0 38.2 0
v 0 38.2 0
v 0 38.2 0
v 0 38.2 0
v 0 38.2 0
v 0 38.2 0
v 0 38.2 0
v 0 38.2 0
v 0 38.2 0
v 0.1531 38.1696 0
v 0.1238 38.1696 0.09
v 0.0473 38.1696 0.1456
v -0.0473 38.1696 0.1456
v -0.1238 38.1696 0.09
v -0.1531 38.1696 0
v -0.1238 38.1696 -0.09
v -0.0473 38.1696 -0.1456
v 0.0473 38.1696 -0.1456
v 0.1238 38.1696 -0.09
v 0.1531 38.1696 0
v 0.2828 38.0828 0
v 0.2288 38.0828 0.1663
v 0.0874 38.0828 0.269
v -0.0874 38.0828 0.269
v -0.2288 38.0828 0.1663
v -0.2828 38.0828 0
v -0.2288 38.0828 -0.1663
v -0.0874 38.0828 -0.269
v 0.0874 38.0828 -0.269
v 0.2288 38.0828 -0.1663
v 0.2828 38.0828 0
v 0.3696 37.9531 0
v 0.299 37.9531 0.2172
v 0.1142 37.9531 0.3515
v -0.1142 37.9531 0.3515
v -0.299 37.9531 0.2172
v -0.3696 37.9531 0
v -0.299 37.9531 -0.2172
v -0.1142 37.9531 -0.3515
v 0.1142 37.9531 -0.3515
v 0.299 37.9531 -0.2172
v 0.3696 37.9531 0
v 0.4 37.8 0
v 0.3236 37.8 0.2351
v 0.1236 37.8 0.3804
v -0.1236 37.8 0.3804
v -0.3236 37.8 0.2351
v -0.4 37.8 0
v -0.3236 37.8 -0.2351
v -0.1236 37.8 -0.3804
v 0.1236 37.8 -0.3804
v 0.3236 37.8 -0.2351
v 0.4 37.8 0
v 0.3696 37.6469 0
v 0.299 37.6469 0.2172
v 0.1142 37.6469 0.3515
v -0.1142 37.6469 0.3515
v -0.299 37.6469 0.2172
v -0.3696 37.6469 0
v -0.299 37.6469 -0.2172
v -0.1142 37.6469 -0.3515
v 0.1142 37.6469 -0.3515
v 0.299 37.6469 -0.2172
v 0.3696 37.6469 0
v 0.2828 37.5172 0
v 0.2288 37.5172 0.1663
v 0.0874 37.5172 0.269
v -0.0874 37.5172 0.269
v -0.2288 37.5172 0.1663
v -0.2828 37.5172 0
v -0.2288 37.5172 -0.1663
v -0.0874 37.5172 -0.269
v 0.0874 37.5172 -0.269
v 0.2288 37.5172 -0.1663
v 0.2828 37.5172 0
v 0.1531 37.4304 0
v 0.1238 37.4304 0.09
v 0.0473 37.4304 0.1456
v -0.0473 37.4304 0.1456
v -0.1238 37.4304 0.09
v -0.1531 37.4304 0
v -0.1238 37.4304 -0.09
v -0.0473 37.4304 -0.1456
v 0.0473 37.4304 -0.1456
v 0.1238 37.4304 -0.09
v 0.1531 37.4304 0
v 0 37.4 0
v 0 37.4 0
v 0 37.4 0
v 0 37.4 0
v 0 37.4 0
v 0 37.4 0
v 0 37.4 0
v 0 37.4 0
v 0 37.4 0
v 0 37.4 0
v 0 37.4 0
v 0.15 37.9 0
v 0.1061 37.9 0.1061
v 0 37.9 0.15
v -0.1061 37.9 0.1061
v -0.15 37.9 0
v -0.1061 37.9 -0.1061
v 0 37.9 -0.15
v 0.1061 37.9 -0.1061
v 0.001 38.9 0
v 0.0007 38.9 0.0007
v 0 38.9 0.001
v -0.0007 38.9 0.0007
v -0.001 38.9 0
v -0.0007 38.9 -0.0007
v 0 38.9 -0.001
v 0.0007 38.9 -0.0007
v 0 37.9 0
v 0 38.9 0
vt 0 0
vt 0.125 0
vt 0.25 0
vt 0.375 0
vt 0.5 0
vt 0.625 0
vt 0.75 0
vt 0.875 0
vt 0 1
vt 0.125 1
vt 0.25 1
vt 0.375 1
vt 0.5 1
vt 0.625 1
vt 0.75 1
vt 0.875 1
vt 0.5 0.5
vt 0.5 0.5
vt 0 0
vt 0.125 0
vt 0.25 0
vt 0.375 0
vt 0.5 0
vt 0.625 0
vt 0.75 0
vt 0.875 0
vt 0 1
vt 0.125 1
vt 0.25 1
vt 0.375 1
vt 0.5 1
vt 0.625 1
vt 0.75 1
vt 0.875 1
vt 0.5 0.5
vt 0.5 0.5
vt 0 0
vt 0.125 0
vt 0.25 0
vt 0.375 0
vt 0.5 0
vt 0.625 0
vt 0.75 0
vt 0.875 0
vt 0 1
vt 0.125 1
vt 0.25 1
vt 0.375 1
vt 0.5 1
vt 0.625 1
vt 0.75 1
vt 0.875 1
vt 0.5 0.5
vt 0.5 0.5
vt 0.5 0.5
vt 0.5 0.5
vt 0.5 0.5
vt 0.5 0.5
vt 0.5 0.5
vt 0.5 0.5
vt 0.5 0.5
vt 0.5 0.5
vt 0.5 0.5
vt 0.5 0.5
vt 0.5 0.5
vt 0.5 0.5
vt 0.5 0.5
vt 0.5 0.5
vt 0.5 0.5
vt 0.5 0.5
vt 0 0
vt 0.125 0
vt 0.25 0
vt 0.375 0
vt 0.5 0
vt 0.625 0
vt 0.75 0
vt 0.875 0
vt 0 1
vt 0.125 1
vt 0.25 1
vt 0.375 1
vt 0.5 1
vt 0.625 1
vt 0.75 1
vt 0.875 1
vt 0.5 0.5
vt 0.5 0.5
vt 0 0
vt 0.125 0
vt 0.25 0
vt 0.375 0
vt 0.5 0
vt 0.625 0
vt 0.75 0
vt 0.875 0
vt 0 1
vt 0.125 1
vt 0.25 1
vt 0.375 1
vt 0.5 1
vt 0.625 1
vt 0.75 1
vt 0.875 1
vt 0.5 0.5
vt 0.5 0.5
vt 0.5 0.5
vt 0.5 0.5
vt 0.5 0.5
vt 0.5 0.5
vt 0.5 0.5
vt 0.5 0.5
vt 0.5 0.5
vt 0.5 0.5
vt 0.5 0.5
vt 0.5 0.5
vt 0.5 0.5
vt 0.5 0.5
vt 0.5 0.5
vt 0.5 0.5
vt 0.5 0.5
vt 0.5 0.5
vt 0 0
vt 0.125 0
vt 0.25 0
vt 0.375 0
vt 0.5 0
vt 0.625 0
vt 0.75 0
vt 0.875 0
vt 0 1
vt 0.125 1
vt 0.25 1
vt 0.375 1
vt 0.5 1
vt 0.625 1
vt 0.75 1
vt 0.875 1
vt 0.5 0.5
vt 0.5 0.5
vt 0 0
vt 0.125 0
vt 0.25 0
vt 0.375 0
vt 0.5 0
vt 0.625 0
vt 0.75 0
vt 0.875 0
vt 0 1
vt 0.125 1
vt 0.25 1
vt 0.375 1
vt 0.5 1
vt 0.625 1
vt 0.75 1
vt 0.875 1
vt 0.5 0.5
vt 0.5 0.5
vt 0.5 0.5
vt 0.5 0.5
vt 0.5 0.5
vt 0.5 0.5
vt 0.5 0.5
vt 0.5 0.5
vt 0.5 0.5
vt 0.5 0.5
vt 0.5 0.5
vt 0.5 0.5
vt 0.5 0.5
vt 0.5 0.5
vt 0.5 0.5
vt 0.5 0.5
vt 0.5 0.5
vt 0.5 0.5
vt 0 0
vt 0.125 0
vt 0.25 0
vt 0.375 0
vt 0.5 0
vt 0.625 0
vt 0.75 0
vt 0.875 0
vt 0 1
vt 0.125 1
vt 0.25 1
vt 0.375 1
vt 0.5 1
vt 0.625 1
vt 0.75 1
vt 0.875 1
vt 0.5 0.5
vt 0.5 0.5
vt 0 0
vt 0.125 0
vt 0.25 0
vt 0.375 0
vt 0.5 0
vt 0.625 0
vt 0.75 0
vt 0.875 0
vt 0 1
vt 0.125 1
vt 0.25 1
vt 0.375 1
vt 0.5 1
vt 0.625 1
vt 0.75 1
vt 0.875 1
vt 0.5 0.5
vt 0.5 0.5
vt 0.5 0.5
vt 0.5 0.5
vt 0.5 0.5
vt 0.5 0.5
vt 0.5 0.5
vt 0.5 0.5
vt 0.5 0.5
vt 0.5 0.5
vt 0.5 0.5
vt 0.5 0.5
vt 0.5 0.5
vt 0.5 0.5
vt 0.5 0.5
vt 0.5 0.5
vt 0.5 0.5
vt 0.5 0.5
vt 0 0
vt 0.125 0
vt 0.25 0
vt 0.375 0
vt 0.5 0
vt 0.625 0
vt 0.75 0
vt 0.875 0
vt 0 1
vt 0.125 1
vt 0.25 1
vt 0.375 1
vt 0.5 1
vt 0.625 1
vt 0.75 1
vt 0.875 1
vt 0.5 0.5
vt 0.5 0.5
vt 0 0
vt 0.125 0
vt 0.25 0
vt 0.375 0
vt 0.5 0
vt 0.625 0
vt 0.75 0
vt 0.875 0
vt 0 1
vt 0.125 1
vt 0.25 1
vt 0.375 1
vt 0.5 1
vt 0.625 1
vt 0.75 1
vt 0.875 1
vt 0.5 0.5
vt 0.5 0.5
vt 0.5 0.5
vt 0.5 0.5
vt 0.5 0.5
vt 0.5 0.5
vt 0.5 0.5
vt 0.5 0.5
vt 0.5 0.5
vt 0.5 0.5
vt 0.5 0.5
vt 0.5 0.5
vt 0.5 0.5
vt 0.5 0.5
vt 0.5 0.5
vt 0.5 0.5
vt 0.5 0.5
vt 0.5 0.5
vt 0 0
vt 0.125 0
vt 0.25 0
vt 0.375 0
vt 0.5 0
vt 0.625 0
vt 0.75 0
vt 0.875 0
vt 0 1
vt 0.125 1
vt 0.25 1
vt 0.375 1
vt 0.5 1
vt 0.625 1
vt 0.75 1
vt 0.875 1
vt 0.5 0.5
vt 0.5 0.5
vt 0 0
vt 0.125 0
vt 0.25 0
vt 0.375 0
vt 0.5 0
vt 0.625 0
vt 0.75 0
vt 0.875 0
vt 0 1
vt 0.125 1
vt 0.25 1
vt 0.375 1
vt 0.5 1
vt 0.625 1
vt 0.75 1
vt 0.875 1
vt 0.5 0.5
vt 0.5 0.5
vt 0.5 0.5
vt 0.5 0.5
vt 0.5 0.5
vt 0.5 0.5
vt 0.5 0.5
vt 0.5 0.5
vt 0.5 0.5
vt 0.5 0.5
vt 0.5 0.5
vt 0.5 0.5
vt 0.5 0.5
vt 0.5 0.5
vt 0.5 0.5
vt 0.5 0.5
vt 0.5 0.5
vt 0.5 0.5
vt 0 0
vt 0.125 0
vt 0.25 0
vt 0.375 0
vt 0.5 0
vt 0.625 0
vt 0.75 0
vt 0.875 0
vt 0 1
vt 0.125 1
vt 0.25 1
vt 0.375 1
vt 0.5 1
vt 0.625 1
vt 0.75 1
vt 0.875 1
vt 0.5 0.5
vt 0.5 0.5
vt 0 0
vt 0.125 0
vt 0.25 0
vt 0.375 0
vt 0.5 0
vt 0.625 0
vt 0.75 0
vt 0.875 0
vt 0 1
vt 0.125 1
vt 0.25 1
vt 0.375 1
vt 0.5 1
vt 0.625 1
vt 0.75 1
vt 0.875 1
vt 0.5 0.5
vt 0.5 0.5
vt 0.5 0.5
vt 0.5 0.5
vt 0.5 0.5
vt 0.5 0.5
vt 0.5 0.5
vt 0.5 0.5
vt 0.5 0.5
vt 0.5 0.5
vt 0.5 0.5
vt 0.5 0.5
vt 0.5 0.5
vt 0.5 0.5
vt 0.5 0.5
vt 0.5 0.5
vt 0.5 0.5
vt 0.5 0.5
vt 0 0
vt 0.125 0
vt 0.25 0
vt 0.375 0
vt 0.5 0
vt 0.625 0
vt 0.75 0
vt 0.875 0
vt 0 1
vt 0.125 1
vt 0.25 1
vt 0.375 1
vt 0.5 1
vt 0.625 1
vt 0.75 1
vt 0.875 1
vt 0.5 0.5
vt 0.5 0.5
vt 0 0
vt 0.125 0
vt 0.25 0
vt 0.375 0
vt 0.5 0
vt 0.625 0
vt 0.75 0
vt 0.875 0
vt 0 1
vt 0.125 1
vt 0.25 1
vt 0.375 1
vt 0.5 1
vt 0.625 1
vt 0.75 1
vt 0.875 1
vt 0.5 0.5
vt 0.5 0.5
vt 0 0
vt 0.125 0
vt 0.25 0
vt 0.375 0
vt 0.5 0
vt 0.625 0
vt 0.75 0
vt 0.875 0
vt 0 1
vt 0.125 1
vt 0.25 1
vt 0.375 1
vt 0.5 1
vt 0.625 1
vt 0.75 1
vt 0.875 1
vt 0.5 0.5
vt 0.5 0.5
vt 0 0
vt 0.125 0
vt 0.25 0
vt 0.375 0
vt 0.5 0
vt 0.625 0
vt 0.75 0
vt 0.875 0
vt 0 1
vt 0.125 1
vt 0.25 1
vt 0.375 1
vt 0.5 1
vt 0.625 1
vt 0.75 1
vt 0.875 1
vt 0.5 0.5
vt 0.5 0.5
vt 0 0
vt 0.1 0
vt 0.2 0
vt 0.3 0
vt 0.4 0
vt 0.5 0
vt 0.6 0
vt 0.7 0
vt 0.8 0
vt 0.9 0
vt 1 0
vt 0 0.125
vt 0.1 0.125
vt 0.2 0.125
vt 0.3 0.125
vt 0.4 0.125
vt 0.5 0.125
vt 0.6 0.125
vt 0.7 0.125
vt 0.8 0.125
vt 0.9 0.125
vt 1 0.125
vt 0 0.25
vt 0.1 0.25
vt 0.2 0.25
vt 0.3 0.25
vt 0.4 0.25
vt 0.5 0.25
vt 0.6 0.25
vt 0.7 0.25
vt 0.8 0.25
vt 0.9 0.25
vt 1 0.25
vt 0 0.375
vt 0.1 0.375
vt 0.2 0.375
vt 0.3 0.375
vt 0.4 0.375
vt 0.5 0.375
vt 0.6 0.375
vt 0.7 0.375
vt 0.8 0.375
vt 0.9 0.375
vt 1 0.375
vt 0 0.5
vt 0.1 0.5
vt 0.2 0.5
vt 0.3 0.5
vt 0.4 0.5
vt 0.5 0.5
vt 0.6 0.5
vt 0.7 0.5
vt 0.8 0.5
vt 0.9 0.5
vt 1 0.5
vt 0 0.625
vt 0.1 0.625
vt 0.2 0.625
vt 0.3 0.625
vt 0.4 0.625
vt 0.5 0.625
vt 0.6 0.625
vt 0.7 0.625
vt 0.8 0.625
vt 0.9 0.625
vt 1 0.625
vt 0 0.75
vt 0.1 0.75
vt 0.2 0.75
vt 0.3 0.75
vt 0.4 0.75
vt 0.5 0.75
vt 0.6 0.75
vt 0.7 0.75
vt 0.8 0.75
vt 0.9 0.75
vt 1 0.75
vt 0 0.875
vt 0.1 0.875
vt 0.2 0.875
vt 0.3 0.875
vt 0.4 0.875
vt 0.5 0.875
vt 0.6 0.875
vt 0.7 0.875
vt 0.8 0.875
vt 0.9 0.875
vt 1 0.875
vt 0 1
vt 0.1 1
vt 0.2 1
vt 0.3 1
vt 0.4 1
vt 0.5 1
vt 0.6 1
vt 0.7 1
vt 0.8 1
vt 0.9 1
vt 1 1
vt 0.5 0.5
vt 0 0
vt 0.125 0
vt 0.25 0
vt 0.375 0
vt 0.5 0
vt 0.625 0
vt 0.75 0
vt 0.875 0
vt 0 1
vt 0.125 1
vt 0.25 1
vt 0.375 1
vt 0.5 1
vt 0.625 1
vt 0.75 1
vt 0.875 1
vt 0.5 0.5
vt 0.5 0.5
vt 0 0
vt 0.1 0
vt 0.2 0
vt 0.3 0
vt 0.4 0
vt 0.5 0
vt 0.6 0
vt 0.7 0
vt 0.8 0
vt 0.9 0
vt 1 0
vt 0 0.125
vt 0.1 0.125
vt 0.2 0.125
vt 0.3 0.125
vt 0.4 0.125
vt 0.5 0.125
vt 0.6 0.125
vt 0.7 0.125
vt 0.8 0.125
vt 0.9 0.125
vt 1 0.125
vt 0 0.25
vt 0.1 0.25
vt 0.2 0.25
vt 0.3 0.25
vt 0.4 0.25
vt 0.5 0.25
vt 0.6 0.25
vt 0.7 0.25
vt 0.8 0.25
vt 0.9 0.25
vt 1 0.25
vt 0 0.375
vt 0.1 0.375
vt 0.2 0.375
vt 0.3 0.375
vt 0.4 0.375
vt 0.5 0.375
vt 0.6 0.375
vt 0.7 0.375
vt 0.8 0.375
vt 0.9 0.375
vt 1 0.375
vt 0 0.5
vt 0.1 0.5
vt 0.2 0.5
vt 0.3 0.5
vt 0.4 0.5
vt 0.5 0.5
vt 0.6 0.5
vt 0.7 0.5
vt 0.8 0.5
vt 0.9 0.5
vt 1 0.5
vt 0 0.625
vt 0.1 0.625
vt 0.2 0.625
vt 0.3 0.625
vt 0.4 0.625
vt 0.5 0.625
vt 0.6 0.625
vt 0.7 0.625
vt 0.8 0.625
vt 0.9 0.625
vt 1 0.625
vt 0 0.75
vt 0.1 0.75
vt 0.2 0.75
vt 0.3 0.75
vt 0.4 0.75
vt 0.5 0.75
vt 0.6 0.75
vt 0.7 0.75
vt 0.8 0.75
vt 0.9 0.75
vt 1 0.75
vt 0 0.875
vt 0.1 0.875
vt 0.2 0.875
vt 0.3 0.875
vt 0.4 0.875
vt 0.5 0.875
vt 0.6 0.875
vt 0.7 0.875
vt 0.8 0.875
vt 0.9 0.875
vt 1 0.875
vt 0 1
vt 0.1 1
vt 0.2 1
vt 0.3 1
vt 0.4 1
vt 0.5 1
vt 0.6 1
vt 0.7 1
vt 0.8 1
vt 0.9 1
vt 1 1
vt 0 0
vt 0.125 0
vt 0.25 0
vt 0.375 0
vt 0.5 0
vt 0.625 0
vt 0.75 0
vt 0.875 0
vt 0 1
vt 0.125 1
vt 0.25 1
vt 0.375 1
vt 0.5 1
vt 0.625 1
vt 0.75 1
vt 0.875 1
vt 0.5 0.5
vt 0.5 0.5
vn 0 -1 0
vn 0 -1 0
vn 0 -1 0
vn 0 -1 0
vn 0 -1 0
vn 0 -1 0
vn 0 -1 0
vn 0 -1 0
vn 0 1 0
vn 0 1 0
vn 0 1 0
vn 0 1 0
vn 0 1 0
vn 0 1 0
vn 0 1 0
vn 0 1 0
vn 0 -1 0
vn 0 1 0
vn 0 -1 0
vn 0 -1 0
vn 0 -1 0
vn 0 -1 0
vn 0 -1 0
vn 0 -1 0
vn 0 -1 0
vn 0 -1 0
vn 0 1 0
vn 0 1 0
vn 0 1 0
vn 0 1 0
vn 0 1 0
vn 0 1 0
vn 0 1 0
vn 0 1 0
vn 0 -1 0
vn 0 1 0
vn 0 -1 0
vn 0 -1 0
vn 0 -1 0
vn 0 -1 0
vn 0 -1 0
vn 0 -1 0
vn 0 -1 0
vn 0 -1 0
vn 0 1 0
vn 0 1 0
vn 0 1 0
vn 0 1 0
vn 0 1 0
vn 0 1 0
vn 0 1 0
vn 0 1 0
vn 0 -1 0
vn 0 1 0
vn 0 1 0
vn 0 1 0
vn 0 1 0
vn 0 1 0
vn 0 1 0
vn 0 1 0
vn 0 1 0
vn 0 1 0
vn 0 1 0
vn 0 1 0
vn 0 1 0
vn 0 1 0
vn 0 1 0
vn 0 1 0
vn 0 1 0
vn 0 1 0
vn 0 -1 0
vn 0 -1 0
vn 0 -1 0
vn 0 -1 0
vn 0 -1 0
vn 0 -1 0
vn 0 -1 0
vn 0 -1 0
vn 0 1 0
vn 0 1 0
vn 0 1 0
vn 0 1 0
vn 0 1 0
vn 0 1 0
vn 0 1 0
vn 0 1 0
vn 0 -1 0
vn 0 1 0
vn 0 -1 0
vn 0 -1 0
vn 0 -1 0
vn 0 -1 0
vn 0 -1 0
vn 0 -1 0
vn 0 -1 0
vn 0 -1 0
vn 0 1 0
vn 0 1 0
vn 0 1 0
vn 0 1 0
vn 0 1 0
vn 0 1 0
vn 0 1 0
vn 0 1 0
vn 0 -1 0
vn 0 1 0
vn 0 1 0
vn 0 1 0
vn 0 1 0
vn 0 1 0
vn 0 1 0
vn 0 1 0
vn 0 1 0
vn 0 1 0
vn 0 1 0
vn 0 1 0
vn 0 1 0
vn 0 1 0
vn 0 1 0
vn 0 1 0
vn 0 1 0
vn 0 1 0
vn 0 -1 0
vn 0 -1 0
vn 0 -1 0
vn 0 -1 0
vn 0 -1 0
vn 0 -1 0
vn 0 -1 0
vn 0 -1 0
vn 0 1 0
vn 0 1 0
vn 0 1 0
vn 0 1 0
vn 0 1 0
vn 0 1 0
vn 0 1 0
vn 0 1 0
vn 0 -1 0
vn 0 1 0
vn 0 -1 0
vn 0 -1 0
vn 0 -1 0
vn 0 -1 0
vn 0 -1 0
vn 0 -1 0
vn 0 -1 0
vn 0 -1 0
vn 0 1 0
vn 0 1 0
vn 0 1 0
vn 0 1 0
vn 0 1 0
vn 0 1 0
vn 0 1 0
vn 0 1 0
vn 0 -1 0
vn 0 1 0
vn 0 1 0
vn 0 1 0
vn 0 1 0
vn 0 1 0
vn 0 1 0
vn 0 1 0
vn 0 1 0
vn 0 1 0
vn 0 1 0
vn 0 1 0
vn 0 1 0
vn 0 1 0
vn 0 1 0
vn 0 1 0
vn 0 1 0
vn 0 1 0
vn 0 -1 0
vn 0 -1 0
vn 0 -1 0
vn 0 -1 0
vn 0 -1 0
vn 0 -1 0
vn 0 -1 0
vn 0 -1 0
vn 0 1 0
vn 0 1 0
vn 0 1 0
vn 0 1 0
vn 0 1 0
vn 0 1 0
vn 0 1 0
vn 0 1 0
vn 0 -1 0
vn 0 1 0
vn 0 -1 0
vn 0 -1 0
vn 0 -1 0
vn 0 -1 0
vn 0 -1 0
vn 0 -1 0
vn 0 -1 0
vn 0 -1 0
vn 0 1 0
vn 0 1 0
vn 0 1 0
vn 0 1 0
vn 0 1 0
vn 0 1 0
vn 0 1 0
vn 0 1 0
vn 0 -1 0
vn 0 1 0
vn 0 1 0
vn 0 1 0
vn 0 1 0
vn 0 1 0
vn 0 1 0
vn 0 1 0
vn 0 1 0
vn 0 1 0
vn 0 1 0
vn 0 1 0
vn 0 1 0
vn 0 1 0
vn 0 1 0
vn 0 1 0
vn 0 1 0
vn 0 1 0
vn 0 -1 0
vn 0 -1 0
vn 0 -1 0
vn 0 -1 0
vn 0 -1 0
vn 0 -1 0
vn 0 -1 0
vn 0 -1 0
vn 0 1 0
vn 0 1 0
vn 0 1 0
vn 0 1 0
vn 0 1 0
vn 0 1 0
vn 0 1 0
vn 0 1 0
vn 0 -1 0
vn 0 1 0
vn 0 -1 0
vn 0 -1 0
vn 0 -1 0
vn 0 -1 0
vn 0 -1 0
vn 0 -1 0
vn 0 -1 0
vn 0 -1 0
vn 0 1 0
vn 0 1 0
vn 0 1 0
vn 0 1 0
vn 0 1 0
vn 0 1 0
vn 0 1 0
vn 0 1 0
vn 0 -1 0
vn 0 1 0
vn 0 1 0
vn 0 1 0
vn 0 1 0
vn 0 1 0
vn 0 1 0
vn 0 1 0
vn 0 1 0
vn 0 1 0
vn 0 1 0
vn 0 1 0
vn 0 1 0
vn 0 1 0
vn 0 1 0
vn 0 1 0
vn 0 1 0
vn 0 1 0
vn 0 -1 0
vn 0 -1 0
vn 0 -1 0
vn 0 -1 0
vn 0 -1 0
vn 0 -1 0
vn 0 -1 0
vn 0 -1 0
vn 0 1 0
vn 0 1 0
vn 0 1 0
vn 0 1 0
vn 0 1 0
vn 0 1 0
vn 0 1 0
vn 0 1 0
vn 0 -1 0
vn 0 1 0
vn 0 -1 0
vn 0 -1 0
vn 0 -1 0
vn 0 -1 0
vn 0 -1 0
vn 0 -1 0
vn 0 -1 0
vn 0 -1 0
vn 0 1 0
vn 0 1 0
vn 0 1 0
vn 0 1 0
vn 0 1 0
vn 0 1 0
vn 0 1 0
vn 0 1 0
vn 0 -1 0
vn 0 1 0
vn 0 1 0
vn 0 1 0
vn 0 1 0
vn 0 1 0
vn 0 1 0
vn 0 1 0
vn 0 1 0
vn 0 1 0
vn 0 1 0
vn 0 1 0
vn 0 1 0
vn 0 1 0
vn 0 1 0
vn 0 1 0
vn 0 1 0
vn 0 1 0
vn 0 -1 0
vn 0 -1 0
vn 0 -1 0
vn 0 -1 0
vn 0 -1 0
vn 0 -1 0
vn 0 -1 0
vn 0 -1 0
vn 0 1 0
vn 0 1 0
vn 0 1 0
vn 0 1 0
vn 0 1 0
vn 0 1 0
vn 0 1 0
vn 0 1 0
vn 0 -1 0
vn 0 1 0
vn 0 -1 0
vn 0 -1 0
vn 0 -1 0
vn 0 -1 0
vn 0 -1 0
vn 0 -1 0
vn 0 -1 0
vn 0 -1 0
vn 0 1 0
vn 0 1 0
vn 0 1 0
vn 0 1 0
vn 0 1 0
vn 0 1 0
vn 0 1 0
vn 0 1 0
vn 0 -1 0
vn 0 1 0
vn 0 1 0
vn 0 1 0
vn 0 1 0
vn 0 1 0
vn 0 1 0
vn 0 1 0
vn 0 1 0
vn 0 1 0
vn 0 1 0
vn 0 1 0
vn 0 1 0
vn 0 1 0
vn 0 1 0
vn 0 1 0
vn 0 1 0
vn 0 1 0
vn 0 -1 0
vn 0 -1 0
vn 0 -1 0
vn 0 -1 0
vn 0 -1 0
vn 0 -1 0
vn 0 -1 0
vn 0 -1 0
vn 0 1 0
vn 0 1 0
vn 0 1 0
vn 0 1 0
vn 0 1 0
vn 0 1 0
vn 0 1 0
vn 0 1 0
vn 0 -1 0
vn 0 1 0
vn 0 -1 0
vn 0 -1 0
vn 0 -1 0
vn 0 -1 0
vn 0 -1 0
vn 0 -1 0
vn 0 -1 0
vn 0 -1 0
vn 0 1 0
vn 0 1 0
vn 0 1 0
vn 0 1 0
vn 0 1 0
vn 0 1 0
vn 0 1 0
vn 0 1 0
vn 0 -1 0
vn 0 1 0
vn 0 -1 0
vn 0 -1 0
vn 0 -1 0
vn 0 -1 0
vn 0 -1 0
vn 0 -1 0
vn 0 -1 0
vn 0 -1 0
vn 0 1 0
vn 0 1 0
vn 0 1 0
vn 0 1 0
vn 0 1 0
vn 0 1 0
vn 0 1 0
vn 0 1 0
vn 0 -1 0
vn 0 1 0
vn 0 -1 0
vn 0 -1 0
vn 0 -1 0
vn 0 -1 0
vn 0 -1 0
vn 0 -1 0
vn 0 -1 0
vn 0 -1 0
vn 0 1 0
vn 0 1 0
vn 0 1 0
vn 0 1 0
vn 0 1 0
vn 0 1 0
vn 0 1 0
vn 0 1 0
vn 0 -1 0
vn 0 1 0
vn 0 1 0
vn 0 1 0
vn 0 1 0
vn 0 1 0
vn 0 1 0
vn 0 1 0
vn 0 1 0
vn 0 1 0
vn 0 1 0
vn 0 1 0
vn 0 1 0
vn 0.19509032201612825 0.9807852804032304 0
vn 0.1578313859491287 0.9807852804032304 0.11467121414606979
vn 0.06028622494106459 0.9807852804032304 0.18554192201955863
vn -0.06028622494106457 0.9807852804032304 0.18554192201955866
vn -0.15783138594912868 0.9807852804032304 0.11467121414606979
vn -0.19509032201612825 0.9807852804032304 2.3891673840167787e-17
vn -0.1578313859491287 0.9807852804032304 -0.11467121414606976
vn -0.06028622494106461 0.9807852804032304 -0.18554192201955863
vn 0.060286224941064545 0.9807852804032304 -0.18554192201955866
vn 0.15783138594912868 0.9807852804032304 -0.11467121414606982
vn 0.19509032201612825 0.9807852804032304 -4.7783347680335573e-17
vn 0.3826834323650898 0.9238795325112867 0
vn 0.30959740024909344 0.9238795325112867 0.22493567784086388
vn 0.11825568406654853 0.9238795325112867 0.3639535720290143
vn -0.11825568406654849 0.9238795325112867 0.36395357202901435
vn -0.3095974002490934 0.9238795325112867 0.2249356778408639
vn -0.3826834323650898 0.9238795325112867 4.6865204053262986e-17
vn -0.30959740024909344 0.9238795325112867 -0.22493567784086382
vn -0.11825568406654856 0.9238795325112867 -0.3639535720290143
vn 0.11825568406654843 0.9238795325112867 -0.36395357202901435
vn 0.3095974002490934 0.9238795325112867 -0.22493567784086396
vn 0.3826834323650898 0.9238795325112867 -9.373040810652597e-17
vn 0.5555702330196022 0.8314696123025452 0
vn 0.44946576008170774 0.8314696123025452 0.32655598958161497
vn 0.17168064357190665 0.8314696123025452 0.5283786903729095
vn -0.1716806435719066 0.8314696123025452 0.5283786903729096
vn -0.4494657600817077 0.8314696123025452 0.326555989581615
vn -0.5555702330196022 0.8314696123025452 6.80377307569005e-17
vn -0.44946576008170774 0.8314696123025452 -0.3265559895816149
vn -0.1716806435719067 0.8314696123025452 -0.5283786903729095
vn 0.17168064357190652 0.8314696123025452 -0.5283786903729096
vn 0.4494657600817077 0.8314696123025452 -0.3265559895816151
vn 0.5555702330196022 0.8314696123025452 -1.36075461513801e-16
vn 0.7071067811865475 0.7071067811865476 0
vn 0.5720614028176843 0.7071067811865476 0.4156269377774534
vn 0.21850801222441055 0.7071067811865476 0.6724985119639573
vn -0.21850801222441046 0.7071067811865476 0.6724985119639573
vn -0.5720614028176841 0.7071067811865476 0.41562693777745346
vn -0.7071067811865475 0.7071067811865476 8.659560562354932e-17
vn -0.5720614028176843 0.7071067811865476 -0.4156269377774533
vn -0.2185080122244106 0.7071067811865476 -0.6724985119639573
vn 0.21850801222441038 0.7071067811865476 -0.6724985119639573
vn 0.5720614028176841 0.7071067811865476 -0.4156269377774536
vn 0.7071067811865475 0.7071067811865476 -1.7319121124709863e-16
vn 0.8314696123025452 0.5555702330196023 0
vn 0.672673046659108 0.5555702330196023 0.4887255758407764
vn 0.25693824050783537 0.5555702330196023 0.7907745928817406
vn -0.25693824050783526 0.5555702330196023 0.7907745928817407
vn -0.6726730466591079 0.5555702330196023 0.48872557584077647
vn -0.8314696123025452 0.5555702330196023 1.0182565992946029e-16
vn -0.672673046659108 0.5555702330196023 -0.4887255758407763
vn -0.2569382405078354 0.5555702330196023 -0.7907745928817406
vn 0.25693824050783515 0.5555702330196023 -0.7907745928817407
vn 0.6726730466591079 0.5555702330196023 -0.4887255758407766
vn 0.8314696123025452 0.5555702330196023 -2.0365131985892058e-16
vn 0.9238795325112867 0.38268343236508984 0
vn 0.7474342425568128 0.38268343236508984 0.5430427641049989
vn 0.28549447630116936 0.38268343236508984 0.8786616496665794
vn -0.28549447630116925 0.38268343236508984 0.8786616496665796
vn -0.7474342425568127 0.38268343236508984 0.543042764104999
vn -0.9238795325112867 0.38268343236508984 1.1314261122877003e-16
vn -0.7474342425568128 0.38268343236508984 -0.5430427641049987
vn -0.2854944763011695 0.38268343236508984 -0.8786616496665794
vn 0.28549447630116914 0.38268343236508984 -0.8786616496665796
vn 0.7474342425568127 0.38268343236508984 -0.543042764104999
vn 0.9238795325112867 0.38268343236508984 -2.2628522245754005e-16
vn 0.9807852804032304 0.19509032201612833 0
vn 0.7934719596790115 0.19509032201612833 0.5764911234865568
vn 0.3030793194773963 0.19509032201612833 0.9327822320138617
vn -0.3030793194773962 0.19509032201612833 0.9327822320138619
vn -0.7934719596790114 0.19509032201612833 0.576491123486557
vn -0.9807852804032304 0.19509032201612833 1.2011155542966555e-16
vn -0.7934719596790115 0.19509032201612833 -0.5764911234865567
vn -0.3030793194773964 0.19509032201612833 -0.9327822320138617
vn 0.3030793194773961 0.19509032201612833 -0.9327822320138619
vn 0.7934719596790114 0.19509032201612833 -0.5764911234865571
vn 0.9807852804032304 0.19509032201612833 -2.402231108593311e-16
vn 1 6.123233995736766e-17 0
vn 0.8090169943749475 6.123233995736766e-17 0.5877852522924731
vn 0.30901699437494745 6.123233995736766e-17 0.9510565162951534
vn -0.30901699437494734 6.123233995736766e-17 0.9510565162951536
vn -0.8090169943749473 6.123233995736766e-17 0.5877852522924732
vn -1 6.123233995736766e-17 1.2246467991473532e-16
vn -0.8090169943749475 6.123233995736766e-17 -0.587785252292473
vn -0.30901699437494756 6.123233995736766e-17 -0.9510565162951534
vn 0.30901699437494723 6.123233995736766e-17 -0.9510565162951536
vn 0.8090169943749473 6.123233995736766e-17 -0.5877852522924734
vn 1 6.123233995736766e-17 -2.4492935982947064e-16
vn 0 -1 0
vn 0 -1 0
vn 0 -1 0
vn 0 -1 0
vn 0 -1 0
vn 0 -1 0
vn 0 -1 0
vn 0 -1 0
vn 0 -1 0
vn 0 1 0
vn 0 1 0
vn 0 1 0
vn 0 1 0
vn 0 1 0
vn 0 1 0
vn 0 1 0
vn 0 1 0
vn 0 -1 0
vn 0 1 0
vn 0 1 0
vn 0 1 0
vn 0 1 0
vn 0 1 0
vn 0 1 0
vn 0 1 0
vn 0 1 0
vn 0 1 0
vn 0 1 0
vn 0 1 0
vn 0 1 0
vn 0.3826834323650898 0.9238795325112867 0
vn 0.30959740024909344 0.9238795325112867 0.22493567784086388
vn 0.11825568406654853 0.9238795325112867 0.36395357202901424
vn -0.1182556840665485 0.9238795325112867 0.36395357202901435
vn -0.3095974002490934 0.9238795325112867 0.2249356778408639
vn -0.3826834323650898 0.9238795325112867 4.6865204053262986e-17
vn -0.30959740024909344 0.9238795325112867 -0.22493567784086385
vn -0.11825568406654857 0.9238795325112867 -0.36395357202901424
vn 0.11825568406654845 0.9238795325112867 -0.36395357202901435
vn 0.3095974002490934 0.9238795325112867 -0.224935677840864
vn 0.3826834323650898 0.9238795325112867 -9.373040810652597e-17
vn 0.7071067811865475 0.7071067811865476 0
vn 0.5720614028176843 0.7071067811865476 0.4156269377774534
vn 0.21850801222441055 0.7071067811865476 0.6724985119639573
vn -0.21850801222441046 0.7071067811865476 0.6724985119639573
vn -0.5720614028176841 0.7071067811865476 0.4156269377774535
vn -0.7071067811865475 0.7071067811865476 8.659560562354932e-17
vn -0.5720614028176843 0.7071067811865476 -0.4156269377774533
vn -0.2185080122244106 0.7071067811865476 -0.6724985119639573
vn 0.2185080122244104 0.7071067811865476 -0.6724985119639573
vn 0.5720614028176841 0.7071067811865476 -0.4156269377774536
vn 0.7071067811865475 0.7071067811865476 -1.7319121124709863e-16
vn 0.9238795325112867 0.3826834323650899 0
vn 0.7474342425568128 0.3826834323650899 0.5430427641049989
vn 0.28549447630116936 0.3826834323650899 0.8786616496665794
vn -0.28549447630116925 0.3826834323650899 0.8786616496665796
vn -0.7474342425568127 0.3826834323650899 0.543042764104999
vn -0.9238795325112867 0.3826834323650899 1.1314261122877003e-16
vn -0.7474342425568128 0.3826834323650899 -0.5430427641049987
vn -0.2854944763011695 0.3826834323650899 -0.8786616496665794
vn 0.28549447630116914 0.3826834323650899 -0.8786616496665796
vn 0.7474342425568127 0.3826834323650899 -0.543042764104999
vn 0.9238795325112867 0.3826834323650899 -2.2628522245754005e-16
vn 1 6.123233995736766e-17 0
vn 0.8090169943749476 6.123233995736766e-17 0.5877852522924731
vn 0.30901699437494745 6.123233995736766e-17 0.9510565162951535
vn -0.30901699437494734 6.123233995736766e-17 0.9510565162951536
vn -0.8090169943749473 6.123233995736766e-17 0.5877852522924732
vn -1 6.123233995736766e-17 1.2246467991473532e-16
vn -0.8090169943749476 6.123233995736766e-17 -0.587785252292473
vn -0.30901699437494756 6.123233995736766e-17 -0.9510565162951535
vn 0.30901699437494723 6.123233995736766e-17 -0.9510565162951536
vn 0.8090169943749473 6.123233995736766e-17 -0.5877852522924734
vn 1 6.123233995736766e-17 -2.4492935982947064e-16
vn 0.9238795325112867 -0.3826834323650897 0
vn 0.7474342425568128 -0.3826834323650897 0.5430427641049989
vn 0.28549447630116936 -0.3826834323650897 0.8786616496665794
vn -0.28549447630116925 -0.3826834323650897 0.8786616496665796
vn -0.7474342425568127 -0.3826834323650897 0.543042764104999
vn -0.9238795325112867 -0.3826834323650897 1.1314261122877003e-16
vn -0.7474342425568128 -0.3826834323650897 -0.5430427641049987
vn -0.2854944763011695 -0.3826834323650897 -0.8786616496665794
vn 0.28549447630116914 -0.3826834323650897 -0.8786616496665796
vn 0.7474342425568127 -0.3826834323650897 -0.543042764104999
vn 0.9238795325112867 -0.3826834323650897 -2.2628522245754005e-16
vn 0.7071067811865476 -0.7071067811865475 0
vn 0.5720614028176844 -0.7071067811865475 0.4156269377774535
vn 0.21850801222441057 -0.7071067811865475 0.6724985119639574
vn -0.2185080122244105 -0.7071067811865475 0.6724985119639574
vn -0.5720614028176843 -0.7071067811865475 0.4156269377774535
vn -0.7071067811865476 -0.7071067811865475 8.659560562354935e-17
vn -0.5720614028176844 -0.7071067811865475 -0.4156269377774534
vn -0.21850801222441069 -0.7071067811865475 -0.6724985119639574
vn 0.2185080122244104 -0.7071067811865475 -0.6724985119639574
vn 0.5720614028176843 -0.7071067811865475 -0.41562693777745363
vn 0.7071067811865476 -0.7071067811865475 -1.731912112470987e-16
vn 0.3826834323650899 -0.9238795325112867 0
vn 0.3095974002490935 -0.9238795325112867 0.22493567784086393
vn 0.11825568406654857 -0.9238795325112867 0.3639535720290144
vn -0.11825568406654853 -0.9238795325112867 0.36395357202901446
vn -0.3095974002490935 -0.9238795325112867 0.224935677840864
vn -0.3826834323650899 -0.9238795325112867 4.6865204053263e-17
vn -0.3095974002490935 -0.9238795325112867 -0.2249356778408639
vn -0.11825568406654861 -0.9238795325112867 -0.3639535720290144
vn 0.1182556840665485 -0.9238795325112867 -0.36395357202901446
vn 0.3095974002490935 -0.9238795325112867 -0.22493567784086402
vn 0.3826834323650899 -0.9238795325112867 -9.3730408106526e-17
vn 1.2246467991473532e-16 -1 0
vn 9.907600726170916e-17 -1 7.198293278059965e-17
vn 3.78436673043415e-17 -1 1.1647083184890923e-16
vn -3.7843667304341493e-17 -1 1.1647083184890926e-16
vn -9.907600726170916e-17 -1 7.198293278059968e-17
vn -1.2246467991473532e-16 -1 1.4997597826618576e-32
vn -9.907600726170916e-17 -1 -7.198293278059965e-17
vn -3.784366730434152e-17 -1 -1.1647083184890923e-16
vn 3.784366730434147e-17 -1 -1.1647083184890926e-16
vn 9.907600726170916e-17 -1 -7.19829327805997e-17
vn 1.2246467991473532e-16 -1 -2.999519565323715e-32
vn 0 -1 0
vn 0 -1 0
vn 0 -1 0
vn 0 -1 0
vn 0 -1 0
vn 0 -1 0
vn 0 -1 0
vn 0 -1 0
vn 0 1 0
vn 0 1 0
vn 0 1 0
vn 0 1 0
vn 0 1 0
vn 0 1 0
vn 0 1 0
vn 0 1 0
vn 0 -1 0
vn 0 1 0
f 1/1/1 2/2/2 10/10/10
f 1/1/1 10/10/10 9/9/9
f 17/17/17 2/2/2 1/1/1
f 18/18/18 9/9/9 10/10/10
f 2/2/2 3/3/3 11/11/11
f 2/2/2 11/11/11 10/10/10
f 17/17/17 3/3/3 2/2/2
f 18/18/18 10/10/10 11/11/11
f 3/3/3 4/4/4 12/12/12
f 3/3/3 12/12/12 11/11/11
f 17/17/17 4/4/4 3/3/3
f 18/18/18 11/11/11 12/12/12
f 4/4/4 5/5/5 13/13/13
f 4/4/4 13/13/13 12/12/12
f 17/17/17 5/5/5 4/4/4
f 18/18/18 12/12/12 13/13/13
f 5/5/5 6/6/6 14/14/14
f 5/5/5 14/14/14 13/13/13
f 17/17/17 6/6/6 5/5/5
f 18/18/18 13/13/13 14/14/14
f 6/6/6 7/7/7 15/15/15
f 6/6/6 15/15/15 14/14/14
f 17/17/17 7/7/7 6/6/6
f 18/18/18 14/14/14 15/15/15
f 7/7/7 8/8/8 16/16/16
f 7/7/7 16/16/16 15/15/15
f 17/17/17 8/8/8 7/7/7
f 18/18/18 15/15/15 16/16/16
f 8/8/8 1/1/1 9/9/9
f 8/8/8 9/9/9 16/16/16
f 17/17/17 1/1/1 8/8/8
f 18/18/18 16/16/16 9/9/9
f 19/19/19 20/20/20 28/28/28
f 19/19/19 28/28/28 27/27/27
f 35/35/35 20/20/20 19/19/19
f 36/36/36 27/27/27 28/28/28
f 20/20/20 21/21/21 29/29/29
f 20/20/20 29/29/29 28/28/28
f 35/35/35 21/21/21 20/20/20
f 36/36/36 28/28/28 29/29/29
f 21/21/21 22/22/22 30/30/30
f 21/21/21 30/30/30 29/29/29
f 35/35/35 22/22/22 21/21/21
f 36/36/36 29/29/29 30/30/30
f 22/22/22 23/23/23 31/31/31
f 22/22/22 31/31/31 30/30/30
f 35/35/35 23/23/23 22/22/22
f 36/36/36 30/30/30 31/31/31
f 23/23/23 24/24/24 32/32/32
f 23/23/23 32/32/32 31/31/31
f 35/35/35 24/24/24 23/23/23
f 36/36/36 31/31/31 32/32/32
f 24/24/24 25/25/25 33/33/33
f 24/24/24 33/33/33 32/32/32
f 35/35/35 25/25/25 24/24/24
f 36/36/36 32/32/32 33/33/33
f 25/25/25 26/26/26 34/34/34
f 25/25/25 34/34/34 33/33/33
f 35/35/35 26/26/26 25/25/25
f 36/36/36 33/33/33 34/34/34
f 26/26/26 19/19/19 27/27/27
f 26/26/26 27/27/27 34/34/34
f 35/35/35 19/19/19 26/26/26
f 36/36/36 34/34/34 27/27/27
f 37/37/37 38/38/38 46/46/46
f 37/37/37 46/46/46 45/45/45
f 53/53/53 38/38/38 37/37/37
f 54/54/54 45/45/45 46/46/46
f 38/38/38 39/39/39 47/47/47
f 38/38/38 47/47/47 46/46/46
f 53/53/53 39/39/39 38/38/38
f 54/54/54 46/46/46 47/47/47
f 39/39/39 40/40/40 48/48/48
f 39/39/39 48/48/48 47/47/47
f 53/53/53 40/40/40 39/39/39
f 54/54/54 47/47/47 48/48/48
f 40/40/40 41/41/41 49/49/49
f 40/40/40 49/49/49 48/48/48
f 53/53/53 41/41/41 40/40/40
f 54/54/54 48/48/48 49/49/49
f 41/41/41 42/42/42 50/50/50
f 41/41/41 50/50/50 49/49/49
f 53/53/53 42/42/42 41/41/41
f 54/54/54 49/49/49 50/50/50
f 42/42/42 43/43/43 51/51/51
f 42/42/42 51/51/51 50/50/50
f 53/53/53 43/43/43 42/42/42
f 54/54/54 50/50/50 51/51/51
f 43/43/43 44/44/44 52/52/52
f 43/43/43 52/52/52 51/51/51
f 53/53/53 44/44/44 43/43/43
f 54/54/54 51/51/51 52/52/52
f 44/44/44 37/37/37 45/45/45
f 44/44/44 45/45/45 52/52/52
f 53/53/53 37/37/37 44/44/44
f 54/54/54 52/52/52 45/45/45
f 55/55/55 57/57/57 56/56/56
f 55/55/55 58/58/58 57/57/57
f 59/59/59 60/60/60 61/61/61
f 59/59/59 61/61/61 62/62/62
f 55/55/55 56/56/56 60/60/60
f 55/55/55 60/60/60 59/59/59
f 57/57/57 58/58/58 62/62/62
f 57/57/57 62/62/62 61/61/61
f 55/55/55 59/59/59 62/62/62
f 55/55/55 62/62/62 58/58/58
f 56/56/56 57/57/57 61/61/61
f 56/56/56 61/61/61 60/60/60
f 63/63/63 65/65/65 64/64/64
f 63/63/63 66/66/66 65/65/65
f 67/67/67 68/68/68 69/69/69
f 67/67/67 69/69/69 70/70/70
f 63/63/63 64/64/64 68/68/68
f 63/63/63 68/68/68 67/67/67
f 65/65/65 66/66/66 70/70/70
f 65/65/65 70/70/70 69/69/69
f 63/63/63 67/67/67 70/70/70
f 63/63/63 70/70/70 66/66/66
f 64/64/64 65/65/65 69/69/69
f 64/64/64 69/69/69 68/68/68
f 71/71/71 72/72/72 80/80/80
f 71/71/71 80/80/80 79/79/79
f 87/87/87 72/72/72 71/71/71
f 88/88/88 79/79/79 80/80/80
f 72/72/72 73/73/73 81/81/81
f 72/72/72 81/81/81 80/80/80
f 87/87/87 73/73/73 72/72/72
f 88/88/88 80/80/80 81/81/81
f 73/73/73 74/74/74 82/82/82
f 73/73/73 82/82/82 81/81/81
f 87/87/87 74/74/74 73/73/73
f 88/88/88 81/81/81 82/82/82
f 74/74/74 75/75/75 83/83/83
f 74/74/74 83/83/83 82/82/82
f 87/87/87 75/75/75 74/74/74
f 88/88/88 82/82/82 83/83/83
f 75/75/75 76/76/76 84/84/84
f 75/75/75 84/84/84 83/83/83
f 87/87/87 76/76/76 75/75/75
f 88/88/88 83/83/83 84/84/84
f 76/76/76 77/77/77 85/85/85
f 76/76/76 85/85/85 84/84/84
f 87/87/87 77/77/77 76/76/76
f 88/88/88 84/84/84 85/85/85
f 77/77/77 78/78/78 86/86/86
f 77/77/77 86/86/86 85/85/85
f 87/87/87 78/78/78 77/77/77
f 88/88/88 85/85/85 86/86/86
f 78/78/78 71/71/71 79/79/79
f 78/78/78 79/79/79 86/86/86
f 87/87/87 71/71/71 78/78/78
f 88/88/88 86/86/86 79/79/79
f 89/89/89 90/90/90 98/98/98
f 89/89/89 98/98/98 97/97/97
f 105/105/105 90/90/90 89/89/89
f 106/106/106 97/97/97 98/98/98
f 90/90/90 91/91/91 99/99/99
f 90/90/90 99/99/99 98/98/98
f 105/105/105 91/91/91 90/90/90
f 106/106/106 98/98/98 99/99/99
f 91/91/91 92/92/92 100/100/100
f 91/91/91 100/100/100 99/99/99
f 105/105/105 92/92/92 91/91/91
f 106/106/106 99/99/99 100/100/100
f 92/92/92 93/93/93 101/101/101
f 92/92/92 101/101/101 100/100/100
f 105/105/105 93/93/93 92/92/92
f 106/106/106 100/100/100 101/101/101
f 93/93/93 94/94/94 102/102/102
f 93/93/93 102/102/102 101/101/101
f 105/105/105 94/94/94 93/93/93
f 106/106/106 101/101/101 102/102/102
f 94/94/94 95/95/95 103/103/103
f 94/94/94 103/103/103 102/102/102
f 105/105/105 95/95/95 94/94/94
f 106/106/106 102/102/102 103/103/103
f 95/95/95 96/96/96 104/104/104
f 95/95/95 104/104/104 103/103/103
f 105/105/105 96/96/96 95/95/95
f 106/106/106 103/103/103 104/104/104
f 96/96/96 89/89/89 97/97/97
f 96/96/96 97/97/97 104/104/104
f 105/105/105 89/89/89 96/96/96
f 106/106/106 104/104/104 97/97/97
f 107/107/107 109/109/109 108/108/108
f 107/107/107 110/110/110 109/109/109
f 111/111/111 112/112/112 113/113/113
f 111/111/111 113/113/113 114/114/114
f 107/107/107 108/108/108 112/112/112
f 107/107/107 112/112/112 111/111/111
f 109/109/109 110/110/110 114/114/114
f 109/109/109 114/114/114 113/113/113
f 107/107/107 111/111/111 114/114/114
f 107/107/107 114/114/114 110/110/110
f 108/108/108 109/109/109 113/113/113
f 108/108/108 113/113/113 112/112/112
f 115/115/115 117/117/117 116/116/116
f 115/115/115 118/118/118 117/117/117
f 119/119/119 120/120/120 121/121/121
f 119/119/119 121/121/121 122/122/122
f 115/115/115 116/116/116 120/120/120
f 115/115/115 120/120/120 119/119/119
f 117/117/117 118/118/118 122/122/122
f 117/117/117 122/122/122 121/121/121
f 115/115/115 119/119/119 122/122/122
f 115/115/115 122/122/122 118/118/118
f 116/116/116 117/117/117 121/121/121
f 116/116/116 121/121/121 120/120/120
f 123/123/123 124/124/124 132/132/132
f 123/123/123 132/132/132 131/131/131
f 139/139/139 124/124/124 123/123/123
f 140/140/140 131/131/131 132/132/132
f 124/124/124 125/125/125 133/133/133
f 124/124/124 133/133/133 132/132/132
f 139/139/139 125/125/125 124/124/124
f 140/140/140 132/132/132 133/133/133
f 125/125/125 126/126/126 134/134/134
f 125/125/125 134/134/134 133/133/133
f 139/139/139 126/126/126 125/125/125
f 140/140/140 133/133/133 134/134/134
f 126/126/126 127/127/127 135/135/135
f 126/126/126 135/135/135 134/134/134
f 139/139/139 127/127/127 126/126/126
f 140/140/140 134/134/134 135/135/135
f 127/127/127 128/128/128 136/136/136
f 127/127/127 136/136/136 135/135/135
f 139/139/139 128/128/128 127/127/127
f 140/140/140 135/135/135 136/136/136
f 128/128/128 129/129/129 137/137/137
f 128/128/128 137/137/137 136/136/136
f 139/139/139 129/129/129 128/128/128
f 140/140/140 136/136/136 137/137/137
f 129/129/129 130/130/130 138/138/138
f 129/129/129 138/138/138 137/137/137
f 139/139/139 130/130/130 129/129/129
f 140/140/140 137/137/137 138/138/138
f 130/130/130 123/123/123 131/131/131
f 130/130/130 131/131/131 138/138/138
f 139/139/139 123/123/123 130/130/130
f 140/140/140 138/138/138 131/131/131
f 141/141/141 142/142/142 150/150/150
f 141/141/141 150/150/150 149/149/149
f 157/157/157 142/142/142 141/141/141
f 158/158/158 149/149/149 150/150/150
f 142/142/142 143/143/143 151/151/151
f 142/142/142 151/151/151 150/150/150
f 157/157/157 143/143/143 142/142/142
f 158/158/158 150/150/150 151/151/151
f 143/143/143 144/144/144 152/152/152
f 143/143/143 152/152/152 151/151/151
f 157/157/157 144/144/144 143/143/143
f 158/158/158 151/151/151 152/152/152
f 144/144/144 145/145/145 153/153/153
f 144/144/144 153/153/153 152/152/152
f 157/157/157 145/145/145 144/144/144
f 158/158/158 152/152/152 153/153/153
f 145/145/145 146/146/146 154/154/154
f 145/145/145 154/154/154 153/153/153
f 157/157/157 146/146/146 145/145/145
f 158/158/158 153/153/153 154/154/154
f 146/146/146 147/147/147 155/155/155
f 146/146/146 155/155/155 154/154/154
f 157/157/157 147/147/147 146/146/146
f 158/158/158 154/154/154 155/155/155
f 147/147/147 148/148/148 156/156/156
f 147/147/147 156/156/156 155/155/155
f 157/157/157 148/148/148 147/147/147
f 158/158/158 155/155/155 156/156/156
f 148/148/148 141/141/141 149/149/149
f 148/148/148 149/149/149 156/156/156
f 157/157/157 141/141/141 148/148/148
f 158/158/158 156/156/156 149/149/149
f 159/159/159 161/161/161 160/160/160
f 159/159/159 162/162/162 161/161/161
f 163/163/163 164/164/164 165/165/165
f 163/163/163 165/165/165 166/166/166
f 159/159/159 160/160/160 164/164/164
f 159/159/159 164/164/164 163/163/163
f 161/161/161 162/162/162 166/166/166
f 161/161/161 166/166/166 165/165/165
f 159/159/159 163/163/163 166/166/166
f 159/159/159 166/166/166 162/162/162
f 160/160/160 161/161/161 165/165/165
f 160/160/160 165/165/165 164/164/164
f 167/167/167 169/169/169 168/168/168
f 167/167/167 170/170/170 169/169/169
f 171/171/171 172/172/172 173/173/173
f 171/171/171 173/173/173 174/174/174
f 167/167/167 168/168/168 172/172/172
f 167/167/167 172/172/172 171/171/171
f 169/169/169 170/170/170 174/174/174
f 169/169/169 174/174/174 173/173/173
f 167/167/167 171/171/171 174/174/174
f 167/167/167 174/174/174 170/170/170
f 168/168/168 169/169/169 173/173/173
f 168/168/168 173/173/173 172/172/172
f 175/175/175 176/176/176 184/184/184
f 175/175/175 184/184/184 183/183/183
f 191/191/191 176/176/176 175/175/175
f 192/192/192 183/183/183 184/184/184
f 176/176/176 177/177/177 185/185/185
f 176/176/176 185/185/185 184/184/184
f 191/191/191 177/177/177 176/176/176
f 192/192/192 184/184/184 185/185/185
f 177/177/177 178/178/178 186/186/186
f 177/177/177 186/186/186 185/185/185
f 191/191/191 178/178/178 177/177/177
f 192/192/192 185/185/185 186/186/186
f 178/178/178 179/179/179 187/187/187
f 178/178/178 187/187/187 186/186/186
f 191/191/191 179/179/179 178/178/178
f 192/192/192 186/186/186 187/187/187
f 179/179/179 180/180/180 188/188/188
f 179/179/179 188/188/188 187/187/187
f 191/191/191 180/180/180 179/179/179
f 192/192/192 187/187/187 188/188/188
f 180/180/180 181/181/181 189/189/189
f 180/180/180 189/189/189 188/188/188
f 191/191/191 181/181/181 180/180/180
f 192/192/192 188/188/188 189/189/189
f 181/181/181 182/182/182 190/190/190
f 181/181/181 190/190/190 189/189/189
f 191/191/191 182/182/182 181/181/181
f 192/192/192 189/189/189 190/190/190
f 182/182/182 175/175/175 183/183/183
f 182/182/182 183/183/183 190/190/190
f 191/191/191 175/175/175 182/182/182
f 192/192/192 190/190/190 183/183/183
f 193/193/193 194/194/194 202/202/202
f 193/193/193 202/202/202 201/201/201
f 209/209/209 194/194/194 193/193/193
f 210/210/210 201/201/201 202/202/202
f 194/194/194 195/195/195 203/203/203
f 194/194/194 203/203/203 202/202/202
f 209/209/209 195/195/195 194/194/194
f 210/210/210 202/202/202 203/203/203
f 195/195/195 196/196/196 204/204/204
f 195/195/195 204/204/204 203/203/203
f 209/209/209 196/196/196 195/195/195
f 210/210/210 203/203/203 204/204/204
f 196/196/196 197/197/197 205/205/205
f 196/196/196 205/205/205 204/204/204
f 209/209/209 197/197/197 196/196/196
f 210/210/210 204/204/204 205/205/205
f 197/197/197 198/198/198 206/206/206
f 197/197/197 206/206/206 205/205/205
f 209/209/209 198/198/198 197/197/197
f 210/210/210 205/205/205 206/206/206
f 198/198/198 199/199/199 207/207/207
f 198/198/198 207/207/207 206/206/206
f 209/209/209 199/199/199 198/198/198
f 210/210/210 206/206/206 207/207/207
f 199/199/199 200/200/200 208/208/208
f 199/199/199 208/208/208 207/207/207
f 209/209/209 200/200/200 199/199/199
f 210/210/210 207/207/207 208/208/208
f 200/200/200 193/193/193 201/201/201
f 200/200/200 201/201/201 208/208/208
f 209/209/209 193/193/193 200/200/200
f 210/210/210 208/208/208 201/201/201
f 211/211/211 213/213/213 212/212/212
f 211/211/211 214/214/214 213/213/213
f 215/215/215 216/216/216 217/217/217
f 215/215/215 217/217/217 218/218/218
f 211/211/211 212/212/212 216/216/216
f 211/211/211 216/216/216 215/215/215
f 213/213/213 214/214/214 218/218/218
f 213/213/213 218/218/218 217/217/217
f 211/211/211 215/215/215 218/218/218
f 211/211/211 218/218/218 214/214/214
f 212/212/212 213/213/213 217/217/217
f 212/212/212 217/217/217 216/216/216
f 219/219/219 221/221/221 220/220/220
f 219/219/219 222/222/222 221/221/221
f 223/223/223 224/224/224 225/225/225
f 223/223/223 225/225/225 226/226/226
f 219/219/219 220/220/220 224/224/224
f 219/219/219 224/224/224 223/223/223
f 221/221/221 222/222/222 226/226/226
f 221/221/221 226/226/226 225/225/225
f 219/219/219 223/223/223 226/226/226
f 219/219/219 226/226/226 222/222/222
f 220/220/220 221/221/221 225/225/225
f 220/220/220 225/225/225 224/224/224
f 227/227/227 228/228/228 236/236/236
f 227/227/227 236/236/236 235/235/235
f 243/243/243 228/228/228 227/227/227
f 244/244/244 235/235/235 236/236/236
f 228/228/228 229/229/229 237/237/237
f 228/228/228 237/237/237 236/236/236
f 243/243/243 229/229/229 228/228/228
f 244/244/244 236/236/236 237/237/237
f 229/229/229 230/230/230 238/238/238
f 229/229/229 238/238/238 237/237/237
f 243/243/243 230/230/230 229/229/229
f 244/244/244 237/237/237 238/238/238
f 230/230/230 231/231/231 239/239/239
f 230/230/230 239/239/239 238/238/238
f 243/243/243 231/231/231 230/230/230
f 244/244/244 238/238/238 239/239/239
f 231/231/231 232/232/232 240/240/240
f 231/231/231 240/240/240 239/239/239
f 243/243/243 232/232/232 231/231/231
f 244/244/244 239/239/239 240/240/240
f 232/232/232 233/233/233 241/241/241
f 232/232/232 241/241/241 240/240/240
f 243/243/243 233/233/233 232/232/232
f 244/244/244 240/240/240 241/241/241
f 233/233/233 234/234/234 242/242/242
f 233/233/233 242/242/242 241/241/241
f 243/243/243 234/234/234 233/233/233
f 244/244/244 241/241/241 242/242/242
f 234/234/234 227/227/227 235/235/235
f 234/234/234 235/235/235 242/242/242
f 243/243/243 227/227/227 234/234/234
f 244/244/244 242/242/242 235/235/235
f 245/245/245 246/246/246 254/254/254
f 245/245/245 254/254/254 253/253/253
f 261/261/261 246/246/246 245/245/245
f 262/262/262 253/253/253 254/254/254
f 246/246/246 247/247/247 255/255/255
f 246/246/246 255/255/255 254/254/254
f 261/261/261 247/247/247 246/246/246
f 262/262/262 254/254/254 255/255/255
f 247/247/247 248/248/248 256/256/256
f 247/247/247 256/256/256 255/255/255
f 261/261/261 248/248/248 247/247/247
f 262/262/262 255/255/255 256/256/256
f 248/248/248 249/249/249 257/257/257
f 248/248/248 257/257/257 256/256/256
f 261/261/261 249/249/249 248/248/248
f 262/262/262 256/256/256 257/257/257
f 249/249/249 250/250/250 258/258/258
f 249/249/249 258/258/258 257/257/257
f 261/261/261 250/250/250 249/249/249
f 262/262/262 257/257/257 258/258/258
f 250/250/250 251/251/251 259/259/259
f 250/250/250 259/259/259 258/258/258
f 261/261/261 251/251/251 250/250/250
f 262/262/262 258/258/258 259/259/259
f 251/251/251 252/252/252 260/260/260
f 251/251/251 260/260/260 259/259/259
f 261/261/261 252/252/252 251/251/251
f 262/262/262 259/259/259 260/260/260
f 252/252/252 245/245/245 253/253/253
f 252/252/252 253/253/253 260/260/260
f 261/261/261 245/245/245 252/252/252
f 262/262/262 260/260/260 253/253/253
f 263/263/263 265/265/265 264/264/264
f 263/263/263 266/266/266 265/265/265
f 267/267/267 268/268/268 269/269/269
f 267/267/267 269/269/269 270/270/270
f 263/263/263 264/264/264 268/268/268
f 263/263/263 268/268/268 267/267/267
f 265/265/265 266/266/266 270/270/270
f 265/265/265 270/270/270 269/269/269
f 263/263/263 267/267/267 270/270/270
f 263/263/263 270/270/270 266/266/266
f 264/264/264 265/265/265 269/269/269
f 264/264/264 269/269/269 268/268/268
f 271/271/271 273/273/273 272/272/272
f 271/271/271 274/274/274 273/273/273
f 275/275/275 276/276/276 277/277/277
f 275/275/275 277/277/277 278/278/278
f 271/271/271 272/272/272 276/276/276
f 271/271/271 276/276/276 275/275/275
f 273/273/273 274/274/274 278/278/278
f 273/273/273 278/278/278 277/277/277
f 271/271/271 275/275/275 278/278/278
f 271/271/271 278/278/278 274/274/274
f 272/272/272 273/273/273 277/277/277
f 272/272/272 277/277/277 276/276/276
f 279/279/279 280/280/280 288/288/288
f 279/279/279 288/288/288 287/287/287
f 295/295/295 280/280/280 279/279/279
f 296/296/296 287/287/287 288/288/288
f 280/280/280 281/281/281 289/289/289
f 280/280/280 289/289/289 288/288/288
f 295/295/295 281/281/281 280/280/280
f 296/296/296 288/288/288 289/289/289
f 281/281/281 282/282/282 290/290/290
f 281/281/281 290/290/290 289/289/289
f 295/295/295 282/282/282 281/281/281
f 296/296/296 289/289/289 290/290/290
f 282/282/282 283/283/283 291/291/291
f 282/282/282 291/291/291 290/290/290
f 295/295/295 283/283/283 282/282/282
f 296/296/296 290/290/290 291/291/291
f 283/283/283 284/284/284 292/292/292
f 283/283/283 292/292/292 291/291/291
f 295/295/295 284/284/284 283/283/283
f 296/296/296 291/291/291 292/292/292
f 284/284/284 285/285/285 293/293/293
f 284/284/284 293/293/293 292/292/292
f 295/295/295 285/285/285 284/284/284
f 296/296/296 292/292/292 293/293/293
f 285/285/285 286/286/286 294/294/294
f 285/285/285 294/294/294 293/293/293
f 295/295/295 286/286/286 285/285/285
f 296/296/296 293/293/293 294/294/294
f 286/286/286 279/279/279 287/287/287
f 286/286/286 287/287/287 294/294/294
f 295/295/295 279/279/279 286/286/286
f 296/296/296 294/294/294 287/287/287
f 297/297/297 298/298/298 306/306/306
f 297/297/297 306/306/306 305/305/305
f 313/313/313 298/298/298 297/297/297
f 314/314/314 305/305/305 306/306/306
f 298/298/298 299/299/299 307/307/307
f 298/298/298 307/307/307 306/306/306
f 313/313/313 299/299/299 298/298/298
f 314/314/314 306/306/306 307/307/307
f 299/299/299 300/300/300 308/308/308
f 299/299/299 308/308/308 307/307/307
f 313/313/313 300/300/300 299/299/299
f 314/314/314 307/307/307 308/308/308
f 300/300/300 301/301/301 309/309/309
f 300/300/300 309/309/309 308/308/308
f 313/313/313 301/301/301 300/300/300
f 314/314/314 308/308/308 309/309/309
f 301/301/301 302/302/302 310/310/310
f 301/301/301 310/310/310 309/309/309
f 313/313/313 302/302/302 301/301/301
f 314/314/314 309/309/309 310/310/310
f 302/302/302 303/303/303 311/311/311
f 302/302/302 311/311/311 310/310/310
f 313/313/313 303/303/303 302/302/302
f 314/314/314 310/310/310 311/311/311
f 303/303/303 304/304/304 312/312/312
f 303/303/303 312/312/312 311/311/311
f 313/313/313 304/304/304 303/303/303
f 314/314/314 311/311/311 312/312/312
f 304/304/304 297/297/297 305/305/305
f 304/304/304 305/305/305 312/312/312
f 313/313/313 297/297/297 304/304/304
f 314/314/314 312/312/312 305/305/305
f 315/315/315 317/317/317 316/316/316
f 315/315/315 318/318/318 317/317/317
f 319/319/319 320/320/320 321/321/321
f 319/319/319 321/321/321 322/322/322
f 315/315/315 316/316/316 320/320/320
f 315/315/315 320/320/320 319/319/319
f 317/317/317 318/318/318 322/322/322
f 317/317/317 322/322/322 321/321/321
f 315/315/315 319/319/319 322/322/322
f 315/315/315 322/322/322 318/318/318
f 316/316/316 317/317/317 321/321/321
f 316/316/316 321/321/321 320/320/320
f 323/323/323 325/325/325 324/324/324
f 323/323/323 326/326/326 325/325/325
f 327/327/327 328/328/328 329/329/329
f 327/327/327 329/329/329 330/330/330
f 323/323/323 324/324/324 328/328/328
f 323/323/323 328/328/328 327/327/327
f 325/325/325 326/326/326 330/330/330
f 325/325/325 330/330/330 329/329/329
f 323/323/323 327/327/327 330/330/330
f 323/323/323 330/330/330 326/326/326
f 324/324/324 325/325/325 329/329/329
f 324/324/324 329/329/329 328/328/328
f 331/331/331 332/332/332 340/340/340
f 331/331/331 340/340/340 339/339/339
f 347/347/347 332/332/332 331/331/331
f 348/348/348 339/339/339 340/340/340
f 332/332/332 333/333/333 341/341/341
f 332/332/332 341/341/341 340/340/340
f 347/347/347 333/333/333 332/332/332
f 348/348/348 340/340/340 341/341/341
f 333/333/333 334/334/334 342/342/342
f 333/333/333 342/342/342 341/341/341
f 347/347/347 334/334/334 333/333/333
f 348/348/348 341/341/341 342/342/342
f 334/334/334 335/335/335 343/343/343
f 334/334/334 343/343/343 342/342/342
f 347/347/347 335/335/335 334/334/334
f 348/348/348 342/342/342 343/343/343
f 335/335/335 336/336/336 344/344/344
f 335/335/335 344/344/344 343/343/343
f 347/347/347 336/336/336 335/335/335
f 348/348/348 343/343/343 344/344/344
f 336/336/336 337/337/337 345/345/345
f 336/336/336 345/345/345 344/344/344
f 347/347/347 337/337/337 336/336/336
f 348/348/348 344/344/344 345/345/345
f 337/337/337 338/338/338 346/346/346
f 337/337/337 346/346/346 345/345/345
f 347/347/347 338/338/338 337/337/337
f 348/348/348 345/345/345 346/346/346
f 338/338/338 331/331/331 339/339/339
f 338/338/338 339/339/339 346/346/346
f 347/347/347 331/331/331 338/338/338
f 348/348/348 346/346/346 339/339/339
f 349/349/349 350/350/350 358/358/358
f 349/349/349 358/358/358 357/357/357
f 365/365/365 350/350/350 349/349/349
f 366/366/366 357/357/357 358/358/358
f 350/350/350 351/351/351 359/359/359
f 350/350/350 359/359/359 358/358/358
f 365/365/365 351/351/351 350/350/350
f 366/366/366 358/358/358 359/359/359
f 351/351/351 352/352/352 360/360/360
f 351/351/351 360/360/360 359/359/359
f 365/365/365 352/352/352 351/351/351
f 366/366/366 359/359/359 360/360/360
f 352/352/352 353/353/353 361/361/361
f 352/352/352 361/361/361 360/360/360
f 365/365/365 353/353/353 352/352/352
f 366/366/366 360/360/360 361/361/361
f 353/353/353 354/354/354 362/362/362
f 353/353/353 362/362/362 361/361/361
f 365/365/365 354/354/354 353/353/353
f 366/366/366 361/361/361 362/362/362
f 354/354/354 355/355/355 363/363/363
f 354/354/354 363/363/363 362/362/362
f 365/365/365 355/355/355 354/354/354
f 366/366/366 362/362/362 363/363/363
f 355/355/355 356/356/356 364/364/364
f 355/355/355 364/364/364 363/363/363
f 365/365/365 356/356/356 355/355/355
f 366/366/366 363/363/363 364/364/364
f 356/356/356 349/349/349 357/357/357
f 356/356/356 357/357/357 364/364/364
f 365/365/365 349/349/349 356/356/356
f 366/366/366 364/364/364 357/357/357
f 367/367/367 369/369/369 368/368/368
f 367/367/367 370/370/370 369/369/369
f 371/371/371 372/372/372 373/373/373
f 371/371/371 373/373/373 374/374/374
f 367/367/367 368/368/368 372/372/372
f 367/367/367 372/372/372 371/371/371
f 369/369/369 370/370/370 374/374/374
f 369/369/369 374/374/374 373/373/373
f 367/367/367 371/371/371 374/374/374
f 367/367/367 374/374/374 370/370/370
f 368/368/368 369/369/369 373/373/373
f 368/368/368 373/373/373 372/372/372
f 375/375/375 377/377/377 376/376/376
f 375/375/375 378/378/378 377/377/377
f 379/379/379 380/380/380 381/381/381
f 379/379/379 381/381/381 382/382/382
f 375/375/375 376/376/376 380/380/380
f 375/375/375 380/380/380 379/379/379
f 377/377/377 378/378/378 382/382/382
f 377/377/377 382/382/382 381/381/381
f 375/375/375 379/379/379 382/382/382
f 375/375/375 382/382/382 378/378/378
f 376/376/376 377/377/377 381/381/381
f 376/376/376 381/381/381 380/380/380
f 383/383/383 384/384/384 392/392/392
f 383/383/383 392/392/392 391/391/391
f 399/399/399 384/384/384 383/383/383
f 400/400/400 391/391/391 392/392/392
f 384/384/384 385/385/385 393/393/393
f 384/384/384 393/393/393 392/392/392
f 399/399/399 385/385/385 384/384/384
f 400/400/400 392/392/392 393/393/393
f 385/385/385 386/386/386 394/394/394
f 385/385/385 394/394/394 393/393/393
f 399/399/399 386/386/386 385/385/385
f 400/400/400 393/393/393 394/394/394
f 386/386/386 387/387/387 395/395/395
f 386/386/386 395/395/395 394/394/394
f 399/399/399 387/387/387 386/386/386
f 400/400/400 394/394/394 395/395/395
f 387/387/387 388/388/388 396/396/396
f 387/387/387 396/396/396 395/395/395
f 399/399/399 388/388/388 387/387/387
f 400/400/400 395/395/395 396/396/396
f 388/388/388 389/389/389 397/397/397
f 388/388/388 397/397/397 396/396/396
f 399/399/399 389/389/389 388/388/388
f 400/400/400 396/396/396 397/397/397
f 389/389/389 390/390/390 398/398/398
f 389/389/389 398/398/398 397/397/397
f 399/399/399 390/390/390 389/389/389
f 400/400/400 397/397/397 398/398/398
f 390/390/390 383/383/383 391/391/391
f 390/390/390 391/391/391 398/398/398
f 399/399/399 383/383/383 390/390/390
f 400/400/400 398/398/398 391/391/391
f 401/401/401 402/402/402 410/410/410
f 401/401/401 410/410/410 409/409/409
f 417/417/417 402/402/402 401/401/401
f 418/418/418 409/409/409 410/410/410
f 402/402/402 403/403/403 411/411/411
f 402/402/402 411/411/411 410/410/410
f 417/417/417 403/403/403 402/402/402
f 418/418/418 410/410/410 411/411/411
f 403/403/403 404/404/404 412/412/412
f 403/403/403 412/412/412 411/411/411
f 417/417/417 404/404/404 403/403/403
f 418/418/418 411/411/411 412/412/412
f 404/404/404 405/405/405 413/413/413
f 404/404/404 413/413/413 412/412/412
f 417/417/417 405/405/405 404/404/404
f 418/418/418 412/412/412 413/413/413
f 405/405/405 406/406/406 414/414/414
f 405/405/405 414/414/414 413/413/413
f 417/417/417 406/406/406 405/405/405
f 418/418/418 413/413/413 414/414/414
f 406/406/406 407/407/407 415/415/415
f 406/406/406 415/415/415 414/414/414
f 417/417/417 407/407/407 406/406/406
f 418/418/418 414/414/414 415/415/415
f 407/407/407 408/408/408 416/416/416
f 407/407/407 416/416/416 415/415/415
f 417/417/417 408/408/408 407/407/407
f 418/418/418 415/415/415 416/416/416
f 408/408/408 401/401/401 409/409/409
f 408/408/408 409/409/409 416/416/416
f 417/417/417 401/401/401 408/408/408
f 418/418/418 416/416/416 409/409/409
f 419/419/419 420/420/420 428/428/428
f 419/419/419 428/428/428 427/427/427
f 435/435/435 420/420/420 419/419/419
f 436/436/436 427/427/427 428/428/428
f 420/420/420 421/421/421 429/429/429
f 420/420/420 429/429/429 428/428/428
f 435/435/435 421/421/421 420/420/420
f 436/436/436 428/428/428 429/429/429
f 421/421/421 422/422/422 430/430/430
f 421/421/421 430/430/430 429/429/429
f 435/435/435 422/422/422 421/421/421
f 436/436/436 429/429/429 430/430/430
f 422/422/422 423/423/423 431/431/431
f 422/422/422 431/431/431 430/430/430
f 435/435/435 423/423/423 422/422/422
f 436/436/436 430/430/430 431/431/431
f 423/423/423 424/424/424 432/432/432
f 423/423/423 432/432/432 431/431/431
f 435/435/435 424/424/424 423/423/423
f 436/436/436 431/431/431 432/432/432
f 424/424/424 425/425/425 433/433/433
f 424/424/424 433/433/433 432/432/432
f 435/435/435 425/425/425 424/424/424
f 436/436/436 432/432/432 433/433/433
f 425/425/425 426/426/426 434/434/434
f 425/425/425 434/434/434 433/433/433
f 435/435/435 426/426/426 425/425/425
f 436/436/436 433/433/433 434/434/434
f 426/426/426 419/419/419 427/427/427
f 426/426/426 427/427/427 434/434/434
f 435/435/435 419/419/419 426/426/426
f 436/436/436 434/434/434 427/427/427
f 437/437/437 438/438/438 446/446/446
f 437/437/437 446/446/446 445/445/445
f 453/453/453 438/438/438 437/437/437
f 454/454/454 445/445/445 446/446/446
f 438/438/438 439/439/439 447/447/447
f 438/438/438 447/447/447 446/446/446
f 453/453/453 439/439/439 438/438/438
f 454/454/454 446/446/446 447/447/447
f 439/439/439 440/440/440 448/448/448
f 439/439/439 448/448/448 447/447/447
f 453/453/453 440/440/440 439/439/439
f 454/454/454 447/447/447 448/448/448
f 440/440/440 441/441/441 449/449/449
f 440/440/440 449/449/449 448/448/448
f 453/453/453 441/441/441 440/440/440
f 454/454/454 448/448/448 449/449/449
f 441/441/441 442/442/442 450/450/450
f 441/441/441 450/450/450 449/449/449
f 453/453/453 442/442/442 441/441/441
f 454/454/454 449/449/449 450/450/450
f 442/442/442 443/443/443 451/451/451
f 442/442/442 451/451/451 450/450/450
f 453/453/453 443/443/443 442/442/442
f 454/454/454 450/450/450 451/451/451
f 443/443/443 444/444/444 452/452/452
f 443/443/443 452/452/452 451/451/451
f 453/453/453 444/444/444 443/443/443
f 454/454/454 451/451/451 452/452/452
f 444/444/444 437/437/437 445/445/445
f 444/444/444 445/445/445 452/452/452
f 453/453/453 437/437/437 444/444/444
f 454/454/454 452/452/452 445/445/445
f 455/455/455 466/466/466 467/467/467
f 455/455/455 467/467/467 456/456/456
f 456/456/456 467/467/467 468/468/468
f 456/456/456 468/468/468 457/457/457
f 457/457/457 468/468/468 469/469/469
f 457/457/457 469/469/469 458/458/458
f 458/458/458 469/469/469 470/470/470
f 458/458/458 470/470/470 459/459/459
f 459/459/459 470/470/470 471/471/471
f 459/459/459 471/471/471 460/460/460
f 460/460/460 471/471/471 472/472/472
f 460/460/460 472/472/472 461/461/461
f 461/461/461 472/472/472 473/473/473
f 461/461/461 473/473/473 462/462/462
f 462/462/462 473/473/473 474/474/474
f 462/462/462 474/474/474 463/463/463
f 463/463/463 474/474/474 475/475/475
f 463/463/463 475/475/475 464/464/464
f 464/464/464 475/475/475 476/476/476
f 464/464/464 476/476/476 465/465/465
f 466/466/466 477/477/477 478/478/478
f 466/466/466 478/478/478 467/467/467
f 467/467/467 478/478/478 479/479/479
f 467/467/467 479/479/479 468/468/468
f 468/468/468 479/479/479 480/480/480
f 468/468/468 480/480/480 469/469/469
f 469/469/469 480/480/480 481/481/481
f 469/469/469 481/481/481 470/470/470
f 470/470/470 481/481/481 482/482/482
f 470/470/470 482/482/482 471/471/471
f 471/471/471 482/482/482 483/483/483
f 471/471/471 483/483/483 472/472/472
f 472/472/472 483/483/483 484/484/484
f 472/472/472 484/484/484 473/473/473
f 473/473/473 484/484/484 485/485/485
f 473/473/473 485/485/485 474/474/474
f 474/474/474 485/485/485 486/486/486
f 474/474/474 486/486/486 475/475/475
f 475/475/475 486/486/486 487/487/487
f 475/475/475 487/487/487 476/476/476
f 477/477/477 488/488/488 489/489/489
f 477/477/477 489/489/489 478/478/478
f 478/478/478 489/489/489 490/490/490
f 478/478/478 490/490/490 479/479/479
f 479/479/479 490/490/490 491/491/491
f 479/479/479 491/491/491 480/480/480
f 480/480/480 491/491/491 492/492/492
f 480/480/480 492/492/492 481/481/481
f 481/481/481 492/492/492 493/493/493
f 481/481/481 493/493/493 482/482/482
f 482/482/482 493/493/493 494/494/494
f 482/482/482 494/494/494 483/483/483
f 483/483/483 494/494/494 495/495/495
f 483/483/483 495/495/495 484/484/484
f 484/484/484 495/495/495 496/496/496
f 484/484/484 496/496/496 485/485/485
f 485/485/485 496/496/496 497/497/497
f 485/485/485 497/497/497 486/486/486
f 486/486/486 497/497/497 498/498/498
f 486/486/486 498/498/498 487/487/487
f 488/488/488 499/499/499 500/500/500
f 488/488/488 500/500/500 489/489/489
f 489/489/489 500/500/500 501/501/501
f 489/489/489 501/501/501 490/490/490
f 490/490/490 501/501/501 502/502/502
f 490/490/490 502/502/502 491/491/491
f 491/491/491 502/502/502 503/503/503
f 491/491/491 503/503/503 492/492/492
f 492/492/492 503/503/503 504/504/504
f 492/492/492 504/504/504 493/493/493
f 493/493/493 504/504/504 505/505/505
f 493/493/493 505/505/505 494/494/494
f 494/494/494 505/505/505 506/506/506
f 494/494/494 506/506/506 495/495/495
f 495/495/495 506/506/506 507/507/507
f 495/495/495 507/507/507 496/496/496
f 496/496/496 507/507/507 508/508/508
f 496/496/496 508/508/508 497/497/497
f 497/497/497 508/508/508 509/509/509
f 497/497/497 509/509/509 498/498/498
f 499/499/499 510/510/510 511/511/511
f 499/499/499 511/511/511 500/500/500
f 500/500/500 511/511/511 512/512/512
f 500/500/500 512/512/512 501/501/501
f 501/501/501 512/512/512 513/513/513
f 501/501/501 513/513/513 502/502/502
f 502/502/502 513/513/513 514/514/514
f 502/502/502 514/514/514 503/503/503
f 503/503/503 514/514/514 515/515/515
f 503/503/503 515/515/515 504/504/504
f 504/504/504 515/515/515 516/516/516
f 504/504/504 516/516/516 505/505/505
f 505/505/505 516/516/516 517/517/517
f 505/505/505 517/517/517 506/506/506
f 506/506/506 517/517/517 518/518/518
f 506/506/506 518/518/518 507/507/507
f 507/507/507 518/518/518 519/519/519
f 507/507/507 519/519/519 508/508/508
f 508/508/508 519/519/519 520/520/520
f 508/508/508 520/520/520 509/509/509
f 510/510/510 521/521/521 522/522/522
f 510/510/510 522/522/522 511/511/511
f 511/511/511 522/522/522 523/523/523
f 511/511/511 523/523/523 512/512/512
f 512/512/512 523/523/523 524/524/524
f 512/512/512 524/524/524 513/513/513
f 513/513/513 524/524/524 525/525/525
f 513/513/513 525/525/525 514/514/514
f 514/514/514 525/525/525 526/526/526
f 514/514/514 526/526/526 515/515/515
f 515/515/515 526/526/526 527/527/527
f 515/515/515 527/527/527 516/516/516
f 516/516/516 527/527/527 528/528/528
f 516/516/516 528/528/528 517/517/517
f 517/517/517 528/528/528 529/529/529
f 517/517/517 529/529/529 518/518/518
f 518/518/518 529/529/529 530/530/530
f 518/518/518 530/530/530 519/519/519
f 519/519/519 530/530/530 531/531/531
f 519/519/519 531/531/531 520/520/520
f 521/521/521 532/532/532 533/533/533
f 521/521/521 533/533/533 522/522/522
f 522/522/522 533/533/533 534/534/534
f 522/522/522 534/534/534 523/523/523
f 523/523/523 534/534/534 535/535/535
f 523/523/523 535/535/535 524/524/524
f 524/524/524 535/535/535 536/536/536
f 524/524/524 536/536/536 525/525/525
f 525/525/525 536/536/536 537/537/537
f 525/525/525 537/537/537 526/526/526
f 526/526/526 537/537/537 538/538/538
f 526/526/526 538/538/538 527/527/527
f 527/527/527 538/538/538 539/539/539
f 527/527/527 539/539/539 528/528/528
f 528/528/528 539/539/539 540/540/540
f 528/528/528 540/540/540 529/529/529
f 529/529/529 540/540/540 541/541/541
f 529/529/529 541/541/541 530/530/530
f 530/530/530 541/541/541 542/542/542
f 530/530/530 542/542/542 531/531/531
f 532/532/532 543/543/543 544/544/544
f 532/532/532 544/544/544 533/533/533
f 533/533/533 544/544/544 545/545/545
f 533/533/533 545/545/545 534/534/534
f 534/534/534 545/545/545 546/546/546
f 534/534/534 546/546/546 535/535/535
f 535/535/535 546/546/546 547/547/547
f 535/535/535 547/547/547 536/536/536
f 536/536/536 547/547/547 548/548/548
f 536/536/536 548/548/548 537/537/537
f 537/537/537 548/548/548 549/549/549
f 537/537/537 549/549/549 538/538/538
f 538/538/538 549/549/549 550/550/550
f 538/538/538 550/550/550 539/539/539
f 539/539/539 550/550/550 551/551/551
f 539/539/539 551/551/551 540/540/540
f 540/540/540 551/551/551 552/552/552
f 540/540/540 552/552/552 541/541/541
f 541/541/541 552/552/552 553/553/553
f 541/541/541 553/553/553 542/542/542
f 554/554/554 543/543/543 544/544/544
f 554/554/554 544/544/544 545/545/545
f 554/554/554 545/545/545 546/546/546
f 554/554/554 546/546/546 547/547/547
f 554/554/554 547/547/547 548/548/548
f 554/554/554 548/548/548 549/549/549
f 554/554/554 549/549/549 550/550/550
f 554/554/554 550/550/550 551/551/551
f 554/554/554 551/551/551 552/552/552
f 554/554/554 552/552/552 553/553/553
f 555/555/555 556/556/556 564/564/564
f 555/555/555 564/564/564 563/563/563
f 571/571/571 556/556/556 555/555/555
f 572/572/572 563/563/563 564/564/564
f 556/556/556 557/557/557 565/565/565
f 556/556/556 565/565/565 564/564/564
f 571/571/571 557/557/557 556/556/556
f 572/572/572 564/564/564 565/565/565
f 557/557/557 558/558/558 566/566/566
f 557/557/557 566/566/566 565/565/565
f 571/571/571 558/558/558 557/557/557
f 572/572/572 565/565/565 566/566/566
f 558/558/558 559/559/559 567/567/567
f 558/558/558 567/567/567 566/566/566
f 571/571/571 559/559/559 558/558/558
f 572/572/572 566/566/566 567/567/567
f 559/559/559 560/560/560 568/568/568
f 559/559/559 568/568/568 567/567/567
f 571/571/571 560/560/560 559/559/559
f 572/572/572 567/567/567 568/568/568
f 560/560/560 561/561/561 569/569/569
f 560/560/560 569/569/569 568/568/568
f 571/571/571 561/561/561 560/560/560
f 572/572/572 568/568/568 569/569/569
f 561/561/561 562/562/562 570/570/570
f 561/561/561 570/570/570 569/569/569
f 571/571/571 562/562/562 561/561/561
f 572/572/572 569/569/569 570/570/570
f 562/562/562 555/555/555 563/563/563
f 562/562/562 563/563/563 570/570/570
f 571/571/571 555/555/555 562/562/562
f 572/572/572 570/570/570 563/563/563
f 573/573/573 584/584/584 585/585/585
f 573/573/573 585/585/585 574/574/574
f 574/574/574 585/585/585 586/586/586
f 574/574/574 586/586/586 575/575/575
f 575/575/575 586/586/586 587/587/587
f 575/575/575 587/587/587 576/576/576
f 576/576/576 587/587/587 588/588/588
f 576/576/576 588/588/588 577/577/577
f 577/577/577 588/588/588 589/589/589
f 577/577/577 589/589/589 578/578/578
f 578/578/578 589/589/589 590/590/590
f 578/578/578 590/590/590 579/579/579
f 579/579/579 590/590/590 591/591/591
f 579/579/579 591/591/591 580/580/580
f 580/580/580 591/591/591 592/592/592
f 580/580/580 592/592/592 581/581/581
f 581/581/581 592/592/592 593/593/593
f 581/581/581 593/593/593 582/582/582
f 582/582/582 593/593/593 594/594/594
f 582/582/582 594/594/594 583/583/583
f 584/584/584 595/595/595 596/596/596
f 584/584/584 596/596/596 585/585/585
f 585/585/585 596/596/596 597/597/597
f 585/585/585 597/597/597 586/586/586
f 586/586/586 597/597/597 598/598/598
f 586/586/586 598/598/598 587/587/587
f 587/587/587 598/598/598 599/599/599
f 587/587/587 599/599/599 588/588/588
f 588/588/588 599/599/599 600/600/600
f 588/588/588 600/600/600 589/589/589
f 589/589/589 600/600/600 601/601/601
f 589/589/589 601/601/601 590/590/590
f 590/590/590 601/601/601 602/602/602
f 590/590/590 602/602/602 591/591/591
f 591/591/591 602/602/602 603/603/603
f 591/591/591 603/603/603 592/592/592
f 592/592/592 603/603/603 604/604/604
f 592/592/592 604/604/604 593/593/593
f 593/593/593 604/604/604 605/605/605
f 593/593/593 605/605/605 594/594/594
f 595/595/595 606/606/606 607/607/607
f 595/595/595 607/607/607 596/596/596
f 596/596/596 607/607/607 608/608/608
f 596/596/596 608/608/608 597/597/597
f 597/597/597 608/608/608 609/609/609
f 597/597/597 609/609/609 598/598/598
f 598/598/598 609/609/609 610/610/610
f 598/598/598 610/610/610 599/599/599
f 599/599/599 610/610/610 611/611/611
f 599/599/599 611/611/611 600/600/600
f 600/600/600 611/611/611 612/612/612
f 600/600/600 612/612/612 601/601/601
f 601/601/601 612/612/612 613/613/613
f 601/601/601 613/613/613 602/602/602
f 602/602/602 613/613/613 614/614/614
f 602/602/602 614/614/614 603/603/603
f 603/603/603 614/614/614 615/615/615
f 603/603/603 615/615/615 604/604/604
f 604/604/604 615/615/615 616/616/616
f 604/604/604 616/616/616 605/605/605
f 606/606/606 617/617/617 618/618/618
f 606/606/606 618/618/618 607/607/607
f 607/607/607 618/618/618 619/619/619
f 607/607/607 619/619/619 608/608/608
f 608/608/608 619/619/619 620/620/620
f 608/608/608 620/620/620 609/609/609
f 609/609/609 620/620/620 621/621/621
f 609/609/609 621/621/621 610/610/610
f 610/610/610 621/621/621 622/622/622
f 610/610/610 622/622/622 611/611/611
f 611/611/611 622/622/622 623/623/623
f 611/611/611 623/623/623 612/612/612
f 612/612/612 623/623/623 624/624/624
f 612/612/612 624/624/624 613/613/613
f 613/613/613 624/624/624 625/625/625
f 613/613/613 625/625/625 614/614/614
f 614/614/614 625/625/625 626/626/626
f 614/614/614 626/626/626 615/615/615
f 615/615/615 626/626/626 627/627/627
f 615/615/615 627/627/627 616/616/616
f 617/617/617 628/628/628 629/629/629
f 617/617/617 629/629/629 618/618/618
f 618/618/618 629/629/629 630/630/630
f 618/618/618 630/630/630 619/619/619
f 619/619/619 630/630/630 631/631/631
f 619/619/619 631/631/631 620/620/620
f 620/620/620 631/631/631 632/632/632
f 620/620/620 632/632/632 621/621/621
f 621/621/621 632/632/632 633/633/633
f 621/621/621 633/633/633 622/622/622
f 622/622/622 633/633/633 634/634/634
f 622/622/622 634/634/634 623/623/623
f 623/623/623 634/634/634 635/635/635
f 623/623/623 635/635/635 624/624/624
f 624/624/624 635/635/635 636/636/636
f 624/624/624 636/636/636 625/625/625
f 625/625/625 636/636/636 637/637/637
f 625/625/625 637/637/637 626/626/626
f 626/626/626 637/637/637 638/638/638
f 626/626/626 638/638/638 627/627/627
f 628/628/628 639/639/639 640/640/640
f 628/628/628 640/640/640 629/629/629
f 629/629/629 640/640/640 641/641/641
f 629/629/629 641/641/641 630/630/630
f 630/630/630 641/641/641 642/642/642
f 630/630/630 642/642/642 631/631/631
f 631/631/631 642/642/642 643/643/643
f 631/631/631 643/643/643 632/632/632
f 632/632/632 643/643/643 644/644/644
f 632/632/632 644/644/644 633/633/633
f 633/633/633 644/644/644 645/645/645
f 633/633/633 645/645/645 634/634/634
f 634/634/634 645/645/645 646/646/646
f 634/634/634 646/646/646 635/635/635
f 635/635/635 646/646/646 647/647/647
f 635/635/635 647/647/647 636/636/636
f 636/636/636 647/647/647 648/648/648
f 636/636/636 648/648/648 637/637/637
f 637/637/637 648/648/648 649/649/649
f 637/637/637 649/649/649 638/638/638
f 639/639/639 650/650/650 651/651/651
f 639/639/639 651/651/651 640/640/640
f 640/640/640 651/651/651 652/652/652
f 640/640/640 652/652/652 641/641/641
f 641/641/641 652/652/652 653/653/653
f 641/641/641 653/653/653 642/642/642
f 642/642/642 653/653/653 654/654/654
f 642/642/642 654/654/654 643/643/643
f 643/643/643 654/654/654 655/655/655
f 643/643/643 655/655/655 644/644/644
f 644/644/644 655/655/655 656/656/656
f 644/644/644 656/656/656 645/645/645
f 645/645/645 656/656/656 657/657/657
f 645/645/645 657/657/657 646/646/646
f 646/646/646 657/657/657 658/658/658
f 646/646/646 658/658/658 647/647/647
f 647/647/647 658/658/658 659/659/659
f 647/647/647 659/659/659 648/648/648
f 648/648/648 659/659/659 660/660/660
f 648/648/648 660/660/660 649/649/649
f 650/650/650 661/661/661 662/662/662
f 650/650/650 662/662/662 651/651/651
f 651/651/651 662/662/662 663/663/663
f 651/651/651 663/663/663 652/652/652
f 652/652/652 663/663/663 664/664/664
f 652/652/652 664/664/664 653/653/653
f 653/653/653 664/664/664 665/665/665
f 653/653/653 665/665/665 654/654/654
f 654/654/654 665/665/665 666/666/666
f 654/654/654 666/666/666 655/655/655
f 655/655/655 666/666/666 667/667/667
f 655/655/655 667/667/667 656/656/656
f 656/656/656 667/667/667 668/668/668
f 656/656/656 668/668/668 657/657/657
f 657/657/657 668/668/668 669/669/669
f 657/657/657 669/669/669 658/658/658
f 658/658/658 669/669/669 670/670/670
f 658/658/658 670/670/670 659/659/659
f 659/659/659 670/670/670 671/671/671
f 659/659/659 671/671/671 660/660/660
f 672/672/672 673/673/673 681/681/681
f 672/672/672 681/681/681 680/680/680
f 688/688/688 673/673/673 672/672/672
f 689/689/689 680/680/680 681/681/681
f 673/673/673 674/674/674 682/682/682
f 673/673/673 682/682/682 681/681/681
f 688/688/688 674/674/674 673/673/673
f 689/689/689 681/681/681 682/682/682
f 674/674/674 675/675/675 683/683/683
f 674/674/674 683/683/683 682/682/682
f 688/688/688 675/675/675 674/674/674
f 689/689/689 682/682/682 683/683/683
f 675/675/675 676/676/676 684/684/684
f 675/675/675 684/684/684 683/683/683
f 688/688/688 676/676/676 675/675/675
f 689/689/689 683/683/683 684/684/684
f 676/676/676 677/677/677 685/685/685
f 676/676/676 685/685/685 684/684/684
f 688/688/688 677/677/677 676/676/676
f 689/689/689 684/684/684 685/685/685
f 677/677/677 678/678/678 686/686/686
f 677/677/677 686/686/686 685/685/685
f 688/688/688 678/678/678 677/677/677
f 689/689/689 685/685/685 686/686/686
f 678/678/678 679/679/679 687/687/687
f 678/678/678 687/687/687 686/686/686
f 688/688/688 679/679/679 678/678/678
f 689/689/689 686/686/686 687/687/687
f 679/679/679 672/672/672 680/680/680
f 679/679/679 680/680/680 687/687/687
f 688/688/688 672/672/672 679/679/679
f 689/689/689 687/687/687 680/680/680