# 3D Model: vehicle/car/teslam3-960
# Style: aerodynamic_gt_supercar | Symmetry: symmetric
# Dimensions: 4.91 x 1.266 x 2.611 m
# Triangles: 1032 | Vertices: 626
v -2.3739 0.21 -1.04
v 2.3739 0.21 -1.04
v 2.3739 0.63 -1.04
v -2.3739 0.63 -1.04
v -2.3739 0.21 1.04
v 2.3739 0.21 1.04
v 2.3739 0.63 1.04
v -2.3739 0.63 1.04
v 0.4273 0.445 -1.0192
v 2.2315 0.445 -1.0192
v 2.2315 0.445 1.0192
v 0.4273 0.445 1.0192
v 0.4273 0.795 -1.0192
v 2.2315 0.795 -1.0192
v 2.1139 0.08 -1.0816
v 2.5339 0.08 -1.0816
v 2.5339 0.08 1.0816
v 2.1139 0.08 1.0816
v 2.1139 0.2 -1.0816
v 2.5339 0.2 -1.0816
v 1.1556 0.605 1.3056
v -1.4556 0.605 1.3056
v -1.4556 0.605 -1.3056
v 1.1556 0.605 -1.3056
v 0.6096 1.155 0.7596
v -0.9096 1.155 0.7596
v -0.9096 1.155 -0.7596
v 0.6096 1.155 -0.7596
v -0.15 0.605 0
v -0.15 1.155 0
v -2.3702 1.1249 -0.9984
v -1.9914 1.1553 -0.9984
v -1.9978 1.2351 -0.9984
v -2.3766 1.2047 -0.9984
v -2.3702 1.1249 0.9984
v -1.9914 1.1553 0.9984
v -1.9978 1.2351 0.9984
v -2.3766 1.2047 0.9984
v 1.9965 0.6 0.74
v 2.2765 0.6 0.74
v 2.2765 0.7 0.74
v 1.9965 0.7 0.74
v 1.9965 0.6 1.06
v 2.2765 0.6 1.06
v 2.2765 0.7 1.06
v 1.9965 0.7 1.06
v -2.3065 0.63 0.725
v -2.1565 0.63 0.725
v -2.1565 0.73 0.725
v -2.3065 0.73 0.725
v -2.3065 0.63 1.075
v -2.1565 0.63 1.075
v -2.1565 0.73 1.075
v -2.3065 0.73 1.075
v 1.7284 0.38 0.828
v 1.7006 0.38 0.8952
v 1.6334 0.38 0.923
v 1.5662 0.38 0.8952
v 1.5384 0.38 0.828
v 1.5662 0.38 0.7608
v 1.6334 0.38 0.733
v 1.7006 0.38 0.7608
v 1.7284 0.38 0.828
v 1.6749 0.1805 0.828
v 1.6508 0.1944 0.8952
v 1.5927 0.228 0.923
v 1.5345 0.2616 0.8952
v 1.5104 0.2755 0.828
v 1.5345 0.2616 0.7608
v 1.5927 0.228 0.733
v 1.6508 0.1944 0.7608
v 1.6749 0.1805 0.828
v 1.5289 0.0345 0.828
v 1.515 0.0586 0.8952
v 1.4814 0.1167 0.923
v 1.4478 0.1749 0.8952
v 1.4339 0.199 0.828
v 1.4478 0.1749 0.7608
v 1.4814 0.1167 0.733
v 1.515 0.0586 0.7608
v 1.5289 0.0345 0.828
v 1.3294 -0.019 0.828
v 1.3294 0.0088 0.8952
v 1.3294 0.076 0.923
v 1.3294 0.1432 0.8952
v 1.3294 0.171 0.828
v 1.3294 0.1432 0.7608
v 1.3294 0.076 0.733
v 1.3294 0.0088 0.7608
v 1.3294 -0.019 0.828
v 1.1299 0.0345 0.828
v 1.1438 0.0586 0.8952
v 1.1774 0.1167 0.923
v 1.211 0.1749 0.8952
v 1.2249 0.199 0.828
v 1.211 0.1749 0.7608
v 1.1774 0.1167 0.733
v 1.1438 0.0586 0.7608
v 1.1299 0.0345 0.828
v 0.9838 0.1805 0.828
v 1.0079 0.1944 0.8952
v 1.0661 0.228 0.923
v 1.1243 0.2616 0.8952
v 1.1484 0.2755 0.828
v 1.1243 0.2616 0.7608
v 1.0661 0.228 0.733
v 1.0079 0.1944 0.7608
v 0.9838 0.1805 0.828
v 0.9304 0.38 0.828
v 0.9582 0.38 0.8952
v 1.0254 0.38 0.923
v 1.0926 0.38 0.8952
v 1.1204 0.38 0.828
v 1.0926 0.38 0.7608
v 1.0254 0.38 0.733
v 0.9582 0.38 0.7608
v 0.9304 0.38 0.828
v 0.9838 0.5795 0.828
v 1.0079 0.5656 0.8952
v 1.0661 0.532 0.923
v 1.1243 0.4984 0.8952
v 1.1484 0.4845 0.828
v 1.1243 0.4984 0.7608
v 1.0661 0.532 0.733
v 1.0079 0.5656 0.7608
v 0.9838 0.5795 0.828
v 1.1299 0.7255 0.828
v 1.1438 0.7014 0.8952
v 1.1774 0.6433 0.923
v 1.211 0.5851 0.8952
v 1.2249 0.561 0.828
v 1.211 0.5851 0.7608
v 1.1774 0.6433 0.733
v 1.1438 0.7014 0.7608
v 1.1299 0.7255 0.828
v 1.3294 0.779 0.828
v 1.3294 0.7512 0.8952
v 1.3294 0.684 0.923
v 1.3294 0.6168 0.8952
v 1.3294 0.589 0.828
v 1.3294 0.6168 0.7608
v 1.3294 0.684 0.733
v 1.3294 0.7512 0.7608
v 1.3294 0.779 0.828
v 1.5289 0.7255 0.828
v 1.515 0.7014 0.8952
v 1.4814 0.6433 0.923
v 1.4478 0.5851 0.8952
v 1.4339 0.561 0.828
v 1.4478 0.5851 0.7608
v 1.4814 0.6433 0.733
v 1.515 0.7014 0.7608
v 1.5289 0.7255 0.828
v 1.6749 0.5795 0.828
v 1.6508 0.5656 0.8952
v 1.5927 0.532 0.923
v 1.5345 0.4984 0.8952
v 1.5104 0.4845 0.828
v 1.5345 0.4984 0.7608
v 1.5927 0.532 0.733
v 1.6508 0.5656 0.7608
v 1.6749 0.5795 0.828
v 1.7284 0.38 0.828
v 1.7006 0.38 0.8952
v 1.6334 0.38 0.923
v 1.5662 0.38 0.8952
v 1.5384 0.38 0.828
v 1.5662 0.38 0.7608
v 1.6334 0.38 0.733
v 1.7006 0.38 0.7608
v 1.7284 0.38 0.828
v 1.5878 0.38 0.668
v 1.5384 0.2281 0.668
v 1.4092 0.1342 0.668
v 1.2495 0.1342 0.668
v 1.1203 0.2281 0.668
v 1.071 0.38 0.668
v 1.1203 0.5319 0.668
v 1.2495 0.6258 0.668
v 1.4092 0.6258 0.668
v 1.5384 0.5319 0.668
v 1.5878 0.38 0.988
v 1.5384 0.2281 0.988
v 1.4092 0.1342 0.988
v 1.2495 0.1342 0.988
v 1.1203 0.2281 0.988
v 1.071 0.38 0.988
v 1.1203 0.5319 0.988
v 1.2495 0.6258 0.988
v 1.4092 0.6258 0.988
v 1.5384 0.5319 0.988
v 1.3294 0.38 0.668
v 1.3294 0.38 0.988
v -0.919 0.38 0.828
v -0.9479 0.38 0.8979
v -1.0178 0.38 0.9268
v -1.0876 0.38 0.8979
v -1.1166 0.38 0.828
v -1.0876 0.38 0.7581
v -1.0178 0.38 0.7292
v -0.9479 0.38 0.7581
v -0.919 0.38 0.828
v -0.974 0.1748 0.828
v -0.999 0.1893 0.8979
v -1.0595 0.2242 0.9268
v -1.12 0.2591 0.8979
v -1.1451 0.2736 0.828
v -1.12 0.2591 0.7581
v -1.0595 0.2242 0.7292
v -0.999 0.1893 0.7581
v -0.974 0.1748 0.828
v -1.1242 0.0246 0.828
v -1.1386 0.0496 0.8979
v -1.1736 0.1101 0.9268
v -1.2085 0.1706 0.8979
v -1.223 0.1957 0.828
v -1.2085 0.1706 0.7581
v -1.1736 0.1101 0.7292
v -1.1386 0.0496 0.7581
v -1.1242 0.0246 0.828
v -1.3294 -0.0304 0.828
v -1.3294 -0.0015 0.8979
v -1.3294 0.0684 0.9268
v -1.3294 0.1383 0.8979
v -1.3294 0.1672 0.828
v -1.3294 0.1383 0.7581
v -1.3294 0.0684 0.7292
v -1.3294 -0.0015 0.7581
v -1.3294 -0.0304 0.828
v -1.5346 0.0246 0.828
v -1.5201 0.0496 0.8979
v -1.4852 0.1101 0.9268
v -1.4502 0.1706 0.8979
v -1.4358 0.1957 0.828
v -1.4502 0.1706 0.7581
v -1.4852 0.1101 0.7292
v -1.5201 0.0496 0.7581
v -1.5346 0.0246 0.828
v -1.6848 0.1748 0.828
v -1.6597 0.1893 0.8979
v -1.5992 0.2242 0.9268
v -1.5387 0.2591 0.8979
v -1.5137 0.2736 0.828
v -1.5387 0.2591 0.7581
v -1.5992 0.2242 0.7292
v -1.6597 0.1893 0.7581
v -1.6848 0.1748 0.828
v -1.7398 0.38 0.828
v -1.7108 0.38 0.8979
v -1.641 0.38 0.9268
v -1.5711 0.38 0.8979
v -1.5422 0.38 0.828
v -1.5711 0.38 0.7581
v -1.641 0.38 0.7292
v -1.7108 0.38 0.7581
v -1.7398 0.38 0.828
v -1.6848 0.5852 0.828
v -1.6597 0.5707 0.8979
v -1.5992 0.5358 0.9268
v -1.5387 0.5009 0.8979
v -1.5137 0.4864 0.828
v -1.5387 0.5009 0.7581
v -1.5992 0.5358 0.7292
v -1.6597 0.5707 0.7581
v -1.6848 0.5852 0.828
v -1.5346 0.7354 0.828
v -1.5201 0.7104 0.8979
v -1.4852 0.6499 0.9268
v -1.4502 0.5894 0.8979
v -1.4358 0.5643 0.828
v -1.4502 0.5894 0.7581
v -1.4852 0.6499 0.7292
v -1.5201 0.7104 0.7581
v -1.5346 0.7354 0.828
v -1.3294 0.7904 0.828
v -1.3294 0.7615 0.8979
v -1.3294 0.6916 0.9268
v -1.3294 0.6217 0.8979
v -1.3294 0.5928 0.828
v -1.3294 0.6217 0.7581
v -1.3294 0.6916 0.7292
v -1.3294 0.7615 0.7581
v -1.3294 0.7904 0.828
v -1.1242 0.7354 0.828
v -1.1386 0.7104 0.8979
v -1.1736 0.6499 0.9268
v -1.2085 0.5894 0.8979
v -1.223 0.5643 0.828
v -1.2085 0.5894 0.7581
v -1.1736 0.6499 0.7292
v -1.1386 0.7104 0.7581
v -1.1242 0.7354 0.828
v -0.974 0.5852 0.828
v -0.999 0.5707 0.8979
v -1.0595 0.5358 0.9268
v -1.12 0.5009 0.8979
v -1.1451 0.4864 0.828
v -1.12 0.5009 0.7581
v -1.0595 0.5358 0.7292
v -0.999 0.5707 0.7581
v -0.974 0.5852 0.828
v -0.919 0.38 0.828
v -0.9479 0.38 0.8979
v -1.0178 0.38 0.9268
v -1.0876 0.38 0.8979
v -1.1166 0.38 0.828
v -1.0876 0.38 0.7581
v -1.0178 0.38 0.7292
v -0.9479 0.38 0.7581
v -0.919 0.38 0.828
v -1.0634 0.38 0.658
v -1.1142 0.2236 0.658
v -1.2472 0.127 0.658
v -1.4116 0.127 0.658
v -1.5446 0.2236 0.658
v -1.5954 0.38 0.658
v -1.5446 0.5364 0.658
v -1.4116 0.633 0.658
v -1.2472 0.633 0.658
v -1.1142 0.5364 0.658
v -1.0634 0.38 0.998
v -1.1142 0.2236 0.998
v -1.2472 0.127 0.998
v -1.4116 0.127 0.998
v -1.5446 0.2236 0.998
v -1.5954 0.38 0.998
v -1.5446 0.5364 0.998
v -1.4116 0.633 0.998
v -1.2472 0.633 0.998
v -1.1142 0.5364 0.998
v -1.3294 0.38 0.658
v -1.3294 0.38 0.998
v 1.9965 0.6 -1.06
v 2.2765 0.6 -1.06
v 2.2765 0.7 -1.06
v 1.9965 0.7 -1.06
v 1.9965 0.6 -0.74
v 2.2765 0.6 -0.74
v 2.2765 0.7 -0.74
v 1.9965 0.7 -0.74
v -2.3065 0.63 -1.075
v -2.1565 0.63 -1.075
v -2.1565 0.73 -1.075
v -2.3065 0.73 -1.075
v -2.3065 0.63 -0.725
v -2.1565 0.63 -0.725
v -2.1565 0.73 -0.725
v -2.3065 0.73 -0.725
v 1.7284 0.38 -0.828
v 1.7006 0.38 -0.7608
v 1.6334 0.38 -0.733
v 1.5662 0.38 -0.7608
v 1.5384 0.38 -0.828
v 1.5662 0.38 -0.8952
v 1.6334 0.38 -0.923
v 1.7006 0.38 -0.8952
v 1.7284 0.38 -0.828
v 1.6749 0.1805 -0.828
v 1.6508 0.1944 -0.7608
v 1.5927 0.228 -0.733
v 1.5345 0.2616 -0.7608
v 1.5104 0.2755 -0.828
v 1.5345 0.2616 -0.8952
v 1.5927 0.228 -0.923
v 1.6508 0.1944 -0.8952
v 1.6749 0.1805 -0.828
v 1.5289 0.0345 -0.828
v 1.515 0.0586 -0.7608
v 1.4814 0.1167 -0.733
v 1.4478 0.1749 -0.7608
v 1.4339 0.199 -0.828
v 1.4478 0.1749 -0.8952
v 1.4814 0.1167 -0.923
v 1.515 0.0586 -0.8952
v 1.5289 0.0345 -0.828
v 1.3294 -0.019 -0.828
v 1.3294 0.0088 -0.7608
v 1.3294 0.076 -0.733
v 1.3294 0.1432 -0.7608
v 1.3294 0.171 -0.828
v 1.3294 0.1432 -0.8952
v 1.3294 0.076 -0.923
v 1.3294 0.0088 -0.8952
v 1.3294 -0.019 -0.828
v 1.1299 0.0345 -0.828
v 1.1438 0.0586 -0.7608
v 1.1774 0.1167 -0.733
v 1.211 0.1749 -0.7608
v 1.2249 0.199 -0.828
v 1.211 0.1749 -0.8952
v 1.1774 0.1167 -0.923
v 1.1438 0.0586 -0.8952
v 1.1299 0.0345 -0.828
v 0.9838 0.1805 -0.828
v 1.0079 0.1944 -0.7608
v 1.0661 0.228 -0.733
v 1.1243 0.2616 -0.7608
v 1.1484 0.2755 -0.828
v 1.1243 0.2616 -0.8952
v 1.0661 0.228 -0.923
v 1.0079 0.1944 -0.8952
v 0.9838 0.1805 -0.828
v 0.9304 0.38 -0.828
v 0.9582 0.38 -0.7608
v 1.0254 0.38 -0.733
v 1.0926 0.38 -0.7608
v 1.1204 0.38 -0.828
v 1.0926 0.38 -0.8952
v 1.0254 0.38 -0.923
v 0.9582 0.38 -0.8952
v 0.9304 0.38 -0.828
v 0.9838 0.5795 -0.828
v 1.0079 0.5656 -0.7608
v 1.0661 0.532 -0.733
v 1.1243 0.4984 -0.7608
v 1.1484 0.4845 -0.828
v 1.1243 0.4984 -0.8952
v 1.0661 0.532 -0.923
v 1.0079 0.5656 -0.8952
v 0.9838 0.5795 -0.828
v 1.1299 0.7255 -0.828
v 1.1438 0.7014 -0.7608
v 1.1774 0.6433 -0.733
v 1.211 0.5851 -0.7608
v 1.2249 0.561 -0.828
v 1.211 0.5851 -0.8952
v 1.1774 0.6433 -0.923
v 1.1438 0.7014 -0.8952
v 1.1299 0.7255 -0.828
v 1.3294 0.779 -0.828
v 1.3294 0.7512 -0.7608
v 1.3294 0.684 -0.733
v 1.3294 0.6168 -0.7608
v 1.3294 0.589 -0.828
v 1.3294 0.6168 -0.8952
v 1.3294 0.684 -0.923
v 1.3294 0.7512 -0.8952
v 1.3294 0.779 -0.828
v 1.5289 0.7255 -0.828
v 1.515 0.7014 -0.7608
v 1.4814 0.6433 -0.733
v 1.4478 0.5851 -0.7608
v 1.4339 0.561 -0.828
v 1.4478 0.5851 -0.8952
v 1.4814 0.6433 -0.923
v 1.515 0.7014 -0.8952
v 1.5289 0.7255 -0.828
v 1.6749 0.5795 -0.828
v 1.6508 0.5656 -0.7608
v 1.5927 0.532 -0.733
v 1.5345 0.4984 -0.7608
v 1.5104 0.4845 -0.828
v 1.5345 0.4984 -0.8952
v 1.5927 0.532 -0.923
v 1.6508 0.5656 -0.8952
v 1.6749 0.5795 -0.828
v 1.7284 0.38 -0.828
v 1.7006 0.38 -0.7608
v 1.6334 0.38 -0.733
v 1.5662 0.38 -0.7608
v 1.5384 0.38 -0.828
v 1.5662 0.38 -0.8952
v 1.6334 0.38 -0.923
v 1.7006 0.38 -0.8952
v 1.7284 0.38 -0.828
v 1.5878 0.38 -0.988
v 1.5384 0.2281 -0.988
v 1.4092 0.1342 -0.988
v 1.2495 0.1342 -0.988
v 1.1203 0.2281 -0.988
v 1.071 0.38 -0.988
v 1.1203 0.5319 -0.988
v 1.2495 0.6258 -0.988
v 1.4092 0.6258 -0.988
v 1.5384 0.5319 -0.988
v 1.5878 0.38 -0.668
v 1.5384 0.2281 -0.668
v 1.4092 0.1342 -0.668
v 1.2495 0.1342 -0.668
v 1.1203 0.2281 -0.668
v 1.071 0.38 -0.668
v 1.1203 0.5319 -0.668
v 1.2495 0.6258 -0.668
v 1.4092 0.6258 -0.668
v 1.5384 0.5319 -0.668
v 1.3294 0.38 -0.988
v 1.3294 0.38 -0.668
v -0.919 0.38 -0.828
v -0.9479 0.38 -0.7581
v -1.0178 0.38 -0.7292
v -1.0876 0.38 -0.7581
v -1.1166 0.38 -0.828
v -1.0876 0.38 -0.8979
v -1.0178 0.38 -0.9268
v -0.9479 0.38 -0.8979
v -0.919 0.38 -0.828
v -0.974 0.1748 -0.828
v -0.999 0.1893 -0.7581
v -1.0595 0.2242 -0.7292
v -1.12 0.2591 -0.7581
v -1.1451 0.2736 -0.828
v -1.12 0.2591 -0.8979
v -1.0595 0.2242 -0.9268
v -0.999 0.1893 -0.8979
v -0.974 0.1748 -0.828
v -1.1242 0.0246 -0.828
v -1.1386 0.0496 -0.7581
v -1.1736 0.1101 -0.7292
v -1.2085 0.1706 -0.7581
v -1.223 0.1957 -0.828
v -1.2085 0.1706 -0.8979
v -1.1736 0.1101 -0.9268
v -1.1386 0.0496 -0.8979
v -1.1242 0.0246 -0.828
v -1.3294 -0.0304 -0.828
v -1.3294 -0.0015 -0.7581
v -1.3294 0.0684 -0.7292
v -1.3294 0.1383 -0.7581
v -1.3294 0.1672 -0.828
v -1.3294 0.1383 -0.8979
v -1.3294 0.0684 -0.9268
v -1.3294 -0.0015 -0.8979
v -1.3294 -0.0304 -0.828
v -1.5346 0.0246 -0.828
v -1.5201 0.0496 -0.7581
v -1.4852 0.1101 -0.7292
v -1.4502 0.1706 -0.7581
v -1.4358 0.1957 -0.828
v -1.4502 0.1706 -0.8979
v -1.4852 0.1101 -0.9268
v -1.5201 0.0496 -0.8979
v -1.5346 0.0246 -0.828
v -1.6848 0.1748 -0.828
v -1.6597 0.1893 -0.7581
v -1.5992 0.2242 -0.7292
v -1.5387 0.2591 -0.7581
v -1.5137 0.2736 -0.828
v -1.5387 0.2591 -0.8979
v -1.5992 0.2242 -0.9268
v -1.6597 0.1893 -0.8979
v -1.6848 0.1748 -0.828
v -1.7398 0.38 -0.828
v -1.7108 0.38 -0.7581
v -1.641 0.38 -0.7292
v -1.5711 0.38 -0.7581
v -1.5422 0.38 -0.828
v -1.5711 0.38 -0.8979
v -1.641 0.38 -0.9268
v -1.7108 0.38 -0.8979
v -1.7398 0.38 -0.828
v -1.6848 0.5852 -0.828
v -1.6597 0.5707 -0.7581
v -1.5992 0.5358 -0.7292
v -1.5387 0.5009 -0.7581
v -1.5137 0.4864 -0.828
v -1.5387 0.5009 -0.8979
v -1.5992 0.5358 -0.9268
v -1.6597 0.5707 -0.8979
v -1.6848 0.5852 -0.828
v -1.5346 0.7354 -0.828
v -1.5201 0.7104 -0.7581
v -1.4852 0.6499 -0.7292
v -1.4502 0.5894 -0.7581
v -1.4358 0.5643 -0.828
v -1.4502 0.5894 -0.8979
v -1.4852 0.6499 -0.9268
v -1.5201 0.7104 -0.8979
v -1.5346 0.7354 -0.828
v -1.3294 0.7904 -0.828
v -1.3294 0.7615 -0.7581
v -1.3294 0.6916 -0.7292
v -1.3294 0.6217 -0.7581
v -1.3294 0.5928 -0.828
v -1.3294 0.6217 -0.8979
v -1.3294 0.6916 -0.9268
v -1.3294 0.7615 -0.8979
v -1.3294 0.7904 -0.828
v -1.1242 0.7354 -0.828
v -1.1386 0.7104 -0.7581
v -1.1736 0.6499 -0.7292
v -1.2085 0.5894 -0.7581
v -1.223 0.5643 -0.828
v -1.2085 0.5894 -0.8979
v -1.1736 0.6499 -0.9268
v -1.1386 0.7104 -0.8979
v -1.1242 0.7354 -0.828
v -0.974 0.5852 -0.828
v -0.999 0.5707 -0.7581
v -1.0595 0.5358 -0.7292
v -1.12 0.5009 -0.7581
v -1.1451 0.4864 -0.828
v -1.12 0.5009 -0.8979
v -1.0595 0.5358 -0.9268
v -0.999 0.5707 -0.8979
v -0.974 0.5852 -0.828
v -0.919 0.38 -0.828
v -0.9479 0.38 -0.7581
v -1.0178 0.38 -0.7292
v -1.0876 0.38 -0.7581
v -1.1166 0.38 -0.828
v -1.0876 0.38 -0.8979
v -1.0178 0.38 -0.9268
v -0.9479 0.38 -0.8979
v -0.919 0.38 -0.828
v -1.0634 0.38 -0.998
v -1.1142 0.2236 -0.998
v -1.2472 0.127 -0.998
v -1.4116 0.127 -0.998
v -1.5446 0.2236 -0.998
v -1.5954 0.38 -0.998
v -1.5446 0.5364 -0.998
v -1.4116 0.633 -0.998
v -1.2472 0.633 -0.998
v -1.1142 0.5364 -0.998
v -1.0634 0.38 -0.658
v -1.1142 0.2236 -0.658
v -1.2472 0.127 -0.658
v -1.4116 0.127 -0.658
v -1.5446 0.2236 -0.658
v -1.5954 0.38 -0.658
v -1.5446 0.5364 -0.658
v -1.4116 0.633 -0.658
v -1.2472 0.633 -0.658
v -1.1142 0.5364 -0.658
v -1.3294 0.38 -0.998
v -1.3294 0.38 -0.658
vt 0.5 0.5
vt 0.5 0.5
vt 0.5 0.5
vt 0.5 0.5
vt 0.5 0.5
vt 0.5 0.5
vt 0.5 0.5
vt 0.5 0.5
vt 0.5 0.5
vt 0.5 0.5
vt 0.5 0.5
vt 0.5 0.5
vt 0.5 0.5
vt 0.5 0.5
vt 0.5 0.5
vt 0.5 0.5
vt 0.5 0.5
vt 0.5 0.5
vt 0.5 0.5
vt 0.5 0.5
vt 0 0
vt 0.25 0
vt 0.5 0
vt 0.75 0
vt 0 1
vt 0.25 1
vt 0.5 1
vt 0.75 1
vt 0.5 0.5
vt 0.5 0.5
vt 0.5 0.5
vt 0.5 0.5
vt 0.5 0.5
vt 0.5 0.5
vt 0.5 0.5
vt 0.5 0.5
vt 0.5 0.5
vt 0.5 0.5
vt 0.5 0.5
vt 0.5 0.5
vt 0.5 0.5
vt 0.5 0.5
vt 0.5 0.5
vt 0.5 0.5
vt 0.5 0.5
vt 0.5 0.5
vt 0.5 0.5
vt 0.5 0.5
vt 0.5 0.5
vt 0.5 0.5
vt 0.5 0.5
vt 0.5 0.5
vt 0.5 0.5
vt 0.5 0.5
vt 0 0
vt 0 0.125
vt 0 0.25
vt 0 0.375
vt 0 0.5
vt 0 0.625
vt 0 0.75
vt 0 0.875
vt 0 1
vt 0.08333333333333333 0
vt 0.08333333333333333 0.125
vt 0.08333333333333333 0.25
vt 0.08333333333333333 0.375
vt 0.08333333333333333 0.5
vt 0.08333333333333333 0.625
vt 0.08333333333333333 0.75
vt 0.08333333333333333 0.875
vt 0.08333333333333333 1
vt 0.16666666666666666 0
vt 0.16666666666666666 0.125
vt 0.16666666666666666 0.25
vt 0.16666666666666666 0.375
vt 0.16666666666666666 0.5
vt 0.16666666666666666 0.625
vt 0.16666666666666666 0.75
vt 0.16666666666666666 0.875
vt 0.16666666666666666 1
vt 0.25 0
vt 0.25 0.125
vt 0.25 0.25
vt 0.25 0.375
vt 0.25 0.5
vt 0.25 0.625
vt 0.25 0.75
vt 0.25 0.875
vt 0.25 1
vt 0.3333333333333333 0
vt 0.3333333333333333 0.125
vt 0.3333333333333333 0.25
vt 0.3333333333333333 0.375
vt 0.3333333333333333 0.5
vt 0.3333333333333333 0.625
vt 0.3333333333333333 0.75
vt 0.3333333333333333 0.875
vt 0.3333333333333333 1
vt 0.4166666666666667 0
vt 0.4166666666666667 0.125
vt 0.4166666666666667 0.25
vt 0.4166666666666667 0.375
vt 0.4166666666666667 0.5
vt 0.4166666666666667 0.625
vt 0.4166666666666667 0.75
vt 0.4166666666666667 0.875
vt 0.4166666666666667 1
vt 0.5 0
vt 0.5 0.125
vt 0.5 0.25
vt 0.5 0.375
vt 0.5 0.5
vt 0.5 0.625
vt 0.5 0.75
vt 0.5 0.875
vt 0.5 1
vt 0.5833333333333334 0
vt 0.5833333333333334 0.125
vt 0.5833333333333334 0.25
vt 0.5833333333333334 0.375
vt 0.5833333333333334 0.5
vt 0.5833333333333334 0.625
vt 0.5833333333333334 0.75
vt 0.5833333333333334 0.875
vt 0.5833333333333334 1
vt 0.6666666666666666 0
vt 0.6666666666666666 0.125
vt 0.6666666666666666 0.25
vt 0.6666666666666666 0.375
vt 0.6666666666666666 0.5
vt 0.6666666666666666 0.625
vt 0.6666666666666666 0.75
vt 0.6666666666666666 0.875
vt 0.6666666666666666 1
vt 0.75 0
vt 0.75 0.125
vt 0.75 0.25
vt 0.75 0.375
vt 0.75 0.5
vt 0.75 0.625
vt 0.75 0.75
vt 0.75 0.875
vt 0.75 1
vt 0.8333333333333334 0
vt 0.8333333333333334 0.125
vt 0.8333333333333334 0.25
vt 0.8333333333333334 0.375
vt 0.8333333333333334 0.5
vt 0.8333333333333334 0.625
vt 0.8333333333333334 0.75
vt 0.8333333333333334 0.875
vt 0.8333333333333334 1
vt 0.9166666666666666 0
vt 0.9166666666666666 0.125
vt 0.9166666666666666 0.25
vt 0.9166666666666666 0.375
vt 0.9166666666666666 0.5
vt 0.9166666666666666 0.625
vt 0.9166666666666666 0.75
vt 0.9166666666666666 0.875
vt 0.9166666666666666 1
vt 1 0
vt 1 0.125
vt 1 0.25
vt 1 0.375
vt 1 0.5
vt 1 0.625
vt 1 0.75
vt 1 0.875
vt 1 1
vt 0 0
vt 0.1 0
vt 0.2 0
vt 0.3 0
vt 0.4 0
vt 0.5 0
vt 0.6 0
vt 0.7 0
vt 0.8 0
vt 0.9 0
vt 0 1
vt 0.1 1
vt 0.2 1
vt 0.3 1
vt 0.4 1
vt 0.5 1
vt 0.6 1
vt 0.7 1
vt 0.8 1
vt 0.9 1
vt 0.5 0.5
vt 0.5 0.5
vt 0 0
vt 0 0.125
vt 0 0.25
vt 0 0.375
vt 0 0.5
vt 0 0.625
vt 0 0.75
vt 0 0.875
vt 0 1
vt 0.08333333333333333 0
vt 0.08333333333333333 0.125
vt 0.08333333333333333 0.25
vt 0.08333333333333333 0.375
vt 0.08333333333333333 0.5
vt 0.08333333333333333 0.625
vt 0.08333333333333333 0.75
vt 0.08333333333333333 0.875
vt 0.08333333333333333 1
vt 0.16666666666666666 0
vt 0.16666666666666666 0.125
vt 0.16666666666666666 0.25
vt 0.16666666666666666 0.375
vt 0.16666666666666666 0.5
vt 0.16666666666666666 0.625
vt 0.16666666666666666 0.75
vt 0.16666666666666666 0.875
vt 0.16666666666666666 1
vt 0.25 0
vt 0.25 0.125
vt 0.25 0.25
vt 0.25 0.375
vt 0.25 0.5
vt 0.25 0.625
vt 0.25 0.75
vt 0.25 0.875
vt 0.25 1
vt 0.3333333333333333 0
vt 0.3333333333333333 0.125
vt 0.3333333333333333 0.25
vt 0.3333333333333333 0.375
vt 0.3333333333333333 0.5
vt 0.3333333333333333 0.625
vt 0.3333333333333333 0.75
vt 0.3333333333333333 0.875
vt 0.3333333333333333 1
vt 0.4166666666666667 0
vt 0.4166666666666667 0.125
vt 0.4166666666666667 0.25
vt 0.4166666666666667 0.375
vt 0.4166666666666667 0.5
vt 0.4166666666666667 0.625
vt 0.4166666666666667 0.75
vt 0.4166666666666667 0.875
vt 0.4166666666666667 1
vt 0.5 0
vt 0.5 0.125
vt 0.5 0.25
vt 0.5 0.375
vt 0.5 0.5
vt 0.5 0.625
vt 0.5 0.75
vt 0.5 0.875
vt 0.5 1
vt 0.5833333333333334 0
vt 0.5833333333333334 0.125
vt 0.5833333333333334 0.25
vt 0.5833333333333334 0.375
vt 0.5833333333333334 0.5
vt 0.5833333333333334 0.625
vt 0.5833333333333334 0.75
vt 0.5833333333333334 0.875
vt 0.5833333333333334 1
vt 0.6666666666666666 0
vt 0.6666666666666666 0.125
vt 0.6666666666666666 0.25
vt 0.6666666666666666 0.375
vt 0.6666666666666666 0.5
vt 0.6666666666666666 0.625
vt 0.6666666666666666 0.75
vt 0.6666666666666666 0.875
vt 0.6666666666666666 1
vt 0.75 0
vt 0.75 0.125
vt 0.75 0.25
vt 0.75 0.375
vt 0.75 0.5
vt 0.75 0.625
vt 0.75 0.75
vt 0.75 0.875
vt 0.75 1
vt 0.8333333333333334 0
vt 0.8333333333333334 0.125
vt 0.8333333333333334 0.25
vt 0.8333333333333334 0.375
vt 0.8333333333333334 0.5
vt 0.8333333333333334 0.625
vt 0.8333333333333334 0.75
vt 0.8333333333333334 0.875
vt 0.8333333333333334 1
vt 0.9166666666666666 0
vt 0.9166666666666666 0.125
vt 0.9166666666666666 0.25
vt 0.9166666666666666 0.375
vt 0.9166666666666666 0.5
vt 0.9166666666666666 0.625
vt 0.9166666666666666 0.75
vt 0.9166666666666666 0.875
vt 0.9166666666666666 1
vt 1 0
vt 1 0.125
vt 1 0.25
vt 1 0.375
vt 1 0.5
vt 1 0.625
vt 1 0.75
vt 1 0.875
vt 1 1
vt 0 0
vt 0.1 0
vt 0.2 0
vt 0.3 0
vt 0.4 0
vt 0.5 0
vt 0.6 0
vt 0.7 0
vt 0.8 0
vt 0.9 0
vt 0 1
vt 0.1 1
vt 0.2 1
vt 0.3 1
vt 0.4 1
vt 0.5 1
vt 0.6 1
vt 0.7 1
vt 0.8 1
vt 0.9 1
vt 0.5 0.5
vt 0.5 0.5
vt 0.5 0.5
vt 0.5 0.5
vt 0.5 0.5
vt 0.5 0.5
vt 0.5 0.5
vt 0.5 0.5
vt 0.5 0.5
vt 0.5 0.5
vt 0.5 0.5
vt 0.5 0.5
vt 0.5 0.5
vt 0.5 0.5
vt 0.5 0.5
vt 0.5 0.5
vt 0.5 0.5
vt 0.5 0.5
vt 0 0
vt 0 0.125
vt 0 0.25
vt 0 0.375
vt 0 0.5
vt 0 0.625
vt 0 0.75
vt 0 0.875
vt 0 1
vt 0.08333333333333333 0
vt 0.08333333333333333 0.125
vt 0.08333333333333333 0.25
vt 0.08333333333333333 0.375
vt 0.08333333333333333 0.5
vt 0.08333333333333333 0.625
vt 0.08333333333333333 0.75
vt 0.08333333333333333 0.875
vt 0.08333333333333333 1
vt 0.16666666666666666 0
vt 0.16666666666666666 0.125
vt 0.16666666666666666 0.25
vt 0.16666666666666666 0.375
vt 0.16666666666666666 0.5
vt 0.16666666666666666 0.625
vt 0.16666666666666666 0.75
vt 0.16666666666666666 0.875
vt 0.16666666666666666 1
vt 0.25 0
vt 0.25 0.125
vt 0.25 0.25
vt 0.25 0.375
vt 0.25 0.5
vt 0.25 0.625
vt 0.25 0.75
vt 0.25 0.875
vt 0.25 1
vt 0.3333333333333333 0
vt 0.3333333333333333 0.125
vt 0.3333333333333333 0.25
vt 0.3333333333333333 0.375
vt 0.3333333333333333 0.5
vt 0.3333333333333333 0.625
vt 0.3333333333333333 0.75
vt 0.3333333333333333 0.875
vt 0.3333333333333333 1
vt 0.4166666666666667 0
vt 0.4166666666666667 0.125
vt 0.4166666666666667 0.25
vt 0.4166666666666667 0.375
vt 0.4166666666666667 0.5
vt 0.4166666666666667 0.625
vt 0.4166666666666667 0.75
vt 0.4166666666666667 0.875
vt 0.4166666666666667 1
vt 0.5 0
vt 0.5 0.125
vt 0.5 0.25
vt 0.5 0.375
vt 0.5 0.5
vt 0.5 0.625
vt 0.5 0.75
vt 0.5 0.875
vt 0.5 1
vt 0.5833333333333334 0
vt 0.5833333333333334 0.125
vt 0.5833333333333334 0.25
vt 0.5833333333333334 0.375
vt 0.5833333333333334 0.5
vt 0.5833333333333334 0.625
vt 0.5833333333333334 0.75
vt 0.5833333333333334 0.875
vt 0.5833333333333334 1
vt 0.6666666666666666 0
vt 0.6666666666666666 0.125
vt 0.6666666666666666 0.25
vt 0.6666666666666666 0.375
vt 0.6666666666666666 0.5
vt 0.6666666666666666 0.625
vt 0.6666666666666666 0.75
vt 0.6666666666666666 0.875
vt 0.6666666666666666 1
vt 0.75 0
vt 0.75 0.125
vt 0.75 0.25
vt 0.75 0.375
vt 0.75 0.5
vt 0.75 0.625
vt 0.75 0.75
vt 0.75 0.875
vt 0.75 1
vt 0.8333333333333334 0
vt 0.8333333333333334 0.125
vt 0.8333333333333334 0.25
vt 0.8333333333333334 0.375
vt 0.8333333333333334 0.5
vt 0.8333333333333334 0.625
vt 0.8333333333333334 0.75
vt 0.8333333333333334 0.875
vt 0.8333333333333334 1
vt 0.9166666666666666 0
vt 0.9166666666666666 0.125
vt 0.9166666666666666 0.25
vt 0.9166666666666666 0.375
vt 0.9166666666666666 0.5
vt 0.9166666666666666 0.625
vt 0.9166666666666666 0.75
vt 0.9166666666666666 0.875
vt 0.9166666666666666 1
vt 1 0
vt 1 0.125
vt 1 0.25
vt 1 0.375
vt 1 0.5
vt 1 0.625
vt 1 0.75
vt 1 0.875
vt 1 1
vt 0 0
vt 0.1 0
vt 0.2 0
vt 0.3 0
vt 0.4 0
vt 0.5 0
vt 0.6 0
vt 0.7 0
vt 0.8 0
vt 0.9 0
vt 0 1
vt 0.1 1
vt 0.2 1
vt 0.3 1
vt 0.4 1
vt 0.5 1
vt 0.6 1
vt 0.7 1
vt 0.8 1
vt 0.9 1
vt 0.5 0.5
vt 0.5 0.5
vt 0 0
vt 0 0.125
vt 0 0.25
vt 0 0.375
vt 0 0.5
vt 0 0.625
vt 0 0.75
vt 0 0.875
vt 0 1
vt 0.08333333333333333 0
vt 0.08333333333333333 0.125
vt 0.08333333333333333 0.25
vt 0.08333333333333333 0.375
vt 0.08333333333333333 0.5
vt 0.08333333333333333 0.625
vt 0.08333333333333333 0.75
vt 0.08333333333333333 0.875
vt 0.08333333333333333 1
vt 0.16666666666666666 0
vt 0.16666666666666666 0.125
vt 0.16666666666666666 0.25
vt 0.16666666666666666 0.375
vt 0.16666666666666666 0.5
vt 0.16666666666666666 0.625
vt 0.16666666666666666 0.75
vt 0.16666666666666666 0.875
vt 0.16666666666666666 1
vt 0.25 0
vt 0.25 0.125
vt 0.25 0.25
vt 0.25 0.375
vt 0.25 0.5
vt 0.25 0.625
vt 0.25 0.75
vt 0.25 0.875
vt 0.25 1
vt 0.3333333333333333 0
vt 0.3333333333333333 0.125
vt 0.3333333333333333 0.25
vt 0.3333333333333333 0.375
vt 0.3333333333333333 0.5
vt 0.3333333333333333 0.625
vt 0.3333333333333333 0.75
vt 0.3333333333333333 0.875
vt 0.3333333333333333 1
vt 0.4166666666666667 0
vt 0.4166666666666667 0.125
vt 0.4166666666666667 0.25
vt 0.4166666666666667 0.375
vt 0.4166666666666667 0.5
vt 0.4166666666666667 0.625
vt 0.4166666666666667 0.75
vt 0.4166666666666667 0.875
vt 0.4166666666666667 1
vt 0.5 0
vt 0.5 0.125
vt 0.5 0.25
vt 0.5 0.375
vt 0.5 0.5
vt 0.5 0.625
vt 0.5 0.75
vt 0.5 0.875
vt 0.5 1
vt 0.5833333333333334 0
vt 0.5833333333333334 0.125
vt 0.5833333333333334 0.25
vt 0.5833333333333334 0.375
vt 0.5833333333333334 0.5
vt 0.5833333333333334 0.625
vt 0.5833333333333334 0.75
vt 0.5833333333333334 0.875
vt 0.5833333333333334 1
vt 0.6666666666666666 0
vt 0.6666666666666666 0.125
vt 0.6666666666666666 0.25
vt 0.6666666666666666 0.375
vt 0.6666666666666666 0.5
vt 0.6666666666666666 0.625
vt 0.6666666666666666 0.75
vt 0.6666666666666666 0.875
vt 0.6666666666666666 1
vt 0.75 0
vt 0.75 0.125
vt 0.75 0.25
vt 0.75 0.375
vt 0.75 0.5
vt 0.75 0.625
vt 0.75 0.75
vt 0.75 0.875
vt 0.75 1
vt 0.8333333333333334 0
vt 0.8333333333333334 0.125
vt 0.8333333333333334 0.25
vt 0.8333333333333334 0.375
vt 0.8333333333333334 0.5
vt 0.8333333333333334 0.625
vt 0.8333333333333334 0.75
vt 0.8333333333333334 0.875
vt 0.8333333333333334 1
vt 0.9166666666666666 0
vt 0.9166666666666666 0.125
vt 0.9166666666666666 0.25
vt 0.9166666666666666 0.375
vt 0.9166666666666666 0.5
vt 0.9166666666666666 0.625
vt 0.9166666666666666 0.75
vt 0.9166666666666666 0.875
vt 0.9166666666666666 1
vt 1 0
vt 1 0.125
vt 1 0.25
vt 1 0.375
vt 1 0.5
vt 1 0.625
vt 1 0.75
vt 1 0.875
vt 1 1
vt 0 0
vt 0.1 0
vt 0.2 0
vt 0.3 0
vt 0.4 0
vt 0.5 0
vt 0.6 0
vt 0.7 0
vt 0.8 0
vt 0.9 0
vt 0 1
vt 0.1 1
vt 0.2 1
vt 0.3 1
vt 0.4 1
vt 0.5 1
vt 0.6 1
vt 0.7 1
vt 0.8 1
vt 0.9 1
vt 0.5 0.5
vt 0.5 0.5
vn 0 1 0
vn 0 1 0
vn 0 1 0
vn 0 1 0
vn 0 1 0
vn 0 1 0
vn 0 1 0
vn 0 1 0
vn 0 1 0
vn 0 1 0
vn 0 1 0
vn 0 1 0
vn 0 1 0
vn 0 1 0
vn 0 1 0
vn 0 1 0
vn 0 1 0
vn 0 1 0
vn 0 1 0
vn 0 1 0
vn 0 -1 0
vn 0 -1 0
vn 0 -1 0
vn 0 -1 0
vn 0 1 0
vn 0 1 0
vn 0 1 0
vn 0 1 0
vn 0 -1 0
vn 0 1 0
vn 0 1 0
vn 0 1 0
vn 0 1 0
vn 0 1 0
vn 0 1 0
vn 0 1 0
vn 0 1 0
vn 0 1 0
vn 0 1 0
vn 0 1 0
vn 0 1 0
vn 0 1 0
vn 0 1 0
vn 0 1 0
vn 0 1 0
vn 0 1 0
vn 0 1 0
vn 0 1 0
vn 0 1 0
vn 0 1 0
vn 0 1 0
vn 0 1 0
vn 0 1 0
vn 0 1 0
vn 1 0 0
vn 0.7071067811865476 0.7071067811865475 0
vn 6.123233995736766e-17 1 0
vn -0.7071067811865475 0.7071067811865476 0
vn -1 1.2246467991473532e-16 0
vn -0.7071067811865477 -0.7071067811865475 0
vn -1.8369701987210297e-16 -1 0
vn 0.7071067811865474 -0.7071067811865477 0
vn 1 -2.4492935982947064e-16 0
vn 0.8660254037844387 0 0.49999999999999994
vn 0.6123724356957946 0.7071067811865475 0.35355339059327373
vn 5.3028761936245346e-17 1 3.0616169978683824e-17
vn -0.6123724356957945 0.7071067811865476 -0.3535533905932737
vn -0.8660254037844387 1.2246467991473532e-16 -0.49999999999999994
vn -0.6123724356957947 -0.7071067811865475 -0.3535533905932738
vn -1.5908628580873602e-16 -1 -9.184850993605147e-17
vn 0.6123724356957945 -0.7071067811865477 0.3535533905932736
vn 0.8660254037844387 -2.4492935982947064e-16 0.49999999999999994
vn 0.5000000000000001 0 0.8660254037844386
vn 0.35355339059327384 0.7071067811865475 0.6123724356957946
vn 3.0616169978683836e-17 1 5.302876193624534e-17
vn -0.3535533905932738 0.7071067811865476 -0.6123724356957945
vn -0.5000000000000001 1.2246467991473532e-16 -0.8660254037844386
vn -0.3535533905932739 -0.7071067811865475 -0.6123724356957946
vn -9.184850993605151e-17 -1 -1.5908628580873602e-16
vn 0.35355339059327373 -0.7071067811865477 0.6123724356957944
vn 0.5000000000000001 -2.4492935982947064e-16 0.8660254037844386
vn 6.123233995736766e-17 0 1
vn 4.329780281177467e-17 0.7071067811865475 0.7071067811865476
vn 3.749399456654644e-33 1 6.123233995736766e-17
vn -4.329780281177466e-17 0.7071067811865476 -0.7071067811865475
vn -6.123233995736766e-17 1.2246467991473532e-16 -1
vn -4.3297802811774677e-17 -0.7071067811865475 -0.7071067811865477
vn -1.1248198369963932e-32 -1 -1.8369701987210297e-16
vn 4.329780281177465e-17 -0.7071067811865477 0.7071067811865474
vn 6.123233995736766e-17 -2.4492935982947064e-16 1
vn -0.4999999999999998 0 0.8660254037844387
vn -0.3535533905932736 0.7071067811865475 0.6123724356957946
vn -3.061616997868382e-17 1 5.3028761936245346e-17
vn 0.35355339059327356 0.7071067811865476 -0.6123724356957945
vn 0.4999999999999998 1.2246467991473532e-16 -0.8660254037844387
vn 0.3535533905932737 -0.7071067811865475 -0.6123724356957947
vn 9.184850993605145e-17 -1 -1.5908628580873602e-16
vn -0.3535533905932735 -0.7071067811865477 0.6123724356957945
vn -0.4999999999999998 -2.4492935982947064e-16 0.8660254037844387
vn -0.8660254037844387 0 0.49999999999999994
vn -0.6123724356957946 0.7071067811865475 0.35355339059327373
vn -5.3028761936245346e-17 1 3.0616169978683824e-17
vn 0.6123724356957945 0.7071067811865476 -0.3535533905932737
vn 0.8660254037844387 1.2246467991473532e-16 -0.49999999999999994
vn 0.6123724356957947 -0.7071067811865475 -0.3535533905932738
vn 1.5908628580873602e-16 -1 -9.184850993605147e-17
vn -0.6123724356957945 -0.7071067811865477 0.3535533905932736
vn -0.8660254037844387 -2.4492935982947064e-16 0.49999999999999994
vn -1 0 1.2246467991473532e-16
vn -0.7071067811865476 0.7071067811865475 8.659560562354934e-17
vn -6.123233995736766e-17 1 7.498798913309288e-33
vn 0.7071067811865475 0.7071067811865476 -8.659560562354932e-17
vn 1 1.2246467991473532e-16 -1.2246467991473532e-16
vn 0.7071067811865477 -0.7071067811865475 -8.659560562354935e-17
vn 1.8369701987210297e-16 -1 -2.2496396739927864e-32
vn -0.7071067811865474 -0.7071067811865477 8.65956056235493e-17
vn -1 -2.4492935982947064e-16 1.2246467991473532e-16
vn -0.8660254037844386 0 -0.5000000000000001
vn -0.6123724356957946 0.7071067811865475 -0.35355339059327384
vn -5.302876193624534e-17 1 -3.0616169978683836e-17
vn 0.6123724356957945 0.7071067811865476 0.3535533905932738
vn 0.8660254037844386 1.2246467991473532e-16 0.5000000000000001
vn 0.6123724356957946 -0.7071067811865475 0.3535533905932739
vn 1.5908628580873602e-16 -1 9.184850993605151e-17
vn -0.6123724356957944 -0.7071067811865477 -0.35355339059327373
vn -0.8660254037844386 -2.4492935982947064e-16 -0.5000000000000001
vn -0.5000000000000004 0 -0.8660254037844385
vn -0.3535533905932741 0.7071067811865475 -0.6123724356957945
vn -3.0616169978683855e-17 1 -5.3028761936245333e-17
vn 0.35355339059327406 0.7071067811865476 0.6123724356957944
vn 0.5000000000000004 1.2246467991473532e-16 0.8660254037844385
vn 0.3535533905932742 -0.7071067811865475 0.6123724356957946
vn 9.184850993605157e-17 -1 1.59086285808736e-16
vn -0.353553390593274 -0.7071067811865477 -0.6123724356957942
vn -0.5000000000000004 -2.4492935982947064e-16 -0.8660254037844385
vn -1.8369701987210297e-16 0 -1
vn -1.29893408435324e-16 0.7071067811865475 -0.7071067811865476
vn -1.1248198369963932e-32 1 -6.123233995736766e-17
vn 1.2989340843532398e-16 0.7071067811865476 0.7071067811865475
vn 1.8369701987210297e-16 1.2246467991473532e-16 1
vn 1.29893408435324e-16 -0.7071067811865475 0.7071067811865477
vn 3.374459510989179e-32 -1 1.8369701987210297e-16
vn -1.2989340843532396e-16 -0.7071067811865477 -0.7071067811865474
vn -1.8369701987210297e-16 -2.4492935982947064e-16 -1
vn 0.5000000000000001 0 -0.8660254037844386
vn 0.35355339059327384 0.7071067811865475 -0.6123724356957946
vn 3.0616169978683836e-17 1 -5.302876193624534e-17
vn -0.3535533905932738 0.7071067811865476 0.6123724356957945
vn -0.5000000000000001 1.2246467991473532e-16 0.8660254037844386
vn -0.3535533905932739 -0.7071067811865475 0.6123724356957946
vn -9.184850993605151e-17 -1 1.5908628580873602e-16
vn 0.35355339059327373 -0.7071067811865477 -0.6123724356957944
vn 0.5000000000000001 -2.4492935982947064e-16 -0.8660254037844386
vn 0.8660254037844384 0 -0.5000000000000004
vn 0.6123724356957944 0.7071067811865475 -0.3535533905932741
vn 5.302876193624533e-17 1 -3.0616169978683855e-17
vn -0.6123724356957942 0.7071067811865476 0.35355339059327406
vn -0.8660254037844384 1.2246467991473532e-16 0.5000000000000004
vn -0.6123724356957945 -0.7071067811865475 0.3535533905932742
vn -1.5908628580873598e-16 -1 9.184850993605157e-17
vn 0.6123724356957941 -0.7071067811865477 -0.353553390593274
vn 0.8660254037844384 -2.4492935982947064e-16 -0.5000000000000004
vn 1 0 -2.4492935982947064e-16
vn 0.7071067811865476 0.7071067811865475 -1.7319121124709868e-16
vn 6.123233995736766e-17 1 -1.4997597826618576e-32
vn -0.7071067811865475 0.7071067811865476 1.7319121124709863e-16
vn -1 1.2246467991473532e-16 2.4492935982947064e-16
vn -0.7071067811865477 -0.7071067811865475 1.731912112470987e-16
vn -1.8369701987210297e-16 -1 4.499279347985573e-32
vn 0.7071067811865474 -0.7071067811865477 -1.731912112470986e-16
vn 1 -2.4492935982947064e-16 -2.4492935982947064e-16
vn 0 -1 0
vn 0 -1 0
vn 0 -1 0
vn 0 -1 0
vn 0 -1 0
vn 0 -1 0
vn 0 -1 0
vn 0 -1 0
vn 0 -1 0
vn 0 -1 0
vn 0 1 0
vn 0 1 0
vn 0 1 0
vn 0 1 0
vn 0 1 0
vn 0 1 0
vn 0 1 0
vn 0 1 0
vn 0 1 0
vn 0 1 0
vn 0 -1 0
vn 0 1 0
vn 1 0 0
vn 0.7071067811865476 0.7071067811865475 0
vn 6.123233995736766e-17 1 0
vn -0.7071067811865475 0.7071067811865476 0
vn -1 1.2246467991473532e-16 0
vn -0.7071067811865477 -0.7071067811865475 0
vn -1.8369701987210297e-16 -1 0
vn 0.7071067811865474 -0.7071067811865477 0
vn 1 -2.4492935982947064e-16 0
vn 0.8660254037844387 0 0.49999999999999994
vn 0.6123724356957946 0.7071067811865475 0.35355339059327373
vn 5.3028761936245346e-17 1 3.0616169978683824e-17
vn -0.6123724356957945 0.7071067811865476 -0.3535533905932737
vn -0.8660254037844387 1.2246467991473532e-16 -0.49999999999999994
vn -0.6123724356957947 -0.7071067811865475 -0.3535533905932738
vn -1.5908628580873602e-16 -1 -9.184850993605147e-17
vn 0.6123724356957945 -0.7071067811865477 0.3535533905932736
vn 0.8660254037844387 -2.4492935982947064e-16 0.49999999999999994
vn 0.5000000000000001 0 0.8660254037844386
vn 0.35355339059327384 0.7071067811865475 0.6123724356957946
vn 3.0616169978683836e-17 1 5.302876193624534e-17
vn -0.3535533905932738 0.7071067811865476 -0.6123724356957945
vn -0.5000000000000001 1.2246467991473532e-16 -0.8660254037844386
vn -0.3535533905932739 -0.7071067811865475 -0.6123724356957946
vn -9.184850993605151e-17 -1 -1.5908628580873602e-16
vn 0.35355339059327373 -0.7071067811865477 0.6123724356957944
vn 0.5000000000000001 -2.4492935982947064e-16 0.8660254037844386
vn 6.123233995736766e-17 0 1
vn 4.329780281177467e-17 0.7071067811865475 0.7071067811865476
vn 3.749399456654644e-33 1 6.123233995736766e-17
vn -4.329780281177466e-17 0.7071067811865476 -0.7071067811865475
vn -6.123233995736766e-17 1.2246467991473532e-16 -1
vn -4.3297802811774677e-17 -0.7071067811865475 -0.7071067811865477
vn -1.1248198369963932e-32 -1 -1.8369701987210297e-16
vn 4.329780281177465e-17 -0.7071067811865477 0.7071067811865474
vn 6.123233995736766e-17 -2.4492935982947064e-16 1
vn -0.4999999999999998 0 0.8660254037844387
vn -0.3535533905932736 0.7071067811865475 0.6123724356957946
vn -3.061616997868382e-17 1 5.3028761936245346e-17
vn 0.35355339059327356 0.7071067811865476 -0.6123724356957945
vn 0.4999999999999998 1.2246467991473532e-16 -0.8660254037844387
vn 0.3535533905932737 -0.7071067811865475 -0.6123724356957947
vn 9.184850993605145e-17 -1 -1.5908628580873602e-16
vn -0.3535533905932735 -0.7071067811865477 0.6123724356957945
vn -0.4999999999999998 -2.4492935982947064e-16 0.8660254037844387
vn -0.8660254037844387 0 0.49999999999999994
vn -0.6123724356957946 0.7071067811865475 0.35355339059327373
vn -5.3028761936245346e-17 1 3.0616169978683824e-17
vn 0.6123724356957945 0.7071067811865476 -0.3535533905932737
vn 0.8660254037844387 1.2246467991473532e-16 -0.49999999999999994
vn 0.6123724356957947 -0.7071067811865475 -0.3535533905932738
vn 1.5908628580873602e-16 -1 -9.184850993605147e-17
vn -0.6123724356957945 -0.7071067811865477 0.3535533905932736
vn -0.8660254037844387 -2.4492935982947064e-16 0.49999999999999994
vn -1 0 1.2246467991473532e-16
vn -0.7071067811865476 0.7071067811865475 8.659560562354934e-17
vn -6.123233995736766e-17 1 7.498798913309288e-33
vn 0.7071067811865475 0.7071067811865476 -8.659560562354932e-17
vn 1 1.2246467991473532e-16 -1.2246467991473532e-16
vn 0.7071067811865477 -0.7071067811865475 -8.659560562354935e-17
vn 1.8369701987210297e-16 -1 -2.2496396739927864e-32
vn -0.7071067811865474 -0.7071067811865477 8.65956056235493e-17
vn -1 -2.4492935982947064e-16 1.2246467991473532e-16
vn -0.8660254037844386 0 -0.5000000000000001
vn -0.6123724356957946 0.7071067811865475 -0.35355339059327384
vn -5.302876193624534e-17 1 -3.0616169978683836e-17
vn 0.6123724356957945 0.7071067811865476 0.3535533905932738
vn 0.8660254037844386 1.2246467991473532e-16 0.5000000000000001
vn 0.6123724356957946 -0.7071067811865475 0.3535533905932739
vn 1.5908628580873602e-16 -1 9.184850993605151e-17
vn -0.6123724356957944 -0.7071067811865477 -0.35355339059327373
vn -0.8660254037844386 -2.4492935982947064e-16 -0.5000000000000001
vn -0.5000000000000004 0 -0.8660254037844385
vn -0.3535533905932741 0.7071067811865475 -0.6123724356957945
vn -3.0616169978683855e-17 1 -5.3028761936245333e-17
vn 0.35355339059327406 0.7071067811865476 0.6123724356957944
vn 0.5000000000000004 1.2246467991473532e-16 0.8660254037844385
vn 0.3535533905932742 -0.7071067811865475 0.6123724356957946
vn 9.184850993605157e-17 -1 1.59086285808736e-16
vn -0.353553390593274 -0.7071067811865477 -0.6123724356957942
vn -0.5000000000000004 -2.4492935982947064e-16 -0.8660254037844385
vn -1.8369701987210297e-16 0 -1
vn -1.29893408435324e-16 0.7071067811865475 -0.7071067811865476
vn -1.1248198369963932e-32 1 -6.123233995736766e-17
vn 1.2989340843532398e-16 0.7071067811865476 0.7071067811865475
vn 1.8369701987210297e-16 1.2246467991473532e-16 1
vn 1.29893408435324e-16 -0.7071067811865475 0.7071067811865477
vn 3.374459510989179e-32 -1 1.8369701987210297e-16
vn -1.2989340843532396e-16 -0.7071067811865477 -0.7071067811865474
vn -1.8369701987210297e-16 -2.4492935982947064e-16 -1
vn 0.5000000000000001 0 -0.8660254037844386
vn 0.35355339059327384 0.7071067811865475 -0.6123724356957946
vn 3.0616169978683836e-17 1 -5.302876193624534e-17
vn -0.3535533905932738 0.7071067811865476 0.6123724356957945
vn -0.5000000000000001 1.2246467991473532e-16 0.8660254037844386
vn -0.3535533905932739 -0.7071067811865475 0.6123724356957946
vn -9.184850993605151e-17 -1 1.5908628580873602e-16
vn 0.35355339059327373 -0.7071067811865477 -0.6123724356957944
vn 0.5000000000000001 -2.4492935982947064e-16 -0.8660254037844386
vn 0.8660254037844384 0 -0.5000000000000004
vn 0.6123724356957944 0.7071067811865475 -0.3535533905932741
vn 5.302876193624533e-17 1 -3.0616169978683855e-17
vn -0.6123724356957942 0.7071067811865476 0.35355339059327406
vn -0.8660254037844384 1.2246467991473532e-16 0.5000000000000004
vn -0.6123724356957945 -0.7071067811865475 0.3535533905932742
vn -1.5908628580873598e-16 -1 9.184850993605157e-17
vn 0.6123724356957941 -0.7071067811865477 -0.353553390593274
vn 0.8660254037844384 -2.4492935982947064e-16 -0.5000000000000004
vn 1 0 -2.4492935982947064e-16
vn 0.7071067811865476 0.7071067811865475 -1.7319121124709868e-16
vn 6.123233995736766e-17 1 -1.4997597826618576e-32
vn -0.7071067811865475 0.7071067811865476 1.7319121124709863e-16
vn -1 1.2246467991473532e-16 2.4492935982947064e-16
vn -0.7071067811865477 -0.7071067811865475 1.731912112470987e-16
vn -1.8369701987210297e-16 -1 4.499279347985573e-32
vn 0.7071067811865474 -0.7071067811865477 -1.731912112470986e-16
vn 1 -2.4492935982947064e-16 -2.4492935982947064e-16
vn 0 -1 0
vn 0 -1 0
vn 0 -1 0
vn 0 -1 0
vn 0 -1 0
vn 0 -1 0
vn 0 -1 0
vn 0 -1 0
vn 0 -1 0
vn 0 -1 0
vn 0 1 0
vn 0 1 0
vn 0 1 0
vn 0 1 0
vn 0 1 0
vn 0 1 0
vn 0 1 0
vn 0 1 0
vn 0 1 0
vn 0 1 0
vn 0 -1 0
vn 0 1 0
vn 0 1 0
vn 0 1 0
vn 0 1 0
vn 0 1 0
vn 0 1 0
vn 0 1 0
vn 0 1 0
vn 0 1 0
vn 0 1 0
vn 0 1 0
vn 0 1 0
vn 0 1 0
vn 0 1 0
vn 0 1 0
vn 0 1 0
vn 0 1 0
vn 1 0 0
vn 0.7071067811865476 0.7071067811865475 0
vn 6.123233995736766e-17 1 0
vn -0.7071067811865475 0.7071067811865476 0
vn -1 1.2246467991473532e-16 0
vn -0.7071067811865477 -0.7071067811865475 0
vn -1.8369701987210297e-16 -1 0
vn 0.7071067811865474 -0.7071067811865477 0
vn 1 -2.4492935982947064e-16 0
vn 0.8660254037844387 0 0.49999999999999994
vn 0.6123724356957946 0.7071067811865475 0.35355339059327373
vn 5.3028761936245346e-17 1 3.0616169978683824e-17
vn -0.6123724356957945 0.7071067811865476 -0.3535533905932737
vn -0.8660254037844387 1.2246467991473532e-16 -0.49999999999999994
vn -0.6123724356957947 -0.7071067811865475 -0.3535533905932738
vn -1.5908628580873602e-16 -1 -9.184850993605147e-17
vn 0.6123724356957945 -0.7071067811865477 0.3535533905932736
vn 0.8660254037844387 -2.4492935982947064e-16 0.49999999999999994
vn 0.5000000000000001 0 0.8660254037844386
vn 0.35355339059327384 0.7071067811865475 0.6123724356957946
vn 3.0616169978683836e-17 1 5.302876193624534e-17
vn -0.3535533905932738 0.7071067811865476 -0.6123724356957945
vn -0.5000000000000001 1.2246467991473532e-16 -0.8660254037844386
vn -0.3535533905932739 -0.7071067811865475 -0.6123724356957946
vn -9.184850993605151e-17 -1 -1.5908628580873602e-16
vn 0.35355339059327373 -0.7071067811865477 0.6123724356957944
vn 0.5000000000000001 -2.4492935982947064e-16 0.8660254037844386
vn 6.123233995736766e-17 0 1
vn 4.329780281177467e-17 0.7071067811865475 0.7071067811865476
vn 3.749399456654644e-33 1 6.123233995736766e-17
vn -4.329780281177466e-17 0.7071067811865476 -0.7071067811865475
vn -6.123233995736766e-17 1.2246467991473532e-16 -1
vn -4.3297802811774677e-17 -0.7071067811865475 -0.7071067811865477
vn -1.1248198369963932e-32 -1 -1.8369701987210297e-16
vn 4.329780281177465e-17 -0.7071067811865477 0.7071067811865474
vn 6.123233995736766e-17 -2.4492935982947064e-16 1
vn -0.4999999999999998 0 0.8660254037844387
vn -0.3535533905932736 0.7071067811865475 0.6123724356957946
vn -3.061616997868382e-17 1 5.3028761936245346e-17
vn 0.35355339059327356 0.7071067811865476 -0.6123724356957945
vn 0.4999999999999998 1.2246467991473532e-16 -0.8660254037844387
vn 0.3535533905932737 -0.7071067811865475 -0.6123724356957947
vn 9.184850993605145e-17 -1 -1.5908628580873602e-16
vn -0.3535533905932735 -0.7071067811865477 0.6123724356957945
vn -0.4999999999999998 -2.4492935982947064e-16 0.8660254037844387
vn -0.8660254037844387 0 0.49999999999999994
vn -0.6123724356957946 0.7071067811865475 0.35355339059327373
vn -5.3028761936245346e-17 1 3.0616169978683824e-17
vn 0.6123724356957945 0.7071067811865476 -0.3535533905932737
vn 0.8660254037844387 1.2246467991473532e-16 -0.49999999999999994
vn 0.6123724356957947 -0.7071067811865475 -0.3535533905932738
vn 1.5908628580873602e-16 -1 -9.184850993605147e-17
vn -0.6123724356957945 -0.7071067811865477 0.3535533905932736
vn -0.8660254037844387 -2.4492935982947064e-16 0.49999999999999994
vn -1 0 1.2246467991473532e-16
vn -0.7071067811865476 0.7071067811865475 8.659560562354934e-17
vn -6.123233995736766e-17 1 7.498798913309288e-33
vn 0.7071067811865475 0.7071067811865476 -8.659560562354932e-17
vn 1 1.2246467991473532e-16 -1.2246467991473532e-16
vn 0.7071067811865477 -0.7071067811865475 -8.659560562354935e-17
vn 1.8369701987210297e-16 -1 -2.2496396739927864e-32
vn -0.7071067811865474 -0.7071067811865477 8.65956056235493e-17
vn -1 -2.4492935982947064e-16 1.2246467991473532e-16
vn -0.8660254037844386 0 -0.5000000000000001
vn -0.6123724356957946 0.7071067811865475 -0.35355339059327384
vn -5.302876193624534e-17 1 -3.0616169978683836e-17
vn 0.6123724356957945 0.7071067811865476 0.3535533905932738
vn 0.8660254037844386 1.2246467991473532e-16 0.5000000000000001
vn 0.6123724356957946 -0.7071067811865475 0.3535533905932739
vn 1.5908628580873602e-16 -1 9.184850993605151e-17
vn -0.6123724356957944 -0.7071067811865477 -0.35355339059327373
vn -0.8660254037844386 -2.4492935982947064e-16 -0.5000000000000001
vn -0.5000000000000004 0 -0.8660254037844385
vn -0.3535533905932741 0.7071067811865475 -0.6123724356957945
vn -3.0616169978683855e-17 1 -5.3028761936245333e-17
vn 0.35355339059327406 0.7071067811865476 0.6123724356957944
vn 0.5000000000000004 1.2246467991473532e-16 0.8660254037844385
vn 0.3535533905932742 -0.7071067811865475 0.6123724356957946
vn 9.184850993605157e-17 -1 1.59086285808736e-16
vn -0.353553390593274 -0.7071067811865477 -0.6123724356957942
vn -0.5000000000000004 -2.4492935982947064e-16 -0.8660254037844385
vn -1.8369701987210297e-16 0 -1
vn -1.29893408435324e-16 0.7071067811865475 -0.7071067811865476
vn -1.1248198369963932e-32 1 -6.123233995736766e-17
vn 1.2989340843532398e-16 0.7071067811865476 0.7071067811865475
vn 1.8369701987210297e-16 1.2246467991473532e-16 1
vn 1.29893408435324e-16 -0.7071067811865475 0.7071067811865477
vn 3.374459510989179e-32 -1 1.8369701987210297e-16
vn -1.2989340843532396e-16 -0.7071067811865477 -0.7071067811865474
vn -1.8369701987210297e-16 -2.4492935982947064e-16 -1
vn 0.5000000000000001 0 -0.8660254037844386
vn 0.35355339059327384 0.7071067811865475 -0.6123724356957946
vn 3.0616169978683836e-17 1 -5.302876193624534e-17
vn -0.3535533905932738 0.7071067811865476 0.6123724356957945
vn -0.5000000000000001 1.2246467991473532e-16 0.8660254037844386
vn -0.3535533905932739 -0.7071067811865475 0.6123724356957946
vn -9.184850993605151e-17 -1 1.5908628580873602e-16
vn 0.35355339059327373 -0.7071067811865477 -0.6123724356957944
vn 0.5000000000000001 -2.4492935982947064e-16 -0.8660254037844386
vn 0.8660254037844384 0 -0.5000000000000004
vn 0.6123724356957944 0.7071067811865475 -0.3535533905932741
vn 5.302876193624533e-17 1 -3.0616169978683855e-17
vn -0.6123724356957942 0.7071067811865476 0.35355339059327406
vn -0.8660254037844384 1.2246467991473532e-16 0.5000000000000004
vn -0.6123724356957945 -0.7071067811865475 0.3535533905932742
vn -1.5908628580873598e-16 -1 9.184850993605157e-17
vn 0.6123724356957941 -0.7071067811865477 -0.353553390593274
vn 0.8660254037844384 -2.4492935982947064e-16 -0.5000000000000004
vn 1 0 -2.4492935982947064e-16
vn 0.7071067811865476 0.7071067811865475 -1.7319121124709868e-16
vn 6.123233995736766e-17 1 -1.4997597826618576e-32
vn -0.7071067811865475 0.7071067811865476 1.7319121124709863e-16
vn -1 1.2246467991473532e-16 2.4492935982947064e-16
vn -0.7071067811865477 -0.7071067811865475 1.731912112470987e-16
vn -1.8369701987210297e-16 -1 4.499279347985573e-32
vn 0.7071067811865474 -0.7071067811865477 -1.731912112470986e-16
vn 1 -2.4492935982947064e-16 -2.4492935982947064e-16
vn 0 -1 0
vn 0 -1 0
vn 0 -1 0
vn 0 -1 0
vn 0 -1 0
vn 0 -1 0
vn 0 -1 0
vn 0 -1 0
vn 0 -1 0
vn 0 -1 0
vn 0 1 0
vn 0 1 0
vn 0 1 0
vn 0 1 0
vn 0 1 0
vn 0 1 0
vn 0 1 0
vn 0 1 0
vn 0 1 0
vn 0 1 0
vn 0 -1 0
vn 0 1 0
vn 1 0 0
vn 0.7071067811865476 0.7071067811865475 0
vn 6.123233995736766e-17 1 0
vn -0.7071067811865475 0.7071067811865476 0
vn -1 1.2246467991473532e-16 0
vn -0.7071067811865477 -0.7071067811865475 0
vn -1.8369701987210297e-16 -1 0
vn 0.7071067811865474 -0.7071067811865477 0
vn 1 -2.4492935982947064e-16 0
vn 0.8660254037844387 0 0.49999999999999994
vn 0.6123724356957946 0.7071067811865475 0.35355339059327373
vn 5.3028761936245346e-17 1 3.0616169978683824e-17
vn -0.6123724356957945 0.7071067811865476 -0.3535533905932737
vn -0.8660254037844387 1.2246467991473532e-16 -0.49999999999999994
vn -0.6123724356957947 -0.7071067811865475 -0.3535533905932738
vn -1.5908628580873602e-16 -1 -9.184850993605147e-17
vn 0.6123724356957945 -0.7071067811865477 0.3535533905932736
vn 0.8660254037844387 -2.4492935982947064e-16 0.49999999999999994
vn 0.5000000000000001 0 0.8660254037844386
vn 0.35355339059327384 0.7071067811865475 0.6123724356957946
vn 3.0616169978683836e-17 1 5.302876193624534e-17
vn -0.3535533905932738 0.7071067811865476 -0.6123724356957945
vn -0.5000000000000001 1.2246467991473532e-16 -0.8660254037844386
vn -0.3535533905932739 -0.7071067811865475 -0.6123724356957946
vn -9.184850993605151e-17 -1 -1.5908628580873602e-16
vn 0.35355339059327373 -0.7071067811865477 0.6123724356957944
vn 0.5000000000000001 -2.4492935982947064e-16 0.8660254037844386
vn 6.123233995736766e-17 0 1
vn 4.329780281177467e-17 0.7071067811865475 0.7071067811865476
vn 3.749399456654644e-33 1 6.123233995736766e-17
vn -4.329780281177466e-17 0.7071067811865476 -0.7071067811865475
vn -6.123233995736766e-17 1.2246467991473532e-16 -1
vn -4.3297802811774677e-17 -0.7071067811865475 -0.7071067811865477
vn -1.1248198369963932e-32 -1 -1.8369701987210297e-16
vn 4.329780281177465e-17 -0.7071067811865477 0.7071067811865474
vn 6.123233995736766e-17 -2.4492935982947064e-16 1
vn -0.4999999999999998 0 0.8660254037844387
vn -0.3535533905932736 0.7071067811865475 0.6123724356957946
vn -3.061616997868382e-17 1 5.3028761936245346e-17
vn 0.35355339059327356 0.7071067811865476 -0.6123724356957945
vn 0.4999999999999998 1.2246467991473532e-16 -0.8660254037844387
vn 0.3535533905932737 -0.7071067811865475 -0.6123724356957947
vn 9.184850993605145e-17 -1 -1.5908628580873602e-16
vn -0.3535533905932735 -0.7071067811865477 0.6123724356957945
vn -0.4999999999999998 -2.4492935982947064e-16 0.8660254037844387
vn -0.8660254037844387 0 0.49999999999999994
vn -0.6123724356957946 0.7071067811865475 0.35355339059327373
vn -5.3028761936245346e-17 1 3.0616169978683824e-17
vn 0.6123724356957945 0.7071067811865476 -0.3535533905932737
vn 0.8660254037844387 1.2246467991473532e-16 -0.49999999999999994
vn 0.6123724356957947 -0.7071067811865475 -0.3535533905932738
vn 1.5908628580873602e-16 -1 -9.184850993605147e-17
vn -0.6123724356957945 -0.7071067811865477 0.3535533905932736
vn -0.8660254037844387 -2.4492935982947064e-16 0.49999999999999994
vn -1 0 1.2246467991473532e-16
vn -0.7071067811865476 0.7071067811865475 8.659560562354934e-17
vn -6.123233995736766e-17 1 7.498798913309288e-33
vn 0.7071067811865475 0.7071067811865476 -8.659560562354932e-17
vn 1 1.2246467991473532e-16 -1.2246467991473532e-16
vn 0.7071067811865477 -0.7071067811865475 -8.659560562354935e-17
vn 1.8369701987210297e-16 -1 -2.2496396739927864e-32
vn -0.7071067811865474 -0.7071067811865477 8.65956056235493e-17
vn -1 -2.4492935982947064e-16 1.2246467991473532e-16
vn -0.8660254037844386 0 -0.5000000000000001
vn -0.6123724356957946 0.7071067811865475 -0.35355339059327384
vn -5.302876193624534e-17 1 -3.0616169978683836e-17
vn 0.6123724356957945 0.7071067811865476 0.3535533905932738
vn 0.8660254037844386 1.2246467991473532e-16 0.5000000000000001
vn 0.6123724356957946 -0.7071067811865475 0.3535533905932739
vn 1.5908628580873602e-16 -1 9.184850993605151e-17
vn -0.6123724356957944 -0.7071067811865477 -0.35355339059327373
vn -0.8660254037844386 -2.4492935982947064e-16 -0.5000000000000001
vn -0.5000000000000004 0 -0.8660254037844385
vn -0.3535533905932741 0.7071067811865475 -0.6123724356957945
vn -3.0616169978683855e-17 1 -5.3028761936245333e-17
vn 0.35355339059327406 0.7071067811865476 0.6123724356957944
vn 0.5000000000000004 1.2246467991473532e-16 0.8660254037844385
vn 0.3535533905932742 -0.7071067811865475 0.6123724356957946
vn 9.184850993605157e-17 -1 1.59086285808736e-16
vn -0.353553390593274 -0.7071067811865477 -0.6123724356957942
vn -0.5000000000000004 -2.4492935982947064e-16 -0.8660254037844385
vn -1.8369701987210297e-16 0 -1
vn -1.29893408435324e-16 0.7071067811865475 -0.7071067811865476
vn -1.1248198369963932e-32 1 -6.123233995736766e-17
vn 1.2989340843532398e-16 0.7071067811865476 0.7071067811865475
vn 1.8369701987210297e-16 1.2246467991473532e-16 1
vn 1.29893408435324e-16 -0.7071067811865475 0.7071067811865477
vn 3.374459510989179e-32 -1 1.8369701987210297e-16
vn -1.2989340843532396e-16 -0.7071067811865477 -0.7071067811865474
vn -1.8369701987210297e-16 -2.4492935982947064e-16 -1
vn 0.5000000000000001 0 -0.8660254037844386
vn 0.35355339059327384 0.7071067811865475 -0.6123724356957946
vn 3.0616169978683836e-17 1 -5.302876193624534e-17
vn -0.3535533905932738 0.7071067811865476 0.6123724356957945
vn -0.5000000000000001 1.2246467991473532e-16 0.8660254037844386
vn -0.3535533905932739 -0.7071067811865475 0.6123724356957946
vn -9.184850993605151e-17 -1 1.5908628580873602e-16
vn 0.35355339059327373 -0.7071067811865477 -0.6123724356957944
vn 0.5000000000000001 -2.4492935982947064e-16 -0.8660254037844386
vn 0.8660254037844384 0 -0.5000000000000004
vn 0.6123724356957944 0.7071067811865475 -0.3535533905932741
vn 5.302876193624533e-17 1 -3.0616169978683855e-17
vn -0.6123724356957942 0.7071067811865476 0.35355339059327406
vn -0.8660254037844384 1.2246467991473532e-16 0.5000000000000004
vn -0.6123724356957945 -0.7071067811865475 0.3535533905932742
vn -1.5908628580873598e-16 -1 9.184850993605157e-17
vn 0.6123724356957941 -0.7071067811865477 -0.353553390593274
vn 0.8660254037844384 -2.4492935982947064e-16 -0.5000000000000004
vn 1 0 -2.4492935982947064e-16
vn 0.7071067811865476 0.7071067811865475 -1.7319121124709868e-16
vn 6.123233995736766e-17 1 -1.4997597826618576e-32
vn -0.7071067811865475 0.7071067811865476 1.7319121124709863e-16
vn -1 1.2246467991473532e-16 2.4492935982947064e-16
vn -0.7071067811865477 -0.7071067811865475 1.731912112470987e-16
vn -1.8369701987210297e-16 -1 4.499279347985573e-32
vn 0.7071067811865474 -0.7071067811865477 -1.731912112470986e-16
vn 1 -2.4492935982947064e-16 -2.4492935982947064e-16
vn 0 -1 0
vn 0 -1 0
vn 0 -1 0
vn 0 -1 0
vn 0 -1 0
vn 0 -1 0
vn 0 -1 0
vn 0 -1 0
vn 0 -1 0
vn 0 -1 0
vn 0 1 0
vn 0 1 0
vn 0 1 0
vn 0 1 0
vn 0 1 0
vn 0 1 0
vn 0 1 0
vn 0 1 0
vn 0 1 0
vn 0 1 0
vn 0 -1 0
vn 0 1 0
f 1/1/1 3/3/3 2/2/2
f 1/1/1 4/4/4 3/3/3
f 5/5/5 6/6/6 7/7/7
f 5/5/5 7/7/7 8/8/8
f 1/1/1 2/2/2 6/6/6
f 1/1/1 6/6/6 5/5/5
f 3/3/3 4/4/4 8/8/8
f 3/3/3 8/8/8 7/7/7
f 1/1/1 5/5/5 8/8/8
f 1/1/1 8/8/8 4/4/4
f 2/2/2 3/3/3 7/7/7
f 2/2/2 7/7/7 6/6/6
f 9/9/9 11/11/11 10/10/10
f 9/9/9 12/12/12 11/11/11
f 9/9/9 10/10/10 14/14/14
f 9/9/9 14/14/14 13/13/13
f 11/11/11 12/12/12 13/13/13
f 11/11/11 13/13/13 14/14/14
f 9/9/9 13/13/13 12/12/12
f 10/10/10 11/11/11 14/14/14
f 15/15/15 17/17/17 16/16/16
f 15/15/15 18/18/18 17/17/17
f 15/15/15 16/16/16 20/20/20
f 15/15/15 20/20/20 19/19/19
f 17/17/17 18/18/18 19/19/19
f 17/17/17 19/19/19 20/20/20
f 15/15/15 19/19/19 18/18/18
f 16/16/16 17/17/17 20/20/20
f 21/21/21 22/22/22 26/26/26
f 21/21/21 26/26/26 25/25/25
f 29/29/29 22/22/22 21/21/21
f 30/30/30 25/25/25 26/26/26
f 22/22/22 23/23/23 27/27/27
f 22/22/22 27/27/27 26/26/26
f 29/29/29 23/23/23 22/22/22
f 30/30/30 26/26/26 27/27/27
f 23/23/23 24/24/24 28/28/28
f 23/23/23 28/28/28 27/27/27
f 29/29/29 24/24/24 23/23/23
f 30/30/30 27/27/27 28/28/28
f 24/24/24 21/21/21 25/25/25
f 24/24/24 25/25/25 28/28/28
f 29/29/29 21/21/21 24/24/24
f 30/30/30 28/28/28 25/25/25
f 31/31/31 33/33/33 32/32/32
f 31/31/31 34/34/34 33/33/33
f 35/35/35 36/36/36 37/37/37
f 35/35/35 37/37/37 38/38/38
f 31/31/31 32/32/32 36/36/36
f 31/31/31 36/36/36 35/35/35
f 33/33/33 34/34/34 38/38/38
f 33/33/33 38/38/38 37/37/37
f 31/31/31 35/35/35 38/38/38
f 31/31/31 38/38/38 34/34/34
f 32/32/32 33/33/33 37/37/37
f 32/32/32 37/37/37 36/36/36
f 39/39/39 41/41/41 40/40/40
f 39/39/39 42/42/42 41/41/41
f 43/43/43 44/44/44 45/45/45
f 43/43/43 45/45/45 46/46/46
f 39/39/39 40/40/40 44/44/44
f 39/39/39 44/44/44 43/43/43
f 41/41/41 42/42/42 46/46/46
f 41/41/41 46/46/46 45/45/45
f 39/39/39 43/43/43 46/46/46
f 39/39/39 46/46/46 42/42/42
f 40/40/40 41/41/41 45/45/45
f 40/40/40 45/45/45 44/44/44
f 47/47/47 49/49/49 48/48/48
f 47/47/47 50/50/50 49/49/49
f 51/51/51 52/52/52 53/53/53
f 51/51/51 53/53/53 54/54/54
f 47/47/47 48/48/48 52/52/52
f 47/47/47 52/52/52 51/51/51
f 49/49/49 50/50/50 54/54/54
f 49/49/49 54/54/54 53/53/53
f 47/47/47 51/51/51 54/54/54
f 47/47/47 54/54/54 50/50/50
f 48/48/48 49/49/49 53/53/53
f 48/48/48 53/53/53 52/52/52
f 55/55/55 64/64/64 65/65/65
f 55/55/55 65/65/65 56/56/56
f 56/56/56 65/65/65 66/66/66
f 56/56/56 66/66/66 57/57/57
f 57/57/57 66/66/66 67/67/67
f 57/57/57 67/67/67 58/58/58
f 58/58/58 67/67/67 68/68/68
f 58/58/58 68/68/68 59/59/59
f 59/59/59 68/68/68 69/69/69
f 59/59/59 69/69/69 60/60/60
f 60/60/60 69/69/69 70/70/70
f 60/60/60 70/70/70 61/61/61
f 61/61/61 70/70/70 71/71/71
f 61/61/61 71/71/71 62/62/62
f 62/62/62 71/71/71 72/72/72
f 62/62/62 72/72/72 63/63/63
f 64/64/64 73/73/73 74/74/74
f 64/64/64 74/74/74 65/65/65
f 65/65/65 74/74/74 75/75/75
f 65/65/65 75/75/75 66/66/66
f 66/66/66 75/75/75 76/76/76
f 66/66/66 76/76/76 67/67/67
f 67/67/67 76/76/76 77/77/77
f 67/67/67 77/77/77 68/68/68
f 68/68/68 77/77/77 78/78/78
f 68/68/68 78/78/78 69/69/69
f 69/69/69 78/78/78 79/79/79
f 69/69/69 79/79/79 70/70/70
f 70/70/70 79/79/79 80/80/80
f 70/70/70 80/80/80 71/71/71
f 71/71/71 80/80/80 81/81/81
f 71/71/71 81/81/81 72/72/72
f 73/73/73 82/82/82 83/83/83
f 73/73/73 83/83/83 74/74/74
f 74/74/74 83/83/83 84/84/84
f 74/74/74 84/84/84 75/75/75
f 75/75/75 84/84/84 85/85/85
f 75/75/75 85/85/85 76/76/76
f 76/76/76 85/85/85 86/86/86
f 76/76/76 86/86/86 77/77/77
f 77/77/77 86/86/86 87/87/87
f 77/77/77 87/87/87 78/78/78
f 78/78/78 87/87/87 88/88/88
f 78/78/78 88/88/88 79/79/79
f 79/79/79 88/88/88 89/89/89
f 79/79/79 89/89/89 80/80/80
f 80/80/80 89/89/89 90/90/90
f 80/80/80 90/90/90 81/81/81
f 82/82/82 91/91/91 92/92/92
f 82/82/82 92/92/92 83/83/83
f 83/83/83 92/92/92 93/93/93
f 83/83/83 93/93/93 84/84/84
f 84/84/84 93/93/93 94/94/94
f 84/84/84 94/94/94 85/85/85
f 85/85/85 94/94/94 95/95/95
f 85/85/85 95/95/95 86/86/86
f 86/86/86 95/95/95 96/96/96
f 86/86/86 96/96/96 87/87/87
f 87/87/87 96/96/96 97/97/97
f 87/87/87 97/97/97 88/88/88
f 88/88/88 97/97/97 98/98/98
f 88/88/88 98/98/98 89/89/89
f 89/89/89 98/98/98 99/99/99
f 89/89/89 99/99/99 90/90/90
f 91/91/91 100/100/100 101/101/101
f 91/91/91 101/101/101 92/92/92
f 92/92/92 101/101/101 102/102/102
f 92/92/92 102/102/102 93/93/93
f 93/93/93 102/102/102 103/103/103
f 93/93/93 103/103/103 94/94/94
f 94/94/94 103/103/103 104/104/104
f 94/94/94 104/104/104 95/95/95
f 95/95/95 104/104/104 105/105/105
f 95/95/95 105/105/105 96/96/96
f 96/96/96 105/105/105 106/106/106
f 96/96/96 106/106/106 97/97/97
f 97/97/97 106/106/106 107/107/107
f 97/97/97 107/107/107 98/98/98
f 98/98/98 107/107/107 108/108/108
f 98/98/98 108/108/108 99/99/99
f 100/100/100 109/109/109 110/110/110
f 100/100/100 110/110/110 101/101/101
f 101/101/101 110/110/110 111/111/111
f 101/101/101 111/111/111 102/102/102
f 102/102/102 111/111/111 112/112/112
f 102/102/102 112/112/112 103/103/103
f 103/103/103 112/112/112 113/113/113
f 103/103/103 113/113/113 104/104/104
f 104/104/104 113/113/113 114/114/114
f 104/104/104 114/114/114 105/105/105
f 105/105/105 114/114/114 115/115/115
f 105/105/105 115/115/115 106/106/106
f 106/106/106 115/115/115 116/116/116
f 106/106/106 116/116/116 107/107/107
f 107/107/107 116/116/116 117/117/117
f 107/107/107 117/117/117 108/108/108
f 109/109/109 118/118/118 119/119/119
f 109/109/109 119/119/119 110/110/110
f 110/110/110 119/119/119 120/120/120
f 110/110/110 120/120/120 111/111/111
f 111/111/111 120/120/120 121/121/121
f 111/111/111 121/121/121 112/112/112
f 112/112/112 121/121/121 122/122/122
f 112/112/112 122/122/122 113/113/113
f 113/113/113 122/122/122 123/123/123
f 113/113/113 123/123/123 114/114/114
f 114/114/114 123/123/123 124/124/124
f 114/114/114 124/124/124 115/115/115
f 115/115/115 124/124/124 125/125/125
f 115/115/115 125/125/125 116/116/116
f 116/116/116 125/125/125 126/126/126
f 116/116/116 126/126/126 117/117/117
f 118/118/118 127/127/127 128/128/128
f 118/118/118 128/128/128 119/119/119
f 119/119/119 128/128/128 129/129/129
f 119/119/119 129/129/129 120/120/120
f 120/120/120 129/129/129 130/130/130
f 120/120/120 130/130/130 121/121/121
f 121/121/121 130/130/130 131/131/131
f 121/121/121 131/131/131 122/122/122
f 122/122/122 131/131/131 132/132/132
f 122/122/122 132/132/132 123/123/123
f 123/123/123 132/132/132 133/133/133
f 123/123/123 133/133/133 124/124/124
f 124/124/124 133/133/133 134/134/134
f 124/124/124 134/134/134 125/125/125
f 125/125/125 134/134/134 135/135/135
f 125/125/125 135/135/135 126/126/126
f 127/127/127 136/136/136 137/137/137
f 127/127/127 137/137/137 128/128/128
f 128/128/128 137/137/137 138/138/138
f 128/128/128 138/138/138 129/129/129
f 129/129/129 138/138/138 139/139/139
f 129/129/129 139/139/139 130/130/130
f 130/130/130 139/139/139 140/140/140
f 130/130/130 140/140/140 131/131/131
f 131/131/131 140/140/140 141/141/141
f 131/131/131 141/141/141 132/132/132
f 132/132/132 141/141/141 142/142/142
f 132/132/132 142/142/142 133/133/133
f 133/133/133 142/142/142 143/143/143
f 133/133/133 143/143/143 134/134/134
f 134/134/134 143/143/143 144/144/144
f 134/134/134 144/144/144 135/135/135
f 136/136/136 145/145/145 146/146/146
f 136/136/136 146/146/146 137/137/137
f 137/137/137 146/146/146 147/147/147
f 137/137/137 147/147/147 138/138/138
f 138/138/138 147/147/147 148/148/148
f 138/138/138 148/148/148 139/139/139
f 139/139/139 148/148/148 149/149/149
f 139/139/139 149/149/149 140/140/140
f 140/140/140 149/149/149 150/150/150
f 140/140/140 150/150/150 141/141/141
f 141/141/141 150/150/150 151/151/151
f 141/141/141 151/151/151 142/142/142
f 142/142/142 151/151/151 152/152/152
f 142/142/142 152/152/152 143/143/143
f 143/143/143 152/152/152 153/153/153
f 143/143/143 153/153/153 144/144/144
f 145/145/145 154/154/154 155/155/155
f 145/145/145 155/155/155 146/146/146
f 146/146/146 155/155/155 156/156/156
f 146/146/146 156/156/156 147/147/147
f 147/147/147 156/156/156 157/157/157
f 147/147/147 157/157/157 148/148/148
f 148/148/148 157/157/157 158/158/158
f 148/148/148 158/158/158 149/149/149
f 149/149/149 158/158/158 159/159/159
f 149/149/149 159/159/159 150/150/150
f 150/150/150 159/159/159 160/160/160
f 150/150/150 160/160/160 151/151/151
f 151/151/151 160/160/160 161/161/161
f 151/151/151 161/161/161 152/152/152
f 152/152/152 161/161/161 162/162/162
f 152/152/152 162/162/162 153/153/153
f 154/154/154 163/163/163 164/164/164
f 154/154/154 164/164/164 155/155/155
f 155/155/155 164/164/164 165/165/165
f 155/155/155 165/165/165 156/156/156
f 156/156/156 165/165/165 166/166/166
f 156/156/156 166/166/166 157/157/157
f 157/157/157 166/166/166 167/167/167
f 157/157/157 167/167/167 158/158/158
f 158/158/158 167/167/167 168/168/168
f 158/158/158 168/168/168 159/159/159
f 159/159/159 168/168/168 169/169/169
f 159/159/159 169/169/169 160/160/160
f 160/160/160 169/169/169 170/170/170
f 160/160/160 170/170/170 161/161/161
f 161/161/161 170/170/170 171/171/171
f 161/161/161 171/171/171 162/162/162
f 172/172/172 173/173/173 183/183/183
f 172/172/172 183/183/183 182/182/182
f 192/192/192 173/173/173 172/172/172
f 193/193/193 182/182/182 183/183/183
f 173/173/173 174/174/174 184/184/184
f 173/173/173 184/184/184 183/183/183
f 192/192/192 174/174/174 173/173/173
f 193/193/193 183/183/183 184/184/184
f 174/174/174 175/175/175 185/185/185
f 174/174/174 185/185/185 184/184/184
f 192/192/192 175/175/175 174/174/174
f 193/193/193 184/184/184 185/185/185
f 175/175/175 176/176/176 186/186/186
f 175/175/175 186/186/186 185/185/185
f 192/192/192 176/176/176 175/175/175
f 193/193/193 185/185/185 186/186/186
f 176/176/176 177/177/177 187/187/187
f 176/176/176 187/187/187 186/186/186
f 192/192/192 177/177/177 176/176/176
f 193/193/193 186/186/186 187/187/187
f 177/177/177 178/178/178 188/188/188
f 177/177/177 188/188/188 187/187/187
f 192/192/192 178/178/178 177/177/177
f 193/193/193 187/187/187 188/188/188
f 178/178/178 179/179/179 189/189/189
f 178/178/178 189/189/189 188/188/188
f 192/192/192 179/179/179 178/178/178
f 193/193/193 188/188/188 189/189/189
f 179/179/179 180/180/180 190/190/190
f 179/179/179 190/190/190 189/189/189
f 192/192/192 180/180/180 179/179/179
f 193/193/193 189/189/189 190/190/190
f 180/180/180 181/181/181 191/191/191
f 180/180/180 191/191/191 190/190/190
f 192/192/192 181/181/181 180/180/180
f 193/193/193 190/190/190 191/191/191
f 181/181/181 172/172/172 182/182/182
f 181/181/181 182/182/182 191/191/191
f 192/192/192 172/172/172 181/181/181
f 193/193/193 191/191/191 182/182/182
f 194/194/194 203/203/203 204/204/204
f 194/194/194 204/204/204 195/195/195
f 195/195/195 204/204/204 205/205/205
f 195/195/195 205/205/205 196/196/196
f 196/196/196 205/205/205 206/206/206
f 196/196/196 206/206/206 197/197/197
f 197/197/197 206/206/206 207/207/207
f 197/197/197 207/207/207 198/198/198
f 198/198/198 207/207/207 208/208/208
f 198/198/198 208/208/208 199/199/199
f 199/199/199 208/208/208 209/209/209
f 199/199/199 209/209/209 200/200/200
f 200/200/200 209/209/209 210/210/210
f 200/200/200 210/210/210 201/201/201
f 201/201/201 210/210/210 211/211/211
f 201/201/201 211/211/211 202/202/202
f 203/203/203 212/212/212 213/213/213
f 203/203/203 213/213/213 204/204/204
f 204/204/204 213/213/213 214/214/214
f 204/204/204 214/214/214 205/205/205
f 205/205/205 214/214/214 215/215/215
f 205/205/205 215/215/215 206/206/206
f 206/206/206 215/215/215 216/216/216
f 206/206/206 216/216/216 207/207/207
f 207/207/207 216/216/216 217/217/217
f 207/207/207 217/217/217 208/208/208
f 208/208/208 217/217/217 218/218/218
f 208/208/208 218/218/218 209/209/209
f 209/209/209 218/218/218 219/219/219
f 209/209/209 219/219/219 210/210/210
f 210/210/210 219/219/219 220/220/220
f 210/210/210 220/220/220 211/211/211
f 212/212/212 221/221/221 222/222/222
f 212/212/212 222/222/222 213/213/213
f 213/213/213 222/222/222 223/223/223
f 213/213/213 223/223/223 214/214/214
f 214/214/214 223/223/223 224/224/224
f 214/214/214 224/224/224 215/215/215
f 215/215/215 224/224/224 225/225/225
f 215/215/215 225/225/225 216/216/216
f 216/216/216 225/225/225 226/226/226
f 216/216/216 226/226/226 217/217/217
f 217/217/217 226/226/226 227/227/227
f 217/217/217 227/227/227 218/218/218
f 218/218/218 227/227/227 228/228/228
f 218/218/218 228/228/228 219/219/219
f 219/219/219 228/228/228 229/229/229
f 219/219/219 229/229/229 220/220/220
f 221/221/221 230/230/230 231/231/231
f 221/221/221 231/231/231 222/222/222
f 222/222/222 231/231/231 232/232/232
f 222/222/222 232/232/232 223/223/223
f 223/223/223 232/232/232 233/233/233
f 223/223/223 233/233/233 224/224/224
f 224/224/224 233/233/233 234/234/234
f 224/224/224 234/234/234 225/225/225
f 225/225/225 234/234/234 235/235/235
f 225/225/225 235/235/235 226/226/226
f 226/226/226 235/235/235 236/236/236
f 226/226/226 236/236/236 227/227/227
f 227/227/227 236/236/236 237/237/237
f 227/227/227 237/237/237 228/228/228
f 228/228/228 237/237/237 238/238/238
f 228/228/228 238/238/238 229/229/229
f 230/230/230 239/239/239 240/240/240
f 230/230/230 240/240/240 231/231/231
f 231/231/231 240/240/240 241/241/241
f 231/231/231 241/241/241 232/232/232
f 232/232/232 241/241/241 242/242/242
f 232/232/232 242/242/242 233/233/233
f 233/233/233 242/242/242 243/243/243
f 233/233/233 243/243/243 234/234/234
f 234/234/234 243/243/243 244/244/244
f 234/234/234 244/244/244 235/235/235
f 235/235/235 244/244/244 245/245/245
f 235/235/235 245/245/245 236/236/236
f 236/236/236 245/245/245 246/246/246
f 236/236/236 246/246/246 237/237/237
f 237/237/237 246/246/246 247/247/247
f 237/237/237 247/247/247 238/238/238
f 239/239/239 248/248/248 249/249/249
f 239/239/239 249/249/249 240/240/240
f 240/240/240 249/249/249 250/250/250
f 240/240/240 250/250/250 241/241/241
f 241/241/241 250/250/250 251/251/251
f 241/241/241 251/251/251 242/242/242
f 242/242/242 251/251/251 252/252/252
f 242/242/242 252/252/252 243/243/243
f 243/243/243 252/252/252 253/253/253
f 243/243/243 253/253/253 244/244/244
f 244/244/244 253/253/253 254/254/254
f 244/244/244 254/254/254 245/245/245
f 245/245/245 254/254/254 255/255/255
f 245/245/245 255/255/255 246/246/246
f 246/246/246 255/255/255 256/256/256
f 246/246/246 256/256/256 247/247/247
f 248/248/248 257/257/257 258/258/258
f 248/248/248 258/258/258 249/249/249
f 249/249/249 258/258/258 259/259/259
f 249/249/249 259/259/259 250/250/250
f 250/250/250 259/259/259 260/260/260
f 250/250/250 260/260/260 251/251/251
f 251/251/251 260/260/260 261/261/261
f 251/251/251 261/261/261 252/252/252
f 252/252/252 261/261/261 262/262/262
f 252/252/252 262/262/262 253/253/253
f 253/253/253 262/262/262 263/263/263
f 253/253/253 263/263/263 254/254/254
f 254/254/254 263/263/263 264/264/264
f 254/254/254 264/264/264 255/255/255
f 255/255/255 264/264/264 265/265/265
f 255/255/255 265/265/265 256/256/256
f 257/257/257 266/266/266 267/267/267
f 257/257/257 267/267/267 258/258/258
f 258/258/258 267/267/267 268/268/268
f 258/258/258 268/268/268 259/259/259
f 259/259/259 268/268/268 269/269/269
f 259/259/259 269/269/269 260/260/260
f 260/260/260 269/269/269 270/270/270
f 260/260/260 270/270/270 261/261/261
f 261/261/261 270/270/270 271/271/271
f 261/261/261 271/271/271 262/262/262
f 262/262/262 271/271/271 272/272/272
f 262/262/262 272/272/272 263/263/263
f 263/263/263 272/272/272 273/273/273
f 263/263/263 273/273/273 264/264/264
f 264/264/264 273/273/273 274/274/274
f 264/264/264 274/274/274 265/265/265
f 266/266/266 275/275/275 276/276/276
f 266/266/266 276/276/276 267/267/267
f 267/267/267 276/276/276 277/277/277
f 267/267/267 277/277/277 268/268/268
f 268/268/268 277/277/277 278/278/278
f 268/268/268 278/278/278 269/269/269
f 269/269/269 278/278/278 279/279/279
f 269/269/269 279/279/279 270/270/270
f 270/270/270 279/279/279 280/280/280
f 270/270/270 280/280/280 271/271/271
f 271/271/271 280/280/280 281/281/281
f 271/271/271 281/281/281 272/272/272
f 272/272/272 281/281/281 282/282/282
f 272/272/272 282/282/282 273/273/273
f 273/273/273 282/282/282 283/283/283
f 273/273/273 283/283/283 274/274/274
f 275/275/275 284/284/284 285/285/285
f 275/275/275 285/285/285 276/276/276
f 276/276/276 285/285/285 286/286/286
f 276/276/276 286/286/286 277/277/277
f 277/277/277 286/286/286 287/287/287
f 277/277/277 287/287/287 278/278/278
f 278/278/278 287/287/287 288/288/288
f 278/278/278 288/288/288 279/279/279
f 279/279/279 288/288/288 289/289/289
f 279/279/279 289/289/289 280/280/280
f 280/280/280 289/289/289 290/290/290
f 280/280/280 290/290/290 281/281/281
f 281/281/281 290/290/290 291/291/291
f 281/281/281 291/291/291 282/282/282
f 282/282/282 291/291/291 292/292/292
f 282/282/282 292/292/292 283/283/283
f 284/284/284 293/293/293 294/294/294
f 284/284/284 294/294/294 285/285/285
f 285/285/285 294/294/294 295/295/295
f 285/285/285 295/295/295 286/286/286
f 286/286/286 295/295/295 296/296/296
f 286/286/286 296/296/296 287/287/287
f 287/287/287 296/296/296 297/297/297
f 287/287/287 297/297/297 288/288/288
f 288/288/288 297/297/297 298/298/298
f 288/288/288 298/298/298 289/289/289
f 289/289/289 298/298/298 299/299/299
f 289/289/289 299/299/299 290/290/290
f 290/290/290 299/299/299 300/300/300
f 290/290/290 300/300/300 291/291/291
f 291/291/291 300/300/300 301/301/301
f 291/291/291 301/301/301 292/292/292
f 293/293/293 302/302/302 303/303/303
f 293/293/293 303/303/303 294/294/294
f 294/294/294 303/303/303 304/304/304
f 294/294/294 304/304/304 295/295/295
f 295/295/295 304/304/304 305/305/305
f 295/295/295 305/305/305 296/296/296
f 296/296/296 305/305/305 306/306/306
f 296/296/296 306/306/306 297/297/297
f 297/297/297 306/306/306 307/307/307
f 297/297/297 307/307/307 298/298/298
f 298/298/298 307/307/307 308/308/308
f 298/298/298 308/308/308 299/299/299
f 299/299/299 308/308/308 309/309/309
f 299/299/299 309/309/309 300/300/300
f 300/300/300 309/309/309 310/310/310
f 300/300/300 310/310/310 301/301/301
f 311/311/311 312/312/312 322/322/322
f 311/311/311 322/322/322 321/321/321
f 331/331/331 312/312/312 311/311/311
f 332/332/332 321/321/321 322/322/322
f 312/312/312 313/313/313 323/323/323
f 312/312/312 323/323/323 322/322/322
f 331/331/331 313/313/313 312/312/312
f 332/332/332 322/322/322 323/323/323
f 313/313/313 314/314/314 324/324/324
f 313/313/313 324/324/324 323/323/323
f 331/331/331 314/314/314 313/313/313
f 332/332/332 323/323/323 324/324/324
f 314/314/314 315/315/315 325/325/325
f 314/314/314 325/325/325 324/324/324
f 331/331/331 315/315/315 314/314/314
f 332/332/332 324/324/324 325/325/325
f 315/315/315 316/316/316 326/326/326
f 315/315/315 326/326/326 325/325/325
f 331/331/331 316/316/316 315/315/315
f 332/332/332 325/325/325 326/326/326
f 316/316/316 317/317/317 327/327/327
f 316/316/316 327/327/327 326/326/326
f 331/331/331 317/317/317 316/316/316
f 332/332/332 326/326/326 327/327/327
f 317/317/317 318/318/318 328/328/328
f 317/317/317 328/328/328 327/327/327
f 331/331/331 318/318/318 317/317/317
f 332/332/332 327/327/327 328/328/328
f 318/318/318 319/319/319 329/329/329
f 318/318/318 329/329/329 328/328/328
f 331/331/331 319/319/319 318/318/318
f 332/332/332 328/328/328 329/329/329
f 319/319/319 320/320/320 330/330/330
f 319/319/319 330/330/330 329/329/329
f 331/331/331 320/320/320 319/319/319
f 332/332/332 329/329/329 330/330/330
f 320/320/320 311/311/311 321/321/321
f 320/320/320 321/321/321 330/330/330
f 331/331/331 311/311/311 320/320/320
f 332/332/332 330/330/330 321/321/321
f 333/333/333 335/335/335 334/334/334
f 333/333/333 336/336/336 335/335/335
f 337/337/337 338/338/338 339/339/339
f 337/337/337 339/339/339 340/340/340
f 333/333/333 334/334/334 338/338/338
f 333/333/333 338/338/338 337/337/337
f 335/335/335 336/336/336 340/340/340
f 335/335/335 340/340/340 339/339/339
f 333/333/333 337/337/337 340/340/340
f 333/333/333 340/340/340 336/336/336
f 334/334/334 335/335/335 339/339/339
f 334/334/334 339/339/339 338/338/338
f 341/341/341 343/343/343 342/342/342
f 341/341/341 344/344/344 343/343/343
f 345/345/345 346/346/346 347/347/347
f 345/345/345 347/347/347 348/348/348
f 341/341/341 342/342/342 346/346/346
f 341/341/341 346/346/346 345/345/345
f 343/343/343 344/344/344 348/348/348
f 343/343/343 348/348/348 347/347/347
f 341/341/341 345/345/345 348/348/348
f 341/341/341 348/348/348 344/344/344
f 342/342/342 343/343/343 347/347/347
f 342/342/342 347/347/347 346/346/346
f 349/349/349 358/358/358 359/359/359
f 349/349/349 359/359/359 350/350/350
f 350/350/350 359/359/359 360/360/360
f 350/350/350 360/360/360 351/351/351
f 351/351/351 360/360/360 361/361/361
f 351/351/351 361/361/361 352/352/352
f 352/352/352 361/361/361 362/362/362
f 352/352/352 362/362/362 353/353/353
f 353/353/353 362/362/362 363/363/363
f 353/353/353 363/363/363 354/354/354
f 354/354/354 363/363/363 364/364/364
f 354/354/354 364/364/364 355/355/355
f 355/355/355 364/364/364 365/365/365
f 355/355/355 365/365/365 356/356/356
f 356/356/356 365/365/365 366/366/366
f 356/356/356 366/366/366 357/357/357
f 358/358/358 367/367/367 368/368/368
f 358/358/358 368/368/368 359/359/359
f 359/359/359 368/368/368 369/369/369
f 359/359/359 369/369/369 360/360/360
f 360/360/360 369/369/369 370/370/370
f 360/360/360 370/370/370 361/361/361
f 361/361/361 370/370/370 371/371/371
f 361/361/361 371/371/371 362/362/362
f 362/362/362 371/371/371 372/372/372
f 362/362/362 372/372/372 363/363/363
f 363/363/363 372/372/372 373/373/373
f 363/363/363 373/373/373 364/364/364
f 364/364/364 373/373/373 374/374/374
f 364/364/364 374/374/374 365/365/365
f 365/365/365 374/374/374 375/375/375
f 365/365/365 375/375/375 366/366/366
f 367/367/367 376/376/376 377/377/377
f 367/367/367 377/377/377 368/368/368
f 368/368/368 377/377/377 378/378/378
f 368/368/368 378/378/378 369/369/369
f 369/369/369 378/378/378 379/379/379
f 369/369/369 379/379/379 370/370/370
f 370/370/370 379/379/379 380/380/380
f 370/370/370 380/380/380 371/371/371
f 371/371/371 380/380/380 381/381/381
f 371/371/371 381/381/381 372/372/372
f 372/372/372 381/381/381 382/382/382
f 372/372/372 382/382/382 373/373/373
f 373/373/373 382/382/382 383/383/383
f 373/373/373 383/383/383 374/374/374
f 374/374/374 383/383/383 384/384/384
f 374/374/374 384/384/384 375/375/375
f 376/376/376 385/385/385 386/386/386
f 376/376/376 386/386/386 377/377/377
f 377/377/377 386/386/386 387/387/387
f 377/377/377 387/387/387 378/378/378
f 378/378/378 387/387/387 388/388/388
f 378/378/378 388/388/388 379/379/379
f 379/379/379 388/388/388 389/389/389
f 379/379/379 389/389/389 380/380/380
f 380/380/380 389/389/389 390/390/390
f 380/380/380 390/390/390 381/381/381
f 381/381/381 390/390/390 391/391/391
f 381/381/381 391/391/391 382/382/382
f 382/382/382 391/391/391 392/392/392
f 382/382/382 392/392/392 383/383/383
f 383/383/383 392/392/392 393/393/393
f 383/383/383 393/393/393 384/384/384
f 385/385/385 394/394/394 395/395/395
f 385/385/385 395/395/395 386/386/386
f 386/386/386 395/395/395 396/396/396
f 386/386/386 396/396/396 387/387/387
f 387/387/387 396/396/396 397/397/397
f 387/387/387 397/397/397 388/388/388
f 388/388/388 397/397/397 398/398/398
f 388/388/388 398/398/398 389/389/389
f 389/389/389 398/398/398 399/399/399
f 389/389/389 399/399/399 390/390/390
f 390/390/390 399/399/399 400/400/400
f 390/390/390 400/400/400 391/391/391
f 391/391/391 400/400/400 401/401/401
f 391/391/391 401/401/401 392/392/392
f 392/392/392 401/401/401 402/402/402
f 392/392/392 402/402/402 393/393/393
f 394/394/394 403/403/403 404/404/404
f 394/394/394 404/404/404 395/395/395
f 395/395/395 404/404/404 405/405/405
f 395/395/395 405/405/405 396/396/396
f 396/396/396 405/405/405 406/406/406
f 396/396/396 406/406/406 397/397/397
f 397/397/397 406/406/406 407/407/407
f 397/397/397 407/407/407 398/398/398
f 398/398/398 407/407/407 408/408/408
f 398/398/398 408/408/408 399/399/399
f 399/399/399 408/408/408 409/409/409
f 399/399/399 409/409/409 400/400/400
f 400/400/400 409/409/409 410/410/410
f 400/400/400 410/410/410 401/401/401
f 401/401/401 410/410/410 411/411/411
f 401/401/401 411/411/411 402/402/402
f 403/403/403 412/412/412 413/413/413
f 403/403/403 413/413/413 404/404/404
f 404/404/404 413/413/413 414/414/414
f 404/404/404 414/414/414 405/405/405
f 405/405/405 414/414/414 415/415/415
f 405/405/405 415/415/415 406/406/406
f 406/406/406 415/415/415 416/416/416
f 406/406/406 416/416/416 407/407/407
f 407/407/407 416/416/416 417/417/417
f 407/407/407 417/417/417 408/408/408
f 408/408/408 417/417/417 418/418/418
f 408/408/408 418/418/418 409/409/409
f 409/409/409 418/418/418 419/419/419
f 409/409/409 419/419/419 410/410/410
f 410/410/410 419/419/419 420/420/420
f 410/410/410 420/420/420 411/411/411
f 412/412/412 421/421/421 422/422/422
f 412/412/412 422/422/422 413/413/413
f 413/413/413 422/422/422 423/423/423
f 413/413/413 423/423/423 414/414/414
f 414/414/414 423/423/423 424/424/424
f 414/414/414 424/424/424 415/415/415
f 415/415/415 424/424/424 425/425/425
f 415/415/415 425/425/425 416/416/416
f 416/416/416 425/425/425 426/426/426
f 416/416/416 426/426/426 417/417/417
f 417/417/417 426/426/426 427/427/427
f 417/417/417 427/427/427 418/418/418
f 418/418/418 427/427/427 428/428/428
f 418/418/418 428/428/428 419/419/419
f 419/419/419 428/428/428 429/429/429
f 419/419/419 429/429/429 420/420/420
f 421/421/421 430/430/430 431/431/431
f 421/421/421 431/431/431 422/422/422
f 422/422/422 431/431/431 432/432/432
f 422/422/422 432/432/432 423/423/423
f 423/423/423 432/432/432 433/433/433
f 423/423/423 433/433/433 424/424/424
f 424/424/424 433/433/433 434/434/434
f 424/424/424 434/434/434 425/425/425
f 425/425/425 434/434/434 435/435/435
f 425/425/425 435/435/435 426/426/426
f 426/426/426 435/435/435 436/436/436
f 426/426/426 436/436/436 427/427/427
f 427/427/427 436/436/436 437/437/437
f 427/427/427 437/437/437 428/428/428
f 428/428/428 437/437/437 438/438/438
f 428/428/428 438/438/438 429/429/429
f 430/430/430 439/439/439 440/440/440
f 430/430/430 440/440/440 431/431/431
f 431/431/431 440/440/440 441/441/441
f 431/431/431 441/441/441 432/432/432
f 432/432/432 441/441/441 442/442/442
f 432/432/432 442/442/442 433/433/433
f 433/433/433 442/442/442 443/443/443
f 433/433/433 443/443/443 434/434/434
f 434/434/434 443/443/443 444/444/444
f 434/434/434 444/444/444 435/435/435
f 435/435/435 444/444/444 445/445/445
f 435/435/435 445/445/445 436/436/436
f 436/436/436 445/445/445 446/446/446
f 436/436/436 446/446/446 437/437/437
f 437/437/437 446/446/446 447/447/447
f 437/437/437 447/447/447 438/438/438
f 439/439/439 448/448/448 449/449/449
f 439/439/439 449/449/449 440/440/440
f 440/440/440 449/449/449 450/450/450
f 440/440/440 450/450/450 441/441/441
f 441/441/441 450/450/450 451/451/451
f 441/441/441 451/451/451 442/442/442
f 442/442/442 451/451/451 452/452/452
f 442/442/442 452/452/452 443/443/443
f 443/443/443 452/452/452 453/453/453
f 443/443/443 453/453/453 444/444/444
f 444/444/444 453/453/453 454/454/454
f 444/444/444 454/454/454 445/445/445
f 445/445/445 454/454/454 455/455/455
f 445/445/445 455/455/455 446/446/446
f 446/446/446 455/455/455 456/456/456
f 446/446/446 456/456/456 447/447/447
f 448/448/448 457/457/457 458/458/458
f 448/448/448 458/458/458 449/449/449
f 449/449/449 458/458/458 459/459/459
f 449/449/449 459/459/459 450/450/450
f 450/450/450 459/459/459 460/460/460
f 450/450/450 460/460/460 451/451/451
f 451/451/451 460/460/460 461/461/461
f 451/451/451 461/461/461 452/452/452
f 452/452/452 461/461/461 462/462/462
f 452/452/452 462/462/462 453/453/453
f 453/453/453 462/462/462 463/463/463
f 453/453/453 463/463/463 454/454/454
f 454/454/454 463/463/463 464/464/464
f 454/454/454 464/464/464 455/455/455
f 455/455/455 464/464/464 465/465/465
f 455/455/455 465/465/465 456/456/456
f 466/466/466 467/467/467 477/477/477
f 466/466/466 477/477/477 476/476/476
f 486/486/486 467/467/467 466/466/466
f 487/487/487 476/476/476 477/477/477
f 467/467/467 468/468/468 478/478/478
f 467/467/467 478/478/478 477/477/477
f 486/486/486 468/468/468 467/467/467
f 487/487/487 477/477/477 478/478/478
f 468/468/468 469/469/469 479/479/479
f 468/468/468 479/479/479 478/478/478
f 486/486/486 469/469/469 468/468/468
f 487/487/487 478/478/478 479/479/479
f 469/469/469 470/470/470 480/480/480
f 469/469/469 480/480/480 479/479/479
f 486/486/486 470/470/470 469/469/469
f 487/487/487 479/479/479 480/480/480
f 470/470/470 471/471/471 481/481/481
f 470/470/470 481/481/481 480/480/480
f 486/486/486 471/471/471 470/470/470
f 487/487/487 480/480/480 481/481/481
f 471/471/471 472/472/472 482/482/482
f 471/471/471 482/482/482 481/481/481
f 486/486/486 472/472/472 471/471/471
f 487/487/487 481/481/481 482/482/482
f 472/472/472 473/473/473 483/483/483
f 472/472/472 483/483/483 482/482/482
f 486/486/486 473/473/473 472/472/472
f 487/487/487 482/482/482 483/483/483
f 473/473/473 474/474/474 484/484/484
f 473/473/473 484/484/484 483/483/483
f 486/486/486 474/474/474 473/473/473
f 487/487/487 483/483/483 484/484/484
f 474/474/474 475/475/475 485/485/485
f 474/474/474 485/485/485 484/484/484
f 486/486/486 475/475/475 474/474/474
f 487/487/487 484/484/484 485/485/485
f 475/475/475 466/466/466 476/476/476
f 475/475/475 476/476/476 485/485/485
f 486/486/486 466/466/466 475/475/475
f 487/487/487 485/485/485 476/476/476
f 488/488/488 497/497/497 498/498/498
f 488/488/488 498/498/498 489/489/489
f 489/489/489 498/498/498 499/499/499
f 489/489/489 499/499/499 490/490/490
f 490/490/490 499/499/499 500/500/500
f 490/490/490 500/500/500 491/491/491
f 491/491/491 500/500/500 501/501/501
f 491/491/491 501/501/501 492/492/492
f 492/492/492 501/501/501 502/502/502
f 492/492/492 502/502/502 493/493/493
f 493/493/493 502/502/502 503/503/503
f 493/493/493 503/503/503 494/494/494
f 494/494/494 503/503/503 504/504/504
f 494/494/494 504/504/504 495/495/495
f 495/495/495 504/504/504 505/505/505
f 495/495/495 505/505/505 496/496/496
f 497/497/497 506/506/506 507/507/507
f 497/497/497 507/507/507 498/498/498
f 498/498/498 507/507/507 508/508/508
f 498/498/498 508/508/508 499/499/499
f 499/499/499 508/508/508 509/509/509
f 499/499/499 509/509/509 500/500/500
f 500/500/500 509/509/509 510/510/510
f 500/500/500 510/510/510 501/501/501
f 501/501/501 510/510/510 511/511/511
f 501/501/501 511/511/511 502/502/502
f 502/502/502 511/511/511 512/512/512
f 502/502/502 512/512/512 503/503/503
f 503/503/503 512/512/512 513/513/513
f 503/503/503 513/513/513 504/504/504
f 504/504/504 513/513/513 514/514/514
f 504/504/504 514/514/514 505/505/505
f 506/506/506 515/515/515 516/516/516
f 506/506/506 516/516/516 507/507/507
f 507/507/507 516/516/516 517/517/517
f 507/507/507 517/517/517 508/508/508
f 508/508/508 517/517/517 518/518/518
f 508/508/508 518/518/518 509/509/509
f 509/509/509 518/518/518 519/519/519
f 509/509/509 519/519/519 510/510/510
f 510/510/510 519/519/519 520/520/520
f 510/510/510 520/520/520 511/511/511
f 511/511/511 520/520/520 521/521/521
f 511/511/511 521/521/521 512/512/512
f 512/512/512 521/521/521 522/522/522
f 512/512/512 522/522/522 513/513/513
f 513/513/513 522/522/522 523/523/523
f 513/513/513 523/523/523 514/514/514
f 515/515/515 524/524/524 525/525/525
f 515/515/515 525/525/525 516/516/516
f 516/516/516 525/525/525 526/526/526
f 516/516/516 526/526/526 517/517/517
f 517/517/517 526/526/526 527/527/527
f 517/517/517 527/527/527 518/518/518
f 518/518/518 527/527/527 528/528/528
f 518/518/518 528/528/528 519/519/519
f 519/519/519 528/528/528 529/529/529
f 519/519/519 529/529/529 520/520/520
f 520/520/520 529/529/529 530/530/530
f 520/520/520 530/530/530 521/521/521
f 521/521/521 530/530/530 531/531/531
f 521/521/521 531/531/531 522/522/522
f 522/522/522 531/531/531 532/532/532
f 522/522/522 532/532/532 523/523/523
f 524/524/524 533/533/533 534/534/534
f 524/524/524 534/534/534 525/525/525
f 525/525/525 534/534/534 535/535/535
f 525/525/525 535/535/535 526/526/526
f 526/526/526 535/535/535 536/536/536
f 526/526/526 536/536/536 527/527/527
f 527/527/527 536/536/536 537/537/537
f 527/527/527 537/537/537 528/528/528
f 528/528/528 537/537/537 538/538/538
f 528/528/528 538/538/538 529/529/529
f 529/529/529 538/538/538 539/539/539
f 529/529/529 539/539/539 530/530/530
f 530/530/530 539/539/539 540/540/540
f 530/530/530 540/540/540 531/531/531
f 531/531/531 540/540/540 541/541/541
f 531/531/531 541/541/541 532/532/532
f 533/533/533 542/542/542 543/543/543
f 533/533/533 543/543/543 534/534/534
f 534/534/534 543/543/543 544/544/544
f 534/534/534 544/544/544 535/535/535
f 535/535/535 544/544/544 545/545/545
f 535/535/535 545/545/545 536/536/536
f 536/536/536 545/545/545 546/546/546
f 536/536/536 546/546/546 537/537/537
f 537/537/537 546/546/546 547/547/547
f 537/537/537 547/547/547 538/538/538
f 538/538/538 547/547/547 548/548/548
f 538/538/538 548/548/548 539/539/539
f 539/539/539 548/548/548 549/549/549
f 539/539/539 549/549/549 540/540/540
f 540/540/540 549/549/549 550/550/550
f 540/540/540 550/550/550 541/541/541
f 542/542/542 551/551/551 552/552/552
f 542/542/542 552/552/552 543/543/543
f 543/543/543 552/552/552 553/553/553
f 543/543/543 553/553/553 544/544/544
f 544/544/544 553/553/553 554/554/554
f 544/544/544 554/554/554 545/545/545
f 545/545/545 554/554/554 555/555/555
f 545/545/545 555/555/555 546/546/546
f 546/546/546 555/555/555 556/556/556
f 546/546/546 556/556/556 547/547/547
f 547/547/547 556/556/556 557/557/557
f 547/547/547 557/557/557 548/548/548
f 548/548/548 557/557/557 558/558/558
f 548/548/548 558/558/558 549/549/549
f 549/549/549 558/558/558 559/559/559
f 549/549/549 559/559/559 550/550/550
f 551/551/551 560/560/560 561/561/561
f 551/551/551 561/561/561 552/552/552
f 552/552/552 561/561/561 562/562/562
f 552/552/552 562/562/562 553/553/553
f 553/553/553 562/562/562 563/563/563
f 553/553/553 563/563/563 554/554/554
f 554/554/554 563/563/563 564/564/564
f 554/554/554 564/564/564 555/555/555
f 555/555/555 564/564/564 565/565/565
f 555/555/555 565/565/565 556/556/556
f 556/556/556 565/565/565 566/566/566
f 556/556/556 566/566/566 557/557/557
f 557/557/557 566/566/566 567/567/567
f 557/557/557 567/567/567 558/558/558
f 558/558/558 567/567/567 568/568/568
f 558/558/558 568/568/568 559/559/559
f 560/560/560 569/569/569 570/570/570
f 560/560/560 570/570/570 561/561/561
f 561/561/561 570/570/570 571/571/571
f 561/561/561 571/571/571 562/562/562
f 562/562/562 571/571/571 572/572/572
f 562/562/562 572/572/572 563/563/563
f 563/563/563 572/572/572 573/573/573
f 563/563/563 573/573/573 564/564/564
f 564/564/564 573/573/573 574/574/574
f 564/564/564 574/574/574 565/565/565
f 565/565/565 574/574/574 575/575/575
f 565/565/565 575/575/575 566/566/566
f 566/566/566 575/575/575 576/576/576
f 566/566/566 576/576/576 567/567/567
f 567/567/567 576/576/576 577/577/577
f 567/567/567 577/577/577 568/568/568
f 569/569/569 578/578/578 579/579/579
f 569/569/569 579/579/579 570/570/570
f 570/570/570 579/579/579 580/580/580
f 570/570/570 580/580/580 571/571/571
f 571/571/571 580/580/580 581/581/581
f 571/571/571 581/581/581 572/572/572
f 572/572/572 581/581/581 582/582/582
f 572/572/572 582/582/582 573/573/573
f 573/573/573 582/582/582 583/583/583
f 573/573/573 583/583/583 574/574/574
f 574/574/574 583/583/583 584/584/584
f 574/574/574 584/584/584 575/575/575
f 575/575/575 584/584/584 585/585/585
f 575/575/575 585/585/585 576/576/576
f 576/576/576 585/585/585 586/586/586
f 576/576/576 586/586/586 577/577/577
f 578/578/578 587/587/587 588/588/588
f 578/578/578 588/588/588 579/579/579
f 579/579/579 588/588/588 589/589/589
f 579/579/579 589/589/589 580/580/580
f 580/580/580 589/589/589 590/590/590
f 580/580/580 590/590/590 581/581/581
f 581/581/581 590/590/590 591/591/591
f 581/581/581 591/591/591 582/582/582
f 582/582/582 591/591/591 592/592/592
f 582/582/582 592/592/592 583/583/583
f 583/583/583 592/592/592 593/593/593
f 583/583/583 593/593/593 584/584/584
f 584/584/584 593/593/593 594/594/594
f 584/584/584 594/594/594 585/585/585
f 585/585/585 594/594/594 595/595/595
f 585/585/585 595/595/595 586/586/586
f 587/587/587 596/596/596 597/597/597
f 587/587/587 597/597/597 588/588/588
f 588/588/588 597/597/597 598/598/598
f 588/588/588 598/598/598 589/589/589
f 589/589/589 598/598/598 599/599/599
f 589/589/589 599/599/599 590/590/590
f 590/590/590 599/599/599 600/600/600
f 590/590/590 600/600/600 591/591/591
f 591/591/591 600/600/600 601/601/601
f 591/591/591 601/601/601 592/592/592
f 592/592/592 601/601/601 602/602/602
f 592/592/592 602/602/602 593/593/593
f 593/593/593 602/602/602 603/603/603
f 593/593/593 603/603/603 594/594/594
f 594/594/594 603/603/603 604/604/604
f 594/594/594 604/604/604 595/595/595
f 605/605/605 606/606/606 616/616/616
f 605/605/605 616/616/616 615/615/615
f 625/625/625 606/606/606 605/605/605
f 626/626/626 615/615/615 616/616/616
f 606/606/606 607/607/607 617/617/617
f 606/606/606 617/617/617 616/616/616
f 625/625/625 607/607/607 606/606/606
f 626/626/626 616/616/616 617/617/617
f 607/607/607 608/608/608 618/618/618
f 607/607/607 618/618/618 617/617/617
f 625/625/625 608/608/608 607/607/607
f 626/626/626 617/617/617 618/618/618
f 608/608/608 609/609/609 619/619/619
f 608/608/608 619/619/619 618/618/618
f 625/625/625 609/609/609 608/608/608
f 626/626/626 618/618/618 619/619/619
f 609/609/609 610/610/610 620/620/620
f 609/609/609 620/620/620 619/619/619
f 625/625/625 610/610/610 609/609/609
f 626/626/626 619/619/619 620/620/620
f 610/610/610 611/611/611 621/621/621
f 610/610/610 621/621/621 620/620/620
f 625/625/625 611/611/611 610/610/610
f 626/626/626 620/620/620 621/621/621
f 611/611/611 612/612/612 622/622/622
f 611/611/611 622/622/622 621/621/621
f 625/625/625 612/612/612 611/611/611
f 626/626/626 621/621/621 622/622/622
f 612/612/612 613/613/613 623/623/623
f 612/612/612 623/623/623 622/622/622
f 625/625/625 613/613/613 612/612/612
f 626/626/626 622/622/622 623/623/623
f 613/613/613 614/614/614 624/624/624
f 613/613/613 624/624/624 623/623/623
f 625/625/625 614/614/614 613/613/613
f 626/626/626 623/623/623 624/624/624
f 614/614/614 605/605/605 615/615/615
f 614/614/614 615/615/615 624/624/624
f 625/625/625 605/605/605 614/614/614
f 626/626/626 624/624/624 615/615/615