# 3D Model: tree/canopy/15dc1b1d19bccbbf (v6 Gemini)
# Style: naturalistic_banyan_tree | Symmetry: asymmetric
# Dimensions: 8 x 7.3 x 4.755 m
# Triangles: 832 | Vertices: 500
v 0.6 0 0
v 0.5196 0 0.3
v 0.3 0 0.5196
v 0 0 0.6
v -0.3 0 0.5196
v -0.5196 0 0.3
v -0.6 0 0
v -0.5196 0 -0.3
v -0.3 0 -0.5196
v 0 0 -0.6
v 0.3 0 -0.5196
v 0.5196 0 -0.3
v 0.4 3 0
v 0.3464 3 0.2
v 0.2 3 0.3464
v 0 3 0.4
v -0.2 3 0.3464
v -0.3464 3 0.2
v -0.4 3 0
v -0.3464 3 -0.2
v -0.2 3 -0.3464
v 0 3 -0.4
v 0.2 3 -0.3464
v 0.3464 3 -0.2
v 0 0 0
v 0 3 0
v 0 7.2 0
v 0 7.2 0
v 0 7.2 0
v 0 7.2 0
v 0 7.2 0
v 0 7.2 0
v 0 7.2 0
v 0 7.2 0
v 0 7.2 0
v 0 7.2 0
v 0 7.2 0
v 0.9567 7.0325 0
v 0.774 7.0325 0.5623
v 0.2956 7.0325 0.9099
v -0.2956 7.0325 0.9099
v -0.774 7.0325 0.5623
v -0.9567 7.0325 0
v -0.774 7.0325 -0.5623
v -0.2956 7.0325 -0.9099
v 0.2956 7.0325 -0.9099
v 0.774 7.0325 -0.5623
v 0.9567 7.0325 0
v 1.7678 6.5556 0
v 1.4302 6.5556 1.0391
v 0.5463 6.5556 1.6812
v -0.5463 6.5556 1.6812
v -1.4302 6.5556 1.0391
v -1.7678 6.5556 0
v -1.4302 6.5556 -1.0391
v -0.5463 6.5556 -1.6812
v 0.5463 6.5556 -1.6812
v 1.4302 6.5556 -1.0391
v 1.7678 6.5556 0
v 2.3097 5.8419 0
v 1.8686 5.8419 1.3576
v 0.7137 5.8419 2.1967
v -0.7137 5.8419 2.1967
v -1.8686 5.8419 1.3576
v -2.3097 5.8419 0
v -1.8686 5.8419 -1.3576
v -0.7137 5.8419 -2.1967
v 0.7137 5.8419 -2.1967
v 1.8686 5.8419 -1.3576
v 2.3097 5.8419 0
v 2.5 5 0
v 2.0225 5 1.4695
v 0.7725 5 2.3776
v -0.7725 5 2.3776
v -2.0225 5 1.4695
v -2.5 5 0
v -2.0225 5 -1.4695
v -0.7725 5 -2.3776
v 0.7725 5 -2.3776
v 2.0225 5 -1.4695
v 2.5 5 0
v 2.3097 4.1581 0
v 1.8686 4.1581 1.3576
v 0.7137 4.1581 2.1967
v -0.7137 4.1581 2.1967
v -1.8686 4.1581 1.3576
v -2.3097 4.1581 0
v -1.8686 4.1581 -1.3576
v -0.7137 4.1581 -2.1967
v 0.7137 4.1581 -2.1967
v 1.8686 4.1581 -1.3576
v 2.3097 4.1581 0
v 1.7678 3.4444 0
v 1.4302 3.4444 1.0391
v 0.5463 3.4444 1.6812
v -0.5463 3.4444 1.6812
v -1.4302 3.4444 1.0391
v -1.7678 3.4444 0
v -1.4302 3.4444 -1.0391
v -0.5463 3.4444 -1.6812
v 0.5463 3.4444 -1.6812
v 1.4302 3.4444 -1.0391
v 1.7678 3.4444 0
v 0.9567 2.9675 0
v 0.774 2.9675 0.5623
v 0.2956 2.9675 0.9099
v -0.2956 2.9675 0.9099
v -0.774 2.9675 0.5623
v -0.9567 2.9675 0
v -0.774 2.9675 -0.5623
v -0.2956 2.9675 -0.9099
v 0.2956 2.9675 -0.9099
v 0.774 2.9675 -0.5623
v 0.9567 2.9675 0
v 0 2.8 0
v 0 2.8 0
v 0 2.8 0
v 0 2.8 0
v 0 2.8 0
v 0 2.8 0
v 0 2.8 0
v 0 2.8 0
v 0 2.8 0
v 0 2.8 0
v 0 2.8 0
v -2 5 0
v -2 5 0
v -2 5 0
v -2 5 0
v -2 5 0
v -2 5 0
v -2 5 0
v -2 5 0
v -2 5 0
v -2 5 0
v -2 5 0
v -1.3112 4.8858 0
v -1.4427 4.8858 0.4049
v -1.7871 4.8858 0.6551
v -2.2129 4.8858 0.6551
v -2.5573 4.8858 0.4049
v -2.6888 4.8858 0
v -2.5573 4.8858 -0.4049
v -2.2129 4.8858 -0.6551
v -1.7871 4.8858 -0.6551
v -1.4427 4.8858 -0.4049
v -1.3112 4.8858 0
v -0.7272 4.5607 0
v -0.9703 4.5607 0.7481
v -1.6067 4.5607 1.2105
v -2.3933 4.5607 1.2105
v -3.0297 4.5607 0.7481
v -3.2728 4.5607 0
v -3.0297 4.5607 -0.7481
v -2.3933 4.5607 -1.2105
v -1.6067 4.5607 -1.2105
v -0.9703 4.5607 -0.7481
v -0.7272 4.5607 0
v -0.337 4.074 0
v -0.6546 4.074 0.9775
v -1.4861 4.074 1.5816
v -2.5139 4.074 1.5816
v -3.3454 4.074 0.9775
v -3.663 4.074 0
v -3.3454 4.074 -0.9775
v -2.5139 4.074 -1.5816
v -1.4861 4.074 -1.5816
v -0.6546 4.074 -0.9775
v -0.337 4.074 0
v -0.2 3.5 0
v -0.5438 3.5 1.058
v -1.4438 3.5 1.7119
v -2.5562 3.5 1.7119
v -3.4562 3.5 1.058
v -3.8 3.5 0
v -3.4562 3.5 -1.058
v -2.5562 3.5 -1.7119
v -1.4438 3.5 -1.7119
v -0.5438 3.5 -1.058
v -0.2 3.5 0
v -0.337 2.926 0
v -0.6546 2.926 0.9775
v -1.4861 2.926 1.5816
v -2.5139 2.926 1.5816
v -3.3454 2.926 0.9775
v -3.663 2.926 0
v -3.3454 2.926 -0.9775
v -2.5139 2.926 -1.5816
v -1.4861 2.926 -1.5816
v -0.6546 2.926 -0.9775
v -0.337 2.926 0
v -0.7272 2.4393 0
v -0.9703 2.4393 0.7481
v -1.6067 2.4393 1.2105
v -2.3933 2.4393 1.2105
v -3.0297 2.4393 0.7481
v -3.2728 2.4393 0
v -3.0297 2.4393 -0.7481
v -2.3933 2.4393 -1.2105
v -1.6067 2.4393 -1.2105
v -0.9703 2.4393 -0.7481
v -0.7272 2.4393 0
v -1.3112 2.1142 0
v -1.4427 2.1142 0.4049
v -1.7871 2.1142 0.6551
v -2.2129 2.1142 0.6551
v -2.5573 2.1142 0.4049
v -2.6888 2.1142 0
v -2.5573 2.1142 -0.4049
v -2.2129 2.1142 -0.6551
v -1.7871 2.1142 -0.6551
v -1.4427 2.1142 -0.4049
v -1.3112 2.1142 0
v -2 2 0
v -2 2 0
v -2 2 0
v -2 2 0
v -2 2 0
v -2 2 0
v -2 2 0
v -2 2 0
v -2 2 0
v -2 2 0
v -2 2 0
v 2.2 5.5 0
v 2.2 5.5 0
v 2.2 5.5 0
v 2.2 5.5 0
v 2.2 5.5 0
v 2.2 5.5 0
v 2.2 5.5 0
v 2.2 5.5 0
v 2.2 5.5 0
v 2.2 5.5 0
v 2.2 5.5 0
v 2.9654 5.3706 0
v 2.8192 5.3706 0.4499
v 2.4365 5.3706 0.7279
v 1.9635 5.3706 0.7279
v 1.5808 5.3706 0.4499
v 1.4346 5.3706 0
v 1.5808 5.3706 -0.4499
v 1.9635 5.3706 -0.7279
v 2.4365 5.3706 -0.7279
v 2.8192 5.3706 -0.4499
v 2.9654 5.3706 0
v 3.6142 5.0021 0
v 3.3441 5.0021 0.8313
v 2.637 5.0021 1.345
v 1.763 5.0021 1.345
v 1.0559 5.0021 0.8313
v 0.7858 5.0021 0
v 1.0559 5.0021 -0.8313
v 1.763 5.0021 -1.345
v 2.637 5.0021 -1.345
v 3.3441 5.0021 -0.8313
v 3.6142 5.0021 0
v 4.0478 4.4506 0
v 3.6949 4.4506 1.0861
v 2.771 4.4506 1.7573
v 1.629 4.4506 1.7573
v 0.7051 4.4506 1.0861
v 0.3522 4.4506 0
v 0.7051 4.4506 -1.0861
v 1.629 4.4506 -1.7573
v 2.771 4.4506 -1.7573
v 3.6949 4.4506 -1.0861
v 4.0478 4.4506 0
v 4.2 3.8 0
v 3.818 3.8 1.1756
v 2.818 3.8 1.9021
v 1.582 3.8 1.9021
v 0.582 3.8 1.1756
v 0.2 3.8 0
v 0.582 3.8 -1.1756
v 1.582 3.8 -1.9021
v 2.818 3.8 -1.9021
v 3.818 3.8 -1.1756
v 4.2 3.8 0
v 4.0478 3.1494 0
v 3.6949 3.1494 1.0861
v 2.771 3.1494 1.7573
v 1.629 3.1494 1.7573
v 0.7051 3.1494 1.0861
v 0.3522 3.1494 0
v 0.7051 3.1494 -1.0861
v 1.629 3.1494 -1.7573
v 2.771 3.1494 -1.7573
v 3.6949 3.1494 -1.0861
v 4.0478 3.1494 0
v 3.6142 2.5979 0
v 3.3441 2.5979 0.8313
v 2.637 2.5979 1.345
v 1.763 2.5979 1.345
v 1.0559 2.5979 0.8313
v 0.7858 2.5979 0
v 1.0559 2.5979 -0.8313
v 1.763 2.5979 -1.345
v 2.637 2.5979 -1.345
v 3.3441 2.5979 -0.8313
v 3.6142 2.5979 0
v 2.9654 2.2294 0
v 2.8192 2.2294 0.4499
v 2.4365 2.2294 0.7279
v 1.9635 2.2294 0.7279
v 1.5808 2.2294 0.4499
v 1.4346 2.2294 0
v 1.5808 2.2294 -0.4499
v 1.9635 2.2294 -0.7279
v 2.4365 2.2294 -0.7279
v 2.8192 2.2294 -0.4499
v 2.9654 2.2294 0
v 2.2 2.1 0
v 2.2 2.1 0
v 2.2 2.1 0
v 2.2 2.1 0
v 2.2 2.1 0
v 2.2 2.1 0
v 2.2 2.1 0
v 2.2 2.1 0
v 2.2 2.1 0
v 2.2 2.1 0
v 2.2 2.1 0
v -1.45 1.5 0
v -1.4567 1.5 0.025
v -1.475 1.5 0.0433
v -1.5 1.5 0.05
v -1.525 1.5 0.0433
v -1.5433 1.5 0.025
v -1.55 1.5 0
v -1.5433 1.5 -0.025
v -1.525 1.5 -0.0433
v -1.5 1.5 -0.05
v -1.475 1.5 -0.0433
v -1.4567 1.5 -0.025
v -1.45 4.5 0
v -1.4567 4.5 0.025
v -1.475 4.5 0.0433
v -1.5 4.5 0.05
v -1.525 4.5 0.0433
v -1.5433 4.5 0.025
v -1.55 4.5 0
v -1.5433 4.5 -0.025
v -1.525 4.5 -0.0433
v -1.5 4.5 -0.05
v -1.475 4.5 -0.0433
v -1.4567 4.5 -0.025
v -1.5 1.5 0
v -1.5 4.5 0
v 1.85 1.75 0
v 1.8433 1.75 0.025
v 1.825 1.75 0.0433
v 1.8 1.75 0.05
v 1.775 1.75 0.0433
v 1.7567 1.75 0.025
v 1.75 1.75 0
v 1.7567 1.75 -0.025
v 1.775 1.75 -0.0433
v 1.8 1.75 -0.05
v 1.825 1.75 -0.0433
v 1.8433 1.75 -0.025
v 1.85 5.25 0
v 1.8433 5.25 0.025
v 1.825 5.25 0.0433
v 1.8 5.25 0.05
v 1.775 5.25 0.0433
v 1.7567 5.25 0.025
v 1.75 5.25 0
v 1.7567 5.25 -0.025
v 1.775 5.25 -0.0433
v 1.8 5.25 -0.05
v 1.825 5.25 -0.0433
v 1.8433 5.25 -0.025
v 1.8 1.75 0
v 1.8 5.25 0
v 0.54 2 0
v 0.5346 2 0.02
v 0.52 2 0.0346
v 0.5 2 0.04
v 0.48 2 0.0346
v 0.4654 2 0.02
v 0.46 2 0
v 0.4654 2 -0.02
v 0.48 2 -0.0346
v 0.5 2 -0.04
v 0.52 2 -0.0346
v 0.5346 2 -0.02
v 0.54 6 0
v 0.5346 6 0.02
v 0.52 6 0.0346
v 0.5 6 0.04
v 0.48 6 0.0346
v 0.4654 6 0.02
v 0.46 6 0
v 0.4654 6 -0.02
v 0.48 6 -0.0346
v 0.5 6 -0.04
v 0.52 6 -0.0346
v 0.5346 6 -0.02
v 0.5 2 0
v 0.5 6 0
v 0 0.5 0
v 0 0.5 0
v 0 0.5 0
v 0 0.5 0
v 0 0.5 0
v 0 0.5 0
v 0 0.5 0
v 0 0.5 0
v 0 0.5 0
v 0 0.5 0
v 0 0.5 0
v 0.3061 0.4772 0
v 0.2477 0.4772 0.1799
v 0.0946 0.4772 0.2912
v -0.0946 0.4772 0.2912
v -0.2477 0.4772 0.1799
v -0.3061 0.4772 0
v -0.2477 0.4772 -0.1799
v -0.0946 0.4772 -0.2912
v 0.0946 0.4772 -0.2912
v 0.2477 0.4772 -0.1799
v 0.3061 0.4772 0
v 0.5657 0.4121 0
v 0.4576 0.4121 0.3325
v 0.1748 0.4121 0.538
v -0.1748 0.4121 0.538
v -0.4576 0.4121 0.3325
v -0.5657 0.4121 0
v -0.4576 0.4121 -0.3325
v -0.1748 0.4121 -0.538
v 0.1748 0.4121 -0.538
v 0.4576 0.4121 -0.3325
v 0.5657 0.4121 0
v 0.7391 0.3148 0
v 0.5979 0.3148 0.4344
v 0.2284 0.3148 0.7029
v -0.2284 0.3148 0.7029
v -0.5979 0.3148 0.4344
v -0.7391 0.3148 0
v -0.5979 0.3148 -0.4344
v -0.2284 0.3148 -0.7029
v 0.2284 0.3148 -0.7029
v 0.5979 0.3148 -0.4344
v 0.7391 0.3148 0
v 0.8 0.2 0
v 0.6472 0.2 0.4702
v 0.2472 0.2 0.7608
v -0.2472 0.2 0.7608
v -0.6472 0.2 0.4702
v -0.8 0.2 0
v -0.6472 0.2 -0.4702
v -0.2472 0.2 -0.7608
v 0.2472 0.2 -0.7608
v 0.6472 0.2 -0.4702
v 0.8 0.2 0
v 0.7391 0.0852 0
v 0.5979 0.0852 0.4344
v 0.2284 0.0852 0.7029
v -0.2284 0.0852 0.7029
v -0.5979 0.0852 0.4344
v -0.7391 0.0852 0
v -0.5979 0.0852 -0.4344
v -0.2284 0.0852 -0.7029
v 0.2284 0.0852 -0.7029
v 0.5979 0.0852 -0.4344
v 0.7391 0.0852 0
v 0.5657 -0.0121 0
v 0.4576 -0.0121 0.3325
v 0.1748 -0.0121 0.538
v -0.1748 -0.0121 0.538
v -0.4576 -0.0121 0.3325
v -0.5657 -0.0121 0
v -0.4576 -0.0121 -0.3325
v -0.1748 -0.0121 -0.538
v 0.1748 -0.0121 -0.538
v 0.4576 -0.0121 -0.3325
v 0.5657 -0.0121 0
v 0.3061 -0.0772 0
v 0.2477 -0.0772 0.1799
v 0.0946 -0.0772 0.2912
v -0.0946 -0.0772 0.2912
v -0.2477 -0.0772 0.1799
v -0.3061 -0.0772 0
v -0.2477 -0.0772 -0.1799
v -0.0946 -0.0772 -0.2912
v 0.0946 -0.0772 -0.2912
v 0.2477 -0.0772 -0.1799
v 0.3061 -0.0772 0
v 0 -0.1 0
v 0 -0.1 0
v 0 -0.1 0
v 0 -0.1 0
v 0 -0.1 0
v 0 -0.1 0
v 0 -0.1 0
v 0 -0.1 0
v 0 -0.1 0
v 0 -0.1 0
v 0 -0.1 0
vt 0 0
vt 0.08333333333333333 0
vt 0.16666666666666666 0
vt 0.25 0
vt 0.3333333333333333 0
vt 0.4166666666666667 0
vt 0.5 0
vt 0.5833333333333334 0
vt 0.6666666666666666 0
vt 0.75 0
vt 0.8333333333333334 0
vt 0.9166666666666666 0
vt 0 1
vt 0.08333333333333333 1
vt 0.16666666666666666 1
vt 0.25 1
vt 0.3333333333333333 1
vt 0.4166666666666667 1
vt 0.5 1
vt 0.5833333333333334 1
vt 0.6666666666666666 1
vt 0.75 1
vt 0.8333333333333334 1
vt 0.9166666666666666 1
vt 0.5 0.5
vt 0.5 0.5
vt 0 0
vt 0.1 0
vt 0.2 0
vt 0.3 0
vt 0.4 0
vt 0.5 0
vt 0.6 0
vt 0.7 0
vt 0.8 0
vt 0.9 0
vt 1 0
vt 0 0.125
vt 0.1 0.125
vt 0.2 0.125
vt 0.3 0.125
vt 0.4 0.125
vt 0.5 0.125
vt 0.6 0.125
vt 0.7 0.125
vt 0.8 0.125
vt 0.9 0.125
vt 1 0.125
vt 0 0.25
vt 0.1 0.25
vt 0.2 0.25
vt 0.3 0.25
vt 0.4 0.25
vt 0.5 0.25
vt 0.6 0.25
vt 0.7 0.25
vt 0.8 0.25
vt 0.9 0.25
vt 1 0.25
vt 0 0.375
vt 0.1 0.375
vt 0.2 0.375
vt 0.3 0.375
vt 0.4 0.375
vt 0.5 0.375
vt 0.6 0.375
vt 0.7 0.375
vt 0.8 0.375
vt 0.9 0.375
vt 1 0.375
vt 0 0.5
vt 0.1 0.5
vt 0.2 0.5
vt 0.3 0.5
vt 0.4 0.5
vt 0.5 0.5
vt 0.6 0.5
vt 0.7 0.5
vt 0.8 0.5
vt 0.9 0.5
vt 1 0.5
vt 0 0.625
vt 0.1 0.625
vt 0.2 0.625
vt 0.3 0.625
vt 0.4 0.625
vt 0.5 0.625
vt 0.6 0.625
vt 0.7 0.625
vt 0.8 0.625
vt 0.9 0.625
vt 1 0.625
vt 0 0.75
vt 0.1 0.75
vt 0.2 0.75
vt 0.3 0.75
vt 0.4 0.75
vt 0.5 0.75
vt 0.6 0.75
vt 0.7 0.75
vt 0.8 0.75
vt 0.9 0.75
vt 1 0.75
vt 0 0.875
vt 0.1 0.875
vt 0.2 0.875
vt 0.3 0.875
vt 0.4 0.875
vt 0.5 0.875
vt 0.6 0.875
vt 0.7 0.875
vt 0.8 0.875
vt 0.9 0.875
vt 1 0.875
vt 0 1
vt 0.1 1
vt 0.2 1
vt 0.3 1
vt 0.4 1
vt 0.5 1
vt 0.6 1
vt 0.7 1
vt 0.8 1
vt 0.9 1
vt 1 1
vt 0 0
vt 0.1 0
vt 0.2 0
vt 0.3 0
vt 0.4 0
vt 0.5 0
vt 0.6 0
vt 0.7 0
vt 0.8 0
vt 0.9 0
vt 1 0
vt 0 0.125
vt 0.1 0.125
vt 0.2 0.125
vt 0.3 0.125
vt 0.4 0.125
vt 0.5 0.125
vt 0.6 0.125
vt 0.7 0.125
vt 0.8 0.125
vt 0.9 0.125
vt 1 0.125
vt 0 0.25
vt 0.1 0.25
vt 0.2 0.25
vt 0.3 0.25
vt 0.4 0.25
vt 0.5 0.25
vt 0.6 0.25
vt 0.7 0.25
vt 0.8 0.25
vt 0.9 0.25
vt 1 0.25
vt 0 0.375
vt 0.1 0.375
vt 0.2 0.375
vt 0.3 0.375
vt 0.4 0.375
vt 0.5 0.375
vt 0.6 0.375
vt 0.7 0.375
vt 0.8 0.375
vt 0.9 0.375
vt 1 0.375
vt 0 0.5
vt 0.1 0.5
vt 0.2 0.5
vt 0.3 0.5
vt 0.4 0.5
vt 0.5 0.5
vt 0.6 0.5
vt 0.7 0.5
vt 0.8 0.5
vt 0.9 0.5
vt 1 0.5
vt 0 0.625
vt 0.1 0.625
vt 0.2 0.625
vt 0.3 0.625
vt 0.4 0.625
vt 0.5 0.625
vt 0.6 0.625
vt 0.7 0.625
vt 0.8 0.625
vt 0.9 0.625
vt 1 0.625
vt 0 0.75
vt 0.1 0.75
vt 0.2 0.75
vt 0.3 0.75
vt 0.4 0.75
vt 0.5 0.75
vt 0.6 0.75
vt 0.7 0.75
vt 0.8 0.75
vt 0.9 0.75
vt 1 0.75
vt 0 0.875
vt 0.1 0.875
vt 0.2 0.875
vt 0.3 0.875
vt 0.4 0.875
vt 0.5 0.875
vt 0.6 0.875
vt 0.7 0.875
vt 0.8 0.875
vt 0.9 0.875
vt 1 0.875
vt 0 1
vt 0.1 1
vt 0.2 1
vt 0.3 1
vt 0.4 1
vt 0.5 1
vt 0.6 1
vt 0.7 1
vt 0.8 1
vt 0.9 1
vt 1 1
vt 0 0
vt 0.1 0
vt 0.2 0
vt 0.3 0
vt 0.4 0
vt 0.5 0
vt 0.6 0
vt 0.7 0
vt 0.8 0
vt 0.9 0
vt 1 0
vt 0 0.125
vt 0.1 0.125
vt 0.2 0.125
vt 0.3 0.125
vt 0.4 0.125
vt 0.5 0.125
vt 0.6 0.125
vt 0.7 0.125
vt 0.8 0.125
vt 0.9 0.125
vt 1 0.125
vt 0 0.25
vt 0.1 0.25
vt 0.2 0.25
vt 0.3 0.25
vt 0.4 0.25
vt 0.5 0.25
vt 0.6 0.25
vt 0.7 0.25
vt 0.8 0.25
vt 0.9 0.25
vt 1 0.25
vt 0 0.375
vt 0.1 0.375
vt 0.2 0.375
vt 0.3 0.375
vt 0.4 0.375
vt 0.5 0.375
vt 0.6 0.375
vt 0.7 0.375
vt 0.8 0.375
vt 0.9 0.375
vt 1 0.375
vt 0 0.5
vt 0.1 0.5
vt 0.2 0.5
vt 0.3 0.5
vt 0.4 0.5
vt 0.5 0.5
vt 0.6 0.5
vt 0.7 0.5
vt 0.8 0.5
vt 0.9 0.5
vt 1 0.5
vt 0 0.625
vt 0.1 0.625
vt 0.2 0.625
vt 0.3 0.625
vt 0.4 0.625
vt 0.5 0.625
vt 0.6 0.625
vt 0.7 0.625
vt 0.8 0.625
vt 0.9 0.625
vt 1 0.625
vt 0 0.75
vt 0.1 0.75
vt 0.2 0.75
vt 0.3 0.75
vt 0.4 0.75
vt 0.5 0.75
vt 0.6 0.75
vt 0.7 0.75
vt 0.8 0.75
vt 0.9 0.75
vt 1 0.75
vt 0 0.875
vt 0.1 0.875
vt 0.2 0.875
vt 0.3 0.875
vt 0.4 0.875
vt 0.5 0.875
vt 0.6 0.875
vt 0.7 0.875
vt 0.8 0.875
vt 0.9 0.875
vt 1 0.875
vt 0 1
vt 0.1 1
vt 0.2 1
vt 0.3 1
vt 0.4 1
vt 0.5 1
vt 0.6 1
vt 0.7 1
vt 0.8 1
vt 0.9 1
vt 1 1
vt 0 0
vt 0.08333333333333333 0
vt 0.16666666666666666 0
vt 0.25 0
vt 0.3333333333333333 0
vt 0.4166666666666667 0
vt 0.5 0
vt 0.5833333333333334 0
vt 0.6666666666666666 0
vt 0.75 0
vt 0.8333333333333334 0
vt 0.9166666666666666 0
vt 0 1
vt 0.08333333333333333 1
vt 0.16666666666666666 1
vt 0.25 1
vt 0.3333333333333333 1
vt 0.4166666666666667 1
vt 0.5 1
vt 0.5833333333333334 1
vt 0.6666666666666666 1
vt 0.75 1
vt 0.8333333333333334 1
vt 0.9166666666666666 1
vt 0.5 0.5
vt 0.5 0.5
vt 0 0
vt 0.08333333333333333 0
vt 0.16666666666666666 0
vt 0.25 0
vt 0.3333333333333333 0
vt 0.4166666666666667 0
vt 0.5 0
vt 0.5833333333333334 0
vt 0.6666666666666666 0
vt 0.75 0
vt 0.8333333333333334 0
vt 0.9166666666666666 0
vt 0 1
vt 0.08333333333333333 1
vt 0.16666666666666666 1
vt 0.25 1
vt 0.3333333333333333 1
vt 0.4166666666666667 1
vt 0.5 1
vt 0.5833333333333334 1
vt 0.6666666666666666 1
vt 0.75 1
vt 0.8333333333333334 1
vt 0.9166666666666666 1
vt 0.5 0.5
vt 0.5 0.5
vt 0 0
vt 0.08333333333333333 0
vt 0.16666666666666666 0
vt 0.25 0
vt 0.3333333333333333 0
vt 0.4166666666666667 0
vt 0.5 0
vt 0.5833333333333334 0
vt 0.6666666666666666 0
vt 0.75 0
vt 0.8333333333333334 0
vt 0.9166666666666666 0
vt 0 1
vt 0.08333333333333333 1
vt 0.16666666666666666 1
vt 0.25 1
vt 0.3333333333333333 1
vt 0.4166666666666667 1
vt 0.5 1
vt 0.5833333333333334 1
vt 0.6666666666666666 1
vt 0.75 1
vt 0.8333333333333334 1
vt 0.9166666666666666 1
vt 0.5 0.5
vt 0.5 0.5
vt 0 0
vt 0.1 0
vt 0.2 0
vt 0.3 0
vt 0.4 0
vt 0.5 0
vt 0.6 0
vt 0.7 0
vt 0.8 0
vt 0.9 0
vt 1 0
vt 0 0.125
vt 0.1 0.125
vt 0.2 0.125
vt 0.3 0.125
vt 0.4 0.125
vt 0.5 0.125
vt 0.6 0.125
vt 0.7 0.125
vt 0.8 0.125
vt 0.9 0.125
vt 1 0.125
vt 0 0.25
vt 0.1 0.25
vt 0.2 0.25
vt 0.3 0.25
vt 0.4 0.25
vt 0.5 0.25
vt 0.6 0.25
vt 0.7 0.25
vt 0.8 0.25
vt 0.9 0.25
vt 1 0.25
vt 0 0.375
vt 0.1 0.375
vt 0.2 0.375
vt 0.3 0.375
vt 0.4 0.375
vt 0.5 0.375
vt 0.6 0.375
vt 0.7 0.375
vt 0.8 0.375
vt 0.9 0.375
vt 1 0.375
vt 0 0.5
vt 0.1 0.5
vt 0.2 0.5
vt 0.3 0.5
vt 0.4 0.5
vt 0.5 0.5
vt 0.6 0.5
vt 0.7 0.5
vt 0.8 0.5
vt 0.9 0.5
vt 1 0.5
vt 0 0.625
vt 0.1 0.625
vt 0.2 0.625
vt 0.3 0.625
vt 0.4 0.625
vt 0.5 0.625
vt 0.6 0.625
vt 0.7 0.625
vt 0.8 0.625
vt 0.9 0.625
vt 1 0.625
vt 0 0.75
vt 0.1 0.75
vt 0.2 0.75
vt 0.3 0.75
vt 0.4 0.75
vt 0.5 0.75
vt 0.6 0.75
vt 0.7 0.75
vt 0.8 0.75
vt 0.9 0.75
vt 1 0.75
vt 0 0.875
vt 0.1 0.875
vt 0.2 0.875
vt 0.3 0.875
vt 0.4 0.875
vt 0.5 0.875
vt 0.6 0.875
vt 0.7 0.875
vt 0.8 0.875
vt 0.9 0.875
vt 1 0.875
vt 0 1
vt 0.1 1
vt 0.2 1
vt 0.3 1
vt 0.4 1
vt 0.5 1
vt 0.6 1
vt 0.7 1
vt 0.8 1
vt 0.9 1
vt 1 1
vn 0 -1 0
vn 0 -1 0
vn 0 -1 0
vn 0 -1 0
vn 0 -1 0
vn 0 -1 0
vn 0 -1 0
vn 0 -1 0
vn 0 -1 0
vn 0 -1 0
vn 0 -1 0
vn 0 -1 0
vn 0 1 0
vn 0 1 0
vn 0 1 0
vn 0 1 0
vn 0 1 0
vn 0 1 0
vn 0 1 0
vn 0 1 0
vn 0 1 0
vn 0 1 0
vn 0 1 0
vn 0 1 0
vn 0 -1 0
vn 0 1 0
vn 0 1 0
vn 0 1 0
vn 0 1 0
vn 0 1 0
vn 0 1 0
vn 0 1 0
vn 0 1 0
vn 0 1 0
vn 0 1 0
vn 0 1 0
vn 0 1 0
vn 0.3826834323650898 0.9238795325112867 0
vn 0.30959740024909344 0.9238795325112867 0.22493567784086385
vn 0.11825568406654854 0.9238795325112867 0.3639535720290143
vn -0.11825568406654849 0.9238795325112867 0.36395357202901435
vn -0.3095974002490934 0.9238795325112867 0.2249356778408639
vn -0.3826834323650898 0.9238795325112867 4.6865204053262986e-17
vn -0.30959740024909344 0.9238795325112867 -0.22493567784086382
vn -0.11825568406654856 0.9238795325112867 -0.3639535720290143
vn 0.11825568406654845 0.9238795325112867 -0.36395357202901435
vn 0.3095974002490934 0.9238795325112867 -0.22493567784086393
vn 0.3826834323650898 0.9238795325112867 -9.373040810652597e-17
vn 0.7071067811865475 0.7071067811865476 0
vn 0.5720614028176843 0.7071067811865476 0.4156269377774534
vn 0.21850801222441057 0.7071067811865476 0.6724985119639573
vn -0.21850801222441046 0.7071067811865476 0.6724985119639573
vn -0.5720614028176841 0.7071067811865476 0.4156269377774534
vn -0.7071067811865475 0.7071067811865476 8.659560562354932e-17
vn -0.5720614028176843 0.7071067811865476 -0.41562693777745335
vn -0.2185080122244106 0.7071067811865476 -0.6724985119639573
vn 0.21850801222441038 0.7071067811865476 -0.6724985119639573
vn 0.5720614028176841 0.7071067811865476 -0.41562693777745363
vn 0.7071067811865475 0.7071067811865476 -1.7319121124709863e-16
vn 0.9238795325112867 0.38268343236508984 0
vn 0.7474342425568128 0.38268343236508984 0.5430427641049989
vn 0.28549447630116936 0.38268343236508984 0.8786616496665796
vn -0.28549447630116925 0.38268343236508984 0.8786616496665796
vn -0.7474342425568127 0.38268343236508984 0.543042764104999
vn -0.9238795325112867 0.38268343236508984 1.1314261122877003e-16
vn -0.7474342425568128 0.38268343236508984 -0.5430427641049987
vn -0.2854944763011695 0.38268343236508984 -0.8786616496665796
vn 0.28549447630116914 0.38268343236508984 -0.8786616496665796
vn 0.7474342425568127 0.38268343236508984 -0.543042764104999
vn 0.9238795325112867 0.38268343236508984 -2.2628522245754005e-16
vn 1 6.123233995736766e-17 0
vn 0.8090169943749475 6.123233995736766e-17 0.5877852522924731
vn 0.30901699437494745 6.123233995736766e-17 0.9510565162951534
vn -0.30901699437494734 6.123233995736766e-17 0.9510565162951536
vn -0.8090169943749472 6.123233995736766e-17 0.5877852522924732
vn -1 6.123233995736766e-17 1.2246467991473532e-16
vn -0.8090169943749475 6.123233995736766e-17 -0.587785252292473
vn -0.30901699437494756 6.123233995736766e-17 -0.9510565162951534
vn 0.30901699437494723 6.123233995736766e-17 -0.9510565162951536
vn 0.8090169943749472 6.123233995736766e-17 -0.5877852522924734
vn 1 6.123233995736766e-17 -2.4492935982947064e-16
vn 0.9238795325112867 -0.3826834323650897 0
vn 0.7474342425568128 -0.3826834323650897 0.5430427641049989
vn 0.28549447630116936 -0.3826834323650897 0.8786616496665796
vn -0.28549447630116925 -0.3826834323650897 0.8786616496665796
vn -0.7474342425568127 -0.3826834323650897 0.543042764104999
vn -0.9238795325112867 -0.3826834323650897 1.1314261122877003e-16
vn -0.7474342425568128 -0.3826834323650897 -0.5430427641049987
vn -0.2854944763011695 -0.3826834323650897 -0.8786616496665796
vn 0.28549447630116914 -0.3826834323650897 -0.8786616496665796
vn 0.7474342425568127 -0.3826834323650897 -0.543042764104999
vn 0.9238795325112867 -0.3826834323650897 -2.2628522245754005e-16
vn 0.7071067811865476 -0.7071067811865475 0
vn 0.5720614028176844 -0.7071067811865475 0.4156269377774534
vn 0.21850801222441057 -0.7071067811865475 0.6724985119639574
vn -0.21850801222441046 -0.7071067811865475 0.6724985119639574
vn -0.5720614028176843 -0.7071067811865475 0.4156269377774535
vn -0.7071067811865476 -0.7071067811865475 8.659560562354934e-17
vn -0.5720614028176844 -0.7071067811865475 -0.4156269377774534
vn -0.21850801222441066 -0.7071067811865475 -0.6724985119639574
vn 0.21850801222441038 -0.7071067811865475 -0.6724985119639574
vn 0.5720614028176843 -0.7071067811865475 -0.41562693777745363
vn 0.7071067811865476 -0.7071067811865475 -1.7319121124709868e-16
vn 0.3826834323650899 -0.9238795325112867 0
vn 0.3095974002490935 -0.9238795325112867 0.22493567784086393
vn 0.11825568406654856 -0.9238795325112867 0.3639535720290144
vn -0.11825568406654854 -0.9238795325112867 0.36395357202901446
vn -0.3095974002490935 -0.9238795325112867 0.224935677840864
vn -0.3826834323650899 -0.9238795325112867 4.6865204053263e-17
vn -0.3095974002490935 -0.9238795325112867 -0.2249356778408639
vn -0.1182556840665486 -0.9238795325112867 -0.3639535720290144
vn 0.11825568406654849 -0.9238795325112867 -0.36395357202901446
vn 0.3095974002490935 -0.9238795325112867 -0.22493567784086405
vn 0.3826834323650899 -0.9238795325112867 -9.3730408106526e-17
vn 1.2246467991473532e-16 -1 0
vn 9.907600726170916e-17 -1 7.198293278059966e-17
vn 3.7843667304341506e-17 -1 1.1647083184890923e-16
vn -3.7843667304341493e-17 -1 1.1647083184890926e-16
vn -9.907600726170916e-17 -1 7.198293278059968e-17
vn -1.2246467991473532e-16 -1 1.4997597826618576e-32
vn -9.907600726170916e-17 -1 -7.198293278059965e-17
vn -3.784366730434152e-17 -1 -1.1647083184890923e-16
vn 3.7843667304341475e-17 -1 -1.1647083184890926e-16
vn 9.907600726170916e-17 -1 -7.19829327805997e-17
vn 1.2246467991473532e-16 -1 -2.999519565323715e-32
vn 0 1 0
vn 0 1 0
vn 0 1 0
vn 0 1 0
vn 0 1 0
vn 0 1 0
vn 0 1 0
vn 0 1 0
vn 0 1 0
vn 0 1 0
vn 0 1 0
vn 0.3826834323650898 0.9238795325112866 0
vn 0.3095974002490935 0.9238795325112866 0.22493567784086388
vn 0.11825568406654852 0.9238795325112866 0.3639535720290143
vn -0.11825568406654849 0.9238795325112866 0.36395357202901435
vn -0.3095974002490934 0.9238795325112866 0.22493567784086388
vn -0.3826834323650898 0.9238795325112866 4.6865204053262986e-17
vn -0.3095974002490935 0.9238795325112866 -0.22493567784086382
vn -0.11825568406654857 0.9238795325112866 -0.3639535720290143
vn 0.11825568406654845 0.9238795325112866 -0.36395357202901435
vn 0.3095974002490934 0.9238795325112866 -0.22493567784086396
vn 0.3826834323650898 0.9238795325112866 -9.373040810652597e-17
vn 0.7071067811865475 0.7071067811865476 0
vn 0.5720614028176843 0.7071067811865476 0.4156269377774534
vn 0.21850801222441055 0.7071067811865476 0.6724985119639573
vn -0.21850801222441046 0.7071067811865476 0.6724985119639573
vn -0.5720614028176841 0.7071067811865476 0.41562693777745346
vn -0.7071067811865475 0.7071067811865476 8.65956056235493e-17
vn -0.5720614028176843 0.7071067811865476 -0.4156269377774533
vn -0.21850801222441057 0.7071067811865476 -0.6724985119639573
vn 0.21850801222441038 0.7071067811865476 -0.6724985119639573
vn 0.5720614028176841 0.7071067811865476 -0.4156269377774536
vn 0.7071067811865475 0.7071067811865476 -1.731912112470986e-16
vn 0.9238795325112867 0.38268343236508984 0
vn 0.7474342425568128 0.38268343236508984 0.5430427641049989
vn 0.28549447630116936 0.38268343236508984 0.8786616496665794
vn -0.28549447630116925 0.38268343236508984 0.8786616496665796
vn -0.7474342425568127 0.38268343236508984 0.543042764104999
vn -0.9238795325112867 0.38268343236508984 1.1314261122877003e-16
vn -0.7474342425568128 0.38268343236508984 -0.5430427641049987
vn -0.2854944763011695 0.38268343236508984 -0.8786616496665794
vn 0.28549447630116914 0.38268343236508984 -0.8786616496665796
vn 0.7474342425568127 0.38268343236508984 -0.543042764104999
vn 0.9238795325112867 0.38268343236508984 -2.2628522245754005e-16
vn 1 6.123233995736766e-17 0
vn 0.8090169943749475 6.123233995736766e-17 0.5877852522924731
vn 0.3090169943749475 6.123233995736766e-17 0.9510565162951535
vn -0.30901699437494734 6.123233995736766e-17 0.9510565162951536
vn -0.8090169943749473 6.123233995736766e-17 0.5877852522924732
vn -1 6.123233995736766e-17 1.2246467991473532e-16
vn -0.8090169943749475 6.123233995736766e-17 -0.587785252292473
vn -0.30901699437494756 6.123233995736766e-17 -0.9510565162951535
vn 0.30901699437494723 6.123233995736766e-17 -0.9510565162951536
vn 0.8090169943749473 6.123233995736766e-17 -0.5877852522924734
vn 1 6.123233995736766e-17 -2.4492935982947064e-16
vn 0.9238795325112867 -0.3826834323650898 0
vn 0.7474342425568128 -0.3826834323650898 0.5430427641049989
vn 0.28549447630116936 -0.3826834323650898 0.8786616496665794
vn -0.28549447630116925 -0.3826834323650898 0.8786616496665796
vn -0.7474342425568127 -0.3826834323650898 0.543042764104999
vn -0.9238795325112867 -0.3826834323650898 1.1314261122877003e-16
vn -0.7474342425568128 -0.3826834323650898 -0.5430427641049987
vn -0.2854944763011695 -0.3826834323650898 -0.8786616496665794
vn 0.28549447630116914 -0.3826834323650898 -0.8786616496665796
vn 0.7474342425568127 -0.3826834323650898 -0.543042764104999
vn 0.9238795325112867 -0.3826834323650898 -2.2628522245754005e-16
vn 0.7071067811865476 -0.7071067811865475 0
vn 0.5720614028176844 -0.7071067811865475 0.41562693777745346
vn 0.21850801222441057 -0.7071067811865475 0.6724985119639574
vn -0.2185080122244105 -0.7071067811865475 0.6724985119639574
vn -0.5720614028176843 -0.7071067811865475 0.4156269377774535
vn -0.7071067811865476 -0.7071067811865475 8.659560562354934e-17
vn -0.5720614028176844 -0.7071067811865475 -0.4156269377774534
vn -0.21850801222441066 -0.7071067811865475 -0.6724985119639574
vn 0.2185080122244104 -0.7071067811865475 -0.6724985119639574
vn 0.5720614028176843 -0.7071067811865475 -0.41562693777745363
vn 0.7071067811865476 -0.7071067811865475 -1.7319121124709868e-16
vn 0.3826834323650899 -0.9238795325112866 0
vn 0.3095974002490935 -0.9238795325112866 0.22493567784086393
vn 0.11825568406654857 -0.9238795325112866 0.3639535720290144
vn -0.11825568406654852 -0.9238795325112866 0.36395357202901446
vn -0.3095974002490935 -0.9238795325112866 0.224935677840864
vn -0.3826834323650899 -0.9238795325112866 4.6865204053263e-17
vn -0.3095974002490935 -0.9238795325112866 -0.22493567784086388
vn -0.11825568406654861 -0.9238795325112866 -0.3639535720290144
vn 0.11825568406654849 -0.9238795325112866 -0.36395357202901446
vn 0.3095974002490935 -0.9238795325112866 -0.22493567784086402
vn 0.3826834323650899 -0.9238795325112866 -9.3730408106526e-17
vn 1.2246467991473532e-16 -1 0
vn 9.907600726170916e-17 -1 7.198293278059966e-17
vn 3.7843667304341506e-17 -1 1.1647083184890923e-16
vn -3.7843667304341493e-17 -1 1.1647083184890926e-16
vn -9.907600726170915e-17 -1 7.198293278059968e-17
vn -1.2246467991473532e-16 -1 1.4997597826618576e-32
vn -9.907600726170916e-17 -1 -7.198293278059965e-17
vn -3.784366730434152e-17 -1 -1.1647083184890923e-16
vn 3.7843667304341475e-17 -1 -1.1647083184890926e-16
vn 9.907600726170915e-17 -1 -7.19829327805997e-17
vn 1.2246467991473532e-16 -1 -2.999519565323715e-32
vn 0 1 0
vn 0 1 0
vn 0 1 0
vn 0 1 0
vn 0 1 0
vn 0 1 0
vn 0 1 0
vn 0 1 0
vn 0 1 0
vn 0 1 0
vn 0 1 0
vn 0.3826834323650898 0.9238795325112867 0
vn 0.30959740024909344 0.9238795325112867 0.22493567784086388
vn 0.11825568406654853 0.9238795325112867 0.3639535720290143
vn -0.11825568406654849 0.9238795325112867 0.36395357202901435
vn -0.3095974002490934 0.9238795325112867 0.2249356778408639
vn -0.3826834323650898 0.9238795325112867 4.6865204053262986e-17
vn -0.30959740024909344 0.9238795325112867 -0.22493567784086382
vn -0.11825568406654857 0.9238795325112867 -0.3639535720290143
vn 0.11825568406654845 0.9238795325112867 -0.36395357202901435
vn 0.3095974002490934 0.9238795325112867 -0.22493567784086396
vn 0.3826834323650898 0.9238795325112867 -9.373040810652597e-17
vn 0.7071067811865475 0.7071067811865476 0
vn 0.5720614028176843 0.7071067811865476 0.4156269377774534
vn 0.21850801222441055 0.7071067811865476 0.6724985119639573
vn -0.21850801222441046 0.7071067811865476 0.6724985119639573
vn -0.5720614028176841 0.7071067811865476 0.41562693777745346
vn -0.7071067811865475 0.7071067811865476 8.659560562354932e-17
vn -0.5720614028176843 0.7071067811865476 -0.4156269377774533
vn -0.2185080122244106 0.7071067811865476 -0.6724985119639573
vn 0.21850801222441038 0.7071067811865476 -0.6724985119639573
vn 0.5720614028176841 0.7071067811865476 -0.4156269377774536
vn 0.7071067811865475 0.7071067811865476 -1.7319121124709863e-16
vn 0.9238795325112867 0.38268343236508984 0
vn 0.7474342425568128 0.38268343236508984 0.5430427641049989
vn 0.28549447630116936 0.38268343236508984 0.8786616496665794
vn -0.28549447630116925 0.38268343236508984 0.8786616496665796
vn -0.7474342425568127 0.38268343236508984 0.543042764104999
vn -0.9238795325112867 0.38268343236508984 1.1314261122877003e-16
vn -0.7474342425568128 0.38268343236508984 -0.5430427641049987
vn -0.2854944763011695 0.38268343236508984 -0.8786616496665794
vn 0.28549447630116914 0.38268343236508984 -0.8786616496665796
vn 0.7474342425568127 0.38268343236508984 -0.543042764104999
vn 0.9238795325112867 0.38268343236508984 -2.2628522245754005e-16
vn 1 6.123233995736766e-17 0
vn 0.8090169943749475 6.123233995736766e-17 0.5877852522924731
vn 0.30901699437494745 6.123233995736766e-17 0.9510565162951535
vn -0.30901699437494734 6.123233995736766e-17 0.9510565162951536
vn -0.8090169943749473 6.123233995736766e-17 0.5877852522924732
vn -1 6.123233995736766e-17 1.2246467991473532e-16
vn -0.8090169943749475 6.123233995736766e-17 -0.587785252292473
vn -0.30901699437494756 6.123233995736766e-17 -0.9510565162951535
vn 0.30901699437494723 6.123233995736766e-17 -0.9510565162951536
vn 0.8090169943749473 6.123233995736766e-17 -0.5877852522924734
vn 1 6.123233995736766e-17 -2.4492935982947064e-16
vn 0.9238795325112867 -0.3826834323650898 0
vn 0.7474342425568128 -0.3826834323650898 0.5430427641049989
vn 0.28549447630116936 -0.3826834323650898 0.8786616496665794
vn -0.28549447630116925 -0.3826834323650898 0.8786616496665796
vn -0.7474342425568127 -0.3826834323650898 0.543042764104999
vn -0.9238795325112867 -0.3826834323650898 1.1314261122877003e-16
vn -0.7474342425568128 -0.3826834323650898 -0.5430427641049987
vn -0.2854944763011695 -0.3826834323650898 -0.8786616496665794
vn 0.28549447630116914 -0.3826834323650898 -0.8786616496665796
vn 0.7474342425568127 -0.3826834323650898 -0.543042764104999
vn 0.9238795325112867 -0.3826834323650898 -2.2628522245754005e-16
vn 0.7071067811865476 -0.7071067811865475 0
vn 0.5720614028176844 -0.7071067811865475 0.41562693777745346
vn 0.21850801222441057 -0.7071067811865475 0.6724985119639574
vn -0.2185080122244105 -0.7071067811865475 0.6724985119639574
vn -0.5720614028176843 -0.7071067811865475 0.4156269377774535
vn -0.7071067811865476 -0.7071067811865475 8.659560562354934e-17
vn -0.5720614028176844 -0.7071067811865475 -0.4156269377774534
vn -0.21850801222441066 -0.7071067811865475 -0.6724985119639574
vn 0.2185080122244104 -0.7071067811865475 -0.6724985119639574
vn 0.5720614028176843 -0.7071067811865475 -0.41562693777745363
vn 0.7071067811865476 -0.7071067811865475 -1.7319121124709868e-16
vn 0.3826834323650899 -0.9238795325112867 0
vn 0.3095974002490935 -0.9238795325112867 0.22493567784086393
vn 0.11825568406654857 -0.9238795325112867 0.3639535720290144
vn -0.11825568406654853 -0.9238795325112867 0.36395357202901446
vn -0.3095974002490935 -0.9238795325112867 0.224935677840864
vn -0.3826834323650899 -0.9238795325112867 4.6865204053263e-17
vn -0.3095974002490935 -0.9238795325112867 -0.2249356778408639
vn -0.11825568406654861 -0.9238795325112867 -0.3639535720290144
vn 0.11825568406654849 -0.9238795325112867 -0.36395357202901446
vn 0.3095974002490935 -0.9238795325112867 -0.22493567784086402
vn 0.3826834323650899 -0.9238795325112867 -9.3730408106526e-17
vn 1.2246467991473532e-16 -1 0
vn 9.907600726170916e-17 -1 7.198293278059966e-17
vn 3.7843667304341506e-17 -1 1.1647083184890923e-16
vn -3.7843667304341493e-17 -1 1.1647083184890926e-16
vn -9.907600726170915e-17 -1 7.198293278059968e-17
vn -1.2246467991473532e-16 -1 1.4997597826618576e-32
vn -9.907600726170916e-17 -1 -7.198293278059965e-17
vn -3.784366730434152e-17 -1 -1.1647083184890923e-16
vn 3.7843667304341475e-17 -1 -1.1647083184890926e-16
vn 9.907600726170915e-17 -1 -7.19829327805997e-17
vn 1.2246467991473532e-16 -1 -2.999519565323715e-32
vn 0 -1 0
vn 0 -1 0
vn 0 -1 0
vn 0 -1 0
vn 0 -1 0
vn 0 -1 0
vn 0 -1 0
vn 0 -1 0
vn 0 -1 0
vn 0 -1 0
vn 0 -1 0
vn 0 -1 0
vn 0 1 0
vn 0 1 0
vn 0 1 0
vn 0 1 0
vn 0 1 0
vn 0 1 0
vn 0 1 0
vn 0 1 0
vn 0 1 0
vn 0 1 0
vn 0 1 0
vn 0 1 0
vn 0 -1 0
vn 0 1 0
vn 0 -1 0
vn 0 -1 0
vn 0 -1 0
vn 0 -1 0
vn 0 -1 0
vn 0 -1 0
vn 0 -1 0
vn 0 -1 0
vn 0 -1 0
vn 0 -1 0
vn 0 -1 0
vn 0 -1 0
vn 0 1 0
vn 0 1 0
vn 0 1 0
vn 0 1 0
vn 0 1 0
vn 0 1 0
vn 0 1 0
vn 0 1 0
vn 0 1 0
vn 0 1 0
vn 0 1 0
vn 0 1 0
vn 0 -1 0
vn 0 1 0
vn 0 -1 0
vn 0 -1 0
vn 0 -1 0
vn 0 -1 0
vn 0 -1 0
vn 0 -1 0
vn 0 -1 0
vn 0 -1 0
vn 0 -1 0
vn 0 -1 0
vn 0 -1 0
vn 0 -1 0
vn 0 1 0
vn 0 1 0
vn 0 1 0
vn 0 1 0
vn 0 1 0
vn 0 1 0
vn 0 1 0
vn 0 1 0
vn 0 1 0
vn 0 1 0
vn 0 1 0
vn 0 1 0
vn 0 -1 0
vn 0 1 0
vn 0 1 0
vn 0 1 0
vn 0 1 0
vn 0 1 0
vn 0 1 0
vn 0 1 0
vn 0 1 0
vn 0 1 0
vn 0 1 0
vn 0 1 0
vn 0 1 0
vn 0.3826834323650898 0.9238795325112868 0
vn 0.30959740024909344 0.9238795325112868 0.22493567784086388
vn 0.11825568406654853 0.9238795325112868 0.36395357202901424
vn -0.1182556840665485 0.9238795325112868 0.36395357202901435
vn -0.3095974002490934 0.9238795325112868 0.2249356778408639
vn -0.3826834323650898 0.9238795325112868 4.6865204053262986e-17
vn -0.30959740024909344 0.9238795325112868 -0.22493567784086385
vn -0.11825568406654857 0.9238795325112868 -0.36395357202901424
vn 0.11825568406654845 0.9238795325112868 -0.36395357202901435
vn 0.3095974002490934 0.9238795325112868 -0.224935677840864
vn 0.3826834323650898 0.9238795325112868 -9.373040810652597e-17
vn 0.7071067811865475 0.7071067811865476 0
vn 0.5720614028176843 0.7071067811865476 0.4156269377774534
vn 0.21850801222441055 0.7071067811865476 0.6724985119639573
vn -0.21850801222441046 0.7071067811865476 0.6724985119639573
vn -0.5720614028176841 0.7071067811865476 0.4156269377774535
vn -0.7071067811865475 0.7071067811865476 8.659560562354932e-17
vn -0.5720614028176843 0.7071067811865476 -0.4156269377774533
vn -0.2185080122244106 0.7071067811865476 -0.6724985119639573
vn 0.2185080122244104 0.7071067811865476 -0.6724985119639573
vn 0.5720614028176841 0.7071067811865476 -0.4156269377774536
vn 0.7071067811865475 0.7071067811865476 -1.7319121124709863e-16
vn 0.9238795325112867 0.38268343236508984 0
vn 0.7474342425568128 0.38268343236508984 0.5430427641049989
vn 0.28549447630116936 0.38268343236508984 0.8786616496665794
vn -0.28549447630116925 0.38268343236508984 0.8786616496665796
vn -0.7474342425568127 0.38268343236508984 0.543042764104999
vn -0.9238795325112867 0.38268343236508984 1.1314261122877003e-16
vn -0.7474342425568128 0.38268343236508984 -0.5430427641049987
vn -0.2854944763011695 0.38268343236508984 -0.8786616496665794
vn 0.28549447630116914 0.38268343236508984 -0.8786616496665796
vn 0.7474342425568127 0.38268343236508984 -0.543042764104999
vn 0.9238795325112867 0.38268343236508984 -2.2628522245754005e-16
vn 1 6.123233995736766e-17 0
vn 0.8090169943749476 6.123233995736766e-17 0.5877852522924731
vn 0.30901699437494745 6.123233995736766e-17 0.9510565162951535
vn -0.30901699437494734 6.123233995736766e-17 0.9510565162951536
vn -0.8090169943749473 6.123233995736766e-17 0.5877852522924732
vn -1 6.123233995736766e-17 1.2246467991473532e-16
vn -0.8090169943749476 6.123233995736766e-17 -0.587785252292473
vn -0.30901699437494756 6.123233995736766e-17 -0.9510565162951535
vn 0.30901699437494723 6.123233995736766e-17 -0.9510565162951536
vn 0.8090169943749473 6.123233995736766e-17 -0.5877852522924734
vn 1 6.123233995736766e-17 -2.4492935982947064e-16
vn 0.9238795325112867 -0.3826834323650897 0
vn 0.7474342425568128 -0.3826834323650897 0.5430427641049989
vn 0.28549447630116936 -0.3826834323650897 0.8786616496665794
vn -0.28549447630116925 -0.3826834323650897 0.8786616496665796
vn -0.7474342425568127 -0.3826834323650897 0.543042764104999
vn -0.9238795325112867 -0.3826834323650897 1.1314261122877003e-16
vn -0.7474342425568128 -0.3826834323650897 -0.5430427641049987
vn -0.2854944763011695 -0.3826834323650897 -0.8786616496665794
vn 0.28549447630116914 -0.3826834323650897 -0.8786616496665796
vn 0.7474342425568127 -0.3826834323650897 -0.543042764104999
vn 0.9238795325112867 -0.3826834323650897 -2.2628522245754005e-16
vn 0.7071067811865476 -0.7071067811865475 0
vn 0.5720614028176844 -0.7071067811865475 0.4156269377774535
vn 0.21850801222441057 -0.7071067811865475 0.6724985119639574
vn -0.2185080122244105 -0.7071067811865475 0.6724985119639574
vn -0.5720614028176843 -0.7071067811865475 0.4156269377774535
vn -0.7071067811865476 -0.7071067811865475 8.659560562354935e-17
vn -0.5720614028176844 -0.7071067811865475 -0.4156269377774534
vn -0.21850801222441069 -0.7071067811865475 -0.6724985119639574
vn 0.2185080122244104 -0.7071067811865475 -0.6724985119639574
vn 0.5720614028176843 -0.7071067811865475 -0.41562693777745363
vn 0.7071067811865476 -0.7071067811865475 -1.731912112470987e-16
vn 0.3826834323650899 -0.9238795325112868 0
vn 0.3095974002490935 -0.9238795325112868 0.22493567784086393
vn 0.11825568406654857 -0.9238795325112868 0.3639535720290144
vn -0.11825568406654853 -0.9238795325112868 0.36395357202901446
vn -0.3095974002490935 -0.9238795325112868 0.224935677840864
vn -0.3826834323650899 -0.9238795325112868 4.6865204053263e-17
vn -0.3095974002490935 -0.9238795325112868 -0.2249356778408639
vn -0.11825568406654861 -0.9238795325112868 -0.3639535720290144
vn 0.1182556840665485 -0.9238795325112868 -0.36395357202901446
vn 0.3095974002490935 -0.9238795325112868 -0.22493567784086402
vn 0.3826834323650899 -0.9238795325112868 -9.3730408106526e-17
vn 1.2246467991473532e-16 -1 0
vn 9.907600726170916e-17 -1 7.198293278059965e-17
vn 3.78436673043415e-17 -1 1.1647083184890923e-16
vn -3.7843667304341493e-17 -1 1.1647083184890926e-16
vn -9.907600726170916e-17 -1 7.198293278059968e-17
vn -1.2246467991473532e-16 -1 1.4997597826618576e-32
vn -9.907600726170916e-17 -1 -7.198293278059965e-17
vn -3.784366730434152e-17 -1 -1.1647083184890923e-16
vn 3.784366730434147e-17 -1 -1.1647083184890926e-16
vn 9.907600726170916e-17 -1 -7.19829327805997e-17
vn 1.2246467991473532e-16 -1 -2.999519565323715e-32
f 1/1/1 2/2/2 14/14/14
f 1/1/1 14/14/14 13/13/13
f 25/25/25 2/2/2 1/1/1
f 26/26/26 13/13/13 14/14/14
f 2/2/2 3/3/3 15/15/15
f 2/2/2 15/15/15 14/14/14
f 25/25/25 3/3/3 2/2/2
f 26/26/26 14/14/14 15/15/15
f 3/3/3 4/4/4 16/16/16
f 3/3/3 16/16/16 15/15/15
f 25/25/25 4/4/4 3/3/3
f 26/26/26 15/15/15 16/16/16
f 4/4/4 5/5/5 17/17/17
f 4/4/4 17/17/17 16/16/16
f 25/25/25 5/5/5 4/4/4
f 26/26/26 16/16/16 17/17/17
f 5/5/5 6/6/6 18/18/18
f 5/5/5 18/18/18 17/17/17
f 25/25/25 6/6/6 5/5/5
f 26/26/26 17/17/17 18/18/18
f 6/6/6 7/7/7 19/19/19
f 6/6/6 19/19/19 18/18/18
f 25/25/25 7/7/7 6/6/6
f 26/26/26 18/18/18 19/19/19
f 7/7/7 8/8/8 20/20/20
f 7/7/7 20/20/20 19/19/19
f 25/25/25 8/8/8 7/7/7
f 26/26/26 19/19/19 20/20/20
f 8/8/8 9/9/9 21/21/21
f 8/8/8 21/21/21 20/20/20
f 25/25/25 9/9/9 8/8/8
f 26/26/26 20/20/20 21/21/21
f 9/9/9 10/10/10 22/22/22
f 9/9/9 22/22/22 21/21/21
f 25/25/25 10/10/10 9/9/9
f 26/26/26 21/21/21 22/22/22
f 10/10/10 11/11/11 23/23/23
f 10/10/10 23/23/23 22/22/22
f 25/25/25 11/11/11 10/10/10
f 26/26/26 22/22/22 23/23/23
f 11/11/11 12/12/12 24/24/24
f 11/11/11 24/24/24 23/23/23
f 25/25/25 12/12/12 11/11/11
f 26/26/26 23/23/23 24/24/24
f 12/12/12 1/1/1 13/13/13
f 12/12/12 13/13/13 24/24/24
f 25/25/25 1/1/1 12/12/12
f 26/26/26 24/24/24 13/13/13
f 27/27/27 38/38/38 39/39/39
f 27/27/27 39/39/39 28/28/28
f 28/28/28 39/39/39 40/40/40
f 28/28/28 40/40/40 29/29/29
f 29/29/29 40/40/40 41/41/41
f 29/29/29 41/41/41 30/30/30
f 30/30/30 41/41/41 42/42/42
f 30/30/30 42/42/42 31/31/31
f 31/31/31 42/42/42 43/43/43
f 31/31/31 43/43/43 32/32/32
f 32/32/32 43/43/43 44/44/44
f 32/32/32 44/44/44 33/33/33
f 33/33/33 44/44/44 45/45/45
f 33/33/33 45/45/45 34/34/34
f 34/34/34 45/45/45 46/46/46
f 34/34/34 46/46/46 35/35/35
f 35/35/35 46/46/46 47/47/47
f 35/35/35 47/47/47 36/36/36
f 36/36/36 47/47/47 48/48/48
f 36/36/36 48/48/48 37/37/37
f 38/38/38 49/49/49 50/50/50
f 38/38/38 50/50/50 39/39/39
f 39/39/39 50/50/50 51/51/51
f 39/39/39 51/51/51 40/40/40
f 40/40/40 51/51/51 52/52/52
f 40/40/40 52/52/52 41/41/41
f 41/41/41 52/52/52 53/53/53
f 41/41/41 53/53/53 42/42/42
f 42/42/42 53/53/53 54/54/54
f 42/42/42 54/54/54 43/43/43
f 43/43/43 54/54/54 55/55/55
f 43/43/43 55/55/55 44/44/44
f 44/44/44 55/55/55 56/56/56
f 44/44/44 56/56/56 45/45/45
f 45/45/45 56/56/56 57/57/57
f 45/45/45 57/57/57 46/46/46
f 46/46/46 57/57/57 58/58/58
f 46/46/46 58/58/58 47/47/47
f 47/47/47 58/58/58 59/59/59
f 47/47/47 59/59/59 48/48/48
f 49/49/49 60/60/60 61/61/61
f 49/49/49 61/61/61 50/50/50
f 50/50/50 61/61/61 62/62/62
f 50/50/50 62/62/62 51/51/51
f 51/51/51 62/62/62 63/63/63
f 51/51/51 63/63/63 52/52/52
f 52/52/52 63/63/63 64/64/64
f 52/52/52 64/64/64 53/53/53
f 53/53/53 64/64/64 65/65/65
f 53/53/53 65/65/65 54/54/54
f 54/54/54 65/65/65 66/66/66
f 54/54/54 66/66/66 55/55/55
f 55/55/55 66/66/66 67/67/67
f 55/55/55 67/67/67 56/56/56
f 56/56/56 67/67/67 68/68/68
f 56/56/56 68/68/68 57/57/57
f 57/57/57 68/68/68 69/69/69
f 57/57/57 69/69/69 58/58/58
f 58/58/58 69/69/69 70/70/70
f 58/58/58 70/70/70 59/59/59
f 60/60/60 71/71/71 72/72/72
f 60/60/60 72/72/72 61/61/61
f 61/61/61 72/72/72 73/73/73
f 61/61/61 73/73/73 62/62/62
f 62/62/62 73/73/73 74/74/74
f 62/62/62 74/74/74 63/63/63
f 63/63/63 74/74/74 75/75/75
f 63/63/63 75/75/75 64/64/64
f 64/64/64 75/75/75 76/76/76
f 64/64/64 76/76/76 65/65/65
f 65/65/65 76/76/76 77/77/77
f 65/65/65 77/77/77 66/66/66
f 66/66/66 77/77/77 78/78/78
f 66/66/66 78/78/78 67/67/67
f 67/67/67 78/78/78 79/79/79
f 67/67/67 79/79/79 68/68/68
f 68/68/68 79/79/79 80/80/80
f 68/68/68 80/80/80 69/69/69
f 69/69/69 80/80/80 81/81/81
f 69/69/69 81/81/81 70/70/70
f 71/71/71 82/82/82 83/83/83
f 71/71/71 83/83/83 72/72/72
f 72/72/72 83/83/83 84/84/84
f 72/72/72 84/84/84 73/73/73
f 73/73/73 84/84/84 85/85/85
f 73/73/73 85/85/85 74/74/74
f 74/74/74 85/85/85 86/86/86
f 74/74/74 86/86/86 75/75/75
f 75/75/75 86/86/86 87/87/87
f 75/75/75 87/87/87 76/76/76
f 76/76/76 87/87/87 88/88/88
f 76/76/76 88/88/88 77/77/77
f 77/77/77 88/88/88 89/89/89
f 77/77/77 89/89/89 78/78/78
f 78/78/78 89/89/89 90/90/90
f 78/78/78 90/90/90 79/79/79
f 79/79/79 90/90/90 91/91/91
f 79/79/79 91/91/91 80/80/80
f 80/80/80 91/91/91 92/92/92
f 80/80/80 92/92/92 81/81/81
f 82/82/82 93/93/93 94/94/94
f 82/82/82 94/94/94 83/83/83
f 83/83/83 94/94/94 95/95/95
f 83/83/83 95/95/95 84/84/84
f 84/84/84 95/95/95 96/96/96
f 84/84/84 96/96/96 85/85/85
f 85/85/85 96/96/96 97/97/97
f 85/85/85 97/97/97 86/86/86
f 86/86/86 97/97/97 98/98/98
f 86/86/86 98/98/98 87/87/87
f 87/87/87 98/98/98 99/99/99
f 87/87/87 99/99/99 88/88/88
f 88/88/88 99/99/99 100/100/100
f 88/88/88 100/100/100 89/89/89
f 89/89/89 100/100/100 101/101/101
f 89/89/89 101/101/101 90/90/90
f 90/90/90 101/101/101 102/102/102
f 90/90/90 102/102/102 91/91/91
f 91/91/91 102/102/102 103/103/103
f 91/91/91 103/103/103 92/92/92
f 93/93/93 104/104/104 105/105/105
f 93/93/93 105/105/105 94/94/94
f 94/94/94 105/105/105 106/106/106
f 94/94/94 106/106/106 95/95/95
f 95/95/95 106/106/106 107/107/107
f 95/95/95 107/107/107 96/96/96
f 96/96/96 107/107/107 108/108/108
f 96/96/96 108/108/108 97/97/97
f 97/97/97 108/108/108 109/109/109
f 97/97/97 109/109/109 98/98/98
f 98/98/98 109/109/109 110/110/110
f 98/98/98 110/110/110 99/99/99
f 99/99/99 110/110/110 111/111/111
f 99/99/99 111/111/111 100/100/100
f 100/100/100 111/111/111 112/112/112
f 100/100/100 112/112/112 101/101/101
f 101/101/101 112/112/112 113/113/113
f 101/101/101 113/113/113 102/102/102
f 102/102/102 113/113/113 114/114/114
f 102/102/102 114/114/114 103/103/103
f 104/104/104 115/115/115 116/116/116
f 104/104/104 116/116/116 105/105/105
f 105/105/105 116/116/116 117/117/117
f 105/105/105 117/117/117 106/106/106
f 106/106/106 117/117/117 118/118/118
f 106/106/106 118/118/118 107/107/107
f 107/107/107 118/118/118 119/119/119
f 107/107/107 119/119/119 108/108/108
f 108/108/108 119/119/119 120/120/120
f 108/108/108 120/120/120 109/109/109
f 109/109/109 120/120/120 121/121/121
f 109/109/109 121/121/121 110/110/110
f 110/110/110 121/121/121 122/122/122
f 110/110/110 122/122/122 111/111/111
f 111/111/111 122/122/122 123/123/123
f 111/111/111 123/123/123 112/112/112
f 112/112/112 123/123/123 124/124/124
f 112/112/112 124/124/124 113/113/113
f 113/113/113 124/124/124 125/125/125
f 113/113/113 125/125/125 114/114/114
f 126/126/126 137/137/137 138/138/138
f 126/126/126 138/138/138 127/127/127
f 127/127/127 138/138/138 139/139/139
f 127/127/127 139/139/139 128/128/128
f 128/128/128 139/139/139 140/140/140
f 128/128/128 140/140/140 129/129/129
f 129/129/129 140/140/140 141/141/141
f 129/129/129 141/141/141 130/130/130
f 130/130/130 141/141/141 142/142/142
f 130/130/130 142/142/142 131/131/131
f 131/131/131 142/142/142 143/143/143
f 131/131/131 143/143/143 132/132/132
f 132/132/132 143/143/143 144/144/144
f 132/132/132 144/144/144 133/133/133
f 133/133/133 144/144/144 145/145/145
f 133/133/133 145/145/145 134/134/134
f 134/134/134 145/145/145 146/146/146
f 134/134/134 146/146/146 135/135/135
f 135/135/135 146/146/146 147/147/147
f 135/135/135 147/147/147 136/136/136
f 137/137/137 148/148/148 149/149/149
f 137/137/137 149/149/149 138/138/138
f 138/138/138 149/149/149 150/150/150
f 138/138/138 150/150/150 139/139/139
f 139/139/139 150/150/150 151/151/151
f 139/139/139 151/151/151 140/140/140
f 140/140/140 151/151/151 152/152/152
f 140/140/140 152/152/152 141/141/141
f 141/141/141 152/152/152 153/153/153
f 141/141/141 153/153/153 142/142/142
f 142/142/142 153/153/153 154/154/154
f 142/142/142 154/154/154 143/143/143
f 143/143/143 154/154/154 155/155/155
f 143/143/143 155/155/155 144/144/144
f 144/144/144 155/155/155 156/156/156
f 144/144/144 156/156/156 145/145/145
f 145/145/145 156/156/156 157/157/157
f 145/145/145 157/157/157 146/146/146
f 146/146/146 157/157/157 158/158/158
f 146/146/146 158/158/158 147/147/147
f 148/148/148 159/159/159 160/160/160
f 148/148/148 160/160/160 149/149/149
f 149/149/149 160/160/160 161/161/161
f 149/149/149 161/161/161 150/150/150
f 150/150/150 161/161/161 162/162/162
f 150/150/150 162/162/162 151/151/151
f 151/151/151 162/162/162 163/163/163
f 151/151/151 163/163/163 152/152/152
f 152/152/152 163/163/163 164/164/164
f 152/152/152 164/164/164 153/153/153
f 153/153/153 164/164/164 165/165/165
f 153/153/153 165/165/165 154/154/154
f 154/154/154 165/165/165 166/166/166
f 154/154/154 166/166/166 155/155/155
f 155/155/155 166/166/166 167/167/167
f 155/155/155 167/167/167 156/156/156
f 156/156/156 167/167/167 168/168/168
f 156/156/156 168/168/168 157/157/157
f 157/157/157 168/168/168 169/169/169
f 157/157/157 169/169/169 158/158/158
f 159/159/159 170/170/170 171/171/171
f 159/159/159 171/171/171 160/160/160
f 160/160/160 171/171/171 172/172/172
f 160/160/160 172/172/172 161/161/161
f 161/161/161 172/172/172 173/173/173
f 161/161/161 173/173/173 162/162/162
f 162/162/162 173/173/173 174/174/174
f 162/162/162 174/174/174 163/163/163
f 163/163/163 174/174/174 175/175/175
f 163/163/163 175/175/175 164/164/164
f 164/164/164 175/175/175 176/176/176
f 164/164/164 176/176/176 165/165/165
f 165/165/165 176/176/176 177/177/177
f 165/165/165 177/177/177 166/166/166
f 166/166/166 177/177/177 178/178/178
f 166/166/166 178/178/178 167/167/167
f 167/167/167 178/178/178 179/179/179
f 167/167/167 179/179/179 168/168/168
f 168/168/168 179/179/179 180/180/180
f 168/168/168 180/180/180 169/169/169
f 170/170/170 181/181/181 182/182/182
f 170/170/170 182/182/182 171/171/171
f 171/171/171 182/182/182 183/183/183
f 171/171/171 183/183/183 172/172/172
f 172/172/172 183/183/183 184/184/184
f 172/172/172 184/184/184 173/173/173
f 173/173/173 184/184/184 185/185/185
f 173/173/173 185/185/185 174/174/174
f 174/174/174 185/185/185 186/186/186
f 174/174/174 186/186/186 175/175/175
f 175/175/175 186/186/186 187/187/187
f 175/175/175 187/187/187 176/176/176
f 176/176/176 187/187/187 188/188/188
f 176/176/176 188/188/188 177/177/177
f 177/177/177 188/188/188 189/189/189
f 177/177/177 189/189/189 178/178/178
f 178/178/178 189/189/189 190/190/190
f 178/178/178 190/190/190 179/179/179
f 179/179/179 190/190/190 191/191/191
f 179/179/179 191/191/191 180/180/180
f 181/181/181 192/192/192 193/193/193
f 181/181/181 193/193/193 182/182/182
f 182/182/182 193/193/193 194/194/194
f 182/182/182 194/194/194 183/183/183
f 183/183/183 194/194/194 195/195/195
f 183/183/183 195/195/195 184/184/184
f 184/184/184 195/195/195 196/196/196
f 184/184/184 196/196/196 185/185/185
f 185/185/185 196/196/196 197/197/197
f 185/185/185 197/197/197 186/186/186
f 186/186/186 197/197/197 198/198/198
f 186/186/186 198/198/198 187/187/187
f 187/187/187 198/198/198 199/199/199
f 187/187/187 199/199/199 188/188/188
f 188/188/188 199/199/199 200/200/200
f 188/188/188 200/200/200 189/189/189
f 189/189/189 200/200/200 201/201/201
f 189/189/189 201/201/201 190/190/190
f 190/190/190 201/201/201 202/202/202
f 190/190/190 202/202/202 191/191/191
f 192/192/192 203/203/203 204/204/204
f 192/192/192 204/204/204 193/193/193
f 193/193/193 204/204/204 205/205/205
f 193/193/193 205/205/205 194/194/194
f 194/194/194 205/205/205 206/206/206
f 194/194/194 206/206/206 195/195/195
f 195/195/195 206/206/206 207/207/207
f 195/195/195 207/207/207 196/196/196
f 196/196/196 207/207/207 208/208/208
f 196/196/196 208/208/208 197/197/197
f 197/197/197 208/208/208 209/209/209
f 197/197/197 209/209/209 198/198/198
f 198/198/198 209/209/209 210/210/210
f 198/198/198 210/210/210 199/199/199
f 199/199/199 210/210/210 211/211/211
f 199/199/199 211/211/211 200/200/200
f 200/200/200 211/211/211 212/212/212
f 200/200/200 212/212/212 201/201/201
f 201/201/201 212/212/212 213/213/213
f 201/201/201 213/213/213 202/202/202
f 203/203/203 214/214/214 215/215/215
f 203/203/203 215/215/215 204/204/204
f 204/204/204 215/215/215 216/216/216
f 204/204/204 216/216/216 205/205/205
f 205/205/205 216/216/216 217/217/217
f 205/205/205 217/217/217 206/206/206
f 206/206/206 217/217/217 218/218/218
f 206/206/206 218/218/218 207/207/207
f 207/207/207 218/218/218 219/219/219
f 207/207/207 219/219/219 208/208/208
f 208/208/208 219/219/219 220/220/220
f 208/208/208 220/220/220 209/209/209
f 209/209/209 220/220/220 221/221/221
f 209/209/209 221/221/221 210/210/210
f 210/210/210 221/221/221 222/222/222
f 210/210/210 222/222/222 211/211/211
f 211/211/211 222/222/222 223/223/223
f 211/211/211 223/223/223 212/212/212
f 212/212/212 223/223/223 224/224/224
f 212/212/212 224/224/224 213/213/213
f 225/225/225 236/236/236 237/237/237
f 225/225/225 237/237/237 226/226/226
f 226/226/226 237/237/237 238/238/238
f 226/226/226 238/238/238 227/227/227
f 227/227/227 238/238/238 239/239/239
f 227/227/227 239/239/239 228/228/228
f 228/228/228 239/239/239 240/240/240
f 228/228/228 240/240/240 229/229/229
f 229/229/229 240/240/240 241/241/241
f 229/229/229 241/241/241 230/230/230
f 230/230/230 241/241/241 242/242/242
f 230/230/230 242/242/242 231/231/231
f 231/231/231 242/242/242 243/243/243
f 231/231/231 243/243/243 232/232/232
f 232/232/232 243/243/243 244/244/244
f 232/232/232 244/244/244 233/233/233
f 233/233/233 244/244/244 245/245/245
f 233/233/233 245/245/245 234/234/234
f 234/234/234 245/245/245 246/246/246
f 234/234/234 246/246/246 235/235/235
f 236/236/236 247/247/247 248/248/248
f 236/236/236 248/248/248 237/237/237
f 237/237/237 248/248/248 249/249/249
f 237/237/237 249/249/249 238/238/238
f 238/238/238 249/249/249 250/250/250
f 238/238/238 250/250/250 239/239/239
f 239/239/239 250/250/250 251/251/251
f 239/239/239 251/251/251 240/240/240
f 240/240/240 251/251/251 252/252/252
f 240/240/240 252/252/252 241/241/241
f 241/241/241 252/252/252 253/253/253
f 241/241/241 253/253/253 242/242/242
f 242/242/242 253/253/253 254/254/254
f 242/242/242 254/254/254 243/243/243
f 243/243/243 254/254/254 255/255/255
f 243/243/243 255/255/255 244/244/244
f 244/244/244 255/255/255 256/256/256
f 244/244/244 256/256/256 245/245/245
f 245/245/245 256/256/256 257/257/257
f 245/245/245 257/257/257 246/246/246
f 247/247/247 258/258/258 259/259/259
f 247/247/247 259/259/259 248/248/248
f 248/248/248 259/259/259 260/260/260
f 248/248/248 260/260/260 249/249/249
f 249/249/249 260/260/260 261/261/261
f 249/249/249 261/261/261 250/250/250
f 250/250/250 261/261/261 262/262/262
f 250/250/250 262/262/262 251/251/251
f 251/251/251 262/262/262 263/263/263
f 251/251/251 263/263/263 252/252/252
f 252/252/252 263/263/263 264/264/264
f 252/252/252 264/264/264 253/253/253
f 253/253/253 264/264/264 265/265/265
f 253/253/253 265/265/265 254/254/254
f 254/254/254 265/265/265 266/266/266
f 254/254/254 266/266/266 255/255/255
f 255/255/255 266/266/266 267/267/267
f 255/255/255 267/267/267 256/256/256
f 256/256/256 267/267/267 268/268/268
f 256/256/256 268/268/268 257/257/257
f 258/258/258 269/269/269 270/270/270
f 258/258/258 270/270/270 259/259/259
f 259/259/259 270/270/270 271/271/271
f 259/259/259 271/271/271 260/260/260
f 260/260/260 271/271/271 272/272/272
f 260/260/260 272/272/272 261/261/261
f 261/261/261 272/272/272 273/273/273
f 261/261/261 273/273/273 262/262/262
f 262/262/262 273/273/273 274/274/274
f 262/262/262 274/274/274 263/263/263
f 263/263/263 274/274/274 275/275/275
f 263/263/263 275/275/275 264/264/264
f 264/264/264 275/275/275 276/276/276
f 264/264/264 276/276/276 265/265/265
f 265/265/265 276/276/276 277/277/277
f 265/265/265 277/277/277 266/266/266
f 266/266/266 277/277/277 278/278/278
f 266/266/266 278/278/278 267/267/267
f 267/267/267 278/278/278 279/279/279
f 267/267/267 279/279/279 268/268/268
f 269/269/269 280/280/280 281/281/281
f 269/269/269 281/281/281 270/270/270
f 270/270/270 281/281/281 282/282/282
f 270/270/270 282/282/282 271/271/271
f 271/271/271 282/282/282 283/283/283
f 271/271/271 283/283/283 272/272/272
f 272/272/272 283/283/283 284/284/284
f 272/272/272 284/284/284 273/273/273
f 273/273/273 284/284/284 285/285/285
f 273/273/273 285/285/285 274/274/274
f 274/274/274 285/285/285 286/286/286
f 274/274/274 286/286/286 275/275/275
f 275/275/275 286/286/286 287/287/287
f 275/275/275 287/287/287 276/276/276
f 276/276/276 287/287/287 288/288/288
f 276/276/276 288/288/288 277/277/277
f 277/277/277 288/288/288 289/289/289
f 277/277/277 289/289/289 278/278/278
f 278/278/278 289/289/289 290/290/290
f 278/278/278 290/290/290 279/279/279
f 280/280/280 291/291/291 292/292/292
f 280/280/280 292/292/292 281/281/281
f 281/281/281 292/292/292 293/293/293
f 281/281/281 293/293/293 282/282/282
f 282/282/282 293/293/293 294/294/294
f 282/282/282 294/294/294 283/283/283
f 283/283/283 294/294/294 295/295/295
f 283/283/283 295/295/295 284/284/284
f 284/284/284 295/295/295 296/296/296
f 284/284/284 296/296/296 285/285/285
f 285/285/285 296/296/296 297/297/297
f 285/285/285 297/297/297 286/286/286
f 286/286/286 297/297/297 298/298/298
f 286/286/286 298/298/298 287/287/287
f 287/287/287 298/298/298 299/299/299
f 287/287/287 299/299/299 288/288/288
f 288/288/288 299/299/299 300/300/300
f 288/288/288 300/300/300 289/289/289
f 289/289/289 300/300/300 301/301/301
f 289/289/289 301/301/301 290/290/290
f 291/291/291 302/302/302 303/303/303
f 291/291/291 303/303/303 292/292/292
f 292/292/292 303/303/303 304/304/304
f 292/292/292 304/304/304 293/293/293
f 293/293/293 304/304/304 305/305/305
f 293/293/293 305/305/305 294/294/294
f 294/294/294 305/305/305 306/306/306
f 294/294/294 306/306/306 295/295/295
f 295/295/295 306/306/306 307/307/307
f 295/295/295 307/307/307 296/296/296
f 296/296/296 307/307/307 308/308/308
f 296/296/296 308/308/308 297/297/297
f 297/297/297 308/308/308 309/309/309
f 297/297/297 309/309/309 298/298/298
f 298/298/298 309/309/309 310/310/310
f 298/298/298 310/310/310 299/299/299
f 299/299/299 310/310/310 311/311/311
f 299/299/299 311/311/311 300/300/300
f 300/300/300 311/311/311 312/312/312
f 300/300/300 312/312/312 301/301/301
f 302/302/302 313/313/313 314/314/314
f 302/302/302 314/314/314 303/303/303
f 303/303/303 314/314/314 315/315/315
f 303/303/303 315/315/315 304/304/304
f 304/304/304 315/315/315 316/316/316
f 304/304/304 316/316/316 305/305/305
f 305/305/305 316/316/316 317/317/317
f 305/305/305 317/317/317 306/306/306
f 306/306/306 317/317/317 318/318/318
f 306/306/306 318/318/318 307/307/307
f 307/307/307 318/318/318 319/319/319
f 307/307/307 319/319/319 308/308/308
f 308/308/308 319/319/319 320/320/320
f 308/308/308 320/320/320 309/309/309
f 309/309/309 320/320/320 321/321/321
f 309/309/309 321/321/321 310/310/310
f 310/310/310 321/321/321 322/322/322
f 310/310/310 322/322/322 311/311/311
f 311/311/311 322/322/322 323/323/323
f 311/311/311 323/323/323 312/312/312
f 324/324/324 325/325/325 337/337/337
f 324/324/324 337/337/337 336/336/336
f 348/348/348 325/325/325 324/324/324
f 349/349/349 336/336/336 337/337/337
f 325/325/325 326/326/326 338/338/338
f 325/325/325 338/338/338 337/337/337
f 348/348/348 326/326/326 325/325/325
f 349/349/349 337/337/337 338/338/338
f 326/326/326 327/327/327 339/339/339
f 326/326/326 339/339/339 338/338/338
f 348/348/348 327/327/327 326/326/326
f 349/349/349 338/338/338 339/339/339
f 327/327/327 328/328/328 340/340/340
f 327/327/327 340/340/340 339/339/339
f 348/348/348 328/328/328 327/327/327
f 349/349/349 339/339/339 340/340/340
f 328/328/328 329/329/329 341/341/341
f 328/328/328 341/341/341 340/340/340
f 348/348/348 329/329/329 328/328/328
f 349/349/349 340/340/340 341/341/341
f 329/329/329 330/330/330 342/342/342
f 329/329/329 342/342/342 341/341/341
f 348/348/348 330/330/330 329/329/329
f 349/349/349 341/341/341 342/342/342
f 330/330/330 331/331/331 343/343/343
f 330/330/330 343/343/343 342/342/342
f 348/348/348 331/331/331 330/330/330
f 349/349/349 342/342/342 343/343/343
f 331/331/331 332/332/332 344/344/344
f 331/331/331 344/344/344 343/343/343
f 348/348/348 332/332/332 331/331/331
f 349/349/349 343/343/343 344/344/344
f 332/332/332 333/333/333 345/345/345
f 332/332/332 345/345/345 344/344/344
f 348/348/348 333/333/333 332/332/332
f 349/349/349 344/344/344 345/345/345
f 333/333/333 334/334/334 346/346/346
f 333/333/333 346/346/346 345/345/345
f 348/348/348 334/334/334 333/333/333
f 349/349/349 345/345/345 346/346/346
f 334/334/334 335/335/335 347/347/347
f 334/334/334 347/347/347 346/346/346
f 348/348/348 335/335/335 334/334/334
f 349/349/349 346/346/346 347/347/347
f 335/335/335 324/324/324 336/336/336
f 335/335/335 336/336/336 347/347/347
f 348/348/348 324/324/324 335/335/335
f 349/349/349 347/347/347 336/336/336
f 350/350/350 351/351/351 363/363/363
f 350/350/350 363/363/363 362/362/362
f 374/374/374 351/351/351 350/350/350
f 375/375/375 362/362/362 363/363/363
f 351/351/351 352/352/352 364/364/364
f 351/351/351 364/364/364 363/363/363
f 374/374/374 352/352/352 351/351/351
f 375/375/375 363/363/363 364/364/364
f 352/352/352 353/353/353 365/365/365
f 352/352/352 365/365/365 364/364/364
f 374/374/374 353/353/353 352/352/352
f 375/375/375 364/364/364 365/365/365
f 353/353/353 354/354/354 366/366/366
f 353/353/353 366/366/366 365/365/365
f 374/374/374 354/354/354 353/353/353
f 375/375/375 365/365/365 366/366/366
f 354/354/354 355/355/355 367/367/367
f 354/354/354 367/367/367 366/366/366
f 374/374/374 355/355/355 354/354/354
f 375/375/375 366/366/366 367/367/367
f 355/355/355 356/356/356 368/368/368
f 355/355/355 368/368/368 367/367/367
f 374/374/374 356/356/356 355/355/355
f 375/375/375 367/367/367 368/368/368
f 356/356/356 357/357/357 369/369/369
f 356/356/356 369/369/369 368/368/368
f 374/374/374 357/357/357 356/356/356
f 375/375/375 368/368/368 369/369/369
f 357/357/357 358/358/358 370/370/370
f 357/357/357 370/370/370 369/369/369
f 374/374/374 358/358/358 357/357/357
f 375/375/375 369/369/369 370/370/370
f 358/358/358 359/359/359 371/371/371
f 358/358/358 371/371/371 370/370/370
f 374/374/374 359/359/359 358/358/358
f 375/375/375 370/370/370 371/371/371
f 359/359/359 360/360/360 372/372/372
f 359/359/359 372/372/372 371/371/371
f 374/374/374 360/360/360 359/359/359
f 375/375/375 371/371/371 372/372/372
f 360/360/360 361/361/361 373/373/373
f 360/360/360 373/373/373 372/372/372
f 374/374/374 361/361/361 360/360/360
f 375/375/375 372/372/372 373/373/373
f 361/361/361 350/350/350 362/362/362
f 361/361/361 362/362/362 373/373/373
f 374/374/374 350/350/350 361/361/361
f 375/375/375 373/373/373 362/362/362
f 376/376/376 377/377/377 389/389/389
f 376/376/376 389/389/389 388/388/388
f 400/400/400 377/377/377 376/376/376
f 401/401/401 388/388/388 389/389/389
f 377/377/377 378/378/378 390/390/390
f 377/377/377 390/390/390 389/389/389
f 400/400/400 378/378/378 377/377/377
f 401/401/401 389/389/389 390/390/390
f 378/378/378 379/379/379 391/391/391
f 378/378/378 391/391/391 390/390/390
f 400/400/400 379/379/379 378/378/378
f 401/401/401 390/390/390 391/391/391
f 379/379/379 380/380/380 392/392/392
f 379/379/379 392/392/392 391/391/391
f 400/400/400 380/380/380 379/379/379
f 401/401/401 391/391/391 392/392/392
f 380/380/380 381/381/381 393/393/393
f 380/380/380 393/393/393 392/392/392
f 400/400/400 381/381/381 380/380/380
f 401/401/401 392/392/392 393/393/393
f 381/381/381 382/382/382 394/394/394
f 381/381/381 394/394/394 393/393/393
f 400/400/400 382/382/382 381/381/381
f 401/401/401 393/393/393 394/394/394
f 382/382/382 383/383/383 395/395/395
f 382/382/382 395/395/395 394/394/394
f 400/400/400 383/383/383 382/382/382
f 401/401/401 394/394/394 395/395/395
f 383/383/383 384/384/384 396/396/396
f 383/383/383 396/396/396 395/395/395
f 400/400/400 384/384/384 383/383/383
f 401/401/401 395/395/395 396/396/396
f 384/384/384 385/385/385 397/397/397
f 384/384/384 397/397/397 396/396/396
f 400/400/400 385/385/385 384/384/384
f 401/401/401 396/396/396 397/397/397
f 385/385/385 386/386/386 398/398/398
f 385/385/385 398/398/398 397/397/397
f 400/400/400 386/386/386 385/385/385
f 401/401/401 397/397/397 398/398/398
f 386/386/386 387/387/387 399/399/399
f 386/386/386 399/399/399 398/398/398
f 400/400/400 387/387/387 386/386/386
f 401/401/401 398/398/398 399/399/399
f 387/387/387 376/376/376 388/388/388
f 387/387/387 388/388/388 399/399/399
f 400/400/400 376/376/376 387/387/387
f 401/401/401 399/399/399 388/388/388
f 402/402/402 413/413/413 414/414/414
f 402/402/402 414/414/414 403/403/403
f 403/403/403 414/414/414 415/415/415
f 403/403/403 415/415/415 404/404/404
f 404/404/404 415/415/415 416/416/416
f 404/404/404 416/416/416 405/405/405
f 405/405/405 416/416/416 417/417/417
f 405/405/405 417/417/417 406/406/406
f 406/406/406 417/417/417 418/418/418
f 406/406/406 418/418/418 407/407/407
f 407/407/407 418/418/418 419/419/419
f 407/407/407 419/419/419 408/408/408
f 408/408/408 419/419/419 420/420/420
f 408/408/408 420/420/420 409/409/409
f 409/409/409 420/420/420 421/421/421
f 409/409/409 421/421/421 410/410/410
f 410/410/410 421/421/421 422/422/422
f 410/410/410 422/422/422 411/411/411
f 411/411/411 422/422/422 423/423/423
f 411/411/411 423/423/423 412/412/412
f 413/413/413 424/424/424 425/425/425
f 413/413/413 425/425/425 414/414/414
f 414/414/414 425/425/425 426/426/426
f 414/414/414 426/426/426 415/415/415
f 415/415/415 426/426/426 427/427/427
f 415/415/415 427/427/427 416/416/416
f 416/416/416 427/427/427 428/428/428
f 416/416/416 428/428/428 417/417/417
f 417/417/417 428/428/428 429/429/429
f 417/417/417 429/429/429 418/418/418
f 418/418/418 429/429/429 430/430/430
f 418/418/418 430/430/430 419/419/419
f 419/419/419 430/430/430 431/431/431
f 419/419/419 431/431/431 420/420/420
f 420/420/420 431/431/431 432/432/432
f 420/420/420 432/432/432 421/421/421
f 421/421/421 432/432/432 433/433/433
f 421/421/421 433/433/433 422/422/422
f 422/422/422 433/433/433 434/434/434
f 422/422/422 434/434/434 423/423/423
f 424/424/424 435/435/435 436/436/436
f 424/424/424 436/436/436 425/425/425
f 425/425/425 436/436/436 437/437/437
f 425/425/425 437/437/437 426/426/426
f 426/426/426 437/437/437 438/438/438
f 426/426/426 438/438/438 427/427/427
f 427/427/427 438/438/438 439/439/439
f 427/427/427 439/439/439 428/428/428
f 428/428/428 439/439/439 440/440/440
f 428/428/428 440/440/440 429/429/429
f 429/429/429 440/440/440 441/441/441
f 429/429/429 441/441/441 430/430/430
f 430/430/430 441/441/441 442/442/442
f 430/430/430 442/442/442 431/431/431
f 431/431/431 442/442/442 443/443/443
f 431/431/431 443/443/443 432/432/432
f 432/432/432 443/443/443 444/444/444
f 432/432/432 444/444/444 433/433/433
f 433/433/433 444/444/444 445/445/445
f 433/433/433 445/445/445 434/434/434
f 435/435/435 446/446/446 447/447/447
f 435/435/435 447/447/447 436/436/436
f 436/436/436 447/447/447 448/448/448
f 436/436/436 448/448/448 437/437/437
f 437/437/437 448/448/448 449/449/449
f 437/437/437 449/449/449 438/438/438
f 438/438/438 449/449/449 450/450/450
f 438/438/438 450/450/450 439/439/439
f 439/439/439 450/450/450 451/451/451
f 439/439/439 451/451/451 440/440/440
f 440/440/440 451/451/451 452/452/452
f 440/440/440 452/452/452 441/441/441
f 441/441/441 452/452/452 453/453/453
f 441/441/441 453/453/453 442/442/442
f 442/442/442 453/453/453 454/454/454
f 442/442/442 454/454/454 443/443/443
f 443/443/443 454/454/454 455/455/455
f 443/443/443 455/455/455 444/444/444
f 444/444/444 455/455/455 456/456/456
f 444/444/444 456/456/456 445/445/445
f 446/446/446 457/457/457 458/458/458
f 446/446/446 458/458/458 447/447/447
f 447/447/447 458/458/458 459/459/459
f 447/447/447 459/459/459 448/448/448
f 448/448/448 459/459/459 460/460/460
f 448/448/448 460/460/460 449/449/449
f 449/449/449 460/460/460 461/461/461
f 449/449/449 461/461/461 450/450/450
f 450/450/450 461/461/461 462/462/462
f 450/450/450 462/462/462 451/451/451
f 451/451/451 462/462/462 463/463/463
f 451/451/451 463/463/463 452/452/452
f 452/452/452 463/463/463 464/464/464
f 452/452/452 464/464/464 453/453/453
f 453/453/453 464/464/464 465/465/465
f 453/453/453 465/465/465 454/454/454
f 454/454/454 465/465/465 466/466/466
f 454/454/454 466/466/466 455/455/455
f 455/455/455 466/466/466 467/467/467
f 455/455/455 467/467/467 456/456/456
f 457/457/457 468/468/468 469/469/469
f 457/457/457 469/469/469 458/458/458
f 458/458/458 469/469/469 470/470/470
f 458/458/458 470/470/470 459/459/459
f 459/459/459 470/470/470 471/471/471
f 459/459/459 471/471/471 460/460/460
f 460/460/460 471/471/471 472/472/472
f 460/460/460 472/472/472 461/461/461
f 461/461/461 472/472/472 473/473/473
f 461/461/461 473/473/473 462/462/462
f 462/462/462 473/473/473 474/474/474
f 462/462/462 474/474/474 463/463/463
f 463/463/463 474/474/474 475/475/475
f 463/463/463 475/475/475 464/464/464
f 464/464/464 475/475/475 476/476/476
f 464/464/464 476/476/476 465/465/465
f 465/465/465 476/476/476 477/477/477
f 465/465/465 477/477/477 466/466/466
f 466/466/466 477/477/477 478/478/478
f 466/466/466 478/478/478 467/467/467
f 468/468/468 479/479/479 480/480/480
f 468/468/468 480/480/480 469/469/469
f 469/469/469 480/480/480 481/481/481
f 469/469/469 481/481/481 470/470/470
f 470/470/470 481/481/481 482/482/482
f 470/470/470 482/482/482 471/471/471
f 471/471/471 482/482/482 483/483/483
f 471/471/471 483/483/483 472/472/472
f 472/472/472 483/483/483 484/484/484
f 472/472/472 484/484/484 473/473/473
f 473/473/473 484/484/484 485/485/485
f 473/473/473 485/485/485 474/474/474
f 474/474/474 485/485/485 486/486/486
f 474/474/474 486/486/486 475/475/475
f 475/475/475 486/486/486 487/487/487
f 475/475/475 487/487/487 476/476/476
f 476/476/476 487/487/487 488/488/488
f 476/476/476 488/488/488 477/477/477
f 477/477/477 488/488/488 489/489/489
f 477/477/477 489/489/489 478/478/478
f 479/479/479 490/490/490 491/491/491
f 479/479/479 491/491/491 480/480/480
f 480/480/480 491/491/491 492/492/492
f 480/480/480 492/492/492 481/481/481
f 481/481/481 492/492/492 493/493/493
f 481/481/481 493/493/493 482/482/482
f 482/482/482 493/493/493 494/494/494
f 482/482/482 494/494/494 483/483/483
f 483/483/483 494/494/494 495/495/495
f 483/483/483 495/495/495 484/484/484
f 484/484/484 495/495/495 496/496/496
f 484/484/484 496/496/496 485/485/485
f 485/485/485 496/496/496 497/497/497
f 485/485/485 497/497/497 486/486/486
f 486/486/486 497/497/497 498/498/498
f 486/486/486 498/498/498 487/487/487
f 487/487/487 498/498/498 499/499/499
f 487/487/487 499/499/499 488/488/488
f 488/488/488 499/499/499 500/500/500
f 488/488/488 500/500/500 489/489/489