# 3D Model: tree/canopy/images (13)
# Style: broadleaf_camphor_oak | Symmetry: asymmetric
# Dimensions: 15.433 x 21.677 x 15.197 m
# Triangles: 960 | Vertices: 611
v 1.7815 0 0
v 1.4413 0 1.0472
v 0.5505 0 1.6943
v -0.5505 0 1.6943
v -1.4413 0 1.0472
v -1.7815 0 0
v -1.4413 0 -1.0472
v -0.5505 0 -1.6943
v 0.5505 0 -1.6943
v 1.4413 0 -1.0472
v 0.9897 8.5469 0
v 0.8007 8.5469 0.5818
v 0.3058 8.5469 0.9413
v -0.3058 8.5469 0.9413
v -0.8007 8.5469 0.5818
v -0.9897 8.5469 0
v -0.8007 8.5469 -0.5818
v -0.3058 8.5469 -0.9413
v 0.3058 8.5469 -0.9413
v 0.8007 8.5469 -0.5818
v 0 0 0
v 0 8.5469 0
v 2.9631 0.0427 1.1523
v 0.8754 0.0427 1.4679
v 0.5599 0.0427 -0.6199
v 2.6476 0.0427 -0.9354
v 1.9038 4.7435 0.3711
v 1.6566 4.7435 0.4085
v 1.6192 4.7435 0.1613
v 1.8664 4.7435 0.124
v 1.7615 0.0427 0.2662
v 1.7615 4.7435 0.2662
v 1.5052 0.0427 0.8886
v 1.1601 0.0427 2.9716
v -0.9229 0.0427 2.6266
v -0.5779 0.0427 0.5435
v 0.4349 4.7435 1.6547
v 0.394 4.7435 1.9013
v 0.1474 4.7435 1.8605
v 0.1883 4.7435 1.6138
v 0.2911 0.0427 1.7576
v 0.2911 4.7435 1.7576
v -2.0329 0.0427 -0.6032
v -0.1584 0.0427 0.3687
v -1.1303 0.0427 2.2432
v -3.0048 0.0427 1.2713
v -1.635 4.7435 0.6515
v -1.4131 4.7435 0.7666
v -1.5281 4.7435 0.9885
v -1.7501 4.7435 0.8734
v -1.5816 0.0427 0.82
v -1.5816 4.7435 0.82
v -2.7616 0.0427 -1.2613
v -1.258 0.0427 -2.7437
v 0.2244 0.0427 -1.2402
v -1.2792 0.0427 0.2422
v -1.4454 4.7435 -1.252
v -1.2674 4.7435 -1.4275
v -1.0918 4.7435 -1.2495
v -1.2699 4.7435 -1.074
v -1.2686 0.0427 -1.2508
v -1.2686 4.7435 -1.2508
v 0.3261 0.0427 -0.1764
v -0.6191 0.0427 -2.0644
v 1.2689 0.0427 -3.0097
v 2.2142 0.0427 -1.1216
v 0.7417 4.7435 -1.4253
v 0.6298 4.7435 -1.6489
v 0.8534 4.7435 -1.7608
v 0.9653 4.7435 -1.5372
v 0.7975 0.0427 -1.593
v 0.7975 4.7435 -1.593
v 3.055 12.0143 -0.2304
v 3.055 12.0143 -0.2304
v 3.055 12.0143 -0.2304
v 3.055 12.0143 -0.2304
v 3.055 12.0143 -0.2304
v 3.055 12.0143 -0.2304
v 3.055 12.0143 -0.2304
v 3.055 12.0143 -0.2304
v 3.055 12.0143 -0.2304
v 3.055 12.0143 -0.2304
v 3.055 12.0143 -0.2304
v 5.061 11.4159 -0.2206
v 4.6925 11.4862 0.9029
v 3.6979 11.5328 1.6073
v 2.4569 11.5379 1.6237
v 1.4436 11.4997 0.9457
v 1.0451 11.4327 -0.1677
v 1.4135 11.3624 -1.2912
v 2.4082 11.3158 -1.9957
v 3.6492 11.3107 -2.012
v 4.6625 11.3489 -1.334
v 5.061 11.4159 -0.2206
v 6.5255 9.7978 -0.141
v 5.8873 9.9195 1.8049
v 4.1645 10.0002 3.0251
v 2.015 10.0091 3.0535
v 0.26 9.9429 1.8792
v -0.4303 9.8267 -0.0493
v 0.2079 9.7051 -1.9952
v 1.9308 9.6244 -3.2154
v 4.0802 9.6154 -3.2438
v 5.8353 9.6817 -2.0695
v 6.5255 9.7978 -0.141
v 7.0562 7.5935 -0.0129
v 6.3193 7.734 2.2341
v 4.3299 7.8272 3.6431
v 1.8479 7.8375 3.6758
v -0.1786 7.761 2.3198
v -0.9757 7.6269 0.0931
v -0.2388 7.4864 -2.1539
v 1.7506 7.3932 -3.5629
v 4.2326 7.3829 -3.5956
v 6.2591 7.4594 -2.2396
v 7.0562 7.5935 -0.0129
v 6.5108 5.3936 0.1295
v 5.8726 5.5153 2.0754
v 4.1497 5.596 3.2956
v 2.0003 5.6049 3.324
v 0.2452 5.5387 2.1497
v -0.445 5.4226 0.2212
v 0.1932 5.3009 -1.7247
v 1.916 5.2202 -2.9449
v 4.0655 5.2113 -2.9733
v 5.8205 5.2775 -1.799
v 6.5108 5.3936 0.1295
v 5.0354 3.7877 0.2479
v 4.667 3.858 1.3714
v 3.6723 3.9046 2.0759
v 2.4313 3.9097 2.0922
v 1.418 3.8715 1.4142
v 1.0195 3.8044 0.3008
v 1.388 3.7342 -0.8227
v 2.3826 3.6876 -1.5271
v 3.6236 3.6824 -1.5435
v 4.6369 3.7207 -0.8655
v 5.0354 3.7877 0.2479
v 3.0255 3.206 0.3106
v 3.0255 3.206 0.3106
v 3.0255 3.206 0.3106
v 3.0255 3.206 0.3106
v 3.0255 3.206 0.3106
v 3.0255 3.206 0.3106
v 3.0255 3.206 0.3106
v 3.0255 3.206 0.3106
v 3.0255 3.206 0.3106
v 3.0255 3.206 0.3106
v 3.0255 3.206 0.3106
v 2.0608 13.8318 2.7369
v 2.0608 13.8318 2.7369
v 2.0608 13.8318 2.7369
v 2.0608 13.8318 2.7369
v 2.0608 13.8318 2.7369
v 2.0608 13.8318 2.7369
v 2.0608 13.8318 2.7369
v 2.0608 13.8318 2.7369
v 2.0608 13.8318 2.7369
v 2.0608 13.8318 2.7369
v 2.0608 13.8318 2.7369
v 3.5175 13.177 0.5871
v 4.4519 13.1296 1.8391
v 4.4633 13.1186 3.4325
v 3.5472 13.1482 4.7587
v 2.0537 13.2073 5.3111
v 0.5532 13.2731 4.8787
v -0.3812 13.3206 3.6267
v -0.3926 13.3316 2.0333
v 0.5235 13.3019 0.7071
v 2.017 13.2429 0.1547
v 3.5175 13.177 0.5871
v 4.533 11.4842 -0.9947
v 6.1514 11.4019 1.1738
v 6.1711 11.3829 3.9337
v 4.5845 11.4343 6.2307
v 1.9976 11.5365 7.1875
v -0.6014 11.6505 6.4386
v -2.2198 11.7328 4.27
v -2.2395 11.7518 1.5102
v -0.6529 11.7004 -0.7868
v 1.934 11.5982 -1.7436
v 4.533 11.4842 -0.9947
v 4.8351 9.2068 -1.5846
v 6.7039 9.1118 0.9194
v 6.7266 9.0898 4.1062
v 4.8945 9.1492 6.7586
v 1.9075 9.2673 7.8634
v -1.0935 9.3989 6.9986
v -2.9623 9.4939 4.4946
v -2.9851 9.5159 1.3077
v -1.153 9.4565 -1.3446
v 1.834 9.3384 -2.4494
v 4.8351 9.2068 -1.5846
v 4.3429 6.9552 -1.0246
v 5.9613 6.8729 1.1439
v 5.981 6.8539 3.9038
v 4.3944 6.9053 6.2008
v 1.8076 7.0075 7.1576
v -0.7914 7.1216 6.4087
v -2.4099 7.2038 4.2401
v -2.4295 7.2228 1.4803
v -0.8429 7.1714 -0.8167
v 1.7439 7.0692 -1.7735
v 4.3429 6.9552 -1.0246
v 3.1883 5.3326 0.5353
v 4.1227 5.2851 1.7873
v 4.1341 5.2741 3.3807
v 3.2181 5.3038 4.7069
v 1.7245 5.3629 5.2593
v 0.224 5.4287 4.8269
v -0.7104 5.4762 3.5749
v -0.7217 5.4872 1.9815
v 0.1943 5.4575 0.6553
v 1.6878 5.3984 0.1029
v 3.1883 5.3326 0.5353
v 1.6807 4.7739 2.6771
v 1.6807 4.7739 2.6771
v 1.6807 4.7739 2.6771
v 1.6807 4.7739 2.6771
v 1.6807 4.7739 2.6771
v 1.6807 4.7739 2.6771
v 1.6807 4.7739 2.6771
v 1.6807 4.7739 2.6771
v 1.6807 4.7739 2.6771
v 1.6807 4.7739 2.6771
v 1.6807 4.7739 2.6771
v -0.8088 16.2186 2.7491
v -0.8088 16.2186 2.7491
v -0.8088 16.2186 2.7491
v -0.8088 16.2186 2.7491
v -0.8088 16.2186 2.7491
v -0.8088 16.2186 2.7491
v -0.8088 16.2186 2.7491
v -0.8088 16.2186 2.7491
v -0.8088 16.2186 2.7491
v -0.8088 16.2186 2.7491
v -0.8088 16.2186 2.7491
v -1.3502 15.5601 0.6747
v -0.0814 15.5825 0.7544
v 0.9147 15.5806 1.5893
v 1.2576 15.5552 2.8604
v 0.8164 15.5158 4.0823
v -0.2404 15.4776 4.7882
v -1.5092 15.4551 4.7085
v -2.5053 15.457 3.8736
v -2.8482 15.4825 2.6025
v -2.407 15.5218 1.3806
v -1.3502 15.5601 0.6747
v -1.7195 13.6785 -0.8793
v 0.4781 13.7174 -0.7412
v 2.2034 13.7141 0.7049
v 2.7973 13.67 2.9066
v 2.0332 13.6018 5.0229
v 0.2027 13.5356 6.2456
v -1.9949 13.4967 6.1075
v -3.7202 13.4999 4.6615
v -4.3142 13.5441 2.4598
v -3.55 13.6123 0.3434
v -1.7195 13.6785 -0.8793
v -1.8178 11.078 -1.4963
v 0.7197 11.1229 -1.3369
v 2.7119 11.1192 0.3329
v 3.3978 11.0682 2.8752
v 2.5154 10.9895 5.3189
v 0.4017 10.913 6.7308
v -2.1358 10.8681 6.5713
v -4.128 10.8719 4.9016
v -4.8139 10.9228 2.3593
v -3.9315 11.0016 -0.0845
v -1.8178 11.078 -1.4963
v -1.6188 8.4554 -1.0112
v 0.5788 8.4943 -0.8731
v 2.3041 8.4911 0.5729
v 2.8981 8.4469 2.7746
v 2.1339 8.3788 4.891
v 0.3034 8.3126 6.1137
v -1.8941 8.2737 5.9756
v -3.6194 8.2769 4.5296
v -4.2134 8.3211 2.3279
v -3.4492 8.3892 0.2115
v -1.6188 8.4554 -1.0112
v -1.1757 6.5135 0.4462
v 0.0931 6.5359 0.5259
v 1.0892 6.5341 1.3608
v 1.4321 6.5086 2.6319
v 0.9909 6.4692 3.8538
v -0.0659 6.431 4.5597
v -1.3347 6.4085 4.48
v -2.3308 6.4104 3.6452
v -2.6737 6.4359 2.374
v -2.2325 6.4753 1.1521
v -1.1757 6.5135 0.4462
v -0.6073 5.7725 2.4853
v -0.6073 5.7725 2.4853
v -0.6073 5.7725 2.4853
v -0.6073 5.7725 2.4853
v -0.6073 5.7725 2.4853
v -0.6073 5.7725 2.4853
v -0.6073 5.7725 2.4853
v -0.6073 5.7725 2.4853
v -0.6073 5.7725 2.4853
v -0.6073 5.7725 2.4853
v -0.6073 5.7725 2.4853
v -3.6987 17.5675 2.1299
v -3.6987 17.5675 2.1299
v -3.6987 17.5675 2.1299
v -3.6987 17.5675 2.1299
v -3.6987 17.5675 2.1299
v -3.6987 17.5675 2.1299
v -3.6987 17.5675 2.1299
v -3.6987 17.5675 2.1299
v -3.6987 17.5675 2.1299
v -3.6987 17.5675 2.1299
v -3.6987 17.5675 2.1299
v -5.9025 16.9335 0.9501
v -4.8849 17.0059 0.0175
v -3.4092 17.043 -0.1221
v -2.0391 17.0309 0.5845
v -1.2979 16.974 1.8675
v -1.4688 16.8941 3.2367
v -2.4864 16.8218 4.1692
v -3.9621 16.7846 4.3088
v -5.3322 16.7968 3.6022
v -6.0734 16.8537 2.3193
v -5.9025 16.9335 0.9501
v -7.4898 15.162 0.0133
v -5.7273 15.2873 -1.6018
v -3.1713 15.3517 -1.8437
v -0.7982 15.3306 -0.6198
v 0.4855 15.232 1.6024
v 0.1896 15.0937 3.9739
v -1.573 14.9684 5.5891
v -4.1289 14.904 5.8309
v -6.502 14.9251 4.607
v -7.7857 15.0237 2.3849
v -7.4898 15.162 0.0133
v -8.0353 12.7276 -0.4293
v -6 12.8723 -2.2943
v -3.0487 12.9466 -2.5735
v -0.3085 12.9223 -1.1603
v 1.1739 12.8085 1.4056
v 0.8322 12.6487 4.1441
v -1.2031 12.5041 6.0091
v -4.1544 12.4297 6.2883
v -6.8946 12.4541 4.8751
v -8.377 12.5679 2.3092
v -8.0353 12.7276 -0.4293
v -7.3927 10.2827 -0.2592
v -5.6301 10.408 -1.8743
v -3.0742 10.4724 -2.1161
v -0.7011 10.4512 -0.8923
v 0.5827 10.3527 1.3299
v 0.2867 10.2144 3.7014
v -1.4758 10.0891 5.3166
v -4.0318 10.0247 5.5584
v -6.4049 10.0458 4.3345
v -7.6886 10.1443 2.1124
v -7.3927 10.2827 -0.2592
v -5.7343 8.4823 0.4781
v -4.7167 8.5546 -0.4544
v -3.241 8.5918 -0.5941
v -1.8709 8.5796 0.1126
v -1.1297 8.5227 1.3955
v -1.3006 8.4428 2.7647
v -2.3182 8.3705 3.6973
v -3.7939 8.3333 3.8369
v -5.164 8.3455 3.1303
v -5.9051 8.4024 1.8473
v -5.7343 8.4823 0.4781
v -3.5044 7.8089 1.5849
v -3.5044 7.8089 1.5849
v -3.5044 7.8089 1.5849
v -3.5044 7.8089 1.5849
v -3.5044 7.8089 1.5849
v -3.5044 7.8089 1.5849
v -3.5044 7.8089 1.5849
v -3.5044 7.8089 1.5849
v -3.5044 7.8089 1.5849
v -3.5044 7.8089 1.5849
v -3.5044 7.8089 1.5849
v -2.5587 19.605 -1.79
v -2.5587 19.605 -1.79
v -2.5587 19.605 -1.79
v -2.5587 19.605 -1.79
v -2.5587 19.605 -1.79
v -2.5587 19.605 -1.79
v -2.5587 19.605 -1.79
v -2.5587 19.605 -1.79
v -2.5587 19.605 -1.79
v -2.5587 19.605 -1.79
v -2.5587 19.605 -1.79
v -4.6015 18.9425 -0.3803
v -5.139 19.0464 -1.9377
v -4.7052 19.0963 -3.4516
v -3.4657 19.0731 -4.3438
v -1.8941 18.9858 -4.2734
v -0.5906 18.8677 -3.2673
v -0.0531 18.7638 -1.7099
v -0.4869 18.714 -0.1959
v -1.7264 18.7371 0.6962
v -3.298 18.8244 0.6258
v -4.6015 18.9425 -0.3803
v -6.1718 17.0578 0.5842
v -7.1027 17.2376 -2.1134
v -6.3513 17.324 -4.7356
v -4.2045 17.284 -6.2808
v -1.4823 17.1327 -6.1588
v 0.7755 16.9281 -4.4163
v 1.7064 16.7482 -1.7187
v 0.955 16.6618 0.9035
v -1.1918 16.7019 2.4487
v -3.914 16.8531 2.3267
v -6.1718 17.0578 0.5842
v -6.8486 14.4557 0.8449
v -7.9236 14.6634 -2.27
v -7.0559 14.7632 -5.2978
v -4.577 14.7169 -7.0821
v -1.4337 14.5423 -6.9412
v 1.1734 14.306 -4.9291
v 2.2483 14.0983 -1.8142
v 1.3807 13.9985 1.2136
v -1.0983 14.0448 2.9979
v -4.2416 14.2194 2.857
v -6.8486 14.4557 0.8449
v -6.4507 11.8336 0.3321
v -7.3817 12.0135 -2.3655
v -6.6302 12.0999 -4.9877
v -4.4834 12.0598 -6.5329
v -1.7612 11.9086 -6.4109
v 0.4965 11.7039 -4.6684
v 1.4275 11.5241 -1.9708
v 0.676 11.4377 0.6514
v -1.4708 11.4777 2.1966
v -4.1929 11.629 2.0746
v -6.4507 11.8336 0.3321
v -5.0847 9.894 -0.8169
v -5.6222 9.9979 -2.3743
v -5.1883 10.0477 -3.8883
v -3.9489 10.0246 -4.7804
v -2.3772 9.9373 -4.71
v -1.0737 9.8192 -3.7039
v -0.5362 9.7153 -2.1465
v -0.97 9.6654 -0.6325
v -2.2095 9.6886 0.2596
v -3.7812 9.7759 0.1892
v -5.0847 9.894 -0.8169
v -3.1166 9.1567 -2.2942
v -3.1166 9.1567 -2.2942
v -3.1166 9.1567 -2.2942
v -3.1166 9.1567 -2.2942
v -3.1166 9.1567 -2.2942
v -3.1166 9.1567 -2.2942
v -3.1166 9.1567 -2.2942
v -3.1166 9.1567 -2.2942
v -3.1166 9.1567 -2.2942
v -3.1166 9.1567 -2.2942
v -3.1166 9.1567 -2.2942
v -1.18 20.8121 -2.272
v -1.18 20.8121 -2.272
v -1.18 20.8121 -2.272
v -1.18 20.8121 -2.272
v -1.18 20.8121 -2.272
v -1.18 20.8121 -2.272
v -1.18 20.8121 -2.272
v -1.18 20.8121 -2.272
v -1.18 20.8121 -2.272
v -1.18 20.8121 -2.272
v -1.18 20.8121 -2.272
v -1.5506 20.1345 0.2989
v -2.5774 19.9583 -0.4001
v -3.031 19.8658 -1.8109
v -2.7381 19.8922 -3.3946
v -1.8108 20.0274 -4.5462
v -0.603 20.2199 -4.8259
v 0.4237 20.3961 -4.1269
v 0.8773 20.4887 -2.7161
v 0.5845 20.4623 -1.1324
v -0.3429 20.327 0.0192
v -1.5506 20.1345 0.2989
v -1.6156 18.3688 2.198
v -3.394 18.0637 0.9872
v -4.1797 17.9033 -1.4563
v -3.6725 17.949 -4.1993
v -2.0662 18.1833 -6.1941
v 0.0256 18.5168 -6.6786
v 1.804 18.8219 -5.4678
v 2.5897 18.9823 -3.0243
v 2.0825 18.9366 -0.2813
v 0.4762 18.7023 1.7135
v -1.6156 18.3688 2.198
v -1.3576 15.9881 2.9163
v -3.4111 15.6357 1.5182
v -4.3183 15.4506 -1.3033
v -3.7326 15.5034 -4.4707
v -1.8779 15.7739 -6.774
v 0.5376 16.1589 -7.3335
v 2.5911 16.5113 -5.9354
v 3.4982 16.6965 -3.1138
v 2.9126 16.6437 0.0535
v 1.0578 16.3731 2.3568
v -1.3576 15.9881 2.9163
v -0.8457 13.6303 2.2614
v -2.624 13.3251 1.0506
v -3.4097 13.1648 -1.3929
v -2.9025 13.2105 -4.1359
v -1.2962 13.4448 -6.1307
v 0.7956 13.7782 -6.6152
v 2.574 14.0834 -5.4044
v 3.3596 14.2437 -2.9609
v 2.8524 14.198 -0.2179
v 1.2462 13.9637 1.7769
v -0.8457 13.6303 2.2614
v -0.217 11.9271 0.4088
v -1.2437 11.7509 -0.2903
v -1.6973 11.6583 -1.7011
v -1.4045 11.6847 -3.2847
v -0.4771 11.82 -4.4364
v 0.7306 12.0125 -4.7161
v 1.7573 12.1887 -4.0171
v 2.2109 12.2813 -2.6063
v 1.9181 12.2549 -1.0226
v 0.9907 12.1196 0.129
v -0.217 11.9271 0.4088
v 0.36 11.335 -2.1452
v 0.36 11.335 -2.1452
v 0.36 11.335 -2.1452
v 0.36 11.335 -2.1452
v 0.36 11.335 -2.1452
v 0.36 11.335 -2.1452
v 0.36 11.335 -2.1452
v 0.36 11.335 -2.1452
v 0.36 11.335 -2.1452
v 0.36 11.335 -2.1452
v 0.36 11.335 -2.1452
v 2.6155 21.6768 -3.2326
v 2.6155 21.6768 -3.2326
v 2.6155 21.6768 -3.2326
v 2.6155 21.6768 -3.2326
v 2.6155 21.6768 -3.2326
v 2.6155 21.6768 -3.2326
v 2.6155 21.6768 -3.2326
v 2.6155 21.6768 -3.2326
v 2.6155 21.6768 -3.2326
v 2.6155 21.6768 -3.2326
v 2.6155 21.6768 -3.2326
v 3.5527 21.0618 -1.6195
v 2.2244 21.3033 -1.1791
v 1.0124 21.4874 -1.5132
v 0.3796 21.5437 -2.4942
v 0.5678 21.4507 -3.7473
v 1.505 21.244 -4.794
v 2.8333 21.0024 -5.2344
v 4.0453 20.8183 -4.9003
v 4.678 20.762 -3.9193
v 4.4899 20.855 -2.6661
v 3.5527 21.0618 -1.6195
v 4.0653 19.5637 -0.3868
v 1.7646 19.9821 0.3759
v -0.3346 20.3009 -0.2028
v -1.4306 20.3984 -1.9019
v -1.1047 20.2374 -4.0725
v 0.5186 19.8793 -5.8853
v 2.8193 19.4609 -6.6481
v 4.9185 19.1421 -6.0694
v 6.0145 19.0446 -4.3703
v 5.6886 19.2056 -2.1997
v 4.0653 19.5637 -0.3868
v 4.0161 17.584 0.135
v 1.3595 18.0671 1.0157
v -1.0645 18.4352 0.3475
v -2.33 18.5479 -1.6145
v -1.9537 18.3619 -4.1208
v -0.0793 17.9484 -6.2141
v 2.5773 17.4653 -7.0949
v 5.0012 17.0971 -6.4267
v 6.2668 16.9845 -4.4647
v 5.8905 17.1705 -1.9584
v 4.0161 17.584 0.135
v 3.4181 15.6531 -0.1939
v 1.1175 16.0715 0.5689
v -0.9817 16.3903 -0.0098
v -2.0777 16.4878 -1.7089
v -1.7518 16.3268 -3.8795
v -0.1285 15.9687 -5.6923
v 2.1721 15.5503 -6.4551
v 4.2713 15.2315 -5.8764
v 5.3673 15.1339 -4.1773
v 5.0414 15.295 -2.0067
v 3.4181 15.6531 -0.1939
v 2.4318 14.2884 -1.2852
v 1.1035 14.53 -0.8448
v -0.1085 14.714 -1.1789
v -0.7413 14.7703 -2.1599
v -0.5531 14.6774 -3.4131
v 0.3841 14.4706 -4.4597
v 1.7124 14.2291 -4.9001
v 2.9244 14.045 -4.566
v 3.5571 13.9887 -3.585
v 3.369 14.0817 -2.3318
v 2.4318 14.2884 -1.2852
v 1.3212 13.8556 -2.8466
v 1.3212 13.8556 -2.8466
v 1.3212 13.8556 -2.8466
v 1.3212 13.8556 -2.8466
v 1.3212 13.8556 -2.8466
v 1.3212 13.8556 -2.8466
v 1.3212 13.8556 -2.8466
v 1.3212 13.8556 -2.8466
v 1.3212 13.8556 -2.8466
v 1.3212 13.8556 -2.8466
v 1.3212 13.8556 -2.8466
vt 0 0
vt 0.1 0
vt 0.2 0
vt 0.3 0
vt 0.4 0
vt 0.5 0
vt 0.6 0
vt 0.7 0
vt 0.8 0
vt 0.9 0
vt 0 1
vt 0.1 1
vt 0.2 1
vt 0.3 1
vt 0.4 1
vt 0.5 1
vt 0.6 1
vt 0.7 1
vt 0.8 1
vt 0.9 1
vt 0.5 0.5
vt 0.5 0.5
vt 0 0
vt 0.25 0
vt 0.5 0
vt 0.75 0
vt 0 1
vt 0.25 1
vt 0.5 1
vt 0.75 1
vt 0.5 0.5
vt 0.5 0.5
vt 0 0
vt 0.25 0
vt 0.5 0
vt 0.75 0
vt 0 1
vt 0.25 1
vt 0.5 1
vt 0.75 1
vt 0.5 0.5
vt 0.5 0.5
vt 0 0
vt 0.25 0
vt 0.5 0
vt 0.75 0
vt 0 1
vt 0.25 1
vt 0.5 1
vt 0.75 1
vt 0.5 0.5
vt 0.5 0.5
vt 0 0
vt 0.25 0
vt 0.5 0
vt 0.75 0
vt 0 1
vt 0.25 1
vt 0.5 1
vt 0.75 1
vt 0.5 0.5
vt 0.5 0.5
vt 0 0
vt 0.25 0
vt 0.5 0
vt 0.75 0
vt 0 1
vt 0.25 1
vt 0.5 1
vt 0.75 1
vt 0.5 0.5
vt 0.5 0.5
vt 0 0
vt 0.1 0
vt 0.2 0
vt 0.3 0
vt 0.4 0
vt 0.5 0
vt 0.6 0
vt 0.7 0
vt 0.8 0
vt 0.9 0
vt 1 0
vt 0 0.16666666666666666
vt 0.1 0.16666666666666666
vt 0.2 0.16666666666666666
vt 0.3 0.16666666666666666
vt 0.4 0.16666666666666666
vt 0.5 0.16666666666666666
vt 0.6 0.16666666666666666
vt 0.7 0.16666666666666666
vt 0.8 0.16666666666666666
vt 0.9 0.16666666666666666
vt 1 0.16666666666666666
vt 0 0.3333333333333333
vt 0.1 0.3333333333333333
vt 0.2 0.3333333333333333
vt 0.3 0.3333333333333333
vt 0.4 0.3333333333333333
vt 0.5 0.3333333333333333
vt 0.6 0.3333333333333333
vt 0.7 0.3333333333333333
vt 0.8 0.3333333333333333
vt 0.9 0.3333333333333333
vt 1 0.3333333333333333
vt 0 0.5
vt 0.1 0.5
vt 0.2 0.5
vt 0.3 0.5
vt 0.4 0.5
vt 0.5 0.5
vt 0.6 0.5
vt 0.7 0.5
vt 0.8 0.5
vt 0.9 0.5
vt 1 0.5
vt 0 0.6666666666666666
vt 0.1 0.6666666666666666
vt 0.2 0.6666666666666666
vt 0.3 0.6666666666666666
vt 0.4 0.6666666666666666
vt 0.5 0.6666666666666666
vt 0.6 0.6666666666666666
vt 0.7 0.6666666666666666
vt 0.8 0.6666666666666666
vt 0.9 0.6666666666666666
vt 1 0.6666666666666666
vt 0 0.8333333333333334
vt 0.1 0.8333333333333334
vt 0.2 0.8333333333333334
vt 0.3 0.8333333333333334
vt 0.4 0.8333333333333334
vt 0.5 0.8333333333333334
vt 0.6 0.8333333333333334
vt 0.7 0.8333333333333334
vt 0.8 0.8333333333333334
vt 0.9 0.8333333333333334
vt 1 0.8333333333333334
vt 0 1
vt 0.1 1
vt 0.2 1
vt 0.3 1
vt 0.4 1
vt 0.5 1
vt 0.6 1
vt 0.7 1
vt 0.8 1
vt 0.9 1
vt 1 1
vt 0 0
vt 0.1 0
vt 0.2 0
vt 0.3 0
vt 0.4 0
vt 0.5 0
vt 0.6 0
vt 0.7 0
vt 0.8 0
vt 0.9 0
vt 1 0
vt 0 0.16666666666666666
vt 0.1 0.16666666666666666
vt 0.2 0.16666666666666666
vt 0.3 0.16666666666666666
vt 0.4 0.16666666666666666
vt 0.5 0.16666666666666666
vt 0.6 0.16666666666666666
vt 0.7 0.16666666666666666
vt 0.8 0.16666666666666666
vt 0.9 0.16666666666666666
vt 1 0.16666666666666666
vt 0 0.3333333333333333
vt 0.1 0.3333333333333333
vt 0.2 0.3333333333333333
vt 0.3 0.3333333333333333
vt 0.4 0.3333333333333333
vt 0.5 0.3333333333333333
vt 0.6 0.3333333333333333
vt 0.7 0.3333333333333333
vt 0.8 0.3333333333333333
vt 0.9 0.3333333333333333
vt 1 0.3333333333333333
vt 0 0.5
vt 0.1 0.5
vt 0.2 0.5
vt 0.3 0.5
vt 0.4 0.5
vt 0.5 0.5
vt 0.6 0.5
vt 0.7 0.5
vt 0.8 0.5
vt 0.9 0.5
vt 1 0.5
vt 0 0.6666666666666666
vt 0.1 0.6666666666666666
vt 0.2 0.6666666666666666
vt 0.3 0.6666666666666666
vt 0.4 0.6666666666666666
vt 0.5 0.6666666666666666
vt 0.6 0.6666666666666666
vt 0.7 0.6666666666666666
vt 0.8 0.6666666666666666
vt 0.9 0.6666666666666666
vt 1 0.6666666666666666
vt 0 0.8333333333333334
vt 0.1 0.8333333333333334
vt 0.2 0.8333333333333334
vt 0.3 0.8333333333333334
vt 0.4 0.8333333333333334
vt 0.5 0.8333333333333334
vt 0.6 0.8333333333333334
vt 0.7 0.8333333333333334
vt 0.8 0.8333333333333334
vt 0.9 0.8333333333333334
vt 1 0.8333333333333334
vt 0 1
vt 0.1 1
vt 0.2 1
vt 0.3 1
vt 0.4 1
vt 0.5 1
vt 0.6 1
vt 0.7 1
vt 0.8 1
vt 0.9 1
vt 1 1
vt 0 0
vt 0.1 0
vt 0.2 0
vt 0.3 0
vt 0.4 0
vt 0.5 0
vt 0.6 0
vt 0.7 0
vt 0.8 0
vt 0.9 0
vt 1 0
vt 0 0.16666666666666666
vt 0.1 0.16666666666666666
vt 0.2 0.16666666666666666
vt 0.3 0.16666666666666666
vt 0.4 0.16666666666666666
vt 0.5 0.16666666666666666
vt 0.6 0.16666666666666666
vt 0.7 0.16666666666666666
vt 0.8 0.16666666666666666
vt 0.9 0.16666666666666666
vt 1 0.16666666666666666
vt 0 0.3333333333333333
vt 0.1 0.3333333333333333
vt 0.2 0.3333333333333333
vt 0.3 0.3333333333333333
vt 0.4 0.3333333333333333
vt 0.5 0.3333333333333333
vt 0.6 0.3333333333333333
vt 0.7 0.3333333333333333
vt 0.8 0.3333333333333333
vt 0.9 0.3333333333333333
vt 1 0.3333333333333333
vt 0 0.5
vt 0.1 0.5
vt 0.2 0.5
vt 0.3 0.5
vt 0.4 0.5
vt 0.5 0.5
vt 0.6 0.5
vt 0.7 0.5
vt 0.8 0.5
vt 0.9 0.5
vt 1 0.5
vt 0 0.6666666666666666
vt 0.1 0.6666666666666666
vt 0.2 0.6666666666666666
vt 0.3 0.6666666666666666
vt 0.4 0.6666666666666666
vt 0.5 0.6666666666666666
vt 0.6 0.6666666666666666
vt 0.7 0.6666666666666666
vt 0.8 0.6666666666666666
vt 0.9 0.6666666666666666
vt 1 0.6666666666666666
vt 0 0.8333333333333334
vt 0.1 0.8333333333333334
vt 0.2 0.8333333333333334
vt 0.3 0.8333333333333334
vt 0.4 0.8333333333333334
vt 0.5 0.8333333333333334
vt 0.6 0.8333333333333334
vt 0.7 0.8333333333333334
vt 0.8 0.8333333333333334
vt 0.9 0.8333333333333334
vt 1 0.8333333333333334
vt 0 1
vt 0.1 1
vt 0.2 1
vt 0.3 1
vt 0.4 1
vt 0.5 1
vt 0.6 1
vt 0.7 1
vt 0.8 1
vt 0.9 1
vt 1 1
vt 0 0
vt 0.1 0
vt 0.2 0
vt 0.3 0
vt 0.4 0
vt 0.5 0
vt 0.6 0
vt 0.7 0
vt 0.8 0
vt 0.9 0
vt 1 0
vt 0 0.16666666666666666
vt 0.1 0.16666666666666666
vt 0.2 0.16666666666666666
vt 0.3 0.16666666666666666
vt 0.4 0.16666666666666666
vt 0.5 0.16666666666666666
vt 0.6 0.16666666666666666
vt 0.7 0.16666666666666666
vt 0.8 0.16666666666666666
vt 0.9 0.16666666666666666
vt 1 0.16666666666666666
vt 0 0.3333333333333333
vt 0.1 0.3333333333333333
vt 0.2 0.3333333333333333
vt 0.3 0.3333333333333333
vt 0.4 0.3333333333333333
vt 0.5 0.3333333333333333
vt 0.6 0.3333333333333333
vt 0.7 0.3333333333333333
vt 0.8 0.3333333333333333
vt 0.9 0.3333333333333333
vt 1 0.3333333333333333
vt 0 0.5
vt 0.1 0.5
vt 0.2 0.5
vt 0.3 0.5
vt 0.4 0.5
vt 0.5 0.5
vt 0.6 0.5
vt 0.7 0.5
vt 0.8 0.5
vt 0.9 0.5
vt 1 0.5
vt 0 0.6666666666666666
vt 0.1 0.6666666666666666
vt 0.2 0.6666666666666666
vt 0.3 0.6666666666666666
vt 0.4 0.6666666666666666
vt 0.5 0.6666666666666666
vt 0.6 0.6666666666666666
vt 0.7 0.6666666666666666
vt 0.8 0.6666666666666666
vt 0.9 0.6666666666666666
vt 1 0.6666666666666666
vt 0 0.8333333333333334
vt 0.1 0.8333333333333334
vt 0.2 0.8333333333333334
vt 0.3 0.8333333333333334
vt 0.4 0.8333333333333334
vt 0.5 0.8333333333333334
vt 0.6 0.8333333333333334
vt 0.7 0.8333333333333334
vt 0.8 0.8333333333333334
vt 0.9 0.8333333333333334
vt 1 0.8333333333333334
vt 0 1
vt 0.1 1
vt 0.2 1
vt 0.3 1
vt 0.4 1
vt 0.5 1
vt 0.6 1
vt 0.7 1
vt 0.8 1
vt 0.9 1
vt 1 1
vt 0 0
vt 0.1 0
vt 0.2 0
vt 0.3 0
vt 0.4 0
vt 0.5 0
vt 0.6 0
vt 0.7 0
vt 0.8 0
vt 0.9 0
vt 1 0
vt 0 0.16666666666666666
vt 0.1 0.16666666666666666
vt 0.2 0.16666666666666666
vt 0.3 0.16666666666666666
vt 0.4 0.16666666666666666
vt 0.5 0.16666666666666666
vt 0.6 0.16666666666666666
vt 0.7 0.16666666666666666
vt 0.8 0.16666666666666666
vt 0.9 0.16666666666666666
vt 1 0.16666666666666666
vt 0 0.3333333333333333
vt 0.1 0.3333333333333333
vt 0.2 0.3333333333333333
vt 0.3 0.3333333333333333
vt 0.4 0.3333333333333333
vt 0.5 0.3333333333333333
vt 0.6 0.3333333333333333
vt 0.7 0.3333333333333333
vt 0.8 0.3333333333333333
vt 0.9 0.3333333333333333
vt 1 0.3333333333333333
vt 0 0.5
vt 0.1 0.5
vt 0.2 0.5
vt 0.3 0.5
vt 0.4 0.5
vt 0.5 0.5
vt 0.6 0.5
vt 0.7 0.5
vt 0.8 0.5
vt 0.9 0.5
vt 1 0.5
vt 0 0.6666666666666666
vt 0.1 0.6666666666666666
vt 0.2 0.6666666666666666
vt 0.3 0.6666666666666666
vt 0.4 0.6666666666666666
vt 0.5 0.6666666666666666
vt 0.6 0.6666666666666666
vt 0.7 0.6666666666666666
vt 0.8 0.6666666666666666
vt 0.9 0.6666666666666666
vt 1 0.6666666666666666
vt 0 0.8333333333333334
vt 0.1 0.8333333333333334
vt 0.2 0.8333333333333334
vt 0.3 0.8333333333333334
vt 0.4 0.8333333333333334
vt 0.5 0.8333333333333334
vt 0.6 0.8333333333333334
vt 0.7 0.8333333333333334
vt 0.8 0.8333333333333334
vt 0.9 0.8333333333333334
vt 1 0.8333333333333334
vt 0 1
vt 0.1 1
vt 0.2 1
vt 0.3 1
vt 0.4 1
vt 0.5 1
vt 0.6 1
vt 0.7 1
vt 0.8 1
vt 0.9 1
vt 1 1
vt 0 0
vt 0.1 0
vt 0.2 0
vt 0.3 0
vt 0.4 0
vt 0.5 0
vt 0.6 0
vt 0.7 0
vt 0.8 0
vt 0.9 0
vt 1 0
vt 0 0.16666666666666666
vt 0.1 0.16666666666666666
vt 0.2 0.16666666666666666
vt 0.3 0.16666666666666666
vt 0.4 0.16666666666666666
vt 0.5 0.16666666666666666
vt 0.6 0.16666666666666666
vt 0.7 0.16666666666666666
vt 0.8 0.16666666666666666
vt 0.9 0.16666666666666666
vt 1 0.16666666666666666
vt 0 0.3333333333333333
vt 0.1 0.3333333333333333
vt 0.2 0.3333333333333333
vt 0.3 0.3333333333333333
vt 0.4 0.3333333333333333
vt 0.5 0.3333333333333333
vt 0.6 0.3333333333333333
vt 0.7 0.3333333333333333
vt 0.8 0.3333333333333333
vt 0.9 0.3333333333333333
vt 1 0.3333333333333333
vt 0 0.5
vt 0.1 0.5
vt 0.2 0.5
vt 0.3 0.5
vt 0.4 0.5
vt 0.5 0.5
vt 0.6 0.5
vt 0.7 0.5
vt 0.8 0.5
vt 0.9 0.5
vt 1 0.5
vt 0 0.6666666666666666
vt 0.1 0.6666666666666666
vt 0.2 0.6666666666666666
vt 0.3 0.6666666666666666
vt 0.4 0.6666666666666666
vt 0.5 0.6666666666666666
vt 0.6 0.6666666666666666
vt 0.7 0.6666666666666666
vt 0.8 0.6666666666666666
vt 0.9 0.6666666666666666
vt 1 0.6666666666666666
vt 0 0.8333333333333334
vt 0.1 0.8333333333333334
vt 0.2 0.8333333333333334
vt 0.3 0.8333333333333334
vt 0.4 0.8333333333333334
vt 0.5 0.8333333333333334
vt 0.6 0.8333333333333334
vt 0.7 0.8333333333333334
vt 0.8 0.8333333333333334
vt 0.9 0.8333333333333334
vt 1 0.8333333333333334
vt 0 1
vt 0.1 1
vt 0.2 1
vt 0.3 1
vt 0.4 1
vt 0.5 1
vt 0.6 1
vt 0.7 1
vt 0.8 1
vt 0.9 1
vt 1 1
vt 0 0
vt 0.1 0
vt 0.2 0
vt 0.3 0
vt 0.4 0
vt 0.5 0
vt 0.6 0
vt 0.7 0
vt 0.8 0
vt 0.9 0
vt 1 0
vt 0 0.16666666666666666
vt 0.1 0.16666666666666666
vt 0.2 0.16666666666666666
vt 0.3 0.16666666666666666
vt 0.4 0.16666666666666666
vt 0.5 0.16666666666666666
vt 0.6 0.16666666666666666
vt 0.7 0.16666666666666666
vt 0.8 0.16666666666666666
vt 0.9 0.16666666666666666
vt 1 0.16666666666666666
vt 0 0.3333333333333333
vt 0.1 0.3333333333333333
vt 0.2 0.3333333333333333
vt 0.3 0.3333333333333333
vt 0.4 0.3333333333333333
vt 0.5 0.3333333333333333
vt 0.6 0.3333333333333333
vt 0.7 0.3333333333333333
vt 0.8 0.3333333333333333
vt 0.9 0.3333333333333333
vt 1 0.3333333333333333
vt 0 0.5
vt 0.1 0.5
vt 0.2 0.5
vt 0.3 0.5
vt 0.4 0.5
vt 0.5 0.5
vt 0.6 0.5
vt 0.7 0.5
vt 0.8 0.5
vt 0.9 0.5
vt 1 0.5
vt 0 0.6666666666666666
vt 0.1 0.6666666666666666
vt 0.2 0.6666666666666666
vt 0.3 0.6666666666666666
vt 0.4 0.6666666666666666
vt 0.5 0.6666666666666666
vt 0.6 0.6666666666666666
vt 0.7 0.6666666666666666
vt 0.8 0.6666666666666666
vt 0.9 0.6666666666666666
vt 1 0.6666666666666666
vt 0 0.8333333333333334
vt 0.1 0.8333333333333334
vt 0.2 0.8333333333333334
vt 0.3 0.8333333333333334
vt 0.4 0.8333333333333334
vt 0.5 0.8333333333333334
vt 0.6 0.8333333333333334
vt 0.7 0.8333333333333334
vt 0.8 0.8333333333333334
vt 0.9 0.8333333333333334
vt 1 0.8333333333333334
vt 0 1
vt 0.1 1
vt 0.2 1
vt 0.3 1
vt 0.4 1
vt 0.5 1
vt 0.6 1
vt 0.7 1
vt 0.8 1
vt 0.9 1
vt 1 1
vn 0 -1 0
vn 0 -1 0
vn 0 -1 0
vn 0 -1 0
vn 0 -1 0
vn 0 -1 0
vn 0 -1 0
vn 0 -1 0
vn 0 -1 0
vn 0 -1 0
vn 0 1 0
vn 0 1 0
vn 0 1 0
vn 0 1 0
vn 0 1 0
vn 0 1 0
vn 0 1 0
vn 0 1 0
vn 0 1 0
vn 0 1 0
vn 0 -1 0
vn 0 1 0
vn 0 -1 0
vn 0 -1 0
vn 0 -1 0
vn 0 -1 0
vn 0 1 0
vn 0 1 0
vn 0 1 0
vn 0 1 0
vn 0 -1 0
vn 0 1 0
vn 0 -1 0
vn 0 -1 0
vn 0 -1 0
vn 0 -1 0
vn 0 1 0
vn 0 1 0
vn 0 1 0
vn 0 1 0
vn 0 -1 0
vn 0 1 0
vn 0 -1 0
vn 0 -1 0
vn 0 -1 0
vn 0 -1 0
vn 0 1 0
vn 0 1 0
vn 0 1 0
vn 0 1 0
vn 0 -1 0
vn 0 1 0
vn 0 -1 0
vn 0 -1 0
vn 0 -1 0
vn 0 -1 0
vn 0 1 0
vn 0 1 0
vn 0 1 0
vn 0 1 0
vn 0 -1 0
vn 0 1 0
vn 0 -1 0
vn 0 -1 0
vn 0 -1 0
vn 0 -1 0
vn 0 1 0
vn 0 1 0
vn 0 1 0
vn 0 1 0
vn 0 -1 0
vn 0 1 0
vn 0 1 0
vn 0 1 0
vn 0 1 0
vn 0 1 0
vn 0 1 0
vn 0 1 0
vn 0 1 0
vn 0 1 0
vn 0 1 0
vn 0 1 0
vn 0 1 0
vn 0.4999999999999999 0.8660254037844387 0
vn 0.40450849718747367 0.8660254037844387 0.2938926261462365
vn 0.1545084971874737 0.8660254037844387 0.4755282581475767
vn -0.15450849718747364 0.8660254037844387 0.47552825814757677
vn -0.4045084971874736 0.8660254037844387 0.29389262614623657
vn -0.4999999999999999 0.8660254037844387 6.123233995736765e-17
vn -0.40450849718747367 0.8660254037844387 -0.29389262614623646
vn -0.15450849718747375 0.8660254037844387 -0.4755282581475767
vn 0.1545084971874736 0.8660254037844387 -0.47552825814757677
vn 0.4045084971874736 0.8660254037844387 -0.2938926261462366
vn 0.4999999999999999 0.8660254037844387 -1.224646799147353e-16
vn 0.8660254037844386 0.5000000000000001 0
vn 0.7006292692220367 0.5000000000000001 0.5090369604551271
vn 0.2676165673298175 0.5000000000000001 0.8236391035463319
vn -0.26761656732981737 0.5000000000000001 0.823639103546332
vn -0.7006292692220366 0.5000000000000001 0.5090369604551273
vn -0.8660254037844386 0.5000000000000001 1.0605752387249068e-16
vn -0.7006292692220367 0.5000000000000001 -0.509036960455127
vn -0.26761656732981753 0.5000000000000001 -0.8236391035463319
vn 0.26761656732981726 0.5000000000000001 -0.823639103546332
vn 0.7006292692220366 0.5000000000000001 -0.5090369604551274
vn 0.8660254037844386 0.5000000000000001 -2.1211504774498136e-16
vn 1 6.123233995736766e-17 0
vn 0.8090169943749475 6.123233995736766e-17 0.5877852522924731
vn 0.30901699437494745 6.123233995736766e-17 0.9510565162951535
vn -0.30901699437494734 6.123233995736766e-17 0.9510565162951536
vn -0.8090169943749473 6.123233995736766e-17 0.5877852522924732
vn -1 6.123233995736766e-17 1.2246467991473532e-16
vn -0.8090169943749475 6.123233995736766e-17 -0.587785252292473
vn -0.30901699437494756 6.123233995736766e-17 -0.9510565162951535
vn 0.30901699437494723 6.123233995736766e-17 -0.9510565162951536
vn 0.8090169943749473 6.123233995736766e-17 -0.5877852522924732
vn 1 6.123233995736766e-17 -2.4492935982947064e-16
vn 0.8660254037844387 -0.4999999999999998 0
vn 0.7006292692220368 -0.4999999999999998 0.5090369604551273
vn 0.2676165673298175 -0.4999999999999998 0.823639103546332
vn -0.26761656732981737 -0.4999999999999998 0.8236391035463321
vn -0.7006292692220367 -0.4999999999999998 0.5090369604551274
vn -0.8660254037844387 -0.4999999999999998 1.0605752387249069e-16
vn -0.7006292692220368 -0.4999999999999998 -0.5090369604551271
vn -0.2676165673298176 -0.4999999999999998 -0.823639103546332
vn 0.2676165673298173 -0.4999999999999998 -0.8236391035463321
vn 0.7006292692220367 -0.4999999999999998 -0.5090369604551274
vn 0.8660254037844387 -0.4999999999999998 -2.1211504774498138e-16
vn 0.4999999999999999 -0.8660254037844387 0
vn 0.40450849718747367 -0.8660254037844387 0.2938926261462365
vn 0.1545084971874737 -0.8660254037844387 0.4755282581475767
vn -0.15450849718747364 -0.8660254037844387 0.47552825814757677
vn -0.4045084971874736 -0.8660254037844387 0.29389262614623657
vn -0.4999999999999999 -0.8660254037844387 6.123233995736765e-17
vn -0.40450849718747367 -0.8660254037844387 -0.29389262614623646
vn -0.15450849718747375 -0.8660254037844387 -0.4755282581475767
vn 0.1545084971874736 -0.8660254037844387 -0.47552825814757677
vn 0.4045084971874736 -0.8660254037844387 -0.2938926261462366
vn 0.4999999999999999 -0.8660254037844387 -1.224646799147353e-16
vn 1.2246467991473532e-16 -1 0
vn 9.907600726170916e-17 -1 7.198293278059966e-17
vn 3.7843667304341506e-17 -1 1.1647083184890923e-16
vn -3.7843667304341493e-17 -1 1.1647083184890926e-16
vn -9.907600726170915e-17 -1 7.198293278059968e-17
vn -1.2246467991473532e-16 -1 1.4997597826618576e-32
vn -9.907600726170916e-17 -1 -7.198293278059965e-17
vn -3.784366730434152e-17 -1 -1.1647083184890923e-16
vn 3.7843667304341475e-17 -1 -1.1647083184890926e-16
vn 9.907600726170915e-17 -1 -7.19829327805997e-17
vn 1.2246467991473532e-16 -1 -2.999519565323715e-32
vn 0 1 0
vn 0 1 0
vn 0 1 0
vn 0 1 0
vn 0 1 0
vn 0 1 0
vn 0 1 0
vn 0 1 0
vn 0 1 0
vn 0 1 0
vn 0 1 0
vn 0.4999999999999999 0.8660254037844387 0
vn 0.4045084971874736 0.8660254037844387 0.2938926261462365
vn 0.1545084971874737 0.8660254037844387 0.4755282581475767
vn -0.15450849718747364 0.8660254037844387 0.4755282581475767
vn -0.4045084971874736 0.8660254037844387 0.29389262614623657
vn -0.4999999999999999 0.8660254037844387 6.123233995736765e-17
vn -0.4045084971874736 0.8660254037844387 -0.29389262614623646
vn -0.15450849718747375 0.8660254037844387 -0.4755282581475767
vn 0.1545084971874736 0.8660254037844387 -0.4755282581475767
vn 0.4045084971874736 0.8660254037844387 -0.2938926261462366
vn 0.4999999999999999 0.8660254037844387 -1.224646799147353e-16
vn 0.8660254037844385 0.5000000000000001 0
vn 0.7006292692220367 0.5000000000000001 0.5090369604551271
vn 0.2676165673298175 0.5000000000000001 0.8236391035463319
vn -0.26761656732981737 0.5000000000000001 0.8236391035463321
vn -0.7006292692220366 0.5000000000000001 0.5090369604551273
vn -0.8660254037844385 0.5000000000000001 1.0605752387249068e-16
vn -0.7006292692220367 0.5000000000000001 -0.509036960455127
vn -0.26761656732981753 0.5000000000000001 -0.8236391035463319
vn 0.26761656732981726 0.5000000000000001 -0.8236391035463321
vn 0.7006292692220366 0.5000000000000001 -0.5090369604551274
vn 0.8660254037844385 0.5000000000000001 -2.1211504774498136e-16
vn 1 6.123233995736766e-17 0
vn 0.8090169943749475 6.123233995736766e-17 0.5877852522924731
vn 0.30901699437494745 6.123233995736766e-17 0.9510565162951534
vn -0.30901699437494734 6.123233995736766e-17 0.9510565162951536
vn -0.8090169943749472 6.123233995736766e-17 0.5877852522924732
vn -1 6.123233995736766e-17 1.2246467991473532e-16
vn -0.8090169943749475 6.123233995736766e-17 -0.587785252292473
vn -0.30901699437494756 6.123233995736766e-17 -0.9510565162951534
vn 0.30901699437494723 6.123233995736766e-17 -0.9510565162951536
vn 0.8090169943749472 6.123233995736766e-17 -0.5877852522924734
vn 1 6.123233995736766e-17 -2.4492935982947064e-16
vn 0.8660254037844387 -0.4999999999999998 0
vn 0.7006292692220368 -0.4999999999999998 0.5090369604551273
vn 0.2676165673298175 -0.4999999999999998 0.8236391035463321
vn -0.26761656732981737 -0.4999999999999998 0.8236391035463321
vn -0.7006292692220367 -0.4999999999999998 0.5090369604551274
vn -0.8660254037844387 -0.4999999999999998 1.0605752387249069e-16
vn -0.7006292692220368 -0.4999999999999998 -0.5090369604551271
vn -0.2676165673298176 -0.4999999999999998 -0.8236391035463321
vn 0.2676165673298173 -0.4999999999999998 -0.8236391035463321
vn 0.7006292692220367 -0.4999999999999998 -0.5090369604551274
vn 0.8660254037844387 -0.4999999999999998 -2.1211504774498138e-16
vn 0.4999999999999999 -0.8660254037844387 0
vn 0.4045084971874736 -0.8660254037844387 0.2938926261462365
vn 0.1545084971874737 -0.8660254037844387 0.4755282581475767
vn -0.15450849718747364 -0.8660254037844387 0.4755282581475767
vn -0.4045084971874736 -0.8660254037844387 0.29389262614623657
vn -0.4999999999999999 -0.8660254037844387 6.123233995736765e-17
vn -0.4045084971874736 -0.8660254037844387 -0.29389262614623646
vn -0.15450849718747375 -0.8660254037844387 -0.4755282581475767
vn 0.1545084971874736 -0.8660254037844387 -0.4755282581475767
vn 0.4045084971874736 -0.8660254037844387 -0.2938926261462366
vn 0.4999999999999999 -0.8660254037844387 -1.224646799147353e-16
vn 1.2246467991473532e-16 -1 0
vn 9.907600726170917e-17 -1 7.198293278059966e-17
vn 3.7843667304341506e-17 -1 1.1647083184890923e-16
vn -3.7843667304341493e-17 -1 1.1647083184890926e-16
vn -9.907600726170915e-17 -1 7.198293278059968e-17
vn -1.2246467991473532e-16 -1 1.4997597826618576e-32
vn -9.907600726170917e-17 -1 -7.198293278059965e-17
vn -3.784366730434152e-17 -1 -1.1647083184890923e-16
vn 3.7843667304341475e-17 -1 -1.1647083184890926e-16
vn 9.907600726170915e-17 -1 -7.19829327805997e-17
vn 1.2246467991473532e-16 -1 -2.999519565323715e-32
vn 0 1 0
vn 0 1 0
vn 0 1 0
vn 0 1 0
vn 0 1 0
vn 0 1 0
vn 0 1 0
vn 0 1 0
vn 0 1 0
vn 0 1 0
vn 0 1 0
vn 0.4999999999999999 0.8660254037844387 0
vn 0.40450849718747367 0.8660254037844387 0.2938926261462365
vn 0.1545084971874737 0.8660254037844387 0.4755282581475767
vn -0.15450849718747364 0.8660254037844387 0.47552825814757677
vn -0.4045084971874736 0.8660254037844387 0.29389262614623657
vn -0.4999999999999999 0.8660254037844387 6.123233995736765e-17
vn -0.40450849718747367 0.8660254037844387 -0.29389262614623646
vn -0.15450849718747375 0.8660254037844387 -0.4755282581475767
vn 0.1545084971874736 0.8660254037844387 -0.47552825814757677
vn 0.4045084971874736 0.8660254037844387 -0.2938926261462366
vn 0.4999999999999999 0.8660254037844387 -1.224646799147353e-16
vn 0.8660254037844386 0.5000000000000001 0
vn 0.7006292692220367 0.5000000000000001 0.5090369604551271
vn 0.2676165673298175 0.5000000000000001 0.8236391035463319
vn -0.26761656732981737 0.5000000000000001 0.823639103546332
vn -0.7006292692220366 0.5000000000000001 0.5090369604551273
vn -0.8660254037844386 0.5000000000000001 1.0605752387249068e-16
vn -0.7006292692220367 0.5000000000000001 -0.509036960455127
vn -0.26761656732981753 0.5000000000000001 -0.8236391035463319
vn 0.26761656732981726 0.5000000000000001 -0.823639103546332
vn 0.7006292692220366 0.5000000000000001 -0.5090369604551274
vn 0.8660254037844386 0.5000000000000001 -2.1211504774498136e-16
vn 1 6.123233995736766e-17 0
vn 0.8090169943749475 6.123233995736766e-17 0.5877852522924731
vn 0.30901699437494745 6.123233995736766e-17 0.9510565162951535
vn -0.30901699437494734 6.123233995736766e-17 0.9510565162951536
vn -0.8090169943749473 6.123233995736766e-17 0.5877852522924732
vn -1 6.123233995736766e-17 1.2246467991473532e-16
vn -0.8090169943749475 6.123233995736766e-17 -0.587785252292473
vn -0.30901699437494756 6.123233995736766e-17 -0.9510565162951535
vn 0.30901699437494723 6.123233995736766e-17 -0.9510565162951536
vn 0.8090169943749473 6.123233995736766e-17 -0.5877852522924734
vn 1 6.123233995736766e-17 -2.4492935982947064e-16
vn 0.8660254037844387 -0.4999999999999997 0
vn 0.7006292692220368 -0.4999999999999997 0.5090369604551273
vn 0.2676165673298175 -0.4999999999999997 0.823639103546332
vn -0.26761656732981737 -0.4999999999999997 0.8236391035463321
vn -0.7006292692220367 -0.4999999999999997 0.5090369604551274
vn -0.8660254037844387 -0.4999999999999997 1.0605752387249069e-16
vn -0.7006292692220368 -0.4999999999999997 -0.5090369604551271
vn -0.2676165673298176 -0.4999999999999997 -0.823639103546332
vn 0.2676165673298173 -0.4999999999999997 -0.8236391035463321
vn 0.7006292692220367 -0.4999999999999997 -0.5090369604551274
vn 0.8660254037844387 -0.4999999999999997 -2.1211504774498138e-16
vn 0.4999999999999999 -0.8660254037844387 0
vn 0.40450849718747367 -0.8660254037844387 0.2938926261462365
vn 0.1545084971874737 -0.8660254037844387 0.4755282581475767
vn -0.15450849718747364 -0.8660254037844387 0.47552825814757677
vn -0.4045084971874736 -0.8660254037844387 0.29389262614623657
vn -0.4999999999999999 -0.8660254037844387 6.123233995736765e-17
vn -0.40450849718747367 -0.8660254037844387 -0.29389262614623646
vn -0.15450849718747375 -0.8660254037844387 -0.4755282581475767
vn 0.1545084971874736 -0.8660254037844387 -0.47552825814757677
vn 0.4045084971874736 -0.8660254037844387 -0.2938926261462366
vn 0.4999999999999999 -0.8660254037844387 -1.224646799147353e-16
vn 1.2246467991473532e-16 -1 0
vn 9.907600726170916e-17 -1 7.198293278059966e-17
vn 3.7843667304341506e-17 -1 1.1647083184890923e-16
vn -3.7843667304341493e-17 -1 1.1647083184890926e-16
vn -9.907600726170915e-17 -1 7.198293278059968e-17
vn -1.2246467991473532e-16 -1 1.4997597826618576e-32
vn -9.907600726170916e-17 -1 -7.198293278059965e-17
vn -3.784366730434152e-17 -1 -1.1647083184890923e-16
vn 3.7843667304341475e-17 -1 -1.1647083184890926e-16
vn 9.907600726170915e-17 -1 -7.19829327805997e-17
vn 1.2246467991473532e-16 -1 -2.999519565323715e-32
vn 0 1 0
vn 0 1 0
vn 0 1 0
vn 0 1 0
vn 0 1 0
vn 0 1 0
vn 0 1 0
vn 0 1 0
vn 0 1 0
vn 0 1 0
vn 0 1 0
vn 0.4999999999999999 0.8660254037844387 0
vn 0.40450849718747367 0.8660254037844387 0.2938926261462365
vn 0.1545084971874737 0.8660254037844387 0.47552825814757677
vn -0.15450849718747364 0.8660254037844387 0.47552825814757677
vn -0.4045084971874736 0.8660254037844387 0.29389262614623657
vn -0.4999999999999999 0.8660254037844387 6.123233995736765e-17
vn -0.40450849718747367 0.8660254037844387 -0.29389262614623646
vn -0.15450849718747375 0.8660254037844387 -0.47552825814757677
vn 0.1545084971874736 0.8660254037844387 -0.47552825814757677
vn 0.4045084971874736 0.8660254037844387 -0.2938926261462366
vn 0.4999999999999999 0.8660254037844387 -1.224646799147353e-16
vn 0.8660254037844386 0.5000000000000001 0
vn 0.7006292692220367 0.5000000000000001 0.5090369604551271
vn 0.2676165673298175 0.5000000000000001 0.8236391035463319
vn -0.26761656732981737 0.5000000000000001 0.823639103546332
vn -0.7006292692220366 0.5000000000000001 0.5090369604551273
vn -0.8660254037844386 0.5000000000000001 1.0605752387249067e-16
vn -0.7006292692220367 0.5000000000000001 -0.509036960455127
vn -0.26761656732981753 0.5000000000000001 -0.8236391035463319
vn 0.26761656732981726 0.5000000000000001 -0.823639103546332
vn 0.7006292692220366 0.5000000000000001 -0.5090369604551274
vn 0.8660254037844386 0.5000000000000001 -2.1211504774498133e-16
vn 1 6.123233995736766e-17 0
vn 0.8090169943749473 6.123233995736766e-17 0.5877852522924731
vn 0.30901699437494745 6.123233995736766e-17 0.9510565162951535
vn -0.30901699437494734 6.123233995736766e-17 0.9510565162951538
vn -0.8090169943749473 6.123233995736766e-17 0.5877852522924732
vn -1 6.123233995736766e-17 1.2246467991473532e-16
vn -0.8090169943749473 6.123233995736766e-17 -0.587785252292473
vn -0.30901699437494756 6.123233995736766e-17 -0.9510565162951535
vn 0.30901699437494723 6.123233995736766e-17 -0.9510565162951538
vn 0.8090169943749473 6.123233995736766e-17 -0.5877852522924734
vn 1 6.123233995736766e-17 -2.4492935982947064e-16
vn 0.8660254037844387 -0.49999999999999983 0
vn 0.7006292692220368 -0.49999999999999983 0.5090369604551273
vn 0.2676165673298175 -0.49999999999999983 0.823639103546332
vn -0.26761656732981737 -0.49999999999999983 0.8236391035463321
vn -0.7006292692220367 -0.49999999999999983 0.5090369604551274
vn -0.8660254037844387 -0.49999999999999983 1.0605752387249069e-16
vn -0.7006292692220368 -0.49999999999999983 -0.5090369604551271
vn -0.2676165673298176 -0.49999999999999983 -0.823639103546332
vn 0.2676165673298173 -0.49999999999999983 -0.8236391035463321
vn 0.7006292692220367 -0.49999999999999983 -0.5090369604551274
vn 0.8660254037844387 -0.49999999999999983 -2.1211504774498138e-16
vn 0.4999999999999999 -0.8660254037844387 0
vn 0.40450849718747367 -0.8660254037844387 0.2938926261462365
vn 0.1545084971874737 -0.8660254037844387 0.47552825814757677
vn -0.15450849718747364 -0.8660254037844387 0.47552825814757677
vn -0.4045084971874736 -0.8660254037844387 0.29389262614623657
vn -0.4999999999999999 -0.8660254037844387 6.123233995736765e-17
vn -0.40450849718747367 -0.8660254037844387 -0.29389262614623646
vn -0.15450849718747375 -0.8660254037844387 -0.47552825814757677
vn 0.1545084971874736 -0.8660254037844387 -0.47552825814757677
vn 0.4045084971874736 -0.8660254037844387 -0.2938926261462366
vn 0.4999999999999999 -0.8660254037844387 -1.224646799147353e-16
vn 1.2246467991473532e-16 -1 0
vn 9.907600726170916e-17 -1 7.198293278059966e-17
vn 3.7843667304341506e-17 -1 1.1647083184890923e-16
vn -3.7843667304341493e-17 -1 1.1647083184890926e-16
vn -9.907600726170916e-17 -1 7.198293278059968e-17
vn -1.2246467991473532e-16 -1 1.4997597826618576e-32
vn -9.907600726170916e-17 -1 -7.198293278059965e-17
vn -3.784366730434152e-17 -1 -1.1647083184890923e-16
vn 3.7843667304341475e-17 -1 -1.1647083184890926e-16
vn 9.907600726170916e-17 -1 -7.19829327805997e-17
vn 1.2246467991473532e-16 -1 -2.999519565323715e-32
vn 0 1 0
vn 0 1 0
vn 0 1 0
vn 0 1 0
vn 0 1 0
vn 0 1 0
vn 0 1 0
vn 0 1 0
vn 0 1 0
vn 0 1 0
vn 0 1 0
vn 0.4999999999999999 0.8660254037844386 0
vn 0.40450849718747367 0.8660254037844386 0.2938926261462365
vn 0.1545084971874737 0.8660254037844386 0.4755282581475767
vn -0.15450849718747364 0.8660254037844386 0.47552825814757677
vn -0.4045084971874736 0.8660254037844386 0.29389262614623657
vn -0.4999999999999999 0.8660254037844386 6.123233995736765e-17
vn -0.40450849718747367 0.8660254037844386 -0.29389262614623646
vn -0.15450849718747375 0.8660254037844386 -0.4755282581475767
vn 0.1545084971874736 0.8660254037844386 -0.47552825814757677
vn 0.4045084971874736 0.8660254037844386 -0.2938926261462366
vn 0.4999999999999999 0.8660254037844386 -1.224646799147353e-16
vn 0.8660254037844386 0.5000000000000001 0
vn 0.7006292692220367 0.5000000000000001 0.5090369604551271
vn 0.2676165673298175 0.5000000000000001 0.8236391035463319
vn -0.26761656732981737 0.5000000000000001 0.8236391035463319
vn -0.7006292692220366 0.5000000000000001 0.5090369604551273
vn -0.8660254037844386 0.5000000000000001 1.0605752387249068e-16
vn -0.7006292692220367 0.5000000000000001 -0.509036960455127
vn -0.26761656732981753 0.5000000000000001 -0.8236391035463319
vn 0.26761656732981726 0.5000000000000001 -0.8236391035463319
vn 0.7006292692220366 0.5000000000000001 -0.5090369604551274
vn 0.8660254037844386 0.5000000000000001 -2.1211504774498136e-16
vn 1 6.123233995736766e-17 0
vn 0.8090169943749475 6.123233995736766e-17 0.5877852522924731
vn 0.30901699437494745 6.123233995736766e-17 0.9510565162951535
vn -0.30901699437494734 6.123233995736766e-17 0.9510565162951535
vn -0.8090169943749473 6.123233995736766e-17 0.5877852522924732
vn -1 6.123233995736766e-17 1.2246467991473532e-16
vn -0.8090169943749475 6.123233995736766e-17 -0.587785252292473
vn -0.30901699437494756 6.123233995736766e-17 -0.9510565162951535
vn 0.30901699437494723 6.123233995736766e-17 -0.9510565162951535
vn 0.8090169943749473 6.123233995736766e-17 -0.5877852522924734
vn 1 6.123233995736766e-17 -2.4492935982947064e-16
vn 0.8660254037844387 -0.4999999999999997 0
vn 0.7006292692220368 -0.4999999999999997 0.5090369604551273
vn 0.2676165673298175 -0.4999999999999997 0.8236391035463319
vn -0.26761656732981737 -0.4999999999999997 0.8236391035463321
vn -0.7006292692220367 -0.4999999999999997 0.5090369604551274
vn -0.8660254037844387 -0.4999999999999997 1.0605752387249069e-16
vn -0.7006292692220368 -0.4999999999999997 -0.5090369604551271
vn -0.2676165673298176 -0.4999999999999997 -0.8236391035463319
vn 0.2676165673298173 -0.4999999999999997 -0.8236391035463321
vn 0.7006292692220367 -0.4999999999999997 -0.5090369604551274
vn 0.8660254037844387 -0.4999999999999997 -2.1211504774498138e-16
vn 0.4999999999999999 -0.8660254037844386 0
vn 0.40450849718747367 -0.8660254037844386 0.2938926261462365
vn 0.1545084971874737 -0.8660254037844386 0.4755282581475767
vn -0.15450849718747364 -0.8660254037844386 0.47552825814757677
vn -0.4045084971874736 -0.8660254037844386 0.29389262614623657
vn -0.4999999999999999 -0.8660254037844386 6.123233995736765e-17
vn -0.40450849718747367 -0.8660254037844386 -0.29389262614623646
vn -0.15450849718747375 -0.8660254037844386 -0.4755282581475767
vn 0.1545084971874736 -0.8660254037844386 -0.47552825814757677
vn 0.4045084971874736 -0.8660254037844386 -0.2938926261462366
vn 0.4999999999999999 -0.8660254037844386 -1.224646799147353e-16
vn 1.2246467991473532e-16 -1 0
vn 9.907600726170916e-17 -1 7.198293278059966e-17
vn 3.7843667304341506e-17 -1 1.1647083184890923e-16
vn -3.7843667304341493e-17 -1 1.1647083184890926e-16
vn -9.907600726170915e-17 -1 7.198293278059968e-17
vn -1.2246467991473532e-16 -1 1.4997597826618576e-32
vn -9.907600726170916e-17 -1 -7.198293278059965e-17
vn -3.784366730434152e-17 -1 -1.1647083184890923e-16
vn 3.7843667304341475e-17 -1 -1.1647083184890926e-16
vn 9.907600726170915e-17 -1 -7.19829327805997e-17
vn 1.2246467991473532e-16 -1 -2.999519565323715e-32
vn 0 1 0
vn 0 1 0
vn 0 1 0
vn 0 1 0
vn 0 1 0
vn 0 1 0
vn 0 1 0
vn 0 1 0
vn 0 1 0
vn 0 1 0
vn 0 1 0
vn 0.4999999999999999 0.8660254037844386 0
vn 0.40450849718747367 0.8660254037844386 0.2938926261462365
vn 0.1545084971874737 0.8660254037844386 0.4755282581475767
vn -0.15450849718747364 0.8660254037844386 0.47552825814757677
vn -0.40450849718747367 0.8660254037844386 0.29389262614623657
vn -0.4999999999999999 0.8660254037844386 6.123233995736765e-17
vn -0.40450849718747367 0.8660254037844386 -0.29389262614623646
vn -0.15450849718747375 0.8660254037844386 -0.4755282581475767
vn 0.1545084971874736 0.8660254037844386 -0.47552825814757677
vn 0.40450849718747367 0.8660254037844386 -0.2938926261462366
vn 0.4999999999999999 0.8660254037844386 -1.224646799147353e-16
vn 0.8660254037844386 0.5000000000000001 0
vn 0.7006292692220367 0.5000000000000001 0.5090369604551271
vn 0.2676165673298175 0.5000000000000001 0.8236391035463319
vn -0.26761656732981737 0.5000000000000001 0.823639103546332
vn -0.7006292692220366 0.5000000000000001 0.5090369604551273
vn -0.8660254037844386 0.5000000000000001 1.0605752387249068e-16
vn -0.7006292692220367 0.5000000000000001 -0.509036960455127
vn -0.26761656732981753 0.5000000000000001 -0.8236391035463319
vn 0.26761656732981726 0.5000000000000001 -0.823639103546332
vn 0.7006292692220366 0.5000000000000001 -0.5090369604551274
vn 0.8660254037844386 0.5000000000000001 -2.1211504774498136e-16
vn 1 6.123233995736766e-17 0
vn 0.8090169943749475 6.123233995736766e-17 0.5877852522924731
vn 0.30901699437494745 6.123233995736766e-17 0.9510565162951535
vn -0.30901699437494734 6.123233995736766e-17 0.9510565162951536
vn -0.8090169943749473 6.123233995736766e-17 0.5877852522924732
vn -1 6.123233995736766e-17 1.2246467991473532e-16
vn -0.8090169943749475 6.123233995736766e-17 -0.587785252292473
vn -0.30901699437494756 6.123233995736766e-17 -0.9510565162951535
vn 0.30901699437494723 6.123233995736766e-17 -0.9510565162951536
vn 0.8090169943749473 6.123233995736766e-17 -0.5877852522924734
vn 1 6.123233995736766e-17 -2.4492935982947064e-16
vn 0.8660254037844386 -0.49999999999999983 0
vn 0.7006292692220368 -0.49999999999999983 0.5090369604551273
vn 0.2676165673298175 -0.49999999999999983 0.823639103546332
vn -0.26761656732981737 -0.49999999999999983 0.8236391035463321
vn -0.7006292692220367 -0.49999999999999983 0.5090369604551274
vn -0.8660254037844386 -0.49999999999999983 1.0605752387249069e-16
vn -0.7006292692220368 -0.49999999999999983 -0.5090369604551271
vn -0.2676165673298176 -0.49999999999999983 -0.823639103546332
vn 0.2676165673298173 -0.49999999999999983 -0.8236391035463321
vn 0.7006292692220367 -0.49999999999999983 -0.5090369604551274
vn 0.8660254037844386 -0.49999999999999983 -2.1211504774498138e-16
vn 0.4999999999999999 -0.8660254037844386 0
vn 0.40450849718747367 -0.8660254037844386 0.2938926261462365
vn 0.1545084971874737 -0.8660254037844386 0.4755282581475767
vn -0.15450849718747364 -0.8660254037844386 0.47552825814757677
vn -0.40450849718747367 -0.8660254037844386 0.29389262614623657
vn -0.4999999999999999 -0.8660254037844386 6.123233995736765e-17
vn -0.40450849718747367 -0.8660254037844386 -0.29389262614623646
vn -0.15450849718747375 -0.8660254037844386 -0.4755282581475767
vn 0.1545084971874736 -0.8660254037844386 -0.47552825814757677
vn 0.40450849718747367 -0.8660254037844386 -0.2938926261462366
vn 0.4999999999999999 -0.8660254037844386 -1.224646799147353e-16
vn 1.2246467991473532e-16 -1 0
vn 9.907600726170916e-17 -1 7.198293278059966e-17
vn 3.7843667304341506e-17 -1 1.1647083184890923e-16
vn -3.7843667304341493e-17 -1 1.1647083184890926e-16
vn -9.907600726170915e-17 -1 7.198293278059968e-17
vn -1.2246467991473532e-16 -1 1.4997597826618576e-32
vn -9.907600726170916e-17 -1 -7.198293278059965e-17
vn -3.784366730434152e-17 -1 -1.1647083184890923e-16
vn 3.7843667304341475e-17 -1 -1.1647083184890926e-16
vn 9.907600726170915e-17 -1 -7.19829327805997e-17
vn 1.2246467991473532e-16 -1 -2.999519565323715e-32
vn 0 1 0
vn 0 1 0
vn 0 1 0
vn 0 1 0
vn 0 1 0
vn 0 1 0
vn 0 1 0
vn 0 1 0
vn 0 1 0
vn 0 1 0
vn 0 1 0
vn 0.49999999999999994 0.8660254037844387 0
vn 0.40450849718747367 0.8660254037844387 0.2938926261462365
vn 0.1545084971874737 0.8660254037844387 0.4755282581475767
vn -0.15450849718747364 0.8660254037844387 0.4755282581475767
vn -0.4045084971874736 0.8660254037844387 0.29389262614623657
vn -0.49999999999999994 0.8660254037844387 6.123233995736765e-17
vn -0.40450849718747367 0.8660254037844387 -0.29389262614623646
vn -0.15450849718747375 0.8660254037844387 -0.4755282581475767
vn 0.1545084971874736 0.8660254037844387 -0.4755282581475767
vn 0.4045084971874736 0.8660254037844387 -0.2938926261462366
vn 0.49999999999999994 0.8660254037844387 -1.224646799147353e-16
vn 0.8660254037844386 0.5000000000000001 0
vn 0.7006292692220367 0.5000000000000001 0.5090369604551271
vn 0.2676165673298175 0.5000000000000001 0.8236391035463319
vn -0.26761656732981737 0.5000000000000001 0.823639103546332
vn -0.7006292692220366 0.5000000000000001 0.5090369604551273
vn -0.8660254037844386 0.5000000000000001 1.0605752387249068e-16
vn -0.7006292692220367 0.5000000000000001 -0.509036960455127
vn -0.26761656732981753 0.5000000000000001 -0.8236391035463319
vn 0.26761656732981726 0.5000000000000001 -0.823639103546332
vn 0.7006292692220366 0.5000000000000001 -0.5090369604551274
vn 0.8660254037844386 0.5000000000000001 -2.1211504774498136e-16
vn 1 6.123233995736766e-17 0
vn 0.8090169943749475 6.123233995736766e-17 0.5877852522924731
vn 0.30901699437494745 6.123233995736766e-17 0.9510565162951534
vn -0.30901699437494734 6.123233995736766e-17 0.9510565162951536
vn -0.8090169943749473 6.123233995736766e-17 0.5877852522924732
vn -1 6.123233995736766e-17 1.2246467991473532e-16
vn -0.8090169943749475 6.123233995736766e-17 -0.587785252292473
vn -0.30901699437494756 6.123233995736766e-17 -0.9510565162951534
vn 0.30901699437494723 6.123233995736766e-17 -0.9510565162951536
vn 0.8090169943749473 6.123233995736766e-17 -0.5877852522924734
vn 1 6.123233995736766e-17 -2.4492935982947064e-16
vn 0.8660254037844387 -0.4999999999999998 0
vn 0.7006292692220368 -0.4999999999999998 0.5090369604551273
vn 0.2676165673298175 -0.4999999999999998 0.823639103546332
vn -0.26761656732981737 -0.4999999999999998 0.8236391035463321
vn -0.7006292692220367 -0.4999999999999998 0.5090369604551274
vn -0.8660254037844387 -0.4999999999999998 1.060575238724907e-16
vn -0.7006292692220368 -0.4999999999999998 -0.5090369604551271
vn -0.2676165673298176 -0.4999999999999998 -0.823639103546332
vn 0.2676165673298173 -0.4999999999999998 -0.8236391035463321
vn 0.7006292692220367 -0.4999999999999998 -0.5090369604551274
vn 0.8660254037844387 -0.4999999999999998 -2.121150477449814e-16
vn 0.49999999999999994 -0.8660254037844387 0
vn 0.40450849718747367 -0.8660254037844387 0.2938926261462365
vn 0.1545084971874737 -0.8660254037844387 0.4755282581475767
vn -0.15450849718747364 -0.8660254037844387 0.4755282581475767
vn -0.4045084971874736 -0.8660254037844387 0.29389262614623657
vn -0.49999999999999994 -0.8660254037844387 6.123233995736765e-17
vn -0.40450849718747367 -0.8660254037844387 -0.29389262614623646
vn -0.15450849718747375 -0.8660254037844387 -0.4755282581475767
vn 0.1545084971874736 -0.8660254037844387 -0.4755282581475767
vn 0.4045084971874736 -0.8660254037844387 -0.2938926261462366
vn 0.49999999999999994 -0.8660254037844387 -1.224646799147353e-16
vn 1.2246467991473532e-16 -1 0
vn 9.907600726170916e-17 -1 7.198293278059966e-17
vn 3.7843667304341506e-17 -1 1.1647083184890923e-16
vn -3.7843667304341493e-17 -1 1.1647083184890926e-16
vn -9.907600726170915e-17 -1 7.198293278059968e-17
vn -1.2246467991473532e-16 -1 1.4997597826618576e-32
vn -9.907600726170916e-17 -1 -7.198293278059965e-17
vn -3.7843667304341524e-17 -1 -1.1647083184890923e-16
vn 3.7843667304341475e-17 -1 -1.1647083184890926e-16
vn 9.907600726170915e-17 -1 -7.19829327805997e-17
vn 1.2246467991473532e-16 -1 -2.999519565323715e-32
f 1/1/1 2/2/2 12/12/12
f 1/1/1 12/12/12 11/11/11
f 21/21/21 2/2/2 1/1/1
f 22/22/22 11/11/11 12/12/12
f 2/2/2 3/3/3 13/13/13
f 2/2/2 13/13/13 12/12/12
f 21/21/21 3/3/3 2/2/2
f 22/22/22 12/12/12 13/13/13
f 3/3/3 4/4/4 14/14/14
f 3/3/3 14/14/14 13/13/13
f 21/21/21 4/4/4 3/3/3
f 22/22/22 13/13/13 14/14/14
f 4/4/4 5/5/5 15/15/15
f 4/4/4 15/15/15 14/14/14
f 21/21/21 5/5/5 4/4/4
f 22/22/22 14/14/14 15/15/15
f 5/5/5 6/6/6 16/16/16
f 5/5/5 16/16/16 15/15/15
f 21/21/21 6/6/6 5/5/5
f 22/22/22 15/15/15 16/16/16
f 6/6/6 7/7/7 17/17/17
f 6/6/6 17/17/17 16/16/16
f 21/21/21 7/7/7 6/6/6
f 22/22/22 16/16/16 17/17/17
f 7/7/7 8/8/8 18/18/18
f 7/7/7 18/18/18 17/17/17
f 21/21/21 8/8/8 7/7/7
f 22/22/22 17/17/17 18/18/18
f 8/8/8 9/9/9 19/19/19
f 8/8/8 19/19/19 18/18/18
f 21/21/21 9/9/9 8/8/8
f 22/22/22 18/18/18 19/19/19
f 9/9/9 10/10/10 20/20/20
f 9/9/9 20/20/20 19/19/19
f 21/21/21 10/10/10 9/9/9
f 22/22/22 19/19/19 20/20/20
f 10/10/10 1/1/1 11/11/11
f 10/10/10 11/11/11 20/20/20
f 21/21/21 1/1/1 10/10/10
f 22/22/22 20/20/20 11/11/11
f 23/23/23 24/24/24 28/28/28
f 23/23/23 28/28/28 27/27/27
f 31/31/31 24/24/24 23/23/23
f 32/32/32 27/27/27 28/28/28
f 24/24/24 25/25/25 29/29/29
f 24/24/24 29/29/29 28/28/28
f 31/31/31 25/25/25 24/24/24
f 32/32/32 28/28/28 29/29/29
f 25/25/25 26/26/26 30/30/30
f 25/25/25 30/30/30 29/29/29
f 31/31/31 26/26/26 25/25/25
f 32/32/32 29/29/29 30/30/30
f 26/26/26 23/23/23 27/27/27
f 26/26/26 27/27/27 30/30/30
f 31/31/31 23/23/23 26/26/26
f 32/32/32 30/30/30 27/27/27
f 33/33/33 34/34/34 38/38/38
f 33/33/33 38/38/38 37/37/37
f 41/41/41 34/34/34 33/33/33
f 42/42/42 37/37/37 38/38/38
f 34/34/34 35/35/35 39/39/39
f 34/34/34 39/39/39 38/38/38
f 41/41/41 35/35/35 34/34/34
f 42/42/42 38/38/38 39/39/39
f 35/35/35 36/36/36 40/40/40
f 35/35/35 40/40/40 39/39/39
f 41/41/41 36/36/36 35/35/35
f 42/42/42 39/39/39 40/40/40
f 36/36/36 33/33/33 37/37/37
f 36/36/36 37/37/37 40/40/40
f 41/41/41 33/33/33 36/36/36
f 42/42/42 40/40/40 37/37/37
f 43/43/43 44/44/44 48/48/48
f 43/43/43 48/48/48 47/47/47
f 51/51/51 44/44/44 43/43/43
f 52/52/52 47/47/47 48/48/48
f 44/44/44 45/45/45 49/49/49
f 44/44/44 49/49/49 48/48/48
f 51/51/51 45/45/45 44/44/44
f 52/52/52 48/48/48 49/49/49
f 45/45/45 46/46/46 50/50/50
f 45/45/45 50/50/50 49/49/49
f 51/51/51 46/46/46 45/45/45
f 52/52/52 49/49/49 50/50/50
f 46/46/46 43/43/43 47/47/47
f 46/46/46 47/47/47 50/50/50
f 51/51/51 43/43/43 46/46/46
f 52/52/52 50/50/50 47/47/47
f 53/53/53 54/54/54 58/58/58
f 53/53/53 58/58/58 57/57/57
f 61/61/61 54/54/54 53/53/53
f 62/62/62 57/57/57 58/58/58
f 54/54/54 55/55/55 59/59/59
f 54/54/54 59/59/59 58/58/58
f 61/61/61 55/55/55 54/54/54
f 62/62/62 58/58/58 59/59/59
f 55/55/55 56/56/56 60/60/60
f 55/55/55 60/60/60 59/59/59
f 61/61/61 56/56/56 55/55/55
f 62/62/62 59/59/59 60/60/60
f 56/56/56 53/53/53 57/57/57
f 56/56/56 57/57/57 60/60/60
f 61/61/61 53/53/53 56/56/56
f 62/62/62 60/60/60 57/57/57
f 63/63/63 64/64/64 68/68/68
f 63/63/63 68/68/68 67/67/67
f 71/71/71 64/64/64 63/63/63
f 72/72/72 67/67/67 68/68/68
f 64/64/64 65/65/65 69/69/69
f 64/64/64 69/69/69 68/68/68
f 71/71/71 65/65/65 64/64/64
f 72/72/72 68/68/68 69/69/69
f 65/65/65 66/66/66 70/70/70
f 65/65/65 70/70/70 69/69/69
f 71/71/71 66/66/66 65/65/65
f 72/72/72 69/69/69 70/70/70
f 66/66/66 63/63/63 67/67/67
f 66/66/66 67/67/67 70/70/70
f 71/71/71 63/63/63 66/66/66
f 72/72/72 70/70/70 67/67/67
f 73/73/73 84/84/84 85/85/85
f 73/73/73 85/85/85 74/74/74
f 74/74/74 85/85/85 86/86/86
f 74/74/74 86/86/86 75/75/75
f 75/75/75 86/86/86 87/87/87
f 75/75/75 87/87/87 76/76/76
f 76/76/76 87/87/87 88/88/88
f 76/76/76 88/88/88 77/77/77
f 77/77/77 88/88/88 89/89/89
f 77/77/77 89/89/89 78/78/78
f 78/78/78 89/89/89 90/90/90
f 78/78/78 90/90/90 79/79/79
f 79/79/79 90/90/90 91/91/91
f 79/79/79 91/91/91 80/80/80
f 80/80/80 91/91/91 92/92/92
f 80/80/80 92/92/92 81/81/81
f 81/81/81 92/92/92 93/93/93
f 81/81/81 93/93/93 82/82/82
f 82/82/82 93/93/93 94/94/94
f 82/82/82 94/94/94 83/83/83
f 84/84/84 95/95/95 96/96/96
f 84/84/84 96/96/96 85/85/85
f 85/85/85 96/96/96 97/97/97
f 85/85/85 97/97/97 86/86/86
f 86/86/86 97/97/97 98/98/98
f 86/86/86 98/98/98 87/87/87
f 87/87/87 98/98/98 99/99/99
f 87/87/87 99/99/99 88/88/88
f 88/88/88 99/99/99 100/100/100
f 88/88/88 100/100/100 89/89/89
f 89/89/89 100/100/100 101/101/101
f 89/89/89 101/101/101 90/90/90
f 90/90/90 101/101/101 102/102/102
f 90/90/90 102/102/102 91/91/91
f 91/91/91 102/102/102 103/103/103
f 91/91/91 103/103/103 92/92/92
f 92/92/92 103/103/103 104/104/104
f 92/92/92 104/104/104 93/93/93
f 93/93/93 104/104/104 105/105/105
f 93/93/93 105/105/105 94/94/94
f 95/95/95 106/106/106 107/107/107
f 95/95/95 107/107/107 96/96/96
f 96/96/96 107/107/107 108/108/108
f 96/96/96 108/108/108 97/97/97
f 97/97/97 108/108/108 109/109/109
f 97/97/97 109/109/109 98/98/98
f 98/98/98 109/109/109 110/110/110
f 98/98/98 110/110/110 99/99/99
f 99/99/99 110/110/110 111/111/111
f 99/99/99 111/111/111 100/100/100
f 100/100/100 111/111/111 112/112/112
f 100/100/100 112/112/112 101/101/101
f 101/101/101 112/112/112 113/113/113
f 101/101/101 113/113/113 102/102/102
f 102/102/102 113/113/113 114/114/114
f 102/102/102 114/114/114 103/103/103
f 103/103/103 114/114/114 115/115/115
f 103/103/103 115/115/115 104/104/104
f 104/104/104 115/115/115 116/116/116
f 104/104/104 116/116/116 105/105/105
f 106/106/106 117/117/117 118/118/118
f 106/106/106 118/118/118 107/107/107
f 107/107/107 118/118/118 119/119/119
f 107/107/107 119/119/119 108/108/108
f 108/108/108 119/119/119 120/120/120
f 108/108/108 120/120/120 109/109/109
f 109/109/109 120/120/120 121/121/121
f 109/109/109 121/121/121 110/110/110
f 110/110/110 121/121/121 122/122/122
f 110/110/110 122/122/122 111/111/111
f 111/111/111 122/122/122 123/123/123
f 111/111/111 123/123/123 112/112/112
f 112/112/112 123/123/123 124/124/124
f 112/112/112 124/124/124 113/113/113
f 113/113/113 124/124/124 125/125/125
f 113/113/113 125/125/125 114/114/114
f 114/114/114 125/125/125 126/126/126
f 114/114/114 126/126/126 115/115/115
f 115/115/115 126/126/126 127/127/127
f 115/115/115 127/127/127 116/116/116
f 117/117/117 128/128/128 129/129/129
f 117/117/117 129/129/129 118/118/118
f 118/118/118 129/129/129 130/130/130
f 118/118/118 130/130/130 119/119/119
f 119/119/119 130/130/130 131/131/131
f 119/119/119 131/131/131 120/120/120
f 120/120/120 131/131/131 132/132/132
f 120/120/120 132/132/132 121/121/121
f 121/121/121 132/132/132 133/133/133
f 121/121/121 133/133/133 122/122/122
f 122/122/122 133/133/133 134/134/134
f 122/122/122 134/134/134 123/123/123
f 123/123/123 134/134/134 135/135/135
f 123/123/123 135/135/135 124/124/124
f 124/124/124 135/135/135 136/136/136
f 124/124/124 136/136/136 125/125/125
f 125/125/125 136/136/136 137/137/137
f 125/125/125 137/137/137 126/126/126
f 126/126/126 137/137/137 138/138/138
f 126/126/126 138/138/138 127/127/127
f 128/128/128 139/139/139 140/140/140
f 128/128/128 140/140/140 129/129/129
f 129/129/129 140/140/140 141/141/141
f 129/129/129 141/141/141 130/130/130
f 130/130/130 141/141/141 142/142/142
f 130/130/130 142/142/142 131/131/131
f 131/131/131 142/142/142 143/143/143
f 131/131/131 143/143/143 132/132/132
f 132/132/132 143/143/143 144/144/144
f 132/132/132 144/144/144 133/133/133
f 133/133/133 144/144/144 145/145/145
f 133/133/133 145/145/145 134/134/134
f 134/134/134 145/145/145 146/146/146
f 134/134/134 146/146/146 135/135/135
f 135/135/135 146/146/146 147/147/147
f 135/135/135 147/147/147 136/136/136
f 136/136/136 147/147/147 148/148/148
f 136/136/136 148/148/148 137/137/137
f 137/137/137 148/148/148 149/149/149
f 137/137/137 149/149/149 138/138/138
f 150/150/150 161/161/161 162/162/162
f 150/150/150 162/162/162 151/151/151
f 151/151/151 162/162/162 163/163/163
f 151/151/151 163/163/163 152/152/152
f 152/152/152 163/163/163 164/164/164
f 152/152/152 164/164/164 153/153/153
f 153/153/153 164/164/164 165/165/165
f 153/153/153 165/165/165 154/154/154
f 154/154/154 165/165/165 166/166/166
f 154/154/154 166/166/166 155/155/155
f 155/155/155 166/166/166 167/167/167
f 155/155/155 167/167/167 156/156/156
f 156/156/156 167/167/167 168/168/168
f 156/156/156 168/168/168 157/157/157
f 157/157/157 168/168/168 169/169/169
f 157/157/157 169/169/169 158/158/158
f 158/158/158 169/169/169 170/170/170
f 158/158/158 170/170/170 159/159/159
f 159/159/159 170/170/170 171/171/171
f 159/159/159 171/171/171 160/160/160
f 161/161/161 172/172/172 173/173/173
f 161/161/161 173/173/173 162/162/162
f 162/162/162 173/173/173 174/174/174
f 162/162/162 174/174/174 163/163/163
f 163/163/163 174/174/174 175/175/175
f 163/163/163 175/175/175 164/164/164
f 164/164/164 175/175/175 176/176/176
f 164/164/164 176/176/176 165/165/165
f 165/165/165 176/176/176 177/177/177
f 165/165/165 177/177/177 166/166/166
f 166/166/166 177/177/177 178/178/178
f 166/166/166 178/178/178 167/167/167
f 167/167/167 178/178/178 179/179/179
f 167/167/167 179/179/179 168/168/168
f 168/168/168 179/179/179 180/180/180
f 168/168/168 180/180/180 169/169/169
f 169/169/169 180/180/180 181/181/181
f 169/169/169 181/181/181 170/170/170
f 170/170/170 181/181/181 182/182/182
f 170/170/170 182/182/182 171/171/171
f 172/172/172 183/183/183 184/184/184
f 172/172/172 184/184/184 173/173/173
f 173/173/173 184/184/184 185/185/185
f 173/173/173 185/185/185 174/174/174
f 174/174/174 185/185/185 186/186/186
f 174/174/174 186/186/186 175/175/175
f 175/175/175 186/186/186 187/187/187
f 175/175/175 187/187/187 176/176/176
f 176/176/176 187/187/187 188/188/188
f 176/176/176 188/188/188 177/177/177
f 177/177/177 188/188/188 189/189/189
f 177/177/177 189/189/189 178/178/178
f 178/178/178 189/189/189 190/190/190
f 178/178/178 190/190/190 179/179/179
f 179/179/179 190/190/190 191/191/191
f 179/179/179 191/191/191 180/180/180
f 180/180/180 191/191/191 192/192/192
f 180/180/180 192/192/192 181/181/181
f 181/181/181 192/192/192 193/193/193
f 181/181/181 193/193/193 182/182/182
f 183/183/183 194/194/194 195/195/195
f 183/183/183 195/195/195 184/184/184
f 184/184/184 195/195/195 196/196/196
f 184/184/184 196/196/196 185/185/185
f 185/185/185 196/196/196 197/197/197
f 185/185/185 197/197/197 186/186/186
f 186/186/186 197/197/197 198/198/198
f 186/186/186 198/198/198 187/187/187
f 187/187/187 198/198/198 199/199/199
f 187/187/187 199/199/199 188/188/188
f 188/188/188 199/199/199 200/200/200
f 188/188/188 200/200/200 189/189/189
f 189/189/189 200/200/200 201/201/201
f 189/189/189 201/201/201 190/190/190
f 190/190/190 201/201/201 202/202/202
f 190/190/190 202/202/202 191/191/191
f 191/191/191 202/202/202 203/203/203
f 191/191/191 203/203/203 192/192/192
f 192/192/192 203/203/203 204/204/204
f 192/192/192 204/204/204 193/193/193
f 194/194/194 205/205/205 206/206/206
f 194/194/194 206/206/206 195/195/195
f 195/195/195 206/206/206 207/207/207
f 195/195/195 207/207/207 196/196/196
f 196/196/196 207/207/207 208/208/208
f 196/196/196 208/208/208 197/197/197
f 197/197/197 208/208/208 209/209/209
f 197/197/197 209/209/209 198/198/198
f 198/198/198 209/209/209 210/210/210
f 198/198/198 210/210/210 199/199/199
f 199/199/199 210/210/210 211/211/211
f 199/199/199 211/211/211 200/200/200
f 200/200/200 211/211/211 212/212/212
f 200/200/200 212/212/212 201/201/201
f 201/201/201 212/212/212 213/213/213
f 201/201/201 213/213/213 202/202/202
f 202/202/202 213/213/213 214/214/214
f 202/202/202 214/214/214 203/203/203
f 203/203/203 214/214/214 215/215/215
f 203/203/203 215/215/215 204/204/204
f 205/205/205 216/216/216 217/217/217
f 205/205/205 217/217/217 206/206/206
f 206/206/206 217/217/217 218/218/218
f 206/206/206 218/218/218 207/207/207
f 207/207/207 218/218/218 219/219/219
f 207/207/207 219/219/219 208/208/208
f 208/208/208 219/219/219 220/220/220
f 208/208/208 220/220/220 209/209/209
f 209/209/209 220/220/220 221/221/221
f 209/209/209 221/221/221 210/210/210
f 210/210/210 221/221/221 222/222/222
f 210/210/210 222/222/222 211/211/211
f 211/211/211 222/222/222 223/223/223
f 211/211/211 223/223/223 212/212/212
f 212/212/212 223/223/223 224/224/224
f 212/212/212 224/224/224 213/213/213
f 213/213/213 224/224/224 225/225/225
f 213/213/213 225/225/225 214/214/214
f 214/214/214 225/225/225 226/226/226
f 214/214/214 226/226/226 215/215/215
f 227/227/227 238/238/238 239/239/239
f 227/227/227 239/239/239 228/228/228
f 228/228/228 239/239/239 240/240/240
f 228/228/228 240/240/240 229/229/229
f 229/229/229 240/240/240 241/241/241
f 229/229/229 241/241/241 230/230/230
f 230/230/230 241/241/241 242/242/242
f 230/230/230 242/242/242 231/231/231
f 231/231/231 242/242/242 243/243/243
f 231/231/231 243/243/243 232/232/232
f 232/232/232 243/243/243 244/244/244
f 232/232/232 244/244/244 233/233/233
f 233/233/233 244/244/244 245/245/245
f 233/233/233 245/245/245 234/234/234
f 234/234/234 245/245/245 246/246/246
f 234/234/234 246/246/246 235/235/235
f 235/235/235 246/246/246 247/247/247
f 235/235/235 247/247/247 236/236/236
f 236/236/236 247/247/247 248/248/248
f 236/236/236 248/248/248 237/237/237
f 238/238/238 249/249/249 250/250/250
f 238/238/238 250/250/250 239/239/239
f 239/239/239 250/250/250 251/251/251
f 239/239/239 251/251/251 240/240/240
f 240/240/240 251/251/251 252/252/252
f 240/240/240 252/252/252 241/241/241
f 241/241/241 252/252/252 253/253/253
f 241/241/241 253/253/253 242/242/242
f 242/242/242 253/253/253 254/254/254
f 242/242/242 254/254/254 243/243/243
f 243/243/243 254/254/254 255/255/255
f 243/243/243 255/255/255 244/244/244
f 244/244/244 255/255/255 256/256/256
f 244/244/244 256/256/256 245/245/245
f 245/245/245 256/256/256 257/257/257
f 245/245/245 257/257/257 246/246/246
f 246/246/246 257/257/257 258/258/258
f 246/246/246 258/258/258 247/247/247
f 247/247/247 258/258/258 259/259/259
f 247/247/247 259/259/259 248/248/248
f 249/249/249 260/260/260 261/261/261
f 249/249/249 261/261/261 250/250/250
f 250/250/250 261/261/261 262/262/262
f 250/250/250 262/262/262 251/251/251
f 251/251/251 262/262/262 263/263/263
f 251/251/251 263/263/263 252/252/252
f 252/252/252 263/263/263 264/264/264
f 252/252/252 264/264/264 253/253/253
f 253/253/253 264/264/264 265/265/265
f 253/253/253 265/265/265 254/254/254
f 254/254/254 265/265/265 266/266/266
f 254/254/254 266/266/266 255/255/255
f 255/255/255 266/266/266 267/267/267
f 255/255/255 267/267/267 256/256/256
f 256/256/256 267/267/267 268/268/268
f 256/256/256 268/268/268 257/257/257
f 257/257/257 268/268/268 269/269/269
f 257/257/257 269/269/269 258/258/258
f 258/258/258 269/269/269 270/270/270
f 258/258/258 270/270/270 259/259/259
f 260/260/260 271/271/271 272/272/272
f 260/260/260 272/272/272 261/261/261
f 261/261/261 272/272/272 273/273/273
f 261/261/261 273/273/273 262/262/262
f 262/262/262 273/273/273 274/274/274
f 262/262/262 274/274/274 263/263/263
f 263/263/263 274/274/274 275/275/275
f 263/263/263 275/275/275 264/264/264
f 264/264/264 275/275/275 276/276/276
f 264/264/264 276/276/276 265/265/265
f 265/265/265 276/276/276 277/277/277
f 265/265/265 277/277/277 266/266/266
f 266/266/266 277/277/277 278/278/278
f 266/266/266 278/278/278 267/267/267
f 267/267/267 278/278/278 279/279/279
f 267/267/267 279/279/279 268/268/268
f 268/268/268 279/279/279 280/280/280
f 268/268/268 280/280/280 269/269/269
f 269/269/269 280/280/280 281/281/281
f 269/269/269 281/281/281 270/270/270
f 271/271/271 282/282/282 283/283/283
f 271/271/271 283/283/283 272/272/272
f 272/272/272 283/283/283 284/284/284
f 272/272/272 284/284/284 273/273/273
f 273/273/273 284/284/284 285/285/285
f 273/273/273 285/285/285 274/274/274
f 274/274/274 285/285/285 286/286/286
f 274/274/274 286/286/286 275/275/275
f 275/275/275 286/286/286 287/287/287
f 275/275/275 287/287/287 276/276/276
f 276/276/276 287/287/287 288/288/288
f 276/276/276 288/288/288 277/277/277
f 277/277/277 288/288/288 289/289/289
f 277/277/277 289/289/289 278/278/278
f 278/278/278 289/289/289 290/290/290
f 278/278/278 290/290/290 279/279/279
f 279/279/279 290/290/290 291/291/291
f 279/279/279 291/291/291 280/280/280
f 280/280/280 291/291/291 292/292/292
f 280/280/280 292/292/292 281/281/281
f 282/282/282 293/293/293 294/294/294
f 282/282/282 294/294/294 283/283/283
f 283/283/283 294/294/294 295/295/295
f 283/283/283 295/295/295 284/284/284
f 284/284/284 295/295/295 296/296/296
f 284/284/284 296/296/296 285/285/285
f 285/285/285 296/296/296 297/297/297
f 285/285/285 297/297/297 286/286/286
f 286/286/286 297/297/297 298/298/298
f 286/286/286 298/298/298 287/287/287
f 287/287/287 298/298/298 299/299/299
f 287/287/287 299/299/299 288/288/288
f 288/288/288 299/299/299 300/300/300
f 288/288/288 300/300/300 289/289/289
f 289/289/289 300/300/300 301/301/301
f 289/289/289 301/301/301 290/290/290
f 290/290/290 301/301/301 302/302/302
f 290/290/290 302/302/302 291/291/291
f 291/291/291 302/302/302 303/303/303
f 291/291/291 303/303/303 292/292/292
f 304/304/304 315/315/315 316/316/316
f 304/304/304 316/316/316 305/305/305
f 305/305/305 316/316/316 317/317/317
f 305/305/305 317/317/317 306/306/306
f 306/306/306 317/317/317 318/318/318
f 306/306/306 318/318/318 307/307/307
f 307/307/307 318/318/318 319/319/319
f 307/307/307 319/319/319 308/308/308
f 308/308/308 319/319/319 320/320/320
f 308/308/308 320/320/320 309/309/309
f 309/309/309 320/320/320 321/321/321
f 309/309/309 321/321/321 310/310/310
f 310/310/310 321/321/321 322/322/322
f 310/310/310 322/322/322 311/311/311
f 311/311/311 322/322/322 323/323/323
f 311/311/311 323/323/323 312/312/312
f 312/312/312 323/323/323 324/324/324
f 312/312/312 324/324/324 313/313/313
f 313/313/313 324/324/324 325/325/325
f 313/313/313 325/325/325 314/314/314
f 315/315/315 326/326/326 327/327/327
f 315/315/315 327/327/327 316/316/316
f 316/316/316 327/327/327 328/328/328
f 316/316/316 328/328/328 317/317/317
f 317/317/317 328/328/328 329/329/329
f 317/317/317 329/329/329 318/318/318
f 318/318/318 329/329/329 330/330/330
f 318/318/318 330/330/330 319/319/319
f 319/319/319 330/330/330 331/331/331
f 319/319/319 331/331/331 320/320/320
f 320/320/320 331/331/331 332/332/332
f 320/320/320 332/332/332 321/321/321
f 321/321/321 332/332/332 333/333/333
f 321/321/321 333/333/333 322/322/322
f 322/322/322 333/333/333 334/334/334
f 322/322/322 334/334/334 323/323/323
f 323/323/323 334/334/334 335/335/335
f 323/323/323 335/335/335 324/324/324
f 324/324/324 335/335/335 336/336/336
f 324/324/324 336/336/336 325/325/325
f 326/326/326 337/337/337 338/338/338
f 326/326/326 338/338/338 327/327/327
f 327/327/327 338/338/338 339/339/339
f 327/327/327 339/339/339 328/328/328
f 328/328/328 339/339/339 340/340/340
f 328/328/328 340/340/340 329/329/329
f 329/329/329 340/340/340 341/341/341
f 329/329/329 341/341/341 330/330/330
f 330/330/330 341/341/341 342/342/342
f 330/330/330 342/342/342 331/331/331
f 331/331/331 342/342/342 343/343/343
f 331/331/331 343/343/343 332/332/332
f 332/332/332 343/343/343 344/344/344
f 332/332/332 344/344/344 333/333/333
f 333/333/333 344/344/344 345/345/345
f 333/333/333 345/345/345 334/334/334
f 334/334/334 345/345/345 346/346/346
f 334/334/334 346/346/346 335/335/335
f 335/335/335 346/346/346 347/347/347
f 335/335/335 347/347/347 336/336/336
f 337/337/337 348/348/348 349/349/349
f 337/337/337 349/349/349 338/338/338
f 338/338/338 349/349/349 350/350/350
f 338/338/338 350/350/350 339/339/339
f 339/339/339 350/350/350 351/351/351
f 339/339/339 351/351/351 340/340/340
f 340/340/340 351/351/351 352/352/352
f 340/340/340 352/352/352 341/341/341
f 341/341/341 352/352/352 353/353/353
f 341/341/341 353/353/353 342/342/342
f 342/342/342 353/353/353 354/354/354
f 342/342/342 354/354/354 343/343/343
f 343/343/343 354/354/354 355/355/355
f 343/343/343 355/355/355 344/344/344
f 344/344/344 355/355/355 356/356/356
f 344/344/344 356/356/356 345/345/345
f 345/345/345 356/356/356 357/357/357
f 345/345/345 357/357/357 346/346/346
f 346/346/346 357/357/357 358/358/358
f 346/346/346 358/358/358 347/347/347
f 348/348/348 359/359/359 360/360/360
f 348/348/348 360/360/360 349/349/349
f 349/349/349 360/360/360 361/361/361
f 349/349/349 361/361/361 350/350/350
f 350/350/350 361/361/361 362/362/362
f 350/350/350 362/362/362 351/351/351
f 351/351/351 362/362/362 363/363/363
f 351/351/351 363/363/363 352/352/352
f 352/352/352 363/363/363 364/364/364
f 352/352/352 364/364/364 353/353/353
f 353/353/353 364/364/364 365/365/365
f 353/353/353 365/365/365 354/354/354
f 354/354/354 365/365/365 366/366/366
f 354/354/354 366/366/366 355/355/355
f 355/355/355 366/366/366 367/367/367
f 355/355/355 367/367/367 356/356/356
f 356/356/356 367/367/367 368/368/368
f 356/356/356 368/368/368 357/357/357
f 357/357/357 368/368/368 369/369/369
f 357/357/357 369/369/369 358/358/358
f 359/359/359 370/370/370 371/371/371
f 359/359/359 371/371/371 360/360/360
f 360/360/360 371/371/371 372/372/372
f 360/360/360 372/372/372 361/361/361
f 361/361/361 372/372/372 373/373/373
f 361/361/361 373/373/373 362/362/362
f 362/362/362 373/373/373 374/374/374
f 362/362/362 374/374/374 363/363/363
f 363/363/363 374/374/374 375/375/375
f 363/363/363 375/375/375 364/364/364
f 364/364/364 375/375/375 376/376/376
f 364/364/364 376/376/376 365/365/365
f 365/365/365 376/376/376 377/377/377
f 365/365/365 377/377/377 366/366/366
f 366/366/366 377/377/377 378/378/378
f 366/366/366 378/378/378 367/367/367
f 367/367/367 378/378/378 379/379/379
f 367/367/367 379/379/379 368/368/368
f 368/368/368 379/379/379 380/380/380
f 368/368/368 380/380/380 369/369/369
f 381/381/381 392/392/392 393/393/393
f 381/381/381 393/393/393 382/382/382
f 382/382/382 393/393/393 394/394/394
f 382/382/382 394/394/394 383/383/383
f 383/383/383 394/394/394 395/395/395
f 383/383/383 395/395/395 384/384/384
f 384/384/384 395/395/395 396/396/396
f 384/384/384 396/396/396 385/385/385
f 385/385/385 396/396/396 397/397/397
f 385/385/385 397/397/397 386/386/386
f 386/386/386 397/397/397 398/398/398
f 386/386/386 398/398/398 387/387/387
f 387/387/387 398/398/398 399/399/399
f 387/387/387 399/399/399 388/388/388
f 388/388/388 399/399/399 400/400/400
f 388/388/388 400/400/400 389/389/389
f 389/389/389 400/400/400 401/401/401
f 389/389/389 401/401/401 390/390/390
f 390/390/390 401/401/401 402/402/402
f 390/390/390 402/402/402 391/391/391
f 392/392/392 403/403/403 404/404/404
f 392/392/392 404/404/404 393/393/393
f 393/393/393 404/404/404 405/405/405
f 393/393/393 405/405/405 394/394/394
f 394/394/394 405/405/405 406/406/406
f 394/394/394 406/406/406 395/395/395
f 395/395/395 406/406/406 407/407/407
f 395/395/395 407/407/407 396/396/396
f 396/396/396 407/407/407 408/408/408
f 396/396/396 408/408/408 397/397/397
f 397/397/397 408/408/408 409/409/409
f 397/397/397 409/409/409 398/398/398
f 398/398/398 409/409/409 410/410/410
f 398/398/398 410/410/410 399/399/399
f 399/399/399 410/410/410 411/411/411
f 399/399/399 411/411/411 400/400/400
f 400/400/400 411/411/411 412/412/412
f 400/400/400 412/412/412 401/401/401
f 401/401/401 412/412/412 413/413/413
f 401/401/401 413/413/413 402/402/402
f 403/403/403 414/414/414 415/415/415
f 403/403/403 415/415/415 404/404/404
f 404/404/404 415/415/415 416/416/416
f 404/404/404 416/416/416 405/405/405
f 405/405/405 416/416/416 417/417/417
f 405/405/405 417/417/417 406/406/406
f 406/406/406 417/417/417 418/418/418
f 406/406/406 418/418/418 407/407/407
f 407/407/407 418/418/418 419/419/419
f 407/407/407 419/419/419 408/408/408
f 408/408/408 419/419/419 420/420/420
f 408/408/408 420/420/420 409/409/409
f 409/409/409 420/420/420 421/421/421
f 409/409/409 421/421/421 410/410/410
f 410/410/410 421/421/421 422/422/422
f 410/410/410 422/422/422 411/411/411
f 411/411/411 422/422/422 423/423/423
f 411/411/411 423/423/423 412/412/412
f 412/412/412 423/423/423 424/424/424
f 412/412/412 424/424/424 413/413/413
f 414/414/414 425/425/425 426/426/426
f 414/414/414 426/426/426 415/415/415
f 415/415/415 426/426/426 427/427/427
f 415/415/415 427/427/427 416/416/416
f 416/416/416 427/427/427 428/428/428
f 416/416/416 428/428/428 417/417/417
f 417/417/417 428/428/428 429/429/429
f 417/417/417 429/429/429 418/418/418
f 418/418/418 429/429/429 430/430/430
f 418/418/418 430/430/430 419/419/419
f 419/419/419 430/430/430 431/431/431
f 419/419/419 431/431/431 420/420/420
f 420/420/420 431/431/431 432/432/432
f 420/420/420 432/432/432 421/421/421
f 421/421/421 432/432/432 433/433/433
f 421/421/421 433/433/433 422/422/422
f 422/422/422 433/433/433 434/434/434
f 422/422/422 434/434/434 423/423/423
f 423/423/423 434/434/434 435/435/435
f 423/423/423 435/435/435 424/424/424
f 425/425/425 436/436/436 437/437/437
f 425/425/425 437/437/437 426/426/426
f 426/426/426 437/437/437 438/438/438
f 426/426/426 438/438/438 427/427/427
f 427/427/427 438/438/438 439/439/439
f 427/427/427 439/439/439 428/428/428
f 428/428/428 439/439/439 440/440/440
f 428/428/428 440/440/440 429/429/429
f 429/429/429 440/440/440 441/441/441
f 429/429/429 441/441/441 430/430/430
f 430/430/430 441/441/441 442/442/442
f 430/430/430 442/442/442 431/431/431
f 431/431/431 442/442/442 443/443/443
f 431/431/431 443/443/443 432/432/432
f 432/432/432 443/443/443 444/444/444
f 432/432/432 444/444/444 433/433/433
f 433/433/433 444/444/444 445/445/445
f 433/433/433 445/445/445 434/434/434
f 434/434/434 445/445/445 446/446/446
f 434/434/434 446/446/446 435/435/435
f 436/436/436 447/447/447 448/448/448
f 436/436/436 448/448/448 437/437/437
f 437/437/437 448/448/448 449/449/449
f 437/437/437 449/449/449 438/438/438
f 438/438/438 449/449/449 450/450/450
f 438/438/438 450/450/450 439/439/439
f 439/439/439 450/450/450 451/451/451
f 439/439/439 451/451/451 440/440/440
f 440/440/440 451/451/451 452/452/452
f 440/440/440 452/452/452 441/441/441
f 441/441/441 452/452/452 453/453/453
f 441/441/441 453/453/453 442/442/442
f 442/442/442 453/453/453 454/454/454
f 442/442/442 454/454/454 443/443/443
f 443/443/443 454/454/454 455/455/455
f 443/443/443 455/455/455 444/444/444
f 444/444/444 455/455/455 456/456/456
f 444/444/444 456/456/456 445/445/445
f 445/445/445 456/456/456 457/457/457
f 445/445/445 457/457/457 446/446/446
f 458/458/458 469/469/469 470/470/470
f 458/458/458 470/470/470 459/459/459
f 459/459/459 470/470/470 471/471/471
f 459/459/459 471/471/471 460/460/460
f 460/460/460 471/471/471 472/472/472
f 460/460/460 472/472/472 461/461/461
f 461/461/461 472/472/472 473/473/473
f 461/461/461 473/473/473 462/462/462
f 462/462/462 473/473/473 474/474/474
f 462/462/462 474/474/474 463/463/463
f 463/463/463 474/474/474 475/475/475
f 463/463/463 475/475/475 464/464/464
f 464/464/464 475/475/475 476/476/476
f 464/464/464 476/476/476 465/465/465
f 465/465/465 476/476/476 477/477/477
f 465/465/465 477/477/477 466/466/466
f 466/466/466 477/477/477 478/478/478
f 466/466/466 478/478/478 467/467/467
f 467/467/467 478/478/478 479/479/479
f 467/467/467 479/479/479 468/468/468
f 469/469/469 480/480/480 481/481/481
f 469/469/469 481/481/481 470/470/470
f 470/470/470 481/481/481 482/482/482
f 470/470/470 482/482/482 471/471/471
f 471/471/471 482/482/482 483/483/483
f 471/471/471 483/483/483 472/472/472
f 472/472/472 483/483/483 484/484/484
f 472/472/472 484/484/484 473/473/473
f 473/473/473 484/484/484 485/485/485
f 473/473/473 485/485/485 474/474/474
f 474/474/474 485/485/485 486/486/486
f 474/474/474 486/486/486 475/475/475
f 475/475/475 486/486/486 487/487/487
f 475/475/475 487/487/487 476/476/476
f 476/476/476 487/487/487 488/488/488
f 476/476/476 488/488/488 477/477/477
f 477/477/477 488/488/488 489/489/489
f 477/477/477 489/489/489 478/478/478
f 478/478/478 489/489/489 490/490/490
f 478/478/478 490/490/490 479/479/479
f 480/480/480 491/491/491 492/492/492
f 480/480/480 492/492/492 481/481/481
f 481/481/481 492/492/492 493/493/493
f 481/481/481 493/493/493 482/482/482
f 482/482/482 493/493/493 494/494/494
f 482/482/482 494/494/494 483/483/483
f 483/483/483 494/494/494 495/495/495
f 483/483/483 495/495/495 484/484/484
f 484/484/484 495/495/495 496/496/496
f 484/484/484 496/496/496 485/485/485
f 485/485/485 496/496/496 497/497/497
f 485/485/485 497/497/497 486/486/486
f 486/486/486 497/497/497 498/498/498
f 486/486/486 498/498/498 487/487/487
f 487/487/487 498/498/498 499/499/499
f 487/487/487 499/499/499 488/488/488
f 488/488/488 499/499/499 500/500/500
f 488/488/488 500/500/500 489/489/489
f 489/489/489 500/500/500 501/501/501
f 489/489/489 501/501/501 490/490/490
f 491/491/491 502/502/502 503/503/503
f 491/491/491 503/503/503 492/492/492
f 492/492/492 503/503/503 504/504/504
f 492/492/492 504/504/504 493/493/493
f 493/493/493 504/504/504 505/505/505
f 493/493/493 505/505/505 494/494/494
f 494/494/494 505/505/505 506/506/506
f 494/494/494 506/506/506 495/495/495
f 495/495/495 506/506/506 507/507/507
f 495/495/495 507/507/507 496/496/496
f 496/496/496 507/507/507 508/508/508
f 496/496/496 508/508/508 497/497/497
f 497/497/497 508/508/508 509/509/509
f 497/497/497 509/509/509 498/498/498
f 498/498/498 509/509/509 510/510/510
f 498/498/498 510/510/510 499/499/499
f 499/499/499 510/510/510 511/511/511
f 499/499/499 511/511/511 500/500/500
f 500/500/500 511/511/511 512/512/512
f 500/500/500 512/512/512 501/501/501
f 502/502/502 513/513/513 514/514/514
f 502/502/502 514/514/514 503/503/503
f 503/503/503 514/514/514 515/515/515
f 503/503/503 515/515/515 504/504/504
f 504/504/504 515/515/515 516/516/516
f 504/504/504 516/516/516 505/505/505
f 505/505/505 516/516/516 517/517/517
f 505/505/505 517/517/517 506/506/506
f 506/506/506 517/517/517 518/518/518
f 506/506/506 518/518/518 507/507/507
f 507/507/507 518/518/518 519/519/519
f 507/507/507 519/519/519 508/508/508
f 508/508/508 519/519/519 520/520/520
f 508/508/508 520/520/520 509/509/509
f 509/509/509 520/520/520 521/521/521
f 509/509/509 521/521/521 510/510/510
f 510/510/510 521/521/521 522/522/522
f 510/510/510 522/522/522 511/511/511
f 511/511/511 522/522/522 523/523/523
f 511/511/511 523/523/523 512/512/512
f 513/513/513 524/524/524 525/525/525
f 513/513/513 525/525/525 514/514/514
f 514/514/514 525/525/525 526/526/526
f 514/514/514 526/526/526 515/515/515
f 515/515/515 526/526/526 527/527/527
f 515/515/515 527/527/527 516/516/516
f 516/516/516 527/527/527 528/528/528
f 516/516/516 528/528/528 517/517/517
f 517/517/517 528/528/528 529/529/529
f 517/517/517 529/529/529 518/518/518
f 518/518/518 529/529/529 530/530/530
f 518/518/518 530/530/530 519/519/519
f 519/519/519 530/530/530 531/531/531
f 519/519/519 531/531/531 520/520/520
f 520/520/520 531/531/531 532/532/532
f 520/520/520 532/532/532 521/521/521
f 521/521/521 532/532/532 533/533/533
f 521/521/521 533/533/533 522/522/522
f 522/522/522 533/533/533 534/534/534
f 522/522/522 534/534/534 523/523/523
f 535/535/535 546/546/546 547/547/547
f 535/535/535 547/547/547 536/536/536
f 536/536/536 547/547/547 548/548/548
f 536/536/536 548/548/548 537/537/537
f 537/537/537 548/548/548 549/549/549
f 537/537/537 549/549/549 538/538/538
f 538/538/538 549/549/549 550/550/550
f 538/538/538 550/550/550 539/539/539
f 539/539/539 550/550/550 551/551/551
f 539/539/539 551/551/551 540/540/540
f 540/540/540 551/551/551 552/552/552
f 540/540/540 552/552/552 541/541/541
f 541/541/541 552/552/552 553/553/553
f 541/541/541 553/553/553 542/542/542
f 542/542/542 553/553/553 554/554/554
f 542/542/542 554/554/554 543/543/543
f 543/543/543 554/554/554 555/555/555
f 543/543/543 555/555/555 544/544/544
f 544/544/544 555/555/555 556/556/556
f 544/544/544 556/556/556 545/545/545
f 546/546/546 557/557/557 558/558/558
f 546/546/546 558/558/558 547/547/547
f 547/547/547 558/558/558 559/559/559
f 547/547/547 559/559/559 548/548/548
f 548/548/548 559/559/559 560/560/560
f 548/548/548 560/560/560 549/549/549
f 549/549/549 560/560/560 561/561/561
f 549/549/549 561/561/561 550/550/550
f 550/550/550 561/561/561 562/562/562
f 550/550/550 562/562/562 551/551/551
f 551/551/551 562/562/562 563/563/563
f 551/551/551 563/563/563 552/552/552
f 552/552/552 563/563/563 564/564/564
f 552/552/552 564/564/564 553/553/553
f 553/553/553 564/564/564 565/565/565
f 553/553/553 565/565/565 554/554/554
f 554/554/554 565/565/565 566/566/566
f 554/554/554 566/566/566 555/555/555
f 555/555/555 566/566/566 567/567/567
f 555/555/555 567/567/567 556/556/556
f 557/557/557 568/568/568 569/569/569
f 557/557/557 569/569/569 558/558/558
f 558/558/558 569/569/569 570/570/570
f 558/558/558 570/570/570 559/559/559
f 559/559/559 570/570/570 571/571/571
f 559/559/559 571/571/571 560/560/560
f 560/560/560 571/571/571 572/572/572
f 560/560/560 572/572/572 561/561/561
f 561/561/561 572/572/572 573/573/573
f 561/561/561 573/573/573 562/562/562
f 562/562/562 573/573/573 574/574/574
f 562/562/562 574/574/574 563/563/563
f 563/563/563 574/574/574 575/575/575
f 563/563/563 575/575/575 564/564/564
f 564/564/564 575/575/575 576/576/576
f 564/564/564 576/576/576 565/565/565
f 565/565/565 576/576/576 577/577/577
f 565/565/565 577/577/577 566/566/566
f 566/566/566 577/577/577 578/578/578
f 566/566/566 578/578/578 567/567/567
f 568/568/568 579/579/579 580/580/580
f 568/568/568 580/580/580 569/569/569
f 569/569/569 580/580/580 581/581/581
f 569/569/569 581/581/581 570/570/570
f 570/570/570 581/581/581 582/582/582
f 570/570/570 582/582/582 571/571/571
f 571/571/571 582/582/582 583/583/583
f 571/571/571 583/583/583 572/572/572
f 572/572/572 583/583/583 584/584/584
f 572/572/572 584/584/584 573/573/573
f 573/573/573 584/584/584 585/585/585
f 573/573/573 585/585/585 574/574/574
f 574/574/574 585/585/585 586/586/586
f 574/574/574 586/586/586 575/575/575
f 575/575/575 586/586/586 587/587/587
f 575/575/575 587/587/587 576/576/576
f 576/576/576 587/587/587 588/588/588
f 576/576/576 588/588/588 577/577/577
f 577/577/577 588/588/588 589/589/589
f 577/577/577 589/589/589 578/578/578
f 579/579/579 590/590/590 591/591/591
f 579/579/579 591/591/591 580/580/580
f 580/580/580 591/591/591 592/592/592
f 580/580/580 592/592/592 581/581/581
f 581/581/581 592/592/592 593/593/593
f 581/581/581 593/593/593 582/582/582
f 582/582/582 593/593/593 594/594/594
f 582/582/582 594/594/594 583/583/583
f 583/583/583 594/594/594 595/595/595
f 583/583/583 595/595/595 584/584/584
f 584/584/584 595/595/595 596/596/596
f 584/584/584 596/596/596 585/585/585
f 585/585/585 596/596/596 597/597/597
f 585/585/585 597/597/597 586/586/586
f 586/586/586 597/597/597 598/598/598
f 586/586/586 598/598/598 587/587/587
f 587/587/587 598/598/598 599/599/599
f 587/587/587 599/599/599 588/588/588
f 588/588/588 599/599/599 600/600/600
f 588/588/588 600/600/600 589/589/589
f 590/590/590 601/601/601 602/602/602
f 590/590/590 602/602/602 591/591/591
f 591/591/591 602/602/602 603/603/603
f 591/591/591 603/603/603 592/592/592
f 592/592/592 603/603/603 604/604/604
f 592/592/592 604/604/604 593/593/593
f 593/593/593 604/604/604 605/605/605
f 593/593/593 605/605/605 594/594/594
f 594/594/594 605/605/605 606/606/606
f 594/594/594 606/606/606 595/595/595
f 595/595/595 606/606/606 607/607/607
f 595/595/595 607/607/607 596/596/596
f 596/596/596 607/607/607 608/608/608
f 596/596/596 608/608/608 597/597/597
f 597/597/597 608/608/608 609/609/609
f 597/597/597 609/609/609 598/598/598
f 598/598/598 609/609/609 610/610/610
f 598/598/598 610/610/610 599/599/599
f 599/599/599 610/610/610 611/611/611
f 599/599/599 611/611/611 600/600/600