# 3D Model: ship/hull/762bcd7026aa844c83ed2b0f5454b162 (v6 Gemini)
# Style: LNG Carrier Ship | Symmetry: symmetric
# Dimensions: 285.004 x 39.432 x 44.168 m
# Triangles: 1002 | Vertices: 583
v -137.8744 10.5 12.8087
v -137.8744 10.5 -12.8087
v -137.8744 2.52 -9.2753
v -137.8744 2.52 9.2753
v -137.8744 0 0
v -104.7846 10.5 20.3173
v -104.7846 10.5 -20.3173
v -104.7846 2.52 -12.8087
v -104.7846 2.52 12.8087
v -104.7846 0 0
v 49.6348 10.5 22.084
v 49.6348 10.5 -22.084
v 49.6348 2.52 -13.6921
v 49.6348 2.52 13.6921
v 49.6348 0 0
v 99.2696 10.5 18.1089
v 99.2696 10.5 -18.1089
v 99.2696 2.52 -11.042
v 99.2696 2.52 11.042
v 99.2696 0 0
v 137.8744 10.5 0.7729
v 137.8744 10.5 -0.7729
v 137.8744 2.52 -0.3313
v 137.8744 2.52 0.3313
v 137.8744 0 0
v 73.5322 22.5 0
v 73.5322 22.5 0
v 73.5322 22.5 0
v 73.5322 22.5 0
v 73.5322 22.5 0
v 73.5322 22.5 0
v 73.5322 22.5 0
v 73.5322 22.5 0
v 73.5322 22.5 0
v 73.5322 22.5 0
v 73.5322 22.5 0
v 73.5315 22.2694 -3.4583
v 76.0692 22.2694 -2.7983
v 77.6378 22.2694 -1.0695
v 77.6383 22.2694 1.0678
v 76.0703 22.2694 2.7973
v 73.5329 22.2694 3.4583
v 70.9951 22.2694 2.7983
v 69.4265 22.2694 1.0695
v 69.426 22.2694 -1.0678
v 70.994 22.2694 -2.7973
v 73.5315 22.2694 -3.4583
v 73.5308 21.5866 -6.7837
v 78.5087 21.5866 -5.4891
v 81.5858 21.5866 -2.0979
v 81.5866 21.5866 2.0946
v 78.5109 21.5866 5.4871
v 73.5335 21.5866 6.7837
v 68.5556 21.5866 5.4891
v 65.4786 21.5866 2.0979
v 65.4777 21.5866 -2.0946
v 68.5534 21.5866 -5.4871
v 73.5308 21.5866 -6.7837
v 73.5302 20.4776 -9.8484
v 80.757 20.4776 -7.969
v 85.2242 20.4776 -3.0457
v 85.2254 20.4776 3.0409
v 80.7602 20.4776 7.966
v 73.5342 20.4776 9.8484
v 66.3073 20.4776 7.969
v 61.8402 20.4776 3.0457
v 61.8389 20.4776 -3.0409
v 66.3041 20.4776 -7.966
v 73.5302 20.4776 -9.8484
v 73.5296 18.9853 -12.5346
v 82.7276 18.9853 -10.1426
v 88.4133 18.9853 -3.8764
v 88.4148 18.9853 3.8704
v 82.7317 18.9853 10.1388
v 73.5347 18.9853 12.5346
v 64.3367 18.9853 10.1426
v 58.6511 18.9853 3.8764
v 58.6495 18.9853 -3.8704
v 64.3326 18.9853 -10.1388
v 73.5296 18.9853 -12.5346
v 73.5292 17.1668 -14.7391
v 84.3449 17.1668 -11.9264
v 91.0305 17.1668 -4.5582
v 91.0323 17.1668 4.5511
v 84.3497 17.1668 11.922
v 73.5352 17.1668 14.7391
v 62.7195 17.1668 11.9264
v 56.0338 17.1668 4.5582
v 56.032 17.1668 -4.5511
v 62.7146 17.1668 -11.922
v 73.5292 17.1668 -14.7391
v 73.5288 15.0922 -16.3773
v 85.5466 15.0922 -13.2519
v 92.9753 15.0922 -5.0648
v 92.9773 15.0922 5.0569
v 85.552 15.0922 13.247
v 73.5355 15.0922 16.3773
v 61.5177 15.0922 13.2519
v 54.0891 15.0922 5.0648
v 54.087 15.0922 -5.0569
v 61.5123 15.0922 -13.247
v 73.5288 15.0922 -16.3773
v 73.5286 12.8411 -17.386
v 86.2866 12.8411 -14.0682
v 94.1728 12.8411 -5.3768
v 94.175 12.8411 5.3684
v 86.2923 12.8411 14.063
v 73.5357 12.8411 17.386
v 60.7777 12.8411 14.0682
v 52.8915 12.8411 5.3768
v 52.8893 12.8411 -5.3684
v 60.772 12.8411 -14.063
v 73.5286 12.8411 -17.386
v 73.5285 10.5 -17.7266
v 86.5365 10.5 -14.3438
v 94.5772 10.5 -5.4821
v 94.5794 10.5 5.4735
v 86.5423 10.5 14.3385
v 73.5358 10.5 17.7266
v 60.5278 10.5 14.3438
v 52.4871 10.5 5.4821
v 52.4849 10.5 -5.4735
v 60.522 10.5 -14.3385
v 73.5285 10.5 -17.7266
v 73.5322 10.5 0
v 18.3868 22.5 0
v 18.3868 22.5 0
v 18.3868 22.5 0
v 18.3868 22.5 0
v 18.3868 22.5 0
v 18.3868 22.5 0
v 18.3868 22.5 0
v 18.3868 22.5 0
v 18.3868 22.5 0
v 18.3868 22.5 0
v 18.3868 22.5 0
v 18.3861 22.2694 -3.4583
v 20.9238 22.2694 -2.7983
v 22.4925 22.2694 -1.0695
v 22.4929 22.2694 1.0678
v 20.9249 22.2694 2.7973
v 18.3875 22.2694 3.4583
v 15.8498 22.2694 2.7983
v 14.2811 22.2694 1.0695
v 14.2807 22.2694 -1.0678
v 15.8486 22.2694 -2.7973
v 18.3861 22.2694 -3.4583
v 18.3854 21.5866 -6.7837
v 23.3633 21.5866 -5.4891
v 26.4404 21.5866 -2.0979
v 26.4412 21.5866 2.0946
v 23.3656 21.5866 5.4871
v 18.3882 21.5866 6.7837
v 13.4102 21.5866 5.4891
v 10.3332 21.5866 2.0979
v 10.3323 21.5866 -2.0946
v 13.408 21.5866 -5.4871
v 18.3854 21.5866 -6.7837
v 18.3848 20.4776 -9.8484
v 25.6116 20.4776 -7.969
v 30.0788 20.4776 -3.0457
v 30.08 20.4776 3.0409
v 25.6149 20.4776 7.966
v 18.3888 20.4776 9.8484
v 11.162 20.4776 7.969
v 6.6948 20.4776 3.0457
v 6.6935 20.4776 -3.0409
v 11.1587 20.4776 -7.966
v 18.3848 20.4776 -9.8484
v 18.3842 18.9853 -12.5346
v 27.5822 18.9853 -10.1426
v 33.2679 18.9853 -3.8764
v 33.2695 18.9853 3.8704
v 27.5864 18.9853 10.1388
v 18.3893 18.9853 12.5346
v 9.1913 18.9853 10.1426
v 3.5057 18.9853 3.8764
v 3.5041 18.9853 -3.8704
v 9.1872 18.9853 -10.1388
v 18.3842 18.9853 -12.5346
v 18.3838 17.1668 -14.7391
v 29.1995 17.1668 -11.9264
v 35.8851 17.1668 -4.5582
v 35.887 17.1668 4.5511
v 29.2043 17.1668 11.922
v 18.3898 17.1668 14.7391
v 7.5741 17.1668 11.9264
v 0.8885 17.1668 4.5582
v 0.8866 17.1668 -4.5511
v 7.5692 17.1668 -11.922
v 18.3838 17.1668 -14.7391
v 18.3835 15.0922 -16.3773
v 30.4012 15.0922 -13.2519
v 37.8299 15.0922 -5.0648
v 37.8319 15.0922 5.0569
v 30.4066 15.0922 13.247
v 18.3901 15.0922 16.3773
v 6.3724 15.0922 13.2519
v -1.0563 15.0922 5.0648
v -1.0584 15.0922 -5.0569
v 6.367 15.0922 -13.247
v 18.3835 15.0922 -16.3773
v 18.3832 12.8411 -17.386
v 31.1412 12.8411 -14.0682
v 39.0275 12.8411 -5.3768
v 39.0297 12.8411 5.3684
v 31.147 12.8411 14.063
v 18.3903 12.8411 17.386
v 5.6323 12.8411 14.0682
v -2.2539 12.8411 5.3768
v -2.2561 12.8411 -5.3684
v 5.6266 12.8411 -14.063
v 18.3832 12.8411 -17.386
v 18.3832 10.5 -17.7266
v 31.3911 10.5 -14.3438
v 39.4318 10.5 -5.4821
v 39.4341 10.5 5.4735
v 31.397 10.5 14.3385
v 18.3904 10.5 17.7266
v 5.3825 10.5 14.3438
v -2.6583 10.5 5.4821
v -2.6605 10.5 -5.4735
v 5.3766 10.5 -14.3385
v 18.3832 10.5 -17.7266
v 18.3868 10.5 0
v -36.7686 22.5 0
v -36.7686 22.5 0
v -36.7686 22.5 0
v -36.7686 22.5 0
v -36.7686 22.5 0
v -36.7686 22.5 0
v -36.7686 22.5 0
v -36.7686 22.5 0
v -36.7686 22.5 0
v -36.7686 22.5 0
v -36.7686 22.5 0
v -36.7693 22.2694 -3.4583
v -34.2316 22.2694 -2.7983
v -32.6629 22.2694 -1.0695
v -32.6625 22.2694 1.0678
v -34.2304 22.2694 2.7973
v -36.7679 22.2694 3.4583
v -39.3056 22.2694 2.7983
v -40.8743 22.2694 1.0695
v -40.8747 22.2694 -1.0678
v -39.3067 22.2694 -2.7973
v -36.7693 22.2694 -3.4583
v -36.77 21.5866 -6.7837
v -31.792 21.5866 -5.4891
v -28.715 21.5866 -2.0979
v -28.7141 21.5866 2.0946
v -31.7898 21.5866 5.4871
v -36.7672 21.5866 6.7837
v -41.7451 21.5866 5.4891
v -44.8222 21.5866 2.0979
v -44.823 21.5866 -2.0946
v -41.7474 21.5866 -5.4871
v -36.77 21.5866 -6.7837
v -36.7706 20.4776 -9.8484
v -29.5438 20.4776 -7.969
v -25.0766 20.4776 -3.0457
v -25.0753 20.4776 3.0409
v -29.5405 20.4776 7.966
v -36.7666 20.4776 9.8484
v -43.9934 20.4776 7.969
v -48.4606 20.4776 3.0457
v -48.4618 20.4776 -3.0409
v -43.9966 20.4776 -7.966
v -36.7706 20.4776 -9.8484
v -36.7711 18.9853 -12.5346
v -27.5731 18.9853 -10.1426
v -21.8875 18.9853 -3.8764
v -21.8859 18.9853 3.8704
v -27.569 18.9853 10.1388
v -36.766 18.9853 12.5346
v -45.964 18.9853 10.1426
v -51.6497 18.9853 3.8764
v -51.6513 18.9853 -3.8704
v -45.9682 18.9853 -10.1388
v -36.7711 18.9853 -12.5346
v -36.7716 17.1668 -14.7391
v -25.9559 17.1668 -11.9264
v -19.2703 17.1668 -4.5582
v -19.2684 17.1668 4.5511
v -25.951 17.1668 11.922
v -36.7656 17.1668 14.7391
v -47.5813 17.1668 11.9264
v -54.2669 17.1668 4.5582
v -54.2688 17.1668 -4.5511
v -47.5861 17.1668 -11.922
v -36.7716 17.1668 -14.7391
v -36.7719 15.0922 -16.3773
v -24.7541 15.0922 -13.2519
v -17.3255 15.0922 -5.0648
v -17.3234 15.0922 5.0569
v -24.7488 15.0922 13.247
v -36.7652 15.0922 16.3773
v -48.783 15.0922 13.2519
v -56.2117 15.0922 5.0648
v -56.2137 15.0922 -5.0569
v -48.7884 15.0922 -13.247
v -36.7719 15.0922 -16.3773
v -36.7721 12.8411 -17.386
v -24.0141 12.8411 -14.0682
v -16.1279 12.8411 -5.3768
v -16.1257 12.8411 5.3684
v -24.0084 12.8411 14.063
v -36.765 12.8411 17.386
v -49.523 12.8411 14.0682
v -57.4093 12.8411 5.3768
v -57.4114 12.8411 -5.3684
v -49.5288 12.8411 -14.063
v -36.7721 12.8411 -17.386
v -36.7722 10.5 -17.7266
v -23.7643 10.5 -14.3438
v -15.7235 10.5 -5.4821
v -15.7213 10.5 5.4735
v -23.7584 10.5 14.3385
v -36.765 10.5 17.7266
v -49.7729 10.5 14.3438
v -57.8136 10.5 5.4821
v -57.8159 10.5 -5.4735
v -49.7787 10.5 -14.3385
v -36.7722 10.5 -17.7266
v -36.7686 10.5 0
v -91.9189 22.5 0
v -91.9189 22.5 0
v -91.9189 22.5 0
v -91.9189 22.5 0
v -91.9189 22.5 0
v -91.9189 22.5 0
v -91.9189 22.5 0
v -91.9189 22.5 0
v -91.9189 22.5 0
v -91.9189 22.5 0
v -91.9189 22.5 0
v -91.9197 22.2694 -3.4583
v -89.3819 22.2694 -2.7983
v -87.8133 22.2694 -1.0695
v -87.8128 22.2694 1.0678
v -89.3808 22.2694 2.7973
v -91.9182 22.2694 3.4583
v -94.456 22.2694 2.7983
v -96.0246 22.2694 1.0695
v -96.0251 22.2694 -1.0678
v -94.4571 22.2694 -2.7973
v -91.9197 22.2694 -3.4583
v -91.9203 21.5866 -6.7837
v -86.9424 21.5866 -5.4891
v -83.8654 21.5866 -2.0979
v -83.8645 21.5866 2.0946
v -86.9402 21.5866 5.4871
v -91.9176 21.5866 6.7837
v -96.8955 21.5866 5.4891
v -99.9725 21.5866 2.0979
v -99.9734 21.5866 -2.0946
v -96.8977 21.5866 -5.4871
v -91.9203 21.5866 -6.7837
v -91.921 20.4776 -9.8484
v -84.6941 20.4776 -7.969
v -80.2269 20.4776 -3.0457
v -80.2257 20.4776 3.0409
v -84.6909 20.4776 7.966
v -91.9169 20.4776 9.8484
v -99.1438 20.4776 7.969
v -103.611 20.4776 3.0457
v -103.6122 20.4776 -3.0409
v -99.147 20.4776 -7.966
v -91.921 20.4776 -9.8484
v -91.9215 18.9853 -12.5346
v -82.7235 18.9853 -10.1426
v -77.0378 18.9853 -3.8764
v -77.0363 18.9853 3.8704
v -82.7194 18.9853 10.1388
v -91.9164 18.9853 12.5346
v -101.1144 18.9853 10.1426
v -106.8 18.9853 3.8764
v -106.8016 18.9853 -3.8704
v -101.1185 18.9853 -10.1388
v -91.9215 18.9853 -12.5346
v -91.922 17.1668 -14.7391
v -81.1062 17.1668 -11.9264
v -74.4206 17.1668 -4.5582
v -74.4188 17.1668 4.5511
v -81.1014 17.1668 11.922
v -91.9159 17.1668 14.7391
v -102.7317 17.1668 11.9264
v -109.4173 17.1668 4.5582
v -109.4191 17.1668 -4.5511
v -102.7365 17.1668 -11.922
v -91.922 17.1668 -14.7391
v -91.9223 15.0922 -16.3773
v -79.9045 15.0922 -13.2519
v -72.4759 15.0922 -5.0648
v -72.4738 15.0922 5.0569
v -79.8991 15.0922 13.247
v -91.9156 15.0922 16.3773
v -103.9334 15.0922 13.2519
v -111.362 15.0922 5.0648
v -111.3641 15.0922 -5.0569
v -103.9388 15.0922 -13.247
v -91.9223 15.0922 -16.3773
v -91.9225 12.8411 -17.386
v -79.1645 12.8411 -14.0682
v -71.2783 12.8411 -5.3768
v -71.2761 12.8411 5.3684
v -79.1588 12.8411 14.063
v -91.9154 12.8411 17.386
v -104.6734 12.8411 14.0682
v -112.5596 12.8411 5.3768
v -112.5618 12.8411 -5.3684
v -104.6791 12.8411 -14.063
v -91.9225 12.8411 -17.386
v -91.9226 10.5 -17.7266
v -78.9146 10.5 -14.3438
v -70.8739 10.5 -5.4821
v -70.8717 10.5 5.4735
v -78.9088 10.5 14.3385
v -91.9153 10.5 17.7266
v -104.9233 10.5 14.3438
v -112.964 10.5 5.4821
v -112.9662 10.5 -5.4735
v -104.9291 10.5 -14.3385
v -91.9226 10.5 -17.7266
v -91.9189 10.5 0
v -147.1218 10.5 18.4695
v -147.1293 10.5 -18.462
v -110.2452 10.5 -18.4695
v -110.2377 10.5 18.462
v -143.8049 25.5 15.1432
v -143.811 25.5 -15.137
v -113.5622 25.5 -15.1432
v -113.556 25.5 15.137
v -110.7943 18 14.7716
v -110.8003 18 -14.7714
v -110.8003 23 -14.7714
v -110.7943 23 14.7716
v -109.8751 18 14.7714
v -109.8812 18 -14.7716
v -109.8812 23 -14.7716
v -109.8751 23 14.7714
v -145.2496 25.475 5.9077
v -145.252 25.475 -5.9047
v -145.252 35.475 -5.9047
v -145.2496 35.475 5.9077
v -130.4928 25.475 5.9047
v -130.4952 25.475 -5.9077
v -130.4952 35.475 -5.9077
v -130.4928 35.475 5.9047
v -136.2134 35.45 0
v -136.4357 35.45 0.8295
v -137.0429 35.45 1.4367
v -137.8724 35.45 1.659
v -138.7019 35.45 1.4367
v -139.3092 35.45 0.8295
v -139.5314 35.45 0
v -139.3092 35.45 -0.8295
v -138.7019 35.45 -1.4367
v -137.8724 35.45 -1.659
v -137.0429 35.45 -1.4367
v -136.4357 35.45 -0.8295
v -136.2134 39.432 0
v -136.4357 39.432 0.8295
v -137.0429 39.432 1.4367
v -137.8724 39.432 1.659
v -138.7019 39.432 1.4367
v -139.3092 39.432 0.8295
v -139.5314 39.432 0
v -139.3092 39.432 -0.8295
v -138.7019 39.432 -1.4367
v -137.8724 39.432 -1.659
v -137.0429 39.432 -1.4367
v -136.4357 39.432 -0.8295
v -137.8724 35.45 0
v -137.8724 39.432 0
v -96.9 11.9204 -7.08
v -96.9 12.0241 -6.8297
v -96.9 12.2744 -6.726
v -96.9 12.5248 -6.8297
v -96.9 12.6284 -7.08
v -96.9 12.5248 -7.3303
v -96.9 12.2744 -7.434
v -96.9 12.0241 -7.3303
v 79.8 11.9204 -7.08
v 79.8 12.0241 -6.8297
v 79.8 12.2744 -6.726
v 79.8 12.5248 -6.8297
v 79.8 12.6284 -7.08
v 79.8 12.5248 -7.3303
v 79.8 12.2744 -7.434
v 79.8 12.0241 -7.3303
v -96.9 12.2744 -7.08
v 79.8 12.2744 -7.08
v -96.9 11.9204 0
v -96.9 12.0241 0.2503
v -96.9 12.2744 0.354
v -96.9 12.5248 0.2503
v -96.9 12.6284 0
v -96.9 12.5248 -0.2503
v -96.9 12.2744 -0.354
v -96.9 12.0241 -0.2503
v 79.8 11.9204 0
v 79.8 12.0241 0.2503
v 79.8 12.2744 0.354
v 79.8 12.5248 0.2503
v 79.8 12.6284 0
v 79.8 12.5248 -0.2503
v 79.8 12.2744 -0.354
v 79.8 12.0241 -0.2503
v -96.9 12.2744 0
v 79.8 12.2744 0
v -96.9 11.9204 7.08
v -96.9 12.0241 7.3303
v -96.9 12.2744 7.434
v -96.9 12.5248 7.3303
v -96.9 12.6284 7.08
v -96.9 12.5248 6.8297
v -96.9 12.2744 6.726
v -96.9 12.0241 6.8297
v 79.8 11.9204 7.08
v 79.8 12.0241 7.3303
v 79.8 12.2744 7.434
v 79.8 12.5248 7.3303
v 79.8 12.6284 7.08
v 79.8 12.5248 6.8297
v 79.8 12.2744 6.726
v 79.8 12.0241 6.8297
v -96.9 12.2744 7.08
v 79.8 12.2744 7.08
v -56.7345 12.2744 -9.2925
v -56.8123 12.0867 -9.2925
v -57 12.0089 -9.2925
v -57.1877 12.0867 -9.2925
v -57.2655 12.2744 -9.2925
v -57.1877 12.4622 -9.2925
v -57 12.5399 -9.2925
v -56.8123 12.4622 -9.2925
v -56.7345 12.2744 9.2925
v -56.8123 12.0867 9.2925
v -57 12.0089 9.2925
v -57.1877 12.0867 9.2925
v -57.2655 12.2744 9.2925
v -57.1877 12.4622 9.2925
v -57 12.5399 9.2925
v -56.8123 12.4622 9.2925
v -57 12.2744 -9.2925
v -57 12.2744 9.2925
v 0.2655 12.2744 -9.2925
v 0.1877 12.0867 -9.2925
v 0 12.0089 -9.2925
v -0.1877 12.0867 -9.2925
v -0.2655 12.2744 -9.2925
v -0.1877 12.4622 -9.2925
v 0 12.5399 -9.2925
v 0.1877 12.4622 -9.2925
v 0.2655 12.2744 9.2925
v 0.1877 12.0867 9.2925
v 0 12.0089 9.2925
v -0.1877 12.0867 9.2925
v -0.2655 12.2744 9.2925
v -0.1877 12.4622 9.2925
v 0 12.5399 9.2925
v 0.1877 12.4622 9.2925
v 0 12.2744 -9.2925
v 0 12.2744 9.2925
v 57.2655 12.2744 -9.2925
v 57.1877 12.0867 -9.2925
v 57 12.0089 -9.2925
v 56.8123 12.0867 -9.2925
v 56.7345 12.2744 -9.2925
v 56.8123 12.4622 -9.2925
v 57 12.5399 -9.2925
v 57.1877 12.4622 -9.2925
v 57.2655 12.2744 9.2925
v 57.1877 12.0867 9.2925
v 57 12.0089 9.2925
v 56.8123 12.0867 9.2925
v 56.7345 12.2744 9.2925
v 56.8123 12.4622 9.2925
v 57 12.5399 9.2925
v 57.1877 12.4622 9.2925
v 57 12.2744 -9.2925
v 57 12.2744 9.2925
vt 0.5 0.5
vt 0.5 0.5
vt 0.5 0.5
vt 0.5 0.5
vt 0.5 0.5
vt 0.5 0.5
vt 0.5 0.5
vt 0.5 0.5
vt 0.5 0.5
vt 0.5 0.5
vt 0.5 0.5
vt 0.5 0.5
vt 0.5 0.5
vt 0.5 0.5
vt 0.5 0.5
vt 0.5 0.5
vt 0.5 0.5
vt 0.5 0.5
vt 0.5 0.5
vt 0.5 0.5
vt 0.5 0.5
vt 0.5 0.5
vt 0.5 0.5
vt 0.5 0.5
vt 0.5 0.5
vt 0 0
vt 0.1 0
vt 0.2 0
vt 0.3 0
vt 0.4 0
vt 0.5 0
vt 0.6 0
vt 0.7 0
vt 0.8 0
vt 0.9 0
vt 1 0
vt 0 0.125
vt 0.1 0.125
vt 0.2 0.125
vt 0.3 0.125
vt 0.4 0.125
vt 0.5 0.125
vt 0.6 0.125
vt 0.7 0.125
vt 0.8 0.125
vt 0.9 0.125
vt 1 0.125
vt 0 0.25
vt 0.1 0.25
vt 0.2 0.25
vt 0.3 0.25
vt 0.4 0.25
vt 0.5 0.25
vt 0.6 0.25
vt 0.7 0.25
vt 0.8 0.25
vt 0.9 0.25
vt 1 0.25
vt 0 0.375
vt 0.1 0.375
vt 0.2 0.375
vt 0.3 0.375
vt 0.4 0.375
vt 0.5 0.375
vt 0.6 0.375
vt 0.7 0.375
vt 0.8 0.375
vt 0.9 0.375
vt 1 0.375
vt 0 0.5
vt 0.1 0.5
vt 0.2 0.5
vt 0.3 0.5
vt 0.4 0.5
vt 0.5 0.5
vt 0.6 0.5
vt 0.7 0.5
vt 0.8 0.5
vt 0.9 0.5
vt 1 0.5
vt 0 0.625
vt 0.1 0.625
vt 0.2 0.625
vt 0.3 0.625
vt 0.4 0.625
vt 0.5 0.625
vt 0.6 0.625
vt 0.7 0.625
vt 0.8 0.625
vt 0.9 0.625
vt 1 0.625
vt 0 0.75
vt 0.1 0.75
vt 0.2 0.75
vt 0.3 0.75
vt 0.4 0.75
vt 0.5 0.75
vt 0.6 0.75
vt 0.7 0.75
vt 0.8 0.75
vt 0.9 0.75
vt 1 0.75
vt 0 0.875
vt 0.1 0.875
vt 0.2 0.875
vt 0.3 0.875
vt 0.4 0.875
vt 0.5 0.875
vt 0.6 0.875
vt 0.7 0.875
vt 0.8 0.875
vt 0.9 0.875
vt 1 0.875
vt 0 1
vt 0.1 1
vt 0.2 1
vt 0.3 1
vt 0.4 1
vt 0.5 1
vt 0.6 1
vt 0.7 1
vt 0.8 1
vt 0.9 1
vt 1 1
vt 0.5 0.5
vt 0 0
vt 0.1 0
vt 0.2 0
vt 0.3 0
vt 0.4 0
vt 0.5 0
vt 0.6 0
vt 0.7 0
vt 0.8 0
vt 0.9 0
vt 1 0
vt 0 0.125
vt 0.1 0.125
vt 0.2 0.125
vt 0.3 0.125
vt 0.4 0.125
vt 0.5 0.125
vt 0.6 0.125
vt 0.7 0.125
vt 0.8 0.125
vt 0.9 0.125
vt 1 0.125
vt 0 0.25
vt 0.1 0.25
vt 0.2 0.25
vt 0.3 0.25
vt 0.4 0.25
vt 0.5 0.25
vt 0.6 0.25
vt 0.7 0.25
vt 0.8 0.25
vt 0.9 0.25
vt 1 0.25
vt 0 0.375
vt 0.1 0.375
vt 0.2 0.375
vt 0.3 0.375
vt 0.4 0.375
vt 0.5 0.375
vt 0.6 0.375
vt 0.7 0.375
vt 0.8 0.375
vt 0.9 0.375
vt 1 0.375
vt 0 0.5
vt 0.1 0.5
vt 0.2 0.5
vt 0.3 0.5
vt 0.4 0.5
vt 0.5 0.5
vt 0.6 0.5
vt 0.7 0.5
vt 0.8 0.5
vt 0.9 0.5
vt 1 0.5
vt 0 0.625
vt 0.1 0.625
vt 0.2 0.625
vt 0.3 0.625
vt 0.4 0.625
vt 0.5 0.625
vt 0.6 0.625
vt 0.7 0.625
vt 0.8 0.625
vt 0.9 0.625
vt 1 0.625
vt 0 0.75
vt 0.1 0.75
vt 0.2 0.75
vt 0.3 0.75
vt 0.4 0.75
vt 0.5 0.75
vt 0.6 0.75
vt 0.7 0.75
vt 0.8 0.75
vt 0.9 0.75
vt 1 0.75
vt 0 0.875
vt 0.1 0.875
vt 0.2 0.875
vt 0.3 0.875
vt 0.4 0.875
vt 0.5 0.875
vt 0.6 0.875
vt 0.7 0.875
vt 0.8 0.875
vt 0.9 0.875
vt 1 0.875
vt 0 1
vt 0.1 1
vt 0.2 1
vt 0.3 1
vt 0.4 1
vt 0.5 1
vt 0.6 1
vt 0.7 1
vt 0.8 1
vt 0.9 1
vt 1 1
vt 0.5 0.5
vt 0 0
vt 0.1 0
vt 0.2 0
vt 0.3 0
vt 0.4 0
vt 0.5 0
vt 0.6 0
vt 0.7 0
vt 0.8 0
vt 0.9 0
vt 1 0
vt 0 0.125
vt 0.1 0.125
vt 0.2 0.125
vt 0.3 0.125
vt 0.4 0.125
vt 0.5 0.125
vt 0.6 0.125
vt 0.7 0.125
vt 0.8 0.125
vt 0.9 0.125
vt 1 0.125
vt 0 0.25
vt 0.1 0.25
vt 0.2 0.25
vt 0.3 0.25
vt 0.4 0.25
vt 0.5 0.25
vt 0.6 0.25
vt 0.7 0.25
vt 0.8 0.25
vt 0.9 0.25
vt 1 0.25
vt 0 0.375
vt 0.1 0.375
vt 0.2 0.375
vt 0.3 0.375
vt 0.4 0.375
vt 0.5 0.375
vt 0.6 0.375
vt 0.7 0.375
vt 0.8 0.375
vt 0.9 0.375
vt 1 0.375
vt 0 0.5
vt 0.1 0.5
vt 0.2 0.5
vt 0.3 0.5
vt 0.4 0.5
vt 0.5 0.5
vt 0.6 0.5
vt 0.7 0.5
vt 0.8 0.5
vt 0.9 0.5
vt 1 0.5
vt 0 0.625
vt 0.1 0.625
vt 0.2 0.625
vt 0.3 0.625
vt 0.4 0.625
vt 0.5 0.625
vt 0.6 0.625
vt 0.7 0.625
vt 0.8 0.625
vt 0.9 0.625
vt 1 0.625
vt 0 0.75
vt 0.1 0.75
vt 0.2 0.75
vt 0.3 0.75
vt 0.4 0.75
vt 0.5 0.75
vt 0.6 0.75
vt 0.7 0.75
vt 0.8 0.75
vt 0.9 0.75
vt 1 0.75
vt 0 0.875
vt 0.1 0.875
vt 0.2 0.875
vt 0.3 0.875
vt 0.4 0.875
vt 0.5 0.875
vt 0.6 0.875
vt 0.7 0.875
vt 0.8 0.875
vt 0.9 0.875
vt 1 0.875
vt 0 1
vt 0.1 1
vt 0.2 1
vt 0.3 1
vt 0.4 1
vt 0.5 1
vt 0.6 1
vt 0.7 1
vt 0.8 1
vt 0.9 1
vt 1 1
vt 0.5 0.5
vt 0 0
vt 0.1 0
vt 0.2 0
vt 0.3 0
vt 0.4 0
vt 0.5 0
vt 0.6 0
vt 0.7 0
vt 0.8 0
vt 0.9 0
vt 1 0
vt 0 0.125
vt 0.1 0.125
vt 0.2 0.125
vt 0.3 0.125
vt 0.4 0.125
vt 0.5 0.125
vt 0.6 0.125
vt 0.7 0.125
vt 0.8 0.125
vt 0.9 0.125
vt 1 0.125
vt 0 0.25
vt 0.1 0.25
vt 0.2 0.25
vt 0.3 0.25
vt 0.4 0.25
vt 0.5 0.25
vt 0.6 0.25
vt 0.7 0.25
vt 0.8 0.25
vt 0.9 0.25
vt 1 0.25
vt 0 0.375
vt 0.1 0.375
vt 0.2 0.375
vt 0.3 0.375
vt 0.4 0.375
vt 0.5 0.375
vt 0.6 0.375
vt 0.7 0.375
vt 0.8 0.375
vt 0.9 0.375
vt 1 0.375
vt 0 0.5
vt 0.1 0.5
vt 0.2 0.5
vt 0.3 0.5
vt 0.4 0.5
vt 0.5 0.5
vt 0.6 0.5
vt 0.7 0.5
vt 0.8 0.5
vt 0.9 0.5
vt 1 0.5
vt 0 0.625
vt 0.1 0.625
vt 0.2 0.625
vt 0.3 0.625
vt 0.4 0.625
vt 0.5 0.625
vt 0.6 0.625
vt 0.7 0.625
vt 0.8 0.625
vt 0.9 0.625
vt 1 0.625
vt 0 0.75
vt 0.1 0.75
vt 0.2 0.75
vt 0.3 0.75
vt 0.4 0.75
vt 0.5 0.75
vt 0.6 0.75
vt 0.7 0.75
vt 0.8 0.75
vt 0.9 0.75
vt 1 0.75
vt 0 0.875
vt 0.1 0.875
vt 0.2 0.875
vt 0.3 0.875
vt 0.4 0.875
vt 0.5 0.875
vt 0.6 0.875
vt 0.7 0.875
vt 0.8 0.875
vt 0.9 0.875
vt 1 0.875
vt 0 1
vt 0.1 1
vt 0.2 1
vt 0.3 1
vt 0.4 1
vt 0.5 1
vt 0.6 1
vt 0.7 1
vt 0.8 1
vt 0.9 1
vt 1 1
vt 0.5 0.5
vt 0.5 0.5
vt 0.5 0.5
vt 0.5 0.5
vt 0.5 0.5
vt 0.5 0.5
vt 0.5 0.5
vt 0.5 0.5
vt 0.5 0.5
vt 0.5 0.5
vt 0.5 0.5
vt 0.5 0.5
vt 0.5 0.5
vt 0.5 0.5
vt 0.5 0.5
vt 0.5 0.5
vt 0.5 0.5
vt 0.5 0.5
vt 0.5 0.5
vt 0.5 0.5
vt 0.5 0.5
vt 0.5 0.5
vt 0.5 0.5
vt 0.5 0.5
vt 0.5 0.5
vt 0 0
vt 0.08333333333333333 0
vt 0.16666666666666666 0
vt 0.25 0
vt 0.3333333333333333 0
vt 0.4166666666666667 0
vt 0.5 0
vt 0.5833333333333334 0
vt 0.6666666666666666 0
vt 0.75 0
vt 0.8333333333333334 0
vt 0.9166666666666666 0
vt 0 1
vt 0.08333333333333333 1
vt 0.16666666666666666 1
vt 0.25 1
vt 0.3333333333333333 1
vt 0.4166666666666667 1
vt 0.5 1
vt 0.5833333333333334 1
vt 0.6666666666666666 1
vt 0.75 1
vt 0.8333333333333334 1
vt 0.9166666666666666 1
vt 0.5 0.5
vt 0.5 0.5
vt 0 0
vt 0.125 0
vt 0.25 0
vt 0.375 0
vt 0.5 0
vt 0.625 0
vt 0.75 0
vt 0.875 0
vt 0 1
vt 0.125 1
vt 0.25 1
vt 0.375 1
vt 0.5 1
vt 0.625 1
vt 0.75 1
vt 0.875 1
vt 0.5 0.5
vt 0.5 0.5
vt 0 0
vt 0.125 0
vt 0.25 0
vt 0.375 0
vt 0.5 0
vt 0.625 0
vt 0.75 0
vt 0.875 0
vt 0 1
vt 0.125 1
vt 0.25 1
vt 0.375 1
vt 0.5 1
vt 0.625 1
vt 0.75 1
vt 0.875 1
vt 0.5 0.5
vt 0.5 0.5
vt 0 0
vt 0.125 0
vt 0.25 0
vt 0.375 0
vt 0.5 0
vt 0.625 0
vt 0.75 0
vt 0.875 0
vt 0 1
vt 0.125 1
vt 0.25 1
vt 0.375 1
vt 0.5 1
vt 0.625 1
vt 0.75 1
vt 0.875 1
vt 0.5 0.5
vt 0.5 0.5
vt 0 0
vt 0.125 0
vt 0.25 0
vt 0.375 0
vt 0.5 0
vt 0.625 0
vt 0.75 0
vt 0.875 0
vt 0 1
vt 0.125 1
vt 0.25 1
vt 0.375 1
vt 0.5 1
vt 0.625 1
vt 0.75 1
vt 0.875 1
vt 0.5 0.5
vt 0.5 0.5
vt 0 0
vt 0.125 0
vt 0.25 0
vt 0.375 0
vt 0.5 0
vt 0.625 0
vt 0.75 0
vt 0.875 0
vt 0 1
vt 0.125 1
vt 0.25 1
vt 0.375 1
vt 0.5 1
vt 0.625 1
vt 0.75 1
vt 0.875 1
vt 0.5 0.5
vt 0.5 0.5
vt 0 0
vt 0.125 0
vt 0.25 0
vt 0.375 0
vt 0.5 0
vt 0.625 0
vt 0.75 0
vt 0.875 0
vt 0 1
vt 0.125 1
vt 0.25 1
vt 0.375 1
vt 0.5 1
vt 0.625 1
vt 0.75 1
vt 0.875 1
vt 0.5 0.5
vt 0.5 0.5
vn 0 1 0
vn 0 1 0
vn 0 1 0
vn 0 1 0
vn 0 1 0
vn 0 1 0
vn 0 1 0
vn 0 1 0
vn 0 1 0
vn 0 1 0
vn 0 1 0
vn 0 1 0
vn 0 1 0
vn 0 1 0
vn 0 1 0
vn 0 1 0
vn 0 1 0
vn 0 1 0
vn 0 1 0
vn 0 1 0
vn 0 1 0
vn 0 1 0
vn 0 1 0
vn 0 1 0
vn 0 1 0
vn 0 1 0
vn 0 1 0
vn 0 1 0
vn 0 1 0
vn 0 1 0
vn 0 1 0
vn 0 1 0
vn 0 1 0
vn 0 1 0
vn 0 1 0
vn 0 1 0
vn 0.19509032201612825 0.9807852804032304 0
vn 0.1578313859491287 0.9807852804032304 0.11467121414606977
vn 0.060286224941064594 0.9807852804032304 0.18554192201955863
vn -0.060286224941064566 0.9807852804032304 0.18554192201955866
vn -0.15783138594912868 0.9807852804032304 0.11467121414606979
vn -0.19509032201612825 0.9807852804032304 2.3891673840167787e-17
vn -0.1578313859491287 0.9807852804032304 -0.11467121414606975
vn -0.060286224941064614 0.9807852804032304 -0.18554192201955863
vn 0.06028622494106454 0.9807852804032304 -0.18554192201955866
vn 0.15783138594912868 0.9807852804032304 -0.11467121414606982
vn 0.19509032201612825 0.9807852804032304 -4.7783347680335573e-17
vn 0.3826834323650898 0.9238795325112866 0
vn 0.30959740024909344 0.9238795325112866 0.22493567784086388
vn 0.11825568406654853 0.9238795325112866 0.3639535720290143
vn -0.11825568406654849 0.9238795325112866 0.3639535720290143
vn -0.3095974002490934 0.9238795325112866 0.22493567784086393
vn -0.3826834323650898 0.9238795325112866 4.6865204053262986e-17
vn -0.30959740024909344 0.9238795325112866 -0.22493567784086385
vn -0.11825568406654859 0.9238795325112866 -0.3639535720290143
vn 0.11825568406654846 0.9238795325112866 -0.3639535720290143
vn 0.3095974002490934 0.9238795325112866 -0.22493567784086396
vn 0.3826834323650898 0.9238795325112866 -9.373040810652597e-17
vn 0.5555702330196022 0.8314696123025452 0
vn 0.44946576008170774 0.8314696123025452 0.32655598958161497
vn 0.17168064357190665 0.8314696123025452 0.5283786903729095
vn -0.1716806435719066 0.8314696123025452 0.5283786903729096
vn -0.4494657600817077 0.8314696123025452 0.326555989581615
vn -0.5555702330196022 0.8314696123025452 6.80377307569005e-17
vn -0.44946576008170774 0.8314696123025452 -0.3265559895816149
vn -0.1716806435719067 0.8314696123025452 -0.5283786903729095
vn 0.17168064357190652 0.8314696123025452 -0.5283786903729096
vn 0.4494657600817077 0.8314696123025452 -0.3265559895816151
vn 0.5555702330196022 0.8314696123025452 -1.36075461513801e-16
vn 0.7071067811865475 0.7071067811865476 0
vn 0.5720614028176843 0.7071067811865476 0.4156269377774534
vn 0.21850801222441055 0.7071067811865476 0.6724985119639573
vn -0.21850801222441046 0.7071067811865476 0.6724985119639573
vn -0.5720614028176841 0.7071067811865476 0.41562693777745346
vn -0.7071067811865475 0.7071067811865476 8.659560562354932e-17
vn -0.5720614028176843 0.7071067811865476 -0.4156269377774533
vn -0.2185080122244106 0.7071067811865476 -0.6724985119639573
vn 0.21850801222441038 0.7071067811865476 -0.6724985119639573
vn 0.5720614028176841 0.7071067811865476 -0.4156269377774536
vn 0.7071067811865475 0.7071067811865476 -1.7319121124709863e-16
vn 0.8314696123025452 0.5555702330196023 0
vn 0.672673046659108 0.5555702330196023 0.48872557584077636
vn 0.25693824050783537 0.5555702330196023 0.7907745928817406
vn -0.25693824050783526 0.5555702330196023 0.7907745928817407
vn -0.6726730466591079 0.5555702330196023 0.4887255758407765
vn -0.8314696123025452 0.5555702330196023 1.0182565992946028e-16
vn -0.672673046659108 0.5555702330196023 -0.48872557584077625
vn -0.2569382405078354 0.5555702330196023 -0.7907745928817406
vn 0.25693824050783515 0.5555702330196023 -0.7907745928817407
vn 0.6726730466591079 0.5555702330196023 -0.4887255758407766
vn 0.8314696123025452 0.5555702330196023 -2.0365131985892056e-16
vn 0.9238795325112867 0.38268343236508984 0
vn 0.7474342425568128 0.38268343236508984 0.5430427641049989
vn 0.28549447630116936 0.38268343236508984 0.8786616496665794
vn -0.28549447630116925 0.38268343236508984 0.8786616496665796
vn -0.7474342425568127 0.38268343236508984 0.543042764104999
vn -0.9238795325112867 0.38268343236508984 1.1314261122877003e-16
vn -0.7474342425568128 0.38268343236508984 -0.5430427641049987
vn -0.2854944763011695 0.38268343236508984 -0.8786616496665794
vn 0.28549447630116914 0.38268343236508984 -0.8786616496665796
vn 0.7474342425568127 0.38268343236508984 -0.543042764104999
vn 0.9238795325112867 0.38268343236508984 -2.2628522245754005e-16
vn 0.9807852804032303 0.19509032201612833 0
vn 0.7934719596790115 0.19509032201612833 0.5764911234865568
vn 0.3030793194773963 0.19509032201612833 0.9327822320138618
vn -0.3030793194773962 0.19509032201612833 0.9327822320138618
vn -0.7934719596790114 0.19509032201612833 0.576491123486557
vn -0.9807852804032303 0.19509032201612833 1.2011155542966555e-16
vn -0.7934719596790115 0.19509032201612833 -0.5764911234865567
vn -0.3030793194773964 0.19509032201612833 -0.9327822320138618
vn 0.3030793194773961 0.19509032201612833 -0.9327822320138618
vn 0.7934719596790114 0.19509032201612833 -0.5764911234865571
vn 0.9807852804032303 0.19509032201612833 -2.402231108593311e-16
vn 1 6.123233995736766e-17 0
vn 0.8090169943749475 6.123233995736766e-17 0.5877852522924731
vn 0.30901699437494745 6.123233995736766e-17 0.9510565162951534
vn -0.30901699437494734 6.123233995736766e-17 0.9510565162951536
vn -0.8090169943749473 6.123233995736766e-17 0.5877852522924732
vn -1 6.123233995736766e-17 1.2246467991473532e-16
vn -0.8090169943749475 6.123233995736766e-17 -0.587785252292473
vn -0.30901699437494756 6.123233995736766e-17 -0.9510565162951534
vn 0.30901699437494723 6.123233995736766e-17 -0.9510565162951536
vn 0.8090169943749473 6.123233995736766e-17 -0.5877852522924734
vn 1 6.123233995736766e-17 -2.4492935982947064e-16
vn 0 -1 0
vn 0 1 0
vn 0 1 0
vn 0 1 0
vn 0 1 0
vn 0 1 0
vn 0 1 0
vn 0 1 0
vn 0 1 0
vn 0 1 0
vn 0 1 0
vn 0 1 0
vn 0.19509032201612825 0.9807852804032304 0
vn 0.1578313859491287 0.9807852804032304 0.11467121414606977
vn 0.060286224941064594 0.9807852804032304 0.18554192201955863
vn -0.060286224941064566 0.9807852804032304 0.18554192201955866
vn -0.15783138594912868 0.9807852804032304 0.11467121414606979
vn -0.19509032201612825 0.9807852804032304 2.3891673840167787e-17
vn -0.1578313859491287 0.9807852804032304 -0.11467121414606975
vn -0.060286224941064614 0.9807852804032304 -0.18554192201955863
vn 0.06028622494106454 0.9807852804032304 -0.18554192201955866
vn 0.15783138594912868 0.9807852804032304 -0.11467121414606982
vn 0.19509032201612825 0.9807852804032304 -4.7783347680335573e-17
vn 0.3826834323650898 0.9238795325112866 0
vn 0.30959740024909344 0.9238795325112866 0.22493567784086388
vn 0.11825568406654853 0.9238795325112866 0.3639535720290143
vn -0.11825568406654849 0.9238795325112866 0.3639535720290143
vn -0.3095974002490934 0.9238795325112866 0.22493567784086393
vn -0.3826834323650898 0.9238795325112866 4.6865204053262986e-17
vn -0.30959740024909344 0.9238795325112866 -0.22493567784086385
vn -0.11825568406654859 0.9238795325112866 -0.3639535720290143
vn 0.11825568406654846 0.9238795325112866 -0.3639535720290143
vn 0.3095974002490934 0.9238795325112866 -0.22493567784086396
vn 0.3826834323650898 0.9238795325112866 -9.373040810652597e-17
vn 0.5555702330196022 0.8314696123025452 0
vn 0.44946576008170774 0.8314696123025452 0.32655598958161497
vn 0.17168064357190665 0.8314696123025452 0.5283786903729095
vn -0.1716806435719066 0.8314696123025452 0.5283786903729096
vn -0.4494657600817077 0.8314696123025452 0.326555989581615
vn -0.5555702330196022 0.8314696123025452 6.80377307569005e-17
vn -0.44946576008170774 0.8314696123025452 -0.3265559895816149
vn -0.1716806435719067 0.8314696123025452 -0.5283786903729095
vn 0.17168064357190652 0.8314696123025452 -0.5283786903729096
vn 0.4494657600817077 0.8314696123025452 -0.3265559895816151
vn 0.5555702330196022 0.8314696123025452 -1.36075461513801e-16
vn 0.7071067811865475 0.7071067811865476 0
vn 0.5720614028176843 0.7071067811865476 0.4156269377774534
vn 0.21850801222441055 0.7071067811865476 0.6724985119639573
vn -0.21850801222441046 0.7071067811865476 0.6724985119639573
vn -0.5720614028176841 0.7071067811865476 0.41562693777745346
vn -0.7071067811865475 0.7071067811865476 8.659560562354932e-17
vn -0.5720614028176843 0.7071067811865476 -0.4156269377774533
vn -0.2185080122244106 0.7071067811865476 -0.6724985119639573
vn 0.21850801222441038 0.7071067811865476 -0.6724985119639573
vn 0.5720614028176841 0.7071067811865476 -0.4156269377774536
vn 0.7071067811865475 0.7071067811865476 -1.7319121124709863e-16
vn 0.8314696123025452 0.5555702330196023 0
vn 0.672673046659108 0.5555702330196023 0.48872557584077636
vn 0.25693824050783537 0.5555702330196023 0.7907745928817406
vn -0.25693824050783526 0.5555702330196023 0.7907745928817407
vn -0.6726730466591079 0.5555702330196023 0.4887255758407765
vn -0.8314696123025452 0.5555702330196023 1.0182565992946028e-16
vn -0.672673046659108 0.5555702330196023 -0.48872557584077625
vn -0.2569382405078354 0.5555702330196023 -0.7907745928817406
vn 0.25693824050783515 0.5555702330196023 -0.7907745928817407
vn 0.6726730466591079 0.5555702330196023 -0.4887255758407766
vn 0.8314696123025452 0.5555702330196023 -2.0365131985892056e-16
vn 0.9238795325112867 0.38268343236508984 0
vn 0.7474342425568128 0.38268343236508984 0.5430427641049989
vn 0.28549447630116936 0.38268343236508984 0.8786616496665794
vn -0.28549447630116925 0.38268343236508984 0.8786616496665796
vn -0.7474342425568127 0.38268343236508984 0.543042764104999
vn -0.9238795325112867 0.38268343236508984 1.1314261122877003e-16
vn -0.7474342425568128 0.38268343236508984 -0.5430427641049987
vn -0.2854944763011695 0.38268343236508984 -0.8786616496665794
vn 0.28549447630116914 0.38268343236508984 -0.8786616496665796
vn 0.7474342425568127 0.38268343236508984 -0.543042764104999
vn 0.9238795325112867 0.38268343236508984 -2.2628522245754005e-16
vn 0.9807852804032303 0.19509032201612833 0
vn 0.7934719596790115 0.19509032201612833 0.5764911234865568
vn 0.3030793194773963 0.19509032201612833 0.9327822320138618
vn -0.3030793194773962 0.19509032201612833 0.9327822320138618
vn -0.7934719596790114 0.19509032201612833 0.576491123486557
vn -0.9807852804032303 0.19509032201612833 1.2011155542966555e-16
vn -0.7934719596790115 0.19509032201612833 -0.5764911234865567
vn -0.3030793194773964 0.19509032201612833 -0.9327822320138618
vn 0.3030793194773961 0.19509032201612833 -0.9327822320138618
vn 0.7934719596790114 0.19509032201612833 -0.5764911234865571
vn 0.9807852804032303 0.19509032201612833 -2.402231108593311e-16
vn 1 6.123233995736766e-17 0
vn 0.8090169943749475 6.123233995736766e-17 0.5877852522924731
vn 0.30901699437494745 6.123233995736766e-17 0.9510565162951534
vn -0.30901699437494734 6.123233995736766e-17 0.9510565162951536
vn -0.8090169943749473 6.123233995736766e-17 0.5877852522924732
vn -1 6.123233995736766e-17 1.2246467991473532e-16
vn -0.8090169943749475 6.123233995736766e-17 -0.587785252292473
vn -0.30901699437494756 6.123233995736766e-17 -0.9510565162951534
vn 0.30901699437494723 6.123233995736766e-17 -0.9510565162951536
vn 0.8090169943749473 6.123233995736766e-17 -0.5877852522924734
vn 1 6.123233995736766e-17 -2.4492935982947064e-16
vn 0 -1 0
vn 0 1 0
vn 0 1 0
vn 0 1 0
vn 0 1 0
vn 0 1 0
vn 0 1 0
vn 0 1 0
vn 0 1 0
vn 0 1 0
vn 0 1 0
vn 0 1 0
vn 0.19509032201612825 0.9807852804032304 0
vn 0.1578313859491287 0.9807852804032304 0.11467121414606977
vn 0.060286224941064594 0.9807852804032304 0.18554192201955863
vn -0.060286224941064566 0.9807852804032304 0.18554192201955866
vn -0.15783138594912868 0.9807852804032304 0.11467121414606979
vn -0.19509032201612825 0.9807852804032304 2.3891673840167787e-17
vn -0.1578313859491287 0.9807852804032304 -0.11467121414606975
vn -0.060286224941064614 0.9807852804032304 -0.18554192201955863
vn 0.06028622494106454 0.9807852804032304 -0.18554192201955866
vn 0.15783138594912868 0.9807852804032304 -0.11467121414606982
vn 0.19509032201612825 0.9807852804032304 -4.7783347680335573e-17
vn 0.3826834323650898 0.9238795325112866 0
vn 0.30959740024909344 0.9238795325112866 0.22493567784086388
vn 0.11825568406654853 0.9238795325112866 0.3639535720290143
vn -0.11825568406654849 0.9238795325112866 0.3639535720290143
vn -0.3095974002490934 0.9238795325112866 0.22493567784086393
vn -0.3826834323650898 0.9238795325112866 4.6865204053262986e-17
vn -0.30959740024909344 0.9238795325112866 -0.22493567784086385
vn -0.11825568406654859 0.9238795325112866 -0.3639535720290143
vn 0.11825568406654846 0.9238795325112866 -0.3639535720290143
vn 0.3095974002490934 0.9238795325112866 -0.22493567784086396
vn 0.3826834323650898 0.9238795325112866 -9.373040810652597e-17
vn 0.5555702330196022 0.8314696123025452 0
vn 0.44946576008170774 0.8314696123025452 0.32655598958161497
vn 0.17168064357190665 0.8314696123025452 0.5283786903729095
vn -0.1716806435719066 0.8314696123025452 0.5283786903729096
vn -0.4494657600817077 0.8314696123025452 0.326555989581615
vn -0.5555702330196022 0.8314696123025452 6.80377307569005e-17
vn -0.44946576008170774 0.8314696123025452 -0.3265559895816149
vn -0.1716806435719067 0.8314696123025452 -0.5283786903729095
vn 0.17168064357190652 0.8314696123025452 -0.5283786903729096
vn 0.4494657600817077 0.8314696123025452 -0.3265559895816151
vn 0.5555702330196022 0.8314696123025452 -1.36075461513801e-16
vn 0.7071067811865475 0.7071067811865476 0
vn 0.5720614028176843 0.7071067811865476 0.4156269377774534
vn 0.21850801222441055 0.7071067811865476 0.6724985119639573
vn -0.21850801222441046 0.7071067811865476 0.6724985119639573
vn -0.5720614028176841 0.7071067811865476 0.41562693777745346
vn -0.7071067811865475 0.7071067811865476 8.659560562354932e-17
vn -0.5720614028176843 0.7071067811865476 -0.4156269377774533
vn -0.2185080122244106 0.7071067811865476 -0.6724985119639573
vn 0.21850801222441038 0.7071067811865476 -0.6724985119639573
vn 0.5720614028176841 0.7071067811865476 -0.4156269377774536
vn 0.7071067811865475 0.7071067811865476 -1.7319121124709863e-16
vn 0.8314696123025452 0.5555702330196023 0
vn 0.672673046659108 0.5555702330196023 0.48872557584077636
vn 0.25693824050783537 0.5555702330196023 0.7907745928817406
vn -0.25693824050783526 0.5555702330196023 0.7907745928817407
vn -0.6726730466591079 0.5555702330196023 0.4887255758407765
vn -0.8314696123025452 0.5555702330196023 1.0182565992946028e-16
vn -0.672673046659108 0.5555702330196023 -0.48872557584077625
vn -0.2569382405078354 0.5555702330196023 -0.7907745928817406
vn 0.25693824050783515 0.5555702330196023 -0.7907745928817407
vn 0.6726730466591079 0.5555702330196023 -0.4887255758407766
vn 0.8314696123025452 0.5555702330196023 -2.0365131985892056e-16
vn 0.9238795325112867 0.38268343236508984 0
vn 0.7474342425568128 0.38268343236508984 0.5430427641049989
vn 0.28549447630116936 0.38268343236508984 0.8786616496665794
vn -0.28549447630116925 0.38268343236508984 0.8786616496665796
vn -0.7474342425568127 0.38268343236508984 0.543042764104999
vn -0.9238795325112867 0.38268343236508984 1.1314261122877003e-16
vn -0.7474342425568128 0.38268343236508984 -0.5430427641049987
vn -0.2854944763011695 0.38268343236508984 -0.8786616496665794
vn 0.28549447630116914 0.38268343236508984 -0.8786616496665796
vn 0.7474342425568127 0.38268343236508984 -0.543042764104999
vn 0.9238795325112867 0.38268343236508984 -2.2628522245754005e-16
vn 0.9807852804032303 0.19509032201612833 0
vn 0.7934719596790115 0.19509032201612833 0.5764911234865568
vn 0.3030793194773963 0.19509032201612833 0.9327822320138618
vn -0.3030793194773962 0.19509032201612833 0.9327822320138618
vn -0.7934719596790114 0.19509032201612833 0.576491123486557
vn -0.9807852804032303 0.19509032201612833 1.2011155542966555e-16
vn -0.7934719596790115 0.19509032201612833 -0.5764911234865567
vn -0.3030793194773964 0.19509032201612833 -0.9327822320138618
vn 0.3030793194773961 0.19509032201612833 -0.9327822320138618
vn 0.7934719596790114 0.19509032201612833 -0.5764911234865571
vn 0.9807852804032303 0.19509032201612833 -2.402231108593311e-16
vn 1 6.123233995736766e-17 0
vn 0.8090169943749475 6.123233995736766e-17 0.5877852522924731
vn 0.30901699437494745 6.123233995736766e-17 0.9510565162951534
vn -0.30901699437494734 6.123233995736766e-17 0.9510565162951536
vn -0.8090169943749473 6.123233995736766e-17 0.5877852522924732
vn -1 6.123233995736766e-17 1.2246467991473532e-16
vn -0.8090169943749475 6.123233995736766e-17 -0.587785252292473
vn -0.30901699437494756 6.123233995736766e-17 -0.9510565162951534
vn 0.30901699437494723 6.123233995736766e-17 -0.9510565162951536
vn 0.8090169943749473 6.123233995736766e-17 -0.5877852522924734
vn 1 6.123233995736766e-17 -2.4492935982947064e-16
vn 0 -1 0
vn 0 1 0
vn 0 1 0
vn 0 1 0
vn 0 1 0
vn 0 1 0
vn 0 1 0
vn 0 1 0
vn 0 1 0
vn 0 1 0
vn 0 1 0
vn 0 1 0
vn 0.19509032201612825 0.9807852804032304 0
vn 0.1578313859491287 0.9807852804032304 0.11467121414606977
vn 0.060286224941064594 0.9807852804032304 0.18554192201955863
vn -0.060286224941064566 0.9807852804032304 0.18554192201955866
vn -0.15783138594912868 0.9807852804032304 0.11467121414606979
vn -0.19509032201612825 0.9807852804032304 2.3891673840167787e-17
vn -0.1578313859491287 0.9807852804032304 -0.11467121414606975
vn -0.060286224941064614 0.9807852804032304 -0.18554192201955863
vn 0.06028622494106454 0.9807852804032304 -0.18554192201955866
vn 0.15783138594912868 0.9807852804032304 -0.11467121414606982
vn 0.19509032201612825 0.9807852804032304 -4.7783347680335573e-17
vn 0.3826834323650898 0.9238795325112866 0
vn 0.30959740024909344 0.9238795325112866 0.22493567784086388
vn 0.11825568406654853 0.9238795325112866 0.3639535720290143
vn -0.11825568406654849 0.9238795325112866 0.3639535720290143
vn -0.3095974002490934 0.9238795325112866 0.22493567784086393
vn -0.3826834323650898 0.9238795325112866 4.6865204053262986e-17
vn -0.30959740024909344 0.9238795325112866 -0.22493567784086385
vn -0.11825568406654859 0.9238795325112866 -0.3639535720290143
vn 0.11825568406654846 0.9238795325112866 -0.3639535720290143
vn 0.3095974002490934 0.9238795325112866 -0.22493567784086396
vn 0.3826834323650898 0.9238795325112866 -9.373040810652597e-17
vn 0.5555702330196022 0.8314696123025452 0
vn 0.44946576008170774 0.8314696123025452 0.32655598958161497
vn 0.17168064357190665 0.8314696123025452 0.5283786903729095
vn -0.1716806435719066 0.8314696123025452 0.5283786903729096
vn -0.4494657600817077 0.8314696123025452 0.326555989581615
vn -0.5555702330196022 0.8314696123025452 6.80377307569005e-17
vn -0.44946576008170774 0.8314696123025452 -0.3265559895816149
vn -0.1716806435719067 0.8314696123025452 -0.5283786903729095
vn 0.17168064357190652 0.8314696123025452 -0.5283786903729096
vn 0.4494657600817077 0.8314696123025452 -0.3265559895816151
vn 0.5555702330196022 0.8314696123025452 -1.36075461513801e-16
vn 0.7071067811865475 0.7071067811865476 0
vn 0.5720614028176843 0.7071067811865476 0.4156269377774534
vn 0.21850801222441055 0.7071067811865476 0.6724985119639573
vn -0.21850801222441046 0.7071067811865476 0.6724985119639573
vn -0.5720614028176841 0.7071067811865476 0.41562693777745346
vn -0.7071067811865475 0.7071067811865476 8.659560562354932e-17
vn -0.5720614028176843 0.7071067811865476 -0.4156269377774533
vn -0.2185080122244106 0.7071067811865476 -0.6724985119639573
vn 0.21850801222441038 0.7071067811865476 -0.6724985119639573
vn 0.5720614028176841 0.7071067811865476 -0.4156269377774536
vn 0.7071067811865475 0.7071067811865476 -1.7319121124709863e-16
vn 0.8314696123025452 0.5555702330196023 0
vn 0.672673046659108 0.5555702330196023 0.48872557584077636
vn 0.25693824050783537 0.5555702330196023 0.7907745928817406
vn -0.25693824050783526 0.5555702330196023 0.7907745928817407
vn -0.6726730466591079 0.5555702330196023 0.4887255758407765
vn -0.8314696123025452 0.5555702330196023 1.0182565992946028e-16
vn -0.672673046659108 0.5555702330196023 -0.48872557584077625
vn -0.2569382405078354 0.5555702330196023 -0.7907745928817406
vn 0.25693824050783515 0.5555702330196023 -0.7907745928817407
vn 0.6726730466591079 0.5555702330196023 -0.4887255758407766
vn 0.8314696123025452 0.5555702330196023 -2.0365131985892056e-16
vn 0.9238795325112867 0.38268343236508984 0
vn 0.7474342425568128 0.38268343236508984 0.5430427641049989
vn 0.28549447630116936 0.38268343236508984 0.8786616496665794
vn -0.28549447630116925 0.38268343236508984 0.8786616496665796
vn -0.7474342425568127 0.38268343236508984 0.543042764104999
vn -0.9238795325112867 0.38268343236508984 1.1314261122877003e-16
vn -0.7474342425568128 0.38268343236508984 -0.5430427641049987
vn -0.2854944763011695 0.38268343236508984 -0.8786616496665794
vn 0.28549447630116914 0.38268343236508984 -0.8786616496665796
vn 0.7474342425568127 0.38268343236508984 -0.543042764104999
vn 0.9238795325112867 0.38268343236508984 -2.2628522245754005e-16
vn 0.9807852804032303 0.19509032201612833 0
vn 0.7934719596790115 0.19509032201612833 0.5764911234865568
vn 0.3030793194773963 0.19509032201612833 0.9327822320138618
vn -0.3030793194773962 0.19509032201612833 0.9327822320138618
vn -0.7934719596790114 0.19509032201612833 0.576491123486557
vn -0.9807852804032303 0.19509032201612833 1.2011155542966555e-16
vn -0.7934719596790115 0.19509032201612833 -0.5764911234865567
vn -0.3030793194773964 0.19509032201612833 -0.9327822320138618
vn 0.3030793194773961 0.19509032201612833 -0.9327822320138618
vn 0.7934719596790114 0.19509032201612833 -0.5764911234865571
vn 0.9807852804032303 0.19509032201612833 -2.402231108593311e-16
vn 1 6.123233995736766e-17 0
vn 0.8090169943749475 6.123233995736766e-17 0.5877852522924731
vn 0.30901699437494745 6.123233995736766e-17 0.9510565162951534
vn -0.30901699437494734 6.123233995736766e-17 0.9510565162951536
vn -0.8090169943749473 6.123233995736766e-17 0.5877852522924732
vn -1 6.123233995736766e-17 1.2246467991473532e-16
vn -0.8090169943749475 6.123233995736766e-17 -0.587785252292473
vn -0.30901699437494756 6.123233995736766e-17 -0.9510565162951534
vn 0.30901699437494723 6.123233995736766e-17 -0.9510565162951536
vn 0.8090169943749473 6.123233995736766e-17 -0.5877852522924734
vn 1 6.123233995736766e-17 -2.4492935982947064e-16
vn 0 -1 0
vn 0 1 0
vn 0 1 0
vn 0 1 0
vn 0 1 0
vn 0 1 0
vn 0 1 0
vn 0 1 0
vn 0 1 0
vn 0 1 0
vn 0 1 0
vn 0 1 0
vn 0 1 0
vn 0 1 0
vn 0 1 0
vn 0 1 0
vn 0 1 0
vn 0 1 0
vn 0 1 0
vn 0 1 0
vn 0 1 0
vn 0 1 0
vn 0 1 0
vn 0 1 0
vn 0 1 0
vn 0 -1 0
vn 0 -1 0
vn 0 -1 0
vn 0 -1 0
vn 0 -1 0
vn 0 -1 0
vn 0 -1 0
vn 0 -1 0
vn 0 -1 0
vn 0 -1 0
vn 0 -1 0
vn 0 -1 0
vn 0 1 0
vn 0 1 0
vn 0 1 0
vn 0 1 0
vn 0 1 0
vn 0 1 0
vn 0 1 0
vn 0 1 0
vn 0 1 0
vn 0 1 0
vn 0 1 0
vn 0 1 0
vn 0 -1 0
vn 0 1 0
vn 0 -1 0
vn 0 -1 0
vn 0 -1 0
vn 0 -1 0
vn 0 -1 0
vn 0 -1 0
vn 0 -1 0
vn 0 -1 0
vn 0 1 0
vn 0 1 0
vn 0 1 0
vn 0 1 0
vn 0 1 0
vn 0 1 0
vn 0 1 0
vn 0 1 0
vn 0 -1 0
vn 0 1 0
vn 0 -1 0
vn 0 -1 0
vn 0 -1 0
vn 0 -1 0
vn 0 -1 0
vn 0 -1 0
vn 0 -1 0
vn 0 -1 0
vn 0 1 0
vn 0 1 0
vn 0 1 0
vn 0 1 0
vn 0 1 0
vn 0 1 0
vn 0 1 0
vn 0 1 0
vn 0 -1 0
vn 0 1 0
vn 0 -1 0
vn 0 -1 0
vn 0 -1 0
vn 0 -1 0
vn 0 -1 0
vn 0 -1 0
vn 0 -1 0
vn 0 -1 0
vn 0 1 0
vn 0 1 0
vn 0 1 0
vn 0 1 0
vn 0 1 0
vn 0 1 0
vn 0 1 0
vn 0 1 0
vn 0 -1 0
vn 0 1 0
vn 0 -1 0
vn 0 -1 0
vn 0 -1 0
vn 0 -1 0
vn 0 -1 0
vn 0 -1 0
vn 0 -1 0
vn 0 -1 0
vn 0 1 0
vn 0 1 0
vn 0 1 0
vn 0 1 0
vn 0 1 0
vn 0 1 0
vn 0 1 0
vn 0 1 0
vn 0 -1 0
vn 0 1 0
vn 0 -1 0
vn 0 -1 0
vn 0 -1 0
vn 0 -1 0
vn 0 -1 0
vn 0 -1 0
vn 0 -1 0
vn 0 -1 0
vn 0 1 0
vn 0 1 0
vn 0 1 0
vn 0 1 0
vn 0 1 0
vn 0 1 0
vn 0 1 0
vn 0 1 0
vn 0 -1 0
vn 0 1 0
vn 0 -1 0
vn 0 -1 0
vn 0 -1 0
vn 0 -1 0
vn 0 -1 0
vn 0 -1 0
vn 0 -1 0
vn 0 -1 0
vn 0 1 0
vn 0 1 0
vn 0 1 0
vn 0 1 0
vn 0 1 0
vn 0 1 0
vn 0 1 0
vn 0 1 0
vn 0 -1 0
vn 0 1 0
f 1/1/1 6/6/6 7/7/7
f 1/1/1 7/7/7 2/2/2
f 2/2/2 7/7/7 8/8/8
f 2/2/2 8/8/8 3/3/3
f 3/3/3 8/8/8 10/10/10
f 3/3/3 10/10/10 5/5/5
f 5/5/5 10/10/10 9/9/9
f 5/5/5 9/9/9 4/4/4
f 4/4/4 9/9/9 6/6/6
f 4/4/4 6/6/6 1/1/1
f 6/6/6 11/11/11 12/12/12
f 6/6/6 12/12/12 7/7/7
f 7/7/7 12/12/12 13/13/13
f 7/7/7 13/13/13 8/8/8
f 8/8/8 13/13/13 15/15/15
f 8/8/8 15/15/15 10/10/10
f 10/10/10 15/15/15 14/14/14
f 10/10/10 14/14/14 9/9/9
f 9/9/9 14/14/14 11/11/11
f 9/9/9 11/11/11 6/6/6
f 11/11/11 16/16/16 17/17/17
f 11/11/11 17/17/17 12/12/12
f 12/12/12 17/17/17 18/18/18
f 12/12/12 18/18/18 13/13/13
f 13/13/13 18/18/18 20/20/20
f 13/13/13 20/20/20 15/15/15
f 15/15/15 20/20/20 19/19/19
f 15/15/15 19/19/19 14/14/14
f 14/14/14 19/19/19 16/16/16
f 14/14/14 16/16/16 11/11/11
f 16/16/16 21/21/21 22/22/22
f 16/16/16 22/22/22 17/17/17
f 17/17/17 22/22/22 23/23/23
f 17/17/17 23/23/23 18/18/18
f 18/18/18 23/23/23 25/25/25
f 18/18/18 25/25/25 20/20/20
f 20/20/20 25/25/25 24/24/24
f 20/20/20 24/24/24 19/19/19
f 19/19/19 24/24/24 21/21/21
f 19/19/19 21/21/21 16/16/16
f 1/1/1 2/2/2 3/3/3
f 1/1/1 3/3/3 4/4/4
f 4/4/4 3/3/3 5/5/5
f 21/21/21 23/23/23 22/22/22
f 21/21/21 24/24/24 23/23/23
f 24/24/24 25/25/25 23/23/23
f 26/26/26 38/38/38 37/37/37
f 26/26/26 27/27/27 38/38/38
f 27/27/27 39/39/39 38/38/38
f 27/27/27 28/28/28 39/39/39
f 28/28/28 40/40/40 39/39/39
f 28/28/28 29/29/29 40/40/40
f 29/29/29 41/41/41 40/40/40
f 29/29/29 30/30/30 41/41/41
f 30/30/30 42/42/42 41/41/41
f 30/30/30 31/31/31 42/42/42
f 31/31/31 43/43/43 42/42/42
f 31/31/31 32/32/32 43/43/43
f 32/32/32 44/44/44 43/43/43
f 32/32/32 33/33/33 44/44/44
f 33/33/33 45/45/45 44/44/44
f 33/33/33 34/34/34 45/45/45
f 34/34/34 46/46/46 45/45/45
f 34/34/34 35/35/35 46/46/46
f 35/35/35 47/47/47 46/46/46
f 35/35/35 36/36/36 47/47/47
f 37/37/37 49/49/49 48/48/48
f 37/37/37 38/38/38 49/49/49
f 38/38/38 50/50/50 49/49/49
f 38/38/38 39/39/39 50/50/50
f 39/39/39 51/51/51 50/50/50
f 39/39/39 40/40/40 51/51/51
f 40/40/40 52/52/52 51/51/51
f 40/40/40 41/41/41 52/52/52
f 41/41/41 53/53/53 52/52/52
f 41/41/41 42/42/42 53/53/53
f 42/42/42 54/54/54 53/53/53
f 42/42/42 43/43/43 54/54/54
f 43/43/43 55/55/55 54/54/54
f 43/43/43 44/44/44 55/55/55
f 44/44/44 56/56/56 55/55/55
f 44/44/44 45/45/45 56/56/56
f 45/45/45 57/57/57 56/56/56
f 45/45/45 46/46/46 57/57/57
f 46/46/46 58/58/58 57/57/57
f 46/46/46 47/47/47 58/58/58
f 48/48/48 60/60/60 59/59/59
f 48/48/48 49/49/49 60/60/60
f 49/49/49 61/61/61 60/60/60
f 49/49/49 50/50/50 61/61/61
f 50/50/50 62/62/62 61/61/61
f 50/50/50 51/51/51 62/62/62
f 51/51/51 63/63/63 62/62/62
f 51/51/51 52/52/52 63/63/63
f 52/52/52 64/64/64 63/63/63
f 52/52/52 53/53/53 64/64/64
f 53/53/53 65/65/65 64/64/64
f 53/53/53 54/54/54 65/65/65
f 54/54/54 66/66/66 65/65/65
f 54/54/54 55/55/55 66/66/66
f 55/55/55 67/67/67 66/66/66
f 55/55/55 56/56/56 67/67/67
f 56/56/56 68/68/68 67/67/67
f 56/56/56 57/57/57 68/68/68
f 57/57/57 69/69/69 68/68/68
f 57/57/57 58/58/58 69/69/69
f 59/59/59 71/71/71 70/70/70
f 59/59/59 60/60/60 71/71/71
f 60/60/60 72/72/72 71/71/71
f 60/60/60 61/61/61 72/72/72
f 61/61/61 73/73/73 72/72/72
f 61/61/61 62/62/62 73/73/73
f 62/62/62 74/74/74 73/73/73
f 62/62/62 63/63/63 74/74/74
f 63/63/63 75/75/75 74/74/74
f 63/63/63 64/64/64 75/75/75
f 64/64/64 76/76/76 75/75/75
f 64/64/64 65/65/65 76/76/76
f 65/65/65 77/77/77 76/76/76
f 65/65/65 66/66/66 77/77/77
f 66/66/66 78/78/78 77/77/77
f 66/66/66 67/67/67 78/78/78
f 67/67/67 79/79/79 78/78/78
f 67/67/67 68/68/68 79/79/79
f 68/68/68 80/80/80 79/79/79
f 68/68/68 69/69/69 80/80/80
f 70/70/70 82/82/82 81/81/81
f 70/70/70 71/71/71 82/82/82
f 71/71/71 83/83/83 82/82/82
f 71/71/71 72/72/72 83/83/83
f 72/72/72 84/84/84 83/83/83
f 72/72/72 73/73/73 84/84/84
f 73/73/73 85/85/85 84/84/84
f 73/73/73 74/74/74 85/85/85
f 74/74/74 86/86/86 85/85/85
f 74/74/74 75/75/75 86/86/86
f 75/75/75 87/87/87 86/86/86
f 75/75/75 76/76/76 87/87/87
f 76/76/76 88/88/88 87/87/87
f 76/76/76 77/77/77 88/88/88
f 77/77/77 89/89/89 88/88/88
f 77/77/77 78/78/78 89/89/89
f 78/78/78 90/90/90 89/89/89
f 78/78/78 79/79/79 90/90/90
f 79/79/79 91/91/91 90/90/90
f 79/79/79 80/80/80 91/91/91
f 81/81/81 93/93/93 92/92/92
f 81/81/81 82/82/82 93/93/93
f 82/82/82 94/94/94 93/93/93
f 82/82/82 83/83/83 94/94/94
f 83/83/83 95/95/95 94/94/94
f 83/83/83 84/84/84 95/95/95
f 84/84/84 96/96/96 95/95/95
f 84/84/84 85/85/85 96/96/96
f 85/85/85 97/97/97 96/96/96
f 85/85/85 86/86/86 97/97/97
f 86/86/86 98/98/98 97/97/97
f 86/86/86 87/87/87 98/98/98
f 87/87/87 99/99/99 98/98/98
f 87/87/87 88/88/88 99/99/99
f 88/88/88 100/100/100 99/99/99
f 88/88/88 89/89/89 100/100/100
f 89/89/89 101/101/101 100/100/100
f 89/89/89 90/90/90 101/101/101
f 90/90/90 102/102/102 101/101/101
f 90/90/90 91/91/91 102/102/102
f 92/92/92 104/104/104 103/103/103
f 92/92/92 93/93/93 104/104/104
f 93/93/93 105/105/105 104/104/104
f 93/93/93 94/94/94 105/105/105
f 94/94/94 106/106/106 105/105/105
f 94/94/94 95/95/95 106/106/106
f 95/95/95 107/107/107 106/106/106
f 95/95/95 96/96/96 107/107/107
f 96/96/96 108/108/108 107/107/107
f 96/96/96 97/97/97 108/108/108
f 97/97/97 109/109/109 108/108/108
f 97/97/97 98/98/98 109/109/109
f 98/98/98 110/110/110 109/109/109
f 98/98/98 99/99/99 110/110/110
f 99/99/99 111/111/111 110/110/110
f 99/99/99 100/100/100 111/111/111
f 100/100/100 112/112/112 111/111/111
f 100/100/100 101/101/101 112/112/112
f 101/101/101 113/113/113 112/112/112
f 101/101/101 102/102/102 113/113/113
f 103/103/103 115/115/115 114/114/114
f 103/103/103 104/104/104 115/115/115
f 104/104/104 116/116/116 115/115/115
f 104/104/104 105/105/105 116/116/116
f 105/105/105 117/117/117 116/116/116
f 105/105/105 106/106/106 117/117/117
f 106/106/106 118/118/118 117/117/117
f 106/106/106 107/107/107 118/118/118
f 107/107/107 119/119/119 118/118/118
f 107/107/107 108/108/108 119/119/119
f 108/108/108 120/120/120 119/119/119
f 108/108/108 109/109/109 120/120/120
f 109/109/109 121/121/121 120/120/120
f 109/109/109 110/110/110 121/121/121
f 110/110/110 122/122/122 121/121/121
f 110/110/110 111/111/111 122/122/122
f 111/111/111 123/123/123 122/122/122
f 111/111/111 112/112/112 123/123/123
f 112/112/112 124/124/124 123/123/123
f 112/112/112 113/113/113 124/124/124
f 125/125/125 114/114/114 115/115/115
f 125/125/125 115/115/115 116/116/116
f 125/125/125 116/116/116 117/117/117
f 125/125/125 117/117/117 118/118/118
f 125/125/125 118/118/118 119/119/119
f 125/125/125 119/119/119 120/120/120
f 125/125/125 120/120/120 121/121/121
f 125/125/125 121/121/121 122/122/122
f 125/125/125 122/122/122 123/123/123
f 125/125/125 123/123/123 124/124/124
f 126/126/126 138/138/138 137/137/137
f 126/126/126 127/127/127 138/138/138
f 127/127/127 139/139/139 138/138/138
f 127/127/127 128/128/128 139/139/139
f 128/128/128 140/140/140 139/139/139
f 128/128/128 129/129/129 140/140/140
f 129/129/129 141/141/141 140/140/140
f 129/129/129 130/130/130 141/141/141
f 130/130/130 142/142/142 141/141/141
f 130/130/130 131/131/131 142/142/142
f 131/131/131 143/143/143 142/142/142
f 131/131/131 132/132/132 143/143/143
f 132/132/132 144/144/144 143/143/143
f 132/132/132 133/133/133 144/144/144
f 133/133/133 145/145/145 144/144/144
f 133/133/133 134/134/134 145/145/145
f 134/134/134 146/146/146 145/145/145
f 134/134/134 135/135/135 146/146/146
f 135/135/135 147/147/147 146/146/146
f 135/135/135 136/136/136 147/147/147
f 137/137/137 149/149/149 148/148/148
f 137/137/137 138/138/138 149/149/149
f 138/138/138 150/150/150 149/149/149
f 138/138/138 139/139/139 150/150/150
f 139/139/139 151/151/151 150/150/150
f 139/139/139 140/140/140 151/151/151
f 140/140/140 152/152/152 151/151/151
f 140/140/140 141/141/141 152/152/152
f 141/141/141 153/153/153 152/152/152
f 141/141/141 142/142/142 153/153/153
f 142/142/142 154/154/154 153/153/153
f 142/142/142 143/143/143 154/154/154
f 143/143/143 155/155/155 154/154/154
f 143/143/143 144/144/144 155/155/155
f 144/144/144 156/156/156 155/155/155
f 144/144/144 145/145/145 156/156/156
f 145/145/145 157/157/157 156/156/156
f 145/145/145 146/146/146 157/157/157
f 146/146/146 158/158/158 157/157/157
f 146/146/146 147/147/147 158/158/158
f 148/148/148 160/160/160 159/159/159
f 148/148/148 149/149/149 160/160/160
f 149/149/149 161/161/161 160/160/160
f 149/149/149 150/150/150 161/161/161
f 150/150/150 162/162/162 161/161/161
f 150/150/150 151/151/151 162/162/162
f 151/151/151 163/163/163 162/162/162
f 151/151/151 152/152/152 163/163/163
f 152/152/152 164/164/164 163/163/163
f 152/152/152 153/153/153 164/164/164
f 153/153/153 165/165/165 164/164/164
f 153/153/153 154/154/154 165/165/165
f 154/154/154 166/166/166 165/165/165
f 154/154/154 155/155/155 166/166/166
f 155/155/155 167/167/167 166/166/166
f 155/155/155 156/156/156 167/167/167
f 156/156/156 168/168/168 167/167/167
f 156/156/156 157/157/157 168/168/168
f 157/157/157 169/169/169 168/168/168
f 157/157/157 158/158/158 169/169/169
f 159/159/159 171/171/171 170/170/170
f 159/159/159 160/160/160 171/171/171
f 160/160/160 172/172/172 171/171/171
f 160/160/160 161/161/161 172/172/172
f 161/161/161 173/173/173 172/172/172
f 161/161/161 162/162/162 173/173/173
f 162/162/162 174/174/174 173/173/173
f 162/162/162 163/163/163 174/174/174
f 163/163/163 175/175/175 174/174/174
f 163/163/163 164/164/164 175/175/175
f 164/164/164 176/176/176 175/175/175
f 164/164/164 165/165/165 176/176/176
f 165/165/165 177/177/177 176/176/176
f 165/165/165 166/166/166 177/177/177
f 166/166/166 178/178/178 177/177/177
f 166/166/166 167/167/167 178/178/178
f 167/167/167 179/179/179 178/178/178
f 167/167/167 168/168/168 179/179/179
f 168/168/168 180/180/180 179/179/179
f 168/168/168 169/169/169 180/180/180
f 170/170/170 182/182/182 181/181/181
f 170/170/170 171/171/171 182/182/182
f 171/171/171 183/183/183 182/182/182
f 171/171/171 172/172/172 183/183/183
f 172/172/172 184/184/184 183/183/183
f 172/172/172 173/173/173 184/184/184
f 173/173/173 185/185/185 184/184/184
f 173/173/173 174/174/174 185/185/185
f 174/174/174 186/186/186 185/185/185
f 174/174/174 175/175/175 186/186/186
f 175/175/175 187/187/187 186/186/186
f 175/175/175 176/176/176 187/187/187
f 176/176/176 188/188/188 187/187/187
f 176/176/176 177/177/177 188/188/188
f 177/177/177 189/189/189 188/188/188
f 177/177/177 178/178/178 189/189/189
f 178/178/178 190/190/190 189/189/189
f 178/178/178 179/179/179 190/190/190
f 179/179/179 191/191/191 190/190/190
f 179/179/179 180/180/180 191/191/191
f 181/181/181 193/193/193 192/192/192
f 181/181/181 182/182/182 193/193/193
f 182/182/182 194/194/194 193/193/193
f 182/182/182 183/183/183 194/194/194
f 183/183/183 195/195/195 194/194/194
f 183/183/183 184/184/184 195/195/195
f 184/184/184 196/196/196 195/195/195
f 184/184/184 185/185/185 196/196/196
f 185/185/185 197/197/197 196/196/196
f 185/185/185 186/186/186 197/197/197
f 186/186/186 198/198/198 197/197/197
f 186/186/186 187/187/187 198/198/198
f 187/187/187 199/199/199 198/198/198
f 187/187/187 188/188/188 199/199/199
f 188/188/188 200/200/200 199/199/199
f 188/188/188 189/189/189 200/200/200
f 189/189/189 201/201/201 200/200/200
f 189/189/189 190/190/190 201/201/201
f 190/190/190 202/202/202 201/201/201
f 190/190/190 191/191/191 202/202/202
f 192/192/192 204/204/204 203/203/203
f 192/192/192 193/193/193 204/204/204
f 193/193/193 205/205/205 204/204/204
f 193/193/193 194/194/194 205/205/205
f 194/194/194 206/206/206 205/205/205
f 194/194/194 195/195/195 206/206/206
f 195/195/195 207/207/207 206/206/206
f 195/195/195 196/196/196 207/207/207
f 196/196/196 208/208/208 207/207/207
f 196/196/196 197/197/197 208/208/208
f 197/197/197 209/209/209 208/208/208
f 197/197/197 198/198/198 209/209/209
f 198/198/198 210/210/210 209/209/209
f 198/198/198 199/199/199 210/210/210
f 199/199/199 211/211/211 210/210/210
f 199/199/199 200/200/200 211/211/211
f 200/200/200 212/212/212 211/211/211
f 200/200/200 201/201/201 212/212/212
f 201/201/201 213/213/213 212/212/212
f 201/201/201 202/202/202 213/213/213
f 203/203/203 215/215/215 214/214/214
f 203/203/203 204/204/204 215/215/215
f 204/204/204 216/216/216 215/215/215
f 204/204/204 205/205/205 216/216/216
f 205/205/205 217/217/217 216/216/216
f 205/205/205 206/206/206 217/217/217
f 206/206/206 218/218/218 217/217/217
f 206/206/206 207/207/207 218/218/218
f 207/207/207 219/219/219 218/218/218
f 207/207/207 208/208/208 219/219/219
f 208/208/208 220/220/220 219/219/219
f 208/208/208 209/209/209 220/220/220
f 209/209/209 221/221/221 220/220/220
f 209/209/209 210/210/210 221/221/221
f 210/210/210 222/222/222 221/221/221
f 210/210/210 211/211/211 222/222/222
f 211/211/211 223/223/223 222/222/222
f 211/211/211 212/212/212 223/223/223
f 212/212/212 224/224/224 223/223/223
f 212/212/212 213/213/213 224/224/224
f 225/225/225 214/214/214 215/215/215
f 225/225/225 215/215/215 216/216/216
f 225/225/225 216/216/216 217/217/217
f 225/225/225 217/217/217 218/218/218
f 225/225/225 218/218/218 219/219/219
f 225/225/225 219/219/219 220/220/220
f 225/225/225 220/220/220 221/221/221
f 225/225/225 221/221/221 222/222/222
f 225/225/225 222/222/222 223/223/223
f 225/225/225 223/223/223 224/224/224
f 226/226/226 238/238/238 237/237/237
f 226/226/226 227/227/227 238/238/238
f 227/227/227 239/239/239 238/238/238
f 227/227/227 228/228/228 239/239/239
f 228/228/228 240/240/240 239/239/239
f 228/228/228 229/229/229 240/240/240
f 229/229/229 241/241/241 240/240/240
f 229/229/229 230/230/230 241/241/241
f 230/230/230 242/242/242 241/241/241
f 230/230/230 231/231/231 242/242/242
f 231/231/231 243/243/243 242/242/242
f 231/231/231 232/232/232 243/243/243
f 232/232/232 244/244/244 243/243/243
f 232/232/232 233/233/233 244/244/244
f 233/233/233 245/245/245 244/244/244
f 233/233/233 234/234/234 245/245/245
f 234/234/234 246/246/246 245/245/245
f 234/234/234 235/235/235 246/246/246
f 235/235/235 247/247/247 246/246/246
f 235/235/235 236/236/236 247/247/247
f 237/237/237 249/249/249 248/248/248
f 237/237/237 238/238/238 249/249/249
f 238/238/238 250/250/250 249/249/249
f 238/238/238 239/239/239 250/250/250
f 239/239/239 251/251/251 250/250/250
f 239/239/239 240/240/240 251/251/251
f 240/240/240 252/252/252 251/251/251
f 240/240/240 241/241/241 252/252/252
f 241/241/241 253/253/253 252/252/252
f 241/241/241 242/242/242 253/253/253
f 242/242/242 254/254/254 253/253/253
f 242/242/242 243/243/243 254/254/254
f 243/243/243 255/255/255 254/254/254
f 243/243/243 244/244/244 255/255/255
f 244/244/244 256/256/256 255/255/255
f 244/244/244 245/245/245 256/256/256
f 245/245/245 257/257/257 256/256/256
f 245/245/245 246/246/246 257/257/257
f 246/246/246 258/258/258 257/257/257
f 246/246/246 247/247/247 258/258/258
f 248/248/248 260/260/260 259/259/259
f 248/248/248 249/249/249 260/260/260
f 249/249/249 261/261/261 260/260/260
f 249/249/249 250/250/250 261/261/261
f 250/250/250 262/262/262 261/261/261
f 250/250/250 251/251/251 262/262/262
f 251/251/251 263/263/263 262/262/262
f 251/251/251 252/252/252 263/263/263
f 252/252/252 264/264/264 263/263/263
f 252/252/252 253/253/253 264/264/264
f 253/253/253 265/265/265 264/264/264
f 253/253/253 254/254/254 265/265/265
f 254/254/254 266/266/266 265/265/265
f 254/254/254 255/255/255 266/266/266
f 255/255/255 267/267/267 266/266/266
f 255/255/255 256/256/256 267/267/267
f 256/256/256 268/268/268 267/267/267
f 256/256/256 257/257/257 268/268/268
f 257/257/257 269/269/269 268/268/268
f 257/257/257 258/258/258 269/269/269
f 259/259/259 271/271/271 270/270/270
f 259/259/259 260/260/260 271/271/271
f 260/260/260 272/272/272 271/271/271
f 260/260/260 261/261/261 272/272/272
f 261/261/261 273/273/273 272/272/272
f 261/261/261 262/262/262 273/273/273
f 262/262/262 274/274/274 273/273/273
f 262/262/262 263/263/263 274/274/274
f 263/263/263 275/275/275 274/274/274
f 263/263/263 264/264/264 275/275/275
f 264/264/264 276/276/276 275/275/275
f 264/264/264 265/265/265 276/276/276
f 265/265/265 277/277/277 276/276/276
f 265/265/265 266/266/266 277/277/277
f 266/266/266 278/278/278 277/277/277
f 266/266/266 267/267/267 278/278/278
f 267/267/267 279/279/279 278/278/278
f 267/267/267 268/268/268 279/279/279
f 268/268/268 280/280/280 279/279/279
f 268/268/268 269/269/269 280/280/280
f 270/270/270 282/282/282 281/281/281
f 270/270/270 271/271/271 282/282/282
f 271/271/271 283/283/283 282/282/282
f 271/271/271 272/272/272 283/283/283
f 272/272/272 284/284/284 283/283/283
f 272/272/272 273/273/273 284/284/284
f 273/273/273 285/285/285 284/284/284
f 273/273/273 274/274/274 285/285/285
f 274/274/274 286/286/286 285/285/285
f 274/274/274 275/275/275 286/286/286
f 275/275/275 287/287/287 286/286/286
f 275/275/275 276/276/276 287/287/287
f 276/276/276 288/288/288 287/287/287
f 276/276/276 277/277/277 288/288/288
f 277/277/277 289/289/289 288/288/288
f 277/277/277 278/278/278 289/289/289
f 278/278/278 290/290/290 289/289/289
f 278/278/278 279/279/279 290/290/290
f 279/279/279 291/291/291 290/290/290
f 279/279/279 280/280/280 291/291/291
f 281/281/281 293/293/293 292/292/292
f 281/281/281 282/282/282 293/293/293
f 282/282/282 294/294/294 293/293/293
f 282/282/282 283/283/283 294/294/294
f 283/283/283 295/295/295 294/294/294
f 283/283/283 284/284/284 295/295/295
f 284/284/284 296/296/296 295/295/295
f 284/284/284 285/285/285 296/296/296
f 285/285/285 297/297/297 296/296/296
f 285/285/285 286/286/286 297/297/297
f 286/286/286 298/298/298 297/297/297
f 286/286/286 287/287/287 298/298/298
f 287/287/287 299/299/299 298/298/298
f 287/287/287 288/288/288 299/299/299
f 288/288/288 300/300/300 299/299/299
f 288/288/288 289/289/289 300/300/300
f 289/289/289 301/301/301 300/300/300
f 289/289/289 290/290/290 301/301/301
f 290/290/290 302/302/302 301/301/301
f 290/290/290 291/291/291 302/302/302
f 292/292/292 304/304/304 303/303/303
f 292/292/292 293/293/293 304/304/304
f 293/293/293 305/305/305 304/304/304
f 293/293/293 294/294/294 305/305/305
f 294/294/294 306/306/306 305/305/305
f 294/294/294 295/295/295 306/306/306
f 295/295/295 307/307/307 306/306/306
f 295/295/295 296/296/296 307/307/307
f 296/296/296 308/308/308 307/307/307
f 296/296/296 297/297/297 308/308/308
f 297/297/297 309/309/309 308/308/308
f 297/297/297 298/298/298 309/309/309
f 298/298/298 310/310/310 309/309/309
f 298/298/298 299/299/299 310/310/310
f 299/299/299 311/311/311 310/310/310
f 299/299/299 300/300/300 311/311/311
f 300/300/300 312/312/312 311/311/311
f 300/300/300 301/301/301 312/312/312
f 301/301/301 313/313/313 312/312/312
f 301/301/301 302/302/302 313/313/313
f 303/303/303 315/315/315 314/314/314
f 303/303/303 304/304/304 315/315/315
f 304/304/304 316/316/316 315/315/315
f 304/304/304 305/305/305 316/316/316
f 305/305/305 317/317/317 316/316/316
f 305/305/305 306/306/306 317/317/317
f 306/306/306 318/318/318 317/317/317
f 306/306/306 307/307/307 318/318/318
f 307/307/307 319/319/319 318/318/318
f 307/307/307 308/308/308 319/319/319
f 308/308/308 320/320/320 319/319/319
f 308/308/308 309/309/309 320/320/320
f 309/309/309 321/321/321 320/320/320
f 309/309/309 310/310/310 321/321/321
f 310/310/310 322/322/322 321/321/321
f 310/310/310 311/311/311 322/322/322
f 311/311/311 323/323/323 322/322/322
f 311/311/311 312/312/312 323/323/323
f 312/312/312 324/324/324 323/323/323
f 312/312/312 313/313/313 324/324/324
f 325/325/325 314/314/314 315/315/315
f 325/325/325 315/315/315 316/316/316
f 325/325/325 316/316/316 317/317/317
f 325/325/325 317/317/317 318/318/318
f 325/325/325 318/318/318 319/319/319
f 325/325/325 319/319/319 320/320/320
f 325/325/325 320/320/320 321/321/321
f 325/325/325 321/321/321 322/322/322
f 325/325/325 322/322/322 323/323/323
f 325/325/325 323/323/323 324/324/324
f 326/326/326 338/338/338 337/337/337
f 326/326/326 327/327/327 338/338/338
f 327/327/327 339/339/339 338/338/338
f 327/327/327 328/328/328 339/339/339
f 328/328/328 340/340/340 339/339/339
f 328/328/328 329/329/329 340/340/340
f 329/329/329 341/341/341 340/340/340
f 329/329/329 330/330/330 341/341/341
f 330/330/330 342/342/342 341/341/341
f 330/330/330 331/331/331 342/342/342
f 331/331/331 343/343/343 342/342/342
f 331/331/331 332/332/332 343/343/343
f 332/332/332 344/344/344 343/343/343
f 332/332/332 333/333/333 344/344/344
f 333/333/333 345/345/345 344/344/344
f 333/333/333 334/334/334 345/345/345
f 334/334/334 346/346/346 345/345/345
f 334/334/334 335/335/335 346/346/346
f 335/335/335 347/347/347 346/346/346
f 335/335/335 336/336/336 347/347/347
f 337/337/337 349/349/349 348/348/348
f 337/337/337 338/338/338 349/349/349
f 338/338/338 350/350/350 349/349/349
f 338/338/338 339/339/339 350/350/350
f 339/339/339 351/351/351 350/350/350
f 339/339/339 340/340/340 351/351/351
f 340/340/340 352/352/352 351/351/351
f 340/340/340 341/341/341 352/352/352
f 341/341/341 353/353/353 352/352/352
f 341/341/341 342/342/342 353/353/353
f 342/342/342 354/354/354 353/353/353
f 342/342/342 343/343/343 354/354/354
f 343/343/343 355/355/355 354/354/354
f 343/343/343 344/344/344 355/355/355
f 344/344/344 356/356/356 355/355/355
f 344/344/344 345/345/345 356/356/356
f 345/345/345 357/357/357 356/356/356
f 345/345/345 346/346/346 357/357/357
f 346/346/346 358/358/358 357/357/357
f 346/346/346 347/347/347 358/358/358
f 348/348/348 360/360/360 359/359/359
f 348/348/348 349/349/349 360/360/360
f 349/349/349 361/361/361 360/360/360
f 349/349/349 350/350/350 361/361/361
f 350/350/350 362/362/362 361/361/361
f 350/350/350 351/351/351 362/362/362
f 351/351/351 363/363/363 362/362/362
f 351/351/351 352/352/352 363/363/363
f 352/352/352 364/364/364 363/363/363
f 352/352/352 353/353/353 364/364/364
f 353/353/353 365/365/365 364/364/364
f 353/353/353 354/354/354 365/365/365
f 354/354/354 366/366/366 365/365/365
f 354/354/354 355/355/355 366/366/366
f 355/355/355 367/367/367 366/366/366
f 355/355/355 356/356/356 367/367/367
f 356/356/356 368/368/368 367/367/367
f 356/356/356 357/357/357 368/368/368
f 357/357/357 369/369/369 368/368/368
f 357/357/357 358/358/358 369/369/369
f 359/359/359 371/371/371 370/370/370
f 359/359/359 360/360/360 371/371/371
f 360/360/360 372/372/372 371/371/371
f 360/360/360 361/361/361 372/372/372
f 361/361/361 373/373/373 372/372/372
f 361/361/361 362/362/362 373/373/373
f 362/362/362 374/374/374 373/373/373
f 362/362/362 363/363/363 374/374/374
f 363/363/363 375/375/375 374/374/374
f 363/363/363 364/364/364 375/375/375
f 364/364/364 376/376/376 375/375/375
f 364/364/364 365/365/365 376/376/376
f 365/365/365 377/377/377 376/376/376
f 365/365/365 366/366/366 377/377/377
f 366/366/366 378/378/378 377/377/377
f 366/366/366 367/367/367 378/378/378
f 367/367/367 379/379/379 378/378/378
f 367/367/367 368/368/368 379/379/379
f 368/368/368 380/380/380 379/379/379
f 368/368/368 369/369/369 380/380/380
f 370/370/370 382/382/382 381/381/381
f 370/370/370 371/371/371 382/382/382
f 371/371/371 383/383/383 382/382/382
f 371/371/371 372/372/372 383/383/383
f 372/372/372 384/384/384 383/383/383
f 372/372/372 373/373/373 384/384/384
f 373/373/373 385/385/385 384/384/384
f 373/373/373 374/374/374 385/385/385
f 374/374/374 386/386/386 385/385/385
f 374/374/374 375/375/375 386/386/386
f 375/375/375 387/387/387 386/386/386
f 375/375/375 376/376/376 387/387/387
f 376/376/376 388/388/388 387/387/387
f 376/376/376 377/377/377 388/388/388
f 377/377/377 389/389/389 388/388/388
f 377/377/377 378/378/378 389/389/389
f 378/378/378 390/390/390 389/389/389
f 378/378/378 379/379/379 390/390/390
f 379/379/379 391/391/391 390/390/390
f 379/379/379 380/380/380 391/391/391
f 381/381/381 393/393/393 392/392/392
f 381/381/381 382/382/382 393/393/393
f 382/382/382 394/394/394 393/393/393
f 382/382/382 383/383/383 394/394/394
f 383/383/383 395/395/395 394/394/394
f 383/383/383 384/384/384 395/395/395
f 384/384/384 396/396/396 395/395/395
f 384/384/384 385/385/385 396/396/396
f 385/385/385 397/397/397 396/396/396
f 385/385/385 386/386/386 397/397/397
f 386/386/386 398/398/398 397/397/397
f 386/386/386 387/387/387 398/398/398
f 387/387/387 399/399/399 398/398/398
f 387/387/387 388/388/388 399/399/399
f 388/388/388 400/400/400 399/399/399
f 388/388/388 389/389/389 400/400/400
f 389/389/389 401/401/401 400/400/400
f 389/389/389 390/390/390 401/401/401
f 390/390/390 402/402/402 401/401/401
f 390/390/390 391/391/391 402/402/402
f 392/392/392 404/404/404 403/403/403
f 392/392/392 393/393/393 404/404/404
f 393/393/393 405/405/405 404/404/404
f 393/393/393 394/394/394 405/405/405
f 394/394/394 406/406/406 405/405/405
f 394/394/394 395/395/395 406/406/406
f 395/395/395 407/407/407 406/406/406
f 395/395/395 396/396/396 407/407/407
f 396/396/396 408/408/408 407/407/407
f 396/396/396 397/397/397 408/408/408
f 397/397/397 409/409/409 408/408/408
f 397/397/397 398/398/398 409/409/409
f 398/398/398 410/410/410 409/409/409
f 398/398/398 399/399/399 410/410/410
f 399/399/399 411/411/411 410/410/410
f 399/399/399 400/400/400 411/411/411
f 400/400/400 412/412/412 411/411/411
f 400/400/400 401/401/401 412/412/412
f 401/401/401 413/413/413 412/412/412
f 401/401/401 402/402/402 413/413/413
f 403/403/403 415/415/415 414/414/414
f 403/403/403 404/404/404 415/415/415
f 404/404/404 416/416/416 415/415/415
f 404/404/404 405/405/405 416/416/416
f 405/405/405 417/417/417 416/416/416
f 405/405/405 406/406/406 417/417/417
f 406/406/406 418/418/418 417/417/417
f 406/406/406 407/407/407 418/418/418
f 407/407/407 419/419/419 418/418/418
f 407/407/407 408/408/408 419/419/419
f 408/408/408 420/420/420 419/419/419
f 408/408/408 409/409/409 420/420/420
f 409/409/409 421/421/421 420/420/420
f 409/409/409 410/410/410 421/421/421
f 410/410/410 422/422/422 421/421/421
f 410/410/410 411/411/411 422/422/422
f 411/411/411 423/423/423 422/422/422
f 411/411/411 412/412/412 423/423/423
f 412/412/412 424/424/424 423/423/423
f 412/412/412 413/413/413 424/424/424
f 425/425/425 414/414/414 415/415/415
f 425/425/425 415/415/415 416/416/416
f 425/425/425 416/416/416 417/417/417
f 425/425/425 417/417/417 418/418/418
f 425/425/425 418/418/418 419/419/419
f 425/425/425 419/419/419 420/420/420
f 425/425/425 420/420/420 421/421/421
f 425/425/425 421/421/421 422/422/422
f 425/425/425 422/422/422 423/423/423
f 425/425/425 423/423/423 424/424/424
f 426/426/426 427/427/427 428/428/428
f 426/426/426 428/428/428 429/429/429
f 430/430/430 432/432/432 431/431/431
f 430/430/430 433/433/433 432/432/432
f 426/426/426 431/431/431 427/427/427
f 426/426/426 430/430/430 431/431/431
f 427/427/427 432/432/432 428/428/428
f 427/427/427 431/431/431 432/432/432
f 428/428/428 433/433/433 429/429/429
f 428/428/428 432/432/432 433/433/433
f 429/429/429 430/430/430 426/426/426
f 429/429/429 433/433/433 430/430/430
f 434/434/434 436/436/436 435/435/435
f 434/434/434 437/437/437 436/436/436
f 438/438/438 439/439/439 440/440/440
f 438/438/438 440/440/440 441/441/441
f 434/434/434 435/435/435 439/439/439
f 434/434/434 439/439/439 438/438/438
f 436/436/436 437/437/437 441/441/441
f 436/436/436 441/441/441 440/440/440
f 434/434/434 438/438/438 441/441/441
f 434/434/434 441/441/441 437/437/437
f 435/435/435 436/436/436 440/440/440
f 435/435/435 440/440/440 439/439/439
f 442/442/442 444/444/444 443/443/443
f 442/442/442 445/445/445 444/444/444
f 446/446/446 447/447/447 448/448/448
f 446/446/446 448/448/448 449/449/449
f 442/442/442 443/443/443 447/447/447
f 442/442/442 447/447/447 446/446/446
f 444/444/444 445/445/445 449/449/449
f 444/444/444 449/449/449 448/448/448
f 442/442/442 446/446/446 449/449/449
f 442/442/442 449/449/449 445/445/445
f 443/443/443 444/444/444 448/448/448
f 443/443/443 448/448/448 447/447/447
f 450/450/450 463/463/463 451/451/451
f 450/450/450 462/462/462 463/463/463
f 474/474/474 450/450/450 451/451/451
f 475/475/475 463/463/463 462/462/462
f 451/451/451 464/464/464 452/452/452
f 451/451/451 463/463/463 464/464/464
f 474/474/474 451/451/451 452/452/452
f 475/475/475 464/464/464 463/463/463
f 452/452/452 465/465/465 453/453/453
f 452/452/452 464/464/464 465/465/465
f 474/474/474 452/452/452 453/453/453
f 475/475/475 465/465/465 464/464/464
f 453/453/453 466/466/466 454/454/454
f 453/453/453 465/465/465 466/466/466
f 474/474/474 453/453/453 454/454/454
f 475/475/475 466/466/466 465/465/465
f 454/454/454 467/467/467 455/455/455
f 454/454/454 466/466/466 467/467/467
f 474/474/474 454/454/454 455/455/455
f 475/475/475 467/467/467 466/466/466
f 455/455/455 468/468/468 456/456/456
f 455/455/455 467/467/467 468/468/468
f 474/474/474 455/455/455 456/456/456
f 475/475/475 468/468/468 467/467/467
f 456/456/456 469/469/469 457/457/457
f 456/456/456 468/468/468 469/469/469
f 474/474/474 456/456/456 457/457/457
f 475/475/475 469/469/469 468/468/468
f 457/457/457 470/470/470 458/458/458
f 457/457/457 469/469/469 470/470/470
f 474/474/474 457/457/457 458/458/458
f 475/475/475 470/470/470 469/469/469
f 458/458/458 471/471/471 459/459/459
f 458/458/458 470/470/470 471/471/471
f 474/474/474 458/458/458 459/459/459
f 475/475/475 471/471/471 470/470/470
f 459/459/459 472/472/472 460/460/460
f 459/459/459 471/471/471 472/472/472
f 474/474/474 459/459/459 460/460/460
f 475/475/475 472/472/472 471/471/471
f 460/460/460 473/473/473 461/461/461
f 460/460/460 472/472/472 473/473/473
f 474/474/474 460/460/460 461/461/461
f 475/475/475 473/473/473 472/472/472
f 461/461/461 462/462/462 450/450/450
f 461/461/461 473/473/473 462/462/462
f 474/474/474 461/461/461 450/450/450
f 475/475/475 462/462/462 473/473/473
f 476/476/476 485/485/485 477/477/477
f 476/476/476 484/484/484 485/485/485
f 492/492/492 476/476/476 477/477/477
f 493/493/493 485/485/485 484/484/484
f 477/477/477 486/486/486 478/478/478
f 477/477/477 485/485/485 486/486/486
f 492/492/492 477/477/477 478/478/478
f 493/493/493 486/486/486 485/485/485
f 478/478/478 487/487/487 479/479/479
f 478/478/478 486/486/486 487/487/487
f 492/492/492 478/478/478 479/479/479
f 493/493/493 487/487/487 486/486/486
f 479/479/479 488/488/488 480/480/480
f 479/479/479 487/487/487 488/488/488
f 492/492/492 479/479/479 480/480/480
f 493/493/493 488/488/488 487/487/487
f 480/480/480 489/489/489 481/481/481
f 480/480/480 488/488/488 489/489/489
f 492/492/492 480/480/480 481/481/481
f 493/493/493 489/489/489 488/488/488
f 481/481/481 490/490/490 482/482/482
f 481/481/481 489/489/489 490/490/490
f 492/492/492 481/481/481 482/482/482
f 493/493/493 490/490/490 489/489/489
f 482/482/482 491/491/491 483/483/483
f 482/482/482 490/490/490 491/491/491
f 492/492/492 482/482/482 483/483/483
f 493/493/493 491/491/491 490/490/490
f 483/483/483 484/484/484 476/476/476
f 483/483/483 491/491/491 484/484/484
f 492/492/492 483/483/483 476/476/476
f 493/493/493 484/484/484 491/491/491
f 494/494/494 503/503/503 495/495/495
f 494/494/494 502/502/502 503/503/503
f 510/510/510 494/494/494 495/495/495
f 511/511/511 503/503/503 502/502/502
f 495/495/495 504/504/504 496/496/496
f 495/495/495 503/503/503 504/504/504
f 510/510/510 495/495/495 496/496/496
f 511/511/511 504/504/504 503/503/503
f 496/496/496 505/505/505 497/497/497
f 496/496/496 504/504/504 505/505/505
f 510/510/510 496/496/496 497/497/497
f 511/511/511 505/505/505 504/504/504
f 497/497/497 506/506/506 498/498/498
f 497/497/497 505/505/505 506/506/506
f 510/510/510 497/497/497 498/498/498
f 511/511/511 506/506/506 505/505/505
f 498/498/498 507/507/507 499/499/499
f 498/498/498 506/506/506 507/507/507
f 510/510/510 498/498/498 499/499/499
f 511/511/511 507/507/507 506/506/506
f 499/499/499 508/508/508 500/500/500
f 499/499/499 507/507/507 508/508/508
f 510/510/510 499/499/499 500/500/500
f 511/511/511 508/508/508 507/507/507
f 500/500/500 509/509/509 501/501/501
f 500/500/500 508/508/508 509/509/509
f 510/510/510 500/500/500 501/501/501
f 511/511/511 509/509/509 508/508/508
f 501/501/501 502/502/502 494/494/494
f 501/501/501 509/509/509 502/502/502
f 510/510/510 501/501/501 494/494/494
f 511/511/511 502/502/502 509/509/509
f 512/512/512 521/521/521 513/513/513
f 512/512/512 520/520/520 521/521/521
f 528/528/528 512/512/512 513/513/513
f 529/529/529 521/521/521 520/520/520
f 513/513/513 522/522/522 514/514/514
f 513/513/513 521/521/521 522/522/522
f 528/528/528 513/513/513 514/514/514
f 529/529/529 522/522/522 521/521/521
f 514/514/514 523/523/523 515/515/515
f 514/514/514 522/522/522 523/523/523
f 528/528/528 514/514/514 515/515/515
f 529/529/529 523/523/523 522/522/522
f 515/515/515 524/524/524 516/516/516
f 515/515/515 523/523/523 524/524/524
f 528/528/528 515/515/515 516/516/516
f 529/529/529 524/524/524 523/523/523
f 516/516/516 525/525/525 517/517/517
f 516/516/516 524/524/524 525/525/525
f 528/528/528 516/516/516 517/517/517
f 529/529/529 525/525/525 524/524/524
f 517/517/517 526/526/526 518/518/518
f 517/517/517 525/525/525 526/526/526
f 528/528/528 517/517/517 518/518/518
f 529/529/529 526/526/526 525/525/525
f 518/518/518 527/527/527 519/519/519
f 518/518/518 526/526/526 527/527/527
f 528/528/528 518/518/518 519/519/519
f 529/529/529 527/527/527 526/526/526
f 519/519/519 520/520/520 512/512/512
f 519/519/519 527/527/527 520/520/520
f 528/528/528 519/519/519 512/512/512
f 529/529/529 520/520/520 527/527/527
f 530/530/530 539/539/539 531/531/531
f 530/530/530 538/538/538 539/539/539
f 546/546/546 530/530/530 531/531/531
f 547/547/547 539/539/539 538/538/538
f 531/531/531 540/540/540 532/532/532
f 531/531/531 539/539/539 540/540/540
f 546/546/546 531/531/531 532/532/532
f 547/547/547 540/540/540 539/539/539
f 532/532/532 541/541/541 533/533/533
f 532/532/532 540/540/540 541/541/541
f 546/546/546 532/532/532 533/533/533
f 547/547/547 541/541/541 540/540/540
f 533/533/533 542/542/542 534/534/534
f 533/533/533 541/541/541 542/542/542
f 546/546/546 533/533/533 534/534/534
f 547/547/547 542/542/542 541/541/541
f 534/534/534 543/543/543 535/535/535
f 534/534/534 542/542/542 543/543/543
f 546/546/546 534/534/534 535/535/535
f 547/547/547 543/543/543 542/542/542
f 535/535/535 544/544/544 536/536/536
f 535/535/535 543/543/543 544/544/544
f 546/546/546 535/535/535 536/536/536
f 547/547/547 544/544/544 543/543/543
f 536/536/536 545/545/545 537/537/537
f 536/536/536 544/544/544 545/545/545
f 546/546/546 536/536/536 537/537/537
f 547/547/547 545/545/545 544/544/544
f 537/537/537 538/538/538 530/530/530
f 537/537/537 545/545/545 538/538/538
f 546/546/546 537/537/537 530/530/530
f 547/547/547 538/538/538 545/545/545
f 548/548/548 557/557/557 549/549/549
f 548/548/548 556/556/556 557/557/557
f 564/564/564 548/548/548 549/549/549
f 565/565/565 557/557/557 556/556/556
f 549/549/549 558/558/558 550/550/550
f 549/549/549 557/557/557 558/558/558
f 564/564/564 549/549/549 550/550/550
f 565/565/565 558/558/558 557/557/557
f 550/550/550 559/559/559 551/551/551
f 550/550/550 558/558/558 559/559/559
f 564/564/564 550/550/550 551/551/551
f 565/565/565 559/559/559 558/558/558
f 551/551/551 560/560/560 552/552/552
f 551/551/551 559/559/559 560/560/560
f 564/564/564 551/551/551 552/552/552
f 565/565/565 560/560/560 559/559/559
f 552/552/552 561/561/561 553/553/553
f 552/552/552 560/560/560 561/561/561
f 564/564/564 552/552/552 553/553/553
f 565/565/565 561/561/561 560/560/560
f 553/553/553 562/562/562 554/554/554
f 553/553/553 561/561/561 562/562/562
f 564/564/564 553/553/553 554/554/554
f 565/565/565 562/562/562 561/561/561
f 554/554/554 563/563/563 555/555/555
f 554/554/554 562/562/562 563/563/563
f 564/564/564 554/554/554 555/555/555
f 565/565/565 563/563/563 562/562/562
f 555/555/555 556/556/556 548/548/548
f 555/555/555 563/563/563 556/556/556
f 564/564/564 555/555/555 548/548/548
f 565/565/565 556/556/556 563/563/563
f 566/566/566 575/575/575 567/567/567
f 566/566/566 574/574/574 575/575/575
f 582/582/582 566/566/566 567/567/567
f 583/583/583 575/575/575 574/574/574
f 567/567/567 576/576/576 568/568/568
f 567/567/567 575/575/575 576/576/576
f 582/582/582 567/567/567 568/568/568
f 583/583/583 576/576/576 575/575/575
f 568/568/568 577/577/577 569/569/569
f 568/568/568 576/576/576 577/577/577
f 582/582/582 568/568/568 569/569/569
f 583/583/583 577/577/577 576/576/576
f 569/569/569 578/578/578 570/570/570
f 569/569/569 577/577/577 578/578/578
f 582/582/582 569/569/569 570/570/570
f 583/583/583 578/578/578 577/577/577
f 570/570/570 579/579/579 571/571/571
f 570/570/570 578/578/578 579/579/579
f 582/582/582 570/570/570 571/571/571
f 583/583/583 579/579/579 578/578/578
f 571/571/571 580/580/580 572/572/572
f 571/571/571 579/579/579 580/580/580
f 582/582/582 571/571/571 572/572/572
f 583/583/583 580/580/580 579/579/579
f 572/572/572 581/581/581 573/573/573
f 572/572/572 580/580/580 581/581/581
f 582/582/582 572/572/572 573/573/573
f 583/583/583 581/581/581 580/580/580
f 573/573/573 574/574/574 566/566/566
f 573/573/573 581/581/581 574/574/574
f 582/582/582 573/573/573 566/566/566
f 583/583/583 574/574/574 581/581/581
