# 3D Model: tree/.sheet/sheet_01 (v6 Gemini)
# Style: botanical_sculpture | Symmetry: asymmetric
# Dimensions: 1.6 x 2.1 x 1.331 m
# Triangles: 720 | Vertices: 440
v 0.2 -0.3 0
v 0.1414 -0.3 0.1414
v 0 -0.3 0.2
v -0.1414 -0.3 0.1414
v -0.2 -0.3 0
v -0.1414 -0.3 -0.1414
v 0 -0.3 -0.2
v 0.1414 -0.3 -0.1414
v 0.15 0.7 0
v 0.1061 0.7 0.1061
v 0 0.7 0.15
v -0.1061 0.7 0.1061
v -0.15 0.7 0
v -0.1061 0.7 -0.1061
v 0 0.7 -0.15
v 0.1061 0.7 -0.1061
v 0 -0.3 0
v 0 0.7 0
v 0 1.4 0
v 0 1.4 0
v 0 1.4 0
v 0 1.4 0
v 0 1.4 0
v 0 1.4 0
v 0 1.4 0
v 0 1.4 0
v 0 1.4 0
v 0 1.4 0
v 0 1.4 0
v 0.2679 1.3543 0
v 0.2167 1.3543 0.1575
v 0.0828 1.3543 0.2548
v -0.0828 1.3543 0.2548
v -0.2167 1.3543 0.1575
v -0.2679 1.3543 0
v -0.2167 1.3543 -0.1575
v -0.0828 1.3543 -0.2548
v 0.0828 1.3543 -0.2548
v 0.2167 1.3543 -0.1575
v 0.2679 1.3543 0
v 0.495 1.2243 0
v 0.4004 1.2243 0.2909
v 0.153 1.2243 0.4707
v -0.153 1.2243 0.4707
v -0.4004 1.2243 0.2909
v -0.495 1.2243 0
v -0.4004 1.2243 -0.2909
v -0.153 1.2243 -0.4707
v 0.153 1.2243 -0.4707
v 0.4004 1.2243 -0.2909
v 0.495 1.2243 0
v 0.6467 1.0296 0
v 0.5232 1.0296 0.3801
v 0.1998 1.0296 0.6151
v -0.1998 1.0296 0.6151
v -0.5232 1.0296 0.3801
v -0.6467 1.0296 0
v -0.5232 1.0296 -0.3801
v -0.1998 1.0296 -0.6151
v 0.1998 1.0296 -0.6151
v 0.5232 1.0296 -0.3801
v 0.6467 1.0296 0
v 0.7 0.8 0
v 0.5663 0.8 0.4114
v 0.2163 0.8 0.6657
v -0.2163 0.8 0.6657
v -0.5663 0.8 0.4114
v -0.7 0.8 0
v -0.5663 0.8 -0.4114
v -0.2163 0.8 -0.6657
v 0.2163 0.8 -0.6657
v 0.5663 0.8 -0.4114
v 0.7 0.8 0
v 0.6467 0.5704 0
v 0.5232 0.5704 0.3801
v 0.1998 0.5704 0.6151
v -0.1998 0.5704 0.6151
v -0.5232 0.5704 0.3801
v -0.6467 0.5704 0
v -0.5232 0.5704 -0.3801
v -0.1998 0.5704 -0.6151
v 0.1998 0.5704 -0.6151
v 0.5232 0.5704 -0.3801
v 0.6467 0.5704 0
v 0.495 0.3757 0
v 0.4004 0.3757 0.2909
v 0.153 0.3757 0.4707
v -0.153 0.3757 0.4707
v -0.4004 0.3757 0.2909
v -0.495 0.3757 0
v -0.4004 0.3757 -0.2909
v -0.153 0.3757 -0.4707
v 0.153 0.3757 -0.4707
v 0.4004 0.3757 -0.2909
v 0.495 0.3757 0
v 0.2679 0.2457 0
v 0.2167 0.2457 0.1575
v 0.0828 0.2457 0.2548
v -0.0828 0.2457 0.2548
v -0.2167 0.2457 0.1575
v -0.2679 0.2457 0
v -0.2167 0.2457 -0.1575
v -0.0828 0.2457 -0.2548
v 0.0828 0.2457 -0.2548
v 0.2167 0.2457 -0.1575
v 0.2679 0.2457 0
v 0 0.2 0
v 0 0.2 0
v 0 0.2 0
v 0 0.2 0
v 0 0.2 0
v 0 0.2 0
v 0 0.2 0
v 0 0.2 0
v 0 0.2 0
v 0 0.2 0
v 0 0.2 0
v 0 1.65 0
v 0 1.65 0
v 0 1.65 0
v 0 1.65 0
v 0 1.65 0
v 0 1.65 0
v 0 1.65 0
v 0 1.65 0
v 0 1.65 0
v 0 1.65 0
v 0 1.65 0
v 0.1531 1.6234 0
v 0.1238 1.6234 0.09
v 0.0473 1.6234 0.1456
v -0.0473 1.6234 0.1456
v -0.1238 1.6234 0.09
v -0.1531 1.6234 0
v -0.1238 1.6234 -0.09
v -0.0473 1.6234 -0.1456
v 0.0473 1.6234 -0.1456
v 0.1238 1.6234 -0.09
v 0.1531 1.6234 0
v 0.2828 1.5475 0
v 0.2288 1.5475 0.1663
v 0.0874 1.5475 0.269
v -0.0874 1.5475 0.269
v -0.2288 1.5475 0.1663
v -0.2828 1.5475 0
v -0.2288 1.5475 -0.1663
v -0.0874 1.5475 -0.269
v 0.0874 1.5475 -0.269
v 0.2288 1.5475 -0.1663
v 0.2828 1.5475 0
v 0.3696 1.4339 0
v 0.299 1.4339 0.2172
v 0.1142 1.4339 0.3515
v -0.1142 1.4339 0.3515
v -0.299 1.4339 0.2172
v -0.3696 1.4339 0
v -0.299 1.4339 -0.2172
v -0.1142 1.4339 -0.3515
v 0.1142 1.4339 -0.3515
v 0.299 1.4339 -0.2172
v 0.3696 1.4339 0
v 0.4 1.3 0
v 0.3236 1.3 0.2351
v 0.1236 1.3 0.3804
v -0.1236 1.3 0.3804
v -0.3236 1.3 0.2351
v -0.4 1.3 0
v -0.3236 1.3 -0.2351
v -0.1236 1.3 -0.3804
v 0.1236 1.3 -0.3804
v 0.3236 1.3 -0.2351
v 0.4 1.3 0
v 0.3696 1.1661 0
v 0.299 1.1661 0.2172
v 0.1142 1.1661 0.3515
v -0.1142 1.1661 0.3515
v -0.299 1.1661 0.2172
v -0.3696 1.1661 0
v -0.299 1.1661 -0.2172
v -0.1142 1.1661 -0.3515
v 0.1142 1.1661 -0.3515
v 0.299 1.1661 -0.2172
v 0.3696 1.1661 0
v 0.2828 1.0525 0
v 0.2288 1.0525 0.1663
v 0.0874 1.0525 0.269
v -0.0874 1.0525 0.269
v -0.2288 1.0525 0.1663
v -0.2828 1.0525 0
v -0.2288 1.0525 -0.1663
v -0.0874 1.0525 -0.269
v 0.0874 1.0525 -0.269
v 0.2288 1.0525 -0.1663
v 0.2828 1.0525 0
v 0.1531 0.9766 0
v 0.1238 0.9766 0.09
v 0.0473 0.9766 0.1456
v -0.0473 0.9766 0.1456
v -0.1238 0.9766 0.09
v -0.1531 0.9766 0
v -0.1238 0.9766 -0.09
v -0.0473 0.9766 -0.1456
v 0.0473 0.9766 -0.1456
v 0.1238 0.9766 -0.09
v 0.1531 0.9766 0
v 0 0.95 0
v 0 0.95 0
v 0 0.95 0
v 0 0.95 0
v 0 0.95 0
v 0 0.95 0
v 0 0.95 0
v 0 0.95 0
v 0 0.95 0
v 0 0.95 0
v 0 0.95 0
v -0.5 1 0
v -0.5 1 0
v -0.5 1 0
v -0.5 1 0
v -0.5 1 0
v -0.5 1 0
v -0.5 1 0
v -0.5 1 0
v -0.5 1 0
v -0.5 1 0
v -0.5 1 0
v -0.3852 0.9772 0
v -0.4071 0.9772 0.0675
v -0.4645 0.9772 0.1092
v -0.5355 0.9772 0.1092
v -0.5929 0.9772 0.0675
v -0.6148 0.9772 0
v -0.5929 0.9772 -0.0675
v -0.5355 0.9772 -0.1092
v -0.4645 0.9772 -0.1092
v -0.4071 0.9772 -0.0675
v -0.3852 0.9772 0
v -0.2879 0.9121 0
v -0.3284 0.9121 0.1247
v -0.4344 0.9121 0.2017
v -0.5656 0.9121 0.2017
v -0.6716 0.9121 0.1247
v -0.7121 0.9121 0
v -0.6716 0.9121 -0.1247
v -0.5656 0.9121 -0.2017
v -0.4344 0.9121 -0.2017
v -0.3284 0.9121 -0.1247
v -0.2879 0.9121 0
v -0.2228 0.8148 0
v -0.2758 0.8148 0.1629
v -0.4144 0.8148 0.2636
v -0.5856 0.8148 0.2636
v -0.7242 0.8148 0.1629
v -0.7772 0.8148 0
v -0.7242 0.8148 -0.1629
v -0.5856 0.8148 -0.2636
v -0.4144 0.8148 -0.2636
v -0.2758 0.8148 -0.1629
v -0.2228 0.8148 0
v -0.2 0.7 0
v -0.2573 0.7 0.1763
v -0.4073 0.7 0.2853
v -0.5927 0.7 0.2853
v -0.7427 0.7 0.1763
v -0.8 0.7 0
v -0.7427 0.7 -0.1763
v -0.5927 0.7 -0.2853
v -0.4073 0.7 -0.2853
v -0.2573 0.7 -0.1763
v -0.2 0.7 0
v -0.2228 0.5852 0
v -0.2758 0.5852 0.1629
v -0.4144 0.5852 0.2636
v -0.5856 0.5852 0.2636
v -0.7242 0.5852 0.1629
v -0.7772 0.5852 0
v -0.7242 0.5852 -0.1629
v -0.5856 0.5852 -0.2636
v -0.4144 0.5852 -0.2636
v -0.2758 0.5852 -0.1629
v -0.2228 0.5852 0
v -0.2879 0.4879 0
v -0.3284 0.4879 0.1247
v -0.4344 0.4879 0.2017
v -0.5656 0.4879 0.2017
v -0.6716 0.4879 0.1247
v -0.7121 0.4879 0
v -0.6716 0.4879 -0.1247
v -0.5656 0.4879 -0.2017
v -0.4344 0.4879 -0.2017
v -0.3284 0.4879 -0.1247
v -0.2879 0.4879 0
v -0.3852 0.4228 0
v -0.4071 0.4228 0.0675
v -0.4645 0.4228 0.1092
v -0.5355 0.4228 0.1092
v -0.5929 0.4228 0.0675
v -0.6148 0.4228 0
v -0.5929 0.4228 -0.0675
v -0.5355 0.4228 -0.1092
v -0.4645 0.4228 -0.1092
v -0.4071 0.4228 -0.0675
v -0.3852 0.4228 0
v -0.5 0.4 0
v -0.5 0.4 0
v -0.5 0.4 0
v -0.5 0.4 0
v -0.5 0.4 0
v -0.5 0.4 0
v -0.5 0.4 0
v -0.5 0.4 0
v -0.5 0.4 0
v -0.5 0.4 0
v -0.5 0.4 0
v 0.5 1 0
v 0.5 1 0
v 0.5 1 0
v 0.5 1 0
v 0.5 1 0
v 0.5 1 0
v 0.5 1 0
v 0.5 1 0
v 0.5 1 0
v 0.5 1 0
v 0.5 1 0
v 0.6148 0.9772 0
v 0.5929 0.9772 0.0675
v 0.5355 0.9772 0.1092
v 0.4645 0.9772 0.1092
v 0.4071 0.9772 0.0675
v 0.3852 0.9772 0
v 0.4071 0.9772 -0.0675
v 0.4645 0.9772 -0.1092
v 0.5355 0.9772 -0.1092
v 0.5929 0.9772 -0.0675
v 0.6148 0.9772 0
v 0.7121 0.9121 0
v 0.6716 0.9121 0.1247
v 0.5656 0.9121 0.2017
v 0.4344 0.9121 0.2017
v 0.3284 0.9121 0.1247
v 0.2879 0.9121 0
v 0.3284 0.9121 -0.1247
v 0.4344 0.9121 -0.2017
v 0.5656 0.9121 -0.2017
v 0.6716 0.9121 -0.1247
v 0.7121 0.9121 0
v 0.7772 0.8148 0
v 0.7242 0.8148 0.1629
v 0.5856 0.8148 0.2636
v 0.4144 0.8148 0.2636
v 0.2758 0.8148 0.1629
v 0.2228 0.8148 0
v 0.2758 0.8148 -0.1629
v 0.4144 0.8148 -0.2636
v 0.5856 0.8148 -0.2636
v 0.7242 0.8148 -0.1629
v 0.7772 0.8148 0
v 0.8 0.7 0
v 0.7427 0.7 0.1763
v 0.5927 0.7 0.2853
v 0.4073 0.7 0.2853
v 0.2573 0.7 0.1763
v 0.2 0.7 0
v 0.2573 0.7 -0.1763
v 0.4073 0.7 -0.2853
v 0.5927 0.7 -0.2853
v 0.7427 0.7 -0.1763
v 0.8 0.7 0
v 0.7772 0.5852 0
v 0.7242 0.5852 0.1629
v 0.5856 0.5852 0.2636
v 0.4144 0.5852 0.2636
v 0.2758 0.5852 0.1629
v 0.2228 0.5852 0
v 0.2758 0.5852 -0.1629
v 0.4144 0.5852 -0.2636
v 0.5856 0.5852 -0.2636
v 0.7242 0.5852 -0.1629
v 0.7772 0.5852 0
v 0.7121 0.4879 0
v 0.6716 0.4879 0.1247
v 0.5656 0.4879 0.2017
v 0.4344 0.4879 0.2017
v 0.3284 0.4879 0.1247
v 0.2879 0.4879 0
v 0.3284 0.4879 -0.1247
v 0.4344 0.4879 -0.2017
v 0.5656 0.4879 -0.2017
v 0.6716 0.4879 -0.1247
v 0.7121 0.4879 0
v 0.6148 0.4228 0
v 0.5929 0.4228 0.0675
v 0.5355 0.4228 0.1092
v 0.4645 0.4228 0.1092
v 0.4071 0.4228 0.0675
v 0.3852 0.4228 0
v 0.4071 0.4228 -0.0675
v 0.4645 0.4228 -0.1092
v 0.5355 0.4228 -0.1092
v 0.5929 0.4228 -0.0675
v 0.6148 0.4228 0
v 0.5 0.4 0
v 0.5 0.4 0
v 0.5 0.4 0
v 0.5 0.4 0
v 0.5 0.4 0
v 0.5 0.4 0
v 0.5 0.4 0
v 0.5 0.4 0
v 0.5 0.4 0
v 0.5 0.4 0
v 0.5 0.4 0
v 0.35 -0.45 0
v 0.3031 -0.45 0.175
v 0.175 -0.45 0.3031
v 0 -0.45 0.35
v -0.175 -0.45 0.3031
v -0.3031 -0.45 0.175
v -0.35 -0.45 0
v -0.3031 -0.45 -0.175
v -0.175 -0.45 -0.3031
v 0 -0.45 -0.35
v 0.175 -0.45 -0.3031
v 0.3031 -0.45 -0.175
v 0.3 0.55 0
v 0.2598 0.55 0.15
v 0.15 0.55 0.2598
v 0 0.55 0.3
v -0.15 0.55 0.2598
v -0.2598 0.55 0.15
v -0.3 0.55 0
v -0.2598 0.55 -0.15
v -0.15 0.55 -0.2598
v 0 0.55 -0.3
v 0.15 0.55 -0.2598
v 0.2598 0.55 -0.15
v 0 -0.45 0
v 0 0.55 0
vt 0 0
vt 0.125 0
vt 0.25 0
vt 0.375 0
vt 0.5 0
vt 0.625 0
vt 0.75 0
vt 0.875 0
vt 0 1
vt 0.125 1
vt 0.25 1
vt 0.375 1
vt 0.5 1
vt 0.625 1
vt 0.75 1
vt 0.875 1
vt 0.5 0.5
vt 0.5 0.5
vt 0 0
vt 0.1 0
vt 0.2 0
vt 0.3 0
vt 0.4 0
vt 0.5 0
vt 0.6 0
vt 0.7 0
vt 0.8 0
vt 0.9 0
vt 1 0
vt 0 0.125
vt 0.1 0.125
vt 0.2 0.125
vt 0.3 0.125
vt 0.4 0.125
vt 0.5 0.125
vt 0.6 0.125
vt 0.7 0.125
vt 0.8 0.125
vt 0.9 0.125
vt 1 0.125
vt 0 0.25
vt 0.1 0.25
vt 0.2 0.25
vt 0.3 0.25
vt 0.4 0.25
vt 0.5 0.25
vt 0.6 0.25
vt 0.7 0.25
vt 0.8 0.25
vt 0.9 0.25
vt 1 0.25
vt 0 0.375
vt 0.1 0.375
vt 0.2 0.375
vt 0.3 0.375
vt 0.4 0.375
vt 0.5 0.375
vt 0.6 0.375
vt 0.7 0.375
vt 0.8 0.375
vt 0.9 0.375
vt 1 0.375
vt 0 0.5
vt 0.1 0.5
vt 0.2 0.5
vt 0.3 0.5
vt 0.4 0.5
vt 0.5 0.5
vt 0.6 0.5
vt 0.7 0.5
vt 0.8 0.5
vt 0.9 0.5
vt 1 0.5
vt 0 0.625
vt 0.1 0.625
vt 0.2 0.625
vt 0.3 0.625
vt 0.4 0.625
vt 0.5 0.625
vt 0.6 0.625
vt 0.7 0.625
vt 0.8 0.625
vt 0.9 0.625
vt 1 0.625
vt 0 0.75
vt 0.1 0.75
vt 0.2 0.75
vt 0.3 0.75
vt 0.4 0.75
vt 0.5 0.75
vt 0.6 0.75
vt 0.7 0.75
vt 0.8 0.75
vt 0.9 0.75
vt 1 0.75
vt 0 0.875
vt 0.1 0.875
vt 0.2 0.875
vt 0.3 0.875
vt 0.4 0.875
vt 0.5 0.875
vt 0.6 0.875
vt 0.7 0.875
vt 0.8 0.875
vt 0.9 0.875
vt 1 0.875
vt 0 1
vt 0.1 1
vt 0.2 1
vt 0.3 1
vt 0.4 1
vt 0.5 1
vt 0.6 1
vt 0.7 1
vt 0.8 1
vt 0.9 1
vt 1 1
vt 0 0
vt 0.1 0
vt 0.2 0
vt 0.3 0
vt 0.4 0
vt 0.5 0
vt 0.6 0
vt 0.7 0
vt 0.8 0
vt 0.9 0
vt 1 0
vt 0 0.125
vt 0.1 0.125
vt 0.2 0.125
vt 0.3 0.125
vt 0.4 0.125
vt 0.5 0.125
vt 0.6 0.125
vt 0.7 0.125
vt 0.8 0.125
vt 0.9 0.125
vt 1 0.125
vt 0 0.25
vt 0.1 0.25
vt 0.2 0.25
vt 0.3 0.25
vt 0.4 0.25
vt 0.5 0.25
vt 0.6 0.25
vt 0.7 0.25
vt 0.8 0.25
vt 0.9 0.25
vt 1 0.25
vt 0 0.375
vt 0.1 0.375
vt 0.2 0.375
vt 0.3 0.375
vt 0.4 0.375
vt 0.5 0.375
vt 0.6 0.375
vt 0.7 0.375
vt 0.8 0.375
vt 0.9 0.375
vt 1 0.375
vt 0 0.5
vt 0.1 0.5
vt 0.2 0.5
vt 0.3 0.5
vt 0.4 0.5
vt 0.5 0.5
vt 0.6 0.5
vt 0.7 0.5
vt 0.8 0.5
vt 0.9 0.5
vt 1 0.5
vt 0 0.625
vt 0.1 0.625
vt 0.2 0.625
vt 0.3 0.625
vt 0.4 0.625
vt 0.5 0.625
vt 0.6 0.625
vt 0.7 0.625
vt 0.8 0.625
vt 0.9 0.625
vt 1 0.625
vt 0 0.75
vt 0.1 0.75
vt 0.2 0.75
vt 0.3 0.75
vt 0.4 0.75
vt 0.5 0.75
vt 0.6 0.75
vt 0.7 0.75
vt 0.8 0.75
vt 0.9 0.75
vt 1 0.75
vt 0 0.875
vt 0.1 0.875
vt 0.2 0.875
vt 0.3 0.875
vt 0.4 0.875
vt 0.5 0.875
vt 0.6 0.875
vt 0.7 0.875
vt 0.8 0.875
vt 0.9 0.875
vt 1 0.875
vt 0 1
vt 0.1 1
vt 0.2 1
vt 0.3 1
vt 0.4 1
vt 0.5 1
vt 0.6 1
vt 0.7 1
vt 0.8 1
vt 0.9 1
vt 1 1
vt 0 0
vt 0.1 0
vt 0.2 0
vt 0.3 0
vt 0.4 0
vt 0.5 0
vt 0.6 0
vt 0.7 0
vt 0.8 0
vt 0.9 0
vt 1 0
vt 0 0.125
vt 0.1 0.125
vt 0.2 0.125
vt 0.3 0.125
vt 0.4 0.125
vt 0.5 0.125
vt 0.6 0.125
vt 0.7 0.125
vt 0.8 0.125
vt 0.9 0.125
vt 1 0.125
vt 0 0.25
vt 0.1 0.25
vt 0.2 0.25
vt 0.3 0.25
vt 0.4 0.25
vt 0.5 0.25
vt 0.6 0.25
vt 0.7 0.25
vt 0.8 0.25
vt 0.9 0.25
vt 1 0.25
vt 0 0.375
vt 0.1 0.375
vt 0.2 0.375
vt 0.3 0.375
vt 0.4 0.375
vt 0.5 0.375
vt 0.6 0.375
vt 0.7 0.375
vt 0.8 0.375
vt 0.9 0.375
vt 1 0.375
vt 0 0.5
vt 0.1 0.5
vt 0.2 0.5
vt 0.3 0.5
vt 0.4 0.5
vt 0.5 0.5
vt 0.6 0.5
vt 0.7 0.5
vt 0.8 0.5
vt 0.9 0.5
vt 1 0.5
vt 0 0.625
vt 0.1 0.625
vt 0.2 0.625
vt 0.3 0.625
vt 0.4 0.625
vt 0.5 0.625
vt 0.6 0.625
vt 0.7 0.625
vt 0.8 0.625
vt 0.9 0.625
vt 1 0.625
vt 0 0.75
vt 0.1 0.75
vt 0.2 0.75
vt 0.3 0.75
vt 0.4 0.75
vt 0.5 0.75
vt 0.6 0.75
vt 0.7 0.75
vt 0.8 0.75
vt 0.9 0.75
vt 1 0.75
vt 0 0.875
vt 0.1 0.875
vt 0.2 0.875
vt 0.3 0.875
vt 0.4 0.875
vt 0.5 0.875
vt 0.6 0.875
vt 0.7 0.875
vt 0.8 0.875
vt 0.9 0.875
vt 1 0.875
vt 0 1
vt 0.1 1
vt 0.2 1
vt 0.3 1
vt 0.4 1
vt 0.5 1
vt 0.6 1
vt 0.7 1
vt 0.8 1
vt 0.9 1
vt 1 1
vt 0 0
vt 0.1 0
vt 0.2 0
vt 0.3 0
vt 0.4 0
vt 0.5 0
vt 0.6 0
vt 0.7 0
vt 0.8 0
vt 0.9 0
vt 1 0
vt 0 0.125
vt 0.1 0.125
vt 0.2 0.125
vt 0.3 0.125
vt 0.4 0.125
vt 0.5 0.125
vt 0.6 0.125
vt 0.7 0.125
vt 0.8 0.125
vt 0.9 0.125
vt 1 0.125
vt 0 0.25
vt 0.1 0.25
vt 0.2 0.25
vt 0.3 0.25
vt 0.4 0.25
vt 0.5 0.25
vt 0.6 0.25
vt 0.7 0.25
vt 0.8 0.25
vt 0.9 0.25
vt 1 0.25
vt 0 0.375
vt 0.1 0.375
vt 0.2 0.375
vt 0.3 0.375
vt 0.4 0.375
vt 0.5 0.375
vt 0.6 0.375
vt 0.7 0.375
vt 0.8 0.375
vt 0.9 0.375
vt 1 0.375
vt 0 0.5
vt 0.1 0.5
vt 0.2 0.5
vt 0.3 0.5
vt 0.4 0.5
vt 0.5 0.5
vt 0.6 0.5
vt 0.7 0.5
vt 0.8 0.5
vt 0.9 0.5
vt 1 0.5
vt 0 0.625
vt 0.1 0.625
vt 0.2 0.625
vt 0.3 0.625
vt 0.4 0.625
vt 0.5 0.625
vt 0.6 0.625
vt 0.7 0.625
vt 0.8 0.625
vt 0.9 0.625
vt 1 0.625
vt 0 0.75
vt 0.1 0.75
vt 0.2 0.75
vt 0.3 0.75
vt 0.4 0.75
vt 0.5 0.75
vt 0.6 0.75
vt 0.7 0.75
vt 0.8 0.75
vt 0.9 0.75
vt 1 0.75
vt 0 0.875
vt 0.1 0.875
vt 0.2 0.875
vt 0.3 0.875
vt 0.4 0.875
vt 0.5 0.875
vt 0.6 0.875
vt 0.7 0.875
vt 0.8 0.875
vt 0.9 0.875
vt 1 0.875
vt 0 1
vt 0.1 1
vt 0.2 1
vt 0.3 1
vt 0.4 1
vt 0.5 1
vt 0.6 1
vt 0.7 1
vt 0.8 1
vt 0.9 1
vt 1 1
vt 0 0
vt 0.08333333333333333 0
vt 0.16666666666666666 0
vt 0.25 0
vt 0.3333333333333333 0
vt 0.4166666666666667 0
vt 0.5 0
vt 0.5833333333333334 0
vt 0.6666666666666666 0
vt 0.75 0
vt 0.8333333333333334 0
vt 0.9166666666666666 0
vt 0 1
vt 0.08333333333333333 1
vt 0.16666666666666666 1
vt 0.25 1
vt 0.3333333333333333 1
vt 0.4166666666666667 1
vt 0.5 1
vt 0.5833333333333334 1
vt 0.6666666666666666 1
vt 0.75 1
vt 0.8333333333333334 1
vt 0.9166666666666666 1
vt 0.5 0.5
vt 0.5 0.5
vn 0 -1 0
vn 0 -1 0
vn 0 -1 0
vn 0 -1 0
vn 0 -1 0
vn 0 -1 0
vn 0 -1 0
vn 0 -1 0
vn 0 1 0
vn 0 1 0
vn 0 1 0
vn 0 1 0
vn 0 1 0
vn 0 1 0
vn 0 1 0
vn 0 1 0
vn 0 -1 0
vn 0 1 0
vn 0 1 0
vn 0 1 0
vn 0 1 0
vn 0 1 0
vn 0 1 0
vn 0 1 0
vn 0 1 0
vn 0 1 0
vn 0 1 0
vn 0 1 0
vn 0 1 0
vn 0.3826834323650898 0.9238795325112868 0
vn 0.30959740024909344 0.9238795325112868 0.22493567784086388
vn 0.11825568406654854 0.9238795325112868 0.3639535720290143
vn -0.11825568406654847 0.9238795325112868 0.36395357202901435
vn -0.3095974002490934 0.9238795325112868 0.22493567784086393
vn -0.3826834323650898 0.9238795325112868 4.686520405326298e-17
vn -0.30959740024909344 0.9238795325112868 -0.2249356778408638
vn -0.11825568406654859 0.9238795325112868 -0.3639535720290143
vn 0.11825568406654845 0.9238795325112868 -0.36395357202901435
vn 0.3095974002490934 0.9238795325112868 -0.22493567784086396
vn 0.3826834323650898 0.9238795325112868 -9.373040810652596e-17
vn 0.7071067811865475 0.7071067811865476 0
vn 0.5720614028176843 0.7071067811865476 0.4156269377774534
vn 0.21850801222441055 0.7071067811865476 0.6724985119639573
vn -0.21850801222441046 0.7071067811865476 0.6724985119639573
vn -0.5720614028176841 0.7071067811865476 0.41562693777745346
vn -0.7071067811865475 0.7071067811865476 8.659560562354933e-17
vn -0.5720614028176843 0.7071067811865476 -0.4156269377774533
vn -0.21850801222441063 0.7071067811865476 -0.6724985119639573
vn 0.21850801222441038 0.7071067811865476 -0.6724985119639573
vn 0.5720614028176841 0.7071067811865476 -0.4156269377774535
vn 0.7071067811865475 0.7071067811865476 -1.7319121124709866e-16
vn 0.9238795325112867 0.38268343236508984 0
vn 0.7474342425568128 0.38268343236508984 0.5430427641049989
vn 0.28549447630116936 0.38268343236508984 0.8786616496665794
vn -0.28549447630116925 0.38268343236508984 0.8786616496665796
vn -0.7474342425568126 0.38268343236508984 0.543042764104999
vn -0.9238795325112867 0.38268343236508984 1.1314261122877003e-16
vn -0.7474342425568128 0.38268343236508984 -0.5430427641049987
vn -0.2854944763011695 0.38268343236508984 -0.8786616496665794
vn 0.28549447630116914 0.38268343236508984 -0.8786616496665796
vn 0.7474342425568126 0.38268343236508984 -0.543042764104999
vn 0.9238795325112867 0.38268343236508984 -2.2628522245754005e-16
vn 1 6.123233995736766e-17 0
vn 0.8090169943749473 6.123233995736766e-17 0.5877852522924731
vn 0.30901699437494745 6.123233995736766e-17 0.9510565162951535
vn -0.30901699437494734 6.123233995736766e-17 0.9510565162951536
vn -0.8090169943749473 6.123233995736766e-17 0.5877852522924732
vn -1 6.123233995736766e-17 1.2246467991473532e-16
vn -0.8090169943749473 6.123233995736766e-17 -0.587785252292473
vn -0.30901699437494756 6.123233995736766e-17 -0.9510565162951535
vn 0.30901699437494723 6.123233995736766e-17 -0.9510565162951536
vn 0.8090169943749473 6.123233995736766e-17 -0.5877852522924734
vn 1 6.123233995736766e-17 -2.4492935982947064e-16
vn 0.9238795325112867 -0.3826834323650897 0
vn 0.7474342425568128 -0.3826834323650897 0.5430427641049989
vn 0.28549447630116936 -0.3826834323650897 0.8786616496665794
vn -0.28549447630116925 -0.3826834323650897 0.8786616496665796
vn -0.7474342425568126 -0.3826834323650897 0.543042764104999
vn -0.9238795325112867 -0.3826834323650897 1.1314261122877003e-16
vn -0.7474342425568128 -0.3826834323650897 -0.5430427641049987
vn -0.2854944763011695 -0.3826834323650897 -0.8786616496665794
vn 0.28549447630116914 -0.3826834323650897 -0.8786616496665796
vn 0.7474342425568126 -0.3826834323650897 -0.543042764104999
vn 0.9238795325112867 -0.3826834323650897 -2.2628522245754005e-16
vn 0.7071067811865476 -0.7071067811865475 0
vn 0.5720614028176844 -0.7071067811865475 0.41562693777745346
vn 0.21850801222441057 -0.7071067811865475 0.6724985119639574
vn -0.2185080122244105 -0.7071067811865475 0.6724985119639574
vn -0.5720614028176843 -0.7071067811865475 0.4156269377774535
vn -0.7071067811865476 -0.7071067811865475 8.659560562354934e-17
vn -0.5720614028176844 -0.7071067811865475 -0.4156269377774534
vn -0.21850801222441066 -0.7071067811865475 -0.6724985119639574
vn 0.2185080122244104 -0.7071067811865475 -0.6724985119639574
vn 0.5720614028176843 -0.7071067811865475 -0.41562693777745363
vn 0.7071067811865476 -0.7071067811865475 -1.7319121124709868e-16
vn 0.3826834323650899 -0.9238795325112868 0
vn 0.3095974002490935 -0.9238795325112868 0.22493567784086393
vn 0.11825568406654859 -0.9238795325112868 0.36395357202901435
vn -0.11825568406654854 -0.9238795325112868 0.36395357202901446
vn -0.3095974002490935 -0.9238795325112868 0.22493567784086402
vn -0.3826834323650899 -0.9238795325112868 4.6865204053263e-17
vn -0.3095974002490935 -0.9238795325112868 -0.22493567784086393
vn -0.11825568406654861 -0.9238795325112868 -0.36395357202901435
vn 0.11825568406654847 -0.9238795325112868 -0.36395357202901446
vn 0.3095974002490935 -0.9238795325112868 -0.22493567784086402
vn 0.3826834323650899 -0.9238795325112868 -9.3730408106526e-17
vn 1.2246467991473532e-16 -1 0
vn 9.907600726170917e-17 -1 7.198293278059966e-17
vn 3.7843667304341506e-17 -1 1.1647083184890923e-16
vn -3.7843667304341493e-17 -1 1.1647083184890926e-16
vn -9.907600726170915e-17 -1 7.198293278059968e-17
vn -1.2246467991473532e-16 -1 1.4997597826618576e-32
vn -9.907600726170917e-17 -1 -7.198293278059965e-17
vn -3.784366730434152e-17 -1 -1.1647083184890923e-16
vn 3.7843667304341475e-17 -1 -1.1647083184890926e-16
vn 9.907600726170915e-17 -1 -7.19829327805997e-17
vn 1.2246467991473532e-16 -1 -2.999519565323715e-32
vn 0 1 0
vn 0 1 0
vn 0 1 0
vn 0 1 0
vn 0 1 0
vn 0 1 0
vn 0 1 0
vn 0 1 0
vn 0 1 0
vn 0 1 0
vn 0 1 0
vn 0.3826834323650898 0.9238795325112867 0
vn 0.30959740024909344 0.9238795325112867 0.22493567784086388
vn 0.11825568406654853 0.9238795325112867 0.36395357202901424
vn -0.1182556840665485 0.9238795325112867 0.36395357202901435
vn -0.3095974002490934 0.9238795325112867 0.2249356778408639
vn -0.3826834323650898 0.9238795325112867 4.6865204053262986e-17
vn -0.30959740024909344 0.9238795325112867 -0.22493567784086385
vn -0.11825568406654857 0.9238795325112867 -0.36395357202901424
vn 0.11825568406654845 0.9238795325112867 -0.36395357202901435
vn 0.3095974002490934 0.9238795325112867 -0.224935677840864
vn 0.3826834323650898 0.9238795325112867 -9.373040810652597e-17
vn 0.7071067811865475 0.7071067811865476 0
vn 0.5720614028176843 0.7071067811865476 0.4156269377774534
vn 0.21850801222441055 0.7071067811865476 0.6724985119639573
vn -0.21850801222441046 0.7071067811865476 0.6724985119639573
vn -0.5720614028176841 0.7071067811865476 0.4156269377774535
vn -0.7071067811865475 0.7071067811865476 8.659560562354932e-17
vn -0.5720614028176843 0.7071067811865476 -0.4156269377774533
vn -0.2185080122244106 0.7071067811865476 -0.6724985119639573
vn 0.2185080122244104 0.7071067811865476 -0.6724985119639573
vn 0.5720614028176841 0.7071067811865476 -0.4156269377774536
vn 0.7071067811865475 0.7071067811865476 -1.7319121124709863e-16
vn 0.9238795325112867 0.3826834323650898 0
vn 0.7474342425568128 0.3826834323650898 0.5430427641049989
vn 0.28549447630116936 0.3826834323650898 0.8786616496665794
vn -0.28549447630116925 0.3826834323650898 0.8786616496665796
vn -0.7474342425568127 0.3826834323650898 0.543042764104999
vn -0.9238795325112867 0.3826834323650898 1.1314261122877003e-16
vn -0.7474342425568128 0.3826834323650898 -0.5430427641049987
vn -0.2854944763011695 0.3826834323650898 -0.8786616496665794
vn 0.28549447630116914 0.3826834323650898 -0.8786616496665796
vn 0.7474342425568127 0.3826834323650898 -0.543042764104999
vn 0.9238795325112867 0.3826834323650898 -2.2628522245754005e-16
vn 1 6.123233995736766e-17 0
vn 0.8090169943749476 6.123233995736766e-17 0.5877852522924731
vn 0.30901699437494745 6.123233995736766e-17 0.9510565162951535
vn -0.30901699437494734 6.123233995736766e-17 0.9510565162951536
vn -0.8090169943749473 6.123233995736766e-17 0.5877852522924732
vn -1 6.123233995736766e-17 1.2246467991473532e-16
vn -0.8090169943749476 6.123233995736766e-17 -0.587785252292473
vn -0.30901699437494756 6.123233995736766e-17 -0.9510565162951535
vn 0.30901699437494723 6.123233995736766e-17 -0.9510565162951536
vn 0.8090169943749473 6.123233995736766e-17 -0.5877852522924734
vn 1 6.123233995736766e-17 -2.4492935982947064e-16
vn 0.9238795325112867 -0.3826834323650897 0
vn 0.7474342425568128 -0.3826834323650897 0.5430427641049989
vn 0.28549447630116936 -0.3826834323650897 0.8786616496665794
vn -0.28549447630116925 -0.3826834323650897 0.8786616496665796
vn -0.7474342425568127 -0.3826834323650897 0.543042764104999
vn -0.9238795325112867 -0.3826834323650897 1.1314261122877003e-16
vn -0.7474342425568128 -0.3826834323650897 -0.5430427641049987
vn -0.2854944763011695 -0.3826834323650897 -0.8786616496665794
vn 0.28549447630116914 -0.3826834323650897 -0.8786616496665796
vn 0.7474342425568127 -0.3826834323650897 -0.543042764104999
vn 0.9238795325112867 -0.3826834323650897 -2.2628522245754005e-16
vn 0.7071067811865476 -0.7071067811865475 0
vn 0.5720614028176844 -0.7071067811865475 0.4156269377774535
vn 0.21850801222441057 -0.7071067811865475 0.6724985119639574
vn -0.2185080122244105 -0.7071067811865475 0.6724985119639574
vn -0.5720614028176843 -0.7071067811865475 0.4156269377774535
vn -0.7071067811865476 -0.7071067811865475 8.659560562354935e-17
vn -0.5720614028176844 -0.7071067811865475 -0.4156269377774534
vn -0.21850801222441069 -0.7071067811865475 -0.6724985119639574
vn 0.2185080122244104 -0.7071067811865475 -0.6724985119639574
vn 0.5720614028176843 -0.7071067811865475 -0.41562693777745363
vn 0.7071067811865476 -0.7071067811865475 -1.731912112470987e-16
vn 0.3826834323650899 -0.9238795325112867 0
vn 0.3095974002490935 -0.9238795325112867 0.22493567784086393
vn 0.11825568406654857 -0.9238795325112867 0.3639535720290144
vn -0.11825568406654853 -0.9238795325112867 0.36395357202901446
vn -0.3095974002490935 -0.9238795325112867 0.224935677840864
vn -0.3826834323650899 -0.9238795325112867 4.6865204053263e-17
vn -0.3095974002490935 -0.9238795325112867 -0.2249356778408639
vn -0.11825568406654861 -0.9238795325112867 -0.3639535720290144
vn 0.1182556840665485 -0.9238795325112867 -0.36395357202901446
vn 0.3095974002490935 -0.9238795325112867 -0.22493567784086402
vn 0.3826834323650899 -0.9238795325112867 -9.3730408106526e-17
vn 1.2246467991473532e-16 -1 0
vn 9.907600726170916e-17 -1 7.198293278059965e-17
vn 3.78436673043415e-17 -1 1.1647083184890923e-16
vn -3.7843667304341493e-17 -1 1.1647083184890926e-16
vn -9.907600726170916e-17 -1 7.198293278059968e-17
vn -1.2246467991473532e-16 -1 1.4997597826618576e-32
vn -9.907600726170916e-17 -1 -7.198293278059965e-17
vn -3.784366730434152e-17 -1 -1.1647083184890923e-16
vn 3.784366730434147e-17 -1 -1.1647083184890926e-16
vn 9.907600726170916e-17 -1 -7.19829327805997e-17
vn 1.2246467991473532e-16 -1 -2.999519565323715e-32
vn 0 1 0
vn 0 1 0
vn 0 1 0
vn 0 1 0
vn 0 1 0
vn 0 1 0
vn 0 1 0
vn 0 1 0
vn 0 1 0
vn 0 1 0
vn 0 1 0
vn 0.3826834323650898 0.9238795325112868 0
vn 0.30959740024909344 0.9238795325112868 0.22493567784086385
vn 0.11825568406654853 0.9238795325112868 0.3639535720290143
vn -0.11825568406654849 0.9238795325112868 0.36395357202901435
vn -0.3095974002490934 0.9238795325112868 0.2249356778408639
vn -0.3826834323650898 0.9238795325112868 4.686520405326298e-17
vn -0.30959740024909344 0.9238795325112868 -0.22493567784086382
vn -0.11825568406654857 0.9238795325112868 -0.3639535720290143
vn 0.11825568406654843 0.9238795325112868 -0.36395357202901435
vn 0.3095974002490934 0.9238795325112868 -0.22493567784086396
vn 0.3826834323650898 0.9238795325112868 -9.373040810652596e-17
vn 0.7071067811865475 0.7071067811865476 0
vn 0.5720614028176843 0.7071067811865476 0.4156269377774534
vn 0.21850801222441055 0.7071067811865476 0.6724985119639573
vn -0.21850801222441046 0.7071067811865476 0.6724985119639573
vn -0.5720614028176841 0.7071067811865476 0.41562693777745346
vn -0.7071067811865475 0.7071067811865476 8.659560562354932e-17
vn -0.5720614028176843 0.7071067811865476 -0.4156269377774533
vn -0.2185080122244106 0.7071067811865476 -0.6724985119639573
vn 0.21850801222441038 0.7071067811865476 -0.6724985119639573
vn 0.5720614028176841 0.7071067811865476 -0.4156269377774536
vn 0.7071067811865475 0.7071067811865476 -1.7319121124709863e-16
vn 0.9238795325112868 0.38268343236508984 0
vn 0.7474342425568128 0.38268343236508984 0.5430427641049989
vn 0.28549447630116936 0.38268343236508984 0.8786616496665794
vn -0.28549447630116925 0.38268343236508984 0.8786616496665794
vn -0.7474342425568127 0.38268343236508984 0.543042764104999
vn -0.9238795325112868 0.38268343236508984 1.1314261122877003e-16
vn -0.7474342425568128 0.38268343236508984 -0.5430427641049987
vn -0.2854944763011695 0.38268343236508984 -0.8786616496665794
vn 0.28549447630116914 0.38268343236508984 -0.8786616496665794
vn 0.7474342425568127 0.38268343236508984 -0.543042764104999
vn 0.9238795325112868 0.38268343236508984 -2.2628522245754005e-16
vn 1 6.123233995736766e-17 0
vn 0.8090169943749475 6.123233995736766e-17 0.5877852522924731
vn 0.30901699437494745 6.123233995736766e-17 0.9510565162951534
vn -0.30901699437494734 6.123233995736766e-17 0.9510565162951536
vn -0.8090169943749473 6.123233995736766e-17 0.5877852522924732
vn -1 6.123233995736766e-17 1.2246467991473532e-16
vn -0.8090169943749475 6.123233995736766e-17 -0.587785252292473
vn -0.30901699437494756 6.123233995736766e-17 -0.9510565162951534
vn 0.30901699437494723 6.123233995736766e-17 -0.9510565162951536
vn 0.8090169943749473 6.123233995736766e-17 -0.5877852522924734
vn 1 6.123233995736766e-17 -2.4492935982947064e-16
vn 0.9238795325112868 -0.3826834323650897 0
vn 0.7474342425568128 -0.3826834323650897 0.5430427641049989
vn 0.28549447630116936 -0.3826834323650897 0.8786616496665794
vn -0.28549447630116925 -0.3826834323650897 0.8786616496665794
vn -0.7474342425568127 -0.3826834323650897 0.543042764104999
vn -0.9238795325112868 -0.3826834323650897 1.1314261122877003e-16
vn -0.7474342425568128 -0.3826834323650897 -0.5430427641049987
vn -0.2854944763011695 -0.3826834323650897 -0.8786616496665794
vn 0.28549447630116914 -0.3826834323650897 -0.8786616496665794
vn 0.7474342425568127 -0.3826834323650897 -0.543042764104999
vn 0.9238795325112868 -0.3826834323650897 -2.2628522245754005e-16
vn 0.7071067811865476 -0.7071067811865475 0
vn 0.5720614028176844 -0.7071067811865475 0.41562693777745346
vn 0.21850801222441055 -0.7071067811865475 0.6724985119639574
vn -0.21850801222441052 -0.7071067811865475 0.6724985119639574
vn -0.5720614028176843 -0.7071067811865475 0.4156269377774535
vn -0.7071067811865476 -0.7071067811865475 8.659560562354934e-17
vn -0.5720614028176844 -0.7071067811865475 -0.4156269377774534
vn -0.21850801222441066 -0.7071067811865475 -0.6724985119639574
vn 0.2185080122244104 -0.7071067811865475 -0.6724985119639574
vn 0.5720614028176843 -0.7071067811865475 -0.41562693777745363
vn 0.7071067811865476 -0.7071067811865475 -1.7319121124709868e-16
vn 0.3826834323650899 -0.9238795325112868 0
vn 0.3095974002490935 -0.9238795325112868 0.22493567784086396
vn 0.11825568406654857 -0.9238795325112868 0.3639535720290144
vn -0.11825568406654853 -0.9238795325112868 0.36395357202901446
vn -0.3095974002490935 -0.9238795325112868 0.224935677840864
vn -0.3826834323650899 -0.9238795325112868 4.6865204053263004e-17
vn -0.3095974002490935 -0.9238795325112868 -0.2249356778408639
vn -0.11825568406654863 -0.9238795325112868 -0.3639535720290144
vn 0.11825568406654849 -0.9238795325112868 -0.36395357202901446
vn 0.3095974002490935 -0.9238795325112868 -0.224935677840864
vn 0.3826834323650899 -0.9238795325112868 -9.373040810652601e-17
vn 1.2246467991473532e-16 -1 0
vn 9.907600726170916e-17 -1 7.198293278059966e-17
vn 3.7843667304341506e-17 -1 1.1647083184890923e-16
vn -3.7843667304341493e-17 -1 1.1647083184890926e-16
vn -9.907600726170915e-17 -1 7.198293278059968e-17
vn -1.2246467991473532e-16 -1 1.4997597826618576e-32
vn -9.907600726170916e-17 -1 -7.198293278059965e-17
vn -3.784366730434152e-17 -1 -1.1647083184890923e-16
vn 3.7843667304341475e-17 -1 -1.1647083184890926e-16
vn 9.907600726170915e-17 -1 -7.19829327805997e-17
vn 1.2246467991473532e-16 -1 -2.999519565323715e-32
vn 0 1 0
vn 0 1 0
vn 0 1 0
vn 0 1 0
vn 0 1 0
vn 0 1 0
vn 0 1 0
vn 0 1 0
vn 0 1 0
vn 0 1 0
vn 0 1 0
vn 0.3826834323650898 0.9238795325112868 0
vn 0.30959740024909344 0.9238795325112868 0.22493567784086385
vn 0.11825568406654853 0.9238795325112868 0.3639535720290143
vn -0.11825568406654849 0.9238795325112868 0.36395357202901435
vn -0.3095974002490934 0.9238795325112868 0.2249356778408639
vn -0.3826834323650898 0.9238795325112868 4.686520405326298e-17
vn -0.30959740024909344 0.9238795325112868 -0.22493567784086382
vn -0.11825568406654857 0.9238795325112868 -0.3639535720290143
vn 0.11825568406654843 0.9238795325112868 -0.36395357202901435
vn 0.3095974002490934 0.9238795325112868 -0.22493567784086396
vn 0.3826834323650898 0.9238795325112868 -9.373040810652596e-17
vn 0.7071067811865475 0.7071067811865476 0
vn 0.5720614028176843 0.7071067811865476 0.4156269377774534
vn 0.21850801222441055 0.7071067811865476 0.6724985119639573
vn -0.21850801222441046 0.7071067811865476 0.6724985119639573
vn -0.5720614028176841 0.7071067811865476 0.41562693777745346
vn -0.7071067811865475 0.7071067811865476 8.659560562354932e-17
vn -0.5720614028176843 0.7071067811865476 -0.4156269377774533
vn -0.2185080122244106 0.7071067811865476 -0.6724985119639573
vn 0.21850801222441038 0.7071067811865476 -0.6724985119639573
vn 0.5720614028176841 0.7071067811865476 -0.4156269377774536
vn 0.7071067811865475 0.7071067811865476 -1.7319121124709863e-16
vn 0.9238795325112868 0.38268343236508984 0
vn 0.7474342425568128 0.38268343236508984 0.5430427641049989
vn 0.28549447630116936 0.38268343236508984 0.8786616496665794
vn -0.28549447630116925 0.38268343236508984 0.8786616496665794
vn -0.7474342425568127 0.38268343236508984 0.543042764104999
vn -0.9238795325112868 0.38268343236508984 1.1314261122877003e-16
vn -0.7474342425568128 0.38268343236508984 -0.5430427641049987
vn -0.2854944763011695 0.38268343236508984 -0.8786616496665794
vn 0.28549447630116914 0.38268343236508984 -0.8786616496665794
vn 0.7474342425568127 0.38268343236508984 -0.543042764104999
vn 0.9238795325112868 0.38268343236508984 -2.2628522245754005e-16
vn 1 6.123233995736766e-17 0
vn 0.8090169943749475 6.123233995736766e-17 0.5877852522924731
vn 0.30901699437494745 6.123233995736766e-17 0.9510565162951534
vn -0.30901699437494734 6.123233995736766e-17 0.9510565162951536
vn -0.8090169943749473 6.123233995736766e-17 0.5877852522924732
vn -1 6.123233995736766e-17 1.2246467991473532e-16
vn -0.8090169943749475 6.123233995736766e-17 -0.587785252292473
vn -0.30901699437494756 6.123233995736766e-17 -0.9510565162951534
vn 0.30901699437494723 6.123233995736766e-17 -0.9510565162951536
vn 0.8090169943749473 6.123233995736766e-17 -0.5877852522924734
vn 1 6.123233995736766e-17 -2.4492935982947064e-16
vn 0.9238795325112868 -0.3826834323650897 0
vn 0.7474342425568128 -0.3826834323650897 0.5430427641049989
vn 0.28549447630116936 -0.3826834323650897 0.8786616496665794
vn -0.28549447630116925 -0.3826834323650897 0.8786616496665794
vn -0.7474342425568127 -0.3826834323650897 0.543042764104999
vn -0.9238795325112868 -0.3826834323650897 1.1314261122877003e-16
vn -0.7474342425568128 -0.3826834323650897 -0.5430427641049987
vn -0.2854944763011695 -0.3826834323650897 -0.8786616496665794
vn 0.28549447630116914 -0.3826834323650897 -0.8786616496665794
vn 0.7474342425568127 -0.3826834323650897 -0.543042764104999
vn 0.9238795325112868 -0.3826834323650897 -2.2628522245754005e-16
vn 0.7071067811865476 -0.7071067811865475 0
vn 0.5720614028176844 -0.7071067811865475 0.41562693777745346
vn 0.21850801222441055 -0.7071067811865475 0.6724985119639574
vn -0.21850801222441052 -0.7071067811865475 0.6724985119639574
vn -0.5720614028176843 -0.7071067811865475 0.4156269377774535
vn -0.7071067811865476 -0.7071067811865475 8.659560562354934e-17
vn -0.5720614028176844 -0.7071067811865475 -0.4156269377774534
vn -0.21850801222441066 -0.7071067811865475 -0.6724985119639574
vn 0.2185080122244104 -0.7071067811865475 -0.6724985119639574
vn 0.5720614028176843 -0.7071067811865475 -0.41562693777745363
vn 0.7071067811865476 -0.7071067811865475 -1.7319121124709868e-16
vn 0.3826834323650899 -0.9238795325112868 0
vn 0.3095974002490935 -0.9238795325112868 0.22493567784086396
vn 0.11825568406654857 -0.9238795325112868 0.3639535720290144
vn -0.11825568406654853 -0.9238795325112868 0.36395357202901446
vn -0.3095974002490935 -0.9238795325112868 0.224935677840864
vn -0.3826834323650899 -0.9238795325112868 4.6865204053263004e-17
vn -0.3095974002490935 -0.9238795325112868 -0.2249356778408639
vn -0.11825568406654863 -0.9238795325112868 -0.3639535720290144
vn 0.11825568406654849 -0.9238795325112868 -0.36395357202901446
vn 0.3095974002490935 -0.9238795325112868 -0.224935677840864
vn 0.3826834323650899 -0.9238795325112868 -9.373040810652601e-17
vn 1.2246467991473532e-16 -1 0
vn 9.907600726170916e-17 -1 7.198293278059966e-17
vn 3.7843667304341506e-17 -1 1.1647083184890923e-16
vn -3.7843667304341493e-17 -1 1.1647083184890926e-16
vn -9.907600726170915e-17 -1 7.198293278059968e-17
vn -1.2246467991473532e-16 -1 1.4997597826618576e-32
vn -9.907600726170916e-17 -1 -7.198293278059965e-17
vn -3.784366730434152e-17 -1 -1.1647083184890923e-16
vn 3.7843667304341475e-17 -1 -1.1647083184890926e-16
vn 9.907600726170915e-17 -1 -7.19829327805997e-17
vn 1.2246467991473532e-16 -1 -2.999519565323715e-32
vn 0 -1 0
vn 0 -1 0
vn 0 -1 0
vn 0 -1 0
vn 0 -1 0
vn 0 -1 0
vn 0 -1 0
vn 0 -1 0
vn 0 -1 0
vn 0 -1 0
vn 0 -1 0
vn 0 -1 0
vn 0 1 0
vn 0 1 0
vn 0 1 0
vn 0 1 0
vn 0 1 0
vn 0 1 0
vn 0 1 0
vn 0 1 0
vn 0 1 0
vn 0 1 0
vn 0 1 0
vn 0 1 0
vn 0 -1 0
vn 0 1 0
f 1/1/1 2/2/2 10/10/10
f 1/1/1 10/10/10 9/9/9
f 17/17/17 2/2/2 1/1/1
f 18/18/18 9/9/9 10/10/10
f 2/2/2 3/3/3 11/11/11
f 2/2/2 11/11/11 10/10/10
f 17/17/17 3/3/3 2/2/2
f 18/18/18 10/10/10 11/11/11
f 3/3/3 4/4/4 12/12/12
f 3/3/3 12/12/12 11/11/11
f 17/17/17 4/4/4 3/3/3
f 18/18/18 11/11/11 12/12/12
f 4/4/4 5/5/5 13/13/13
f 4/4/4 13/13/13 12/12/12
f 17/17/17 5/5/5 4/4/4
f 18/18/18 12/12/12 13/13/13
f 5/5/5 6/6/6 14/14/14
f 5/5/5 14/14/14 13/13/13
f 17/17/17 6/6/6 5/5/5
f 18/18/18 13/13/13 14/14/14
f 6/6/6 7/7/7 15/15/15
f 6/6/6 15/15/15 14/14/14
f 17/17/17 7/7/7 6/6/6
f 18/18/18 14/14/14 15/15/15
f 7/7/7 8/8/8 16/16/16
f 7/7/7 16/16/16 15/15/15
f 17/17/17 8/8/8 7/7/7
f 18/18/18 15/15/15 16/16/16
f 8/8/8 1/1/1 9/9/9
f 8/8/8 9/9/9 16/16/16
f 17/17/17 1/1/1 8/8/8
f 18/18/18 16/16/16 9/9/9
f 19/19/19 30/30/30 31/31/31
f 19/19/19 31/31/31 20/20/20
f 20/20/20 31/31/31 32/32/32
f 20/20/20 32/32/32 21/21/21
f 21/21/21 32/32/32 33/33/33
f 21/21/21 33/33/33 22/22/22
f 22/22/22 33/33/33 34/34/34
f 22/22/22 34/34/34 23/23/23
f 23/23/23 34/34/34 35/35/35
f 23/23/23 35/35/35 24/24/24
f 24/24/24 35/35/35 36/36/36
f 24/24/24 36/36/36 25/25/25
f 25/25/25 36/36/36 37/37/37
f 25/25/25 37/37/37 26/26/26
f 26/26/26 37/37/37 38/38/38
f 26/26/26 38/38/38 27/27/27
f 27/27/27 38/38/38 39/39/39
f 27/27/27 39/39/39 28/28/28
f 28/28/28 39/39/39 40/40/40
f 28/28/28 40/40/40 29/29/29
f 30/30/30 41/41/41 42/42/42
f 30/30/30 42/42/42 31/31/31
f 31/31/31 42/42/42 43/43/43
f 31/31/31 43/43/43 32/32/32
f 32/32/32 43/43/43 44/44/44
f 32/32/32 44/44/44 33/33/33
f 33/33/33 44/44/44 45/45/45
f 33/33/33 45/45/45 34/34/34
f 34/34/34 45/45/45 46/46/46
f 34/34/34 46/46/46 35/35/35
f 35/35/35 46/46/46 47/47/47
f 35/35/35 47/47/47 36/36/36
f 36/36/36 47/47/47 48/48/48
f 36/36/36 48/48/48 37/37/37
f 37/37/37 48/48/48 49/49/49
f 37/37/37 49/49/49 38/38/38
f 38/38/38 49/49/49 50/50/50
f 38/38/38 50/50/50 39/39/39
f 39/39/39 50/50/50 51/51/51
f 39/39/39 51/51/51 40/40/40
f 41/41/41 52/52/52 53/53/53
f 41/41/41 53/53/53 42/42/42
f 42/42/42 53/53/53 54/54/54
f 42/42/42 54/54/54 43/43/43
f 43/43/43 54/54/54 55/55/55
f 43/43/43 55/55/55 44/44/44
f 44/44/44 55/55/55 56/56/56
f 44/44/44 56/56/56 45/45/45
f 45/45/45 56/56/56 57/57/57
f 45/45/45 57/57/57 46/46/46
f 46/46/46 57/57/57 58/58/58
f 46/46/46 58/58/58 47/47/47
f 47/47/47 58/58/58 59/59/59
f 47/47/47 59/59/59 48/48/48
f 48/48/48 59/59/59 60/60/60
f 48/48/48 60/60/60 49/49/49
f 49/49/49 60/60/60 61/61/61
f 49/49/49 61/61/61 50/50/50
f 50/50/50 61/61/61 62/62/62
f 50/50/50 62/62/62 51/51/51
f 52/52/52 63/63/63 64/64/64
f 52/52/52 64/64/64 53/53/53
f 53/53/53 64/64/64 65/65/65
f 53/53/53 65/65/65 54/54/54
f 54/54/54 65/65/65 66/66/66
f 54/54/54 66/66/66 55/55/55
f 55/55/55 66/66/66 67/67/67
f 55/55/55 67/67/67 56/56/56
f 56/56/56 67/67/67 68/68/68
f 56/56/56 68/68/68 57/57/57
f 57/57/57 68/68/68 69/69/69
f 57/57/57 69/69/69 58/58/58
f 58/58/58 69/69/69 70/70/70
f 58/58/58 70/70/70 59/59/59
f 59/59/59 70/70/70 71/71/71
f 59/59/59 71/71/71 60/60/60
f 60/60/60 71/71/71 72/72/72
f 60/60/60 72/72/72 61/61/61
f 61/61/61 72/72/72 73/73/73
f 61/61/61 73/73/73 62/62/62
f 63/63/63 74/74/74 75/75/75
f 63/63/63 75/75/75 64/64/64
f 64/64/64 75/75/75 76/76/76
f 64/64/64 76/76/76 65/65/65
f 65/65/65 76/76/76 77/77/77
f 65/65/65 77/77/77 66/66/66
f 66/66/66 77/77/77 78/78/78
f 66/66/66 78/78/78 67/67/67
f 67/67/67 78/78/78 79/79/79
f 67/67/67 79/79/79 68/68/68
f 68/68/68 79/79/79 80/80/80
f 68/68/68 80/80/80 69/69/69
f 69/69/69 80/80/80 81/81/81
f 69/69/69 81/81/81 70/70/70
f 70/70/70 81/81/81 82/82/82
f 70/70/70 82/82/82 71/71/71
f 71/71/71 82/82/82 83/83/83
f 71/71/71 83/83/83 72/72/72
f 72/72/72 83/83/83 84/84/84
f 72/72/72 84/84/84 73/73/73
f 74/74/74 85/85/85 86/86/86
f 74/74/74 86/86/86 75/75/75
f 75/75/75 86/86/86 87/87/87
f 75/75/75 87/87/87 76/76/76
f 76/76/76 87/87/87 88/88/88
f 76/76/76 88/88/88 77/77/77
f 77/77/77 88/88/88 89/89/89
f 77/77/77 89/89/89 78/78/78
f 78/78/78 89/89/89 90/90/90
f 78/78/78 90/90/90 79/79/79
f 79/79/79 90/90/90 91/91/91
f 79/79/79 91/91/91 80/80/80
f 80/80/80 91/91/91 92/92/92
f 80/80/80 92/92/92 81/81/81
f 81/81/81 92/92/92 93/93/93
f 81/81/81 93/93/93 82/82/82
f 82/82/82 93/93/93 94/94/94
f 82/82/82 94/94/94 83/83/83
f 83/83/83 94/94/94 95/95/95
f 83/83/83 95/95/95 84/84/84
f 85/85/85 96/96/96 97/97/97
f 85/85/85 97/97/97 86/86/86
f 86/86/86 97/97/97 98/98/98
f 86/86/86 98/98/98 87/87/87
f 87/87/87 98/98/98 99/99/99
f 87/87/87 99/99/99 88/88/88
f 88/88/88 99/99/99 100/100/100
f 88/88/88 100/100/100 89/89/89
f 89/89/89 100/100/100 101/101/101
f 89/89/89 101/101/101 90/90/90
f 90/90/90 101/101/101 102/102/102
f 90/90/90 102/102/102 91/91/91
f 91/91/91 102/102/102 103/103/103
f 91/91/91 103/103/103 92/92/92
f 92/92/92 103/103/103 104/104/104
f 92/92/92 104/104/104 93/93/93
f 93/93/93 104/104/104 105/105/105
f 93/93/93 105/105/105 94/94/94
f 94/94/94 105/105/105 106/106/106
f 94/94/94 106/106/106 95/95/95
f 96/96/96 107/107/107 108/108/108
f 96/96/96 108/108/108 97/97/97
f 97/97/97 108/108/108 109/109/109
f 97/97/97 109/109/109 98/98/98
f 98/98/98 109/109/109 110/110/110
f 98/98/98 110/110/110 99/99/99
f 99/99/99 110/110/110 111/111/111
f 99/99/99 111/111/111 100/100/100
f 100/100/100 111/111/111 112/112/112
f 100/100/100 112/112/112 101/101/101
f 101/101/101 112/112/112 113/113/113
f 101/101/101 113/113/113 102/102/102
f 102/102/102 113/113/113 114/114/114
f 102/102/102 114/114/114 103/103/103
f 103/103/103 114/114/114 115/115/115
f 103/103/103 115/115/115 104/104/104
f 104/104/104 115/115/115 116/116/116
f 104/104/104 116/116/116 105/105/105
f 105/105/105 116/116/116 117/117/117
f 105/105/105 117/117/117 106/106/106
f 118/118/118 129/129/129 130/130/130
f 118/118/118 130/130/130 119/119/119
f 119/119/119 130/130/130 131/131/131
f 119/119/119 131/131/131 120/120/120
f 120/120/120 131/131/131 132/132/132
f 120/120/120 132/132/132 121/121/121
f 121/121/121 132/132/132 133/133/133
f 121/121/121 133/133/133 122/122/122
f 122/122/122 133/133/133 134/134/134
f 122/122/122 134/134/134 123/123/123
f 123/123/123 134/134/134 135/135/135
f 123/123/123 135/135/135 124/124/124
f 124/124/124 135/135/135 136/136/136
f 124/124/124 136/136/136 125/125/125
f 125/125/125 136/136/136 137/137/137
f 125/125/125 137/137/137 126/126/126
f 126/126/126 137/137/137 138/138/138
f 126/126/126 138/138/138 127/127/127
f 127/127/127 138/138/138 139/139/139
f 127/127/127 139/139/139 128/128/128
f 129/129/129 140/140/140 141/141/141
f 129/129/129 141/141/141 130/130/130
f 130/130/130 141/141/141 142/142/142
f 130/130/130 142/142/142 131/131/131
f 131/131/131 142/142/142 143/143/143
f 131/131/131 143/143/143 132/132/132
f 132/132/132 143/143/143 144/144/144
f 132/132/132 144/144/144 133/133/133
f 133/133/133 144/144/144 145/145/145
f 133/133/133 145/145/145 134/134/134
f 134/134/134 145/145/145 146/146/146
f 134/134/134 146/146/146 135/135/135
f 135/135/135 146/146/146 147/147/147
f 135/135/135 147/147/147 136/136/136
f 136/136/136 147/147/147 148/148/148
f 136/136/136 148/148/148 137/137/137
f 137/137/137 148/148/148 149/149/149
f 137/137/137 149/149/149 138/138/138
f 138/138/138 149/149/149 150/150/150
f 138/138/138 150/150/150 139/139/139
f 140/140/140 151/151/151 152/152/152
f 140/140/140 152/152/152 141/141/141
f 141/141/141 152/152/152 153/153/153
f 141/141/141 153/153/153 142/142/142
f 142/142/142 153/153/153 154/154/154
f 142/142/142 154/154/154 143/143/143
f 143/143/143 154/154/154 155/155/155
f 143/143/143 155/155/155 144/144/144
f 144/144/144 155/155/155 156/156/156
f 144/144/144 156/156/156 145/145/145
f 145/145/145 156/156/156 157/157/157
f 145/145/145 157/157/157 146/146/146
f 146/146/146 157/157/157 158/158/158
f 146/146/146 158/158/158 147/147/147
f 147/147/147 158/158/158 159/159/159
f 147/147/147 159/159/159 148/148/148
f 148/148/148 159/159/159 160/160/160
f 148/148/148 160/160/160 149/149/149
f 149/149/149 160/160/160 161/161/161
f 149/149/149 161/161/161 150/150/150
f 151/151/151 162/162/162 163/163/163
f 151/151/151 163/163/163 152/152/152
f 152/152/152 163/163/163 164/164/164
f 152/152/152 164/164/164 153/153/153
f 153/153/153 164/164/164 165/165/165
f 153/153/153 165/165/165 154/154/154
f 154/154/154 165/165/165 166/166/166
f 154/154/154 166/166/166 155/155/155
f 155/155/155 166/166/166 167/167/167
f 155/155/155 167/167/167 156/156/156
f 156/156/156 167/167/167 168/168/168
f 156/156/156 168/168/168 157/157/157
f 157/157/157 168/168/168 169/169/169
f 157/157/157 169/169/169 158/158/158
f 158/158/158 169/169/169 170/170/170
f 158/158/158 170/170/170 159/159/159
f 159/159/159 170/170/170 171/171/171
f 159/159/159 171/171/171 160/160/160
f 160/160/160 171/171/171 172/172/172
f 160/160/160 172/172/172 161/161/161
f 162/162/162 173/173/173 174/174/174
f 162/162/162 174/174/174 163/163/163
f 163/163/163 174/174/174 175/175/175
f 163/163/163 175/175/175 164/164/164
f 164/164/164 175/175/175 176/176/176
f 164/164/164 176/176/176 165/165/165
f 165/165/165 176/176/176 177/177/177
f 165/165/165 177/177/177 166/166/166
f 166/166/166 177/177/177 178/178/178
f 166/166/166 178/178/178 167/167/167
f 167/167/167 178/178/178 179/179/179
f 167/167/167 179/179/179 168/168/168
f 168/168/168 179/179/179 180/180/180
f 168/168/168 180/180/180 169/169/169
f 169/169/169 180/180/180 181/181/181
f 169/169/169 181/181/181 170/170/170
f 170/170/170 181/181/181 182/182/182
f 170/170/170 182/182/182 171/171/171
f 171/171/171 182/182/182 183/183/183
f 171/171/171 183/183/183 172/172/172
f 173/173/173 184/184/184 185/185/185
f 173/173/173 185/185/185 174/174/174
f 174/174/174 185/185/185 186/186/186
f 174/174/174 186/186/186 175/175/175
f 175/175/175 186/186/186 187/187/187
f 175/175/175 187/187/187 176/176/176
f 176/176/176 187/187/187 188/188/188
f 176/176/176 188/188/188 177/177/177
f 177/177/177 188/188/188 189/189/189
f 177/177/177 189/189/189 178/178/178
f 178/178/178 189/189/189 190/190/190
f 178/178/178 190/190/190 179/179/179
f 179/179/179 190/190/190 191/191/191
f 179/179/179 191/191/191 180/180/180
f 180/180/180 191/191/191 192/192/192
f 180/180/180 192/192/192 181/181/181
f 181/181/181 192/192/192 193/193/193
f 181/181/181 193/193/193 182/182/182
f 182/182/182 193/193/193 194/194/194
f 182/182/182 194/194/194 183/183/183
f 184/184/184 195/195/195 196/196/196
f 184/184/184 196/196/196 185/185/185
f 185/185/185 196/196/196 197/197/197
f 185/185/185 197/197/197 186/186/186
f 186/186/186 197/197/197 198/198/198
f 186/186/186 198/198/198 187/187/187
f 187/187/187 198/198/198 199/199/199
f 187/187/187 199/199/199 188/188/188
f 188/188/188 199/199/199 200/200/200
f 188/188/188 200/200/200 189/189/189
f 189/189/189 200/200/200 201/201/201
f 189/189/189 201/201/201 190/190/190
f 190/190/190 201/201/201 202/202/202
f 190/190/190 202/202/202 191/191/191
f 191/191/191 202/202/202 203/203/203
f 191/191/191 203/203/203 192/192/192
f 192/192/192 203/203/203 204/204/204
f 192/192/192 204/204/204 193/193/193
f 193/193/193 204/204/204 205/205/205
f 193/193/193 205/205/205 194/194/194
f 195/195/195 206/206/206 207/207/207
f 195/195/195 207/207/207 196/196/196
f 196/196/196 207/207/207 208/208/208
f 196/196/196 208/208/208 197/197/197
f 197/197/197 208/208/208 209/209/209
f 197/197/197 209/209/209 198/198/198
f 198/198/198 209/209/209 210/210/210
f 198/198/198 210/210/210 199/199/199
f 199/199/199 210/210/210 211/211/211
f 199/199/199 211/211/211 200/200/200
f 200/200/200 211/211/211 212/212/212
f 200/200/200 212/212/212 201/201/201
f 201/201/201 212/212/212 213/213/213
f 201/201/201 213/213/213 202/202/202
f 202/202/202 213/213/213 214/214/214
f 202/202/202 214/214/214 203/203/203
f 203/203/203 214/214/214 215/215/215
f 203/203/203 215/215/215 204/204/204
f 204/204/204 215/215/215 216/216/216
f 204/204/204 216/216/216 205/205/205
f 217/217/217 228/228/228 229/229/229
f 217/217/217 229/229/229 218/218/218
f 218/218/218 229/229/229 230/230/230
f 218/218/218 230/230/230 219/219/219
f 219/219/219 230/230/230 231/231/231
f 219/219/219 231/231/231 220/220/220
f 220/220/220 231/231/231 232/232/232
f 220/220/220 232/232/232 221/221/221
f 221/221/221 232/232/232 233/233/233
f 221/221/221 233/233/233 222/222/222
f 222/222/222 233/233/233 234/234/234
f 222/222/222 234/234/234 223/223/223
f 223/223/223 234/234/234 235/235/235
f 223/223/223 235/235/235 224/224/224
f 224/224/224 235/235/235 236/236/236
f 224/224/224 236/236/236 225/225/225
f 225/225/225 236/236/236 237/237/237
f 225/225/225 237/237/237 226/226/226
f 226/226/226 237/237/237 238/238/238
f 226/226/226 238/238/238 227/227/227
f 228/228/228 239/239/239 240/240/240
f 228/228/228 240/240/240 229/229/229
f 229/229/229 240/240/240 241/241/241
f 229/229/229 241/241/241 230/230/230
f 230/230/230 241/241/241 242/242/242
f 230/230/230 242/242/242 231/231/231
f 231/231/231 242/242/242 243/243/243
f 231/231/231 243/243/243 232/232/232
f 232/232/232 243/243/243 244/244/244
f 232/232/232 244/244/244 233/233/233
f 233/233/233 244/244/244 245/245/245
f 233/233/233 245/245/245 234/234/234
f 234/234/234 245/245/245 246/246/246
f 234/234/234 246/246/246 235/235/235
f 235/235/235 246/246/246 247/247/247
f 235/235/235 247/247/247 236/236/236
f 236/236/236 247/247/247 248/248/248
f 236/236/236 248/248/248 237/237/237
f 237/237/237 248/248/248 249/249/249
f 237/237/237 249/249/249 238/238/238
f 239/239/239 250/250/250 251/251/251
f 239/239/239 251/251/251 240/240/240
f 240/240/240 251/251/251 252/252/252
f 240/240/240 252/252/252 241/241/241
f 241/241/241 252/252/252 253/253/253
f 241/241/241 253/253/253 242/242/242
f 242/242/242 253/253/253 254/254/254
f 242/242/242 254/254/254 243/243/243
f 243/243/243 254/254/254 255/255/255
f 243/243/243 255/255/255 244/244/244
f 244/244/244 255/255/255 256/256/256
f 244/244/244 256/256/256 245/245/245
f 245/245/245 256/256/256 257/257/257
f 245/245/245 257/257/257 246/246/246
f 246/246/246 257/257/257 258/258/258
f 246/246/246 258/258/258 247/247/247
f 247/247/247 258/258/258 259/259/259
f 247/247/247 259/259/259 248/248/248
f 248/248/248 259/259/259 260/260/260
f 248/248/248 260/260/260 249/249/249
f 250/250/250 261/261/261 262/262/262
f 250/250/250 262/262/262 251/251/251
f 251/251/251 262/262/262 263/263/263
f 251/251/251 263/263/263 252/252/252
f 252/252/252 263/263/263 264/264/264
f 252/252/252 264/264/264 253/253/253
f 253/253/253 264/264/264 265/265/265
f 253/253/253 265/265/265 254/254/254
f 254/254/254 265/265/265 266/266/266
f 254/254/254 266/266/266 255/255/255
f 255/255/255 266/266/266 267/267/267
f 255/255/255 267/267/267 256/256/256
f 256/256/256 267/267/267 268/268/268
f 256/256/256 268/268/268 257/257/257
f 257/257/257 268/268/268 269/269/269
f 257/257/257 269/269/269 258/258/258
f 258/258/258 269/269/269 270/270/270
f 258/258/258 270/270/270 259/259/259
f 259/259/259 270/270/270 271/271/271
f 259/259/259 271/271/271 260/260/260
f 261/261/261 272/272/272 273/273/273
f 261/261/261 273/273/273 262/262/262
f 262/262/262 273/273/273 274/274/274
f 262/262/262 274/274/274 263/263/263
f 263/263/263 274/274/274 275/275/275
f 263/263/263 275/275/275 264/264/264
f 264/264/264 275/275/275 276/276/276
f 264/264/264 276/276/276 265/265/265
f 265/265/265 276/276/276 277/277/277
f 265/265/265 277/277/277 266/266/266
f 266/266/266 277/277/277 278/278/278
f 266/266/266 278/278/278 267/267/267
f 267/267/267 278/278/278 279/279/279
f 267/267/267 279/279/279 268/268/268
f 268/268/268 279/279/279 280/280/280
f 268/268/268 280/280/280 269/269/269
f 269/269/269 280/280/280 281/281/281
f 269/269/269 281/281/281 270/270/270
f 270/270/270 281/281/281 282/282/282
f 270/270/270 282/282/282 271/271/271
f 272/272/272 283/283/283 284/284/284
f 272/272/272 284/284/284 273/273/273
f 273/273/273 284/284/284 285/285/285
f 273/273/273 285/285/285 274/274/274
f 274/274/274 285/285/285 286/286/286
f 274/274/274 286/286/286 275/275/275
f 275/275/275 286/286/286 287/287/287
f 275/275/275 287/287/287 276/276/276
f 276/276/276 287/287/287 288/288/288
f 276/276/276 288/288/288 277/277/277
f 277/277/277 288/288/288 289/289/289
f 277/277/277 289/289/289 278/278/278
f 278/278/278 289/289/289 290/290/290
f 278/278/278 290/290/290 279/279/279
f 279/279/279 290/290/290 291/291/291
f 279/279/279 291/291/291 280/280/280
f 280/280/280 291/291/291 292/292/292
f 280/280/280 292/292/292 281/281/281
f 281/281/281 292/292/292 293/293/293
f 281/281/281 293/293/293 282/282/282
f 283/283/283 294/294/294 295/295/295
f 283/283/283 295/295/295 284/284/284
f 284/284/284 295/295/295 296/296/296
f 284/284/284 296/296/296 285/285/285
f 285/285/285 296/296/296 297/297/297
f 285/285/285 297/297/297 286/286/286
f 286/286/286 297/297/297 298/298/298
f 286/286/286 298/298/298 287/287/287
f 287/287/287 298/298/298 299/299/299
f 287/287/287 299/299/299 288/288/288
f 288/288/288 299/299/299 300/300/300
f 288/288/288 300/300/300 289/289/289
f 289/289/289 300/300/300 301/301/301
f 289/289/289 301/301/301 290/290/290
f 290/290/290 301/301/301 302/302/302
f 290/290/290 302/302/302 291/291/291
f 291/291/291 302/302/302 303/303/303
f 291/291/291 303/303/303 292/292/292
f 292/292/292 303/303/303 304/304/304
f 292/292/292 304/304/304 293/293/293
f 294/294/294 305/305/305 306/306/306
f 294/294/294 306/306/306 295/295/295
f 295/295/295 306/306/306 307/307/307
f 295/295/295 307/307/307 296/296/296
f 296/296/296 307/307/307 308/308/308
f 296/296/296 308/308/308 297/297/297
f 297/297/297 308/308/308 309/309/309
f 297/297/297 309/309/309 298/298/298
f 298/298/298 309/309/309 310/310/310
f 298/298/298 310/310/310 299/299/299
f 299/299/299 310/310/310 311/311/311
f 299/299/299 311/311/311 300/300/300
f 300/300/300 311/311/311 312/312/312
f 300/300/300 312/312/312 301/301/301
f 301/301/301 312/312/312 313/313/313
f 301/301/301 313/313/313 302/302/302
f 302/302/302 313/313/313 314/314/314
f 302/302/302 314/314/314 303/303/303
f 303/303/303 314/314/314 315/315/315
f 303/303/303 315/315/315 304/304/304
f 316/316/316 327/327/327 328/328/328
f 316/316/316 328/328/328 317/317/317
f 317/317/317 328/328/328 329/329/329
f 317/317/317 329/329/329 318/318/318
f 318/318/318 329/329/329 330/330/330
f 318/318/318 330/330/330 319/319/319
f 319/319/319 330/330/330 331/331/331
f 319/319/319 331/331/331 320/320/320
f 320/320/320 331/331/331 332/332/332
f 320/320/320 332/332/332 321/321/321
f 321/321/321 332/332/332 333/333/333
f 321/321/321 333/333/333 322/322/322
f 322/322/322 333/333/333 334/334/334
f 322/322/322 334/334/334 323/323/323
f 323/323/323 334/334/334 335/335/335
f 323/323/323 335/335/335 324/324/324
f 324/324/324 335/335/335 336/336/336
f 324/324/324 336/336/336 325/325/325
f 325/325/325 336/336/336 337/337/337
f 325/325/325 337/337/337 326/326/326
f 327/327/327 338/338/338 339/339/339
f 327/327/327 339/339/339 328/328/328
f 328/328/328 339/339/339 340/340/340
f 328/328/328 340/340/340 329/329/329
f 329/329/329 340/340/340 341/341/341
f 329/329/329 341/341/341 330/330/330
f 330/330/330 341/341/341 342/342/342
f 330/330/330 342/342/342 331/331/331
f 331/331/331 342/342/342 343/343/343
f 331/331/331 343/343/343 332/332/332
f 332/332/332 343/343/343 344/344/344
f 332/332/332 344/344/344 333/333/333
f 333/333/333 344/344/344 345/345/345
f 333/333/333 345/345/345 334/334/334
f 334/334/334 345/345/345 346/346/346
f 334/334/334 346/346/346 335/335/335
f 335/335/335 346/346/346 347/347/347
f 335/335/335 347/347/347 336/336/336
f 336/336/336 347/347/347 348/348/348
f 336/336/336 348/348/348 337/337/337
f 338/338/338 349/349/349 350/350/350
f 338/338/338 350/350/350 339/339/339
f 339/339/339 350/350/350 351/351/351
f 339/339/339 351/351/351 340/340/340
f 340/340/340 351/351/351 352/352/352
f 340/340/340 352/352/352 341/341/341
f 341/341/341 352/352/352 353/353/353
f 341/341/341 353/353/353 342/342/342
f 342/342/342 353/353/353 354/354/354
f 342/342/342 354/354/354 343/343/343
f 343/343/343 354/354/354 355/355/355
f 343/343/343 355/355/355 344/344/344
f 344/344/344 355/355/355 356/356/356
f 344/344/344 356/356/356 345/345/345
f 345/345/345 356/356/356 357/357/357
f 345/345/345 357/357/357 346/346/346
f 346/346/346 357/357/357 358/358/358
f 346/346/346 358/358/358 347/347/347
f 347/347/347 358/358/358 359/359/359
f 347/347/347 359/359/359 348/348/348
f 349/349/349 360/360/360 361/361/361
f 349/349/349 361/361/361 350/350/350
f 350/350/350 361/361/361 362/362/362
f 350/350/350 362/362/362 351/351/351
f 351/351/351 362/362/362 363/363/363
f 351/351/351 363/363/363 352/352/352
f 352/352/352 363/363/363 364/364/364
f 352/352/352 364/364/364 353/353/353
f 353/353/353 364/364/364 365/365/365
f 353/353/353 365/365/365 354/354/354
f 354/354/354 365/365/365 366/366/366
f 354/354/354 366/366/366 355/355/355
f 355/355/355 366/366/366 367/367/367
f 355/355/355 367/367/367 356/356/356
f 356/356/356 367/367/367 368/368/368
f 356/356/356 368/368/368 357/357/357
f 357/357/357 368/368/368 369/369/369
f 357/357/357 369/369/369 358/358/358
f 358/358/358 369/369/369 370/370/370
f 358/358/358 370/370/370 359/359/359
f 360/360/360 371/371/371 372/372/372
f 360/360/360 372/372/372 361/361/361
f 361/361/361 372/372/372 373/373/373
f 361/361/361 373/373/373 362/362/362
f 362/362/362 373/373/373 374/374/374
f 362/362/362 374/374/374 363/363/363
f 363/363/363 374/374/374 375/375/375
f 363/363/363 375/375/375 364/364/364
f 364/364/364 375/375/375 376/376/376
f 364/364/364 376/376/376 365/365/365
f 365/365/365 376/376/376 377/377/377
f 365/365/365 377/377/377 366/366/366
f 366/366/366 377/377/377 378/378/378
f 366/366/366 378/378/378 367/367/367
f 367/367/367 378/378/378 379/379/379
f 367/367/367 379/379/379 368/368/368
f 368/368/368 379/379/379 380/380/380
f 368/368/368 380/380/380 369/369/369
f 369/369/369 380/380/380 381/381/381
f 369/369/369 381/381/381 370/370/370
f 371/371/371 382/382/382 383/383/383
f 371/371/371 383/383/383 372/372/372
f 372/372/372 383/383/383 384/384/384
f 372/372/372 384/384/384 373/373/373
f 373/373/373 384/384/384 385/385/385
f 373/373/373 385/385/385 374/374/374
f 374/374/374 385/385/385 386/386/386
f 374/374/374 386/386/386 375/375/375
f 375/375/375 386/386/386 387/387/387
f 375/375/375 387/387/387 376/376/376
f 376/376/376 387/387/387 388/388/388
f 376/376/376 388/388/388 377/377/377
f 377/377/377 388/388/388 389/389/389
f 377/377/377 389/389/389 378/378/378
f 378/378/378 389/389/389 390/390/390
f 378/378/378 390/390/390 379/379/379
f 379/379/379 390/390/390 391/391/391
f 379/379/379 391/391/391 380/380/380
f 380/380/380 391/391/391 392/392/392
f 380/380/380 392/392/392 381/381/381
f 382/382/382 393/393/393 394/394/394
f 382/382/382 394/394/394 383/383/383
f 383/383/383 394/394/394 395/395/395
f 383/383/383 395/395/395 384/384/384
f 384/384/384 395/395/395 396/396/396
f 384/384/384 396/396/396 385/385/385
f 385/385/385 396/396/396 397/397/397
f 385/385/385 397/397/397 386/386/386
f 386/386/386 397/397/397 398/398/398
f 386/386/386 398/398/398 387/387/387
f 387/387/387 398/398/398 399/399/399
f 387/387/387 399/399/399 388/388/388
f 388/388/388 399/399/399 400/400/400
f 388/388/388 400/400/400 389/389/389
f 389/389/389 400/400/400 401/401/401
f 389/389/389 401/401/401 390/390/390
f 390/390/390 401/401/401 402/402/402
f 390/390/390 402/402/402 391/391/391
f 391/391/391 402/402/402 403/403/403
f 391/391/391 403/403/403 392/392/392
f 393/393/393 404/404/404 405/405/405
f 393/393/393 405/405/405 394/394/394
f 394/394/394 405/405/405 406/406/406
f 394/394/394 406/406/406 395/395/395
f 395/395/395 406/406/406 407/407/407
f 395/395/395 407/407/407 396/396/396
f 396/396/396 407/407/407 408/408/408
f 396/396/396 408/408/408 397/397/397
f 397/397/397 408/408/408 409/409/409
f 397/397/397 409/409/409 398/398/398
f 398/398/398 409/409/409 410/410/410
f 398/398/398 410/410/410 399/399/399
f 399/399/399 410/410/410 411/411/411
f 399/399/399 411/411/411 400/400/400
f 400/400/400 411/411/411 412/412/412
f 400/400/400 412/412/412 401/401/401
f 401/401/401 412/412/412 413/413/413
f 401/401/401 413/413/413 402/402/402
f 402/402/402 413/413/413 414/414/414
f 402/402/402 414/414/414 403/403/403
f 415/415/415 416/416/416 428/428/428
f 415/415/415 428/428/428 427/427/427
f 439/439/439 416/416/416 415/415/415
f 440/440/440 427/427/427 428/428/428
f 416/416/416 417/417/417 429/429/429
f 416/416/416 429/429/429 428/428/428
f 439/439/439 417/417/417 416/416/416
f 440/440/440 428/428/428 429/429/429
f 417/417/417 418/418/418 430/430/430
f 417/417/417 430/430/430 429/429/429
f 439/439/439 418/418/418 417/417/417
f 440/440/440 429/429/429 430/430/430
f 418/418/418 419/419/419 431/431/431
f 418/418/418 431/431/431 430/430/430
f 439/439/439 419/419/419 418/418/418
f 440/440/440 430/430/430 431/431/431
f 419/419/419 420/420/420 432/432/432
f 419/419/419 432/432/432 431/431/431
f 439/439/439 420/420/420 419/419/419
f 440/440/440 431/431/431 432/432/432
f 420/420/420 421/421/421 433/433/433
f 420/420/420 433/433/433 432/432/432
f 439/439/439 421/421/421 420/420/420
f 440/440/440 432/432/432 433/433/433
f 421/421/421 422/422/422 434/434/434
f 421/421/421 434/434/434 433/433/433
f 439/439/439 422/422/422 421/421/421
f 440/440/440 433/433/433 434/434/434
f 422/422/422 423/423/423 435/435/435
f 422/422/422 435/435/435 434/434/434
f 439/439/439 423/423/423 422/422/422
f 440/440/440 434/434/434 435/435/435
f 423/423/423 424/424/424 436/436/436
f 423/423/423 436/436/436 435/435/435
f 439/439/439 424/424/424 423/423/423
f 440/440/440 435/435/435 436/436/436
f 424/424/424 425/425/425 437/437/437
f 424/424/424 437/437/437 436/436/436
f 439/439/439 425/425/425 424/424/424
f 440/440/440 436/436/436 437/437/437
f 425/425/425 426/426/426 438/438/438
f 425/425/425 438/438/438 437/437/437
f 439/439/439 426/426/426 425/425/425
f 440/440/440 437/437/437 438/438/438
f 426/426/426 415/415/415 427/427/427
f 426/426/426 427/427/427 438/438/438
f 439/439/439 415/415/415 426/426/426
f 440/440/440 438/438/438 427/427/427