# 3D Model: ship/hull/20250401005245 (v6 Gemini)
# Style: LNG Carrier Ship | Symmetry: symmetric
# Dimensions: 285 x 43.537 x 45.616 m
# Triangles: 820 | Vertices: 477
v -142.5 21.3701 13.2286
v -142.5 21.3701 -13.2286
v -142.5 5.1288 -9.5794
v -142.5 5.1288 9.5794
v -142.5 0 0
v -108.3 21.3701 20.9834
v -108.3 21.3701 -20.9834
v -108.3 5.1288 -13.2286
v -108.3 5.1288 13.2286
v -108.3 0 0
v 51.3 21.3701 22.808
v 51.3 21.3701 -22.808
v 51.3 5.1288 -14.141
v 51.3 5.1288 14.141
v 51.3 0 0
v 102.6 21.3701 18.7026
v 102.6 21.3701 -18.7026
v 102.6 5.1288 -11.404
v 102.6 5.1288 11.404
v 102.6 0 0
v 142.5 21.3701 0.7983
v 142.5 21.3701 -0.7983
v 142.5 5.1288 -0.3421
v 142.5 5.1288 0.3421
v 142.5 0 0
v -75.999 30.7217 0
v -75.999 30.7217 0
v -75.999 30.7217 0
v -75.999 30.7217 0
v -75.999 30.7217 0
v -75.999 30.7217 0
v -75.999 30.7217 0
v -75.999 30.7217 0
v -75.999 30.7217 0
v -75.999 30.7217 0
v -75.999 30.7217 0
v -75.9997 30.542 -3.5818
v -73.3688 30.542 -2.8983
v -71.7426 30.542 -1.1077
v -71.7421 30.542 1.106
v -73.3677 30.542 2.8972
v -75.9983 30.542 3.5818
v -78.6292 30.542 2.8983
v -80.2554 30.542 1.1077
v -80.2559 30.542 -1.106
v -78.6303 30.542 -2.8972
v -75.9997 30.542 -3.5818
v -76.0004 30.0099 -7.026
v -70.8398 30.0099 -5.6852
v -67.6497 30.0099 -2.1728
v -67.6489 30.0099 2.1694
v -70.8374 30.0099 5.6831
v -75.9976 30.0099 7.026
v -81.1582 30.0099 5.6852
v -84.3483 30.0099 2.1728
v -84.3491 30.0099 -2.1694
v -81.1606 30.0099 -5.6831
v -76.0004 30.0099 -7.026
v -76.0011 29.1457 -10.2001
v -68.5089 29.1457 -8.2536
v -63.8778 29.1457 -3.1545
v -63.8765 29.1457 3.1495
v -68.5056 29.1457 8.2505
v -75.9969 29.1457 10.2001
v -83.4891 29.1457 8.2536
v -88.1202 29.1457 3.1545
v -88.1215 29.1457 -3.1495
v -83.4924 29.1457 -8.2505
v -76.0011 29.1457 -10.2001
v -76.0016 27.9827 -12.9823
v -66.466 27.9827 -10.5048
v -60.5716 27.9827 -4.0149
v -60.5699 27.9827 4.0086
v -66.4617 27.9827 10.501
v -75.9964 27.9827 12.9823
v -85.532 27.9827 10.5048
v -91.4264 27.9827 4.0149
v -91.4281 27.9827 -4.0086
v -85.5363 27.9827 -10.501
v -76.0016 27.9827 -12.9823
v -76.0021 26.5656 -15.2656
v -64.7893 26.5656 -12.3524
v -57.8583 26.5656 -4.721
v -57.8563 26.5656 4.7136
v -64.7843 26.5656 12.3478
v -75.9959 26.5656 15.2656
v -87.2087 26.5656 12.3524
v -94.1397 26.5656 4.721
v -94.1417 26.5656 -4.7136
v -87.2137 26.5656 -12.3478
v -76.0021 26.5656 -15.2656
v -76.0025 24.9488 -16.9622
v -63.5435 24.9488 -13.7252
v -55.8421 24.9488 -5.2457
v -55.84 24.9488 5.2375
v -63.5379 24.9488 13.7202
v -75.9955 24.9488 16.9622
v -88.4545 24.9488 13.7252
v -96.1559 24.9488 5.2457
v -96.158 24.9488 -5.2375
v -88.4601 24.9488 -13.7202
v -76.0025 24.9488 -16.9622
v -76.0027 23.1945 -18.007
v -62.7763 23.1945 -14.5706
v -54.6006 23.1945 -5.5688
v -54.5983 23.1945 5.5601
v -62.7704 23.1945 14.5652
v -75.9953 23.1945 18.007
v -89.2217 23.1945 14.5706
v -97.3974 23.1945 5.5688
v -97.3997 23.1945 -5.5601
v -89.2276 23.1945 -14.5652
v -76.0027 23.1945 -18.007
v -76.0027 21.3701 -18.3597
v -62.5172 21.3701 -14.8561
v -54.1813 21.3701 -5.6779
v -54.179 21.3701 5.669
v -62.5112 21.3701 14.8506
v -75.9953 21.3701 18.3597
v -89.4808 21.3701 14.8561
v -97.8167 21.3701 5.6779
v -97.819 21.3701 -5.669
v -89.4868 21.3701 -14.8506
v -76.0027 21.3701 -18.3597
v -75.999 21.3701 0
v 0 30.7217 0
v 0 30.7217 0
v 0 30.7217 0
v 0 30.7217 0
v 0 30.7217 0
v 0 30.7217 0
v 0 30.7217 0
v 0 30.7217 0
v 0 30.7217 0
v 0 30.7217 0
v 0 30.7217 0
v -0.0007 30.542 -3.5818
v 2.6302 30.542 -2.8983
v 4.2564 30.542 -1.1077
v 4.2569 30.542 1.106
v 2.6313 30.542 2.8972
v 0.0007 30.542 3.5818
v -2.6302 30.542 2.8983
v -4.2564 30.542 1.1077
v -4.2569 30.542 -1.106
v -2.6313 30.542 -2.8972
v -0.0007 30.542 -3.5818
v -0.0014 30.0099 -7.026
v 5.1592 30.0099 -5.6852
v 8.3493 30.0099 -2.1728
v 8.3501 30.0099 2.1694
v 5.1616 30.0099 5.6831
v 0.0014 30.0099 7.026
v -5.1592 30.0099 5.6852
v -8.3493 30.0099 2.1728
v -8.3501 30.0099 -2.1694
v -5.1616 30.0099 -5.6831
v -0.0014 30.0099 -7.026
v -0.0021 29.1457 -10.2001
v 7.4901 29.1457 -8.2536
v 12.1212 29.1457 -3.1545
v 12.1225 29.1457 3.1495
v 7.4934 29.1457 8.2505
v 0.0021 29.1457 10.2001
v -7.4901 29.1457 8.2536
v -12.1212 29.1457 3.1545
v -12.1225 29.1457 -3.1495
v -7.4934 29.1457 -8.2505
v -0.0021 29.1457 -10.2001
v -0.0026 27.9827 -12.9823
v 9.533 27.9827 -10.5048
v 15.4274 27.9827 -4.0149
v 15.4291 27.9827 4.0086
v 9.5373 27.9827 10.501
v 0.0026 27.9827 12.9823
v -9.533 27.9827 10.5048
v -15.4274 27.9827 4.0149
v -15.4291 27.9827 -4.0086
v -9.5373 27.9827 -10.501
v -0.0026 27.9827 -12.9823
v -0.0031 26.5656 -15.2656
v 11.2097 26.5656 -12.3524
v 18.1407 26.5656 -4.721
v 18.1427 26.5656 4.7136
v 11.2147 26.5656 12.3478
v 0.0031 26.5656 15.2656
v -11.2097 26.5656 12.3524
v -18.1407 26.5656 4.721
v -18.1427 26.5656 -4.7136
v -11.2147 26.5656 -12.3478
v -0.0031 26.5656 -15.2656
v -0.0035 24.9488 -16.9622
v 12.4555 24.9488 -13.7252
v 20.1569 24.9488 -5.2457
v 20.159 24.9488 5.2375
v 12.4611 24.9488 13.7202
v 0.0035 24.9488 16.9622
v -12.4555 24.9488 13.7252
v -20.1569 24.9488 5.2457
v -20.159 24.9488 -5.2375
v -12.4611 24.9488 -13.7202
v -0.0035 24.9488 -16.9622
v -0.0037 23.1945 -18.007
v 13.2227 23.1945 -14.5706
v 21.3984 23.1945 -5.5688
v 21.4007 23.1945 5.5601
v 13.2286 23.1945 14.5652
v 0.0037 23.1945 18.007
v -13.2227 23.1945 14.5706
v -21.3984 23.1945 5.5688
v -21.4007 23.1945 -5.5601
v -13.2286 23.1945 -14.5652
v -0.0037 23.1945 -18.007
v -0.0037 21.3701 -18.3597
v 13.4818 21.3701 -14.8561
v 21.8177 21.3701 -5.6779
v 21.82 21.3701 5.669
v 13.4878 21.3701 14.8506
v 0.0037 21.3701 18.3597
v -13.4818 21.3701 14.8561
v -21.8177 21.3701 5.6779
v -21.82 21.3701 -5.669
v -13.4878 21.3701 -14.8506
v -0.0037 21.3701 -18.3597
v 0 21.3701 0
v 75.999 30.7217 0
v 75.999 30.7217 0
v 75.999 30.7217 0
v 75.999 30.7217 0
v 75.999 30.7217 0
v 75.999 30.7217 0
v 75.999 30.7217 0
v 75.999 30.7217 0
v 75.999 30.7217 0
v 75.999 30.7217 0
v 75.999 30.7217 0
v 75.9983 30.542 -3.5818
v 78.6292 30.542 -2.8983
v 80.2554 30.542 -1.1077
v 80.2559 30.542 1.106
v 78.6303 30.542 2.8972
v 75.9997 30.542 3.5818
v 73.3688 30.542 2.8983
v 71.7426 30.542 1.1077
v 71.7421 30.542 -1.106
v 73.3677 30.542 -2.8972
v 75.9983 30.542 -3.5818
v 75.9976 30.0099 -7.026
v 81.1582 30.0099 -5.6852
v 84.3483 30.0099 -2.1728
v 84.3491 30.0099 2.1694
v 81.1606 30.0099 5.6831
v 76.0004 30.0099 7.026
v 70.8398 30.0099 5.6852
v 67.6497 30.0099 2.1728
v 67.6489 30.0099 -2.1694
v 70.8374 30.0099 -5.6831
v 75.9976 30.0099 -7.026
v 75.9969 29.1457 -10.2001
v 83.4891 29.1457 -8.2536
v 88.1202 29.1457 -3.1545
v 88.1215 29.1457 3.1495
v 83.4924 29.1457 8.2505
v 76.0011 29.1457 10.2001
v 68.5089 29.1457 8.2536
v 63.8778 29.1457 3.1545
v 63.8765 29.1457 -3.1495
v 68.5056 29.1457 -8.2505
v 75.9969 29.1457 -10.2001
v 75.9964 27.9827 -12.9823
v 85.532 27.9827 -10.5048
v 91.4264 27.9827 -4.0149
v 91.4281 27.9827 4.0086
v 85.5363 27.9827 10.501
v 76.0016 27.9827 12.9823
v 66.466 27.9827 10.5048
v 60.5716 27.9827 4.0149
v 60.5699 27.9827 -4.0086
v 66.4617 27.9827 -10.501
v 75.9964 27.9827 -12.9823
v 75.9959 26.5656 -15.2656
v 87.2087 26.5656 -12.3524
v 94.1397 26.5656 -4.721
v 94.1417 26.5656 4.7136
v 87.2137 26.5656 12.3478
v 76.0021 26.5656 15.2656
v 64.7893 26.5656 12.3524
v 57.8583 26.5656 4.721
v 57.8563 26.5656 -4.7136
v 64.7843 26.5656 -12.3478
v 75.9959 26.5656 -15.2656
v 75.9955 24.9488 -16.9622
v 88.4545 24.9488 -13.7252
v 96.1559 24.9488 -5.2457
v 96.158 24.9488 5.2375
v 88.4601 24.9488 13.7202
v 76.0025 24.9488 16.9622
v 63.5435 24.9488 13.7252
v 55.8421 24.9488 5.2457
v 55.84 24.9488 -5.2375
v 63.5379 24.9488 -13.7202
v 75.9955 24.9488 -16.9622
v 75.9953 23.1945 -18.007
v 89.2217 23.1945 -14.5706
v 97.3974 23.1945 -5.5688
v 97.3997 23.1945 5.5601
v 89.2276 23.1945 14.5652
v 76.0027 23.1945 18.007
v 62.7763 23.1945 14.5706
v 54.6006 23.1945 5.5688
v 54.5983 23.1945 -5.5601
v 62.7704 23.1945 -14.5652
v 75.9953 23.1945 -18.007
v 75.9953 21.3701 -18.3597
v 89.4808 21.3701 -14.8561
v 97.8167 21.3701 -5.6779
v 97.819 21.3701 5.669
v 89.4868 21.3701 14.8506
v 76.0027 21.3701 18.3597
v 62.5172 21.3701 14.8561
v 54.1813 21.3701 5.6779
v 54.179 21.3701 -5.669
v 62.5112 21.3701 -14.8506
v 75.9953 21.3701 -18.3597
v 75.999 21.3701 0
v 104.1912 21.3551 15.2985
v 104.185 21.3551 -15.2907
v 104.185 29.1468 -15.2907
v 104.1912 29.1468 15.2985
v 142.42 21.3551 15.2907
v 142.4138 21.3551 -15.2985
v 142.4138 29.1468 -15.2985
v 142.42 29.1468 15.2907
v 142.4097 26.0009 11.4748
v 142.405 26.0009 -11.4748
v 142.405 29.1168 -11.4748
v 142.4097 29.1168 11.4748
v 142.4897 26.0009 11.4748
v 142.485 26.0009 -11.4748
v 142.485 29.1168 -11.4748
v 142.4897 29.1168 11.4748
v 138.153 29.1181 0
v 136.6431 29.1181 3.6451
v 132.998 29.1181 5.155
v 129.3529 29.1181 3.6451
v 127.843 29.1181 0
v 129.3529 29.1181 -3.6451
v 132.998 29.1181 -5.155
v 136.6431 29.1181 -3.6451
v 138.153 41.4901 0
v 136.6431 41.4901 3.6451
v 132.998 41.4901 5.155
v 129.3529 41.4901 3.6451
v 127.843 41.4901 0
v 129.3529 41.4901 -3.6451
v 132.998 41.4901 -5.155
v 136.6431 41.4901 -3.6451
v 132.998 29.1181 0
v 132.998 41.4901 0
v 133.6054 41.4751 0.6074
v 132.3906 41.4751 0.6074
v 132.3906 41.4751 -0.6074
v 133.6054 41.4751 -0.6074
v 133.6054 43.5367 0.6074
v 132.3906 43.5367 0.6074
v 132.3906 43.5367 -0.6074
v 133.6054 43.5367 -0.6074
v 132.998 41.4751 0
v 132.998 43.5367 0
v -96.9 22.9608 -7.3398
v -96.9 23.0683 -7.0804
v -96.9 23.3277 -6.973
v -96.9 23.5871 -7.0804
v -96.9 23.6945 -7.3398
v -96.9 23.5871 -7.5993
v -96.9 23.3277 -7.7067
v -96.9 23.0683 -7.5993
v 79.8 22.9608 -7.3398
v 79.8 23.0683 -7.0804
v 79.8 23.3277 -6.973
v 79.8 23.5871 -7.0804
v 79.8 23.6945 -7.3398
v 79.8 23.5871 -7.5993
v 79.8 23.3277 -7.7067
v 79.8 23.0683 -7.5993
v -96.9 23.3277 -7.3398
v 79.8 23.3277 -7.3398
v -96.9 22.9608 0
v -96.9 23.0683 0.2594
v -96.9 23.3277 0.3669
v -96.9 23.5871 0.2594
v -96.9 23.6945 0
v -96.9 23.5871 -0.2594
v -96.9 23.3277 -0.3669
v -96.9 23.0683 -0.2594
v 79.8 22.9608 0
v 79.8 23.0683 0.2594
v 79.8 23.3277 0.3669
v 79.8 23.5871 0.2594
v 79.8 23.6945 0
v 79.8 23.5871 -0.2594
v 79.8 23.3277 -0.3669
v 79.8 23.0683 -0.2594
v -96.9 23.3277 0
v 79.8 23.3277 0
v -96.9 22.9608 7.3398
v -96.9 23.0683 7.5993
v -96.9 23.3277 7.7067
v -96.9 23.5871 7.5993
v -96.9 23.6945 7.3398
v -96.9 23.5871 7.0804
v -96.9 23.3277 6.973
v -96.9 23.0683 7.0804
v 79.8 22.9608 7.3398
v 79.8 23.0683 7.5993
v 79.8 23.3277 7.7067
v 79.8 23.5871 7.5993
v 79.8 23.6945 7.3398
v 79.8 23.5871 7.0804
v 79.8 23.3277 6.973
v 79.8 23.0683 7.0804
v -96.9 23.3277 7.3398
v 79.8 23.3277 7.3398
v -56.7248 23.3277 -9.6335
v -56.8054 23.1331 -9.6335
v -57 23.0525 -9.6335
v -57.1946 23.1331 -9.6335
v -57.2752 23.3277 -9.6335
v -57.1946 23.5222 -9.6335
v -57 23.6028 -9.6335
v -56.8054 23.5222 -9.6335
v -56.7248 23.3277 9.6335
v -56.8054 23.1331 9.6335
v -57 23.0525 9.6335
v -57.1946 23.1331 9.6335
v -57.2752 23.3277 9.6335
v -57.1946 23.5222 9.6335
v -57 23.6028 9.6335
v -56.8054 23.5222 9.6335
v -57 23.3277 -9.6335
v -57 23.3277 9.6335
v 0.2752 23.3277 -9.6335
v 0.1946 23.1331 -9.6335
v 0 23.0525 -9.6335
v -0.1946 23.1331 -9.6335
v -0.2752 23.3277 -9.6335
v -0.1946 23.5222 -9.6335
v 0 23.6028 -9.6335
v 0.1946 23.5222 -9.6335
v 0.2752 23.3277 9.6335
v 0.1946 23.1331 9.6335
v 0 23.0525 9.6335
v -0.1946 23.1331 9.6335
v -0.2752 23.3277 9.6335
v -0.1946 23.5222 9.6335
v 0 23.6028 9.6335
v 0.1946 23.5222 9.6335
v 0 23.3277 -9.6335
v 0 23.3277 9.6335
v 57.2752 23.3277 -9.6335
v 57.1946 23.1331 -9.6335
v 57 23.0525 -9.6335
v 56.8054 23.1331 -9.6335
v 56.7248 23.3277 -9.6335
v 56.8054 23.5222 -9.6335
v 57 23.6028 -9.6335
v 57.1946 23.5222 -9.6335
v 57.2752 23.3277 9.6335
v 57.1946 23.1331 9.6335
v 57 23.0525 9.6335
v 56.8054 23.1331 9.6335
v 56.7248 23.3277 9.6335
v 56.8054 23.5222 9.6335
v 57 23.6028 9.6335
v 57.1946 23.5222 9.6335
v 57 23.3277 -9.6335
v 57 23.3277 9.6335
vt 0.5 0.5
vt 0.5 0.5
vt 0.5 0.5
vt 0.5 0.5
vt 0.5 0.5
vt 0.5 0.5
vt 0.5 0.5
vt 0.5 0.5
vt 0.5 0.5
vt 0.5 0.5
vt 0.5 0.5
vt 0.5 0.5
vt 0.5 0.5
vt 0.5 0.5
vt 0.5 0.5
vt 0.5 0.5
vt 0.5 0.5
vt 0.5 0.5
vt 0.5 0.5
vt 0.5 0.5
vt 0.5 0.5
vt 0.5 0.5
vt 0.5 0.5
vt 0.5 0.5
vt 0.5 0.5
vt 0 0
vt 0.1 0
vt 0.2 0
vt 0.3 0
vt 0.4 0
vt 0.5 0
vt 0.6 0
vt 0.7 0
vt 0.8 0
vt 0.9 0
vt 1 0
vt 0 0.125
vt 0.1 0.125
vt 0.2 0.125
vt 0.3 0.125
vt 0.4 0.125
vt 0.5 0.125
vt 0.6 0.125
vt 0.7 0.125
vt 0.8 0.125
vt 0.9 0.125
vt 1 0.125
vt 0 0.25
vt 0.1 0.25
vt 0.2 0.25
vt 0.3 0.25
vt 0.4 0.25
vt 0.5 0.25
vt 0.6 0.25
vt 0.7 0.25
vt 0.8 0.25
vt 0.9 0.25
vt 1 0.25
vt 0 0.375
vt 0.1 0.375
vt 0.2 0.375
vt 0.3 0.375
vt 0.4 0.375
vt 0.5 0.375
vt 0.6 0.375
vt 0.7 0.375
vt 0.8 0.375
vt 0.9 0.375
vt 1 0.375
vt 0 0.5
vt 0.1 0.5
vt 0.2 0.5
vt 0.3 0.5
vt 0.4 0.5
vt 0.5 0.5
vt 0.6 0.5
vt 0.7 0.5
vt 0.8 0.5
vt 0.9 0.5
vt 1 0.5
vt 0 0.625
vt 0.1 0.625
vt 0.2 0.625
vt 0.3 0.625
vt 0.4 0.625
vt 0.5 0.625
vt 0.6 0.625
vt 0.7 0.625
vt 0.8 0.625
vt 0.9 0.625
vt 1 0.625
vt 0 0.75
vt 0.1 0.75
vt 0.2 0.75
vt 0.3 0.75
vt 0.4 0.75
vt 0.5 0.75
vt 0.6 0.75
vt 0.7 0.75
vt 0.8 0.75
vt 0.9 0.75
vt 1 0.75
vt 0 0.875
vt 0.1 0.875
vt 0.2 0.875
vt 0.3 0.875
vt 0.4 0.875
vt 0.5 0.875
vt 0.6 0.875
vt 0.7 0.875
vt 0.8 0.875
vt 0.9 0.875
vt 1 0.875
vt 0 1
vt 0.1 1
vt 0.2 1
vt 0.3 1
vt 0.4 1
vt 0.5 1
vt 0.6 1
vt 0.7 1
vt 0.8 1
vt 0.9 1
vt 1 1
vt 0.5 0.5
vt 0 0
vt 0.1 0
vt 0.2 0
vt 0.3 0
vt 0.4 0
vt 0.5 0
vt 0.6 0
vt 0.7 0
vt 0.8 0
vt 0.9 0
vt 1 0
vt 0 0.125
vt 0.1 0.125
vt 0.2 0.125
vt 0.3 0.125
vt 0.4 0.125
vt 0.5 0.125
vt 0.6 0.125
vt 0.7 0.125
vt 0.8 0.125
vt 0.9 0.125
vt 1 0.125
vt 0 0.25
vt 0.1 0.25
vt 0.2 0.25
vt 0.3 0.25
vt 0.4 0.25
vt 0.5 0.25
vt 0.6 0.25
vt 0.7 0.25
vt 0.8 0.25
vt 0.9 0.25
vt 1 0.25
vt 0 0.375
vt 0.1 0.375
vt 0.2 0.375
vt 0.3 0.375
vt 0.4 0.375
vt 0.5 0.375
vt 0.6 0.375
vt 0.7 0.375
vt 0.8 0.375
vt 0.9 0.375
vt 1 0.375
vt 0 0.5
vt 0.1 0.5
vt 0.2 0.5
vt 0.3 0.5
vt 0.4 0.5
vt 0.5 0.5
vt 0.6 0.5
vt 0.7 0.5
vt 0.8 0.5
vt 0.9 0.5
vt 1 0.5
vt 0 0.625
vt 0.1 0.625
vt 0.2 0.625
vt 0.3 0.625
vt 0.4 0.625
vt 0.5 0.625
vt 0.6 0.625
vt 0.7 0.625
vt 0.8 0.625
vt 0.9 0.625
vt 1 0.625
vt 0 0.75
vt 0.1 0.75
vt 0.2 0.75
vt 0.3 0.75
vt 0.4 0.75
vt 0.5 0.75
vt 0.6 0.75
vt 0.7 0.75
vt 0.8 0.75
vt 0.9 0.75
vt 1 0.75
vt 0 0.875
vt 0.1 0.875
vt 0.2 0.875
vt 0.3 0.875
vt 0.4 0.875
vt 0.5 0.875
vt 0.6 0.875
vt 0.7 0.875
vt 0.8 0.875
vt 0.9 0.875
vt 1 0.875
vt 0 1
vt 0.1 1
vt 0.2 1
vt 0.3 1
vt 0.4 1
vt 0.5 1
vt 0.6 1
vt 0.7 1
vt 0.8 1
vt 0.9 1
vt 1 1
vt 0.5 0.5
vt 0 0
vt 0.1 0
vt 0.2 0
vt 0.3 0
vt 0.4 0
vt 0.5 0
vt 0.6 0
vt 0.7 0
vt 0.8 0
vt 0.9 0
vt 1 0
vt 0 0.125
vt 0.1 0.125
vt 0.2 0.125
vt 0.3 0.125
vt 0.4 0.125
vt 0.5 0.125
vt 0.6 0.125
vt 0.7 0.125
vt 0.8 0.125
vt 0.9 0.125
vt 1 0.125
vt 0 0.25
vt 0.1 0.25
vt 0.2 0.25
vt 0.3 0.25
vt 0.4 0.25
vt 0.5 0.25
vt 0.6 0.25
vt 0.7 0.25
vt 0.8 0.25
vt 0.9 0.25
vt 1 0.25
vt 0 0.375
vt 0.1 0.375
vt 0.2 0.375
vt 0.3 0.375
vt 0.4 0.375
vt 0.5 0.375
vt 0.6 0.375
vt 0.7 0.375
vt 0.8 0.375
vt 0.9 0.375
vt 1 0.375
vt 0 0.5
vt 0.1 0.5
vt 0.2 0.5
vt 0.3 0.5
vt 0.4 0.5
vt 0.5 0.5
vt 0.6 0.5
vt 0.7 0.5
vt 0.8 0.5
vt 0.9 0.5
vt 1 0.5
vt 0 0.625
vt 0.1 0.625
vt 0.2 0.625
vt 0.3 0.625
vt 0.4 0.625
vt 0.5 0.625
vt 0.6 0.625
vt 0.7 0.625
vt 0.8 0.625
vt 0.9 0.625
vt 1 0.625
vt 0 0.75
vt 0.1 0.75
vt 0.2 0.75
vt 0.3 0.75
vt 0.4 0.75
vt 0.5 0.75
vt 0.6 0.75
vt 0.7 0.75
vt 0.8 0.75
vt 0.9 0.75
vt 1 0.75
vt 0 0.875
vt 0.1 0.875
vt 0.2 0.875
vt 0.3 0.875
vt 0.4 0.875
vt 0.5 0.875
vt 0.6 0.875
vt 0.7 0.875
vt 0.8 0.875
vt 0.9 0.875
vt 1 0.875
vt 0 1
vt 0.1 1
vt 0.2 1
vt 0.3 1
vt 0.4 1
vt 0.5 1
vt 0.6 1
vt 0.7 1
vt 0.8 1
vt 0.9 1
vt 1 1
vt 0.5 0.5
vt 0.5 0.5
vt 0.5 0.5
vt 0.5 0.5
vt 0.5 0.5
vt 0.5 0.5
vt 0.5 0.5
vt 0.5 0.5
vt 0.5 0.5
vt 0.5 0.5
vt 0.5 0.5
vt 0.5 0.5
vt 0.5 0.5
vt 0.5 0.5
vt 0.5 0.5
vt 0.5 0.5
vt 0.5 0.5
vt 0 0
vt 0.125 0
vt 0.25 0
vt 0.375 0
vt 0.5 0
vt 0.625 0
vt 0.75 0
vt 0.875 0
vt 0 1
vt 0.125 1
vt 0.25 1
vt 0.375 1
vt 0.5 1
vt 0.625 1
vt 0.75 1
vt 0.875 1
vt 0.5 0.5
vt 0.5 0.5
vt 0 0
vt 0.25 0
vt 0.5 0
vt 0.75 0
vt 0 1
vt 0.25 1
vt 0.5 1
vt 0.75 1
vt 0.5 0.5
vt 0.5 0.5
vt 0 0
vt 0.125 0
vt 0.25 0
vt 0.375 0
vt 0.5 0
vt 0.625 0
vt 0.75 0
vt 0.875 0
vt 0 1
vt 0.125 1
vt 0.25 1
vt 0.375 1
vt 0.5 1
vt 0.625 1
vt 0.75 1
vt 0.875 1
vt 0.5 0.5
vt 0.5 0.5
vt 0 0
vt 0.125 0
vt 0.25 0
vt 0.375 0
vt 0.5 0
vt 0.625 0
vt 0.75 0
vt 0.875 0
vt 0 1
vt 0.125 1
vt 0.25 1
vt 0.375 1
vt 0.5 1
vt 0.625 1
vt 0.75 1
vt 0.875 1
vt 0.5 0.5
vt 0.5 0.5
vt 0 0
vt 0.125 0
vt 0.25 0
vt 0.375 0
vt 0.5 0
vt 0.625 0
vt 0.75 0
vt 0.875 0
vt 0 1
vt 0.125 1
vt 0.25 1
vt 0.375 1
vt 0.5 1
vt 0.625 1
vt 0.75 1
vt 0.875 1
vt 0.5 0.5
vt 0.5 0.5
vt 0 0
vt 0.125 0
vt 0.25 0
vt 0.375 0
vt 0.5 0
vt 0.625 0
vt 0.75 0
vt 0.875 0
vt 0 1
vt 0.125 1
vt 0.25 1
vt 0.375 1
vt 0.5 1
vt 0.625 1
vt 0.75 1
vt 0.875 1
vt 0.5 0.5
vt 0.5 0.5
vt 0 0
vt 0.125 0
vt 0.25 0
vt 0.375 0
vt 0.5 0
vt 0.625 0
vt 0.75 0
vt 0.875 0
vt 0 1
vt 0.125 1
vt 0.25 1
vt 0.375 1
vt 0.5 1
vt 0.625 1
vt 0.75 1
vt 0.875 1
vt 0.5 0.5
vt 0.5 0.5
vt 0 0
vt 0.125 0
vt 0.25 0
vt 0.375 0
vt 0.5 0
vt 0.625 0
vt 0.75 0
vt 0.875 0
vt 0 1
vt 0.125 1
vt 0.25 1
vt 0.375 1
vt 0.5 1
vt 0.625 1
vt 0.75 1
vt 0.875 1
vt 0.5 0.5
vt 0.5 0.5
vn 0 1 0
vn 0 1 0
vn 0 1 0
vn 0 1 0
vn 0 1 0
vn 0 1 0
vn 0 1 0
vn 0 1 0
vn 0 1 0
vn 0 1 0
vn 0 1 0
vn 0 1 0
vn 0 1 0
vn 0 1 0
vn 0 1 0
vn 0 1 0
vn 0 1 0
vn 0 1 0
vn 0 1 0
vn 0 1 0
vn 0 1 0
vn 0 1 0
vn 0 1 0
vn 0 1 0
vn 0 1 0
vn 0 1 0
vn 0 1 0
vn 0 1 0
vn 0 1 0
vn 0 1 0
vn 0 1 0
vn 0 1 0
vn 0 1 0
vn 0 1 0
vn 0 1 0
vn 0 1 0
vn 0.19509032201612825 0.9807852804032304 0
vn 0.1578313859491287 0.9807852804032304 0.11467121414606976
vn 0.06028622494106459 0.9807852804032304 0.18554192201955866
vn -0.060286224941064566 0.9807852804032304 0.18554192201955866
vn -0.15783138594912868 0.9807852804032304 0.11467121414606979
vn -0.19509032201612825 0.9807852804032304 2.3891673840167787e-17
vn -0.1578313859491287 0.9807852804032304 -0.11467121414606975
vn -0.060286224941064614 0.9807852804032304 -0.18554192201955866
vn 0.06028622494106454 0.9807852804032304 -0.18554192201955866
vn 0.15783138594912868 0.9807852804032304 -0.11467121414606983
vn 0.19509032201612825 0.9807852804032304 -4.7783347680335573e-17
vn 0.3826834323650898 0.9238795325112867 0
vn 0.30959740024909344 0.9238795325112867 0.22493567784086388
vn 0.11825568406654854 0.9238795325112867 0.3639535720290143
vn -0.11825568406654849 0.9238795325112867 0.36395357202901435
vn -0.3095974002490934 0.9238795325112867 0.22493567784086388
vn -0.3826834323650898 0.9238795325112867 4.686520405326298e-17
vn -0.30959740024909344 0.9238795325112867 -0.22493567784086382
vn -0.11825568406654856 0.9238795325112867 -0.3639535720290143
vn 0.11825568406654845 0.9238795325112867 -0.36395357202901435
vn 0.3095974002490934 0.9238795325112867 -0.22493567784086396
vn 0.3826834323650898 0.9238795325112867 -9.373040810652596e-17
vn 0.5555702330196022 0.8314696123025452 0
vn 0.44946576008170774 0.8314696123025452 0.32655598958161497
vn 0.17168064357190665 0.8314696123025452 0.5283786903729095
vn -0.1716806435719066 0.8314696123025452 0.5283786903729096
vn -0.44946576008170774 0.8314696123025452 0.326555989581615
vn -0.5555702330196022 0.8314696123025452 6.80377307569005e-17
vn -0.44946576008170774 0.8314696123025452 -0.3265559895816149
vn -0.1716806435719067 0.8314696123025452 -0.5283786903729095
vn 0.17168064357190652 0.8314696123025452 -0.5283786903729096
vn 0.44946576008170774 0.8314696123025452 -0.3265559895816151
vn 0.5555702330196022 0.8314696123025452 -1.36075461513801e-16
vn 0.7071067811865475 0.7071067811865476 0
vn 0.5720614028176843 0.7071067811865476 0.4156269377774534
vn 0.21850801222441057 0.7071067811865476 0.6724985119639573
vn -0.21850801222441046 0.7071067811865476 0.6724985119639573
vn -0.5720614028176841 0.7071067811865476 0.4156269377774534
vn -0.7071067811865475 0.7071067811865476 8.659560562354932e-17
vn -0.5720614028176843 0.7071067811865476 -0.4156269377774533
vn -0.2185080122244106 0.7071067811865476 -0.6724985119639573
vn 0.21850801222441038 0.7071067811865476 -0.6724985119639573
vn 0.5720614028176841 0.7071067811865476 -0.4156269377774536
vn 0.7071067811865475 0.7071067811865476 -1.7319121124709863e-16
vn 0.8314696123025452 0.5555702330196023 0
vn 0.672673046659108 0.5555702330196023 0.48872557584077636
vn 0.25693824050783537 0.5555702330196023 0.7907745928817407
vn -0.25693824050783526 0.5555702330196023 0.7907745928817407
vn -0.6726730466591079 0.5555702330196023 0.4887255758407765
vn -0.8314696123025452 0.5555702330196023 1.0182565992946027e-16
vn -0.672673046659108 0.5555702330196023 -0.48872557584077625
vn -0.2569382405078354 0.5555702330196023 -0.7907745928817407
vn 0.25693824050783515 0.5555702330196023 -0.7907745928817407
vn 0.6726730466591079 0.5555702330196023 -0.4887255758407766
vn 0.8314696123025452 0.5555702330196023 -2.0365131985892053e-16
vn 0.9238795325112867 0.38268343236508984 0
vn 0.7474342425568128 0.38268343236508984 0.5430427641049989
vn 0.28549447630116936 0.38268343236508984 0.8786616496665794
vn -0.28549447630116925 0.38268343236508984 0.8786616496665796
vn -0.7474342425568127 0.38268343236508984 0.543042764104999
vn -0.9238795325112867 0.38268343236508984 1.1314261122877003e-16
vn -0.7474342425568128 0.38268343236508984 -0.5430427641049987
vn -0.2854944763011695 0.38268343236508984 -0.8786616496665794
vn 0.28549447630116914 0.38268343236508984 -0.8786616496665796
vn 0.7474342425568127 0.38268343236508984 -0.543042764104999
vn 0.9238795325112867 0.38268343236508984 -2.2628522245754005e-16
vn 0.9807852804032304 0.19509032201612833 0
vn 0.7934719596790115 0.19509032201612833 0.5764911234865568
vn 0.3030793194773963 0.19509032201612833 0.9327822320138617
vn -0.3030793194773962 0.19509032201612833 0.9327822320138617
vn -0.7934719596790114 0.19509032201612833 0.576491123486557
vn -0.9807852804032304 0.19509032201612833 1.2011155542966555e-16
vn -0.7934719596790115 0.19509032201612833 -0.5764911234865567
vn -0.3030793194773964 0.19509032201612833 -0.9327822320138617
vn 0.3030793194773961 0.19509032201612833 -0.9327822320138617
vn 0.7934719596790114 0.19509032201612833 -0.5764911234865571
vn 0.9807852804032304 0.19509032201612833 -2.402231108593311e-16
vn 1 6.123233995736766e-17 0
vn 0.8090169943749475 6.123233995736766e-17 0.5877852522924731
vn 0.30901699437494745 6.123233995736766e-17 0.9510565162951535
vn -0.30901699437494734 6.123233995736766e-17 0.9510565162951536
vn -0.8090169943749473 6.123233995736766e-17 0.5877852522924732
vn -1 6.123233995736766e-17 1.2246467991473532e-16
vn -0.8090169943749475 6.123233995736766e-17 -0.587785252292473
vn -0.30901699437494756 6.123233995736766e-17 -0.9510565162951535
vn 0.30901699437494723 6.123233995736766e-17 -0.9510565162951536
vn 0.8090169943749473 6.123233995736766e-17 -0.5877852522924734
vn 1 6.123233995736766e-17 -2.4492935982947064e-16
vn 0 -1 0
vn 0 1 0
vn 0 1 0
vn 0 1 0
vn 0 1 0
vn 0 1 0
vn 0 1 0
vn 0 1 0
vn 0 1 0
vn 0 1 0
vn 0 1 0
vn 0 1 0
vn 0.19509032201612825 0.9807852804032304 0
vn 0.1578313859491287 0.9807852804032304 0.11467121414606976
vn 0.06028622494106459 0.9807852804032304 0.18554192201955866
vn -0.060286224941064566 0.9807852804032304 0.18554192201955866
vn -0.15783138594912868 0.9807852804032304 0.11467121414606979
vn -0.19509032201612825 0.9807852804032304 2.3891673840167787e-17
vn -0.1578313859491287 0.9807852804032304 -0.11467121414606975
vn -0.060286224941064614 0.9807852804032304 -0.18554192201955866
vn 0.06028622494106454 0.9807852804032304 -0.18554192201955866
vn 0.15783138594912868 0.9807852804032304 -0.11467121414606983
vn 0.19509032201612825 0.9807852804032304 -4.7783347680335573e-17
vn 0.3826834323650898 0.9238795325112867 0
vn 0.30959740024909344 0.9238795325112867 0.22493567784086388
vn 0.11825568406654854 0.9238795325112867 0.3639535720290143
vn -0.11825568406654849 0.9238795325112867 0.36395357202901435
vn -0.3095974002490934 0.9238795325112867 0.22493567784086388
vn -0.3826834323650898 0.9238795325112867 4.686520405326298e-17
vn -0.30959740024909344 0.9238795325112867 -0.22493567784086382
vn -0.11825568406654856 0.9238795325112867 -0.3639535720290143
vn 0.11825568406654845 0.9238795325112867 -0.36395357202901435
vn 0.3095974002490934 0.9238795325112867 -0.22493567784086396
vn 0.3826834323650898 0.9238795325112867 -9.373040810652596e-17
vn 0.5555702330196022 0.8314696123025452 0
vn 0.44946576008170774 0.8314696123025452 0.32655598958161497
vn 0.17168064357190665 0.8314696123025452 0.5283786903729095
vn -0.1716806435719066 0.8314696123025452 0.5283786903729096
vn -0.44946576008170774 0.8314696123025452 0.326555989581615
vn -0.5555702330196022 0.8314696123025452 6.80377307569005e-17
vn -0.44946576008170774 0.8314696123025452 -0.3265559895816149
vn -0.1716806435719067 0.8314696123025452 -0.5283786903729095
vn 0.17168064357190652 0.8314696123025452 -0.5283786903729096
vn 0.44946576008170774 0.8314696123025452 -0.3265559895816151
vn 0.5555702330196022 0.8314696123025452 -1.36075461513801e-16
vn 0.7071067811865475 0.7071067811865476 0
vn 0.5720614028176843 0.7071067811865476 0.4156269377774534
vn 0.21850801222441057 0.7071067811865476 0.6724985119639573
vn -0.21850801222441046 0.7071067811865476 0.6724985119639573
vn -0.5720614028176841 0.7071067811865476 0.4156269377774534
vn -0.7071067811865475 0.7071067811865476 8.659560562354932e-17
vn -0.5720614028176843 0.7071067811865476 -0.4156269377774533
vn -0.2185080122244106 0.7071067811865476 -0.6724985119639573
vn 0.21850801222441038 0.7071067811865476 -0.6724985119639573
vn 0.5720614028176841 0.7071067811865476 -0.4156269377774536
vn 0.7071067811865475 0.7071067811865476 -1.7319121124709863e-16
vn 0.8314696123025452 0.5555702330196023 0
vn 0.672673046659108 0.5555702330196023 0.48872557584077636
vn 0.25693824050783537 0.5555702330196023 0.7907745928817407
vn -0.25693824050783526 0.5555702330196023 0.7907745928817407
vn -0.6726730466591079 0.5555702330196023 0.4887255758407765
vn -0.8314696123025452 0.5555702330196023 1.0182565992946027e-16
vn -0.672673046659108 0.5555702330196023 -0.48872557584077625
vn -0.2569382405078354 0.5555702330196023 -0.7907745928817407
vn 0.25693824050783515 0.5555702330196023 -0.7907745928817407
vn 0.6726730466591079 0.5555702330196023 -0.4887255758407766
vn 0.8314696123025452 0.5555702330196023 -2.0365131985892053e-16
vn 0.9238795325112867 0.38268343236508984 0
vn 0.7474342425568128 0.38268343236508984 0.5430427641049989
vn 0.28549447630116936 0.38268343236508984 0.8786616496665794
vn -0.28549447630116925 0.38268343236508984 0.8786616496665796
vn -0.7474342425568127 0.38268343236508984 0.543042764104999
vn -0.9238795325112867 0.38268343236508984 1.1314261122877003e-16
vn -0.7474342425568128 0.38268343236508984 -0.5430427641049987
vn -0.2854944763011695 0.38268343236508984 -0.8786616496665794
vn 0.28549447630116914 0.38268343236508984 -0.8786616496665796
vn 0.7474342425568127 0.38268343236508984 -0.543042764104999
vn 0.9238795325112867 0.38268343236508984 -2.2628522245754005e-16
vn 0.9807852804032304 0.19509032201612833 0
vn 0.7934719596790115 0.19509032201612833 0.5764911234865568
vn 0.3030793194773963 0.19509032201612833 0.9327822320138617
vn -0.3030793194773962 0.19509032201612833 0.9327822320138617
vn -0.7934719596790114 0.19509032201612833 0.576491123486557
vn -0.9807852804032304 0.19509032201612833 1.2011155542966555e-16
vn -0.7934719596790115 0.19509032201612833 -0.5764911234865567
vn -0.3030793194773964 0.19509032201612833 -0.9327822320138617
vn 0.3030793194773961 0.19509032201612833 -0.9327822320138617
vn 0.7934719596790114 0.19509032201612833 -0.5764911234865571
vn 0.9807852804032304 0.19509032201612833 -2.402231108593311e-16
vn 1 6.123233995736766e-17 0
vn 0.8090169943749475 6.123233995736766e-17 0.5877852522924731
vn 0.30901699437494745 6.123233995736766e-17 0.9510565162951535
vn -0.30901699437494734 6.123233995736766e-17 0.9510565162951536
vn -0.8090169943749473 6.123233995736766e-17 0.5877852522924732
vn -1 6.123233995736766e-17 1.2246467991473532e-16
vn -0.8090169943749475 6.123233995736766e-17 -0.587785252292473
vn -0.30901699437494756 6.123233995736766e-17 -0.9510565162951535
vn 0.30901699437494723 6.123233995736766e-17 -0.9510565162951536
vn 0.8090169943749473 6.123233995736766e-17 -0.5877852522924734
vn 1 6.123233995736766e-17 -2.4492935982947064e-16
vn 0 -1 0
vn 0 1 0
vn 0 1 0
vn 0 1 0
vn 0 1 0
vn 0 1 0
vn 0 1 0
vn 0 1 0
vn 0 1 0
vn 0 1 0
vn 0 1 0
vn 0 1 0
vn 0.19509032201612825 0.9807852804032304 0
vn 0.1578313859491287 0.9807852804032304 0.11467121414606976
vn 0.06028622494106459 0.9807852804032304 0.18554192201955866
vn -0.060286224941064566 0.9807852804032304 0.18554192201955866
vn -0.15783138594912868 0.9807852804032304 0.11467121414606979
vn -0.19509032201612825 0.9807852804032304 2.3891673840167787e-17
vn -0.1578313859491287 0.9807852804032304 -0.11467121414606975
vn -0.060286224941064614 0.9807852804032304 -0.18554192201955866
vn 0.06028622494106454 0.9807852804032304 -0.18554192201955866
vn 0.15783138594912868 0.9807852804032304 -0.11467121414606983
vn 0.19509032201612825 0.9807852804032304 -4.7783347680335573e-17
vn 0.3826834323650898 0.9238795325112867 0
vn 0.30959740024909344 0.9238795325112867 0.22493567784086388
vn 0.11825568406654854 0.9238795325112867 0.3639535720290143
vn -0.11825568406654849 0.9238795325112867 0.36395357202901435
vn -0.3095974002490934 0.9238795325112867 0.22493567784086388
vn -0.3826834323650898 0.9238795325112867 4.686520405326298e-17
vn -0.30959740024909344 0.9238795325112867 -0.22493567784086382
vn -0.11825568406654856 0.9238795325112867 -0.3639535720290143
vn 0.11825568406654845 0.9238795325112867 -0.36395357202901435
vn 0.3095974002490934 0.9238795325112867 -0.22493567784086396
vn 0.3826834323650898 0.9238795325112867 -9.373040810652596e-17
vn 0.5555702330196022 0.8314696123025452 0
vn 0.44946576008170774 0.8314696123025452 0.32655598958161497
vn 0.17168064357190665 0.8314696123025452 0.5283786903729095
vn -0.1716806435719066 0.8314696123025452 0.5283786903729096
vn -0.44946576008170774 0.8314696123025452 0.326555989581615
vn -0.5555702330196022 0.8314696123025452 6.80377307569005e-17
vn -0.44946576008170774 0.8314696123025452 -0.3265559895816149
vn -0.1716806435719067 0.8314696123025452 -0.5283786903729095
vn 0.17168064357190652 0.8314696123025452 -0.5283786903729096
vn 0.44946576008170774 0.8314696123025452 -0.3265559895816151
vn 0.5555702330196022 0.8314696123025452 -1.36075461513801e-16
vn 0.7071067811865475 0.7071067811865476 0
vn 0.5720614028176843 0.7071067811865476 0.4156269377774534
vn 0.21850801222441057 0.7071067811865476 0.6724985119639573
vn -0.21850801222441046 0.7071067811865476 0.6724985119639573
vn -0.5720614028176841 0.7071067811865476 0.4156269377774534
vn -0.7071067811865475 0.7071067811865476 8.659560562354932e-17
vn -0.5720614028176843 0.7071067811865476 -0.4156269377774533
vn -0.2185080122244106 0.7071067811865476 -0.6724985119639573
vn 0.21850801222441038 0.7071067811865476 -0.6724985119639573
vn 0.5720614028176841 0.7071067811865476 -0.4156269377774536
vn 0.7071067811865475 0.7071067811865476 -1.7319121124709863e-16
vn 0.8314696123025452 0.5555702330196023 0
vn 0.672673046659108 0.5555702330196023 0.48872557584077636
vn 0.25693824050783537 0.5555702330196023 0.7907745928817407
vn -0.25693824050783526 0.5555702330196023 0.7907745928817407
vn -0.6726730466591079 0.5555702330196023 0.4887255758407765
vn -0.8314696123025452 0.5555702330196023 1.0182565992946027e-16
vn -0.672673046659108 0.5555702330196023 -0.48872557584077625
vn -0.2569382405078354 0.5555702330196023 -0.7907745928817407
vn 0.25693824050783515 0.5555702330196023 -0.7907745928817407
vn 0.6726730466591079 0.5555702330196023 -0.4887255758407766
vn 0.8314696123025452 0.5555702330196023 -2.0365131985892053e-16
vn 0.9238795325112867 0.38268343236508984 0
vn 0.7474342425568128 0.38268343236508984 0.5430427641049989
vn 0.28549447630116936 0.38268343236508984 0.8786616496665794
vn -0.28549447630116925 0.38268343236508984 0.8786616496665796
vn -0.7474342425568127 0.38268343236508984 0.543042764104999
vn -0.9238795325112867 0.38268343236508984 1.1314261122877003e-16
vn -0.7474342425568128 0.38268343236508984 -0.5430427641049987
vn -0.2854944763011695 0.38268343236508984 -0.8786616496665794
vn 0.28549447630116914 0.38268343236508984 -0.8786616496665796
vn 0.7474342425568127 0.38268343236508984 -0.543042764104999
vn 0.9238795325112867 0.38268343236508984 -2.2628522245754005e-16
vn 0.9807852804032304 0.19509032201612833 0
vn 0.7934719596790115 0.19509032201612833 0.5764911234865568
vn 0.3030793194773963 0.19509032201612833 0.9327822320138617
vn -0.3030793194773962 0.19509032201612833 0.9327822320138617
vn -0.7934719596790114 0.19509032201612833 0.576491123486557
vn -0.9807852804032304 0.19509032201612833 1.2011155542966555e-16
vn -0.7934719596790115 0.19509032201612833 -0.5764911234865567
vn -0.3030793194773964 0.19509032201612833 -0.9327822320138617
vn 0.3030793194773961 0.19509032201612833 -0.9327822320138617
vn 0.7934719596790114 0.19509032201612833 -0.5764911234865571
vn 0.9807852804032304 0.19509032201612833 -2.402231108593311e-16
vn 1 6.123233995736766e-17 0
vn 0.8090169943749475 6.123233995736766e-17 0.5877852522924731
vn 0.30901699437494745 6.123233995736766e-17 0.9510565162951535
vn -0.30901699437494734 6.123233995736766e-17 0.9510565162951536
vn -0.8090169943749473 6.123233995736766e-17 0.5877852522924732
vn -1 6.123233995736766e-17 1.2246467991473532e-16
vn -0.8090169943749475 6.123233995736766e-17 -0.587785252292473
vn -0.30901699437494756 6.123233995736766e-17 -0.9510565162951535
vn 0.30901699437494723 6.123233995736766e-17 -0.9510565162951536
vn 0.8090169943749473 6.123233995736766e-17 -0.5877852522924734
vn 1 6.123233995736766e-17 -2.4492935982947064e-16
vn 0 -1 0
vn 0 1 0
vn 0 1 0
vn 0 1 0
vn 0 1 0
vn 0 1 0
vn 0 1 0
vn 0 1 0
vn 0 1 0
vn 0 1 0
vn 0 1 0
vn 0 1 0
vn 0 1 0
vn 0 1 0
vn 0 1 0
vn 0 1 0
vn 0 1 0
vn 0 -1 0
vn 0 -1 0
vn 0 -1 0
vn 0 -1 0
vn 0 -1 0
vn 0 -1 0
vn 0 -1 0
vn 0 -1 0
vn 0 1 0
vn 0 1 0
vn 0 1 0
vn 0 1 0
vn 0 1 0
vn 0 1 0
vn 0 1 0
vn 0 1 0
vn 0 -1 0
vn 0 1 0
vn 0 -1 0
vn 0 -1 0
vn 0 -1 0
vn 0 -1 0
vn 0 1 0
vn 0 1 0
vn 0 1 0
vn 0 1 0
vn 0 -1 0
vn 0 1 0
vn 0 -1 0
vn 0 -1 0
vn 0 -1 0
vn 0 -1 0
vn 0 -1 0
vn 0 -1 0
vn 0 -1 0
vn 0 -1 0
vn 0 1 0
vn 0 1 0
vn 0 1 0
vn 0 1 0
vn 0 1 0
vn 0 1 0
vn 0 1 0
vn 0 1 0
vn 0 -1 0
vn 0 1 0
vn 0 -1 0
vn 0 -1 0
vn 0 -1 0
vn 0 -1 0
vn 0 -1 0
vn 0 -1 0
vn 0 -1 0
vn 0 -1 0
vn 0 1 0
vn 0 1 0
vn 0 1 0
vn 0 1 0
vn 0 1 0
vn 0 1 0
vn 0 1 0
vn 0 1 0
vn 0 -1 0
vn 0 1 0
vn 0 -1 0
vn 0 -1 0
vn 0 -1 0
vn 0 -1 0
vn 0 -1 0
vn 0 -1 0
vn 0 -1 0
vn 0 -1 0
vn 0 1 0
vn 0 1 0
vn 0 1 0
vn 0 1 0
vn 0 1 0
vn 0 1 0
vn 0 1 0
vn 0 1 0
vn 0 -1 0
vn 0 1 0
vn 0 -1 0
vn 0 -1 0
vn 0 -1 0
vn 0 -1 0
vn 0 -1 0
vn 0 -1 0
vn 0 -1 0
vn 0 -1 0
vn 0 1 0
vn 0 1 0
vn 0 1 0
vn 0 1 0
vn 0 1 0
vn 0 1 0
vn 0 1 0
vn 0 1 0
vn 0 -1 0
vn 0 1 0
vn 0 -1 0
vn 0 -1 0
vn 0 -1 0
vn 0 -1 0
vn 0 -1 0
vn 0 -1 0
vn 0 -1 0
vn 0 -1 0
vn 0 1 0
vn 0 1 0
vn 0 1 0
vn 0 1 0
vn 0 1 0
vn 0 1 0
vn 0 1 0
vn 0 1 0
vn 0 -1 0
vn 0 1 0
vn 0 -1 0
vn 0 -1 0
vn 0 -1 0
vn 0 -1 0
vn 0 -1 0
vn 0 -1 0
vn 0 -1 0
vn 0 -1 0
vn 0 1 0
vn 0 1 0
vn 0 1 0
vn 0 1 0
vn 0 1 0
vn 0 1 0
vn 0 1 0
vn 0 1 0
vn 0 -1 0
vn 0 1 0
f 1/1/1 6/6/6 7/7/7
f 1/1/1 7/7/7 2/2/2
f 2/2/2 7/7/7 8/8/8
f 2/2/2 8/8/8 3/3/3
f 3/3/3 8/8/8 10/10/10
f 3/3/3 10/10/10 5/5/5
f 5/5/5 10/10/10 9/9/9
f 5/5/5 9/9/9 4/4/4
f 4/4/4 9/9/9 6/6/6
f 4/4/4 6/6/6 1/1/1
f 6/6/6 11/11/11 12/12/12
f 6/6/6 12/12/12 7/7/7
f 7/7/7 12/12/12 13/13/13
f 7/7/7 13/13/13 8/8/8
f 8/8/8 13/13/13 15/15/15
f 8/8/8 15/15/15 10/10/10
f 10/10/10 15/15/15 14/14/14
f 10/10/10 14/14/14 9/9/9
f 9/9/9 14/14/14 11/11/11
f 9/9/9 11/11/11 6/6/6
f 11/11/11 16/16/16 17/17/17
f 11/11/11 17/17/17 12/12/12
f 12/12/12 17/17/17 18/18/18
f 12/12/12 18/18/18 13/13/13
f 13/13/13 18/18/18 20/20/20
f 13/13/13 20/20/20 15/15/15
f 15/15/15 20/20/20 19/19/19
f 15/15/15 19/19/19 14/14/14
f 14/14/14 19/19/19 16/16/16
f 14/14/14 16/16/16 11/11/11
f 16/16/16 21/21/21 22/22/22
f 16/16/16 22/22/22 17/17/17
f 17/17/17 22/22/22 23/23/23
f 17/17/17 23/23/23 18/18/18
f 18/18/18 23/23/23 25/25/25
f 18/18/18 25/25/25 20/20/20
f 20/20/20 25/25/25 24/24/24
f 20/20/20 24/24/24 19/19/19
f 19/19/19 24/24/24 21/21/21
f 19/19/19 21/21/21 16/16/16
f 1/1/1 2/2/2 3/3/3
f 1/1/1 3/3/3 4/4/4
f 4/4/4 3/3/3 5/5/5
f 21/21/21 23/23/23 22/22/22
f 21/21/21 24/24/24 23/23/23
f 24/24/24 25/25/25 23/23/23
f 26/26/26 38/38/38 37/37/37
f 26/26/26 27/27/27 38/38/38
f 27/27/27 39/39/39 38/38/38
f 27/27/27 28/28/28 39/39/39
f 28/28/28 40/40/40 39/39/39
f 28/28/28 29/29/29 40/40/40
f 29/29/29 41/41/41 40/40/40
f 29/29/29 30/30/30 41/41/41
f 30/30/30 42/42/42 41/41/41
f 30/30/30 31/31/31 42/42/42
f 31/31/31 43/43/43 42/42/42
f 31/31/31 32/32/32 43/43/43
f 32/32/32 44/44/44 43/43/43
f 32/32/32 33/33/33 44/44/44
f 33/33/33 45/45/45 44/44/44
f 33/33/33 34/34/34 45/45/45
f 34/34/34 46/46/46 45/45/45
f 34/34/34 35/35/35 46/46/46
f 35/35/35 47/47/47 46/46/46
f 35/35/35 36/36/36 47/47/47
f 37/37/37 49/49/49 48/48/48
f 37/37/37 38/38/38 49/49/49
f 38/38/38 50/50/50 49/49/49
f 38/38/38 39/39/39 50/50/50
f 39/39/39 51/51/51 50/50/50
f 39/39/39 40/40/40 51/51/51
f 40/40/40 52/52/52 51/51/51
f 40/40/40 41/41/41 52/52/52
f 41/41/41 53/53/53 52/52/52
f 41/41/41 42/42/42 53/53/53
f 42/42/42 54/54/54 53/53/53
f 42/42/42 43/43/43 54/54/54
f 43/43/43 55/55/55 54/54/54
f 43/43/43 44/44/44 55/55/55
f 44/44/44 56/56/56 55/55/55
f 44/44/44 45/45/45 56/56/56
f 45/45/45 57/57/57 56/56/56
f 45/45/45 46/46/46 57/57/57
f 46/46/46 58/58/58 57/57/57
f 46/46/46 47/47/47 58/58/58
f 48/48/48 60/60/60 59/59/59
f 48/48/48 49/49/49 60/60/60
f 49/49/49 61/61/61 60/60/60
f 49/49/49 50/50/50 61/61/61
f 50/50/50 62/62/62 61/61/61
f 50/50/50 51/51/51 62/62/62
f 51/51/51 63/63/63 62/62/62
f 51/51/51 52/52/52 63/63/63
f 52/52/52 64/64/64 63/63/63
f 52/52/52 53/53/53 64/64/64
f 53/53/53 65/65/65 64/64/64
f 53/53/53 54/54/54 65/65/65
f 54/54/54 66/66/66 65/65/65
f 54/54/54 55/55/55 66/66/66
f 55/55/55 67/67/67 66/66/66
f 55/55/55 56/56/56 67/67/67
f 56/56/56 68/68/68 67/67/67
f 56/56/56 57/57/57 68/68/68
f 57/57/57 69/69/69 68/68/68
f 57/57/57 58/58/58 69/69/69
f 59/59/59 71/71/71 70/70/70
f 59/59/59 60/60/60 71/71/71
f 60/60/60 72/72/72 71/71/71
f 60/60/60 61/61/61 72/72/72
f 61/61/61 73/73/73 72/72/72
f 61/61/61 62/62/62 73/73/73
f 62/62/62 74/74/74 73/73/73
f 62/62/62 63/63/63 74/74/74
f 63/63/63 75/75/75 74/74/74
f 63/63/63 64/64/64 75/75/75
f 64/64/64 76/76/76 75/75/75
f 64/64/64 65/65/65 76/76/76
f 65/65/65 77/77/77 76/76/76
f 65/65/65 66/66/66 77/77/77
f 66/66/66 78/78/78 77/77/77
f 66/66/66 67/67/67 78/78/78
f 67/67/67 79/79/79 78/78/78
f 67/67/67 68/68/68 79/79/79
f 68/68/68 80/80/80 79/79/79
f 68/68/68 69/69/69 80/80/80
f 70/70/70 82/82/82 81/81/81
f 70/70/70 71/71/71 82/82/82
f 71/71/71 83/83/83 82/82/82
f 71/71/71 72/72/72 83/83/83
f 72/72/72 84/84/84 83/83/83
f 72/72/72 73/73/73 84/84/84
f 73/73/73 85/85/85 84/84/84
f 73/73/73 74/74/74 85/85/85
f 74/74/74 86/86/86 85/85/85
f 74/74/74 75/75/75 86/86/86
f 75/75/75 87/87/87 86/86/86
f 75/75/75 76/76/76 87/87/87
f 76/76/76 88/88/88 87/87/87
f 76/76/76 77/77/77 88/88/88
f 77/77/77 89/89/89 88/88/88
f 77/77/77 78/78/78 89/89/89
f 78/78/78 90/90/90 89/89/89
f 78/78/78 79/79/79 90/90/90
f 79/79/79 91/91/91 90/90/90
f 79/79/79 80/80/80 91/91/91
f 81/81/81 93/93/93 92/92/92
f 81/81/81 82/82/82 93/93/93
f 82/82/82 94/94/94 93/93/93
f 82/82/82 83/83/83 94/94/94
f 83/83/83 95/95/95 94/94/94
f 83/83/83 84/84/84 95/95/95
f 84/84/84 96/96/96 95/95/95
f 84/84/84 85/85/85 96/96/96
f 85/85/85 97/97/97 96/96/96
f 85/85/85 86/86/86 97/97/97
f 86/86/86 98/98/98 97/97/97
f 86/86/86 87/87/87 98/98/98
f 87/87/87 99/99/99 98/98/98
f 87/87/87 88/88/88 99/99/99
f 88/88/88 100/100/100 99/99/99
f 88/88/88 89/89/89 100/100/100
f 89/89/89 101/101/101 100/100/100
f 89/89/89 90/90/90 101/101/101
f 90/90/90 102/102/102 101/101/101
f 90/90/90 91/91/91 102/102/102
f 92/92/92 104/104/104 103/103/103
f 92/92/92 93/93/93 104/104/104
f 93/93/93 105/105/105 104/104/104
f 93/93/93 94/94/94 105/105/105
f 94/94/94 106/106/106 105/105/105
f 94/94/94 95/95/95 106/106/106
f 95/95/95 107/107/107 106/106/106
f 95/95/95 96/96/96 107/107/107
f 96/96/96 108/108/108 107/107/107
f 96/96/96 97/97/97 108/108/108
f 97/97/97 109/109/109 108/108/108
f 97/97/97 98/98/98 109/109/109
f 98/98/98 110/110/110 109/109/109
f 98/98/98 99/99/99 110/110/110
f 99/99/99 111/111/111 110/110/110
f 99/99/99 100/100/100 111/111/111
f 100/100/100 112/112/112 111/111/111
f 100/100/100 101/101/101 112/112/112
f 101/101/101 113/113/113 112/112/112
f 101/101/101 102/102/102 113/113/113
f 103/103/103 115/115/115 114/114/114
f 103/103/103 104/104/104 115/115/115
f 104/104/104 116/116/116 115/115/115
f 104/104/104 105/105/105 116/116/116
f 105/105/105 117/117/117 116/116/116
f 105/105/105 106/106/106 117/117/117
f 106/106/106 118/118/118 117/117/117
f 106/106/106 107/107/107 118/118/118
f 107/107/107 119/119/119 118/118/118
f 107/107/107 108/108/108 119/119/119
f 108/108/108 120/120/120 119/119/119
f 108/108/108 109/109/109 120/120/120
f 109/109/109 121/121/121 120/120/120
f 109/109/109 110/110/110 121/121/121
f 110/110/110 122/122/122 121/121/121
f 110/110/110 111/111/111 122/122/122
f 111/111/111 123/123/123 122/122/122
f 111/111/111 112/112/112 123/123/123
f 112/112/112 124/124/124 123/123/123
f 112/112/112 113/113/113 124/124/124
f 125/125/125 114/114/114 115/115/115
f 125/125/125 115/115/115 116/116/116
f 125/125/125 116/116/116 117/117/117
f 125/125/125 117/117/117 118/118/118
f 125/125/125 118/118/118 119/119/119
f 125/125/125 119/119/119 120/120/120
f 125/125/125 120/120/120 121/121/121
f 125/125/125 121/121/121 122/122/122
f 125/125/125 122/122/122 123/123/123
f 125/125/125 123/123/123 124/124/124
f 126/126/126 138/138/138 137/137/137
f 126/126/126 127/127/127 138/138/138
f 127/127/127 139/139/139 138/138/138
f 127/127/127 128/128/128 139/139/139
f 128/128/128 140/140/140 139/139/139
f 128/128/128 129/129/129 140/140/140
f 129/129/129 141/141/141 140/140/140
f 129/129/129 130/130/130 141/141/141
f 130/130/130 142/142/142 141/141/141
f 130/130/130 131/131/131 142/142/142
f 131/131/131 143/143/143 142/142/142
f 131/131/131 132/132/132 143/143/143
f 132/132/132 144/144/144 143/143/143
f 132/132/132 133/133/133 144/144/144
f 133/133/133 145/145/145 144/144/144
f 133/133/133 134/134/134 145/145/145
f 134/134/134 146/146/146 145/145/145
f 134/134/134 135/135/135 146/146/146
f 135/135/135 147/147/147 146/146/146
f 135/135/135 136/136/136 147/147/147
f 137/137/137 149/149/149 148/148/148
f 137/137/137 138/138/138 149/149/149
f 138/138/138 150/150/150 149/149/149
f 138/138/138 139/139/139 150/150/150
f 139/139/139 151/151/151 150/150/150
f 139/139/139 140/140/140 151/151/151
f 140/140/140 152/152/152 151/151/151
f 140/140/140 141/141/141 152/152/152
f 141/141/141 153/153/153 152/152/152
f 141/141/141 142/142/142 153/153/153
f 142/142/142 154/154/154 153/153/153
f 142/142/142 143/143/143 154/154/154
f 143/143/143 155/155/155 154/154/154
f 143/143/143 144/144/144 155/155/155
f 144/144/144 156/156/156 155/155/155
f 144/144/144 145/145/145 156/156/156
f 145/145/145 157/157/157 156/156/156
f 145/145/145 146/146/146 157/157/157
f 146/146/146 158/158/158 157/157/157
f 146/146/146 147/147/147 158/158/158
f 148/148/148 160/160/160 159/159/159
f 148/148/148 149/149/149 160/160/160
f 149/149/149 161/161/161 160/160/160
f 149/149/149 150/150/150 161/161/161
f 150/150/150 162/162/162 161/161/161
f 150/150/150 151/151/151 162/162/162
f 151/151/151 163/163/163 162/162/162
f 151/151/151 152/152/152 163/163/163
f 152/152/152 164/164/164 163/163/163
f 152/152/152 153/153/153 164/164/164
f 153/153/153 165/165/165 164/164/164
f 153/153/153 154/154/154 165/165/165
f 154/154/154 166/166/166 165/165/165
f 154/154/154 155/155/155 166/166/166
f 155/155/155 167/167/167 166/166/166
f 155/155/155 156/156/156 167/167/167
f 156/156/156 168/168/168 167/167/167
f 156/156/156 157/157/157 168/168/168
f 157/157/157 169/169/169 168/168/168
f 157/157/157 158/158/158 169/169/169
f 159/159/159 171/171/171 170/170/170
f 159/159/159 160/160/160 171/171/171
f 160/160/160 172/172/172 171/171/171
f 160/160/160 161/161/161 172/172/172
f 161/161/161 173/173/173 172/172/172
f 161/161/161 162/162/162 173/173/173
f 162/162/162 174/174/174 173/173/173
f 162/162/162 163/163/163 174/174/174
f 163/163/163 175/175/175 174/174/174
f 163/163/163 164/164/164 175/175/175
f 164/164/164 176/176/176 175/175/175
f 164/164/164 165/165/165 176/176/176
f 165/165/165 177/177/177 176/176/176
f 165/165/165 166/166/166 177/177/177
f 166/166/166 178/178/178 177/177/177
f 166/166/166 167/167/167 178/178/178
f 167/167/167 179/179/179 178/178/178
f 167/167/167 168/168/168 179/179/179
f 168/168/168 180/180/180 179/179/179
f 168/168/168 169/169/169 180/180/180
f 170/170/170 182/182/182 181/181/181
f 170/170/170 171/171/171 182/182/182
f 171/171/171 183/183/183 182/182/182
f 171/171/171 172/172/172 183/183/183
f 172/172/172 184/184/184 183/183/183
f 172/172/172 173/173/173 184/184/184
f 173/173/173 185/185/185 184/184/184
f 173/173/173 174/174/174 185/185/185
f 174/174/174 186/186/186 185/185/185
f 174/174/174 175/175/175 186/186/186
f 175/175/175 187/187/187 186/186/186
f 175/175/175 176/176/176 187/187/187
f 176/176/176 188/188/188 187/187/187
f 176/176/176 177/177/177 188/188/188
f 177/177/177 189/189/189 188/188/188
f 177/177/177 178/178/178 189/189/189
f 178/178/178 190/190/190 189/189/189
f 178/178/178 179/179/179 190/190/190
f 179/179/179 191/191/191 190/190/190
f 179/179/179 180/180/180 191/191/191
f 181/181/181 193/193/193 192/192/192
f 181/181/181 182/182/182 193/193/193
f 182/182/182 194/194/194 193/193/193
f 182/182/182 183/183/183 194/194/194
f 183/183/183 195/195/195 194/194/194
f 183/183/183 184/184/184 195/195/195
f 184/184/184 196/196/196 195/195/195
f 184/184/184 185/185/185 196/196/196
f 185/185/185 197/197/197 196/196/196
f 185/185/185 186/186/186 197/197/197
f 186/186/186 198/198/198 197/197/197
f 186/186/186 187/187/187 198/198/198
f 187/187/187 199/199/199 198/198/198
f 187/187/187 188/188/188 199/199/199
f 188/188/188 200/200/200 199/199/199
f 188/188/188 189/189/189 200/200/200
f 189/189/189 201/201/201 200/200/200
f 189/189/189 190/190/190 201/201/201
f 190/190/190 202/202/202 201/201/201
f 190/190/190 191/191/191 202/202/202
f 192/192/192 204/204/204 203/203/203
f 192/192/192 193/193/193 204/204/204
f 193/193/193 205/205/205 204/204/204
f 193/193/193 194/194/194 205/205/205
f 194/194/194 206/206/206 205/205/205
f 194/194/194 195/195/195 206/206/206
f 195/195/195 207/207/207 206/206/206
f 195/195/195 196/196/196 207/207/207
f 196/196/196 208/208/208 207/207/207
f 196/196/196 197/197/197 208/208/208
f 197/197/197 209/209/209 208/208/208
f 197/197/197 198/198/198 209/209/209
f 198/198/198 210/210/210 209/209/209
f 198/198/198 199/199/199 210/210/210
f 199/199/199 211/211/211 210/210/210
f 199/199/199 200/200/200 211/211/211
f 200/200/200 212/212/212 211/211/211
f 200/200/200 201/201/201 212/212/212
f 201/201/201 213/213/213 212/212/212
f 201/201/201 202/202/202 213/213/213
f 203/203/203 215/215/215 214/214/214
f 203/203/203 204/204/204 215/215/215
f 204/204/204 216/216/216 215/215/215
f 204/204/204 205/205/205 216/216/216
f 205/205/205 217/217/217 216/216/216
f 205/205/205 206/206/206 217/217/217
f 206/206/206 218/218/218 217/217/217
f 206/206/206 207/207/207 218/218/218
f 207/207/207 219/219/219 218/218/218
f 207/207/207 208/208/208 219/219/219
f 208/208/208 220/220/220 219/219/219
f 208/208/208 209/209/209 220/220/220
f 209/209/209 221/221/221 220/220/220
f 209/209/209 210/210/210 221/221/221
f 210/210/210 222/222/222 221/221/221
f 210/210/210 211/211/211 222/222/222
f 211/211/211 223/223/223 222/222/222
f 211/211/211 212/212/212 223/223/223
f 212/212/212 224/224/224 223/223/223
f 212/212/212 213/213/213 224/224/224
f 225/225/225 214/214/214 215/215/215
f 225/225/225 215/215/215 216/216/216
f 225/225/225 216/216/216 217/217/217
f 225/225/225 217/217/217 218/218/218
f 225/225/225 218/218/218 219/219/219
f 225/225/225 219/219/219 220/220/220
f 225/225/225 220/220/220 221/221/221
f 225/225/225 221/221/221 222/222/222
f 225/225/225 222/222/222 223/223/223
f 225/225/225 223/223/223 224/224/224
f 226/226/226 238/238/238 237/237/237
f 226/226/226 227/227/227 238/238/238
f 227/227/227 239/239/239 238/238/238
f 227/227/227 228/228/228 239/239/239
f 228/228/228 240/240/240 239/239/239
f 228/228/228 229/229/229 240/240/240
f 229/229/229 241/241/241 240/240/240
f 229/229/229 230/230/230 241/241/241
f 230/230/230 242/242/242 241/241/241
f 230/230/230 231/231/231 242/242/242
f 231/231/231 243/243/243 242/242/242
f 231/231/231 232/232/232 243/243/243
f 232/232/232 244/244/244 243/243/243
f 232/232/232 233/233/233 244/244/244
f 233/233/233 245/245/245 244/244/244
f 233/233/233 234/234/234 245/245/245
f 234/234/234 246/246/246 245/245/245
f 234/234/234 235/235/235 246/246/246
f 235/235/235 247/247/247 246/246/246
f 235/235/235 236/236/236 247/247/247
f 237/237/237 249/249/249 248/248/248
f 237/237/237 238/238/238 249/249/249
f 238/238/238 250/250/250 249/249/249
f 238/238/238 239/239/239 250/250/250
f 239/239/239 251/251/251 250/250/250
f 239/239/239 240/240/240 251/251/251
f 240/240/240 252/252/252 251/251/251
f 240/240/240 241/241/241 252/252/252
f 241/241/241 253/253/253 252/252/252
f 241/241/241 242/242/242 253/253/253
f 242/242/242 254/254/254 253/253/253
f 242/242/242 243/243/243 254/254/254
f 243/243/243 255/255/255 254/254/254
f 243/243/243 244/244/244 255/255/255
f 244/244/244 256/256/256 255/255/255
f 244/244/244 245/245/245 256/256/256
f 245/245/245 257/257/257 256/256/256
f 245/245/245 246/246/246 257/257/257
f 246/246/246 258/258/258 257/257/257
f 246/246/246 247/247/247 258/258/258
f 248/248/248 260/260/260 259/259/259
f 248/248/248 249/249/249 260/260/260
f 249/249/249 261/261/261 260/260/260
f 249/249/249 250/250/250 261/261/261
f 250/250/250 262/262/262 261/261/261
f 250/250/250 251/251/251 262/262/262
f 251/251/251 263/263/263 262/262/262
f 251/251/251 252/252/252 263/263/263
f 252/252/252 264/264/264 263/263/263
f 252/252/252 253/253/253 264/264/264
f 253/253/253 265/265/265 264/264/264
f 253/253/253 254/254/254 265/265/265
f 254/254/254 266/266/266 265/265/265
f 254/254/254 255/255/255 266/266/266
f 255/255/255 267/267/267 266/266/266
f 255/255/255 256/256/256 267/267/267
f 256/256/256 268/268/268 267/267/267
f 256/256/256 257/257/257 268/268/268
f 257/257/257 269/269/269 268/268/268
f 257/257/257 258/258/258 269/269/269
f 259/259/259 271/271/271 270/270/270
f 259/259/259 260/260/260 271/271/271
f 260/260/260 272/272/272 271/271/271
f 260/260/260 261/261/261 272/272/272
f 261/261/261 273/273/273 272/272/272
f 261/261/261 262/262/262 273/273/273
f 262/262/262 274/274/274 273/273/273
f 262/262/262 263/263/263 274/274/274
f 263/263/263 275/275/275 274/274/274
f 263/263/263 264/264/264 275/275/275
f 264/264/264 276/276/276 275/275/275
f 264/264/264 265/265/265 276/276/276
f 265/265/265 277/277/277 276/276/276
f 265/265/265 266/266/266 277/277/277
f 266/266/266 278/278/278 277/277/277
f 266/266/266 267/267/267 278/278/278
f 267/267/267 279/279/279 278/278/278
f 267/267/267 268/268/268 279/279/279
f 268/268/268 280/280/280 279/279/279
f 268/268/268 269/269/269 280/280/280
f 270/270/270 282/282/282 281/281/281
f 270/270/270 271/271/271 282/282/282
f 271/271/271 283/283/283 282/282/282
f 271/271/271 272/272/272 283/283/283
f 272/272/272 284/284/284 283/283/283
f 272/272/272 273/273/273 284/284/284
f 273/273/273 285/285/285 284/284/284
f 273/273/273 274/274/274 285/285/285
f 274/274/274 286/286/286 285/285/285
f 274/274/274 275/275/275 286/286/286
f 275/275/275 287/287/287 286/286/286
f 275/275/275 276/276/276 287/287/287
f 276/276/276 288/288/288 287/287/287
f 276/276/276 277/277/277 288/288/288
f 277/277/277 289/289/289 288/288/288
f 277/277/277 278/278/278 289/289/289
f 278/278/278 290/290/290 289/289/289
f 278/278/278 279/279/279 290/290/290
f 279/279/279 291/291/291 290/290/290
f 279/279/279 280/280/280 291/291/291
f 281/281/281 293/293/293 292/292/292
f 281/281/281 282/282/282 293/293/293
f 282/282/282 294/294/294 293/293/293
f 282/282/282 283/283/283 294/294/294
f 283/283/283 295/295/295 294/294/294
f 283/283/283 284/284/284 295/295/295
f 284/284/284 296/296/296 295/295/295
f 284/284/284 285/285/285 296/296/296
f 285/285/285 297/297/297 296/296/296
f 285/285/285 286/286/286 297/297/297
f 286/286/286 298/298/298 297/297/297
f 286/286/286 287/287/287 298/298/298
f 287/287/287 299/299/299 298/298/298
f 287/287/287 288/288/288 299/299/299
f 288/288/288 300/300/300 299/299/299
f 288/288/288 289/289/289 300/300/300
f 289/289/289 301/301/301 300/300/300
f 289/289/289 290/290/290 301/301/301
f 290/290/290 302/302/302 301/301/301
f 290/290/290 291/291/291 302/302/302
f 292/292/292 304/304/304 303/303/303
f 292/292/292 293/293/293 304/304/304
f 293/293/293 305/305/305 304/304/304
f 293/293/293 294/294/294 305/305/305
f 294/294/294 306/306/306 305/305/305
f 294/294/294 295/295/295 306/306/306
f 295/295/295 307/307/307 306/306/306
f 295/295/295 296/296/296 307/307/307
f 296/296/296 308/308/308 307/307/307
f 296/296/296 297/297/297 308/308/308
f 297/297/297 309/309/309 308/308/308
f 297/297/297 298/298/298 309/309/309
f 298/298/298 310/310/310 309/309/309
f 298/298/298 299/299/299 310/310/310
f 299/299/299 311/311/311 310/310/310
f 299/299/299 300/300/300 311/311/311
f 300/300/300 312/312/312 311/311/311
f 300/300/300 301/301/301 312/312/312
f 301/301/301 313/313/313 312/312/312
f 301/301/301 302/302/302 313/313/313
f 303/303/303 315/315/315 314/314/314
f 303/303/303 304/304/304 315/315/315
f 304/304/304 316/316/316 315/315/315
f 304/304/304 305/305/305 316/316/316
f 305/305/305 317/317/317 316/316/316
f 305/305/305 306/306/306 317/317/317
f 306/306/306 318/318/318 317/317/317
f 306/306/306 307/307/307 318/318/318
f 307/307/307 319/319/319 318/318/318
f 307/307/307 308/308/308 319/319/319
f 308/308/308 320/320/320 319/319/319
f 308/308/308 309/309/309 320/320/320
f 309/309/309 321/321/321 320/320/320
f 309/309/309 310/310/310 321/321/321
f 310/310/310 322/322/322 321/321/321
f 310/310/310 311/311/311 322/322/322
f 311/311/311 323/323/323 322/322/322
f 311/311/311 312/312/312 323/323/323
f 312/312/312 324/324/324 323/323/323
f 312/312/312 313/313/313 324/324/324
f 325/325/325 314/314/314 315/315/315
f 325/325/325 315/315/315 316/316/316
f 325/325/325 316/316/316 317/317/317
f 325/325/325 317/317/317 318/318/318
f 325/325/325 318/318/318 319/319/319
f 325/325/325 319/319/319 320/320/320
f 325/325/325 320/320/320 321/321/321
f 325/325/325 321/321/321 322/322/322
f 325/325/325 322/322/322 323/323/323
f 325/325/325 323/323/323 324/324/324
f 326/326/326 328/328/328 327/327/327
f 326/326/326 329/329/329 328/328/328
f 330/330/330 331/331/331 332/332/332
f 330/330/330 332/332/332 333/333/333
f 326/326/326 327/327/327 331/331/331
f 326/326/326 331/331/331 330/330/330
f 328/328/328 329/329/329 333/333/333
f 328/328/328 333/333/333 332/332/332
f 326/326/326 330/330/330 333/333/333
f 326/326/326 333/333/333 329/329/329
f 327/327/327 328/328/328 332/332/332
f 327/327/327 332/332/332 331/331/331
f 334/334/334 336/336/336 335/335/335
f 334/334/334 337/337/337 336/336/336
f 338/338/338 339/339/339 340/340/340
f 338/338/338 340/340/340 341/341/341
f 334/334/334 335/335/335 339/339/339
f 334/334/334 339/339/339 338/338/338
f 336/336/336 337/337/337 341/341/341
f 336/336/336 341/341/341 340/340/340
f 334/334/334 338/338/338 341/341/341
f 334/334/334 341/341/341 337/337/337
f 335/335/335 336/336/336 340/340/340
f 335/335/335 340/340/340 339/339/339
f 342/342/342 351/351/351 343/343/343
f 342/342/342 350/350/350 351/351/351
f 358/358/358 342/342/342 343/343/343
f 359/359/359 351/351/351 350/350/350
f 343/343/343 352/352/352 344/344/344
f 343/343/343 351/351/351 352/352/352
f 358/358/358 343/343/343 344/344/344
f 359/359/359 352/352/352 351/351/351
f 344/344/344 353/353/353 345/345/345
f 344/344/344 352/352/352 353/353/353
f 358/358/358 344/344/344 345/345/345
f 359/359/359 353/353/353 352/352/352
f 345/345/345 354/354/354 346/346/346
f 345/345/345 353/353/353 354/354/354
f 358/358/358 345/345/345 346/346/346
f 359/359/359 354/354/354 353/353/353
f 346/346/346 355/355/355 347/347/347
f 346/346/346 354/354/354 355/355/355
f 358/358/358 346/346/346 347/347/347
f 359/359/359 355/355/355 354/354/354
f 347/347/347 356/356/356 348/348/348
f 347/347/347 355/355/355 356/356/356
f 358/358/358 347/347/347 348/348/348
f 359/359/359 356/356/356 355/355/355
f 348/348/348 357/357/357 349/349/349
f 348/348/348 356/356/356 357/357/357
f 358/358/358 348/348/348 349/349/349
f 359/359/359 357/357/357 356/356/356
f 349/349/349 350/350/350 342/342/342
f 349/349/349 357/357/357 350/350/350
f 358/358/358 349/349/349 342/342/342
f 359/359/359 350/350/350 357/357/357
f 360/360/360 365/365/365 361/361/361
f 360/360/360 364/364/364 365/365/365
f 368/368/368 360/360/360 361/361/361
f 369/369/369 365/365/365 364/364/364
f 361/361/361 366/366/366 362/362/362
f 361/361/361 365/365/365 366/366/366
f 368/368/368 361/361/361 362/362/362
f 369/369/369 366/366/366 365/365/365
f 362/362/362 367/367/367 363/363/363
f 362/362/362 366/366/366 367/367/367
f 368/368/368 362/362/362 363/363/363
f 369/369/369 367/367/367 366/366/366
f 363/363/363 364/364/364 360/360/360
f 363/363/363 367/367/367 364/364/364
f 368/368/368 363/363/363 360/360/360
f 369/369/369 364/364/364 367/367/367
f 370/370/370 379/379/379 371/371/371
f 370/370/370 378/378/378 379/379/379
f 386/386/386 370/370/370 371/371/371
f 387/387/387 379/379/379 378/378/378
f 371/371/371 380/380/380 372/372/372
f 371/371/371 379/379/379 380/380/380
f 386/386/386 371/371/371 372/372/372
f 387/387/387 380/380/380 379/379/379
f 372/372/372 381/381/381 373/373/373
f 372/372/372 380/380/380 381/381/381
f 386/386/386 372/372/372 373/373/373
f 387/387/387 381/381/381 380/380/380
f 373/373/373 382/382/382 374/374/374
f 373/373/373 381/381/381 382/382/382
f 386/386/386 373/373/373 374/374/374
f 387/387/387 382/382/382 381/381/381
f 374/374/374 383/383/383 375/375/375
f 374/374/374 382/382/382 383/383/383
f 386/386/386 374/374/374 375/375/375
f 387/387/387 383/383/383 382/382/382
f 375/375/375 384/384/384 376/376/376
f 375/375/375 383/383/383 384/384/384
f 386/386/386 375/375/375 376/376/376
f 387/387/387 384/384/384 383/383/383
f 376/376/376 385/385/385 377/377/377
f 376/376/376 384/384/384 385/385/385
f 386/386/386 376/376/376 377/377/377
f 387/387/387 385/385/385 384/384/384
f 377/377/377 378/378/378 370/370/370
f 377/377/377 385/385/385 378/378/378
f 386/386/386 377/377/377 370/370/370
f 387/387/387 378/378/378 385/385/385
f 388/388/388 397/397/397 389/389/389
f 388/388/388 396/396/396 397/397/397
f 404/404/404 388/388/388 389/389/389
f 405/405/405 397/397/397 396/396/396
f 389/389/389 398/398/398 390/390/390
f 389/389/389 397/397/397 398/398/398
f 404/404/404 389/389/389 390/390/390
f 405/405/405 398/398/398 397/397/397
f 390/390/390 399/399/399 391/391/391
f 390/390/390 398/398/398 399/399/399
f 404/404/404 390/390/390 391/391/391
f 405/405/405 399/399/399 398/398/398
f 391/391/391 400/400/400 392/392/392
f 391/391/391 399/399/399 400/400/400
f 404/404/404 391/391/391 392/392/392
f 405/405/405 400/400/400 399/399/399
f 392/392/392 401/401/401 393/393/393
f 392/392/392 400/400/400 401/401/401
f 404/404/404 392/392/392 393/393/393
f 405/405/405 401/401/401 400/400/400
f 393/393/393 402/402/402 394/394/394
f 393/393/393 401/401/401 402/402/402
f 404/404/404 393/393/393 394/394/394
f 405/405/405 402/402/402 401/401/401
f 394/394/394 403/403/403 395/395/395
f 394/394/394 402/402/402 403/403/403
f 404/404/404 394/394/394 395/395/395
f 405/405/405 403/403/403 402/402/402
f 395/395/395 396/396/396 388/388/388
f 395/395/395 403/403/403 396/396/396
f 404/404/404 395/395/395 388/388/388
f 405/405/405 396/396/396 403/403/403
f 406/406/406 415/415/415 407/407/407
f 406/406/406 414/414/414 415/415/415
f 422/422/422 406/406/406 407/407/407
f 423/423/423 415/415/415 414/414/414
f 407/407/407 416/416/416 408/408/408
f 407/407/407 415/415/415 416/416/416
f 422/422/422 407/407/407 408/408/408
f 423/423/423 416/416/416 415/415/415
f 408/408/408 417/417/417 409/409/409
f 408/408/408 416/416/416 417/417/417
f 422/422/422 408/408/408 409/409/409
f 423/423/423 417/417/417 416/416/416
f 409/409/409 418/418/418 410/410/410
f 409/409/409 417/417/417 418/418/418
f 422/422/422 409/409/409 410/410/410
f 423/423/423 418/418/418 417/417/417
f 410/410/410 419/419/419 411/411/411
f 410/410/410 418/418/418 419/419/419
f 422/422/422 410/410/410 411/411/411
f 423/423/423 419/419/419 418/418/418
f 411/411/411 420/420/420 412/412/412
f 411/411/411 419/419/419 420/420/420
f 422/422/422 411/411/411 412/412/412
f 423/423/423 420/420/420 419/419/419
f 412/412/412 421/421/421 413/413/413
f 412/412/412 420/420/420 421/421/421
f 422/422/422 412/412/412 413/413/413
f 423/423/423 421/421/421 420/420/420
f 413/413/413 414/414/414 406/406/406
f 413/413/413 421/421/421 414/414/414
f 422/422/422 413/413/413 406/406/406
f 423/423/423 414/414/414 421/421/421
f 424/424/424 433/433/433 425/425/425
f 424/424/424 432/432/432 433/433/433
f 440/440/440 424/424/424 425/425/425
f 441/441/441 433/433/433 432/432/432
f 425/425/425 434/434/434 426/426/426
f 425/425/425 433/433/433 434/434/434
f 440/440/440 425/425/425 426/426/426
f 441/441/441 434/434/434 433/433/433
f 426/426/426 435/435/435 427/427/427
f 426/426/426 434/434/434 435/435/435
f 440/440/440 426/426/426 427/427/427
f 441/441/441 435/435/435 434/434/434
f 427/427/427 436/436/436 428/428/428
f 427/427/427 435/435/435 436/436/436
f 440/440/440 427/427/427 428/428/428
f 441/441/441 436/436/436 435/435/435
f 428/428/428 437/437/437 429/429/429
f 428/428/428 436/436/436 437/437/437
f 440/440/440 428/428/428 429/429/429
f 441/441/441 437/437/437 436/436/436
f 429/429/429 438/438/438 430/430/430
f 429/429/429 437/437/437 438/438/438
f 440/440/440 429/429/429 430/430/430
f 441/441/441 438/438/438 437/437/437
f 430/430/430 439/439/439 431/431/431
f 430/430/430 438/438/438 439/439/439
f 440/440/440 430/430/430 431/431/431
f 441/441/441 439/439/439 438/438/438
f 431/431/431 432/432/432 424/424/424
f 431/431/431 439/439/439 432/432/432
f 440/440/440 431/431/431 424/424/424
f 441/441/441 432/432/432 439/439/439
f 442/442/442 451/451/451 443/443/443
f 442/442/442 450/450/450 451/451/451
f 458/458/458 442/442/442 443/443/443
f 459/459/459 451/451/451 450/450/450
f 443/443/443 452/452/452 444/444/444
f 443/443/443 451/451/451 452/452/452
f 458/458/458 443/443/443 444/444/444
f 459/459/459 452/452/452 451/451/451
f 444/444/444 453/453/453 445/445/445
f 444/444/444 452/452/452 453/453/453
f 458/458/458 444/444/444 445/445/445
f 459/459/459 453/453/453 452/452/452
f 445/445/445 454/454/454 446/446/446
f 445/445/445 453/453/453 454/454/454
f 458/458/458 445/445/445 446/446/446
f 459/459/459 454/454/454 453/453/453
f 446/446/446 455/455/455 447/447/447
f 446/446/446 454/454/454 455/455/455
f 458/458/458 446/446/446 447/447/447
f 459/459/459 455/455/455 454/454/454
f 447/447/447 456/456/456 448/448/448
f 447/447/447 455/455/455 456/456/456
f 458/458/458 447/447/447 448/448/448
f 459/459/459 456/456/456 455/455/455
f 448/448/448 457/457/457 449/449/449
f 448/448/448 456/456/456 457/457/457
f 458/458/458 448/448/448 449/449/449
f 459/459/459 457/457/457 456/456/456
f 449/449/449 450/450/450 442/442/442
f 449/449/449 457/457/457 450/450/450
f 458/458/458 449/449/449 442/442/442
f 459/459/459 450/450/450 457/457/457
f 460/460/460 469/469/469 461/461/461
f 460/460/460 468/468/468 469/469/469
f 476/476/476 460/460/460 461/461/461
f 477/477/477 469/469/469 468/468/468
f 461/461/461 470/470/470 462/462/462
f 461/461/461 469/469/469 470/470/470
f 476/476/476 461/461/461 462/462/462
f 477/477/477 470/470/470 469/469/469
f 462/462/462 471/471/471 463/463/463
f 462/462/462 470/470/470 471/471/471
f 476/476/476 462/462/462 463/463/463
f 477/477/477 471/471/471 470/470/470
f 463/463/463 472/472/472 464/464/464
f 463/463/463 471/471/471 472/472/472
f 476/476/476 463/463/463 464/464/464
f 477/477/477 472/472/472 471/471/471
f 464/464/464 473/473/473 465/465/465
f 464/464/464 472/472/472 473/473/473
f 476/476/476 464/464/464 465/465/465
f 477/477/477 473/473/473 472/472/472
f 465/465/465 474/474/474 466/466/466
f 465/465/465 473/473/473 474/474/474
f 476/476/476 465/465/465 466/466/466
f 477/477/477 474/474/474 473/473/473
f 466/466/466 475/475/475 467/467/467
f 466/466/466 474/474/474 475/475/475
f 476/476/476 466/466/466 467/467/467
f 477/477/477 475/475/475 474/474/474
f 467/467/467 468/468/468 460/460/460
f 467/467/467 475/475/475 468/468/468
f 476/476/476 467/467/467 460/460/460
f 477/477/477 468/468/468 475/475/475
