# 3D Model: vehicle/car/240925_land-rover-world-ender_from-Apocalypse-Manufacturing-003 (v6 Gemini)
# Style: vehicle | Symmetry: symmetric
# Dimensions: 3.7 x 2.01 x 5.9 m
# Triangles: 912 | Vertices: 590
v -1.1 0.4 -2.9
v 1.1 0.4 -2.9
v 1.1 0.8 -2.9
v -1.1 0.8 -2.9
v -1.1 0.4 2.9
v 1.1 0.4 2.9
v 1.1 0.8 2.9
v -1.1 0.8 2.9
v -1.05 0.75 -2.75
v 1.05 0.75 -2.75
v 1.05 1.85 -2.75
v -1.05 1.85 -2.75
v -1.05 0.75 2.75
v 1.05 0.75 2.75
v 1.05 1.85 2.75
v -1.05 1.85 2.75
v -1.025 1.85 -1.9
v 1.025 1.85 -1.9
v 1.025 2.05 -1.9
v -1.025 2.05 -1.9
v -1.025 1.85 1.3
v 1.025 1.85 1.3
v 1.025 2.05 1.3
v -1.025 2.05 1.3
v -0.95 2.1 -1.7
v 0.95 2.1 -1.7
v 0.95 2.2 -1.7
v -0.95 2.2 -1.7
v -0.95 2.1 1.1
v 0.95 2.1 1.1
v 0.95 2.2 1.1
v -0.95 2.2 1.1
v -1.025 1.25 1
v 1.025 1.25 1
v 1.025 1.65 1
v -1.025 1.65 1
v -1.025 1.25 2.6
v 1.025 1.25 2.6
v 1.025 1.65 2.6
v -1.025 1.65 2.6
v -0.95 1.305 0.6787
v 0.95 1.305 0.6787
v 0.95 2.1339 1.0292
v -0.95 2.1339 1.0292
v -0.95 1.2661 0.7708
v 0.95 1.2661 0.7708
v 0.95 2.095 1.1213
v -0.95 2.095 1.1213
v -1.11 1.25 -0.9
v -1.01 1.25 -0.9
v -1.01 1.95 -0.9
v -1.11 1.95 -0.9
v -1.11 1.25 1.3
v -1.01 1.25 1.3
v -1.01 1.95 1.3
v -1.11 1.95 1.3
v 1.01 1.25 -0.9
v 1.11 1.25 -0.9
v 1.11 1.95 -0.9
v 1.01 1.95 -0.9
v 1.01 1.25 1.3
v 1.11 1.25 1.3
v 1.11 1.95 1.3
v 1.01 1.95 1.3
v -0.95 1.25 -1.35
v 0.95 1.25 -1.35
v 0.95 1.95 -1.35
v -0.95 1.95 -1.35
v -0.95 1.25 -1.25
v 0.95 1.25 -1.25
v 0.95 1.95 -1.25
v -0.95 1.95 -1.25
v -1.05 0.65 2.6
v 1.05 0.65 2.6
v 1.05 1.55 2.6
v -1.05 1.55 2.6
v -1.05 0.65 3
v 1.05 0.65 3
v 1.05 1.55 3
v -1.05 1.55 3
v -0.95 1.3 -2.25
v 0.95 1.3 -2.25
v 0.95 2.1 -2.25
v -0.95 2.1 -2.25
v -0.95 1.3 -1.95
v 0.95 1.3 -1.95
v 0.95 2.1 -1.95
v -0.95 2.1 -1.95
v -0.45 0.55 1.7
v -0.575 0.7665 1.7
v -0.825 0.7665 1.7
v -0.95 0.55 1.7
v -0.825 0.3335 1.7
v -0.575 0.3335 1.7
v -0.45 0.55 1.7
v -0.5837 0.55 2.1114
v -0.6848 0.7665 2.038
v -0.8871 0.7665 1.891
v -0.9882 0.55 1.8176
v -0.8871 0.3335 1.891
v -0.6848 0.3335 2.038
v -0.5837 0.55 2.1114
v -0.9337 0.55 2.3657
v -0.9723 0.7665 2.2469
v -1.0496 0.7665 2.0091
v -1.0882 0.55 1.8902
v -1.0496 0.3335 2.0091
v -0.9723 0.3335 2.2469
v -0.9337 0.55 2.3657
v -1.3663 0.55 2.3657
v -1.3277 0.7665 2.2469
v -1.2504 0.7665 2.0091
v -1.2118 0.55 1.8902
v -1.2504 0.3335 2.0091
v -1.3277 0.3335 2.2469
v -1.3663 0.55 2.3657
v -1.7163 0.55 2.1114
v -1.6152 0.7665 2.038
v -1.4129 0.7665 1.891
v -1.3118 0.55 1.8176
v -1.4129 0.3335 1.891
v -1.6152 0.3335 2.038
v -1.7163 0.55 2.1114
v -1.85 0.55 1.7
v -1.725 0.7665 1.7
v -1.475 0.7665 1.7
v -1.35 0.55 1.7
v -1.475 0.3335 1.7
v -1.725 0.3335 1.7
v -1.85 0.55 1.7
v -1.7163 0.55 1.2886
v -1.6152 0.7665 1.362
v -1.4129 0.7665 1.509
v -1.3118 0.55 1.5824
v -1.4129 0.3335 1.509
v -1.6152 0.3335 1.362
v -1.7163 0.55 1.2886
v -1.3663 0.55 1.0343
v -1.3277 0.7665 1.1531
v -1.2504 0.7665 1.3909
v -1.2118 0.55 1.5098
v -1.2504 0.3335 1.3909
v -1.3277 0.3335 1.1531
v -1.3663 0.55 1.0343
v -0.9337 0.55 1.0343
v -0.9723 0.7665 1.1531
v -1.0496 0.7665 1.3909
v -1.0882 0.55 1.5098
v -1.0496 0.3335 1.3909
v -0.9723 0.3335 1.1531
v -0.9337 0.55 1.0343
v -0.5837 0.55 1.2886
v -0.6848 0.7665 1.362
v -0.8871 0.7665 1.509
v -0.9882 0.55 1.5824
v -0.8871 0.3335 1.509
v -0.6848 0.3335 1.362
v -0.5837 0.55 1.2886
v -0.45 0.55 1.7
v -0.575 0.7665 1.7
v -0.825 0.7665 1.7
v -0.95 0.55 1.7
v -0.825 0.3335 1.7
v -0.575 0.3335 1.7
v -0.45 0.55 1.7
v 1.85 0.55 1.7
v 1.725 0.7665 1.7
v 1.475 0.7665 1.7
v 1.35 0.55 1.7
v 1.475 0.3335 1.7
v 1.725 0.3335 1.7
v 1.85 0.55 1.7
v 1.7163 0.55 2.1114
v 1.6152 0.7665 2.038
v 1.4129 0.7665 1.891
v 1.3118 0.55 1.8176
v 1.4129 0.3335 1.891
v 1.6152 0.3335 2.038
v 1.7163 0.55 2.1114
v 1.3663 0.55 2.3657
v 1.3277 0.7665 2.2469
v 1.2504 0.7665 2.0091
v 1.2118 0.55 1.8902
v 1.2504 0.3335 2.0091
v 1.3277 0.3335 2.2469
v 1.3663 0.55 2.3657
v 0.9337 0.55 2.3657
v 0.9723 0.7665 2.2469
v 1.0496 0.7665 2.0091
v 1.0882 0.55 1.8902
v 1.0496 0.3335 2.0091
v 0.9723 0.3335 2.2469
v 0.9337 0.55 2.3657
v 0.5837 0.55 2.1114
v 0.6848 0.7665 2.038
v 0.8871 0.7665 1.891
v 0.9882 0.55 1.8176
v 0.8871 0.3335 1.891
v 0.6848 0.3335 2.038
v 0.5837 0.55 2.1114
v 0.45 0.55 1.7
v 0.575 0.7665 1.7
v 0.825 0.7665 1.7
v 0.95 0.55 1.7
v 0.825 0.3335 1.7
v 0.575 0.3335 1.7
v 0.45 0.55 1.7
v 0.5837 0.55 1.2886
v 0.6848 0.7665 1.362
v 0.8871 0.7665 1.509
v 0.9882 0.55 1.5824
v 0.8871 0.3335 1.509
v 0.6848 0.3335 1.362
v 0.5837 0.55 1.2886
v 0.9337 0.55 1.0343
v 0.9723 0.7665 1.1531
v 1.0496 0.7665 1.3909
v 1.0882 0.55 1.5098
v 1.0496 0.3335 1.3909
v 0.9723 0.3335 1.1531
v 0.9337 0.55 1.0343
v 1.3663 0.55 1.0343
v 1.3277 0.7665 1.1531
v 1.2504 0.7665 1.3909
v 1.2118 0.55 1.5098
v 1.2504 0.3335 1.3909
v 1.3277 0.3335 1.1531
v 1.3663 0.55 1.0343
v 1.7163 0.55 1.2886
v 1.6152 0.7665 1.362
v 1.4129 0.7665 1.509
v 1.3118 0.55 1.5824
v 1.4129 0.3335 1.509
v 1.6152 0.3335 1.362
v 1.7163 0.55 1.2886
v 1.85 0.55 1.7
v 1.725 0.7665 1.7
v 1.475 0.7665 1.7
v 1.35 0.55 1.7
v 1.475 0.3335 1.7
v 1.725 0.3335 1.7
v 1.85 0.55 1.7
v -0.45 0.55 -0.6
v -0.575 0.7665 -0.6
v -0.825 0.7665 -0.6
v -0.95 0.55 -0.6
v -0.825 0.3335 -0.6
v -0.575 0.3335 -0.6
v -0.45 0.55 -0.6
v -0.5837 0.55 -0.1886
v -0.6848 0.7665 -0.262
v -0.8871 0.7665 -0.409
v -0.9882 0.55 -0.4824
v -0.8871 0.3335 -0.409
v -0.6848 0.3335 -0.262
v -0.5837 0.55 -0.1886
v -0.9337 0.55 0.0657
v -0.9723 0.7665 -0.0531
v -1.0496 0.7665 -0.2909
v -1.0882 0.55 -0.4098
v -1.0496 0.3335 -0.2909
v -0.9723 0.3335 -0.0531
v -0.9337 0.55 0.0657
v -1.3663 0.55 0.0657
v -1.3277 0.7665 -0.0531
v -1.2504 0.7665 -0.2909
v -1.2118 0.55 -0.4098
v -1.2504 0.3335 -0.2909
v -1.3277 0.3335 -0.0531
v -1.3663 0.55 0.0657
v -1.7163 0.55 -0.1886
v -1.6152 0.7665 -0.262
v -1.4129 0.7665 -0.409
v -1.3118 0.55 -0.4824
v -1.4129 0.3335 -0.409
v -1.6152 0.3335 -0.262
v -1.7163 0.55 -0.1886
v -1.85 0.55 -0.6
v -1.725 0.7665 -0.6
v -1.475 0.7665 -0.6
v -1.35 0.55 -0.6
v -1.475 0.3335 -0.6
v -1.725 0.3335 -0.6
v -1.85 0.55 -0.6
v -1.7163 0.55 -1.0114
v -1.6152 0.7665 -0.938
v -1.4129 0.7665 -0.791
v -1.3118 0.55 -0.7176
v -1.4129 0.3335 -0.791
v -1.6152 0.3335 -0.938
v -1.7163 0.55 -1.0114
v -1.3663 0.55 -1.2657
v -1.3277 0.7665 -1.1469
v -1.2504 0.7665 -0.9091
v -1.2118 0.55 -0.7902
v -1.2504 0.3335 -0.9091
v -1.3277 0.3335 -1.1469
v -1.3663 0.55 -1.2657
v -0.9337 0.55 -1.2657
v -0.9723 0.7665 -1.1469
v -1.0496 0.7665 -0.9091
v -1.0882 0.55 -0.7902
v -1.0496 0.3335 -0.9091
v -0.9723 0.3335 -1.1469
v -0.9337 0.55 -1.2657
v -0.5837 0.55 -1.0114
v -0.6848 0.7665 -0.938
v -0.8871 0.7665 -0.791
v -0.9882 0.55 -0.7176
v -0.8871 0.3335 -0.791
v -0.6848 0.3335 -0.938
v -0.5837 0.55 -1.0114
v -0.45 0.55 -0.6
v -0.575 0.7665 -0.6
v -0.825 0.7665 -0.6
v -0.95 0.55 -0.6
v -0.825 0.3335 -0.6
v -0.575 0.3335 -0.6
v -0.45 0.55 -0.6
v 1.85 0.55 -0.6
v 1.725 0.7665 -0.6
v 1.475 0.7665 -0.6
v 1.35 0.55 -0.6
v 1.475 0.3335 -0.6
v 1.725 0.3335 -0.6
v 1.85 0.55 -0.6
v 1.7163 0.55 -0.1886
v 1.6152 0.7665 -0.262
v 1.4129 0.7665 -0.409
v 1.3118 0.55 -0.4824
v 1.4129 0.3335 -0.409
v 1.6152 0.3335 -0.262
v 1.7163 0.55 -0.1886
v 1.3663 0.55 0.0657
v 1.3277 0.7665 -0.0531
v 1.2504 0.7665 -0.2909
v 1.2118 0.55 -0.4098
v 1.2504 0.3335 -0.2909
v 1.3277 0.3335 -0.0531
v 1.3663 0.55 0.0657
v 0.9337 0.55 0.0657
v 0.9723 0.7665 -0.0531
v 1.0496 0.7665 -0.2909
v 1.0882 0.55 -0.4098
v 1.0496 0.3335 -0.2909
v 0.9723 0.3335 -0.0531
v 0.9337 0.55 0.0657
v 0.5837 0.55 -0.1886
v 0.6848 0.7665 -0.262
v 0.8871 0.7665 -0.409
v 0.9882 0.55 -0.4824
v 0.8871 0.3335 -0.409
v 0.6848 0.3335 -0.262
v 0.5837 0.55 -0.1886
v 0.45 0.55 -0.6
v 0.575 0.7665 -0.6
v 0.825 0.7665 -0.6
v 0.95 0.55 -0.6
v 0.825 0.3335 -0.6
v 0.575 0.3335 -0.6
v 0.45 0.55 -0.6
v 0.5837 0.55 -1.0114
v 0.6848 0.7665 -0.938
v 0.8871 0.7665 -0.791
v 0.9882 0.55 -0.7176
v 0.8871 0.3335 -0.791
v 0.6848 0.3335 -0.938
v 0.5837 0.55 -1.0114
v 0.9337 0.55 -1.2657
v 0.9723 0.7665 -1.1469
v 1.0496 0.7665 -0.9091
v 1.0882 0.55 -0.7902
v 1.0496 0.3335 -0.9091
v 0.9723 0.3335 -1.1469
v 0.9337 0.55 -1.2657
v 1.3663 0.55 -1.2657
v 1.3277 0.7665 -1.1469
v 1.2504 0.7665 -0.9091
v 1.2118 0.55 -0.7902
v 1.2504 0.3335 -0.9091
v 1.3277 0.3335 -1.1469
v 1.3663 0.55 -1.2657
v 1.7163 0.55 -1.0114
v 1.6152 0.7665 -0.938
v 1.4129 0.7665 -0.791
v 1.3118 0.55 -0.7176
v 1.4129 0.3335 -0.791
v 1.6152 0.3335 -0.938
v 1.7163 0.55 -1.0114
v 1.85 0.55 -0.6
v 1.725 0.7665 -0.6
v 1.475 0.7665 -0.6
v 1.35 0.55 -0.6
v 1.475 0.3335 -0.6
v 1.725 0.3335 -0.6
v 1.85 0.55 -0.6
v -0.45 0.55 -1.7
v -0.575 0.7665 -1.7
v -0.825 0.7665 -1.7
v -0.95 0.55 -1.7
v -0.825 0.3335 -1.7
v -0.575 0.3335 -1.7
v -0.45 0.55 -1.7
v -0.5837 0.55 -1.2886
v -0.6848 0.7665 -1.362
v -0.8871 0.7665 -1.509
v -0.9882 0.55 -1.5824
v -0.8871 0.3335 -1.509
v -0.6848 0.3335 -1.362
v -0.5837 0.55 -1.2886
v -0.9337 0.55 -1.0343
v -0.9723 0.7665 -1.1531
v -1.0496 0.7665 -1.3909
v -1.0882 0.55 -1.5098
v -1.0496 0.3335 -1.3909
v -0.9723 0.3335 -1.1531
v -0.9337 0.55 -1.0343
v -1.3663 0.55 -1.0343
v -1.3277 0.7665 -1.1531
v -1.2504 0.7665 -1.3909
v -1.2118 0.55 -1.5098
v -1.2504 0.3335 -1.3909
v -1.3277 0.3335 -1.1531
v -1.3663 0.55 -1.0343
v -1.7163 0.55 -1.2886
v -1.6152 0.7665 -1.362
v -1.4129 0.7665 -1.509
v -1.3118 0.55 -1.5824
v -1.4129 0.3335 -1.509
v -1.6152 0.3335 -1.362
v -1.7163 0.55 -1.2886
v -1.85 0.55 -1.7
v -1.725 0.7665 -1.7
v -1.475 0.7665 -1.7
v -1.35 0.55 -1.7
v -1.475 0.3335 -1.7
v -1.725 0.3335 -1.7
v -1.85 0.55 -1.7
v -1.7163 0.55 -2.1114
v -1.6152 0.7665 -2.038
v -1.4129 0.7665 -1.891
v -1.3118 0.55 -1.8176
v -1.4129 0.3335 -1.891
v -1.6152 0.3335 -2.038
v -1.7163 0.55 -2.1114
v -1.3663 0.55 -2.3657
v -1.3277 0.7665 -2.2469
v -1.2504 0.7665 -2.0091
v -1.2118 0.55 -1.8902
v -1.2504 0.3335 -2.0091
v -1.3277 0.3335 -2.2469
v -1.3663 0.55 -2.3657
v -0.9337 0.55 -2.3657
v -0.9723 0.7665 -2.2469
v -1.0496 0.7665 -2.0091
v -1.0882 0.55 -1.8902
v -1.0496 0.3335 -2.0091
v -0.9723 0.3335 -2.2469
v -0.9337 0.55 -2.3657
v -0.5837 0.55 -2.1114
v -0.6848 0.7665 -2.038
v -0.8871 0.7665 -1.891
v -0.9882 0.55 -1.8176
v -0.8871 0.3335 -1.891
v -0.6848 0.3335 -2.038
v -0.5837 0.55 -2.1114
v -0.45 0.55 -1.7
v -0.575 0.7665 -1.7
v -0.825 0.7665 -1.7
v -0.95 0.55 -1.7
v -0.825 0.3335 -1.7
v -0.575 0.3335 -1.7
v -0.45 0.55 -1.7
v 1.85 0.55 -1.7
v 1.725 0.7665 -1.7
v 1.475 0.7665 -1.7
v 1.35 0.55 -1.7
v 1.475 0.3335 -1.7
v 1.725 0.3335 -1.7
v 1.85 0.55 -1.7
v 1.7163 0.55 -1.2886
v 1.6152 0.7665 -1.362
v 1.4129 0.7665 -1.509
v 1.3118 0.55 -1.5824
v 1.4129 0.3335 -1.509
v 1.6152 0.3335 -1.362
v 1.7163 0.55 -1.2886
v 1.3663 0.55 -1.0343
v 1.3277 0.7665 -1.1531
v 1.2504 0.7665 -1.3909
v 1.2118 0.55 -1.5098
v 1.2504 0.3335 -1.3909
v 1.3277 0.3335 -1.1531
v 1.3663 0.55 -1.0343
v 0.9337 0.55 -1.0343
v 0.9723 0.7665 -1.1531
v 1.0496 0.7665 -1.3909
v 1.0882 0.55 -1.5098
v 1.0496 0.3335 -1.3909
v 0.9723 0.3335 -1.1531
v 0.9337 0.55 -1.0343
v 0.5837 0.55 -1.2886
v 0.6848 0.7665 -1.362
v 0.8871 0.7665 -1.509
v 0.9882 0.55 -1.5824
v 0.8871 0.3335 -1.509
v 0.6848 0.3335 -1.362
v 0.5837 0.55 -1.2886
v 0.45 0.55 -1.7
v 0.575 0.7665 -1.7
v 0.825 0.7665 -1.7
v 0.95 0.55 -1.7
v 0.825 0.3335 -1.7
v 0.575 0.3335 -1.7
v 0.45 0.55 -1.7
v 0.5837 0.55 -2.1114
v 0.6848 0.7665 -2.038
v 0.8871 0.7665 -1.891
v 0.9882 0.55 -1.8176
v 0.8871 0.3335 -1.891
v 0.6848 0.3335 -2.038
v 0.5837 0.55 -2.1114
v 0.9337 0.55 -2.3657
v 0.9723 0.7665 -2.2469
v 1.0496 0.7665 -2.0091
v 1.0882 0.55 -1.8902
v 1.0496 0.3335 -2.0091
v 0.9723 0.3335 -2.2469
v 0.9337 0.55 -2.3657
v 1.3663 0.55 -2.3657
v 1.3277 0.7665 -2.2469
v 1.2504 0.7665 -2.0091
v 1.2118 0.55 -1.8902
v 1.2504 0.3335 -2.0091
v 1.3277 0.3335 -2.2469
v 1.3663 0.55 -2.3657
v 1.7163 0.55 -2.1114
v 1.6152 0.7665 -2.038
v 1.4129 0.7665 -1.891
v 1.3118 0.55 -1.8176
v 1.4129 0.3335 -1.891
v 1.6152 0.3335 -2.038
v 1.7163 0.55 -2.1114
v 1.85 0.55 -1.7
v 1.725 0.7665 -1.7
v 1.475 0.7665 -1.7
v 1.35 0.55 -1.7
v 1.475 0.3335 -1.7
v 1.725 0.3335 -1.7
v 1.85 0.55 -1.7
v -0.95 1.2 2.57
v -0.55 1.2 2.57
v -0.55 1.5 2.57
v -0.95 1.5 2.57
v -0.95 1.2 2.67
v -0.55 1.2 2.67
v -0.55 1.5 2.67
v -0.95 1.5 2.67
v 0.55 1.2 2.57
v 0.95 1.2 2.57
v 0.95 1.5 2.57
v 0.55 1.5 2.57
v 0.55 1.2 2.67
v 0.95 1.2 2.67
v 0.95 1.5 2.67
v 0.55 1.5 2.67
v -1.35 1.6 0.7
v -1.15 1.6 0.7
v -1.15 1.8 0.7
v -1.35 1.8 0.7
v -1.35 1.6 0.9
v -1.15 1.6 0.9
v -1.15 1.8 0.9
v -1.35 1.8 0.9
v 1.15 1.6 0.7
v 1.35 1.6 0.7
v 1.35 1.8 0.7
v 1.15 1.8 0.7
v 1.15 1.6 0.9
v 1.35 1.6 0.9
v 1.35 1.8 0.9
v 1.15 1.8 0.9
v -0.7 0.1897 2.1356
v 0.7 0.1897 2.1356
v 0.7 0.333 2.0912
v -0.7 0.333 2.0912
v -0.7 0.367 2.7088
v 0.7 0.367 2.7088
v 0.7 0.5103 2.6644
v -0.7 0.5103 2.6644
vt 0.5 0.5
vt 0.5 0.5
vt 0.5 0.5
vt 0.5 0.5
vt 0.5 0.5
vt 0.5 0.5
vt 0.5 0.5
vt 0.5 0.5
vt 0.5 0.5
vt 0.5 0.5
vt 0.5 0.5
vt 0.5 0.5
vt 0.5 0.5
vt 0.5 0.5
vt 0.5 0.5
vt 0.5 0.5
vt 0.5 0.5
vt 0.5 0.5
vt 0.5 0.5
vt 0.5 0.5
vt 0.5 0.5
vt 0.5 0.5
vt 0.5 0.5
vt 0.5 0.5
vt 0.5 0.5
vt 0.5 0.5
vt 0.5 0.5
vt 0.5 0.5
vt 0.5 0.5
vt 0.5 0.5
vt 0.5 0.5
vt 0.5 0.5
vt 0.5 0.5
vt 0.5 0.5
vt 0.5 0.5
vt 0.5 0.5
vt 0.5 0.5
vt 0.5 0.5
vt 0.5 0.5
vt 0.5 0.5
vt 0.5 0.5
vt 0.5 0.5
vt 0.5 0.5
vt 0.5 0.5
vt 0.5 0.5
vt 0.5 0.5
vt 0.5 0.5
vt 0.5 0.5
vt 0.5 0.5
vt 0.5 0.5
vt 0.5 0.5
vt 0.5 0.5
vt 0.5 0.5
vt 0.5 0.5
vt 0.5 0.5
vt 0.5 0.5
vt 0.5 0.5
vt 0.5 0.5
vt 0.5 0.5
vt 0.5 0.5
vt 0.5 0.5
vt 0.5 0.5
vt 0.5 0.5
vt 0.5 0.5
vt 0.5 0.5
vt 0.5 0.5
vt 0.5 0.5
vt 0.5 0.5
vt 0.5 0.5
vt 0.5 0.5
vt 0.5 0.5
vt 0.5 0.5
vt 0.5 0.5
vt 0.5 0.5
vt 0.5 0.5
vt 0.5 0.5
vt 0.5 0.5
vt 0.5 0.5
vt 0.5 0.5
vt 0.5 0.5
vt 0.5 0.5
vt 0.5 0.5
vt 0.5 0.5
vt 0.5 0.5
vt 0.5 0.5
vt 0.5 0.5
vt 0.5 0.5
vt 0.5 0.5
vt 0 0
vt 0 0.16666666666666666
vt 0 0.3333333333333333
vt 0 0.5
vt 0 0.6666666666666666
vt 0 0.8333333333333334
vt 0 1
vt 0.1 0
vt 0.1 0.16666666666666666
vt 0.1 0.3333333333333333
vt 0.1 0.5
vt 0.1 0.6666666666666666
vt 0.1 0.8333333333333334
vt 0.1 1
vt 0.2 0
vt 0.2 0.16666666666666666
vt 0.2 0.3333333333333333
vt 0.2 0.5
vt 0.2 0.6666666666666666
vt 0.2 0.8333333333333334
vt 0.2 1
vt 0.3 0
vt 0.3 0.16666666666666666
vt 0.3 0.3333333333333333
vt 0.3 0.5
vt 0.3 0.6666666666666666
vt 0.3 0.8333333333333334
vt 0.3 1
vt 0.4 0
vt 0.4 0.16666666666666666
vt 0.4 0.3333333333333333
vt 0.4 0.5
vt 0.4 0.6666666666666666
vt 0.4 0.8333333333333334
vt 0.4 1
vt 0.5 0
vt 0.5 0.16666666666666666
vt 0.5 0.3333333333333333
vt 0.5 0.5
vt 0.5 0.6666666666666666
vt 0.5 0.8333333333333334
vt 0.5 1
vt 0.6 0
vt 0.6 0.16666666666666666
vt 0.6 0.3333333333333333
vt 0.6 0.5
vt 0.6 0.6666666666666666
vt 0.6 0.8333333333333334
vt 0.6 1
vt 0.7 0
vt 0.7 0.16666666666666666
vt 0.7 0.3333333333333333
vt 0.7 0.5
vt 0.7 0.6666666666666666
vt 0.7 0.8333333333333334
vt 0.7 1
vt 0.8 0
vt 0.8 0.16666666666666666
vt 0.8 0.3333333333333333
vt 0.8 0.5
vt 0.8 0.6666666666666666
vt 0.8 0.8333333333333334
vt 0.8 1
vt 0.9 0
vt 0.9 0.16666666666666666
vt 0.9 0.3333333333333333
vt 0.9 0.5
vt 0.9 0.6666666666666666
vt 0.9 0.8333333333333334
vt 0.9 1
vt 1 0
vt 1 0.16666666666666666
vt 1 0.3333333333333333
vt 1 0.5
vt 1 0.6666666666666666
vt 1 0.8333333333333334
vt 1 1
vt 0 0
vt 0 0.16666666666666666
vt 0 0.3333333333333333
vt 0 0.5
vt 0 0.6666666666666666
vt 0 0.8333333333333334
vt 0 1
vt 0.1 0
vt 0.1 0.16666666666666666
vt 0.1 0.3333333333333333
vt 0.1 0.5
vt 0.1 0.6666666666666666
vt 0.1 0.8333333333333334
vt 0.1 1
vt 0.2 0
vt 0.2 0.16666666666666666
vt 0.2 0.3333333333333333
vt 0.2 0.5
vt 0.2 0.6666666666666666
vt 0.2 0.8333333333333334
vt 0.2 1
vt 0.3 0
vt 0.3 0.16666666666666666
vt 0.3 0.3333333333333333
vt 0.3 0.5
vt 0.3 0.6666666666666666
vt 0.3 0.8333333333333334
vt 0.3 1
vt 0.4 0
vt 0.4 0.16666666666666666
vt 0.4 0.3333333333333333
vt 0.4 0.5
vt 0.4 0.6666666666666666
vt 0.4 0.8333333333333334
vt 0.4 1
vt 0.5 0
vt 0.5 0.16666666666666666
vt 0.5 0.3333333333333333
vt 0.5 0.5
vt 0.5 0.6666666666666666
vt 0.5 0.8333333333333334
vt 0.5 1
vt 0.6 0
vt 0.6 0.16666666666666666
vt 0.6 0.3333333333333333
vt 0.6 0.5
vt 0.6 0.6666666666666666
vt 0.6 0.8333333333333334
vt 0.6 1
vt 0.7 0
vt 0.7 0.16666666666666666
vt 0.7 0.3333333333333333
vt 0.7 0.5
vt 0.7 0.6666666666666666
vt 0.7 0.8333333333333334
vt 0.7 1
vt 0.8 0
vt 0.8 0.16666666666666666
vt 0.8 0.3333333333333333
vt 0.8 0.5
vt 0.8 0.6666666666666666
vt 0.8 0.8333333333333334
vt 0.8 1
vt 0.9 0
vt 0.9 0.16666666666666666
vt 0.9 0.3333333333333333
vt 0.9 0.5
vt 0.9 0.6666666666666666
vt 0.9 0.8333333333333334
vt 0.9 1
vt 1 0
vt 1 0.16666666666666666
vt 1 0.3333333333333333
vt 1 0.5
vt 1 0.6666666666666666
vt 1 0.8333333333333334
vt 1 1
vt 0 0
vt 0 0.16666666666666666
vt 0 0.3333333333333333
vt 0 0.5
vt 0 0.6666666666666666
vt 0 0.8333333333333334
vt 0 1
vt 0.1 0
vt 0.1 0.16666666666666666
vt 0.1 0.3333333333333333
vt 0.1 0.5
vt 0.1 0.6666666666666666
vt 0.1 0.8333333333333334
vt 0.1 1
vt 0.2 0
vt 0.2 0.16666666666666666
vt 0.2 0.3333333333333333
vt 0.2 0.5
vt 0.2 0.6666666666666666
vt 0.2 0.8333333333333334
vt 0.2 1
vt 0.3 0
vt 0.3 0.16666666666666666
vt 0.3 0.3333333333333333
vt 0.3 0.5
vt 0.3 0.6666666666666666
vt 0.3 0.8333333333333334
vt 0.3 1
vt 0.4 0
vt 0.4 0.16666666666666666
vt 0.4 0.3333333333333333
vt 0.4 0.5
vt 0.4 0.6666666666666666
vt 0.4 0.8333333333333334
vt 0.4 1
vt 0.5 0
vt 0.5 0.16666666666666666
vt 0.5 0.3333333333333333
vt 0.5 0.5
vt 0.5 0.6666666666666666
vt 0.5 0.8333333333333334
vt 0.5 1
vt 0.6 0
vt 0.6 0.16666666666666666
vt 0.6 0.3333333333333333
vt 0.6 0.5
vt 0.6 0.6666666666666666
vt 0.6 0.8333333333333334
vt 0.6 1
vt 0.7 0
vt 0.7 0.16666666666666666
vt 0.7 0.3333333333333333
vt 0.7 0.5
vt 0.7 0.6666666666666666
vt 0.7 0.8333333333333334
vt 0.7 1
vt 0.8 0
vt 0.8 0.16666666666666666
vt 0.8 0.3333333333333333
vt 0.8 0.5
vt 0.8 0.6666666666666666
vt 0.8 0.8333333333333334
vt 0.8 1
vt 0.9 0
vt 0.9 0.16666666666666666
vt 0.9 0.3333333333333333
vt 0.9 0.5
vt 0.9 0.6666666666666666
vt 0.9 0.8333333333333334
vt 0.9 1
vt 1 0
vt 1 0.16666666666666666
vt 1 0.3333333333333333
vt 1 0.5
vt 1 0.6666666666666666
vt 1 0.8333333333333334
vt 1 1
vt 0 0
vt 0 0.16666666666666666
vt 0 0.3333333333333333
vt 0 0.5
vt 0 0.6666666666666666
vt 0 0.8333333333333334
vt 0 1
vt 0.1 0
vt 0.1 0.16666666666666666
vt 0.1 0.3333333333333333
vt 0.1 0.5
vt 0.1 0.6666666666666666
vt 0.1 0.8333333333333334
vt 0.1 1
vt 0.2 0
vt 0.2 0.16666666666666666
vt 0.2 0.3333333333333333
vt 0.2 0.5
vt 0.2 0.6666666666666666
vt 0.2 0.8333333333333334
vt 0.2 1
vt 0.3 0
vt 0.3 0.16666666666666666
vt 0.3 0.3333333333333333
vt 0.3 0.5
vt 0.3 0.6666666666666666
vt 0.3 0.8333333333333334
vt 0.3 1
vt 0.4 0
vt 0.4 0.16666666666666666
vt 0.4 0.3333333333333333
vt 0.4 0.5
vt 0.4 0.6666666666666666
vt 0.4 0.8333333333333334
vt 0.4 1
vt 0.5 0
vt 0.5 0.16666666666666666
vt 0.5 0.3333333333333333
vt 0.5 0.5
vt 0.5 0.6666666666666666
vt 0.5 0.8333333333333334
vt 0.5 1
vt 0.6 0
vt 0.6 0.16666666666666666
vt 0.6 0.3333333333333333
vt 0.6 0.5
vt 0.6 0.6666666666666666
vt 0.6 0.8333333333333334
vt 0.6 1
vt 0.7 0
vt 0.7 0.16666666666666666
vt 0.7 0.3333333333333333
vt 0.7 0.5
vt 0.7 0.6666666666666666
vt 0.7 0.8333333333333334
vt 0.7 1
vt 0.8 0
vt 0.8 0.16666666666666666
vt 0.8 0.3333333333333333
vt 0.8 0.5
vt 0.8 0.6666666666666666
vt 0.8 0.8333333333333334
vt 0.8 1
vt 0.9 0
vt 0.9 0.16666666666666666
vt 0.9 0.3333333333333333
vt 0.9 0.5
vt 0.9 0.6666666666666666
vt 0.9 0.8333333333333334
vt 0.9 1
vt 1 0
vt 1 0.16666666666666666
vt 1 0.3333333333333333
vt 1 0.5
vt 1 0.6666666666666666
vt 1 0.8333333333333334
vt 1 1
vt 0 0
vt 0 0.16666666666666666
vt 0 0.3333333333333333
vt 0 0.5
vt 0 0.6666666666666666
vt 0 0.8333333333333334
vt 0 1
vt 0.1 0
vt 0.1 0.16666666666666666
vt 0.1 0.3333333333333333
vt 0.1 0.5
vt 0.1 0.6666666666666666
vt 0.1 0.8333333333333334
vt 0.1 1
vt 0.2 0
vt 0.2 0.16666666666666666
vt 0.2 0.3333333333333333
vt 0.2 0.5
vt 0.2 0.6666666666666666
vt 0.2 0.8333333333333334
vt 0.2 1
vt 0.3 0
vt 0.3 0.16666666666666666
vt 0.3 0.3333333333333333
vt 0.3 0.5
vt 0.3 0.6666666666666666
vt 0.3 0.8333333333333334
vt 0.3 1
vt 0.4 0
vt 0.4 0.16666666666666666
vt 0.4 0.3333333333333333
vt 0.4 0.5
vt 0.4 0.6666666666666666
vt 0.4 0.8333333333333334
vt 0.4 1
vt 0.5 0
vt 0.5 0.16666666666666666
vt 0.5 0.3333333333333333
vt 0.5 0.5
vt 0.5 0.6666666666666666
vt 0.5 0.8333333333333334
vt 0.5 1
vt 0.6 0
vt 0.6 0.16666666666666666
vt 0.6 0.3333333333333333
vt 0.6 0.5
vt 0.6 0.6666666666666666
vt 0.6 0.8333333333333334
vt 0.6 1
vt 0.7 0
vt 0.7 0.16666666666666666
vt 0.7 0.3333333333333333
vt 0.7 0.5
vt 0.7 0.6666666666666666
vt 0.7 0.8333333333333334
vt 0.7 1
vt 0.8 0
vt 0.8 0.16666666666666666
vt 0.8 0.3333333333333333
vt 0.8 0.5
vt 0.8 0.6666666666666666
vt 0.8 0.8333333333333334
vt 0.8 1
vt 0.9 0
vt 0.9 0.16666666666666666
vt 0.9 0.3333333333333333
vt 0.9 0.5
vt 0.9 0.6666666666666666
vt 0.9 0.8333333333333334
vt 0.9 1
vt 1 0
vt 1 0.16666666666666666
vt 1 0.3333333333333333
vt 1 0.5
vt 1 0.6666666666666666
vt 1 0.8333333333333334
vt 1 1
vt 0 0
vt 0 0.16666666666666666
vt 0 0.3333333333333333
vt 0 0.5
vt 0 0.6666666666666666
vt 0 0.8333333333333334
vt 0 1
vt 0.1 0
vt 0.1 0.16666666666666666
vt 0.1 0.3333333333333333
vt 0.1 0.5
vt 0.1 0.6666666666666666
vt 0.1 0.8333333333333334
vt 0.1 1
vt 0.2 0
vt 0.2 0.16666666666666666
vt 0.2 0.3333333333333333
vt 0.2 0.5
vt 0.2 0.6666666666666666
vt 0.2 0.8333333333333334
vt 0.2 1
vt 0.3 0
vt 0.3 0.16666666666666666
vt 0.3 0.3333333333333333
vt 0.3 0.5
vt 0.3 0.6666666666666666
vt 0.3 0.8333333333333334
vt 0.3 1
vt 0.4 0
vt 0.4 0.16666666666666666
vt 0.4 0.3333333333333333
vt 0.4 0.5
vt 0.4 0.6666666666666666
vt 0.4 0.8333333333333334
vt 0.4 1
vt 0.5 0
vt 0.5 0.16666666666666666
vt 0.5 0.3333333333333333
vt 0.5 0.5
vt 0.5 0.6666666666666666
vt 0.5 0.8333333333333334
vt 0.5 1
vt 0.6 0
vt 0.6 0.16666666666666666
vt 0.6 0.3333333333333333
vt 0.6 0.5
vt 0.6 0.6666666666666666
vt 0.6 0.8333333333333334
vt 0.6 1
vt 0.7 0
vt 0.7 0.16666666666666666
vt 0.7 0.3333333333333333
vt 0.7 0.5
vt 0.7 0.6666666666666666
vt 0.7 0.8333333333333334
vt 0.7 1
vt 0.8 0
vt 0.8 0.16666666666666666
vt 0.8 0.3333333333333333
vt 0.8 0.5
vt 0.8 0.6666666666666666
vt 0.8 0.8333333333333334
vt 0.8 1
vt 0.9 0
vt 0.9 0.16666666666666666
vt 0.9 0.3333333333333333
vt 0.9 0.5
vt 0.9 0.6666666666666666
vt 0.9 0.8333333333333334
vt 0.9 1
vt 1 0
vt 1 0.16666666666666666
vt 1 0.3333333333333333
vt 1 0.5
vt 1 0.6666666666666666
vt 1 0.8333333333333334
vt 1 1
vt 0.5 0.5
vt 0.5 0.5
vt 0.5 0.5
vt 0.5 0.5
vt 0.5 0.5
vt 0.5 0.5
vt 0.5 0.5
vt 0.5 0.5
vt 0.5 0.5
vt 0.5 0.5
vt 0.5 0.5
vt 0.5 0.5
vt 0.5 0.5
vt 0.5 0.5
vt 0.5 0.5
vt 0.5 0.5
vt 0.5 0.5
vt 0.5 0.5
vt 0.5 0.5
vt 0.5 0.5
vt 0.5 0.5
vt 0.5 0.5
vt 0.5 0.5
vt 0.5 0.5
vt 0.5 0.5
vt 0.5 0.5
vt 0.5 0.5
vt 0.5 0.5
vt 0.5 0.5
vt 0.5 0.5
vt 0.5 0.5
vt 0.5 0.5
vt 0.5 0.5
vt 0.5 0.5
vt 0.5 0.5
vt 0.5 0.5
vt 0.5 0.5
vt 0.5 0.5
vt 0.5 0.5
vt 0.5 0.5
vn 0 1 0
vn 0 1 0
vn 0 1 0
vn 0 1 0
vn 0 1 0
vn 0 1 0
vn 0 1 0
vn 0 1 0
vn 0 1 0
vn 0 1 0
vn 0 1 0
vn 0 1 0
vn 0 1 0
vn 0 1 0
vn 0 1 0
vn 0 1 0
vn 0 1 0
vn 0 1 0
vn 0 1 0
vn 0 1 0
vn 0 1 0
vn 0 1 0
vn 0 1 0
vn 0 1 0
vn 0 1 0
vn 0 1 0
vn 0 1 0
vn 0 1 0
vn 0 1 0
vn 0 1 0
vn 0 1 0
vn 0 1 0
vn 0 1 0
vn 0 1 0
vn 0 1 0
vn 0 1 0
vn 0 1 0
vn 0 1 0
vn 0 1 0
vn 0 1 0
vn 0 1 0
vn 0 1 0
vn 0 1 0
vn 0 1 0
vn 0 1 0
vn 0 1 0
vn 0 1 0
vn 0 1 0
vn 0 1 0
vn 0 1 0
vn 0 1 0
vn 0 1 0
vn 0 1 0
vn 0 1 0
vn 0 1 0
vn 0 1 0
vn 0 1 0
vn 0 1 0
vn 0 1 0
vn 0 1 0
vn 0 1 0
vn 0 1 0
vn 0 1 0
vn 0 1 0
vn 0 1 0
vn 0 1 0
vn 0 1 0
vn 0 1 0
vn 0 1 0
vn 0 1 0
vn 0 1 0
vn 0 1 0
vn 0 1 0
vn 0 1 0
vn 0 1 0
vn 0 1 0
vn 0 1 0
vn 0 1 0
vn 0 1 0
vn 0 1 0
vn 0 1 0
vn 0 1 0
vn 0 1 0
vn 0 1 0
vn 0 1 0
vn 0 1 0
vn 0 1 0
vn 0 1 0
vn 1 0 0
vn 0.5000000000000001 0.8660254037844386 0
vn -0.4999999999999998 0.8660254037844387 0
vn -1 1.2246467991473532e-16 0
vn -0.5000000000000004 -0.8660254037844385 0
vn 0.5000000000000001 -0.8660254037844386 0
vn 1 -2.4492935982947064e-16 0
vn 0.8090169943749475 0 0.5877852522924731
vn 0.40450849718747384 0.8660254037844386 0.2938926261462366
vn -0.40450849718747356 0.8660254037844387 -0.29389262614623646
vn -0.8090169943749475 1.2246467991473532e-16 -0.5877852522924731
vn -0.40450849718747406 -0.8660254037844385 -0.29389262614623685
vn 0.40450849718747384 -0.8660254037844386 0.2938926261462366
vn 0.8090169943749475 -2.4492935982947064e-16 0.5877852522924731
vn 0.30901699437494745 0 0.9510565162951535
vn 0.15450849718747375 0.8660254037844386 0.4755282581475769
vn -0.15450849718747367 0.8660254037844387 -0.47552825814757654
vn -0.30901699437494745 1.2246467991473532e-16 -0.9510565162951535
vn -0.15450849718747386 -0.8660254037844385 -0.4755282581475772
vn 0.15450849718747375 -0.8660254037844386 0.4755282581475769
vn 0.30901699437494745 -2.4492935982947064e-16 0.9510565162951535
vn -0.30901699437494734 0 0.9510565162951536
vn -0.1545084971874737 0.8660254037844386 0.47552825814757693
vn 0.15450849718747361 0.8660254037844387 -0.4755282581475766
vn 0.30901699437494734 1.2246467991473532e-16 -0.9510565162951536
vn 0.1545084971874738 -0.8660254037844385 -0.47552825814757727
vn -0.1545084971874737 -0.8660254037844386 0.47552825814757693
vn -0.30901699437494734 -2.4492935982947064e-16 0.9510565162951536
vn -0.8090169943749473 0 0.5877852522924732
vn -0.4045084971874738 0.8660254037844386 0.2938926261462367
vn 0.4045084971874735 0.8660254037844387 -0.2938926261462365
vn 0.8090169943749473 1.2246467991473532e-16 -0.5877852522924732
vn 0.404508497187474 -0.8660254037844385 -0.2938926261462369
vn -0.4045084971874738 -0.8660254037844386 0.2938926261462367
vn -0.8090169943749473 -2.4492935982947064e-16 0.5877852522924732
vn -1 0 1.2246467991473532e-16
vn -0.5000000000000001 0.8660254037844386 6.123233995736767e-17
vn 0.4999999999999998 0.8660254037844387 -6.123233995736764e-17
vn 1 1.2246467991473532e-16 -1.2246467991473532e-16
vn 0.5000000000000004 -0.8660254037844385 -6.123233995736771e-17
vn -0.5000000000000001 -0.8660254037844386 6.123233995736767e-17
vn -1 -2.4492935982947064e-16 1.2246467991473532e-16
vn -0.8090169943749475 0 -0.587785252292473
vn -0.40450849718747384 0.8660254037844386 -0.29389262614623657
vn 0.40450849718747356 0.8660254037844387 0.2938926261462364
vn 0.8090169943749475 1.2246467991473532e-16 0.587785252292473
vn 0.40450849718747406 -0.8660254037844385 0.2938926261462368
vn -0.40450849718747384 -0.8660254037844386 -0.29389262614623657
vn -0.8090169943749475 -2.4492935982947064e-16 -0.587785252292473
vn -0.30901699437494756 0 -0.9510565162951535
vn -0.1545084971874738 0.8660254037844386 -0.4755282581475769
vn 0.15450849718747373 0.8660254037844387 0.47552825814757654
vn 0.30901699437494756 1.2246467991473532e-16 0.9510565162951535
vn 0.15450849718747392 -0.8660254037844385 0.4755282581475772
vn -0.1545084971874738 -0.8660254037844386 -0.4755282581475769
vn -0.30901699437494756 -2.4492935982947064e-16 -0.9510565162951535
vn 0.30901699437494723 0 -0.9510565162951536
vn 0.15450849718747364 0.8660254037844386 -0.47552825814757693
vn -0.15450849718747356 0.8660254037844387 0.4755282581475766
vn -0.30901699437494723 1.2246467991473532e-16 0.9510565162951536
vn -0.15450849718747375 -0.8660254037844385 0.47552825814757727
vn 0.15450849718747364 -0.8660254037844386 -0.47552825814757693
vn 0.30901699437494723 -2.4492935982947064e-16 -0.9510565162951536
vn 0.8090169943749473 0 -0.5877852522924734
vn 0.4045084971874738 0.8660254037844386 -0.29389262614623674
vn -0.4045084971874735 0.8660254037844387 0.29389262614623657
vn -0.8090169943749473 1.2246467991473532e-16 0.5877852522924734
vn -0.404508497187474 -0.8660254037844385 0.29389262614623696
vn 0.4045084971874738 -0.8660254037844386 -0.29389262614623674
vn 0.8090169943749473 -2.4492935982947064e-16 -0.5877852522924734
vn 1 0 -2.4492935982947064e-16
vn 0.5000000000000001 0.8660254037844386 -1.2246467991473535e-16
vn -0.4999999999999998 0.8660254037844387 1.2246467991473527e-16
vn -1 1.2246467991473532e-16 2.4492935982947064e-16
vn -0.5000000000000004 -0.8660254037844385 1.2246467991473542e-16
vn 0.5000000000000001 -0.8660254037844386 -1.2246467991473535e-16
vn 1 -2.4492935982947064e-16 -2.4492935982947064e-16
vn 1 0 0
vn 0.5000000000000001 0.8660254037844386 0
vn -0.4999999999999998 0.8660254037844387 0
vn -1 1.2246467991473532e-16 0
vn -0.5000000000000004 -0.8660254037844385 0
vn 0.5000000000000001 -0.8660254037844386 0
vn 1 -2.4492935982947064e-16 0
vn 0.8090169943749475 0 0.5877852522924731
vn 0.40450849718747384 0.8660254037844386 0.2938926261462366
vn -0.40450849718747356 0.8660254037844387 -0.29389262614623646
vn -0.8090169943749475 1.2246467991473532e-16 -0.5877852522924731
vn -0.40450849718747406 -0.8660254037844385 -0.29389262614623685
vn 0.40450849718747384 -0.8660254037844386 0.2938926261462366
vn 0.8090169943749475 -2.4492935982947064e-16 0.5877852522924731
vn 0.30901699437494745 0 0.9510565162951535
vn 0.15450849718747375 0.8660254037844386 0.4755282581475769
vn -0.15450849718747367 0.8660254037844387 -0.47552825814757654
vn -0.30901699437494745 1.2246467991473532e-16 -0.9510565162951535
vn -0.15450849718747386 -0.8660254037844385 -0.4755282581475772
vn 0.15450849718747375 -0.8660254037844386 0.4755282581475769
vn 0.30901699437494745 -2.4492935982947064e-16 0.9510565162951535
vn -0.30901699437494734 0 0.9510565162951536
vn -0.1545084971874737 0.8660254037844386 0.47552825814757693
vn 0.15450849718747361 0.8660254037844387 -0.4755282581475766
vn 0.30901699437494734 1.2246467991473532e-16 -0.9510565162951536
vn 0.1545084971874738 -0.8660254037844385 -0.47552825814757727
vn -0.1545084971874737 -0.8660254037844386 0.47552825814757693
vn -0.30901699437494734 -2.4492935982947064e-16 0.9510565162951536
vn -0.8090169943749473 0 0.5877852522924732
vn -0.4045084971874738 0.8660254037844386 0.2938926261462367
vn 0.4045084971874735 0.8660254037844387 -0.2938926261462365
vn 0.8090169943749473 1.2246467991473532e-16 -0.5877852522924732
vn 0.404508497187474 -0.8660254037844385 -0.2938926261462369
vn -0.4045084971874738 -0.8660254037844386 0.2938926261462367
vn -0.8090169943749473 -2.4492935982947064e-16 0.5877852522924732
vn -1 0 1.2246467991473532e-16
vn -0.5000000000000001 0.8660254037844386 6.123233995736767e-17
vn 0.4999999999999998 0.8660254037844387 -6.123233995736764e-17
vn 1 1.2246467991473532e-16 -1.2246467991473532e-16
vn 0.5000000000000004 -0.8660254037844385 -6.123233995736771e-17
vn -0.5000000000000001 -0.8660254037844386 6.123233995736767e-17
vn -1 -2.4492935982947064e-16 1.2246467991473532e-16
vn -0.8090169943749475 0 -0.587785252292473
vn -0.40450849718747384 0.8660254037844386 -0.29389262614623657
vn 0.40450849718747356 0.8660254037844387 0.2938926261462364
vn 0.8090169943749475 1.2246467991473532e-16 0.587785252292473
vn 0.40450849718747406 -0.8660254037844385 0.2938926261462368
vn -0.40450849718747384 -0.8660254037844386 -0.29389262614623657
vn -0.8090169943749475 -2.4492935982947064e-16 -0.587785252292473
vn -0.30901699437494756 0 -0.9510565162951535
vn -0.1545084971874738 0.8660254037844386 -0.4755282581475769
vn 0.15450849718747373 0.8660254037844387 0.47552825814757654
vn 0.30901699437494756 1.2246467991473532e-16 0.9510565162951535
vn 0.15450849718747392 -0.8660254037844385 0.4755282581475772
vn -0.1545084971874738 -0.8660254037844386 -0.4755282581475769
vn -0.30901699437494756 -2.4492935982947064e-16 -0.9510565162951535
vn 0.30901699437494723 0 -0.9510565162951536
vn 0.15450849718747364 0.8660254037844386 -0.47552825814757693
vn -0.15450849718747356 0.8660254037844387 0.4755282581475766
vn -0.30901699437494723 1.2246467991473532e-16 0.9510565162951536
vn -0.15450849718747375 -0.8660254037844385 0.47552825814757727
vn 0.15450849718747364 -0.8660254037844386 -0.47552825814757693
vn 0.30901699437494723 -2.4492935982947064e-16 -0.9510565162951536
vn 0.8090169943749473 0 -0.5877852522924734
vn 0.4045084971874738 0.8660254037844386 -0.29389262614623674
vn -0.4045084971874735 0.8660254037844387 0.29389262614623657
vn -0.8090169943749473 1.2246467991473532e-16 0.5877852522924734
vn -0.404508497187474 -0.8660254037844385 0.29389262614623696
vn 0.4045084971874738 -0.8660254037844386 -0.29389262614623674
vn 0.8090169943749473 -2.4492935982947064e-16 -0.5877852522924734
vn 1 0 -2.4492935982947064e-16
vn 0.5000000000000001 0.8660254037844386 -1.2246467991473535e-16
vn -0.4999999999999998 0.8660254037844387 1.2246467991473527e-16
vn -1 1.2246467991473532e-16 2.4492935982947064e-16
vn -0.5000000000000004 -0.8660254037844385 1.2246467991473542e-16
vn 0.5000000000000001 -0.8660254037844386 -1.2246467991473535e-16
vn 1 -2.4492935982947064e-16 -2.4492935982947064e-16
vn 1 0 0
vn 0.5000000000000001 0.8660254037844386 0
vn -0.4999999999999998 0.8660254037844387 0
vn -1 1.2246467991473532e-16 0
vn -0.5000000000000004 -0.8660254037844385 0
vn 0.5000000000000001 -0.8660254037844386 0
vn 1 -2.4492935982947064e-16 0
vn 0.8090169943749475 0 0.5877852522924731
vn 0.40450849718747384 0.8660254037844386 0.2938926261462366
vn -0.40450849718747356 0.8660254037844387 -0.29389262614623646
vn -0.8090169943749475 1.2246467991473532e-16 -0.5877852522924731
vn -0.40450849718747406 -0.8660254037844385 -0.29389262614623685
vn 0.40450849718747384 -0.8660254037844386 0.2938926261462366
vn 0.8090169943749475 -2.4492935982947064e-16 0.5877852522924731
vn 0.30901699437494745 0 0.9510565162951535
vn 0.15450849718747375 0.8660254037844386 0.4755282581475769
vn -0.15450849718747367 0.8660254037844387 -0.47552825814757654
vn -0.30901699437494745 1.2246467991473532e-16 -0.9510565162951535
vn -0.15450849718747386 -0.8660254037844385 -0.4755282581475772
vn 0.15450849718747375 -0.8660254037844386 0.4755282581475769
vn 0.30901699437494745 -2.4492935982947064e-16 0.9510565162951535
vn -0.30901699437494734 0 0.9510565162951536
vn -0.1545084971874737 0.8660254037844386 0.47552825814757693
vn 0.15450849718747361 0.8660254037844387 -0.4755282581475766
vn 0.30901699437494734 1.2246467991473532e-16 -0.9510565162951536
vn 0.1545084971874738 -0.8660254037844385 -0.47552825814757727
vn -0.1545084971874737 -0.8660254037844386 0.47552825814757693
vn -0.30901699437494734 -2.4492935982947064e-16 0.9510565162951536
vn -0.8090169943749473 0 0.5877852522924732
vn -0.4045084971874738 0.8660254037844386 0.2938926261462367
vn 0.4045084971874735 0.8660254037844387 -0.2938926261462365
vn 0.8090169943749473 1.2246467991473532e-16 -0.5877852522924732
vn 0.404508497187474 -0.8660254037844385 -0.2938926261462369
vn -0.4045084971874738 -0.8660254037844386 0.2938926261462367
vn -0.8090169943749473 -2.4492935982947064e-16 0.5877852522924732
vn -1 0 1.2246467991473532e-16
vn -0.5000000000000001 0.8660254037844386 6.123233995736767e-17
vn 0.4999999999999998 0.8660254037844387 -6.123233995736764e-17
vn 1 1.2246467991473532e-16 -1.2246467991473532e-16
vn 0.5000000000000004 -0.8660254037844385 -6.123233995736771e-17
vn -0.5000000000000001 -0.8660254037844386 6.123233995736767e-17
vn -1 -2.4492935982947064e-16 1.2246467991473532e-16
vn -0.8090169943749475 0 -0.587785252292473
vn -0.40450849718747384 0.8660254037844386 -0.29389262614623657
vn 0.40450849718747356 0.8660254037844387 0.2938926261462364
vn 0.8090169943749475 1.2246467991473532e-16 0.587785252292473
vn 0.40450849718747406 -0.8660254037844385 0.2938926261462368
vn -0.40450849718747384 -0.8660254037844386 -0.29389262614623657
vn -0.8090169943749475 -2.4492935982947064e-16 -0.587785252292473
vn -0.30901699437494756 0 -0.9510565162951535
vn -0.1545084971874738 0.8660254037844386 -0.4755282581475769
vn 0.15450849718747373 0.8660254037844387 0.47552825814757654
vn 0.30901699437494756 1.2246467991473532e-16 0.9510565162951535
vn 0.15450849718747392 -0.8660254037844385 0.4755282581475772
vn -0.1545084971874738 -0.8660254037844386 -0.4755282581475769
vn -0.30901699437494756 -2.4492935982947064e-16 -0.9510565162951535
vn 0.30901699437494723 0 -0.9510565162951536
vn 0.15450849718747364 0.8660254037844386 -0.47552825814757693
vn -0.15450849718747356 0.8660254037844387 0.4755282581475766
vn -0.30901699437494723 1.2246467991473532e-16 0.9510565162951536
vn -0.15450849718747375 -0.8660254037844385 0.47552825814757727
vn 0.15450849718747364 -0.8660254037844386 -0.47552825814757693
vn 0.30901699437494723 -2.4492935982947064e-16 -0.9510565162951536
vn 0.8090169943749473 0 -0.5877852522924734
vn 0.4045084971874738 0.8660254037844386 -0.29389262614623674
vn -0.4045084971874735 0.8660254037844387 0.29389262614623657
vn -0.8090169943749473 1.2246467991473532e-16 0.5877852522924734
vn -0.404508497187474 -0.8660254037844385 0.29389262614623696
vn 0.4045084971874738 -0.8660254037844386 -0.29389262614623674
vn 0.8090169943749473 -2.4492935982947064e-16 -0.5877852522924734
vn 1 0 -2.4492935982947064e-16
vn 0.5000000000000001 0.8660254037844386 -1.2246467991473535e-16
vn -0.4999999999999998 0.8660254037844387 1.2246467991473527e-16
vn -1 1.2246467991473532e-16 2.4492935982947064e-16
vn -0.5000000000000004 -0.8660254037844385 1.2246467991473542e-16
vn 0.5000000000000001 -0.8660254037844386 -1.2246467991473535e-16
vn 1 -2.4492935982947064e-16 -2.4492935982947064e-16
vn 1 0 0
vn 0.5000000000000001 0.8660254037844386 0
vn -0.4999999999999998 0.8660254037844387 0
vn -1 1.2246467991473532e-16 0
vn -0.5000000000000004 -0.8660254037844385 0
vn 0.5000000000000001 -0.8660254037844386 0
vn 1 -2.4492935982947064e-16 0
vn 0.8090169943749475 0 0.5877852522924731
vn 0.40450849718747384 0.8660254037844386 0.2938926261462366
vn -0.40450849718747356 0.8660254037844387 -0.29389262614623646
vn -0.8090169943749475 1.2246467991473532e-16 -0.5877852522924731
vn -0.40450849718747406 -0.8660254037844385 -0.29389262614623685
vn 0.40450849718747384 -0.8660254037844386 0.2938926261462366
vn 0.8090169943749475 -2.4492935982947064e-16 0.5877852522924731
vn 0.30901699437494745 0 0.9510565162951535
vn 0.15450849718747375 0.8660254037844386 0.4755282581475769
vn -0.15450849718747367 0.8660254037844387 -0.47552825814757654
vn -0.30901699437494745 1.2246467991473532e-16 -0.9510565162951535
vn -0.15450849718747386 -0.8660254037844385 -0.4755282581475772
vn 0.15450849718747375 -0.8660254037844386 0.4755282581475769
vn 0.30901699437494745 -2.4492935982947064e-16 0.9510565162951535
vn -0.30901699437494734 0 0.9510565162951536
vn -0.1545084971874737 0.8660254037844386 0.47552825814757693
vn 0.15450849718747361 0.8660254037844387 -0.4755282581475766
vn 0.30901699437494734 1.2246467991473532e-16 -0.9510565162951536
vn 0.1545084971874738 -0.8660254037844385 -0.47552825814757727
vn -0.1545084971874737 -0.8660254037844386 0.47552825814757693
vn -0.30901699437494734 -2.4492935982947064e-16 0.9510565162951536
vn -0.8090169943749473 0 0.5877852522924732
vn -0.4045084971874738 0.8660254037844386 0.2938926261462367
vn 0.4045084971874735 0.8660254037844387 -0.2938926261462365
vn 0.8090169943749473 1.2246467991473532e-16 -0.5877852522924732
vn 0.404508497187474 -0.8660254037844385 -0.2938926261462369
vn -0.4045084971874738 -0.8660254037844386 0.2938926261462367
vn -0.8090169943749473 -2.4492935982947064e-16 0.5877852522924732
vn -1 0 1.2246467991473532e-16
vn -0.5000000000000001 0.8660254037844386 6.123233995736767e-17
vn 0.4999999999999998 0.8660254037844387 -6.123233995736764e-17
vn 1 1.2246467991473532e-16 -1.2246467991473532e-16
vn 0.5000000000000004 -0.8660254037844385 -6.123233995736771e-17
vn -0.5000000000000001 -0.8660254037844386 6.123233995736767e-17
vn -1 -2.4492935982947064e-16 1.2246467991473532e-16
vn -0.8090169943749475 0 -0.587785252292473
vn -0.40450849718747384 0.8660254037844386 -0.29389262614623657
vn 0.40450849718747356 0.8660254037844387 0.2938926261462364
vn 0.8090169943749475 1.2246467991473532e-16 0.587785252292473
vn 0.40450849718747406 -0.8660254037844385 0.2938926261462368
vn -0.40450849718747384 -0.8660254037844386 -0.29389262614623657
vn -0.8090169943749475 -2.4492935982947064e-16 -0.587785252292473
vn -0.30901699437494756 0 -0.9510565162951535
vn -0.1545084971874738 0.8660254037844386 -0.4755282581475769
vn 0.15450849718747373 0.8660254037844387 0.47552825814757654
vn 0.30901699437494756 1.2246467991473532e-16 0.9510565162951535
vn 0.15450849718747392 -0.8660254037844385 0.4755282581475772
vn -0.1545084971874738 -0.8660254037844386 -0.4755282581475769
vn -0.30901699437494756 -2.4492935982947064e-16 -0.9510565162951535
vn 0.30901699437494723 0 -0.9510565162951536
vn 0.15450849718747364 0.8660254037844386 -0.47552825814757693
vn -0.15450849718747356 0.8660254037844387 0.4755282581475766
vn -0.30901699437494723 1.2246467991473532e-16 0.9510565162951536
vn -0.15450849718747375 -0.8660254037844385 0.47552825814757727
vn 0.15450849718747364 -0.8660254037844386 -0.47552825814757693
vn 0.30901699437494723 -2.4492935982947064e-16 -0.9510565162951536
vn 0.8090169943749473 0 -0.5877852522924734
vn 0.4045084971874738 0.8660254037844386 -0.29389262614623674
vn -0.4045084971874735 0.8660254037844387 0.29389262614623657
vn -0.8090169943749473 1.2246467991473532e-16 0.5877852522924734
vn -0.404508497187474 -0.8660254037844385 0.29389262614623696
vn 0.4045084971874738 -0.8660254037844386 -0.29389262614623674
vn 0.8090169943749473 -2.4492935982947064e-16 -0.5877852522924734
vn 1 0 -2.4492935982947064e-16
vn 0.5000000000000001 0.8660254037844386 -1.2246467991473535e-16
vn -0.4999999999999998 0.8660254037844387 1.2246467991473527e-16
vn -1 1.2246467991473532e-16 2.4492935982947064e-16
vn -0.5000000000000004 -0.8660254037844385 1.2246467991473542e-16
vn 0.5000000000000001 -0.8660254037844386 -1.2246467991473535e-16
vn 1 -2.4492935982947064e-16 -2.4492935982947064e-16
vn 1 0 0
vn 0.5000000000000001 0.8660254037844386 0
vn -0.4999999999999998 0.8660254037844387 0
vn -1 1.2246467991473532e-16 0
vn -0.5000000000000004 -0.8660254037844385 0
vn 0.5000000000000001 -0.8660254037844386 0
vn 1 -2.4492935982947064e-16 0
vn 0.8090169943749475 0 0.5877852522924731
vn 0.40450849718747384 0.8660254037844386 0.2938926261462366
vn -0.40450849718747356 0.8660254037844387 -0.29389262614623646
vn -0.8090169943749475 1.2246467991473532e-16 -0.5877852522924731
vn -0.40450849718747406 -0.8660254037844385 -0.29389262614623685
vn 0.40450849718747384 -0.8660254037844386 0.2938926261462366
vn 0.8090169943749475 -2.4492935982947064e-16 0.5877852522924731
vn 0.30901699437494745 0 0.9510565162951535
vn 0.15450849718747375 0.8660254037844386 0.4755282581475769
vn -0.15450849718747367 0.8660254037844387 -0.47552825814757654
vn -0.30901699437494745 1.2246467991473532e-16 -0.9510565162951535
vn -0.15450849718747386 -0.8660254037844385 -0.4755282581475772
vn 0.15450849718747375 -0.8660254037844386 0.4755282581475769
vn 0.30901699437494745 -2.4492935982947064e-16 0.9510565162951535
vn -0.30901699437494734 0 0.9510565162951536
vn -0.1545084971874737 0.8660254037844386 0.47552825814757693
vn 0.15450849718747361 0.8660254037844387 -0.4755282581475766
vn 0.30901699437494734 1.2246467991473532e-16 -0.9510565162951536
vn 0.1545084971874738 -0.8660254037844385 -0.47552825814757727
vn -0.1545084971874737 -0.8660254037844386 0.47552825814757693
vn -0.30901699437494734 -2.4492935982947064e-16 0.9510565162951536
vn -0.8090169943749473 0 0.5877852522924732
vn -0.4045084971874738 0.8660254037844386 0.2938926261462367
vn 0.4045084971874735 0.8660254037844387 -0.2938926261462365
vn 0.8090169943749473 1.2246467991473532e-16 -0.5877852522924732
vn 0.404508497187474 -0.8660254037844385 -0.2938926261462369
vn -0.4045084971874738 -0.8660254037844386 0.2938926261462367
vn -0.8090169943749473 -2.4492935982947064e-16 0.5877852522924732
vn -1 0 1.2246467991473532e-16
vn -0.5000000000000001 0.8660254037844386 6.123233995736767e-17
vn 0.4999999999999998 0.8660254037844387 -6.123233995736764e-17
vn 1 1.2246467991473532e-16 -1.2246467991473532e-16
vn 0.5000000000000004 -0.8660254037844385 -6.123233995736771e-17
vn -0.5000000000000001 -0.8660254037844386 6.123233995736767e-17
vn -1 -2.4492935982947064e-16 1.2246467991473532e-16
vn -0.8090169943749475 0 -0.587785252292473
vn -0.40450849718747384 0.8660254037844386 -0.29389262614623657
vn 0.40450849718747356 0.8660254037844387 0.2938926261462364
vn 0.8090169943749475 1.2246467991473532e-16 0.587785252292473
vn 0.40450849718747406 -0.8660254037844385 0.2938926261462368
vn -0.40450849718747384 -0.8660254037844386 -0.29389262614623657
vn -0.8090169943749475 -2.4492935982947064e-16 -0.587785252292473
vn -0.30901699437494756 0 -0.9510565162951535
vn -0.1545084971874738 0.8660254037844386 -0.4755282581475769
vn 0.15450849718747373 0.8660254037844387 0.47552825814757654
vn 0.30901699437494756 1.2246467991473532e-16 0.9510565162951535
vn 0.15450849718747392 -0.8660254037844385 0.4755282581475772
vn -0.1545084971874738 -0.8660254037844386 -0.4755282581475769
vn -0.30901699437494756 -2.4492935982947064e-16 -0.9510565162951535
vn 0.30901699437494723 0 -0.9510565162951536
vn 0.15450849718747364 0.8660254037844386 -0.47552825814757693
vn -0.15450849718747356 0.8660254037844387 0.4755282581475766
vn -0.30901699437494723 1.2246467991473532e-16 0.9510565162951536
vn -0.15450849718747375 -0.8660254037844385 0.47552825814757727
vn 0.15450849718747364 -0.8660254037844386 -0.47552825814757693
vn 0.30901699437494723 -2.4492935982947064e-16 -0.9510565162951536
vn 0.8090169943749473 0 -0.5877852522924734
vn 0.4045084971874738 0.8660254037844386 -0.29389262614623674
vn -0.4045084971874735 0.8660254037844387 0.29389262614623657
vn -0.8090169943749473 1.2246467991473532e-16 0.5877852522924734
vn -0.404508497187474 -0.8660254037844385 0.29389262614623696
vn 0.4045084971874738 -0.8660254037844386 -0.29389262614623674
vn 0.8090169943749473 -2.4492935982947064e-16 -0.5877852522924734
vn 1 0 -2.4492935982947064e-16
vn 0.5000000000000001 0.8660254037844386 -1.2246467991473535e-16
vn -0.4999999999999998 0.8660254037844387 1.2246467991473527e-16
vn -1 1.2246467991473532e-16 2.4492935982947064e-16
vn -0.5000000000000004 -0.8660254037844385 1.2246467991473542e-16
vn 0.5000000000000001 -0.8660254037844386 -1.2246467991473535e-16
vn 1 -2.4492935982947064e-16 -2.4492935982947064e-16
vn 1 0 0
vn 0.5000000000000001 0.8660254037844386 0
vn -0.4999999999999998 0.8660254037844387 0
vn -1 1.2246467991473532e-16 0
vn -0.5000000000000004 -0.8660254037844385 0
vn 0.5000000000000001 -0.8660254037844386 0
vn 1 -2.4492935982947064e-16 0
vn 0.8090169943749475 0 0.5877852522924731
vn 0.40450849718747384 0.8660254037844386 0.2938926261462366
vn -0.40450849718747356 0.8660254037844387 -0.29389262614623646
vn -0.8090169943749475 1.2246467991473532e-16 -0.5877852522924731
vn -0.40450849718747406 -0.8660254037844385 -0.29389262614623685
vn 0.40450849718747384 -0.8660254037844386 0.2938926261462366
vn 0.8090169943749475 -2.4492935982947064e-16 0.5877852522924731
vn 0.30901699437494745 0 0.9510565162951535
vn 0.15450849718747375 0.8660254037844386 0.4755282581475769
vn -0.15450849718747367 0.8660254037844387 -0.47552825814757654
vn -0.30901699437494745 1.2246467991473532e-16 -0.9510565162951535
vn -0.15450849718747386 -0.8660254037844385 -0.4755282581475772
vn 0.15450849718747375 -0.8660254037844386 0.4755282581475769
vn 0.30901699437494745 -2.4492935982947064e-16 0.9510565162951535
vn -0.30901699437494734 0 0.9510565162951536
vn -0.1545084971874737 0.8660254037844386 0.47552825814757693
vn 0.15450849718747361 0.8660254037844387 -0.4755282581475766
vn 0.30901699437494734 1.2246467991473532e-16 -0.9510565162951536
vn 0.1545084971874738 -0.8660254037844385 -0.47552825814757727
vn -0.1545084971874737 -0.8660254037844386 0.47552825814757693
vn -0.30901699437494734 -2.4492935982947064e-16 0.9510565162951536
vn -0.8090169943749473 0 0.5877852522924732
vn -0.4045084971874738 0.8660254037844386 0.2938926261462367
vn 0.4045084971874735 0.8660254037844387 -0.2938926261462365
vn 0.8090169943749473 1.2246467991473532e-16 -0.5877852522924732
vn 0.404508497187474 -0.8660254037844385 -0.2938926261462369
vn -0.4045084971874738 -0.8660254037844386 0.2938926261462367
vn -0.8090169943749473 -2.4492935982947064e-16 0.5877852522924732
vn -1 0 1.2246467991473532e-16
vn -0.5000000000000001 0.8660254037844386 6.123233995736767e-17
vn 0.4999999999999998 0.8660254037844387 -6.123233995736764e-17
vn 1 1.2246467991473532e-16 -1.2246467991473532e-16
vn 0.5000000000000004 -0.8660254037844385 -6.123233995736771e-17
vn -0.5000000000000001 -0.8660254037844386 6.123233995736767e-17
vn -1 -2.4492935982947064e-16 1.2246467991473532e-16
vn -0.8090169943749475 0 -0.587785252292473
vn -0.40450849718747384 0.8660254037844386 -0.29389262614623657
vn 0.40450849718747356 0.8660254037844387 0.2938926261462364
vn 0.8090169943749475 1.2246467991473532e-16 0.587785252292473
vn 0.40450849718747406 -0.8660254037844385 0.2938926261462368
vn -0.40450849718747384 -0.8660254037844386 -0.29389262614623657
vn -0.8090169943749475 -2.4492935982947064e-16 -0.587785252292473
vn -0.30901699437494756 0 -0.9510565162951535
vn -0.1545084971874738 0.8660254037844386 -0.4755282581475769
vn 0.15450849718747373 0.8660254037844387 0.47552825814757654
vn 0.30901699437494756 1.2246467991473532e-16 0.9510565162951535
vn 0.15450849718747392 -0.8660254037844385 0.4755282581475772
vn -0.1545084971874738 -0.8660254037844386 -0.4755282581475769
vn -0.30901699437494756 -2.4492935982947064e-16 -0.9510565162951535
vn 0.30901699437494723 0 -0.9510565162951536
vn 0.15450849718747364 0.8660254037844386 -0.47552825814757693
vn -0.15450849718747356 0.8660254037844387 0.4755282581475766
vn -0.30901699437494723 1.2246467991473532e-16 0.9510565162951536
vn -0.15450849718747375 -0.8660254037844385 0.47552825814757727
vn 0.15450849718747364 -0.8660254037844386 -0.47552825814757693
vn 0.30901699437494723 -2.4492935982947064e-16 -0.9510565162951536
vn 0.8090169943749473 0 -0.5877852522924734
vn 0.4045084971874738 0.8660254037844386 -0.29389262614623674
vn -0.4045084971874735 0.8660254037844387 0.29389262614623657
vn -0.8090169943749473 1.2246467991473532e-16 0.5877852522924734
vn -0.404508497187474 -0.8660254037844385 0.29389262614623696
vn 0.4045084971874738 -0.8660254037844386 -0.29389262614623674
vn 0.8090169943749473 -2.4492935982947064e-16 -0.5877852522924734
vn 1 0 -2.4492935982947064e-16
vn 0.5000000000000001 0.8660254037844386 -1.2246467991473535e-16
vn -0.4999999999999998 0.8660254037844387 1.2246467991473527e-16
vn -1 1.2246467991473532e-16 2.4492935982947064e-16
vn -0.5000000000000004 -0.8660254037844385 1.2246467991473542e-16
vn 0.5000000000000001 -0.8660254037844386 -1.2246467991473535e-16
vn 1 -2.4492935982947064e-16 -2.4492935982947064e-16
vn 0 1 0
vn 0 1 0
vn 0 1 0
vn 0 1 0
vn 0 1 0
vn 0 1 0
vn 0 1 0
vn 0 1 0
vn 0 1 0
vn 0 1 0
vn 0 1 0
vn 0 1 0
vn 0 1 0
vn 0 1 0
vn 0 1 0
vn 0 1 0
vn 0 1 0
vn 0 1 0
vn 0 1 0
vn 0 1 0
vn 0 1 0
vn 0 1 0
vn 0 1 0
vn 0 1 0
vn 0 1 0
vn 0 1 0
vn 0 1 0
vn 0 1 0
vn 0 1 0
vn 0 1 0
vn 0 1 0
vn 0 1 0
vn 0 1 0
vn 0 1 0
vn 0 1 0
vn 0 1 0
vn 0 1 0
vn 0 1 0
vn 0 1 0
vn 0 1 0
f 1/1/1 3/3/3 2/2/2
f 1/1/1 4/4/4 3/3/3
f 5/5/5 6/6/6 7/7/7
f 5/5/5 7/7/7 8/8/8
f 1/1/1 2/2/2 6/6/6
f 1/1/1 6/6/6 5/5/5
f 3/3/3 4/4/4 8/8/8
f 3/3/3 8/8/8 7/7/7
f 1/1/1 5/5/5 8/8/8
f 1/1/1 8/8/8 4/4/4
f 2/2/2 3/3/3 7/7/7
f 2/2/2 7/7/7 6/6/6
f 9/9/9 11/11/11 10/10/10
f 9/9/9 12/12/12 11/11/11
f 13/13/13 14/14/14 15/15/15
f 13/13/13 15/15/15 16/16/16
f 9/9/9 10/10/10 14/14/14
f 9/9/9 14/14/14 13/13/13
f 11/11/11 12/12/12 16/16/16
f 11/11/11 16/16/16 15/15/15
f 9/9/9 13/13/13 16/16/16
f 9/9/9 16/16/16 12/12/12
f 10/10/10 11/11/11 15/15/15
f 10/10/10 15/15/15 14/14/14
f 17/17/17 19/19/19 18/18/18
f 17/17/17 20/20/20 19/19/19
f 21/21/21 22/22/22 23/23/23
f 21/21/21 23/23/23 24/24/24
f 17/17/17 18/18/18 22/22/22
f 17/17/17 22/22/22 21/21/21
f 19/19/19 20/20/20 24/24/24
f 19/19/19 24/24/24 23/23/23
f 17/17/17 21/21/21 24/24/24
f 17/17/17 24/24/24 20/20/20
f 18/18/18 19/19/19 23/23/23
f 18/18/18 23/23/23 22/22/22
f 25/25/25 27/27/27 26/26/26
f 25/25/25 28/28/28 27/27/27
f 29/29/29 30/30/30 31/31/31
f 29/29/29 31/31/31 32/32/32
f 25/25/25 26/26/26 30/30/30
f 25/25/25 30/30/30 29/29/29
f 27/27/27 28/28/28 32/32/32
f 27/27/27 32/32/32 31/31/31
f 25/25/25 29/29/29 32/32/32
f 25/25/25 32/32/32 28/28/28
f 26/26/26 27/27/27 31/31/31
f 26/26/26 31/31/31 30/30/30
f 33/33/33 35/35/35 34/34/34
f 33/33/33 36/36/36 35/35/35
f 37/37/37 38/38/38 39/39/39
f 37/37/37 39/39/39 40/40/40
f 33/33/33 34/34/34 38/38/38
f 33/33/33 38/38/38 37/37/37
f 35/35/35 36/36/36 40/40/40
f 35/35/35 40/40/40 39/39/39
f 33/33/33 37/37/37 40/40/40
f 33/33/33 40/40/40 36/36/36
f 34/34/34 35/35/35 39/39/39
f 34/34/34 39/39/39 38/38/38
f 41/41/41 43/43/43 42/42/42
f 41/41/41 44/44/44 43/43/43
f 45/45/45 46/46/46 47/47/47
f 45/45/45 47/47/47 48/48/48
f 41/41/41 42/42/42 46/46/46
f 41/41/41 46/46/46 45/45/45
f 43/43/43 44/44/44 48/48/48
f 43/43/43 48/48/48 47/47/47
f 41/41/41 45/45/45 48/48/48
f 41/41/41 48/48/48 44/44/44
f 42/42/42 43/43/43 47/47/47
f 42/42/42 47/47/47 46/46/46
f 49/49/49 51/51/51 50/50/50
f 49/49/49 52/52/52 51/51/51
f 53/53/53 54/54/54 55/55/55
f 53/53/53 55/55/55 56/56/56
f 49/49/49 50/50/50 54/54/54
f 49/49/49 54/54/54 53/53/53
f 51/51/51 52/52/52 56/56/56
f 51/51/51 56/56/56 55/55/55
f 49/49/49 53/53/53 56/56/56
f 49/49/49 56/56/56 52/52/52
f 50/50/50 51/51/51 55/55/55
f 50/50/50 55/55/55 54/54/54
f 57/57/57 59/59/59 58/58/58
f 57/57/57 60/60/60 59/59/59
f 61/61/61 62/62/62 63/63/63
f 61/61/61 63/63/63 64/64/64
f 57/57/57 58/58/58 62/62/62
f 57/57/57 62/62/62 61/61/61
f 59/59/59 60/60/60 64/64/64
f 59/59/59 64/64/64 63/63/63
f 57/57/57 61/61/61 64/64/64
f 57/57/57 64/64/64 60/60/60
f 58/58/58 59/59/59 63/63/63
f 58/58/58 63/63/63 62/62/62
f 65/65/65 67/67/67 66/66/66
f 65/65/65 68/68/68 67/67/67
f 69/69/69 70/70/70 71/71/71
f 69/69/69 71/71/71 72/72/72
f 65/65/65 66/66/66 70/70/70
f 65/65/65 70/70/70 69/69/69
f 67/67/67 68/68/68 72/72/72
f 67/67/67 72/72/72 71/71/71
f 65/65/65 69/69/69 72/72/72
f 65/65/65 72/72/72 68/68/68
f 66/66/66 67/67/67 71/71/71
f 66/66/66 71/71/71 70/70/70
f 73/73/73 75/75/75 74/74/74
f 73/73/73 76/76/76 75/75/75
f 77/77/77 78/78/78 79/79/79
f 77/77/77 79/79/79 80/80/80
f 73/73/73 74/74/74 78/78/78
f 73/73/73 78/78/78 77/77/77
f 75/75/75 76/76/76 80/80/80
f 75/75/75 80/80/80 79/79/79
f 73/73/73 77/77/77 80/80/80
f 73/73/73 80/80/80 76/76/76
f 74/74/74 75/75/75 79/79/79
f 74/74/74 79/79/79 78/78/78
f 81/81/81 83/83/83 82/82/82
f 81/81/81 84/84/84 83/83/83
f 85/85/85 86/86/86 87/87/87
f 85/85/85 87/87/87 88/88/88
f 81/81/81 82/82/82 86/86/86
f 81/81/81 86/86/86 85/85/85
f 83/83/83 84/84/84 88/88/88
f 83/83/83 88/88/88 87/87/87
f 81/81/81 85/85/85 88/88/88
f 81/81/81 88/88/88 84/84/84
f 82/82/82 83/83/83 87/87/87
f 82/82/82 87/87/87 86/86/86
f 89/89/89 96/96/96 97/97/97
f 89/89/89 97/97/97 90/90/90
f 90/90/90 97/97/97 98/98/98
f 90/90/90 98/98/98 91/91/91
f 91/91/91 98/98/98 99/99/99
f 91/91/91 99/99/99 92/92/92
f 92/92/92 99/99/99 100/100/100
f 92/92/92 100/100/100 93/93/93
f 93/93/93 100/100/100 101/101/101
f 93/93/93 101/101/101 94/94/94
f 94/94/94 101/101/101 102/102/102
f 94/94/94 102/102/102 95/95/95
f 96/96/96 103/103/103 104/104/104
f 96/96/96 104/104/104 97/97/97
f 97/97/97 104/104/104 105/105/105
f 97/97/97 105/105/105 98/98/98
f 98/98/98 105/105/105 106/106/106
f 98/98/98 106/106/106 99/99/99
f 99/99/99 106/106/106 107/107/107
f 99/99/99 107/107/107 100/100/100
f 100/100/100 107/107/107 108/108/108
f 100/100/100 108/108/108 101/101/101
f 101/101/101 108/108/108 109/109/109
f 101/101/101 109/109/109 102/102/102
f 103/103/103 110/110/110 111/111/111
f 103/103/103 111/111/111 104/104/104
f 104/104/104 111/111/111 112/112/112
f 104/104/104 112/112/112 105/105/105
f 105/105/105 112/112/112 113/113/113
f 105/105/105 113/113/113 106/106/106
f 106/106/106 113/113/113 114/114/114
f 106/106/106 114/114/114 107/107/107
f 107/107/107 114/114/114 115/115/115
f 107/107/107 115/115/115 108/108/108
f 108/108/108 115/115/115 116/116/116
f 108/108/108 116/116/116 109/109/109
f 110/110/110 117/117/117 118/118/118
f 110/110/110 118/118/118 111/111/111
f 111/111/111 118/118/118 119/119/119
f 111/111/111 119/119/119 112/112/112
f 112/112/112 119/119/119 120/120/120
f 112/112/112 120/120/120 113/113/113
f 113/113/113 120/120/120 121/121/121
f 113/113/113 121/121/121 114/114/114
f 114/114/114 121/121/121 122/122/122
f 114/114/114 122/122/122 115/115/115
f 115/115/115 122/122/122 123/123/123
f 115/115/115 123/123/123 116/116/116
f 117/117/117 124/124/124 125/125/125
f 117/117/117 125/125/125 118/118/118
f 118/118/118 125/125/125 126/126/126
f 118/118/118 126/126/126 119/119/119
f 119/119/119 126/126/126 127/127/127
f 119/119/119 127/127/127 120/120/120
f 120/120/120 127/127/127 128/128/128
f 120/120/120 128/128/128 121/121/121
f 121/121/121 128/128/128 129/129/129
f 121/121/121 129/129/129 122/122/122
f 122/122/122 129/129/129 130/130/130
f 122/122/122 130/130/130 123/123/123
f 124/124/124 131/131/131 132/132/132
f 124/124/124 132/132/132 125/125/125
f 125/125/125 132/132/132 133/133/133
f 125/125/125 133/133/133 126/126/126
f 126/126/126 133/133/133 134/134/134
f 126/126/126 134/134/134 127/127/127
f 127/127/127 134/134/134 135/135/135
f 127/127/127 135/135/135 128/128/128
f 128/128/128 135/135/135 136/136/136
f 128/128/128 136/136/136 129/129/129
f 129/129/129 136/136/136 137/137/137
f 129/129/129 137/137/137 130/130/130
f 131/131/131 138/138/138 139/139/139
f 131/131/131 139/139/139 132/132/132
f 132/132/132 139/139/139 140/140/140
f 132/132/132 140/140/140 133/133/133
f 133/133/133 140/140/140 141/141/141
f 133/133/133 141/141/141 134/134/134
f 134/134/134 141/141/141 142/142/142
f 134/134/134 142/142/142 135/135/135
f 135/135/135 142/142/142 143/143/143
f 135/135/135 143/143/143 136/136/136
f 136/136/136 143/143/143 144/144/144
f 136/136/136 144/144/144 137/137/137
f 138/138/138 145/145/145 146/146/146
f 138/138/138 146/146/146 139/139/139
f 139/139/139 146/146/146 147/147/147
f 139/139/139 147/147/147 140/140/140
f 140/140/140 147/147/147 148/148/148
f 140/140/140 148/148/148 141/141/141
f 141/141/141 148/148/148 149/149/149
f 141/141/141 149/149/149 142/142/142
f 142/142/142 149/149/149 150/150/150
f 142/142/142 150/150/150 143/143/143
f 143/143/143 150/150/150 151/151/151
f 143/143/143 151/151/151 144/144/144
f 145/145/145 152/152/152 153/153/153
f 145/145/145 153/153/153 146/146/146
f 146/146/146 153/153/153 154/154/154
f 146/146/146 154/154/154 147/147/147
f 147/147/147 154/154/154 155/155/155
f 147/147/147 155/155/155 148/148/148
f 148/148/148 155/155/155 156/156/156
f 148/148/148 156/156/156 149/149/149
f 149/149/149 156/156/156 157/157/157
f 149/149/149 157/157/157 150/150/150
f 150/150/150 157/157/157 158/158/158
f 150/150/150 158/158/158 151/151/151
f 152/152/152 159/159/159 160/160/160
f 152/152/152 160/160/160 153/153/153
f 153/153/153 160/160/160 161/161/161
f 153/153/153 161/161/161 154/154/154
f 154/154/154 161/161/161 162/162/162
f 154/154/154 162/162/162 155/155/155
f 155/155/155 162/162/162 163/163/163
f 155/155/155 163/163/163 156/156/156
f 156/156/156 163/163/163 164/164/164
f 156/156/156 164/164/164 157/157/157
f 157/157/157 164/164/164 165/165/165
f 157/157/157 165/165/165 158/158/158
f 166/166/166 173/173/173 174/174/174
f 166/166/166 174/174/174 167/167/167
f 167/167/167 174/174/174 175/175/175
f 167/167/167 175/175/175 168/168/168
f 168/168/168 175/175/175 176/176/176
f 168/168/168 176/176/176 169/169/169
f 169/169/169 176/176/176 177/177/177
f 169/169/169 177/177/177 170/170/170
f 170/170/170 177/177/177 178/178/178
f 170/170/170 178/178/178 171/171/171
f 171/171/171 178/178/178 179/179/179
f 171/171/171 179/179/179 172/172/172
f 173/173/173 180/180/180 181/181/181
f 173/173/173 181/181/181 174/174/174
f 174/174/174 181/181/181 182/182/182
f 174/174/174 182/182/182 175/175/175
f 175/175/175 182/182/182 183/183/183
f 175/175/175 183/183/183 176/176/176
f 176/176/176 183/183/183 184/184/184
f 176/176/176 184/184/184 177/177/177
f 177/177/177 184/184/184 185/185/185
f 177/177/177 185/185/185 178/178/178
f 178/178/178 185/185/185 186/186/186
f 178/178/178 186/186/186 179/179/179
f 180/180/180 187/187/187 188/188/188
f 180/180/180 188/188/188 181/181/181
f 181/181/181 188/188/188 189/189/189
f 181/181/181 189/189/189 182/182/182
f 182/182/182 189/189/189 190/190/190
f 182/182/182 190/190/190 183/183/183
f 183/183/183 190/190/190 191/191/191
f 183/183/183 191/191/191 184/184/184
f 184/184/184 191/191/191 192/192/192
f 184/184/184 192/192/192 185/185/185
f 185/185/185 192/192/192 193/193/193
f 185/185/185 193/193/193 186/186/186
f 187/187/187 194/194/194 195/195/195
f 187/187/187 195/195/195 188/188/188
f 188/188/188 195/195/195 196/196/196
f 188/188/188 196/196/196 189/189/189
f 189/189/189 196/196/196 197/197/197
f 189/189/189 197/197/197 190/190/190
f 190/190/190 197/197/197 198/198/198
f 190/190/190 198/198/198 191/191/191
f 191/191/191 198/198/198 199/199/199
f 191/191/191 199/199/199 192/192/192
f 192/192/192 199/199/199 200/200/200
f 192/192/192 200/200/200 193/193/193
f 194/194/194 201/201/201 202/202/202
f 194/194/194 202/202/202 195/195/195
f 195/195/195 202/202/202 203/203/203
f 195/195/195 203/203/203 196/196/196
f 196/196/196 203/203/203 204/204/204
f 196/196/196 204/204/204 197/197/197
f 197/197/197 204/204/204 205/205/205
f 197/197/197 205/205/205 198/198/198
f 198/198/198 205/205/205 206/206/206
f 198/198/198 206/206/206 199/199/199
f 199/199/199 206/206/206 207/207/207
f 199/199/199 207/207/207 200/200/200
f 201/201/201 208/208/208 209/209/209
f 201/201/201 209/209/209 202/202/202
f 202/202/202 209/209/209 210/210/210
f 202/202/202 210/210/210 203/203/203
f 203/203/203 210/210/210 211/211/211
f 203/203/203 211/211/211 204/204/204
f 204/204/204 211/211/211 212/212/212
f 204/204/204 212/212/212 205/205/205
f 205/205/205 212/212/212 213/213/213
f 205/205/205 213/213/213 206/206/206
f 206/206/206 213/213/213 214/214/214
f 206/206/206 214/214/214 207/207/207
f 208/208/208 215/215/215 216/216/216
f 208/208/208 216/216/216 209/209/209
f 209/209/209 216/216/216 217/217/217
f 209/209/209 217/217/217 210/210/210
f 210/210/210 217/217/217 218/218/218
f 210/210/210 218/218/218 211/211/211
f 211/211/211 218/218/218 219/219/219
f 211/211/211 219/219/219 212/212/212
f 212/212/212 219/219/219 220/220/220
f 212/212/212 220/220/220 213/213/213
f 213/213/213 220/220/220 221/221/221
f 213/213/213 221/221/221 214/214/214
f 215/215/215 222/222/222 223/223/223
f 215/215/215 223/223/223 216/216/216
f 216/216/216 223/223/223 224/224/224
f 216/216/216 224/224/224 217/217/217
f 217/217/217 224/224/224 225/225/225
f 217/217/217 225/225/225 218/218/218
f 218/218/218 225/225/225 226/226/226
f 218/218/218 226/226/226 219/219/219
f 219/219/219 226/226/226 227/227/227
f 219/219/219 227/227/227 220/220/220
f 220/220/220 227/227/227 228/228/228
f 220/220/220 228/228/228 221/221/221
f 222/222/222 229/229/229 230/230/230
f 222/222/222 230/230/230 223/223/223
f 223/223/223 230/230/230 231/231/231
f 223/223/223 231/231/231 224/224/224
f 224/224/224 231/231/231 232/232/232
f 224/224/224 232/232/232 225/225/225
f 225/225/225 232/232/232 233/233/233
f 225/225/225 233/233/233 226/226/226
f 226/226/226 233/233/233 234/234/234
f 226/226/226 234/234/234 227/227/227
f 227/227/227 234/234/234 235/235/235
f 227/227/227 235/235/235 228/228/228
f 229/229/229 236/236/236 237/237/237
f 229/229/229 237/237/237 230/230/230
f 230/230/230 237/237/237 238/238/238
f 230/230/230 238/238/238 231/231/231
f 231/231/231 238/238/238 239/239/239
f 231/231/231 239/239/239 232/232/232
f 232/232/232 239/239/239 240/240/240
f 232/232/232 240/240/240 233/233/233
f 233/233/233 240/240/240 241/241/241
f 233/233/233 241/241/241 234/234/234
f 234/234/234 241/241/241 242/242/242
f 234/234/234 242/242/242 235/235/235
f 243/243/243 250/250/250 251/251/251
f 243/243/243 251/251/251 244/244/244
f 244/244/244 251/251/251 252/252/252
f 244/244/244 252/252/252 245/245/245
f 245/245/245 252/252/252 253/253/253
f 245/245/245 253/253/253 246/246/246
f 246/246/246 253/253/253 254/254/254
f 246/246/246 254/254/254 247/247/247
f 247/247/247 254/254/254 255/255/255
f 247/247/247 255/255/255 248/248/248
f 248/248/248 255/255/255 256/256/256
f 248/248/248 256/256/256 249/249/249
f 250/250/250 257/257/257 258/258/258
f 250/250/250 258/258/258 251/251/251
f 251/251/251 258/258/258 259/259/259
f 251/251/251 259/259/259 252/252/252
f 252/252/252 259/259/259 260/260/260
f 252/252/252 260/260/260 253/253/253
f 253/253/253 260/260/260 261/261/261
f 253/253/253 261/261/261 254/254/254
f 254/254/254 261/261/261 262/262/262
f 254/254/254 262/262/262 255/255/255
f 255/255/255 262/262/262 263/263/263
f 255/255/255 263/263/263 256/256/256
f 257/257/257 264/264/264 265/265/265
f 257/257/257 265/265/265 258/258/258
f 258/258/258 265/265/265 266/266/266
f 258/258/258 266/266/266 259/259/259
f 259/259/259 266/266/266 267/267/267
f 259/259/259 267/267/267 260/260/260
f 260/260/260 267/267/267 268/268/268
f 260/260/260 268/268/268 261/261/261
f 261/261/261 268/268/268 269/269/269
f 261/261/261 269/269/269 262/262/262
f 262/262/262 269/269/269 270/270/270
f 262/262/262 270/270/270 263/263/263
f 264/264/264 271/271/271 272/272/272
f 264/264/264 272/272/272 265/265/265
f 265/265/265 272/272/272 273/273/273
f 265/265/265 273/273/273 266/266/266
f 266/266/266 273/273/273 274/274/274
f 266/266/266 274/274/274 267/267/267
f 267/267/267 274/274/274 275/275/275
f 267/267/267 275/275/275 268/268/268
f 268/268/268 275/275/275 276/276/276
f 268/268/268 276/276/276 269/269/269
f 269/269/269 276/276/276 277/277/277
f 269/269/269 277/277/277 270/270/270
f 271/271/271 278/278/278 279/279/279
f 271/271/271 279/279/279 272/272/272
f 272/272/272 279/279/279 280/280/280
f 272/272/272 280/280/280 273/273/273
f 273/273/273 280/280/280 281/281/281
f 273/273/273 281/281/281 274/274/274
f 274/274/274 281/281/281 282/282/282
f 274/274/274 282/282/282 275/275/275
f 275/275/275 282/282/282 283/283/283
f 275/275/275 283/283/283 276/276/276
f 276/276/276 283/283/283 284/284/284
f 276/276/276 284/284/284 277/277/277
f 278/278/278 285/285/285 286/286/286
f 278/278/278 286/286/286 279/279/279
f 279/279/279 286/286/286 287/287/287
f 279/279/279 287/287/287 280/280/280
f 280/280/280 287/287/287 288/288/288
f 280/280/280 288/288/288 281/281/281
f 281/281/281 288/288/288 289/289/289
f 281/281/281 289/289/289 282/282/282
f 282/282/282 289/289/289 290/290/290
f 282/282/282 290/290/290 283/283/283
f 283/283/283 290/290/290 291/291/291
f 283/283/283 291/291/291 284/284/284
f 285/285/285 292/292/292 293/293/293
f 285/285/285 293/293/293 286/286/286
f 286/286/286 293/293/293 294/294/294
f 286/286/286 294/294/294 287/287/287
f 287/287/287 294/294/294 295/295/295
f 287/287/287 295/295/295 288/288/288
f 288/288/288 295/295/295 296/296/296
f 288/288/288 296/296/296 289/289/289
f 289/289/289 296/296/296 297/297/297
f 289/289/289 297/297/297 290/290/290
f 290/290/290 297/297/297 298/298/298
f 290/290/290 298/298/298 291/291/291
f 292/292/292 299/299/299 300/300/300
f 292/292/292 300/300/300 293/293/293
f 293/293/293 300/300/300 301/301/301
f 293/293/293 301/301/301 294/294/294
f 294/294/294 301/301/301 302/302/302
f 294/294/294 302/302/302 295/295/295
f 295/295/295 302/302/302 303/303/303
f 295/295/295 303/303/303 296/296/296
f 296/296/296 303/303/303 304/304/304
f 296/296/296 304/304/304 297/297/297
f 297/297/297 304/304/304 305/305/305
f 297/297/297 305/305/305 298/298/298
f 299/299/299 306/306/306 307/307/307
f 299/299/299 307/307/307 300/300/300
f 300/300/300 307/307/307 308/308/308
f 300/300/300 308/308/308 301/301/301
f 301/301/301 308/308/308 309/309/309
f 301/301/301 309/309/309 302/302/302
f 302/302/302 309/309/309 310/310/310
f 302/302/302 310/310/310 303/303/303
f 303/303/303 310/310/310 311/311/311
f 303/303/303 311/311/311 304/304/304
f 304/304/304 311/311/311 312/312/312
f 304/304/304 312/312/312 305/305/305
f 306/306/306 313/313/313 314/314/314
f 306/306/306 314/314/314 307/307/307
f 307/307/307 314/314/314 315/315/315
f 307/307/307 315/315/315 308/308/308
f 308/308/308 315/315/315 316/316/316
f 308/308/308 316/316/316 309/309/309
f 309/309/309 316/316/316 317/317/317
f 309/309/309 317/317/317 310/310/310
f 310/310/310 317/317/317 318/318/318
f 310/310/310 318/318/318 311/311/311
f 311/311/311 318/318/318 319/319/319
f 311/311/311 319/319/319 312/312/312
f 320/320/320 327/327/327 328/328/328
f 320/320/320 328/328/328 321/321/321
f 321/321/321 328/328/328 329/329/329
f 321/321/321 329/329/329 322/322/322
f 322/322/322 329/329/329 330/330/330
f 322/322/322 330/330/330 323/323/323
f 323/323/323 330/330/330 331/331/331
f 323/323/323 331/331/331 324/324/324
f 324/324/324 331/331/331 332/332/332
f 324/324/324 332/332/332 325/325/325
f 325/325/325 332/332/332 333/333/333
f 325/325/325 333/333/333 326/326/326
f 327/327/327 334/334/334 335/335/335
f 327/327/327 335/335/335 328/328/328
f 328/328/328 335/335/335 336/336/336
f 328/328/328 336/336/336 329/329/329
f 329/329/329 336/336/336 337/337/337
f 329/329/329 337/337/337 330/330/330
f 330/330/330 337/337/337 338/338/338
f 330/330/330 338/338/338 331/331/331
f 331/331/331 338/338/338 339/339/339
f 331/331/331 339/339/339 332/332/332
f 332/332/332 339/339/339 340/340/340
f 332/332/332 340/340/340 333/333/333
f 334/334/334 341/341/341 342/342/342
f 334/334/334 342/342/342 335/335/335
f 335/335/335 342/342/342 343/343/343
f 335/335/335 343/343/343 336/336/336
f 336/336/336 343/343/343 344/344/344
f 336/336/336 344/344/344 337/337/337
f 337/337/337 344/344/344 345/345/345
f 337/337/337 345/345/345 338/338/338
f 338/338/338 345/345/345 346/346/346
f 338/338/338 346/346/346 339/339/339
f 339/339/339 346/346/346 347/347/347
f 339/339/339 347/347/347 340/340/340
f 341/341/341 348/348/348 349/349/349
f 341/341/341 349/349/349 342/342/342
f 342/342/342 349/349/349 350/350/350
f 342/342/342 350/350/350 343/343/343
f 343/343/343 350/350/350 351/351/351
f 343/343/343 351/351/351 344/344/344
f 344/344/344 351/351/351 352/352/352
f 344/344/344 352/352/352 345/345/345
f 345/345/345 352/352/352 353/353/353
f 345/345/345 353/353/353 346/346/346
f 346/346/346 353/353/353 354/354/354
f 346/346/346 354/354/354 347/347/347
f 348/348/348 355/355/355 356/356/356
f 348/348/348 356/356/356 349/349/349
f 349/349/349 356/356/356 357/357/357
f 349/349/349 357/357/357 350/350/350
f 350/350/350 357/357/357 358/358/358
f 350/350/350 358/358/358 351/351/351
f 351/351/351 358/358/358 359/359/359
f 351/351/351 359/359/359 352/352/352
f 352/352/352 359/359/359 360/360/360
f 352/352/352 360/360/360 353/353/353
f 353/353/353 360/360/360 361/361/361
f 353/353/353 361/361/361 354/354/354
f 355/355/355 362/362/362 363/363/363
f 355/355/355 363/363/363 356/356/356
f 356/356/356 363/363/363 364/364/364
f 356/356/356 364/364/364 357/357/357
f 357/357/357 364/364/364 365/365/365
f 357/357/357 365/365/365 358/358/358
f 358/358/358 365/365/365 366/366/366
f 358/358/358 366/366/366 359/359/359
f 359/359/359 366/366/366 367/367/367
f 359/359/359 367/367/367 360/360/360
f 360/360/360 367/367/367 368/368/368
f 360/360/360 368/368/368 361/361/361
f 362/362/362 369/369/369 370/370/370
f 362/362/362 370/370/370 363/363/363
f 363/363/363 370/370/370 371/371/371
f 363/363/363 371/371/371 364/364/364
f 364/364/364 371/371/371 372/372/372
f 364/364/364 372/372/372 365/365/365
f 365/365/365 372/372/372 373/373/373
f 365/365/365 373/373/373 366/366/366
f 366/366/366 373/373/373 374/374/374
f 366/366/366 374/374/374 367/367/367
f 367/367/367 374/374/374 375/375/375
f 367/367/367 375/375/375 368/368/368
f 369/369/369 376/376/376 377/377/377
f 369/369/369 377/377/377 370/370/370
f 370/370/370 377/377/377 378/378/378
f 370/370/370 378/378/378 371/371/371
f 371/371/371 378/378/378 379/379/379
f 371/371/371 379/379/379 372/372/372
f 372/372/372 379/379/379 380/380/380
f 372/372/372 380/380/380 373/373/373
f 373/373/373 380/380/380 381/381/381
f 373/373/373 381/381/381 374/374/374
f 374/374/374 381/381/381 382/382/382
f 374/374/374 382/382/382 375/375/375
f 376/376/376 383/383/383 384/384/384
f 376/376/376 384/384/384 377/377/377
f 377/377/377 384/384/384 385/385/385
f 377/377/377 385/385/385 378/378/378
f 378/378/378 385/385/385 386/386/386
f 378/378/378 386/386/386 379/379/379
f 379/379/379 386/386/386 387/387/387
f 379/379/379 387/387/387 380/380/380
f 380/380/380 387/387/387 388/388/388
f 380/380/380 388/388/388 381/381/381
f 381/381/381 388/388/388 389/389/389
f 381/381/381 389/389/389 382/382/382
f 383/383/383 390/390/390 391/391/391
f 383/383/383 391/391/391 384/384/384
f 384/384/384 391/391/391 392/392/392
f 384/384/384 392/392/392 385/385/385
f 385/385/385 392/392/392 393/393/393
f 385/385/385 393/393/393 386/386/386
f 386/386/386 393/393/393 394/394/394
f 386/386/386 394/394/394 387/387/387
f 387/387/387 394/394/394 395/395/395
f 387/387/387 395/395/395 388/388/388
f 388/388/388 395/395/395 396/396/396
f 388/388/388 396/396/396 389/389/389
f 397/397/397 404/404/404 405/405/405
f 397/397/397 405/405/405 398/398/398
f 398/398/398 405/405/405 406/406/406
f 398/398/398 406/406/406 399/399/399
f 399/399/399 406/406/406 407/407/407
f 399/399/399 407/407/407 400/400/400
f 400/400/400 407/407/407 408/408/408
f 400/400/400 408/408/408 401/401/401
f 401/401/401 408/408/408 409/409/409
f 401/401/401 409/409/409 402/402/402
f 402/402/402 409/409/409 410/410/410
f 402/402/402 410/410/410 403/403/403
f 404/404/404 411/411/411 412/412/412
f 404/404/404 412/412/412 405/405/405
f 405/405/405 412/412/412 413/413/413
f 405/405/405 413/413/413 406/406/406
f 406/406/406 413/413/413 414/414/414
f 406/406/406 414/414/414 407/407/407
f 407/407/407 414/414/414 415/415/415
f 407/407/407 415/415/415 408/408/408
f 408/408/408 415/415/415 416/416/416
f 408/408/408 416/416/416 409/409/409
f 409/409/409 416/416/416 417/417/417
f 409/409/409 417/417/417 410/410/410
f 411/411/411 418/418/418 419/419/419
f 411/411/411 419/419/419 412/412/412
f 412/412/412 419/419/419 420/420/420
f 412/412/412 420/420/420 413/413/413
f 413/413/413 420/420/420 421/421/421
f 413/413/413 421/421/421 414/414/414
f 414/414/414 421/421/421 422/422/422
f 414/414/414 422/422/422 415/415/415
f 415/415/415 422/422/422 423/423/423
f 415/415/415 423/423/423 416/416/416
f 416/416/416 423/423/423 424/424/424
f 416/416/416 424/424/424 417/417/417
f 418/418/418 425/425/425 426/426/426
f 418/418/418 426/426/426 419/419/419
f 419/419/419 426/426/426 427/427/427
f 419/419/419 427/427/427 420/420/420
f 420/420/420 427/427/427 428/428/428
f 420/420/420 428/428/428 421/421/421
f 421/421/421 428/428/428 429/429/429
f 421/421/421 429/429/429 422/422/422
f 422/422/422 429/429/429 430/430/430
f 422/422/422 430/430/430 423/423/423
f 423/423/423 430/430/430 431/431/431
f 423/423/423 431/431/431 424/424/424
f 425/425/425 432/432/432 433/433/433
f 425/425/425 433/433/433 426/426/426
f 426/426/426 433/433/433 434/434/434
f 426/426/426 434/434/434 427/427/427
f 427/427/427 434/434/434 435/435/435
f 427/427/427 435/435/435 428/428/428
f 428/428/428 435/435/435 436/436/436
f 428/428/428 436/436/436 429/429/429
f 429/429/429 436/436/436 437/437/437
f 429/429/429 437/437/437 430/430/430
f 430/430/430 437/437/437 438/438/438
f 430/430/430 438/438/438 431/431/431
f 432/432/432 439/439/439 440/440/440
f 432/432/432 440/440/440 433/433/433
f 433/433/433 440/440/440 441/441/441
f 433/433/433 441/441/441 434/434/434
f 434/434/434 441/441/441 442/442/442
f 434/434/434 442/442/442 435/435/435
f 435/435/435 442/442/442 443/443/443
f 435/435/435 443/443/443 436/436/436
f 436/436/436 443/443/443 444/444/444
f 436/436/436 444/444/444 437/437/437
f 437/437/437 444/444/444 445/445/445
f 437/437/437 445/445/445 438/438/438
f 439/439/439 446/446/446 447/447/447
f 439/439/439 447/447/447 440/440/440
f 440/440/440 447/447/447 448/448/448
f 440/440/440 448/448/448 441/441/441
f 441/441/441 448/448/448 449/449/449
f 441/441/441 449/449/449 442/442/442
f 442/442/442 449/449/449 450/450/450
f 442/442/442 450/450/450 443/443/443
f 443/443/443 450/450/450 451/451/451
f 443/443/443 451/451/451 444/444/444
f 444/444/444 451/451/451 452/452/452
f 444/444/444 452/452/452 445/445/445
f 446/446/446 453/453/453 454/454/454
f 446/446/446 454/454/454 447/447/447
f 447/447/447 454/454/454 455/455/455
f 447/447/447 455/455/455 448/448/448
f 448/448/448 455/455/455 456/456/456
f 448/448/448 456/456/456 449/449/449
f 449/449/449 456/456/456 457/457/457
f 449/449/449 457/457/457 450/450/450
f 450/450/450 457/457/457 458/458/458
f 450/450/450 458/458/458 451/451/451
f 451/451/451 458/458/458 459/459/459
f 451/451/451 459/459/459 452/452/452
f 453/453/453 460/460/460 461/461/461
f 453/453/453 461/461/461 454/454/454
f 454/454/454 461/461/461 462/462/462
f 454/454/454 462/462/462 455/455/455
f 455/455/455 462/462/462 463/463/463
f 455/455/455 463/463/463 456/456/456
f 456/456/456 463/463/463 464/464/464
f 456/456/456 464/464/464 457/457/457
f 457/457/457 464/464/464 465/465/465
f 457/457/457 465/465/465 458/458/458
f 458/458/458 465/465/465 466/466/466
f 458/458/458 466/466/466 459/459/459
f 460/460/460 467/467/467 468/468/468
f 460/460/460 468/468/468 461/461/461
f 461/461/461 468/468/468 469/469/469
f 461/461/461 469/469/469 462/462/462
f 462/462/462 469/469/469 470/470/470
f 462/462/462 470/470/470 463/463/463
f 463/463/463 470/470/470 471/471/471
f 463/463/463 471/471/471 464/464/464
f 464/464/464 471/471/471 472/472/472
f 464/464/464 472/472/472 465/465/465
f 465/465/465 472/472/472 473/473/473
f 465/465/465 473/473/473 466/466/466
f 474/474/474 481/481/481 482/482/482
f 474/474/474 482/482/482 475/475/475
f 475/475/475 482/482/482 483/483/483
f 475/475/475 483/483/483 476/476/476
f 476/476/476 483/483/483 484/484/484
f 476/476/476 484/484/484 477/477/477
f 477/477/477 484/484/484 485/485/485
f 477/477/477 485/485/485 478/478/478
f 478/478/478 485/485/485 486/486/486
f 478/478/478 486/486/486 479/479/479
f 479/479/479 486/486/486 487/487/487
f 479/479/479 487/487/487 480/480/480
f 481/481/481 488/488/488 489/489/489
f 481/481/481 489/489/489 482/482/482
f 482/482/482 489/489/489 490/490/490
f 482/482/482 490/490/490 483/483/483
f 483/483/483 490/490/490 491/491/491
f 483/483/483 491/491/491 484/484/484
f 484/484/484 491/491/491 492/492/492
f 484/484/484 492/492/492 485/485/485
f 485/485/485 492/492/492 493/493/493
f 485/485/485 493/493/493 486/486/486
f 486/486/486 493/493/493 494/494/494
f 486/486/486 494/494/494 487/487/487
f 488/488/488 495/495/495 496/496/496
f 488/488/488 496/496/496 489/489/489
f 489/489/489 496/496/496 497/497/497
f 489/489/489 497/497/497 490/490/490
f 490/490/490 497/497/497 498/498/498
f 490/490/490 498/498/498 491/491/491
f 491/491/491 498/498/498 499/499/499
f 491/491/491 499/499/499 492/492/492
f 492/492/492 499/499/499 500/500/500
f 492/492/492 500/500/500 493/493/493
f 493/493/493 500/500/500 501/501/501
f 493/493/493 501/501/501 494/494/494
f 495/495/495 502/502/502 503/503/503
f 495/495/495 503/503/503 496/496/496
f 496/496/496 503/503/503 504/504/504
f 496/496/496 504/504/504 497/497/497
f 497/497/497 504/504/504 505/505/505
f 497/497/497 505/505/505 498/498/498
f 498/498/498 505/505/505 506/506/506
f 498/498/498 506/506/506 499/499/499
f 499/499/499 506/506/506 507/507/507
f 499/499/499 507/507/507 500/500/500
f 500/500/500 507/507/507 508/508/508
f 500/500/500 508/508/508 501/501/501
f 502/502/502 509/509/509 510/510/510
f 502/502/502 510/510/510 503/503/503
f 503/503/503 510/510/510 511/511/511
f 503/503/503 511/511/511 504/504/504
f 504/504/504 511/511/511 512/512/512
f 504/504/504 512/512/512 505/505/505
f 505/505/505 512/512/512 513/513/513
f 505/505/505 513/513/513 506/506/506
f 506/506/506 513/513/513 514/514/514
f 506/506/506 514/514/514 507/507/507
f 507/507/507 514/514/514 515/515/515
f 507/507/507 515/515/515 508/508/508
f 509/509/509 516/516/516 517/517/517
f 509/509/509 517/517/517 510/510/510
f 510/510/510 517/517/517 518/518/518
f 510/510/510 518/518/518 511/511/511
f 511/511/511 518/518/518 519/519/519
f 511/511/511 519/519/519 512/512/512
f 512/512/512 519/519/519 520/520/520
f 512/512/512 520/520/520 513/513/513
f 513/513/513 520/520/520 521/521/521
f 513/513/513 521/521/521 514/514/514
f 514/514/514 521/521/521 522/522/522
f 514/514/514 522/522/522 515/515/515
f 516/516/516 523/523/523 524/524/524
f 516/516/516 524/524/524 517/517/517
f 517/517/517 524/524/524 525/525/525
f 517/517/517 525/525/525 518/518/518
f 518/518/518 525/525/525 526/526/526
f 518/518/518 526/526/526 519/519/519
f 519/519/519 526/526/526 527/527/527
f 519/519/519 527/527/527 520/520/520
f 520/520/520 527/527/527 528/528/528
f 520/520/520 528/528/528 521/521/521
f 521/521/521 528/528/528 529/529/529
f 521/521/521 529/529/529 522/522/522
f 523/523/523 530/530/530 531/531/531
f 523/523/523 531/531/531 524/524/524
f 524/524/524 531/531/531 532/532/532
f 524/524/524 532/532/532 525/525/525
f 525/525/525 532/532/532 533/533/533
f 525/525/525 533/533/533 526/526/526
f 526/526/526 533/533/533 534/534/534
f 526/526/526 534/534/534 527/527/527
f 527/527/527 534/534/534 535/535/535
f 527/527/527 535/535/535 528/528/528
f 528/528/528 535/535/535 536/536/536
f 528/528/528 536/536/536 529/529/529
f 530/530/530 537/537/537 538/538/538
f 530/530/530 538/538/538 531/531/531
f 531/531/531 538/538/538 539/539/539
f 531/531/531 539/539/539 532/532/532
f 532/532/532 539/539/539 540/540/540
f 532/532/532 540/540/540 533/533/533
f 533/533/533 540/540/540 541/541/541
f 533/533/533 541/541/541 534/534/534
f 534/534/534 541/541/541 542/542/542
f 534/534/534 542/542/542 535/535/535
f 535/535/535 542/542/542 543/543/543
f 535/535/535 543/543/543 536/536/536
f 537/537/537 544/544/544 545/545/545
f 537/537/537 545/545/545 538/538/538
f 538/538/538 545/545/545 546/546/546
f 538/538/538 546/546/546 539/539/539
f 539/539/539 546/546/546 547/547/547
f 539/539/539 547/547/547 540/540/540
f 540/540/540 547/547/547 548/548/548
f 540/540/540 548/548/548 541/541/541
f 541/541/541 548/548/548 549/549/549
f 541/541/541 549/549/549 542/542/542
f 542/542/542 549/549/549 550/550/550
f 542/542/542 550/550/550 543/543/543
f 551/551/551 553/553/553 552/552/552
f 551/551/551 554/554/554 553/553/553
f 555/555/555 556/556/556 557/557/557
f 555/555/555 557/557/557 558/558/558
f 551/551/551 552/552/552 556/556/556
f 551/551/551 556/556/556 555/555/555
f 553/553/553 554/554/554 558/558/558
f 553/553/553 558/558/558 557/557/557
f 551/551/551 555/555/555 558/558/558
f 551/551/551 558/558/558 554/554/554
f 552/552/552 553/553/553 557/557/557
f 552/552/552 557/557/557 556/556/556
f 559/559/559 561/561/561 560/560/560
f 559/559/559 562/562/562 561/561/561
f 563/563/563 564/564/564 565/565/565
f 563/563/563 565/565/565 566/566/566
f 559/559/559 560/560/560 564/564/564
f 559/559/559 564/564/564 563/563/563
f 561/561/561 562/562/562 566/566/566
f 561/561/561 566/566/566 565/565/565
f 559/559/559 563/563/563 566/566/566
f 559/559/559 566/566/566 562/562/562
f 560/560/560 561/561/561 565/565/565
f 560/560/560 565/565/565 564/564/564
f 567/567/567 569/569/569 568/568/568
f 567/567/567 570/570/570 569/569/569
f 571/571/571 572/572/572 573/573/573
f 571/571/571 573/573/573 574/574/574
f 567/567/567 568/568/568 572/572/572
f 567/567/567 572/572/572 571/571/571
f 569/569/569 570/570/570 574/574/574
f 569/569/569 574/574/574 573/573/573
f 567/567/567 571/571/571 574/574/574
f 567/567/567 574/574/574 570/570/570
f 568/568/568 569/569/569 573/573/573
f 568/568/568 573/573/573 572/572/572
f 575/575/575 577/577/577 576/576/576
f 575/575/575 578/578/578 577/577/577
f 579/579/579 580/580/580 581/581/581
f 579/579/579 581/581/581 582/582/582
f 575/575/575 576/576/576 580/580/580
f 575/575/575 580/580/580 579/579/579
f 577/577/577 578/578/578 582/582/582
f 577/577/577 582/582/582 581/581/581
f 575/575/575 579/579/579 582/582/582
f 575/575/575 582/582/582 578/578/578
f 576/576/576 577/577/577 581/581/581
f 576/576/576 581/581/581 580/580/580
f 583/583/583 585/585/585 584/584/584
f 583/583/583 586/586/586 585/585/585
f 587/587/587 588/588/588 589/589/589
f 587/587/587 589/589/589 590/590/590
f 583/583/583 584/584/584 588/588/588
f 583/583/583 588/588/588 587/587/587
f 585/585/585 586/586/586 590/590/590
f 585/585/585 590/590/590 589/589/589
f 583/583/583 587/587/587 590/590/590
f 583/583/583 590/590/590 586/586/586
f 584/584/584 585/585/585 589/589/589
f 584/584/584 589/589/589 588/588/588