# 3D Model: vehicle/car/5-man (v6 Gemini)
# Style: automotive_vehicle | Symmetry: symmetric
# Dimensions: 2.26 x 1.875 x 3.85 m
# Triangles: 1028 | Vertices: 632
v -0.9 0.25 -1.8
v 0.9 0.25 -1.8
v 0.9 0.55 -1.8
v -0.9 0.55 -1.8
v -0.9 0.25 1.8
v 0.9 0.25 1.8
v 0.9 0.55 1.8
v -0.9 0.55 1.8
v -0.875 0.5 -1.4
v 0.875 0.5 -1.4
v 0.875 1.6 -1.4
v -0.875 1.6 -1.4
v -0.875 0.5 0.8
v 0.875 0.5 0.8
v 0.875 1.6 0.8
v -0.875 1.6 0.8
v -0.85 0.7 0.65
v 0.85 0.7 0.65
v 0.85 1.2 0.65
v -0.85 1.2 0.65
v -0.85 0.7 1.85
v 0.85 0.7 1.85
v 0.85 1.2 1.85
v -0.85 1.2 1.85
v -0.1 1.18 0.75
v 0.5 1.18 0.75
v 0.5 1.26 0.75
v -0.1 1.26 0.75
v -0.1 1.18 1.45
v 0.5 1.18 1.45
v 0.5 1.26 1.45
v -0.1 1.26 1.45
v -0.85 1.575 -1.375
v 0.85 1.575 -1.375
v 0.85 1.725 -1.375
v -0.85 1.725 -1.375
v -0.85 1.575 0.775
v 0.85 1.575 0.775
v 0.85 1.725 0.775
v -0.85 1.725 0.775
v -0.75 1.0349 0.6224
v 0.75 1.0349 0.6224
v 0.75 1.6925 0.8624
v -0.75 1.6925 0.8624
v -0.75 1.0075 0.6976
v 0.75 1.0075 0.6976
v 0.75 1.6651 0.9376
v -0.75 1.6651 0.9376
v -0.93 0.995 -0.125
v -0.85 0.995 -0.125
v -0.85 1.645 -0.125
v -0.93 1.645 -0.125
v -0.93 0.995 0.625
v -0.85 0.995 0.625
v -0.85 1.645 0.625
v -0.93 1.645 0.625
v 0.85 0.995 -0.125
v 0.93 0.995 -0.125
v 0.93 1.645 -0.125
v 0.85 1.645 -0.125
v 0.85 0.995 0.625
v 0.93 0.995 0.625
v 0.93 1.645 0.625
v 0.85 1.645 0.625
v -0.93 0.995 -1.2
v -0.85 0.995 -1.2
v -0.85 1.645 -1.2
v -0.93 1.645 -1.2
v -0.93 0.995 -0.3
v -0.85 0.995 -0.3
v -0.85 1.645 -0.3
v -0.93 1.645 -0.3
v 0.85 0.995 -1.2
v 0.93 0.995 -1.2
v 0.93 1.645 -1.2
v 0.85 1.645 -1.2
v 0.85 0.995 -0.3
v 0.93 0.995 -0.3
v 0.93 1.645 -0.3
v 0.85 1.645 -0.3
v -0.45 0.695 1.82
v 0.45 0.695 1.82
v 0.45 1.145 1.82
v -0.45 1.145 1.82
v -0.45 0.695 1.9
v 0.45 0.695 1.9
v 0.45 1.145 1.9
v -0.45 1.145 1.9
v -0.5 0.91 1.87
v -0.5137 0.91 1.9389
v -0.5527 0.91 1.9973
v -0.6111 0.91 2.0363
v -0.68 0.91 2.05
v -0.7489 0.91 2.0363
v -0.8073 0.91 1.9973
v -0.8463 0.91 1.9389
v -0.86 0.91 1.87
v -0.8463 0.91 1.8011
v -0.8073 0.91 1.7427
v -0.7489 0.91 1.7037
v -0.68 0.91 1.69
v -0.6111 0.91 1.7037
v -0.5527 0.91 1.7427
v -0.5137 0.91 1.8011
v -0.5 0.99 1.87
v -0.5137 0.99 1.9389
v -0.5527 0.99 1.9973
v -0.6111 0.99 2.0363
v -0.68 0.99 2.05
v -0.7489 0.99 2.0363
v -0.8073 0.99 1.9973
v -0.8463 0.99 1.9389
v -0.86 0.99 1.87
v -0.8463 0.99 1.8011
v -0.8073 0.99 1.7427
v -0.7489 0.99 1.7037
v -0.68 0.99 1.69
v -0.6111 0.99 1.7037
v -0.5527 0.99 1.7427
v -0.5137 0.99 1.8011
v -0.68 0.91 1.87
v -0.68 0.99 1.87
v 0.86 0.91 1.87
v 0.8463 0.91 1.9389
v 0.8073 0.91 1.9973
v 0.7489 0.91 2.0363
v 0.68 0.91 2.05
v 0.6111 0.91 2.0363
v 0.5527 0.91 1.9973
v 0.5137 0.91 1.9389
v 0.5 0.91 1.87
v 0.5137 0.91 1.8011
v 0.5527 0.91 1.7427
v 0.6111 0.91 1.7037
v 0.68 0.91 1.69
v 0.7489 0.91 1.7037
v 0.8073 0.91 1.7427
v 0.8463 0.91 1.8011
v 0.86 0.99 1.87
v 0.8463 0.99 1.9389
v 0.8073 0.99 1.9973
v 0.7489 0.99 2.0363
v 0.68 0.99 2.05
v 0.6111 0.99 2.0363
v 0.5527 0.99 1.9973
v 0.5137 0.99 1.9389
v 0.5 0.99 1.87
v 0.5137 0.99 1.8011
v 0.5527 0.99 1.7427
v 0.6111 0.99 1.7037
v 0.68 0.99 1.69
v 0.7489 0.99 1.7037
v 0.8073 0.99 1.7427
v 0.8463 0.99 1.8011
v 0.68 0.91 1.87
v 0.68 0.99 1.87
v -0.9 0.475 1.78
v 0.9 0.475 1.78
v 0.9 0.625 1.78
v -0.9 0.625 1.78
v -0.9 0.475 1.98
v 0.9 0.475 1.98
v 0.9 0.625 1.98
v -0.9 0.625 1.98
v -0.25 0.5 1.97
v 0.25 0.5 1.97
v 0.25 0.6 1.97
v -0.25 0.6 1.97
v -0.25 0.5 2.01
v 0.25 0.5 2.01
v 0.25 0.6 2.01
v -0.25 0.6 2.01
v -1.04 1.24 0.63
v -0.92 1.24 0.63
v -0.92 1.46 0.63
v -1.04 1.46 0.63
v -1.04 1.24 0.81
v -0.92 1.24 0.81
v -0.92 1.46 0.81
v -1.04 1.46 0.81
v -1.01 0.555 0.65
v -0.83 0.555 0.65
v -0.83 1.005 0.65
v -1.01 1.005 0.65
v -1.01 0.555 1.55
v -0.83 0.555 1.55
v -0.83 1.005 1.55
v -1.01 1.005 1.55
v 0.83 0.555 0.65
v 1.01 0.555 0.65
v 1.01 1.005 0.65
v 0.83 1.005 0.65
v 0.83 0.555 1.55
v 1.01 0.555 1.55
v 1.01 1.005 1.55
v 0.83 1.005 1.55
v -1.01 0.555 -1.55
v -0.83 0.555 -1.55
v -0.83 1.005 -1.55
v -1.01 1.005 -1.55
v -1.01 0.555 -0.65
v -0.83 0.555 -0.65
v -0.83 1.005 -0.65
v -1.01 1.005 -0.65
v 0.83 0.555 -1.55
v 1.01 0.555 -1.55
v 1.01 1.005 -1.55
v 0.83 1.005 -1.55
v 0.83 0.555 -0.65
v 1.01 0.555 -0.65
v 1.01 1.005 -0.65
v 0.83 1.005 -0.65
v -0.95 1.05 1.1
v -1.1059 0.96 1.1
v -1.1059 0.78 1.1
v -0.95 0.69 1.1
v -0.7941 0.78 1.1
v -0.7941 0.96 1.1
v -0.95 1.05 1.1
v -0.95 0.9354 1.4527
v -1.1059 0.8626 1.3998
v -1.1059 0.717 1.294
v -0.95 0.6442 1.2411
v -0.7941 0.717 1.294
v -0.7941 0.8626 1.3998
v -0.95 0.9354 1.4527
v -0.95 0.6354 1.6706
v -1.1059 0.6076 1.585
v -1.1059 0.552 1.4138
v -0.95 0.5242 1.3283
v -0.7941 0.552 1.4138
v -0.7941 0.6076 1.585
v -0.95 0.6354 1.6706
v -0.95 0.2646 1.6706
v -1.1059 0.2924 1.585
v -1.1059 0.348 1.4138
v -0.95 0.3758 1.3283
v -0.7941 0.348 1.4138
v -0.7941 0.2924 1.585
v -0.95 0.2646 1.6706
v -0.95 -0.0354 1.4527
v -1.1059 0.0374 1.3998
v -1.1059 0.183 1.294
v -0.95 0.2558 1.2411
v -0.7941 0.183 1.294
v -0.7941 0.0374 1.3998
v -0.95 -0.0354 1.4527
v -0.95 -0.15 1.1
v -1.1059 -0.06 1.1
v -1.1059 0.12 1.1
v -0.95 0.21 1.1
v -0.7941 0.12 1.1
v -0.7941 -0.06 1.1
v -0.95 -0.15 1.1
v -0.95 -0.0354 0.7473
v -1.1059 0.0374 0.8002
v -1.1059 0.183 0.906
v -0.95 0.2558 0.9589
v -0.7941 0.183 0.906
v -0.7941 0.0374 0.8002
v -0.95 -0.0354 0.7473
v -0.95 0.2646 0.5294
v -1.1059 0.2924 0.615
v -1.1059 0.348 0.7862
v -0.95 0.3758 0.8717
v -0.7941 0.348 0.7862
v -0.7941 0.2924 0.615
v -0.95 0.2646 0.5294
v -0.95 0.6354 0.5294
v -1.1059 0.6076 0.615
v -1.1059 0.552 0.7862
v -0.95 0.5242 0.8717
v -0.7941 0.552 0.7862
v -0.7941 0.6076 0.615
v -0.95 0.6354 0.5294
v -0.95 0.9354 0.7473
v -1.1059 0.8626 0.8002
v -1.1059 0.717 0.906
v -0.95 0.6442 0.9589
v -0.7941 0.717 0.906
v -0.7941 0.8626 0.8002
v -0.95 0.9354 0.7473
v -0.95 1.05 1.1
v -1.1059 0.96 1.1
v -1.1059 0.78 1.1
v -0.95 0.69 1.1
v -0.7941 0.78 1.1
v -0.7941 0.96 1.1
v -0.95 1.05 1.1
v -0.91 0.73 1.1
v -0.91 0.6925 1.24
v -0.91 0.59 1.3425
v -0.91 0.45 1.38
v -0.91 0.31 1.3425
v -0.91 0.2075 1.24
v -0.91 0.17 1.1
v -0.91 0.2075 0.96
v -0.91 0.31 0.8575
v -0.91 0.45 0.82
v -0.91 0.59 0.8575
v -0.91 0.6925 0.96
v -1.13 0.73 1.1
v -1.13 0.6925 1.24
v -1.13 0.59 1.3425
v -1.13 0.45 1.38
v -1.13 0.31 1.3425
v -1.13 0.2075 1.24
v -1.13 0.17 1.1
v -1.13 0.2075 0.96
v -1.13 0.31 0.8575
v -1.13 0.45 0.82
v -1.13 0.59 0.8575
v -1.13 0.6925 0.96
v -0.91 0.45 1.1
v -1.13 0.45 1.1
v 0.95 1.05 1.1
v 0.7941 0.96 1.1
v 0.7941 0.78 1.1
v 0.95 0.69 1.1
v 1.1059 0.78 1.1
v 1.1059 0.96 1.1
v 0.95 1.05 1.1
v 0.95 0.9354 1.4527
v 0.7941 0.8626 1.3998
v 0.7941 0.717 1.294
v 0.95 0.6442 1.2411
v 1.1059 0.717 1.294
v 1.1059 0.8626 1.3998
v 0.95 0.9354 1.4527
v 0.95 0.6354 1.6706
v 0.7941 0.6076 1.585
v 0.7941 0.552 1.4138
v 0.95 0.5242 1.3283
v 1.1059 0.552 1.4138
v 1.1059 0.6076 1.585
v 0.95 0.6354 1.6706
v 0.95 0.2646 1.6706
v 0.7941 0.2924 1.585
v 0.7941 0.348 1.4138
v 0.95 0.3758 1.3283
v 1.1059 0.348 1.4138
v 1.1059 0.2924 1.585
v 0.95 0.2646 1.6706
v 0.95 -0.0354 1.4527
v 0.7941 0.0374 1.3998
v 0.7941 0.183 1.294
v 0.95 0.2558 1.2411
v 1.1059 0.183 1.294
v 1.1059 0.0374 1.3998
v 0.95 -0.0354 1.4527
v 0.95 -0.15 1.1
v 0.7941 -0.06 1.1
v 0.7941 0.12 1.1
v 0.95 0.21 1.1
v 1.1059 0.12 1.1
v 1.1059 -0.06 1.1
v 0.95 -0.15 1.1
v 0.95 -0.0354 0.7473
v 0.7941 0.0374 0.8002
v 0.7941 0.183 0.906
v 0.95 0.2558 0.9589
v 1.1059 0.183 0.906
v 1.1059 0.0374 0.8002
v 0.95 -0.0354 0.7473
v 0.95 0.2646 0.5294
v 0.7941 0.2924 0.615
v 0.7941 0.348 0.7862
v 0.95 0.3758 0.8717
v 1.1059 0.348 0.7862
v 1.1059 0.2924 0.615
v 0.95 0.2646 0.5294
v 0.95 0.6354 0.5294
v 0.7941 0.6076 0.615
v 0.7941 0.552 0.7862
v 0.95 0.5242 0.8717
v 1.1059 0.552 0.7862
v 1.1059 0.6076 0.615
v 0.95 0.6354 0.5294
v 0.95 0.9354 0.7473
v 0.7941 0.8626 0.8002
v 0.7941 0.717 0.906
v 0.95 0.6442 0.9589
v 1.1059 0.717 0.906
v 1.1059 0.8626 0.8002
v 0.95 0.9354 0.7473
v 0.95 1.05 1.1
v 0.7941 0.96 1.1
v 0.7941 0.78 1.1
v 0.95 0.69 1.1
v 1.1059 0.78 1.1
v 1.1059 0.96 1.1
v 0.95 1.05 1.1
v 1.13 0.73 1.1
v 1.13 0.6925 1.24
v 1.13 0.59 1.3425
v 1.13 0.45 1.38
v 1.13 0.31 1.3425
v 1.13 0.2075 1.24
v 1.13 0.17 1.1
v 1.13 0.2075 0.96
v 1.13 0.31 0.8575
v 1.13 0.45 0.82
v 1.13 0.59 0.8575
v 1.13 0.6925 0.96
v 0.91 0.73 1.1
v 0.91 0.6925 1.24
v 0.91 0.59 1.3425
v 0.91 0.45 1.38
v 0.91 0.31 1.3425
v 0.91 0.2075 1.24
v 0.91 0.17 1.1
v 0.91 0.2075 0.96
v 0.91 0.31 0.8575
v 0.91 0.45 0.82
v 0.91 0.59 0.8575
v 0.91 0.6925 0.96
v 1.13 0.45 1.1
v 0.91 0.45 1.1
v -0.95 1.05 -1.1
v -1.1059 0.96 -1.1
v -1.1059 0.78 -1.1
v -0.95 0.69 -1.1
v -0.7941 0.78 -1.1
v -0.7941 0.96 -1.1
v -0.95 1.05 -1.1
v -0.95 0.9354 -0.7473
v -1.1059 0.8626 -0.8002
v -1.1059 0.717 -0.906
v -0.95 0.6442 -0.9589
v -0.7941 0.717 -0.906
v -0.7941 0.8626 -0.8002
v -0.95 0.9354 -0.7473
v -0.95 0.6354 -0.5294
v -1.1059 0.6076 -0.615
v -1.1059 0.552 -0.7862
v -0.95 0.5242 -0.8717
v -0.7941 0.552 -0.7862
v -0.7941 0.6076 -0.615
v -0.95 0.6354 -0.5294
v -0.95 0.2646 -0.5294
v -1.1059 0.2924 -0.615
v -1.1059 0.348 -0.7862
v -0.95 0.3758 -0.8717
v -0.7941 0.348 -0.7862
v -0.7941 0.2924 -0.615
v -0.95 0.2646 -0.5294
v -0.95 -0.0354 -0.7473
v -1.1059 0.0374 -0.8002
v -1.1059 0.183 -0.906
v -0.95 0.2558 -0.9589
v -0.7941 0.183 -0.906
v -0.7941 0.0374 -0.8002
v -0.95 -0.0354 -0.7473
v -0.95 -0.15 -1.1
v -1.1059 -0.06 -1.1
v -1.1059 0.12 -1.1
v -0.95 0.21 -1.1
v -0.7941 0.12 -1.1
v -0.7941 -0.06 -1.1
v -0.95 -0.15 -1.1
v -0.95 -0.0354 -1.4527
v -1.1059 0.0374 -1.3998
v -1.1059 0.183 -1.294
v -0.95 0.2558 -1.2411
v -0.7941 0.183 -1.294
v -0.7941 0.0374 -1.3998
v -0.95 -0.0354 -1.4527
v -0.95 0.2646 -1.6706
v -1.1059 0.2924 -1.585
v -1.1059 0.348 -1.4138
v -0.95 0.3758 -1.3283
v -0.7941 0.348 -1.4138
v -0.7941 0.2924 -1.585
v -0.95 0.2646 -1.6706
v -0.95 0.6354 -1.6706
v -1.1059 0.6076 -1.585
v -1.1059 0.552 -1.4138
v -0.95 0.5242 -1.3283
v -0.7941 0.552 -1.4138
v -0.7941 0.6076 -1.585
v -0.95 0.6354 -1.6706
v -0.95 0.9354 -1.4527
v -1.1059 0.8626 -1.3998
v -1.1059 0.717 -1.294
v -0.95 0.6442 -1.2411
v -0.7941 0.717 -1.294
v -0.7941 0.8626 -1.3998
v -0.95 0.9354 -1.4527
v -0.95 1.05 -1.1
v -1.1059 0.96 -1.1
v -1.1059 0.78 -1.1
v -0.95 0.69 -1.1
v -0.7941 0.78 -1.1
v -0.7941 0.96 -1.1
v -0.95 1.05 -1.1
v -0.91 0.73 -1.1
v -0.91 0.6925 -0.96
v -0.91 0.59 -0.8575
v -0.91 0.45 -0.82
v -0.91 0.31 -0.8575
v -0.91 0.2075 -0.96
v -0.91 0.17 -1.1
v -0.91 0.2075 -1.24
v -0.91 0.31 -1.3425
v -0.91 0.45 -1.38
v -0.91 0.59 -1.3425
v -0.91 0.6925 -1.24
v -1.13 0.73 -1.1
v -1.13 0.6925 -0.96
v -1.13 0.59 -0.8575
v -1.13 0.45 -0.82
v -1.13 0.31 -0.8575
v -1.13 0.2075 -0.96
v -1.13 0.17 -1.1
v -1.13 0.2075 -1.24
v -1.13 0.31 -1.3425
v -1.13 0.45 -1.38
v -1.13 0.59 -1.3425
v -1.13 0.6925 -1.24
v -0.91 0.45 -1.1
v -1.13 0.45 -1.1
v 0.95 1.05 -1.1
v 0.7941 0.96 -1.1
v 0.7941 0.78 -1.1
v 0.95 0.69 -1.1
v 1.1059 0.78 -1.1
v 1.1059 0.96 -1.1
v 0.95 1.05 -1.1
v 0.95 0.9354 -0.7473
v 0.7941 0.8626 -0.8002
v 0.7941 0.717 -0.906
v 0.95 0.6442 -0.9589
v 1.1059 0.717 -0.906
v 1.1059 0.8626 -0.8002
v 0.95 0.9354 -0.7473
v 0.95 0.6354 -0.5294
v 0.7941 0.6076 -0.615
v 0.7941 0.552 -0.7862
v 0.95 0.5242 -0.8717
v 1.1059 0.552 -0.7862
v 1.1059 0.6076 -0.615
v 0.95 0.6354 -0.5294
v 0.95 0.2646 -0.5294
v 0.7941 0.2924 -0.615
v 0.7941 0.348 -0.7862
v 0.95 0.3758 -0.8717
v 1.1059 0.348 -0.7862
v 1.1059 0.2924 -0.615
v 0.95 0.2646 -0.5294
v 0.95 -0.0354 -0.7473
v 0.7941 0.0374 -0.8002
v 0.7941 0.183 -0.906
v 0.95 0.2558 -0.9589
v 1.1059 0.183 -0.906
v 1.1059 0.0374 -0.8002
v 0.95 -0.0354 -0.7473
v 0.95 -0.15 -1.1
v 0.7941 -0.06 -1.1
v 0.7941 0.12 -1.1
v 0.95 0.21 -1.1
v 1.1059 0.12 -1.1
v 1.1059 -0.06 -1.1
v 0.95 -0.15 -1.1
v 0.95 -0.0354 -1.4527
v 0.7941 0.0374 -1.3998
v 0.7941 0.183 -1.294
v 0.95 0.2558 -1.2411
v 1.1059 0.183 -1.294
v 1.1059 0.0374 -1.3998
v 0.95 -0.0354 -1.4527
v 0.95 0.2646 -1.6706
v 0.7941 0.2924 -1.585
v 0.7941 0.348 -1.4138
v 0.95 0.3758 -1.3283
v 1.1059 0.348 -1.4138
v 1.1059 0.2924 -1.585
v 0.95 0.2646 -1.6706
v 0.95 0.6354 -1.6706
v 0.7941 0.6076 -1.585
v 0.7941 0.552 -1.4138
v 0.95 0.5242 -1.3283
v 1.1059 0.552 -1.4138
v 1.1059 0.6076 -1.585
v 0.95 0.6354 -1.6706
v 0.95 0.9354 -1.4527
v 0.7941 0.8626 -1.3998
v 0.7941 0.717 -1.294
v 0.95 0.6442 -1.2411
v 1.1059 0.717 -1.294
v 1.1059 0.8626 -1.3998
v 0.95 0.9354 -1.4527
v 0.95 1.05 -1.1
v 0.7941 0.96 -1.1
v 0.7941 0.78 -1.1
v 0.95 0.69 -1.1
v 1.1059 0.78 -1.1
v 1.1059 0.96 -1.1
v 0.95 1.05 -1.1
v 1.13 0.73 -1.1
v 1.13 0.6925 -0.96
v 1.13 0.59 -0.8575
v 1.13 0.45 -0.82
v 1.13 0.31 -0.8575
v 1.13 0.2075 -0.96
v 1.13 0.17 -1.1
v 1.13 0.2075 -1.24
v 1.13 0.31 -1.3425
v 1.13 0.45 -1.38
v 1.13 0.59 -1.3425
v 1.13 0.6925 -1.24
v 0.91 0.73 -1.1
v 0.91 0.6925 -0.96
v 0.91 0.59 -0.8575
v 0.91 0.45 -0.82
v 0.91 0.31 -0.8575
v 0.91 0.2075 -0.96
v 0.91 0.17 -1.1
v 0.91 0.2075 -1.24
v 0.91 0.31 -1.3425
v 0.91 0.45 -1.38
v 0.91 0.59 -1.3425
v 0.91 0.6925 -1.24
v 1.13 0.45 -1.1
v 0.91 0.45 -1.1
v -1.045 0.22 -0.6
v -0.795 0.22 -0.6
v -0.795 0.28 -0.6
v -1.045 0.28 -0.6
v -1.045 0.22 0.6
v -0.795 0.22 0.6
v -0.795 0.28 0.6
v -1.045 0.28 0.6
vt 0.5 0.5
vt 0.5 0.5
vt 0.5 0.5
vt 0.5 0.5
vt 0.5 0.5
vt 0.5 0.5
vt 0.5 0.5
vt 0.5 0.5
vt 0.5 0.5
vt 0.5 0.5
vt 0.5 0.5
vt 0.5 0.5
vt 0.5 0.5
vt 0.5 0.5
vt 0.5 0.5
vt 0.5 0.5
vt 0.5 0.5
vt 0.5 0.5
vt 0.5 0.5
vt 0.5 0.5
vt 0.5 0.5
vt 0.5 0.5
vt 0.5 0.5
vt 0.5 0.5
vt 0.5 0.5
vt 0.5 0.5
vt 0.5 0.5
vt 0.5 0.5
vt 0.5 0.5
vt 0.5 0.5
vt 0.5 0.5
vt 0.5 0.5
vt 0.5 0.5
vt 0.5 0.5
vt 0.5 0.5
vt 0.5 0.5
vt 0.5 0.5
vt 0.5 0.5
vt 0.5 0.5
vt 0.5 0.5
vt 0.5 0.5
vt 0.5 0.5
vt 0.5 0.5
vt 0.5 0.5
vt 0.5 0.5
vt 0.5 0.5
vt 0.5 0.5
vt 0.5 0.5
vt 0.5 0.5
vt 0.5 0.5
vt 0.5 0.5
vt 0.5 0.5
vt 0.5 0.5
vt 0.5 0.5
vt 0.5 0.5
vt 0.5 0.5
vt 0.5 0.5
vt 0.5 0.5
vt 0.5 0.5
vt 0.5 0.5
vt 0.5 0.5
vt 0.5 0.5
vt 0.5 0.5
vt 0.5 0.5
vt 0.5 0.5
vt 0.5 0.5
vt 0.5 0.5
vt 0.5 0.5
vt 0.5 0.5
vt 0.5 0.5
vt 0.5 0.5
vt 0.5 0.5
vt 0.5 0.5
vt 0.5 0.5
vt 0.5 0.5
vt 0.5 0.5
vt 0.5 0.5
vt 0.5 0.5
vt 0.5 0.5
vt 0.5 0.5
vt 0.5 0.5
vt 0.5 0.5
vt 0.5 0.5
vt 0.5 0.5
vt 0.5 0.5
vt 0.5 0.5
vt 0.5 0.5
vt 0.5 0.5
vt 0 0
vt 0.0625 0
vt 0.125 0
vt 0.1875 0
vt 0.25 0
vt 0.3125 0
vt 0.375 0
vt 0.4375 0
vt 0.5 0
vt 0.5625 0
vt 0.625 0
vt 0.6875 0
vt 0.75 0
vt 0.8125 0
vt 0.875 0
vt 0.9375 0
vt 0 1
vt 0.0625 1
vt 0.125 1
vt 0.1875 1
vt 0.25 1
vt 0.3125 1
vt 0.375 1
vt 0.4375 1
vt 0.5 1
vt 0.5625 1
vt 0.625 1
vt 0.6875 1
vt 0.75 1
vt 0.8125 1
vt 0.875 1
vt 0.9375 1
vt 0.5 0.5
vt 0.5 0.5
vt 0 0
vt 0.0625 0
vt 0.125 0
vt 0.1875 0
vt 0.25 0
vt 0.3125 0
vt 0.375 0
vt 0.4375 0
vt 0.5 0
vt 0.5625 0
vt 0.625 0
vt 0.6875 0
vt 0.75 0
vt 0.8125 0
vt 0.875 0
vt 0.9375 0
vt 0 1
vt 0.0625 1
vt 0.125 1
vt 0.1875 1
vt 0.25 1
vt 0.3125 1
vt 0.375 1
vt 0.4375 1
vt 0.5 1
vt 0.5625 1
vt 0.625 1
vt 0.6875 1
vt 0.75 1
vt 0.8125 1
vt 0.875 1
vt 0.9375 1
vt 0.5 0.5
vt 0.5 0.5
vt 0.5 0.5
vt 0.5 0.5
vt 0.5 0.5
vt 0.5 0.5
vt 0.5 0.5
vt 0.5 0.5
vt 0.5 0.5
vt 0.5 0.5
vt 0.5 0.5
vt 0.5 0.5
vt 0.5 0.5
vt 0.5 0.5
vt 0.5 0.5
vt 0.5 0.5
vt 0.5 0.5
vt 0.5 0.5
vt 0.5 0.5
vt 0.5 0.5
vt 0.5 0.5
vt 0.5 0.5
vt 0.5 0.5
vt 0.5 0.5
vt 0.5 0.5
vt 0.5 0.5
vt 0.5 0.5
vt 0.5 0.5
vt 0.5 0.5
vt 0.5 0.5
vt 0.5 0.5
vt 0.5 0.5
vt 0.5 0.5
vt 0.5 0.5
vt 0.5 0.5
vt 0.5 0.5
vt 0.5 0.5
vt 0.5 0.5
vt 0.5 0.5
vt 0.5 0.5
vt 0.5 0.5
vt 0.5 0.5
vt 0.5 0.5
vt 0.5 0.5
vt 0.5 0.5
vt 0.5 0.5
vt 0.5 0.5
vt 0.5 0.5
vt 0.5 0.5
vt 0.5 0.5
vt 0.5 0.5
vt 0.5 0.5
vt 0.5 0.5
vt 0.5 0.5
vt 0.5 0.5
vt 0.5 0.5
vt 0.5 0.5
vt 0.5 0.5
vt 0 0
vt 0 0.16666666666666666
vt 0 0.3333333333333333
vt 0 0.5
vt 0 0.6666666666666666
vt 0 0.8333333333333334
vt 0 1
vt 0.1 0
vt 0.1 0.16666666666666666
vt 0.1 0.3333333333333333
vt 0.1 0.5
vt 0.1 0.6666666666666666
vt 0.1 0.8333333333333334
vt 0.1 1
vt 0.2 0
vt 0.2 0.16666666666666666
vt 0.2 0.3333333333333333
vt 0.2 0.5
vt 0.2 0.6666666666666666
vt 0.2 0.8333333333333334
vt 0.2 1
vt 0.3 0
vt 0.3 0.16666666666666666
vt 0.3 0.3333333333333333
vt 0.3 0.5
vt 0.3 0.6666666666666666
vt 0.3 0.8333333333333334
vt 0.3 1
vt 0.4 0
vt 0.4 0.16666666666666666
vt 0.4 0.3333333333333333
vt 0.4 0.5
vt 0.4 0.6666666666666666
vt 0.4 0.8333333333333334
vt 0.4 1
vt 0.5 0
vt 0.5 0.16666666666666666
vt 0.5 0.3333333333333333
vt 0.5 0.5
vt 0.5 0.6666666666666666
vt 0.5 0.8333333333333334
vt 0.5 1
vt 0.6 0
vt 0.6 0.16666666666666666
vt 0.6 0.3333333333333333
vt 0.6 0.5
vt 0.6 0.6666666666666666
vt 0.6 0.8333333333333334
vt 0.6 1
vt 0.7 0
vt 0.7 0.16666666666666666
vt 0.7 0.3333333333333333
vt 0.7 0.5
vt 0.7 0.6666666666666666
vt 0.7 0.8333333333333334
vt 0.7 1
vt 0.8 0
vt 0.8 0.16666666666666666
vt 0.8 0.3333333333333333
vt 0.8 0.5
vt 0.8 0.6666666666666666
vt 0.8 0.8333333333333334
vt 0.8 1
vt 0.9 0
vt 0.9 0.16666666666666666
vt 0.9 0.3333333333333333
vt 0.9 0.5
vt 0.9 0.6666666666666666
vt 0.9 0.8333333333333334
vt 0.9 1
vt 1 0
vt 1 0.16666666666666666
vt 1 0.3333333333333333
vt 1 0.5
vt 1 0.6666666666666666
vt 1 0.8333333333333334
vt 1 1
vt 0 0
vt 0.08333333333333333 0
vt 0.16666666666666666 0
vt 0.25 0
vt 0.3333333333333333 0
vt 0.4166666666666667 0
vt 0.5 0
vt 0.5833333333333334 0
vt 0.6666666666666666 0
vt 0.75 0
vt 0.8333333333333334 0
vt 0.9166666666666666 0
vt 0 1
vt 0.08333333333333333 1
vt 0.16666666666666666 1
vt 0.25 1
vt 0.3333333333333333 1
vt 0.4166666666666667 1
vt 0.5 1
vt 0.5833333333333334 1
vt 0.6666666666666666 1
vt 0.75 1
vt 0.8333333333333334 1
vt 0.9166666666666666 1
vt 0.5 0.5
vt 0.5 0.5
vt 0 0
vt 0 0.16666666666666666
vt 0 0.3333333333333333
vt 0 0.5
vt 0 0.6666666666666666
vt 0 0.8333333333333334
vt 0 1
vt 0.1 0
vt 0.1 0.16666666666666666
vt 0.1 0.3333333333333333
vt 0.1 0.5
vt 0.1 0.6666666666666666
vt 0.1 0.8333333333333334
vt 0.1 1
vt 0.2 0
vt 0.2 0.16666666666666666
vt 0.2 0.3333333333333333
vt 0.2 0.5
vt 0.2 0.6666666666666666
vt 0.2 0.8333333333333334
vt 0.2 1
vt 0.3 0
vt 0.3 0.16666666666666666
vt 0.3 0.3333333333333333
vt 0.3 0.5
vt 0.3 0.6666666666666666
vt 0.3 0.8333333333333334
vt 0.3 1
vt 0.4 0
vt 0.4 0.16666666666666666
vt 0.4 0.3333333333333333
vt 0.4 0.5
vt 0.4 0.6666666666666666
vt 0.4 0.8333333333333334
vt 0.4 1
vt 0.5 0
vt 0.5 0.16666666666666666
vt 0.5 0.3333333333333333
vt 0.5 0.5
vt 0.5 0.6666666666666666
vt 0.5 0.8333333333333334
vt 0.5 1
vt 0.6 0
vt 0.6 0.16666666666666666
vt 0.6 0.3333333333333333
vt 0.6 0.5
vt 0.6 0.6666666666666666
vt 0.6 0.8333333333333334
vt 0.6 1
vt 0.7 0
vt 0.7 0.16666666666666666
vt 0.7 0.3333333333333333
vt 0.7 0.5
vt 0.7 0.6666666666666666
vt 0.7 0.8333333333333334
vt 0.7 1
vt 0.8 0
vt 0.8 0.16666666666666666
vt 0.8 0.3333333333333333
vt 0.8 0.5
vt 0.8 0.6666666666666666
vt 0.8 0.8333333333333334
vt 0.8 1
vt 0.9 0
vt 0.9 0.16666666666666666
vt 0.9 0.3333333333333333
vt 0.9 0.5
vt 0.9 0.6666666666666666
vt 0.9 0.8333333333333334
vt 0.9 1
vt 1 0
vt 1 0.16666666666666666
vt 1 0.3333333333333333
vt 1 0.5
vt 1 0.6666666666666666
vt 1 0.8333333333333334
vt 1 1
vt 0 0
vt 0.08333333333333333 0
vt 0.16666666666666666 0
vt 0.25 0
vt 0.3333333333333333 0
vt 0.4166666666666667 0
vt 0.5 0
vt 0.5833333333333334 0
vt 0.6666666666666666 0
vt 0.75 0
vt 0.8333333333333334 0
vt 0.9166666666666666 0
vt 0 1
vt 0.08333333333333333 1
vt 0.16666666666666666 1
vt 0.25 1
vt 0.3333333333333333 1
vt 0.4166666666666667 1
vt 0.5 1
vt 0.5833333333333334 1
vt 0.6666666666666666 1
vt 0.75 1
vt 0.8333333333333334 1
vt 0.9166666666666666 1
vt 0.5 0.5
vt 0.5 0.5
vt 0 0
vt 0 0.16666666666666666
vt 0 0.3333333333333333
vt 0 0.5
vt 0 0.6666666666666666
vt 0 0.8333333333333334
vt 0 1
vt 0.1 0
vt 0.1 0.16666666666666666
vt 0.1 0.3333333333333333
vt 0.1 0.5
vt 0.1 0.6666666666666666
vt 0.1 0.8333333333333334
vt 0.1 1
vt 0.2 0
vt 0.2 0.16666666666666666
vt 0.2 0.3333333333333333
vt 0.2 0.5
vt 0.2 0.6666666666666666
vt 0.2 0.8333333333333334
vt 0.2 1
vt 0.3 0
vt 0.3 0.16666666666666666
vt 0.3 0.3333333333333333
vt 0.3 0.5
vt 0.3 0.6666666666666666
vt 0.3 0.8333333333333334
vt 0.3 1
vt 0.4 0
vt 0.4 0.16666666666666666
vt 0.4 0.3333333333333333
vt 0.4 0.5
vt 0.4 0.6666666666666666
vt 0.4 0.8333333333333334
vt 0.4 1
vt 0.5 0
vt 0.5 0.16666666666666666
vt 0.5 0.3333333333333333
vt 0.5 0.5
vt 0.5 0.6666666666666666
vt 0.5 0.8333333333333334
vt 0.5 1
vt 0.6 0
vt 0.6 0.16666666666666666
vt 0.6 0.3333333333333333
vt 0.6 0.5
vt 0.6 0.6666666666666666
vt 0.6 0.8333333333333334
vt 0.6 1
vt 0.7 0
vt 0.7 0.16666666666666666
vt 0.7 0.3333333333333333
vt 0.7 0.5
vt 0.7 0.6666666666666666
vt 0.7 0.8333333333333334
vt 0.7 1
vt 0.8 0
vt 0.8 0.16666666666666666
vt 0.8 0.3333333333333333
vt 0.8 0.5
vt 0.8 0.6666666666666666
vt 0.8 0.8333333333333334
vt 0.8 1
vt 0.9 0
vt 0.9 0.16666666666666666
vt 0.9 0.3333333333333333
vt 0.9 0.5
vt 0.9 0.6666666666666666
vt 0.9 0.8333333333333334
vt 0.9 1
vt 1 0
vt 1 0.16666666666666666
vt 1 0.3333333333333333
vt 1 0.5
vt 1 0.6666666666666666
vt 1 0.8333333333333334
vt 1 1
vt 0 0
vt 0.08333333333333333 0
vt 0.16666666666666666 0
vt 0.25 0
vt 0.3333333333333333 0
vt 0.4166666666666667 0
vt 0.5 0
vt 0.5833333333333334 0
vt 0.6666666666666666 0
vt 0.75 0
vt 0.8333333333333334 0
vt 0.9166666666666666 0
vt 0 1
vt 0.08333333333333333 1
vt 0.16666666666666666 1
vt 0.25 1
vt 0.3333333333333333 1
vt 0.4166666666666667 1
vt 0.5 1
vt 0.5833333333333334 1
vt 0.6666666666666666 1
vt 0.75 1
vt 0.8333333333333334 1
vt 0.9166666666666666 1
vt 0.5 0.5
vt 0.5 0.5
vt 0 0
vt 0 0.16666666666666666
vt 0 0.3333333333333333
vt 0 0.5
vt 0 0.6666666666666666
vt 0 0.8333333333333334
vt 0 1
vt 0.1 0
vt 0.1 0.16666666666666666
vt 0.1 0.3333333333333333
vt 0.1 0.5
vt 0.1 0.6666666666666666
vt 0.1 0.8333333333333334
vt 0.1 1
vt 0.2 0
vt 0.2 0.16666666666666666
vt 0.2 0.3333333333333333
vt 0.2 0.5
vt 0.2 0.6666666666666666
vt 0.2 0.8333333333333334
vt 0.2 1
vt 0.3 0
vt 0.3 0.16666666666666666
vt 0.3 0.3333333333333333
vt 0.3 0.5
vt 0.3 0.6666666666666666
vt 0.3 0.8333333333333334
vt 0.3 1
vt 0.4 0
vt 0.4 0.16666666666666666
vt 0.4 0.3333333333333333
vt 0.4 0.5
vt 0.4 0.6666666666666666
vt 0.4 0.8333333333333334
vt 0.4 1
vt 0.5 0
vt 0.5 0.16666666666666666
vt 0.5 0.3333333333333333
vt 0.5 0.5
vt 0.5 0.6666666666666666
vt 0.5 0.8333333333333334
vt 0.5 1
vt 0.6 0
vt 0.6 0.16666666666666666
vt 0.6 0.3333333333333333
vt 0.6 0.5
vt 0.6 0.6666666666666666
vt 0.6 0.8333333333333334
vt 0.6 1
vt 0.7 0
vt 0.7 0.16666666666666666
vt 0.7 0.3333333333333333
vt 0.7 0.5
vt 0.7 0.6666666666666666
vt 0.7 0.8333333333333334
vt 0.7 1
vt 0.8 0
vt 0.8 0.16666666666666666
vt 0.8 0.3333333333333333
vt 0.8 0.5
vt 0.8 0.6666666666666666
vt 0.8 0.8333333333333334
vt 0.8 1
vt 0.9 0
vt 0.9 0.16666666666666666
vt 0.9 0.3333333333333333
vt 0.9 0.5
vt 0.9 0.6666666666666666
vt 0.9 0.8333333333333334
vt 0.9 1
vt 1 0
vt 1 0.16666666666666666
vt 1 0.3333333333333333
vt 1 0.5
vt 1 0.6666666666666666
vt 1 0.8333333333333334
vt 1 1
vt 0 0
vt 0.08333333333333333 0
vt 0.16666666666666666 0
vt 0.25 0
vt 0.3333333333333333 0
vt 0.4166666666666667 0
vt 0.5 0
vt 0.5833333333333334 0
vt 0.6666666666666666 0
vt 0.75 0
vt 0.8333333333333334 0
vt 0.9166666666666666 0
vt 0 1
vt 0.08333333333333333 1
vt 0.16666666666666666 1
vt 0.25 1
vt 0.3333333333333333 1
vt 0.4166666666666667 1
vt 0.5 1
vt 0.5833333333333334 1
vt 0.6666666666666666 1
vt 0.75 1
vt 0.8333333333333334 1
vt 0.9166666666666666 1
vt 0.5 0.5
vt 0.5 0.5
vt 0.5 0.5
vt 0.5 0.5
vt 0.5 0.5
vt 0.5 0.5
vt 0.5 0.5
vt 0.5 0.5
vt 0.5 0.5
vt 0.5 0.5
vn 0 1 0
vn 0 1 0
vn 0 1 0
vn 0 1 0
vn 0 1 0
vn 0 1 0
vn 0 1 0
vn 0 1 0
vn 0 1 0
vn 0 1 0
vn 0 1 0
vn 0 1 0
vn 0 1 0
vn 0 1 0
vn 0 1 0
vn 0 1 0
vn 0 1 0
vn 0 1 0
vn 0 1 0
vn 0 1 0
vn 0 1 0
vn 0 1 0
vn 0 1 0
vn 0 1 0
vn 0 1 0
vn 0 1 0
vn 0 1 0
vn 0 1 0
vn 0 1 0
vn 0 1 0
vn 0 1 0
vn 0 1 0
vn 0 1 0
vn 0 1 0
vn 0 1 0
vn 0 1 0
vn 0 1 0
vn 0 1 0
vn 0 1 0
vn 0 1 0
vn 0 1 0
vn 0 1 0
vn 0 1 0
vn 0 1 0
vn 0 1 0
vn 0 1 0
vn 0 1 0
vn 0 1 0
vn 0 1 0
vn 0 1 0
vn 0 1 0
vn 0 1 0
vn 0 1 0
vn 0 1 0
vn 0 1 0
vn 0 1 0
vn 0 1 0
vn 0 1 0
vn 0 1 0
vn 0 1 0
vn 0 1 0
vn 0 1 0
vn 0 1 0
vn 0 1 0
vn 0 1 0
vn 0 1 0
vn 0 1 0
vn 0 1 0
vn 0 1 0
vn 0 1 0
vn 0 1 0
vn 0 1 0
vn 0 1 0
vn 0 1 0
vn 0 1 0
vn 0 1 0
vn 0 1 0
vn 0 1 0
vn 0 1 0
vn 0 1 0
vn 0 1 0
vn 0 1 0
vn 0 1 0
vn 0 1 0
vn 0 1 0
vn 0 1 0
vn 0 1 0
vn 0 1 0
vn 0 -1 0
vn 0 -1 0
vn 0 -1 0
vn 0 -1 0
vn 0 -1 0
vn 0 -1 0
vn 0 -1 0
vn 0 -1 0
vn 0 -1 0
vn 0 -1 0
vn 0 -1 0
vn 0 -1 0
vn 0 -1 0
vn 0 -1 0
vn 0 -1 0
vn 0 -1 0
vn 0 1 0
vn 0 1 0
vn 0 1 0
vn 0 1 0
vn 0 1 0
vn 0 1 0
vn 0 1 0
vn 0 1 0
vn 0 1 0
vn 0 1 0
vn 0 1 0
vn 0 1 0
vn 0 1 0
vn 0 1 0
vn 0 1 0
vn 0 1 0
vn 0 -1 0
vn 0 1 0
vn 0 -1 0
vn 0 -1 0
vn 0 -1 0
vn 0 -1 0
vn 0 -1 0
vn 0 -1 0
vn 0 -1 0
vn 0 -1 0
vn 0 -1 0
vn 0 -1 0
vn 0 -1 0
vn 0 -1 0
vn 0 -1 0
vn 0 -1 0
vn 0 -1 0
vn 0 -1 0
vn 0 1 0
vn 0 1 0
vn 0 1 0
vn 0 1 0
vn 0 1 0
vn 0 1 0
vn 0 1 0
vn 0 1 0
vn 0 1 0
vn 0 1 0
vn 0 1 0
vn 0 1 0
vn 0 1 0
vn 0 1 0
vn 0 1 0
vn 0 1 0
vn 0 -1 0
vn 0 1 0
vn 0 1 0
vn 0 1 0
vn 0 1 0
vn 0 1 0
vn 0 1 0
vn 0 1 0
vn 0 1 0
vn 0 1 0
vn 0 1 0
vn 0 1 0
vn 0 1 0
vn 0 1 0
vn 0 1 0
vn 0 1 0
vn 0 1 0
vn 0 1 0
vn 0 1 0
vn 0 1 0
vn 0 1 0
vn 0 1 0
vn 0 1 0
vn 0 1 0
vn 0 1 0
vn 0 1 0
vn 0 1 0
vn 0 1 0
vn 0 1 0
vn 0 1 0
vn 0 1 0
vn 0 1 0
vn 0 1 0
vn 0 1 0
vn 0 1 0
vn 0 1 0
vn 0 1 0
vn 0 1 0
vn 0 1 0
vn 0 1 0
vn 0 1 0
vn 0 1 0
vn 0 1 0
vn 0 1 0
vn 0 1 0
vn 0 1 0
vn 0 1 0
vn 0 1 0
vn 0 1 0
vn 0 1 0
vn 0 1 0
vn 0 1 0
vn 0 1 0
vn 0 1 0
vn 0 1 0
vn 0 1 0
vn 0 1 0
vn 0 1 0
vn 1 0 0
vn 0.5000000000000001 0.8660254037844386 0
vn -0.4999999999999998 0.8660254037844387 0
vn -1 1.2246467991473532e-16 0
vn -0.5000000000000004 -0.8660254037844385 0
vn 0.5000000000000001 -0.8660254037844386 0
vn 1 -2.4492935982947064e-16 0
vn 0.8090169943749475 0 0.5877852522924731
vn 0.40450849718747384 0.8660254037844386 0.2938926261462366
vn -0.40450849718747356 0.8660254037844387 -0.29389262614623646
vn -0.8090169943749475 1.2246467991473532e-16 -0.5877852522924731
vn -0.40450849718747406 -0.8660254037844385 -0.29389262614623685
vn 0.40450849718747384 -0.8660254037844386 0.2938926261462366
vn 0.8090169943749475 -2.4492935982947064e-16 0.5877852522924731
vn 0.30901699437494745 0 0.9510565162951535
vn 0.15450849718747375 0.8660254037844386 0.4755282581475769
vn -0.15450849718747367 0.8660254037844387 -0.47552825814757654
vn -0.30901699437494745 1.2246467991473532e-16 -0.9510565162951535
vn -0.15450849718747386 -0.8660254037844385 -0.4755282581475772
vn 0.15450849718747375 -0.8660254037844386 0.4755282581475769
vn 0.30901699437494745 -2.4492935982947064e-16 0.9510565162951535
vn -0.30901699437494734 0 0.9510565162951536
vn -0.1545084971874737 0.8660254037844386 0.47552825814757693
vn 0.15450849718747361 0.8660254037844387 -0.4755282581475766
vn 0.30901699437494734 1.2246467991473532e-16 -0.9510565162951536
vn 0.1545084971874738 -0.8660254037844385 -0.47552825814757727
vn -0.1545084971874737 -0.8660254037844386 0.47552825814757693
vn -0.30901699437494734 -2.4492935982947064e-16 0.9510565162951536
vn -0.8090169943749473 0 0.5877852522924732
vn -0.4045084971874738 0.8660254037844386 0.2938926261462367
vn 0.4045084971874735 0.8660254037844387 -0.2938926261462365
vn 0.8090169943749473 1.2246467991473532e-16 -0.5877852522924732
vn 0.404508497187474 -0.8660254037844385 -0.2938926261462369
vn -0.4045084971874738 -0.8660254037844386 0.2938926261462367
vn -0.8090169943749473 -2.4492935982947064e-16 0.5877852522924732
vn -1 0 1.2246467991473532e-16
vn -0.5000000000000001 0.8660254037844386 6.123233995736767e-17
vn 0.4999999999999998 0.8660254037844387 -6.123233995736764e-17
vn 1 1.2246467991473532e-16 -1.2246467991473532e-16
vn 0.5000000000000004 -0.8660254037844385 -6.123233995736771e-17
vn -0.5000000000000001 -0.8660254037844386 6.123233995736767e-17
vn -1 -2.4492935982947064e-16 1.2246467991473532e-16
vn -0.8090169943749475 0 -0.587785252292473
vn -0.40450849718747384 0.8660254037844386 -0.29389262614623657
vn 0.40450849718747356 0.8660254037844387 0.2938926261462364
vn 0.8090169943749475 1.2246467991473532e-16 0.587785252292473
vn 0.40450849718747406 -0.8660254037844385 0.2938926261462368
vn -0.40450849718747384 -0.8660254037844386 -0.29389262614623657
vn -0.8090169943749475 -2.4492935982947064e-16 -0.587785252292473
vn -0.30901699437494756 0 -0.9510565162951535
vn -0.1545084971874738 0.8660254037844386 -0.4755282581475769
vn 0.15450849718747373 0.8660254037844387 0.47552825814757654
vn 0.30901699437494756 1.2246467991473532e-16 0.9510565162951535
vn 0.15450849718747392 -0.8660254037844385 0.4755282581475772
vn -0.1545084971874738 -0.8660254037844386 -0.4755282581475769
vn -0.30901699437494756 -2.4492935982947064e-16 -0.9510565162951535
vn 0.30901699437494723 0 -0.9510565162951536
vn 0.15450849718747364 0.8660254037844386 -0.47552825814757693
vn -0.15450849718747356 0.8660254037844387 0.4755282581475766
vn -0.30901699437494723 1.2246467991473532e-16 0.9510565162951536
vn -0.15450849718747375 -0.8660254037844385 0.47552825814757727
vn 0.15450849718747364 -0.8660254037844386 -0.47552825814757693
vn 0.30901699437494723 -2.4492935982947064e-16 -0.9510565162951536
vn 0.8090169943749473 0 -0.5877852522924734
vn 0.4045084971874738 0.8660254037844386 -0.29389262614623674
vn -0.4045084971874735 0.8660254037844387 0.29389262614623657
vn -0.8090169943749473 1.2246467991473532e-16 0.5877852522924734
vn -0.404508497187474 -0.8660254037844385 0.29389262614623696
vn 0.4045084971874738 -0.8660254037844386 -0.29389262614623674
vn 0.8090169943749473 -2.4492935982947064e-16 -0.5877852522924734
vn 1 0 -2.4492935982947064e-16
vn 0.5000000000000001 0.8660254037844386 -1.2246467991473535e-16
vn -0.4999999999999998 0.8660254037844387 1.2246467991473527e-16
vn -1 1.2246467991473532e-16 2.4492935982947064e-16
vn -0.5000000000000004 -0.8660254037844385 1.2246467991473542e-16
vn 0.5000000000000001 -0.8660254037844386 -1.2246467991473535e-16
vn 1 -2.4492935982947064e-16 -2.4492935982947064e-16
vn 0 -1 0
vn 0 -1 0
vn 0 -1 0
vn 0 -1 0
vn 0 -1 0
vn 0 -1 0
vn 0 -1 0
vn 0 -1 0
vn 0 -1 0
vn 0 -1 0
vn 0 -1 0
vn 0 -1 0
vn 0 1 0
vn 0 1 0
vn 0 1 0
vn 0 1 0
vn 0 1 0
vn 0 1 0
vn 0 1 0
vn 0 1 0
vn 0 1 0
vn 0 1 0
vn 0 1 0
vn 0 1 0
vn 0 -1 0
vn 0 1 0
vn 1 0 0
vn 0.5000000000000001 0.8660254037844386 0
vn -0.4999999999999998 0.8660254037844387 0
vn -1 1.2246467991473532e-16 0
vn -0.5000000000000004 -0.8660254037844385 0
vn 0.5000000000000001 -0.8660254037844386 0
vn 1 -2.4492935982947064e-16 0
vn 0.8090169943749475 0 0.5877852522924731
vn 0.40450849718747384 0.8660254037844386 0.2938926261462366
vn -0.40450849718747356 0.8660254037844387 -0.29389262614623646
vn -0.8090169943749475 1.2246467991473532e-16 -0.5877852522924731
vn -0.40450849718747406 -0.8660254037844385 -0.29389262614623685
vn 0.40450849718747384 -0.8660254037844386 0.2938926261462366
vn 0.8090169943749475 -2.4492935982947064e-16 0.5877852522924731
vn 0.30901699437494745 0 0.9510565162951535
vn 0.15450849718747375 0.8660254037844386 0.4755282581475769
vn -0.15450849718747367 0.8660254037844387 -0.47552825814757654
vn -0.30901699437494745 1.2246467991473532e-16 -0.9510565162951535
vn -0.15450849718747386 -0.8660254037844385 -0.4755282581475772
vn 0.15450849718747375 -0.8660254037844386 0.4755282581475769
vn 0.30901699437494745 -2.4492935982947064e-16 0.9510565162951535
vn -0.30901699437494734 0 0.9510565162951536
vn -0.1545084971874737 0.8660254037844386 0.47552825814757693
vn 0.15450849718747361 0.8660254037844387 -0.4755282581475766
vn 0.30901699437494734 1.2246467991473532e-16 -0.9510565162951536
vn 0.1545084971874738 -0.8660254037844385 -0.47552825814757727
vn -0.1545084971874737 -0.8660254037844386 0.47552825814757693
vn -0.30901699437494734 -2.4492935982947064e-16 0.9510565162951536
vn -0.8090169943749473 0 0.5877852522924732
vn -0.4045084971874738 0.8660254037844386 0.2938926261462367
vn 0.4045084971874735 0.8660254037844387 -0.2938926261462365
vn 0.8090169943749473 1.2246467991473532e-16 -0.5877852522924732
vn 0.404508497187474 -0.8660254037844385 -0.2938926261462369
vn -0.4045084971874738 -0.8660254037844386 0.2938926261462367
vn -0.8090169943749473 -2.4492935982947064e-16 0.5877852522924732
vn -1 0 1.2246467991473532e-16
vn -0.5000000000000001 0.8660254037844386 6.123233995736767e-17
vn 0.4999999999999998 0.8660254037844387 -6.123233995736764e-17
vn 1 1.2246467991473532e-16 -1.2246467991473532e-16
vn 0.5000000000000004 -0.8660254037844385 -6.123233995736771e-17
vn -0.5000000000000001 -0.8660254037844386 6.123233995736767e-17
vn -1 -2.4492935982947064e-16 1.2246467991473532e-16
vn -0.8090169943749475 0 -0.587785252292473
vn -0.40450849718747384 0.8660254037844386 -0.29389262614623657
vn 0.40450849718747356 0.8660254037844387 0.2938926261462364
vn 0.8090169943749475 1.2246467991473532e-16 0.587785252292473
vn 0.40450849718747406 -0.8660254037844385 0.2938926261462368
vn -0.40450849718747384 -0.8660254037844386 -0.29389262614623657
vn -0.8090169943749475 -2.4492935982947064e-16 -0.587785252292473
vn -0.30901699437494756 0 -0.9510565162951535
vn -0.1545084971874738 0.8660254037844386 -0.4755282581475769
vn 0.15450849718747373 0.8660254037844387 0.47552825814757654
vn 0.30901699437494756 1.2246467991473532e-16 0.9510565162951535
vn 0.15450849718747392 -0.8660254037844385 0.4755282581475772
vn -0.1545084971874738 -0.8660254037844386 -0.4755282581475769
vn -0.30901699437494756 -2.4492935982947064e-16 -0.9510565162951535
vn 0.30901699437494723 0 -0.9510565162951536
vn 0.15450849718747364 0.8660254037844386 -0.47552825814757693
vn -0.15450849718747356 0.8660254037844387 0.4755282581475766
vn -0.30901699437494723 1.2246467991473532e-16 0.9510565162951536
vn -0.15450849718747375 -0.8660254037844385 0.47552825814757727
vn 0.15450849718747364 -0.8660254037844386 -0.47552825814757693
vn 0.30901699437494723 -2.4492935982947064e-16 -0.9510565162951536
vn 0.8090169943749473 0 -0.5877852522924734
vn 0.4045084971874738 0.8660254037844386 -0.29389262614623674
vn -0.4045084971874735 0.8660254037844387 0.29389262614623657
vn -0.8090169943749473 1.2246467991473532e-16 0.5877852522924734
vn -0.404508497187474 -0.8660254037844385 0.29389262614623696
vn 0.4045084971874738 -0.8660254037844386 -0.29389262614623674
vn 0.8090169943749473 -2.4492935982947064e-16 -0.5877852522924734
vn 1 0 -2.4492935982947064e-16
vn 0.5000000000000001 0.8660254037844386 -1.2246467991473535e-16
vn -0.4999999999999998 0.8660254037844387 1.2246467991473527e-16
vn -1 1.2246467991473532e-16 2.4492935982947064e-16
vn -0.5000000000000004 -0.8660254037844385 1.2246467991473542e-16
vn 0.5000000000000001 -0.8660254037844386 -1.2246467991473535e-16
vn 1 -2.4492935982947064e-16 -2.4492935982947064e-16
vn 0 -1 0
vn 0 -1 0
vn 0 -1 0
vn 0 -1 0
vn 0 -1 0
vn 0 -1 0
vn 0 -1 0
vn 0 -1 0
vn 0 -1 0
vn 0 -1 0
vn 0 -1 0
vn 0 -1 0
vn 0 1 0
vn 0 1 0
vn 0 1 0
vn 0 1 0
vn 0 1 0
vn 0 1 0
vn 0 1 0
vn 0 1 0
vn 0 1 0
vn 0 1 0
vn 0 1 0
vn 0 1 0
vn 0 -1 0
vn 0 1 0
vn 1 0 0
vn 0.5000000000000001 0.8660254037844386 0
vn -0.4999999999999998 0.8660254037844387 0
vn -1 1.2246467991473532e-16 0
vn -0.5000000000000004 -0.8660254037844385 0
vn 0.5000000000000001 -0.8660254037844386 0
vn 1 -2.4492935982947064e-16 0
vn 0.8090169943749475 0 0.5877852522924731
vn 0.40450849718747384 0.8660254037844386 0.2938926261462366
vn -0.40450849718747356 0.8660254037844387 -0.29389262614623646
vn -0.8090169943749475 1.2246467991473532e-16 -0.5877852522924731
vn -0.40450849718747406 -0.8660254037844385 -0.29389262614623685
vn 0.40450849718747384 -0.8660254037844386 0.2938926261462366
vn 0.8090169943749475 -2.4492935982947064e-16 0.5877852522924731
vn 0.30901699437494745 0 0.9510565162951535
vn 0.15450849718747375 0.8660254037844386 0.4755282581475769
vn -0.15450849718747367 0.8660254037844387 -0.47552825814757654
vn -0.30901699437494745 1.2246467991473532e-16 -0.9510565162951535
vn -0.15450849718747386 -0.8660254037844385 -0.4755282581475772
vn 0.15450849718747375 -0.8660254037844386 0.4755282581475769
vn 0.30901699437494745 -2.4492935982947064e-16 0.9510565162951535
vn -0.30901699437494734 0 0.9510565162951536
vn -0.1545084971874737 0.8660254037844386 0.47552825814757693
vn 0.15450849718747361 0.8660254037844387 -0.4755282581475766
vn 0.30901699437494734 1.2246467991473532e-16 -0.9510565162951536
vn 0.1545084971874738 -0.8660254037844385 -0.47552825814757727
vn -0.1545084971874737 -0.8660254037844386 0.47552825814757693
vn -0.30901699437494734 -2.4492935982947064e-16 0.9510565162951536
vn -0.8090169943749473 0 0.5877852522924732
vn -0.4045084971874738 0.8660254037844386 0.2938926261462367
vn 0.4045084971874735 0.8660254037844387 -0.2938926261462365
vn 0.8090169943749473 1.2246467991473532e-16 -0.5877852522924732
vn 0.404508497187474 -0.8660254037844385 -0.2938926261462369
vn -0.4045084971874738 -0.8660254037844386 0.2938926261462367
vn -0.8090169943749473 -2.4492935982947064e-16 0.5877852522924732
vn -1 0 1.2246467991473532e-16
vn -0.5000000000000001 0.8660254037844386 6.123233995736767e-17
vn 0.4999999999999998 0.8660254037844387 -6.123233995736764e-17
vn 1 1.2246467991473532e-16 -1.2246467991473532e-16
vn 0.5000000000000004 -0.8660254037844385 -6.123233995736771e-17
vn -0.5000000000000001 -0.8660254037844386 6.123233995736767e-17
vn -1 -2.4492935982947064e-16 1.2246467991473532e-16
vn -0.8090169943749475 0 -0.587785252292473
vn -0.40450849718747384 0.8660254037844386 -0.29389262614623657
vn 0.40450849718747356 0.8660254037844387 0.2938926261462364
vn 0.8090169943749475 1.2246467991473532e-16 0.587785252292473
vn 0.40450849718747406 -0.8660254037844385 0.2938926261462368
vn -0.40450849718747384 -0.8660254037844386 -0.29389262614623657
vn -0.8090169943749475 -2.4492935982947064e-16 -0.587785252292473
vn -0.30901699437494756 0 -0.9510565162951535
vn -0.1545084971874738 0.8660254037844386 -0.4755282581475769
vn 0.15450849718747373 0.8660254037844387 0.47552825814757654
vn 0.30901699437494756 1.2246467991473532e-16 0.9510565162951535
vn 0.15450849718747392 -0.8660254037844385 0.4755282581475772
vn -0.1545084971874738 -0.8660254037844386 -0.4755282581475769
vn -0.30901699437494756 -2.4492935982947064e-16 -0.9510565162951535
vn 0.30901699437494723 0 -0.9510565162951536
vn 0.15450849718747364 0.8660254037844386 -0.47552825814757693
vn -0.15450849718747356 0.8660254037844387 0.4755282581475766
vn -0.30901699437494723 1.2246467991473532e-16 0.9510565162951536
vn -0.15450849718747375 -0.8660254037844385 0.47552825814757727
vn 0.15450849718747364 -0.8660254037844386 -0.47552825814757693
vn 0.30901699437494723 -2.4492935982947064e-16 -0.9510565162951536
vn 0.8090169943749473 0 -0.5877852522924734
vn 0.4045084971874738 0.8660254037844386 -0.29389262614623674
vn -0.4045084971874735 0.8660254037844387 0.29389262614623657
vn -0.8090169943749473 1.2246467991473532e-16 0.5877852522924734
vn -0.404508497187474 -0.8660254037844385 0.29389262614623696
vn 0.4045084971874738 -0.8660254037844386 -0.29389262614623674
vn 0.8090169943749473 -2.4492935982947064e-16 -0.5877852522924734
vn 1 0 -2.4492935982947064e-16
vn 0.5000000000000001 0.8660254037844386 -1.2246467991473535e-16
vn -0.4999999999999998 0.8660254037844387 1.2246467991473527e-16
vn -1 1.2246467991473532e-16 2.4492935982947064e-16
vn -0.5000000000000004 -0.8660254037844385 1.2246467991473542e-16
vn 0.5000000000000001 -0.8660254037844386 -1.2246467991473535e-16
vn 1 -2.4492935982947064e-16 -2.4492935982947064e-16
vn 0 -1 0
vn 0 -1 0
vn 0 -1 0
vn 0 -1 0
vn 0 -1 0
vn 0 -1 0
vn 0 -1 0
vn 0 -1 0
vn 0 -1 0
vn 0 -1 0
vn 0 -1 0
vn 0 -1 0
vn 0 1 0
vn 0 1 0
vn 0 1 0
vn 0 1 0
vn 0 1 0
vn 0 1 0
vn 0 1 0
vn 0 1 0
vn 0 1 0
vn 0 1 0
vn 0 1 0
vn 0 1 0
vn 0 -1 0
vn 0 1 0
vn 1 0 0
vn 0.5000000000000001 0.8660254037844386 0
vn -0.4999999999999998 0.8660254037844387 0
vn -1 1.2246467991473532e-16 0
vn -0.5000000000000004 -0.8660254037844385 0
vn 0.5000000000000001 -0.8660254037844386 0
vn 1 -2.4492935982947064e-16 0
vn 0.8090169943749475 0 0.5877852522924731
vn 0.40450849718747384 0.8660254037844386 0.2938926261462366
vn -0.40450849718747356 0.8660254037844387 -0.29389262614623646
vn -0.8090169943749475 1.2246467991473532e-16 -0.5877852522924731
vn -0.40450849718747406 -0.8660254037844385 -0.29389262614623685
vn 0.40450849718747384 -0.8660254037844386 0.2938926261462366
vn 0.8090169943749475 -2.4492935982947064e-16 0.5877852522924731
vn 0.30901699437494745 0 0.9510565162951535
vn 0.15450849718747375 0.8660254037844386 0.4755282581475769
vn -0.15450849718747367 0.8660254037844387 -0.47552825814757654
vn -0.30901699437494745 1.2246467991473532e-16 -0.9510565162951535
vn -0.15450849718747386 -0.8660254037844385 -0.4755282581475772
vn 0.15450849718747375 -0.8660254037844386 0.4755282581475769
vn 0.30901699437494745 -2.4492935982947064e-16 0.9510565162951535
vn -0.30901699437494734 0 0.9510565162951536
vn -0.1545084971874737 0.8660254037844386 0.47552825814757693
vn 0.15450849718747361 0.8660254037844387 -0.4755282581475766
vn 0.30901699437494734 1.2246467991473532e-16 -0.9510565162951536
vn 0.1545084971874738 -0.8660254037844385 -0.47552825814757727
vn -0.1545084971874737 -0.8660254037844386 0.47552825814757693
vn -0.30901699437494734 -2.4492935982947064e-16 0.9510565162951536
vn -0.8090169943749473 0 0.5877852522924732
vn -0.4045084971874738 0.8660254037844386 0.2938926261462367
vn 0.4045084971874735 0.8660254037844387 -0.2938926261462365
vn 0.8090169943749473 1.2246467991473532e-16 -0.5877852522924732
vn 0.404508497187474 -0.8660254037844385 -0.2938926261462369
vn -0.4045084971874738 -0.8660254037844386 0.2938926261462367
vn -0.8090169943749473 -2.4492935982947064e-16 0.5877852522924732
vn -1 0 1.2246467991473532e-16
vn -0.5000000000000001 0.8660254037844386 6.123233995736767e-17
vn 0.4999999999999998 0.8660254037844387 -6.123233995736764e-17
vn 1 1.2246467991473532e-16 -1.2246467991473532e-16
vn 0.5000000000000004 -0.8660254037844385 -6.123233995736771e-17
vn -0.5000000000000001 -0.8660254037844386 6.123233995736767e-17
vn -1 -2.4492935982947064e-16 1.2246467991473532e-16
vn -0.8090169943749475 0 -0.587785252292473
vn -0.40450849718747384 0.8660254037844386 -0.29389262614623657
vn 0.40450849718747356 0.8660254037844387 0.2938926261462364
vn 0.8090169943749475 1.2246467991473532e-16 0.587785252292473
vn 0.40450849718747406 -0.8660254037844385 0.2938926261462368
vn -0.40450849718747384 -0.8660254037844386 -0.29389262614623657
vn -0.8090169943749475 -2.4492935982947064e-16 -0.587785252292473
vn -0.30901699437494756 0 -0.9510565162951535
vn -0.1545084971874738 0.8660254037844386 -0.4755282581475769
vn 0.15450849718747373 0.8660254037844387 0.47552825814757654
vn 0.30901699437494756 1.2246467991473532e-16 0.9510565162951535
vn 0.15450849718747392 -0.8660254037844385 0.4755282581475772
vn -0.1545084971874738 -0.8660254037844386 -0.4755282581475769
vn -0.30901699437494756 -2.4492935982947064e-16 -0.9510565162951535
vn 0.30901699437494723 0 -0.9510565162951536
vn 0.15450849718747364 0.8660254037844386 -0.47552825814757693
vn -0.15450849718747356 0.8660254037844387 0.4755282581475766
vn -0.30901699437494723 1.2246467991473532e-16 0.9510565162951536
vn -0.15450849718747375 -0.8660254037844385 0.47552825814757727
vn 0.15450849718747364 -0.8660254037844386 -0.47552825814757693
vn 0.30901699437494723 -2.4492935982947064e-16 -0.9510565162951536
vn 0.8090169943749473 0 -0.5877852522924734
vn 0.4045084971874738 0.8660254037844386 -0.29389262614623674
vn -0.4045084971874735 0.8660254037844387 0.29389262614623657
vn -0.8090169943749473 1.2246467991473532e-16 0.5877852522924734
vn -0.404508497187474 -0.8660254037844385 0.29389262614623696
vn 0.4045084971874738 -0.8660254037844386 -0.29389262614623674
vn 0.8090169943749473 -2.4492935982947064e-16 -0.5877852522924734
vn 1 0 -2.4492935982947064e-16
vn 0.5000000000000001 0.8660254037844386 -1.2246467991473535e-16
vn -0.4999999999999998 0.8660254037844387 1.2246467991473527e-16
vn -1 1.2246467991473532e-16 2.4492935982947064e-16
vn -0.5000000000000004 -0.8660254037844385 1.2246467991473542e-16
vn 0.5000000000000001 -0.8660254037844386 -1.2246467991473535e-16
vn 1 -2.4492935982947064e-16 -2.4492935982947064e-16
vn 0 -1 0
vn 0 -1 0
vn 0 -1 0
vn 0 -1 0
vn 0 -1 0
vn 0 -1 0
vn 0 -1 0
vn 0 -1 0
vn 0 -1 0
vn 0 -1 0
vn 0 -1 0
vn 0 -1 0
vn 0 1 0
vn 0 1 0
vn 0 1 0
vn 0 1 0
vn 0 1 0
vn 0 1 0
vn 0 1 0
vn 0 1 0
vn 0 1 0
vn 0 1 0
vn 0 1 0
vn 0 1 0
vn 0 -1 0
vn 0 1 0
vn 0 1 0
vn 0 1 0
vn 0 1 0
vn 0 1 0
vn 0 1 0
vn 0 1 0
vn 0 1 0
vn 0 1 0
f 1/1/1 3/3/3 2/2/2
f 1/1/1 4/4/4 3/3/3
f 5/5/5 6/6/6 7/7/7
f 5/5/5 7/7/7 8/8/8
f 1/1/1 2/2/2 6/6/6
f 1/1/1 6/6/6 5/5/5
f 3/3/3 4/4/4 8/8/8
f 3/3/3 8/8/8 7/7/7
f 1/1/1 5/5/5 8/8/8
f 1/1/1 8/8/8 4/4/4
f 2/2/2 3/3/3 7/7/7
f 2/2/2 7/7/7 6/6/6
f 9/9/9 11/11/11 10/10/10
f 9/9/9 12/12/12 11/11/11
f 13/13/13 14/14/14 15/15/15
f 13/13/13 15/15/15 16/16/16
f 9/9/9 10/10/10 14/14/14
f 9/9/9 14/14/14 13/13/13
f 11/11/11 12/12/12 16/16/16
f 11/11/11 16/16/16 15/15/15
f 9/9/9 13/13/13 16/16/16
f 9/9/9 16/16/16 12/12/12
f 10/10/10 11/11/11 15/15/15
f 10/10/10 15/15/15 14/14/14
f 17/17/17 19/19/19 18/18/18
f 17/17/17 20/20/20 19/19/19
f 21/21/21 22/22/22 23/23/23
f 21/21/21 23/23/23 24/24/24
f 17/17/17 18/18/18 22/22/22
f 17/17/17 22/22/22 21/21/21
f 19/19/19 20/20/20 24/24/24
f 19/19/19 24/24/24 23/23/23
f 17/17/17 21/21/21 24/24/24
f 17/17/17 24/24/24 20/20/20
f 18/18/18 19/19/19 23/23/23
f 18/18/18 23/23/23 22/22/22
f 25/25/25 27/27/27 26/26/26
f 25/25/25 28/28/28 27/27/27
f 29/29/29 30/30/30 31/31/31
f 29/29/29 31/31/31 32/32/32
f 25/25/25 26/26/26 30/30/30
f 25/25/25 30/30/30 29/29/29
f 27/27/27 28/28/28 32/32/32
f 27/27/27 32/32/32 31/31/31
f 25/25/25 29/29/29 32/32/32
f 25/25/25 32/32/32 28/28/28
f 26/26/26 27/27/27 31/31/31
f 26/26/26 31/31/31 30/30/30
f 33/33/33 35/35/35 34/34/34
f 33/33/33 36/36/36 35/35/35
f 37/37/37 38/38/38 39/39/39
f 37/37/37 39/39/39 40/40/40
f 33/33/33 34/34/34 38/38/38
f 33/33/33 38/38/38 37/37/37
f 35/35/35 36/36/36 40/40/40
f 35/35/35 40/40/40 39/39/39
f 33/33/33 37/37/37 40/40/40
f 33/33/33 40/40/40 36/36/36
f 34/34/34 35/35/35 39/39/39
f 34/34/34 39/39/39 38/38/38
f 41/41/41 43/43/43 42/42/42
f 41/41/41 44/44/44 43/43/43
f 45/45/45 46/46/46 47/47/47
f 45/45/45 47/47/47 48/48/48
f 41/41/41 42/42/42 46/46/46
f 41/41/41 46/46/46 45/45/45
f 43/43/43 44/44/44 48/48/48
f 43/43/43 48/48/48 47/47/47
f 41/41/41 45/45/45 48/48/48
f 41/41/41 48/48/48 44/44/44
f 42/42/42 43/43/43 47/47/47
f 42/42/42 47/47/47 46/46/46
f 49/49/49 51/51/51 50/50/50
f 49/49/49 52/52/52 51/51/51
f 53/53/53 54/54/54 55/55/55
f 53/53/53 55/55/55 56/56/56
f 49/49/49 50/50/50 54/54/54
f 49/49/49 54/54/54 53/53/53
f 51/51/51 52/52/52 56/56/56
f 51/51/51 56/56/56 55/55/55
f 49/49/49 53/53/53 56/56/56
f 49/49/49 56/56/56 52/52/52
f 50/50/50 51/51/51 55/55/55
f 50/50/50 55/55/55 54/54/54
f 57/57/57 59/59/59 58/58/58
f 57/57/57 60/60/60 59/59/59
f 61/61/61 62/62/62 63/63/63
f 61/61/61 63/63/63 64/64/64
f 57/57/57 58/58/58 62/62/62
f 57/57/57 62/62/62 61/61/61
f 59/59/59 60/60/60 64/64/64
f 59/59/59 64/64/64 63/63/63
f 57/57/57 61/61/61 64/64/64
f 57/57/57 64/64/64 60/60/60
f 58/58/58 59/59/59 63/63/63
f 58/58/58 63/63/63 62/62/62
f 65/65/65 67/67/67 66/66/66
f 65/65/65 68/68/68 67/67/67
f 69/69/69 70/70/70 71/71/71
f 69/69/69 71/71/71 72/72/72
f 65/65/65 66/66/66 70/70/70
f 65/65/65 70/70/70 69/69/69
f 67/67/67 68/68/68 72/72/72
f 67/67/67 72/72/72 71/71/71
f 65/65/65 69/69/69 72/72/72
f 65/65/65 72/72/72 68/68/68
f 66/66/66 67/67/67 71/71/71
f 66/66/66 71/71/71 70/70/70
f 73/73/73 75/75/75 74/74/74
f 73/73/73 76/76/76 75/75/75
f 77/77/77 78/78/78 79/79/79
f 77/77/77 79/79/79 80/80/80
f 73/73/73 74/74/74 78/78/78
f 73/73/73 78/78/78 77/77/77
f 75/75/75 76/76/76 80/80/80
f 75/75/75 80/80/80 79/79/79
f 73/73/73 77/77/77 80/80/80
f 73/73/73 80/80/80 76/76/76
f 74/74/74 75/75/75 79/79/79
f 74/74/74 79/79/79 78/78/78
f 81/81/81 83/83/83 82/82/82
f 81/81/81 84/84/84 83/83/83
f 85/85/85 86/86/86 87/87/87
f 85/85/85 87/87/87 88/88/88
f 81/81/81 82/82/82 86/86/86
f 81/81/81 86/86/86 85/85/85
f 83/83/83 84/84/84 88/88/88
f 83/83/83 88/88/88 87/87/87
f 81/81/81 85/85/85 88/88/88
f 81/81/81 88/88/88 84/84/84
f 82/82/82 83/83/83 87/87/87
f 82/82/82 87/87/87 86/86/86
f 89/89/89 90/90/90 106/106/106
f 89/89/89 106/106/106 105/105/105
f 121/121/121 90/90/90 89/89/89
f 122/122/122 105/105/105 106/106/106
f 90/90/90 91/91/91 107/107/107
f 90/90/90 107/107/107 106/106/106
f 121/121/121 91/91/91 90/90/90
f 122/122/122 106/106/106 107/107/107
f 91/91/91 92/92/92 108/108/108
f 91/91/91 108/108/108 107/107/107
f 121/121/121 92/92/92 91/91/91
f 122/122/122 107/107/107 108/108/108
f 92/92/92 93/93/93 109/109/109
f 92/92/92 109/109/109 108/108/108
f 121/121/121 93/93/93 92/92/92
f 122/122/122 108/108/108 109/109/109
f 93/93/93 94/94/94 110/110/110
f 93/93/93 110/110/110 109/109/109
f 121/121/121 94/94/94 93/93/93
f 122/122/122 109/109/109 110/110/110
f 94/94/94 95/95/95 111/111/111
f 94/94/94 111/111/111 110/110/110
f 121/121/121 95/95/95 94/94/94
f 122/122/122 110/110/110 111/111/111
f 95/95/95 96/96/96 112/112/112
f 95/95/95 112/112/112 111/111/111
f 121/121/121 96/96/96 95/95/95
f 122/122/122 111/111/111 112/112/112
f 96/96/96 97/97/97 113/113/113
f 96/96/96 113/113/113 112/112/112
f 121/121/121 97/97/97 96/96/96
f 122/122/122 112/112/112 113/113/113
f 97/97/97 98/98/98 114/114/114
f 97/97/97 114/114/114 113/113/113
f 121/121/121 98/98/98 97/97/97
f 122/122/122 113/113/113 114/114/114
f 98/98/98 99/99/99 115/115/115
f 98/98/98 115/115/115 114/114/114
f 121/121/121 99/99/99 98/98/98
f 122/122/122 114/114/114 115/115/115
f 99/99/99 100/100/100 116/116/116
f 99/99/99 116/116/116 115/115/115
f 121/121/121 100/100/100 99/99/99
f 122/122/122 115/115/115 116/116/116
f 100/100/100 101/101/101 117/117/117
f 100/100/100 117/117/117 116/116/116
f 121/121/121 101/101/101 100/100/100
f 122/122/122 116/116/116 117/117/117
f 101/101/101 102/102/102 118/118/118
f 101/101/101 118/118/118 117/117/117
f 121/121/121 102/102/102 101/101/101
f 122/122/122 117/117/117 118/118/118
f 102/102/102 103/103/103 119/119/119
f 102/102/102 119/119/119 118/118/118
f 121/121/121 103/103/103 102/102/102
f 122/122/122 118/118/118 119/119/119
f 103/103/103 104/104/104 120/120/120
f 103/103/103 120/120/120 119/119/119
f 121/121/121 104/104/104 103/103/103
f 122/122/122 119/119/119 120/120/120
f 104/104/104 89/89/89 105/105/105
f 104/104/104 105/105/105 120/120/120
f 121/121/121 89/89/89 104/104/104
f 122/122/122 120/120/120 105/105/105
f 123/123/123 124/124/124 140/140/140
f 123/123/123 140/140/140 139/139/139
f 155/155/155 124/124/124 123/123/123
f 156/156/156 139/139/139 140/140/140
f 124/124/124 125/125/125 141/141/141
f 124/124/124 141/141/141 140/140/140
f 155/155/155 125/125/125 124/124/124
f 156/156/156 140/140/140 141/141/141
f 125/125/125 126/126/126 142/142/142
f 125/125/125 142/142/142 141/141/141
f 155/155/155 126/126/126 125/125/125
f 156/156/156 141/141/141 142/142/142
f 126/126/126 127/127/127 143/143/143
f 126/126/126 143/143/143 142/142/142
f 155/155/155 127/127/127 126/126/126
f 156/156/156 142/142/142 143/143/143
f 127/127/127 128/128/128 144/144/144
f 127/127/127 144/144/144 143/143/143
f 155/155/155 128/128/128 127/127/127
f 156/156/156 143/143/143 144/144/144
f 128/128/128 129/129/129 145/145/145
f 128/128/128 145/145/145 144/144/144
f 155/155/155 129/129/129 128/128/128
f 156/156/156 144/144/144 145/145/145
f 129/129/129 130/130/130 146/146/146
f 129/129/129 146/146/146 145/145/145
f 155/155/155 130/130/130 129/129/129
f 156/156/156 145/145/145 146/146/146
f 130/130/130 131/131/131 147/147/147
f 130/130/130 147/147/147 146/146/146
f 155/155/155 131/131/131 130/130/130
f 156/156/156 146/146/146 147/147/147
f 131/131/131 132/132/132 148/148/148
f 131/131/131 148/148/148 147/147/147
f 155/155/155 132/132/132 131/131/131
f 156/156/156 147/147/147 148/148/148
f 132/132/132 133/133/133 149/149/149
f 132/132/132 149/149/149 148/148/148
f 155/155/155 133/133/133 132/132/132
f 156/156/156 148/148/148 149/149/149
f 133/133/133 134/134/134 150/150/150
f 133/133/133 150/150/150 149/149/149
f 155/155/155 134/134/134 133/133/133
f 156/156/156 149/149/149 150/150/150
f 134/134/134 135/135/135 151/151/151
f 134/134/134 151/151/151 150/150/150
f 155/155/155 135/135/135 134/134/134
f 156/156/156 150/150/150 151/151/151
f 135/135/135 136/136/136 152/152/152
f 135/135/135 152/152/152 151/151/151
f 155/155/155 136/136/136 135/135/135
f 156/156/156 151/151/151 152/152/152
f 136/136/136 137/137/137 153/153/153
f 136/136/136 153/153/153 152/152/152
f 155/155/155 137/137/137 136/136/136
f 156/156/156 152/152/152 153/153/153
f 137/137/137 138/138/138 154/154/154
f 137/137/137 154/154/154 153/153/153
f 155/155/155 138/138/138 137/137/137
f 156/156/156 153/153/153 154/154/154
f 138/138/138 123/123/123 139/139/139
f 138/138/138 139/139/139 154/154/154
f 155/155/155 123/123/123 138/138/138
f 156/156/156 154/154/154 139/139/139
f 157/157/157 159/159/159 158/158/158
f 157/157/157 160/160/160 159/159/159
f 161/161/161 162/162/162 163/163/163
f 161/161/161 163/163/163 164/164/164
f 157/157/157 158/158/158 162/162/162
f 157/157/157 162/162/162 161/161/161
f 159/159/159 160/160/160 164/164/164
f 159/159/159 164/164/164 163/163/163
f 157/157/157 161/161/161 164/164/164
f 157/157/157 164/164/164 160/160/160
f 158/158/158 159/159/159 163/163/163
f 158/158/158 163/163/163 162/162/162
f 165/165/165 167/167/167 166/166/166
f 165/165/165 168/168/168 167/167/167
f 169/169/169 170/170/170 171/171/171
f 169/169/169 171/171/171 172/172/172
f 165/165/165 166/166/166 170/170/170
f 165/165/165 170/170/170 169/169/169
f 167/167/167 168/168/168 172/172/172
f 167/167/167 172/172/172 171/171/171
f 165/165/165 169/169/169 172/172/172
f 165/165/165 172/172/172 168/168/168
f 166/166/166 167/167/167 171/171/171
f 166/166/166 171/171/171 170/170/170
f 173/173/173 175/175/175 174/174/174
f 173/173/173 176/176/176 175/175/175
f 177/177/177 178/178/178 179/179/179
f 177/177/177 179/179/179 180/180/180
f 173/173/173 174/174/174 178/178/178
f 173/173/173 178/178/178 177/177/177
f 175/175/175 176/176/176 180/180/180
f 175/175/175 180/180/180 179/179/179
f 173/173/173 177/177/177 180/180/180
f 173/173/173 180/180/180 176/176/176
f 174/174/174 175/175/175 179/179/179
f 174/174/174 179/179/179 178/178/178
f 181/181/181 183/183/183 182/182/182
f 181/181/181 184/184/184 183/183/183
f 185/185/185 186/186/186 187/187/187
f 185/185/185 187/187/187 188/188/188
f 181/181/181 182/182/182 186/186/186
f 181/181/181 186/186/186 185/185/185
f 183/183/183 184/184/184 188/188/188
f 183/183/183 188/188/188 187/187/187
f 181/181/181 185/185/185 188/188/188
f 181/181/181 188/188/188 184/184/184
f 182/182/182 183/183/183 187/187/187
f 182/182/182 187/187/187 186/186/186
f 189/189/189 191/191/191 190/190/190
f 189/189/189 192/192/192 191/191/191
f 193/193/193 194/194/194 195/195/195
f 193/193/193 195/195/195 196/196/196
f 189/189/189 190/190/190 194/194/194
f 189/189/189 194/194/194 193/193/193
f 191/191/191 192/192/192 196/196/196
f 191/191/191 196/196/196 195/195/195
f 189/189/189 193/193/193 196/196/196
f 189/189/189 196/196/196 192/192/192
f 190/190/190 191/191/191 195/195/195
f 190/190/190 195/195/195 194/194/194
f 197/197/197 199/199/199 198/198/198
f 197/197/197 200/200/200 199/199/199
f 201/201/201 202/202/202 203/203/203
f 201/201/201 203/203/203 204/204/204
f 197/197/197 198/198/198 202/202/202
f 197/197/197 202/202/202 201/201/201
f 199/199/199 200/200/200 204/204/204
f 199/199/199 204/204/204 203/203/203
f 197/197/197 201/201/201 204/204/204
f 197/197/197 204/204/204 200/200/200
f 198/198/198 199/199/199 203/203/203
f 198/198/198 203/203/203 202/202/202
f 205/205/205 207/207/207 206/206/206
f 205/205/205 208/208/208 207/207/207
f 209/209/209 210/210/210 211/211/211
f 209/209/209 211/211/211 212/212/212
f 205/205/205 206/206/206 210/210/210
f 205/205/205 210/210/210 209/209/209
f 207/207/207 208/208/208 212/212/212
f 207/207/207 212/212/212 211/211/211
f 205/205/205 209/209/209 212/212/212
f 205/205/205 212/212/212 208/208/208
f 206/206/206 207/207/207 211/211/211
f 206/206/206 211/211/211 210/210/210
f 213/213/213 220/220/220 221/221/221
f 213/213/213 221/221/221 214/214/214
f 214/214/214 221/221/221 222/222/222
f 214/214/214 222/222/222 215/215/215
f 215/215/215 222/222/222 223/223/223
f 215/215/215 223/223/223 216/216/216
f 216/216/216 223/223/223 224/224/224
f 216/216/216 224/224/224 217/217/217
f 217/217/217 224/224/224 225/225/225
f 217/217/217 225/225/225 218/218/218
f 218/218/218 225/225/225 226/226/226
f 218/218/218 226/226/226 219/219/219
f 220/220/220 227/227/227 228/228/228
f 220/220/220 228/228/228 221/221/221
f 221/221/221 228/228/228 229/229/229
f 221/221/221 229/229/229 222/222/222
f 222/222/222 229/229/229 230/230/230
f 222/222/222 230/230/230 223/223/223
f 223/223/223 230/230/230 231/231/231
f 223/223/223 231/231/231 224/224/224
f 224/224/224 231/231/231 232/232/232
f 224/224/224 232/232/232 225/225/225
f 225/225/225 232/232/232 233/233/233
f 225/225/225 233/233/233 226/226/226
f 227/227/227 234/234/234 235/235/235
f 227/227/227 235/235/235 228/228/228
f 228/228/228 235/235/235 236/236/236
f 228/228/228 236/236/236 229/229/229
f 229/229/229 236/236/236 237/237/237
f 229/229/229 237/237/237 230/230/230
f 230/230/230 237/237/237 238/238/238
f 230/230/230 238/238/238 231/231/231
f 231/231/231 238/238/238 239/239/239
f 231/231/231 239/239/239 232/232/232
f 232/232/232 239/239/239 240/240/240
f 232/232/232 240/240/240 233/233/233
f 234/234/234 241/241/241 242/242/242
f 234/234/234 242/242/242 235/235/235
f 235/235/235 242/242/242 243/243/243
f 235/235/235 243/243/243 236/236/236
f 236/236/236 243/243/243 244/244/244
f 236/236/236 244/244/244 237/237/237
f 237/237/237 244/244/244 245/245/245
f 237/237/237 245/245/245 238/238/238
f 238/238/238 245/245/245 246/246/246
f 238/238/238 246/246/246 239/239/239
f 239/239/239 246/246/246 247/247/247
f 239/239/239 247/247/247 240/240/240
f 241/241/241 248/248/248 249/249/249
f 241/241/241 249/249/249 242/242/242
f 242/242/242 249/249/249 250/250/250
f 242/242/242 250/250/250 243/243/243
f 243/243/243 250/250/250 251/251/251
f 243/243/243 251/251/251 244/244/244
f 244/244/244 251/251/251 252/252/252
f 244/244/244 252/252/252 245/245/245
f 245/245/245 252/252/252 253/253/253
f 245/245/245 253/253/253 246/246/246
f 246/246/246 253/253/253 254/254/254
f 246/246/246 254/254/254 247/247/247
f 248/248/248 255/255/255 256/256/256
f 248/248/248 256/256/256 249/249/249
f 249/249/249 256/256/256 257/257/257
f 249/249/249 257/257/257 250/250/250
f 250/250/250 257/257/257 258/258/258
f 250/250/250 258/258/258 251/251/251
f 251/251/251 258/258/258 259/259/259
f 251/251/251 259/259/259 252/252/252
f 252/252/252 259/259/259 260/260/260
f 252/252/252 260/260/260 253/253/253
f 253/253/253 260/260/260 261/261/261
f 253/253/253 261/261/261 254/254/254
f 255/255/255 262/262/262 263/263/263
f 255/255/255 263/263/263 256/256/256
f 256/256/256 263/263/263 264/264/264
f 256/256/256 264/264/264 257/257/257
f 257/257/257 264/264/264 265/265/265
f 257/257/257 265/265/265 258/258/258
f 258/258/258 265/265/265 266/266/266
f 258/258/258 266/266/266 259/259/259
f 259/259/259 266/266/266 267/267/267
f 259/259/259 267/267/267 260/260/260
f 260/260/260 267/267/267 268/268/268
f 260/260/260 268/268/268 261/261/261
f 262/262/262 269/269/269 270/270/270
f 262/262/262 270/270/270 263/263/263
f 263/263/263 270/270/270 271/271/271
f 263/263/263 271/271/271 264/264/264
f 264/264/264 271/271/271 272/272/272
f 264/264/264 272/272/272 265/265/265
f 265/265/265 272/272/272 273/273/273
f 265/265/265 273/273/273 266/266/266
f 266/266/266 273/273/273 274/274/274
f 266/266/266 274/274/274 267/267/267
f 267/267/267 274/274/274 275/275/275
f 267/267/267 275/275/275 268/268/268
f 269/269/269 276/276/276 277/277/277
f 269/269/269 277/277/277 270/270/270
f 270/270/270 277/277/277 278/278/278
f 270/270/270 278/278/278 271/271/271
f 271/271/271 278/278/278 279/279/279
f 271/271/271 279/279/279 272/272/272
f 272/272/272 279/279/279 280/280/280
f 272/272/272 280/280/280 273/273/273
f 273/273/273 280/280/280 281/281/281
f 273/273/273 281/281/281 274/274/274
f 274/274/274 281/281/281 282/282/282
f 274/274/274 282/282/282 275/275/275
f 276/276/276 283/283/283 284/284/284
f 276/276/276 284/284/284 277/277/277
f 277/277/277 284/284/284 285/285/285
f 277/277/277 285/285/285 278/278/278
f 278/278/278 285/285/285 286/286/286
f 278/278/278 286/286/286 279/279/279
f 279/279/279 286/286/286 287/287/287
f 279/279/279 287/287/287 280/280/280
f 280/280/280 287/287/287 288/288/288
f 280/280/280 288/288/288 281/281/281
f 281/281/281 288/288/288 289/289/289
f 281/281/281 289/289/289 282/282/282
f 290/290/290 291/291/291 303/303/303
f 290/290/290 303/303/303 302/302/302
f 314/314/314 291/291/291 290/290/290
f 315/315/315 302/302/302 303/303/303
f 291/291/291 292/292/292 304/304/304
f 291/291/291 304/304/304 303/303/303
f 314/314/314 292/292/292 291/291/291
f 315/315/315 303/303/303 304/304/304
f 292/292/292 293/293/293 305/305/305
f 292/292/292 305/305/305 304/304/304
f 314/314/314 293/293/293 292/292/292
f 315/315/315 304/304/304 305/305/305
f 293/293/293 294/294/294 306/306/306
f 293/293/293 306/306/306 305/305/305
f 314/314/314 294/294/294 293/293/293
f 315/315/315 305/305/305 306/306/306
f 294/294/294 295/295/295 307/307/307
f 294/294/294 307/307/307 306/306/306
f 314/314/314 295/295/295 294/294/294
f 315/315/315 306/306/306 307/307/307
f 295/295/295 296/296/296 308/308/308
f 295/295/295 308/308/308 307/307/307
f 314/314/314 296/296/296 295/295/295
f 315/315/315 307/307/307 308/308/308
f 296/296/296 297/297/297 309/309/309
f 296/296/296 309/309/309 308/308/308
f 314/314/314 297/297/297 296/296/296
f 315/315/315 308/308/308 309/309/309
f 297/297/297 298/298/298 310/310/310
f 297/297/297 310/310/310 309/309/309
f 314/314/314 298/298/298 297/297/297
f 315/315/315 309/309/309 310/310/310
f 298/298/298 299/299/299 311/311/311
f 298/298/298 311/311/311 310/310/310
f 314/314/314 299/299/299 298/298/298
f 315/315/315 310/310/310 311/311/311
f 299/299/299 300/300/300 312/312/312
f 299/299/299 312/312/312 311/311/311
f 314/314/314 300/300/300 299/299/299
f 315/315/315 311/311/311 312/312/312
f 300/300/300 301/301/301 313/313/313
f 300/300/300 313/313/313 312/312/312
f 314/314/314 301/301/301 300/300/300
f 315/315/315 312/312/312 313/313/313
f 301/301/301 290/290/290 302/302/302
f 301/301/301 302/302/302 313/313/313
f 314/314/314 290/290/290 301/301/301
f 315/315/315 313/313/313 302/302/302
f 316/316/316 323/323/323 324/324/324
f 316/316/316 324/324/324 317/317/317
f 317/317/317 324/324/324 325/325/325
f 317/317/317 325/325/325 318/318/318
f 318/318/318 325/325/325 326/326/326
f 318/318/318 326/326/326 319/319/319
f 319/319/319 326/326/326 327/327/327
f 319/319/319 327/327/327 320/320/320
f 320/320/320 327/327/327 328/328/328
f 320/320/320 328/328/328 321/321/321
f 321/321/321 328/328/328 329/329/329
f 321/321/321 329/329/329 322/322/322
f 323/323/323 330/330/330 331/331/331
f 323/323/323 331/331/331 324/324/324
f 324/324/324 331/331/331 332/332/332
f 324/324/324 332/332/332 325/325/325
f 325/325/325 332/332/332 333/333/333
f 325/325/325 333/333/333 326/326/326
f 326/326/326 333/333/333 334/334/334
f 326/326/326 334/334/334 327/327/327
f 327/327/327 334/334/334 335/335/335
f 327/327/327 335/335/335 328/328/328
f 328/328/328 335/335/335 336/336/336
f 328/328/328 336/336/336 329/329/329
f 330/330/330 337/337/337 338/338/338
f 330/330/330 338/338/338 331/331/331
f 331/331/331 338/338/338 339/339/339
f 331/331/331 339/339/339 332/332/332
f 332/332/332 339/339/339 340/340/340
f 332/332/332 340/340/340 333/333/333
f 333/333/333 340/340/340 341/341/341
f 333/333/333 341/341/341 334/334/334
f 334/334/334 341/341/341 342/342/342
f 334/334/334 342/342/342 335/335/335
f 335/335/335 342/342/342 343/343/343
f 335/335/335 343/343/343 336/336/336
f 337/337/337 344/344/344 345/345/345
f 337/337/337 345/345/345 338/338/338
f 338/338/338 345/345/345 346/346/346
f 338/338/338 346/346/346 339/339/339
f 339/339/339 346/346/346 347/347/347
f 339/339/339 347/347/347 340/340/340
f 340/340/340 347/347/347 348/348/348
f 340/340/340 348/348/348 341/341/341
f 341/341/341 348/348/348 349/349/349
f 341/341/341 349/349/349 342/342/342
f 342/342/342 349/349/349 350/350/350
f 342/342/342 350/350/350 343/343/343
f 344/344/344 351/351/351 352/352/352
f 344/344/344 352/352/352 345/345/345
f 345/345/345 352/352/352 353/353/353
f 345/345/345 353/353/353 346/346/346
f 346/346/346 353/353/353 354/354/354
f 346/346/346 354/354/354 347/347/347
f 347/347/347 354/354/354 355/355/355
f 347/347/347 355/355/355 348/348/348
f 348/348/348 355/355/355 356/356/356
f 348/348/348 356/356/356 349/349/349
f 349/349/349 356/356/356 357/357/357
f 349/349/349 357/357/357 350/350/350
f 351/351/351 358/358/358 359/359/359
f 351/351/351 359/359/359 352/352/352
f 352/352/352 359/359/359 360/360/360
f 352/352/352 360/360/360 353/353/353
f 353/353/353 360/360/360 361/361/361
f 353/353/353 361/361/361 354/354/354
f 354/354/354 361/361/361 362/362/362
f 354/354/354 362/362/362 355/355/355
f 355/355/355 362/362/362 363/363/363
f 355/355/355 363/363/363 356/356/356
f 356/356/356 363/363/363 364/364/364
f 356/356/356 364/364/364 357/357/357
f 358/358/358 365/365/365 366/366/366
f 358/358/358 366/366/366 359/359/359
f 359/359/359 366/366/366 367/367/367
f 359/359/359 367/367/367 360/360/360
f 360/360/360 367/367/367 368/368/368
f 360/360/360 368/368/368 361/361/361
f 361/361/361 368/368/368 369/369/369
f 361/361/361 369/369/369 362/362/362
f 362/362/362 369/369/369 370/370/370
f 362/362/362 370/370/370 363/363/363
f 363/363/363 370/370/370 371/371/371
f 363/363/363 371/371/371 364/364/364
f 365/365/365 372/372/372 373/373/373
f 365/365/365 373/373/373 366/366/366
f 366/366/366 373/373/373 374/374/374
f 366/366/366 374/374/374 367/367/367
f 367/367/367 374/374/374 375/375/375
f 367/367/367 375/375/375 368/368/368
f 368/368/368 375/375/375 376/376/376
f 368/368/368 376/376/376 369/369/369
f 369/369/369 376/376/376 377/377/377
f 369/369/369 377/377/377 370/370/370
f 370/370/370 377/377/377 378/378/378
f 370/370/370 378/378/378 371/371/371
f 372/372/372 379/379/379 380/380/380
f 372/372/372 380/380/380 373/373/373
f 373/373/373 380/380/380 381/381/381
f 373/373/373 381/381/381 374/374/374
f 374/374/374 381/381/381 382/382/382
f 374/374/374 382/382/382 375/375/375
f 375/375/375 382/382/382 383/383/383
f 375/375/375 383/383/383 376/376/376
f 376/376/376 383/383/383 384/384/384
f 376/376/376 384/384/384 377/377/377
f 377/377/377 384/384/384 385/385/385
f 377/377/377 385/385/385 378/378/378
f 379/379/379 386/386/386 387/387/387
f 379/379/379 387/387/387 380/380/380
f 380/380/380 387/387/387 388/388/388
f 380/380/380 388/388/388 381/381/381
f 381/381/381 388/388/388 389/389/389
f 381/381/381 389/389/389 382/382/382
f 382/382/382 389/389/389 390/390/390
f 382/382/382 390/390/390 383/383/383
f 383/383/383 390/390/390 391/391/391
f 383/383/383 391/391/391 384/384/384
f 384/384/384 391/391/391 392/392/392
f 384/384/384 392/392/392 385/385/385
f 393/393/393 394/394/394 406/406/406
f 393/393/393 406/406/406 405/405/405
f 417/417/417 394/394/394 393/393/393
f 418/418/418 405/405/405 406/406/406
f 394/394/394 395/395/395 407/407/407
f 394/394/394 407/407/407 406/406/406
f 417/417/417 395/395/395 394/394/394
f 418/418/418 406/406/406 407/407/407
f 395/395/395 396/396/396 408/408/408
f 395/395/395 408/408/408 407/407/407
f 417/417/417 396/396/396 395/395/395
f 418/418/418 407/407/407 408/408/408
f 396/396/396 397/397/397 409/409/409
f 396/396/396 409/409/409 408/408/408
f 417/417/417 397/397/397 396/396/396
f 418/418/418 408/408/408 409/409/409
f 397/397/397 398/398/398 410/410/410
f 397/397/397 410/410/410 409/409/409
f 417/417/417 398/398/398 397/397/397
f 418/418/418 409/409/409 410/410/410
f 398/398/398 399/399/399 411/411/411
f 398/398/398 411/411/411 410/410/410
f 417/417/417 399/399/399 398/398/398
f 418/418/418 410/410/410 411/411/411
f 399/399/399 400/400/400 412/412/412
f 399/399/399 412/412/412 411/411/411
f 417/417/417 400/400/400 399/399/399
f 418/418/418 411/411/411 412/412/412
f 400/400/400 401/401/401 413/413/413
f 400/400/400 413/413/413 412/412/412
f 417/417/417 401/401/401 400/400/400
f 418/418/418 412/412/412 413/413/413
f 401/401/401 402/402/402 414/414/414
f 401/401/401 414/414/414 413/413/413
f 417/417/417 402/402/402 401/401/401
f 418/418/418 413/413/413 414/414/414
f 402/402/402 403/403/403 415/415/415
f 402/402/402 415/415/415 414/414/414
f 417/417/417 403/403/403 402/402/402
f 418/418/418 414/414/414 415/415/415
f 403/403/403 404/404/404 416/416/416
f 403/403/403 416/416/416 415/415/415
f 417/417/417 404/404/404 403/403/403
f 418/418/418 415/415/415 416/416/416
f 404/404/404 393/393/393 405/405/405
f 404/404/404 405/405/405 416/416/416
f 417/417/417 393/393/393 404/404/404
f 418/418/418 416/416/416 405/405/405
f 419/419/419 426/426/426 427/427/427
f 419/419/419 427/427/427 420/420/420
f 420/420/420 427/427/427 428/428/428
f 420/420/420 428/428/428 421/421/421
f 421/421/421 428/428/428 429/429/429
f 421/421/421 429/429/429 422/422/422
f 422/422/422 429/429/429 430/430/430
f 422/422/422 430/430/430 423/423/423
f 423/423/423 430/430/430 431/431/431
f 423/423/423 431/431/431 424/424/424
f 424/424/424 431/431/431 432/432/432
f 424/424/424 432/432/432 425/425/425
f 426/426/426 433/433/433 434/434/434
f 426/426/426 434/434/434 427/427/427
f 427/427/427 434/434/434 435/435/435
f 427/427/427 435/435/435 428/428/428
f 428/428/428 435/435/435 436/436/436
f 428/428/428 436/436/436 429/429/429
f 429/429/429 436/436/436 437/437/437
f 429/429/429 437/437/437 430/430/430
f 430/430/430 437/437/437 438/438/438
f 430/430/430 438/438/438 431/431/431
f 431/431/431 438/438/438 439/439/439
f 431/431/431 439/439/439 432/432/432
f 433/433/433 440/440/440 441/441/441
f 433/433/433 441/441/441 434/434/434
f 434/434/434 441/441/441 442/442/442
f 434/434/434 442/442/442 435/435/435
f 435/435/435 442/442/442 443/443/443
f 435/435/435 443/443/443 436/436/436
f 436/436/436 443/443/443 444/444/444
f 436/436/436 444/444/444 437/437/437
f 437/437/437 444/444/444 445/445/445
f 437/437/437 445/445/445 438/438/438
f 438/438/438 445/445/445 446/446/446
f 438/438/438 446/446/446 439/439/439
f 440/440/440 447/447/447 448/448/448
f 440/440/440 448/448/448 441/441/441
f 441/441/441 448/448/448 449/449/449
f 441/441/441 449/449/449 442/442/442
f 442/442/442 449/449/449 450/450/450
f 442/442/442 450/450/450 443/443/443
f 443/443/443 450/450/450 451/451/451
f 443/443/443 451/451/451 444/444/444
f 444/444/444 451/451/451 452/452/452
f 444/444/444 452/452/452 445/445/445
f 445/445/445 452/452/452 453/453/453
f 445/445/445 453/453/453 446/446/446
f 447/447/447 454/454/454 455/455/455
f 447/447/447 455/455/455 448/448/448
f 448/448/448 455/455/455 456/456/456
f 448/448/448 456/456/456 449/449/449
f 449/449/449 456/456/456 457/457/457
f 449/449/449 457/457/457 450/450/450
f 450/450/450 457/457/457 458/458/458
f 450/450/450 458/458/458 451/451/451
f 451/451/451 458/458/458 459/459/459
f 451/451/451 459/459/459 452/452/452
f 452/452/452 459/459/459 460/460/460
f 452/452/452 460/460/460 453/453/453
f 454/454/454 461/461/461 462/462/462
f 454/454/454 462/462/462 455/455/455
f 455/455/455 462/462/462 463/463/463
f 455/455/455 463/463/463 456/456/456
f 456/456/456 463/463/463 464/464/464
f 456/456/456 464/464/464 457/457/457
f 457/457/457 464/464/464 465/465/465
f 457/457/457 465/465/465 458/458/458
f 458/458/458 465/465/465 466/466/466
f 458/458/458 466/466/466 459/459/459
f 459/459/459 466/466/466 467/467/467
f 459/459/459 467/467/467 460/460/460
f 461/461/461 468/468/468 469/469/469
f 461/461/461 469/469/469 462/462/462
f 462/462/462 469/469/469 470/470/470
f 462/462/462 470/470/470 463/463/463
f 463/463/463 470/470/470 471/471/471
f 463/463/463 471/471/471 464/464/464
f 464/464/464 471/471/471 472/472/472
f 464/464/464 472/472/472 465/465/465
f 465/465/465 472/472/472 473/473/473
f 465/465/465 473/473/473 466/466/466
f 466/466/466 473/473/473 474/474/474
f 466/466/466 474/474/474 467/467/467
f 468/468/468 475/475/475 476/476/476
f 468/468/468 476/476/476 469/469/469
f 469/469/469 476/476/476 477/477/477
f 469/469/469 477/477/477 470/470/470
f 470/470/470 477/477/477 478/478/478
f 470/470/470 478/478/478 471/471/471
f 471/471/471 478/478/478 479/479/479
f 471/471/471 479/479/479 472/472/472
f 472/472/472 479/479/479 480/480/480
f 472/472/472 480/480/480 473/473/473
f 473/473/473 480/480/480 481/481/481
f 473/473/473 481/481/481 474/474/474
f 475/475/475 482/482/482 483/483/483
f 475/475/475 483/483/483 476/476/476
f 476/476/476 483/483/483 484/484/484
f 476/476/476 484/484/484 477/477/477
f 477/477/477 484/484/484 485/485/485
f 477/477/477 485/485/485 478/478/478
f 478/478/478 485/485/485 486/486/486
f 478/478/478 486/486/486 479/479/479
f 479/479/479 486/486/486 487/487/487
f 479/479/479 487/487/487 480/480/480
f 480/480/480 487/487/487 488/488/488
f 480/480/480 488/488/488 481/481/481
f 482/482/482 489/489/489 490/490/490
f 482/482/482 490/490/490 483/483/483
f 483/483/483 490/490/490 491/491/491
f 483/483/483 491/491/491 484/484/484
f 484/484/484 491/491/491 492/492/492
f 484/484/484 492/492/492 485/485/485
f 485/485/485 492/492/492 493/493/493
f 485/485/485 493/493/493 486/486/486
f 486/486/486 493/493/493 494/494/494
f 486/486/486 494/494/494 487/487/487
f 487/487/487 494/494/494 495/495/495
f 487/487/487 495/495/495 488/488/488
f 496/496/496 497/497/497 509/509/509
f 496/496/496 509/509/509 508/508/508
f 520/520/520 497/497/497 496/496/496
f 521/521/521 508/508/508 509/509/509
f 497/497/497 498/498/498 510/510/510
f 497/497/497 510/510/510 509/509/509
f 520/520/520 498/498/498 497/497/497
f 521/521/521 509/509/509 510/510/510
f 498/498/498 499/499/499 511/511/511
f 498/498/498 511/511/511 510/510/510
f 520/520/520 499/499/499 498/498/498
f 521/521/521 510/510/510 511/511/511
f 499/499/499 500/500/500 512/512/512
f 499/499/499 512/512/512 511/511/511
f 520/520/520 500/500/500 499/499/499
f 521/521/521 511/511/511 512/512/512
f 500/500/500 501/501/501 513/513/513
f 500/500/500 513/513/513 512/512/512
f 520/520/520 501/501/501 500/500/500
f 521/521/521 512/512/512 513/513/513
f 501/501/501 502/502/502 514/514/514
f 501/501/501 514/514/514 513/513/513
f 520/520/520 502/502/502 501/501/501
f 521/521/521 513/513/513 514/514/514
f 502/502/502 503/503/503 515/515/515
f 502/502/502 515/515/515 514/514/514
f 520/520/520 503/503/503 502/502/502
f 521/521/521 514/514/514 515/515/515
f 503/503/503 504/504/504 516/516/516
f 503/503/503 516/516/516 515/515/515
f 520/520/520 504/504/504 503/503/503
f 521/521/521 515/515/515 516/516/516
f 504/504/504 505/505/505 517/517/517
f 504/504/504 517/517/517 516/516/516
f 520/520/520 505/505/505 504/504/504
f 521/521/521 516/516/516 517/517/517
f 505/505/505 506/506/506 518/518/518
f 505/505/505 518/518/518 517/517/517
f 520/520/520 506/506/506 505/505/505
f 521/521/521 517/517/517 518/518/518
f 506/506/506 507/507/507 519/519/519
f 506/506/506 519/519/519 518/518/518
f 520/520/520 507/507/507 506/506/506
f 521/521/521 518/518/518 519/519/519
f 507/507/507 496/496/496 508/508/508
f 507/507/507 508/508/508 519/519/519
f 520/520/520 496/496/496 507/507/507
f 521/521/521 519/519/519 508/508/508
f 522/522/522 529/529/529 530/530/530
f 522/522/522 530/530/530 523/523/523
f 523/523/523 530/530/530 531/531/531
f 523/523/523 531/531/531 524/524/524
f 524/524/524 531/531/531 532/532/532
f 524/524/524 532/532/532 525/525/525
f 525/525/525 532/532/532 533/533/533
f 525/525/525 533/533/533 526/526/526
f 526/526/526 533/533/533 534/534/534
f 526/526/526 534/534/534 527/527/527
f 527/527/527 534/534/534 535/535/535
f 527/527/527 535/535/535 528/528/528
f 529/529/529 536/536/536 537/537/537
f 529/529/529 537/537/537 530/530/530
f 530/530/530 537/537/537 538/538/538
f 530/530/530 538/538/538 531/531/531
f 531/531/531 538/538/538 539/539/539
f 531/531/531 539/539/539 532/532/532
f 532/532/532 539/539/539 540/540/540
f 532/532/532 540/540/540 533/533/533
f 533/533/533 540/540/540 541/541/541
f 533/533/533 541/541/541 534/534/534
f 534/534/534 541/541/541 542/542/542
f 534/534/534 542/542/542 535/535/535
f 536/536/536 543/543/543 544/544/544
f 536/536/536 544/544/544 537/537/537
f 537/537/537 544/544/544 545/545/545
f 537/537/537 545/545/545 538/538/538
f 538/538/538 545/545/545 546/546/546
f 538/538/538 546/546/546 539/539/539
f 539/539/539 546/546/546 547/547/547
f 539/539/539 547/547/547 540/540/540
f 540/540/540 547/547/547 548/548/548
f 540/540/540 548/548/548 541/541/541
f 541/541/541 548/548/548 549/549/549
f 541/541/541 549/549/549 542/542/542
f 543/543/543 550/550/550 551/551/551
f 543/543/543 551/551/551 544/544/544
f 544/544/544 551/551/551 552/552/552
f 544/544/544 552/552/552 545/545/545
f 545/545/545 552/552/552 553/553/553
f 545/545/545 553/553/553 546/546/546
f 546/546/546 553/553/553 554/554/554
f 546/546/546 554/554/554 547/547/547
f 547/547/547 554/554/554 555/555/555
f 547/547/547 555/555/555 548/548/548
f 548/548/548 555/555/555 556/556/556
f 548/548/548 556/556/556 549/549/549
f 550/550/550 557/557/557 558/558/558
f 550/550/550 558/558/558 551/551/551
f 551/551/551 558/558/558 559/559/559
f 551/551/551 559/559/559 552/552/552
f 552/552/552 559/559/559 560/560/560
f 552/552/552 560/560/560 553/553/553
f 553/553/553 560/560/560 561/561/561
f 553/553/553 561/561/561 554/554/554
f 554/554/554 561/561/561 562/562/562
f 554/554/554 562/562/562 555/555/555
f 555/555/555 562/562/562 563/563/563
f 555/555/555 563/563/563 556/556/556
f 557/557/557 564/564/564 565/565/565
f 557/557/557 565/565/565 558/558/558
f 558/558/558 565/565/565 566/566/566
f 558/558/558 566/566/566 559/559/559
f 559/559/559 566/566/566 567/567/567
f 559/559/559 567/567/567 560/560/560
f 560/560/560 567/567/567 568/568/568
f 560/560/560 568/568/568 561/561/561
f 561/561/561 568/568/568 569/569/569
f 561/561/561 569/569/569 562/562/562
f 562/562/562 569/569/569 570/570/570
f 562/562/562 570/570/570 563/563/563
f 564/564/564 571/571/571 572/572/572
f 564/564/564 572/572/572 565/565/565
f 565/565/565 572/572/572 573/573/573
f 565/565/565 573/573/573 566/566/566
f 566/566/566 573/573/573 574/574/574
f 566/566/566 574/574/574 567/567/567
f 567/567/567 574/574/574 575/575/575
f 567/567/567 575/575/575 568/568/568
f 568/568/568 575/575/575 576/576/576
f 568/568/568 576/576/576 569/569/569
f 569/569/569 576/576/576 577/577/577
f 569/569/569 577/577/577 570/570/570
f 571/571/571 578/578/578 579/579/579
f 571/571/571 579/579/579 572/572/572
f 572/572/572 579/579/579 580/580/580
f 572/572/572 580/580/580 573/573/573
f 573/573/573 580/580/580 581/581/581
f 573/573/573 581/581/581 574/574/574
f 574/574/574 581/581/581 582/582/582
f 574/574/574 582/582/582 575/575/575
f 575/575/575 582/582/582 583/583/583
f 575/575/575 583/583/583 576/576/576
f 576/576/576 583/583/583 584/584/584
f 576/576/576 584/584/584 577/577/577
f 578/578/578 585/585/585 586/586/586
f 578/578/578 586/586/586 579/579/579
f 579/579/579 586/586/586 587/587/587
f 579/579/579 587/587/587 580/580/580
f 580/580/580 587/587/587 588/588/588
f 580/580/580 588/588/588 581/581/581
f 581/581/581 588/588/588 589/589/589
f 581/581/581 589/589/589 582/582/582
f 582/582/582 589/589/589 590/590/590
f 582/582/582 590/590/590 583/583/583
f 583/583/583 590/590/590 591/591/591
f 583/583/583 591/591/591 584/584/584
f 585/585/585 592/592/592 593/593/593
f 585/585/585 593/593/593 586/586/586
f 586/586/586 593/593/593 594/594/594
f 586/586/586 594/594/594 587/587/587
f 587/587/587 594/594/594 595/595/595
f 587/587/587 595/595/595 588/588/588
f 588/588/588 595/595/595 596/596/596
f 588/588/588 596/596/596 589/589/589
f 589/589/589 596/596/596 597/597/597
f 589/589/589 597/597/597 590/590/590
f 590/590/590 597/597/597 598/598/598
f 590/590/590 598/598/598 591/591/591
f 599/599/599 600/600/600 612/612/612
f 599/599/599 612/612/612 611/611/611
f 623/623/623 600/600/600 599/599/599
f 624/624/624 611/611/611 612/612/612
f 600/600/600 601/601/601 613/613/613
f 600/600/600 613/613/613 612/612/612
f 623/623/623 601/601/601 600/600/600
f 624/624/624 612/612/612 613/613/613
f 601/601/601 602/602/602 614/614/614
f 601/601/601 614/614/614 613/613/613
f 623/623/623 602/602/602 601/601/601
f 624/624/624 613/613/613 614/614/614
f 602/602/602 603/603/603 615/615/615
f 602/602/602 615/615/615 614/614/614
f 623/623/623 603/603/603 602/602/602
f 624/624/624 614/614/614 615/615/615
f 603/603/603 604/604/604 616/616/616
f 603/603/603 616/616/616 615/615/615
f 623/623/623 604/604/604 603/603/603
f 624/624/624 615/615/615 616/616/616
f 604/604/604 605/605/605 617/617/617
f 604/604/604 617/617/617 616/616/616
f 623/623/623 605/605/605 604/604/604
f 624/624/624 616/616/616 617/617/617
f 605/605/605 606/606/606 618/618/618
f 605/605/605 618/618/618 617/617/617
f 623/623/623 606/606/606 605/605/605
f 624/624/624 617/617/617 618/618/618
f 606/606/606 607/607/607 619/619/619
f 606/606/606 619/619/619 618/618/618
f 623/623/623 607/607/607 606/606/606
f 624/624/624 618/618/618 619/619/619
f 607/607/607 608/608/608 620/620/620
f 607/607/607 620/620/620 619/619/619
f 623/623/623 608/608/608 607/607/607
f 624/624/624 619/619/619 620/620/620
f 608/608/608 609/609/609 621/621/621
f 608/608/608 621/621/621 620/620/620
f 623/623/623 609/609/609 608/608/608
f 624/624/624 620/620/620 621/621/621
f 609/609/609 610/610/610 622/622/622
f 609/609/609 622/622/622 621/621/621
f 623/623/623 610/610/610 609/609/609
f 624/624/624 621/621/621 622/622/622
f 610/610/610 599/599/599 611/611/611
f 610/610/610 611/611/611 622/622/622
f 623/623/623 599/599/599 610/610/610
f 624/624/624 622/622/622 611/611/611
f 625/625/625 627/627/627 626/626/626
f 625/625/625 628/628/628 627/627/627
f 629/629/629 630/630/630 631/631/631
f 629/629/629 631/631/631 632/632/632
f 625/625/625 626/626/626 630/630/630
f 625/625/625 630/630/630 629/629/629
f 627/627/627 628/628/628 632/632/632
f 627/627/627 632/632/632 631/631/631
f 625/625/625 629/629/629 632/632/632
f 625/625/625 632/632/632 628/628/628
f 626/626/626 627/627/627 631/631/631
f 626/626/626 631/631/631 630/630/630