# 3D Model: vehicle/train/206_1_l
# Style: freight_locomotive_train | Symmetry: symmetric
# Dimensions: 24.016 x 3.645 x 3.1 m
# Triangles: 892 | Vertices: 502
v -11.321 0.78 -1.55
v 11.321 0.78 -1.55
v 11.321 1.23 -1.55
v -11.321 1.23 -1.55
v -11.321 0.78 1.55
v 11.321 0.78 1.55
v 11.321 1.23 1.55
v -11.321 1.23 1.55
v 10.615 0.205 -1.457
v 11.565 0.205 -1.457
v 11.565 0.205 1.457
v 10.615 0.205 1.457
v 10.615 0.955 -1.457
v 11.565 0.955 -1.457
v 11.5581 0.51 -0.175
v 12.0081 0.51 -0.175
v 12.0081 0.79 -0.175
v 11.5581 0.79 -0.175
v 11.5581 0.51 0.175
v 12.0081 0.51 0.175
v 12.0081 0.79 0.175
v 11.5581 0.79 0.175
v -12.0081 0.51 -0.175
v -11.5581 0.51 -0.175
v -11.5581 0.79 -0.175
v -12.0081 0.79 -0.175
v -12.0081 0.51 0.175
v -11.5581 0.51 0.175
v -11.5581 0.79 0.175
v -12.0081 0.79 0.175
v 3.0035 1 -1.4725
v 8.0864 1 -1.4725
v 8.0864 3.4541 -1.4725
v 3.0035 3.4541 -1.4725
v 3.0035 1 1.4725
v 8.0864 1 1.4725
v 8.0864 3.4541 1.4725
v 3.0035 3.4541 1.4725
v 8.0764 2.2393 -1.2958
v 8.1964 2.2393 -1.2958
v 8.1964 3.0983 -1.2958
v 8.0764 3.0983 -1.2958
v 8.0764 2.2393 1.2958
v 8.1964 2.2393 1.2958
v 8.1964 3.0983 1.2958
v 8.0764 3.0983 1.2958
v 3.7151 2.2761 -1.5019
v 7.3748 2.2761 -1.5019
v 7.3748 3.0615 -1.5019
v 3.7151 3.0615 -1.5019
v 3.7151 2.2761 1.5019
v 7.3748 2.2761 1.5019
v 7.3748 3.0615 1.5019
v 3.7151 3.0615 1.5019
v -10.9744 1 -1.178
v 4.0432 1 -1.178
v 4.0432 3.2002 -1.178
v -10.9744 3.2002 -1.178
v -10.9744 1 1.178
v 4.0432 1 1.178
v 4.0432 3.2002 1.178
v -10.9744 3.2002 1.178
v -5.5856 3.2002 0
v -5.6499 3.2002 0.24
v -5.8256 3.2002 0.4157
v -6.0656 3.2002 0.48
v -6.3056 3.2002 0.4157
v -6.4813 3.2002 0.24
v -6.5456 3.2002 0
v -6.4813 3.2002 -0.24
v -6.3056 3.2002 -0.4157
v -6.0656 3.2002 -0.48
v -5.8256 3.2002 -0.4157
v -5.6499 3.2002 -0.24
v -5.5856 3.3602 0
v -5.6499 3.3602 0.24
v -5.8256 3.3602 0.4157
v -6.0656 3.3602 0.48
v -6.3056 3.3602 0.4157
v -6.4813 3.3602 0.24
v -6.5456 3.3602 0
v -6.4813 3.3602 -0.24
v -6.3056 3.3602 -0.4157
v -6.0656 3.3602 -0.48
v -5.8256 3.3602 -0.4157
v -5.6499 3.3602 -0.24
v -6.0656 3.2002 0
v -6.0656 3.3602 0
v -3.7856 3.2002 0
v -3.8499 3.2002 0.24
v -4.0256 3.2002 0.4157
v -4.2656 3.2002 0.48
v -4.5056 3.2002 0.4157
v -4.6813 3.2002 0.24
v -4.7456 3.2002 0
v -4.6813 3.2002 -0.24
v -4.5056 3.2002 -0.4157
v -4.2656 3.2002 -0.48
v -4.0256 3.2002 -0.4157
v -3.8499 3.2002 -0.24
v -3.7856 3.3602 0
v -3.8499 3.3602 0.24
v -4.0256 3.3602 0.4157
v -4.2656 3.3602 0.48
v -4.5056 3.3602 0.4157
v -4.6813 3.3602 0.24
v -4.7456 3.3602 0
v -4.6813 3.3602 -0.24
v -4.5056 3.3602 -0.4157
v -4.2656 3.3602 -0.48
v -4.0256 3.3602 -0.4157
v -3.8499 3.3602 -0.24
v -4.2656 3.2002 0
v -4.2656 3.3602 0
v -1.9856 3.2002 0
v -2.0499 3.2002 0.24
v -2.2256 3.2002 0.4157
v -2.4656 3.2002 0.48
v -2.7056 3.2002 0.4157
v -2.8813 3.2002 0.24
v -2.9456 3.2002 0
v -2.8813 3.2002 -0.24
v -2.7056 3.2002 -0.4157
v -2.4656 3.2002 -0.48
v -2.2256 3.2002 -0.4157
v -2.0499 3.2002 -0.24
v -1.9856 3.3602 0
v -2.0499 3.3602 0.24
v -2.2256 3.3602 0.4157
v -2.4656 3.3602 0.48
v -2.7056 3.3602 0.4157
v -2.8813 3.3602 0.24
v -2.9456 3.3602 0
v -2.8813 3.3602 -0.24
v -2.7056 3.3602 -0.4157
v -2.4656 3.3602 -0.48
v -2.2256 3.3602 -0.4157
v -2.0499 3.3602 -0.24
v -2.4656 3.2002 0
v -2.4656 3.3602 0
v -1.0256 3.1952 0
v -1.0959 3.1952 0.1697
v -1.2656 3.1952 0.24
v -1.4353 3.1952 0.1697
v -1.5056 3.1952 0
v -1.4353 3.1952 -0.1697
v -1.2656 3.1952 -0.24
v -1.0959 3.1952 -0.1697
v -1.0256 3.6452 0
v -1.0959 3.6452 0.1697
v -1.2656 3.6452 0.24
v -1.4353 3.6452 0.1697
v -1.5056 3.6452 0
v -1.4353 3.6452 -0.1697
v -1.2656 3.6452 -0.24
v -1.0959 3.6452 -0.1697
v -1.2656 3.1952 0
v -1.2656 3.6452 0
v -10.9744 1 1.092
v 4.0432 1 1.092
v 4.0432 1.06 1.092
v -10.9744 1.06 1.092
v -10.9744 1 1.512
v 4.0432 1 1.512
v 4.0432 1.06 1.512
v -10.9744 1.06 1.512
v -10.9744 1 -1.512
v 4.0432 1 -1.512
v 4.0432 1.06 -1.512
v -10.9744 1.06 -1.512
v -10.9744 1 -1.092
v 4.0432 1 -1.092
v 4.0432 1.06 -1.092
v -10.9744 1.06 -1.092
v 3.376 0.345 -1.271
v 8.176 0.345 -1.271
v 8.176 0.695 -1.271
v 3.376 0.695 -1.271
v 3.376 0.345 1.271
v 8.176 0.345 1.271
v 8.176 0.695 1.271
v 3.376 0.695 1.271
v 4.636 0.46 0.96
v 4.5744 0.23 0.96
v 4.406 0.0616 0.96
v 4.176 0 0.96
v 3.946 0.0616 0.96
v 3.7777 0.23 0.96
v 3.716 0.46 0.96
v 3.7777 0.69 0.96
v 3.946 0.8584 0.96
v 4.176 0.92 0.96
v 4.406 0.8584 0.96
v 4.5744 0.69 0.96
v 4.636 0.46 1.14
v 4.5744 0.23 1.14
v 4.406 0.0616 1.14
v 4.176 0 1.14
v 3.946 0.0616 1.14
v 3.7777 0.23 1.14
v 3.716 0.46 1.14
v 3.7777 0.69 1.14
v 3.946 0.8584 1.14
v 4.176 0.92 1.14
v 4.406 0.8584 1.14
v 4.5744 0.69 1.14
v 4.176 0.46 0.96
v 4.176 0.46 1.14
v 6.236 0.46 0.96
v 6.1744 0.23 0.96
v 6.006 0.0616 0.96
v 5.776 0 0.96
v 5.546 0.0616 0.96
v 5.3777 0.23 0.96
v 5.316 0.46 0.96
v 5.3777 0.69 0.96
v 5.546 0.8584 0.96
v 5.776 0.92 0.96
v 6.006 0.8584 0.96
v 6.1744 0.69 0.96
v 6.236 0.46 1.14
v 6.1744 0.23 1.14
v 6.006 0.0616 1.14
v 5.776 0 1.14
v 5.546 0.0616 1.14
v 5.3777 0.23 1.14
v 5.316 0.46 1.14
v 5.3777 0.69 1.14
v 5.546 0.8584 1.14
v 5.776 0.92 1.14
v 6.006 0.8584 1.14
v 6.1744 0.69 1.14
v 5.776 0.46 0.96
v 5.776 0.46 1.14
v 7.836 0.46 0.96
v 7.7744 0.23 0.96
v 7.606 0.0616 0.96
v 7.376 0 0.96
v 7.146 0.0616 0.96
v 6.9777 0.23 0.96
v 6.916 0.46 0.96
v 6.9777 0.69 0.96
v 7.146 0.8584 0.96
v 7.376 0.92 0.96
v 7.606 0.8584 0.96
v 7.7744 0.69 0.96
v 7.836 0.46 1.14
v 7.7744 0.23 1.14
v 7.606 0.0616 1.14
v 7.376 0 1.14
v 7.146 0.0616 1.14
v 6.9777 0.23 1.14
v 6.916 0.46 1.14
v 6.9777 0.69 1.14
v 7.146 0.8584 1.14
v 7.376 0.92 1.14
v 7.606 0.8584 1.14
v 7.7744 0.69 1.14
v 7.376 0.46 0.96
v 7.376 0.46 1.14
v 4.636 0.46 -1.14
v 4.5744 0.23 -1.14
v 4.406 0.0616 -1.14
v 4.176 0 -1.14
v 3.946 0.0616 -1.14
v 3.7777 0.23 -1.14
v 3.716 0.46 -1.14
v 3.7777 0.69 -1.14
v 3.946 0.8584 -1.14
v 4.176 0.92 -1.14
v 4.406 0.8584 -1.14
v 4.5744 0.69 -1.14
v 4.636 0.46 -0.96
v 4.5744 0.23 -0.96
v 4.406 0.0616 -0.96
v 4.176 0 -0.96
v 3.946 0.0616 -0.96
v 3.7777 0.23 -0.96
v 3.716 0.46 -0.96
v 3.7777 0.69 -0.96
v 3.946 0.8584 -0.96
v 4.176 0.92 -0.96
v 4.406 0.8584 -0.96
v 4.5744 0.69 -0.96
v 4.176 0.46 -1.14
v 4.176 0.46 -0.96
v 6.236 0.46 -1.14
v 6.1744 0.23 -1.14
v 6.006 0.0616 -1.14
v 5.776 0 -1.14
v 5.546 0.0616 -1.14
v 5.3777 0.23 -1.14
v 5.316 0.46 -1.14
v 5.3777 0.69 -1.14
v 5.546 0.8584 -1.14
v 5.776 0.92 -1.14
v 6.006 0.8584 -1.14
v 6.1744 0.69 -1.14
v 6.236 0.46 -0.96
v 6.1744 0.23 -0.96
v 6.006 0.0616 -0.96
v 5.776 0 -0.96
v 5.546 0.0616 -0.96
v 5.3777 0.23 -0.96
v 5.316 0.46 -0.96
v 5.3777 0.69 -0.96
v 5.546 0.8584 -0.96
v 5.776 0.92 -0.96
v 6.006 0.8584 -0.96
v 6.1744 0.69 -0.96
v 5.776 0.46 -1.14
v 5.776 0.46 -0.96
v 7.836 0.46 -1.14
v 7.7744 0.23 -1.14
v 7.606 0.0616 -1.14
v 7.376 0 -1.14
v 7.146 0.0616 -1.14
v 6.9777 0.23 -1.14
v 6.916 0.46 -1.14
v 6.9777 0.69 -1.14
v 7.146 0.8584 -1.14
v 7.376 0.92 -1.14
v 7.606 0.8584 -1.14
v 7.7744 0.69 -1.14
v 7.836 0.46 -0.96
v 7.7744 0.23 -0.96
v 7.606 0.0616 -0.96
v 7.376 0 -0.96
v 7.146 0.0616 -0.96
v 6.9777 0.23 -0.96
v 6.916 0.46 -0.96
v 6.9777 0.69 -0.96
v 7.146 0.8584 -0.96
v 7.376 0.92 -0.96
v 7.606 0.8584 -0.96
v 7.7744 0.69 -0.96
v 7.376 0.46 -1.14
v 7.376 0.46 -0.96
v -8.176 0.345 -1.271
v -3.376 0.345 -1.271
v -3.376 0.695 -1.271
v -8.176 0.695 -1.271
v -8.176 0.345 1.271
v -3.376 0.345 1.271
v -3.376 0.695 1.271
v -8.176 0.695 1.271
v -6.916 0.46 0.96
v -6.9777 0.23 0.96
v -7.146 0.0616 0.96
v -7.376 0 0.96
v -7.606 0.0616 0.96
v -7.7744 0.23 0.96
v -7.836 0.46 0.96
v -7.7744 0.69 0.96
v -7.606 0.8584 0.96
v -7.376 0.92 0.96
v -7.146 0.8584 0.96
v -6.9777 0.69 0.96
v -6.916 0.46 1.14
v -6.9777 0.23 1.14
v -7.146 0.0616 1.14
v -7.376 0 1.14
v -7.606 0.0616 1.14
v -7.7744 0.23 1.14
v -7.836 0.46 1.14
v -7.7744 0.69 1.14
v -7.606 0.8584 1.14
v -7.376 0.92 1.14
v -7.146 0.8584 1.14
v -6.9777 0.69 1.14
v -7.376 0.46 0.96
v -7.376 0.46 1.14
v -5.316 0.46 0.96
v -5.3777 0.23 0.96
v -5.546 0.0616 0.96
v -5.776 0 0.96
v -6.006 0.0616 0.96
v -6.1744 0.23 0.96
v -6.236 0.46 0.96
v -6.1744 0.69 0.96
v -6.006 0.8584 0.96
v -5.776 0.92 0.96
v -5.546 0.8584 0.96
v -5.3777 0.69 0.96
v -5.316 0.46 1.14
v -5.3777 0.23 1.14
v -5.546 0.0616 1.14
v -5.776 0 1.14
v -6.006 0.0616 1.14
v -6.1744 0.23 1.14
v -6.236 0.46 1.14
v -6.1744 0.69 1.14
v -6.006 0.8584 1.14
v -5.776 0.92 1.14
v -5.546 0.8584 1.14
v -5.3777 0.69 1.14
v -5.776 0.46 0.96
v -5.776 0.46 1.14
v -3.716 0.46 0.96
v -3.7777 0.23 0.96
v -3.946 0.0616 0.96
v -4.176 0 0.96
v -4.406 0.0616 0.96
v -4.5744 0.23 0.96
v -4.636 0.46 0.96
v -4.5744 0.69 0.96
v -4.406 0.8584 0.96
v -4.176 0.92 0.96
v -3.946 0.8584 0.96
v -3.7777 0.69 0.96
v -3.716 0.46 1.14
v -3.7777 0.23 1.14
v -3.946 0.0616 1.14
v -4.176 0 1.14
v -4.406 0.0616 1.14
v -4.5744 0.23 1.14
v -4.636 0.46 1.14
v -4.5744 0.69 1.14
v -4.406 0.8584 1.14
v -4.176 0.92 1.14
v -3.946 0.8584 1.14
v -3.7777 0.69 1.14
v -4.176 0.46 0.96
v -4.176 0.46 1.14
v -6.916 0.46 -1.14
v -6.9777 0.23 -1.14
v -7.146 0.0616 -1.14
v -7.376 0 -1.14
v -7.606 0.0616 -1.14
v -7.7744 0.23 -1.14
v -7.836 0.46 -1.14
v -7.7744 0.69 -1.14
v -7.606 0.8584 -1.14
v -7.376 0.92 -1.14
v -7.146 0.8584 -1.14
v -6.9777 0.69 -1.14
v -6.916 0.46 -0.96
v -6.9777 0.23 -0.96
v -7.146 0.0616 -0.96
v -7.376 0 -0.96
v -7.606 0.0616 -0.96
v -7.7744 0.23 -0.96
v -7.836 0.46 -0.96
v -7.7744 0.69 -0.96
v -7.606 0.8584 -0.96
v -7.376 0.92 -0.96
v -7.146 0.8584 -0.96
v -6.9777 0.69 -0.96
v -7.376 0.46 -1.14
v -7.376 0.46 -0.96
v -5.316 0.46 -1.14
v -5.3777 0.23 -1.14
v -5.546 0.0616 -1.14
v -5.776 0 -1.14
v -6.006 0.0616 -1.14
v -6.1744 0.23 -1.14
v -6.236 0.46 -1.14
v -6.1744 0.69 -1.14
v -6.006 0.8584 -1.14
v -5.776 0.92 -1.14
v -5.546 0.8584 -1.14
v -5.3777 0.69 -1.14
v -5.316 0.46 -0.96
v -5.3777 0.23 -0.96
v -5.546 0.0616 -0.96
v -5.776 0 -0.96
v -6.006 0.0616 -0.96
v -6.1744 0.23 -0.96
v -6.236 0.46 -0.96
v -6.1744 0.69 -0.96
v -6.006 0.8584 -0.96
v -5.776 0.92 -0.96
v -5.546 0.8584 -0.96
v -5.3777 0.69 -0.96
v -5.776 0.46 -1.14
v -5.776 0.46 -0.96
v -3.716 0.46 -1.14
v -3.7777 0.23 -1.14
v -3.946 0.0616 -1.14
v -4.176 0 -1.14
v -4.406 0.0616 -1.14
v -4.5744 0.23 -1.14
v -4.636 0.46 -1.14
v -4.5744 0.69 -1.14
v -4.406 0.8584 -1.14
v -4.176 0.92 -1.14
v -3.946 0.8584 -1.14
v -3.7777 0.69 -1.14
v -3.716 0.46 -0.96
v -3.7777 0.23 -0.96
v -3.946 0.0616 -0.96
v -4.176 0 -0.96
v -4.406 0.0616 -0.96
v -4.5744 0.23 -0.96
v -4.636 0.46 -0.96
v -4.5744 0.69 -0.96
v -4.406 0.8584 -0.96
v -4.176 0.92 -0.96
v -3.946 0.8584 -0.96
v -3.7777 0.69 -0.96
v -4.176 0.46 -1.14
v -4.176 0.46 -0.96
vt 0.5 0.5
vt 0.5 0.5
vt 0.5 0.5
vt 0.5 0.5
vt 0.5 0.5
vt 0.5 0.5
vt 0.5 0.5
vt 0.5 0.5
vt 0.5 0.5
vt 0.5 0.5
vt 0.5 0.5
vt 0.5 0.5
vt 0.5 0.5
vt 0.5 0.5
vt 0.5 0.5
vt 0.5 0.5
vt 0.5 0.5
vt 0.5 0.5
vt 0.5 0.5
vt 0.5 0.5
vt 0.5 0.5
vt 0.5 0.5
vt 0.5 0.5
vt 0.5 0.5
vt 0.5 0.5
vt 0.5 0.5
vt 0.5 0.5
vt 0.5 0.5
vt 0.5 0.5
vt 0.5 0.5
vt 0.5 0.5
vt 0.5 0.5
vt 0.5 0.5
vt 0.5 0.5
vt 0.5 0.5
vt 0.5 0.5
vt 0.5 0.5
vt 0.5 0.5
vt 0.5 0.5
vt 0.5 0.5
vt 0.5 0.5
vt 0.5 0.5
vt 0.5 0.5
vt 0.5 0.5
vt 0.5 0.5
vt 0.5 0.5
vt 0.5 0.5
vt 0.5 0.5
vt 0.5 0.5
vt 0.5 0.5
vt 0.5 0.5
vt 0.5 0.5
vt 0.5 0.5
vt 0.5 0.5
vt 0.5 0.5
vt 0.5 0.5
vt 0.5 0.5
vt 0.5 0.5
vt 0.5 0.5
vt 0.5 0.5
vt 0.5 0.5
vt 0.5 0.5
vt 0 0
vt 0.08333333333333333 0
vt 0.16666666666666666 0
vt 0.25 0
vt 0.3333333333333333 0
vt 0.4166666666666667 0
vt 0.5 0
vt 0.5833333333333334 0
vt 0.6666666666666666 0
vt 0.75 0
vt 0.8333333333333334 0
vt 0.9166666666666666 0
vt 0 1
vt 0.08333333333333333 1
vt 0.16666666666666666 1
vt 0.25 1
vt 0.3333333333333333 1
vt 0.4166666666666667 1
vt 0.5 1
vt 0.5833333333333334 1
vt 0.6666666666666666 1
vt 0.75 1
vt 0.8333333333333334 1
vt 0.9166666666666666 1
vt 0.5 0.5
vt 0.5 0.5
vt 0 0
vt 0.08333333333333333 0
vt 0.16666666666666666 0
vt 0.25 0
vt 0.3333333333333333 0
vt 0.4166666666666667 0
vt 0.5 0
vt 0.5833333333333334 0
vt 0.6666666666666666 0
vt 0.75 0
vt 0.8333333333333334 0
vt 0.9166666666666666 0
vt 0 1
vt 0.08333333333333333 1
vt 0.16666666666666666 1
vt 0.25 1
vt 0.3333333333333333 1
vt 0.4166666666666667 1
vt 0.5 1
vt 0.5833333333333334 1
vt 0.6666666666666666 1
vt 0.75 1
vt 0.8333333333333334 1
vt 0.9166666666666666 1
vt 0.5 0.5
vt 0.5 0.5
vt 0 0
vt 0.08333333333333333 0
vt 0.16666666666666666 0
vt 0.25 0
vt 0.3333333333333333 0
vt 0.4166666666666667 0
vt 0.5 0
vt 0.5833333333333334 0
vt 0.6666666666666666 0
vt 0.75 0
vt 0.8333333333333334 0
vt 0.9166666666666666 0
vt 0 1
vt 0.08333333333333333 1
vt 0.16666666666666666 1
vt 0.25 1
vt 0.3333333333333333 1
vt 0.4166666666666667 1
vt 0.5 1
vt 0.5833333333333334 1
vt 0.6666666666666666 1
vt 0.75 1
vt 0.8333333333333334 1
vt 0.9166666666666666 1
vt 0.5 0.5
vt 0.5 0.5
vt 0 0
vt 0.125 0
vt 0.25 0
vt 0.375 0
vt 0.5 0
vt 0.625 0
vt 0.75 0
vt 0.875 0
vt 0 1
vt 0.125 1
vt 0.25 1
vt 0.375 1
vt 0.5 1
vt 0.625 1
vt 0.75 1
vt 0.875 1
vt 0.5 0.5
vt 0.5 0.5
vt 0.5 0.5
vt 0.5 0.5
vt 0.5 0.5
vt 0.5 0.5
vt 0.5 0.5
vt 0.5 0.5
vt 0.5 0.5
vt 0.5 0.5
vt 0.5 0.5
vt 0.5 0.5
vt 0.5 0.5
vt 0.5 0.5
vt 0.5 0.5
vt 0.5 0.5
vt 0.5 0.5
vt 0.5 0.5
vt 0.5 0.5
vt 0.5 0.5
vt 0.5 0.5
vt 0.5 0.5
vt 0.5 0.5
vt 0.5 0.5
vt 0.5 0.5
vt 0.5 0.5
vt 0 0
vt 0.08333333333333333 0
vt 0.16666666666666666 0
vt 0.25 0
vt 0.3333333333333333 0
vt 0.4166666666666667 0
vt 0.5 0
vt 0.5833333333333334 0
vt 0.6666666666666666 0
vt 0.75 0
vt 0.8333333333333334 0
vt 0.9166666666666666 0
vt 0 1
vt 0.08333333333333333 1
vt 0.16666666666666666 1
vt 0.25 1
vt 0.3333333333333333 1
vt 0.4166666666666667 1
vt 0.5 1
vt 0.5833333333333334 1
vt 0.6666666666666666 1
vt 0.75 1
vt 0.8333333333333334 1
vt 0.9166666666666666 1
vt 0.5 0.5
vt 0.5 0.5
vt 0 0
vt 0.08333333333333333 0
vt 0.16666666666666666 0
vt 0.25 0
vt 0.3333333333333333 0
vt 0.4166666666666667 0
vt 0.5 0
vt 0.5833333333333334 0
vt 0.6666666666666666 0
vt 0.75 0
vt 0.8333333333333334 0
vt 0.9166666666666666 0
vt 0 1
vt 0.08333333333333333 1
vt 0.16666666666666666 1
vt 0.25 1
vt 0.3333333333333333 1
vt 0.4166666666666667 1
vt 0.5 1
vt 0.5833333333333334 1
vt 0.6666666666666666 1
vt 0.75 1
vt 0.8333333333333334 1
vt 0.9166666666666666 1
vt 0.5 0.5
vt 0.5 0.5
vt 0 0
vt 0.08333333333333333 0
vt 0.16666666666666666 0
vt 0.25 0
vt 0.3333333333333333 0
vt 0.4166666666666667 0
vt 0.5 0
vt 0.5833333333333334 0
vt 0.6666666666666666 0
vt 0.75 0
vt 0.8333333333333334 0
vt 0.9166666666666666 0
vt 0 1
vt 0.08333333333333333 1
vt 0.16666666666666666 1
vt 0.25 1
vt 0.3333333333333333 1
vt 0.4166666666666667 1
vt 0.5 1
vt 0.5833333333333334 1
vt 0.6666666666666666 1
vt 0.75 1
vt 0.8333333333333334 1
vt 0.9166666666666666 1
vt 0.5 0.5
vt 0.5 0.5
vt 0 0
vt 0.08333333333333333 0
vt 0.16666666666666666 0
vt 0.25 0
vt 0.3333333333333333 0
vt 0.4166666666666667 0
vt 0.5 0
vt 0.5833333333333334 0
vt 0.6666666666666666 0
vt 0.75 0
vt 0.8333333333333334 0
vt 0.9166666666666666 0
vt 0 1
vt 0.08333333333333333 1
vt 0.16666666666666666 1
vt 0.25 1
vt 0.3333333333333333 1
vt 0.4166666666666667 1
vt 0.5 1
vt 0.5833333333333334 1
vt 0.6666666666666666 1
vt 0.75 1
vt 0.8333333333333334 1
vt 0.9166666666666666 1
vt 0.5 0.5
vt 0.5 0.5
vt 0 0
vt 0.08333333333333333 0
vt 0.16666666666666666 0
vt 0.25 0
vt 0.3333333333333333 0
vt 0.4166666666666667 0
vt 0.5 0
vt 0.5833333333333334 0
vt 0.6666666666666666 0
vt 0.75 0
vt 0.8333333333333334 0
vt 0.9166666666666666 0
vt 0 1
vt 0.08333333333333333 1
vt 0.16666666666666666 1
vt 0.25 1
vt 0.3333333333333333 1
vt 0.4166666666666667 1
vt 0.5 1
vt 0.5833333333333334 1
vt 0.6666666666666666 1
vt 0.75 1
vt 0.8333333333333334 1
vt 0.9166666666666666 1
vt 0.5 0.5
vt 0.5 0.5
vt 0 0
vt 0.08333333333333333 0
vt 0.16666666666666666 0
vt 0.25 0
vt 0.3333333333333333 0
vt 0.4166666666666667 0
vt 0.5 0
vt 0.5833333333333334 0
vt 0.6666666666666666 0
vt 0.75 0
vt 0.8333333333333334 0
vt 0.9166666666666666 0
vt 0 1
vt 0.08333333333333333 1
vt 0.16666666666666666 1
vt 0.25 1
vt 0.3333333333333333 1
vt 0.4166666666666667 1
vt 0.5 1
vt 0.5833333333333334 1
vt 0.6666666666666666 1
vt 0.75 1
vt 0.8333333333333334 1
vt 0.9166666666666666 1
vt 0.5 0.5
vt 0.5 0.5
vt 0.5 0.5
vt 0.5 0.5
vt 0.5 0.5
vt 0.5 0.5
vt 0.5 0.5
vt 0.5 0.5
vt 0.5 0.5
vt 0.5 0.5
vt 0 0
vt 0.08333333333333333 0
vt 0.16666666666666666 0
vt 0.25 0
vt 0.3333333333333333 0
vt 0.4166666666666667 0
vt 0.5 0
vt 0.5833333333333334 0
vt 0.6666666666666666 0
vt 0.75 0
vt 0.8333333333333334 0
vt 0.9166666666666666 0
vt 0 1
vt 0.08333333333333333 1
vt 0.16666666666666666 1
vt 0.25 1
vt 0.3333333333333333 1
vt 0.4166666666666667 1
vt 0.5 1
vt 0.5833333333333334 1
vt 0.6666666666666666 1
vt 0.75 1
vt 0.8333333333333334 1
vt 0.9166666666666666 1
vt 0.5 0.5
vt 0.5 0.5
vt 0 0
vt 0.08333333333333333 0
vt 0.16666666666666666 0
vt 0.25 0
vt 0.3333333333333333 0
vt 0.4166666666666667 0
vt 0.5 0
vt 0.5833333333333334 0
vt 0.6666666666666666 0
vt 0.75 0
vt 0.8333333333333334 0
vt 0.9166666666666666 0
vt 0 1
vt 0.08333333333333333 1
vt 0.16666666666666666 1
vt 0.25 1
vt 0.3333333333333333 1
vt 0.4166666666666667 1
vt 0.5 1
vt 0.5833333333333334 1
vt 0.6666666666666666 1
vt 0.75 1
vt 0.8333333333333334 1
vt 0.9166666666666666 1
vt 0.5 0.5
vt 0.5 0.5
vt 0 0
vt 0.08333333333333333 0
vt 0.16666666666666666 0
vt 0.25 0
vt 0.3333333333333333 0
vt 0.4166666666666667 0
vt 0.5 0
vt 0.5833333333333334 0
vt 0.6666666666666666 0
vt 0.75 0
vt 0.8333333333333334 0
vt 0.9166666666666666 0
vt 0 1
vt 0.08333333333333333 1
vt 0.16666666666666666 1
vt 0.25 1
vt 0.3333333333333333 1
vt 0.4166666666666667 1
vt 0.5 1
vt 0.5833333333333334 1
vt 0.6666666666666666 1
vt 0.75 1
vt 0.8333333333333334 1
vt 0.9166666666666666 1
vt 0.5 0.5
vt 0.5 0.5
vt 0 0
vt 0.08333333333333333 0
vt 0.16666666666666666 0
vt 0.25 0
vt 0.3333333333333333 0
vt 0.4166666666666667 0
vt 0.5 0
vt 0.5833333333333334 0
vt 0.6666666666666666 0
vt 0.75 0
vt 0.8333333333333334 0
vt 0.9166666666666666 0
vt 0 1
vt 0.08333333333333333 1
vt 0.16666666666666666 1
vt 0.25 1
vt 0.3333333333333333 1
vt 0.4166666666666667 1
vt 0.5 1
vt 0.5833333333333334 1
vt 0.6666666666666666 1
vt 0.75 1
vt 0.8333333333333334 1
vt 0.9166666666666666 1
vt 0.5 0.5
vt 0.5 0.5
vt 0 0
vt 0.08333333333333333 0
vt 0.16666666666666666 0
vt 0.25 0
vt 0.3333333333333333 0
vt 0.4166666666666667 0
vt 0.5 0
vt 0.5833333333333334 0
vt 0.6666666666666666 0
vt 0.75 0
vt 0.8333333333333334 0
vt 0.9166666666666666 0
vt 0 1
vt 0.08333333333333333 1
vt 0.16666666666666666 1
vt 0.25 1
vt 0.3333333333333333 1
vt 0.4166666666666667 1
vt 0.5 1
vt 0.5833333333333334 1
vt 0.6666666666666666 1
vt 0.75 1
vt 0.8333333333333334 1
vt 0.9166666666666666 1
vt 0.5 0.5
vt 0.5 0.5
vt 0 0
vt 0.08333333333333333 0
vt 0.16666666666666666 0
vt 0.25 0
vt 0.3333333333333333 0
vt 0.4166666666666667 0
vt 0.5 0
vt 0.5833333333333334 0
vt 0.6666666666666666 0
vt 0.75 0
vt 0.8333333333333334 0
vt 0.9166666666666666 0
vt 0 1
vt 0.08333333333333333 1
vt 0.16666666666666666 1
vt 0.25 1
vt 0.3333333333333333 1
vt 0.4166666666666667 1
vt 0.5 1
vt 0.5833333333333334 1
vt 0.6666666666666666 1
vt 0.75 1
vt 0.8333333333333334 1
vt 0.9166666666666666 1
vt 0.5 0.5
vt 0.5 0.5
vn 0 1 0
vn 0 1 0
vn 0 1 0
vn 0 1 0
vn 0 1 0
vn 0 1 0
vn 0 1 0
vn 0 1 0
vn 0 1 0
vn 0 1 0
vn 0 1 0
vn 0 1 0
vn 0 1 0
vn 0 1 0
vn 0 1 0
vn 0 1 0
vn 0 1 0
vn 0 1 0
vn 0 1 0
vn 0 1 0
vn 0 1 0
vn 0 1 0
vn 0 1 0
vn 0 1 0
vn 0 1 0
vn 0 1 0
vn 0 1 0
vn 0 1 0
vn 0 1 0
vn 0 1 0
vn 0 1 0
vn 0 1 0
vn 0 1 0
vn 0 1 0
vn 0 1 0
vn 0 1 0
vn 0 1 0
vn 0 1 0
vn 0 1 0
vn 0 1 0
vn 0 1 0
vn 0 1 0
vn 0 1 0
vn 0 1 0
vn 0 1 0
vn 0 1 0
vn 0 1 0
vn 0 1 0
vn 0 1 0
vn 0 1 0
vn 0 1 0
vn 0 1 0
vn 0 1 0
vn 0 1 0
vn 0 1 0
vn 0 1 0
vn 0 1 0
vn 0 1 0
vn 0 1 0
vn 0 1 0
vn 0 1 0
vn 0 1 0
vn 0 -1 0
vn 0 -1 0
vn 0 -1 0
vn 0 -1 0
vn 0 -1 0
vn 0 -1 0
vn 0 -1 0
vn 0 -1 0
vn 0 -1 0
vn 0 -1 0
vn 0 -1 0
vn 0 -1 0
vn 0 1 0
vn 0 1 0
vn 0 1 0
vn 0 1 0
vn 0 1 0
vn 0 1 0
vn 0 1 0
vn 0 1 0
vn 0 1 0
vn 0 1 0
vn 0 1 0
vn 0 1 0
vn 0 -1 0
vn 0 1 0
vn 0 -1 0
vn 0 -1 0
vn 0 -1 0
vn 0 -1 0
vn 0 -1 0
vn 0 -1 0
vn 0 -1 0
vn 0 -1 0
vn 0 -1 0
vn 0 -1 0
vn 0 -1 0
vn 0 -1 0
vn 0 1 0
vn 0 1 0
vn 0 1 0
vn 0 1 0
vn 0 1 0
vn 0 1 0
vn 0 1 0
vn 0 1 0
vn 0 1 0
vn 0 1 0
vn 0 1 0
vn 0 1 0
vn 0 -1 0
vn 0 1 0
vn 0 -1 0
vn 0 -1 0
vn 0 -1 0
vn 0 -1 0
vn 0 -1 0
vn 0 -1 0
vn 0 -1 0
vn 0 -1 0
vn 0 -1 0
vn 0 -1 0
vn 0 -1 0
vn 0 -1 0
vn 0 1 0
vn 0 1 0
vn 0 1 0
vn 0 1 0
vn 0 1 0
vn 0 1 0
vn 0 1 0
vn 0 1 0
vn 0 1 0
vn 0 1 0
vn 0 1 0
vn 0 1 0
vn 0 -1 0
vn 0 1 0
vn 0 -1 0
vn 0 -1 0
vn 0 -1 0
vn 0 -1 0
vn 0 -1 0
vn 0 -1 0
vn 0 -1 0
vn 0 -1 0
vn 0 1 0
vn 0 1 0
vn 0 1 0
vn 0 1 0
vn 0 1 0
vn 0 1 0
vn 0 1 0
vn 0 1 0
vn 0 -1 0
vn 0 1 0
vn 0 1 0
vn 0 1 0
vn 0 1 0
vn 0 1 0
vn 0 1 0
vn 0 1 0
vn 0 1 0
vn 0 1 0
vn 0 1 0
vn 0 1 0
vn 0 1 0
vn 0 1 0
vn 0 1 0
vn 0 1 0
vn 0 1 0
vn 0 1 0
vn 0 1 0
vn 0 1 0
vn 0 1 0
vn 0 1 0
vn 0 1 0
vn 0 1 0
vn 0 1 0
vn 0 1 0
vn 0 -1 0
vn 0 -1 0
vn 0 -1 0
vn 0 -1 0
vn 0 -1 0
vn 0 -1 0
vn 0 -1 0
vn 0 -1 0
vn 0 -1 0
vn 0 -1 0
vn 0 -1 0
vn 0 -1 0
vn 0 1 0
vn 0 1 0
vn 0 1 0
vn 0 1 0
vn 0 1 0
vn 0 1 0
vn 0 1 0
vn 0 1 0
vn 0 1 0
vn 0 1 0
vn 0 1 0
vn 0 1 0
vn 0 -1 0
vn 0 1 0
vn 0 -1 0
vn 0 -1 0
vn 0 -1 0
vn 0 -1 0
vn 0 -1 0
vn 0 -1 0
vn 0 -1 0
vn 0 -1 0
vn 0 -1 0
vn 0 -1 0
vn 0 -1 0
vn 0 -1 0
vn 0 1 0
vn 0 1 0
vn 0 1 0
vn 0 1 0
vn 0 1 0
vn 0 1 0
vn 0 1 0
vn 0 1 0
vn 0 1 0
vn 0 1 0
vn 0 1 0
vn 0 1 0
vn 0 -1 0
vn 0 1 0
vn 0 -1 0
vn 0 -1 0
vn 0 -1 0
vn 0 -1 0
vn 0 -1 0
vn 0 -1 0
vn 0 -1 0
vn 0 -1 0
vn 0 -1 0
vn 0 -1 0
vn 0 -1 0
vn 0 -1 0
vn 0 1 0
vn 0 1 0
vn 0 1 0
vn 0 1 0
vn 0 1 0
vn 0 1 0
vn 0 1 0
vn 0 1 0
vn 0 1 0
vn 0 1 0
vn 0 1 0
vn 0 1 0
vn 0 -1 0
vn 0 1 0
vn 0 -1 0
vn 0 -1 0
vn 0 -1 0
vn 0 -1 0
vn 0 -1 0
vn 0 -1 0
vn 0 -1 0
vn 0 -1 0
vn 0 -1 0
vn 0 -1 0
vn 0 -1 0
vn 0 -1 0
vn 0 1 0
vn 0 1 0
vn 0 1 0
vn 0 1 0
vn 0 1 0
vn 0 1 0
vn 0 1 0
vn 0 1 0
vn 0 1 0
vn 0 1 0
vn 0 1 0
vn 0 1 0
vn 0 -1 0
vn 0 1 0
vn 0 -1 0
vn 0 -1 0
vn 0 -1 0
vn 0 -1 0
vn 0 -1 0
vn 0 -1 0
vn 0 -1 0
vn 0 -1 0
vn 0 -1 0
vn 0 -1 0
vn 0 -1 0
vn 0 -1 0
vn 0 1 0
vn 0 1 0
vn 0 1 0
vn 0 1 0
vn 0 1 0
vn 0 1 0
vn 0 1 0
vn 0 1 0
vn 0 1 0
vn 0 1 0
vn 0 1 0
vn 0 1 0
vn 0 -1 0
vn 0 1 0
vn 0 -1 0
vn 0 -1 0
vn 0 -1 0
vn 0 -1 0
vn 0 -1 0
vn 0 -1 0
vn 0 -1 0
vn 0 -1 0
vn 0 -1 0
vn 0 -1 0
vn 0 -1 0
vn 0 -1 0
vn 0 1 0
vn 0 1 0
vn 0 1 0
vn 0 1 0
vn 0 1 0
vn 0 1 0
vn 0 1 0
vn 0 1 0
vn 0 1 0
vn 0 1 0
vn 0 1 0
vn 0 1 0
vn 0 -1 0
vn 0 1 0
vn 0 1 0
vn 0 1 0
vn 0 1 0
vn 0 1 0
vn 0 1 0
vn 0 1 0
vn 0 1 0
vn 0 1 0
vn 0 -1 0
vn 0 -1 0
vn 0 -1 0
vn 0 -1 0
vn 0 -1 0
vn 0 -1 0
vn 0 -1 0
vn 0 -1 0
vn 0 -1 0
vn 0 -1 0
vn 0 -1 0
vn 0 -1 0
vn 0 1 0
vn 0 1 0
vn 0 1 0
vn 0 1 0
vn 0 1 0
vn 0 1 0
vn 0 1 0
vn 0 1 0
vn 0 1 0
vn 0 1 0
vn 0 1 0
vn 0 1 0
vn 0 -1 0
vn 0 1 0
vn 0 -1 0
vn 0 -1 0
vn 0 -1 0
vn 0 -1 0
vn 0 -1 0
vn 0 -1 0
vn 0 -1 0
vn 0 -1 0
vn 0 -1 0
vn 0 -1 0
vn 0 -1 0
vn 0 -1 0
vn 0 1 0
vn 0 1 0
vn 0 1 0
vn 0 1 0
vn 0 1 0
vn 0 1 0
vn 0 1 0
vn 0 1 0
vn 0 1 0
vn 0 1 0
vn 0 1 0
vn 0 1 0
vn 0 -1 0
vn 0 1 0
vn 0 -1 0
vn 0 -1 0
vn 0 -1 0
vn 0 -1 0
vn 0 -1 0
vn 0 -1 0
vn 0 -1 0
vn 0 -1 0
vn 0 -1 0
vn 0 -1 0
vn 0 -1 0
vn 0 -1 0
vn 0 1 0
vn 0 1 0
vn 0 1 0
vn 0 1 0
vn 0 1 0
vn 0 1 0
vn 0 1 0
vn 0 1 0
vn 0 1 0
vn 0 1 0
vn 0 1 0
vn 0 1 0
vn 0 -1 0
vn 0 1 0
vn 0 -1 0
vn 0 -1 0
vn 0 -1 0
vn 0 -1 0
vn 0 -1 0
vn 0 -1 0
vn 0 -1 0
vn 0 -1 0
vn 0 -1 0
vn 0 -1 0
vn 0 -1 0
vn 0 -1 0
vn 0 1 0
vn 0 1 0
vn 0 1 0
vn 0 1 0
vn 0 1 0
vn 0 1 0
vn 0 1 0
vn 0 1 0
vn 0 1 0
vn 0 1 0
vn 0 1 0
vn 0 1 0
vn 0 -1 0
vn 0 1 0
vn 0 -1 0
vn 0 -1 0
vn 0 -1 0
vn 0 -1 0
vn 0 -1 0
vn 0 -1 0
vn 0 -1 0
vn 0 -1 0
vn 0 -1 0
vn 0 -1 0
vn 0 -1 0
vn 0 -1 0
vn 0 1 0
vn 0 1 0
vn 0 1 0
vn 0 1 0
vn 0 1 0
vn 0 1 0
vn 0 1 0
vn 0 1 0
vn 0 1 0
vn 0 1 0
vn 0 1 0
vn 0 1 0
vn 0 -1 0
vn 0 1 0
vn 0 -1 0
vn 0 -1 0
vn 0 -1 0
vn 0 -1 0
vn 0 -1 0
vn 0 -1 0
vn 0 -1 0
vn 0 -1 0
vn 0 -1 0
vn 0 -1 0
vn 0 -1 0
vn 0 -1 0
vn 0 1 0
vn 0 1 0
vn 0 1 0
vn 0 1 0
vn 0 1 0
vn 0 1 0
vn 0 1 0
vn 0 1 0
vn 0 1 0
vn 0 1 0
vn 0 1 0
vn 0 1 0
vn 0 -1 0
vn 0 1 0
f 1/1/1 3/3/3 2/2/2
f 1/1/1 4/4/4 3/3/3
f 5/5/5 6/6/6 7/7/7
f 5/5/5 7/7/7 8/8/8
f 1/1/1 2/2/2 6/6/6
f 1/1/1 6/6/6 5/5/5
f 3/3/3 4/4/4 8/8/8
f 3/3/3 8/8/8 7/7/7
f 1/1/1 5/5/5 8/8/8
f 1/1/1 8/8/8 4/4/4
f 2/2/2 3/3/3 7/7/7
f 2/2/2 7/7/7 6/6/6
f 9/9/9 11/11/11 10/10/10
f 9/9/9 12/12/12 11/11/11
f 9/9/9 10/10/10 14/14/14
f 9/9/9 14/14/14 13/13/13
f 11/11/11 12/12/12 13/13/13
f 11/11/11 13/13/13 14/14/14
f 9/9/9 13/13/13 12/12/12
f 10/10/10 11/11/11 14/14/14
f 15/15/15 17/17/17 16/16/16
f 15/15/15 18/18/18 17/17/17
f 19/19/19 20/20/20 21/21/21
f 19/19/19 21/21/21 22/22/22
f 15/15/15 16/16/16 20/20/20
f 15/15/15 20/20/20 19/19/19
f 17/17/17 18/18/18 22/22/22
f 17/17/17 22/22/22 21/21/21
f 15/15/15 19/19/19 22/22/22
f 15/15/15 22/22/22 18/18/18
f 16/16/16 17/17/17 21/21/21
f 16/16/16 21/21/21 20/20/20
f 23/23/23 25/25/25 24/24/24
f 23/23/23 26/26/26 25/25/25
f 27/27/27 28/28/28 29/29/29
f 27/27/27 29/29/29 30/30/30
f 23/23/23 24/24/24 28/28/28
f 23/23/23 28/28/28 27/27/27
f 25/25/25 26/26/26 30/30/30
f 25/25/25 30/30/30 29/29/29
f 23/23/23 27/27/27 30/30/30
f 23/23/23 30/30/30 26/26/26
f 24/24/24 25/25/25 29/29/29
f 24/24/24 29/29/29 28/28/28
f 31/31/31 33/33/33 32/32/32
f 31/31/31 34/34/34 33/33/33
f 35/35/35 36/36/36 37/37/37
f 35/35/35 37/37/37 38/38/38
f 31/31/31 32/32/32 36/36/36
f 31/31/31 36/36/36 35/35/35
f 33/33/33 34/34/34 38/38/38
f 33/33/33 38/38/38 37/37/37
f 31/31/31 35/35/35 38/38/38
f 31/31/31 38/38/38 34/34/34
f 32/32/32 33/33/33 37/37/37
f 32/32/32 37/37/37 36/36/36
f 39/39/39 41/41/41 40/40/40
f 39/39/39 42/42/42 41/41/41
f 43/43/43 44/44/44 45/45/45
f 43/43/43 45/45/45 46/46/46
f 39/39/39 40/40/40 44/44/44
f 39/39/39 44/44/44 43/43/43
f 41/41/41 42/42/42 46/46/46
f 41/41/41 46/46/46 45/45/45
f 39/39/39 43/43/43 46/46/46
f 39/39/39 46/46/46 42/42/42
f 40/40/40 41/41/41 45/45/45
f 40/40/40 45/45/45 44/44/44
f 47/47/47 49/49/49 48/48/48
f 47/47/47 50/50/50 49/49/49
f 51/51/51 52/52/52 53/53/53
f 51/51/51 53/53/53 54/54/54
f 47/47/47 48/48/48 52/52/52
f 47/47/47 52/52/52 51/51/51
f 49/49/49 50/50/50 54/54/54
f 49/49/49 54/54/54 53/53/53
f 47/47/47 51/51/51 54/54/54
f 47/47/47 54/54/54 50/50/50
f 48/48/48 49/49/49 53/53/53
f 48/48/48 53/53/53 52/52/52
f 55/55/55 57/57/57 56/56/56
f 55/55/55 58/58/58 57/57/57
f 59/59/59 60/60/60 61/61/61
f 59/59/59 61/61/61 62/62/62
f 55/55/55 56/56/56 60/60/60
f 55/55/55 60/60/60 59/59/59
f 57/57/57 58/58/58 62/62/62
f 57/57/57 62/62/62 61/61/61
f 55/55/55 59/59/59 62/62/62
f 55/55/55 62/62/62 58/58/58
f 56/56/56 57/57/57 61/61/61
f 56/56/56 61/61/61 60/60/60
f 63/63/63 64/64/64 76/76/76
f 63/63/63 76/76/76 75/75/75
f 87/87/87 64/64/64 63/63/63
f 88/88/88 75/75/75 76/76/76
f 64/64/64 65/65/65 77/77/77
f 64/64/64 77/77/77 76/76/76
f 87/87/87 65/65/65 64/64/64
f 88/88/88 76/76/76 77/77/77
f 65/65/65 66/66/66 78/78/78
f 65/65/65 78/78/78 77/77/77
f 87/87/87 66/66/66 65/65/65
f 88/88/88 77/77/77 78/78/78
f 66/66/66 67/67/67 79/79/79
f 66/66/66 79/79/79 78/78/78
f 87/87/87 67/67/67 66/66/66
f 88/88/88 78/78/78 79/79/79
f 67/67/67 68/68/68 80/80/80
f 67/67/67 80/80/80 79/79/79
f 87/87/87 68/68/68 67/67/67
f 88/88/88 79/79/79 80/80/80
f 68/68/68 69/69/69 81/81/81
f 68/68/68 81/81/81 80/80/80
f 87/87/87 69/69/69 68/68/68
f 88/88/88 80/80/80 81/81/81
f 69/69/69 70/70/70 82/82/82
f 69/69/69 82/82/82 81/81/81
f 87/87/87 70/70/70 69/69/69
f 88/88/88 81/81/81 82/82/82
f 70/70/70 71/71/71 83/83/83
f 70/70/70 83/83/83 82/82/82
f 87/87/87 71/71/71 70/70/70
f 88/88/88 82/82/82 83/83/83
f 71/71/71 72/72/72 84/84/84
f 71/71/71 84/84/84 83/83/83
f 87/87/87 72/72/72 71/71/71
f 88/88/88 83/83/83 84/84/84
f 72/72/72 73/73/73 85/85/85
f 72/72/72 85/85/85 84/84/84
f 87/87/87 73/73/73 72/72/72
f 88/88/88 84/84/84 85/85/85
f 73/73/73 74/74/74 86/86/86
f 73/73/73 86/86/86 85/85/85
f 87/87/87 74/74/74 73/73/73
f 88/88/88 85/85/85 86/86/86
f 74/74/74 63/63/63 75/75/75
f 74/74/74 75/75/75 86/86/86
f 87/87/87 63/63/63 74/74/74
f 88/88/88 86/86/86 75/75/75
f 89/89/89 90/90/90 102/102/102
f 89/89/89 102/102/102 101/101/101
f 113/113/113 90/90/90 89/89/89
f 114/114/114 101/101/101 102/102/102
f 90/90/90 91/91/91 103/103/103
f 90/90/90 103/103/103 102/102/102
f 113/113/113 91/91/91 90/90/90
f 114/114/114 102/102/102 103/103/103
f 91/91/91 92/92/92 104/104/104
f 91/91/91 104/104/104 103/103/103
f 113/113/113 92/92/92 91/91/91
f 114/114/114 103/103/103 104/104/104
f 92/92/92 93/93/93 105/105/105
f 92/92/92 105/105/105 104/104/104
f 113/113/113 93/93/93 92/92/92
f 114/114/114 104/104/104 105/105/105
f 93/93/93 94/94/94 106/106/106
f 93/93/93 106/106/106 105/105/105
f 113/113/113 94/94/94 93/93/93
f 114/114/114 105/105/105 106/106/106
f 94/94/94 95/95/95 107/107/107
f 94/94/94 107/107/107 106/106/106
f 113/113/113 95/95/95 94/94/94
f 114/114/114 106/106/106 107/107/107
f 95/95/95 96/96/96 108/108/108
f 95/95/95 108/108/108 107/107/107
f 113/113/113 96/96/96 95/95/95
f 114/114/114 107/107/107 108/108/108
f 96/96/96 97/97/97 109/109/109
f 96/96/96 109/109/109 108/108/108
f 113/113/113 97/97/97 96/96/96
f 114/114/114 108/108/108 109/109/109
f 97/97/97 98/98/98 110/110/110
f 97/97/97 110/110/110 109/109/109
f 113/113/113 98/98/98 97/97/97
f 114/114/114 109/109/109 110/110/110
f 98/98/98 99/99/99 111/111/111
f 98/98/98 111/111/111 110/110/110
f 113/113/113 99/99/99 98/98/98
f 114/114/114 110/110/110 111/111/111
f 99/99/99 100/100/100 112/112/112
f 99/99/99 112/112/112 111/111/111
f 113/113/113 100/100/100 99/99/99
f 114/114/114 111/111/111 112/112/112
f 100/100/100 89/89/89 101/101/101
f 100/100/100 101/101/101 112/112/112
f 113/113/113 89/89/89 100/100/100
f 114/114/114 112/112/112 101/101/101
f 115/115/115 116/116/116 128/128/128
f 115/115/115 128/128/128 127/127/127
f 139/139/139 116/116/116 115/115/115
f 140/140/140 127/127/127 128/128/128
f 116/116/116 117/117/117 129/129/129
f 116/116/116 129/129/129 128/128/128
f 139/139/139 117/117/117 116/116/116
f 140/140/140 128/128/128 129/129/129
f 117/117/117 118/118/118 130/130/130
f 117/117/117 130/130/130 129/129/129
f 139/139/139 118/118/118 117/117/117
f 140/140/140 129/129/129 130/130/130
f 118/118/118 119/119/119 131/131/131
f 118/118/118 131/131/131 130/130/130
f 139/139/139 119/119/119 118/118/118
f 140/140/140 130/130/130 131/131/131
f 119/119/119 120/120/120 132/132/132
f 119/119/119 132/132/132 131/131/131
f 139/139/139 120/120/120 119/119/119
f 140/140/140 131/131/131 132/132/132
f 120/120/120 121/121/121 133/133/133
f 120/120/120 133/133/133 132/132/132
f 139/139/139 121/121/121 120/120/120
f 140/140/140 132/132/132 133/133/133
f 121/121/121 122/122/122 134/134/134
f 121/121/121 134/134/134 133/133/133
f 139/139/139 122/122/122 121/121/121
f 140/140/140 133/133/133 134/134/134
f 122/122/122 123/123/123 135/135/135
f 122/122/122 135/135/135 134/134/134
f 139/139/139 123/123/123 122/122/122
f 140/140/140 134/134/134 135/135/135
f 123/123/123 124/124/124 136/136/136
f 123/123/123 136/136/136 135/135/135
f 139/139/139 124/124/124 123/123/123
f 140/140/140 135/135/135 136/136/136
f 124/124/124 125/125/125 137/137/137
f 124/124/124 137/137/137 136/136/136
f 139/139/139 125/125/125 124/124/124
f 140/140/140 136/136/136 137/137/137
f 125/125/125 126/126/126 138/138/138
f 125/125/125 138/138/138 137/137/137
f 139/139/139 126/126/126 125/125/125
f 140/140/140 137/137/137 138/138/138
f 126/126/126 115/115/115 127/127/127
f 126/126/126 127/127/127 138/138/138
f 139/139/139 115/115/115 126/126/126
f 140/140/140 138/138/138 127/127/127
f 141/141/141 142/142/142 150/150/150
f 141/141/141 150/150/150 149/149/149
f 157/157/157 142/142/142 141/141/141
f 158/158/158 149/149/149 150/150/150
f 142/142/142 143/143/143 151/151/151
f 142/142/142 151/151/151 150/150/150
f 157/157/157 143/143/143 142/142/142
f 158/158/158 150/150/150 151/151/151
f 143/143/143 144/144/144 152/152/152
f 143/143/143 152/152/152 151/151/151
f 157/157/157 144/144/144 143/143/143
f 158/158/158 151/151/151 152/152/152
f 144/144/144 145/145/145 153/153/153
f 144/144/144 153/153/153 152/152/152
f 157/157/157 145/145/145 144/144/144
f 158/158/158 152/152/152 153/153/153
f 145/145/145 146/146/146 154/154/154
f 145/145/145 154/154/154 153/153/153
f 157/157/157 146/146/146 145/145/145
f 158/158/158 153/153/153 154/154/154
f 146/146/146 147/147/147 155/155/155
f 146/146/146 155/155/155 154/154/154
f 157/157/157 147/147/147 146/146/146
f 158/158/158 154/154/154 155/155/155
f 147/147/147 148/148/148 156/156/156
f 147/147/147 156/156/156 155/155/155
f 157/157/157 148/148/148 147/147/147
f 158/158/158 155/155/155 156/156/156
f 148/148/148 141/141/141 149/149/149
f 148/148/148 149/149/149 156/156/156
f 157/157/157 141/141/141 148/148/148
f 158/158/158 156/156/156 149/149/149
f 159/159/159 161/161/161 160/160/160
f 159/159/159 162/162/162 161/161/161
f 163/163/163 164/164/164 165/165/165
f 163/163/163 165/165/165 166/166/166
f 159/159/159 160/160/160 164/164/164
f 159/159/159 164/164/164 163/163/163
f 161/161/161 162/162/162 166/166/166
f 161/161/161 166/166/166 165/165/165
f 159/159/159 163/163/163 166/166/166
f 159/159/159 166/166/166 162/162/162
f 160/160/160 161/161/161 165/165/165
f 160/160/160 165/165/165 164/164/164
f 167/167/167 169/169/169 168/168/168
f 167/167/167 170/170/170 169/169/169
f 171/171/171 172/172/172 173/173/173
f 171/171/171 173/173/173 174/174/174
f 167/167/167 168/168/168 172/172/172
f 167/167/167 172/172/172 171/171/171
f 169/169/169 170/170/170 174/174/174
f 169/169/169 174/174/174 173/173/173
f 167/167/167 171/171/171 174/174/174
f 167/167/167 174/174/174 170/170/170
f 168/168/168 169/169/169 173/173/173
f 168/168/168 173/173/173 172/172/172
f 175/175/175 177/177/177 176/176/176
f 175/175/175 178/178/178 177/177/177
f 179/179/179 180/180/180 181/181/181
f 179/179/179 181/181/181 182/182/182
f 175/175/175 176/176/176 180/180/180
f 175/175/175 180/180/180 179/179/179
f 177/177/177 178/178/178 182/182/182
f 177/177/177 182/182/182 181/181/181
f 175/175/175 179/179/179 182/182/182
f 175/175/175 182/182/182 178/178/178
f 176/176/176 177/177/177 181/181/181
f 176/176/176 181/181/181 180/180/180
f 183/183/183 184/184/184 196/196/196
f 183/183/183 196/196/196 195/195/195
f 207/207/207 184/184/184 183/183/183
f 208/208/208 195/195/195 196/196/196
f 184/184/184 185/185/185 197/197/197
f 184/184/184 197/197/197 196/196/196
f 207/207/207 185/185/185 184/184/184
f 208/208/208 196/196/196 197/197/197
f 185/185/185 186/186/186 198/198/198
f 185/185/185 198/198/198 197/197/197
f 207/207/207 186/186/186 185/185/185
f 208/208/208 197/197/197 198/198/198
f 186/186/186 187/187/187 199/199/199
f 186/186/186 199/199/199 198/198/198
f 207/207/207 187/187/187 186/186/186
f 208/208/208 198/198/198 199/199/199
f 187/187/187 188/188/188 200/200/200
f 187/187/187 200/200/200 199/199/199
f 207/207/207 188/188/188 187/187/187
f 208/208/208 199/199/199 200/200/200
f 188/188/188 189/189/189 201/201/201
f 188/188/188 201/201/201 200/200/200
f 207/207/207 189/189/189 188/188/188
f 208/208/208 200/200/200 201/201/201
f 189/189/189 190/190/190 202/202/202
f 189/189/189 202/202/202 201/201/201
f 207/207/207 190/190/190 189/189/189
f 208/208/208 201/201/201 202/202/202
f 190/190/190 191/191/191 203/203/203
f 190/190/190 203/203/203 202/202/202
f 207/207/207 191/191/191 190/190/190
f 208/208/208 202/202/202 203/203/203
f 191/191/191 192/192/192 204/204/204
f 191/191/191 204/204/204 203/203/203
f 207/207/207 192/192/192 191/191/191
f 208/208/208 203/203/203 204/204/204
f 192/192/192 193/193/193 205/205/205
f 192/192/192 205/205/205 204/204/204
f 207/207/207 193/193/193 192/192/192
f 208/208/208 204/204/204 205/205/205
f 193/193/193 194/194/194 206/206/206
f 193/193/193 206/206/206 205/205/205
f 207/207/207 194/194/194 193/193/193
f 208/208/208 205/205/205 206/206/206
f 194/194/194 183/183/183 195/195/195
f 194/194/194 195/195/195 206/206/206
f 207/207/207 183/183/183 194/194/194
f 208/208/208 206/206/206 195/195/195
f 209/209/209 210/210/210 222/222/222
f 209/209/209 222/222/222 221/221/221
f 233/233/233 210/210/210 209/209/209
f 234/234/234 221/221/221 222/222/222
f 210/210/210 211/211/211 223/223/223
f 210/210/210 223/223/223 222/222/222
f 233/233/233 211/211/211 210/210/210
f 234/234/234 222/222/222 223/223/223
f 211/211/211 212/212/212 224/224/224
f 211/211/211 224/224/224 223/223/223
f 233/233/233 212/212/212 211/211/211
f 234/234/234 223/223/223 224/224/224
f 212/212/212 213/213/213 225/225/225
f 212/212/212 225/225/225 224/224/224
f 233/233/233 213/213/213 212/212/212
f 234/234/234 224/224/224 225/225/225
f 213/213/213 214/214/214 226/226/226
f 213/213/213 226/226/226 225/225/225
f 233/233/233 214/214/214 213/213/213
f 234/234/234 225/225/225 226/226/226
f 214/214/214 215/215/215 227/227/227
f 214/214/214 227/227/227 226/226/226
f 233/233/233 215/215/215 214/214/214
f 234/234/234 226/226/226 227/227/227
f 215/215/215 216/216/216 228/228/228
f 215/215/215 228/228/228 227/227/227
f 233/233/233 216/216/216 215/215/215
f 234/234/234 227/227/227 228/228/228
f 216/216/216 217/217/217 229/229/229
f 216/216/216 229/229/229 228/228/228
f 233/233/233 217/217/217 216/216/216
f 234/234/234 228/228/228 229/229/229
f 217/217/217 218/218/218 230/230/230
f 217/217/217 230/230/230 229/229/229
f 233/233/233 218/218/218 217/217/217
f 234/234/234 229/229/229 230/230/230
f 218/218/218 219/219/219 231/231/231
f 218/218/218 231/231/231 230/230/230
f 233/233/233 219/219/219 218/218/218
f 234/234/234 230/230/230 231/231/231
f 219/219/219 220/220/220 232/232/232
f 219/219/219 232/232/232 231/231/231
f 233/233/233 220/220/220 219/219/219
f 234/234/234 231/231/231 232/232/232
f 220/220/220 209/209/209 221/221/221
f 220/220/220 221/221/221 232/232/232
f 233/233/233 209/209/209 220/220/220
f 234/234/234 232/232/232 221/221/221
f 235/235/235 236/236/236 248/248/248
f 235/235/235 248/248/248 247/247/247
f 259/259/259 236/236/236 235/235/235
f 260/260/260 247/247/247 248/248/248
f 236/236/236 237/237/237 249/249/249
f 236/236/236 249/249/249 248/248/248
f 259/259/259 237/237/237 236/236/236
f 260/260/260 248/248/248 249/249/249
f 237/237/237 238/238/238 250/250/250
f 237/237/237 250/250/250 249/249/249
f 259/259/259 238/238/238 237/237/237
f 260/260/260 249/249/249 250/250/250
f 238/238/238 239/239/239 251/251/251
f 238/238/238 251/251/251 250/250/250
f 259/259/259 239/239/239 238/238/238
f 260/260/260 250/250/250 251/251/251
f 239/239/239 240/240/240 252/252/252
f 239/239/239 252/252/252 251/251/251
f 259/259/259 240/240/240 239/239/239
f 260/260/260 251/251/251 252/252/252
f 240/240/240 241/241/241 253/253/253
f 240/240/240 253/253/253 252/252/252
f 259/259/259 241/241/241 240/240/240
f 260/260/260 252/252/252 253/253/253
f 241/241/241 242/242/242 254/254/254
f 241/241/241 254/254/254 253/253/253
f 259/259/259 242/242/242 241/241/241
f 260/260/260 253/253/253 254/254/254
f 242/242/242 243/243/243 255/255/255
f 242/242/242 255/255/255 254/254/254
f 259/259/259 243/243/243 242/242/242
f 260/260/260 254/254/254 255/255/255
f 243/243/243 244/244/244 256/256/256
f 243/243/243 256/256/256 255/255/255
f 259/259/259 244/244/244 243/243/243
f 260/260/260 255/255/255 256/256/256
f 244/244/244 245/245/245 257/257/257
f 244/244/244 257/257/257 256/256/256
f 259/259/259 245/245/245 244/244/244
f 260/260/260 256/256/256 257/257/257
f 245/245/245 246/246/246 258/258/258
f 245/245/245 258/258/258 257/257/257
f 259/259/259 246/246/246 245/245/245
f 260/260/260 257/257/257 258/258/258
f 246/246/246 235/235/235 247/247/247
f 246/246/246 247/247/247 258/258/258
f 259/259/259 235/235/235 246/246/246
f 260/260/260 258/258/258 247/247/247
f 261/261/261 262/262/262 274/274/274
f 261/261/261 274/274/274 273/273/273
f 285/285/285 262/262/262 261/261/261
f 286/286/286 273/273/273 274/274/274
f 262/262/262 263/263/263 275/275/275
f 262/262/262 275/275/275 274/274/274
f 285/285/285 263/263/263 262/262/262
f 286/286/286 274/274/274 275/275/275
f 263/263/263 264/264/264 276/276/276
f 263/263/263 276/276/276 275/275/275
f 285/285/285 264/264/264 263/263/263
f 286/286/286 275/275/275 276/276/276
f 264/264/264 265/265/265 277/277/277
f 264/264/264 277/277/277 276/276/276
f 285/285/285 265/265/265 264/264/264
f 286/286/286 276/276/276 277/277/277
f 265/265/265 266/266/266 278/278/278
f 265/265/265 278/278/278 277/277/277
f 285/285/285 266/266/266 265/265/265
f 286/286/286 277/277/277 278/278/278
f 266/266/266 267/267/267 279/279/279
f 266/266/266 279/279/279 278/278/278
f 285/285/285 267/267/267 266/266/266
f 286/286/286 278/278/278 279/279/279
f 267/267/267 268/268/268 280/280/280
f 267/267/267 280/280/280 279/279/279
f 285/285/285 268/268/268 267/267/267
f 286/286/286 279/279/279 280/280/280
f 268/268/268 269/269/269 281/281/281
f 268/268/268 281/281/281 280/280/280
f 285/285/285 269/269/269 268/268/268
f 286/286/286 280/280/280 281/281/281
f 269/269/269 270/270/270 282/282/282
f 269/269/269 282/282/282 281/281/281
f 285/285/285 270/270/270 269/269/269
f 286/286/286 281/281/281 282/282/282
f 270/270/270 271/271/271 283/283/283
f 270/270/270 283/283/283 282/282/282
f 285/285/285 271/271/271 270/270/270
f 286/286/286 282/282/282 283/283/283
f 271/271/271 272/272/272 284/284/284
f 271/271/271 284/284/284 283/283/283
f 285/285/285 272/272/272 271/271/271
f 286/286/286 283/283/283 284/284/284
f 272/272/272 261/261/261 273/273/273
f 272/272/272 273/273/273 284/284/284
f 285/285/285 261/261/261 272/272/272
f 286/286/286 284/284/284 273/273/273
f 287/287/287 288/288/288 300/300/300
f 287/287/287 300/300/300 299/299/299
f 311/311/311 288/288/288 287/287/287
f 312/312/312 299/299/299 300/300/300
f 288/288/288 289/289/289 301/301/301
f 288/288/288 301/301/301 300/300/300
f 311/311/311 289/289/289 288/288/288
f 312/312/312 300/300/300 301/301/301
f 289/289/289 290/290/290 302/302/302
f 289/289/289 302/302/302 301/301/301
f 311/311/311 290/290/290 289/289/289
f 312/312/312 301/301/301 302/302/302
f 290/290/290 291/291/291 303/303/303
f 290/290/290 303/303/303 302/302/302
f 311/311/311 291/291/291 290/290/290
f 312/312/312 302/302/302 303/303/303
f 291/291/291 292/292/292 304/304/304
f 291/291/291 304/304/304 303/303/303
f 311/311/311 292/292/292 291/291/291
f 312/312/312 303/303/303 304/304/304
f 292/292/292 293/293/293 305/305/305
f 292/292/292 305/305/305 304/304/304
f 311/311/311 293/293/293 292/292/292
f 312/312/312 304/304/304 305/305/305
f 293/293/293 294/294/294 306/306/306
f 293/293/293 306/306/306 305/305/305
f 311/311/311 294/294/294 293/293/293
f 312/312/312 305/305/305 306/306/306
f 294/294/294 295/295/295 307/307/307
f 294/294/294 307/307/307 306/306/306
f 311/311/311 295/295/295 294/294/294
f 312/312/312 306/306/306 307/307/307
f 295/295/295 296/296/296 308/308/308
f 295/295/295 308/308/308 307/307/307
f 311/311/311 296/296/296 295/295/295
f 312/312/312 307/307/307 308/308/308
f 296/296/296 297/297/297 309/309/309
f 296/296/296 309/309/309 308/308/308
f 311/311/311 297/297/297 296/296/296
f 312/312/312 308/308/308 309/309/309
f 297/297/297 298/298/298 310/310/310
f 297/297/297 310/310/310 309/309/309
f 311/311/311 298/298/298 297/297/297
f 312/312/312 309/309/309 310/310/310
f 298/298/298 287/287/287 299/299/299
f 298/298/298 299/299/299 310/310/310
f 311/311/311 287/287/287 298/298/298
f 312/312/312 310/310/310 299/299/299
f 313/313/313 314/314/314 326/326/326
f 313/313/313 326/326/326 325/325/325
f 337/337/337 314/314/314 313/313/313
f 338/338/338 325/325/325 326/326/326
f 314/314/314 315/315/315 327/327/327
f 314/314/314 327/327/327 326/326/326
f 337/337/337 315/315/315 314/314/314
f 338/338/338 326/326/326 327/327/327
f 315/315/315 316/316/316 328/328/328
f 315/315/315 328/328/328 327/327/327
f 337/337/337 316/316/316 315/315/315
f 338/338/338 327/327/327 328/328/328
f 316/316/316 317/317/317 329/329/329
f 316/316/316 329/329/329 328/328/328
f 337/337/337 317/317/317 316/316/316
f 338/338/338 328/328/328 329/329/329
f 317/317/317 318/318/318 330/330/330
f 317/317/317 330/330/330 329/329/329
f 337/337/337 318/318/318 317/317/317
f 338/338/338 329/329/329 330/330/330
f 318/318/318 319/319/319 331/331/331
f 318/318/318 331/331/331 330/330/330
f 337/337/337 319/319/319 318/318/318
f 338/338/338 330/330/330 331/331/331
f 319/319/319 320/320/320 332/332/332
f 319/319/319 332/332/332 331/331/331
f 337/337/337 320/320/320 319/319/319
f 338/338/338 331/331/331 332/332/332
f 320/320/320 321/321/321 333/333/333
f 320/320/320 333/333/333 332/332/332
f 337/337/337 321/321/321 320/320/320
f 338/338/338 332/332/332 333/333/333
f 321/321/321 322/322/322 334/334/334
f 321/321/321 334/334/334 333/333/333
f 337/337/337 322/322/322 321/321/321
f 338/338/338 333/333/333 334/334/334
f 322/322/322 323/323/323 335/335/335
f 322/322/322 335/335/335 334/334/334
f 337/337/337 323/323/323 322/322/322
f 338/338/338 334/334/334 335/335/335
f 323/323/323 324/324/324 336/336/336
f 323/323/323 336/336/336 335/335/335
f 337/337/337 324/324/324 323/323/323
f 338/338/338 335/335/335 336/336/336
f 324/324/324 313/313/313 325/325/325
f 324/324/324 325/325/325 336/336/336
f 337/337/337 313/313/313 324/324/324
f 338/338/338 336/336/336 325/325/325
f 339/339/339 341/341/341 340/340/340
f 339/339/339 342/342/342 341/341/341
f 343/343/343 344/344/344 345/345/345
f 343/343/343 345/345/345 346/346/346
f 339/339/339 340/340/340 344/344/344
f 339/339/339 344/344/344 343/343/343
f 341/341/341 342/342/342 346/346/346
f 341/341/341 346/346/346 345/345/345
f 339/339/339 343/343/343 346/346/346
f 339/339/339 346/346/346 342/342/342
f 340/340/340 341/341/341 345/345/345
f 340/340/340 345/345/345 344/344/344
f 347/347/347 348/348/348 360/360/360
f 347/347/347 360/360/360 359/359/359
f 371/371/371 348/348/348 347/347/347
f 372/372/372 359/359/359 360/360/360
f 348/348/348 349/349/349 361/361/361
f 348/348/348 361/361/361 360/360/360
f 371/371/371 349/349/349 348/348/348
f 372/372/372 360/360/360 361/361/361
f 349/349/349 350/350/350 362/362/362
f 349/349/349 362/362/362 361/361/361
f 371/371/371 350/350/350 349/349/349
f 372/372/372 361/361/361 362/362/362
f 350/350/350 351/351/351 363/363/363
f 350/350/350 363/363/363 362/362/362
f 371/371/371 351/351/351 350/350/350
f 372/372/372 362/362/362 363/363/363
f 351/351/351 352/352/352 364/364/364
f 351/351/351 364/364/364 363/363/363
f 371/371/371 352/352/352 351/351/351
f 372/372/372 363/363/363 364/364/364
f 352/352/352 353/353/353 365/365/365
f 352/352/352 365/365/365 364/364/364
f 371/371/371 353/353/353 352/352/352
f 372/372/372 364/364/364 365/365/365
f 353/353/353 354/354/354 366/366/366
f 353/353/353 366/366/366 365/365/365
f 371/371/371 354/354/354 353/353/353
f 372/372/372 365/365/365 366/366/366
f 354/354/354 355/355/355 367/367/367
f 354/354/354 367/367/367 366/366/366
f 371/371/371 355/355/355 354/354/354
f 372/372/372 366/366/366 367/367/367
f 355/355/355 356/356/356 368/368/368
f 355/355/355 368/368/368 367/367/367
f 371/371/371 356/356/356 355/355/355
f 372/372/372 367/367/367 368/368/368
f 356/356/356 357/357/357 369/369/369
f 356/356/356 369/369/369 368/368/368
f 371/371/371 357/357/357 356/356/356
f 372/372/372 368/368/368 369/369/369
f 357/357/357 358/358/358 370/370/370
f 357/357/357 370/370/370 369/369/369
f 371/371/371 358/358/358 357/357/357
f 372/372/372 369/369/369 370/370/370
f 358/358/358 347/347/347 359/359/359
f 358/358/358 359/359/359 370/370/370
f 371/371/371 347/347/347 358/358/358
f 372/372/372 370/370/370 359/359/359
f 373/373/373 374/374/374 386/386/386
f 373/373/373 386/386/386 385/385/385
f 397/397/397 374/374/374 373/373/373
f 398/398/398 385/385/385 386/386/386
f 374/374/374 375/375/375 387/387/387
f 374/374/374 387/387/387 386/386/386
f 397/397/397 375/375/375 374/374/374
f 398/398/398 386/386/386 387/387/387
f 375/375/375 376/376/376 388/388/388
f 375/375/375 388/388/388 387/387/387
f 397/397/397 376/376/376 375/375/375
f 398/398/398 387/387/387 388/388/388
f 376/376/376 377/377/377 389/389/389
f 376/376/376 389/389/389 388/388/388
f 397/397/397 377/377/377 376/376/376
f 398/398/398 388/388/388 389/389/389
f 377/377/377 378/378/378 390/390/390
f 377/377/377 390/390/390 389/389/389
f 397/397/397 378/378/378 377/377/377
f 398/398/398 389/389/389 390/390/390
f 378/378/378 379/379/379 391/391/391
f 378/378/378 391/391/391 390/390/390
f 397/397/397 379/379/379 378/378/378
f 398/398/398 390/390/390 391/391/391
f 379/379/379 380/380/380 392/392/392
f 379/379/379 392/392/392 391/391/391
f 397/397/397 380/380/380 379/379/379
f 398/398/398 391/391/391 392/392/392
f 380/380/380 381/381/381 393/393/393
f 380/380/380 393/393/393 392/392/392
f 397/397/397 381/381/381 380/380/380
f 398/398/398 392/392/392 393/393/393
f 381/381/381 382/382/382 394/394/394
f 381/381/381 394/394/394 393/393/393
f 397/397/397 382/382/382 381/381/381
f 398/398/398 393/393/393 394/394/394
f 382/382/382 383/383/383 395/395/395
f 382/382/382 395/395/395 394/394/394
f 397/397/397 383/383/383 382/382/382
f 398/398/398 394/394/394 395/395/395
f 383/383/383 384/384/384 396/396/396
f 383/383/383 396/396/396 395/395/395
f 397/397/397 384/384/384 383/383/383
f 398/398/398 395/395/395 396/396/396
f 384/384/384 373/373/373 385/385/385
f 384/384/384 385/385/385 396/396/396
f 397/397/397 373/373/373 384/384/384
f 398/398/398 396/396/396 385/385/385
f 399/399/399 400/400/400 412/412/412
f 399/399/399 412/412/412 411/411/411
f 423/423/423 400/400/400 399/399/399
f 424/424/424 411/411/411 412/412/412
f 400/400/400 401/401/401 413/413/413
f 400/400/400 413/413/413 412/412/412
f 423/423/423 401/401/401 400/400/400
f 424/424/424 412/412/412 413/413/413
f 401/401/401 402/402/402 414/414/414
f 401/401/401 414/414/414 413/413/413
f 423/423/423 402/402/402 401/401/401
f 424/424/424 413/413/413 414/414/414
f 402/402/402 403/403/403 415/415/415
f 402/402/402 415/415/415 414/414/414
f 423/423/423 403/403/403 402/402/402
f 424/424/424 414/414/414 415/415/415
f 403/403/403 404/404/404 416/416/416
f 403/403/403 416/416/416 415/415/415
f 423/423/423 404/404/404 403/403/403
f 424/424/424 415/415/415 416/416/416
f 404/404/404 405/405/405 417/417/417
f 404/404/404 417/417/417 416/416/416
f 423/423/423 405/405/405 404/404/404
f 424/424/424 416/416/416 417/417/417
f 405/405/405 406/406/406 418/418/418
f 405/405/405 418/418/418 417/417/417
f 423/423/423 406/406/406 405/405/405
f 424/424/424 417/417/417 418/418/418
f 406/406/406 407/407/407 419/419/419
f 406/406/406 419/419/419 418/418/418
f 423/423/423 407/407/407 406/406/406
f 424/424/424 418/418/418 419/419/419
f 407/407/407 408/408/408 420/420/420
f 407/407/407 420/420/420 419/419/419
f 423/423/423 408/408/408 407/407/407
f 424/424/424 419/419/419 420/420/420
f 408/408/408 409/409/409 421/421/421
f 408/408/408 421/421/421 420/420/420
f 423/423/423 409/409/409 408/408/408
f 424/424/424 420/420/420 421/421/421
f 409/409/409 410/410/410 422/422/422
f 409/409/409 422/422/422 421/421/421
f 423/423/423 410/410/410 409/409/409
f 424/424/424 421/421/421 422/422/422
f 410/410/410 399/399/399 411/411/411
f 410/410/410 411/411/411 422/422/422
f 423/423/423 399/399/399 410/410/410
f 424/424/424 422/422/422 411/411/411
f 425/425/425 426/426/426 438/438/438
f 425/425/425 438/438/438 437/437/437
f 449/449/449 426/426/426 425/425/425
f 450/450/450 437/437/437 438/438/438
f 426/426/426 427/427/427 439/439/439
f 426/426/426 439/439/439 438/438/438
f 449/449/449 427/427/427 426/426/426
f 450/450/450 438/438/438 439/439/439
f 427/427/427 428/428/428 440/440/440
f 427/427/427 440/440/440 439/439/439
f 449/449/449 428/428/428 427/427/427
f 450/450/450 439/439/439 440/440/440
f 428/428/428 429/429/429 441/441/441
f 428/428/428 441/441/441 440/440/440
f 449/449/449 429/429/429 428/428/428
f 450/450/450 440/440/440 441/441/441
f 429/429/429 430/430/430 442/442/442
f 429/429/429 442/442/442 441/441/441
f 449/449/449 430/430/430 429/429/429
f 450/450/450 441/441/441 442/442/442
f 430/430/430 431/431/431 443/443/443
f 430/430/430 443/443/443 442/442/442
f 449/449/449 431/431/431 430/430/430
f 450/450/450 442/442/442 443/443/443
f 431/431/431 432/432/432 444/444/444
f 431/431/431 444/444/444 443/443/443
f 449/449/449 432/432/432 431/431/431
f 450/450/450 443/443/443 444/444/444
f 432/432/432 433/433/433 445/445/445
f 432/432/432 445/445/445 444/444/444
f 449/449/449 433/433/433 432/432/432
f 450/450/450 444/444/444 445/445/445
f 433/433/433 434/434/434 446/446/446
f 433/433/433 446/446/446 445/445/445
f 449/449/449 434/434/434 433/433/433
f 450/450/450 445/445/445 446/446/446
f 434/434/434 435/435/435 447/447/447
f 434/434/434 447/447/447 446/446/446
f 449/449/449 435/435/435 434/434/434
f 450/450/450 446/446/446 447/447/447
f 435/435/435 436/436/436 448/448/448
f 435/435/435 448/448/448 447/447/447
f 449/449/449 436/436/436 435/435/435
f 450/450/450 447/447/447 448/448/448
f 436/436/436 425/425/425 437/437/437
f 436/436/436 437/437/437 448/448/448
f 449/449/449 425/425/425 436/436/436
f 450/450/450 448/448/448 437/437/437
f 451/451/451 452/452/452 464/464/464
f 451/451/451 464/464/464 463/463/463
f 475/475/475 452/452/452 451/451/451
f 476/476/476 463/463/463 464/464/464
f 452/452/452 453/453/453 465/465/465
f 452/452/452 465/465/465 464/464/464
f 475/475/475 453/453/453 452/452/452
f 476/476/476 464/464/464 465/465/465
f 453/453/453 454/454/454 466/466/466
f 453/453/453 466/466/466 465/465/465
f 475/475/475 454/454/454 453/453/453
f 476/476/476 465/465/465 466/466/466
f 454/454/454 455/455/455 467/467/467
f 454/454/454 467/467/467 466/466/466
f 475/475/475 455/455/455 454/454/454
f 476/476/476 466/466/466 467/467/467
f 455/455/455 456/456/456 468/468/468
f 455/455/455 468/468/468 467/467/467
f 475/475/475 456/456/456 455/455/455
f 476/476/476 467/467/467 468/468/468
f 456/456/456 457/457/457 469/469/469
f 456/456/456 469/469/469 468/468/468
f 475/475/475 457/457/457 456/456/456
f 476/476/476 468/468/468 469/469/469
f 457/457/457 458/458/458 470/470/470
f 457/457/457 470/470/470 469/469/469
f 475/475/475 458/458/458 457/457/457
f 476/476/476 469/469/469 470/470/470
f 458/458/458 459/459/459 471/471/471
f 458/458/458 471/471/471 470/470/470
f 475/475/475 459/459/459 458/458/458
f 476/476/476 470/470/470 471/471/471
f 459/459/459 460/460/460 472/472/472
f 459/459/459 472/472/472 471/471/471
f 475/475/475 460/460/460 459/459/459
f 476/476/476 471/471/471 472/472/472
f 460/460/460 461/461/461 473/473/473
f 460/460/460 473/473/473 472/472/472
f 475/475/475 461/461/461 460/460/460
f 476/476/476 472/472/472 473/473/473
f 461/461/461 462/462/462 474/474/474
f 461/461/461 474/474/474 473/473/473
f 475/475/475 462/462/462 461/461/461
f 476/476/476 473/473/473 474/474/474
f 462/462/462 451/451/451 463/463/463
f 462/462/462 463/463/463 474/474/474
f 475/475/475 451/451/451 462/462/462
f 476/476/476 474/474/474 463/463/463
f 477/477/477 478/478/478 490/490/490
f 477/477/477 490/490/490 489/489/489
f 501/501/501 478/478/478 477/477/477
f 502/502/502 489/489/489 490/490/490
f 478/478/478 479/479/479 491/491/491
f 478/478/478 491/491/491 490/490/490
f 501/501/501 479/479/479 478/478/478
f 502/502/502 490/490/490 491/491/491
f 479/479/479 480/480/480 492/492/492
f 479/479/479 492/492/492 491/491/491
f 501/501/501 480/480/480 479/479/479
f 502/502/502 491/491/491 492/492/492
f 480/480/480 481/481/481 493/493/493
f 480/480/480 493/493/493 492/492/492
f 501/501/501 481/481/481 480/480/480
f 502/502/502 492/492/492 493/493/493
f 481/481/481 482/482/482 494/494/494
f 481/481/481 494/494/494 493/493/493
f 501/501/501 482/482/482 481/481/481
f 502/502/502 493/493/493 494/494/494
f 482/482/482 483/483/483 495/495/495
f 482/482/482 495/495/495 494/494/494
f 501/501/501 483/483/483 482/482/482
f 502/502/502 494/494/494 495/495/495
f 483/483/483 484/484/484 496/496/496
f 483/483/483 496/496/496 495/495/495
f 501/501/501 484/484/484 483/483/483
f 502/502/502 495/495/495 496/496/496
f 484/484/484 485/485/485 497/497/497
f 484/484/484 497/497/497 496/496/496
f 501/501/501 485/485/485 484/484/484
f 502/502/502 496/496/496 497/497/497
f 485/485/485 486/486/486 498/498/498
f 485/485/485 498/498/498 497/497/497
f 501/501/501 486/486/486 485/485/485
f 502/502/502 497/497/497 498/498/498
f 486/486/486 487/487/487 499/499/499
f 486/486/486 499/499/499 498/498/498
f 501/501/501 487/487/487 486/486/486
f 502/502/502 498/498/498 499/499/499
f 487/487/487 488/488/488 500/500/500
f 487/487/487 500/500/500 499/499/499
f 501/501/501 488/488/488 487/487/487
f 502/502/502 499/499/499 500/500/500
f 488/488/488 477/477/477 489/489/489
f 488/488/488 489/489/489 500/500/500
f 501/501/501 477/477/477 488/488/488
f 502/502/502 500/500/500 489/489/489