# 3D Model: tree/canopy/tree_canopy_1_.jpg (v6 Gemini)
# Style: banyan broad crown with aerial-root silhouette | Symmetry: asymmetric
# Dimensions: 8.287 x 5.711 x 6.072 m
# Triangles: 1184 | Vertices: 711
v 1.15 0 0
v 0.9674 0 0.6217
v 0.4777 0 1.0461
v -0.1637 0 1.1383
v -0.7531 0 0.8691
v -1.1034 0 0.324
v -1.1034 0 -0.324
v -0.7531 0 -0.8691
v -0.1637 0 -1.1383
v 0.4777 0 -1.0461
v 0.9674 0 -0.6217
v 0.62 5.3 0
v 0.5216 5.3 0.3352
v 0.2576 5.3 0.564
v -0.0882 5.3 0.6137
v -0.406 5.3 0.4686
v -0.5949 5.3 0.1747
v -0.5949 5.3 -0.1747
v -0.406 5.3 -0.4686
v -0.0882 5.3 -0.6137
v 0.2576 5.3 -0.564
v 0.5216 5.3 -0.3352
v 0 0 0
v 0 5.3 0
v 1.35 0 0
v 1.0922 0 0.7935
v 0.4172 0 1.2839
v -0.4172 0 1.2839
v -1.0922 0 0.7935
v -1.35 0 0
v -1.0922 0 -0.7935
v -0.4172 0 -1.2839
v 0.4172 0 -1.2839
v 1.0922 0 -0.7935
v 0.972 0.58 0
v 0.7864 0.58 0.5713
v 0.3004 0.58 0.9244
v -0.3004 0.58 0.9244
v -0.7864 0.58 0.5713
v -0.972 0.58 0
v -0.7864 0.58 -0.5713
v -0.3004 0.58 -0.9244
v 0.3004 0.58 -0.9244
v 0.7864 0.58 -0.5713
v 0 0 0
v 0 0.58 0
v 0.0051 3.8932 -0.1499
v 0.0206 3.7885 -0.1054
v 0.0241 3.7451 0.0008
v 0.0134 3.7885 0.1066
v -0.0051 3.8932 0.1499
v -0.0206 3.9979 0.1054
v -0.0241 4.0413 -0.0008
v -0.0134 3.9979 -0.1066
v 0.98 4.0521 -0.075
v 0.9912 3.9767 -0.043
v 0.9937 3.9455 0.0335
v 0.986 3.9767 0.1097
v 0.9727 4.0521 0.1409
v 0.9615 4.1275 0.1089
v 0.959 4.1587 0.0324
v 0.9667 4.1275 -0.0438
v 0 3.8932 0
v 0.9764 4.0521 0.033
v 0.9794 4.0521 -0.057
v 0.9976 3.9845 -0.0225
v 0.9998 3.9678 0.0538
v 0.9844 4.0146 0.1144
v 0.9629 4.0897 0.1136
v 0.9515 4.1365 0.0522
v 0.9589 4.1198 -0.0238
v 3.3698 4.737 0.0489
v 3.3829 4.6883 0.0738
v 3.3845 4.6763 0.1287
v 3.3734 4.71 0.1723
v 3.3579 4.764 0.1717
v 3.3497 4.7978 0.1275
v 3.355 4.7857 0.0728
v 0.9764 4.0521 0.033
v 3.3676 4.737 0.1137
v 3.3676 5.3981 0.1137
v 3.3676 5.3981 0.1137
v 3.3676 5.3981 0.1137
v 3.3676 5.3981 0.1137
v 3.3676 5.3981 0.1137
v 3.3676 5.3981 0.1137
v 3.3676 5.3981 0.1137
v 3.3676 5.3981 0.1137
v 3.3676 5.3981 0.1137
v 3.3676 5.3981 0.1137
v 3.3676 5.3981 0.1137
v 3.8604 5.3477 0.1137
v 3.7663 5.3477 0.3364
v 3.5199 5.3477 0.4741
v 3.2153 5.3477 0.4741
v 2.9689 5.3477 0.3364
v 2.8748 5.3477 0.1137
v 2.9689 5.3477 -0.1091
v 3.2153 5.3477 -0.2467
v 3.5199 5.3477 -0.2467
v 3.7663 5.3477 -0.1091
v 3.8604 5.3477 0.1137
v 4.2782 5.2044 0.1137
v 4.1043 5.2044 0.5252
v 3.649 5.2044 0.7796
v 3.0862 5.2044 0.7796
v 2.6309 5.2044 0.5252
v 2.4569 5.2044 0.1137
v 2.6309 5.2044 -0.2979
v 3.0862 5.2044 -0.5523
v 3.649 5.2044 -0.5523
v 4.1043 5.2044 -0.2979
v 4.2782 5.2044 0.1137
v 4.5574 4.99 0.1137
v 4.3302 4.99 0.6514
v 3.7353 4.99 0.9837
v 2.9999 4.99 0.9837
v 2.405 4.99 0.6514
v 2.1778 4.99 0.1137
v 2.405 4.99 -0.4241
v 2.9999 4.99 -0.7564
v 3.7353 4.99 -0.7564
v 4.3302 4.99 -0.4241
v 4.5574 4.99 0.1137
v 4.6554 4.737 0.1137
v 4.4095 4.737 0.6957
v 3.7656 4.737 1.0554
v 2.9696 4.737 1.0554
v 2.3257 4.737 0.6957
v 2.0797 4.737 0.1137
v 2.3257 4.737 -0.4684
v 2.9696 4.737 -0.8281
v 3.7656 4.737 -0.8281
v 4.4095 4.737 -0.4684
v 4.6554 4.737 0.1137
v 4.5574 4.484 0.1137
v 4.3302 4.484 0.6514
v 3.7353 4.484 0.9837
v 2.9999 4.484 0.9837
v 2.405 4.484 0.6514
v 2.1778 4.484 0.1137
v 2.405 4.484 -0.4241
v 2.9999 4.484 -0.7564
v 3.7353 4.484 -0.7564
v 4.3302 4.484 -0.4241
v 4.5574 4.484 0.1137
v 4.2782 4.2696 0.1137
v 4.1043 4.2696 0.5252
v 3.649 4.2696 0.7796
v 3.0862 4.2696 0.7796
v 2.6309 4.2696 0.5252
v 2.4569 4.2696 0.1137
v 2.6309 4.2696 -0.2979
v 3.0862 4.2696 -0.5523
v 3.649 4.2696 -0.5523
v 4.1043 4.2696 -0.2979
v 4.2782 4.2696 0.1137
v 3.8604 4.1263 0.1137
v 3.7663 4.1263 0.3364
v 3.5199 4.1263 0.4741
v 3.2153 4.1263 0.4741
v 2.9689 4.1263 0.3364
v 2.8748 4.1263 0.1137
v 2.9689 4.1263 -0.1091
v 3.2153 4.1263 -0.2467
v 3.5199 4.1263 -0.2467
v 3.7663 4.1263 -0.1091
v 3.8604 4.1263 0.1137
v 3.3676 4.076 0.1137
v 3.3676 4.076 0.1137
v 3.3676 4.076 0.1137
v 3.3676 4.076 0.1137
v 3.3676 4.076 0.1137
v 3.3676 4.076 0.1137
v 3.3676 4.076 0.1137
v 3.3676 4.076 0.1137
v 3.3676 4.076 0.1137
v 3.3676 4.076 0.1137
v 3.3676 4.076 0.1137
v 0.1331 3.3197 -0.0692
v 0.1046 3.2161 -0.0287
v 0.0149 3.1732 0.0286
v -0.0836 3.2161 0.0692
v -0.1331 3.3197 0.0692
v -0.1046 3.4233 0.0287
v -0.0149 3.4662 -0.0286
v 0.0836 3.4233 -0.0692
v 0.5946 3.558 0.9097
v 0.5741 3.4834 0.9389
v 0.5095 3.4525 0.9801
v 0.4386 3.4834 1.0093
v 0.4029 3.558 1.0093
v 0.4234 3.6325 0.9801
v 0.488 3.6634 0.9389
v 0.5589 3.6325 0.9097
v 0 3.3197 0
v 0.4987 3.558 0.9595
v 0.5786 3.558 0.918
v 0.5703 3.5058 0.9755
v 0.5081 3.493 1.021
v 0.4389 3.529 1.0202
v 0.4147 3.5869 0.9736
v 0.4538 3.623 0.9164
v 0.5267 3.6101 0.8917
v 1.0995 4.6259 1.9748
v 1.0936 4.5883 2.0162
v 1.0488 4.5791 2.049
v 0.9989 4.6051 2.0484
v 0.9815 4.6467 2.0148
v 1.0096 4.6727 1.9737
v 1.0622 4.6634 1.9559
v 0.4987 3.558 0.9595
v 1.042 4.6259 2.0047
v 1.042 5.3411 2.0047
v 1.042 5.3411 2.0047
v 1.042 5.3411 2.0047
v 1.042 5.3411 2.0047
v 1.042 5.3411 2.0047
v 1.042 5.3411 2.0047
v 1.042 5.3411 2.0047
v 1.042 5.3411 2.0047
v 1.042 5.3411 2.0047
v 1.042 5.3411 2.0047
v 1.042 5.3411 2.0047
v 1.5566 5.2867 2.0047
v 1.4583 5.2867 2.2422
v 1.201 5.2867 2.3889
v 0.883 5.2867 2.3889
v 0.6257 5.2867 2.2422
v 0.5274 5.2867 2.0047
v 0.6257 5.2867 1.7672
v 0.883 5.2867 1.6204
v 1.201 5.2867 1.6204
v 1.4583 5.2867 1.7672
v 1.5566 5.2867 2.0047
v 1.9929 5.1316 2.0047
v 1.8113 5.1316 2.4435
v 1.3358 5.1316 2.7147
v 0.7482 5.1316 2.7147
v 0.2728 5.1316 2.4435
v 0.0912 5.1316 2.0047
v 0.2728 5.1316 1.5659
v 0.7482 5.1316 1.2947
v 1.3358 5.1316 1.2947
v 1.8113 5.1316 1.5659
v 1.9929 5.1316 2.0047
v 2.2844 4.8996 2.0047
v 2.0471 4.8996 2.578
v 1.4259 4.8996 2.9324
v 0.6581 4.8996 2.9324
v 0.0369 4.8996 2.578
v -0.2003 4.8996 2.0047
v 0.0369 4.8996 1.4313
v 0.6581 4.8996 1.077
v 1.4259 4.8996 1.077
v 2.0471 4.8996 1.4313
v 2.2844 4.8996 2.0047
v 2.3867 4.6259 2.0047
v 2.1299 4.6259 2.6253
v 1.4576 4.6259 3.0088
v 0.6265 4.6259 3.0088
v -0.0459 4.6259 2.6253
v -0.3027 4.6259 2.0047
v -0.0459 4.6259 1.3841
v 0.6265 4.6259 1.0006
v 1.4576 4.6259 1.0006
v 2.1299 4.6259 1.3841
v 2.3867 4.6259 2.0047
v 2.2844 4.3522 2.0047
v 2.0471 4.3522 2.578
v 1.4259 4.3522 2.9324
v 0.6581 4.3522 2.9324
v 0.0369 4.3522 2.578
v -0.2003 4.3522 2.0047
v 0.0369 4.3522 1.4313
v 0.6581 4.3522 1.077
v 1.4259 4.3522 1.077
v 2.0471 4.3522 1.4313
v 2.2844 4.3522 2.0047
v 1.9929 4.1201 2.0047
v 1.8113 4.1201 2.4435
v 1.3358 4.1201 2.7147
v 0.7482 4.1201 2.7147
v 0.2728 4.1201 2.4435
v 0.0912 4.1201 2.0047
v 0.2728 4.1201 1.5659
v 0.7482 4.1201 1.2947
v 1.3358 4.1201 1.2947
v 1.8113 4.1201 1.5659
v 1.9929 4.1201 2.0047
v 1.5566 3.9651 2.0047
v 1.4583 3.9651 2.2422
v 1.201 3.9651 2.3889
v 0.883 3.9651 2.3889
v 0.6257 3.9651 2.2422
v 0.5274 3.9651 2.0047
v 0.6257 3.9651 1.7672
v 0.883 3.9651 1.6204
v 1.201 3.9651 1.6204
v 1.4583 3.9651 1.7672
v 1.5566 3.9651 2.0047
v 1.042 3.9106 2.0047
v 1.042 3.9106 2.0047
v 1.042 3.9106 2.0047
v 1.042 3.9106 2.0047
v 1.042 3.9106 2.0047
v 1.042 3.9106 2.0047
v 1.042 3.9106 2.0047
v 1.042 3.9106 2.0047
v 1.042 3.9106 2.0047
v 1.042 3.9106 2.0047
v 1.042 3.9106 2.0047
v 0.088 3.5973 0.1215
v 0.0336 3.4973 0.1066
v -0.0405 3.4559 0.0293
v -0.0908 3.4973 -0.0652
v -0.088 3.5973 -0.1215
v -0.0336 3.6973 -0.1066
v 0.0405 3.7388 -0.0293
v 0.0908 3.6973 0.0652
v -0.7364 3.9462 0.6666
v -0.7756 3.8742 0.6559
v -0.8289 3.8444 0.6002
v -0.8652 3.8742 0.5322
v -0.8631 3.9462 0.4916
v -0.824 4.0182 0.5023
v -0.7706 4.048 0.558
v -0.7344 4.0182 0.626
v 0 3.5973 0
v -0.7998 3.9462 0.5791
v -0.747 3.9462 0.652
v -0.7842 3.8792 0.6371
v -0.8331 3.8626 0.5785
v -0.8569 3.909 0.5204
v -0.8377 3.9834 0.5065
v -0.79 4.0298 0.5473
v -0.7496 4.0133 0.612
v -2.346 4.5689 1.7787
v -2.3727 4.5206 1.7679
v -2.408 4.5087 1.7258
v -2.4251 4.5421 1.6839
v -2.4113 4.5957 1.6739
v -2.3769 4.6291 1.7033
v -2.3478 4.6172 1.7499
v -0.7998 3.9462 0.5791
v -2.384 4.5689 1.7262
v -2.384 5.1564 1.7262
v -2.384 5.1564 1.7262
v -2.384 5.1564 1.7262
v -2.384 5.1564 1.7262
v -2.384 5.1564 1.7262
v -2.384 5.1564 1.7262
v -2.384 5.1564 1.7262
v -2.384 5.1564 1.7262
v -2.384 5.1564 1.7262
v -2.384 5.1564 1.7262
v -2.384 5.1564 1.7262
v -1.9063 5.1117 1.7262
v -1.9976 5.1117 1.9586
v -2.2364 5.1117 2.1023
v -2.5316 5.1117 2.1023
v -2.7704 5.1117 1.9586
v -2.8616 5.1117 1.7262
v -2.7704 5.1117 1.4938
v -2.5316 5.1117 1.3501
v -2.2364 5.1117 1.3501
v -1.9976 5.1117 1.4938
v -1.9063 5.1117 1.7262
v -1.5014 4.9843 1.7262
v -1.67 4.9843 2.1557
v -2.1113 4.9843 2.4211
v -2.6567 4.9843 2.4211
v -3.098 4.9843 2.1557
v -3.2666 4.9843 1.7262
v -3.098 4.9843 1.2967
v -2.6567 4.9843 1.0313
v -2.1113 4.9843 1.0313
v -1.67 4.9843 1.2967
v -1.5014 4.9843 1.7262
v -1.2308 4.7937 1.7262
v -1.4511 4.7937 2.2873
v -2.0276 4.7937 2.6342
v -2.7403 4.7937 2.6342
v -3.3169 4.7937 2.2873
v -3.5371 4.7937 1.7262
v -3.3169 4.7937 1.165
v -2.7403 4.7937 0.8182
v -2.0276 4.7937 0.8182
v -1.4511 4.7937 1.165
v -1.2308 4.7937 1.7262
v -1.1358 4.5689 1.7262
v -1.3742 4.5689 2.3336
v -1.9983 4.5689 2.709
v -2.7697 4.5689 2.709
v -3.3938 4.5689 2.3336
v -3.6321 4.5689 1.7262
v -3.3938 4.5689 1.1188
v -2.7697 4.5689 0.7434
v -1.9983 4.5689 0.7434
v -1.3742 4.5689 1.1188
v -1.1358 4.5689 1.7262
v -1.2308 4.3441 1.7262
v -1.4511 4.3441 2.2873
v -2.0276 4.3441 2.6342
v -2.7403 4.3441 2.6342
v -3.3169 4.3441 2.2873
v -3.5371 4.3441 1.7262
v -3.3169 4.3441 1.165
v -2.7403 4.3441 0.8182
v -2.0276 4.3441 0.8182
v -1.4511 4.3441 1.165
v -1.2308 4.3441 1.7262
v -1.5014 4.1535 1.7262
v -1.67 4.1535 2.1557
v -2.1113 4.1535 2.4211
v -2.6567 4.1535 2.4211
v -3.098 4.1535 2.1557
v -3.2666 4.1535 1.7262
v -3.098 4.1535 1.2967
v -2.6567 4.1535 1.0313
v -2.1113 4.1535 1.0313
v -1.67 4.1535 1.2967
v -1.5014 4.1535 1.7262
v -1.9063 4.0261 1.7262
v -1.9976 4.0261 1.9586
v -2.2364 4.0261 2.1023
v -2.5316 4.0261 2.1023
v -2.7704 4.0261 1.9586
v -2.8616 4.0261 1.7262
v -2.7704 4.0261 1.4938
v -2.5316 4.0261 1.3501
v -2.2364 4.0261 1.3501
v -1.9976 4.0261 1.4938
v -1.9063 4.0261 1.7262
v -2.384 3.9814 1.7262
v -2.384 3.9814 1.7262
v -2.384 3.9814 1.7262
v -2.384 3.9814 1.7262
v -2.384 3.9814 1.7262
v -2.384 3.9814 1.7262
v -2.384 3.9814 1.7262
v -2.384 3.9814 1.7262
v -2.384 3.9814 1.7262
v -2.384 3.9814 1.7262
v -2.384 3.9814 1.7262
v -0.1021 4.1919 0.1099
v -0.1017 4.0938 0.0502
v -0.0418 4.0531 -0.0388
v 0.0427 4.0938 -0.1051
v 0.1021 4.1919 -0.1099
v 0.1017 4.29 -0.0502
v 0.0418 4.3306 0.0388
v -0.0427 4.29 0.1051
v -0.6031 4.489 -0.4131
v -0.6028 4.4184 -0.4561
v -0.5596 4.3891 -0.5202
v -0.4988 4.4184 -0.5679
v -0.456 4.489 -0.5714
v -0.4563 4.5597 -0.5284
v -0.4995 4.5889 -0.4643
v -0.5603 4.5597 -0.4166
v 0 4.1919 0
v -0.5295 4.489 -0.4922
v -0.5908 4.489 -0.4263
v -0.587 4.4238 -0.4691
v -0.54 4.4077 -0.5293
v -0.485 4.4528 -0.5616
v -0.4636 4.5252 -0.5417
v -0.4918 4.5704 -0.4845
v -0.5484 4.5543 -0.4332
v -1.6694 5.0932 -1.4634
v -1.6667 5.0462 -1.4941
v -1.6328 5.0346 -1.5375
v -1.5932 5.0671 -1.5608
v -1.5778 5.1193 -1.5464
v -1.5981 5.1518 -1.5053
v -1.6389 5.1402 -1.4683
v -0.5295 4.489 -0.4922
v -1.6253 5.0932 -1.5108
v -1.6253 5.5449 -1.5108
v -1.6253 5.5449 -1.5108
v -1.6253 5.5449 -1.5108
v -1.6253 5.5449 -1.5108
v -1.6253 5.5449 -1.5108
v -1.6253 5.5449 -1.5108
v -1.6253 5.5449 -1.5108
v -1.6253 5.5449 -1.5108
v -1.6253 5.5449 -1.5108
v -1.6253 5.5449 -1.5108
v -1.6253 5.5449 -1.5108
v -1.0995 5.5105 -1.5108
v -1.1999 5.5105 -1.2992
v -1.4628 5.5105 -1.1683
v -1.7877 5.5105 -1.1683
v -2.0506 5.5105 -1.2992
v -2.1511 5.5105 -1.5108
v -2.0506 5.5105 -1.7225
v -1.7877 5.5105 -1.8533
v -1.4628 5.5105 -1.8533
v -1.1999 5.5105 -1.7225
v -1.0995 5.5105 -1.5108
v -0.6537 5.4126 -1.5108
v -0.8393 5.4126 -1.1197
v -1.325 5.4126 -0.878
v -1.9255 5.4126 -0.878
v -2.4113 5.4126 -1.1197
v -2.5968 5.4126 -1.5108
v -2.4113 5.4126 -1.9019
v -1.9255 5.4126 -2.1436
v -1.325 5.4126 -2.1436
v -0.8393 5.4126 -1.9019
v -0.6537 5.4126 -1.5108
v -0.3559 5.266 -1.5108
v -0.5983 5.266 -0.9998
v -1.233 5.266 -0.684
v -2.0175 5.266 -0.684
v -2.6522 5.266 -0.9998
v -2.8947 5.266 -1.5108
v -2.6522 5.266 -2.0218
v -2.0175 5.266 -2.3376
v -1.233 5.266 -2.3376
v -0.5983 5.266 -2.0218
v -0.3559 5.266 -1.5108
v -0.2513 5.0932 -1.5108
v -0.5137 5.0932 -0.9577
v -1.2007 5.0932 -0.6159
v -2.0498 5.0932 -0.6159
v -2.7368 5.0932 -0.9577
v -2.9992 5.0932 -1.5108
v -2.7368 5.0932 -2.0639
v -2.0498 5.0932 -2.4058
v -1.2007 5.0932 -2.4058
v -0.5137 5.0932 -2.0639
v -0.2513 5.0932 -1.5108
v -0.3559 4.9204 -1.5108
v -0.5983 4.9204 -0.9998
v -1.233 4.9204 -0.684
v -2.0175 4.9204 -0.684
v -2.6522 4.9204 -0.9998
v -2.8947 4.9204 -1.5108
v -2.6522 4.9204 -2.0218
v -2.0175 4.9204 -2.3376
v -1.233 4.9204 -2.3376
v -0.5983 4.9204 -2.0218
v -0.3559 4.9204 -1.5108
v -0.6537 4.7739 -1.5108
v -0.8393 4.7739 -1.1197
v -1.325 4.7739 -0.878
v -1.9255 4.7739 -0.878
v -2.4113 4.7739 -1.1197
v -2.5968 4.7739 -1.5108
v -2.4113 4.7739 -1.9019
v -1.9255 4.7739 -2.1436
v -1.325 4.7739 -2.1436
v -0.8393 4.7739 -1.9019
v -0.6537 4.7739 -1.5108
v -1.0995 4.6759 -1.5108
v -1.1999 4.6759 -1.2992
v -1.4628 4.6759 -1.1683
v -1.7877 4.6759 -1.1683
v -2.0506 4.6759 -1.2992
v -2.1511 4.6759 -1.5108
v -2.0506 4.6759 -1.7225
v -1.7877 4.6759 -1.8533
v -1.4628 4.6759 -1.8533
v -1.1999 4.6759 -1.7225
v -1.0995 4.6759 -1.5108
v -1.6253 4.6416 -1.5108
v -1.6253 4.6416 -1.5108
v -1.6253 4.6416 -1.5108
v -1.6253 4.6416 -1.5108
v -1.6253 4.6416 -1.5108
v -1.6253 4.6416 -1.5108
v -1.6253 4.6416 -1.5108
v -1.6253 4.6416 -1.5108
v -1.6253 4.6416 -1.5108
v -1.6253 4.6416 -1.5108
v -1.6253 4.6416 -1.5108
v -0.1356 4.214 -0.0641
v -0.087 4.11 -0.0641
v 0.0125 4.0669 -0.0265
v 0.1047 4.11 0.0266
v 0.1356 4.214 0.0641
v 0.087 4.318 0.0641
v -0.0125 4.3611 0.0265
v -0.1047 4.318 -0.0266
v 0.3266 4.4116 -0.9432
v 0.3616 4.3367 -0.9431
v 0.4333 4.3056 -0.916
v 0.4997 4.3367 -0.8778
v 0.5219 4.4116 -0.8508
v 0.4869 4.4865 -0.8508
v 0.4153 4.5175 -0.8779
v 0.3489 4.4865 -0.9161
v 0 4.214 0
v 0.4243 4.4116 -0.897
v 0.3429 4.4116 -0.9355
v 0.3882 4.3501 -0.9519
v 0.4606 4.3349 -0.9269
v 0.5057 4.3774 -0.8794
v 0.4895 4.4457 -0.8452
v 0.4242 4.4883 -0.8499
v 0.3589 4.4731 -0.8901
v 0.9734 5.201 -2.2094
v 1.006 5.1567 -2.2212
v 1.0581 5.1458 -2.2033
v 1.0906 5.1764 -2.1691
v 1.0789 5.2256 -2.1444
v 1.0319 5.2563 -2.1478
v 0.9849 5.2453 -2.1768
v 0.4243 4.4116 -0.897
v 1.032 5.201 -2.1817
v 1.032 5.7112 -2.1817
v 1.032 5.7112 -2.1817
v 1.032 5.7112 -2.1817
v 1.032 5.7112 -2.1817
v 1.032 5.7112 -2.1817
v 1.032 5.7112 -2.1817
v 1.032 5.7112 -2.1817
v 1.032 5.7112 -2.1817
v 1.032 5.7112 -2.1817
v 1.032 5.7112 -2.1817
v 1.032 5.7112 -2.1817
v 1.4224 5.6724 -2.1817
v 1.3479 5.6724 -1.9733
v 1.1526 5.6724 -1.8445
v 0.9113 5.6724 -1.8445
v 0.7161 5.6724 -1.9733
v 0.6415 5.6724 -2.1817
v 0.7161 5.6724 -2.3902
v 0.9113 5.6724 -2.519
v 1.1526 5.6724 -2.519
v 1.3479 5.6724 -2.3902
v 1.4224 5.6724 -2.1817
v 1.7534 5.5618 -2.1817
v 1.6157 5.5618 -1.7966
v 1.2549 5.5618 -1.5585
v 0.809 5.5618 -1.5585
v 0.4483 5.5618 -1.7966
v 0.3105 5.5618 -2.1817
v 0.4483 5.5618 -2.5669
v 0.809 5.5618 -2.8049
v 1.2549 5.5618 -2.8049
v 1.6157 5.5618 -2.5669
v 1.7534 5.5618 -2.1817
v 1.9746 5.3963 -2.1817
v 1.7946 5.3963 -1.6785
v 1.3233 5.3963 -1.3675
v 0.7407 5.3963 -1.3675
v 0.2693 5.3963 -1.6785
v 0.0893 5.3963 -2.1817
v 0.2693 5.3963 -2.6849
v 0.7407 5.3963 -2.996
v 1.3233 5.3963 -2.996
v 1.7946 5.3963 -2.6849
v 1.9746 5.3963 -2.1817
v 2.0523 5.201 -2.1817
v 1.8574 5.201 -1.637
v 1.3473 5.201 -1.3004
v 0.7167 5.201 -1.3004
v 0.2065 5.201 -1.637
v 0.0116 5.201 -2.1817
v 0.2065 5.201 -2.7264
v 0.7167 5.201 -3.063
v 1.3473 5.201 -3.063
v 1.8574 5.201 -2.7264
v 2.0523 5.201 -2.1817
v 1.9746 5.0058 -2.1817
v 1.7946 5.0058 -1.6785
v 1.3233 5.0058 -1.3675
v 0.7407 5.0058 -1.3675
v 0.2693 5.0058 -1.6785
v 0.0893 5.0058 -2.1817
v 0.2693 5.0058 -2.6849
v 0.7407 5.0058 -2.996
v 1.3233 5.0058 -2.996
v 1.7946 5.0058 -2.6849
v 1.9746 5.0058 -2.1817
v 1.7534 4.8403 -2.1817
v 1.6157 4.8403 -1.7966
v 1.2549 4.8403 -1.5585
v 0.809 4.8403 -1.5585
v 0.4483 4.8403 -1.7966
v 0.3105 4.8403 -2.1817
v 0.4483 4.8403 -2.5669
v 0.809 4.8403 -2.8049
v 1.2549 4.8403 -2.8049
v 1.6157 4.8403 -2.5669
v 1.7534 4.8403 -2.1817
v 1.4224 4.7297 -2.1817
v 1.3479 4.7297 -1.9733
v 1.1526 4.7297 -1.8445
v 0.9113 4.7297 -1.8445
v 0.7161 4.7297 -1.9733
v 0.6415 4.7297 -2.1817
v 0.7161 4.7297 -2.3902
v 0.9113 4.7297 -2.519
v 1.1526 4.7297 -2.519
v 1.3479 4.7297 -2.3902
v 1.4224 4.7297 -2.1817
v 1.032 4.6908 -2.1817
v 1.032 4.6908 -2.1817
v 1.032 4.6908 -2.1817
v 1.032 4.6908 -2.1817
v 1.032 4.6908 -2.1817
v 1.032 4.6908 -2.1817
v 1.032 4.6908 -2.1817
v 1.032 4.6908 -2.1817
v 1.032 4.6908 -2.1817
v 1.032 4.6908 -2.1817
v 1.032 4.6908 -2.1817
vt 0 0
vt 0.09090909090909091 0
vt 0.18181818181818182 0
vt 0.2727272727272727 0
vt 0.36363636363636365 0
vt 0.45454545454545453 0
vt 0.5454545454545454 0
vt 0.6363636363636364 0
vt 0.7272727272727273 0
vt 0.8181818181818182 0
vt 0.9090909090909091 0
vt 0 1
vt 0.09090909090909091 1
vt 0.18181818181818182 1
vt 0.2727272727272727 1
vt 0.36363636363636365 1
vt 0.45454545454545453 1
vt 0.5454545454545454 1
vt 0.6363636363636364 1
vt 0.7272727272727273 1
vt 0.8181818181818182 1
vt 0.9090909090909091 1
vt 0.5 0.5
vt 0.5 0.5
vt 0 0
vt 0.1 0
vt 0.2 0
vt 0.3 0
vt 0.4 0
vt 0.5 0
vt 0.6 0
vt 0.7 0
vt 0.8 0
vt 0.9 0
vt 0 1
vt 0.1 1
vt 0.2 1
vt 0.3 1
vt 0.4 1
vt 0.5 1
vt 0.6 1
vt 0.7 1
vt 0.8 1
vt 0.9 1
vt 0.5 0.5
vt 0.5 0.5
vt 0 0
vt 0.125 0
vt 0.25 0
vt 0.375 0
vt 0.5 0
vt 0.625 0
vt 0.75 0
vt 0.875 0
vt 0 1
vt 0.125 1
vt 0.25 1
vt 0.375 1
vt 0.5 1
vt 0.625 1
vt 0.75 1
vt 0.875 1
vt 0.5 0.5
vt 0.5 0.5
vt 0 0
vt 0.14285714285714285 0
vt 0.2857142857142857 0
vt 0.42857142857142855 0
vt 0.5714285714285714 0
vt 0.7142857142857143 0
vt 0.8571428571428571 0
vt 0 1
vt 0.14285714285714285 1
vt 0.2857142857142857 1
vt 0.42857142857142855 1
vt 0.5714285714285714 1
vt 0.7142857142857143 1
vt 0.8571428571428571 1
vt 0.5 0.5
vt 0.5 0.5
vt 0 0
vt 0.1 0
vt 0.2 0
vt 0.3 0
vt 0.4 0
vt 0.5 0
vt 0.6 0
vt 0.7 0
vt 0.8 0
vt 0.9 0
vt 1 0
vt 0 0.125
vt 0.1 0.125
vt 0.2 0.125
vt 0.3 0.125
vt 0.4 0.125
vt 0.5 0.125
vt 0.6 0.125
vt 0.7 0.125
vt 0.8 0.125
vt 0.9 0.125
vt 1 0.125
vt 0 0.25
vt 0.1 0.25
vt 0.2 0.25
vt 0.3 0.25
vt 0.4 0.25
vt 0.5 0.25
vt 0.6 0.25
vt 0.7 0.25
vt 0.8 0.25
vt 0.9 0.25
vt 1 0.25
vt 0 0.375
vt 0.1 0.375
vt 0.2 0.375
vt 0.3 0.375
vt 0.4 0.375
vt 0.5 0.375
vt 0.6 0.375
vt 0.7 0.375
vt 0.8 0.375
vt 0.9 0.375
vt 1 0.375
vt 0 0.5
vt 0.1 0.5
vt 0.2 0.5
vt 0.3 0.5
vt 0.4 0.5
vt 0.5 0.5
vt 0.6 0.5
vt 0.7 0.5
vt 0.8 0.5
vt 0.9 0.5
vt 1 0.5
vt 0 0.625
vt 0.1 0.625
vt 0.2 0.625
vt 0.3 0.625
vt 0.4 0.625
vt 0.5 0.625
vt 0.6 0.625
vt 0.7 0.625
vt 0.8 0.625
vt 0.9 0.625
vt 1 0.625
vt 0 0.75
vt 0.1 0.75
vt 0.2 0.75
vt 0.3 0.75
vt 0.4 0.75
vt 0.5 0.75
vt 0.6 0.75
vt 0.7 0.75
vt 0.8 0.75
vt 0.9 0.75
vt 1 0.75
vt 0 0.875
vt 0.1 0.875
vt 0.2 0.875
vt 0.3 0.875
vt 0.4 0.875
vt 0.5 0.875
vt 0.6 0.875
vt 0.7 0.875
vt 0.8 0.875
vt 0.9 0.875
vt 1 0.875
vt 0 1
vt 0.1 1
vt 0.2 1
vt 0.3 1
vt 0.4 1
vt 0.5 1
vt 0.6 1
vt 0.7 1
vt 0.8 1
vt 0.9 1
vt 1 1
vt 0 0
vt 0.125 0
vt 0.25 0
vt 0.375 0
vt 0.5 0
vt 0.625 0
vt 0.75 0
vt 0.875 0
vt 0 1
vt 0.125 1
vt 0.25 1
vt 0.375 1
vt 0.5 1
vt 0.625 1
vt 0.75 1
vt 0.875 1
vt 0.5 0.5
vt 0.5 0.5
vt 0 0
vt 0.14285714285714285 0
vt 0.2857142857142857 0
vt 0.42857142857142855 0
vt 0.5714285714285714 0
vt 0.7142857142857143 0
vt 0.8571428571428571 0
vt 0 1
vt 0.14285714285714285 1
vt 0.2857142857142857 1
vt 0.42857142857142855 1
vt 0.5714285714285714 1
vt 0.7142857142857143 1
vt 0.8571428571428571 1
vt 0.5 0.5
vt 0.5 0.5
vt 0 0
vt 0.1 0
vt 0.2 0
vt 0.3 0
vt 0.4 0
vt 0.5 0
vt 0.6 0
vt 0.7 0
vt 0.8 0
vt 0.9 0
vt 1 0
vt 0 0.125
vt 0.1 0.125
vt 0.2 0.125
vt 0.3 0.125
vt 0.4 0.125
vt 0.5 0.125
vt 0.6 0.125
vt 0.7 0.125
vt 0.8 0.125
vt 0.9 0.125
vt 1 0.125
vt 0 0.25
vt 0.1 0.25
vt 0.2 0.25
vt 0.3 0.25
vt 0.4 0.25
vt 0.5 0.25
vt 0.6 0.25
vt 0.7 0.25
vt 0.8 0.25
vt 0.9 0.25
vt 1 0.25
vt 0 0.375
vt 0.1 0.375
vt 0.2 0.375
vt 0.3 0.375
vt 0.4 0.375
vt 0.5 0.375
vt 0.6 0.375
vt 0.7 0.375
vt 0.8 0.375
vt 0.9 0.375
vt 1 0.375
vt 0 0.5
vt 0.1 0.5
vt 0.2 0.5
vt 0.3 0.5
vt 0.4 0.5
vt 0.5 0.5
vt 0.6 0.5
vt 0.7 0.5
vt 0.8 0.5
vt 0.9 0.5
vt 1 0.5
vt 0 0.625
vt 0.1 0.625
vt 0.2 0.625
vt 0.3 0.625
vt 0.4 0.625
vt 0.5 0.625
vt 0.6 0.625
vt 0.7 0.625
vt 0.8 0.625
vt 0.9 0.625
vt 1 0.625
vt 0 0.75
vt 0.1 0.75
vt 0.2 0.75
vt 0.3 0.75
vt 0.4 0.75
vt 0.5 0.75
vt 0.6 0.75
vt 0.7 0.75
vt 0.8 0.75
vt 0.9 0.75
vt 1 0.75
vt 0 0.875
vt 0.1 0.875
vt 0.2 0.875
vt 0.3 0.875
vt 0.4 0.875
vt 0.5 0.875
vt 0.6 0.875
vt 0.7 0.875
vt 0.8 0.875
vt 0.9 0.875
vt 1 0.875
vt 0 1
vt 0.1 1
vt 0.2 1
vt 0.3 1
vt 0.4 1
vt 0.5 1
vt 0.6 1
vt 0.7 1
vt 0.8 1
vt 0.9 1
vt 1 1
vt 0 0
vt 0.125 0
vt 0.25 0
vt 0.375 0
vt 0.5 0
vt 0.625 0
vt 0.75 0
vt 0.875 0
vt 0 1
vt 0.125 1
vt 0.25 1
vt 0.375 1
vt 0.5 1
vt 0.625 1
vt 0.75 1
vt 0.875 1
vt 0.5 0.5
vt 0.5 0.5
vt 0 0
vt 0.14285714285714285 0
vt 0.2857142857142857 0
vt 0.42857142857142855 0
vt 0.5714285714285714 0
vt 0.7142857142857143 0
vt 0.8571428571428571 0
vt 0 1
vt 0.14285714285714285 1
vt 0.2857142857142857 1
vt 0.42857142857142855 1
vt 0.5714285714285714 1
vt 0.7142857142857143 1
vt 0.8571428571428571 1
vt 0.5 0.5
vt 0.5 0.5
vt 0 0
vt 0.1 0
vt 0.2 0
vt 0.3 0
vt 0.4 0
vt 0.5 0
vt 0.6 0
vt 0.7 0
vt 0.8 0
vt 0.9 0
vt 1 0
vt 0 0.125
vt 0.1 0.125
vt 0.2 0.125
vt 0.3 0.125
vt 0.4 0.125
vt 0.5 0.125
vt 0.6 0.125
vt 0.7 0.125
vt 0.8 0.125
vt 0.9 0.125
vt 1 0.125
vt 0 0.25
vt 0.1 0.25
vt 0.2 0.25
vt 0.3 0.25
vt 0.4 0.25
vt 0.5 0.25
vt 0.6 0.25
vt 0.7 0.25
vt 0.8 0.25
vt 0.9 0.25
vt 1 0.25
vt 0 0.375
vt 0.1 0.375
vt 0.2 0.375
vt 0.3 0.375
vt 0.4 0.375
vt 0.5 0.375
vt 0.6 0.375
vt 0.7 0.375
vt 0.8 0.375
vt 0.9 0.375
vt 1 0.375
vt 0 0.5
vt 0.1 0.5
vt 0.2 0.5
vt 0.3 0.5
vt 0.4 0.5
vt 0.5 0.5
vt 0.6 0.5
vt 0.7 0.5
vt 0.8 0.5
vt 0.9 0.5
vt 1 0.5
vt 0 0.625
vt 0.1 0.625
vt 0.2 0.625
vt 0.3 0.625
vt 0.4 0.625
vt 0.5 0.625
vt 0.6 0.625
vt 0.7 0.625
vt 0.8 0.625
vt 0.9 0.625
vt 1 0.625
vt 0 0.75
vt 0.1 0.75
vt 0.2 0.75
vt 0.3 0.75
vt 0.4 0.75
vt 0.5 0.75
vt 0.6 0.75
vt 0.7 0.75
vt 0.8 0.75
vt 0.9 0.75
vt 1 0.75
vt 0 0.875
vt 0.1 0.875
vt 0.2 0.875
vt 0.3 0.875
vt 0.4 0.875
vt 0.5 0.875
vt 0.6 0.875
vt 0.7 0.875
vt 0.8 0.875
vt 0.9 0.875
vt 1 0.875
vt 0 1
vt 0.1 1
vt 0.2 1
vt 0.3 1
vt 0.4 1
vt 0.5 1
vt 0.6 1
vt 0.7 1
vt 0.8 1
vt 0.9 1
vt 1 1
vt 0 0
vt 0.125 0
vt 0.25 0
vt 0.375 0
vt 0.5 0
vt 0.625 0
vt 0.75 0
vt 0.875 0
vt 0 1
vt 0.125 1
vt 0.25 1
vt 0.375 1
vt 0.5 1
vt 0.625 1
vt 0.75 1
vt 0.875 1
vt 0.5 0.5
vt 0.5 0.5
vt 0 0
vt 0.14285714285714285 0
vt 0.2857142857142857 0
vt 0.42857142857142855 0
vt 0.5714285714285714 0
vt 0.7142857142857143 0
vt 0.8571428571428571 0
vt 0 1
vt 0.14285714285714285 1
vt 0.2857142857142857 1
vt 0.42857142857142855 1
vt 0.5714285714285714 1
vt 0.7142857142857143 1
vt 0.8571428571428571 1
vt 0.5 0.5
vt 0.5 0.5
vt 0 0
vt 0.1 0
vt 0.2 0
vt 0.3 0
vt 0.4 0
vt 0.5 0
vt 0.6 0
vt 0.7 0
vt 0.8 0
vt 0.9 0
vt 1 0
vt 0 0.125
vt 0.1 0.125
vt 0.2 0.125
vt 0.3 0.125
vt 0.4 0.125
vt 0.5 0.125
vt 0.6 0.125
vt 0.7 0.125
vt 0.8 0.125
vt 0.9 0.125
vt 1 0.125
vt 0 0.25
vt 0.1 0.25
vt 0.2 0.25
vt 0.3 0.25
vt 0.4 0.25
vt 0.5 0.25
vt 0.6 0.25
vt 0.7 0.25
vt 0.8 0.25
vt 0.9 0.25
vt 1 0.25
vt 0 0.375
vt 0.1 0.375
vt 0.2 0.375
vt 0.3 0.375
vt 0.4 0.375
vt 0.5 0.375
vt 0.6 0.375
vt 0.7 0.375
vt 0.8 0.375
vt 0.9 0.375
vt 1 0.375
vt 0 0.5
vt 0.1 0.5
vt 0.2 0.5
vt 0.3 0.5
vt 0.4 0.5
vt 0.5 0.5
vt 0.6 0.5
vt 0.7 0.5
vt 0.8 0.5
vt 0.9 0.5
vt 1 0.5
vt 0 0.625
vt 0.1 0.625
vt 0.2 0.625
vt 0.3 0.625
vt 0.4 0.625
vt 0.5 0.625
vt 0.6 0.625
vt 0.7 0.625
vt 0.8 0.625
vt 0.9 0.625
vt 1 0.625
vt 0 0.75
vt 0.1 0.75
vt 0.2 0.75
vt 0.3 0.75
vt 0.4 0.75
vt 0.5 0.75
vt 0.6 0.75
vt 0.7 0.75
vt 0.8 0.75
vt 0.9 0.75
vt 1 0.75
vt 0 0.875
vt 0.1 0.875
vt 0.2 0.875
vt 0.3 0.875
vt 0.4 0.875
vt 0.5 0.875
vt 0.6 0.875
vt 0.7 0.875
vt 0.8 0.875
vt 0.9 0.875
vt 1 0.875
vt 0 1
vt 0.1 1
vt 0.2 1
vt 0.3 1
vt 0.4 1
vt 0.5 1
vt 0.6 1
vt 0.7 1
vt 0.8 1
vt 0.9 1
vt 1 1
vt 0 0
vt 0.125 0
vt 0.25 0
vt 0.375 0
vt 0.5 0
vt 0.625 0
vt 0.75 0
vt 0.875 0
vt 0 1
vt 0.125 1
vt 0.25 1
vt 0.375 1
vt 0.5 1
vt 0.625 1
vt 0.75 1
vt 0.875 1
vt 0.5 0.5
vt 0.5 0.5
vt 0 0
vt 0.14285714285714285 0
vt 0.2857142857142857 0
vt 0.42857142857142855 0
vt 0.5714285714285714 0
vt 0.7142857142857143 0
vt 0.8571428571428571 0
vt 0 1
vt 0.14285714285714285 1
vt 0.2857142857142857 1
vt 0.42857142857142855 1
vt 0.5714285714285714 1
vt 0.7142857142857143 1
vt 0.8571428571428571 1
vt 0.5 0.5
vt 0.5 0.5
vt 0 0
vt 0.1 0
vt 0.2 0
vt 0.3 0
vt 0.4 0
vt 0.5 0
vt 0.6 0
vt 0.7 0
vt 0.8 0
vt 0.9 0
vt 1 0
vt 0 0.125
vt 0.1 0.125
vt 0.2 0.125
vt 0.3 0.125
vt 0.4 0.125
vt 0.5 0.125
vt 0.6 0.125
vt 0.7 0.125
vt 0.8 0.125
vt 0.9 0.125
vt 1 0.125
vt 0 0.25
vt 0.1 0.25
vt 0.2 0.25
vt 0.3 0.25
vt 0.4 0.25
vt 0.5 0.25
vt 0.6 0.25
vt 0.7 0.25
vt 0.8 0.25
vt 0.9 0.25
vt 1 0.25
vt 0 0.375
vt 0.1 0.375
vt 0.2 0.375
vt 0.3 0.375
vt 0.4 0.375
vt 0.5 0.375
vt 0.6 0.375
vt 0.7 0.375
vt 0.8 0.375
vt 0.9 0.375
vt 1 0.375
vt 0 0.5
vt 0.1 0.5
vt 0.2 0.5
vt 0.3 0.5
vt 0.4 0.5
vt 0.5 0.5
vt 0.6 0.5
vt 0.7 0.5
vt 0.8 0.5
vt 0.9 0.5
vt 1 0.5
vt 0 0.625
vt 0.1 0.625
vt 0.2 0.625
vt 0.3 0.625
vt 0.4 0.625
vt 0.5 0.625
vt 0.6 0.625
vt 0.7 0.625
vt 0.8 0.625
vt 0.9 0.625
vt 1 0.625
vt 0 0.75
vt 0.1 0.75
vt 0.2 0.75
vt 0.3 0.75
vt 0.4 0.75
vt 0.5 0.75
vt 0.6 0.75
vt 0.7 0.75
vt 0.8 0.75
vt 0.9 0.75
vt 1 0.75
vt 0 0.875
vt 0.1 0.875
vt 0.2 0.875
vt 0.3 0.875
vt 0.4 0.875
vt 0.5 0.875
vt 0.6 0.875
vt 0.7 0.875
vt 0.8 0.875
vt 0.9 0.875
vt 1 0.875
vt 0 1
vt 0.1 1
vt 0.2 1
vt 0.3 1
vt 0.4 1
vt 0.5 1
vt 0.6 1
vt 0.7 1
vt 0.8 1
vt 0.9 1
vt 1 1
vn 0 -1 0
vn 0 -1 0
vn 0 -1 0
vn 0 -1 0
vn 0 -1 0
vn 0 -1 0
vn 0 -1 0
vn 0 -1 0
vn 0 -1 0
vn 0 -1 0
vn 0 -1 0
vn 0 1 0
vn 0 1 0
vn 0 1 0
vn 0 1 0
vn 0 1 0
vn 0 1 0
vn 0 1 0
vn 0 1 0
vn 0 1 0
vn 0 1 0
vn 0 1 0
vn 0 -1 0
vn 0 1 0
vn 0 -1 0
vn 0 -1 0
vn 0 -1 0
vn 0 -1 0
vn 0 -1 0
vn 0 -1 0
vn 0 -1 0
vn 0 -1 0
vn 0 -1 0
vn 0 -1 0
vn 0 1 0
vn 0 1 0
vn 0 1 0
vn 0 1 0
vn 0 1 0
vn 0 1 0
vn 0 1 0
vn 0 1 0
vn 0 1 0
vn 0 1 0
vn 0 -1 0
vn 0 1 0
vn 0 -1 0
vn 0 -1 0
vn 0 -1 0
vn 0 -1 0
vn 0 -1 0
vn 0 -1 0
vn 0 -1 0
vn 0 -1 0
vn 0 1 0
vn 0 1 0
vn 0 1 0
vn 0 1 0
vn 0 1 0
vn 0 1 0
vn 0 1 0
vn 0 1 0
vn 0 -1 0
vn 0 1 0
vn 0 -1 0
vn 0 -1 0
vn 0 -1 0
vn 0 -1 0
vn 0 -1 0
vn 0 -1 0
vn 0 -1 0
vn 0 1 0
vn 0 1 0
vn 0 1 0
vn 0 1 0
vn 0 1 0
vn 0 1 0
vn 0 1 0
vn 0 -1 0
vn 0 1 0
vn 0 1 0
vn 0 1 0
vn 0 1 0
vn 0 1 0
vn 0 1 0
vn 0 1 0
vn 0 1 0
vn 0 1 0
vn 0 1 0
vn 0 1 0
vn 0 1 0
vn 0.3826834323650898 0.9238795325112866 0
vn 0.30959740024909344 0.9238795325112866 0.22493567784086388
vn 0.11825568406654854 0.9238795325112866 0.3639535720290143
vn -0.11825568406654849 0.9238795325112866 0.36395357202901435
vn -0.3095974002490934 0.9238795325112866 0.2249356778408639
vn -0.3826834323650898 0.9238795325112866 4.6865204053262986e-17
vn -0.30959740024909344 0.9238795325112866 -0.22493567784086382
vn -0.11825568406654859 0.9238795325112866 -0.3639535720290143
vn 0.11825568406654845 0.9238795325112866 -0.36395357202901435
vn 0.3095974002490934 0.9238795325112866 -0.22493567784086396
vn 0.3826834323650898 0.9238795325112866 -9.373040810652597e-17
vn 0.7071067811865475 0.7071067811865476 0
vn 0.5720614028176843 0.7071067811865476 0.4156269377774534
vn 0.21850801222441057 0.7071067811865476 0.6724985119639573
vn -0.2185080122244105 0.7071067811865476 0.6724985119639573
vn -0.5720614028176841 0.7071067811865476 0.41562693777745346
vn -0.7071067811865475 0.7071067811865476 8.659560562354932e-17
vn -0.5720614028176843 0.7071067811865476 -0.4156269377774533
vn -0.2185080122244106 0.7071067811865476 -0.6724985119639573
vn 0.2185080122244104 0.7071067811865476 -0.6724985119639573
vn 0.5720614028176841 0.7071067811865476 -0.4156269377774536
vn 0.7071067811865475 0.7071067811865476 -1.7319121124709863e-16
vn 0.9238795325112866 0.38268343236508984 0
vn 0.7474342425568128 0.38268343236508984 0.5430427641049989
vn 0.28549447630116936 0.38268343236508984 0.8786616496665793
vn -0.28549447630116925 0.38268343236508984 0.8786616496665796
vn -0.7474342425568127 0.38268343236508984 0.543042764104999
vn -0.9238795325112866 0.38268343236508984 1.1314261122877003e-16
vn -0.7474342425568128 0.38268343236508984 -0.5430427641049987
vn -0.2854944763011695 0.38268343236508984 -0.8786616496665793
vn 0.28549447630116914 0.38268343236508984 -0.8786616496665796
vn 0.7474342425568127 0.38268343236508984 -0.543042764104999
vn 0.9238795325112866 0.38268343236508984 -2.2628522245754005e-16
vn 1 6.123233995736766e-17 0
vn 0.8090169943749475 6.123233995736766e-17 0.5877852522924731
vn 0.30901699437494745 6.123233995736766e-17 0.9510565162951535
vn -0.30901699437494734 6.123233995736766e-17 0.9510565162951536
vn -0.8090169943749472 6.123233995736766e-17 0.5877852522924732
vn -1 6.123233995736766e-17 1.2246467991473532e-16
vn -0.8090169943749475 6.123233995736766e-17 -0.587785252292473
vn -0.30901699437494756 6.123233995736766e-17 -0.9510565162951535
vn 0.30901699437494723 6.123233995736766e-17 -0.9510565162951536
vn 0.8090169943749472 6.123233995736766e-17 -0.5877852522924734
vn 1 6.123233995736766e-17 -2.4492935982947064e-16
vn 0.9238795325112866 -0.3826834323650897 0
vn 0.7474342425568128 -0.3826834323650897 0.5430427641049989
vn 0.28549447630116936 -0.3826834323650897 0.8786616496665793
vn -0.28549447630116925 -0.3826834323650897 0.8786616496665796
vn -0.7474342425568127 -0.3826834323650897 0.543042764104999
vn -0.9238795325112866 -0.3826834323650897 1.1314261122877003e-16
vn -0.7474342425568128 -0.3826834323650897 -0.5430427641049987
vn -0.2854944763011695 -0.3826834323650897 -0.8786616496665793
vn 0.28549447630116914 -0.3826834323650897 -0.8786616496665796
vn 0.7474342425568127 -0.3826834323650897 -0.543042764104999
vn 0.9238795325112866 -0.3826834323650897 -2.2628522245754005e-16
vn 0.7071067811865476 -0.7071067811865475 0
vn 0.5720614028176844 -0.7071067811865475 0.41562693777745346
vn 0.21850801222441057 -0.7071067811865475 0.6724985119639574
vn -0.2185080122244105 -0.7071067811865475 0.6724985119639574
vn -0.5720614028176843 -0.7071067811865475 0.4156269377774535
vn -0.7071067811865476 -0.7071067811865475 8.659560562354934e-17
vn -0.5720614028176844 -0.7071067811865475 -0.4156269377774534
vn -0.21850801222441066 -0.7071067811865475 -0.6724985119639574
vn 0.2185080122244104 -0.7071067811865475 -0.6724985119639574
vn 0.5720614028176843 -0.7071067811865475 -0.41562693777745363
vn 0.7071067811865476 -0.7071067811865475 -1.7319121124709868e-16
vn 0.3826834323650899 -0.9238795325112866 0
vn 0.3095974002490935 -0.9238795325112866 0.22493567784086393
vn 0.11825568406654859 -0.9238795325112866 0.3639535720290144
vn -0.11825568406654854 -0.9238795325112866 0.36395357202901446
vn -0.3095974002490935 -0.9238795325112866 0.224935677840864
vn -0.3826834323650899 -0.9238795325112866 4.6865204053263e-17
vn -0.3095974002490935 -0.9238795325112866 -0.2249356778408639
vn -0.11825568406654863 -0.9238795325112866 -0.3639535720290144
vn 0.11825568406654849 -0.9238795325112866 -0.36395357202901446
vn 0.3095974002490935 -0.9238795325112866 -0.22493567784086402
vn 0.3826834323650899 -0.9238795325112866 -9.3730408106526e-17
vn 1.2246467991473532e-16 -1 0
vn 9.907600726170916e-17 -1 7.198293278059966e-17
vn 3.7843667304341506e-17 -1 1.1647083184890923e-16
vn -3.7843667304341493e-17 -1 1.1647083184890926e-16
vn -9.907600726170916e-17 -1 7.198293278059968e-17
vn -1.2246467991473532e-16 -1 1.4997597826618576e-32
vn -9.907600726170916e-17 -1 -7.198293278059965e-17
vn -3.784366730434152e-17 -1 -1.1647083184890923e-16
vn 3.7843667304341475e-17 -1 -1.1647083184890926e-16
vn 9.907600726170916e-17 -1 -7.19829327805997e-17
vn 1.2246467991473532e-16 -1 -2.999519565323715e-32
vn 0 -1 0
vn 0 -1 0
vn 0 -1 0
vn 0 -1 0
vn 0 -1 0
vn 0 -1 0
vn 0 -1 0
vn 0 -1 0
vn 0 1 0
vn 0 1 0
vn 0 1 0
vn 0 1 0
vn 0 1 0
vn 0 1 0
vn 0 1 0
vn 0 1 0
vn 0 -1 0
vn 0 1 0
vn 0 -1 0
vn 0 -1 0
vn 0 -1 0
vn 0 -1 0
vn 0 -1 0
vn 0 -1 0
vn 0 -1 0
vn 0 1 0
vn 0 1 0
vn 0 1 0
vn 0 1 0
vn 0 1 0
vn 0 1 0
vn 0 1 0
vn 0 -1 0
vn 0 1 0
vn 0 1 0
vn 0 1 0
vn 0 1 0
vn 0 1 0
vn 0 1 0
vn 0 1 0
vn 0 1 0
vn 0 1 0
vn 0 1 0
vn 0 1 0
vn 0 1 0
vn 0.3826834323650898 0.9238795325112867 0
vn 0.30959740024909344 0.9238795325112867 0.22493567784086388
vn 0.11825568406654853 0.9238795325112867 0.3639535720290143
vn -0.11825568406654849 0.9238795325112867 0.36395357202901435
vn -0.3095974002490934 0.9238795325112867 0.2249356778408639
vn -0.3826834323650898 0.9238795325112867 4.6865204053262986e-17
vn -0.30959740024909344 0.9238795325112867 -0.22493567784086382
vn -0.11825568406654857 0.9238795325112867 -0.3639535720290143
vn 0.11825568406654845 0.9238795325112867 -0.36395357202901435
vn 0.3095974002490934 0.9238795325112867 -0.22493567784086396
vn 0.3826834323650898 0.9238795325112867 -9.373040810652597e-17
vn 0.7071067811865475 0.7071067811865475 0
vn 0.5720614028176843 0.7071067811865475 0.4156269377774534
vn 0.21850801222441055 0.7071067811865475 0.6724985119639573
vn -0.21850801222441046 0.7071067811865475 0.6724985119639573
vn -0.5720614028176841 0.7071067811865475 0.41562693777745346
vn -0.7071067811865475 0.7071067811865475 8.659560562354932e-17
vn -0.5720614028176843 0.7071067811865475 -0.4156269377774533
vn -0.2185080122244106 0.7071067811865475 -0.6724985119639573
vn 0.2185080122244104 0.7071067811865475 -0.6724985119639573
vn 0.5720614028176841 0.7071067811865475 -0.4156269377774536
vn 0.7071067811865475 0.7071067811865475 -1.7319121124709863e-16
vn 0.9238795325112866 0.38268343236508984 0
vn 0.7474342425568128 0.38268343236508984 0.5430427641049989
vn 0.28549447630116936 0.38268343236508984 0.8786616496665794
vn -0.28549447630116925 0.38268343236508984 0.8786616496665796
vn -0.7474342425568126 0.38268343236508984 0.543042764104999
vn -0.9238795325112866 0.38268343236508984 1.1314261122877003e-16
vn -0.7474342425568128 0.38268343236508984 -0.5430427641049987
vn -0.2854944763011695 0.38268343236508984 -0.8786616496665794
vn 0.28549447630116914 0.38268343236508984 -0.8786616496665796
vn 0.7474342425568126 0.38268343236508984 -0.543042764104999
vn 0.9238795325112866 0.38268343236508984 -2.2628522245754005e-16
vn 1 6.123233995736766e-17 0
vn 0.8090169943749473 6.123233995736766e-17 0.5877852522924731
vn 0.30901699437494745 6.123233995736766e-17 0.9510565162951535
vn -0.30901699437494734 6.123233995736766e-17 0.9510565162951535
vn -0.8090169943749473 6.123233995736766e-17 0.5877852522924732
vn -1 6.123233995736766e-17 1.2246467991473532e-16
vn -0.8090169943749473 6.123233995736766e-17 -0.587785252292473
vn -0.30901699437494756 6.123233995736766e-17 -0.9510565162951535
vn 0.30901699437494723 6.123233995736766e-17 -0.9510565162951535
vn 0.8090169943749473 6.123233995736766e-17 -0.5877852522924734
vn 1 6.123233995736766e-17 -2.4492935982947064e-16
vn 0.9238795325112866 -0.3826834323650898 0
vn 0.7474342425568128 -0.3826834323650898 0.5430427641049989
vn 0.28549447630116936 -0.3826834323650898 0.8786616496665794
vn -0.28549447630116925 -0.3826834323650898 0.8786616496665796
vn -0.7474342425568126 -0.3826834323650898 0.543042764104999
vn -0.9238795325112866 -0.3826834323650898 1.1314261122877003e-16
vn -0.7474342425568128 -0.3826834323650898 -0.5430427641049987
vn -0.2854944763011695 -0.3826834323650898 -0.8786616496665794
vn 0.28549447630116914 -0.3826834323650898 -0.8786616496665796
vn 0.7474342425568126 -0.3826834323650898 -0.543042764104999
vn 0.9238795325112866 -0.3826834323650898 -2.2628522245754005e-16
vn 0.7071067811865476 -0.7071067811865475 0
vn 0.5720614028176844 -0.7071067811865475 0.41562693777745346
vn 0.21850801222441055 -0.7071067811865475 0.6724985119639574
vn -0.21850801222441046 -0.7071067811865475 0.6724985119639574
vn -0.5720614028176843 -0.7071067811865475 0.4156269377774535
vn -0.7071067811865476 -0.7071067811865475 8.659560562354934e-17
vn -0.5720614028176844 -0.7071067811865475 -0.4156269377774534
vn -0.21850801222441063 -0.7071067811865475 -0.6724985119639574
vn 0.2185080122244104 -0.7071067811865475 -0.6724985119639574
vn 0.5720614028176843 -0.7071067811865475 -0.41562693777745363
vn 0.7071067811865476 -0.7071067811865475 -1.7319121124709868e-16
vn 0.3826834323650899 -0.9238795325112867 0
vn 0.3095974002490935 -0.9238795325112867 0.22493567784086393
vn 0.11825568406654857 -0.9238795325112867 0.3639535720290144
vn -0.11825568406654853 -0.9238795325112867 0.36395357202901446
vn -0.3095974002490935 -0.9238795325112867 0.224935677840864
vn -0.3826834323650899 -0.9238795325112867 4.6865204053263e-17
vn -0.3095974002490935 -0.9238795325112867 -0.2249356778408639
vn -0.11825568406654861 -0.9238795325112867 -0.3639535720290144
vn 0.11825568406654849 -0.9238795325112867 -0.36395357202901446
vn 0.3095974002490935 -0.9238795325112867 -0.22493567784086402
vn 0.3826834323650899 -0.9238795325112867 -9.3730408106526e-17
vn 1.2246467991473532e-16 -1 0
vn 9.907600726170915e-17 -1 7.198293278059966e-17
vn 3.7843667304341506e-17 -1 1.1647083184890923e-16
vn -3.7843667304341493e-17 -1 1.1647083184890926e-16
vn -9.907600726170915e-17 -1 7.198293278059968e-17
vn -1.2246467991473532e-16 -1 1.4997597826618576e-32
vn -9.907600726170915e-17 -1 -7.198293278059965e-17
vn -3.784366730434152e-17 -1 -1.1647083184890923e-16
vn 3.7843667304341475e-17 -1 -1.1647083184890926e-16
vn 9.907600726170915e-17 -1 -7.19829327805997e-17
vn 1.2246467991473532e-16 -1 -2.999519565323715e-32
vn 0 -1 0
vn 0 -1 0
vn 0 -1 0
vn 0 -1 0
vn 0 -1 0
vn 0 -1 0
vn 0 -1 0
vn 0 -1 0
vn 0 1 0
vn 0 1 0
vn 0 1 0
vn 0 1 0
vn 0 1 0
vn 0 1 0
vn 0 1 0
vn 0 1 0
vn 0 -1 0
vn 0 1 0
vn 0 -1 0
vn 0 -1 0
vn 0 -1 0
vn 0 -1 0
vn 0 -1 0
vn 0 -1 0
vn 0 -1 0
vn 0 1 0
vn 0 1 0
vn 0 1 0
vn 0 1 0
vn 0 1 0
vn 0 1 0
vn 0 1 0
vn 0 -1 0
vn 0 1 0
vn 0 1 0
vn 0 1 0
vn 0 1 0
vn 0 1 0
vn 0 1 0
vn 0 1 0
vn 0 1 0
vn 0 1 0
vn 0 1 0
vn 0 1 0
vn 0 1 0
vn 0.3826834323650898 0.9238795325112867 0
vn 0.30959740024909344 0.9238795325112867 0.22493567784086388
vn 0.11825568406654853 0.9238795325112867 0.3639535720290143
vn -0.11825568406654849 0.9238795325112867 0.36395357202901435
vn -0.3095974002490934 0.9238795325112867 0.2249356778408639
vn -0.3826834323650898 0.9238795325112867 4.6865204053262986e-17
vn -0.30959740024909344 0.9238795325112867 -0.22493567784086382
vn -0.11825568406654857 0.9238795325112867 -0.3639535720290143
vn 0.11825568406654845 0.9238795325112867 -0.36395357202901435
vn 0.3095974002490934 0.9238795325112867 -0.22493567784086396
vn 0.3826834323650898 0.9238795325112867 -9.373040810652597e-17
vn 0.7071067811865475 0.7071067811865476 0
vn 0.5720614028176843 0.7071067811865476 0.4156269377774534
vn 0.21850801222441055 0.7071067811865476 0.6724985119639573
vn -0.21850801222441044 0.7071067811865476 0.6724985119639573
vn -0.5720614028176841 0.7071067811865476 0.41562693777745346
vn -0.7071067811865475 0.7071067811865476 8.659560562354932e-17
vn -0.5720614028176843 0.7071067811865476 -0.4156269377774533
vn -0.21850801222441063 0.7071067811865476 -0.6724985119639573
vn 0.2185080122244104 0.7071067811865476 -0.6724985119639573
vn 0.5720614028176841 0.7071067811865476 -0.4156269377774536
vn 0.7071067811865475 0.7071067811865476 -1.7319121124709863e-16
vn 0.9238795325112866 0.38268343236508984 0
vn 0.7474342425568128 0.38268343236508984 0.5430427641049989
vn 0.28549447630116936 0.38268343236508984 0.8786616496665794
vn -0.28549447630116925 0.38268343236508984 0.8786616496665796
vn -0.7474342425568127 0.38268343236508984 0.543042764104999
vn -0.9238795325112866 0.38268343236508984 1.1314261122877003e-16
vn -0.7474342425568128 0.38268343236508984 -0.5430427641049987
vn -0.2854944763011695 0.38268343236508984 -0.8786616496665794
vn 0.28549447630116914 0.38268343236508984 -0.8786616496665796
vn 0.7474342425568127 0.38268343236508984 -0.543042764104999
vn 0.9238795325112866 0.38268343236508984 -2.2628522245754005e-16
vn 1 6.123233995736766e-17 0
vn 0.8090169943749473 6.123233995736766e-17 0.5877852522924731
vn 0.30901699437494745 6.123233995736766e-17 0.9510565162951535
vn -0.30901699437494734 6.123233995736766e-17 0.9510565162951536
vn -0.8090169943749473 6.123233995736766e-17 0.5877852522924732
vn -1 6.123233995736766e-17 1.2246467991473532e-16
vn -0.8090169943749473 6.123233995736766e-17 -0.587785252292473
vn -0.30901699437494756 6.123233995736766e-17 -0.9510565162951535
vn 0.30901699437494723 6.123233995736766e-17 -0.9510565162951536
vn 0.8090169943749473 6.123233995736766e-17 -0.5877852522924734
vn 1 6.123233995736766e-17 -2.4492935982947064e-16
vn 0.9238795325112866 -0.3826834323650897 0
vn 0.7474342425568128 -0.3826834323650897 0.5430427641049989
vn 0.28549447630116936 -0.3826834323650897 0.8786616496665794
vn -0.28549447630116925 -0.3826834323650897 0.8786616496665796
vn -0.7474342425568127 -0.3826834323650897 0.543042764104999
vn -0.9238795325112866 -0.3826834323650897 1.1314261122877003e-16
vn -0.7474342425568128 -0.3826834323650897 -0.5430427641049987
vn -0.2854944763011695 -0.3826834323650897 -0.8786616496665794
vn 0.28549447630116914 -0.3826834323650897 -0.8786616496665796
vn 0.7474342425568127 -0.3826834323650897 -0.543042764104999
vn 0.9238795325112866 -0.3826834323650897 -2.2628522245754005e-16
vn 0.7071067811865476 -0.7071067811865475 0
vn 0.5720614028176844 -0.7071067811865475 0.41562693777745346
vn 0.21850801222441057 -0.7071067811865475 0.6724985119639574
vn -0.2185080122244105 -0.7071067811865475 0.6724985119639574
vn -0.5720614028176843 -0.7071067811865475 0.4156269377774535
vn -0.7071067811865476 -0.7071067811865475 8.659560562354934e-17
vn -0.5720614028176844 -0.7071067811865475 -0.4156269377774534
vn -0.21850801222441066 -0.7071067811865475 -0.6724985119639574
vn 0.2185080122244104 -0.7071067811865475 -0.6724985119639574
vn 0.5720614028176843 -0.7071067811865475 -0.41562693777745363
vn 0.7071067811865476 -0.7071067811865475 -1.7319121124709868e-16
vn 0.3826834323650899 -0.9238795325112867 0
vn 0.3095974002490935 -0.9238795325112867 0.22493567784086393
vn 0.11825568406654857 -0.9238795325112867 0.3639535720290144
vn -0.11825568406654853 -0.9238795325112867 0.36395357202901446
vn -0.3095974002490935 -0.9238795325112867 0.224935677840864
vn -0.3826834323650899 -0.9238795325112867 4.6865204053263e-17
vn -0.3095974002490935 -0.9238795325112867 -0.2249356778408639
vn -0.11825568406654861 -0.9238795325112867 -0.3639535720290144
vn 0.11825568406654849 -0.9238795325112867 -0.36395357202901446
vn 0.3095974002490935 -0.9238795325112867 -0.22493567784086402
vn 0.3826834323650899 -0.9238795325112867 -9.3730408106526e-17
vn 1.2246467991473532e-16 -1 0
vn 9.907600726170916e-17 -1 7.198293278059966e-17
vn 3.7843667304341506e-17 -1 1.1647083184890923e-16
vn -3.7843667304341493e-17 -1 1.1647083184890926e-16
vn -9.907600726170914e-17 -1 7.198293278059968e-17
vn -1.2246467991473532e-16 -1 1.4997597826618576e-32
vn -9.907600726170916e-17 -1 -7.198293278059965e-17
vn -3.784366730434152e-17 -1 -1.1647083184890923e-16
vn 3.7843667304341475e-17 -1 -1.1647083184890926e-16
vn 9.907600726170914e-17 -1 -7.19829327805997e-17
vn 1.2246467991473532e-16 -1 -2.999519565323715e-32
vn 0 -1 0
vn 0 -1 0
vn 0 -1 0
vn 0 -1 0
vn 0 -1 0
vn 0 -1 0
vn 0 -1 0
vn 0 -1 0
vn 0 1 0
vn 0 1 0
vn 0 1 0
vn 0 1 0
vn 0 1 0
vn 0 1 0
vn 0 1 0
vn 0 1 0
vn 0 -1 0
vn 0 1 0
vn 0 -1 0
vn 0 -1 0
vn 0 -1 0
vn 0 -1 0
vn 0 -1 0
vn 0 -1 0
vn 0 -1 0
vn 0 1 0
vn 0 1 0
vn 0 1 0
vn 0 1 0
vn 0 1 0
vn 0 1 0
vn 0 1 0
vn 0 -1 0
vn 0 1 0
vn 0 1 0
vn 0 1 0
vn 0 1 0
vn 0 1 0
vn 0 1 0
vn 0 1 0
vn 0 1 0
vn 0 1 0
vn 0 1 0
vn 0 1 0
vn 0 1 0
vn 0.3826834323650898 0.9238795325112867 0
vn 0.30959740024909344 0.9238795325112867 0.22493567784086388
vn 0.11825568406654853 0.9238795325112867 0.3639535720290143
vn -0.11825568406654849 0.9238795325112867 0.36395357202901435
vn -0.3095974002490934 0.9238795325112867 0.2249356778408639
vn -0.3826834323650898 0.9238795325112867 4.6865204053262986e-17
vn -0.30959740024909344 0.9238795325112867 -0.22493567784086382
vn -0.11825568406654857 0.9238795325112867 -0.3639535720290143
vn 0.11825568406654845 0.9238795325112867 -0.36395357202901435
vn 0.3095974002490934 0.9238795325112867 -0.22493567784086396
vn 0.3826834323650898 0.9238795325112867 -9.373040810652597e-17
vn 0.7071067811865475 0.7071067811865476 0
vn 0.5720614028176843 0.7071067811865476 0.4156269377774534
vn 0.21850801222441055 0.7071067811865476 0.6724985119639574
vn -0.21850801222441046 0.7071067811865476 0.6724985119639574
vn -0.5720614028176841 0.7071067811865476 0.41562693777745346
vn -0.7071067811865475 0.7071067811865476 8.659560562354932e-17
vn -0.5720614028176843 0.7071067811865476 -0.4156269377774533
vn -0.21850801222441057 0.7071067811865476 -0.6724985119639574
vn 0.21850801222441038 0.7071067811865476 -0.6724985119639574
vn 0.5720614028176841 0.7071067811865476 -0.4156269377774536
vn 0.7071067811865475 0.7071067811865476 -1.7319121124709863e-16
vn 0.9238795325112867 0.38268343236508984 0
vn 0.7474342425568127 0.38268343236508984 0.5430427641049989
vn 0.28549447630116936 0.38268343236508984 0.8786616496665794
vn -0.28549447630116925 0.38268343236508984 0.8786616496665796
vn -0.7474342425568127 0.38268343236508984 0.543042764104999
vn -0.9238795325112867 0.38268343236508984 1.1314261122877003e-16
vn -0.7474342425568127 0.38268343236508984 -0.5430427641049987
vn -0.2854944763011695 0.38268343236508984 -0.8786616496665794
vn 0.28549447630116914 0.38268343236508984 -0.8786616496665796
vn 0.7474342425568127 0.38268343236508984 -0.543042764104999
vn 0.9238795325112867 0.38268343236508984 -2.2628522245754005e-16
vn 1 6.123233995736766e-17 0
vn 0.8090169943749475 6.123233995736766e-17 0.5877852522924731
vn 0.30901699437494745 6.123233995736766e-17 0.9510565162951535
vn -0.30901699437494734 6.123233995736766e-17 0.9510565162951536
vn -0.8090169943749473 6.123233995736766e-17 0.5877852522924732
vn -1 6.123233995736766e-17 1.2246467991473532e-16
vn -0.8090169943749475 6.123233995736766e-17 -0.587785252292473
vn -0.30901699437494756 6.123233995736766e-17 -0.9510565162951535
vn 0.30901699437494723 6.123233995736766e-17 -0.9510565162951536
vn 0.8090169943749473 6.123233995736766e-17 -0.5877852522924734
vn 1 6.123233995736766e-17 -2.4492935982947064e-16
vn 0.9238795325112867 -0.3826834323650897 0
vn 0.7474342425568127 -0.3826834323650897 0.5430427641049989
vn 0.28549447630116936 -0.3826834323650897 0.8786616496665794
vn -0.28549447630116925 -0.3826834323650897 0.8786616496665796
vn -0.7474342425568127 -0.3826834323650897 0.543042764104999
vn -0.9238795325112867 -0.3826834323650897 1.1314261122877003e-16
vn -0.7474342425568127 -0.3826834323650897 -0.5430427641049987
vn -0.2854944763011695 -0.3826834323650897 -0.8786616496665794
vn 0.28549447630116914 -0.3826834323650897 -0.8786616496665796
vn 0.7474342425568127 -0.3826834323650897 -0.543042764104999
vn 0.9238795325112867 -0.3826834323650897 -2.2628522245754005e-16
vn 0.7071067811865476 -0.7071067811865475 0
vn 0.5720614028176844 -0.7071067811865475 0.41562693777745346
vn 0.21850801222441057 -0.7071067811865475 0.6724985119639574
vn -0.2185080122244105 -0.7071067811865475 0.6724985119639574
vn -0.5720614028176843 -0.7071067811865475 0.4156269377774535
vn -0.7071067811865476 -0.7071067811865475 8.659560562354934e-17
vn -0.5720614028176844 -0.7071067811865475 -0.4156269377774534
vn -0.21850801222441066 -0.7071067811865475 -0.6724985119639574
vn 0.2185080122244104 -0.7071067811865475 -0.6724985119639574
vn 0.5720614028176843 -0.7071067811865475 -0.41562693777745363
vn 0.7071067811865476 -0.7071067811865475 -1.7319121124709868e-16
vn 0.3826834323650899 -0.9238795325112867 0
vn 0.3095974002490935 -0.9238795325112867 0.22493567784086393
vn 0.11825568406654857 -0.9238795325112867 0.3639535720290144
vn -0.11825568406654853 -0.9238795325112867 0.36395357202901446
vn -0.3095974002490935 -0.9238795325112867 0.224935677840864
vn -0.3826834323650899 -0.9238795325112867 4.6865204053263e-17
vn -0.3095974002490935 -0.9238795325112867 -0.2249356778408639
vn -0.11825568406654861 -0.9238795325112867 -0.3639535720290144
vn 0.11825568406654849 -0.9238795325112867 -0.36395357202901446
vn 0.3095974002490935 -0.9238795325112867 -0.22493567784086402
vn 0.3826834323650899 -0.9238795325112867 -9.3730408106526e-17
vn 1.2246467991473532e-16 -1 0
vn 9.907600726170916e-17 -1 7.198293278059966e-17
vn 3.7843667304341506e-17 -1 1.1647083184890923e-16
vn -3.7843667304341493e-17 -1 1.1647083184890926e-16
vn -9.907600726170915e-17 -1 7.198293278059968e-17
vn -1.2246467991473532e-16 -1 1.4997597826618576e-32
vn -9.907600726170916e-17 -1 -7.198293278059965e-17
vn -3.784366730434152e-17 -1 -1.1647083184890923e-16
vn 3.7843667304341475e-17 -1 -1.1647083184890926e-16
vn 9.907600726170915e-17 -1 -7.19829327805997e-17
vn 1.2246467991473532e-16 -1 -2.999519565323715e-32
vn 0 -1 0
vn 0 -1 0
vn 0 -1 0
vn 0 -1 0
vn 0 -1 0
vn 0 -1 0
vn 0 -1 0
vn 0 -1 0
vn 0 1 0
vn 0 1 0
vn 0 1 0
vn 0 1 0
vn 0 1 0
vn 0 1 0
vn 0 1 0
vn 0 1 0
vn 0 -1 0
vn 0 1 0
vn 0 -1 0
vn 0 -1 0
vn 0 -1 0
vn 0 -1 0
vn 0 -1 0
vn 0 -1 0
vn 0 -1 0
vn 0 1 0
vn 0 1 0
vn 0 1 0
vn 0 1 0
vn 0 1 0
vn 0 1 0
vn 0 1 0
vn 0 -1 0
vn 0 1 0
vn 0 1 0
vn 0 1 0
vn 0 1 0
vn 0 1 0
vn 0 1 0
vn 0 1 0
vn 0 1 0
vn 0 1 0
vn 0 1 0
vn 0 1 0
vn 0 1 0
vn 0.3826834323650898 0.9238795325112867 0
vn 0.30959740024909344 0.9238795325112867 0.22493567784086388
vn 0.11825568406654853 0.9238795325112867 0.3639535720290143
vn -0.11825568406654849 0.9238795325112867 0.36395357202901435
vn -0.3095974002490934 0.9238795325112867 0.2249356778408639
vn -0.3826834323650898 0.9238795325112867 4.6865204053262986e-17
vn -0.30959740024909344 0.9238795325112867 -0.22493567784086382
vn -0.11825568406654857 0.9238795325112867 -0.3639535720290143
vn 0.11825568406654845 0.9238795325112867 -0.36395357202901435
vn 0.3095974002490934 0.9238795325112867 -0.224935677840864
vn 0.3826834323650898 0.9238795325112867 -9.373040810652597e-17
vn 0.7071067811865475 0.7071067811865476 0
vn 0.5720614028176843 0.7071067811865476 0.4156269377774534
vn 0.21850801222441055 0.7071067811865476 0.6724985119639573
vn -0.21850801222441046 0.7071067811865476 0.6724985119639573
vn -0.5720614028176841 0.7071067811865476 0.41562693777745346
vn -0.7071067811865475 0.7071067811865476 8.659560562354932e-17
vn -0.5720614028176843 0.7071067811865476 -0.4156269377774533
vn -0.2185080122244106 0.7071067811865476 -0.6724985119639573
vn 0.21850801222441038 0.7071067811865476 -0.6724985119639573
vn 0.5720614028176841 0.7071067811865476 -0.4156269377774536
vn 0.7071067811865475 0.7071067811865476 -1.7319121124709863e-16
vn 0.9238795325112867 0.38268343236508984 0
vn 0.7474342425568128 0.38268343236508984 0.5430427641049989
vn 0.28549447630116936 0.38268343236508984 0.8786616496665794
vn -0.28549447630116925 0.38268343236508984 0.8786616496665796
vn -0.7474342425568127 0.38268343236508984 0.543042764104999
vn -0.9238795325112867 0.38268343236508984 1.1314261122877003e-16
vn -0.7474342425568128 0.38268343236508984 -0.5430427641049987
vn -0.2854944763011695 0.38268343236508984 -0.8786616496665794
vn 0.28549447630116914 0.38268343236508984 -0.8786616496665796
vn 0.7474342425568127 0.38268343236508984 -0.543042764104999
vn 0.9238795325112867 0.38268343236508984 -2.2628522245754005e-16
vn 1 6.123233995736766e-17 0
vn 0.8090169943749475 6.123233995736766e-17 0.5877852522924731
vn 0.30901699437494745 6.123233995736766e-17 0.9510565162951535
vn -0.30901699437494734 6.123233995736766e-17 0.9510565162951536
vn -0.8090169943749473 6.123233995736766e-17 0.5877852522924734
vn -1 6.123233995736766e-17 1.2246467991473532e-16
vn -0.8090169943749475 6.123233995736766e-17 -0.587785252292473
vn -0.30901699437494756 6.123233995736766e-17 -0.9510565162951535
vn 0.30901699437494723 6.123233995736766e-17 -0.9510565162951536
vn 0.8090169943749473 6.123233995736766e-17 -0.5877852522924734
vn 1 6.123233995736766e-17 -2.4492935982947064e-16
vn 0.9238795325112867 -0.3826834323650897 0
vn 0.7474342425568128 -0.3826834323650897 0.5430427641049989
vn 0.28549447630116936 -0.3826834323650897 0.8786616496665794
vn -0.28549447630116925 -0.3826834323650897 0.8786616496665796
vn -0.7474342425568127 -0.3826834323650897 0.543042764104999
vn -0.9238795325112867 -0.3826834323650897 1.1314261122877003e-16
vn -0.7474342425568128 -0.3826834323650897 -0.5430427641049987
vn -0.2854944763011695 -0.3826834323650897 -0.8786616496665794
vn 0.28549447630116914 -0.3826834323650897 -0.8786616496665796
vn 0.7474342425568127 -0.3826834323650897 -0.543042764104999
vn 0.9238795325112867 -0.3826834323650897 -2.2628522245754005e-16
vn 0.7071067811865476 -0.7071067811865475 0
vn 0.5720614028176844 -0.7071067811865475 0.41562693777745346
vn 0.21850801222441057 -0.7071067811865475 0.6724985119639574
vn -0.2185080122244105 -0.7071067811865475 0.6724985119639574
vn -0.5720614028176843 -0.7071067811865475 0.4156269377774535
vn -0.7071067811865476 -0.7071067811865475 8.659560562354934e-17
vn -0.5720614028176844 -0.7071067811865475 -0.4156269377774534
vn -0.21850801222441066 -0.7071067811865475 -0.6724985119639574
vn 0.2185080122244104 -0.7071067811865475 -0.6724985119639574
vn 0.5720614028176843 -0.7071067811865475 -0.41562693777745363
vn 0.7071067811865476 -0.7071067811865475 -1.7319121124709868e-16
vn 0.3826834323650899 -0.9238795325112867 0
vn 0.3095974002490935 -0.9238795325112867 0.22493567784086393
vn 0.11825568406654857 -0.9238795325112867 0.3639535720290144
vn -0.11825568406654853 -0.9238795325112867 0.36395357202901446
vn -0.3095974002490935 -0.9238795325112867 0.224935677840864
vn -0.3826834323650899 -0.9238795325112867 4.6865204053263004e-17
vn -0.3095974002490935 -0.9238795325112867 -0.2249356778408639
vn -0.11825568406654861 -0.9238795325112867 -0.3639535720290144
vn 0.11825568406654849 -0.9238795325112867 -0.36395357202901446
vn 0.3095974002490935 -0.9238795325112867 -0.22493567784086402
vn 0.3826834323650899 -0.9238795325112867 -9.373040810652601e-17
vn 1.2246467991473532e-16 -1 0
vn 9.907600726170916e-17 -1 7.198293278059966e-17
vn 3.7843667304341506e-17 -1 1.1647083184890923e-16
vn -3.7843667304341493e-17 -1 1.1647083184890926e-16
vn -9.907600726170915e-17 -1 7.198293278059968e-17
vn -1.2246467991473532e-16 -1 1.4997597826618576e-32
vn -9.907600726170916e-17 -1 -7.198293278059965e-17
vn -3.784366730434152e-17 -1 -1.1647083184890923e-16
vn 3.7843667304341475e-17 -1 -1.1647083184890926e-16
vn 9.907600726170915e-17 -1 -7.19829327805997e-17
vn 1.2246467991473532e-16 -1 -2.999519565323715e-32
f 1/1/1 13/13/13 2/2/2
f 1/1/1 12/12/12 13/13/13
f 23/23/23 1/1/1 2/2/2
f 24/24/24 13/13/13 12/12/12
f 2/2/2 14/14/14 3/3/3
f 2/2/2 13/13/13 14/14/14
f 23/23/23 2/2/2 3/3/3
f 24/24/24 14/14/14 13/13/13
f 3/3/3 15/15/15 4/4/4
f 3/3/3 14/14/14 15/15/15
f 23/23/23 3/3/3 4/4/4
f 24/24/24 15/15/15 14/14/14
f 4/4/4 16/16/16 5/5/5
f 4/4/4 15/15/15 16/16/16
f 23/23/23 4/4/4 5/5/5
f 24/24/24 16/16/16 15/15/15
f 5/5/5 17/17/17 6/6/6
f 5/5/5 16/16/16 17/17/17
f 23/23/23 5/5/5 6/6/6
f 24/24/24 17/17/17 16/16/16
f 6/6/6 18/18/18 7/7/7
f 6/6/6 17/17/17 18/18/18
f 23/23/23 6/6/6 7/7/7
f 24/24/24 18/18/18 17/17/17
f 7/7/7 19/19/19 8/8/8
f 7/7/7 18/18/18 19/19/19
f 23/23/23 7/7/7 8/8/8
f 24/24/24 19/19/19 18/18/18
f 8/8/8 20/20/20 9/9/9
f 8/8/8 19/19/19 20/20/20
f 23/23/23 8/8/8 9/9/9
f 24/24/24 20/20/20 19/19/19
f 9/9/9 21/21/21 10/10/10
f 9/9/9 20/20/20 21/21/21
f 23/23/23 9/9/9 10/10/10
f 24/24/24 21/21/21 20/20/20
f 10/10/10 22/22/22 11/11/11
f 10/10/10 21/21/21 22/22/22
f 23/23/23 10/10/10 11/11/11
f 24/24/24 22/22/22 21/21/21
f 11/11/11 12/12/12 1/1/1
f 11/11/11 22/22/22 12/12/12
f 23/23/23 11/11/11 1/1/1
f 24/24/24 12/12/12 22/22/22
f 25/25/25 36/36/36 26/26/26
f 25/25/25 35/35/35 36/36/36
f 45/45/45 25/25/25 26/26/26
f 46/46/46 36/36/36 35/35/35
f 26/26/26 37/37/37 27/27/27
f 26/26/26 36/36/36 37/37/37
f 45/45/45 26/26/26 27/27/27
f 46/46/46 37/37/37 36/36/36
f 27/27/27 38/38/38 28/28/28
f 27/27/27 37/37/37 38/38/38
f 45/45/45 27/27/27 28/28/28
f 46/46/46 38/38/38 37/37/37
f 28/28/28 39/39/39 29/29/29
f 28/28/28 38/38/38 39/39/39
f 45/45/45 28/28/28 29/29/29
f 46/46/46 39/39/39 38/38/38
f 29/29/29 40/40/40 30/30/30
f 29/29/29 39/39/39 40/40/40
f 45/45/45 29/29/29 30/30/30
f 46/46/46 40/40/40 39/39/39
f 30/30/30 41/41/41 31/31/31
f 30/30/30 40/40/40 41/41/41
f 45/45/45 30/30/30 31/31/31
f 46/46/46 41/41/41 40/40/40
f 31/31/31 42/42/42 32/32/32
f 31/31/31 41/41/41 42/42/42
f 45/45/45 31/31/31 32/32/32
f 46/46/46 42/42/42 41/41/41
f 32/32/32 43/43/43 33/33/33
f 32/32/32 42/42/42 43/43/43
f 45/45/45 32/32/32 33/33/33
f 46/46/46 43/43/43 42/42/42
f 33/33/33 44/44/44 34/34/34
f 33/33/33 43/43/43 44/44/44
f 45/45/45 33/33/33 34/34/34
f 46/46/46 44/44/44 43/43/43
f 34/34/34 35/35/35 25/25/25
f 34/34/34 44/44/44 35/35/35
f 45/45/45 34/34/34 25/25/25
f 46/46/46 35/35/35 44/44/44
f 47/47/47 56/56/56 48/48/48
f 47/47/47 55/55/55 56/56/56
f 63/63/63 47/47/47 48/48/48
f 64/64/64 56/56/56 55/55/55
f 48/48/48 57/57/57 49/49/49
f 48/48/48 56/56/56 57/57/57
f 63/63/63 48/48/48 49/49/49
f 64/64/64 57/57/57 56/56/56
f 49/49/49 58/58/58 50/50/50
f 49/49/49 57/57/57 58/58/58
f 63/63/63 49/49/49 50/50/50
f 64/64/64 58/58/58 57/57/57
f 50/50/50 59/59/59 51/51/51
f 50/50/50 58/58/58 59/59/59
f 63/63/63 50/50/50 51/51/51
f 64/64/64 59/59/59 58/58/58
f 51/51/51 60/60/60 52/52/52
f 51/51/51 59/59/59 60/60/60
f 63/63/63 51/51/51 52/52/52
f 64/64/64 60/60/60 59/59/59
f 52/52/52 61/61/61 53/53/53
f 52/52/52 60/60/60 61/61/61
f 63/63/63 52/52/52 53/53/53
f 64/64/64 61/61/61 60/60/60
f 53/53/53 62/62/62 54/54/54
f 53/53/53 61/61/61 62/62/62
f 63/63/63 53/53/53 54/54/54
f 64/64/64 62/62/62 61/61/61
f 54/54/54 55/55/55 47/47/47
f 54/54/54 62/62/62 55/55/55
f 63/63/63 54/54/54 47/47/47
f 64/64/64 55/55/55 62/62/62
f 65/65/65 73/73/73 66/66/66
f 65/65/65 72/72/72 73/73/73
f 79/79/79 65/65/65 66/66/66
f 80/80/80 73/73/73 72/72/72
f 66/66/66 74/74/74 67/67/67
f 66/66/66 73/73/73 74/74/74
f 79/79/79 66/66/66 67/67/67
f 80/80/80 74/74/74 73/73/73
f 67/67/67 75/75/75 68/68/68
f 67/67/67 74/74/74 75/75/75
f 79/79/79 67/67/67 68/68/68
f 80/80/80 75/75/75 74/74/74
f 68/68/68 76/76/76 69/69/69
f 68/68/68 75/75/75 76/76/76
f 79/79/79 68/68/68 69/69/69
f 80/80/80 76/76/76 75/75/75
f 69/69/69 77/77/77 70/70/70
f 69/69/69 76/76/76 77/77/77
f 79/79/79 69/69/69 70/70/70
f 80/80/80 77/77/77 76/76/76
f 70/70/70 78/78/78 71/71/71
f 70/70/70 77/77/77 78/78/78
f 79/79/79 70/70/70 71/71/71
f 80/80/80 78/78/78 77/77/77
f 71/71/71 72/72/72 65/65/65
f 71/71/71 78/78/78 72/72/72
f 79/79/79 71/71/71 65/65/65
f 80/80/80 72/72/72 78/78/78
f 81/81/81 93/93/93 92/92/92
f 81/81/81 82/82/82 93/93/93
f 82/82/82 94/94/94 93/93/93
f 82/82/82 83/83/83 94/94/94
f 83/83/83 95/95/95 94/94/94
f 83/83/83 84/84/84 95/95/95
f 84/84/84 96/96/96 95/95/95
f 84/84/84 85/85/85 96/96/96
f 85/85/85 97/97/97 96/96/96
f 85/85/85 86/86/86 97/97/97
f 86/86/86 98/98/98 97/97/97
f 86/86/86 87/87/87 98/98/98
f 87/87/87 99/99/99 98/98/98
f 87/87/87 88/88/88 99/99/99
f 88/88/88 100/100/100 99/99/99
f 88/88/88 89/89/89 100/100/100
f 89/89/89 101/101/101 100/100/100
f 89/89/89 90/90/90 101/101/101
f 90/90/90 102/102/102 101/101/101
f 90/90/90 91/91/91 102/102/102
f 92/92/92 104/104/104 103/103/103
f 92/92/92 93/93/93 104/104/104
f 93/93/93 105/105/105 104/104/104
f 93/93/93 94/94/94 105/105/105
f 94/94/94 106/106/106 105/105/105
f 94/94/94 95/95/95 106/106/106
f 95/95/95 107/107/107 106/106/106
f 95/95/95 96/96/96 107/107/107
f 96/96/96 108/108/108 107/107/107
f 96/96/96 97/97/97 108/108/108
f 97/97/97 109/109/109 108/108/108
f 97/97/97 98/98/98 109/109/109
f 98/98/98 110/110/110 109/109/109
f 98/98/98 99/99/99 110/110/110
f 99/99/99 111/111/111 110/110/110
f 99/99/99 100/100/100 111/111/111
f 100/100/100 112/112/112 111/111/111
f 100/100/100 101/101/101 112/112/112
f 101/101/101 113/113/113 112/112/112
f 101/101/101 102/102/102 113/113/113
f 103/103/103 115/115/115 114/114/114
f 103/103/103 104/104/104 115/115/115
f 104/104/104 116/116/116 115/115/115
f 104/104/104 105/105/105 116/116/116
f 105/105/105 117/117/117 116/116/116
f 105/105/105 106/106/106 117/117/117
f 106/106/106 118/118/118 117/117/117
f 106/106/106 107/107/107 118/118/118
f 107/107/107 119/119/119 118/118/118
f 107/107/107 108/108/108 119/119/119
f 108/108/108 120/120/120 119/119/119
f 108/108/108 109/109/109 120/120/120
f 109/109/109 121/121/121 120/120/120
f 109/109/109 110/110/110 121/121/121
f 110/110/110 122/122/122 121/121/121
f 110/110/110 111/111/111 122/122/122
f 111/111/111 123/123/123 122/122/122
f 111/111/111 112/112/112 123/123/123
f 112/112/112 124/124/124 123/123/123
f 112/112/112 113/113/113 124/124/124
f 114/114/114 126/126/126 125/125/125
f 114/114/114 115/115/115 126/126/126
f 115/115/115 127/127/127 126/126/126
f 115/115/115 116/116/116 127/127/127
f 116/116/116 128/128/128 127/127/127
f 116/116/116 117/117/117 128/128/128
f 117/117/117 129/129/129 128/128/128
f 117/117/117 118/118/118 129/129/129
f 118/118/118 130/130/130 129/129/129
f 118/118/118 119/119/119 130/130/130
f 119/119/119 131/131/131 130/130/130
f 119/119/119 120/120/120 131/131/131
f 120/120/120 132/132/132 131/131/131
f 120/120/120 121/121/121 132/132/132
f 121/121/121 133/133/133 132/132/132
f 121/121/121 122/122/122 133/133/133
f 122/122/122 134/134/134 133/133/133
f 122/122/122 123/123/123 134/134/134
f 123/123/123 135/135/135 134/134/134
f 123/123/123 124/124/124 135/135/135
f 125/125/125 137/137/137 136/136/136
f 125/125/125 126/126/126 137/137/137
f 126/126/126 138/138/138 137/137/137
f 126/126/126 127/127/127 138/138/138
f 127/127/127 139/139/139 138/138/138
f 127/127/127 128/128/128 139/139/139
f 128/128/128 140/140/140 139/139/139
f 128/128/128 129/129/129 140/140/140
f 129/129/129 141/141/141 140/140/140
f 129/129/129 130/130/130 141/141/141
f 130/130/130 142/142/142 141/141/141
f 130/130/130 131/131/131 142/142/142
f 131/131/131 143/143/143 142/142/142
f 131/131/131 132/132/132 143/143/143
f 132/132/132 144/144/144 143/143/143
f 132/132/132 133/133/133 144/144/144
f 133/133/133 145/145/145 144/144/144
f 133/133/133 134/134/134 145/145/145
f 134/134/134 146/146/146 145/145/145
f 134/134/134 135/135/135 146/146/146
f 136/136/136 148/148/148 147/147/147
f 136/136/136 137/137/137 148/148/148
f 137/137/137 149/149/149 148/148/148
f 137/137/137 138/138/138 149/149/149
f 138/138/138 150/150/150 149/149/149
f 138/138/138 139/139/139 150/150/150
f 139/139/139 151/151/151 150/150/150
f 139/139/139 140/140/140 151/151/151
f 140/140/140 152/152/152 151/151/151
f 140/140/140 141/141/141 152/152/152
f 141/141/141 153/153/153 152/152/152
f 141/141/141 142/142/142 153/153/153
f 142/142/142 154/154/154 153/153/153
f 142/142/142 143/143/143 154/154/154
f 143/143/143 155/155/155 154/154/154
f 143/143/143 144/144/144 155/155/155
f 144/144/144 156/156/156 155/155/155
f 144/144/144 145/145/145 156/156/156
f 145/145/145 157/157/157 156/156/156
f 145/145/145 146/146/146 157/157/157
f 147/147/147 159/159/159 158/158/158
f 147/147/147 148/148/148 159/159/159
f 148/148/148 160/160/160 159/159/159
f 148/148/148 149/149/149 160/160/160
f 149/149/149 161/161/161 160/160/160
f 149/149/149 150/150/150 161/161/161
f 150/150/150 162/162/162 161/161/161
f 150/150/150 151/151/151 162/162/162
f 151/151/151 163/163/163 162/162/162
f 151/151/151 152/152/152 163/163/163
f 152/152/152 164/164/164 163/163/163
f 152/152/152 153/153/153 164/164/164
f 153/153/153 165/165/165 164/164/164
f 153/153/153 154/154/154 165/165/165
f 154/154/154 166/166/166 165/165/165
f 154/154/154 155/155/155 166/166/166
f 155/155/155 167/167/167 166/166/166
f 155/155/155 156/156/156 167/167/167
f 156/156/156 168/168/168 167/167/167
f 156/156/156 157/157/157 168/168/168
f 158/158/158 170/170/170 169/169/169
f 158/158/158 159/159/159 170/170/170
f 159/159/159 171/171/171 170/170/170
f 159/159/159 160/160/160 171/171/171
f 160/160/160 172/172/172 171/171/171
f 160/160/160 161/161/161 172/172/172
f 161/161/161 173/173/173 172/172/172
f 161/161/161 162/162/162 173/173/173
f 162/162/162 174/174/174 173/173/173
f 162/162/162 163/163/163 174/174/174
f 163/163/163 175/175/175 174/174/174
f 163/163/163 164/164/164 175/175/175
f 164/164/164 176/176/176 175/175/175
f 164/164/164 165/165/165 176/176/176
f 165/165/165 177/177/177 176/176/176
f 165/165/165 166/166/166 177/177/177
f 166/166/166 178/178/178 177/177/177
f 166/166/166 167/167/167 178/178/178
f 167/167/167 179/179/179 178/178/178
f 167/167/167 168/168/168 179/179/179
f 180/180/180 189/189/189 181/181/181
f 180/180/180 188/188/188 189/189/189
f 196/196/196 180/180/180 181/181/181
f 197/197/197 189/189/189 188/188/188
f 181/181/181 190/190/190 182/182/182
f 181/181/181 189/189/189 190/190/190
f 196/196/196 181/181/181 182/182/182
f 197/197/197 190/190/190 189/189/189
f 182/182/182 191/191/191 183/183/183
f 182/182/182 190/190/190 191/191/191
f 196/196/196 182/182/182 183/183/183
f 197/197/197 191/191/191 190/190/190
f 183/183/183 192/192/192 184/184/184
f 183/183/183 191/191/191 192/192/192
f 196/196/196 183/183/183 184/184/184
f 197/197/197 192/192/192 191/191/191
f 184/184/184 193/193/193 185/185/185
f 184/184/184 192/192/192 193/193/193
f 196/196/196 184/184/184 185/185/185
f 197/197/197 193/193/193 192/192/192
f 185/185/185 194/194/194 186/186/186
f 185/185/185 193/193/193 194/194/194
f 196/196/196 185/185/185 186/186/186
f 197/197/197 194/194/194 193/193/193
f 186/186/186 195/195/195 187/187/187
f 186/186/186 194/194/194 195/195/195
f 196/196/196 186/186/186 187/187/187
f 197/197/197 195/195/195 194/194/194
f 187/187/187 188/188/188 180/180/180
f 187/187/187 195/195/195 188/188/188
f 196/196/196 187/187/187 180/180/180
f 197/197/197 188/188/188 195/195/195
f 198/198/198 206/206/206 199/199/199
f 198/198/198 205/205/205 206/206/206
f 212/212/212 198/198/198 199/199/199
f 213/213/213 206/206/206 205/205/205
f 199/199/199 207/207/207 200/200/200
f 199/199/199 206/206/206 207/207/207
f 212/212/212 199/199/199 200/200/200
f 213/213/213 207/207/207 206/206/206
f 200/200/200 208/208/208 201/201/201
f 200/200/200 207/207/207 208/208/208
f 212/212/212 200/200/200 201/201/201
f 213/213/213 208/208/208 207/207/207
f 201/201/201 209/209/209 202/202/202
f 201/201/201 208/208/208 209/209/209
f 212/212/212 201/201/201 202/202/202
f 213/213/213 209/209/209 208/208/208
f 202/202/202 210/210/210 203/203/203
f 202/202/202 209/209/209 210/210/210
f 212/212/212 202/202/202 203/203/203
f 213/213/213 210/210/210 209/209/209
f 203/203/203 211/211/211 204/204/204
f 203/203/203 210/210/210 211/211/211
f 212/212/212 203/203/203 204/204/204
f 213/213/213 211/211/211 210/210/210
f 204/204/204 205/205/205 198/198/198
f 204/204/204 211/211/211 205/205/205
f 212/212/212 204/204/204 198/198/198
f 213/213/213 205/205/205 211/211/211
f 214/214/214 226/226/226 225/225/225
f 214/214/214 215/215/215 226/226/226
f 215/215/215 227/227/227 226/226/226
f 215/215/215 216/216/216 227/227/227
f 216/216/216 228/228/228 227/227/227
f 216/216/216 217/217/217 228/228/228
f 217/217/217 229/229/229 228/228/228
f 217/217/217 218/218/218 229/229/229
f 218/218/218 230/230/230 229/229/229
f 218/218/218 219/219/219 230/230/230
f 219/219/219 231/231/231 230/230/230
f 219/219/219 220/220/220 231/231/231
f 220/220/220 232/232/232 231/231/231
f 220/220/220 221/221/221 232/232/232
f 221/221/221 233/233/233 232/232/232
f 221/221/221 222/222/222 233/233/233
f 222/222/222 234/234/234 233/233/233
f 222/222/222 223/223/223 234/234/234
f 223/223/223 235/235/235 234/234/234
f 223/223/223 224/224/224 235/235/235
f 225/225/225 237/237/237 236/236/236
f 225/225/225 226/226/226 237/237/237
f 226/226/226 238/238/238 237/237/237
f 226/226/226 227/227/227 238/238/238
f 227/227/227 239/239/239 238/238/238
f 227/227/227 228/228/228 239/239/239
f 228/228/228 240/240/240 239/239/239
f 228/228/228 229/229/229 240/240/240
f 229/229/229 241/241/241 240/240/240
f 229/229/229 230/230/230 241/241/241
f 230/230/230 242/242/242 241/241/241
f 230/230/230 231/231/231 242/242/242
f 231/231/231 243/243/243 242/242/242
f 231/231/231 232/232/232 243/243/243
f 232/232/232 244/244/244 243/243/243
f 232/232/232 233/233/233 244/244/244
f 233/233/233 245/245/245 244/244/244
f 233/233/233 234/234/234 245/245/245
f 234/234/234 246/246/246 245/245/245
f 234/234/234 235/235/235 246/246/246
f 236/236/236 248/248/248 247/247/247
f 236/236/236 237/237/237 248/248/248
f 237/237/237 249/249/249 248/248/248
f 237/237/237 238/238/238 249/249/249
f 238/238/238 250/250/250 249/249/249
f 238/238/238 239/239/239 250/250/250
f 239/239/239 251/251/251 250/250/250
f 239/239/239 240/240/240 251/251/251
f 240/240/240 252/252/252 251/251/251
f 240/240/240 241/241/241 252/252/252
f 241/241/241 253/253/253 252/252/252
f 241/241/241 242/242/242 253/253/253
f 242/242/242 254/254/254 253/253/253
f 242/242/242 243/243/243 254/254/254
f 243/243/243 255/255/255 254/254/254
f 243/243/243 244/244/244 255/255/255
f 244/244/244 256/256/256 255/255/255
f 244/244/244 245/245/245 256/256/256
f 245/245/245 257/257/257 256/256/256
f 245/245/245 246/246/246 257/257/257
f 247/247/247 259/259/259 258/258/258
f 247/247/247 248/248/248 259/259/259
f 248/248/248 260/260/260 259/259/259
f 248/248/248 249/249/249 260/260/260
f 249/249/249 261/261/261 260/260/260
f 249/249/249 250/250/250 261/261/261
f 250/250/250 262/262/262 261/261/261
f 250/250/250 251/251/251 262/262/262
f 251/251/251 263/263/263 262/262/262
f 251/251/251 252/252/252 263/263/263
f 252/252/252 264/264/264 263/263/263
f 252/252/252 253/253/253 264/264/264
f 253/253/253 265/265/265 264/264/264
f 253/253/253 254/254/254 265/265/265
f 254/254/254 266/266/266 265/265/265
f 254/254/254 255/255/255 266/266/266
f 255/255/255 267/267/267 266/266/266
f 255/255/255 256/256/256 267/267/267
f 256/256/256 268/268/268 267/267/267
f 256/256/256 257/257/257 268/268/268
f 258/258/258 270/270/270 269/269/269
f 258/258/258 259/259/259 270/270/270
f 259/259/259 271/271/271 270/270/270
f 259/259/259 260/260/260 271/271/271
f 260/260/260 272/272/272 271/271/271
f 260/260/260 261/261/261 272/272/272
f 261/261/261 273/273/273 272/272/272
f 261/261/261 262/262/262 273/273/273
f 262/262/262 274/274/274 273/273/273
f 262/262/262 263/263/263 274/274/274
f 263/263/263 275/275/275 274/274/274
f 263/263/263 264/264/264 275/275/275
f 264/264/264 276/276/276 275/275/275
f 264/264/264 265/265/265 276/276/276
f 265/265/265 277/277/277 276/276/276
f 265/265/265 266/266/266 277/277/277
f 266/266/266 278/278/278 277/277/277
f 266/266/266 267/267/267 278/278/278
f 267/267/267 279/279/279 278/278/278
f 267/267/267 268/268/268 279/279/279
f 269/269/269 281/281/281 280/280/280
f 269/269/269 270/270/270 281/281/281
f 270/270/270 282/282/282 281/281/281
f 270/270/270 271/271/271 282/282/282
f 271/271/271 283/283/283 282/282/282
f 271/271/271 272/272/272 283/283/283
f 272/272/272 284/284/284 283/283/283
f 272/272/272 273/273/273 284/284/284
f 273/273/273 285/285/285 284/284/284
f 273/273/273 274/274/274 285/285/285
f 274/274/274 286/286/286 285/285/285
f 274/274/274 275/275/275 286/286/286
f 275/275/275 287/287/287 286/286/286
f 275/275/275 276/276/276 287/287/287
f 276/276/276 288/288/288 287/287/287
f 276/276/276 277/277/277 288/288/288
f 277/277/277 289/289/289 288/288/288
f 277/277/277 278/278/278 289/289/289
f 278/278/278 290/290/290 289/289/289
f 278/278/278 279/279/279 290/290/290
f 280/280/280 292/292/292 291/291/291
f 280/280/280 281/281/281 292/292/292
f 281/281/281 293/293/293 292/292/292
f 281/281/281 282/282/282 293/293/293
f 282/282/282 294/294/294 293/293/293
f 282/282/282 283/283/283 294/294/294
f 283/283/283 295/295/295 294/294/294
f 283/283/283 284/284/284 295/295/295
f 284/284/284 296/296/296 295/295/295
f 284/284/284 285/285/285 296/296/296
f 285/285/285 297/297/297 296/296/296
f 285/285/285 286/286/286 297/297/297
f 286/286/286 298/298/298 297/297/297
f 286/286/286 287/287/287 298/298/298
f 287/287/287 299/299/299 298/298/298
f 287/287/287 288/288/288 299/299/299
f 288/288/288 300/300/300 299/299/299
f 288/288/288 289/289/289 300/300/300
f 289/289/289 301/301/301 300/300/300
f 289/289/289 290/290/290 301/301/301
f 291/291/291 303/303/303 302/302/302
f 291/291/291 292/292/292 303/303/303
f 292/292/292 304/304/304 303/303/303
f 292/292/292 293/293/293 304/304/304
f 293/293/293 305/305/305 304/304/304
f 293/293/293 294/294/294 305/305/305
f 294/294/294 306/306/306 305/305/305
f 294/294/294 295/295/295 306/306/306
f 295/295/295 307/307/307 306/306/306
f 295/295/295 296/296/296 307/307/307
f 296/296/296 308/308/308 307/307/307
f 296/296/296 297/297/297 308/308/308
f 297/297/297 309/309/309 308/308/308
f 297/297/297 298/298/298 309/309/309
f 298/298/298 310/310/310 309/309/309
f 298/298/298 299/299/299 310/310/310
f 299/299/299 311/311/311 310/310/310
f 299/299/299 300/300/300 311/311/311
f 300/300/300 312/312/312 311/311/311
f 300/300/300 301/301/301 312/312/312
f 313/313/313 322/322/322 314/314/314
f 313/313/313 321/321/321 322/322/322
f 329/329/329 313/313/313 314/314/314
f 330/330/330 322/322/322 321/321/321
f 314/314/314 323/323/323 315/315/315
f 314/314/314 322/322/322 323/323/323
f 329/329/329 314/314/314 315/315/315
f 330/330/330 323/323/323 322/322/322
f 315/315/315 324/324/324 316/316/316
f 315/315/315 323/323/323 324/324/324
f 329/329/329 315/315/315 316/316/316
f 330/330/330 324/324/324 323/323/323
f 316/316/316 325/325/325 317/317/317
f 316/316/316 324/324/324 325/325/325
f 329/329/329 316/316/316 317/317/317
f 330/330/330 325/325/325 324/324/324
f 317/317/317 326/326/326 318/318/318
f 317/317/317 325/325/325 326/326/326
f 329/329/329 317/317/317 318/318/318
f 330/330/330 326/326/326 325/325/325
f 318/318/318 327/327/327 319/319/319
f 318/318/318 326/326/326 327/327/327
f 329/329/329 318/318/318 319/319/319
f 330/330/330 327/327/327 326/326/326
f 319/319/319 328/328/328 320/320/320
f 319/319/319 327/327/327 328/328/328
f 329/329/329 319/319/319 320/320/320
f 330/330/330 328/328/328 327/327/327
f 320/320/320 321/321/321 313/313/313
f 320/320/320 328/328/328 321/321/321
f 329/329/329 320/320/320 313/313/313
f 330/330/330 321/321/321 328/328/328
f 331/331/331 339/339/339 332/332/332
f 331/331/331 338/338/338 339/339/339
f 345/345/345 331/331/331 332/332/332
f 346/346/346 339/339/339 338/338/338
f 332/332/332 340/340/340 333/333/333
f 332/332/332 339/339/339 340/340/340
f 345/345/345 332/332/332 333/333/333
f 346/346/346 340/340/340 339/339/339
f 333/333/333 341/341/341 334/334/334
f 333/333/333 340/340/340 341/341/341
f 345/345/345 333/333/333 334/334/334
f 346/346/346 341/341/341 340/340/340
f 334/334/334 342/342/342 335/335/335
f 334/334/334 341/341/341 342/342/342
f 345/345/345 334/334/334 335/335/335
f 346/346/346 342/342/342 341/341/341
f 335/335/335 343/343/343 336/336/336
f 335/335/335 342/342/342 343/343/343
f 345/345/345 335/335/335 336/336/336
f 346/346/346 343/343/343 342/342/342
f 336/336/336 344/344/344 337/337/337
f 336/336/336 343/343/343 344/344/344
f 345/345/345 336/336/336 337/337/337
f 346/346/346 344/344/344 343/343/343
f 337/337/337 338/338/338 331/331/331
f 337/337/337 344/344/344 338/338/338
f 345/345/345 337/337/337 331/331/331
f 346/346/346 338/338/338 344/344/344
f 347/347/347 359/359/359 358/358/358
f 347/347/347 348/348/348 359/359/359
f 348/348/348 360/360/360 359/359/359
f 348/348/348 349/349/349 360/360/360
f 349/349/349 361/361/361 360/360/360
f 349/349/349 350/350/350 361/361/361
f 350/350/350 362/362/362 361/361/361
f 350/350/350 351/351/351 362/362/362
f 351/351/351 363/363/363 362/362/362
f 351/351/351 352/352/352 363/363/363
f 352/352/352 364/364/364 363/363/363
f 352/352/352 353/353/353 364/364/364
f 353/353/353 365/365/365 364/364/364
f 353/353/353 354/354/354 365/365/365
f 354/354/354 366/366/366 365/365/365
f 354/354/354 355/355/355 366/366/366
f 355/355/355 367/367/367 366/366/366
f 355/355/355 356/356/356 367/367/367
f 356/356/356 368/368/368 367/367/367
f 356/356/356 357/357/357 368/368/368
f 358/358/358 370/370/370 369/369/369
f 358/358/358 359/359/359 370/370/370
f 359/359/359 371/371/371 370/370/370
f 359/359/359 360/360/360 371/371/371
f 360/360/360 372/372/372 371/371/371
f 360/360/360 361/361/361 372/372/372
f 361/361/361 373/373/373 372/372/372
f 361/361/361 362/362/362 373/373/373
f 362/362/362 374/374/374 373/373/373
f 362/362/362 363/363/363 374/374/374
f 363/363/363 375/375/375 374/374/374
f 363/363/363 364/364/364 375/375/375
f 364/364/364 376/376/376 375/375/375
f 364/364/364 365/365/365 376/376/376
f 365/365/365 377/377/377 376/376/376
f 365/365/365 366/366/366 377/377/377
f 366/366/366 378/378/378 377/377/377
f 366/366/366 367/367/367 378/378/378
f 367/367/367 379/379/379 378/378/378
f 367/367/367 368/368/368 379/379/379
f 369/369/369 381/381/381 380/380/380
f 369/369/369 370/370/370 381/381/381
f 370/370/370 382/382/382 381/381/381
f 370/370/370 371/371/371 382/382/382
f 371/371/371 383/383/383 382/382/382
f 371/371/371 372/372/372 383/383/383
f 372/372/372 384/384/384 383/383/383
f 372/372/372 373/373/373 384/384/384
f 373/373/373 385/385/385 384/384/384
f 373/373/373 374/374/374 385/385/385
f 374/374/374 386/386/386 385/385/385
f 374/374/374 375/375/375 386/386/386
f 375/375/375 387/387/387 386/386/386
f 375/375/375 376/376/376 387/387/387
f 376/376/376 388/388/388 387/387/387
f 376/376/376 377/377/377 388/388/388
f 377/377/377 389/389/389 388/388/388
f 377/377/377 378/378/378 389/389/389
f 378/378/378 390/390/390 389/389/389
f 378/378/378 379/379/379 390/390/390
f 380/380/380 392/392/392 391/391/391
f 380/380/380 381/381/381 392/392/392
f 381/381/381 393/393/393 392/392/392
f 381/381/381 382/382/382 393/393/393
f 382/382/382 394/394/394 393/393/393
f 382/382/382 383/383/383 394/394/394
f 383/383/383 395/395/395 394/394/394
f 383/383/383 384/384/384 395/395/395
f 384/384/384 396/396/396 395/395/395
f 384/384/384 385/385/385 396/396/396
f 385/385/385 397/397/397 396/396/396
f 385/385/385 386/386/386 397/397/397
f 386/386/386 398/398/398 397/397/397
f 386/386/386 387/387/387 398/398/398
f 387/387/387 399/399/399 398/398/398
f 387/387/387 388/388/388 399/399/399
f 388/388/388 400/400/400 399/399/399
f 388/388/388 389/389/389 400/400/400
f 389/389/389 401/401/401 400/400/400
f 389/389/389 390/390/390 401/401/401
f 391/391/391 403/403/403 402/402/402
f 391/391/391 392/392/392 403/403/403
f 392/392/392 404/404/404 403/403/403
f 392/392/392 393/393/393 404/404/404
f 393/393/393 405/405/405 404/404/404
f 393/393/393 394/394/394 405/405/405
f 394/394/394 406/406/406 405/405/405
f 394/394/394 395/395/395 406/406/406
f 395/395/395 407/407/407 406/406/406
f 395/395/395 396/396/396 407/407/407
f 396/396/396 408/408/408 407/407/407
f 396/396/396 397/397/397 408/408/408
f 397/397/397 409/409/409 408/408/408
f 397/397/397 398/398/398 409/409/409
f 398/398/398 410/410/410 409/409/409
f 398/398/398 399/399/399 410/410/410
f 399/399/399 411/411/411 410/410/410
f 399/399/399 400/400/400 411/411/411
f 400/400/400 412/412/412 411/411/411
f 400/400/400 401/401/401 412/412/412
f 402/402/402 414/414/414 413/413/413
f 402/402/402 403/403/403 414/414/414
f 403/403/403 415/415/415 414/414/414
f 403/403/403 404/404/404 415/415/415
f 404/404/404 416/416/416 415/415/415
f 404/404/404 405/405/405 416/416/416
f 405/405/405 417/417/417 416/416/416
f 405/405/405 406/406/406 417/417/417
f 406/406/406 418/418/418 417/417/417
f 406/406/406 407/407/407 418/418/418
f 407/407/407 419/419/419 418/418/418
f 407/407/407 408/408/408 419/419/419
f 408/408/408 420/420/420 419/419/419
f 408/408/408 409/409/409 420/420/420
f 409/409/409 421/421/421 420/420/420
f 409/409/409 410/410/410 421/421/421
f 410/410/410 422/422/422 421/421/421
f 410/410/410 411/411/411 422/422/422
f 411/411/411 423/423/423 422/422/422
f 411/411/411 412/412/412 423/423/423
f 413/413/413 425/425/425 424/424/424
f 413/413/413 414/414/414 425/425/425
f 414/414/414 426/426/426 425/425/425
f 414/414/414 415/415/415 426/426/426
f 415/415/415 427/427/427 426/426/426
f 415/415/415 416/416/416 427/427/427
f 416/416/416 428/428/428 427/427/427
f 416/416/416 417/417/417 428/428/428
f 417/417/417 429/429/429 428/428/428
f 417/417/417 418/418/418 429/429/429
f 418/418/418 430/430/430 429/429/429
f 418/418/418 419/419/419 430/430/430
f 419/419/419 431/431/431 430/430/430
f 419/419/419 420/420/420 431/431/431
f 420/420/420 432/432/432 431/431/431
f 420/420/420 421/421/421 432/432/432
f 421/421/421 433/433/433 432/432/432
f 421/421/421 422/422/422 433/433/433
f 422/422/422 434/434/434 433/433/433
f 422/422/422 423/423/423 434/434/434
f 424/424/424 436/436/436 435/435/435
f 424/424/424 425/425/425 436/436/436
f 425/425/425 437/437/437 436/436/436
f 425/425/425 426/426/426 437/437/437
f 426/426/426 438/438/438 437/437/437
f 426/426/426 427/427/427 438/438/438
f 427/427/427 439/439/439 438/438/438
f 427/427/427 428/428/428 439/439/439
f 428/428/428 440/440/440 439/439/439
f 428/428/428 429/429/429 440/440/440
f 429/429/429 441/441/441 440/440/440
f 429/429/429 430/430/430 441/441/441
f 430/430/430 442/442/442 441/441/441
f 430/430/430 431/431/431 442/442/442
f 431/431/431 443/443/443 442/442/442
f 431/431/431 432/432/432 443/443/443
f 432/432/432 444/444/444 443/443/443
f 432/432/432 433/433/433 444/444/444
f 433/433/433 445/445/445 444/444/444
f 433/433/433 434/434/434 445/445/445
f 446/446/446 455/455/455 447/447/447
f 446/446/446 454/454/454 455/455/455
f 462/462/462 446/446/446 447/447/447
f 463/463/463 455/455/455 454/454/454
f 447/447/447 456/456/456 448/448/448
f 447/447/447 455/455/455 456/456/456
f 462/462/462 447/447/447 448/448/448
f 463/463/463 456/456/456 455/455/455
f 448/448/448 457/457/457 449/449/449
f 448/448/448 456/456/456 457/457/457
f 462/462/462 448/448/448 449/449/449
f 463/463/463 457/457/457 456/456/456
f 449/449/449 458/458/458 450/450/450
f 449/449/449 457/457/457 458/458/458
f 462/462/462 449/449/449 450/450/450
f 463/463/463 458/458/458 457/457/457
f 450/450/450 459/459/459 451/451/451
f 450/450/450 458/458/458 459/459/459
f 462/462/462 450/450/450 451/451/451
f 463/463/463 459/459/459 458/458/458
f 451/451/451 460/460/460 452/452/452
f 451/451/451 459/459/459 460/460/460
f 462/462/462 451/451/451 452/452/452
f 463/463/463 460/460/460 459/459/459
f 452/452/452 461/461/461 453/453/453
f 452/452/452 460/460/460 461/461/461
f 462/462/462 452/452/452 453/453/453
f 463/463/463 461/461/461 460/460/460
f 453/453/453 454/454/454 446/446/446
f 453/453/453 461/461/461 454/454/454
f 462/462/462 453/453/453 446/446/446
f 463/463/463 454/454/454 461/461/461
f 464/464/464 472/472/472 465/465/465
f 464/464/464 471/471/471 472/472/472
f 478/478/478 464/464/464 465/465/465
f 479/479/479 472/472/472 471/471/471
f 465/465/465 473/473/473 466/466/466
f 465/465/465 472/472/472 473/473/473
f 478/478/478 465/465/465 466/466/466
f 479/479/479 473/473/473 472/472/472
f 466/466/466 474/474/474 467/467/467
f 466/466/466 473/473/473 474/474/474
f 478/478/478 466/466/466 467/467/467
f 479/479/479 474/474/474 473/473/473
f 467/467/467 475/475/475 468/468/468
f 467/467/467 474/474/474 475/475/475
f 478/478/478 467/467/467 468/468/468
f 479/479/479 475/475/475 474/474/474
f 468/468/468 476/476/476 469/469/469
f 468/468/468 475/475/475 476/476/476
f 478/478/478 468/468/468 469/469/469
f 479/479/479 476/476/476 475/475/475
f 469/469/469 477/477/477 470/470/470
f 469/469/469 476/476/476 477/477/477
f 478/478/478 469/469/469 470/470/470
f 479/479/479 477/477/477 476/476/476
f 470/470/470 471/471/471 464/464/464
f 470/470/470 477/477/477 471/471/471
f 478/478/478 470/470/470 464/464/464
f 479/479/479 471/471/471 477/477/477
f 480/480/480 492/492/492 491/491/491
f 480/480/480 481/481/481 492/492/492
f 481/481/481 493/493/493 492/492/492
f 481/481/481 482/482/482 493/493/493
f 482/482/482 494/494/494 493/493/493
f 482/482/482 483/483/483 494/494/494
f 483/483/483 495/495/495 494/494/494
f 483/483/483 484/484/484 495/495/495
f 484/484/484 496/496/496 495/495/495
f 484/484/484 485/485/485 496/496/496
f 485/485/485 497/497/497 496/496/496
f 485/485/485 486/486/486 497/497/497
f 486/486/486 498/498/498 497/497/497
f 486/486/486 487/487/487 498/498/498
f 487/487/487 499/499/499 498/498/498
f 487/487/487 488/488/488 499/499/499
f 488/488/488 500/500/500 499/499/499
f 488/488/488 489/489/489 500/500/500
f 489/489/489 501/501/501 500/500/500
f 489/489/489 490/490/490 501/501/501
f 491/491/491 503/503/503 502/502/502
f 491/491/491 492/492/492 503/503/503
f 492/492/492 504/504/504 503/503/503
f 492/492/492 493/493/493 504/504/504
f 493/493/493 505/505/505 504/504/504
f 493/493/493 494/494/494 505/505/505
f 494/494/494 506/506/506 505/505/505
f 494/494/494 495/495/495 506/506/506
f 495/495/495 507/507/507 506/506/506
f 495/495/495 496/496/496 507/507/507
f 496/496/496 508/508/508 507/507/507
f 496/496/496 497/497/497 508/508/508
f 497/497/497 509/509/509 508/508/508
f 497/497/497 498/498/498 509/509/509
f 498/498/498 510/510/510 509/509/509
f 498/498/498 499/499/499 510/510/510
f 499/499/499 511/511/511 510/510/510
f 499/499/499 500/500/500 511/511/511
f 500/500/500 512/512/512 511/511/511
f 500/500/500 501/501/501 512/512/512
f 502/502/502 514/514/514 513/513/513
f 502/502/502 503/503/503 514/514/514
f 503/503/503 515/515/515 514/514/514
f 503/503/503 504/504/504 515/515/515
f 504/504/504 516/516/516 515/515/515
f 504/504/504 505/505/505 516/516/516
f 505/505/505 517/517/517 516/516/516
f 505/505/505 506/506/506 517/517/517
f 506/506/506 518/518/518 517/517/517
f 506/506/506 507/507/507 518/518/518
f 507/507/507 519/519/519 518/518/518
f 507/507/507 508/508/508 519/519/519
f 508/508/508 520/520/520 519/519/519
f 508/508/508 509/509/509 520/520/520
f 509/509/509 521/521/521 520/520/520
f 509/509/509 510/510/510 521/521/521
f 510/510/510 522/522/522 521/521/521
f 510/510/510 511/511/511 522/522/522
f 511/511/511 523/523/523 522/522/522
f 511/511/511 512/512/512 523/523/523
f 513/513/513 525/525/525 524/524/524
f 513/513/513 514/514/514 525/525/525
f 514/514/514 526/526/526 525/525/525
f 514/514/514 515/515/515 526/526/526
f 515/515/515 527/527/527 526/526/526
f 515/515/515 516/516/516 527/527/527
f 516/516/516 528/528/528 527/527/527
f 516/516/516 517/517/517 528/528/528
f 517/517/517 529/529/529 528/528/528
f 517/517/517 518/518/518 529/529/529
f 518/518/518 530/530/530 529/529/529
f 518/518/518 519/519/519 530/530/530
f 519/519/519 531/531/531 530/530/530
f 519/519/519 520/520/520 531/531/531
f 520/520/520 532/532/532 531/531/531
f 520/520/520 521/521/521 532/532/532
f 521/521/521 533/533/533 532/532/532
f 521/521/521 522/522/522 533/533/533
f 522/522/522 534/534/534 533/533/533
f 522/522/522 523/523/523 534/534/534
f 524/524/524 536/536/536 535/535/535
f 524/524/524 525/525/525 536/536/536
f 525/525/525 537/537/537 536/536/536
f 525/525/525 526/526/526 537/537/537
f 526/526/526 538/538/538 537/537/537
f 526/526/526 527/527/527 538/538/538
f 527/527/527 539/539/539 538/538/538
f 527/527/527 528/528/528 539/539/539
f 528/528/528 540/540/540 539/539/539
f 528/528/528 529/529/529 540/540/540
f 529/529/529 541/541/541 540/540/540
f 529/529/529 530/530/530 541/541/541
f 530/530/530 542/542/542 541/541/541
f 530/530/530 531/531/531 542/542/542
f 531/531/531 543/543/543 542/542/542
f 531/531/531 532/532/532 543/543/543
f 532/532/532 544/544/544 543/543/543
f 532/532/532 533/533/533 544/544/544
f 533/533/533 545/545/545 544/544/544
f 533/533/533 534/534/534 545/545/545
f 535/535/535 547/547/547 546/546/546
f 535/535/535 536/536/536 547/547/547
f 536/536/536 548/548/548 547/547/547
f 536/536/536 537/537/537 548/548/548
f 537/537/537 549/549/549 548/548/548
f 537/537/537 538/538/538 549/549/549
f 538/538/538 550/550/550 549/549/549
f 538/538/538 539/539/539 550/550/550
f 539/539/539 551/551/551 550/550/550
f 539/539/539 540/540/540 551/551/551
f 540/540/540 552/552/552 551/551/551
f 540/540/540 541/541/541 552/552/552
f 541/541/541 553/553/553 552/552/552
f 541/541/541 542/542/542 553/553/553
f 542/542/542 554/554/554 553/553/553
f 542/542/542 543/543/543 554/554/554
f 543/543/543 555/555/555 554/554/554
f 543/543/543 544/544/544 555/555/555
f 544/544/544 556/556/556 555/555/555
f 544/544/544 545/545/545 556/556/556
f 546/546/546 558/558/558 557/557/557
f 546/546/546 547/547/547 558/558/558
f 547/547/547 559/559/559 558/558/558
f 547/547/547 548/548/548 559/559/559
f 548/548/548 560/560/560 559/559/559
f 548/548/548 549/549/549 560/560/560
f 549/549/549 561/561/561 560/560/560
f 549/549/549 550/550/550 561/561/561
f 550/550/550 562/562/562 561/561/561
f 550/550/550 551/551/551 562/562/562
f 551/551/551 563/563/563 562/562/562
f 551/551/551 552/552/552 563/563/563
f 552/552/552 564/564/564 563/563/563
f 552/552/552 553/553/553 564/564/564
f 553/553/553 565/565/565 564/564/564
f 553/553/553 554/554/554 565/565/565
f 554/554/554 566/566/566 565/565/565
f 554/554/554 555/555/555 566/566/566
f 555/555/555 567/567/567 566/566/566
f 555/555/555 556/556/556 567/567/567
f 557/557/557 569/569/569 568/568/568
f 557/557/557 558/558/558 569/569/569
f 558/558/558 570/570/570 569/569/569
f 558/558/558 559/559/559 570/570/570
f 559/559/559 571/571/571 570/570/570
f 559/559/559 560/560/560 571/571/571
f 560/560/560 572/572/572 571/571/571
f 560/560/560 561/561/561 572/572/572
f 561/561/561 573/573/573 572/572/572
f 561/561/561 562/562/562 573/573/573
f 562/562/562 574/574/574 573/573/573
f 562/562/562 563/563/563 574/574/574
f 563/563/563 575/575/575 574/574/574
f 563/563/563 564/564/564 575/575/575
f 564/564/564 576/576/576 575/575/575
f 564/564/564 565/565/565 576/576/576
f 565/565/565 577/577/577 576/576/576
f 565/565/565 566/566/566 577/577/577
f 566/566/566 578/578/578 577/577/577
f 566/566/566 567/567/567 578/578/578
f 579/579/579 588/588/588 580/580/580
f 579/579/579 587/587/587 588/588/588
f 595/595/595 579/579/579 580/580/580
f 596/596/596 588/588/588 587/587/587
f 580/580/580 589/589/589 581/581/581
f 580/580/580 588/588/588 589/589/589
f 595/595/595 580/580/580 581/581/581
f 596/596/596 589/589/589 588/588/588
f 581/581/581 590/590/590 582/582/582
f 581/581/581 589/589/589 590/590/590
f 595/595/595 581/581/581 582/582/582
f 596/596/596 590/590/590 589/589/589
f 582/582/582 591/591/591 583/583/583
f 582/582/582 590/590/590 591/591/591
f 595/595/595 582/582/582 583/583/583
f 596/596/596 591/591/591 590/590/590
f 583/583/583 592/592/592 584/584/584
f 583/583/583 591/591/591 592/592/592
f 595/595/595 583/583/583 584/584/584
f 596/596/596 592/592/592 591/591/591
f 584/584/584 593/593/593 585/585/585
f 584/584/584 592/592/592 593/593/593
f 595/595/595 584/584/584 585/585/585
f 596/596/596 593/593/593 592/592/592
f 585/585/585 594/594/594 586/586/586
f 585/585/585 593/593/593 594/594/594
f 595/595/595 585/585/585 586/586/586
f 596/596/596 594/594/594 593/593/593
f 586/586/586 587/587/587 579/579/579
f 586/586/586 594/594/594 587/587/587
f 595/595/595 586/586/586 579/579/579
f 596/596/596 587/587/587 594/594/594
f 597/597/597 605/605/605 598/598/598
f 597/597/597 604/604/604 605/605/605
f 611/611/611 597/597/597 598/598/598
f 612/612/612 605/605/605 604/604/604
f 598/598/598 606/606/606 599/599/599
f 598/598/598 605/605/605 606/606/606
f 611/611/611 598/598/598 599/599/599
f 612/612/612 606/606/606 605/605/605
f 599/599/599 607/607/607 600/600/600
f 599/599/599 606/606/606 607/607/607
f 611/611/611 599/599/599 600/600/600
f 612/612/612 607/607/607 606/606/606
f 600/600/600 608/608/608 601/601/601
f 600/600/600 607/607/607 608/608/608
f 611/611/611 600/600/600 601/601/601
f 612/612/612 608/608/608 607/607/607
f 601/601/601 609/609/609 602/602/602
f 601/601/601 608/608/608 609/609/609
f 611/611/611 601/601/601 602/602/602
f 612/612/612 609/609/609 608/608/608
f 602/602/602 610/610/610 603/603/603
f 602/602/602 609/609/609 610/610/610
f 611/611/611 602/602/602 603/603/603
f 612/612/612 610/610/610 609/609/609
f 603/603/603 604/604/604 597/597/597
f 603/603/603 610/610/610 604/604/604
f 611/611/611 603/603/603 597/597/597
f 612/612/612 604/604/604 610/610/610
f 613/613/613 625/625/625 624/624/624
f 613/613/613 614/614/614 625/625/625
f 614/614/614 626/626/626 625/625/625
f 614/614/614 615/615/615 626/626/626
f 615/615/615 627/627/627 626/626/626
f 615/615/615 616/616/616 627/627/627
f 616/616/616 628/628/628 627/627/627
f 616/616/616 617/617/617 628/628/628
f 617/617/617 629/629/629 628/628/628
f 617/617/617 618/618/618 629/629/629
f 618/618/618 630/630/630 629/629/629
f 618/618/618 619/619/619 630/630/630
f 619/619/619 631/631/631 630/630/630
f 619/619/619 620/620/620 631/631/631
f 620/620/620 632/632/632 631/631/631
f 620/620/620 621/621/621 632/632/632
f 621/621/621 633/633/633 632/632/632
f 621/621/621 622/622/622 633/633/633
f 622/622/622 634/634/634 633/633/633
f 622/622/622 623/623/623 634/634/634
f 624/624/624 636/636/636 635/635/635
f 624/624/624 625/625/625 636/636/636
f 625/625/625 637/637/637 636/636/636
f 625/625/625 626/626/626 637/637/637
f 626/626/626 638/638/638 637/637/637
f 626/626/626 627/627/627 638/638/638
f 627/627/627 639/639/639 638/638/638
f 627/627/627 628/628/628 639/639/639
f 628/628/628 640/640/640 639/639/639
f 628/628/628 629/629/629 640/640/640
f 629/629/629 641/641/641 640/640/640
f 629/629/629 630/630/630 641/641/641
f 630/630/630 642/642/642 641/641/641
f 630/630/630 631/631/631 642/642/642
f 631/631/631 643/643/643 642/642/642
f 631/631/631 632/632/632 643/643/643
f 632/632/632 644/644/644 643/643/643
f 632/632/632 633/633/633 644/644/644
f 633/633/633 645/645/645 644/644/644
f 633/633/633 634/634/634 645/645/645
f 635/635/635 647/647/647 646/646/646
f 635/635/635 636/636/636 647/647/647
f 636/636/636 648/648/648 647/647/647
f 636/636/636 637/637/637 648/648/648
f 637/637/637 649/649/649 648/648/648
f 637/637/637 638/638/638 649/649/649
f 638/638/638 650/650/650 649/649/649
f 638/638/638 639/639/639 650/650/650
f 639/639/639 651/651/651 650/650/650
f 639/639/639 640/640/640 651/651/651
f 640/640/640 652/652/652 651/651/651
f 640/640/640 641/641/641 652/652/652
f 641/641/641 653/653/653 652/652/652
f 641/641/641 642/642/642 653/653/653
f 642/642/642 654/654/654 653/653/653
f 642/642/642 643/643/643 654/654/654
f 643/643/643 655/655/655 654/654/654
f 643/643/643 644/644/644 655/655/655
f 644/644/644 656/656/656 655/655/655
f 644/644/644 645/645/645 656/656/656
f 646/646/646 658/658/658 657/657/657
f 646/646/646 647/647/647 658/658/658
f 647/647/647 659/659/659 658/658/658
f 647/647/647 648/648/648 659/659/659
f 648/648/648 660/660/660 659/659/659
f 648/648/648 649/649/649 660/660/660
f 649/649/649 661/661/661 660/660/660
f 649/649/649 650/650/650 661/661/661
f 650/650/650 662/662/662 661/661/661
f 650/650/650 651/651/651 662/662/662
f 651/651/651 663/663/663 662/662/662
f 651/651/651 652/652/652 663/663/663
f 652/652/652 664/664/664 663/663/663
f 652/652/652 653/653/653 664/664/664
f 653/653/653 665/665/665 664/664/664
f 653/653/653 654/654/654 665/665/665
f 654/654/654 666/666/666 665/665/665
f 654/654/654 655/655/655 666/666/666
f 655/655/655 667/667/667 666/666/666
f 655/655/655 656/656/656 667/667/667
f 657/657/657 669/669/669 668/668/668
f 657/657/657 658/658/658 669/669/669
f 658/658/658 670/670/670 669/669/669
f 658/658/658 659/659/659 670/670/670
f 659/659/659 671/671/671 670/670/670
f 659/659/659 660/660/660 671/671/671
f 660/660/660 672/672/672 671/671/671
f 660/660/660 661/661/661 672/672/672
f 661/661/661 673/673/673 672/672/672
f 661/661/661 662/662/662 673/673/673
f 662/662/662 674/674/674 673/673/673
f 662/662/662 663/663/663 674/674/674
f 663/663/663 675/675/675 674/674/674
f 663/663/663 664/664/664 675/675/675
f 664/664/664 676/676/676 675/675/675
f 664/664/664 665/665/665 676/676/676
f 665/665/665 677/677/677 676/676/676
f 665/665/665 666/666/666 677/677/677
f 666/666/666 678/678/678 677/677/677
f 666/666/666 667/667/667 678/678/678
f 668/668/668 680/680/680 679/679/679
f 668/668/668 669/669/669 680/680/680
f 669/669/669 681/681/681 680/680/680
f 669/669/669 670/670/670 681/681/681
f 670/670/670 682/682/682 681/681/681
f 670/670/670 671/671/671 682/682/682
f 671/671/671 683/683/683 682/682/682
f 671/671/671 672/672/672 683/683/683
f 672/672/672 684/684/684 683/683/683
f 672/672/672 673/673/673 684/684/684
f 673/673/673 685/685/685 684/684/684
f 673/673/673 674/674/674 685/685/685
f 674/674/674 686/686/686 685/685/685
f 674/674/674 675/675/675 686/686/686
f 675/675/675 687/687/687 686/686/686
f 675/675/675 676/676/676 687/687/687
f 676/676/676 688/688/688 687/687/687
f 676/676/676 677/677/677 688/688/688
f 677/677/677 689/689/689 688/688/688
f 677/677/677 678/678/678 689/689/689
f 679/679/679 691/691/691 690/690/690
f 679/679/679 680/680/680 691/691/691
f 680/680/680 692/692/692 691/691/691
f 680/680/680 681/681/681 692/692/692
f 681/681/681 693/693/693 692/692/692
f 681/681/681 682/682/682 693/693/693
f 682/682/682 694/694/694 693/693/693
f 682/682/682 683/683/683 694/694/694
f 683/683/683 695/695/695 694/694/694
f 683/683/683 684/684/684 695/695/695
f 684/684/684 696/696/696 695/695/695
f 684/684/684 685/685/685 696/696/696
f 685/685/685 697/697/697 696/696/696
f 685/685/685 686/686/686 697/697/697
f 686/686/686 698/698/698 697/697/697
f 686/686/686 687/687/687 698/698/698
f 687/687/687 699/699/699 698/698/698
f 687/687/687 688/688/688 699/699/699
f 688/688/688 700/700/700 699/699/699
f 688/688/688 689/689/689 700/700/700
f 690/690/690 702/702/702 701/701/701
f 690/690/690 691/691/691 702/702/702
f 691/691/691 703/703/703 702/702/702
f 691/691/691 692/692/692 703/703/703
f 692/692/692 704/704/704 703/703/703
f 692/692/692 693/693/693 704/704/704
f 693/693/693 705/705/705 704/704/704
f 693/693/693 694/694/694 705/705/705
f 694/694/694 706/706/706 705/705/705
f 694/694/694 695/695/695 706/706/706
f 695/695/695 707/707/707 706/706/706
f 695/695/695 696/696/696 707/707/707
f 696/696/696 708/708/708 707/707/707
f 696/696/696 697/697/697 708/708/708
f 697/697/697 709/709/709 708/708/708
f 697/697/697 698/698/698 709/709/709
f 698/698/698 710/710/710 709/709/709
f 698/698/698 699/699/699 710/710/710
f 699/699/699 711/711/711 710/710/710
f 699/699/699 700/700/700 711/711/711