# 3D Model: tree/canopy/images (6)
# Style: broadleaf_camphor_oak | Symmetry: asymmetric
# Dimensions: 16.578 x 23.474 x 18.069 m
# Triangles: 960 | Vertices: 611
v 1.7357 0 0
v 1.4042 0 1.0202
v 0.5364 0 1.6507
v -0.5364 0 1.6507
v -1.4042 0 1.0202
v -1.7357 0 0
v -1.4042 0 -1.0202
v -0.5364 0 -1.6507
v 0.5364 0 -1.6507
v 1.4042 0 -1.0202
v 0.9643 9.2596 0
v 0.7801 9.2596 0.5668
v 0.298 9.2596 0.9171
v -0.298 9.2596 0.9171
v -0.7801 9.2596 0.5668
v -0.9643 9.2596 0
v -0.7801 9.2596 -0.5668
v -0.298 9.2596 -0.9171
v 0.298 9.2596 -0.9171
v 0.7801 9.2596 -0.5668
v 0 0 0
v 0 9.2596 0
v 2.8869 0.0463 1.1227
v 0.8529 0.0463 1.4301
v 0.5455 0.0463 -0.6039
v 2.5795 0.0463 -0.9113
v 1.8585 5.1391 0.3643
v 1.6113 5.1391 0.4017
v 1.5739 5.1391 0.1545
v 1.8211 5.1391 0.1171
v 1.7162 0.0463 0.2594
v 1.7162 5.1391 0.2594
v 1.4665 0.0463 0.8657
v 1.1303 0.0463 2.8951
v -0.8992 0.0463 2.559
v -0.563 0.0463 0.5295
v 0.4274 5.1391 1.6094
v 0.3865 5.1391 1.8561
v 0.1399 5.1391 1.8152
v 0.1808 5.1391 1.5686
v 0.2836 0.0463 1.7123
v 0.2836 5.1391 1.7123
v -1.9806 0.0463 -0.5876
v -0.1543 0.0463 0.3592
v -1.1012 0.0463 2.1854
v -2.9274 0.0463 1.2386
v -1.5943 5.1391 0.6304
v -1.3724 5.1391 0.7455
v -1.4874 5.1391 0.9674
v -1.7094 5.1391 0.8523
v -1.5409 0.0463 0.7989
v -1.5409 5.1391 0.7989
v -2.6905 0.0463 -1.2289
v -1.2257 0.0463 -2.6731
v 0.2186 0.0463 -1.2083
v -1.2463 0.0463 0.236
v -1.4127 5.1391 -1.2198
v -1.2347 5.1391 -1.3954
v -1.0592 5.1391 -1.2173
v -1.2372 5.1391 -1.0418
v -1.236 0.0463 -1.2186
v -1.236 5.1391 -1.2186
v 0.3177 0.0463 -0.1719
v -0.6032 0.0463 -2.0113
v 1.2363 0.0463 -2.9322
v 2.1572 0.0463 -1.0928
v 0.7212 5.1391 -1.3843
v 0.6093 5.1391 -1.6078
v 0.8328 5.1391 -1.7198
v 0.9447 5.1391 -1.4962
v 0.777 0.0463 -1.552
v 0.777 5.1391 -1.552
v 2.4953 13.8075 0.728
v 2.4953 13.8075 0.728
v 2.4953 13.8075 0.728
v 2.4953 13.8075 0.728
v 2.4953 13.8075 0.728
v 2.4953 13.8075 0.728
v 2.4953 13.8075 0.728
v 2.4953 13.8075 0.728
v 2.4953 13.8075 0.728
v 2.4953 13.8075 0.728
v 2.4953 13.8075 0.728
v 4.5946 13.2126 0.493
v 4.3383 13.0621 2.0245
v 3.3991 12.9065 3.0358
v 2.1359 12.8053 3.1407
v 1.0311 12.7971 2.299
v 0.5067 12.8851 0.8324
v 0.763 13.0355 -0.6991
v 1.7022 13.1911 -1.7104
v 2.9654 13.2923 -1.8153
v 4.0702 13.3005 -0.9737
v 4.5946 13.2126 0.493
v 6.2421 11.2597 0.1904
v 5.7981 10.9991 2.843
v 4.1715 10.7297 4.5947
v 1.9835 10.5544 4.7763
v 0.0699 10.5401 3.3186
v -0.8383 10.6925 0.7783
v -0.3943 10.9531 -1.8743
v 1.2324 11.2225 -3.626
v 3.4203 11.3979 -3.8076
v 5.3339 11.4121 -2.3499
v 6.2421 11.2597 0.1904
v 6.9964 8.4722 -0.0987
v 6.4837 8.1713 2.9643
v 4.6054 7.8601 4.9869
v 2.079 7.6577 5.1967
v -0.1306 7.6413 3.5134
v -1.1794 7.8172 0.5801
v -0.6667 8.1182 -2.4829
v 1.2116 8.4293 -4.5055
v 3.7381 8.6317 -4.7153
v 5.9477 8.6481 -3.032
v 6.9964 8.4722 -0.0987
v 6.6554 5.597 -0.2969
v 6.2114 5.3363 2.3557
v 4.5847 5.0669 4.1074
v 2.3967 4.8916 4.289
v 0.4831 4.8774 2.8313
v -0.4251 5.0297 0.291
v 0.0189 5.2903 -2.3616
v 1.6456 5.5598 -4.1133
v 3.8336 5.7351 -4.2949
v 5.7472 5.7493 -2.8372
v 6.6554 5.597 -0.2969
v 5.3104 3.4044 -0.351
v 5.054 3.2539 1.1805
v 4.1149 3.0983 2.1918
v 2.8516 2.9971 2.2967
v 1.7468 2.9889 1.4551
v 1.2225 3.0768 -0.0116
v 1.4788 3.2273 -1.5431
v 2.418 3.3829 -2.5544
v 3.6812 3.4841 -2.6593
v 4.786 3.4923 -1.8176
v 5.3104 3.4044 -0.351
v 3.3218 2.4819 -0.2466
v 3.3218 2.4819 -0.2466
v 3.3218 2.4819 -0.2466
v 3.3218 2.4819 -0.2466
v 3.3218 2.4819 -0.2466
v 3.3218 2.4819 -0.2466
v 3.3218 2.4819 -0.2466
v 3.3218 2.4819 -0.2466
v 3.3218 2.4819 -0.2466
v 3.3218 2.4819 -0.2466
v 3.3218 2.4819 -0.2466
v 2.3423 16.1227 2.0464
v 2.3423 16.1227 2.0464
v 2.3423 16.1227 2.0464
v 2.3423 16.1227 2.0464
v 2.3423 16.1227 2.0464
v 2.3423 16.1227 2.0464
v 2.3423 16.1227 2.0464
v 2.3423 16.1227 2.0464
v 2.3423 16.1227 2.0464
v 2.3423 16.1227 2.0464
v 2.3423 16.1227 2.0464
v 3.9287 15.1856 0.2969
v 4.7742 15.137 1.7201
v 4.6703 15.1504 3.2692
v 3.6569 15.2209 4.3526
v 2.121 15.3214 4.5565
v 0.6492 15.4136 3.803
v -0.1962 15.4622 2.3798
v -0.0924 15.4487 0.8307
v 0.921 15.3783 -0.2527
v 2.4569 15.2778 -0.4566
v 3.9287 15.1856 0.2969
v 4.9832 12.8532 -0.9766
v 6.4476 12.769 1.4884
v 6.2678 12.7923 4.1715
v 4.5125 12.9143 6.0481
v 1.8522 13.0884 6.4012
v -0.697 13.2481 5.0961
v -2.1614 13.3323 2.6311
v -1.9816 13.3089 -0.052
v -0.2263 13.1869 -1.9286
v 2.4341 13.0129 -2.2817
v 4.9832 12.8532 -0.9766
v 5.2234 9.7506 -1.4329
v 6.9143 9.6533 1.4134
v 6.7066 9.6803 4.5116
v 4.6798 9.8212 6.6785
v 1.6079 10.0222 7.0862
v -1.3356 10.2065 5.5792
v -3.0265 10.3038 2.7329
v -2.8189 10.2768 -0.3654
v -0.792 10.1359 -2.5322
v 2.2798 9.9349 -2.94
v 5.2234 9.7506 -1.4329
v 4.5848 6.709 -0.9498
v 6.0491 6.6248 1.5151
v 5.8693 6.6481 4.1983
v 4.114 6.7701 6.0748
v 1.4537 6.9442 6.428
v -1.0955 7.1038 5.1228
v -2.5599 7.1881 2.6579
v -2.38 7.1647 -0.0253
v -0.6247 7.0427 -1.9018
v 2.0356 6.8686 -2.255
v 4.5848 6.709 -0.9498
v 3.2385 4.5435 0.3433
v 4.084 4.4949 1.7664
v 3.9802 4.5084 3.3156
v 2.9667 4.5788 4.399
v 1.4308 4.6793 4.6029
v -0.041 4.7715 3.8493
v -0.8864 4.8201 2.4262
v -0.7826 4.8066 0.8771
v 0.2308 4.7362 -0.2064
v 1.7668 4.6357 -0.4102
v 3.2385 4.5435 0.3433
v 1.5454 3.8343 2.0999
v 1.5454 3.8343 2.0999
v 1.5454 3.8343 2.0999
v 1.5454 3.8343 2.0999
v 1.5454 3.8343 2.0999
v 1.5454 3.8343 2.0999
v 1.5454 3.8343 2.0999
v 1.5454 3.8343 2.0999
v 1.5454 3.8343 2.0999
v 1.5454 3.8343 2.0999
v 1.5454 3.8343 2.0999
v -1.0684 16.5884 4.667
v -1.0684 16.5884 4.667
v -1.0684 16.5884 4.667
v -1.0684 16.5884 4.667
v -1.0684 16.5884 4.667
v -1.0684 16.5884 4.667
v -1.0684 16.5884 4.667
v -1.0684 16.5884 4.667
v -1.0684 16.5884 4.667
v -1.0684 16.5884 4.667
v -1.0684 16.5884 4.667
v -1.5627 15.98 2.4714
v -0.0116 15.9856 2.5578
v 1.137 15.9771 3.446
v 1.4442 15.9576 4.7969
v 0.7929 15.9347 6.0945
v -0.5683 15.9171 6.843
v -2.1194 15.9115 6.7566
v -3.2679 15.92 5.8683
v -3.5752 15.9395 4.5174
v -2.9239 15.9624 3.2199
v -1.5627 15.98 2.4714
v -1.9188 14.2549 0.8443
v 0.7677 14.2646 0.9939
v 2.7571 14.2498 2.5325
v 3.2893 14.2161 4.8723
v 2.1612 14.1764 7.1197
v -0.1965 14.1459 8.4161
v -2.8831 14.1361 8.2665
v -4.8724 14.1509 6.7279
v -5.4047 14.1846 4.3881
v -4.2765 14.2243 2.1408
v -1.9188 14.2549 0.8443
v -2.0414 11.8753 0.2218
v 1.0608 11.8865 0.3946
v 3.3579 11.8694 2.1712
v 3.9725 11.8305 4.873
v 2.6698 11.7847 7.468
v -0.0525 11.7494 8.965
v -3.1548 11.7382 8.7922
v -5.4519 11.7553 7.0156
v -6.0664 11.7942 4.3138
v -4.7637 11.84 1.7188
v -2.0414 11.8753 0.2218
v -1.8974 9.4788 0.7707
v 0.7892 9.4886 0.9203
v 2.7785 9.4738 2.4589
v 3.3107 9.4401 4.7987
v 2.1826 9.4004 7.046
v -0.1751 9.3698 8.3425
v -2.8617 9.3601 8.1929
v -4.851 9.3749 6.6543
v -5.3832 9.4086 4.3145
v -4.2551 9.4483 2.0671
v -1.8974 9.4788 0.7707
v -1.5256 7.7076 2.3438
v 0.0255 7.7132 2.4302
v 1.174 7.7047 3.3185
v 1.4813 7.6852 4.6694
v 0.83 7.6623 5.9669
v -0.5312 7.6447 6.7154
v -2.0823 7.6391 6.629
v -3.2309 7.6476 5.7408
v -3.5382 7.667 4.3899
v -2.8868 7.69 3.0924
v -1.5256 7.7076 2.3438
v -1.0255 7.0363 4.5198
v -1.0255 7.0363 4.5198
v -1.0255 7.0363 4.5198
v -1.0255 7.0363 4.5198
v -1.0255 7.0363 4.5198
v -1.0255 7.0363 4.5198
v -1.0255 7.0363 4.5198
v -1.0255 7.0363 4.5198
v -1.0255 7.0363 4.5198
v -1.0255 7.0363 4.5198
v -1.0255 7.0363 4.5198
v -3.7123 17.8647 1.8794
v -3.7123 17.8647 1.8794
v -3.7123 17.8647 1.8794
v -3.7123 17.8647 1.8794
v -3.7123 17.8647 1.8794
v -3.7123 17.8647 1.8794
v -3.7123 17.8647 1.8794
v -3.7123 17.8647 1.8794
v -3.7123 17.8647 1.8794
v -3.7123 17.8647 1.8794
v -3.7123 17.8647 1.8794
v -6.1816 17.4779 0.6746
v -4.9559 17.2759 -0.6036
v -3.2777 17.0829 -0.9208
v -1.7879 16.9726 -0.1558
v -1.0556 16.9873 1.3992
v -1.3605 17.1212 3.1502
v -2.5862 17.3232 4.4284
v -4.2645 17.5162 4.7456
v -5.7543 17.6264 3.9805
v -6.4866 17.6118 2.4256
v -6.1816 17.4779 0.6746
v -8.1068 16.0643 -0.1414
v -5.9838 15.7144 -2.3553
v -3.077 15.3802 -2.9046
v -0.4966 15.1892 -1.5796
v 0.7717 15.2146 1.1137
v 0.2436 15.4465 4.1465
v -1.8794 15.7965 6.3604
v -4.7862 16.1307 6.9097
v -7.3666 16.3216 5.5847
v -8.6349 16.2963 2.8914
v -8.1068 16.0643 -0.1414
v -8.972 14.0029 -0.35
v -6.5206 13.5988 -2.9063
v -3.1641 13.2128 -3.5407
v -0.1845 12.9924 -2.0106
v 1.2801 13.0216 1.0993
v 0.6702 13.2895 4.6013
v -1.7812 13.6935 7.1576
v -5.1377 14.0795 7.792
v -8.1173 14.3 6.262
v -9.5818 14.2707 3.152
v -8.972 14.0029 -0.35
v -8.5454 11.8458 0.1048
v -6.4224 11.4959 -2.109
v -3.5156 11.1616 -2.6584
v -0.9352 10.9707 -1.3334
v 0.3332 10.996 1.3599
v -0.195 11.228 4.3927
v -2.3179 11.5779 6.6066
v -5.2247 11.9122 7.1559
v -7.8052 12.1031 5.8309
v -9.0735 12.0777 3.1376
v -8.5454 11.8458 0.1048
v -6.9412 10.1711 1.1011
v -5.7156 9.9691 -0.1771
v -4.0373 9.7761 -0.4942
v -2.5475 9.6659 0.2708
v -1.8152 9.6805 1.8257
v -2.1201 9.8144 3.5767
v -3.3458 10.0165 4.8549
v -5.0241 10.2095 5.1721
v -6.5139 10.3197 4.4071
v -7.2462 10.305 2.8521
v -6.9412 10.1711 1.1011
v -4.5895 9.4276 2.3719
v -4.5895 9.4276 2.3719
v -4.5895 9.4276 2.3719
v -4.5895 9.4276 2.3719
v -4.5895 9.4276 2.3719
v -4.5895 9.4276 2.3719
v -4.5895 9.4276 2.3719
v -4.5895 9.4276 2.3719
v -4.5895 9.4276 2.3719
v -4.5895 9.4276 2.3719
v -4.5895 9.4276 2.3719
v -3.025 21.1089 -0.805
v -3.025 21.1089 -0.805
v -3.025 21.1089 -0.805
v -3.025 21.1089 -0.805
v -3.025 21.1089 -0.805
v -3.025 21.1089 -0.805
v -3.025 21.1089 -0.805
v -3.025 21.1089 -0.805
v -3.025 21.1089 -0.805
v -3.025 21.1089 -0.805
v -3.025 21.1089 -0.805
v -5.7703 20.3477 0.0247
v -5.6624 20.3846 -1.4799
v -4.5486 20.4101 -2.734
v -2.8543 20.4145 -3.2584
v -1.2267 20.396 -2.8529
v -0.2875 20.3618 -1.6723
v -0.3954 20.3249 -0.1677
v -1.5092 20.2994 1.0864
v -3.2035 20.295 1.6108
v -4.8311 20.3134 1.2052
v -5.7703 20.3477 0.0247
v -7.7877 18.2822 0.5945
v -7.6008 18.3461 -2.0116
v -5.6716 18.3903 -4.1836
v -2.737 18.3979 -5.0919
v 0.0821 18.3659 -4.3895
v 1.7088 18.3067 -2.3448
v 1.5219 18.2427 0.2613
v -0.4073 18.1985 2.4334
v -3.3419 18.1909 3.3417
v -6.161 18.2229 2.6393
v -7.7877 18.2822 0.5945
v -8.5368 15.4658 0.7518
v -8.3209 15.5397 -2.2575
v -6.0932 15.5907 -4.7656
v -2.7047 15.5995 -5.8144
v 0.5505 15.5626 -5.0033
v 2.429 15.4941 -2.6422
v 2.2131 15.4203 0.3671
v -0.0146 15.3692 2.8751
v -3.4031 15.3605 3.9239
v -6.6583 15.3974 3.1129
v -8.5368 15.4658 0.7518
v -7.8166 12.6533 0.4543
v -7.6297 12.7173 -2.1518
v -5.7005 12.7615 -4.3238
v -2.7659 12.769 -5.2321
v 0.0532 12.7371 -4.5297
v 1.6799 12.6778 -2.485
v 1.493 12.6138 0.1212
v -0.4362 12.5696 2.2932
v -3.3708 12.5621 3.2015
v -6.1899 12.594 2.4991
v -7.8166 12.6533 0.4543
v -5.8203 10.5982 -0.2181
v -5.7124 10.6351 -1.7228
v -4.5986 10.6606 -2.9768
v -2.9043 10.665 -3.5012
v -1.2767 10.6465 -3.0957
v -0.3375 10.6123 -1.9151
v -0.4454 10.5754 -0.4105
v -1.5592 10.5499 0.8435
v -3.2535 10.5455 1.3679
v -4.8811 10.5639 0.9624
v -5.8203 10.5982 -0.2181
v -3.0828 9.8511 -1.0854
v -3.0828 9.8511 -1.0854
v -3.0828 9.8511 -1.0854
v -3.0828 9.8511 -1.0854
v -3.0828 9.8511 -1.0854
v -3.0828 9.8511 -1.0854
v -3.0828 9.8511 -1.0854
v -3.0828 9.8511 -1.0854
v -3.0828 9.8511 -1.0854
v -3.0828 9.8511 -1.0854
v -3.0828 9.8511 -1.0854
v -1.056 23.1452 -3.9894
v -1.056 23.1452 -3.9894
v -1.056 23.1452 -3.9894
v -1.056 23.1452 -3.9894
v -1.056 23.1452 -3.9894
v -1.056 23.1452 -3.9894
v -1.056 23.1452 -3.9894
v -1.056 23.1452 -3.9894
v -1.056 23.1452 -3.9894
v -1.056 23.1452 -3.9894
v -1.056 23.1452 -3.9894
v -1.9669 22.4024 -1.4444
v -3.2249 22.4729 -2.4178
v -3.6705 22.5018 -3.9925
v -3.1335 22.4781 -5.567
v -1.8189 22.4107 -6.5398
v -0.2289 22.3255 -6.5395
v 1.0291 22.255 -5.566
v 1.4747 22.2261 -3.9913
v 0.9377 22.2498 -2.4169
v -0.3769 22.3172 -1.444
v -1.9669 22.4024 -1.4444
v -2.7174 20.2961 0.4137
v -4.8964 20.4182 -1.2723
v -5.6682 20.4683 -3.9998
v -4.738 20.4271 -6.7268
v -2.4611 20.3105 -8.4119
v 0.2928 20.163 -8.4112
v 2.4719 20.0408 -6.7252
v 3.2437 19.9907 -3.9977
v 2.3134 20.0319 -1.2706
v 0.0365 20.1485 0.4144
v -2.7174 20.2961 0.4137
v -3.1064 17.3906 1.087
v -5.6226 17.5317 -0.8599
v -6.5138 17.5895 -4.0093
v -5.4396 17.542 -7.1582
v -2.8105 17.4073 -9.1039
v 0.3694 17.2369 -9.1031
v 2.8856 17.0959 -7.1563
v 3.7768 17.0381 -4.0069
v 2.7026 17.0856 -0.8579
v 0.0735 17.2202 1.0878
v -3.1064 17.3906 1.087
v -3.0298 14.4646 0.3951
v -5.2089 14.5868 -1.291
v -5.9807 14.6369 -4.0184
v -5.0504 14.5957 -6.7455
v -2.7735 14.4791 -8.4305
v -0.0196 14.3315 -8.4298
v 2.1594 14.2094 -6.7438
v 2.9312 14.1593 -4.0163
v 2.001 14.2004 -1.2893
v -0.2759 14.3171 0.3957
v -3.0298 14.4646 0.3951
v -2.5081 12.3021 -1.4767
v -3.7661 12.3726 -2.4501
v -4.2117 12.4015 -4.0248
v -3.6747 12.3777 -5.5993
v -2.3601 12.3104 -6.5721
v -0.7701 12.2252 -6.5717
v 0.4879 12.1547 -5.5983
v 0.9335 12.1258 -4.0236
v 0.3965 12.1495 -2.4491
v -0.9181 12.2169 -1.4763
v -2.5081 12.3021 -1.4767
v -1.681 11.4824 -4.0267
v -1.681 11.4824 -4.0267
v -1.681 11.4824 -4.0267
v -1.681 11.4824 -4.0267
v -1.681 11.4824 -4.0267
v -1.681 11.4824 -4.0267
v -1.681 11.4824 -4.0267
v -1.681 11.4824 -4.0267
v -1.681 11.4824 -4.0267
v -1.681 11.4824 -4.0267
v -1.681 11.4824 -4.0267
v 2.0585 23.4738 -2.546
v 2.0585 23.4738 -2.546
v 2.0585 23.4738 -2.546
v 2.0585 23.4738 -2.546
v 2.0585 23.4738 -2.546
v 2.0585 23.4738 -2.546
v 2.0585 23.4738 -2.546
v 2.0585 23.4738 -2.546
v 2.0585 23.4738 -2.546
v 2.0585 23.4738 -2.546
v 2.0585 23.4738 -2.546
v 3.5557 22.9906 -0.84
v 2.096 23.031 -0.1126
v 0.622 23.0192 -0.302
v -0.303 22.9596 -1.3359
v -0.3259 22.875 -2.8194
v 0.5622 22.7978 -4.1858
v 2.022 22.7573 -4.9133
v 3.4959 22.7692 -4.7239
v 4.4209 22.8288 -3.69
v 4.4438 22.9133 -2.2065
v 3.5557 22.9906 -0.84
v 4.6526 21.4777 0.4748
v 2.1242 21.5477 1.7348
v -0.4287 21.5272 1.4068
v -2.031 21.424 -0.384
v -2.0706 21.2775 -2.9535
v -0.5324 21.1437 -5.3202
v 1.996 21.0737 -6.5802
v 4.5489 21.0942 -6.2522
v 6.1511 21.1974 -4.4614
v 6.1907 21.3439 -1.8919
v 4.6526 21.4777 0.4748
v 5.0552 19.3404 1.0464
v 2.1356 19.4213 2.5013
v -0.8122 19.3976 2.1225
v -2.6623 19.2784 0.0547
v -2.7081 19.1093 -2.9123
v -0.932 18.9548 -5.6452
v 1.9876 18.8739 -7.1001
v 4.9354 18.8976 -6.7213
v 6.7855 19.0168 -4.6535
v 6.8313 19.1859 -1.6865
v 5.0552 19.3404 1.0464
v 4.6556 17.1515 0.7214
v 2.1272 17.2215 1.9814
v -0.4257 17.201 1.6533
v -2.0279 17.0978 -0.1374
v -2.0675 16.9514 -2.7069
v -0.5294 16.8175 -5.0737
v 1.999 16.7475 -6.3336
v 4.5519 16.768 -6.0056
v 6.1542 16.8712 -4.2148
v 6.1938 17.0177 -1.6453
v 4.6556 17.1515 0.7214
v 3.561 15.4974 -0.413
v 2.1013 15.5379 0.3145
v 0.6273 15.526 0.1251
v -0.2977 15.4665 -0.9088
v -0.3206 15.3819 -2.3923
v 0.5675 15.3046 -3.7588
v 2.0273 15.2642 -4.4862
v 3.5012 15.276 -4.2968
v 4.4262 15.3356 -3.2629
v 4.4491 15.4202 -1.7794
v 3.561 15.4974 -0.413
v 2.0647 14.8214 -2.0528
v 2.0647 14.8214 -2.0528
v 2.0647 14.8214 -2.0528
v 2.0647 14.8214 -2.0528
v 2.0647 14.8214 -2.0528
v 2.0647 14.8214 -2.0528
v 2.0647 14.8214 -2.0528
v 2.0647 14.8214 -2.0528
v 2.0647 14.8214 -2.0528
v 2.0647 14.8214 -2.0528
v 2.0647 14.8214 -2.0528
vt 0 0
vt 0.1 0
vt 0.2 0
vt 0.3 0
vt 0.4 0
vt 0.5 0
vt 0.6 0
vt 0.7 0
vt 0.8 0
vt 0.9 0
vt 0 1
vt 0.1 1
vt 0.2 1
vt 0.3 1
vt 0.4 1
vt 0.5 1
vt 0.6 1
vt 0.7 1
vt 0.8 1
vt 0.9 1
vt 0.5 0.5
vt 0.5 0.5
vt 0 0
vt 0.25 0
vt 0.5 0
vt 0.75 0
vt 0 1
vt 0.25 1
vt 0.5 1
vt 0.75 1
vt 0.5 0.5
vt 0.5 0.5
vt 0 0
vt 0.25 0
vt 0.5 0
vt 0.75 0
vt 0 1
vt 0.25 1
vt 0.5 1
vt 0.75 1
vt 0.5 0.5
vt 0.5 0.5
vt 0 0
vt 0.25 0
vt 0.5 0
vt 0.75 0
vt 0 1
vt 0.25 1
vt 0.5 1
vt 0.75 1
vt 0.5 0.5
vt 0.5 0.5
vt 0 0
vt 0.25 0
vt 0.5 0
vt 0.75 0
vt 0 1
vt 0.25 1
vt 0.5 1
vt 0.75 1
vt 0.5 0.5
vt 0.5 0.5
vt 0 0
vt 0.25 0
vt 0.5 0
vt 0.75 0
vt 0 1
vt 0.25 1
vt 0.5 1
vt 0.75 1
vt 0.5 0.5
vt 0.5 0.5
vt 0 0
vt 0.1 0
vt 0.2 0
vt 0.3 0
vt 0.4 0
vt 0.5 0
vt 0.6 0
vt 0.7 0
vt 0.8 0
vt 0.9 0
vt 1 0
vt 0 0.16666666666666666
vt 0.1 0.16666666666666666
vt 0.2 0.16666666666666666
vt 0.3 0.16666666666666666
vt 0.4 0.16666666666666666
vt 0.5 0.16666666666666666
vt 0.6 0.16666666666666666
vt 0.7 0.16666666666666666
vt 0.8 0.16666666666666666
vt 0.9 0.16666666666666666
vt 1 0.16666666666666666
vt 0 0.3333333333333333
vt 0.1 0.3333333333333333
vt 0.2 0.3333333333333333
vt 0.3 0.3333333333333333
vt 0.4 0.3333333333333333
vt 0.5 0.3333333333333333
vt 0.6 0.3333333333333333
vt 0.7 0.3333333333333333
vt 0.8 0.3333333333333333
vt 0.9 0.3333333333333333
vt 1 0.3333333333333333
vt 0 0.5
vt 0.1 0.5
vt 0.2 0.5
vt 0.3 0.5
vt 0.4 0.5
vt 0.5 0.5
vt 0.6 0.5
vt 0.7 0.5
vt 0.8 0.5
vt 0.9 0.5
vt 1 0.5
vt 0 0.6666666666666666
vt 0.1 0.6666666666666666
vt 0.2 0.6666666666666666
vt 0.3 0.6666666666666666
vt 0.4 0.6666666666666666
vt 0.5 0.6666666666666666
vt 0.6 0.6666666666666666
vt 0.7 0.6666666666666666
vt 0.8 0.6666666666666666
vt 0.9 0.6666666666666666
vt 1 0.6666666666666666
vt 0 0.8333333333333334
vt 0.1 0.8333333333333334
vt 0.2 0.8333333333333334
vt 0.3 0.8333333333333334
vt 0.4 0.8333333333333334
vt 0.5 0.8333333333333334
vt 0.6 0.8333333333333334
vt 0.7 0.8333333333333334
vt 0.8 0.8333333333333334
vt 0.9 0.8333333333333334
vt 1 0.8333333333333334
vt 0 1
vt 0.1 1
vt 0.2 1
vt 0.3 1
vt 0.4 1
vt 0.5 1
vt 0.6 1
vt 0.7 1
vt 0.8 1
vt 0.9 1
vt 1 1
vt 0 0
vt 0.1 0
vt 0.2 0
vt 0.3 0
vt 0.4 0
vt 0.5 0
vt 0.6 0
vt 0.7 0
vt 0.8 0
vt 0.9 0
vt 1 0
vt 0 0.16666666666666666
vt 0.1 0.16666666666666666
vt 0.2 0.16666666666666666
vt 0.3 0.16666666666666666
vt 0.4 0.16666666666666666
vt 0.5 0.16666666666666666
vt 0.6 0.16666666666666666
vt 0.7 0.16666666666666666
vt 0.8 0.16666666666666666
vt 0.9 0.16666666666666666
vt 1 0.16666666666666666
vt 0 0.3333333333333333
vt 0.1 0.3333333333333333
vt 0.2 0.3333333333333333
vt 0.3 0.3333333333333333
vt 0.4 0.3333333333333333
vt 0.5 0.3333333333333333
vt 0.6 0.3333333333333333
vt 0.7 0.3333333333333333
vt 0.8 0.3333333333333333
vt 0.9 0.3333333333333333
vt 1 0.3333333333333333
vt 0 0.5
vt 0.1 0.5
vt 0.2 0.5
vt 0.3 0.5
vt 0.4 0.5
vt 0.5 0.5
vt 0.6 0.5
vt 0.7 0.5
vt 0.8 0.5
vt 0.9 0.5
vt 1 0.5
vt 0 0.6666666666666666
vt 0.1 0.6666666666666666
vt 0.2 0.6666666666666666
vt 0.3 0.6666666666666666
vt 0.4 0.6666666666666666
vt 0.5 0.6666666666666666
vt 0.6 0.6666666666666666
vt 0.7 0.6666666666666666
vt 0.8 0.6666666666666666
vt 0.9 0.6666666666666666
vt 1 0.6666666666666666
vt 0 0.8333333333333334
vt 0.1 0.8333333333333334
vt 0.2 0.8333333333333334
vt 0.3 0.8333333333333334
vt 0.4 0.8333333333333334
vt 0.5 0.8333333333333334
vt 0.6 0.8333333333333334
vt 0.7 0.8333333333333334
vt 0.8 0.8333333333333334
vt 0.9 0.8333333333333334
vt 1 0.8333333333333334
vt 0 1
vt 0.1 1
vt 0.2 1
vt 0.3 1
vt 0.4 1
vt 0.5 1
vt 0.6 1
vt 0.7 1
vt 0.8 1
vt 0.9 1
vt 1 1
vt 0 0
vt 0.1 0
vt 0.2 0
vt 0.3 0
vt 0.4 0
vt 0.5 0
vt 0.6 0
vt 0.7 0
vt 0.8 0
vt 0.9 0
vt 1 0
vt 0 0.16666666666666666
vt 0.1 0.16666666666666666
vt 0.2 0.16666666666666666
vt 0.3 0.16666666666666666
vt 0.4 0.16666666666666666
vt 0.5 0.16666666666666666
vt 0.6 0.16666666666666666
vt 0.7 0.16666666666666666
vt 0.8 0.16666666666666666
vt 0.9 0.16666666666666666
vt 1 0.16666666666666666
vt 0 0.3333333333333333
vt 0.1 0.3333333333333333
vt 0.2 0.3333333333333333
vt 0.3 0.3333333333333333
vt 0.4 0.3333333333333333
vt 0.5 0.3333333333333333
vt 0.6 0.3333333333333333
vt 0.7 0.3333333333333333
vt 0.8 0.3333333333333333
vt 0.9 0.3333333333333333
vt 1 0.3333333333333333
vt 0 0.5
vt 0.1 0.5
vt 0.2 0.5
vt 0.3 0.5
vt 0.4 0.5
vt 0.5 0.5
vt 0.6 0.5
vt 0.7 0.5
vt 0.8 0.5
vt 0.9 0.5
vt 1 0.5
vt 0 0.6666666666666666
vt 0.1 0.6666666666666666
vt 0.2 0.6666666666666666
vt 0.3 0.6666666666666666
vt 0.4 0.6666666666666666
vt 0.5 0.6666666666666666
vt 0.6 0.6666666666666666
vt 0.7 0.6666666666666666
vt 0.8 0.6666666666666666
vt 0.9 0.6666666666666666
vt 1 0.6666666666666666
vt 0 0.8333333333333334
vt 0.1 0.8333333333333334
vt 0.2 0.8333333333333334
vt 0.3 0.8333333333333334
vt 0.4 0.8333333333333334
vt 0.5 0.8333333333333334
vt 0.6 0.8333333333333334
vt 0.7 0.8333333333333334
vt 0.8 0.8333333333333334
vt 0.9 0.8333333333333334
vt 1 0.8333333333333334
vt 0 1
vt 0.1 1
vt 0.2 1
vt 0.3 1
vt 0.4 1
vt 0.5 1
vt 0.6 1
vt 0.7 1
vt 0.8 1
vt 0.9 1
vt 1 1
vt 0 0
vt 0.1 0
vt 0.2 0
vt 0.3 0
vt 0.4 0
vt 0.5 0
vt 0.6 0
vt 0.7 0
vt 0.8 0
vt 0.9 0
vt 1 0
vt 0 0.16666666666666666
vt 0.1 0.16666666666666666
vt 0.2 0.16666666666666666
vt 0.3 0.16666666666666666
vt 0.4 0.16666666666666666
vt 0.5 0.16666666666666666
vt 0.6 0.16666666666666666
vt 0.7 0.16666666666666666
vt 0.8 0.16666666666666666
vt 0.9 0.16666666666666666
vt 1 0.16666666666666666
vt 0 0.3333333333333333
vt 0.1 0.3333333333333333
vt 0.2 0.3333333333333333
vt 0.3 0.3333333333333333
vt 0.4 0.3333333333333333
vt 0.5 0.3333333333333333
vt 0.6 0.3333333333333333
vt 0.7 0.3333333333333333
vt 0.8 0.3333333333333333
vt 0.9 0.3333333333333333
vt 1 0.3333333333333333
vt 0 0.5
vt 0.1 0.5
vt 0.2 0.5
vt 0.3 0.5
vt 0.4 0.5
vt 0.5 0.5
vt 0.6 0.5
vt 0.7 0.5
vt 0.8 0.5
vt 0.9 0.5
vt 1 0.5
vt 0 0.6666666666666666
vt 0.1 0.6666666666666666
vt 0.2 0.6666666666666666
vt 0.3 0.6666666666666666
vt 0.4 0.6666666666666666
vt 0.5 0.6666666666666666
vt 0.6 0.6666666666666666
vt 0.7 0.6666666666666666
vt 0.8 0.6666666666666666
vt 0.9 0.6666666666666666
vt 1 0.6666666666666666
vt 0 0.8333333333333334
vt 0.1 0.8333333333333334
vt 0.2 0.8333333333333334
vt 0.3 0.8333333333333334
vt 0.4 0.8333333333333334
vt 0.5 0.8333333333333334
vt 0.6 0.8333333333333334
vt 0.7 0.8333333333333334
vt 0.8 0.8333333333333334
vt 0.9 0.8333333333333334
vt 1 0.8333333333333334
vt 0 1
vt 0.1 1
vt 0.2 1
vt 0.3 1
vt 0.4 1
vt 0.5 1
vt 0.6 1
vt 0.7 1
vt 0.8 1
vt 0.9 1
vt 1 1
vt 0 0
vt 0.1 0
vt 0.2 0
vt 0.3 0
vt 0.4 0
vt 0.5 0
vt 0.6 0
vt 0.7 0
vt 0.8 0
vt 0.9 0
vt 1 0
vt 0 0.16666666666666666
vt 0.1 0.16666666666666666
vt 0.2 0.16666666666666666
vt 0.3 0.16666666666666666
vt 0.4 0.16666666666666666
vt 0.5 0.16666666666666666
vt 0.6 0.16666666666666666
vt 0.7 0.16666666666666666
vt 0.8 0.16666666666666666
vt 0.9 0.16666666666666666
vt 1 0.16666666666666666
vt 0 0.3333333333333333
vt 0.1 0.3333333333333333
vt 0.2 0.3333333333333333
vt 0.3 0.3333333333333333
vt 0.4 0.3333333333333333
vt 0.5 0.3333333333333333
vt 0.6 0.3333333333333333
vt 0.7 0.3333333333333333
vt 0.8 0.3333333333333333
vt 0.9 0.3333333333333333
vt 1 0.3333333333333333
vt 0 0.5
vt 0.1 0.5
vt 0.2 0.5
vt 0.3 0.5
vt 0.4 0.5
vt 0.5 0.5
vt 0.6 0.5
vt 0.7 0.5
vt 0.8 0.5
vt 0.9 0.5
vt 1 0.5
vt 0 0.6666666666666666
vt 0.1 0.6666666666666666
vt 0.2 0.6666666666666666
vt 0.3 0.6666666666666666
vt 0.4 0.6666666666666666
vt 0.5 0.6666666666666666
vt 0.6 0.6666666666666666
vt 0.7 0.6666666666666666
vt 0.8 0.6666666666666666
vt 0.9 0.6666666666666666
vt 1 0.6666666666666666
vt 0 0.8333333333333334
vt 0.1 0.8333333333333334
vt 0.2 0.8333333333333334
vt 0.3 0.8333333333333334
vt 0.4 0.8333333333333334
vt 0.5 0.8333333333333334
vt 0.6 0.8333333333333334
vt 0.7 0.8333333333333334
vt 0.8 0.8333333333333334
vt 0.9 0.8333333333333334
vt 1 0.8333333333333334
vt 0 1
vt 0.1 1
vt 0.2 1
vt 0.3 1
vt 0.4 1
vt 0.5 1
vt 0.6 1
vt 0.7 1
vt 0.8 1
vt 0.9 1
vt 1 1
vt 0 0
vt 0.1 0
vt 0.2 0
vt 0.3 0
vt 0.4 0
vt 0.5 0
vt 0.6 0
vt 0.7 0
vt 0.8 0
vt 0.9 0
vt 1 0
vt 0 0.16666666666666666
vt 0.1 0.16666666666666666
vt 0.2 0.16666666666666666
vt 0.3 0.16666666666666666
vt 0.4 0.16666666666666666
vt 0.5 0.16666666666666666
vt 0.6 0.16666666666666666
vt 0.7 0.16666666666666666
vt 0.8 0.16666666666666666
vt 0.9 0.16666666666666666
vt 1 0.16666666666666666
vt 0 0.3333333333333333
vt 0.1 0.3333333333333333
vt 0.2 0.3333333333333333
vt 0.3 0.3333333333333333
vt 0.4 0.3333333333333333
vt 0.5 0.3333333333333333
vt 0.6 0.3333333333333333
vt 0.7 0.3333333333333333
vt 0.8 0.3333333333333333
vt 0.9 0.3333333333333333
vt 1 0.3333333333333333
vt 0 0.5
vt 0.1 0.5
vt 0.2 0.5
vt 0.3 0.5
vt 0.4 0.5
vt 0.5 0.5
vt 0.6 0.5
vt 0.7 0.5
vt 0.8 0.5
vt 0.9 0.5
vt 1 0.5
vt 0 0.6666666666666666
vt 0.1 0.6666666666666666
vt 0.2 0.6666666666666666
vt 0.3 0.6666666666666666
vt 0.4 0.6666666666666666
vt 0.5 0.6666666666666666
vt 0.6 0.6666666666666666
vt 0.7 0.6666666666666666
vt 0.8 0.6666666666666666
vt 0.9 0.6666666666666666
vt 1 0.6666666666666666
vt 0 0.8333333333333334
vt 0.1 0.8333333333333334
vt 0.2 0.8333333333333334
vt 0.3 0.8333333333333334
vt 0.4 0.8333333333333334
vt 0.5 0.8333333333333334
vt 0.6 0.8333333333333334
vt 0.7 0.8333333333333334
vt 0.8 0.8333333333333334
vt 0.9 0.8333333333333334
vt 1 0.8333333333333334
vt 0 1
vt 0.1 1
vt 0.2 1
vt 0.3 1
vt 0.4 1
vt 0.5 1
vt 0.6 1
vt 0.7 1
vt 0.8 1
vt 0.9 1
vt 1 1
vt 0 0
vt 0.1 0
vt 0.2 0
vt 0.3 0
vt 0.4 0
vt 0.5 0
vt 0.6 0
vt 0.7 0
vt 0.8 0
vt 0.9 0
vt 1 0
vt 0 0.16666666666666666
vt 0.1 0.16666666666666666
vt 0.2 0.16666666666666666
vt 0.3 0.16666666666666666
vt 0.4 0.16666666666666666
vt 0.5 0.16666666666666666
vt 0.6 0.16666666666666666
vt 0.7 0.16666666666666666
vt 0.8 0.16666666666666666
vt 0.9 0.16666666666666666
vt 1 0.16666666666666666
vt 0 0.3333333333333333
vt 0.1 0.3333333333333333
vt 0.2 0.3333333333333333
vt 0.3 0.3333333333333333
vt 0.4 0.3333333333333333
vt 0.5 0.3333333333333333
vt 0.6 0.3333333333333333
vt 0.7 0.3333333333333333
vt 0.8 0.3333333333333333
vt 0.9 0.3333333333333333
vt 1 0.3333333333333333
vt 0 0.5
vt 0.1 0.5
vt 0.2 0.5
vt 0.3 0.5
vt 0.4 0.5
vt 0.5 0.5
vt 0.6 0.5
vt 0.7 0.5
vt 0.8 0.5
vt 0.9 0.5
vt 1 0.5
vt 0 0.6666666666666666
vt 0.1 0.6666666666666666
vt 0.2 0.6666666666666666
vt 0.3 0.6666666666666666
vt 0.4 0.6666666666666666
vt 0.5 0.6666666666666666
vt 0.6 0.6666666666666666
vt 0.7 0.6666666666666666
vt 0.8 0.6666666666666666
vt 0.9 0.6666666666666666
vt 1 0.6666666666666666
vt 0 0.8333333333333334
vt 0.1 0.8333333333333334
vt 0.2 0.8333333333333334
vt 0.3 0.8333333333333334
vt 0.4 0.8333333333333334
vt 0.5 0.8333333333333334
vt 0.6 0.8333333333333334
vt 0.7 0.8333333333333334
vt 0.8 0.8333333333333334
vt 0.9 0.8333333333333334
vt 1 0.8333333333333334
vt 0 1
vt 0.1 1
vt 0.2 1
vt 0.3 1
vt 0.4 1
vt 0.5 1
vt 0.6 1
vt 0.7 1
vt 0.8 1
vt 0.9 1
vt 1 1
vn 0 -1 0
vn 0 -1 0
vn 0 -1 0
vn 0 -1 0
vn 0 -1 0
vn 0 -1 0
vn 0 -1 0
vn 0 -1 0
vn 0 -1 0
vn 0 -1 0
vn 0 1 0
vn 0 1 0
vn 0 1 0
vn 0 1 0
vn 0 1 0
vn 0 1 0
vn 0 1 0
vn 0 1 0
vn 0 1 0
vn 0 1 0
vn 0 -1 0
vn 0 1 0
vn 0 -1 0
vn 0 -1 0
vn 0 -1 0
vn 0 -1 0
vn 0 1 0
vn 0 1 0
vn 0 1 0
vn 0 1 0
vn 0 -1 0
vn 0 1 0
vn 0 -1 0
vn 0 -1 0
vn 0 -1 0
vn 0 -1 0
vn 0 1 0
vn 0 1 0
vn 0 1 0
vn 0 1 0
vn 0 -1 0
vn 0 1 0
vn 0 -1 0
vn 0 -1 0
vn 0 -1 0
vn 0 -1 0
vn 0 1 0
vn 0 1 0
vn 0 1 0
vn 0 1 0
vn 0 -1 0
vn 0 1 0
vn 0 -1 0
vn 0 -1 0
vn 0 -1 0
vn 0 -1 0
vn 0 1 0
vn 0 1 0
vn 0 1 0
vn 0 1 0
vn 0 -1 0
vn 0 1 0
vn 0 -1 0
vn 0 -1 0
vn 0 -1 0
vn 0 -1 0
vn 0 1 0
vn 0 1 0
vn 0 1 0
vn 0 1 0
vn 0 -1 0
vn 0 1 0
vn 0 1 0
vn 0 1 0
vn 0 1 0
vn 0 1 0
vn 0 1 0
vn 0 1 0
vn 0 1 0
vn 0 1 0
vn 0 1 0
vn 0 1 0
vn 0 1 0
vn 0.4999999999999999 0.8660254037844387 0
vn 0.40450849718747367 0.8660254037844387 0.2938926261462365
vn 0.1545084971874737 0.8660254037844387 0.4755282581475767
vn -0.15450849718747364 0.8660254037844387 0.4755282581475768
vn -0.4045084971874736 0.8660254037844387 0.29389262614623657
vn -0.4999999999999999 0.8660254037844387 6.123233995736765e-17
vn -0.40450849718747367 0.8660254037844387 -0.29389262614623646
vn -0.15450849718747375 0.8660254037844387 -0.4755282581475767
vn 0.1545084971874736 0.8660254037844387 -0.4755282581475768
vn 0.4045084971874736 0.8660254037844387 -0.2938926261462366
vn 0.4999999999999999 0.8660254037844387 -1.224646799147353e-16
vn 0.8660254037844386 0.5000000000000001 0
vn 0.7006292692220367 0.5000000000000001 0.5090369604551271
vn 0.2676165673298175 0.5000000000000001 0.8236391035463319
vn -0.26761656732981737 0.5000000000000001 0.823639103546332
vn -0.7006292692220366 0.5000000000000001 0.5090369604551273
vn -0.8660254037844386 0.5000000000000001 1.0605752387249068e-16
vn -0.7006292692220367 0.5000000000000001 -0.509036960455127
vn -0.26761656732981753 0.5000000000000001 -0.8236391035463319
vn 0.26761656732981726 0.5000000000000001 -0.823639103546332
vn 0.7006292692220366 0.5000000000000001 -0.5090369604551274
vn 0.8660254037844386 0.5000000000000001 -2.1211504774498136e-16
vn 1 6.123233995736766e-17 0
vn 0.8090169943749475 6.123233995736766e-17 0.5877852522924731
vn 0.30901699437494745 6.123233995736766e-17 0.9510565162951536
vn -0.30901699437494734 6.123233995736766e-17 0.9510565162951536
vn -0.8090169943749473 6.123233995736766e-17 0.5877852522924732
vn -1 6.123233995736766e-17 1.2246467991473532e-16
vn -0.8090169943749475 6.123233995736766e-17 -0.587785252292473
vn -0.30901699437494756 6.123233995736766e-17 -0.9510565162951536
vn 0.30901699437494723 6.123233995736766e-17 -0.9510565162951536
vn 0.8090169943749473 6.123233995736766e-17 -0.5877852522924734
vn 1 6.123233995736766e-17 -2.4492935982947064e-16
vn 0.8660254037844387 -0.4999999999999998 0
vn 0.7006292692220368 -0.4999999999999998 0.5090369604551273
vn 0.2676165673298175 -0.4999999999999998 0.823639103546332
vn -0.26761656732981737 -0.4999999999999998 0.823639103546332
vn -0.7006292692220367 -0.4999999999999998 0.5090369604551274
vn -0.8660254037844387 -0.4999999999999998 1.0605752387249069e-16
vn -0.7006292692220368 -0.4999999999999998 -0.5090369604551271
vn -0.2676165673298176 -0.4999999999999998 -0.823639103546332
vn 0.2676165673298173 -0.4999999999999998 -0.823639103546332
vn 0.7006292692220367 -0.4999999999999998 -0.5090369604551274
vn 0.8660254037844387 -0.4999999999999998 -2.1211504774498138e-16
vn 0.4999999999999999 -0.8660254037844387 0
vn 0.40450849718747367 -0.8660254037844387 0.2938926261462365
vn 0.1545084971874737 -0.8660254037844387 0.4755282581475767
vn -0.15450849718747364 -0.8660254037844387 0.4755282581475768
vn -0.4045084971874736 -0.8660254037844387 0.29389262614623657
vn -0.4999999999999999 -0.8660254037844387 6.123233995736765e-17
vn -0.40450849718747367 -0.8660254037844387 -0.29389262614623646
vn -0.15450849718747375 -0.8660254037844387 -0.4755282581475767
vn 0.1545084971874736 -0.8660254037844387 -0.4755282581475768
vn 0.4045084971874736 -0.8660254037844387 -0.2938926261462366
vn 0.4999999999999999 -0.8660254037844387 -1.224646799147353e-16
vn 1.2246467991473532e-16 -1 0
vn 9.907600726170916e-17 -1 7.198293278059966e-17
vn 3.7843667304341506e-17 -1 1.1647083184890923e-16
vn -3.7843667304341493e-17 -1 1.1647083184890926e-16
vn -9.907600726170915e-17 -1 7.198293278059968e-17
vn -1.2246467991473532e-16 -1 1.4997597826618576e-32
vn -9.907600726170916e-17 -1 -7.198293278059965e-17
vn -3.784366730434152e-17 -1 -1.1647083184890923e-16
vn 3.7843667304341475e-17 -1 -1.1647083184890926e-16
vn 9.907600726170915e-17 -1 -7.19829327805997e-17
vn 1.2246467991473532e-16 -1 -2.999519565323715e-32
vn 0 1 0
vn 0 1 0
vn 0 1 0
vn 0 1 0
vn 0 1 0
vn 0 1 0
vn 0 1 0
vn 0 1 0
vn 0 1 0
vn 0 1 0
vn 0 1 0
vn 0.4999999999999999 0.8660254037844387 0
vn 0.40450849718747367 0.8660254037844387 0.2938926261462365
vn 0.1545084971874737 0.8660254037844387 0.4755282581475767
vn -0.15450849718747364 0.8660254037844387 0.4755282581475768
vn -0.4045084971874736 0.8660254037844387 0.29389262614623657
vn -0.4999999999999999 0.8660254037844387 6.123233995736765e-17
vn -0.40450849718747367 0.8660254037844387 -0.29389262614623646
vn -0.15450849718747375 0.8660254037844387 -0.4755282581475767
vn 0.1545084971874736 0.8660254037844387 -0.4755282581475768
vn 0.4045084971874736 0.8660254037844387 -0.2938926261462366
vn 0.4999999999999999 0.8660254037844387 -1.224646799147353e-16
vn 0.8660254037844386 0.5000000000000001 0
vn 0.7006292692220367 0.5000000000000001 0.5090369604551271
vn 0.2676165673298175 0.5000000000000001 0.823639103546332
vn -0.26761656732981737 0.5000000000000001 0.823639103546332
vn -0.7006292692220366 0.5000000000000001 0.5090369604551273
vn -0.8660254037844386 0.5000000000000001 1.0605752387249068e-16
vn -0.7006292692220367 0.5000000000000001 -0.509036960455127
vn -0.26761656732981753 0.5000000000000001 -0.823639103546332
vn 0.26761656732981726 0.5000000000000001 -0.823639103546332
vn 0.7006292692220366 0.5000000000000001 -0.5090369604551274
vn 0.8660254037844386 0.5000000000000001 -2.1211504774498136e-16
vn 1 6.123233995736766e-17 0
vn 0.8090169943749475 6.123233995736766e-17 0.5877852522924731
vn 0.30901699437494745 6.123233995736766e-17 0.9510565162951536
vn -0.30901699437494734 6.123233995736766e-17 0.9510565162951536
vn -0.8090169943749473 6.123233995736766e-17 0.5877852522924732
vn -1 6.123233995736766e-17 1.2246467991473532e-16
vn -0.8090169943749475 6.123233995736766e-17 -0.587785252292473
vn -0.30901699437494756 6.123233995736766e-17 -0.9510565162951536
vn 0.30901699437494723 6.123233995736766e-17 -0.9510565162951536
vn 0.8090169943749473 6.123233995736766e-17 -0.5877852522924734
vn 1 6.123233995736766e-17 -2.4492935982947064e-16
vn 0.8660254037844386 -0.4999999999999998 0
vn 0.7006292692220368 -0.4999999999999998 0.5090369604551273
vn 0.2676165673298175 -0.4999999999999998 0.823639103546332
vn -0.26761656732981737 -0.4999999999999998 0.8236391035463321
vn -0.7006292692220367 -0.4999999999999998 0.5090369604551274
vn -0.8660254037844386 -0.4999999999999998 1.060575238724907e-16
vn -0.7006292692220368 -0.4999999999999998 -0.5090369604551271
vn -0.2676165673298176 -0.4999999999999998 -0.823639103546332
vn 0.2676165673298173 -0.4999999999999998 -0.8236391035463321
vn 0.7006292692220367 -0.4999999999999998 -0.5090369604551274
vn 0.8660254037844386 -0.4999999999999998 -2.121150477449814e-16
vn 0.4999999999999999 -0.8660254037844387 0
vn 0.40450849718747367 -0.8660254037844387 0.2938926261462365
vn 0.1545084971874737 -0.8660254037844387 0.4755282581475767
vn -0.15450849718747364 -0.8660254037844387 0.4755282581475768
vn -0.4045084971874736 -0.8660254037844387 0.29389262614623657
vn -0.4999999999999999 -0.8660254037844387 6.123233995736765e-17
vn -0.40450849718747367 -0.8660254037844387 -0.29389262614623646
vn -0.15450849718747375 -0.8660254037844387 -0.4755282581475767
vn 0.1545084971874736 -0.8660254037844387 -0.4755282581475768
vn 0.4045084971874736 -0.8660254037844387 -0.2938926261462366
vn 0.4999999999999999 -0.8660254037844387 -1.224646799147353e-16
vn 1.2246467991473532e-16 -1 0
vn 9.907600726170916e-17 -1 7.198293278059966e-17
vn 3.7843667304341506e-17 -1 1.1647083184890923e-16
vn -3.7843667304341493e-17 -1 1.1647083184890926e-16
vn -9.907600726170915e-17 -1 7.198293278059968e-17
vn -1.2246467991473532e-16 -1 1.4997597826618576e-32
vn -9.907600726170916e-17 -1 -7.198293278059965e-17
vn -3.784366730434152e-17 -1 -1.1647083184890923e-16
vn 3.7843667304341475e-17 -1 -1.1647083184890926e-16
vn 9.907600726170915e-17 -1 -7.19829327805997e-17
vn 1.2246467991473532e-16 -1 -2.999519565323715e-32
vn 0 1 0
vn 0 1 0
vn 0 1 0
vn 0 1 0
vn 0 1 0
vn 0 1 0
vn 0 1 0
vn 0 1 0
vn 0 1 0
vn 0 1 0
vn 0 1 0
vn 0.4999999999999999 0.8660254037844387 0
vn 0.40450849718747367 0.8660254037844387 0.2938926261462365
vn 0.1545084971874737 0.8660254037844387 0.47552825814757665
vn -0.15450849718747364 0.8660254037844387 0.47552825814757677
vn -0.4045084971874736 0.8660254037844387 0.29389262614623657
vn -0.4999999999999999 0.8660254037844387 6.123233995736765e-17
vn -0.40450849718747367 0.8660254037844387 -0.29389262614623646
vn -0.15450849718747375 0.8660254037844387 -0.47552825814757665
vn 0.1545084971874736 0.8660254037844387 -0.47552825814757677
vn 0.4045084971874736 0.8660254037844387 -0.2938926261462366
vn 0.4999999999999999 0.8660254037844387 -1.224646799147353e-16
vn 0.8660254037844386 0.5000000000000001 0
vn 0.7006292692220367 0.5000000000000001 0.5090369604551271
vn 0.2676165673298175 0.5000000000000001 0.8236391035463319
vn -0.26761656732981737 0.5000000000000001 0.8236391035463319
vn -0.7006292692220366 0.5000000000000001 0.5090369604551273
vn -0.8660254037844386 0.5000000000000001 1.0605752387249067e-16
vn -0.7006292692220367 0.5000000000000001 -0.509036960455127
vn -0.26761656732981753 0.5000000000000001 -0.8236391035463319
vn 0.26761656732981726 0.5000000000000001 -0.8236391035463319
vn 0.7006292692220366 0.5000000000000001 -0.5090369604551274
vn 0.8660254037844386 0.5000000000000001 -2.1211504774498133e-16
vn 1 6.123233995736766e-17 0
vn 0.8090169943749475 6.123233995736766e-17 0.5877852522924731
vn 0.30901699437494745 6.123233995736766e-17 0.9510565162951535
vn -0.30901699437494734 6.123233995736766e-17 0.9510565162951538
vn -0.8090169943749473 6.123233995736766e-17 0.5877852522924732
vn -1 6.123233995736766e-17 1.2246467991473532e-16
vn -0.8090169943749475 6.123233995736766e-17 -0.587785252292473
vn -0.30901699437494756 6.123233995736766e-17 -0.9510565162951535
vn 0.30901699437494723 6.123233995736766e-17 -0.9510565162951538
vn 0.8090169943749473 6.123233995736766e-17 -0.5877852522924734
vn 1 6.123233995736766e-17 -2.4492935982947064e-16
vn 0.8660254037844387 -0.49999999999999983 0
vn 0.7006292692220368 -0.49999999999999983 0.5090369604551273
vn 0.2676165673298175 -0.49999999999999983 0.8236391035463319
vn -0.26761656732981737 -0.49999999999999983 0.8236391035463321
vn -0.7006292692220367 -0.49999999999999983 0.5090369604551274
vn -0.8660254037844387 -0.49999999999999983 1.0605752387249069e-16
vn -0.7006292692220368 -0.49999999999999983 -0.5090369604551271
vn -0.2676165673298176 -0.49999999999999983 -0.8236391035463319
vn 0.2676165673298173 -0.49999999999999983 -0.8236391035463321
vn 0.7006292692220367 -0.49999999999999983 -0.5090369604551274
vn 0.8660254037844387 -0.49999999999999983 -2.1211504774498138e-16
vn 0.4999999999999999 -0.8660254037844387 0
vn 0.40450849718747367 -0.8660254037844387 0.2938926261462365
vn 0.1545084971874737 -0.8660254037844387 0.47552825814757665
vn -0.15450849718747364 -0.8660254037844387 0.47552825814757677
vn -0.4045084971874736 -0.8660254037844387 0.29389262614623657
vn -0.4999999999999999 -0.8660254037844387 6.123233995736765e-17
vn -0.40450849718747367 -0.8660254037844387 -0.29389262614623646
vn -0.15450849718747375 -0.8660254037844387 -0.47552825814757665
vn 0.1545084971874736 -0.8660254037844387 -0.47552825814757677
vn 0.4045084971874736 -0.8660254037844387 -0.2938926261462366
vn 0.4999999999999999 -0.8660254037844387 -1.224646799147353e-16
vn 1.2246467991473532e-16 -1 0
vn 9.907600726170915e-17 -1 7.198293278059966e-17
vn 3.7843667304341506e-17 -1 1.1647083184890923e-16
vn -3.7843667304341493e-17 -1 1.1647083184890926e-16
vn -9.907600726170915e-17 -1 7.198293278059968e-17
vn -1.2246467991473532e-16 -1 1.4997597826618576e-32
vn -9.907600726170915e-17 -1 -7.198293278059965e-17
vn -3.784366730434152e-17 -1 -1.1647083184890923e-16
vn 3.7843667304341475e-17 -1 -1.1647083184890926e-16
vn 9.907600726170915e-17 -1 -7.19829327805997e-17
vn 1.2246467991473532e-16 -1 -2.999519565323715e-32
vn 0 1 0
vn 0 1 0
vn 0 1 0
vn 0 1 0
vn 0 1 0
vn 0 1 0
vn 0 1 0
vn 0 1 0
vn 0 1 0
vn 0 1 0
vn 0 1 0
vn 0.49999999999999994 0.8660254037844387 0
vn 0.4045084971874736 0.8660254037844387 0.2938926261462365
vn 0.1545084971874737 0.8660254037844387 0.4755282581475767
vn -0.15450849718747364 0.8660254037844387 0.47552825814757677
vn -0.4045084971874736 0.8660254037844387 0.29389262614623657
vn -0.49999999999999994 0.8660254037844387 6.123233995736765e-17
vn -0.4045084971874736 0.8660254037844387 -0.29389262614623646
vn -0.15450849718747375 0.8660254037844387 -0.4755282581475767
vn 0.1545084971874736 0.8660254037844387 -0.47552825814757677
vn 0.4045084971874736 0.8660254037844387 -0.2938926261462366
vn 0.49999999999999994 0.8660254037844387 -1.224646799147353e-16
vn 0.8660254037844386 0.5000000000000001 0
vn 0.7006292692220367 0.5000000000000001 0.5090369604551271
vn 0.2676165673298175 0.5000000000000001 0.8236391035463319
vn -0.26761656732981737 0.5000000000000001 0.823639103546332
vn -0.7006292692220366 0.5000000000000001 0.5090369604551273
vn -0.8660254037844386 0.5000000000000001 1.0605752387249068e-16
vn -0.7006292692220367 0.5000000000000001 -0.509036960455127
vn -0.26761656732981753 0.5000000000000001 -0.8236391035463319
vn 0.26761656732981726 0.5000000000000001 -0.823639103546332
vn 0.7006292692220366 0.5000000000000001 -0.5090369604551274
vn 0.8660254037844386 0.5000000000000001 -2.1211504774498136e-16
vn 1 6.123233995736766e-17 0
vn 0.8090169943749475 6.123233995736766e-17 0.5877852522924731
vn 0.30901699437494745 6.123233995736766e-17 0.9510565162951535
vn -0.30901699437494734 6.123233995736766e-17 0.9510565162951536
vn -0.8090169943749472 6.123233995736766e-17 0.5877852522924732
vn -1 6.123233995736766e-17 1.2246467991473532e-16
vn -0.8090169943749475 6.123233995736766e-17 -0.587785252292473
vn -0.30901699437494756 6.123233995736766e-17 -0.9510565162951535
vn 0.30901699437494723 6.123233995736766e-17 -0.9510565162951536
vn 0.8090169943749472 6.123233995736766e-17 -0.5877852522924734
vn 1 6.123233995736766e-17 -2.4492935982947064e-16
vn 0.8660254037844388 -0.4999999999999998 0
vn 0.7006292692220368 -0.4999999999999998 0.5090369604551273
vn 0.2676165673298175 -0.4999999999999998 0.823639103546332
vn -0.26761656732981737 -0.4999999999999998 0.8236391035463321
vn -0.7006292692220367 -0.4999999999999998 0.5090369604551274
vn -0.8660254037844388 -0.4999999999999998 1.0605752387249068e-16
vn -0.7006292692220368 -0.4999999999999998 -0.5090369604551271
vn -0.2676165673298176 -0.4999999999999998 -0.823639103546332
vn 0.2676165673298173 -0.4999999999999998 -0.8236391035463321
vn 0.7006292692220367 -0.4999999999999998 -0.5090369604551274
vn 0.8660254037844388 -0.4999999999999998 -2.1211504774498136e-16
vn 0.49999999999999994 -0.8660254037844387 0
vn 0.4045084971874736 -0.8660254037844387 0.2938926261462365
vn 0.1545084971874737 -0.8660254037844387 0.4755282581475767
vn -0.15450849718747364 -0.8660254037844387 0.47552825814757677
vn -0.4045084971874736 -0.8660254037844387 0.29389262614623657
vn -0.49999999999999994 -0.8660254037844387 6.123233995736765e-17
vn -0.4045084971874736 -0.8660254037844387 -0.29389262614623646
vn -0.15450849718747375 -0.8660254037844387 -0.4755282581475767
vn 0.1545084971874736 -0.8660254037844387 -0.47552825814757677
vn 0.4045084971874736 -0.8660254037844387 -0.2938926261462366
vn 0.49999999999999994 -0.8660254037844387 -1.224646799147353e-16
vn 1.2246467991473532e-16 -1 0
vn 9.907600726170916e-17 -1 7.198293278059966e-17
vn 3.7843667304341506e-17 -1 1.1647083184890923e-16
vn -3.7843667304341493e-17 -1 1.1647083184890926e-16
vn -9.907600726170914e-17 -1 7.198293278059968e-17
vn -1.2246467991473532e-16 -1 1.4997597826618576e-32
vn -9.907600726170916e-17 -1 -7.198293278059965e-17
vn -3.784366730434152e-17 -1 -1.1647083184890923e-16
vn 3.7843667304341475e-17 -1 -1.1647083184890926e-16
vn 9.907600726170914e-17 -1 -7.19829327805997e-17
vn 1.2246467991473532e-16 -1 -2.999519565323715e-32
vn 0 1 0
vn 0 1 0
vn 0 1 0
vn 0 1 0
vn 0 1 0
vn 0 1 0
vn 0 1 0
vn 0 1 0
vn 0 1 0
vn 0 1 0
vn 0 1 0
vn 0.49999999999999994 0.8660254037844386 0
vn 0.40450849718747367 0.8660254037844386 0.2938926261462365
vn 0.1545084971874737 0.8660254037844386 0.4755282581475767
vn -0.15450849718747364 0.8660254037844386 0.4755282581475768
vn -0.40450849718747356 0.8660254037844386 0.29389262614623657
vn -0.49999999999999994 0.8660254037844386 6.123233995736765e-17
vn -0.40450849718747367 0.8660254037844386 -0.29389262614623646
vn -0.15450849718747375 0.8660254037844386 -0.4755282581475767
vn 0.1545084971874736 0.8660254037844386 -0.4755282581475768
vn 0.40450849718747356 0.8660254037844386 -0.2938926261462366
vn 0.49999999999999994 0.8660254037844386 -1.224646799147353e-16
vn 0.8660254037844387 0.5000000000000001 0
vn 0.7006292692220368 0.5000000000000001 0.5090369604551271
vn 0.2676165673298175 0.5000000000000001 0.8236391035463319
vn -0.26761656732981737 0.5000000000000001 0.823639103546332
vn -0.7006292692220366 0.5000000000000001 0.5090369604551273
vn -0.8660254037844387 0.5000000000000001 1.0605752387249068e-16
vn -0.7006292692220368 0.5000000000000001 -0.509036960455127
vn -0.26761656732981753 0.5000000000000001 -0.8236391035463319
vn 0.26761656732981726 0.5000000000000001 -0.823639103546332
vn 0.7006292692220366 0.5000000000000001 -0.5090369604551274
vn 0.8660254037844387 0.5000000000000001 -2.1211504774498136e-16
vn 1 6.123233995736766e-17 0
vn 0.8090169943749475 6.123233995736766e-17 0.5877852522924731
vn 0.30901699437494745 6.123233995736766e-17 0.9510565162951536
vn -0.30901699437494734 6.123233995736766e-17 0.9510565162951536
vn -0.8090169943749473 6.123233995736766e-17 0.5877852522924732
vn -1 6.123233995736766e-17 1.2246467991473532e-16
vn -0.8090169943749475 6.123233995736766e-17 -0.587785252292473
vn -0.30901699437494756 6.123233995736766e-17 -0.9510565162951536
vn 0.30901699437494723 6.123233995736766e-17 -0.9510565162951536
vn 0.8090169943749473 6.123233995736766e-17 -0.5877852522924734
vn 1 6.123233995736766e-17 -2.4492935982947064e-16
vn 0.8660254037844387 -0.4999999999999998 0
vn 0.7006292692220368 -0.4999999999999998 0.5090369604551273
vn 0.2676165673298175 -0.4999999999999998 0.823639103546332
vn -0.26761656732981737 -0.4999999999999998 0.8236391035463321
vn -0.7006292692220368 -0.4999999999999998 0.5090369604551274
vn -0.8660254037844387 -0.4999999999999998 1.0605752387249069e-16
vn -0.7006292692220368 -0.4999999999999998 -0.5090369604551271
vn -0.2676165673298176 -0.4999999999999998 -0.823639103546332
vn 0.2676165673298173 -0.4999999999999998 -0.8236391035463321
vn 0.7006292692220368 -0.4999999999999998 -0.5090369604551274
vn 0.8660254037844387 -0.4999999999999998 -2.1211504774498138e-16
vn 0.49999999999999994 -0.8660254037844386 0
vn 0.40450849718747367 -0.8660254037844386 0.2938926261462365
vn 0.1545084971874737 -0.8660254037844386 0.4755282581475767
vn -0.15450849718747364 -0.8660254037844386 0.4755282581475768
vn -0.40450849718747356 -0.8660254037844386 0.29389262614623657
vn -0.49999999999999994 -0.8660254037844386 6.123233995736765e-17
vn -0.40450849718747367 -0.8660254037844386 -0.29389262614623646
vn -0.15450849718747375 -0.8660254037844386 -0.4755282581475767
vn 0.1545084971874736 -0.8660254037844386 -0.4755282581475768
vn 0.40450849718747356 -0.8660254037844386 -0.2938926261462366
vn 0.49999999999999994 -0.8660254037844386 -1.224646799147353e-16
vn 1.2246467991473532e-16 -1 0
vn 9.907600726170916e-17 -1 7.198293278059966e-17
vn 3.7843667304341506e-17 -1 1.1647083184890923e-16
vn -3.7843667304341493e-17 -1 1.1647083184890926e-16
vn -9.907600726170914e-17 -1 7.198293278059968e-17
vn -1.2246467991473532e-16 -1 1.4997597826618576e-32
vn -9.907600726170916e-17 -1 -7.198293278059965e-17
vn -3.784366730434152e-17 -1 -1.1647083184890923e-16
vn 3.7843667304341475e-17 -1 -1.1647083184890926e-16
vn 9.907600726170914e-17 -1 -7.19829327805997e-17
vn 1.2246467991473532e-16 -1 -2.999519565323715e-32
vn 0 1 0
vn 0 1 0
vn 0 1 0
vn 0 1 0
vn 0 1 0
vn 0 1 0
vn 0 1 0
vn 0 1 0
vn 0 1 0
vn 0 1 0
vn 0 1 0
vn 0.49999999999999994 0.8660254037844388 0
vn 0.4045084971874736 0.8660254037844388 0.2938926261462365
vn 0.1545084971874737 0.8660254037844388 0.47552825814757665
vn -0.15450849718747364 0.8660254037844388 0.47552825814757677
vn -0.4045084971874736 0.8660254037844388 0.29389262614623657
vn -0.49999999999999994 0.8660254037844388 6.123233995736765e-17
vn -0.4045084971874736 0.8660254037844388 -0.29389262614623646
vn -0.15450849718747375 0.8660254037844388 -0.47552825814757665
vn 0.1545084971874736 0.8660254037844388 -0.47552825814757677
vn 0.4045084971874736 0.8660254037844388 -0.2938926261462366
vn 0.49999999999999994 0.8660254037844388 -1.224646799147353e-16
vn 0.8660254037844386 0.5000000000000001 0
vn 0.7006292692220367 0.5000000000000001 0.5090369604551271
vn 0.2676165673298175 0.5000000000000001 0.823639103546332
vn -0.26761656732981737 0.5000000000000001 0.823639103546332
vn -0.7006292692220366 0.5000000000000001 0.5090369604551273
vn -0.8660254037844386 0.5000000000000001 1.0605752387249067e-16
vn -0.7006292692220367 0.5000000000000001 -0.509036960455127
vn -0.26761656732981753 0.5000000000000001 -0.823639103546332
vn 0.26761656732981726 0.5000000000000001 -0.823639103546332
vn 0.7006292692220366 0.5000000000000001 -0.5090369604551274
vn 0.8660254037844386 0.5000000000000001 -2.1211504774498133e-16
vn 1 6.123233995736766e-17 0
vn 0.8090169943749475 6.123233995736766e-17 0.5877852522924731
vn 0.30901699437494745 6.123233995736766e-17 0.9510565162951535
vn -0.30901699437494734 6.123233995736766e-17 0.9510565162951538
vn -0.8090169943749472 6.123233995736766e-17 0.5877852522924732
vn -1 6.123233995736766e-17 1.2246467991473532e-16
vn -0.8090169943749475 6.123233995736766e-17 -0.587785252292473
vn -0.30901699437494756 6.123233995736766e-17 -0.9510565162951535
vn 0.30901699437494723 6.123233995736766e-17 -0.9510565162951538
vn 0.8090169943749472 6.123233995736766e-17 -0.5877852522924734
vn 1 6.123233995736766e-17 -2.4492935982947064e-16
vn 0.8660254037844387 -0.4999999999999998 0
vn 0.7006292692220368 -0.4999999999999998 0.5090369604551273
vn 0.2676165673298175 -0.4999999999999998 0.823639103546332
vn -0.26761656732981737 -0.4999999999999998 0.8236391035463321
vn -0.7006292692220367 -0.4999999999999998 0.5090369604551274
vn -0.8660254037844387 -0.4999999999999998 1.0605752387249069e-16
vn -0.7006292692220368 -0.4999999999999998 -0.5090369604551271
vn -0.2676165673298176 -0.4999999999999998 -0.823639103546332
vn 0.2676165673298173 -0.4999999999999998 -0.8236391035463321
vn 0.7006292692220367 -0.4999999999999998 -0.5090369604551274
vn 0.8660254037844387 -0.4999999999999998 -2.1211504774498138e-16
vn 0.49999999999999994 -0.8660254037844388 0
vn 0.4045084971874736 -0.8660254037844388 0.2938926261462365
vn 0.1545084971874737 -0.8660254037844388 0.47552825814757665
vn -0.15450849718747364 -0.8660254037844388 0.47552825814757677
vn -0.4045084971874736 -0.8660254037844388 0.29389262614623657
vn -0.49999999999999994 -0.8660254037844388 6.123233995736765e-17
vn -0.4045084971874736 -0.8660254037844388 -0.29389262614623646
vn -0.15450849718747375 -0.8660254037844388 -0.47552825814757665
vn 0.1545084971874736 -0.8660254037844388 -0.47552825814757677
vn 0.4045084971874736 -0.8660254037844388 -0.2938926261462366
vn 0.49999999999999994 -0.8660254037844388 -1.224646799147353e-16
vn 1.2246467991473532e-16 -1 0
vn 9.907600726170916e-17 -1 7.198293278059966e-17
vn 3.7843667304341506e-17 -1 1.1647083184890923e-16
vn -3.7843667304341493e-17 -1 1.1647083184890926e-16
vn -9.907600726170915e-17 -1 7.198293278059968e-17
vn -1.2246467991473532e-16 -1 1.4997597826618576e-32
vn -9.907600726170916e-17 -1 -7.198293278059965e-17
vn -3.784366730434152e-17 -1 -1.1647083184890923e-16
vn 3.7843667304341475e-17 -1 -1.1647083184890926e-16
vn 9.907600726170915e-17 -1 -7.19829327805997e-17
vn 1.2246467991473532e-16 -1 -2.999519565323715e-32
vn 0 1 0
vn 0 1 0
vn 0 1 0
vn 0 1 0
vn 0 1 0
vn 0 1 0
vn 0 1 0
vn 0 1 0
vn 0 1 0
vn 0 1 0
vn 0 1 0
vn 0.4999999999999999 0.8660254037844387 0
vn 0.40450849718747367 0.8660254037844387 0.2938926261462365
vn 0.1545084971874737 0.8660254037844387 0.4755282581475767
vn -0.15450849718747364 0.8660254037844387 0.4755282581475768
vn -0.4045084971874736 0.8660254037844387 0.29389262614623657
vn -0.4999999999999999 0.8660254037844387 6.123233995736765e-17
vn -0.40450849718747367 0.8660254037844387 -0.29389262614623646
vn -0.15450849718747375 0.8660254037844387 -0.4755282581475767
vn 0.1545084971874736 0.8660254037844387 -0.4755282581475768
vn 0.4045084971874736 0.8660254037844387 -0.2938926261462366
vn 0.4999999999999999 0.8660254037844387 -1.224646799147353e-16
vn 0.8660254037844386 0.5000000000000001 0
vn 0.7006292692220367 0.5000000000000001 0.5090369604551271
vn 0.2676165673298175 0.5000000000000001 0.8236391035463319
vn -0.26761656732981737 0.5000000000000001 0.823639103546332
vn -0.7006292692220366 0.5000000000000001 0.5090369604551273
vn -0.8660254037844386 0.5000000000000001 1.0605752387249068e-16
vn -0.7006292692220367 0.5000000000000001 -0.509036960455127
vn -0.26761656732981753 0.5000000000000001 -0.8236391035463319
vn 0.26761656732981726 0.5000000000000001 -0.823639103546332
vn 0.7006292692220366 0.5000000000000001 -0.5090369604551274
vn 0.8660254037844386 0.5000000000000001 -2.1211504774498136e-16
vn 1 6.123233995736766e-17 0
vn 0.8090169943749475 6.123233995736766e-17 0.5877852522924731
vn 0.30901699437494745 6.123233995736766e-17 0.9510565162951536
vn -0.30901699437494734 6.123233995736766e-17 0.9510565162951536
vn -0.8090169943749473 6.123233995736766e-17 0.5877852522924732
vn -1 6.123233995736766e-17 1.2246467991473532e-16
vn -0.8090169943749475 6.123233995736766e-17 -0.587785252292473
vn -0.30901699437494756 6.123233995736766e-17 -0.9510565162951536
vn 0.30901699437494723 6.123233995736766e-17 -0.9510565162951536
vn 0.8090169943749473 6.123233995736766e-17 -0.5877852522924734
vn 1 6.123233995736766e-17 -2.4492935982947064e-16
vn 0.8660254037844387 -0.4999999999999998 0
vn 0.7006292692220368 -0.4999999999999998 0.5090369604551273
vn 0.2676165673298175 -0.4999999999999998 0.823639103546332
vn -0.26761656732981737 -0.4999999999999998 0.823639103546332
vn -0.7006292692220367 -0.4999999999999998 0.5090369604551274
vn -0.8660254037844387 -0.4999999999999998 1.0605752387249068e-16
vn -0.7006292692220368 -0.4999999999999998 -0.5090369604551271
vn -0.2676165673298176 -0.4999999999999998 -0.823639103546332
vn 0.2676165673298173 -0.4999999999999998 -0.823639103546332
vn 0.7006292692220367 -0.4999999999999998 -0.5090369604551274
vn 0.8660254037844387 -0.4999999999999998 -2.1211504774498136e-16
vn 0.4999999999999999 -0.8660254037844387 0
vn 0.40450849718747367 -0.8660254037844387 0.2938926261462365
vn 0.1545084971874737 -0.8660254037844387 0.4755282581475767
vn -0.15450849718747364 -0.8660254037844387 0.4755282581475768
vn -0.4045084971874736 -0.8660254037844387 0.29389262614623657
vn -0.4999999999999999 -0.8660254037844387 6.123233995736765e-17
vn -0.40450849718747367 -0.8660254037844387 -0.29389262614623646
vn -0.15450849718747375 -0.8660254037844387 -0.4755282581475767
vn 0.1545084971874736 -0.8660254037844387 -0.4755282581475768
vn 0.4045084971874736 -0.8660254037844387 -0.2938926261462366
vn 0.4999999999999999 -0.8660254037844387 -1.224646799147353e-16
vn 1.2246467991473532e-16 -1 0
vn 9.907600726170915e-17 -1 7.198293278059966e-17
vn 3.7843667304341506e-17 -1 1.1647083184890923e-16
vn -3.7843667304341493e-17 -1 1.1647083184890926e-16
vn -9.907600726170915e-17 -1 7.198293278059968e-17
vn -1.2246467991473532e-16 -1 1.4997597826618576e-32
vn -9.907600726170915e-17 -1 -7.198293278059965e-17
vn -3.784366730434152e-17 -1 -1.1647083184890923e-16
vn 3.7843667304341475e-17 -1 -1.1647083184890926e-16
vn 9.907600726170915e-17 -1 -7.19829327805997e-17
vn 1.2246467991473532e-16 -1 -2.999519565323715e-32
f 1/1/1 2/2/2 12/12/12
f 1/1/1 12/12/12 11/11/11
f 21/21/21 2/2/2 1/1/1
f 22/22/22 11/11/11 12/12/12
f 2/2/2 3/3/3 13/13/13
f 2/2/2 13/13/13 12/12/12
f 21/21/21 3/3/3 2/2/2
f 22/22/22 12/12/12 13/13/13
f 3/3/3 4/4/4 14/14/14
f 3/3/3 14/14/14 13/13/13
f 21/21/21 4/4/4 3/3/3
f 22/22/22 13/13/13 14/14/14
f 4/4/4 5/5/5 15/15/15
f 4/4/4 15/15/15 14/14/14
f 21/21/21 5/5/5 4/4/4
f 22/22/22 14/14/14 15/15/15
f 5/5/5 6/6/6 16/16/16
f 5/5/5 16/16/16 15/15/15
f 21/21/21 6/6/6 5/5/5
f 22/22/22 15/15/15 16/16/16
f 6/6/6 7/7/7 17/17/17
f 6/6/6 17/17/17 16/16/16
f 21/21/21 7/7/7 6/6/6
f 22/22/22 16/16/16 17/17/17
f 7/7/7 8/8/8 18/18/18
f 7/7/7 18/18/18 17/17/17
f 21/21/21 8/8/8 7/7/7
f 22/22/22 17/17/17 18/18/18
f 8/8/8 9/9/9 19/19/19
f 8/8/8 19/19/19 18/18/18
f 21/21/21 9/9/9 8/8/8
f 22/22/22 18/18/18 19/19/19
f 9/9/9 10/10/10 20/20/20
f 9/9/9 20/20/20 19/19/19
f 21/21/21 10/10/10 9/9/9
f 22/22/22 19/19/19 20/20/20
f 10/10/10 1/1/1 11/11/11
f 10/10/10 11/11/11 20/20/20
f 21/21/21 1/1/1 10/10/10
f 22/22/22 20/20/20 11/11/11
f 23/23/23 24/24/24 28/28/28
f 23/23/23 28/28/28 27/27/27
f 31/31/31 24/24/24 23/23/23
f 32/32/32 27/27/27 28/28/28
f 24/24/24 25/25/25 29/29/29
f 24/24/24 29/29/29 28/28/28
f 31/31/31 25/25/25 24/24/24
f 32/32/32 28/28/28 29/29/29
f 25/25/25 26/26/26 30/30/30
f 25/25/25 30/30/30 29/29/29
f 31/31/31 26/26/26 25/25/25
f 32/32/32 29/29/29 30/30/30
f 26/26/26 23/23/23 27/27/27
f 26/26/26 27/27/27 30/30/30
f 31/31/31 23/23/23 26/26/26
f 32/32/32 30/30/30 27/27/27
f 33/33/33 34/34/34 38/38/38
f 33/33/33 38/38/38 37/37/37
f 41/41/41 34/34/34 33/33/33
f 42/42/42 37/37/37 38/38/38
f 34/34/34 35/35/35 39/39/39
f 34/34/34 39/39/39 38/38/38
f 41/41/41 35/35/35 34/34/34
f 42/42/42 38/38/38 39/39/39
f 35/35/35 36/36/36 40/40/40
f 35/35/35 40/40/40 39/39/39
f 41/41/41 36/36/36 35/35/35
f 42/42/42 39/39/39 40/40/40
f 36/36/36 33/33/33 37/37/37
f 36/36/36 37/37/37 40/40/40
f 41/41/41 33/33/33 36/36/36
f 42/42/42 40/40/40 37/37/37
f 43/43/43 44/44/44 48/48/48
f 43/43/43 48/48/48 47/47/47
f 51/51/51 44/44/44 43/43/43
f 52/52/52 47/47/47 48/48/48
f 44/44/44 45/45/45 49/49/49
f 44/44/44 49/49/49 48/48/48
f 51/51/51 45/45/45 44/44/44
f 52/52/52 48/48/48 49/49/49
f 45/45/45 46/46/46 50/50/50
f 45/45/45 50/50/50 49/49/49
f 51/51/51 46/46/46 45/45/45
f 52/52/52 49/49/49 50/50/50
f 46/46/46 43/43/43 47/47/47
f 46/46/46 47/47/47 50/50/50
f 51/51/51 43/43/43 46/46/46
f 52/52/52 50/50/50 47/47/47
f 53/53/53 54/54/54 58/58/58
f 53/53/53 58/58/58 57/57/57
f 61/61/61 54/54/54 53/53/53
f 62/62/62 57/57/57 58/58/58
f 54/54/54 55/55/55 59/59/59
f 54/54/54 59/59/59 58/58/58
f 61/61/61 55/55/55 54/54/54
f 62/62/62 58/58/58 59/59/59
f 55/55/55 56/56/56 60/60/60
f 55/55/55 60/60/60 59/59/59
f 61/61/61 56/56/56 55/55/55
f 62/62/62 59/59/59 60/60/60
f 56/56/56 53/53/53 57/57/57
f 56/56/56 57/57/57 60/60/60
f 61/61/61 53/53/53 56/56/56
f 62/62/62 60/60/60 57/57/57
f 63/63/63 64/64/64 68/68/68
f 63/63/63 68/68/68 67/67/67
f 71/71/71 64/64/64 63/63/63
f 72/72/72 67/67/67 68/68/68
f 64/64/64 65/65/65 69/69/69
f 64/64/64 69/69/69 68/68/68
f 71/71/71 65/65/65 64/64/64
f 72/72/72 68/68/68 69/69/69
f 65/65/65 66/66/66 70/70/70
f 65/65/65 70/70/70 69/69/69
f 71/71/71 66/66/66 65/65/65
f 72/72/72 69/69/69 70/70/70
f 66/66/66 63/63/63 67/67/67
f 66/66/66 67/67/67 70/70/70
f 71/71/71 63/63/63 66/66/66
f 72/72/72 70/70/70 67/67/67
f 73/73/73 84/84/84 85/85/85
f 73/73/73 85/85/85 74/74/74
f 74/74/74 85/85/85 86/86/86
f 74/74/74 86/86/86 75/75/75
f 75/75/75 86/86/86 87/87/87
f 75/75/75 87/87/87 76/76/76
f 76/76/76 87/87/87 88/88/88
f 76/76/76 88/88/88 77/77/77
f 77/77/77 88/88/88 89/89/89
f 77/77/77 89/89/89 78/78/78
f 78/78/78 89/89/89 90/90/90
f 78/78/78 90/90/90 79/79/79
f 79/79/79 90/90/90 91/91/91
f 79/79/79 91/91/91 80/80/80
f 80/80/80 91/91/91 92/92/92
f 80/80/80 92/92/92 81/81/81
f 81/81/81 92/92/92 93/93/93
f 81/81/81 93/93/93 82/82/82
f 82/82/82 93/93/93 94/94/94
f 82/82/82 94/94/94 83/83/83
f 84/84/84 95/95/95 96/96/96
f 84/84/84 96/96/96 85/85/85
f 85/85/85 96/96/96 97/97/97
f 85/85/85 97/97/97 86/86/86
f 86/86/86 97/97/97 98/98/98
f 86/86/86 98/98/98 87/87/87
f 87/87/87 98/98/98 99/99/99
f 87/87/87 99/99/99 88/88/88
f 88/88/88 99/99/99 100/100/100
f 88/88/88 100/100/100 89/89/89
f 89/89/89 100/100/100 101/101/101
f 89/89/89 101/101/101 90/90/90
f 90/90/90 101/101/101 102/102/102
f 90/90/90 102/102/102 91/91/91
f 91/91/91 102/102/102 103/103/103
f 91/91/91 103/103/103 92/92/92
f 92/92/92 103/103/103 104/104/104
f 92/92/92 104/104/104 93/93/93
f 93/93/93 104/104/104 105/105/105
f 93/93/93 105/105/105 94/94/94
f 95/95/95 106/106/106 107/107/107
f 95/95/95 107/107/107 96/96/96
f 96/96/96 107/107/107 108/108/108
f 96/96/96 108/108/108 97/97/97
f 97/97/97 108/108/108 109/109/109
f 97/97/97 109/109/109 98/98/98
f 98/98/98 109/109/109 110/110/110
f 98/98/98 110/110/110 99/99/99
f 99/99/99 110/110/110 111/111/111
f 99/99/99 111/111/111 100/100/100
f 100/100/100 111/111/111 112/112/112
f 100/100/100 112/112/112 101/101/101
f 101/101/101 112/112/112 113/113/113
f 101/101/101 113/113/113 102/102/102
f 102/102/102 113/113/113 114/114/114
f 102/102/102 114/114/114 103/103/103
f 103/103/103 114/114/114 115/115/115
f 103/103/103 115/115/115 104/104/104
f 104/104/104 115/115/115 116/116/116
f 104/104/104 116/116/116 105/105/105
f 106/106/106 117/117/117 118/118/118
f 106/106/106 118/118/118 107/107/107
f 107/107/107 118/118/118 119/119/119
f 107/107/107 119/119/119 108/108/108
f 108/108/108 119/119/119 120/120/120
f 108/108/108 120/120/120 109/109/109
f 109/109/109 120/120/120 121/121/121
f 109/109/109 121/121/121 110/110/110
f 110/110/110 121/121/121 122/122/122
f 110/110/110 122/122/122 111/111/111
f 111/111/111 122/122/122 123/123/123
f 111/111/111 123/123/123 112/112/112
f 112/112/112 123/123/123 124/124/124
f 112/112/112 124/124/124 113/113/113
f 113/113/113 124/124/124 125/125/125
f 113/113/113 125/125/125 114/114/114
f 114/114/114 125/125/125 126/126/126
f 114/114/114 126/126/126 115/115/115
f 115/115/115 126/126/126 127/127/127
f 115/115/115 127/127/127 116/116/116
f 117/117/117 128/128/128 129/129/129
f 117/117/117 129/129/129 118/118/118
f 118/118/118 129/129/129 130/130/130
f 118/118/118 130/130/130 119/119/119
f 119/119/119 130/130/130 131/131/131
f 119/119/119 131/131/131 120/120/120
f 120/120/120 131/131/131 132/132/132
f 120/120/120 132/132/132 121/121/121
f 121/121/121 132/132/132 133/133/133
f 121/121/121 133/133/133 122/122/122
f 122/122/122 133/133/133 134/134/134
f 122/122/122 134/134/134 123/123/123
f 123/123/123 134/134/134 135/135/135
f 123/123/123 135/135/135 124/124/124
f 124/124/124 135/135/135 136/136/136
f 124/124/124 136/136/136 125/125/125
f 125/125/125 136/136/136 137/137/137
f 125/125/125 137/137/137 126/126/126
f 126/126/126 137/137/137 138/138/138
f 126/126/126 138/138/138 127/127/127
f 128/128/128 139/139/139 140/140/140
f 128/128/128 140/140/140 129/129/129
f 129/129/129 140/140/140 141/141/141
f 129/129/129 141/141/141 130/130/130
f 130/130/130 141/141/141 142/142/142
f 130/130/130 142/142/142 131/131/131
f 131/131/131 142/142/142 143/143/143
f 131/131/131 143/143/143 132/132/132
f 132/132/132 143/143/143 144/144/144
f 132/132/132 144/144/144 133/133/133
f 133/133/133 144/144/144 145/145/145
f 133/133/133 145/145/145 134/134/134
f 134/134/134 145/145/145 146/146/146
f 134/134/134 146/146/146 135/135/135
f 135/135/135 146/146/146 147/147/147
f 135/135/135 147/147/147 136/136/136
f 136/136/136 147/147/147 148/148/148
f 136/136/136 148/148/148 137/137/137
f 137/137/137 148/148/148 149/149/149
f 137/137/137 149/149/149 138/138/138
f 150/150/150 161/161/161 162/162/162
f 150/150/150 162/162/162 151/151/151
f 151/151/151 162/162/162 163/163/163
f 151/151/151 163/163/163 152/152/152
f 152/152/152 163/163/163 164/164/164
f 152/152/152 164/164/164 153/153/153
f 153/153/153 164/164/164 165/165/165
f 153/153/153 165/165/165 154/154/154
f 154/154/154 165/165/165 166/166/166
f 154/154/154 166/166/166 155/155/155
f 155/155/155 166/166/166 167/167/167
f 155/155/155 167/167/167 156/156/156
f 156/156/156 167/167/167 168/168/168
f 156/156/156 168/168/168 157/157/157
f 157/157/157 168/168/168 169/169/169
f 157/157/157 169/169/169 158/158/158
f 158/158/158 169/169/169 170/170/170
f 158/158/158 170/170/170 159/159/159
f 159/159/159 170/170/170 171/171/171
f 159/159/159 171/171/171 160/160/160
f 161/161/161 172/172/172 173/173/173
f 161/161/161 173/173/173 162/162/162
f 162/162/162 173/173/173 174/174/174
f 162/162/162 174/174/174 163/163/163
f 163/163/163 174/174/174 175/175/175
f 163/163/163 175/175/175 164/164/164
f 164/164/164 175/175/175 176/176/176
f 164/164/164 176/176/176 165/165/165
f 165/165/165 176/176/176 177/177/177
f 165/165/165 177/177/177 166/166/166
f 166/166/166 177/177/177 178/178/178
f 166/166/166 178/178/178 167/167/167
f 167/167/167 178/178/178 179/179/179
f 167/167/167 179/179/179 168/168/168
f 168/168/168 179/179/179 180/180/180
f 168/168/168 180/180/180 169/169/169
f 169/169/169 180/180/180 181/181/181
f 169/169/169 181/181/181 170/170/170
f 170/170/170 181/181/181 182/182/182
f 170/170/170 182/182/182 171/171/171
f 172/172/172 183/183/183 184/184/184
f 172/172/172 184/184/184 173/173/173
f 173/173/173 184/184/184 185/185/185
f 173/173/173 185/185/185 174/174/174
f 174/174/174 185/185/185 186/186/186
f 174/174/174 186/186/186 175/175/175
f 175/175/175 186/186/186 187/187/187
f 175/175/175 187/187/187 176/176/176
f 176/176/176 187/187/187 188/188/188
f 176/176/176 188/188/188 177/177/177
f 177/177/177 188/188/188 189/189/189
f 177/177/177 189/189/189 178/178/178
f 178/178/178 189/189/189 190/190/190
f 178/178/178 190/190/190 179/179/179
f 179/179/179 190/190/190 191/191/191
f 179/179/179 191/191/191 180/180/180
f 180/180/180 191/191/191 192/192/192
f 180/180/180 192/192/192 181/181/181
f 181/181/181 192/192/192 193/193/193
f 181/181/181 193/193/193 182/182/182
f 183/183/183 194/194/194 195/195/195
f 183/183/183 195/195/195 184/184/184
f 184/184/184 195/195/195 196/196/196
f 184/184/184 196/196/196 185/185/185
f 185/185/185 196/196/196 197/197/197
f 185/185/185 197/197/197 186/186/186
f 186/186/186 197/197/197 198/198/198
f 186/186/186 198/198/198 187/187/187
f 187/187/187 198/198/198 199/199/199
f 187/187/187 199/199/199 188/188/188
f 188/188/188 199/199/199 200/200/200
f 188/188/188 200/200/200 189/189/189
f 189/189/189 200/200/200 201/201/201
f 189/189/189 201/201/201 190/190/190
f 190/190/190 201/201/201 202/202/202
f 190/190/190 202/202/202 191/191/191
f 191/191/191 202/202/202 203/203/203
f 191/191/191 203/203/203 192/192/192
f 192/192/192 203/203/203 204/204/204
f 192/192/192 204/204/204 193/193/193
f 194/194/194 205/205/205 206/206/206
f 194/194/194 206/206/206 195/195/195
f 195/195/195 206/206/206 207/207/207
f 195/195/195 207/207/207 196/196/196
f 196/196/196 207/207/207 208/208/208
f 196/196/196 208/208/208 197/197/197
f 197/197/197 208/208/208 209/209/209
f 197/197/197 209/209/209 198/198/198
f 198/198/198 209/209/209 210/210/210
f 198/198/198 210/210/210 199/199/199
f 199/199/199 210/210/210 211/211/211
f 199/199/199 211/211/211 200/200/200
f 200/200/200 211/211/211 212/212/212
f 200/200/200 212/212/212 201/201/201
f 201/201/201 212/212/212 213/213/213
f 201/201/201 213/213/213 202/202/202
f 202/202/202 213/213/213 214/214/214
f 202/202/202 214/214/214 203/203/203
f 203/203/203 214/214/214 215/215/215
f 203/203/203 215/215/215 204/204/204
f 205/205/205 216/216/216 217/217/217
f 205/205/205 217/217/217 206/206/206
f 206/206/206 217/217/217 218/218/218
f 206/206/206 218/218/218 207/207/207
f 207/207/207 218/218/218 219/219/219
f 207/207/207 219/219/219 208/208/208
f 208/208/208 219/219/219 220/220/220
f 208/208/208 220/220/220 209/209/209
f 209/209/209 220/220/220 221/221/221
f 209/209/209 221/221/221 210/210/210
f 210/210/210 221/221/221 222/222/222
f 210/210/210 222/222/222 211/211/211
f 211/211/211 222/222/222 223/223/223
f 211/211/211 223/223/223 212/212/212
f 212/212/212 223/223/223 224/224/224
f 212/212/212 224/224/224 213/213/213
f 213/213/213 224/224/224 225/225/225
f 213/213/213 225/225/225 214/214/214
f 214/214/214 225/225/225 226/226/226
f 214/214/214 226/226/226 215/215/215
f 227/227/227 238/238/238 239/239/239
f 227/227/227 239/239/239 228/228/228
f 228/228/228 239/239/239 240/240/240
f 228/228/228 240/240/240 229/229/229
f 229/229/229 240/240/240 241/241/241
f 229/229/229 241/241/241 230/230/230
f 230/230/230 241/241/241 242/242/242
f 230/230/230 242/242/242 231/231/231
f 231/231/231 242/242/242 243/243/243
f 231/231/231 243/243/243 232/232/232
f 232/232/232 243/243/243 244/244/244
f 232/232/232 244/244/244 233/233/233
f 233/233/233 244/244/244 245/245/245
f 233/233/233 245/245/245 234/234/234
f 234/234/234 245/245/245 246/246/246
f 234/234/234 246/246/246 235/235/235
f 235/235/235 246/246/246 247/247/247
f 235/235/235 247/247/247 236/236/236
f 236/236/236 247/247/247 248/248/248
f 236/236/236 248/248/248 237/237/237
f 238/238/238 249/249/249 250/250/250
f 238/238/238 250/250/250 239/239/239
f 239/239/239 250/250/250 251/251/251
f 239/239/239 251/251/251 240/240/240
f 240/240/240 251/251/251 252/252/252
f 240/240/240 252/252/252 241/241/241
f 241/241/241 252/252/252 253/253/253
f 241/241/241 253/253/253 242/242/242
f 242/242/242 253/253/253 254/254/254
f 242/242/242 254/254/254 243/243/243
f 243/243/243 254/254/254 255/255/255
f 243/243/243 255/255/255 244/244/244
f 244/244/244 255/255/255 256/256/256
f 244/244/244 256/256/256 245/245/245
f 245/245/245 256/256/256 257/257/257
f 245/245/245 257/257/257 246/246/246
f 246/246/246 257/257/257 258/258/258
f 246/246/246 258/258/258 247/247/247
f 247/247/247 258/258/258 259/259/259
f 247/247/247 259/259/259 248/248/248
f 249/249/249 260/260/260 261/261/261
f 249/249/249 261/261/261 250/250/250
f 250/250/250 261/261/261 262/262/262
f 250/250/250 262/262/262 251/251/251
f 251/251/251 262/262/262 263/263/263
f 251/251/251 263/263/263 252/252/252
f 252/252/252 263/263/263 264/264/264
f 252/252/252 264/264/264 253/253/253
f 253/253/253 264/264/264 265/265/265
f 253/253/253 265/265/265 254/254/254
f 254/254/254 265/265/265 266/266/266
f 254/254/254 266/266/266 255/255/255
f 255/255/255 266/266/266 267/267/267
f 255/255/255 267/267/267 256/256/256
f 256/256/256 267/267/267 268/268/268
f 256/256/256 268/268/268 257/257/257
f 257/257/257 268/268/268 269/269/269
f 257/257/257 269/269/269 258/258/258
f 258/258/258 269/269/269 270/270/270
f 258/258/258 270/270/270 259/259/259
f 260/260/260 271/271/271 272/272/272
f 260/260/260 272/272/272 261/261/261
f 261/261/261 272/272/272 273/273/273
f 261/261/261 273/273/273 262/262/262
f 262/262/262 273/273/273 274/274/274
f 262/262/262 274/274/274 263/263/263
f 263/263/263 274/274/274 275/275/275
f 263/263/263 275/275/275 264/264/264
f 264/264/264 275/275/275 276/276/276
f 264/264/264 276/276/276 265/265/265
f 265/265/265 276/276/276 277/277/277
f 265/265/265 277/277/277 266/266/266
f 266/266/266 277/277/277 278/278/278
f 266/266/266 278/278/278 267/267/267
f 267/267/267 278/278/278 279/279/279
f 267/267/267 279/279/279 268/268/268
f 268/268/268 279/279/279 280/280/280
f 268/268/268 280/280/280 269/269/269
f 269/269/269 280/280/280 281/281/281
f 269/269/269 281/281/281 270/270/270
f 271/271/271 282/282/282 283/283/283
f 271/271/271 283/283/283 272/272/272
f 272/272/272 283/283/283 284/284/284
f 272/272/272 284/284/284 273/273/273
f 273/273/273 284/284/284 285/285/285
f 273/273/273 285/285/285 274/274/274
f 274/274/274 285/285/285 286/286/286
f 274/274/274 286/286/286 275/275/275
f 275/275/275 286/286/286 287/287/287
f 275/275/275 287/287/287 276/276/276
f 276/276/276 287/287/287 288/288/288
f 276/276/276 288/288/288 277/277/277
f 277/277/277 288/288/288 289/289/289
f 277/277/277 289/289/289 278/278/278
f 278/278/278 289/289/289 290/290/290
f 278/278/278 290/290/290 279/279/279
f 279/279/279 290/290/290 291/291/291
f 279/279/279 291/291/291 280/280/280
f 280/280/280 291/291/291 292/292/292
f 280/280/280 292/292/292 281/281/281
f 282/282/282 293/293/293 294/294/294
f 282/282/282 294/294/294 283/283/283
f 283/283/283 294/294/294 295/295/295
f 283/283/283 295/295/295 284/284/284
f 284/284/284 295/295/295 296/296/296
f 284/284/284 296/296/296 285/285/285
f 285/285/285 296/296/296 297/297/297
f 285/285/285 297/297/297 286/286/286
f 286/286/286 297/297/297 298/298/298
f 286/286/286 298/298/298 287/287/287
f 287/287/287 298/298/298 299/299/299
f 287/287/287 299/299/299 288/288/288
f 288/288/288 299/299/299 300/300/300
f 288/288/288 300/300/300 289/289/289
f 289/289/289 300/300/300 301/301/301
f 289/289/289 301/301/301 290/290/290
f 290/290/290 301/301/301 302/302/302
f 290/290/290 302/302/302 291/291/291
f 291/291/291 302/302/302 303/303/303
f 291/291/291 303/303/303 292/292/292
f 304/304/304 315/315/315 316/316/316
f 304/304/304 316/316/316 305/305/305
f 305/305/305 316/316/316 317/317/317
f 305/305/305 317/317/317 306/306/306
f 306/306/306 317/317/317 318/318/318
f 306/306/306 318/318/318 307/307/307
f 307/307/307 318/318/318 319/319/319
f 307/307/307 319/319/319 308/308/308
f 308/308/308 319/319/319 320/320/320
f 308/308/308 320/320/320 309/309/309
f 309/309/309 320/320/320 321/321/321
f 309/309/309 321/321/321 310/310/310
f 310/310/310 321/321/321 322/322/322
f 310/310/310 322/322/322 311/311/311
f 311/311/311 322/322/322 323/323/323
f 311/311/311 323/323/323 312/312/312
f 312/312/312 323/323/323 324/324/324
f 312/312/312 324/324/324 313/313/313
f 313/313/313 324/324/324 325/325/325
f 313/313/313 325/325/325 314/314/314
f 315/315/315 326/326/326 327/327/327
f 315/315/315 327/327/327 316/316/316
f 316/316/316 327/327/327 328/328/328
f 316/316/316 328/328/328 317/317/317
f 317/317/317 328/328/328 329/329/329
f 317/317/317 329/329/329 318/318/318
f 318/318/318 329/329/329 330/330/330
f 318/318/318 330/330/330 319/319/319
f 319/319/319 330/330/330 331/331/331
f 319/319/319 331/331/331 320/320/320
f 320/320/320 331/331/331 332/332/332
f 320/320/320 332/332/332 321/321/321
f 321/321/321 332/332/332 333/333/333
f 321/321/321 333/333/333 322/322/322
f 322/322/322 333/333/333 334/334/334
f 322/322/322 334/334/334 323/323/323
f 323/323/323 334/334/334 335/335/335
f 323/323/323 335/335/335 324/324/324
f 324/324/324 335/335/335 336/336/336
f 324/324/324 336/336/336 325/325/325
f 326/326/326 337/337/337 338/338/338
f 326/326/326 338/338/338 327/327/327
f 327/327/327 338/338/338 339/339/339
f 327/327/327 339/339/339 328/328/328
f 328/328/328 339/339/339 340/340/340
f 328/328/328 340/340/340 329/329/329
f 329/329/329 340/340/340 341/341/341
f 329/329/329 341/341/341 330/330/330
f 330/330/330 341/341/341 342/342/342
f 330/330/330 342/342/342 331/331/331
f 331/331/331 342/342/342 343/343/343
f 331/331/331 343/343/343 332/332/332
f 332/332/332 343/343/343 344/344/344
f 332/332/332 344/344/344 333/333/333
f 333/333/333 344/344/344 345/345/345
f 333/333/333 345/345/345 334/334/334
f 334/334/334 345/345/345 346/346/346
f 334/334/334 346/346/346 335/335/335
f 335/335/335 346/346/346 347/347/347
f 335/335/335 347/347/347 336/336/336
f 337/337/337 348/348/348 349/349/349
f 337/337/337 349/349/349 338/338/338
f 338/338/338 349/349/349 350/350/350
f 338/338/338 350/350/350 339/339/339
f 339/339/339 350/350/350 351/351/351
f 339/339/339 351/351/351 340/340/340
f 340/340/340 351/351/351 352/352/352
f 340/340/340 352/352/352 341/341/341
f 341/341/341 352/352/352 353/353/353
f 341/341/341 353/353/353 342/342/342
f 342/342/342 353/353/353 354/354/354
f 342/342/342 354/354/354 343/343/343
f 343/343/343 354/354/354 355/355/355
f 343/343/343 355/355/355 344/344/344
f 344/344/344 355/355/355 356/356/356
f 344/344/344 356/356/356 345/345/345
f 345/345/345 356/356/356 357/357/357
f 345/345/345 357/357/357 346/346/346
f 346/346/346 357/357/357 358/358/358
f 346/346/346 358/358/358 347/347/347
f 348/348/348 359/359/359 360/360/360
f 348/348/348 360/360/360 349/349/349
f 349/349/349 360/360/360 361/361/361
f 349/349/349 361/361/361 350/350/350
f 350/350/350 361/361/361 362/362/362
f 350/350/350 362/362/362 351/351/351
f 351/351/351 362/362/362 363/363/363
f 351/351/351 363/363/363 352/352/352
f 352/352/352 363/363/363 364/364/364
f 352/352/352 364/364/364 353/353/353
f 353/353/353 364/364/364 365/365/365
f 353/353/353 365/365/365 354/354/354
f 354/354/354 365/365/365 366/366/366
f 354/354/354 366/366/366 355/355/355
f 355/355/355 366/366/366 367/367/367
f 355/355/355 367/367/367 356/356/356
f 356/356/356 367/367/367 368/368/368
f 356/356/356 368/368/368 357/357/357
f 357/357/357 368/368/368 369/369/369
f 357/357/357 369/369/369 358/358/358
f 359/359/359 370/370/370 371/371/371
f 359/359/359 371/371/371 360/360/360
f 360/360/360 371/371/371 372/372/372
f 360/360/360 372/372/372 361/361/361
f 361/361/361 372/372/372 373/373/373
f 361/361/361 373/373/373 362/362/362
f 362/362/362 373/373/373 374/374/374
f 362/362/362 374/374/374 363/363/363
f 363/363/363 374/374/374 375/375/375
f 363/363/363 375/375/375 364/364/364
f 364/364/364 375/375/375 376/376/376
f 364/364/364 376/376/376 365/365/365
f 365/365/365 376/376/376 377/377/377
f 365/365/365 377/377/377 366/366/366
f 366/366/366 377/377/377 378/378/378
f 366/366/366 378/378/378 367/367/367
f 367/367/367 378/378/378 379/379/379
f 367/367/367 379/379/379 368/368/368
f 368/368/368 379/379/379 380/380/380
f 368/368/368 380/380/380 369/369/369
f 381/381/381 392/392/392 393/393/393
f 381/381/381 393/393/393 382/382/382
f 382/382/382 393/393/393 394/394/394
f 382/382/382 394/394/394 383/383/383
f 383/383/383 394/394/394 395/395/395
f 383/383/383 395/395/395 384/384/384
f 384/384/384 395/395/395 396/396/396
f 384/384/384 396/396/396 385/385/385
f 385/385/385 396/396/396 397/397/397
f 385/385/385 397/397/397 386/386/386
f 386/386/386 397/397/397 398/398/398
f 386/386/386 398/398/398 387/387/387
f 387/387/387 398/398/398 399/399/399
f 387/387/387 399/399/399 388/388/388
f 388/388/388 399/399/399 400/400/400
f 388/388/388 400/400/400 389/389/389
f 389/389/389 400/400/400 401/401/401
f 389/389/389 401/401/401 390/390/390
f 390/390/390 401/401/401 402/402/402
f 390/390/390 402/402/402 391/391/391
f 392/392/392 403/403/403 404/404/404
f 392/392/392 404/404/404 393/393/393
f 393/393/393 404/404/404 405/405/405
f 393/393/393 405/405/405 394/394/394
f 394/394/394 405/405/405 406/406/406
f 394/394/394 406/406/406 395/395/395
f 395/395/395 406/406/406 407/407/407
f 395/395/395 407/407/407 396/396/396
f 396/396/396 407/407/407 408/408/408
f 396/396/396 408/408/408 397/397/397
f 397/397/397 408/408/408 409/409/409
f 397/397/397 409/409/409 398/398/398
f 398/398/398 409/409/409 410/410/410
f 398/398/398 410/410/410 399/399/399
f 399/399/399 410/410/410 411/411/411
f 399/399/399 411/411/411 400/400/400
f 400/400/400 411/411/411 412/412/412
f 400/400/400 412/412/412 401/401/401
f 401/401/401 412/412/412 413/413/413
f 401/401/401 413/413/413 402/402/402
f 403/403/403 414/414/414 415/415/415
f 403/403/403 415/415/415 404/404/404
f 404/404/404 415/415/415 416/416/416
f 404/404/404 416/416/416 405/405/405
f 405/405/405 416/416/416 417/417/417
f 405/405/405 417/417/417 406/406/406
f 406/406/406 417/417/417 418/418/418
f 406/406/406 418/418/418 407/407/407
f 407/407/407 418/418/418 419/419/419
f 407/407/407 419/419/419 408/408/408
f 408/408/408 419/419/419 420/420/420
f 408/408/408 420/420/420 409/409/409
f 409/409/409 420/420/420 421/421/421
f 409/409/409 421/421/421 410/410/410
f 410/410/410 421/421/421 422/422/422
f 410/410/410 422/422/422 411/411/411
f 411/411/411 422/422/422 423/423/423
f 411/411/411 423/423/423 412/412/412
f 412/412/412 423/423/423 424/424/424
f 412/412/412 424/424/424 413/413/413
f 414/414/414 425/425/425 426/426/426
f 414/414/414 426/426/426 415/415/415
f 415/415/415 426/426/426 427/427/427
f 415/415/415 427/427/427 416/416/416
f 416/416/416 427/427/427 428/428/428
f 416/416/416 428/428/428 417/417/417
f 417/417/417 428/428/428 429/429/429
f 417/417/417 429/429/429 418/418/418
f 418/418/418 429/429/429 430/430/430
f 418/418/418 430/430/430 419/419/419
f 419/419/419 430/430/430 431/431/431
f 419/419/419 431/431/431 420/420/420
f 420/420/420 431/431/431 432/432/432
f 420/420/420 432/432/432 421/421/421
f 421/421/421 432/432/432 433/433/433
f 421/421/421 433/433/433 422/422/422
f 422/422/422 433/433/433 434/434/434
f 422/422/422 434/434/434 423/423/423
f 423/423/423 434/434/434 435/435/435
f 423/423/423 435/435/435 424/424/424
f 425/425/425 436/436/436 437/437/437
f 425/425/425 437/437/437 426/426/426
f 426/426/426 437/437/437 438/438/438
f 426/426/426 438/438/438 427/427/427
f 427/427/427 438/438/438 439/439/439
f 427/427/427 439/439/439 428/428/428
f 428/428/428 439/439/439 440/440/440
f 428/428/428 440/440/440 429/429/429
f 429/429/429 440/440/440 441/441/441
f 429/429/429 441/441/441 430/430/430
f 430/430/430 441/441/441 442/442/442
f 430/430/430 442/442/442 431/431/431
f 431/431/431 442/442/442 443/443/443
f 431/431/431 443/443/443 432/432/432
f 432/432/432 443/443/443 444/444/444
f 432/432/432 444/444/444 433/433/433
f 433/433/433 444/444/444 445/445/445
f 433/433/433 445/445/445 434/434/434
f 434/434/434 445/445/445 446/446/446
f 434/434/434 446/446/446 435/435/435
f 436/436/436 447/447/447 448/448/448
f 436/436/436 448/448/448 437/437/437
f 437/437/437 448/448/448 449/449/449
f 437/437/437 449/449/449 438/438/438
f 438/438/438 449/449/449 450/450/450
f 438/438/438 450/450/450 439/439/439
f 439/439/439 450/450/450 451/451/451
f 439/439/439 451/451/451 440/440/440
f 440/440/440 451/451/451 452/452/452
f 440/440/440 452/452/452 441/441/441
f 441/441/441 452/452/452 453/453/453
f 441/441/441 453/453/453 442/442/442
f 442/442/442 453/453/453 454/454/454
f 442/442/442 454/454/454 443/443/443
f 443/443/443 454/454/454 455/455/455
f 443/443/443 455/455/455 444/444/444
f 444/444/444 455/455/455 456/456/456
f 444/444/444 456/456/456 445/445/445
f 445/445/445 456/456/456 457/457/457
f 445/445/445 457/457/457 446/446/446
f 458/458/458 469/469/469 470/470/470
f 458/458/458 470/470/470 459/459/459
f 459/459/459 470/470/470 471/471/471
f 459/459/459 471/471/471 460/460/460
f 460/460/460 471/471/471 472/472/472
f 460/460/460 472/472/472 461/461/461
f 461/461/461 472/472/472 473/473/473
f 461/461/461 473/473/473 462/462/462
f 462/462/462 473/473/473 474/474/474
f 462/462/462 474/474/474 463/463/463
f 463/463/463 474/474/474 475/475/475
f 463/463/463 475/475/475 464/464/464
f 464/464/464 475/475/475 476/476/476
f 464/464/464 476/476/476 465/465/465
f 465/465/465 476/476/476 477/477/477
f 465/465/465 477/477/477 466/466/466
f 466/466/466 477/477/477 478/478/478
f 466/466/466 478/478/478 467/467/467
f 467/467/467 478/478/478 479/479/479
f 467/467/467 479/479/479 468/468/468
f 469/469/469 480/480/480 481/481/481
f 469/469/469 481/481/481 470/470/470
f 470/470/470 481/481/481 482/482/482
f 470/470/470 482/482/482 471/471/471
f 471/471/471 482/482/482 483/483/483
f 471/471/471 483/483/483 472/472/472
f 472/472/472 483/483/483 484/484/484
f 472/472/472 484/484/484 473/473/473
f 473/473/473 484/484/484 485/485/485
f 473/473/473 485/485/485 474/474/474
f 474/474/474 485/485/485 486/486/486
f 474/474/474 486/486/486 475/475/475
f 475/475/475 486/486/486 487/487/487
f 475/475/475 487/487/487 476/476/476
f 476/476/476 487/487/487 488/488/488
f 476/476/476 488/488/488 477/477/477
f 477/477/477 488/488/488 489/489/489
f 477/477/477 489/489/489 478/478/478
f 478/478/478 489/489/489 490/490/490
f 478/478/478 490/490/490 479/479/479
f 480/480/480 491/491/491 492/492/492
f 480/480/480 492/492/492 481/481/481
f 481/481/481 492/492/492 493/493/493
f 481/481/481 493/493/493 482/482/482
f 482/482/482 493/493/493 494/494/494
f 482/482/482 494/494/494 483/483/483
f 483/483/483 494/494/494 495/495/495
f 483/483/483 495/495/495 484/484/484
f 484/484/484 495/495/495 496/496/496
f 484/484/484 496/496/496 485/485/485
f 485/485/485 496/496/496 497/497/497
f 485/485/485 497/497/497 486/486/486
f 486/486/486 497/497/497 498/498/498
f 486/486/486 498/498/498 487/487/487
f 487/487/487 498/498/498 499/499/499
f 487/487/487 499/499/499 488/488/488
f 488/488/488 499/499/499 500/500/500
f 488/488/488 500/500/500 489/489/489
f 489/489/489 500/500/500 501/501/501
f 489/489/489 501/501/501 490/490/490
f 491/491/491 502/502/502 503/503/503
f 491/491/491 503/503/503 492/492/492
f 492/492/492 503/503/503 504/504/504
f 492/492/492 504/504/504 493/493/493
f 493/493/493 504/504/504 505/505/505
f 493/493/493 505/505/505 494/494/494
f 494/494/494 505/505/505 506/506/506
f 494/494/494 506/506/506 495/495/495
f 495/495/495 506/506/506 507/507/507
f 495/495/495 507/507/507 496/496/496
f 496/496/496 507/507/507 508/508/508
f 496/496/496 508/508/508 497/497/497
f 497/497/497 508/508/508 509/509/509
f 497/497/497 509/509/509 498/498/498
f 498/498/498 509/509/509 510/510/510
f 498/498/498 510/510/510 499/499/499
f 499/499/499 510/510/510 511/511/511
f 499/499/499 511/511/511 500/500/500
f 500/500/500 511/511/511 512/512/512
f 500/500/500 512/512/512 501/501/501
f 502/502/502 513/513/513 514/514/514
f 502/502/502 514/514/514 503/503/503
f 503/503/503 514/514/514 515/515/515
f 503/503/503 515/515/515 504/504/504
f 504/504/504 515/515/515 516/516/516
f 504/504/504 516/516/516 505/505/505
f 505/505/505 516/516/516 517/517/517
f 505/505/505 517/517/517 506/506/506
f 506/506/506 517/517/517 518/518/518
f 506/506/506 518/518/518 507/507/507
f 507/507/507 518/518/518 519/519/519
f 507/507/507 519/519/519 508/508/508
f 508/508/508 519/519/519 520/520/520
f 508/508/508 520/520/520 509/509/509
f 509/509/509 520/520/520 521/521/521
f 509/509/509 521/521/521 510/510/510
f 510/510/510 521/521/521 522/522/522
f 510/510/510 522/522/522 511/511/511
f 511/511/511 522/522/522 523/523/523
f 511/511/511 523/523/523 512/512/512
f 513/513/513 524/524/524 525/525/525
f 513/513/513 525/525/525 514/514/514
f 514/514/514 525/525/525 526/526/526
f 514/514/514 526/526/526 515/515/515
f 515/515/515 526/526/526 527/527/527
f 515/515/515 527/527/527 516/516/516
f 516/516/516 527/527/527 528/528/528
f 516/516/516 528/528/528 517/517/517
f 517/517/517 528/528/528 529/529/529
f 517/517/517 529/529/529 518/518/518
f 518/518/518 529/529/529 530/530/530
f 518/518/518 530/530/530 519/519/519
f 519/519/519 530/530/530 531/531/531
f 519/519/519 531/531/531 520/520/520
f 520/520/520 531/531/531 532/532/532
f 520/520/520 532/532/532 521/521/521
f 521/521/521 532/532/532 533/533/533
f 521/521/521 533/533/533 522/522/522
f 522/522/522 533/533/533 534/534/534
f 522/522/522 534/534/534 523/523/523
f 535/535/535 546/546/546 547/547/547
f 535/535/535 547/547/547 536/536/536
f 536/536/536 547/547/547 548/548/548
f 536/536/536 548/548/548 537/537/537
f 537/537/537 548/548/548 549/549/549
f 537/537/537 549/549/549 538/538/538
f 538/538/538 549/549/549 550/550/550
f 538/538/538 550/550/550 539/539/539
f 539/539/539 550/550/550 551/551/551
f 539/539/539 551/551/551 540/540/540
f 540/540/540 551/551/551 552/552/552
f 540/540/540 552/552/552 541/541/541
f 541/541/541 552/552/552 553/553/553
f 541/541/541 553/553/553 542/542/542
f 542/542/542 553/553/553 554/554/554
f 542/542/542 554/554/554 543/543/543
f 543/543/543 554/554/554 555/555/555
f 543/543/543 555/555/555 544/544/544
f 544/544/544 555/555/555 556/556/556
f 544/544/544 556/556/556 545/545/545
f 546/546/546 557/557/557 558/558/558
f 546/546/546 558/558/558 547/547/547
f 547/547/547 558/558/558 559/559/559
f 547/547/547 559/559/559 548/548/548
f 548/548/548 559/559/559 560/560/560
f 548/548/548 560/560/560 549/549/549
f 549/549/549 560/560/560 561/561/561
f 549/549/549 561/561/561 550/550/550
f 550/550/550 561/561/561 562/562/562
f 550/550/550 562/562/562 551/551/551
f 551/551/551 562/562/562 563/563/563
f 551/551/551 563/563/563 552/552/552
f 552/552/552 563/563/563 564/564/564
f 552/552/552 564/564/564 553/553/553
f 553/553/553 564/564/564 565/565/565
f 553/553/553 565/565/565 554/554/554
f 554/554/554 565/565/565 566/566/566
f 554/554/554 566/566/566 555/555/555
f 555/555/555 566/566/566 567/567/567
f 555/555/555 567/567/567 556/556/556
f 557/557/557 568/568/568 569/569/569
f 557/557/557 569/569/569 558/558/558
f 558/558/558 569/569/569 570/570/570
f 558/558/558 570/570/570 559/559/559
f 559/559/559 570/570/570 571/571/571
f 559/559/559 571/571/571 560/560/560
f 560/560/560 571/571/571 572/572/572
f 560/560/560 572/572/572 561/561/561
f 561/561/561 572/572/572 573/573/573
f 561/561/561 573/573/573 562/562/562
f 562/562/562 573/573/573 574/574/574
f 562/562/562 574/574/574 563/563/563
f 563/563/563 574/574/574 575/575/575
f 563/563/563 575/575/575 564/564/564
f 564/564/564 575/575/575 576/576/576
f 564/564/564 576/576/576 565/565/565
f 565/565/565 576/576/576 577/577/577
f 565/565/565 577/577/577 566/566/566
f 566/566/566 577/577/577 578/578/578
f 566/566/566 578/578/578 567/567/567
f 568/568/568 579/579/579 580/580/580
f 568/568/568 580/580/580 569/569/569
f 569/569/569 580/580/580 581/581/581
f 569/569/569 581/581/581 570/570/570
f 570/570/570 581/581/581 582/582/582
f 570/570/570 582/582/582 571/571/571
f 571/571/571 582/582/582 583/583/583
f 571/571/571 583/583/583 572/572/572
f 572/572/572 583/583/583 584/584/584
f 572/572/572 584/584/584 573/573/573
f 573/573/573 584/584/584 585/585/585
f 573/573/573 585/585/585 574/574/574
f 574/574/574 585/585/585 586/586/586
f 574/574/574 586/586/586 575/575/575
f 575/575/575 586/586/586 587/587/587
f 575/575/575 587/587/587 576/576/576
f 576/576/576 587/587/587 588/588/588
f 576/576/576 588/588/588 577/577/577
f 577/577/577 588/588/588 589/589/589
f 577/577/577 589/589/589 578/578/578
f 579/579/579 590/590/590 591/591/591
f 579/579/579 591/591/591 580/580/580
f 580/580/580 591/591/591 592/592/592
f 580/580/580 592/592/592 581/581/581
f 581/581/581 592/592/592 593/593/593
f 581/581/581 593/593/593 582/582/582
f 582/582/582 593/593/593 594/594/594
f 582/582/582 594/594/594 583/583/583
f 583/583/583 594/594/594 595/595/595
f 583/583/583 595/595/595 584/584/584
f 584/584/584 595/595/595 596/596/596
f 584/584/584 596/596/596 585/585/585
f 585/585/585 596/596/596 597/597/597
f 585/585/585 597/597/597 586/586/586
f 586/586/586 597/597/597 598/598/598
f 586/586/586 598/598/598 587/587/587
f 587/587/587 598/598/598 599/599/599
f 587/587/587 599/599/599 588/588/588
f 588/588/588 599/599/599 600/600/600
f 588/588/588 600/600/600 589/589/589
f 590/590/590 601/601/601 602/602/602
f 590/590/590 602/602/602 591/591/591
f 591/591/591 602/602/602 603/603/603
f 591/591/591 603/603/603 592/592/592
f 592/592/592 603/603/603 604/604/604
f 592/592/592 604/604/604 593/593/593
f 593/593/593 604/604/604 605/605/605
f 593/593/593 605/605/605 594/594/594
f 594/594/594 605/605/605 606/606/606
f 594/594/594 606/606/606 595/595/595
f 595/595/595 606/606/606 607/607/607
f 595/595/595 607/607/607 596/596/596
f 596/596/596 607/607/607 608/608/608
f 596/596/596 608/608/608 597/597/597
f 597/597/597 608/608/608 609/609/609
f 597/597/597 609/609/609 598/598/598
f 598/598/598 609/609/609 610/610/610
f 598/598/598 610/610/610 599/599/599
f 599/599/599 610/610/610 611/611/611
f 599/599/599 611/611/611 600/600/600