# 3D Model: ship/hull/2000x1250_wmkn_84254351907813_0 (v6 Gemini)
# Style: military_ship | Symmetry: symmetric
# Dimensions: 13.76 x 19.25 x 55.5 m
# Triangles: 776 | Vertices: 478
v -6 -2 -24
v 6 -2 -24
v 6 0 -24
v -6 0 -24
v -6 -2 24
v 6 -2 24
v 6 0 24
v -6 0 24
v -6.5 0 -25
v 6.5 0 -25
v 6.5 3 -25
v -6.5 3 -25
v -6.5 0 25
v 6.5 0 25
v 6.5 3 25
v -6.5 3 25
v 6.5 0 30.5
v -6.5 0 30.5
v -6.5 0 24.5
v 6.5 0 24.5
v 6.5 3 30.5
v -6.5 3 30.5
v -6.3 3 -19
v 6.3 3 -19
v 6.3 3.2 -19
v -6.3 3.2 -19
v -6.3 3 23
v 6.3 3 23
v 6.3 3.2 23
v -6.3 3.2 23
v 1.5 3 18
v 1.299 3 18.75
v 0.75 3 19.299
v 0 3 19.5
v -0.75 3 19.299
v -1.299 3 18.75
v -1.5 3 18
v -1.299 3 17.25
v -0.75 3 16.701
v 0 3 16.5
v 0.75 3 16.701
v 1.299 3 17.25
v 1.2 4.2 18
v 1.0392 4.2 18.6
v 0.6 4.2 19.0392
v 0 4.2 19.2
v -0.6 4.2 19.0392
v -1.0392 4.2 18.6
v -1.2 4.2 18
v -1.0392 4.2 17.4
v -0.6 4.2 16.9608
v 0 4.2 16.8
v 0.6 4.2 16.9608
v 1.0392 4.2 17.4
v 0 3 18
v 0 4.2 18
v -5.5 3.2 -5
v 5.5 3.2 -5
v 5.5 6.8 -5
v -5.5 6.8 -5
v -5.5 3.2 11
v 5.5 3.2 11
v 5.5 6.8 11
v -5.5 6.8 11
v -5.1 5.2 10.6
v 5.1 5.2 10.6
v 5.1 6.8 10.6
v -5.1 6.8 10.6
v -5.1 5.2 11
v 5.1 5.2 11
v 5.1 6.8 11
v -5.1 6.8 11
v -5.6 6.8 -5.1
v 5.6 6.8 -5.1
v 5.6 7.2 -5.1
v -5.6 7.2 -5.1
v -5.6 6.8 11.1
v 5.6 6.8 11.1
v 5.6 7.2 11.1
v -5.6 7.2 11.1
v 3.182 7.25 5.182
v -3.182 7.25 5.182
v -3.182 7.25 -1.182
v 3.182 7.25 -1.182
v 1.7678 11.75 3.7678
v -1.7678 11.75 3.7678
v -1.7678 11.75 0.2322
v 1.7678 11.75 0.2322
v 0 7.25 2
v 0 11.75 2
v 1.5556 11.75 3.5556
v -1.5556 11.75 3.5556
v -1.5556 11.75 0.4444
v 1.5556 11.75 0.4444
v 0.8485 17.25 2.8485
v -0.8485 17.25 2.8485
v -0.8485 17.25 1.1515
v 0.8485 17.25 1.1515
v 0 11.75 2
v 0 17.25 2
v -3.2 9.3 4
v -3.2 9.3 4
v -3.2 9.3 4
v -3.2 9.3 4
v -3.2 9.3 4
v -3.2 9.3 4
v -3.2 9.3 4
v -3.2 9.3 4
v -3.2 9.3 4
v -3.2 9.3 4
v -3.2 9.3 4
v -3.0439 9.2846 4
v -3.0737 9.2846 4.0917
v -3.1518 9.2846 4.1484
v -3.2482 9.2846 4.1484
v -3.3263 9.2846 4.0917
v -3.3561 9.2846 4
v -3.3263 9.2846 3.9083
v -3.2482 9.2846 3.8516
v -3.1518 9.2846 3.8516
v -3.0737 9.2846 3.9083
v -3.0439 9.2846 4
v -2.8939 9.2391 4
v -2.9523 9.2391 4.1799
v -3.1054 9.2391 4.2912
v -3.2946 9.2391 4.2912
v -3.4477 9.2391 4.1799
v -3.5061 9.2391 4
v -3.4477 9.2391 3.8201
v -3.2946 9.2391 3.7088
v -3.1054 9.2391 3.7088
v -2.9523 9.2391 3.8201
v -2.8939 9.2391 4
v -2.7555 9.1652 4
v -2.8404 9.1652 4.2612
v -3.0627 9.1652 4.4227
v -3.3373 9.1652 4.4227
v -3.5596 9.1652 4.2612
v -3.6445 9.1652 4
v -3.5596 9.1652 3.7388
v -3.3373 9.1652 3.5773
v -3.0627 9.1652 3.5773
v -2.8404 9.1652 3.7388
v -2.7555 9.1652 4
v -2.6343 9.0657 4
v -2.7424 9.0657 4.3325
v -3.0252 9.0657 4.538
v -3.3748 9.0657 4.538
v -3.6576 9.0657 4.3325
v -3.7657 9.0657 4
v -3.6576 9.0657 3.6675
v -3.3748 9.0657 3.462
v -3.0252 9.0657 3.462
v -2.7424 9.0657 3.6675
v -2.6343 9.0657 4
v -2.5348 8.9445 4
v -2.6619 8.9445 4.391
v -2.9944 8.9445 4.6326
v -3.4056 8.9445 4.6326
v -3.7381 8.9445 4.391
v -3.8652 8.9445 4
v -3.7381 8.9445 3.609
v -3.4056 8.9445 3.3674
v -2.9944 8.9445 3.3674
v -2.6619 8.9445 3.609
v -2.5348 8.9445 4
v -2.4609 8.8061 4
v -2.6021 8.8061 4.4344
v -2.9716 8.8061 4.7029
v -3.4284 8.8061 4.7029
v -3.7979 8.8061 4.4344
v -3.9391 8.8061 4
v -3.7979 8.8061 3.5656
v -3.4284 8.8061 3.2971
v -2.9716 8.8061 3.2971
v -2.6021 8.8061 3.5656
v -2.4609 8.8061 4
v -2.4154 8.6561 4
v -2.5652 8.6561 4.4612
v -2.9575 8.6561 4.7462
v -3.4425 8.6561 4.7462
v -3.8348 8.6561 4.4612
v -3.9846 8.6561 4
v -3.8348 8.6561 3.5388
v -3.4425 8.6561 3.2538
v -2.9575 8.6561 3.2538
v -2.5652 8.6561 3.5388
v -2.4154 8.6561 4
v -2.4 8.5 4
v -2.5528 8.5 4.4702
v -2.9528 8.5 4.7608
v -3.4472 8.5 4.7608
v -3.8472 8.5 4.4702
v -4 8.5 4
v -3.8472 8.5 3.5298
v -3.4472 8.5 3.2392
v -2.9528 8.5 3.2392
v -2.5528 8.5 3.5298
v -2.4 8.5 4
v -3.2 8.5 4
v 3.2 9.3 4
v 3.2 9.3 4
v 3.2 9.3 4
v 3.2 9.3 4
v 3.2 9.3 4
v 3.2 9.3 4
v 3.2 9.3 4
v 3.2 9.3 4
v 3.2 9.3 4
v 3.2 9.3 4
v 3.2 9.3 4
v 3.3561 9.2846 4
v 3.3263 9.2846 4.0917
v 3.2482 9.2846 4.1484
v 3.1518 9.2846 4.1484
v 3.0737 9.2846 4.0917
v 3.0439 9.2846 4
v 3.0737 9.2846 3.9083
v 3.1518 9.2846 3.8516
v 3.2482 9.2846 3.8516
v 3.3263 9.2846 3.9083
v 3.3561 9.2846 4
v 3.5061 9.2391 4
v 3.4477 9.2391 4.1799
v 3.2946 9.2391 4.2912
v 3.1054 9.2391 4.2912
v 2.9523 9.2391 4.1799
v 2.8939 9.2391 4
v 2.9523 9.2391 3.8201
v 3.1054 9.2391 3.7088
v 3.2946 9.2391 3.7088
v 3.4477 9.2391 3.8201
v 3.5061 9.2391 4
v 3.6445 9.1652 4
v 3.5596 9.1652 4.2612
v 3.3373 9.1652 4.4227
v 3.0627 9.1652 4.4227
v 2.8404 9.1652 4.2612
v 2.7555 9.1652 4
v 2.8404 9.1652 3.7388
v 3.0627 9.1652 3.5773
v 3.3373 9.1652 3.5773
v 3.5596 9.1652 3.7388
v 3.6445 9.1652 4
v 3.7657 9.0657 4
v 3.6576 9.0657 4.3325
v 3.3748 9.0657 4.538
v 3.0252 9.0657 4.538
v 2.7424 9.0657 4.3325
v 2.6343 9.0657 4
v 2.7424 9.0657 3.6675
v 3.0252 9.0657 3.462
v 3.3748 9.0657 3.462
v 3.6576 9.0657 3.6675
v 3.7657 9.0657 4
v 3.8652 8.9445 4
v 3.7381 8.9445 4.391
v 3.4056 8.9445 4.6326
v 2.9944 8.9445 4.6326
v 2.6619 8.9445 4.391
v 2.5348 8.9445 4
v 2.6619 8.9445 3.609
v 2.9944 8.9445 3.3674
v 3.4056 8.9445 3.3674
v 3.7381 8.9445 3.609
v 3.8652 8.9445 4
v 3.9391 8.8061 4
v 3.7979 8.8061 4.4344
v 3.4284 8.8061 4.7029
v 2.9716 8.8061 4.7029
v 2.6021 8.8061 4.4344
v 2.4609 8.8061 4
v 2.6021 8.8061 3.5656
v 2.9716 8.8061 3.2971
v 3.4284 8.8061 3.2971
v 3.7979 8.8061 3.5656
v 3.9391 8.8061 4
v 3.9846 8.6561 4
v 3.8348 8.6561 4.4612
v 3.4425 8.6561 4.7462
v 2.9575 8.6561 4.7462
v 2.5652 8.6561 4.4612
v 2.4154 8.6561 4
v 2.5652 8.6561 3.5388
v 2.9575 8.6561 3.2538
v 3.4425 8.6561 3.2538
v 3.8348 8.6561 3.5388
v 3.9846 8.6561 4
v 4 8.5 4
v 3.8472 8.5 4.4702
v 3.4472 8.5 4.7608
v 2.9528 8.5 4.7608
v 2.5528 8.5 4.4702
v 2.4 8.5 4
v 2.5528 8.5 3.5298
v 2.9528 8.5 3.2392
v 3.4472 8.5 3.2392
v 3.8472 8.5 3.5298
v 4 8.5 4
v 3.2 8.5 4
v -5 3.25 -14.5
v 5 3.25 -14.5
v 5 8.75 -14.5
v -5 8.75 -14.5
v -5 3.25 -2.5
v 5 3.25 -2.5
v 5 8.75 -2.5
v -5 8.75 -2.5
v -3 8.7 -10
v 3 8.7 -10
v 3 10.9 -10
v -3 10.9 -10
v -3 8.7 -5
v 3 8.7 -5
v 3 10.9 -5
v -3 10.9 -5
v -6 3.15 -24
v 6 3.15 -24
v 6 3.25 -24
v -6 3.25 -24
v -6 3.15 -12
v 6 3.15 -12
v 6 3.25 -12
v -6 3.25 -12
v -5.92 4 5
v -5.96 4.0693 5
v -6.04 4.0693 5
v -6.08 4 5
v -6.04 3.9307 5
v -5.96 3.9307 5
v -5.92 4 5
v -6.0117 4 5.2821
v -6.044 4.0693 5.2586
v -6.1088 4.0693 5.2116
v -6.1411 4 5.1881
v -6.1088 3.9307 5.2116
v -6.044 3.9307 5.2586
v -6.0117 4 5.2821
v -6.2517 4 5.4565
v -6.264 4.0693 5.4185
v -6.2888 4.0693 5.3424
v -6.3011 4 5.3043
v -6.2888 3.9307 5.3424
v -6.264 3.9307 5.4185
v -6.2517 4 5.4565
v -6.5483 4 5.4565
v -6.536 4.0693 5.4185
v -6.5112 4.0693 5.3424
v -6.4989 4 5.3043
v -6.5112 3.9307 5.3424
v -6.536 3.9307 5.4185
v -6.5483 4 5.4565
v -6.7883 4 5.2821
v -6.756 4.0693 5.2586
v -6.6912 4.0693 5.2116
v -6.6589 4 5.1881
v -6.6912 3.9307 5.2116
v -6.756 3.9307 5.2586
v -6.7883 4 5.2821
v -6.88 4 5
v -6.84 4.0693 5
v -6.76 4.0693 5
v -6.72 4 5
v -6.76 3.9307 5
v -6.84 3.9307 5
v -6.88 4 5
v -6.7883 4 4.7179
v -6.756 4.0693 4.7414
v -6.6912 4.0693 4.7884
v -6.6589 4 4.8119
v -6.6912 3.9307 4.7884
v -6.756 3.9307 4.7414
v -6.7883 4 4.7179
v -6.5483 4 4.5435
v -6.536 4.0693 4.5815
v -6.5112 4.0693 4.6576
v -6.4989 4 4.6957
v -6.5112 3.9307 4.6576
v -6.536 3.9307 4.5815
v -6.5483 4 4.5435
v -6.2517 4 4.5435
v -6.264 4.0693 4.5815
v -6.2888 4.0693 4.6576
v -6.3011 4 4.6957
v -6.2888 3.9307 4.6576
v -6.264 3.9307 4.5815
v -6.2517 4 4.5435
v -6.0117 4 4.7179
v -6.044 4.0693 4.7414
v -6.1088 4.0693 4.7884
v -6.1411 4 4.8119
v -6.1088 3.9307 4.7884
v -6.044 3.9307 4.7414
v -6.0117 4 4.7179
v -5.92 4 5
v -5.96 4.0693 5
v -6.04 4.0693 5
v -6.08 4 5
v -6.04 3.9307 5
v -5.96 3.9307 5
v -5.92 4 5
v 6.88 4 5
v 6.84 4.0693 5
v 6.76 4.0693 5
v 6.72 4 5
v 6.76 3.9307 5
v 6.84 3.9307 5
v 6.88 4 5
v 6.7883 4 5.2821
v 6.756 4.0693 5.2586
v 6.6912 4.0693 5.2116
v 6.6589 4 5.1881
v 6.6912 3.9307 5.2116
v 6.756 3.9307 5.2586
v 6.7883 4 5.2821
v 6.5483 4 5.4565
v 6.536 4.0693 5.4185
v 6.5112 4.0693 5.3424
v 6.4989 4 5.3043
v 6.5112 3.9307 5.3424
v 6.536 3.9307 5.4185
v 6.5483 4 5.4565
v 6.2517 4 5.4565
v 6.264 4.0693 5.4185
v 6.2888 4.0693 5.3424
v 6.3011 4 5.3043
v 6.2888 3.9307 5.3424
v 6.264 3.9307 5.4185
v 6.2517 4 5.4565
v 6.0117 4 5.2821
v 6.044 4.0693 5.2586
v 6.1088 4.0693 5.2116
v 6.1411 4 5.1881
v 6.1088 3.9307 5.2116
v 6.044 3.9307 5.2586
v 6.0117 4 5.2821
v 5.92 4 5
v 5.96 4.0693 5
v 6.04 4.0693 5
v 6.08 4 5
v 6.04 3.9307 5
v 5.96 3.9307 5
v 5.92 4 5
v 6.0117 4 4.7179
v 6.044 4.0693 4.7414
v 6.1088 4.0693 4.7884
v 6.1411 4 4.8119
v 6.1088 3.9307 4.7884
v 6.044 3.9307 4.7414
v 6.0117 4 4.7179
v 6.2517 4 4.5435
v 6.264 4.0693 4.5815
v 6.2888 4.0693 4.6576
v 6.3011 4 4.6957
v 6.2888 3.9307 4.6576
v 6.264 3.9307 4.5815
v 6.2517 4 4.5435
v 6.5483 4 4.5435
v 6.536 4.0693 4.5815
v 6.5112 4.0693 4.6576
v 6.4989 4 4.6957
v 6.5112 3.9307 4.6576
v 6.536 3.9307 4.5815
v 6.5483 4 4.5435
v 6.7883 4 4.7179
v 6.756 4.0693 4.7414
v 6.6912 4.0693 4.7884
v 6.6589 4 4.8119
v 6.6912 3.9307 4.7884
v 6.756 3.9307 4.7414
v 6.7883 4 4.7179
v 6.88 4 5
v 6.84 4.0693 5
v 6.76 4.0693 5
v 6.72 4 5
v 6.76 3.9307 5
v 6.84 3.9307 5
v 6.88 4 5
vt 0.5 0.5
vt 0.5 0.5
vt 0.5 0.5
vt 0.5 0.5
vt 0.5 0.5
vt 0.5 0.5
vt 0.5 0.5
vt 0.5 0.5
vt 0.5 0.5
vt 0.5 0.5
vt 0.5 0.5
vt 0.5 0.5
vt 0.5 0.5
vt 0.5 0.5
vt 0.5 0.5
vt 0.5 0.5
vt 0.5 0.5
vt 0.5 0.5
vt 0.5 0.5
vt 0.5 0.5
vt 0.5 0.5
vt 0.5 0.5
vt 0.5 0.5
vt 0.5 0.5
vt 0.5 0.5
vt 0.5 0.5
vt 0.5 0.5
vt 0.5 0.5
vt 0.5 0.5
vt 0.5 0.5
vt 0 0
vt 0.08333333333333333 0
vt 0.16666666666666666 0
vt 0.25 0
vt 0.3333333333333333 0
vt 0.4166666666666667 0
vt 0.5 0
vt 0.5833333333333334 0
vt 0.6666666666666666 0
vt 0.75 0
vt 0.8333333333333334 0
vt 0.9166666666666666 0
vt 0 1
vt 0.08333333333333333 1
vt 0.16666666666666666 1
vt 0.25 1
vt 0.3333333333333333 1
vt 0.4166666666666667 1
vt 0.5 1
vt 0.5833333333333334 1
vt 0.6666666666666666 1
vt 0.75 1
vt 0.8333333333333334 1
vt 0.9166666666666666 1
vt 0.5 0.5
vt 0.5 0.5
vt 0.5 0.5
vt 0.5 0.5
vt 0.5 0.5
vt 0.5 0.5
vt 0.5 0.5
vt 0.5 0.5
vt 0.5 0.5
vt 0.5 0.5
vt 0.5 0.5
vt 0.5 0.5
vt 0.5 0.5
vt 0.5 0.5
vt 0.5 0.5
vt 0.5 0.5
vt 0.5 0.5
vt 0.5 0.5
vt 0.5 0.5
vt 0.5 0.5
vt 0.5 0.5
vt 0.5 0.5
vt 0.5 0.5
vt 0.5 0.5
vt 0.5 0.5
vt 0.5 0.5
vt 0 0
vt 0.25 0
vt 0.5 0
vt 0.75 0
vt 0 1
vt 0.25 1
vt 0.5 1
vt 0.75 1
vt 0.5 0.5
vt 0.5 0.5
vt 0 0
vt 0.25 0
vt 0.5 0
vt 0.75 0
vt 0 1
vt 0.25 1
vt 0.5 1
vt 0.75 1
vt 0.5 0.5
vt 0.5 0.5
vt 0 0
vt 0.1 0
vt 0.2 0
vt 0.3 0
vt 0.4 0
vt 0.5 0
vt 0.6 0
vt 0.7 0
vt 0.8 0
vt 0.9 0
vt 1 0
vt 0 0.125
vt 0.1 0.125
vt 0.2 0.125
vt 0.3 0.125
vt 0.4 0.125
vt 0.5 0.125
vt 0.6 0.125
vt 0.7 0.125
vt 0.8 0.125
vt 0.9 0.125
vt 1 0.125
vt 0 0.25
vt 0.1 0.25
vt 0.2 0.25
vt 0.3 0.25
vt 0.4 0.25
vt 0.5 0.25
vt 0.6 0.25
vt 0.7 0.25
vt 0.8 0.25
vt 0.9 0.25
vt 1 0.25
vt 0 0.375
vt 0.1 0.375
vt 0.2 0.375
vt 0.3 0.375
vt 0.4 0.375
vt 0.5 0.375
vt 0.6 0.375
vt 0.7 0.375
vt 0.8 0.375
vt 0.9 0.375
vt 1 0.375
vt 0 0.5
vt 0.1 0.5
vt 0.2 0.5
vt 0.3 0.5
vt 0.4 0.5
vt 0.5 0.5
vt 0.6 0.5
vt 0.7 0.5
vt 0.8 0.5
vt 0.9 0.5
vt 1 0.5
vt 0 0.625
vt 0.1 0.625
vt 0.2 0.625
vt 0.3 0.625
vt 0.4 0.625
vt 0.5 0.625
vt 0.6 0.625
vt 0.7 0.625
vt 0.8 0.625
vt 0.9 0.625
vt 1 0.625
vt 0 0.75
vt 0.1 0.75
vt 0.2 0.75
vt 0.3 0.75
vt 0.4 0.75
vt 0.5 0.75
vt 0.6 0.75
vt 0.7 0.75
vt 0.8 0.75
vt 0.9 0.75
vt 1 0.75
vt 0 0.875
vt 0.1 0.875
vt 0.2 0.875
vt 0.3 0.875
vt 0.4 0.875
vt 0.5 0.875
vt 0.6 0.875
vt 0.7 0.875
vt 0.8 0.875
vt 0.9 0.875
vt 1 0.875
vt 0 1
vt 0.1 1
vt 0.2 1
vt 0.3 1
vt 0.4 1
vt 0.5 1
vt 0.6 1
vt 0.7 1
vt 0.8 1
vt 0.9 1
vt 1 1
vt 0.5 0.5
vt 0 0
vt 0.1 0
vt 0.2 0
vt 0.3 0
vt 0.4 0
vt 0.5 0
vt 0.6 0
vt 0.7 0
vt 0.8 0
vt 0.9 0
vt 1 0
vt 0 0.125
vt 0.1 0.125
vt 0.2 0.125
vt 0.3 0.125
vt 0.4 0.125
vt 0.5 0.125
vt 0.6 0.125
vt 0.7 0.125
vt 0.8 0.125
vt 0.9 0.125
vt 1 0.125
vt 0 0.25
vt 0.1 0.25
vt 0.2 0.25
vt 0.3 0.25
vt 0.4 0.25
vt 0.5 0.25
vt 0.6 0.25
vt 0.7 0.25
vt 0.8 0.25
vt 0.9 0.25
vt 1 0.25
vt 0 0.375
vt 0.1 0.375
vt 0.2 0.375
vt 0.3 0.375
vt 0.4 0.375
vt 0.5 0.375
vt 0.6 0.375
vt 0.7 0.375
vt 0.8 0.375
vt 0.9 0.375
vt 1 0.375
vt 0 0.5
vt 0.1 0.5
vt 0.2 0.5
vt 0.3 0.5
vt 0.4 0.5
vt 0.5 0.5
vt 0.6 0.5
vt 0.7 0.5
vt 0.8 0.5
vt 0.9 0.5
vt 1 0.5
vt 0 0.625
vt 0.1 0.625
vt 0.2 0.625
vt 0.3 0.625
vt 0.4 0.625
vt 0.5 0.625
vt 0.6 0.625
vt 0.7 0.625
vt 0.8 0.625
vt 0.9 0.625
vt 1 0.625
vt 0 0.75
vt 0.1 0.75
vt 0.2 0.75
vt 0.3 0.75
vt 0.4 0.75
vt 0.5 0.75
vt 0.6 0.75
vt 0.7 0.75
vt 0.8 0.75
vt 0.9 0.75
vt 1 0.75
vt 0 0.875
vt 0.1 0.875
vt 0.2 0.875
vt 0.3 0.875
vt 0.4 0.875
vt 0.5 0.875
vt 0.6 0.875
vt 0.7 0.875
vt 0.8 0.875
vt 0.9 0.875
vt 1 0.875
vt 0 1
vt 0.1 1
vt 0.2 1
vt 0.3 1
vt 0.4 1
vt 0.5 1
vt 0.6 1
vt 0.7 1
vt 0.8 1
vt 0.9 1
vt 1 1
vt 0.5 0.5
vt 0.5 0.5
vt 0.5 0.5
vt 0.5 0.5
vt 0.5 0.5
vt 0.5 0.5
vt 0.5 0.5
vt 0.5 0.5
vt 0.5 0.5
vt 0.5 0.5
vt 0.5 0.5
vt 0.5 0.5
vt 0.5 0.5
vt 0.5 0.5
vt 0.5 0.5
vt 0.5 0.5
vt 0.5 0.5
vt 0.5 0.5
vt 0.5 0.5
vt 0.5 0.5
vt 0.5 0.5
vt 0.5 0.5
vt 0.5 0.5
vt 0.5 0.5
vt 0.5 0.5
vt 0 0
vt 0 0.16666666666666666
vt 0 0.3333333333333333
vt 0 0.5
vt 0 0.6666666666666666
vt 0 0.8333333333333334
vt 0 1
vt 0.1 0
vt 0.1 0.16666666666666666
vt 0.1 0.3333333333333333
vt 0.1 0.5
vt 0.1 0.6666666666666666
vt 0.1 0.8333333333333334
vt 0.1 1
vt 0.2 0
vt 0.2 0.16666666666666666
vt 0.2 0.3333333333333333
vt 0.2 0.5
vt 0.2 0.6666666666666666
vt 0.2 0.8333333333333334
vt 0.2 1
vt 0.3 0
vt 0.3 0.16666666666666666
vt 0.3 0.3333333333333333
vt 0.3 0.5
vt 0.3 0.6666666666666666
vt 0.3 0.8333333333333334
vt 0.3 1
vt 0.4 0
vt 0.4 0.16666666666666666
vt 0.4 0.3333333333333333
vt 0.4 0.5
vt 0.4 0.6666666666666666
vt 0.4 0.8333333333333334
vt 0.4 1
vt 0.5 0
vt 0.5 0.16666666666666666
vt 0.5 0.3333333333333333
vt 0.5 0.5
vt 0.5 0.6666666666666666
vt 0.5 0.8333333333333334
vt 0.5 1
vt 0.6 0
vt 0.6 0.16666666666666666
vt 0.6 0.3333333333333333
vt 0.6 0.5
vt 0.6 0.6666666666666666
vt 0.6 0.8333333333333334
vt 0.6 1
vt 0.7 0
vt 0.7 0.16666666666666666
vt 0.7 0.3333333333333333
vt 0.7 0.5
vt 0.7 0.6666666666666666
vt 0.7 0.8333333333333334
vt 0.7 1
vt 0.8 0
vt 0.8 0.16666666666666666
vt 0.8 0.3333333333333333
vt 0.8 0.5
vt 0.8 0.6666666666666666
vt 0.8 0.8333333333333334
vt 0.8 1
vt 0.9 0
vt 0.9 0.16666666666666666
vt 0.9 0.3333333333333333
vt 0.9 0.5
vt 0.9 0.6666666666666666
vt 0.9 0.8333333333333334
vt 0.9 1
vt 1 0
vt 1 0.16666666666666666
vt 1 0.3333333333333333
vt 1 0.5
vt 1 0.6666666666666666
vt 1 0.8333333333333334
vt 1 1
vt 0 0
vt 0 0.16666666666666666
vt 0 0.3333333333333333
vt 0 0.5
vt 0 0.6666666666666666
vt 0 0.8333333333333334
vt 0 1
vt 0.1 0
vt 0.1 0.16666666666666666
vt 0.1 0.3333333333333333
vt 0.1 0.5
vt 0.1 0.6666666666666666
vt 0.1 0.8333333333333334
vt 0.1 1
vt 0.2 0
vt 0.2 0.16666666666666666
vt 0.2 0.3333333333333333
vt 0.2 0.5
vt 0.2 0.6666666666666666
vt 0.2 0.8333333333333334
vt 0.2 1
vt 0.3 0
vt 0.3 0.16666666666666666
vt 0.3 0.3333333333333333
vt 0.3 0.5
vt 0.3 0.6666666666666666
vt 0.3 0.8333333333333334
vt 0.3 1
vt 0.4 0
vt 0.4 0.16666666666666666
vt 0.4 0.3333333333333333
vt 0.4 0.5
vt 0.4 0.6666666666666666
vt 0.4 0.8333333333333334
vt 0.4 1
vt 0.5 0
vt 0.5 0.16666666666666666
vt 0.5 0.3333333333333333
vt 0.5 0.5
vt 0.5 0.6666666666666666
vt 0.5 0.8333333333333334
vt 0.5 1
vt 0.6 0
vt 0.6 0.16666666666666666
vt 0.6 0.3333333333333333
vt 0.6 0.5
vt 0.6 0.6666666666666666
vt 0.6 0.8333333333333334
vt 0.6 1
vt 0.7 0
vt 0.7 0.16666666666666666
vt 0.7 0.3333333333333333
vt 0.7 0.5
vt 0.7 0.6666666666666666
vt 0.7 0.8333333333333334
vt 0.7 1
vt 0.8 0
vt 0.8 0.16666666666666666
vt 0.8 0.3333333333333333
vt 0.8 0.5
vt 0.8 0.6666666666666666
vt 0.8 0.8333333333333334
vt 0.8 1
vt 0.9 0
vt 0.9 0.16666666666666666
vt 0.9 0.3333333333333333
vt 0.9 0.5
vt 0.9 0.6666666666666666
vt 0.9 0.8333333333333334
vt 0.9 1
vt 1 0
vt 1 0.16666666666666666
vt 1 0.3333333333333333
vt 1 0.5
vt 1 0.6666666666666666
vt 1 0.8333333333333334
vt 1 1
vn 0 1 0
vn 0 1 0
vn 0 1 0
vn 0 1 0
vn 0 1 0
vn 0 1 0
vn 0 1 0
vn 0 1 0
vn 0 1 0
vn 0 1 0
vn 0 1 0
vn 0 1 0
vn 0 1 0
vn 0 1 0
vn 0 1 0
vn 0 1 0
vn 0 1 0
vn 0 1 0
vn 0 1 0
vn 0 1 0
vn 0 1 0
vn 0 1 0
vn 0 1 0
vn 0 1 0
vn 0 1 0
vn 0 1 0
vn 0 1 0
vn 0 1 0
vn 0 1 0
vn 0 1 0
vn 0 -1 0
vn 0 -1 0
vn 0 -1 0
vn 0 -1 0
vn 0 -1 0
vn 0 -1 0
vn 0 -1 0
vn 0 -1 0
vn 0 -1 0
vn 0 -1 0
vn 0 -1 0
vn 0 -1 0
vn 0 1 0
vn 0 1 0
vn 0 1 0
vn 0 1 0
vn 0 1 0
vn 0 1 0
vn 0 1 0
vn 0 1 0
vn 0 1 0
vn 0 1 0
vn 0 1 0
vn 0 1 0
vn 0 -1 0
vn 0 1 0
vn 0 1 0
vn 0 1 0
vn 0 1 0
vn 0 1 0
vn 0 1 0
vn 0 1 0
vn 0 1 0
vn 0 1 0
vn 0 1 0
vn 0 1 0
vn 0 1 0
vn 0 1 0
vn 0 1 0
vn 0 1 0
vn 0 1 0
vn 0 1 0
vn 0 1 0
vn 0 1 0
vn 0 1 0
vn 0 1 0
vn 0 1 0
vn 0 1 0
vn 0 1 0
vn 0 1 0
vn 0 -1 0
vn 0 -1 0
vn 0 -1 0
vn 0 -1 0
vn 0 1 0
vn 0 1 0
vn 0 1 0
vn 0 1 0
vn 0 -1 0
vn 0 1 0
vn 0 -1 0
vn 0 -1 0
vn 0 -1 0
vn 0 -1 0
vn 0 1 0
vn 0 1 0
vn 0 1 0
vn 0 1 0
vn 0 -1 0
vn 0 1 0
vn 0 1 0
vn 0 1 0
vn 0 1 0
vn 0 1 0
vn 0 1 0
vn 0 1 0
vn 0 1 0
vn 0 1 0
vn 0 1 0
vn 0 1 0
vn 0 1 0
vn 0.19509032201612825 0.9807852804032304 0
vn 0.1578313859491287 0.9807852804032304 0.11467121414606977
vn 0.06028622494106459 0.9807852804032304 0.1855419220195586
vn -0.060286224941064566 0.9807852804032304 0.18554192201955866
vn -0.15783138594912866 0.9807852804032304 0.11467121414606979
vn -0.19509032201612825 0.9807852804032304 2.3891673840167787e-17
vn -0.1578313859491287 0.9807852804032304 -0.11467121414606975
vn -0.060286224941064614 0.9807852804032304 -0.1855419220195586
vn 0.060286224941064545 0.9807852804032304 -0.18554192201955866
vn 0.15783138594912866 0.9807852804032304 -0.11467121414606982
vn 0.19509032201612825 0.9807852804032304 -4.7783347680335573e-17
vn 0.3826834323650898 0.9238795325112867 0
vn 0.30959740024909344 0.9238795325112867 0.22493567784086388
vn 0.11825568406654853 0.9238795325112867 0.36395357202901424
vn -0.1182556840665485 0.9238795325112867 0.36395357202901435
vn -0.3095974002490934 0.9238795325112867 0.2249356778408639
vn -0.3826834323650898 0.9238795325112867 4.6865204053262986e-17
vn -0.30959740024909344 0.9238795325112867 -0.22493567784086385
vn -0.11825568406654857 0.9238795325112867 -0.36395357202901424
vn 0.11825568406654845 0.9238795325112867 -0.36395357202901435
vn 0.3095974002490934 0.9238795325112867 -0.224935677840864
vn 0.3826834323650898 0.9238795325112867 -9.373040810652597e-17
vn 0.5555702330196022 0.8314696123025452 0
vn 0.44946576008170774 0.8314696123025452 0.3265559895816149
vn 0.17168064357190665 0.8314696123025452 0.5283786903729095
vn -0.17168064357190657 0.8314696123025452 0.5283786903729096
vn -0.4494657600817077 0.8314696123025452 0.326555989581615
vn -0.5555702330196022 0.8314696123025452 6.80377307569005e-17
vn -0.44946576008170774 0.8314696123025452 -0.3265559895816149
vn -0.1716806435719067 0.8314696123025452 -0.5283786903729095
vn 0.17168064357190652 0.8314696123025452 -0.5283786903729096
vn 0.4494657600817077 0.8314696123025452 -0.3265559895816151
vn 0.5555702330196022 0.8314696123025452 -1.36075461513801e-16
vn 0.7071067811865475 0.7071067811865476 0
vn 0.5720614028176843 0.7071067811865476 0.4156269377774534
vn 0.21850801222441055 0.7071067811865476 0.6724985119639573
vn -0.21850801222441046 0.7071067811865476 0.6724985119639573
vn -0.5720614028176841 0.7071067811865476 0.4156269377774535
vn -0.7071067811865475 0.7071067811865476 8.659560562354932e-17
vn -0.5720614028176843 0.7071067811865476 -0.4156269377774533
vn -0.2185080122244106 0.7071067811865476 -0.6724985119639573
vn 0.2185080122244104 0.7071067811865476 -0.6724985119639573
vn 0.5720614028176841 0.7071067811865476 -0.4156269377774536
vn 0.7071067811865475 0.7071067811865476 -1.7319121124709863e-16
vn 0.8314696123025452 0.5555702330196023 0
vn 0.672673046659108 0.5555702330196023 0.48872557584077636
vn 0.25693824050783537 0.5555702330196023 0.7907745928817406
vn -0.25693824050783526 0.5555702330196023 0.7907745928817407
vn -0.6726730466591078 0.5555702330196023 0.48872557584077647
vn -0.8314696123025452 0.5555702330196023 1.0182565992946028e-16
vn -0.672673046659108 0.5555702330196023 -0.4887255758407763
vn -0.2569382405078354 0.5555702330196023 -0.7907745928817406
vn 0.25693824050783515 0.5555702330196023 -0.7907745928817407
vn 0.6726730466591078 0.5555702330196023 -0.4887255758407766
vn 0.8314696123025452 0.5555702330196023 -2.0365131985892056e-16
vn 0.9238795325112867 0.3826834323650899 0
vn 0.7474342425568128 0.3826834323650899 0.5430427641049989
vn 0.28549447630116936 0.3826834323650899 0.8786616496665794
vn -0.28549447630116925 0.3826834323650899 0.8786616496665796
vn -0.7474342425568127 0.3826834323650899 0.543042764104999
vn -0.9238795325112867 0.3826834323650899 1.1314261122877003e-16
vn -0.7474342425568128 0.3826834323650899 -0.5430427641049987
vn -0.2854944763011695 0.3826834323650899 -0.8786616496665794
vn 0.28549447630116914 0.3826834323650899 -0.8786616496665796
vn 0.7474342425568127 0.3826834323650899 -0.543042764104999
vn 0.9238795325112867 0.3826834323650899 -2.2628522245754005e-16
vn 0.9807852804032304 0.19509032201612833 0
vn 0.7934719596790115 0.19509032201612833 0.5764911234865568
vn 0.3030793194773963 0.19509032201612833 0.9327822320138618
vn -0.3030793194773962 0.19509032201612833 0.9327822320138618
vn -0.7934719596790114 0.19509032201612833 0.576491123486557
vn -0.9807852804032304 0.19509032201612833 1.2011155542966555e-16
vn -0.7934719596790115 0.19509032201612833 -0.5764911234865567
vn -0.3030793194773964 0.19509032201612833 -0.9327822320138618
vn 0.3030793194773961 0.19509032201612833 -0.9327822320138618
vn 0.7934719596790114 0.19509032201612833 -0.5764911234865571
vn 0.9807852804032304 0.19509032201612833 -2.402231108593311e-16
vn 1 6.123233995736766e-17 0
vn 0.8090169943749476 6.123233995736766e-17 0.5877852522924731
vn 0.30901699437494745 6.123233995736766e-17 0.9510565162951535
vn -0.30901699437494734 6.123233995736766e-17 0.9510565162951536
vn -0.8090169943749473 6.123233995736766e-17 0.5877852522924732
vn -1 6.123233995736766e-17 1.2246467991473532e-16
vn -0.8090169943749476 6.123233995736766e-17 -0.587785252292473
vn -0.30901699437494756 6.123233995736766e-17 -0.9510565162951535
vn 0.30901699437494723 6.123233995736766e-17 -0.9510565162951536
vn 0.8090169943749473 6.123233995736766e-17 -0.5877852522924734
vn 1 6.123233995736766e-17 -2.4492935982947064e-16
vn 0 -1 0
vn 0 1 0
vn 0 1 0
vn 0 1 0
vn 0 1 0
vn 0 1 0
vn 0 1 0
vn 0 1 0
vn 0 1 0
vn 0 1 0
vn 0 1 0
vn 0 1 0
vn 0.19509032201612825 0.9807852804032304 0
vn 0.1578313859491287 0.9807852804032304 0.11467121414606977
vn 0.06028622494106459 0.9807852804032304 0.1855419220195586
vn -0.060286224941064566 0.9807852804032304 0.18554192201955866
vn -0.15783138594912866 0.9807852804032304 0.11467121414606979
vn -0.19509032201612825 0.9807852804032304 2.3891673840167787e-17
vn -0.1578313859491287 0.9807852804032304 -0.11467121414606975
vn -0.060286224941064614 0.9807852804032304 -0.1855419220195586
vn 0.060286224941064545 0.9807852804032304 -0.18554192201955866
vn 0.15783138594912866 0.9807852804032304 -0.11467121414606982
vn 0.19509032201612825 0.9807852804032304 -4.7783347680335573e-17
vn 0.3826834323650898 0.9238795325112867 0
vn 0.30959740024909344 0.9238795325112867 0.22493567784086388
vn 0.11825568406654853 0.9238795325112867 0.36395357202901424
vn -0.1182556840665485 0.9238795325112867 0.36395357202901435
vn -0.3095974002490934 0.9238795325112867 0.2249356778408639
vn -0.3826834323650898 0.9238795325112867 4.6865204053262986e-17
vn -0.30959740024909344 0.9238795325112867 -0.22493567784086385
vn -0.11825568406654857 0.9238795325112867 -0.36395357202901424
vn 0.11825568406654845 0.9238795325112867 -0.36395357202901435
vn 0.3095974002490934 0.9238795325112867 -0.224935677840864
vn 0.3826834323650898 0.9238795325112867 -9.373040810652597e-17
vn 0.5555702330196022 0.8314696123025452 0
vn 0.44946576008170774 0.8314696123025452 0.3265559895816149
vn 0.17168064357190665 0.8314696123025452 0.5283786903729095
vn -0.17168064357190657 0.8314696123025452 0.5283786903729096
vn -0.4494657600817077 0.8314696123025452 0.326555989581615
vn -0.5555702330196022 0.8314696123025452 6.80377307569005e-17
vn -0.44946576008170774 0.8314696123025452 -0.3265559895816149
vn -0.1716806435719067 0.8314696123025452 -0.5283786903729095
vn 0.17168064357190652 0.8314696123025452 -0.5283786903729096
vn 0.4494657600817077 0.8314696123025452 -0.3265559895816151
vn 0.5555702330196022 0.8314696123025452 -1.36075461513801e-16
vn 0.7071067811865475 0.7071067811865476 0
vn 0.5720614028176843 0.7071067811865476 0.4156269377774534
vn 0.21850801222441055 0.7071067811865476 0.6724985119639573
vn -0.21850801222441046 0.7071067811865476 0.6724985119639573
vn -0.5720614028176841 0.7071067811865476 0.4156269377774535
vn -0.7071067811865475 0.7071067811865476 8.659560562354932e-17
vn -0.5720614028176843 0.7071067811865476 -0.4156269377774533
vn -0.2185080122244106 0.7071067811865476 -0.6724985119639573
vn 0.2185080122244104 0.7071067811865476 -0.6724985119639573
vn 0.5720614028176841 0.7071067811865476 -0.4156269377774536
vn 0.7071067811865475 0.7071067811865476 -1.7319121124709863e-16
vn 0.8314696123025452 0.5555702330196023 0
vn 0.672673046659108 0.5555702330196023 0.48872557584077636
vn 0.25693824050783537 0.5555702330196023 0.7907745928817406
vn -0.25693824050783526 0.5555702330196023 0.7907745928817407
vn -0.6726730466591078 0.5555702330196023 0.48872557584077647
vn -0.8314696123025452 0.5555702330196023 1.0182565992946028e-16
vn -0.672673046659108 0.5555702330196023 -0.4887255758407763
vn -0.2569382405078354 0.5555702330196023 -0.7907745928817406
vn 0.25693824050783515 0.5555702330196023 -0.7907745928817407
vn 0.6726730466591078 0.5555702330196023 -0.4887255758407766
vn 0.8314696123025452 0.5555702330196023 -2.0365131985892056e-16
vn 0.9238795325112867 0.3826834323650899 0
vn 0.7474342425568128 0.3826834323650899 0.5430427641049989
vn 0.28549447630116936 0.3826834323650899 0.8786616496665794
vn -0.28549447630116925 0.3826834323650899 0.8786616496665796
vn -0.7474342425568127 0.3826834323650899 0.543042764104999
vn -0.9238795325112867 0.3826834323650899 1.1314261122877003e-16
vn -0.7474342425568128 0.3826834323650899 -0.5430427641049987
vn -0.2854944763011695 0.3826834323650899 -0.8786616496665794
vn 0.28549447630116914 0.3826834323650899 -0.8786616496665796
vn 0.7474342425568127 0.3826834323650899 -0.543042764104999
vn 0.9238795325112867 0.3826834323650899 -2.2628522245754005e-16
vn 0.9807852804032304 0.19509032201612833 0
vn 0.7934719596790115 0.19509032201612833 0.5764911234865568
vn 0.3030793194773963 0.19509032201612833 0.9327822320138618
vn -0.3030793194773962 0.19509032201612833 0.9327822320138618
vn -0.7934719596790114 0.19509032201612833 0.576491123486557
vn -0.9807852804032304 0.19509032201612833 1.2011155542966555e-16
vn -0.7934719596790115 0.19509032201612833 -0.5764911234865567
vn -0.3030793194773964 0.19509032201612833 -0.9327822320138618
vn 0.3030793194773961 0.19509032201612833 -0.9327822320138618
vn 0.7934719596790114 0.19509032201612833 -0.5764911234865571
vn 0.9807852804032304 0.19509032201612833 -2.402231108593311e-16
vn 1 6.123233995736766e-17 0
vn 0.8090169943749476 6.123233995736766e-17 0.5877852522924731
vn 0.30901699437494745 6.123233995736766e-17 0.9510565162951535
vn -0.30901699437494734 6.123233995736766e-17 0.9510565162951536
vn -0.8090169943749473 6.123233995736766e-17 0.5877852522924732
vn -1 6.123233995736766e-17 1.2246467991473532e-16
vn -0.8090169943749476 6.123233995736766e-17 -0.587785252292473
vn -0.30901699437494756 6.123233995736766e-17 -0.9510565162951535
vn 0.30901699437494723 6.123233995736766e-17 -0.9510565162951536
vn 0.8090169943749473 6.123233995736766e-17 -0.5877852522924734
vn 1 6.123233995736766e-17 -2.4492935982947064e-16
vn 0 -1 0
vn 0 1 0
vn 0 1 0
vn 0 1 0
vn 0 1 0
vn 0 1 0
vn 0 1 0
vn 0 1 0
vn 0 1 0
vn 0 1 0
vn 0 1 0
vn 0 1 0
vn 0 1 0
vn 0 1 0
vn 0 1 0
vn 0 1 0
vn 0 1 0
vn 0 1 0
vn 0 1 0
vn 0 1 0
vn 0 1 0
vn 0 1 0
vn 0 1 0
vn 0 1 0
vn 0 1 0
vn 1 0 0
vn 0.5000000000000001 0.8660254037844386 0
vn -0.4999999999999998 0.8660254037844387 0
vn -1 1.2246467991473532e-16 0
vn -0.5000000000000004 -0.8660254037844385 0
vn 0.5000000000000001 -0.8660254037844386 0
vn 1 -2.4492935982947064e-16 0
vn 0.8090169943749475 0 0.5877852522924731
vn 0.40450849718747384 0.8660254037844386 0.2938926261462366
vn -0.40450849718747356 0.8660254037844387 -0.29389262614623646
vn -0.8090169943749475 1.2246467991473532e-16 -0.5877852522924731
vn -0.40450849718747406 -0.8660254037844385 -0.29389262614623685
vn 0.40450849718747384 -0.8660254037844386 0.2938926261462366
vn 0.8090169943749475 -2.4492935982947064e-16 0.5877852522924731
vn 0.30901699437494745 0 0.9510565162951535
vn 0.15450849718747375 0.8660254037844386 0.4755282581475769
vn -0.15450849718747367 0.8660254037844387 -0.47552825814757654
vn -0.30901699437494745 1.2246467991473532e-16 -0.9510565162951535
vn -0.15450849718747386 -0.8660254037844385 -0.4755282581475772
vn 0.15450849718747375 -0.8660254037844386 0.4755282581475769
vn 0.30901699437494745 -2.4492935982947064e-16 0.9510565162951535
vn -0.30901699437494734 0 0.9510565162951536
vn -0.1545084971874737 0.8660254037844386 0.47552825814757693
vn 0.15450849718747361 0.8660254037844387 -0.4755282581475766
vn 0.30901699437494734 1.2246467991473532e-16 -0.9510565162951536
vn 0.1545084971874738 -0.8660254037844385 -0.47552825814757727
vn -0.1545084971874737 -0.8660254037844386 0.47552825814757693
vn -0.30901699437494734 -2.4492935982947064e-16 0.9510565162951536
vn -0.8090169943749473 0 0.5877852522924732
vn -0.4045084971874738 0.8660254037844386 0.2938926261462367
vn 0.4045084971874735 0.8660254037844387 -0.2938926261462365
vn 0.8090169943749473 1.2246467991473532e-16 -0.5877852522924732
vn 0.404508497187474 -0.8660254037844385 -0.2938926261462369
vn -0.4045084971874738 -0.8660254037844386 0.2938926261462367
vn -0.8090169943749473 -2.4492935982947064e-16 0.5877852522924732
vn -1 0 1.2246467991473532e-16
vn -0.5000000000000001 0.8660254037844386 6.123233995736767e-17
vn 0.4999999999999998 0.8660254037844387 -6.123233995736764e-17
vn 1 1.2246467991473532e-16 -1.2246467991473532e-16
vn 0.5000000000000004 -0.8660254037844385 -6.123233995736771e-17
vn -0.5000000000000001 -0.8660254037844386 6.123233995736767e-17
vn -1 -2.4492935982947064e-16 1.2246467991473532e-16
vn -0.8090169943749475 0 -0.587785252292473
vn -0.40450849718747384 0.8660254037844386 -0.29389262614623657
vn 0.40450849718747356 0.8660254037844387 0.2938926261462364
vn 0.8090169943749475 1.2246467991473532e-16 0.587785252292473
vn 0.40450849718747406 -0.8660254037844385 0.2938926261462368
vn -0.40450849718747384 -0.8660254037844386 -0.29389262614623657
vn -0.8090169943749475 -2.4492935982947064e-16 -0.587785252292473
vn -0.30901699437494756 0 -0.9510565162951535
vn -0.1545084971874738 0.8660254037844386 -0.4755282581475769
vn 0.15450849718747373 0.8660254037844387 0.47552825814757654
vn 0.30901699437494756 1.2246467991473532e-16 0.9510565162951535
vn 0.15450849718747392 -0.8660254037844385 0.4755282581475772
vn -0.1545084971874738 -0.8660254037844386 -0.4755282581475769
vn -0.30901699437494756 -2.4492935982947064e-16 -0.9510565162951535
vn 0.30901699437494723 0 -0.9510565162951536
vn 0.15450849718747364 0.8660254037844386 -0.47552825814757693
vn -0.15450849718747356 0.8660254037844387 0.4755282581475766
vn -0.30901699437494723 1.2246467991473532e-16 0.9510565162951536
vn -0.15450849718747375 -0.8660254037844385 0.47552825814757727
vn 0.15450849718747364 -0.8660254037844386 -0.47552825814757693
vn 0.30901699437494723 -2.4492935982947064e-16 -0.9510565162951536
vn 0.8090169943749473 0 -0.5877852522924734
vn 0.4045084971874738 0.8660254037844386 -0.29389262614623674
vn -0.4045084971874735 0.8660254037844387 0.29389262614623657
vn -0.8090169943749473 1.2246467991473532e-16 0.5877852522924734
vn -0.404508497187474 -0.8660254037844385 0.29389262614623696
vn 0.4045084971874738 -0.8660254037844386 -0.29389262614623674
vn 0.8090169943749473 -2.4492935982947064e-16 -0.5877852522924734
vn 1 0 -2.4492935982947064e-16
vn 0.5000000000000001 0.8660254037844386 -1.2246467991473535e-16
vn -0.4999999999999998 0.8660254037844387 1.2246467991473527e-16
vn -1 1.2246467991473532e-16 2.4492935982947064e-16
vn -0.5000000000000004 -0.8660254037844385 1.2246467991473542e-16
vn 0.5000000000000001 -0.8660254037844386 -1.2246467991473535e-16
vn 1 -2.4492935982947064e-16 -2.4492935982947064e-16
vn 1 0 0
vn 0.5000000000000001 0.8660254037844386 0
vn -0.4999999999999998 0.8660254037844387 0
vn -1 1.2246467991473532e-16 0
vn -0.5000000000000004 -0.8660254037844385 0
vn 0.5000000000000001 -0.8660254037844386 0
vn 1 -2.4492935982947064e-16 0
vn 0.8090169943749475 0 0.5877852522924731
vn 0.40450849718747384 0.8660254037844386 0.2938926261462366
vn -0.40450849718747356 0.8660254037844387 -0.29389262614623646
vn -0.8090169943749475 1.2246467991473532e-16 -0.5877852522924731
vn -0.40450849718747406 -0.8660254037844385 -0.29389262614623685
vn 0.40450849718747384 -0.8660254037844386 0.2938926261462366
vn 0.8090169943749475 -2.4492935982947064e-16 0.5877852522924731
vn 0.30901699437494745 0 0.9510565162951535
vn 0.15450849718747375 0.8660254037844386 0.4755282581475769
vn -0.15450849718747367 0.8660254037844387 -0.47552825814757654
vn -0.30901699437494745 1.2246467991473532e-16 -0.9510565162951535
vn -0.15450849718747386 -0.8660254037844385 -0.4755282581475772
vn 0.15450849718747375 -0.8660254037844386 0.4755282581475769
vn 0.30901699437494745 -2.4492935982947064e-16 0.9510565162951535
vn -0.30901699437494734 0 0.9510565162951536
vn -0.1545084971874737 0.8660254037844386 0.47552825814757693
vn 0.15450849718747361 0.8660254037844387 -0.4755282581475766
vn 0.30901699437494734 1.2246467991473532e-16 -0.9510565162951536
vn 0.1545084971874738 -0.8660254037844385 -0.47552825814757727
vn -0.1545084971874737 -0.8660254037844386 0.47552825814757693
vn -0.30901699437494734 -2.4492935982947064e-16 0.9510565162951536
vn -0.8090169943749473 0 0.5877852522924732
vn -0.4045084971874738 0.8660254037844386 0.2938926261462367
vn 0.4045084971874735 0.8660254037844387 -0.2938926261462365
vn 0.8090169943749473 1.2246467991473532e-16 -0.5877852522924732
vn 0.404508497187474 -0.8660254037844385 -0.2938926261462369
vn -0.4045084971874738 -0.8660254037844386 0.2938926261462367
vn -0.8090169943749473 -2.4492935982947064e-16 0.5877852522924732
vn -1 0 1.2246467991473532e-16
vn -0.5000000000000001 0.8660254037844386 6.123233995736767e-17
vn 0.4999999999999998 0.8660254037844387 -6.123233995736764e-17
vn 1 1.2246467991473532e-16 -1.2246467991473532e-16
vn 0.5000000000000004 -0.8660254037844385 -6.123233995736771e-17
vn -0.5000000000000001 -0.8660254037844386 6.123233995736767e-17
vn -1 -2.4492935982947064e-16 1.2246467991473532e-16
vn -0.8090169943749475 0 -0.587785252292473
vn -0.40450849718747384 0.8660254037844386 -0.29389262614623657
vn 0.40450849718747356 0.8660254037844387 0.2938926261462364
vn 0.8090169943749475 1.2246467991473532e-16 0.587785252292473
vn 0.40450849718747406 -0.8660254037844385 0.2938926261462368
vn -0.40450849718747384 -0.8660254037844386 -0.29389262614623657
vn -0.8090169943749475 -2.4492935982947064e-16 -0.587785252292473
vn -0.30901699437494756 0 -0.9510565162951535
vn -0.1545084971874738 0.8660254037844386 -0.4755282581475769
vn 0.15450849718747373 0.8660254037844387 0.47552825814757654
vn 0.30901699437494756 1.2246467991473532e-16 0.9510565162951535
vn 0.15450849718747392 -0.8660254037844385 0.4755282581475772
vn -0.1545084971874738 -0.8660254037844386 -0.4755282581475769
vn -0.30901699437494756 -2.4492935982947064e-16 -0.9510565162951535
vn 0.30901699437494723 0 -0.9510565162951536
vn 0.15450849718747364 0.8660254037844386 -0.47552825814757693
vn -0.15450849718747356 0.8660254037844387 0.4755282581475766
vn -0.30901699437494723 1.2246467991473532e-16 0.9510565162951536
vn -0.15450849718747375 -0.8660254037844385 0.47552825814757727
vn 0.15450849718747364 -0.8660254037844386 -0.47552825814757693
vn 0.30901699437494723 -2.4492935982947064e-16 -0.9510565162951536
vn 0.8090169943749473 0 -0.5877852522924734
vn 0.4045084971874738 0.8660254037844386 -0.29389262614623674
vn -0.4045084971874735 0.8660254037844387 0.29389262614623657
vn -0.8090169943749473 1.2246467991473532e-16 0.5877852522924734
vn -0.404508497187474 -0.8660254037844385 0.29389262614623696
vn 0.4045084971874738 -0.8660254037844386 -0.29389262614623674
vn 0.8090169943749473 -2.4492935982947064e-16 -0.5877852522924734
vn 1 0 -2.4492935982947064e-16
vn 0.5000000000000001 0.8660254037844386 -1.2246467991473535e-16
vn -0.4999999999999998 0.8660254037844387 1.2246467991473527e-16
vn -1 1.2246467991473532e-16 2.4492935982947064e-16
vn -0.5000000000000004 -0.8660254037844385 1.2246467991473542e-16
vn 0.5000000000000001 -0.8660254037844386 -1.2246467991473535e-16
vn 1 -2.4492935982947064e-16 -2.4492935982947064e-16
f 1/1/1 3/3/3 2/2/2
f 1/1/1 4/4/4 3/3/3
f 5/5/5 6/6/6 7/7/7
f 5/5/5 7/7/7 8/8/8
f 1/1/1 2/2/2 6/6/6
f 1/1/1 6/6/6 5/5/5
f 3/3/3 4/4/4 8/8/8
f 3/3/3 8/8/8 7/7/7
f 1/1/1 5/5/5 8/8/8
f 1/1/1 8/8/8 4/4/4
f 2/2/2 3/3/3 7/7/7
f 2/2/2 7/7/7 6/6/6
f 9/9/9 11/11/11 10/10/10
f 9/9/9 12/12/12 11/11/11
f 13/13/13 14/14/14 15/15/15
f 13/13/13 15/15/15 16/16/16
f 9/9/9 10/10/10 14/14/14
f 9/9/9 14/14/14 13/13/13
f 11/11/11 12/12/12 16/16/16
f 11/11/11 16/16/16 15/15/15
f 9/9/9 13/13/13 16/16/16
f 9/9/9 16/16/16 12/12/12
f 10/10/10 11/11/11 15/15/15
f 10/10/10 15/15/15 14/14/14
f 17/17/17 19/19/19 18/18/18
f 17/17/17 20/20/20 19/19/19
f 17/17/17 18/18/18 22/22/22
f 17/17/17 22/22/22 21/21/21
f 19/19/19 20/20/20 21/21/21
f 19/19/19 21/21/21 22/22/22
f 17/17/17 21/21/21 20/20/20
f 18/18/18 19/19/19 22/22/22
f 23/23/23 25/25/25 24/24/24
f 23/23/23 26/26/26 25/25/25
f 27/27/27 28/28/28 29/29/29
f 27/27/27 29/29/29 30/30/30
f 23/23/23 24/24/24 28/28/28
f 23/23/23 28/28/28 27/27/27
f 25/25/25 26/26/26 30/30/30
f 25/25/25 30/30/30 29/29/29
f 23/23/23 27/27/27 30/30/30
f 23/23/23 30/30/30 26/26/26
f 24/24/24 25/25/25 29/29/29
f 24/24/24 29/29/29 28/28/28
f 31/31/31 32/32/32 44/44/44
f 31/31/31 44/44/44 43/43/43
f 55/55/55 32/32/32 31/31/31
f 56/56/56 43/43/43 44/44/44
f 32/32/32 33/33/33 45/45/45
f 32/32/32 45/45/45 44/44/44
f 55/55/55 33/33/33 32/32/32
f 56/56/56 44/44/44 45/45/45
f 33/33/33 34/34/34 46/46/46
f 33/33/33 46/46/46 45/45/45
f 55/55/55 34/34/34 33/33/33
f 56/56/56 45/45/45 46/46/46
f 34/34/34 35/35/35 47/47/47
f 34/34/34 47/47/47 46/46/46
f 55/55/55 35/35/35 34/34/34
f 56/56/56 46/46/46 47/47/47
f 35/35/35 36/36/36 48/48/48
f 35/35/35 48/48/48 47/47/47
f 55/55/55 36/36/36 35/35/35
f 56/56/56 47/47/47 48/48/48
f 36/36/36 37/37/37 49/49/49
f 36/36/36 49/49/49 48/48/48
f 55/55/55 37/37/37 36/36/36
f 56/56/56 48/48/48 49/49/49
f 37/37/37 38/38/38 50/50/50
f 37/37/37 50/50/50 49/49/49
f 55/55/55 38/38/38 37/37/37
f 56/56/56 49/49/49 50/50/50
f 38/38/38 39/39/39 51/51/51
f 38/38/38 51/51/51 50/50/50
f 55/55/55 39/39/39 38/38/38
f 56/56/56 50/50/50 51/51/51
f 39/39/39 40/40/40 52/52/52
f 39/39/39 52/52/52 51/51/51
f 55/55/55 40/40/40 39/39/39
f 56/56/56 51/51/51 52/52/52
f 40/40/40 41/41/41 53/53/53
f 40/40/40 53/53/53 52/52/52
f 55/55/55 41/41/41 40/40/40
f 56/56/56 52/52/52 53/53/53
f 41/41/41 42/42/42 54/54/54
f 41/41/41 54/54/54 53/53/53
f 55/55/55 42/42/42 41/41/41
f 56/56/56 53/53/53 54/54/54
f 42/42/42 31/31/31 43/43/43
f 42/42/42 43/43/43 54/54/54
f 55/55/55 31/31/31 42/42/42
f 56/56/56 54/54/54 43/43/43
f 57/57/57 59/59/59 58/58/58
f 57/57/57 60/60/60 59/59/59
f 61/61/61 62/62/62 63/63/63
f 61/61/61 63/63/63 64/64/64
f 57/57/57 58/58/58 62/62/62
f 57/57/57 62/62/62 61/61/61
f 59/59/59 60/60/60 64/64/64
f 59/59/59 64/64/64 63/63/63
f 57/57/57 61/61/61 64/64/64
f 57/57/57 64/64/64 60/60/60
f 58/58/58 59/59/59 63/63/63
f 58/58/58 63/63/63 62/62/62
f 65/65/65 67/67/67 66/66/66
f 65/65/65 68/68/68 67/67/67
f 69/69/69 70/70/70 71/71/71
f 69/69/69 71/71/71 72/72/72
f 65/65/65 66/66/66 70/70/70
f 65/65/65 70/70/70 69/69/69
f 67/67/67 68/68/68 72/72/72
f 67/67/67 72/72/72 71/71/71
f 65/65/65 69/69/69 72/72/72
f 65/65/65 72/72/72 68/68/68
f 66/66/66 67/67/67 71/71/71
f 66/66/66 71/71/71 70/70/70
f 73/73/73 75/75/75 74/74/74
f 73/73/73 76/76/76 75/75/75
f 77/77/77 78/78/78 79/79/79
f 77/77/77 79/79/79 80/80/80
f 73/73/73 74/74/74 78/78/78
f 73/73/73 78/78/78 77/77/77
f 75/75/75 76/76/76 80/80/80
f 75/75/75 80/80/80 79/79/79
f 73/73/73 77/77/77 80/80/80
f 73/73/73 80/80/80 76/76/76
f 74/74/74 75/75/75 79/79/79
f 74/74/74 79/79/79 78/78/78
f 81/81/81 82/82/82 86/86/86
f 81/81/81 86/86/86 85/85/85
f 89/89/89 82/82/82 81/81/81
f 90/90/90 85/85/85 86/86/86
f 82/82/82 83/83/83 87/87/87
f 82/82/82 87/87/87 86/86/86
f 89/89/89 83/83/83 82/82/82
f 90/90/90 86/86/86 87/87/87
f 83/83/83 84/84/84 88/88/88
f 83/83/83 88/88/88 87/87/87
f 89/89/89 84/84/84 83/83/83
f 90/90/90 87/87/87 88/88/88
f 84/84/84 81/81/81 85/85/85
f 84/84/84 85/85/85 88/88/88
f 89/89/89 81/81/81 84/84/84
f 90/90/90 88/88/88 85/85/85
f 91/91/91 92/92/92 96/96/96
f 91/91/91 96/96/96 95/95/95
f 99/99/99 92/92/92 91/91/91
f 100/100/100 95/95/95 96/96/96
f 92/92/92 93/93/93 97/97/97
f 92/92/92 97/97/97 96/96/96
f 99/99/99 93/93/93 92/92/92
f 100/100/100 96/96/96 97/97/97
f 93/93/93 94/94/94 98/98/98
f 93/93/93 98/98/98 97/97/97
f 99/99/99 94/94/94 93/93/93
f 100/100/100 97/97/97 98/98/98
f 94/94/94 91/91/91 95/95/95
f 94/94/94 95/95/95 98/98/98
f 99/99/99 91/91/91 94/94/94
f 100/100/100 98/98/98 95/95/95
f 101/101/101 112/112/112 113/113/113
f 101/101/101 113/113/113 102/102/102
f 102/102/102 113/113/113 114/114/114
f 102/102/102 114/114/114 103/103/103
f 103/103/103 114/114/114 115/115/115
f 103/103/103 115/115/115 104/104/104
f 104/104/104 115/115/115 116/116/116
f 104/104/104 116/116/116 105/105/105
f 105/105/105 116/116/116 117/117/117
f 105/105/105 117/117/117 106/106/106
f 106/106/106 117/117/117 118/118/118
f 106/106/106 118/118/118 107/107/107
f 107/107/107 118/118/118 119/119/119
f 107/107/107 119/119/119 108/108/108
f 108/108/108 119/119/119 120/120/120
f 108/108/108 120/120/120 109/109/109
f 109/109/109 120/120/120 121/121/121
f 109/109/109 121/121/121 110/110/110
f 110/110/110 121/121/121 122/122/122
f 110/110/110 122/122/122 111/111/111
f 112/112/112 123/123/123 124/124/124
f 112/112/112 124/124/124 113/113/113
f 113/113/113 124/124/124 125/125/125
f 113/113/113 125/125/125 114/114/114
f 114/114/114 125/125/125 126/126/126
f 114/114/114 126/126/126 115/115/115
f 115/115/115 126/126/126 127/127/127
f 115/115/115 127/127/127 116/116/116
f 116/116/116 127/127/127 128/128/128
f 116/116/116 128/128/128 117/117/117
f 117/117/117 128/128/128 129/129/129
f 117/117/117 129/129/129 118/118/118
f 118/118/118 129/129/129 130/130/130
f 118/118/118 130/130/130 119/119/119
f 119/119/119 130/130/130 131/131/131
f 119/119/119 131/131/131 120/120/120
f 120/120/120 131/131/131 132/132/132
f 120/120/120 132/132/132 121/121/121
f 121/121/121 132/132/132 133/133/133
f 121/121/121 133/133/133 122/122/122
f 123/123/123 134/134/134 135/135/135
f 123/123/123 135/135/135 124/124/124
f 124/124/124 135/135/135 136/136/136
f 124/124/124 136/136/136 125/125/125
f 125/125/125 136/136/136 137/137/137
f 125/125/125 137/137/137 126/126/126
f 126/126/126 137/137/137 138/138/138
f 126/126/126 138/138/138 127/127/127
f 127/127/127 138/138/138 139/139/139
f 127/127/127 139/139/139 128/128/128
f 128/128/128 139/139/139 140/140/140
f 128/128/128 140/140/140 129/129/129
f 129/129/129 140/140/140 141/141/141
f 129/129/129 141/141/141 130/130/130
f 130/130/130 141/141/141 142/142/142
f 130/130/130 142/142/142 131/131/131
f 131/131/131 142/142/142 143/143/143
f 131/131/131 143/143/143 132/132/132
f 132/132/132 143/143/143 144/144/144
f 132/132/132 144/144/144 133/133/133
f 134/134/134 145/145/145 146/146/146
f 134/134/134 146/146/146 135/135/135
f 135/135/135 146/146/146 147/147/147
f 135/135/135 147/147/147 136/136/136
f 136/136/136 147/147/147 148/148/148
f 136/136/136 148/148/148 137/137/137
f 137/137/137 148/148/148 149/149/149
f 137/137/137 149/149/149 138/138/138
f 138/138/138 149/149/149 150/150/150
f 138/138/138 150/150/150 139/139/139
f 139/139/139 150/150/150 151/151/151
f 139/139/139 151/151/151 140/140/140
f 140/140/140 151/151/151 152/152/152
f 140/140/140 152/152/152 141/141/141
f 141/141/141 152/152/152 153/153/153
f 141/141/141 153/153/153 142/142/142
f 142/142/142 153/153/153 154/154/154
f 142/142/142 154/154/154 143/143/143
f 143/143/143 154/154/154 155/155/155
f 143/143/143 155/155/155 144/144/144
f 145/145/145 156/156/156 157/157/157
f 145/145/145 157/157/157 146/146/146
f 146/146/146 157/157/157 158/158/158
f 146/146/146 158/158/158 147/147/147
f 147/147/147 158/158/158 159/159/159
f 147/147/147 159/159/159 148/148/148
f 148/148/148 159/159/159 160/160/160
f 148/148/148 160/160/160 149/149/149
f 149/149/149 160/160/160 161/161/161
f 149/149/149 161/161/161 150/150/150
f 150/150/150 161/161/161 162/162/162
f 150/150/150 162/162/162 151/151/151
f 151/151/151 162/162/162 163/163/163
f 151/151/151 163/163/163 152/152/152
f 152/152/152 163/163/163 164/164/164
f 152/152/152 164/164/164 153/153/153
f 153/153/153 164/164/164 165/165/165
f 153/153/153 165/165/165 154/154/154
f 154/154/154 165/165/165 166/166/166
f 154/154/154 166/166/166 155/155/155
f 156/156/156 167/167/167 168/168/168
f 156/156/156 168/168/168 157/157/157
f 157/157/157 168/168/168 169/169/169
f 157/157/157 169/169/169 158/158/158
f 158/158/158 169/169/169 170/170/170
f 158/158/158 170/170/170 159/159/159
f 159/159/159 170/170/170 171/171/171
f 159/159/159 171/171/171 160/160/160
f 160/160/160 171/171/171 172/172/172
f 160/160/160 172/172/172 161/161/161
f 161/161/161 172/172/172 173/173/173
f 161/161/161 173/173/173 162/162/162
f 162/162/162 173/173/173 174/174/174
f 162/162/162 174/174/174 163/163/163
f 163/163/163 174/174/174 175/175/175
f 163/163/163 175/175/175 164/164/164
f 164/164/164 175/175/175 176/176/176
f 164/164/164 176/176/176 165/165/165
f 165/165/165 176/176/176 177/177/177
f 165/165/165 177/177/177 166/166/166
f 167/167/167 178/178/178 179/179/179
f 167/167/167 179/179/179 168/168/168
f 168/168/168 179/179/179 180/180/180
f 168/168/168 180/180/180 169/169/169
f 169/169/169 180/180/180 181/181/181
f 169/169/169 181/181/181 170/170/170
f 170/170/170 181/181/181 182/182/182
f 170/170/170 182/182/182 171/171/171
f 171/171/171 182/182/182 183/183/183
f 171/171/171 183/183/183 172/172/172
f 172/172/172 183/183/183 184/184/184
f 172/172/172 184/184/184 173/173/173
f 173/173/173 184/184/184 185/185/185
f 173/173/173 185/185/185 174/174/174
f 174/174/174 185/185/185 186/186/186
f 174/174/174 186/186/186 175/175/175
f 175/175/175 186/186/186 187/187/187
f 175/175/175 187/187/187 176/176/176
f 176/176/176 187/187/187 188/188/188
f 176/176/176 188/188/188 177/177/177
f 178/178/178 189/189/189 190/190/190
f 178/178/178 190/190/190 179/179/179
f 179/179/179 190/190/190 191/191/191
f 179/179/179 191/191/191 180/180/180
f 180/180/180 191/191/191 192/192/192
f 180/180/180 192/192/192 181/181/181
f 181/181/181 192/192/192 193/193/193
f 181/181/181 193/193/193 182/182/182
f 182/182/182 193/193/193 194/194/194
f 182/182/182 194/194/194 183/183/183
f 183/183/183 194/194/194 195/195/195
f 183/183/183 195/195/195 184/184/184
f 184/184/184 195/195/195 196/196/196
f 184/184/184 196/196/196 185/185/185
f 185/185/185 196/196/196 197/197/197
f 185/185/185 197/197/197 186/186/186
f 186/186/186 197/197/197 198/198/198
f 186/186/186 198/198/198 187/187/187
f 187/187/187 198/198/198 199/199/199
f 187/187/187 199/199/199 188/188/188
f 200/200/200 189/189/189 190/190/190
f 200/200/200 190/190/190 191/191/191
f 200/200/200 191/191/191 192/192/192
f 200/200/200 192/192/192 193/193/193
f 200/200/200 193/193/193 194/194/194
f 200/200/200 194/194/194 195/195/195
f 200/200/200 195/195/195 196/196/196
f 200/200/200 196/196/196 197/197/197
f 200/200/200 197/197/197 198/198/198
f 200/200/200 198/198/198 199/199/199
f 201/201/201 212/212/212 213/213/213
f 201/201/201 213/213/213 202/202/202
f 202/202/202 213/213/213 214/214/214
f 202/202/202 214/214/214 203/203/203
f 203/203/203 214/214/214 215/215/215
f 203/203/203 215/215/215 204/204/204
f 204/204/204 215/215/215 216/216/216
f 204/204/204 216/216/216 205/205/205
f 205/205/205 216/216/216 217/217/217
f 205/205/205 217/217/217 206/206/206
f 206/206/206 217/217/217 218/218/218
f 206/206/206 218/218/218 207/207/207
f 207/207/207 218/218/218 219/219/219
f 207/207/207 219/219/219 208/208/208
f 208/208/208 219/219/219 220/220/220
f 208/208/208 220/220/220 209/209/209
f 209/209/209 220/220/220 221/221/221
f 209/209/209 221/221/221 210/210/210
f 210/210/210 221/221/221 222/222/222
f 210/210/210 222/222/222 211/211/211
f 212/212/212 223/223/223 224/224/224
f 212/212/212 224/224/224 213/213/213
f 213/213/213 224/224/224 225/225/225
f 213/213/213 225/225/225 214/214/214
f 214/214/214 225/225/225 226/226/226
f 214/214/214 226/226/226 215/215/215
f 215/215/215 226/226/226 227/227/227
f 215/215/215 227/227/227 216/216/216
f 216/216/216 227/227/227 228/228/228
f 216/216/216 228/228/228 217/217/217
f 217/217/217 228/228/228 229/229/229
f 217/217/217 229/229/229 218/218/218
f 218/218/218 229/229/229 230/230/230
f 218/218/218 230/230/230 219/219/219
f 219/219/219 230/230/230 231/231/231
f 219/219/219 231/231/231 220/220/220
f 220/220/220 231/231/231 232/232/232
f 220/220/220 232/232/232 221/221/221
f 221/221/221 232/232/232 233/233/233
f 221/221/221 233/233/233 222/222/222
f 223/223/223 234/234/234 235/235/235
f 223/223/223 235/235/235 224/224/224
f 224/224/224 235/235/235 236/236/236
f 224/224/224 236/236/236 225/225/225
f 225/225/225 236/236/236 237/237/237
f 225/225/225 237/237/237 226/226/226
f 226/226/226 237/237/237 238/238/238
f 226/226/226 238/238/238 227/227/227
f 227/227/227 238/238/238 239/239/239
f 227/227/227 239/239/239 228/228/228
f 228/228/228 239/239/239 240/240/240
f 228/228/228 240/240/240 229/229/229
f 229/229/229 240/240/240 241/241/241
f 229/229/229 241/241/241 230/230/230
f 230/230/230 241/241/241 242/242/242
f 230/230/230 242/242/242 231/231/231
f 231/231/231 242/242/242 243/243/243
f 231/231/231 243/243/243 232/232/232
f 232/232/232 243/243/243 244/244/244
f 232/232/232 244/244/244 233/233/233
f 234/234/234 245/245/245 246/246/246
f 234/234/234 246/246/246 235/235/235
f 235/235/235 246/246/246 247/247/247
f 235/235/235 247/247/247 236/236/236
f 236/236/236 247/247/247 248/248/248
f 236/236/236 248/248/248 237/237/237
f 237/237/237 248/248/248 249/249/249
f 237/237/237 249/249/249 238/238/238
f 238/238/238 249/249/249 250/250/250
f 238/238/238 250/250/250 239/239/239
f 239/239/239 250/250/250 251/251/251
f 239/239/239 251/251/251 240/240/240
f 240/240/240 251/251/251 252/252/252
f 240/240/240 252/252/252 241/241/241
f 241/241/241 252/252/252 253/253/253
f 241/241/241 253/253/253 242/242/242
f 242/242/242 253/253/253 254/254/254
f 242/242/242 254/254/254 243/243/243
f 243/243/243 254/254/254 255/255/255
f 243/243/243 255/255/255 244/244/244
f 245/245/245 256/256/256 257/257/257
f 245/245/245 257/257/257 246/246/246
f 246/246/246 257/257/257 258/258/258
f 246/246/246 258/258/258 247/247/247
f 247/247/247 258/258/258 259/259/259
f 247/247/247 259/259/259 248/248/248
f 248/248/248 259/259/259 260/260/260
f 248/248/248 260/260/260 249/249/249
f 249/249/249 260/260/260 261/261/261
f 249/249/249 261/261/261 250/250/250
f 250/250/250 261/261/261 262/262/262
f 250/250/250 262/262/262 251/251/251
f 251/251/251 262/262/262 263/263/263
f 251/251/251 263/263/263 252/252/252
f 252/252/252 263/263/263 264/264/264
f 252/252/252 264/264/264 253/253/253
f 253/253/253 264/264/264 265/265/265
f 253/253/253 265/265/265 254/254/254
f 254/254/254 265/265/265 266/266/266
f 254/254/254 266/266/266 255/255/255
f 256/256/256 267/267/267 268/268/268
f 256/256/256 268/268/268 257/257/257
f 257/257/257 268/268/268 269/269/269
f 257/257/257 269/269/269 258/258/258
f 258/258/258 269/269/269 270/270/270
f 258/258/258 270/270/270 259/259/259
f 259/259/259 270/270/270 271/271/271
f 259/259/259 271/271/271 260/260/260
f 260/260/260 271/271/271 272/272/272
f 260/260/260 272/272/272 261/261/261
f 261/261/261 272/272/272 273/273/273
f 261/261/261 273/273/273 262/262/262
f 262/262/262 273/273/273 274/274/274
f 262/262/262 274/274/274 263/263/263
f 263/263/263 274/274/274 275/275/275
f 263/263/263 275/275/275 264/264/264
f 264/264/264 275/275/275 276/276/276
f 264/264/264 276/276/276 265/265/265
f 265/265/265 276/276/276 277/277/277
f 265/265/265 277/277/277 266/266/266
f 267/267/267 278/278/278 279/279/279
f 267/267/267 279/279/279 268/268/268
f 268/268/268 279/279/279 280/280/280
f 268/268/268 280/280/280 269/269/269
f 269/269/269 280/280/280 281/281/281
f 269/269/269 281/281/281 270/270/270
f 270/270/270 281/281/281 282/282/282
f 270/270/270 282/282/282 271/271/271
f 271/271/271 282/282/282 283/283/283
f 271/271/271 283/283/283 272/272/272
f 272/272/272 283/283/283 284/284/284
f 272/272/272 284/284/284 273/273/273
f 273/273/273 284/284/284 285/285/285
f 273/273/273 285/285/285 274/274/274
f 274/274/274 285/285/285 286/286/286
f 274/274/274 286/286/286 275/275/275
f 275/275/275 286/286/286 287/287/287
f 275/275/275 287/287/287 276/276/276
f 276/276/276 287/287/287 288/288/288
f 276/276/276 288/288/288 277/277/277
f 278/278/278 289/289/289 290/290/290
f 278/278/278 290/290/290 279/279/279
f 279/279/279 290/290/290 291/291/291
f 279/279/279 291/291/291 280/280/280
f 280/280/280 291/291/291 292/292/292
f 280/280/280 292/292/292 281/281/281
f 281/281/281 292/292/292 293/293/293
f 281/281/281 293/293/293 282/282/282
f 282/282/282 293/293/293 294/294/294
f 282/282/282 294/294/294 283/283/283
f 283/283/283 294/294/294 295/295/295
f 283/283/283 295/295/295 284/284/284
f 284/284/284 295/295/295 296/296/296
f 284/284/284 296/296/296 285/285/285
f 285/285/285 296/296/296 297/297/297
f 285/285/285 297/297/297 286/286/286
f 286/286/286 297/297/297 298/298/298
f 286/286/286 298/298/298 287/287/287
f 287/287/287 298/298/298 299/299/299
f 287/287/287 299/299/299 288/288/288
f 300/300/300 289/289/289 290/290/290
f 300/300/300 290/290/290 291/291/291
f 300/300/300 291/291/291 292/292/292
f 300/300/300 292/292/292 293/293/293
f 300/300/300 293/293/293 294/294/294
f 300/300/300 294/294/294 295/295/295
f 300/300/300 295/295/295 296/296/296
f 300/300/300 296/296/296 297/297/297
f 300/300/300 297/297/297 298/298/298
f 300/300/300 298/298/298 299/299/299
f 301/301/301 303/303/303 302/302/302
f 301/301/301 304/304/304 303/303/303
f 305/305/305 306/306/306 307/307/307
f 305/305/305 307/307/307 308/308/308
f 301/301/301 302/302/302 306/306/306
f 301/301/301 306/306/306 305/305/305
f 303/303/303 304/304/304 308/308/308
f 303/303/303 308/308/308 307/307/307
f 301/301/301 305/305/305 308/308/308
f 301/301/301 308/308/308 304/304/304
f 302/302/302 303/303/303 307/307/307
f 302/302/302 307/307/307 306/306/306
f 309/309/309 311/311/311 310/310/310
f 309/309/309 312/312/312 311/311/311
f 313/313/313 314/314/314 315/315/315
f 313/313/313 315/315/315 316/316/316
f 309/309/309 310/310/310 314/314/314
f 309/309/309 314/314/314 313/313/313
f 311/311/311 312/312/312 316/316/316
f 311/311/311 316/316/316 315/315/315
f 309/309/309 313/313/313 316/316/316
f 309/309/309 316/316/316 312/312/312
f 310/310/310 311/311/311 315/315/315
f 310/310/310 315/315/315 314/314/314
f 317/317/317 319/319/319 318/318/318
f 317/317/317 320/320/320 319/319/319
f 321/321/321 322/322/322 323/323/323
f 321/321/321 323/323/323 324/324/324
f 317/317/317 318/318/318 322/322/322
f 317/317/317 322/322/322 321/321/321
f 319/319/319 320/320/320 324/324/324
f 319/319/319 324/324/324 323/323/323
f 317/317/317 321/321/321 324/324/324
f 317/317/317 324/324/324 320/320/320
f 318/318/318 319/319/319 323/323/323
f 318/318/318 323/323/323 322/322/322
f 325/325/325 332/332/332 333/333/333
f 325/325/325 333/333/333 326/326/326
f 326/326/326 333/333/333 334/334/334
f 326/326/326 334/334/334 327/327/327
f 327/327/327 334/334/334 335/335/335
f 327/327/327 335/335/335 328/328/328
f 328/328/328 335/335/335 336/336/336
f 328/328/328 336/336/336 329/329/329
f 329/329/329 336/336/336 337/337/337
f 329/329/329 337/337/337 330/330/330
f 330/330/330 337/337/337 338/338/338
f 330/330/330 338/338/338 331/331/331
f 332/332/332 339/339/339 340/340/340
f 332/332/332 340/340/340 333/333/333
f 333/333/333 340/340/340 341/341/341
f 333/333/333 341/341/341 334/334/334
f 334/334/334 341/341/341 342/342/342
f 334/334/334 342/342/342 335/335/335
f 335/335/335 342/342/342 343/343/343
f 335/335/335 343/343/343 336/336/336
f 336/336/336 343/343/343 344/344/344
f 336/336/336 344/344/344 337/337/337
f 337/337/337 344/344/344 345/345/345
f 337/337/337 345/345/345 338/338/338
f 339/339/339 346/346/346 347/347/347
f 339/339/339 347/347/347 340/340/340
f 340/340/340 347/347/347 348/348/348
f 340/340/340 348/348/348 341/341/341
f 341/341/341 348/348/348 349/349/349
f 341/341/341 349/349/349 342/342/342
f 342/342/342 349/349/349 350/350/350
f 342/342/342 350/350/350 343/343/343
f 343/343/343 350/350/350 351/351/351
f 343/343/343 351/351/351 344/344/344
f 344/344/344 351/351/351 352/352/352
f 344/344/344 352/352/352 345/345/345
f 346/346/346 353/353/353 354/354/354
f 346/346/346 354/354/354 347/347/347
f 347/347/347 354/354/354 355/355/355
f 347/347/347 355/355/355 348/348/348
f 348/348/348 355/355/355 356/356/356
f 348/348/348 356/356/356 349/349/349
f 349/349/349 356/356/356 357/357/357
f 349/349/349 357/357/357 350/350/350
f 350/350/350 357/357/357 358/358/358
f 350/350/350 358/358/358 351/351/351
f 351/351/351 358/358/358 359/359/359
f 351/351/351 359/359/359 352/352/352
f 353/353/353 360/360/360 361/361/361
f 353/353/353 361/361/361 354/354/354
f 354/354/354 361/361/361 362/362/362
f 354/354/354 362/362/362 355/355/355
f 355/355/355 362/362/362 363/363/363
f 355/355/355 363/363/363 356/356/356
f 356/356/356 363/363/363 364/364/364
f 356/356/356 364/364/364 357/357/357
f 357/357/357 364/364/364 365/365/365
f 357/357/357 365/365/365 358/358/358
f 358/358/358 365/365/365 366/366/366
f 358/358/358 366/366/366 359/359/359
f 360/360/360 367/367/367 368/368/368
f 360/360/360 368/368/368 361/361/361
f 361/361/361 368/368/368 369/369/369
f 361/361/361 369/369/369 362/362/362
f 362/362/362 369/369/369 370/370/370
f 362/362/362 370/370/370 363/363/363
f 363/363/363 370/370/370 371/371/371
f 363/363/363 371/371/371 364/364/364
f 364/364/364 371/371/371 372/372/372
f 364/364/364 372/372/372 365/365/365
f 365/365/365 372/372/372 373/373/373
f 365/365/365 373/373/373 366/366/366
f 367/367/367 374/374/374 375/375/375
f 367/367/367 375/375/375 368/368/368
f 368/368/368 375/375/375 376/376/376
f 368/368/368 376/376/376 369/369/369
f 369/369/369 376/376/376 377/377/377
f 369/369/369 377/377/377 370/370/370
f 370/370/370 377/377/377 378/378/378
f 370/370/370 378/378/378 371/371/371
f 371/371/371 378/378/378 379/379/379
f 371/371/371 379/379/379 372/372/372
f 372/372/372 379/379/379 380/380/380
f 372/372/372 380/380/380 373/373/373
f 374/374/374 381/381/381 382/382/382
f 374/374/374 382/382/382 375/375/375
f 375/375/375 382/382/382 383/383/383
f 375/375/375 383/383/383 376/376/376
f 376/376/376 383/383/383 384/384/384
f 376/376/376 384/384/384 377/377/377
f 377/377/377 384/384/384 385/385/385
f 377/377/377 385/385/385 378/378/378
f 378/378/378 385/385/385 386/386/386
f 378/378/378 386/386/386 379/379/379
f 379/379/379 386/386/386 387/387/387
f 379/379/379 387/387/387 380/380/380
f 381/381/381 388/388/388 389/389/389
f 381/381/381 389/389/389 382/382/382
f 382/382/382 389/389/389 390/390/390
f 382/382/382 390/390/390 383/383/383
f 383/383/383 390/390/390 391/391/391
f 383/383/383 391/391/391 384/384/384
f 384/384/384 391/391/391 392/392/392
f 384/384/384 392/392/392 385/385/385
f 385/385/385 392/392/392 393/393/393
f 385/385/385 393/393/393 386/386/386
f 386/386/386 393/393/393 394/394/394
f 386/386/386 394/394/394 387/387/387
f 388/388/388 395/395/395 396/396/396
f 388/388/388 396/396/396 389/389/389
f 389/389/389 396/396/396 397/397/397
f 389/389/389 397/397/397 390/390/390
f 390/390/390 397/397/397 398/398/398
f 390/390/390 398/398/398 391/391/391
f 391/391/391 398/398/398 399/399/399
f 391/391/391 399/399/399 392/392/392
f 392/392/392 399/399/399 400/400/400
f 392/392/392 400/400/400 393/393/393
f 393/393/393 400/400/400 401/401/401
f 393/393/393 401/401/401 394/394/394
f 402/402/402 409/409/409 410/410/410
f 402/402/402 410/410/410 403/403/403
f 403/403/403 410/410/410 411/411/411
f 403/403/403 411/411/411 404/404/404
f 404/404/404 411/411/411 412/412/412
f 404/404/404 412/412/412 405/405/405
f 405/405/405 412/412/412 413/413/413
f 405/405/405 413/413/413 406/406/406
f 406/406/406 413/413/413 414/414/414
f 406/406/406 414/414/414 407/407/407
f 407/407/407 414/414/414 415/415/415
f 407/407/407 415/415/415 408/408/408
f 409/409/409 416/416/416 417/417/417
f 409/409/409 417/417/417 410/410/410
f 410/410/410 417/417/417 418/418/418
f 410/410/410 418/418/418 411/411/411
f 411/411/411 418/418/418 419/419/419
f 411/411/411 419/419/419 412/412/412
f 412/412/412 419/419/419 420/420/420
f 412/412/412 420/420/420 413/413/413
f 413/413/413 420/420/420 421/421/421
f 413/413/413 421/421/421 414/414/414
f 414/414/414 421/421/421 422/422/422
f 414/414/414 422/422/422 415/415/415
f 416/416/416 423/423/423 424/424/424
f 416/416/416 424/424/424 417/417/417
f 417/417/417 424/424/424 425/425/425
f 417/417/417 425/425/425 418/418/418
f 418/418/418 425/425/425 426/426/426
f 418/418/418 426/426/426 419/419/419
f 419/419/419 426/426/426 427/427/427
f 419/419/419 427/427/427 420/420/420
f 420/420/420 427/427/427 428/428/428
f 420/420/420 428/428/428 421/421/421
f 421/421/421 428/428/428 429/429/429
f 421/421/421 429/429/429 422/422/422
f 423/423/423 430/430/430 431/431/431
f 423/423/423 431/431/431 424/424/424
f 424/424/424 431/431/431 432/432/432
f 424/424/424 432/432/432 425/425/425
f 425/425/425 432/432/432 433/433/433
f 425/425/425 433/433/433 426/426/426
f 426/426/426 433/433/433 434/434/434
f 426/426/426 434/434/434 427/427/427
f 427/427/427 434/434/434 435/435/435
f 427/427/427 435/435/435 428/428/428
f 428/428/428 435/435/435 436/436/436
f 428/428/428 436/436/436 429/429/429
f 430/430/430 437/437/437 438/438/438
f 430/430/430 438/438/438 431/431/431
f 431/431/431 438/438/438 439/439/439
f 431/431/431 439/439/439 432/432/432
f 432/432/432 439/439/439 440/440/440
f 432/432/432 440/440/440 433/433/433
f 433/433/433 440/440/440 441/441/441
f 433/433/433 441/441/441 434/434/434
f 434/434/434 441/441/441 442/442/442
f 434/434/434 442/442/442 435/435/435
f 435/435/435 442/442/442 443/443/443
f 435/435/435 443/443/443 436/436/436
f 437/437/437 444/444/444 445/445/445
f 437/437/437 445/445/445 438/438/438
f 438/438/438 445/445/445 446/446/446
f 438/438/438 446/446/446 439/439/439
f 439/439/439 446/446/446 447/447/447
f 439/439/439 447/447/447 440/440/440
f 440/440/440 447/447/447 448/448/448
f 440/440/440 448/448/448 441/441/441
f 441/441/441 448/448/448 449/449/449
f 441/441/441 449/449/449 442/442/442
f 442/442/442 449/449/449 450/450/450
f 442/442/442 450/450/450 443/443/443
f 444/444/444 451/451/451 452/452/452
f 444/444/444 452/452/452 445/445/445
f 445/445/445 452/452/452 453/453/453
f 445/445/445 453/453/453 446/446/446
f 446/446/446 453/453/453 454/454/454
f 446/446/446 454/454/454 447/447/447
f 447/447/447 454/454/454 455/455/455
f 447/447/447 455/455/455 448/448/448
f 448/448/448 455/455/455 456/456/456
f 448/448/448 456/456/456 449/449/449
f 449/449/449 456/456/456 457/457/457
f 449/449/449 457/457/457 450/450/450
f 451/451/451 458/458/458 459/459/459
f 451/451/451 459/459/459 452/452/452
f 452/452/452 459/459/459 460/460/460
f 452/452/452 460/460/460 453/453/453
f 453/453/453 460/460/460 461/461/461
f 453/453/453 461/461/461 454/454/454
f 454/454/454 461/461/461 462/462/462
f 454/454/454 462/462/462 455/455/455
f 455/455/455 462/462/462 463/463/463
f 455/455/455 463/463/463 456/456/456
f 456/456/456 463/463/463 464/464/464
f 456/456/456 464/464/464 457/457/457
f 458/458/458 465/465/465 466/466/466
f 458/458/458 466/466/466 459/459/459
f 459/459/459 466/466/466 467/467/467
f 459/459/459 467/467/467 460/460/460
f 460/460/460 467/467/467 468/468/468
f 460/460/460 468/468/468 461/461/461
f 461/461/461 468/468/468 469/469/469
f 461/461/461 469/469/469 462/462/462
f 462/462/462 469/469/469 470/470/470
f 462/462/462 470/470/470 463/463/463
f 463/463/463 470/470/470 471/471/471
f 463/463/463 471/471/471 464/464/464
f 465/465/465 472/472/472 473/473/473
f 465/465/465 473/473/473 466/466/466
f 466/466/466 473/473/473 474/474/474
f 466/466/466 474/474/474 467/467/467
f 467/467/467 474/474/474 475/475/475
f 467/467/467 475/475/475 468/468/468
f 468/468/468 475/475/475 476/476/476
f 468/468/468 476/476/476 469/469/469
f 469/469/469 476/476/476 477/477/477
f 469/469/469 477/477/477 470/470/470
f 470/470/470 477/477/477 478/478/478
f 470/470/470 478/478/478 471/471/471