# 3D Model: tree/sp_baobab/ov_3ccffb3c-85b3-4937-aca8-4e158951ba67 (v6 Gemini)
# Style: engraving_style_oak_tree | Symmetry: asymmetric
# Dimensions: 6.6 x 4.3 x 4.829 m
# Triangles: 896 | Vertices: 547
v 0.7 0 0
v 0.6062 0 0.35
v 0.35 0 0.6062
v 0 0 0.7
v -0.35 0 0.6062
v -0.6062 0 0.35
v -0.7 0 0
v -0.6062 0 -0.35
v -0.35 0 -0.6062
v 0 0 -0.7
v 0.35 0 -0.6062
v 0.6062 0 -0.35
v 0.4 1.5 0
v 0.3464 1.5 0.2
v 0.2 1.5 0.3464
v 0 1.5 0.4
v -0.2 1.5 0.3464
v -0.3464 1.5 0.2
v -0.4 1.5 0
v -0.3464 1.5 -0.2
v -0.2 1.5 -0.3464
v 0 1.5 -0.4
v 0.2 1.5 -0.3464
v 0.3464 1.5 -0.2
v 0 0 0
v 0 1.5 0
v 1.2 0 0
v 1.0392 0 0.6
v 0.6 0 1.0392
v 0 0 1.2
v -0.6 0 1.0392
v -1.0392 0 0.6
v -1.2 0 0
v -1.0392 0 -0.6
v -0.6 0 -1.0392
v 0 0 -1.2
v 0.6 0 -1.0392
v 1.0392 0 -0.6
v 0.7 0.3 0
v 0.6062 0.3 0.35
v 0.35 0.3 0.6062
v 0 0.3 0.7
v -0.35 0.3 0.6062
v -0.6062 0.3 0.35
v -0.7 0.3 0
v -0.6062 0.3 -0.35
v -0.35 0.3 -0.6062
v 0 0.3 -0.7
v 0.35 0.3 -0.6062
v 0.6062 0.3 -0.35
v 0 0 0
v 0 0.3 0
v 0 4.3 0
v 0 4.3 0
v 0 4.3 0
v 0 4.3 0
v 0 4.3 0
v 0 4.3 0
v 0 4.3 0
v 0 4.3 0
v 0 4.3 0
v 0 4.3 0
v 0 4.3 0
v 0.9567 4.163 0
v 0.774 4.163 0.5623
v 0.2956 4.163 0.9099
v -0.2956 4.163 0.9099
v -0.774 4.163 0.5623
v -0.9567 4.163 0
v -0.774 4.163 -0.5623
v -0.2956 4.163 -0.9099
v 0.2956 4.163 -0.9099
v 0.774 4.163 -0.5623
v 0.9567 4.163 0
v 1.7678 3.7728 0
v 1.4302 3.7728 1.0391
v 0.5463 3.7728 1.6812
v -0.5463 3.7728 1.6812
v -1.4302 3.7728 1.0391
v -1.7678 3.7728 0
v -1.4302 3.7728 -1.0391
v -0.5463 3.7728 -1.6812
v 0.5463 3.7728 -1.6812
v 1.4302 3.7728 -1.0391
v 1.7678 3.7728 0
v 2.3097 3.1888 0
v 1.8686 3.1888 1.3576
v 0.7137 3.1888 2.1967
v -0.7137 3.1888 2.1967
v -1.8686 3.1888 1.3576
v -2.3097 3.1888 0
v -1.8686 3.1888 -1.3576
v -0.7137 3.1888 -2.1967
v 0.7137 3.1888 -2.1967
v 1.8686 3.1888 -1.3576
v 2.3097 3.1888 0
v 2.5 2.5 0
v 2.0225 2.5 1.4695
v 0.7725 2.5 2.3776
v -0.7725 2.5 2.3776
v -2.0225 2.5 1.4695
v -2.5 2.5 0
v -2.0225 2.5 -1.4695
v -0.7725 2.5 -2.3776
v 0.7725 2.5 -2.3776
v 2.0225 2.5 -1.4695
v 2.5 2.5 0
v 2.3097 1.8112 0
v 1.8686 1.8112 1.3576
v 0.7137 1.8112 2.1967
v -0.7137 1.8112 2.1967
v -1.8686 1.8112 1.3576
v -2.3097 1.8112 0
v -1.8686 1.8112 -1.3576
v -0.7137 1.8112 -2.1967
v 0.7137 1.8112 -2.1967
v 1.8686 1.8112 -1.3576
v 2.3097 1.8112 0
v 1.7678 1.2272 0
v 1.4302 1.2272 1.0391
v 0.5463 1.2272 1.6812
v -0.5463 1.2272 1.6812
v -1.4302 1.2272 1.0391
v -1.7678 1.2272 0
v -1.4302 1.2272 -1.0391
v -0.5463 1.2272 -1.6812
v 0.5463 1.2272 -1.6812
v 1.4302 1.2272 -1.0391
v 1.7678 1.2272 0
v 0.9567 0.837 0
v 0.774 0.837 0.5623
v 0.2956 0.837 0.9099
v -0.2956 0.837 0.9099
v -0.774 0.837 0.5623
v -0.9567 0.837 0
v -0.774 0.837 -0.5623
v -0.2956 0.837 -0.9099
v 0.2956 0.837 -0.9099
v 0.774 0.837 -0.5623
v 0.9567 0.837 0
v 0 0.7 0
v 0 0.7 0
v 0 0.7 0
v 0 0.7 0
v 0 0.7 0
v 0 0.7 0
v 0 0.7 0
v 0 0.7 0
v 0 0.7 0
v 0 0.7 0
v 0 0.7 0
v -1.8 3.4 0
v -1.8 3.4 0
v -1.8 3.4 0
v -1.8 3.4 0
v -1.8 3.4 0
v -1.8 3.4 0
v -1.8 3.4 0
v -1.8 3.4 0
v -1.8 3.4 0
v -1.8 3.4 0
v -1.8 3.4 0
v -1.226 3.3087 0
v -1.3356 3.3087 0.3374
v -1.6226 3.3087 0.5459
v -1.9774 3.3087 0.5459
v -2.2644 3.3087 0.3374
v -2.374 3.3087 0
v -2.2644 3.3087 -0.3374
v -1.9774 3.3087 -0.5459
v -1.6226 3.3087 -0.5459
v -1.3356 3.3087 -0.3374
v -1.226 3.3087 0
v -0.7393 3.0485 0
v -0.9419 3.0485 0.6234
v -1.4722 3.0485 1.0087
v -2.1278 3.0485 1.0087
v -2.6581 3.0485 0.6234
v -2.8607 3.0485 0
v -2.6581 3.0485 -0.6234
v -2.1278 3.0485 -1.0087
v -1.4722 3.0485 -1.0087
v -0.9419 3.0485 -0.6234
v -0.7393 3.0485 0
v -0.4142 2.6592 0
v -0.6788 2.6592 0.8146
v -1.3718 2.6592 1.318
v -2.2282 2.6592 1.318
v -2.9212 2.6592 0.8146
v -3.1858 2.6592 0
v -2.9212 2.6592 -0.8146
v -2.2282 2.6592 -1.318
v -1.3718 2.6592 -1.318
v -0.6788 2.6592 -0.8146
v -0.4142 2.6592 0
v -0.3 2.2 0
v -0.5865 2.2 0.8817
v -1.3365 2.2 1.4266
v -2.2635 2.2 1.4266
v -3.0135 2.2 0.8817
v -3.3 2.2 0
v -3.0135 2.2 -0.8817
v -2.2635 2.2 -1.4266
v -1.3365 2.2 -1.4266
v -0.5865 2.2 -0.8817
v -0.3 2.2 0
v -0.4142 1.7408 0
v -0.6788 1.7408 0.8146
v -1.3718 1.7408 1.318
v -2.2282 1.7408 1.318
v -2.9212 1.7408 0.8146
v -3.1858 1.7408 0
v -2.9212 1.7408 -0.8146
v -2.2282 1.7408 -1.318
v -1.3718 1.7408 -1.318
v -0.6788 1.7408 -0.8146
v -0.4142 1.7408 0
v -0.7393 1.3515 0
v -0.9419 1.3515 0.6234
v -1.4722 1.3515 1.0087
v -2.1278 1.3515 1.0087
v -2.6581 1.3515 0.6234
v -2.8607 1.3515 0
v -2.6581 1.3515 -0.6234
v -2.1278 1.3515 -1.0087
v -1.4722 1.3515 -1.0087
v -0.9419 1.3515 -0.6234
v -0.7393 1.3515 0
v -1.226 1.0913 0
v -1.3356 1.0913 0.3374
v -1.6226 1.0913 0.5459
v -1.9774 1.0913 0.5459
v -2.2644 1.0913 0.3374
v -2.374 1.0913 0
v -2.2644 1.0913 -0.3374
v -1.9774 1.0913 -0.5459
v -1.6226 1.0913 -0.5459
v -1.3356 1.0913 -0.3374
v -1.226 1.0913 0
v -1.8 1 0
v -1.8 1 0
v -1.8 1 0
v -1.8 1 0
v -1.8 1 0
v -1.8 1 0
v -1.8 1 0
v -1.8 1 0
v -1.8 1 0
v -1.8 1 0
v -1.8 1 0
v 1.8 3.4 0
v 1.8 3.4 0
v 1.8 3.4 0
v 1.8 3.4 0
v 1.8 3.4 0
v 1.8 3.4 0
v 1.8 3.4 0
v 1.8 3.4 0
v 1.8 3.4 0
v 1.8 3.4 0
v 1.8 3.4 0
v 2.374 3.3087 0
v 2.2644 3.3087 0.3374
v 1.9774 3.3087 0.5459
v 1.6226 3.3087 0.5459
v 1.3356 3.3087 0.3374
v 1.226 3.3087 0
v 1.3356 3.3087 -0.3374
v 1.6226 3.3087 -0.5459
v 1.9774 3.3087 -0.5459
v 2.2644 3.3087 -0.3374
v 2.374 3.3087 0
v 2.8607 3.0485 0
v 2.6581 3.0485 0.6234
v 2.1278 3.0485 1.0087
v 1.4722 3.0485 1.0087
v 0.9419 3.0485 0.6234
v 0.7393 3.0485 0
v 0.9419 3.0485 -0.6234
v 1.4722 3.0485 -1.0087
v 2.1278 3.0485 -1.0087
v 2.6581 3.0485 -0.6234
v 2.8607 3.0485 0
v 3.1858 2.6592 0
v 2.9212 2.6592 0.8146
v 2.2282 2.6592 1.318
v 1.3718 2.6592 1.318
v 0.6788 2.6592 0.8146
v 0.4142 2.6592 0
v 0.6788 2.6592 -0.8146
v 1.3718 2.6592 -1.318
v 2.2282 2.6592 -1.318
v 2.9212 2.6592 -0.8146
v 3.1858 2.6592 0
v 3.3 2.2 0
v 3.0135 2.2 0.8817
v 2.2635 2.2 1.4266
v 1.3365 2.2 1.4266
v 0.5865 2.2 0.8817
v 0.3 2.2 0
v 0.5865 2.2 -0.8817
v 1.3365 2.2 -1.4266
v 2.2635 2.2 -1.4266
v 3.0135 2.2 -0.8817
v 3.3 2.2 0
v 3.1858 1.7408 0
v 2.9212 1.7408 0.8146
v 2.2282 1.7408 1.318
v 1.3718 1.7408 1.318
v 0.6788 1.7408 0.8146
v 0.4142 1.7408 0
v 0.6788 1.7408 -0.8146
v 1.3718 1.7408 -1.318
v 2.2282 1.7408 -1.318
v 2.9212 1.7408 -0.8146
v 3.1858 1.7408 0
v 2.8607 1.3515 0
v 2.6581 1.3515 0.6234
v 2.1278 1.3515 1.0087
v 1.4722 1.3515 1.0087
v 0.9419 1.3515 0.6234
v 0.7393 1.3515 0
v 0.9419 1.3515 -0.6234
v 1.4722 1.3515 -1.0087
v 2.1278 1.3515 -1.0087
v 2.6581 1.3515 -0.6234
v 2.8607 1.3515 0
v 2.374 1.0913 0
v 2.2644 1.0913 0.3374
v 1.9774 1.0913 0.5459
v 1.6226 1.0913 0.5459
v 1.3356 1.0913 0.3374
v 1.226 1.0913 0
v 1.3356 1.0913 -0.3374
v 1.6226 1.0913 -0.5459
v 1.9774 1.0913 -0.5459
v 2.2644 1.0913 -0.3374
v 2.374 1.0913 0
v 1.8 1 0
v 1.8 1 0
v 1.8 1 0
v 1.8 1 0
v 1.8 1 0
v 1.8 1 0
v 1.8 1 0
v 1.8 1 0
v 1.8 1 0
v 1.8 1 0
v 1.8 1 0
v 0 4.2 0
v 0 4.2 0
v 0 4.2 0
v 0 4.2 0
v 0 4.2 0
v 0 4.2 0
v 0 4.2 0
v 0 4.2 0
v 0 4.2 0
v 0 4.2 0
v 0 4.2 0
v 0.4592 4.1239 0
v 0.3715 4.1239 0.2699
v 0.1419 4.1239 0.4367
v -0.1419 4.1239 0.4367
v -0.3715 4.1239 0.2699
v -0.4592 4.1239 0
v -0.3715 4.1239 -0.2699
v -0.1419 4.1239 -0.4367
v 0.1419 4.1239 -0.4367
v 0.3715 4.1239 -0.2699
v 0.4592 4.1239 0
v 0.8485 3.9071 0
v 0.6865 3.9071 0.4988
v 0.2622 3.9071 0.807
v -0.2622 3.9071 0.807
v -0.6865 3.9071 0.4988
v -0.8485 3.9071 0
v -0.6865 3.9071 -0.4988
v -0.2622 3.9071 -0.807
v 0.2622 3.9071 -0.807
v 0.6865 3.9071 -0.4988
v 0.8485 3.9071 0
v 1.1087 3.5827 0
v 0.8969 3.5827 0.6517
v 0.3426 3.5827 1.0544
v -0.3426 3.5827 1.0544
v -0.8969 3.5827 0.6517
v -1.1087 3.5827 0
v -0.8969 3.5827 -0.6517
v -0.3426 3.5827 -1.0544
v 0.3426 3.5827 -1.0544
v 0.8969 3.5827 -0.6517
v 1.1087 3.5827 0
v 1.2 3.2 0
v 0.9708 3.2 0.7053
v 0.3708 3.2 1.1413
v -0.3708 3.2 1.1413
v -0.9708 3.2 0.7053
v -1.2 3.2 0
v -0.9708 3.2 -0.7053
v -0.3708 3.2 -1.1413
v 0.3708 3.2 -1.1413
v 0.9708 3.2 -0.7053
v 1.2 3.2 0
v 1.1087 2.8173 0
v 0.8969 2.8173 0.6517
v 0.3426 2.8173 1.0544
v -0.3426 2.8173 1.0544
v -0.8969 2.8173 0.6517
v -1.1087 2.8173 0
v -0.8969 2.8173 -0.6517
v -0.3426 2.8173 -1.0544
v 0.3426 2.8173 -1.0544
v 0.8969 2.8173 -0.6517
v 1.1087 2.8173 0
v 0.8485 2.4929 0
v 0.6865 2.4929 0.4988
v 0.2622 2.4929 0.807
v -0.2622 2.4929 0.807
v -0.6865 2.4929 0.4988
v -0.8485 2.4929 0
v -0.6865 2.4929 -0.4988
v -0.2622 2.4929 -0.807
v 0.2622 2.4929 -0.807
v 0.6865 2.4929 -0.4988
v 0.8485 2.4929 0
v 0.4592 2.2761 0
v 0.3715 2.2761 0.2699
v 0.1419 2.2761 0.4367
v -0.1419 2.2761 0.4367
v -0.3715 2.2761 0.2699
v -0.4592 2.2761 0
v -0.3715 2.2761 -0.2699
v -0.1419 2.2761 -0.4367
v 0.1419 2.2761 -0.4367
v 0.3715 2.2761 -0.2699
v 0.4592 2.2761 0
v 0 2.2 0
v 0 2.2 0
v 0 2.2 0
v 0 2.2 0
v 0 2.2 0
v 0 2.2 0
v 0 2.2 0
v 0 2.2 0
v 0 2.2 0
v 0 2.2 0
v 0 2.2 0
v 0.5 2.6 1.5
v 0.5 2.6 1.5
v 0.5 2.6 1.5
v 0.5 2.6 1.5
v 0.5 2.6 1.5
v 0.5 2.6 1.5
v 0.5 2.6 1.5
v 0.5 2.6 1.5
v 0.5 2.6 1.5
v 0.5 2.6 1.5
v 0.5 2.6 1.5
v 0.8827 2.5391 1.5
v 0.8096 2.5391 1.7249
v 0.6183 2.5391 1.864
v 0.3817 2.5391 1.864
v 0.1904 2.5391 1.7249
v 0.1173 2.5391 1.5
v 0.1904 2.5391 1.2751
v 0.3817 2.5391 1.136
v 0.6183 2.5391 1.136
v 0.8096 2.5391 1.2751
v 0.8827 2.5391 1.5
v 1.2071 2.3657 1.5
v 1.0721 2.3657 1.9156
v 0.7185 2.3657 2.1725
v 0.2815 2.3657 2.1725
v -0.0721 2.3657 1.9156
v -0.2071 2.3657 1.5
v -0.0721 2.3657 1.0844
v 0.2815 2.3657 0.8275
v 0.7185 2.3657 0.8275
v 1.0721 2.3657 1.0844
v 1.2071 2.3657 1.5
v 1.4239 2.1061 1.5
v 1.2474 2.1061 2.043
v 0.7855 2.1061 2.3787
v 0.2145 2.1061 2.3787
v -0.2474 2.1061 2.043
v -0.4239 2.1061 1.5
v -0.2474 2.1061 0.957
v 0.2145 2.1061 0.6213
v 0.7855 2.1061 0.6213
v 1.2474 2.1061 0.957
v 1.4239 2.1061 1.5
v 1.5 1.8 1.5
v 1.309 1.8 2.0878
v 0.809 1.8 2.4511
v 0.191 1.8 2.4511
v -0.309 1.8 2.0878
v -0.5 1.8 1.5
v -0.309 1.8 0.9122
v 0.191 1.8 0.5489
v 0.809 1.8 0.5489
v 1.309 1.8 0.9122
v 1.5 1.8 1.5
v 1.4239 1.4939 1.5
v 1.2474 1.4939 2.043
v 0.7855 1.4939 2.3787
v 0.2145 1.4939 2.3787
v -0.2474 1.4939 2.043
v -0.4239 1.4939 1.5
v -0.2474 1.4939 0.957
v 0.2145 1.4939 0.6213
v 0.7855 1.4939 0.6213
v 1.2474 1.4939 0.957
v 1.4239 1.4939 1.5
v 1.2071 1.2343 1.5
v 1.0721 1.2343 1.9156
v 0.7185 1.2343 2.1725
v 0.2815 1.2343 2.1725
v -0.0721 1.2343 1.9156
v -0.2071 1.2343 1.5
v -0.0721 1.2343 1.0844
v 0.2815 1.2343 0.8275
v 0.7185 1.2343 0.8275
v 1.0721 1.2343 1.0844
v 1.2071 1.2343 1.5
v 0.8827 1.0609 1.5
v 0.8096 1.0609 1.7249
v 0.6183 1.0609 1.864
v 0.3817 1.0609 1.864
v 0.1904 1.0609 1.7249
v 0.1173 1.0609 1.5
v 0.1904 1.0609 1.2751
v 0.3817 1.0609 1.136
v 0.6183 1.0609 1.136
v 0.8096 1.0609 1.2751
v 0.8827 1.0609 1.5
v 0.5 1 1.5
v 0.5 1 1.5
v 0.5 1 1.5
v 0.5 1 1.5
v 0.5 1 1.5
v 0.5 1 1.5
v 0.5 1 1.5
v 0.5 1 1.5
v 0.5 1 1.5
v 0.5 1 1.5
v 0.5 1 1.5
vt 0 0
vt 0.08333333333333333 0
vt 0.16666666666666666 0
vt 0.25 0
vt 0.3333333333333333 0
vt 0.4166666666666667 0
vt 0.5 0
vt 0.5833333333333334 0
vt 0.6666666666666666 0
vt 0.75 0
vt 0.8333333333333334 0
vt 0.9166666666666666 0
vt 0 1
vt 0.08333333333333333 1
vt 0.16666666666666666 1
vt 0.25 1
vt 0.3333333333333333 1
vt 0.4166666666666667 1
vt 0.5 1
vt 0.5833333333333334 1
vt 0.6666666666666666 1
vt 0.75 1
vt 0.8333333333333334 1
vt 0.9166666666666666 1
vt 0.5 0.5
vt 0.5 0.5
vt 0 0
vt 0.08333333333333333 0
vt 0.16666666666666666 0
vt 0.25 0
vt 0.3333333333333333 0
vt 0.4166666666666667 0
vt 0.5 0
vt 0.5833333333333334 0
vt 0.6666666666666666 0
vt 0.75 0
vt 0.8333333333333334 0
vt 0.9166666666666666 0
vt 0 1
vt 0.08333333333333333 1
vt 0.16666666666666666 1
vt 0.25 1
vt 0.3333333333333333 1
vt 0.4166666666666667 1
vt 0.5 1
vt 0.5833333333333334 1
vt 0.6666666666666666 1
vt 0.75 1
vt 0.8333333333333334 1
vt 0.9166666666666666 1
vt 0.5 0.5
vt 0.5 0.5
vt 0 0
vt 0.1 0
vt 0.2 0
vt 0.3 0
vt 0.4 0
vt 0.5 0
vt 0.6 0
vt 0.7 0
vt 0.8 0
vt 0.9 0
vt 1 0
vt 0 0.125
vt 0.1 0.125
vt 0.2 0.125
vt 0.3 0.125
vt 0.4 0.125
vt 0.5 0.125
vt 0.6 0.125
vt 0.7 0.125
vt 0.8 0.125
vt 0.9 0.125
vt 1 0.125
vt 0 0.25
vt 0.1 0.25
vt 0.2 0.25
vt 0.3 0.25
vt 0.4 0.25
vt 0.5 0.25
vt 0.6 0.25
vt 0.7 0.25
vt 0.8 0.25
vt 0.9 0.25
vt 1 0.25
vt 0 0.375
vt 0.1 0.375
vt 0.2 0.375
vt 0.3 0.375
vt 0.4 0.375
vt 0.5 0.375
vt 0.6 0.375
vt 0.7 0.375
vt 0.8 0.375
vt 0.9 0.375
vt 1 0.375
vt 0 0.5
vt 0.1 0.5
vt 0.2 0.5
vt 0.3 0.5
vt 0.4 0.5
vt 0.5 0.5
vt 0.6 0.5
vt 0.7 0.5
vt 0.8 0.5
vt 0.9 0.5
vt 1 0.5
vt 0 0.625
vt 0.1 0.625
vt 0.2 0.625
vt 0.3 0.625
vt 0.4 0.625
vt 0.5 0.625
vt 0.6 0.625
vt 0.7 0.625
vt 0.8 0.625
vt 0.9 0.625
vt 1 0.625
vt 0 0.75
vt 0.1 0.75
vt 0.2 0.75
vt 0.3 0.75
vt 0.4 0.75
vt 0.5 0.75
vt 0.6 0.75
vt 0.7 0.75
vt 0.8 0.75
vt 0.9 0.75
vt 1 0.75
vt 0 0.875
vt 0.1 0.875
vt 0.2 0.875
vt 0.3 0.875
vt 0.4 0.875
vt 0.5 0.875
vt 0.6 0.875
vt 0.7 0.875
vt 0.8 0.875
vt 0.9 0.875
vt 1 0.875
vt 0 1
vt 0.1 1
vt 0.2 1
vt 0.3 1
vt 0.4 1
vt 0.5 1
vt 0.6 1
vt 0.7 1
vt 0.8 1
vt 0.9 1
vt 1 1
vt 0 0
vt 0.1 0
vt 0.2 0
vt 0.3 0
vt 0.4 0
vt 0.5 0
vt 0.6 0
vt 0.7 0
vt 0.8 0
vt 0.9 0
vt 1 0
vt 0 0.125
vt 0.1 0.125
vt 0.2 0.125
vt 0.3 0.125
vt 0.4 0.125
vt 0.5 0.125
vt 0.6 0.125
vt 0.7 0.125
vt 0.8 0.125
vt 0.9 0.125
vt 1 0.125
vt 0 0.25
vt 0.1 0.25
vt 0.2 0.25
vt 0.3 0.25
vt 0.4 0.25
vt 0.5 0.25
vt 0.6 0.25
vt 0.7 0.25
vt 0.8 0.25
vt 0.9 0.25
vt 1 0.25
vt 0 0.375
vt 0.1 0.375
vt 0.2 0.375
vt 0.3 0.375
vt 0.4 0.375
vt 0.5 0.375
vt 0.6 0.375
vt 0.7 0.375
vt 0.8 0.375
vt 0.9 0.375
vt 1 0.375
vt 0 0.5
vt 0.1 0.5
vt 0.2 0.5
vt 0.3 0.5
vt 0.4 0.5
vt 0.5 0.5
vt 0.6 0.5
vt 0.7 0.5
vt 0.8 0.5
vt 0.9 0.5
vt 1 0.5
vt 0 0.625
vt 0.1 0.625
vt 0.2 0.625
vt 0.3 0.625
vt 0.4 0.625
vt 0.5 0.625
vt 0.6 0.625
vt 0.7 0.625
vt 0.8 0.625
vt 0.9 0.625
vt 1 0.625
vt 0 0.75
vt 0.1 0.75
vt 0.2 0.75
vt 0.3 0.75
vt 0.4 0.75
vt 0.5 0.75
vt 0.6 0.75
vt 0.7 0.75
vt 0.8 0.75
vt 0.9 0.75
vt 1 0.75
vt 0 0.875
vt 0.1 0.875
vt 0.2 0.875
vt 0.3 0.875
vt 0.4 0.875
vt 0.5 0.875
vt 0.6 0.875
vt 0.7 0.875
vt 0.8 0.875
vt 0.9 0.875
vt 1 0.875
vt 0 1
vt 0.1 1
vt 0.2 1
vt 0.3 1
vt 0.4 1
vt 0.5 1
vt 0.6 1
vt 0.7 1
vt 0.8 1
vt 0.9 1
vt 1 1
vt 0 0
vt 0.1 0
vt 0.2 0
vt 0.3 0
vt 0.4 0
vt 0.5 0
vt 0.6 0
vt 0.7 0
vt 0.8 0
vt 0.9 0
vt 1 0
vt 0 0.125
vt 0.1 0.125
vt 0.2 0.125
vt 0.3 0.125
vt 0.4 0.125
vt 0.5 0.125
vt 0.6 0.125
vt 0.7 0.125
vt 0.8 0.125
vt 0.9 0.125
vt 1 0.125
vt 0 0.25
vt 0.1 0.25
vt 0.2 0.25
vt 0.3 0.25
vt 0.4 0.25
vt 0.5 0.25
vt 0.6 0.25
vt 0.7 0.25
vt 0.8 0.25
vt 0.9 0.25
vt 1 0.25
vt 0 0.375
vt 0.1 0.375
vt 0.2 0.375
vt 0.3 0.375
vt 0.4 0.375
vt 0.5 0.375
vt 0.6 0.375
vt 0.7 0.375
vt 0.8 0.375
vt 0.9 0.375
vt 1 0.375
vt 0 0.5
vt 0.1 0.5
vt 0.2 0.5
vt 0.3 0.5
vt 0.4 0.5
vt 0.5 0.5
vt 0.6 0.5
vt 0.7 0.5
vt 0.8 0.5
vt 0.9 0.5
vt 1 0.5
vt 0 0.625
vt 0.1 0.625
vt 0.2 0.625
vt 0.3 0.625
vt 0.4 0.625
vt 0.5 0.625
vt 0.6 0.625
vt 0.7 0.625
vt 0.8 0.625
vt 0.9 0.625
vt 1 0.625
vt 0 0.75
vt 0.1 0.75
vt 0.2 0.75
vt 0.3 0.75
vt 0.4 0.75
vt 0.5 0.75
vt 0.6 0.75
vt 0.7 0.75
vt 0.8 0.75
vt 0.9 0.75
vt 1 0.75
vt 0 0.875
vt 0.1 0.875
vt 0.2 0.875
vt 0.3 0.875
vt 0.4 0.875
vt 0.5 0.875
vt 0.6 0.875
vt 0.7 0.875
vt 0.8 0.875
vt 0.9 0.875
vt 1 0.875
vt 0 1
vt 0.1 1
vt 0.2 1
vt 0.3 1
vt 0.4 1
vt 0.5 1
vt 0.6 1
vt 0.7 1
vt 0.8 1
vt 0.9 1
vt 1 1
vt 0 0
vt 0.1 0
vt 0.2 0
vt 0.3 0
vt 0.4 0
vt 0.5 0
vt 0.6 0
vt 0.7 0
vt 0.8 0
vt 0.9 0
vt 1 0
vt 0 0.125
vt 0.1 0.125
vt 0.2 0.125
vt 0.3 0.125
vt 0.4 0.125
vt 0.5 0.125
vt 0.6 0.125
vt 0.7 0.125
vt 0.8 0.125
vt 0.9 0.125
vt 1 0.125
vt 0 0.25
vt 0.1 0.25
vt 0.2 0.25
vt 0.3 0.25
vt 0.4 0.25
vt 0.5 0.25
vt 0.6 0.25
vt 0.7 0.25
vt 0.8 0.25
vt 0.9 0.25
vt 1 0.25
vt 0 0.375
vt 0.1 0.375
vt 0.2 0.375
vt 0.3 0.375
vt 0.4 0.375
vt 0.5 0.375
vt 0.6 0.375
vt 0.7 0.375
vt 0.8 0.375
vt 0.9 0.375
vt 1 0.375
vt 0 0.5
vt 0.1 0.5
vt 0.2 0.5
vt 0.3 0.5
vt 0.4 0.5
vt 0.5 0.5
vt 0.6 0.5
vt 0.7 0.5
vt 0.8 0.5
vt 0.9 0.5
vt 1 0.5
vt 0 0.625
vt 0.1 0.625
vt 0.2 0.625
vt 0.3 0.625
vt 0.4 0.625
vt 0.5 0.625
vt 0.6 0.625
vt 0.7 0.625
vt 0.8 0.625
vt 0.9 0.625
vt 1 0.625
vt 0 0.75
vt 0.1 0.75
vt 0.2 0.75
vt 0.3 0.75
vt 0.4 0.75
vt 0.5 0.75
vt 0.6 0.75
vt 0.7 0.75
vt 0.8 0.75
vt 0.9 0.75
vt 1 0.75
vt 0 0.875
vt 0.1 0.875
vt 0.2 0.875
vt 0.3 0.875
vt 0.4 0.875
vt 0.5 0.875
vt 0.6 0.875
vt 0.7 0.875
vt 0.8 0.875
vt 0.9 0.875
vt 1 0.875
vt 0 1
vt 0.1 1
vt 0.2 1
vt 0.3 1
vt 0.4 1
vt 0.5 1
vt 0.6 1
vt 0.7 1
vt 0.8 1
vt 0.9 1
vt 1 1
vt 0 0
vt 0.1 0
vt 0.2 0
vt 0.3 0
vt 0.4 0
vt 0.5 0
vt 0.6 0
vt 0.7 0
vt 0.8 0
vt 0.9 0
vt 1 0
vt 0 0.125
vt 0.1 0.125
vt 0.2 0.125
vt 0.3 0.125
vt 0.4 0.125
vt 0.5 0.125
vt 0.6 0.125
vt 0.7 0.125
vt 0.8 0.125
vt 0.9 0.125
vt 1 0.125
vt 0 0.25
vt 0.1 0.25
vt 0.2 0.25
vt 0.3 0.25
vt 0.4 0.25
vt 0.5 0.25
vt 0.6 0.25
vt 0.7 0.25
vt 0.8 0.25
vt 0.9 0.25
vt 1 0.25
vt 0 0.375
vt 0.1 0.375
vt 0.2 0.375
vt 0.3 0.375
vt 0.4 0.375
vt 0.5 0.375
vt 0.6 0.375
vt 0.7 0.375
vt 0.8 0.375
vt 0.9 0.375
vt 1 0.375
vt 0 0.5
vt 0.1 0.5
vt 0.2 0.5
vt 0.3 0.5
vt 0.4 0.5
vt 0.5 0.5
vt 0.6 0.5
vt 0.7 0.5
vt 0.8 0.5
vt 0.9 0.5
vt 1 0.5
vt 0 0.625
vt 0.1 0.625
vt 0.2 0.625
vt 0.3 0.625
vt 0.4 0.625
vt 0.5 0.625
vt 0.6 0.625
vt 0.7 0.625
vt 0.8 0.625
vt 0.9 0.625
vt 1 0.625
vt 0 0.75
vt 0.1 0.75
vt 0.2 0.75
vt 0.3 0.75
vt 0.4 0.75
vt 0.5 0.75
vt 0.6 0.75
vt 0.7 0.75
vt 0.8 0.75
vt 0.9 0.75
vt 1 0.75
vt 0 0.875
vt 0.1 0.875
vt 0.2 0.875
vt 0.3 0.875
vt 0.4 0.875
vt 0.5 0.875
vt 0.6 0.875
vt 0.7 0.875
vt 0.8 0.875
vt 0.9 0.875
vt 1 0.875
vt 0 1
vt 0.1 1
vt 0.2 1
vt 0.3 1
vt 0.4 1
vt 0.5 1
vt 0.6 1
vt 0.7 1
vt 0.8 1
vt 0.9 1
vt 1 1
vn 0 -1 0
vn 0 -1 0
vn 0 -1 0
vn 0 -1 0
vn 0 -1 0
vn 0 -1 0
vn 0 -1 0
vn 0 -1 0
vn 0 -1 0
vn 0 -1 0
vn 0 -1 0
vn 0 -1 0
vn 0 1 0
vn 0 1 0
vn 0 1 0
vn 0 1 0
vn 0 1 0
vn 0 1 0
vn 0 1 0
vn 0 1 0
vn 0 1 0
vn 0 1 0
vn 0 1 0
vn 0 1 0
vn 0 -1 0
vn 0 1 0
vn 0 -1 0
vn 0 -1 0
vn 0 -1 0
vn 0 -1 0
vn 0 -1 0
vn 0 -1 0
vn 0 -1 0
vn 0 -1 0
vn 0 -1 0
vn 0 -1 0
vn 0 -1 0
vn 0 -1 0
vn 0 1 0
vn 0 1 0
vn 0 1 0
vn 0 1 0
vn 0 1 0
vn 0 1 0
vn 0 1 0
vn 0 1 0
vn 0 1 0
vn 0 1 0
vn 0 1 0
vn 0 1 0
vn 0 -1 0
vn 0 1 0
vn 0 1 0
vn 0 1 0
vn 0 1 0
vn 0 1 0
vn 0 1 0
vn 0 1 0
vn 0 1 0
vn 0 1 0
vn 0 1 0
vn 0 1 0
vn 0 1 0
vn 0.3826834323650898 0.9238795325112867 0
vn 0.30959740024909344 0.9238795325112867 0.22493567784086385
vn 0.11825568406654854 0.9238795325112867 0.3639535720290143
vn -0.11825568406654849 0.9238795325112867 0.36395357202901435
vn -0.3095974002490934 0.9238795325112867 0.2249356778408639
vn -0.3826834323650898 0.9238795325112867 4.6865204053262986e-17
vn -0.30959740024909344 0.9238795325112867 -0.22493567784086382
vn -0.11825568406654856 0.9238795325112867 -0.3639535720290143
vn 0.11825568406654845 0.9238795325112867 -0.36395357202901435
vn 0.3095974002490934 0.9238795325112867 -0.22493567784086393
vn 0.3826834323650898 0.9238795325112867 -9.373040810652597e-17
vn 0.7071067811865475 0.7071067811865476 0
vn 0.5720614028176843 0.7071067811865476 0.4156269377774534
vn 0.21850801222441057 0.7071067811865476 0.6724985119639573
vn -0.21850801222441046 0.7071067811865476 0.6724985119639573
vn -0.5720614028176841 0.7071067811865476 0.4156269377774534
vn -0.7071067811865475 0.7071067811865476 8.659560562354932e-17
vn -0.5720614028176843 0.7071067811865476 -0.41562693777745335
vn -0.2185080122244106 0.7071067811865476 -0.6724985119639573
vn 0.21850801222441038 0.7071067811865476 -0.6724985119639573
vn 0.5720614028176841 0.7071067811865476 -0.41562693777745363
vn 0.7071067811865475 0.7071067811865476 -1.7319121124709863e-16
vn 0.9238795325112867 0.38268343236508984 0
vn 0.7474342425568128 0.38268343236508984 0.5430427641049989
vn 0.28549447630116936 0.38268343236508984 0.8786616496665796
vn -0.28549447630116925 0.38268343236508984 0.8786616496665796
vn -0.7474342425568127 0.38268343236508984 0.543042764104999
vn -0.9238795325112867 0.38268343236508984 1.1314261122877003e-16
vn -0.7474342425568128 0.38268343236508984 -0.5430427641049987
vn -0.2854944763011695 0.38268343236508984 -0.8786616496665796
vn 0.28549447630116914 0.38268343236508984 -0.8786616496665796
vn 0.7474342425568127 0.38268343236508984 -0.543042764104999
vn 0.9238795325112867 0.38268343236508984 -2.2628522245754005e-16
vn 1 6.123233995736766e-17 0
vn 0.8090169943749475 6.123233995736766e-17 0.5877852522924731
vn 0.30901699437494745 6.123233995736766e-17 0.9510565162951534
vn -0.30901699437494734 6.123233995736766e-17 0.9510565162951536
vn -0.8090169943749472 6.123233995736766e-17 0.5877852522924732
vn -1 6.123233995736766e-17 1.2246467991473532e-16
vn -0.8090169943749475 6.123233995736766e-17 -0.587785252292473
vn -0.30901699437494756 6.123233995736766e-17 -0.9510565162951534
vn 0.30901699437494723 6.123233995736766e-17 -0.9510565162951536
vn 0.8090169943749472 6.123233995736766e-17 -0.5877852522924734
vn 1 6.123233995736766e-17 -2.4492935982947064e-16
vn 0.9238795325112867 -0.3826834323650897 0
vn 0.7474342425568128 -0.3826834323650897 0.5430427641049989
vn 0.28549447630116936 -0.3826834323650897 0.8786616496665796
vn -0.28549447630116925 -0.3826834323650897 0.8786616496665796
vn -0.7474342425568127 -0.3826834323650897 0.543042764104999
vn -0.9238795325112867 -0.3826834323650897 1.1314261122877003e-16
vn -0.7474342425568128 -0.3826834323650897 -0.5430427641049987
vn -0.2854944763011695 -0.3826834323650897 -0.8786616496665796
vn 0.28549447630116914 -0.3826834323650897 -0.8786616496665796
vn 0.7474342425568127 -0.3826834323650897 -0.543042764104999
vn 0.9238795325112867 -0.3826834323650897 -2.2628522245754005e-16
vn 0.7071067811865476 -0.7071067811865475 0
vn 0.5720614028176844 -0.7071067811865475 0.4156269377774534
vn 0.21850801222441057 -0.7071067811865475 0.6724985119639574
vn -0.21850801222441046 -0.7071067811865475 0.6724985119639574
vn -0.5720614028176843 -0.7071067811865475 0.4156269377774535
vn -0.7071067811865476 -0.7071067811865475 8.659560562354934e-17
vn -0.5720614028176844 -0.7071067811865475 -0.4156269377774534
vn -0.21850801222441066 -0.7071067811865475 -0.6724985119639574
vn 0.21850801222441038 -0.7071067811865475 -0.6724985119639574
vn 0.5720614028176843 -0.7071067811865475 -0.41562693777745363
vn 0.7071067811865476 -0.7071067811865475 -1.7319121124709868e-16
vn 0.3826834323650899 -0.9238795325112867 0
vn 0.3095974002490935 -0.9238795325112867 0.22493567784086393
vn 0.11825568406654856 -0.9238795325112867 0.3639535720290144
vn -0.11825568406654854 -0.9238795325112867 0.36395357202901446
vn -0.3095974002490935 -0.9238795325112867 0.224935677840864
vn -0.3826834323650899 -0.9238795325112867 4.6865204053263e-17
vn -0.3095974002490935 -0.9238795325112867 -0.2249356778408639
vn -0.1182556840665486 -0.9238795325112867 -0.3639535720290144
vn 0.11825568406654849 -0.9238795325112867 -0.36395357202901446
vn 0.3095974002490935 -0.9238795325112867 -0.22493567784086405
vn 0.3826834323650899 -0.9238795325112867 -9.3730408106526e-17
vn 1.2246467991473532e-16 -1 0
vn 9.907600726170916e-17 -1 7.198293278059966e-17
vn 3.7843667304341506e-17 -1 1.1647083184890923e-16
vn -3.7843667304341493e-17 -1 1.1647083184890926e-16
vn -9.907600726170916e-17 -1 7.198293278059968e-17
vn -1.2246467991473532e-16 -1 1.4997597826618576e-32
vn -9.907600726170916e-17 -1 -7.198293278059965e-17
vn -3.784366730434152e-17 -1 -1.1647083184890923e-16
vn 3.7843667304341475e-17 -1 -1.1647083184890926e-16
vn 9.907600726170916e-17 -1 -7.19829327805997e-17
vn 1.2246467991473532e-16 -1 -2.999519565323715e-32
vn 0 1 0
vn 0 1 0
vn 0 1 0
vn 0 1 0
vn 0 1 0
vn 0 1 0
vn 0 1 0
vn 0 1 0
vn 0 1 0
vn 0 1 0
vn 0 1 0
vn 0.3826834323650898 0.9238795325112868 0
vn 0.30959740024909344 0.9238795325112868 0.22493567784086388
vn 0.11825568406654853 0.9238795325112868 0.3639535720290143
vn -0.11825568406654847 0.9238795325112868 0.36395357202901435
vn -0.3095974002490934 0.9238795325112868 0.2249356778408639
vn -0.3826834323650898 0.9238795325112868 4.6865204053262986e-17
vn -0.30959740024909344 0.9238795325112868 -0.22493567784086385
vn -0.11825568406654857 0.9238795325112868 -0.3639535720290143
vn 0.11825568406654845 0.9238795325112868 -0.36395357202901435
vn 0.3095974002490934 0.9238795325112868 -0.22493567784086396
vn 0.3826834323650898 0.9238795325112868 -9.373040810652597e-17
vn 0.7071067811865475 0.7071067811865476 0
vn 0.5720614028176843 0.7071067811865476 0.41562693777745335
vn 0.21850801222441055 0.7071067811865476 0.6724985119639572
vn -0.21850801222441044 0.7071067811865476 0.6724985119639572
vn -0.5720614028176841 0.7071067811865476 0.41562693777745346
vn -0.7071067811865475 0.7071067811865476 8.659560562354932e-17
vn -0.5720614028176843 0.7071067811865476 -0.4156269377774533
vn -0.2185080122244106 0.7071067811865476 -0.6724985119639572
vn 0.21850801222441038 0.7071067811865476 -0.6724985119639572
vn 0.5720614028176841 0.7071067811865476 -0.4156269377774536
vn 0.7071067811865475 0.7071067811865476 -1.7319121124709863e-16
vn 0.9238795325112866 0.38268343236508984 0
vn 0.7474342425568127 0.38268343236508984 0.5430427641049989
vn 0.28549447630116936 0.38268343236508984 0.8786616496665794
vn -0.28549447630116925 0.38268343236508984 0.8786616496665797
vn -0.7474342425568127 0.38268343236508984 0.543042764104999
vn -0.9238795325112866 0.38268343236508984 1.1314261122877003e-16
vn -0.7474342425568127 0.38268343236508984 -0.5430427641049987
vn -0.2854944763011695 0.38268343236508984 -0.8786616496665794
vn 0.28549447630116914 0.38268343236508984 -0.8786616496665797
vn 0.7474342425568127 0.38268343236508984 -0.543042764104999
vn 0.9238795325112866 0.38268343236508984 -2.2628522245754005e-16
vn 1 6.123233995736766e-17 0
vn 0.8090169943749475 6.123233995736766e-17 0.5877852522924731
vn 0.30901699437494745 6.123233995736766e-17 0.9510565162951535
vn -0.30901699437494734 6.123233995736766e-17 0.9510565162951536
vn -0.8090169943749473 6.123233995736766e-17 0.5877852522924732
vn -1 6.123233995736766e-17 1.2246467991473532e-16
vn -0.8090169943749475 6.123233995736766e-17 -0.587785252292473
vn -0.30901699437494756 6.123233995736766e-17 -0.9510565162951535
vn 0.30901699437494723 6.123233995736766e-17 -0.9510565162951536
vn 0.8090169943749473 6.123233995736766e-17 -0.5877852522924734
vn 1 6.123233995736766e-17 -2.4492935982947064e-16
vn 0.9238795325112866 -0.3826834323650897 0
vn 0.7474342425568127 -0.3826834323650897 0.5430427641049989
vn 0.28549447630116936 -0.3826834323650897 0.8786616496665794
vn -0.28549447630116925 -0.3826834323650897 0.8786616496665797
vn -0.7474342425568127 -0.3826834323650897 0.543042764104999
vn -0.9238795325112866 -0.3826834323650897 1.1314261122877003e-16
vn -0.7474342425568127 -0.3826834323650897 -0.5430427641049987
vn -0.2854944763011695 -0.3826834323650897 -0.8786616496665794
vn 0.28549447630116914 -0.3826834323650897 -0.8786616496665797
vn 0.7474342425568127 -0.3826834323650897 -0.543042764104999
vn 0.9238795325112866 -0.3826834323650897 -2.2628522245754005e-16
vn 0.7071067811865476 -0.7071067811865475 0
vn 0.5720614028176844 -0.7071067811865475 0.41562693777745346
vn 0.2185080122244106 -0.7071067811865475 0.6724985119639574
vn -0.2185080122244105 -0.7071067811865475 0.6724985119639574
vn -0.5720614028176843 -0.7071067811865475 0.4156269377774535
vn -0.7071067811865476 -0.7071067811865475 8.659560562354934e-17
vn -0.5720614028176844 -0.7071067811865475 -0.41562693777745335
vn -0.21850801222441066 -0.7071067811865475 -0.6724985119639574
vn 0.2185080122244104 -0.7071067811865475 -0.6724985119639574
vn 0.5720614028176843 -0.7071067811865475 -0.4156269377774537
vn 0.7071067811865476 -0.7071067811865475 -1.7319121124709868e-16
vn 0.3826834323650899 -0.9238795325112868 0
vn 0.3095974002490935 -0.9238795325112868 0.2249356778408639
vn 0.11825568406654857 -0.9238795325112868 0.3639535720290144
vn -0.11825568406654853 -0.9238795325112868 0.3639535720290145
vn -0.3095974002490935 -0.9238795325112868 0.224935677840864
vn -0.3826834323650899 -0.9238795325112868 4.6865204053263e-17
vn -0.3095974002490935 -0.9238795325112868 -0.2249356778408639
vn -0.11825568406654861 -0.9238795325112868 -0.3639535720290144
vn 0.11825568406654847 -0.9238795325112868 -0.3639535720290145
vn 0.3095974002490935 -0.9238795325112868 -0.22493567784086402
vn 0.3826834323650899 -0.9238795325112868 -9.3730408106526e-17
vn 1.2246467991473532e-16 -1 0
vn 9.907600726170917e-17 -1 7.198293278059966e-17
vn 3.7843667304341506e-17 -1 1.1647083184890923e-16
vn -3.7843667304341493e-17 -1 1.1647083184890926e-16
vn -9.907600726170915e-17 -1 7.198293278059968e-17
vn -1.2246467991473532e-16 -1 1.4997597826618576e-32
vn -9.907600726170917e-17 -1 -7.198293278059965e-17
vn -3.784366730434152e-17 -1 -1.1647083184890923e-16
vn 3.784366730434148e-17 -1 -1.1647083184890926e-16
vn 9.907600726170915e-17 -1 -7.19829327805997e-17
vn 1.2246467991473532e-16 -1 -2.999519565323715e-32
vn 0 1 0
vn 0 1 0
vn 0 1 0
vn 0 1 0
vn 0 1 0
vn 0 1 0
vn 0 1 0
vn 0 1 0
vn 0 1 0
vn 0 1 0
vn 0 1 0
vn 0.3826834323650898 0.9238795325112868 0
vn 0.30959740024909344 0.9238795325112868 0.22493567784086388
vn 0.11825568406654853 0.9238795325112868 0.3639535720290143
vn -0.11825568406654847 0.9238795325112868 0.36395357202901435
vn -0.3095974002490934 0.9238795325112868 0.2249356778408639
vn -0.3826834323650898 0.9238795325112868 4.6865204053262986e-17
vn -0.30959740024909344 0.9238795325112868 -0.22493567784086385
vn -0.11825568406654857 0.9238795325112868 -0.3639535720290143
vn 0.11825568406654845 0.9238795325112868 -0.36395357202901435
vn 0.3095974002490934 0.9238795325112868 -0.22493567784086396
vn 0.3826834323650898 0.9238795325112868 -9.373040810652597e-17
vn 0.7071067811865475 0.7071067811865476 0
vn 0.5720614028176843 0.7071067811865476 0.41562693777745335
vn 0.21850801222441055 0.7071067811865476 0.6724985119639572
vn -0.21850801222441044 0.7071067811865476 0.6724985119639572
vn -0.5720614028176841 0.7071067811865476 0.41562693777745346
vn -0.7071067811865475 0.7071067811865476 8.659560562354932e-17
vn -0.5720614028176843 0.7071067811865476 -0.4156269377774533
vn -0.2185080122244106 0.7071067811865476 -0.6724985119639572
vn 0.21850801222441038 0.7071067811865476 -0.6724985119639572
vn 0.5720614028176841 0.7071067811865476 -0.4156269377774536
vn 0.7071067811865475 0.7071067811865476 -1.7319121124709863e-16
vn 0.9238795325112866 0.38268343236508984 0
vn 0.7474342425568127 0.38268343236508984 0.5430427641049989
vn 0.28549447630116936 0.38268343236508984 0.8786616496665794
vn -0.28549447630116925 0.38268343236508984 0.8786616496665797
vn -0.7474342425568127 0.38268343236508984 0.543042764104999
vn -0.9238795325112866 0.38268343236508984 1.1314261122877003e-16
vn -0.7474342425568127 0.38268343236508984 -0.5430427641049987
vn -0.2854944763011695 0.38268343236508984 -0.8786616496665794
vn 0.28549447630116914 0.38268343236508984 -0.8786616496665797
vn 0.7474342425568127 0.38268343236508984 -0.543042764104999
vn 0.9238795325112866 0.38268343236508984 -2.2628522245754005e-16
vn 1 6.123233995736766e-17 0
vn 0.8090169943749475 6.123233995736766e-17 0.5877852522924731
vn 0.30901699437494745 6.123233995736766e-17 0.9510565162951535
vn -0.30901699437494734 6.123233995736766e-17 0.9510565162951536
vn -0.8090169943749473 6.123233995736766e-17 0.5877852522924732
vn -1 6.123233995736766e-17 1.2246467991473532e-16
vn -0.8090169943749475 6.123233995736766e-17 -0.587785252292473
vn -0.30901699437494756 6.123233995736766e-17 -0.9510565162951535
vn 0.30901699437494723 6.123233995736766e-17 -0.9510565162951536
vn 0.8090169943749473 6.123233995736766e-17 -0.5877852522924734
vn 1 6.123233995736766e-17 -2.4492935982947064e-16
vn 0.9238795325112866 -0.3826834323650897 0
vn 0.7474342425568127 -0.3826834323650897 0.5430427641049989
vn 0.28549447630116936 -0.3826834323650897 0.8786616496665794
vn -0.28549447630116925 -0.3826834323650897 0.8786616496665797
vn -0.7474342425568127 -0.3826834323650897 0.543042764104999
vn -0.9238795325112866 -0.3826834323650897 1.1314261122877003e-16
vn -0.7474342425568127 -0.3826834323650897 -0.5430427641049987
vn -0.2854944763011695 -0.3826834323650897 -0.8786616496665794
vn 0.28549447630116914 -0.3826834323650897 -0.8786616496665797
vn 0.7474342425568127 -0.3826834323650897 -0.543042764104999
vn 0.9238795325112866 -0.3826834323650897 -2.2628522245754005e-16
vn 0.7071067811865476 -0.7071067811865475 0
vn 0.5720614028176844 -0.7071067811865475 0.41562693777745346
vn 0.2185080122244106 -0.7071067811865475 0.6724985119639574
vn -0.2185080122244105 -0.7071067811865475 0.6724985119639574
vn -0.5720614028176843 -0.7071067811865475 0.4156269377774535
vn -0.7071067811865476 -0.7071067811865475 8.659560562354934e-17
vn -0.5720614028176844 -0.7071067811865475 -0.41562693777745335
vn -0.21850801222441066 -0.7071067811865475 -0.6724985119639574
vn 0.2185080122244104 -0.7071067811865475 -0.6724985119639574
vn 0.5720614028176843 -0.7071067811865475 -0.4156269377774537
vn 0.7071067811865476 -0.7071067811865475 -1.7319121124709868e-16
vn 0.3826834323650899 -0.9238795325112868 0
vn 0.3095974002490935 -0.9238795325112868 0.2249356778408639
vn 0.11825568406654857 -0.9238795325112868 0.3639535720290144
vn -0.11825568406654853 -0.9238795325112868 0.3639535720290145
vn -0.3095974002490935 -0.9238795325112868 0.224935677840864
vn -0.3826834323650899 -0.9238795325112868 4.6865204053263e-17
vn -0.3095974002490935 -0.9238795325112868 -0.2249356778408639
vn -0.11825568406654861 -0.9238795325112868 -0.3639535720290144
vn 0.11825568406654847 -0.9238795325112868 -0.3639535720290145
vn 0.3095974002490935 -0.9238795325112868 -0.22493567784086402
vn 0.3826834323650899 -0.9238795325112868 -9.3730408106526e-17
vn 1.2246467991473532e-16 -1 0
vn 9.907600726170917e-17 -1 7.198293278059966e-17
vn 3.7843667304341506e-17 -1 1.1647083184890923e-16
vn -3.7843667304341493e-17 -1 1.1647083184890926e-16
vn -9.907600726170915e-17 -1 7.198293278059968e-17
vn -1.2246467991473532e-16 -1 1.4997597826618576e-32
vn -9.907600726170917e-17 -1 -7.198293278059965e-17
vn -3.784366730434152e-17 -1 -1.1647083184890923e-16
vn 3.784366730434148e-17 -1 -1.1647083184890926e-16
vn 9.907600726170915e-17 -1 -7.19829327805997e-17
vn 1.2246467991473532e-16 -1 -2.999519565323715e-32
vn 0 1 0
vn 0 1 0
vn 0 1 0
vn 0 1 0
vn 0 1 0
vn 0 1 0
vn 0 1 0
vn 0 1 0
vn 0 1 0
vn 0 1 0
vn 0 1 0
vn 0.3826834323650898 0.9238795325112867 0
vn 0.30959740024909344 0.9238795325112867 0.22493567784086385
vn 0.11825568406654853 0.9238795325112867 0.3639535720290143
vn -0.11825568406654849 0.9238795325112867 0.36395357202901435
vn -0.3095974002490934 0.9238795325112867 0.2249356778408639
vn -0.3826834323650898 0.9238795325112867 4.686520405326298e-17
vn -0.30959740024909344 0.9238795325112867 -0.22493567784086382
vn -0.11825568406654857 0.9238795325112867 -0.3639535720290143
vn 0.11825568406654843 0.9238795325112867 -0.36395357202901435
vn 0.3095974002490934 0.9238795325112867 -0.22493567784086396
vn 0.3826834323650898 0.9238795325112867 -9.373040810652596e-17
vn 0.7071067811865475 0.7071067811865476 0
vn 0.5720614028176843 0.7071067811865476 0.4156269377774534
vn 0.21850801222441055 0.7071067811865476 0.6724985119639573
vn -0.21850801222441046 0.7071067811865476 0.6724985119639573
vn -0.5720614028176841 0.7071067811865476 0.41562693777745346
vn -0.7071067811865475 0.7071067811865476 8.659560562354932e-17
vn -0.5720614028176843 0.7071067811865476 -0.4156269377774533
vn -0.2185080122244106 0.7071067811865476 -0.6724985119639573
vn 0.21850801222441038 0.7071067811865476 -0.6724985119639573
vn 0.5720614028176841 0.7071067811865476 -0.4156269377774536
vn 0.7071067811865475 0.7071067811865476 -1.7319121124709863e-16
vn 0.9238795325112868 0.38268343236508984 0
vn 0.7474342425568128 0.38268343236508984 0.5430427641049989
vn 0.28549447630116936 0.38268343236508984 0.8786616496665794
vn -0.28549447630116925 0.38268343236508984 0.8786616496665794
vn -0.7474342425568127 0.38268343236508984 0.543042764104999
vn -0.9238795325112868 0.38268343236508984 1.1314261122877003e-16
vn -0.7474342425568128 0.38268343236508984 -0.5430427641049987
vn -0.2854944763011695 0.38268343236508984 -0.8786616496665794
vn 0.28549447630116914 0.38268343236508984 -0.8786616496665794
vn 0.7474342425568127 0.38268343236508984 -0.543042764104999
vn 0.9238795325112868 0.38268343236508984 -2.2628522245754005e-16
vn 1 6.123233995736766e-17 0
vn 0.8090169943749475 6.123233995736766e-17 0.5877852522924731
vn 0.30901699437494745 6.123233995736766e-17 0.9510565162951534
vn -0.30901699437494734 6.123233995736766e-17 0.9510565162951536
vn -0.8090169943749473 6.123233995736766e-17 0.5877852522924732
vn -1 6.123233995736766e-17 1.2246467991473532e-16
vn -0.8090169943749475 6.123233995736766e-17 -0.587785252292473
vn -0.30901699437494756 6.123233995736766e-17 -0.9510565162951534
vn 0.30901699437494723 6.123233995736766e-17 -0.9510565162951536
vn 0.8090169943749473 6.123233995736766e-17 -0.5877852522924734
vn 1 6.123233995736766e-17 -2.4492935982947064e-16
vn 0.9238795325112868 -0.3826834323650897 0
vn 0.7474342425568128 -0.3826834323650897 0.5430427641049989
vn 0.28549447630116936 -0.3826834323650897 0.8786616496665794
vn -0.28549447630116925 -0.3826834323650897 0.8786616496665794
vn -0.7474342425568127 -0.3826834323650897 0.543042764104999
vn -0.9238795325112868 -0.3826834323650897 1.1314261122877003e-16
vn -0.7474342425568128 -0.3826834323650897 -0.5430427641049987
vn -0.2854944763011695 -0.3826834323650897 -0.8786616496665794
vn 0.28549447630116914 -0.3826834323650897 -0.8786616496665794
vn 0.7474342425568127 -0.3826834323650897 -0.543042764104999
vn 0.9238795325112868 -0.3826834323650897 -2.2628522245754005e-16
vn 0.7071067811865476 -0.7071067811865475 0
vn 0.5720614028176844 -0.7071067811865475 0.41562693777745346
vn 0.21850801222441055 -0.7071067811865475 0.6724985119639574
vn -0.21850801222441052 -0.7071067811865475 0.6724985119639574
vn -0.5720614028176843 -0.7071067811865475 0.4156269377774535
vn -0.7071067811865476 -0.7071067811865475 8.659560562354934e-17
vn -0.5720614028176844 -0.7071067811865475 -0.4156269377774534
vn -0.21850801222441066 -0.7071067811865475 -0.6724985119639574
vn 0.2185080122244104 -0.7071067811865475 -0.6724985119639574
vn 0.5720614028176843 -0.7071067811865475 -0.41562693777745363
vn 0.7071067811865476 -0.7071067811865475 -1.7319121124709868e-16
vn 0.3826834323650899 -0.9238795325112867 0
vn 0.3095974002490935 -0.9238795325112867 0.22493567784086396
vn 0.11825568406654857 -0.9238795325112867 0.3639535720290144
vn -0.11825568406654853 -0.9238795325112867 0.36395357202901446
vn -0.3095974002490935 -0.9238795325112867 0.224935677840864
vn -0.3826834323650899 -0.9238795325112867 4.6865204053263004e-17
vn -0.3095974002490935 -0.9238795325112867 -0.2249356778408639
vn -0.11825568406654863 -0.9238795325112867 -0.3639535720290144
vn 0.11825568406654849 -0.9238795325112867 -0.36395357202901446
vn 0.3095974002490935 -0.9238795325112867 -0.224935677840864
vn 0.3826834323650899 -0.9238795325112867 -9.373040810652601e-17
vn 1.2246467991473532e-16 -1 0
vn 9.907600726170916e-17 -1 7.198293278059966e-17
vn 3.7843667304341506e-17 -1 1.1647083184890923e-16
vn -3.7843667304341493e-17 -1 1.1647083184890926e-16
vn -9.907600726170915e-17 -1 7.198293278059968e-17
vn -1.2246467991473532e-16 -1 1.4997597826618576e-32
vn -9.907600726170916e-17 -1 -7.198293278059965e-17
vn -3.784366730434152e-17 -1 -1.1647083184890923e-16
vn 3.7843667304341475e-17 -1 -1.1647083184890926e-16
vn 9.907600726170915e-17 -1 -7.19829327805997e-17
vn 1.2246467991473532e-16 -1 -2.999519565323715e-32
vn 0 1 0
vn 0 1 0
vn 0 1 0
vn 0 1 0
vn 0 1 0
vn 0 1 0
vn 0 1 0
vn 0 1 0
vn 0 1 0
vn 0 1 0
vn 0 1 0
vn 0.3826834323650898 0.9238795325112867 0
vn 0.30959740024909344 0.9238795325112867 0.22493567784086388
vn 0.11825568406654853 0.9238795325112867 0.3639535720290143
vn -0.11825568406654849 0.9238795325112867 0.36395357202901435
vn -0.3095974002490934 0.9238795325112867 0.2249356778408639
vn -0.3826834323650898 0.9238795325112867 4.6865204053262986e-17
vn -0.30959740024909344 0.9238795325112867 -0.22493567784086382
vn -0.11825568406654857 0.9238795325112867 -0.3639535720290143
vn 0.11825568406654845 0.9238795325112867 -0.36395357202901435
vn 0.3095974002490934 0.9238795325112867 -0.22493567784086396
vn 0.3826834323650898 0.9238795325112867 -9.373040810652597e-17
vn 0.7071067811865475 0.7071067811865476 0
vn 0.5720614028176843 0.7071067811865476 0.4156269377774534
vn 0.21850801222441055 0.7071067811865476 0.6724985119639573
vn -0.21850801222441046 0.7071067811865476 0.6724985119639573
vn -0.5720614028176841 0.7071067811865476 0.41562693777745346
vn -0.7071067811865475 0.7071067811865476 8.659560562354932e-17
vn -0.5720614028176843 0.7071067811865476 -0.4156269377774533
vn -0.2185080122244106 0.7071067811865476 -0.6724985119639573
vn 0.21850801222441038 0.7071067811865476 -0.6724985119639573
vn 0.5720614028176841 0.7071067811865476 -0.4156269377774536
vn 0.7071067811865475 0.7071067811865476 -1.7319121124709863e-16
vn 0.9238795325112867 0.3826834323650899 0
vn 0.7474342425568128 0.3826834323650899 0.5430427641049989
vn 0.28549447630116936 0.3826834323650899 0.8786616496665794
vn -0.28549447630116925 0.3826834323650899 0.8786616496665796
vn -0.7474342425568127 0.3826834323650899 0.543042764104999
vn -0.9238795325112867 0.3826834323650899 1.1314261122877003e-16
vn -0.7474342425568128 0.3826834323650899 -0.5430427641049987
vn -0.2854944763011695 0.3826834323650899 -0.8786616496665794
vn 0.28549447630116914 0.3826834323650899 -0.8786616496665796
vn 0.7474342425568127 0.3826834323650899 -0.543042764104999
vn 0.9238795325112867 0.3826834323650899 -2.2628522245754005e-16
vn 1 6.123233995736766e-17 0
vn 0.8090169943749475 6.123233995736766e-17 0.5877852522924731
vn 0.30901699437494745 6.123233995736766e-17 0.9510565162951535
vn -0.30901699437494734 6.123233995736766e-17 0.9510565162951536
vn -0.8090169943749473 6.123233995736766e-17 0.5877852522924732
vn -1 6.123233995736766e-17 1.2246467991473532e-16
vn -0.8090169943749475 6.123233995736766e-17 -0.587785252292473
vn -0.30901699437494756 6.123233995736766e-17 -0.9510565162951535
vn 0.30901699437494723 6.123233995736766e-17 -0.9510565162951536
vn 0.8090169943749473 6.123233995736766e-17 -0.5877852522924734
vn 1 6.123233995736766e-17 -2.4492935982947064e-16
vn 0.9238795325112867 -0.3826834323650897 0
vn 0.7474342425568128 -0.3826834323650897 0.5430427641049989
vn 0.28549447630116936 -0.3826834323650897 0.8786616496665794
vn -0.28549447630116925 -0.3826834323650897 0.8786616496665796
vn -0.7474342425568127 -0.3826834323650897 0.543042764104999
vn -0.9238795325112867 -0.3826834323650897 1.1314261122877003e-16
vn -0.7474342425568128 -0.3826834323650897 -0.5430427641049987
vn -0.2854944763011695 -0.3826834323650897 -0.8786616496665794
vn 0.28549447630116914 -0.3826834323650897 -0.8786616496665796
vn 0.7474342425568127 -0.3826834323650897 -0.543042764104999
vn 0.9238795325112867 -0.3826834323650897 -2.2628522245754005e-16
vn 0.7071067811865476 -0.7071067811865475 0
vn 0.5720614028176844 -0.7071067811865475 0.41562693777745346
vn 0.21850801222441057 -0.7071067811865475 0.6724985119639574
vn -0.2185080122244105 -0.7071067811865475 0.6724985119639574
vn -0.5720614028176843 -0.7071067811865475 0.4156269377774535
vn -0.7071067811865476 -0.7071067811865475 8.659560562354934e-17
vn -0.5720614028176844 -0.7071067811865475 -0.4156269377774534
vn -0.21850801222441066 -0.7071067811865475 -0.6724985119639574
vn 0.2185080122244104 -0.7071067811865475 -0.6724985119639574
vn 0.5720614028176843 -0.7071067811865475 -0.41562693777745363
vn 0.7071067811865476 -0.7071067811865475 -1.7319121124709868e-16
vn 0.3826834323650899 -0.9238795325112867 0
vn 0.3095974002490935 -0.9238795325112867 0.22493567784086393
vn 0.11825568406654857 -0.9238795325112867 0.3639535720290144
vn -0.11825568406654853 -0.9238795325112867 0.36395357202901446
vn -0.3095974002490935 -0.9238795325112867 0.224935677840864
vn -0.3826834323650899 -0.9238795325112867 4.6865204053263e-17
vn -0.3095974002490935 -0.9238795325112867 -0.2249356778408639
vn -0.11825568406654861 -0.9238795325112867 -0.3639535720290144
vn 0.11825568406654849 -0.9238795325112867 -0.36395357202901446
vn 0.3095974002490935 -0.9238795325112867 -0.22493567784086402
vn 0.3826834323650899 -0.9238795325112867 -9.3730408106526e-17
vn 1.2246467991473532e-16 -1 0
vn 9.907600726170916e-17 -1 7.198293278059966e-17
vn 3.7843667304341506e-17 -1 1.1647083184890923e-16
vn -3.7843667304341493e-17 -1 1.1647083184890926e-16
vn -9.907600726170915e-17 -1 7.198293278059968e-17
vn -1.2246467991473532e-16 -1 1.4997597826618576e-32
vn -9.907600726170916e-17 -1 -7.198293278059965e-17
vn -3.784366730434152e-17 -1 -1.1647083184890923e-16
vn 3.7843667304341475e-17 -1 -1.1647083184890926e-16
vn 9.907600726170915e-17 -1 -7.19829327805997e-17
vn 1.2246467991473532e-16 -1 -2.999519565323715e-32
f 1/1/1 2/2/2 14/14/14
f 1/1/1 14/14/14 13/13/13
f 25/25/25 2/2/2 1/1/1
f 26/26/26 13/13/13 14/14/14
f 2/2/2 3/3/3 15/15/15
f 2/2/2 15/15/15 14/14/14
f 25/25/25 3/3/3 2/2/2
f 26/26/26 14/14/14 15/15/15
f 3/3/3 4/4/4 16/16/16
f 3/3/3 16/16/16 15/15/15
f 25/25/25 4/4/4 3/3/3
f 26/26/26 15/15/15 16/16/16
f 4/4/4 5/5/5 17/17/17
f 4/4/4 17/17/17 16/16/16
f 25/25/25 5/5/5 4/4/4
f 26/26/26 16/16/16 17/17/17
f 5/5/5 6/6/6 18/18/18
f 5/5/5 18/18/18 17/17/17
f 25/25/25 6/6/6 5/5/5
f 26/26/26 17/17/17 18/18/18
f 6/6/6 7/7/7 19/19/19
f 6/6/6 19/19/19 18/18/18
f 25/25/25 7/7/7 6/6/6
f 26/26/26 18/18/18 19/19/19
f 7/7/7 8/8/8 20/20/20
f 7/7/7 20/20/20 19/19/19
f 25/25/25 8/8/8 7/7/7
f 26/26/26 19/19/19 20/20/20
f 8/8/8 9/9/9 21/21/21
f 8/8/8 21/21/21 20/20/20
f 25/25/25 9/9/9 8/8/8
f 26/26/26 20/20/20 21/21/21
f 9/9/9 10/10/10 22/22/22
f 9/9/9 22/22/22 21/21/21
f 25/25/25 10/10/10 9/9/9
f 26/26/26 21/21/21 22/22/22
f 10/10/10 11/11/11 23/23/23
f 10/10/10 23/23/23 22/22/22
f 25/25/25 11/11/11 10/10/10
f 26/26/26 22/22/22 23/23/23
f 11/11/11 12/12/12 24/24/24
f 11/11/11 24/24/24 23/23/23
f 25/25/25 12/12/12 11/11/11
f 26/26/26 23/23/23 24/24/24
f 12/12/12 1/1/1 13/13/13
f 12/12/12 13/13/13 24/24/24
f 25/25/25 1/1/1 12/12/12
f 26/26/26 24/24/24 13/13/13
f 27/27/27 28/28/28 40/40/40
f 27/27/27 40/40/40 39/39/39
f 51/51/51 28/28/28 27/27/27
f 52/52/52 39/39/39 40/40/40
f 28/28/28 29/29/29 41/41/41
f 28/28/28 41/41/41 40/40/40
f 51/51/51 29/29/29 28/28/28
f 52/52/52 40/40/40 41/41/41
f 29/29/29 30/30/30 42/42/42
f 29/29/29 42/42/42 41/41/41
f 51/51/51 30/30/30 29/29/29
f 52/52/52 41/41/41 42/42/42
f 30/30/30 31/31/31 43/43/43
f 30/30/30 43/43/43 42/42/42
f 51/51/51 31/31/31 30/30/30
f 52/52/52 42/42/42 43/43/43
f 31/31/31 32/32/32 44/44/44
f 31/31/31 44/44/44 43/43/43
f 51/51/51 32/32/32 31/31/31
f 52/52/52 43/43/43 44/44/44
f 32/32/32 33/33/33 45/45/45
f 32/32/32 45/45/45 44/44/44
f 51/51/51 33/33/33 32/32/32
f 52/52/52 44/44/44 45/45/45
f 33/33/33 34/34/34 46/46/46
f 33/33/33 46/46/46 45/45/45
f 51/51/51 34/34/34 33/33/33
f 52/52/52 45/45/45 46/46/46
f 34/34/34 35/35/35 47/47/47
f 34/34/34 47/47/47 46/46/46
f 51/51/51 35/35/35 34/34/34
f 52/52/52 46/46/46 47/47/47
f 35/35/35 36/36/36 48/48/48
f 35/35/35 48/48/48 47/47/47
f 51/51/51 36/36/36 35/35/35
f 52/52/52 47/47/47 48/48/48
f 36/36/36 37/37/37 49/49/49
f 36/36/36 49/49/49 48/48/48
f 51/51/51 37/37/37 36/36/36
f 52/52/52 48/48/48 49/49/49
f 37/37/37 38/38/38 50/50/50
f 37/37/37 50/50/50 49/49/49
f 51/51/51 38/38/38 37/37/37
f 52/52/52 49/49/49 50/50/50
f 38/38/38 27/27/27 39/39/39
f 38/38/38 39/39/39 50/50/50
f 51/51/51 27/27/27 38/38/38
f 52/52/52 50/50/50 39/39/39
f 53/53/53 64/64/64 65/65/65
f 53/53/53 65/65/65 54/54/54
f 54/54/54 65/65/65 66/66/66
f 54/54/54 66/66/66 55/55/55
f 55/55/55 66/66/66 67/67/67
f 55/55/55 67/67/67 56/56/56
f 56/56/56 67/67/67 68/68/68
f 56/56/56 68/68/68 57/57/57
f 57/57/57 68/68/68 69/69/69
f 57/57/57 69/69/69 58/58/58
f 58/58/58 69/69/69 70/70/70
f 58/58/58 70/70/70 59/59/59
f 59/59/59 70/70/70 71/71/71
f 59/59/59 71/71/71 60/60/60
f 60/60/60 71/71/71 72/72/72
f 60/60/60 72/72/72 61/61/61
f 61/61/61 72/72/72 73/73/73
f 61/61/61 73/73/73 62/62/62
f 62/62/62 73/73/73 74/74/74
f 62/62/62 74/74/74 63/63/63
f 64/64/64 75/75/75 76/76/76
f 64/64/64 76/76/76 65/65/65
f 65/65/65 76/76/76 77/77/77
f 65/65/65 77/77/77 66/66/66
f 66/66/66 77/77/77 78/78/78
f 66/66/66 78/78/78 67/67/67
f 67/67/67 78/78/78 79/79/79
f 67/67/67 79/79/79 68/68/68
f 68/68/68 79/79/79 80/80/80
f 68/68/68 80/80/80 69/69/69
f 69/69/69 80/80/80 81/81/81
f 69/69/69 81/81/81 70/70/70
f 70/70/70 81/81/81 82/82/82
f 70/70/70 82/82/82 71/71/71
f 71/71/71 82/82/82 83/83/83
f 71/71/71 83/83/83 72/72/72
f 72/72/72 83/83/83 84/84/84
f 72/72/72 84/84/84 73/73/73
f 73/73/73 84/84/84 85/85/85
f 73/73/73 85/85/85 74/74/74
f 75/75/75 86/86/86 87/87/87
f 75/75/75 87/87/87 76/76/76
f 76/76/76 87/87/87 88/88/88
f 76/76/76 88/88/88 77/77/77
f 77/77/77 88/88/88 89/89/89
f 77/77/77 89/89/89 78/78/78
f 78/78/78 89/89/89 90/90/90
f 78/78/78 90/90/90 79/79/79
f 79/79/79 90/90/90 91/91/91
f 79/79/79 91/91/91 80/80/80
f 80/80/80 91/91/91 92/92/92
f 80/80/80 92/92/92 81/81/81
f 81/81/81 92/92/92 93/93/93
f 81/81/81 93/93/93 82/82/82
f 82/82/82 93/93/93 94/94/94
f 82/82/82 94/94/94 83/83/83
f 83/83/83 94/94/94 95/95/95
f 83/83/83 95/95/95 84/84/84
f 84/84/84 95/95/95 96/96/96
f 84/84/84 96/96/96 85/85/85
f 86/86/86 97/97/97 98/98/98
f 86/86/86 98/98/98 87/87/87
f 87/87/87 98/98/98 99/99/99
f 87/87/87 99/99/99 88/88/88
f 88/88/88 99/99/99 100/100/100
f 88/88/88 100/100/100 89/89/89
f 89/89/89 100/100/100 101/101/101
f 89/89/89 101/101/101 90/90/90
f 90/90/90 101/101/101 102/102/102
f 90/90/90 102/102/102 91/91/91
f 91/91/91 102/102/102 103/103/103
f 91/91/91 103/103/103 92/92/92
f 92/92/92 103/103/103 104/104/104
f 92/92/92 104/104/104 93/93/93
f 93/93/93 104/104/104 105/105/105
f 93/93/93 105/105/105 94/94/94
f 94/94/94 105/105/105 106/106/106
f 94/94/94 106/106/106 95/95/95
f 95/95/95 106/106/106 107/107/107
f 95/95/95 107/107/107 96/96/96
f 97/97/97 108/108/108 109/109/109
f 97/97/97 109/109/109 98/98/98
f 98/98/98 109/109/109 110/110/110
f 98/98/98 110/110/110 99/99/99
f 99/99/99 110/110/110 111/111/111
f 99/99/99 111/111/111 100/100/100
f 100/100/100 111/111/111 112/112/112
f 100/100/100 112/112/112 101/101/101
f 101/101/101 112/112/112 113/113/113
f 101/101/101 113/113/113 102/102/102
f 102/102/102 113/113/113 114/114/114
f 102/102/102 114/114/114 103/103/103
f 103/103/103 114/114/114 115/115/115
f 103/103/103 115/115/115 104/104/104
f 104/104/104 115/115/115 116/116/116
f 104/104/104 116/116/116 105/105/105
f 105/105/105 116/116/116 117/117/117
f 105/105/105 117/117/117 106/106/106
f 106/106/106 117/117/117 118/118/118
f 106/106/106 118/118/118 107/107/107
f 108/108/108 119/119/119 120/120/120
f 108/108/108 120/120/120 109/109/109
f 109/109/109 120/120/120 121/121/121
f 109/109/109 121/121/121 110/110/110
f 110/110/110 121/121/121 122/122/122
f 110/110/110 122/122/122 111/111/111
f 111/111/111 122/122/122 123/123/123
f 111/111/111 123/123/123 112/112/112
f 112/112/112 123/123/123 124/124/124
f 112/112/112 124/124/124 113/113/113
f 113/113/113 124/124/124 125/125/125
f 113/113/113 125/125/125 114/114/114
f 114/114/114 125/125/125 126/126/126
f 114/114/114 126/126/126 115/115/115
f 115/115/115 126/126/126 127/127/127
f 115/115/115 127/127/127 116/116/116
f 116/116/116 127/127/127 128/128/128
f 116/116/116 128/128/128 117/117/117
f 117/117/117 128/128/128 129/129/129
f 117/117/117 129/129/129 118/118/118
f 119/119/119 130/130/130 131/131/131
f 119/119/119 131/131/131 120/120/120
f 120/120/120 131/131/131 132/132/132
f 120/120/120 132/132/132 121/121/121
f 121/121/121 132/132/132 133/133/133
f 121/121/121 133/133/133 122/122/122
f 122/122/122 133/133/133 134/134/134
f 122/122/122 134/134/134 123/123/123
f 123/123/123 134/134/134 135/135/135
f 123/123/123 135/135/135 124/124/124
f 124/124/124 135/135/135 136/136/136
f 124/124/124 136/136/136 125/125/125
f 125/125/125 136/136/136 137/137/137
f 125/125/125 137/137/137 126/126/126
f 126/126/126 137/137/137 138/138/138
f 126/126/126 138/138/138 127/127/127
f 127/127/127 138/138/138 139/139/139
f 127/127/127 139/139/139 128/128/128
f 128/128/128 139/139/139 140/140/140
f 128/128/128 140/140/140 129/129/129
f 130/130/130 141/141/141 142/142/142
f 130/130/130 142/142/142 131/131/131
f 131/131/131 142/142/142 143/143/143
f 131/131/131 143/143/143 132/132/132
f 132/132/132 143/143/143 144/144/144
f 132/132/132 144/144/144 133/133/133
f 133/133/133 144/144/144 145/145/145
f 133/133/133 145/145/145 134/134/134
f 134/134/134 145/145/145 146/146/146
f 134/134/134 146/146/146 135/135/135
f 135/135/135 146/146/146 147/147/147
f 135/135/135 147/147/147 136/136/136
f 136/136/136 147/147/147 148/148/148
f 136/136/136 148/148/148 137/137/137
f 137/137/137 148/148/148 149/149/149
f 137/137/137 149/149/149 138/138/138
f 138/138/138 149/149/149 150/150/150
f 138/138/138 150/150/150 139/139/139
f 139/139/139 150/150/150 151/151/151
f 139/139/139 151/151/151 140/140/140
f 152/152/152 163/163/163 164/164/164
f 152/152/152 164/164/164 153/153/153
f 153/153/153 164/164/164 165/165/165
f 153/153/153 165/165/165 154/154/154
f 154/154/154 165/165/165 166/166/166
f 154/154/154 166/166/166 155/155/155
f 155/155/155 166/166/166 167/167/167
f 155/155/155 167/167/167 156/156/156
f 156/156/156 167/167/167 168/168/168
f 156/156/156 168/168/168 157/157/157
f 157/157/157 168/168/168 169/169/169
f 157/157/157 169/169/169 158/158/158
f 158/158/158 169/169/169 170/170/170
f 158/158/158 170/170/170 159/159/159
f 159/159/159 170/170/170 171/171/171
f 159/159/159 171/171/171 160/160/160
f 160/160/160 171/171/171 172/172/172
f 160/160/160 172/172/172 161/161/161
f 161/161/161 172/172/172 173/173/173
f 161/161/161 173/173/173 162/162/162
f 163/163/163 174/174/174 175/175/175
f 163/163/163 175/175/175 164/164/164
f 164/164/164 175/175/175 176/176/176
f 164/164/164 176/176/176 165/165/165
f 165/165/165 176/176/176 177/177/177
f 165/165/165 177/177/177 166/166/166
f 166/166/166 177/177/177 178/178/178
f 166/166/166 178/178/178 167/167/167
f 167/167/167 178/178/178 179/179/179
f 167/167/167 179/179/179 168/168/168
f 168/168/168 179/179/179 180/180/180
f 168/168/168 180/180/180 169/169/169
f 169/169/169 180/180/180 181/181/181
f 169/169/169 181/181/181 170/170/170
f 170/170/170 181/181/181 182/182/182
f 170/170/170 182/182/182 171/171/171
f 171/171/171 182/182/182 183/183/183
f 171/171/171 183/183/183 172/172/172
f 172/172/172 183/183/183 184/184/184
f 172/172/172 184/184/184 173/173/173
f 174/174/174 185/185/185 186/186/186
f 174/174/174 186/186/186 175/175/175
f 175/175/175 186/186/186 187/187/187
f 175/175/175 187/187/187 176/176/176
f 176/176/176 187/187/187 188/188/188
f 176/176/176 188/188/188 177/177/177
f 177/177/177 188/188/188 189/189/189
f 177/177/177 189/189/189 178/178/178
f 178/178/178 189/189/189 190/190/190
f 178/178/178 190/190/190 179/179/179
f 179/179/179 190/190/190 191/191/191
f 179/179/179 191/191/191 180/180/180
f 180/180/180 191/191/191 192/192/192
f 180/180/180 192/192/192 181/181/181
f 181/181/181 192/192/192 193/193/193
f 181/181/181 193/193/193 182/182/182
f 182/182/182 193/193/193 194/194/194
f 182/182/182 194/194/194 183/183/183
f 183/183/183 194/194/194 195/195/195
f 183/183/183 195/195/195 184/184/184
f 185/185/185 196/196/196 197/197/197
f 185/185/185 197/197/197 186/186/186
f 186/186/186 197/197/197 198/198/198
f 186/186/186 198/198/198 187/187/187
f 187/187/187 198/198/198 199/199/199
f 187/187/187 199/199/199 188/188/188
f 188/188/188 199/199/199 200/200/200
f 188/188/188 200/200/200 189/189/189
f 189/189/189 200/200/200 201/201/201
f 189/189/189 201/201/201 190/190/190
f 190/190/190 201/201/201 202/202/202
f 190/190/190 202/202/202 191/191/191
f 191/191/191 202/202/202 203/203/203
f 191/191/191 203/203/203 192/192/192
f 192/192/192 203/203/203 204/204/204
f 192/192/192 204/204/204 193/193/193
f 193/193/193 204/204/204 205/205/205
f 193/193/193 205/205/205 194/194/194
f 194/194/194 205/205/205 206/206/206
f 194/194/194 206/206/206 195/195/195
f 196/196/196 207/207/207 208/208/208
f 196/196/196 208/208/208 197/197/197
f 197/197/197 208/208/208 209/209/209
f 197/197/197 209/209/209 198/198/198
f 198/198/198 209/209/209 210/210/210
f 198/198/198 210/210/210 199/199/199
f 199/199/199 210/210/210 211/211/211
f 199/199/199 211/211/211 200/200/200
f 200/200/200 211/211/211 212/212/212
f 200/200/200 212/212/212 201/201/201
f 201/201/201 212/212/212 213/213/213
f 201/201/201 213/213/213 202/202/202
f 202/202/202 213/213/213 214/214/214
f 202/202/202 214/214/214 203/203/203
f 203/203/203 214/214/214 215/215/215
f 203/203/203 215/215/215 204/204/204
f 204/204/204 215/215/215 216/216/216
f 204/204/204 216/216/216 205/205/205
f 205/205/205 216/216/216 217/217/217
f 205/205/205 217/217/217 206/206/206
f 207/207/207 218/218/218 219/219/219
f 207/207/207 219/219/219 208/208/208
f 208/208/208 219/219/219 220/220/220
f 208/208/208 220/220/220 209/209/209
f 209/209/209 220/220/220 221/221/221
f 209/209/209 221/221/221 210/210/210
f 210/210/210 221/221/221 222/222/222
f 210/210/210 222/222/222 211/211/211
f 211/211/211 222/222/222 223/223/223
f 211/211/211 223/223/223 212/212/212
f 212/212/212 223/223/223 224/224/224
f 212/212/212 224/224/224 213/213/213
f 213/213/213 224/224/224 225/225/225
f 213/213/213 225/225/225 214/214/214
f 214/214/214 225/225/225 226/226/226
f 214/214/214 226/226/226 215/215/215
f 215/215/215 226/226/226 227/227/227
f 215/215/215 227/227/227 216/216/216
f 216/216/216 227/227/227 228/228/228
f 216/216/216 228/228/228 217/217/217
f 218/218/218 229/229/229 230/230/230
f 218/218/218 230/230/230 219/219/219
f 219/219/219 230/230/230 231/231/231
f 219/219/219 231/231/231 220/220/220
f 220/220/220 231/231/231 232/232/232
f 220/220/220 232/232/232 221/221/221
f 221/221/221 232/232/232 233/233/233
f 221/221/221 233/233/233 222/222/222
f 222/222/222 233/233/233 234/234/234
f 222/222/222 234/234/234 223/223/223
f 223/223/223 234/234/234 235/235/235
f 223/223/223 235/235/235 224/224/224
f 224/224/224 235/235/235 236/236/236
f 224/224/224 236/236/236 225/225/225
f 225/225/225 236/236/236 237/237/237
f 225/225/225 237/237/237 226/226/226
f 226/226/226 237/237/237 238/238/238
f 226/226/226 238/238/238 227/227/227
f 227/227/227 238/238/238 239/239/239
f 227/227/227 239/239/239 228/228/228
f 229/229/229 240/240/240 241/241/241
f 229/229/229 241/241/241 230/230/230
f 230/230/230 241/241/241 242/242/242
f 230/230/230 242/242/242 231/231/231
f 231/231/231 242/242/242 243/243/243
f 231/231/231 243/243/243 232/232/232
f 232/232/232 243/243/243 244/244/244
f 232/232/232 244/244/244 233/233/233
f 233/233/233 244/244/244 245/245/245
f 233/233/233 245/245/245 234/234/234
f 234/234/234 245/245/245 246/246/246
f 234/234/234 246/246/246 235/235/235
f 235/235/235 246/246/246 247/247/247
f 235/235/235 247/247/247 236/236/236
f 236/236/236 247/247/247 248/248/248
f 236/236/236 248/248/248 237/237/237
f 237/237/237 248/248/248 249/249/249
f 237/237/237 249/249/249 238/238/238
f 238/238/238 249/249/249 250/250/250
f 238/238/238 250/250/250 239/239/239
f 251/251/251 262/262/262 263/263/263
f 251/251/251 263/263/263 252/252/252
f 252/252/252 263/263/263 264/264/264
f 252/252/252 264/264/264 253/253/253
f 253/253/253 264/264/264 265/265/265
f 253/253/253 265/265/265 254/254/254
f 254/254/254 265/265/265 266/266/266
f 254/254/254 266/266/266 255/255/255
f 255/255/255 266/266/266 267/267/267
f 255/255/255 267/267/267 256/256/256
f 256/256/256 267/267/267 268/268/268
f 256/256/256 268/268/268 257/257/257
f 257/257/257 268/268/268 269/269/269
f 257/257/257 269/269/269 258/258/258
f 258/258/258 269/269/269 270/270/270
f 258/258/258 270/270/270 259/259/259
f 259/259/259 270/270/270 271/271/271
f 259/259/259 271/271/271 260/260/260
f 260/260/260 271/271/271 272/272/272
f 260/260/260 272/272/272 261/261/261
f 262/262/262 273/273/273 274/274/274
f 262/262/262 274/274/274 263/263/263
f 263/263/263 274/274/274 275/275/275
f 263/263/263 275/275/275 264/264/264
f 264/264/264 275/275/275 276/276/276
f 264/264/264 276/276/276 265/265/265
f 265/265/265 276/276/276 277/277/277
f 265/265/265 277/277/277 266/266/266
f 266/266/266 277/277/277 278/278/278
f 266/266/266 278/278/278 267/267/267
f 267/267/267 278/278/278 279/279/279
f 267/267/267 279/279/279 268/268/268
f 268/268/268 279/279/279 280/280/280
f 268/268/268 280/280/280 269/269/269
f 269/269/269 280/280/280 281/281/281
f 269/269/269 281/281/281 270/270/270
f 270/270/270 281/281/281 282/282/282
f 270/270/270 282/282/282 271/271/271
f 271/271/271 282/282/282 283/283/283
f 271/271/271 283/283/283 272/272/272
f 273/273/273 284/284/284 285/285/285
f 273/273/273 285/285/285 274/274/274
f 274/274/274 285/285/285 286/286/286
f 274/274/274 286/286/286 275/275/275
f 275/275/275 286/286/286 287/287/287
f 275/275/275 287/287/287 276/276/276
f 276/276/276 287/287/287 288/288/288
f 276/276/276 288/288/288 277/277/277
f 277/277/277 288/288/288 289/289/289
f 277/277/277 289/289/289 278/278/278
f 278/278/278 289/289/289 290/290/290
f 278/278/278 290/290/290 279/279/279
f 279/279/279 290/290/290 291/291/291
f 279/279/279 291/291/291 280/280/280
f 280/280/280 291/291/291 292/292/292
f 280/280/280 292/292/292 281/281/281
f 281/281/281 292/292/292 293/293/293
f 281/281/281 293/293/293 282/282/282
f 282/282/282 293/293/293 294/294/294
f 282/282/282 294/294/294 283/283/283
f 284/284/284 295/295/295 296/296/296
f 284/284/284 296/296/296 285/285/285
f 285/285/285 296/296/296 297/297/297
f 285/285/285 297/297/297 286/286/286
f 286/286/286 297/297/297 298/298/298
f 286/286/286 298/298/298 287/287/287
f 287/287/287 298/298/298 299/299/299
f 287/287/287 299/299/299 288/288/288
f 288/288/288 299/299/299 300/300/300
f 288/288/288 300/300/300 289/289/289
f 289/289/289 300/300/300 301/301/301
f 289/289/289 301/301/301 290/290/290
f 290/290/290 301/301/301 302/302/302
f 290/290/290 302/302/302 291/291/291
f 291/291/291 302/302/302 303/303/303
f 291/291/291 303/303/303 292/292/292
f 292/292/292 303/303/303 304/304/304
f 292/292/292 304/304/304 293/293/293
f 293/293/293 304/304/304 305/305/305
f 293/293/293 305/305/305 294/294/294
f 295/295/295 306/306/306 307/307/307
f 295/295/295 307/307/307 296/296/296
f 296/296/296 307/307/307 308/308/308
f 296/296/296 308/308/308 297/297/297
f 297/297/297 308/308/308 309/309/309
f 297/297/297 309/309/309 298/298/298
f 298/298/298 309/309/309 310/310/310
f 298/298/298 310/310/310 299/299/299
f 299/299/299 310/310/310 311/311/311
f 299/299/299 311/311/311 300/300/300
f 300/300/300 311/311/311 312/312/312
f 300/300/300 312/312/312 301/301/301
f 301/301/301 312/312/312 313/313/313
f 301/301/301 313/313/313 302/302/302
f 302/302/302 313/313/313 314/314/314
f 302/302/302 314/314/314 303/303/303
f 303/303/303 314/314/314 315/315/315
f 303/303/303 315/315/315 304/304/304
f 304/304/304 315/315/315 316/316/316
f 304/304/304 316/316/316 305/305/305
f 306/306/306 317/317/317 318/318/318
f 306/306/306 318/318/318 307/307/307
f 307/307/307 318/318/318 319/319/319
f 307/307/307 319/319/319 308/308/308
f 308/308/308 319/319/319 320/320/320
f 308/308/308 320/320/320 309/309/309
f 309/309/309 320/320/320 321/321/321
f 309/309/309 321/321/321 310/310/310
f 310/310/310 321/321/321 322/322/322
f 310/310/310 322/322/322 311/311/311
f 311/311/311 322/322/322 323/323/323
f 311/311/311 323/323/323 312/312/312
f 312/312/312 323/323/323 324/324/324
f 312/312/312 324/324/324 313/313/313
f 313/313/313 324/324/324 325/325/325
f 313/313/313 325/325/325 314/314/314
f 314/314/314 325/325/325 326/326/326
f 314/314/314 326/326/326 315/315/315
f 315/315/315 326/326/326 327/327/327
f 315/315/315 327/327/327 316/316/316
f 317/317/317 328/328/328 329/329/329
f 317/317/317 329/329/329 318/318/318
f 318/318/318 329/329/329 330/330/330
f 318/318/318 330/330/330 319/319/319
f 319/319/319 330/330/330 331/331/331
f 319/319/319 331/331/331 320/320/320
f 320/320/320 331/331/331 332/332/332
f 320/320/320 332/332/332 321/321/321
f 321/321/321 332/332/332 333/333/333
f 321/321/321 333/333/333 322/322/322
f 322/322/322 333/333/333 334/334/334
f 322/322/322 334/334/334 323/323/323
f 323/323/323 334/334/334 335/335/335
f 323/323/323 335/335/335 324/324/324
f 324/324/324 335/335/335 336/336/336
f 324/324/324 336/336/336 325/325/325
f 325/325/325 336/336/336 337/337/337
f 325/325/325 337/337/337 326/326/326
f 326/326/326 337/337/337 338/338/338
f 326/326/326 338/338/338 327/327/327
f 328/328/328 339/339/339 340/340/340
f 328/328/328 340/340/340 329/329/329
f 329/329/329 340/340/340 341/341/341
f 329/329/329 341/341/341 330/330/330
f 330/330/330 341/341/341 342/342/342
f 330/330/330 342/342/342 331/331/331
f 331/331/331 342/342/342 343/343/343
f 331/331/331 343/343/343 332/332/332
f 332/332/332 343/343/343 344/344/344
f 332/332/332 344/344/344 333/333/333
f 333/333/333 344/344/344 345/345/345
f 333/333/333 345/345/345 334/334/334
f 334/334/334 345/345/345 346/346/346
f 334/334/334 346/346/346 335/335/335
f 335/335/335 346/346/346 347/347/347
f 335/335/335 347/347/347 336/336/336
f 336/336/336 347/347/347 348/348/348
f 336/336/336 348/348/348 337/337/337
f 337/337/337 348/348/348 349/349/349
f 337/337/337 349/349/349 338/338/338
f 350/350/350 361/361/361 362/362/362
f 350/350/350 362/362/362 351/351/351
f 351/351/351 362/362/362 363/363/363
f 351/351/351 363/363/363 352/352/352
f 352/352/352 363/363/363 364/364/364
f 352/352/352 364/364/364 353/353/353
f 353/353/353 364/364/364 365/365/365
f 353/353/353 365/365/365 354/354/354
f 354/354/354 365/365/365 366/366/366
f 354/354/354 366/366/366 355/355/355
f 355/355/355 366/366/366 367/367/367
f 355/355/355 367/367/367 356/356/356
f 356/356/356 367/367/367 368/368/368
f 356/356/356 368/368/368 357/357/357
f 357/357/357 368/368/368 369/369/369
f 357/357/357 369/369/369 358/358/358
f 358/358/358 369/369/369 370/370/370
f 358/358/358 370/370/370 359/359/359
f 359/359/359 370/370/370 371/371/371
f 359/359/359 371/371/371 360/360/360
f 361/361/361 372/372/372 373/373/373
f 361/361/361 373/373/373 362/362/362
f 362/362/362 373/373/373 374/374/374
f 362/362/362 374/374/374 363/363/363
f 363/363/363 374/374/374 375/375/375
f 363/363/363 375/375/375 364/364/364
f 364/364/364 375/375/375 376/376/376
f 364/364/364 376/376/376 365/365/365
f 365/365/365 376/376/376 377/377/377
f 365/365/365 377/377/377 366/366/366
f 366/366/366 377/377/377 378/378/378
f 366/366/366 378/378/378 367/367/367
f 367/367/367 378/378/378 379/379/379
f 367/367/367 379/379/379 368/368/368
f 368/368/368 379/379/379 380/380/380
f 368/368/368 380/380/380 369/369/369
f 369/369/369 380/380/380 381/381/381
f 369/369/369 381/381/381 370/370/370
f 370/370/370 381/381/381 382/382/382
f 370/370/370 382/382/382 371/371/371
f 372/372/372 383/383/383 384/384/384
f 372/372/372 384/384/384 373/373/373
f 373/373/373 384/384/384 385/385/385
f 373/373/373 385/385/385 374/374/374
f 374/374/374 385/385/385 386/386/386
f 374/374/374 386/386/386 375/375/375
f 375/375/375 386/386/386 387/387/387
f 375/375/375 387/387/387 376/376/376
f 376/376/376 387/387/387 388/388/388
f 376/376/376 388/388/388 377/377/377
f 377/377/377 388/388/388 389/389/389
f 377/377/377 389/389/389 378/378/378
f 378/378/378 389/389/389 390/390/390
f 378/378/378 390/390/390 379/379/379
f 379/379/379 390/390/390 391/391/391
f 379/379/379 391/391/391 380/380/380
f 380/380/380 391/391/391 392/392/392
f 380/380/380 392/392/392 381/381/381
f 381/381/381 392/392/392 393/393/393
f 381/381/381 393/393/393 382/382/382
f 383/383/383 394/394/394 395/395/395
f 383/383/383 395/395/395 384/384/384
f 384/384/384 395/395/395 396/396/396
f 384/384/384 396/396/396 385/385/385
f 385/385/385 396/396/396 397/397/397
f 385/385/385 397/397/397 386/386/386
f 386/386/386 397/397/397 398/398/398
f 386/386/386 398/398/398 387/387/387
f 387/387/387 398/398/398 399/399/399
f 387/387/387 399/399/399 388/388/388
f 388/388/388 399/399/399 400/400/400
f 388/388/388 400/400/400 389/389/389
f 389/389/389 400/400/400 401/401/401
f 389/389/389 401/401/401 390/390/390
f 390/390/390 401/401/401 402/402/402
f 390/390/390 402/402/402 391/391/391
f 391/391/391 402/402/402 403/403/403
f 391/391/391 403/403/403 392/392/392
f 392/392/392 403/403/403 404/404/404
f 392/392/392 404/404/404 393/393/393
f 394/394/394 405/405/405 406/406/406
f 394/394/394 406/406/406 395/395/395
f 395/395/395 406/406/406 407/407/407
f 395/395/395 407/407/407 396/396/396
f 396/396/396 407/407/407 408/408/408
f 396/396/396 408/408/408 397/397/397
f 397/397/397 408/408/408 409/409/409
f 397/397/397 409/409/409 398/398/398
f 398/398/398 409/409/409 410/410/410
f 398/398/398 410/410/410 399/399/399
f 399/399/399 410/410/410 411/411/411
f 399/399/399 411/411/411 400/400/400
f 400/400/400 411/411/411 412/412/412
f 400/400/400 412/412/412 401/401/401
f 401/401/401 412/412/412 413/413/413
f 401/401/401 413/413/413 402/402/402
f 402/402/402 413/413/413 414/414/414
f 402/402/402 414/414/414 403/403/403
f 403/403/403 414/414/414 415/415/415
f 403/403/403 415/415/415 404/404/404
f 405/405/405 416/416/416 417/417/417
f 405/405/405 417/417/417 406/406/406
f 406/406/406 417/417/417 418/418/418
f 406/406/406 418/418/418 407/407/407
f 407/407/407 418/418/418 419/419/419
f 407/407/407 419/419/419 408/408/408
f 408/408/408 419/419/419 420/420/420
f 408/408/408 420/420/420 409/409/409
f 409/409/409 420/420/420 421/421/421
f 409/409/409 421/421/421 410/410/410
f 410/410/410 421/421/421 422/422/422
f 410/410/410 422/422/422 411/411/411
f 411/411/411 422/422/422 423/423/423
f 411/411/411 423/423/423 412/412/412
f 412/412/412 423/423/423 424/424/424
f 412/412/412 424/424/424 413/413/413
f 413/413/413 424/424/424 425/425/425
f 413/413/413 425/425/425 414/414/414
f 414/414/414 425/425/425 426/426/426
f 414/414/414 426/426/426 415/415/415
f 416/416/416 427/427/427 428/428/428
f 416/416/416 428/428/428 417/417/417
f 417/417/417 428/428/428 429/429/429
f 417/417/417 429/429/429 418/418/418
f 418/418/418 429/429/429 430/430/430
f 418/418/418 430/430/430 419/419/419
f 419/419/419 430/430/430 431/431/431
f 419/419/419 431/431/431 420/420/420
f 420/420/420 431/431/431 432/432/432
f 420/420/420 432/432/432 421/421/421
f 421/421/421 432/432/432 433/433/433
f 421/421/421 433/433/433 422/422/422
f 422/422/422 433/433/433 434/434/434
f 422/422/422 434/434/434 423/423/423
f 423/423/423 434/434/434 435/435/435
f 423/423/423 435/435/435 424/424/424
f 424/424/424 435/435/435 436/436/436
f 424/424/424 436/436/436 425/425/425
f 425/425/425 436/436/436 437/437/437
f 425/425/425 437/437/437 426/426/426
f 427/427/427 438/438/438 439/439/439
f 427/427/427 439/439/439 428/428/428
f 428/428/428 439/439/439 440/440/440
f 428/428/428 440/440/440 429/429/429
f 429/429/429 440/440/440 441/441/441
f 429/429/429 441/441/441 430/430/430
f 430/430/430 441/441/441 442/442/442
f 430/430/430 442/442/442 431/431/431
f 431/431/431 442/442/442 443/443/443
f 431/431/431 443/443/443 432/432/432
f 432/432/432 443/443/443 444/444/444
f 432/432/432 444/444/444 433/433/433
f 433/433/433 444/444/444 445/445/445
f 433/433/433 445/445/445 434/434/434
f 434/434/434 445/445/445 446/446/446
f 434/434/434 446/446/446 435/435/435
f 435/435/435 446/446/446 447/447/447
f 435/435/435 447/447/447 436/436/436
f 436/436/436 447/447/447 448/448/448
f 436/436/436 448/448/448 437/437/437
f 449/449/449 460/460/460 461/461/461
f 449/449/449 461/461/461 450/450/450
f 450/450/450 461/461/461 462/462/462
f 450/450/450 462/462/462 451/451/451
f 451/451/451 462/462/462 463/463/463
f 451/451/451 463/463/463 452/452/452
f 452/452/452 463/463/463 464/464/464
f 452/452/452 464/464/464 453/453/453
f 453/453/453 464/464/464 465/465/465
f 453/453/453 465/465/465 454/454/454
f 454/454/454 465/465/465 466/466/466
f 454/454/454 466/466/466 455/455/455
f 455/455/455 466/466/466 467/467/467
f 455/455/455 467/467/467 456/456/456
f 456/456/456 467/467/467 468/468/468
f 456/456/456 468/468/468 457/457/457
f 457/457/457 468/468/468 469/469/469
f 457/457/457 469/469/469 458/458/458
f 458/458/458 469/469/469 470/470/470
f 458/458/458 470/470/470 459/459/459
f 460/460/460 471/471/471 472/472/472
f 460/460/460 472/472/472 461/461/461
f 461/461/461 472/472/472 473/473/473
f 461/461/461 473/473/473 462/462/462
f 462/462/462 473/473/473 474/474/474
f 462/462/462 474/474/474 463/463/463
f 463/463/463 474/474/474 475/475/475
f 463/463/463 475/475/475 464/464/464
f 464/464/464 475/475/475 476/476/476
f 464/464/464 476/476/476 465/465/465
f 465/465/465 476/476/476 477/477/477
f 465/465/465 477/477/477 466/466/466
f 466/466/466 477/477/477 478/478/478
f 466/466/466 478/478/478 467/467/467
f 467/467/467 478/478/478 479/479/479
f 467/467/467 479/479/479 468/468/468
f 468/468/468 479/479/479 480/480/480
f 468/468/468 480/480/480 469/469/469
f 469/469/469 480/480/480 481/481/481
f 469/469/469 481/481/481 470/470/470
f 471/471/471 482/482/482 483/483/483
f 471/471/471 483/483/483 472/472/472
f 472/472/472 483/483/483 484/484/484
f 472/472/472 484/484/484 473/473/473
f 473/473/473 484/484/484 485/485/485
f 473/473/473 485/485/485 474/474/474
f 474/474/474 485/485/485 486/486/486
f 474/474/474 486/486/486 475/475/475
f 475/475/475 486/486/486 487/487/487
f 475/475/475 487/487/487 476/476/476
f 476/476/476 487/487/487 488/488/488
f 476/476/476 488/488/488 477/477/477
f 477/477/477 488/488/488 489/489/489
f 477/477/477 489/489/489 478/478/478
f 478/478/478 489/489/489 490/490/490
f 478/478/478 490/490/490 479/479/479
f 479/479/479 490/490/490 491/491/491
f 479/479/479 491/491/491 480/480/480
f 480/480/480 491/491/491 492/492/492
f 480/480/480 492/492/492 481/481/481
f 482/482/482 493/493/493 494/494/494
f 482/482/482 494/494/494 483/483/483
f 483/483/483 494/494/494 495/495/495
f 483/483/483 495/495/495 484/484/484
f 484/484/484 495/495/495 496/496/496
f 484/484/484 496/496/496 485/485/485
f 485/485/485 496/496/496 497/497/497
f 485/485/485 497/497/497 486/486/486
f 486/486/486 497/497/497 498/498/498
f 486/486/486 498/498/498 487/487/487
f 487/487/487 498/498/498 499/499/499
f 487/487/487 499/499/499 488/488/488
f 488/488/488 499/499/499 500/500/500
f 488/488/488 500/500/500 489/489/489
f 489/489/489 500/500/500 501/501/501
f 489/489/489 501/501/501 490/490/490
f 490/490/490 501/501/501 502/502/502
f 490/490/490 502/502/502 491/491/491
f 491/491/491 502/502/502 503/503/503
f 491/491/491 503/503/503 492/492/492
f 493/493/493 504/504/504 505/505/505
f 493/493/493 505/505/505 494/494/494
f 494/494/494 505/505/505 506/506/506
f 494/494/494 506/506/506 495/495/495
f 495/495/495 506/506/506 507/507/507
f 495/495/495 507/507/507 496/496/496
f 496/496/496 507/507/507 508/508/508
f 496/496/496 508/508/508 497/497/497
f 497/497/497 508/508/508 509/509/509
f 497/497/497 509/509/509 498/498/498
f 498/498/498 509/509/509 510/510/510
f 498/498/498 510/510/510 499/499/499
f 499/499/499 510/510/510 511/511/511
f 499/499/499 511/511/511 500/500/500
f 500/500/500 511/511/511 512/512/512
f 500/500/500 512/512/512 501/501/501
f 501/501/501 512/512/512 513/513/513
f 501/501/501 513/513/513 502/502/502
f 502/502/502 513/513/513 514/514/514
f 502/502/502 514/514/514 503/503/503
f 504/504/504 515/515/515 516/516/516
f 504/504/504 516/516/516 505/505/505
f 505/505/505 516/516/516 517/517/517
f 505/505/505 517/517/517 506/506/506
f 506/506/506 517/517/517 518/518/518
f 506/506/506 518/518/518 507/507/507
f 507/507/507 518/518/518 519/519/519
f 507/507/507 519/519/519 508/508/508
f 508/508/508 519/519/519 520/520/520
f 508/508/508 520/520/520 509/509/509
f 509/509/509 520/520/520 521/521/521
f 509/509/509 521/521/521 510/510/510
f 510/510/510 521/521/521 522/522/522
f 510/510/510 522/522/522 511/511/511
f 511/511/511 522/522/522 523/523/523
f 511/511/511 523/523/523 512/512/512
f 512/512/512 523/523/523 524/524/524
f 512/512/512 524/524/524 513/513/513
f 513/513/513 524/524/524 525/525/525
f 513/513/513 525/525/525 514/514/514
f 515/515/515 526/526/526 527/527/527
f 515/515/515 527/527/527 516/516/516
f 516/516/516 527/527/527 528/528/528
f 516/516/516 528/528/528 517/517/517
f 517/517/517 528/528/528 529/529/529
f 517/517/517 529/529/529 518/518/518
f 518/518/518 529/529/529 530/530/530
f 518/518/518 530/530/530 519/519/519
f 519/519/519 530/530/530 531/531/531
f 519/519/519 531/531/531 520/520/520
f 520/520/520 531/531/531 532/532/532
f 520/520/520 532/532/532 521/521/521
f 521/521/521 532/532/532 533/533/533
f 521/521/521 533/533/533 522/522/522
f 522/522/522 533/533/533 534/534/534
f 522/522/522 534/534/534 523/523/523
f 523/523/523 534/534/534 535/535/535
f 523/523/523 535/535/535 524/524/524
f 524/524/524 535/535/535 536/536/536
f 524/524/524 536/536/536 525/525/525
f 526/526/526 537/537/537 538/538/538
f 526/526/526 538/538/538 527/527/527
f 527/527/527 538/538/538 539/539/539
f 527/527/527 539/539/539 528/528/528
f 528/528/528 539/539/539 540/540/540
f 528/528/528 540/540/540 529/529/529
f 529/529/529 540/540/540 541/541/541
f 529/529/529 541/541/541 530/530/530
f 530/530/530 541/541/541 542/542/542
f 530/530/530 542/542/542 531/531/531
f 531/531/531 542/542/542 543/543/543
f 531/531/531 543/543/543 532/532/532
f 532/532/532 543/543/543 544/544/544
f 532/532/532 544/544/544 533/533/533
f 533/533/533 544/544/544 545/545/545
f 533/533/533 545/545/545 534/534/534
f 534/534/534 545/545/545 546/546/546
f 534/534/534 546/546/546 535/535/535
f 535/535/535 546/546/546 547/547/547
f 535/535/535 547/547/547 536/536/536